<svg width="20" height="15" viewBox="0 0 20 15" fill="none" xmlns="http://www.w3.org/2000/svg">
<g clip-path="url(#clip0_253_49920)">
<path d="M16.4145 1.25625C15.1602 0.669375 13.819 0.242861 12.4168 0C12.2446 0.311339 12.0434 0.730097 11.9047 1.06322C10.4141 0.839056 8.9373 0.839056 7.47415 1.06322C7.33547 0.730097 7.12972 0.311339 6.95597 0C5.55228 0.242861 4.20954 0.670942 2.95521 1.25935C0.425207 5.08252 -0.260635 8.81073 0.0822867 12.486C1.76032 13.7391 3.38653 14.5003 4.9853 14.9985C5.38005 14.4552 5.73211 13.8777 6.0354 13.269C5.45777 13.0495 4.90453 12.7787 4.38178 12.4642C4.52046 12.3615 4.65611 12.254 4.78717 12.1435C7.97557 13.6348 11.4399 13.6348 14.5902 12.1435C14.7228 12.254 14.8584 12.3615 14.9956 12.4642C14.4713 12.7802 13.9165 13.0511 13.3389 13.2706C13.6422 13.8777 13.9927 14.4567 14.389 15C15.9893 14.5019 17.617 13.7407 19.295 12.486C19.6974 8.22542 18.6077 4.53146 16.4145 1.25625ZM6.46977 10.2257C5.51265 10.2257 4.72773 9.3322 4.72773 8.24409C4.72773 7.15599 5.49589 6.26091 6.46977 6.26091C7.44369 6.26091 8.22858 7.15442 8.21182 8.24409C8.21334 9.3322 7.44369 10.2257 6.46977 10.2257ZM12.9076 10.2257C11.9504 10.2257 11.1655 9.3322 11.1655 8.24409C11.1655 7.15599 11.9337 6.26091 12.9076 6.26091C13.8815 6.26091 14.6664 7.15442 14.6496 8.24409C14.6496 9.3322 13.8815 10.2257 12.9076 10.2257Z" fill="#5865F2"/>
</g>
<defs>
<clipPath id="clip0_253_49920">
<rect width="19.5" height="15" fill="white"/>
</clipPath>
</defs>
</svg>
