<svg width="20" height="15" viewBox="0 0 20 15" fill="none" xmlns="http://www.w3.org/2000/svg">
<g clip-path="url(#clip0_253_49915)">
<path d="M19.1926 0.155071C19.1926 0.0796314 19.1129 0 19.1129 0C19.0375 0 19.0375 6.49506e-08 18.9578 0.0796312C17.3862 2.51467 15.7391 4.94971 14.1674 7.46438H0.495983C0.340912 7.46438 0.26128 7.69908 0.420543 7.77871C6.07436 9.89522 14.3225 13.114 18.8782 14.9204C19.0333 15 19.1926 14.8407 19.1926 14.7653V0.155071Z" fill="#FD5A00"/>
<path d="M19.1924 0.155071C19.1924 0.0796314 19.1128 0 19.1128 0C19.0373 0 19.0373 6.49506e-08 18.9577 0.0796313C17.386 2.51467 15.7389 4.94971 14.1672 7.46438L19.1924 7.51593V0.155071Z" fill="#FF690A"/>
</g>
<defs>
<clipPath id="clip0_253_49915">
<rect width="19.5" height="15" fill="white"/>
</clipPath>
</defs>
</svg>
