<svg width="33" height="15" viewBox="0 0 33 15" fill="none" xmlns="http://www.w3.org/2000/svg">
<g clip-path="url(#clip0_253_49926)">
<path d="M30.9147 4.44118C30.9147 5.76471 29.7382 6.83823 28.4147 6.83823C27.0912 6.83823 26.0618 5.76471 26.0618 4.44118C26.0618 3.13235 27.0912 2.05882 28.4147 2.05882C29.7382 2.05882 30.9147 3.13235 30.9147 4.44118ZM28.4147 0C26.0618 0 24.0029 1.97059 24.0029 4.42647L21.2088 8.41176C21.0618 8.39691 21.0618 8.38235 20.9147 8.38235C20.3265 8.38235 19.7382 8.55882 19.15 8.85294L6.59118 3.79412C6.25294 2.29412 4.91471 1.17647 3.32647 1.17647C1.50294 1.17647 0 2.67647 0 4.51471C0 6.33824 1.50294 7.83824 3.32647 7.83824C3.95897 7.83824 4.53235 7.67647 5.0325 7.36765L17.6796 12.4265C17.9737 13.9706 19.2972 15 20.9149 15C22.5325 15 24.0031 13.6765 24.1501 12.0441L28.4149 8.92647C30.9149 8.92647 32.9737 6.92647 32.9737 4.45588C32.9735 2 30.9147 0 28.4147 0ZM28.4147 1.47059C30.1794 1.47059 31.5029 2.80882 31.5029 4.45588C31.5029 6.11765 30.1794 7.45588 28.4147 7.45588C26.7971 7.45588 25.4735 6.11765 25.4735 4.45588C25.4735 2.80882 26.7971 1.47059 28.4147 1.47059ZM3.32647 2.05882C4.26765 2.05882 5.09118 2.57353 5.50309 3.35294L4.28235 2.86765C3.29706 2.51471 2.20882 3 1.81176 3.97059C1.42941 4.95588 1.87059 6.05882 2.82647 6.48529L3.85588 6.89706C3.69397 6.94118 3.51765 6.95588 3.32632 6.95588C1.97353 6.95588 0.885147 5.86765 0.885147 4.51471C0.885294 3.14706 1.97353 2.05882 3.32647 2.05882ZM20.9147 9.26471C22.2382 9.26471 23.2676 10.3676 23.2676 11.7206C23.2676 13.0882 22.2382 14.1176 20.9147 14.1176C19.8853 14.1176 19.15 13.6765 18.7088 12.8676C19.15 13.0882 19.4441 13.2353 19.8853 13.3824C20.9147 13.8235 21.9441 13.2353 22.3853 12.2941C22.6794 11.3825 22.3853 10.1325 21.3559 9.73544L20.3265 9.32368C20.4735 9.29412 20.7676 9.26471 20.9147 9.26471Z" fill="white"/>
</g>
<defs>
<clipPath id="clip0_253_49926">
<rect width="33" height="15" fill="white"/>
</clipPath>
</defs>
</svg>
