<svg width="99" height="247" viewBox="0 0 99 247" fill="none" xmlns="http://www.w3.org/2000/svg">
<path d="M31.4026 155.52C36.4902 152.659 44.8816 149.067 44.8816 149.067L56.5634 142.765L61.6555 138.864C61.6555 138.864 62.7765 140.123 63.4527 140.965C66.0884 144.245 67.0909 146.443 69.1439 150.118C72.3899 155.928 73.4942 159.552 76.3327 165.573C78.0756 169.27 79.2126 171.27 80.8257 175.026C84.1226 182.703 85.2064 187.312 87.7149 195.283L91.9833 210.663L96.2516 246H24.8129C24.8129 246 24.5163 235.005 22.5664 230.395C19.5029 223.152 16.9841 218.425 13.2809 211.489C11.8374 208.785 11.3265 207.114 9.83624 204.436C8.14551 201.398 6.19978 200.214 5.0437 196.934C3.98327 193.925 4.96512 191.87 3.99533 188.831C3.61169 187.629 3.01408 187.073 2.7972 185.83C2.61597 184.791 2.7972 183.129 2.7972 183.129L5.0437 186.58L1.74883 177.277C1.74883 177.277 1.99866 173.514 1.74883 171.125C1.57552 169.467 1 166.923 1 166.923L4.44463 171.125C4.44463 171.125 5.19347 173.526 5.79253 174.876C6.3916 176.227 13.8716 167.337 19.5711 163.172C24.0144 159.925 26.6065 158.216 31.4026 155.52Z" fill="#886545"/>
<path d="M9.0874 179.978C7.77505 179.077 6.38392 179.057 5.79254 177.577C5.45102 176.722 5.67424 175.332 5.76181 174.876C6.36087 176.227 13.8716 167.337 19.5711 163.172C24.0144 159.925 26.6065 158.216 31.4026 155.52C36.4902 152.659 44.8816 149.067 44.8816 149.067C44.8816 149.067 48.5237 145.845 51.3216 145.916C52.0906 145.936 53.2686 146.216 53.2686 146.216H55.5151C57.7376 146.216 59.1152 145.462 61.2062 146.216C62.9014 146.828 63.9595 147.41 64.9504 148.917C65.8476 150.282 66.2024 151.347 65.9987 152.969C65.7658 154.824 64.6589 155.593 63.4527 157.02C60.7879 160.172 58.0263 160.488 54.4667 162.572C49.1348 165.694 45.9106 167.023 40.5384 170.074C36.0446 172.627 33.6448 174.265 29.1561 176.827C25.9032 178.683 24.2215 180.028 20.7692 181.478C18.1596 182.575 16.6951 183.44 13.8799 183.729C13.1311 182.979 12.9406 182.583 12.0827 181.928C10.9729 181.081 10.2382 180.768 9.0874 179.978Z" fill="#91673F"/>
<path d="M78.7289 176.226L80.0768 174.126L80.8257 175.026C84.1226 182.703 85.2064 187.312 87.7149 195.283L91.9833 210.663L87.8647 201.885L85.9177 195.883L80.0768 182.529L77.9801 179.228L78.7289 176.226Z" fill="#90663F"/>
<path d="M44.8816 149.067C44.8816 149.067 36.4902 152.659 31.4026 155.52C26.6065 158.216 24.0144 159.925 19.5711 163.172M44.8816 149.067L56.5634 142.765L61.6555 138.864C61.6555 138.864 62.7765 140.123 63.4527 140.965C66.0884 144.245 67.0909 146.443 69.1439 150.118C72.3899 155.928 73.4942 159.552 76.3327 165.573C78.0756 169.27 79.2126 171.27 80.8257 175.026M44.8816 149.067C44.8816 149.067 48.5237 145.845 51.3216 145.916C52.0906 145.936 53.2686 146.216 53.2686 146.216H55.5151C57.7376 146.216 59.1152 145.462 61.2062 146.216C62.9014 146.828 63.9595 147.41 64.9504 148.917C65.8476 150.282 66.2024 151.347 65.9987 152.969C65.7658 154.824 64.6589 155.593 63.4527 157.02C60.7879 160.172 58.0263 160.488 54.4667 162.572C49.1348 165.694 45.9106 167.023 40.5384 170.074C36.0446 172.627 33.6448 174.265 29.1561 176.827C25.9032 178.683 24.2215 180.028 20.7692 181.478C18.1596 182.575 16.6951 183.44 13.8799 183.729M19.5711 163.172C13.8716 167.337 6.3916 176.227 5.79253 174.876C5.19347 173.526 4.44463 171.125 4.44463 171.125L1 166.923C1 166.923 1.57552 169.467 1.74883 171.125C1.99866 173.514 1.74883 177.277 1.74883 177.277L5.0437 186.58L2.7972 183.129C2.7972 183.129 2.61597 184.791 2.7972 185.83C3.01408 187.073 3.61169 187.629 3.99533 188.831C4.96512 191.87 3.98327 193.925 5.0437 196.934C6.19978 200.214 8.14551 201.398 9.83624 204.436C11.3265 207.114 11.8374 208.785 13.2809 211.489C16.9841 218.425 19.5029 223.152 22.5664 230.395C24.5163 235.005 24.8129 246 24.8129 246H96.2516L91.9833 210.663M19.5711 163.172C13.8716 167.337 6.36087 176.227 5.76181 174.876C5.67424 175.332 5.45102 176.722 5.79254 177.577C6.38392 179.057 7.77505 179.077 9.0874 179.978C10.2382 180.768 10.9729 181.081 12.0827 181.928C12.9406 182.583 13.1311 182.979 13.8799 183.729M80.8257 175.026C84.1226 182.703 85.2064 187.312 87.7149 195.283L91.9833 210.663M80.8257 175.026L80.0768 174.126L78.7289 176.226L77.9801 179.228L80.0768 182.529L85.9177 195.883L87.8647 201.885L91.9833 210.663M13.8799 183.729C11.1299 184.011 9.35044 184.14 6.8409 182.979C4.84225 182.054 2.49767 179.378 2.49767 179.378M66.1485 153.119L69.8927 160.921L72.888 165.273L75.1345 166.923L77.381 167.824" stroke="black" stroke-width="0.6"/>
<path d="M49.6162 213.068C48.7183 215.402 47.8297 217.747 46.9505 220.104C46.9456 220.117 46.9363 220.128 46.9244 220.135C46.9124 220.142 46.8985 220.145 46.8848 220.143C46.8636 220.139 46.8499 220.126 46.8438 220.104C46.8405 220.092 46.8409 220.075 46.845 220.052C47.3325 217.235 47.8196 214.417 48.3061 211.6C48.3582 211.298 48.4838 211.199 48.6745 210.994C52.3894 207.006 56.1105 203.012 59.8376 199.012C59.8424 199.007 59.8486 199.003 59.8554 199.001C59.8623 198.999 59.8695 199 59.8762 199.002C59.8828 199.004 59.8887 199.009 59.893 199.014C59.8974 199.02 59.9 199.027 59.9006 199.034C59.9042 199.074 59.8975 199.122 59.8805 199.177C59.0988 201.709 58.4262 203.834 57.8627 205.55C57.7465 205.904 57.5422 206.138 57.2316 206.392C54.8765 208.316 52.5284 210.249 50.1873 212.19C49.8949 212.433 49.7662 212.678 49.6162 213.068ZM48.7971 211.618L48.1049 215.623C48.1047 215.624 48.1046 215.625 48.1047 215.625C48.1048 215.626 48.105 215.627 48.1053 215.627C48.1056 215.628 48.1061 215.629 48.1066 215.629C48.1072 215.629 48.1078 215.63 48.1085 215.63C48.1092 215.63 48.1099 215.63 48.1106 215.63C48.1113 215.63 48.1119 215.63 48.1126 215.63C48.1132 215.629 48.1137 215.629 48.1142 215.628C48.1146 215.628 48.1149 215.627 48.1151 215.626C48.4888 214.644 48.865 213.666 49.2437 212.691C49.3789 212.344 49.5888 212.052 49.8736 211.815C52.2272 209.863 54.5879 207.919 56.9559 205.984C57.159 205.818 57.3238 205.642 57.3967 205.415C57.8901 203.879 58.3811 202.338 58.8697 200.791C58.8704 200.789 58.8705 200.787 58.8699 200.785C58.8693 200.783 58.868 200.782 58.8664 200.781C58.8647 200.78 58.8627 200.779 58.8608 200.78C58.8589 200.78 58.8572 200.781 58.856 200.783L48.8381 211.535C48.8161 211.559 48.8024 211.586 48.7971 211.618Z" fill="black"/>
<path d="M50.452 214.236C50.7342 213.667 50.9212 213.298 51.0128 213.13C51.1643 212.852 51.3849 212.666 51.6732 212.457C55.7595 209.503 59.8438 206.539 63.9261 203.567C63.9318 203.562 63.9384 203.56 63.9453 203.559C63.9523 203.557 63.9594 203.558 63.9661 203.56C63.9728 203.562 63.9789 203.566 63.984 203.571C63.989 203.576 63.9929 203.582 63.9952 203.588C64.0023 203.609 64.0015 203.635 63.9929 203.668C63.2173 206.562 62.5307 209.04 61.9333 211.1C61.8228 211.482 61.5817 211.555 61.1776 211.743C58.8623 212.82 56.544 213.891 54.2226 214.955C53.6284 215.227 53.1814 215.562 52.6601 216.02C50.8885 217.576 49.1128 219.134 47.3329 220.694C47.3289 220.697 47.324 220.699 47.3187 220.7C47.3134 220.701 47.3079 220.701 47.3029 220.699C47.2766 220.687 47.271 220.666 47.2862 220.635C48.3403 218.502 49.3956 216.369 50.452 214.236ZM48.766 218.751C48.7455 218.793 48.7526 218.798 48.7872 218.768C49.8943 217.797 51.0093 216.818 52.1322 215.832C52.5046 215.505 52.6959 215.338 52.706 215.329C53.1047 215.001 53.529 214.733 53.9788 214.527C56.4255 213.404 58.8703 212.278 61.3132 211.146C61.3902 211.111 61.4385 211.058 61.4583 210.99C62.0567 208.903 62.6397 206.812 63.2073 204.718C63.2078 204.716 63.2077 204.714 63.207 204.712C63.2063 204.71 63.205 204.708 63.2032 204.707C63.2015 204.706 63.1995 204.705 63.1974 204.705C63.1953 204.705 63.1933 204.706 63.1917 204.707C59.4248 207.449 55.6523 210.186 51.874 212.917C51.6788 213.058 51.511 213.217 51.4138 213.412C50.5442 215.15 49.6616 216.93 48.766 218.751Z" fill="black"/>
<path d="M58.4702 218.03C58.4624 217.978 58.4307 217.953 58.3753 217.953C57.1286 217.964 55.8414 217.923 54.6255 218.121C54.2184 218.188 53.8653 218.311 53.4548 218.501C51.6405 219.342 49.8295 220.189 48.0217 221.044C47.9838 221.062 47.9476 221.075 47.9131 221.083C47.9066 221.084 47.8997 221.083 47.8937 221.08C47.8877 221.077 47.8829 221.072 47.8801 221.066C47.8772 221.06 47.8766 221.053 47.8782 221.046C47.8797 221.04 47.8835 221.034 47.8888 221.03C49.733 219.608 51.5851 218.192 53.4449 216.781C53.8721 216.457 54.3062 216.278 54.8723 216.091C56.8241 215.444 58.774 214.8 60.722 214.157C60.7333 214.154 60.7454 214.153 60.7571 214.154C60.7689 214.156 60.7801 214.161 60.7897 214.168C60.7993 214.175 60.8071 214.185 60.8124 214.195C60.8177 214.206 60.8204 214.218 60.8203 214.23C60.8089 215.771 60.4814 217.235 59.8376 218.622C58.6206 221.245 56.261 223.068 53.4951 223.743C49.1222 224.809 44.7443 222.47 42.8776 218.414C41.8121 216.099 41.7164 213.416 42.5928 211.008C43.4081 208.769 45.0948 206.962 47.1806 205.896C48.6551 205.142 50.3084 204.807 51.9629 204.887C51.9684 204.887 51.9739 204.888 51.9792 204.889C52.0445 204.907 52.0622 204.941 52.0324 204.993C51.7883 205.41 51.5415 205.826 51.2919 206.24C51.2547 206.302 51.1889 206.334 51.0945 206.338C49.2224 206.405 47.5925 207.04 46.2047 208.243C44.0931 210.074 43.1282 213.043 43.5877 215.786C43.9887 218.181 45.5019 220.347 47.5926 221.527C49.7381 222.738 52.3897 222.809 54.6411 221.777C56.2477 221.04 57.6785 219.706 58.4615 218.088C58.4701 218.07 58.4732 218.05 58.4702 218.03ZM51.9105 222.973C49.1377 223.16 46.5321 221.963 44.8222 219.758C42.3019 216.506 42.3961 211.9 45.0276 208.742C46.5021 206.972 48.6202 205.982 50.9145 205.858C50.9393 205.856 50.965 205.834 50.9915 205.791C51.0718 205.662 51.1512 205.529 51.2296 205.393C51.2377 205.379 51.2338 205.373 51.2179 205.373C51.0179 205.374 50.8184 205.385 50.6194 205.405C47.8167 205.681 45.2577 207.238 43.7855 209.662C42.2169 212.245 42.0639 215.538 43.3515 218.28C45.1256 222.056 49.2289 224.246 53.3151 223.281C57.3375 222.332 60.0434 218.999 60.3096 214.833C60.3106 214.818 60.3044 214.814 60.291 214.818C58.5121 215.403 56.734 215.991 54.9566 216.582C54.4535 216.749 54.0791 216.914 53.6952 217.206C52.9866 217.744 52.2803 218.282 51.5763 218.82C51.5751 218.82 51.5743 218.822 51.5739 218.823C51.5736 218.824 51.5739 218.826 51.5746 218.827C51.5754 218.828 51.5766 218.829 51.578 218.829C51.5794 218.83 51.5808 218.83 51.582 218.829C52.0863 218.596 52.588 218.363 53.0872 218.129C53.3989 217.984 53.632 217.885 53.7867 217.832C54.1267 217.716 54.4824 217.636 54.8537 217.591C55.9952 217.452 57.1055 217.473 58.2348 217.46C58.5131 217.457 58.733 217.497 58.8761 217.729C59.0163 217.957 58.9616 218.192 58.8336 218.433C57.4442 221.056 54.8256 222.776 51.9105 222.973Z" fill="black"/>
<path d="M43.7609 12.5087C42.9102 14.6574 41.3646 16.1099 40.9153 17.7605C40.466 19.4111 41.057 20.9116 41.5144 22.112C42.0841 23.6072 42.7674 24.3098 43.7609 25.5631C44.4829 26.474 45.2028 26.6753 46.0074 27.5138C47.4353 29.0019 49.0027 29.801 49.0027 31.8653C49.0027 34.116 47.3239 37.3143 46.0074 40.7182C44.7864 43.8751 42.926 46.8703 42.5627 48.6709C41.8179 52.363 43.2344 54.364 43.012 58.1241C42.8755 60.4323 42.682 61.7351 42.1134 63.9761C41.3375 67.0344 40.4655 68.6264 39.1181 71.4786C37.864 74.1332 36.3261 75.2561 35.5237 78.0808C34.8801 80.3465 34.9246 81.9822 34.9246 84.0829C34.9246 86.1836 36.5542 89.3077 36.1228 92.6358C35.9912 93.6506 35.6494 94.171 35.5237 95.1866C35.3797 96.3497 36.0987 97.1671 35.5237 98.1876C35.029 99.0656 34.2317 99.0829 33.427 99.6881C30.6106 101.806 28.7526 102.832 26.6875 105.69C25.0461 107.962 24.1473 109.404 23.5424 112.142C22.6627 116.123 23.4089 118.698 24.8903 122.496C26.277 126.051 27.8313 127.752 30.3939 130.557L30.4316 130.599C33.355 133.798 35.8467 134.659 39.1181 137.501C42.0257 140.027 47.0557 142.453 46.0074 143.953C44.959 145.454 35.3739 151.306 34.9246 153.706C34.4753 156.107 35.2242 155.807 36.1228 155.657C37.0214 155.507 45.5581 149.055 46.3069 149.055C47.0557 149.055 42.7125 155.657 42.7125 158.058C42.7125 160.459 43.4613 163.31 44.6595 162.409C45.8576 161.509 48.5534 152.956 54.8436 147.104C61.1338 141.252 61.8826 141.852 62.0324 140.502C62.1822 139.151 58.8207 137.713 58.2882 135.25C58.0035 133.933 58.2882 134.8 58.2882 131.799C58.2882 128.798 64.5194 142.201 68.1728 149.055C72.4366 157.053 74.9024 161.531 78.357 169.912C81.5693 177.705 82.6055 182.364 85.396 190.319C90.2423 204.134 97.2797 224.08 98.1262 225.581C98.9727 227.081 94.5872 198.87 88.3913 182.966C85.4993 175.543 82.9674 171.777 79.7049 164.51C74.9195 153.85 66.3756 140.502 68.1728 136.901C69.97 133.299 72.8156 131.349 73.5644 128.798C74.3133 126.247 74.1931 121.701 74.7626 117.094C75.7239 109.316 78.7783 105.07 79.7049 97.2873C80.5646 90.0664 80.4537 87.534 80.4537 78.6811C80.4537 69.8281 76.7095 62.7757 76.7095 60.3749C76.7095 57.9741 77.5705 57.1961 78.357 54.9731C79.2154 52.5466 79.7147 51.0952 79.7049 48.5209C79.688 44.1245 77.4729 42.0216 75.6612 38.0173C73.7493 33.7916 70.9142 32.0846 70.1198 27.5138C69.6783 24.9737 69.5089 23.4162 70.1198 20.9116C70.7847 18.1858 72.6747 17.2701 73.5644 14.6094C74.4106 12.079 75.3602 10.4186 74.6128 7.85715C73.9694 5.65212 72.8446 4.59481 71.0184 3.20558C68.1484 1.02233 65.6165 1.47883 62.0324 1.10487C59.0656 0.795309 54.3943 1.10487 54.3943 1.10487C54.3943 1.10487 47.3512 1.64706 45.1088 4.85613C43.3716 7.34215 44.2102 11.3738 43.7609 12.5087Z" fill="#B07136"/>
<path d="M46.3069 149.055C47.0557 149.055 42.7125 155.657 42.7125 158.058C42.7125 160.459 43.4613 163.31 44.6595 162.409C45.8576 161.509 48.5534 152.956 54.8436 147.104C61.1338 141.252 61.8826 141.852 62.0324 140.502C62.1822 139.151 58.8207 137.713 58.2882 135.25C58.0035 133.933 58.2882 134.8 58.2882 131.799C58.2882 128.798 64.5194 142.201 68.1728 149.055C72.4366 157.053 74.9024 161.531 78.357 169.912C81.5693 177.705 82.6055 182.364 85.396 190.319C90.2423 204.134 97.2797 224.08 98.1262 225.581C98.9727 227.081 94.5872 198.87 88.3913 182.966C85.4993 175.543 82.9674 171.777 79.7049 164.51C74.9195 153.85 66.3756 140.502 68.1728 136.901C69.97 133.299 72.8156 131.349 73.5644 128.798C74.3133 126.247 74.1931 121.701 74.7626 117.094C75.7239 109.316 78.7783 105.07 79.7049 97.2873C80.5646 90.0664 80.4537 87.534 80.4537 78.6811C80.4537 69.8281 76.7095 62.7757 76.7095 60.3749C76.7095 57.9741 77.5705 57.1961 78.357 54.9731C79.2154 52.5466 79.7147 51.0952 79.7049 48.5209C79.688 44.1245 77.4729 42.0216 75.6612 38.0173C73.7493 33.7916 70.9142 32.0846 70.1198 27.5138C69.6783 24.9737 69.5089 23.4162 70.1198 20.9116C70.7847 18.1858 72.6747 17.2701 73.5644 14.6094C74.4106 12.079 75.3602 10.4186 74.6128 7.85715C73.9694 5.65212 72.8446 4.59481 71.0184 3.20558C68.1484 1.02233 65.6165 1.47883 62.0324 1.10487C59.0656 0.795309 54.3943 1.10487 54.3943 1.10487C54.3943 1.10487 47.3512 1.64706 45.1088 4.85613C43.3716 7.34215 44.2102 11.3738 43.7609 12.5087C42.9102 14.6574 41.3646 16.1099 40.9153 17.7605C40.466 19.4111 41.057 20.9116 41.5144 22.112C42.0841 23.6072 42.7674 24.3098 43.7609 25.5631C44.4829 26.474 45.2028 26.6753 46.0074 27.5138C47.4353 29.0019 49.0027 29.801 49.0027 31.8653C49.0027 34.116 47.3239 37.3143 46.0074 40.7182C44.7864 43.8751 42.926 46.8703 42.5627 48.6709C41.8179 52.363 43.2344 54.364 43.012 58.1241C42.8755 60.4323 42.682 61.7351 42.1134 63.9761C41.3375 67.0344 40.4655 68.6263 39.1181 71.4786C37.864 74.1332 36.3261 75.2561 35.5237 78.0808C34.8801 80.3465 34.9246 81.9822 34.9246 84.0829C34.9246 86.1836 36.5542 89.3077 36.1228 92.6358C35.9912 93.6506 35.6494 94.171 35.5237 95.1866C35.3797 96.3497 36.0987 97.1671 35.5237 98.1876C35.029 99.0656 34.2317 99.0829 33.427 99.6881C30.6106 101.806 28.7526 102.832 26.6875 105.69C25.0461 107.962 24.1473 109.404 23.5424 112.142C22.6627 116.124 23.4089 118.698 24.8903 122.496C26.2838 126.069 27.8466 127.769 30.4316 130.599C33.355 133.798 35.8467 134.659 39.1181 137.501C42.0257 140.027 47.0557 142.453 46.0074 143.953C44.959 145.454 35.3739 151.306 34.9246 153.706C34.4753 156.107 35.2242 155.807 36.1228 155.657C37.0214 155.507 45.5581 149.055 46.3069 149.055ZM46.3069 149.055C46.3069 149.055 49.9912 146.634 51.2492 144.253C51.9676 142.894 52.2486 142.027 52.4473 140.502C52.786 137.903 52.1478 136.15 51.2492 133.9" stroke="black" stroke-width="0.6"/>
<path d="M57.0901 9.35763C55.8138 10.5639 55.0478 11.3274 54.3943 12.9588C54.1669 13.5266 53.945 14.1593 53.945 14.4594C53.945 14.7595 56.1915 15.5097 57.5394 15.6598C58.8873 15.8098 62.0324 14.3093 62.7812 13.409C63.5301 12.5087 63.9794 9.35764 63.5301 8.60738C63.0808 7.85712 62.3319 6.35664 60.984 6.80677C59.6361 7.2569 58.4117 8.10852 57.0901 9.35763Z" fill="#E8B98D" stroke="black" stroke-width="0.3"/>
<path d="M49.3022 9.5078C50.8013 9.81823 51.399 11.1583 52.1478 12.2087C52.3518 12.4948 52.5081 12.8277 52.2976 13.109C51.8483 13.7092 51.6985 14.0093 51.2492 14.4594C50.6944 15.0154 49.452 15.3598 49.452 15.3598C49.452 15.3598 47.8806 16.0741 46.906 15.8099C45.4946 15.4272 44.6595 12.8089 44.6595 12.8089C44.6595 12.8089 44.4099 12.2507 44.5097 11.9086C44.6378 11.4693 45.4083 11.0083 45.4083 11.0083C45.4083 11.0083 47.6853 9.17295 49.3022 9.5078Z" fill="#E8B98D" stroke="black" stroke-width="0.3"/>
<path d="M56.6292 11.5165C57.0481 10.5197 58.021 10.258 59.1867 10.258C59.7437 10.258 60.4311 10.4732 60.9634 10.7477C61.229 10.8847 61.4466 11.0316 61.5861 11.1657C61.6561 11.233 61.7005 11.2913 61.7236 11.3378C61.7465 11.3839 61.7423 11.4049 61.7402 11.4111C61.6722 11.6154 61.4948 11.9389 61.2554 12.271C61.0169 12.6018 60.7275 12.9264 60.4445 13.1391C60.3927 13.1781 60.3001 13.219 60.1625 13.2557C60.028 13.2915 59.8625 13.3204 59.6749 13.3421C59.3 13.3857 58.8486 13.3997 58.4037 13.3904C57.9589 13.3811 57.5251 13.3486 57.1861 13.3004C57.0162 13.2763 56.8733 13.2486 56.766 13.2191C56.7123 13.2042 56.6704 13.1897 56.6397 13.1762C56.6098 13.163 56.5986 13.1543 56.5972 13.1531C56.5971 13.153 56.597 13.153 56.5971 13.1531C56.5472 13.1031 56.5025 13.0208 56.4711 12.9035C56.4402 12.7876 56.4248 12.6467 56.4264 12.4908C56.4296 12.1784 56.5007 11.8225 56.6292 11.5165Z" fill="black" stroke="black" stroke-width="0.3"/>
<path d="M58.7759 11.3084C58.3364 11.3084 57.9398 11.4236 57.7693 11.8983C57.6676 12.1814 57.6574 12.5537 57.7693 12.6848C57.8812 12.8159 59.0555 12.8814 59.2791 12.6848C59.5028 12.4882 59.7265 12.0949 59.7824 11.8983C59.8383 11.7017 59.2153 11.3084 58.7759 11.3084Z" fill="white" stroke="black" stroke-width="0.3"/>
<path d="M48.4036 19.261C48.5418 18.4915 48.6774 18.6208 48.8529 18.2106C49.5988 17.8294 50.1132 17.7189 50.9496 17.7605C52.2558 17.8253 53.684 17.977 53.9449 19.261C54.1036 20.042 53.9449 20.9115 53.3459 21.2116C52.7468 21.5117 51.0994 21.6618 50.5004 21.6618C49.7368 21.6618 49.4478 21.7176 48.8529 21.2116C48.258 20.7057 48.2653 20.0304 48.4036 19.261Z" fill="black"/>
<path d="M52.2975 13.1089C52.2975 13.1089 50.1981 16.2183 48.8529 18.2106M48.8529 18.2106C48.6774 18.6208 48.5418 18.4915 48.4036 19.261C48.2653 20.0304 48.258 20.7057 48.8529 21.2116C49.4478 21.7176 49.7368 21.6618 50.5004 21.6618C51.0994 21.6618 52.7468 21.5117 53.3459 21.2116C53.9449 20.9115 54.1036 20.042 53.9449 19.261C53.684 17.977 52.2558 17.8253 50.9496 17.7605C50.1132 17.7189 49.5988 17.8294 48.8529 18.2106Z" stroke="black" stroke-width="0.3"/>
<ellipse cx="0.599107" cy="0.450122" rx="0.599107" ry="0.450122" transform="matrix(0.982273 0.187456 -0.186772 0.982403 49.6964 19.0067)" fill="white"/>
<path d="M51.2492 13.4097C51.399 12.9596 49.8558 11.0518 48.4036 11.0089C47.5314 10.9832 46.3069 11.7829 46.3069 11.7829C46.3069 11.7829 46.6064 13.8599 47.505 14.31C48.4036 14.7602 51.0994 13.8598 51.2492 13.4097Z" fill="black" stroke="black" stroke-width="0.3"/>
<path d="M49.8964 12.9608C49.9689 12.7636 49.2222 11.9276 48.5196 11.9088C48.0975 11.8976 47.505 12.248 47.505 12.248C47.505 12.248 47.65 13.1581 48.0848 13.3553C48.5196 13.5526 49.824 13.1581 49.8964 12.9608Z" fill="white" stroke="black" stroke-width="0.3"/>
<path d="M69.7672 6.86153C69.8382 6.34715 69.7707 5.74295 69.7189 5.27866C69.7149 5.2429 69.711 5.20796 69.7073 5.17397C69.6831 4.95399 69.666 4.77828 69.6637 4.64528C69.7368 4.66407 69.8265 4.69501 69.9316 4.73884C70.2054 4.8531 70.5227 5.02879 70.8157 5.20103C71.9593 5.87339 72.3836 6.65971 72.8908 7.99889C73.2101 8.84191 73.3546 9.55164 73.3509 10.2515C73.3472 10.9528 73.1947 11.6684 72.8883 12.524C72.4114 13.8558 71.8068 14.4662 70.7369 15.5257C70.6061 15.6553 70.4744 15.7934 70.3485 15.9255C70.3273 15.9478 70.3063 15.9699 70.2854 15.9917C70.1382 16.1459 69.9997 16.2892 69.8677 16.413C69.7932 16.4829 69.7246 16.543 69.6615 16.5931C69.6786 16.4095 69.7085 16.1875 69.7432 15.9302C69.7576 15.8237 69.7728 15.7111 69.7882 15.5927C69.9056 14.6915 70.0346 13.4808 69.7541 12.5441C69.5977 12.0217 69.3283 11.6473 69.1051 11.337C69.0814 11.3039 69.0581 11.2716 69.0356 11.24C68.799 10.9072 68.6236 10.6249 68.5695 10.2067C68.4958 9.63704 68.6871 9.22632 68.9753 8.73391C69.0077 8.67864 69.0416 8.622 69.0764 8.5638C69.3451 8.11453 69.6691 7.57298 69.7672 6.86153Z" fill="#FFB5B5" stroke="black" stroke-width="0.8"/>
<path d="M63.3803 19.111C63.3803 19.111 66.103 18.5356 67.8733 18.3608C69.5623 18.194 72.2165 18.2107 72.2165 18.2107" stroke="black" stroke-width="0.6" stroke-linecap="round"/>
<path d="M65.3273 21.5109C65.3273 21.5109 66.4992 21.3018 67.2742 21.2114C68.0875 21.1165 69.371 21.0616 69.371 21.0616" stroke="black" stroke-width="0.6" stroke-linecap="round"/>
<path d="M53.1962 93.5361C53.1962 93.5361 48.3517 97.6359 45.4084 100.438C43.3099 102.437 41.7498 103.262 40.1665 105.69C37.2053 110.232 37.0214 116.494 37.6205 119.345C38.2196 122.196 40.1718 125.464 42.7125 128.798C44.8708 131.63 47.3553 134.5 48.7032 135.85C50.0511 137.201 50.451 137.959 50.8 139.602C51.1297 141.153 50.5004 143.653 50.5004 143.653" stroke="black" stroke-width="0.6"/>
<path d="M43.3116 20.0113C43.3116 20.0113 40.8409 20.0102 39.2679 20.1613C37.7363 20.3085 35.3739 20.7615 35.3739 20.7615" stroke="black" stroke-width="0.6" stroke-linecap="round"/>
<path d="M43.6111 21.962C43.6111 21.962 40.9153 22.2621 39.4176 22.5622C37.909 22.8645 35.6735 23.9126 35.6735 23.9126" stroke="black" stroke-width="0.6" stroke-linecap="round"/>
<path d="M44.8092 24.6629C44.8092 24.6629 42.3372 25.4671 40.6158 26.3135C38.9397 27.1375 36.1228 29.3145 36.1228 29.3145" stroke="black" stroke-width="0.6" stroke-linecap="round"/>
<path d="M61.2835 47.0204C61.2835 47.0204 57.2244 50.9497 56.0416 54.2229C55.1378 56.7243 55.1588 58.3149 55.143 60.9752C55.1208 64.7226 58.4379 67.2773 56.7905 70.4283C55.143 73.5794 50.9278 75.4975 48.5533 79.7315C45.6001 84.9974 46.3068 92.7859 44.8091 94.7366C44.8091 94.7366 44.3082 95.8025 44.2102 96.5372C44.0611 97.6544 44.6594 99.2381 44.6594 99.3881C44.6594 99.5382 45.7078 95.3368 45.7078 95.4868C45.7078 95.6369 45.558 99.5382 45.7078 99.3881C45.8576 99.2381 46.7562 96.3871 46.7562 96.5372C46.7562 96.6872 47.3552 99.6882 47.3552 99.8383C47.3552 99.9883 47.8045 98.3378 47.8045 95.937C47.8045 93.5361 47.9085 92.2085 48.7031 89.9349C49.4161 87.8946 49.9498 86.8593 51.2491 85.1333C54.1637 81.2615 56.8727 80.0689 60.2351 76.5804C63.2852 73.4159 65.9054 72.1819 67.7234 68.1776C68.5817 66.2872 69.2211 63.0759 69.2211 63.0759" stroke="black" stroke-width="0.6" stroke-linecap="round"/>
<path d="M61.2835 47.0204C61.2835 47.0204 57.2244 50.9497 56.0416 54.2229C55.1378 56.7243 55.1588 58.3149 55.143 60.9752C55.1208 64.7226 58.4379 67.2773 56.7905 70.4283C55.143 73.5794 50.9278 75.4975 48.5533 79.7315C45.6001 84.9974 46.3068 92.7859 44.8091 94.7366C44.8091 94.7366 44.3082 95.8025 44.2102 96.5372C44.0611 97.6544 44.6594 99.2381 44.6594 99.3881C44.6594 99.5382 45.7078 95.3368 45.7078 95.4868C45.7078 95.6369 45.558 99.5382 45.7078 99.3881C45.8576 99.2381 46.7562 96.3871 46.7562 96.5372C46.7562 96.6872 47.3552 99.6882 47.3552 99.8383C47.3552 99.9883 47.8045 98.3378 47.8045 95.937C47.8045 93.5361 47.9085 92.2085 48.7031 89.9349C49.4161 87.8946 49.9498 86.8593 51.2491 85.1333C54.1637 81.2615 56.8727 80.0689 60.2351 76.5804C63.2852 73.4159 65.9054 72.1819 67.7234 68.1776C68.5817 66.2872 69.2211 63.0759 69.2211 63.0759" stroke="black" stroke-width="0.5" stroke-linecap="round"/>
<path d="M35.6735 97.8876C35.6735 97.8876 35.9169 98.6026 36.1228 99.088C36.421 99.7912 37.4707 100.138 37.4707 100.138C37.4707 100.138 36.6762 98.8485 36.7218 97.7376C36.7546 96.9412 37.1711 95.4868 37.1711 95.4868C37.1711 95.4868 36.7867 97.1115 37.1711 98.0377C37.505 98.842 38.519 99.5382 38.519 99.5382C38.519 99.5382 37.964 98.2895 37.92 97.4375C37.8802 96.6678 38.2195 95.4868 38.2195 95.4868C38.2195 95.4868 38.1024 96.7895 38.519 97.4375C38.9057 98.0388 40.0167 98.4878 40.0167 98.4878C40.0167 98.4878 39.4979 97.4133 39.2679 96.6872C39.0145 95.8875 39.028 95.5404 39.2679 94.7366C39.5048 93.9426 39.5674 93.5362 39.5674 92.936C39.5674 92.3358 39.6939 89.9855 39.5674 87.9843C39.4159 85.5865 39.1297 83.5535 39.5674 81.6822C40.0051 79.8108 39.9754 78.8933 40.9153 77.4807C42.1134 75.6801 43.1618 73.1293 43.1618 73.1293" stroke="black" stroke-width="0.6" stroke-linecap="round"/>
<path d="M59.8214 21.4413C59.5221 21.4321 57.9338 22.2632 56.6458 22.3949C55.7439 22.4872 54.8374 22.54 54.3912 22.6261C53.945 22.7123 57.0492 23.9085 58.7004 23.8089C60.3516 23.7093 60.1208 21.4504 59.8214 21.4413Z" fill="#FFB5B5" stroke="black" stroke-width="0.6"/>
</svg>
