<svg width="193" height="267" viewBox="0 0 193 267" fill="none" xmlns="http://www.w3.org/2000/svg">
<path d="M26.3546 6.81104L26.3546 260.189" stroke="url(#paint0_linear_1338_57606)" stroke-width="12" stroke-linecap="round"/>
<path d="M26.3546 6.81104L26.3546 260.189" stroke="url(#paint1_linear_1338_57606)" stroke-width="10" stroke-linecap="round"/>
<path d="M28.3735 219.646C28.4351 222.406 28.5026 224.069 28.5034 227.005C28.5043 229.913 28.4488 231.543 28.3735 234.447C28.3307 236.099 28.3111 237.279 28.2436 238.675C28.1192 241.29 27.7882 244.191 27.5311 246.914C27.5216 247.012 27.4996 247.102 27.4677 247.172C27.4358 247.243 27.3954 247.291 27.3515 247.312C27.3076 247.332 27.262 247.323 27.2203 247.286C27.1786 247.249 27.1426 247.186 27.1167 247.104C25.2513 241.202 24.2493 234.63 24.1107 227.385C24.0067 221.936 24.1494 216.715 24.5388 211.723C24.6263 210.595 24.8164 209.172 24.9053 207.863C25.0211 206.175 25.0794 205.323 25.0803 205.309C25.3174 202.598 25.6397 199.97 26.0472 197.423C26.0569 197.362 26.0743 197.309 26.0974 197.27C26.1205 197.231 26.1482 197.209 26.1769 197.205C26.2057 197.202 26.2343 197.217 26.2592 197.25C26.284 197.283 26.304 197.331 26.3166 197.389C26.5956 198.679 26.8108 200.029 26.9622 201.439C27.1527 203.216 27.2804 204.351 27.3451 204.846C27.9405 209.421 28.2833 214.098 28.3735 218.877C28.3735 218.877 28.3682 219.406 28.3735 219.646ZM26.5122 199.983C26.4867 199.421 26.4142 199.048 26.2948 198.864C26.1598 198.655 26.0705 198.728 26.0267 199.082C25.6702 201.933 25.394 204.852 25.1979 207.839C25.1414 208.699 25.0894 209.401 25.042 209.945C24.8752 211.874 24.7931 213.483 24.6865 215.268C24.0341 226.174 24.4786 236.415 27.0552 245.657C27.1135 245.867 27.1769 245.875 27.2453 245.681C27.3 245.526 27.3442 245.279 27.3779 244.942C27.6979 241.704 27.9227 238.434 28.0521 235.13C28.1333 233.058 28.1661 229.792 28.1506 225.334C28.147 224.473 28.1114 223.241 28.0439 221.636C27.955 219.551 28.0316 217.448 27.8634 215.397C27.7467 213.988 27.661 212.57 27.6063 211.141C27.578 210.419 27.5124 209.694 27.4094 208.964C27.2516 207.848 27.1231 206.715 27.0237 205.567C26.8719 203.81 26.6025 201.906 26.5122 199.983Z" fill="#915D2D"/>
<path d="M24.6058 157.557C24.6893 157.539 24.7813 157.654 24.8014 157.756C24.8807 158.169 24.909 158.586 24.8862 159.007C24.7754 161.043 24.7754 162.828 24.6947 164.036C24.5825 165.716 24.2024 167.991 24.0369 169.297C23.7488 171.56 23.4634 173.825 23.1807 176.092C23.0394 177.224 22.9487 178.35 22.9086 179.468C22.8293 181.697 22.7253 183.742 22.8471 186.057C22.9141 187.363 22.899 188.703 23.0153 189.951C23.5185 195.392 23.8509 199.797 24.0123 203.166C24.1089 205.173 24.0729 207.395 23.9042 209.832C23.8231 211.013 23.6549 212.418 23.3996 214.045C23.0522 216.262 22.7185 218.49 22.3985 220.726C22.228 221.92 22.1582 223.144 22.1892 224.399C22.1947 224.63 22.1701 224.824 22.1154 224.982C22.0798 225.084 22.0593 225.071 22.0538 224.942C21.9782 223.182 21.9823 221.953 22.0661 221.256C22.1892 220.226 22.543 217.745 23.1274 213.815C23.6881 210.056 23.7415 205.19 23.483 200.805C23.3426 198.42 23.1766 196.044 22.9852 193.679C22.7545 190.834 22.6191 188.814 22.579 187.621C22.4988 185.184 22.5061 182.748 22.6009 180.314C22.6647 178.691 22.8288 176.73 23.0932 174.43C23.3777 171.951 23.6676 169.474 23.963 167.001C24.201 165.011 24.2912 163.033 24.4116 161.009C24.4731 159.97 24.4143 158.961 24.4157 157.94C24.416 157.735 24.5064 157.578 24.6058 157.557Z" fill="#915D2D"/>
<path d="M27.4079 157.86C27.422 157.919 27.4339 157.972 27.4425 158.017C27.4511 158.061 27.4561 158.095 27.4572 158.115C27.5584 159.844 27.5994 161.593 27.5802 163.361C27.5666 164.684 27.469 166.372 27.2876 168.426C27.0742 170.855 26.891 173.114 26.6298 175.69C26.1465 180.449 25.8142 185.263 25.6328 190.132C25.6209 190.442 25.6095 190.691 25.5986 190.877C25.5973 190.915 25.5893 190.95 25.5764 190.975C25.5634 191 25.5466 191.013 25.5295 191.01C25.5125 191.007 25.4966 190.989 25.4855 190.96C25.4743 190.931 25.4688 190.893 25.47 190.855C25.4901 187.932 25.5945 185.138 25.7832 182.472C25.9756 179.75 26.2901 176.055 26.7269 171.388C26.9347 169.164 27.0587 167.288 27.0989 165.759C27.1681 163.122 27.1517 160.485 27.0496 157.848C27.0476 157.801 27.0529 157.753 27.0645 157.713C27.0762 157.673 27.0936 157.643 27.1139 157.627C27.2452 157.525 27.3432 157.603 27.4079 157.86Z" fill="#915D2D"/>
<path d="M22.6705 161.699C22.5816 160.684 22.3723 159.35 22.4106 157.946C22.4119 157.906 22.4191 157.869 22.431 157.839C22.4428 157.809 22.4587 157.789 22.4761 157.782C22.4935 157.775 22.5113 157.781 22.5267 157.8C22.5421 157.819 22.5542 157.848 22.5611 157.885C22.7225 158.713 22.7047 159.651 22.8551 160.473C23.0876 161.742 23.197 163.038 23.1833 164.361C23.1832 164.407 23.1757 164.452 23.1622 164.487C23.1487 164.523 23.1301 164.546 23.1095 164.554C23.0889 164.561 23.0677 164.553 23.0494 164.529C23.0312 164.506 23.0171 164.469 23.0096 164.425C22.8647 163.536 22.7516 162.627 22.6705 161.699Z" fill="#915D2D"/>
<path d="M26.8937 216.844C27.1709 218.177 27.2171 219.216 27.3409 220.873C27.3942 221.586 27.4394 222.243 27.4531 222.86C27.5242 225.993 27.4695 229.228 27.0537 232.254C26.9005 233.368 26.7351 234.453 26.5573 235.508C26.5492 235.556 26.5349 235.598 26.5162 235.628C26.4974 235.658 26.4751 235.674 26.4519 235.676C26.4288 235.677 26.4059 235.663 26.3862 235.635C26.3665 235.607 26.3508 235.567 26.3412 235.52C25.9947 233.78 25.7176 231.993 25.5097 230.157C24.9681 225.386 25.0447 220.045 25.414 215.188C25.4165 215.158 25.4232 215.13 25.4331 215.109C25.443 215.088 25.4556 215.074 25.469 215.07C25.4825 215.066 25.4961 215.072 25.5078 215.086C25.5196 215.101 25.5288 215.124 25.5343 215.151C25.5954 215.454 25.6209 215.777 25.6109 216.12C25.5279 218.988 25.5101 221.857 25.5576 224.727C25.5858 226.465 25.6647 228.001 25.7942 229.335C25.9419 230.862 26.1379 232.353 26.3822 233.806C26.3864 233.832 26.3942 233.855 26.4046 233.871C26.415 233.887 26.4273 233.895 26.4398 233.894C26.4523 233.893 26.4644 233.883 26.4742 233.865C26.484 233.848 26.4911 233.824 26.4944 233.797C27.0387 229.648 27.0606 225.901 26.9717 221.244C26.9375 219.469 26.7132 217.874 26.4971 216.194C26.4909 216.147 26.4913 216.096 26.4981 216.049C26.5049 216.002 26.5179 215.961 26.5353 215.931C26.5527 215.901 26.5738 215.883 26.5958 215.88C26.6178 215.877 26.6396 215.89 26.6585 215.915C26.813 216.123 26.8404 216.593 26.8937 216.844Z" fill="#915D2D"/>
<path d="M25.9502 261.738C25.3202 256.72 24.6236 251.963 23.8605 247.468C23.2924 244.126 23.0394 240.766 23.1014 237.387C23.1033 237.289 23.1261 237.239 23.1698 237.237C23.1817 237.237 23.1935 237.237 23.2054 237.237C23.23 237.233 23.2428 237.258 23.2437 237.313C23.3517 243.262 24.5703 248.174 25.3689 254.613C25.6411 256.808 26.0568 259.451 26.0322 261.717C26.0323 261.739 26.0288 261.761 26.0222 261.778C26.0157 261.794 26.0065 261.805 25.9965 261.807C25.9865 261.81 25.9763 261.804 25.9678 261.792C25.9593 261.779 25.953 261.76 25.9502 261.738Z" fill="#915D2D"/>
<path d="M22.9085 263.017C22.9087 263.05 22.903 263.083 22.8926 263.106C22.8822 263.13 22.868 263.144 22.8532 263.144C22.8383 263.145 22.824 263.132 22.8133 263.109C22.8027 263.085 22.7966 263.054 22.7964 263.02C22.713 261.604 22.8265 260.031 22.8032 258.798C22.7814 257.649 22.7599 256.502 22.739 255.355C22.7226 254.401 22.635 252.929 22.6364 251.706C22.636 251.684 22.639 251.663 22.645 251.646C22.651 251.628 22.6595 251.616 22.6691 251.612C22.6786 251.608 22.6885 251.611 22.6971 251.621C22.7056 251.632 22.7122 251.649 22.7157 251.669C22.7686 251.943 22.8096 252.308 22.8388 252.764C23.0594 256.143 23.0827 259.561 22.9085 263.017Z" fill="#915D2D"/>
<mask id="mask0_1338_57606" style="mask-type:alpha" maskUnits="userSpaceOnUse" x="23" y="2" width="8" height="108">
<path d="M23.1019 4.26992C23.1081 3.9826 23.184 4.12094 23.2394 4.14282C23.4544 4.22784 23.4013 5.72064 23.4203 6.95397C23.7528 28.5778 24.0873 50.2016 24.4239 71.8253C24.4494 73.4565 24.4887 75.6526 24.5416 78.4134C24.7008 86.6674 24.8667 107.248 24.3635 99.2927C24.249 97.4821 24.4577 92.5043 24.335 84.5218C23.9223 57.6634 22.8389 16.5307 23.1019 4.26992Z" fill="#B67B49"/>
<path d="M25.1081 2.81843C25.1935 2.84646 25.2418 3.35981 25.2418 3.35981C25.2418 3.35981 25.2886 3.82603 25.2897 3.84806C25.4162 6.26034 25.5792 8.65143 25.7785 11.0213C25.8578 11.9675 26.0091 13.3205 26.2325 15.0803C26.6337 18.2419 26.9118 21.4995 27.0667 24.8532C27.1202 26.0145 27.141 26.7564 27.1293 27.0791C27.0892 28.2041 27.0579 29.3342 27.0355 30.4696C27.0194 31.2647 26.9728 32.1063 26.8956 32.9942C26.7999 34.0947 26.7325 35.1909 26.6933 36.2827C26.6913 36.3299 26.6836 36.3726 26.6717 36.4027C26.6598 36.4328 26.6445 36.4482 26.6287 36.4459C26.6129 36.4436 26.5977 36.4239 26.5861 36.3903C26.5745 36.3568 26.5671 36.3119 26.5655 36.2642C26.5016 33.9589 26.8146 31.845 26.828 29.7388C26.8477 26.4913 26.7618 23.6802 26.5704 21.3056C26.4041 19.2347 26.1135 16.4896 25.6989 13.0703C25.2879 9.67521 25.1502 5.55023 24.9523 3.32074C24.9286 3.05386 25.0179 2.78886 25.1081 2.81843Z" fill="#B67B49"/>
<path d="M29.0989 104.637C29.2238 105.792 29.3778 106.918 29.5608 108.014C29.5723 108.086 29.5913 108.122 29.6179 108.121L29.6544 108.116C29.6809 108.115 29.6885 108.079 29.677 108.006C29.3142 105.737 29.1058 103.933 29.0519 102.594C28.9705 100.568 28.9122 97.2901 28.8771 92.7595C28.865 91.2097 28.8828 89.3698 28.9305 87.24C28.9846 84.7869 29.0049 82.7253 29.0642 79.8849C29.1323 76.6363 29.0941 73.3937 28.9497 70.1573C28.8831 68.6623 28.7293 66.4969 28.4884 63.6609C28.0867 58.9166 27.8168 55.3032 27.6788 52.8208C27.6033 51.4673 27.572 49.6976 27.5848 47.5117C27.5935 45.9633 27.6572 44.3996 27.7762 42.8207C28.0078 39.7359 28.2926 36.6965 28.6304 33.7026C28.9365 30.9922 29.0011 28.0689 29.1438 25.2487C29.2421 23.2934 29.0433 21.2432 28.9425 19.3084C28.8793 18.0824 28.7892 16.8111 28.6722 15.4944C28.3024 11.3378 27.9567 7.1648 27.6351 2.97554C27.6278 2.88759 27.61 2.82981 27.5815 2.80218C27.4187 2.64054 27.3473 2.74901 27.3671 3.12759C27.4518 4.78726 27.6005 6.84044 27.8132 9.28711C28.1158 12.767 28.2886 14.8038 28.3317 15.3977C28.5188 17.9997 28.6666 20.6207 28.7753 23.2609C28.8514 25.1105 28.6988 26.9255 28.6415 28.7437C28.5198 32.6349 28.0183 36.6062 27.6198 40.2959C27.413 42.211 27.2875 43.6997 27.2433 44.7621C27.1766 46.3744 27.1763 47.9346 27.2424 49.4428C27.3455 51.8207 27.3923 53.9956 27.5572 56.1397C27.6744 57.6571 27.7868 59.1768 27.8944 60.6989C27.9604 61.6271 28.0867 63.1353 28.2732 65.2235C28.8832 72.0254 28.7902 78.4263 28.6357 85.438C28.5753 88.177 28.5527 90.3754 28.5679 92.0332C28.5993 95.5076 28.6926 98.9763 28.8479 102.44C28.8626 102.77 28.8994 103.142 28.9582 103.557C29.0236 104.015 29.0705 104.375 29.0989 104.637Z" fill="#B67B49"/>
<path d="M26.8866 107.232C26.8986 107.21 26.9101 107.179 26.9211 107.141C26.9283 107.119 26.9333 107.09 26.9362 107.055C27.2946 102.93 27.4811 99.3899 27.4958 96.434C27.5072 94.1126 27.5275 91.7909 27.5566 89.4689C27.5824 87.3426 27.4668 84.9065 27.436 83.1735C27.3732 79.6745 27.2292 75.5905 27.0041 70.9214C26.6585 63.7656 26.2997 56.6147 25.9276 49.4687C25.6158 43.4821 25.421 37.4979 25.4253 31.8578C25.4264 30.5956 25.461 28.0468 25.5291 24.2114C25.5313 24.0897 25.5141 24.0395 25.4775 24.0608C25.4585 24.0703 25.4424 24.0919 25.4293 24.1255C25.4181 24.1547 25.4106 24.2036 25.4069 24.2722C25.2405 27.4503 25.1554 29.9822 25.1516 31.8678C25.1471 34.1934 25.2134 37.5618 25.3504 41.9733C25.4837 46.2699 25.7384 51.7955 26.1148 58.5501C26.4055 63.7683 26.6431 69.2669 26.9707 74.613C27.0437 75.7995 27.0965 77.8047 27.129 80.6284C27.1459 82.1243 27.1847 84.131 27.2454 86.6487C27.3864 92.4658 27.3516 98.5977 26.9773 104.261C26.9019 105.407 26.8269 106.552 26.7522 107.698C26.7263 108.08 26.6414 108.428 26.6896 108.964C26.6978 109.047 26.7081 109.051 26.7206 108.976C26.8001 108.5 26.8428 107.988 26.8488 107.439C26.8494 107.346 26.862 107.277 26.8866 107.232Z" fill="#B67B49"/>
<path d="M29.3162 51.1018C29.2905 50.8872 29.2548 50.6863 29.2091 50.4991C29.1981 50.4533 29.1832 50.4196 29.1665 50.4026C29.1499 50.3856 29.1323 50.3863 29.1162 50.4044C29.1001 50.4226 29.0863 50.4573 29.0767 50.5039C29.067 50.5505 29.062 50.6066 29.0624 50.6645C29.0648 51.5276 29.301 52.7488 29.3848 53.6322C30.1406 61.6467 30.2145 70.2494 29.7828 78.3008C29.7114 79.6366 29.7141 80.713 29.8285 81.9119C29.8315 81.9531 29.839 81.9895 29.8495 82.0138C29.86 82.0381 29.8726 82.0486 29.8849 82.043C29.8972 82.0375 29.9082 82.0165 29.9158 81.9841C29.9233 81.9517 29.9269 81.9104 29.9256 81.8684C29.9076 80.116 30.0759 78.2067 30.1361 76.8514C30.1929 75.5895 30.2908 74.376 30.3186 73.1619C30.4653 66.7174 30.2649 60.3434 29.7172 54.04C29.6732 53.5328 29.5661 52.7613 29.396 51.7254C29.3822 51.6415 29.3556 51.4336 29.3162 51.1018Z" fill="#B67B49"/>
<path d="M25.1139 74.8812C25.1139 78.269 25.1307 81.554 25.1643 84.7362C25.2087 88.8116 25.5743 92.7407 26.261 96.5236C26.2668 96.5533 26.2768 96.5779 26.2893 96.5936C26.3018 96.6093 26.3161 96.615 26.3298 96.6098C26.3436 96.6047 26.3559 96.589 26.3649 96.5652C26.3739 96.5415 26.3789 96.5112 26.3792 96.4793C26.3983 94.5212 26.1114 92.6511 25.8822 90.7654C25.7604 89.7629 25.6833 88.772 25.6508 87.7928C25.5248 83.9472 25.4244 80.0994 25.3496 76.2497C25.3417 75.8298 25.2964 75.1512 25.2627 74.8457C25.1632 73.969 25.1136 73.9808 25.1139 74.8812Z" fill="#B67B49"/>
</mask>
<g mask="url(#mask0_1338_57606)">
<rect x="22.0001" y="2.65979" width="8.18362" height="19.4789" fill="#B67B49"/>
</g>
<path d="M166 6.81104L166 260.189" stroke="url(#paint2_linear_1338_57606)" stroke-width="12" stroke-linecap="round"/>
<path d="M165.926 6.81104L165.926 260.189" stroke="url(#paint3_linear_1338_57606)" stroke-width="10" stroke-linecap="round"/>
<path d="M170.688 159.537C170.673 159.251 170.568 159.391 170.489 159.415C170.185 159.508 170.294 160.992 170.294 162.221C170.295 183.769 170.293 205.317 170.288 226.864C170.288 228.49 170.28 230.678 170.265 233.43C170.22 241.656 170.435 262.159 170.977 254.217C171.1 252.41 170.694 247.46 170.693 239.506C170.691 212.742 171.331 171.738 170.688 159.537Z" fill="#915D2D"/>
<path d="M167.8 158.164C167.679 158.195 167.622 158.708 167.622 158.708C167.622 158.708 167.566 159.174 167.565 159.196C167.437 161.603 167.258 163.991 167.026 166.358C166.934 167.303 166.748 168.656 166.469 170.417C165.967 173.58 165.643 176.835 165.496 180.181C165.445 181.339 165.432 182.079 165.456 182.4C165.538 183.519 165.607 184.643 165.664 185.773C165.704 186.564 165.789 187.401 165.918 188.282C166.079 189.375 166.199 190.464 166.278 191.55C166.282 191.597 166.294 191.639 166.312 191.668C166.329 191.698 166.351 191.713 166.374 191.71C166.396 191.707 166.417 191.687 166.433 191.653C166.449 191.619 166.458 191.574 166.46 191.527C166.5 189.228 166.008 187.135 165.943 185.037C165.844 181.804 165.904 179.001 166.125 176.629C166.316 174.561 166.669 171.816 167.184 168.396C167.695 165 167.8 160.886 168.033 158.659C168.061 158.392 167.928 158.132 167.8 158.164Z" fill="#915D2D"/>
<path d="M164.354 259.712C164.202 260.868 164.007 261.994 163.771 263.092C163.756 263.165 163.73 263.201 163.692 263.201L163.64 263.198C163.602 263.198 163.59 263.162 163.605 263.089C164.072 260.816 164.329 259.012 164.376 257.676C164.448 255.656 164.459 252.389 164.409 247.876C164.392 246.332 164.327 244.5 164.212 242.381C164.081 239.939 164.007 237.887 163.86 235.06C163.692 231.827 163.675 228.597 163.81 225.368C163.872 223.877 164.043 221.715 164.324 218.882C164.792 214.142 165.097 210.534 165.239 208.056C165.316 206.705 165.322 204.942 165.256 202.765C165.21 201.224 165.085 199.669 164.881 198.1C164.483 195.037 164.011 192.02 163.465 189.051C162.97 186.363 162.813 183.454 162.549 180.65C162.366 178.706 162.604 176.657 162.705 174.727C162.768 173.503 162.868 172.234 163.006 170.918C163.441 166.765 163.842 162.597 164.207 158.413C164.216 158.325 164.24 158.267 164.28 158.238C164.508 158.071 164.612 158.177 164.592 158.554C164.508 160.21 164.341 162.261 164.092 164.705C163.738 168.182 163.537 170.217 163.488 170.81C163.279 173.408 163.126 176.024 163.029 178.657C162.962 180.502 163.219 182.304 163.34 184.112C163.599 187.983 164.4 191.92 165.048 195.58C165.384 197.48 165.595 198.958 165.682 200.015C165.812 201.618 165.847 203.172 165.786 204.676C165.691 207.048 165.672 209.216 165.485 211.357C165.351 212.873 165.224 214.39 165.105 215.91C165.031 216.837 164.884 218.343 164.665 220.43C163.946 227.226 164.218 233.598 164.592 240.575C164.738 243.301 164.819 245.489 164.833 247.141C164.865 250.602 164.808 254.06 164.663 257.515C164.649 257.844 164.605 258.217 164.531 258.632C164.448 259.091 164.389 259.451 164.354 259.712Z" fill="#915D2D"/>
<path d="M167.559 262.217C167.542 262.195 167.525 262.165 167.508 262.127C167.498 262.105 167.49 262.077 167.485 262.042C166.884 257.947 166.541 254.428 166.455 251.485C166.388 249.173 166.308 246.862 166.216 244.55C166.133 242.434 166.244 240.003 166.25 238.276C166.262 234.789 166.378 230.717 166.596 226.058C166.931 218.919 167.284 211.784 167.657 204.654C167.97 198.681 168.116 192.714 167.986 187.097C167.957 185.84 167.851 183.303 167.67 179.485C167.665 179.364 167.688 179.314 167.74 179.333C167.768 179.342 167.791 179.363 167.811 179.396C167.827 179.425 167.839 179.473 167.846 179.541C168.152 182.7 168.329 185.219 168.376 187.097C168.433 189.413 168.413 192.77 168.314 197.168C168.219 201.452 167.977 206.964 167.59 213.705C167.291 218.913 167.073 224.397 166.724 229.734C166.646 230.918 166.615 232.917 166.631 235.73C166.639 237.221 166.628 239.221 166.597 241.73C166.524 247.529 166.708 253.634 167.365 259.261C167.498 260.399 167.629 261.537 167.761 262.676C167.806 263.055 167.935 263.399 167.878 263.934C167.868 264.017 167.853 264.022 167.834 263.947C167.71 263.476 167.638 262.967 167.618 262.421C167.615 262.329 167.595 262.261 167.559 262.217Z" fill="#915D2D"/>
<path d="M162.87 206.404C162.902 206.189 162.948 205.988 163.009 205.8C163.024 205.754 163.044 205.72 163.067 205.702C163.091 205.685 163.116 205.685 163.139 205.702C163.162 205.72 163.183 205.754 163.198 205.8C163.212 205.846 163.221 205.902 163.221 205.959C163.237 206.819 162.927 208.044 162.828 208.927C161.927 216.936 162.01 225.506 162.801 233.509C162.932 234.837 162.951 235.909 162.815 237.107C162.811 237.148 162.802 237.185 162.787 237.209C162.773 237.234 162.755 237.245 162.737 237.24C162.72 237.235 162.704 237.214 162.692 237.182C162.681 237.15 162.675 237.109 162.676 237.067C162.663 235.321 162.382 233.426 162.266 232.078C162.158 230.824 161.992 229.619 161.926 228.411C161.576 221.998 161.722 215.643 162.363 209.345C162.415 208.838 162.55 208.066 162.77 207.028C162.788 206.944 162.821 206.736 162.87 206.404Z" fill="#915D2D"/>
<path d="M169.373 229.933C169.447 233.307 169.495 236.579 169.518 239.75C169.544 243.81 169.11 247.736 168.215 251.529C168.207 251.559 168.194 251.584 168.176 251.6C168.159 251.616 168.139 251.622 168.119 251.617C168.099 251.613 168.081 251.597 168.068 251.574C168.055 251.551 168.047 251.521 168.046 251.489C167.976 249.54 168.343 247.667 168.628 245.78C168.779 244.777 168.867 243.788 168.892 242.812C168.987 238.977 169.046 235.141 169.068 231.305C169.07 230.886 169.119 230.209 169.16 229.903C169.283 229.026 169.354 229.036 169.373 229.933Z" fill="#915D2D"/>
<mask id="mask1_1338_57606" style="mask-type:alpha" maskUnits="userSpaceOnUse" x="161" y="2" width="10" height="93">
<path d="M170.074 32.9515C170.162 30.2024 170.258 28.5456 170.259 25.6207C170.261 22.7234 170.181 21.0999 170.074 18.2075C170.013 16.5614 169.985 15.3861 169.889 13.9953C169.712 11.3898 169.241 8.50022 168.875 5.78783C168.861 5.68998 168.83 5.60041 168.785 5.53003C168.739 5.45965 168.682 5.41149 168.619 5.39142C168.557 5.37135 168.492 5.38023 168.433 5.41699C168.373 5.45375 168.322 5.5168 168.285 5.59845C165.629 11.4773 164.202 18.0252 164.005 25.242C163.857 30.6708 164.06 35.8716 164.615 40.8443C164.739 41.9684 165.01 43.3857 165.136 44.6899C165.301 46.3719 165.384 47.2201 165.386 47.2343C165.723 49.9345 166.182 52.5532 166.762 55.0905C166.776 55.1511 166.801 55.204 166.834 55.2426C166.867 55.2812 166.906 55.3036 166.947 55.3072C166.988 55.3108 167.029 55.2954 167.064 55.2628C167.099 55.2302 167.128 55.1819 167.146 55.1241C167.543 53.8391 167.849 52.4941 168.065 51.0891C168.336 49.3195 168.518 48.1883 168.61 47.6955C169.458 43.1382 169.946 38.4791 170.074 33.7182C170.074 33.7182 170.067 33.191 170.074 32.9515ZM167.424 52.54C167.388 53.1 167.285 53.4716 167.115 53.6549C166.923 53.8626 166.795 53.7903 166.733 53.438C166.226 50.5973 165.832 47.6894 165.553 44.7144C165.473 43.8571 165.399 43.1576 165.331 42.6159C165.094 40.6947 164.977 39.091 164.825 37.3133C163.896 26.4485 164.529 16.2464 168.197 7.04017C168.28 6.83043 168.371 6.82228 168.468 7.01573C168.546 7.17049 168.609 7.41587 168.657 7.75187C169.112 10.9774 169.432 14.2356 169.617 17.5263C169.732 19.5912 169.779 22.8442 169.757 27.2854C169.752 28.1427 169.701 29.3706 169.605 30.9691C169.479 33.0462 169.588 35.1416 169.348 37.185C169.182 38.5881 169.06 40.0013 168.982 41.4247C168.942 42.1435 168.848 42.8664 168.702 43.5934C168.477 44.7052 168.294 45.8333 168.153 46.9777C167.936 48.728 167.553 50.6248 167.424 52.54Z" fill="#B67B49"/>
<path d="M164.71 94.8049C164.829 94.8229 164.96 94.708 164.988 94.6062C165.101 94.1948 165.142 93.7794 165.109 93.36C164.951 91.3318 164.951 89.5541 164.837 88.3506C164.677 86.6767 164.136 84.4103 163.9 83.1091C163.49 80.8549 163.084 78.5986 162.681 76.3403C162.48 75.2122 162.351 74.0912 162.294 72.9773C162.181 70.7567 162.033 68.7194 162.206 66.4132C162.301 65.112 162.28 63.7772 162.446 62.534C163.162 57.1133 163.635 52.725 163.865 49.3692C164.003 47.3695 163.951 45.156 163.711 42.7287C163.596 41.5517 163.356 40.1528 162.993 38.5318C162.498 36.3224 162.023 34.1039 161.567 31.8761C161.325 30.6869 161.225 29.4671 161.269 28.2168C161.277 27.9867 161.242 27.7933 161.164 27.6365C161.114 27.5347 161.084 27.5479 161.077 27.6762C160.969 29.4295 160.975 30.6533 161.094 31.3477C161.269 32.374 161.773 34.8451 162.605 38.7609C163.403 42.5057 163.479 47.3532 163.111 51.7211C162.912 54.0975 162.675 56.4637 162.403 58.8198C162.074 61.6543 161.881 63.6662 161.824 64.8554C161.71 67.2827 161.721 69.709 161.856 72.1343C161.946 73.7511 162.18 75.705 162.556 77.9959C162.961 80.4659 163.374 82.9329 163.795 85.3969C164.134 87.3793 164.262 89.3494 164.434 91.3654C164.521 92.4008 164.437 93.4058 164.439 94.4229C164.44 94.6271 164.569 94.7835 164.71 94.8049Z" fill="#B67B49"/>
<path d="M168.7 94.5025C168.72 94.4446 168.737 94.3909 168.749 94.3466C168.761 94.3022 168.768 94.2687 168.77 94.249C168.914 92.5263 168.972 90.7842 168.945 89.0228C168.926 87.7053 168.787 86.0233 168.528 83.9768C168.225 81.5576 167.964 79.3065 167.592 76.7407C166.904 72.0001 166.431 67.2046 166.172 62.354C166.155 62.0445 166.139 61.7971 166.124 61.6118C166.122 61.5737 166.11 61.5383 166.092 61.5134C166.074 61.4885 166.05 61.4761 166.025 61.4789C166.001 61.4817 165.978 61.4996 165.963 61.5285C165.947 61.5574 165.939 61.5951 165.941 61.6332C165.969 64.5451 166.118 67.3288 166.386 69.9841C166.66 72.6965 167.108 76.3772 167.73 81.0261C168.026 83.2417 168.202 85.111 168.26 86.6342C168.358 89.261 168.335 91.8879 168.189 94.5148C168.187 94.5619 168.194 94.6092 168.211 94.649C168.227 94.6889 168.252 94.7191 168.281 94.7347C168.468 94.8365 168.607 94.7591 168.7 94.5025Z" fill="#B67B49"/>
<path d="M161.955 90.6782C161.828 91.6893 161.53 93.018 161.585 94.4169C161.587 94.4564 161.597 94.494 161.614 94.5237C161.631 94.5533 161.653 94.5733 161.678 94.5803C161.703 94.5874 161.728 94.5811 161.75 94.5626C161.772 94.544 161.789 94.5142 161.799 94.478C162.029 93.6533 162.004 92.7186 162.218 91.9C162.549 90.6355 162.705 89.3445 162.685 88.0269C162.685 87.9804 162.674 87.9358 162.655 87.9006C162.636 87.8655 162.609 87.8421 162.58 87.8345C162.551 87.8269 162.52 87.8355 162.494 87.859C162.468 87.8824 162.448 87.9191 162.438 87.9628C162.231 88.8486 162.07 89.7538 161.955 90.6782Z" fill="#B67B49"/>
<path d="M167.967 35.7432C168.362 34.4155 168.428 33.3798 168.604 31.7296C168.68 31.0195 168.744 30.3642 168.764 29.7503C168.865 26.6286 168.787 23.4061 168.195 20.3913C167.977 19.2815 167.742 18.2013 167.488 17.1505C167.477 17.1023 167.457 17.0606 167.43 17.0308C167.403 17.0009 167.371 16.9843 167.338 16.983C167.306 16.9817 167.273 16.9958 167.245 17.0234C167.217 17.0511 167.195 17.091 167.181 17.1383C166.688 18.8712 166.293 20.652 165.997 22.4806C165.226 27.2334 165.335 32.5543 165.861 37.3926C165.864 37.4226 165.874 37.4502 165.888 37.4714C165.902 37.4926 165.92 37.5062 165.939 37.5103C165.958 37.5144 165.978 37.5087 165.994 37.4942C166.011 37.4796 166.024 37.4568 166.032 37.4293C166.119 37.1279 166.155 36.8062 166.141 36.4641C166.023 33.6071 165.998 30.7491 166.065 27.8901C166.105 26.1592 166.218 24.6289 166.402 23.2992C166.612 21.7781 166.891 20.2936 167.239 18.8458C167.245 18.8194 167.256 18.7967 167.271 18.781C167.286 18.7653 167.303 18.7574 167.321 18.7584C167.339 18.7594 167.356 18.7693 167.37 18.7867C167.384 18.804 167.394 18.828 167.399 18.8549C168.174 22.9876 168.205 26.7202 168.078 31.36C168.03 33.1286 167.71 34.7169 167.403 36.3908C167.394 36.4379 167.395 36.4882 167.404 36.5349C167.414 36.5817 167.432 36.6227 167.457 36.6528C167.482 36.6828 167.512 36.7004 167.543 36.7032C167.575 36.7061 167.606 36.694 167.633 36.6687C167.853 36.461 167.892 35.9937 167.967 35.7432Z" fill="#B67B49"/>
<path d="M165.439 2.06947C164.542 7.06865 163.55 11.8072 162.464 16.2851C161.655 19.6145 161.295 22.9622 161.383 26.3282C161.386 26.426 161.418 26.4759 161.481 26.4779C161.498 26.4779 161.514 26.4779 161.531 26.4779C161.566 26.482 161.585 26.4565 161.586 26.4015C161.74 20.4758 163.475 15.5825 164.612 9.1681C164.999 6.98109 165.591 4.34812 165.556 2.09085C165.556 2.06846 165.551 2.04699 165.542 2.03041C165.532 2.01384 165.519 2.00328 165.505 2.00068C165.491 1.99807 165.476 2.0036 165.464 2.01624C165.452 2.02889 165.443 2.04779 165.439 2.06947Z" fill="#B67B49"/>
</mask>
<g mask="url(#mask1_1338_57606)">
<rect x="160.924" y="2.04132" width="10.3347" height="20.3288" fill="#B67B49"/>
</g>
<rect x="0.659927" y="22.5131" width="190.961" height="144.127" rx="2.5" fill="#B67B49" stroke="#764A22"/>
<path d="M19.5721 27.9324C20.8838 26.4677 21.9009 25.1541 22.6234 23.9914C22.6234 23.9914 22.8084 23.7442 22.9554 23.6145C23.1611 23.4331 23.5146 22.9938 23.5146 22.9938H20.3119V24.7692C20.312 24.8995 20.2699 25.0273 20.192 25.134C19.6361 25.8958 19.1682 26.7617 18.5523 27.4393C13.3894 33.1082 8.41839 37.6265 1.97173 41.6798C1.85975 41.7519 1.73844 41.7747 1.6078 41.7479L1.38785 41.6998C1.24655 41.6677 1.1679 41.7252 1.1519 41.8722L1.02393 43.0669C1.03192 43.091 1.03859 43.1137 1.04392 43.1351C1.48916 43.6108 1.89841 43.6964 2.27167 43.3917C2.84488 42.9266 3.42743 42.4789 4.01931 42.0486C9.5275 38.0582 14.7118 33.3528 19.5721 27.9324Z" fill="#915D2D"/>
<path d="M131.421 23.0172L134.492 23.1374C138.433 25.0939 141.804 27.1011 144.606 29.1592C146.134 30.2817 147.598 31.8814 148.797 33.6013C150.573 36.1591 151.677 37.851 152.109 38.6769C154.524 43.2794 157.244 50.3154 159.571 55.5313C164.298 66.1235 167.456 72.8869 169.045 75.8216C170.018 77.615 170.985 79.4111 171.944 81.2099C173.876 84.8342 176.128 88.3302 178.247 91.8943C178.722 92.6934 179.564 93.975 180.775 95.7391C181.646 97.0086 182.444 98.3263 183.166 99.6921C183.454 100.24 183.959 100.962 184.682 101.857C185.29 102.611 185.788 103.327 186.178 104.006C187.095 105.604 188.011 107.203 188.925 108.801C189.481 109.775 190.417 110.372 190.765 111.186C191.01 111.756 191.103 112.326 191.045 112.898C191.032 113.013 190.984 113.121 190.906 113.206C190.828 113.291 190.725 113.349 190.613 113.371C190.5 113.393 190.384 113.378 190.281 113.329C190.177 113.279 190.093 113.197 190.041 113.095C188.385 109.903 186.627 106.794 184.766 103.765C183.974 102.482 182.497 100.259 180.335 97.0941C176.895 92.0694 174.273 87.8491 172.468 84.4333C170.058 79.8682 167.629 75.3125 165.182 70.7661C164.657 69.7959 164.158 68.529 163.686 66.9654C163.668 66.9039 163.628 66.8705 163.566 66.8652C163.518 66.8625 163.47 66.8612 163.422 66.8612C163.398 66.8613 163.375 66.8547 163.355 66.8419C163.334 66.8292 163.317 66.8109 163.306 66.789C158.729 56.7528 155.659 49.7809 154.096 45.8733C150.621 37.1775 145.514 28.7703 136.236 25.5389C133.706 24.6596 131.949 23.9954 130.965 23.5464C130.93 23.5312 130.9 23.5059 130.879 23.4736C130.859 23.4413 130.848 23.4036 130.849 23.3652C130.85 23.3269 130.862 23.2897 130.884 23.2584C130.906 23.2271 130.937 23.2031 130.973 23.1895L131.421 23.0172Z" fill="#915D2D"/>
<path d="M57.4523 23.1334L57.9642 23.0251L58.3321 23.1013C58.4194 23.1189 58.4987 23.1644 58.5581 23.231C58.6175 23.2976 58.6537 23.3817 58.6614 23.4707C58.669 23.5597 58.6477 23.6487 58.6006 23.7245C58.5535 23.8003 58.4831 23.8588 58.4001 23.8911C58.0375 24.0328 57.6696 24.2546 57.2963 24.5566C51.9894 28.8585 46.7105 33.3808 41.2916 37.3819C35.2662 41.8321 30.0206 45.4964 25.5549 48.375C17.6952 53.4372 9.90879 58.6451 2.19572 63.9986C2.11313 64.0546 2.01461 64.0818 1.91551 64.076C1.81641 64.0702 1.7223 64.0317 1.64784 63.9665C1.24792 63.6137 1.3519 63.1848 1.72382 62.848C2.17173 62.4417 2.55698 62.1317 2.87958 61.9179C5.39106 60.2527 7.88121 58.5555 10.35 56.8263C13.2654 54.7856 17.0246 52.5445 20.224 50.1711C21.2198 49.4334 22.3475 48.808 23.4073 48.1064C29.846 43.8406 36.2047 39.4586 42.4834 34.9604C47.6103 31.288 52.5013 27.1666 57.4523 23.1334Z" fill="#915D2D"/>
<path d="M183.178 85.8004C183.165 85.795 183.151 85.791 183.138 85.7884C183.109 85.7803 183.086 85.7616 183.07 85.7322C180.267 80.6767 177.959 75.4367 175.288 70.3331C170.969 62.0823 167.397 53.3463 164.102 44.6385C161.455 37.6465 158.346 30.7722 154.776 24.0154C154.748 23.9626 154.738 23.9022 154.746 23.843C154.755 23.7838 154.782 23.7289 154.824 23.6864C154.866 23.6439 154.921 23.6159 154.98 23.6066C155.039 23.5973 155.099 23.6071 155.152 23.6346C155.389 23.7602 155.609 23.958 155.812 24.2279C156.75 25.4707 157.561 26.7951 158.243 28.201C159.001 29.7645 159.751 31.3321 160.495 32.9037C163.998 40.3126 166.466 48.1625 169.829 55.6436C172.231 60.9784 175.353 67.7512 179.195 75.9619C181.419 80.7168 183.718 85.0373 186.094 88.9235C187.117 90.6033 188.565 92.3273 189.717 94.0672C189.818 94.2206 189.865 94.4037 189.85 94.587C189.835 94.7703 189.758 94.9432 189.633 95.0776C189.468 95.2566 189.284 95.3047 189.081 95.2219C188.961 95.1711 188.848 95.0522 188.741 94.8651C187.952 93.4832 187.063 92.1683 186.074 90.9201C185.439 90.1209 184.518 88.4437 183.31 85.8886C183.289 85.8432 183.245 85.8138 183.178 85.8004Z" fill="#915D2D"/>
<path d="M28.2064 32.3544C28.2064 32.3063 28.2064 32.2622 28.2064 32.2221C28.2064 32.1874 28.217 32.1566 28.2384 32.1299L35.033 24.288C35.1023 24.2078 35.1903 24.1677 35.2969 24.1677H35.5768C35.6259 24.1676 35.6741 24.1807 35.7165 24.2055C35.7589 24.2303 35.7939 24.266 35.8179 24.3088C35.842 24.3517 35.8542 24.4003 35.8533 24.4495C35.8524 24.4987 35.8384 24.5467 35.8128 24.5887C34.4971 26.7536 32.3935 28.9667 31.2697 30.43C29.4434 32.8034 28.233 34.3015 27.6385 34.9243C24.9137 37.7761 22.029 40.4475 18.9843 42.9385C14.3572 46.7232 10.822 49.6899 6.3669 52.4843C5.05783 53.3022 3.65679 53.9303 2.16377 54.3686C2.05506 54.3996 1.93853 54.3862 1.83963 54.3314C1.74073 54.2766 1.66748 54.1847 1.63588 54.076C1.45458 53.4452 1.72119 53.0269 2.43571 52.8211C3.24088 52.5912 4.00605 52.2625 4.73124 51.8348C9.17032 49.2129 13.1495 45.8492 17.2886 42.686C20.3227 40.366 23.6966 37.1453 27.4105 33.0239C27.4985 32.9277 27.5985 32.8462 27.7105 32.7794C27.8411 32.7019 27.9704 32.6257 28.0984 32.5509C28.173 32.5054 28.209 32.4399 28.2064 32.3544Z" fill="#915D2D"/>
<path d="M158.503 72.2294C160.255 74.1137 161.659 76.435 163.162 78.5238C164.354 80.1835 165.339 81.7043 166.118 83.0862C168.656 87.5871 170.666 91.7179 172.148 95.4784C176.548 106.632 179.055 113.383 183.534 122.019C183.681 122.305 183.889 122.622 184.158 122.969C184.475 123.373 184.673 123.699 184.75 123.947C185.064 124.939 185.602 125.792 186.362 126.505C186.398 126.539 186.426 126.58 186.444 126.625C186.462 126.67 186.469 126.718 186.465 126.766C186.457 126.873 186.485 126.958 186.549 127.022C186.637 127.116 186.685 127.169 186.693 127.183C187.632 128.524 188.533 129.889 189.397 131.276C189.637 131.664 189.938 131.984 190.301 132.238C191.103 132.802 191.336 133.505 191.001 134.347C190.973 134.416 190.927 134.476 190.869 134.521C190.81 134.566 190.741 134.595 190.668 134.605C190.594 134.614 190.52 134.604 190.452 134.575C190.384 134.546 190.325 134.499 190.281 134.439C185.564 127.977 181.584 121.129 178.339 113.896C177.697 112.467 176.69 109.99 175.32 106.468C172.275 98.6363 169.676 92.4756 167.521 87.9853C165.916 84.6417 163.433 80.7462 160.071 76.2987C156.232 71.2231 152.262 66.2544 148.161 61.3927C145.958 58.7827 143.482 55.399 141.039 52.4803C140.258 51.5475 139.325 50.3461 138.239 48.8761C132.849 41.5768 125.787 36.0923 117.056 32.4226C112.507 30.5116 108.96 29.1819 106.414 28.4335C100.437 26.6721 94.6805 26.2552 89.1457 27.1826C77.3521 29.1551 67.4542 36.8928 56.3485 42.678C48.1715 46.9384 39.9625 51.1373 31.7216 55.2747C29.6527 56.3118 27.2438 57.457 24.4951 58.7106C16.894 62.1798 9.39685 65.8201 2.00372 69.6315C1.9414 69.6639 1.87178 69.6797 1.8016 69.6772C1.73143 69.6748 1.66307 69.6542 1.60314 69.6175C1.54321 69.5808 1.49375 69.5293 1.45954 69.4678C1.42532 69.4063 1.40751 69.337 1.40784 69.2666V68.8176C1.40784 68.692 1.45983 68.5971 1.56381 68.533C2.96352 67.687 4.35123 66.8571 5.83492 66.1435C14.1132 62.1705 21.9796 58.8669 30.7178 54.3807C32.8693 53.2768 35.2582 52.0928 37.8843 50.8286C43.0326 48.3482 48.1328 45.7744 53.1851 43.107C60.2516 39.3744 67.6021 34.5073 73.9928 31.1797C77.4481 29.381 81.2473 27.9016 85.3904 26.7416C89.8695 25.4868 93.6647 25.2703 98.1638 25.6431C99.7421 25.7714 101.442 26.052 103.263 26.485C110.787 28.2731 118.108 31.1303 125.226 35.0566C131.309 38.4082 136.012 43.7484 140.523 49.281C140.918 49.7675 141.186 50.2379 141.327 50.6923C141.359 50.8018 141.424 50.8847 141.523 50.9408C141.803 51.0985 142.052 51.3311 142.271 51.6384C145.406 56.0886 148.936 60.5214 152.86 64.9368C153.348 65.49 153.724 66.1636 154.124 66.789C154.084 66.9146 154.106 66.9774 154.188 66.9774C154.321 66.9747 154.407 67.0376 154.444 67.1658C154.656 67.9516 155.328 68.3125 155.676 68.7535C156.113 69.3014 156.544 69.856 156.968 70.4173C157.392 70.9785 157.903 71.5826 158.503 72.2294Z" fill="#915D2D"/>
<path d="M145.454 71.6561C145.739 71.7764 145.995 71.9528 146.222 72.1853C148.665 74.659 150.949 77.0685 152.877 80.0954C153.944 81.7832 155.136 83.431 155.98 85.203C158.195 89.8456 160.21 94.5751 162.023 99.3914C162.545 100.773 163.532 102.676 164.982 105.1C166.69 107.955 170.365 112.938 171.985 116.963C173.304 120.247 173.936 125.138 175.052 128.113C175.806 130.123 176.806 131.998 178.051 133.738C178.875 134.882 180.251 136.313 182.178 138.032C183.786 139.461 185.376 140.91 186.949 142.377C188.229 143.568 189.133 144.975 190.141 146.387C190.145 146.393 190.15 146.398 190.157 146.401C190.163 146.405 190.17 146.407 190.178 146.407C190.185 146.408 190.192 146.406 190.199 146.404C190.206 146.401 190.212 146.396 190.217 146.391C190.243 146.367 190.27 146.343 190.297 146.318C190.299 146.315 190.302 146.313 190.306 146.311C190.309 146.31 190.313 146.309 190.317 146.309C190.322 146.309 190.326 146.31 190.33 146.311C190.334 146.313 190.338 146.315 190.341 146.318C191.095 147.171 191.321 148.193 191.017 149.385C190.997 149.465 190.952 149.537 190.89 149.59C190.828 149.643 190.75 149.676 190.669 149.684C190.587 149.691 190.505 149.673 190.434 149.632C190.363 149.591 190.307 149.528 190.273 149.454C189.23 147.147 187.876 145.06 186.21 143.191C183.994 140.702 179.243 137.314 176.856 134.135C176.01 133.009 175.18 131.42 174.364 129.368C172.616 124.958 172.033 119.938 169.721 115.548C168.388 113.017 166.758 110.3 164.83 107.398C163.206 104.952 161.959 102.242 160.707 99.1268C158.121 92.6881 155.695 87.2985 153.428 82.9579C152.973 82.0839 152.241 80.9961 151.233 79.6945C150.574 78.8472 149.711 77.8663 148.641 76.7517C143.642 71.5292 138.665 66.2879 133.709 61.0279C133.562 60.8702 133.455 60.7285 133.389 60.6029C133.325 60.4853 133.246 60.3797 133.153 60.2862C131.364 58.4687 129.568 56.6579 127.766 54.8538C123.831 50.9141 119.621 47.3072 115.136 44.0331C113.145 42.5764 111.304 41.5167 109.614 40.8538C101.555 37.6866 91.3773 37.7869 83.287 39.5749C76.1018 41.1652 69.4405 43.6162 63.3031 46.9277C57.5256 50.0442 52.532 52.6715 48.3222 54.8097C45.9067 56.0392 43.6925 57.2152 41.6796 58.3377C37.6604 60.5829 33.6133 62.6396 29.77 65.2495C27.4625 66.8131 25.059 68.3285 22.9035 69.9683C15.753 75.41 8.78773 81.1271 2.0078 87.1194C1.93178 87.187 1.83673 87.2294 1.73571 87.2407C1.6347 87.2519 1.53269 87.2315 1.4437 87.1823C1.35471 87.1331 1.28311 87.0574 1.23875 86.9658C1.19439 86.8741 1.17944 86.7709 1.19597 86.6704L1.33994 85.8084C1.36393 85.6587 1.44658 85.5505 1.58789 85.4837C2.04113 85.2725 2.54102 84.9371 3.08758 84.4774C11.7444 77.1807 17.7312 72.2227 21.0479 69.6034C24.2445 67.0777 28.0224 64.5639 32.3815 62.0622C35.8848 60.0523 39.4027 58.0651 42.9353 56.1006C45.1309 54.8778 48.4222 53.2982 51.3176 51.6545C56.6738 48.6156 62.4633 45.7477 68.686 43.0509C72.1253 41.5595 74.5941 40.5478 76.0924 40.0159C84.5307 37.0251 93.4568 36.3837 102.335 37.394C105.809 37.7895 109.224 38.8693 112.581 40.6333C114.021 41.3924 115.746 42.5698 117.756 44.1654C119.393 45.467 121.026 46.778 122.655 48.0984C123.679 48.9283 124.794 50.2112 126.074 51.0972C126.434 51.3458 126.47 51.7066 126.774 51.9712C128.392 53.3931 129.903 54.926 131.305 56.5697C131.796 57.1417 132.395 57.7604 133.105 58.4259C133.736 59.0193 134.334 59.6474 134.896 60.3102C135.424 60.933 136.047 61.5598 136.764 62.1905C137.38 62.7358 138.01 63.3665 138.655 64.0828C141.644 67.3997 143.829 69.864 145.21 71.4757C145.276 71.5547 145.359 71.6166 145.454 71.6561Z" fill="#915D2D"/>
<path d="M187.725 166.096L185.678 166.015C185.899 165.606 185.967 165.278 185.882 165.029C185.692 164.492 185.211 163.518 184.438 162.106C177.863 150.107 172.14 138.93 163.978 126.658C155.4 113.764 144.394 97.5151 135.836 82.7815C135.452 82.12 134.872 81.4465 134.46 80.7208C132.194 76.7464 129.835 72.8295 127.382 68.97C126.785 68.0265 126.114 67.087 125.37 66.1516C124.39 64.9248 123.519 63.6539 122.339 62.6796C119.723 60.5147 116.815 59.0033 113.613 58.1453C111.898 57.6829 109.258 57.3996 105.69 57.2954C100.71 57.1457 95.727 57.0842 90.7414 57.1109C86.8062 57.1296 83.7068 57.2646 81.4433 57.5159C74.9926 58.2335 68.6979 61.3847 62.7992 64.2392C61.0182 65.1025 59.2172 65.8576 57.3963 66.5044C49.7792 69.2092 42.3234 72.2976 35.0289 75.7695C31.6883 77.3598 29.2981 78.5478 27.8584 79.3336C24.8244 80.9881 21.6197 83.0154 18.2444 85.4155C14.9624 87.7488 11.6764 90.0728 8.38645 92.3874C5.88696 94.1474 3.96336 95.7711 2.05976 97.8519C2.02364 97.8914 1.97672 97.9193 1.92486 97.9322C1.873 97.9451 1.81849 97.9424 1.76815 97.9245C1.71781 97.9065 1.67386 97.8741 1.64179 97.8312C1.60973 97.7884 1.59097 97.737 1.58786 97.6835C1.51587 96.3525 2.07975 95.4865 3.17953 94.6486C8.18649 90.8158 13.3574 86.7385 18.4684 83.431C28.6023 76.8693 39.3734 71.616 50.7817 67.671C53.4611 66.7463 55.7366 65.8669 57.6082 65.033C61.6074 63.2489 65.5346 61.3246 69.6537 59.7931C71.8693 58.9712 74.2248 57.9809 76.3603 57.4397C80.3249 56.4321 84.3187 56.0432 88.3419 56.273C92.2237 56.4949 95.9896 56.5523 99.6395 56.4454C102.1 56.3706 104.165 56.3893 105.834 56.5015C107.898 56.6405 109.961 56.8009 112.025 56.9826C115.843 57.3167 119.339 58.5435 122.515 60.663C122.624 60.7379 122.692 60.8394 122.719 60.9677C122.751 61.1174 122.817 61.2297 122.919 61.3045C123.148 61.4756 123.267 61.5651 123.275 61.5731C125.274 63.6899 127.027 65.9939 128.534 68.4849C128.563 68.533 128.607 68.5584 128.666 68.5611C128.703 68.5611 128.739 68.5718 128.773 68.5931C128.795 68.6065 128.813 68.6265 128.829 68.6533C133.698 77.1339 137.322 83.2452 139.703 86.9871C141.29 89.4754 142.573 91.5455 143.554 93.1973C144.982 95.5987 146.582 97.8439 147.93 99.9968C153.2 108.432 158.677 116.732 164.358 124.898C164.731 125.435 165.27 126.295 165.974 127.479C166.674 128.646 167.569 129.845 168.205 130.875C173.175 138.936 177.323 146.171 180.651 152.581C182.816 156.748 184.501 159.871 185.706 161.95C186.286 162.948 186.725 164.287 187.493 165.362C187.576 165.479 187.683 165.564 187.813 165.614C187.917 165.655 187.987 165.727 188.021 165.831C188.053 165.925 188.021 165.977 187.925 165.987C187.816 165.998 187.749 166.034 187.725 166.096Z" fill="#915D2D"/>
<path d="M1.5 132C1.32483 131.651 1.33648 131.355 1.50001 131C1.87249 130.192 2.8263 131.227 3.75944 131.288C7.92924 131.558 10.6927 131.747 12.0497 131.853C14.8171 132.073 17.5886 132.26 20.364 132.415C22.8435 132.551 25.5069 132.61 28.3543 132.591C33.7879 132.556 39.2201 132.488 44.651 132.387C51.9614 132.25 59.7118 130.775 65.3747 126.569C66.8703 125.458 68.4194 123.941 70.0217 122.019C72.3945 119.173 74.6247 116.216 76.7123 113.151C80.4395 107.67 83.4909 102.643 85.7864 96.7053C86.8209 94.0245 87.3581 91.2435 87.3981 88.3623C87.4981 80.9574 81.6353 77.722 75.1446 76.7718C66.1438 75.4542 57.395 76.8627 48.8981 80.9975C43.3979 83.6729 38.8748 85.9474 35.3289 87.821C32.5588 89.2857 30.1686 90.4671 28.1584 91.3651C23.4953 93.4445 20.4306 94.7809 18.9643 95.3743C16.1729 96.5048 13.7054 97.7036 11.1859 98.6537C8.1332 99.8057 5.20847 101.23 2.41172 102.928C2.20909 103.053 2.0198 103.1 1.84384 103.068C1.7736 103.056 1.70773 103.026 1.65252 102.981C1.59732 102.935 1.55462 102.877 1.52853 102.81C1.50245 102.743 1.49384 102.671 1.50353 102.599C1.51322 102.528 1.54089 102.46 1.58389 102.402C2.13178 101.677 2.78764 101.4 3.57948 100.979C9.9195 97.598 16.4075 94.5337 23.0434 91.7861C26.0855 90.5272 28.5236 89.4501 30.3579 88.5547C37.7884 84.9184 44.619 80.785 52.7093 77.8102C60.673 74.8835 68.8499 74.1953 77.2402 75.7455C79.5797 76.1785 82.851 77.3251 84.7546 79.1412C85.2745 79.6357 85.8557 80.3226 86.4983 81.2019C87.9966 83.2519 88.7031 85.7055 88.6178 88.5627C88.5059 92.2699 87.5501 96.1106 85.7504 100.085C84.1641 103.589 82.9084 106.108 81.9832 107.642C78.4586 113.493 74.4368 118.971 69.9177 124.076C68.5233 125.65 67.145 126.9 65.7826 127.824C62.7539 129.882 59.4612 131.364 55.9046 132.27C52.1694 133.221 47.2424 133.445 42.9513 133.85C40.9624 134.04 37.3965 134.037 32.2535 133.842C22.7168 133.481 13.1855 133.007 3.65946 132.419C3.08625 132.384 2.51211 132.841 1.95581 132.475C1.74099 132.334 1.61531 132.23 1.5 132Z" fill="#915D2D"/>
<path d="M1.63187 109.214C1.55722 108.554 1.83983 108.054 2.47969 107.714C7.75327 104.937 11.8684 102.953 14.8251 101.761C18.9603 100.093 23.1021 98.4386 27.2506 96.7975C33.2786 94.4134 39.4547 92.5358 45.7787 91.1647C47.9263 90.6996 50.1418 90.5873 52.3534 90.4109C56.8684 90.0581 61.7554 91.5215 64.6788 95.0335C65.9292 96.5356 66.6917 98.2167 66.9663 100.077C67.1236 101.122 67.1436 102.465 67.0263 104.106C66.6024 110.06 63.755 116.146 60.1517 120.848C58.852 122.548 57.4163 123.911 55.5087 124.95C53.4505 126.07 51.2483 126.822 48.9021 127.207C45.1748 127.819 41.4236 128.118 37.6484 128.105C37.4884 128.105 36.8286 128.156 35.6688 128.257C34.765 128.337 33.7692 128.113 32.9814 128.105C28.3143 128.057 24.6271 128.057 18.9923 127.925C16.2568 127.86 13.4414 128.041 10.81 127.957C7.87191 127.858 4.93252 127.83 1.9918 127.872C1.83983 127.872 1.73318 127.943 1.67186 128.085C1.62387 128.202 1.52123 128.24 1.36392 128.197C1.21196 128.157 1.1453 128.058 1.16397 127.9L1.28394 126.79C1.3026 126.63 1.39192 126.552 1.55189 126.557C10.9793 126.798 17.0473 126.901 19.7561 126.866C26.3547 126.781 32.9534 126.755 39.552 126.79C44.8989 126.822 51.0816 126.024 55.6287 123.114C56.9884 122.242 58.2521 121.041 59.4199 119.509C63.515 114.149 66.5864 107.077 65.5986 100.273C64.8668 95.2019 60.1278 92.2632 55.2408 92.0226C50.5564 91.7901 45.9613 92.342 41.4556 93.6784C37.6164 94.817 33.8292 95.9075 30.046 97.3588C24.9857 99.3019 19.9201 101.229 14.8491 103.14C11.4712 104.412 8.18251 105.882 4.98318 107.55C3.95139 108.09 3.00225 108.713 2.13576 109.418C2.0933 109.454 2.04208 109.477 1.98747 109.485C1.93285 109.494 1.87685 109.487 1.82533 109.466C1.77381 109.446 1.72866 109.411 1.69463 109.367C1.66059 109.322 1.63892 109.269 1.63187 109.214Z" fill="#915D2D"/>
<path d="M180.003 166.083L178.139 166.116C178.145 165.982 178.183 165.863 178.255 165.759C178.327 165.657 178.337 165.55 178.283 165.438C174.543 157.612 172.018 152.676 170.709 150.628C167.877 146.199 165.095 141.739 162.363 137.246C161.549 135.907 161.119 135.087 161.071 134.788C161.055 134.697 161.024 134.612 160.979 134.531C158.331 129.777 155.669 125.012 152.993 120.239C152.187 118.806 150.198 115.769 147.026 111.126C146.223 109.958 145.525 109.107 144.93 108.572C137.744 102.138 128.502 101.047 119.547 100.774C116.048 100.666 112.845 100.923 109.534 101.516C107.849 101.818 105.88 102.478 103.627 103.497C98.1039 105.994 93.3369 108.528 88.9658 112.589C86.9155 114.492 85.2492 116.275 83.9668 117.938C81.8952 120.618 80.0556 124.02 78.448 128.141C76.635 132.778 76.1298 137.558 76.9323 142.482C77.7001 147.183 79.3064 152.383 81.7513 158.081C82.6924 160.273 83.6442 162.458 84.6067 164.636C84.6787 164.799 84.8226 165.012 85.0386 165.274C85.2945 165.589 85.3439 165.86 85.1866 166.087L83.8788 166.083C81.0954 160.444 78.7119 154.113 76.7283 147.092C74.5208 139.266 75.0513 131.889 78.32 124.962C78.6879 124.184 79.3024 123.076 80.1636 121.638C81.0474 120.159 81.8193 118.691 82.851 117.364C89.6776 108.592 99.6676 102.017 110.657 99.8163C111.454 99.6559 112.481 99.545 113.737 99.4835C115.148 99.4154 116.456 99.2229 117.868 99.3312C120.719 99.5437 123.487 99.3793 126.318 99.9205C128.41 100.321 130.685 100.538 132.585 101.023C137.128 102.182 141.535 103.845 145.046 106.912C146.158 107.883 147.296 109.25 148.461 111.014C151.639 115.814 155.093 121.558 158.823 128.245C163.79 137.145 167.415 143.332 169.697 146.803C171.518 149.578 172.824 151.74 173.616 153.29C174.611 155.241 175.622 157.183 176.652 159.116C177.062 159.883 177.443 160.722 177.795 161.633C178.239 162.772 178.663 164.171 179.439 165.113C179.708 165.442 179.896 165.765 180.003 166.083Z" fill="#915D2D"/>
<path d="M1.50002 123C1.52401 122.837 1.37192 122.5 1.37192 122.5L1.37193 121.366C1.40393 121.245 1.46658 121.227 1.55989 121.309C1.60255 121.347 1.64921 121.376 1.69986 121.398C1.73719 121.414 1.78251 121.419 1.83584 121.414C8.1012 120.767 14.3306 119.878 20.524 118.748C26.7147 117.617 34.4171 116.522 40.5558 114.518C43.0406 113.708 45.4641 112.165 47.8263 109.887C48.1249 109.599 48.4382 108.947 48.7661 107.931C50.2858 103.236 44.6989 101.308 41.2637 100.983C37.5951 100.641 33.9798 100.848 30.4179 101.604C28.4557 102.024 26.1375 102.843 23.4634 104.062C20.384 105.468 17.342 106.949 14.3372 108.504C12.2363 109.592 10.1275 110.855 8.01056 112.293C5.96565 113.685 3.93673 115.101 1.92382 116.539C1.78518 116.637 1.6732 116.613 1.58789 116.466C1.25729 115.894 1.39326 115.395 1.9958 114.967C8.40514 110.405 15.1571 106.413 22.2516 102.992C24.7711 101.777 28.4063 100.33 31.5337 99.8605C36.9685 99.0506 43.2952 98.9665 47.7423 101.468C50.1858 102.839 50.7857 104.559 50.3178 107.297C49.9658 109.374 49.106 110.944 47.7383 112.008C43.5632 115.264 38.4082 116.659 33.1133 117.689C24.2232 119.417 15.2291 121.165 6.24692 122.308C4.43663 122.538 2.83963 122.794 1.45592 123.077C1.30661 123.107 1.61199 123.139 1.50002 123Z" fill="#915D2D"/>
<path d="M165.022 165.727C164.625 165.649 164.303 165.676 164.058 165.807C162.733 162.923 161.441 160.332 160.183 158.033C156.672 151.608 152.274 143.651 146.99 134.163C145.161 130.883 143.774 128.602 142.831 127.319C140.42 124.04 137.418 121.009 133.824 118.226C130.479 115.636 127.111 113.753 123.723 112.577C122.215 112.052 120.431 112.06 118.804 111.92C117.081 111.77 115.838 111.694 115.072 111.691C107.554 111.667 100.917 114.011 95.1605 118.723C89.5536 123.31 87.718 130.919 87.726 137.971C87.7314 146.011 89.6296 153.364 93.4209 160.03C93.8688 160.818 94.41 161.838 95.0445 163.089C95.5457 164.078 96.123 165.08 96.7762 166.095L94.8126 166.071C94.1007 164.356 93.3449 162.705 92.545 161.12C91.252 158.546 90.4628 156.912 90.1775 156.217C86.2303 146.587 85.0546 135.746 88.3699 125.747C89.7496 121.59 92.857 118.367 96.6642 115.913C103.257 111.663 110.681 109.878 118.936 110.557C121.663 110.781 123.799 111.186 126.378 112.237C135.888 116.105 143.003 123.959 147.838 133.164C150.858 138.919 153.764 144.188 156.556 148.972C158.171 151.747 160.771 156.654 164.354 163.694C164.686 164.347 164.858 165.033 165.022 165.727Z" fill="#915D2D"/>
<path d="M159.079 166.051L157.1 166.055C155.444 161.378 153.67 157.245 151.777 153.655C149.492 149.328 147.194 145.82 144.882 143.131C140.984 138.596 136.072 134.568 130.145 131.048C125.854 128.502 121.311 126.646 116.228 126.06C107.758 125.086 102.015 131.625 101.131 139.475C100.043 149.085 103.775 157.147 107.386 165.639C107.476 165.852 107.365 166.013 107.05 166.12L105.758 166.015C104.993 163.762 104.029 161.262 102.867 158.514C100.323 152.505 98.6077 144.422 99.9834 137.919C100.391 135.99 100.729 134.661 100.995 133.934C101.939 131.35 103.576 129.109 105.906 127.211C112.469 121.859 122.527 124.862 129.001 128.802C129.561 129.143 130.345 129.328 130.789 129.6C133.106 131.014 135.675 132.813 138.495 134.997C139.247 135.578 140.123 136.773 141.099 137.43C141.605 137.77 141.977 138.062 142.215 138.308C149.365 145.757 154.344 154.818 157.959 164.444C158.058 164.708 158.234 164.977 158.487 165.25C158.714 165.493 158.911 165.76 159.079 166.051Z" fill="#915D2D"/>
<path d="M70.4735 159.236C71.1614 159.527 71.5733 159.786 71.7093 160.014C72.6131 161.533 73.7768 162.668 73.9368 164.544C73.9445 164.623 73.9272 164.703 73.8874 164.772C73.8476 164.841 73.7873 164.895 73.7149 164.928C73.6426 164.961 73.5618 164.97 73.4839 164.954C73.4061 164.939 73.3351 164.899 73.2809 164.841C72.3771 163.895 71.9932 162.604 71.2014 161.657C69.8497 160.051 68.9085 159.03 68.378 158.594C65.1226 155.932 61.6674 153.571 58.0121 151.51C56.0405 150.4 53.501 149.389 51.2135 148.323C50.2537 147.877 49.3166 147.532 48.4021 147.289C45.8386 146.607 43.3791 145.958 40.7077 145.521C37.2244 144.951 33.7851 144.47 30.3538 143.548C27.7624 142.85 25.1709 142.157 22.5795 141.467C15.9915 139.717 9.28888 138.69 2.47162 138.388C2.40116 138.385 2.33393 138.357 2.28091 138.31C2.22789 138.262 2.19221 138.198 2.17968 138.128L2.0917 137.623C2.08518 137.58 2.08794 137.537 2.09978 137.496C2.11161 137.455 2.13223 137.418 2.16016 137.386C2.18808 137.354 2.2226 137.329 2.26125 137.312C2.29989 137.296 2.34169 137.288 2.38364 137.29C6.70275 137.485 10.9952 137.906 15.261 138.553C17.3912 138.876 19.992 139.447 23.0634 140.265C28.4462 141.7 33.5572 143.059 39.256 143.961C42.3673 144.45 45.5627 144.903 48.4861 145.95C53.6317 147.786 58.536 150.126 63.199 152.97C64.3988 153.699 65.5279 154.513 66.5863 155.411C67.6501 156.317 68.6899 157.251 69.7057 158.214C69.943 158.438 70.1216 158.7 70.2416 158.999C70.2842 159.112 70.3616 159.19 70.4735 159.236Z" fill="#915D2D"/>
<path d="M147.754 166.1L145.798 166.051L145.714 165.358C145.698 165.23 145.65 165.116 145.57 165.017C140.712 159.137 136.66 154.706 133.413 151.723C129.185 147.842 125.782 144.983 121.443 143.4C117.876 142.101 115.296 144.975 114.444 148.098C112.794 154.171 113.385 160.167 116.216 166.088L114.364 166.055C113.599 163.377 113.045 161.132 112.701 159.32C111.84 154.758 112.236 150.33 113.889 146.038C114.964 143.243 116.644 141.644 119.671 141.852C124.11 142.157 129.065 145.982 132.185 148.952C136.922 153.459 141.651 158.438 146.37 163.891C147.002 164.62 147.463 165.357 147.754 166.1Z" fill="#915D2D"/>
<path d="M54.101 166.088L51.9335 166.06C51.6615 165.618 51.4736 165.153 51.0336 164.873C36.2207 155.451 19.8361 148.179 2.56769 146.006C2.2211 145.96 1.99048 145.845 1.87584 145.661C1.72387 145.415 1.76786 145.149 2.00781 144.863C2.09046 144.77 2.1931 144.732 2.31574 144.751C12.1737 146.19 21.8157 148.387 30.242 152.348C36.2194 155.157 40.2452 157.127 42.3195 158.258C44.643 159.529 48.0743 161.994 51.9175 163.991C52.8879 164.493 53.6158 165.192 54.101 166.088Z" fill="#915D2D"/>
<path d="M34.753 166.14L32.4534 166.168L31.9535 166.14H31.5536C32.0122 166.03 32.3708 165.811 32.4694 165.538C32.4925 165.475 32.4943 165.407 32.4748 165.344C32.4552 165.28 32.4153 165.226 32.3614 165.189C27.0105 161.485 20.8438 158.358 14.4731 156.963C10.5966 156.11 6.61344 155.434 2.52363 154.934C2.45745 154.926 2.39535 154.897 2.34541 154.853C2.29548 154.809 2.26003 154.75 2.24368 154.686C2.15304 154.335 2.22102 154.075 2.44764 153.904C2.59428 153.791 2.81557 153.754 3.1115 153.791C7.20399 154.297 11.2565 155.002 15.269 155.908C18.1217 156.55 20.6532 157.366 22.8634 158.358C26.4573 159.97 29.9179 161.965 33.2453 164.344C34.0318 164.905 34.6197 165.538 34.753 166.14Z" fill="#915D2D"/>
<path d="M172.116 23.0573C172.18 23.5905 172.108 24.0155 172.336 24.4885C173.296 26.4771 174.716 28.5685 176.596 30.7628C179.544 34.2107 181.961 36.8314 183.846 38.6248C185.52 40.2204 187.103 41.9043 188.593 43.6763C188.836 43.965 189.198 44.2643 189.681 44.5744C190.262 44.9459 190.629 45.2278 190.781 45.4203C191.26 46.0323 191.256 46.7045 190.769 47.4369C190.716 47.5154 190.646 47.5799 190.563 47.6244C190.48 47.669 190.387 47.6923 190.293 47.6923C190.199 47.6923 190.106 47.669 190.023 47.6244C189.94 47.5799 189.869 47.5154 189.817 47.4369C187.993 44.7 185.89 42.1769 183.506 39.8676C180.4 36.8554 177.466 33.6842 174.704 30.3539C173.08 28.3974 171.743 26.4931 170.693 24.6409L169.802 23.6877L168.52 23.1406C166.926 22.7364 164.945 22.9889 163.634 23.1415C163.555 23.1501 163.478 23.1787 163.413 23.2246C163.347 23.2706 163.294 23.3324 163.259 23.4043C163.223 23.4763 163.206 23.5561 163.21 23.6362C163.213 23.7164 163.237 23.7945 163.278 23.8631C165.266 27.1987 167.285 30.3419 169.749 33.469C173.383 38.0876 177.139 42.6032 181.019 47.0159C181.123 47.1335 181.208 47.2738 181.275 47.4369C181.339 47.5946 181.411 47.7483 181.491 47.8979C181.592 48.085 181.758 48.2628 181.99 48.4312C182.942 49.1234 183.678 50.0041 184.198 51.0732C184.254 51.1908 184.341 51.2736 184.458 51.3218C184.549 51.3592 184.61 51.4206 184.642 51.5062C184.695 51.6371 184.73 51.7146 184.746 51.7387C185.09 52.2652 185.488 52.7397 185.942 53.1619C186.627 53.8007 187.064 54.2324 187.253 54.4569C187.939 55.2774 188.609 56.106 189.265 56.9426C189.493 57.2352 189.693 57.7524 189.665 58.0812C189.658 58.151 189.63 58.2173 189.586 58.272C189.542 58.3267 189.484 58.3674 189.417 58.3891C189.351 58.4108 189.28 58.4126 189.213 58.3942C189.147 58.3758 189.087 58.3381 189.041 58.2856C184.474 53.1165 179.932 47.9247 175.416 42.7101C173.787 40.8311 172.128 38.741 170.441 36.4398C168.545 33.8526 166.62 31.2867 164.666 28.7422C163.726 27.5194 163.074 26.2926 162.382 24.9656C162.07 24.3665 161.518 23.7071 160.727 22.9873L163.634 23.1415C164.945 22.9889 166.926 22.7364 168.52 23.1406L168.325 23.0573H172.116Z" fill="#915D2D"/>
<defs>
<linearGradient id="paint0_linear_1338_57606" x1="25.8546" y1="260.189" x2="25.8546" y2="6.81104" gradientUnits="userSpaceOnUse">
<stop stop-color="#764A22"/>
<stop offset="0.755208" stop-color="#764A22"/>
<stop offset="1" stop-color="#CE8B52"/>
</linearGradient>
<linearGradient id="paint1_linear_1338_57606" x1="25.8546" y1="260.189" x2="25.8546" y2="6.81104" gradientUnits="userSpaceOnUse">
<stop stop-color="#B67B49"/>
<stop offset="0.755208" stop-color="#B67B49"/>
<stop offset="1" stop-color="#915D2D"/>
</linearGradient>
<linearGradient id="paint2_linear_1338_57606" x1="165.5" y1="260.189" x2="165.5" y2="6.81104" gradientUnits="userSpaceOnUse">
<stop stop-color="#764A22"/>
<stop offset="0.755208" stop-color="#764A22"/>
<stop offset="1" stop-color="#CE8B52"/>
</linearGradient>
<linearGradient id="paint3_linear_1338_57606" x1="165.426" y1="260.189" x2="165.426" y2="6.81104" gradientUnits="userSpaceOnUse">
<stop stop-color="#B67B49"/>
<stop offset="0.755208" stop-color="#B67B49"/>
<stop offset="1" stop-color="#915D2D"/>
</linearGradient>
</defs>
</svg>
