<svg width="20" height="15" viewBox="0 0 20 15" fill="none" xmlns="http://www.w3.org/2000/svg">
<g clip-path="url(#clip0_202_3042)">
<path d="M0 0H20V15H0V0Z" fill="#007C30"/>
<path d="M0 0H13.3333V15H0V0Z" fill="#C00000"/>
<path d="M0 0H6.66667V15H0V0Z" fill="black"/>
<path fill-rule="evenodd" clip-rule="evenodd" d="M10.7304 8.46899L11.0439 8.46903C11.0451 8.58742 11.1145 8.71462 11.2121 8.78752H10.6113C10.7053 8.70236 10.731 8.60141 10.7304 8.46899Z" fill="white" stroke="#BD6B00" stroke-width="0.03"/>
<path fill-rule="evenodd" clip-rule="evenodd" d="M8.75 6.69493L8.92165 6.88393L11.0582 6.88742L11.2334 6.69842L10.687 6.69144L10.4208 6.50593L9.56262 6.50244L9.31392 6.69493H8.75Z" fill="white"/>
<path fill-rule="evenodd" clip-rule="evenodd" d="M9.62457 6.47782L10.3624 6.47707C10.4623 6.42427 10.4934 6.25575 10.4929 6.16147C10.4915 5.88289 10.2965 5.74931 10.1009 5.74222C10.0716 5.74072 10.0375 5.71792 10.0298 5.69122C10.0105 5.63074 10.0155 5.59219 9.99433 5.59432C9.97557 5.59406 9.98108 5.62957 9.96435 5.68631C9.95515 5.71451 9.92344 5.74234 9.89177 5.74395C9.64822 5.7561 9.49113 5.93377 9.49724 6.16147C9.50137 6.31204 9.5189 6.40192 9.62457 6.47782Z" fill="white" stroke="#BD6B00" stroke-width="0.03"/>
<path fill-rule="evenodd" clip-rule="evenodd" d="M8.41016 9.10612H11.5801L11.2963 8.87512H8.69386L8.41016 9.10612Z" fill="white"/>
<path fill-rule="evenodd" clip-rule="evenodd" d="M9.86393 8.23837L9.92172 8.41162H10.053L9.94799 8.23833H9.86393V8.23837ZM9.79038 8.41162L9.82366 8.58311L9.97775 8.58483L9.92172 8.41162H9.79038ZM10.0513 8.41334L10.1581 8.58311H10.3771L10.2055 8.41154L10.0513 8.41334H10.0513ZM8.75886 8.80184C8.87501 8.69392 8.94913 8.60178 8.94973 8.46937H9.23343C9.234 8.54347 9.26083 8.58776 9.30173 8.58487L9.58897 8.58311L9.58724 8.41334H9.37882L9.37878 7.48754C9.3712 7.16032 9.77691 6.96956 9.94274 6.97128L8.95671 6.96956V6.93982H11.0303L11.032 6.96956L10.0321 6.97128C10.3286 6.97188 10.6146 7.25253 10.617 7.48934V7.75184H10.5784L10.5767 7.49287C10.5767 7.23382 10.2502 6.99176 9.98822 6.99933C9.76167 7.00582 9.4103 7.22159 9.41379 7.49114V7.57162L9.95145 7.57514L9.94619 7.66784L10.0306 7.72169L10.199 7.77532L10.1965 7.91444L10.3171 7.94996L10.3182 8.08893L10.4628 8.15096V8.29481L10.5546 8.35132L10.5504 8.49738L10.6747 8.58487H10.3805L10.5644 8.78962H10.2929L10.1581 8.58487H9.97944L10.06 8.78786L9.86919 8.78613L9.82359 8.58487H9.5907L9.59242 8.80184H8.75879H8.75886ZM9.59077 8.24009V8.41154H9.79042L9.75007 8.24006L9.59077 8.24009Z" fill="white"/>
<path d="M9.92172 8.41162L9.86393 8.23837V8.23833H9.94799L10.053 8.41162H9.92172ZM9.92172 8.41162L9.97775 8.58483L9.82366 8.58311L9.79038 8.41162H9.92172ZM10.0513 8.41334L10.1581 8.58311H10.3771L10.2055 8.41154L10.0513 8.41334H10.0513ZM8.75886 8.80184C8.87501 8.69392 8.94913 8.60178 8.94973 8.46937H9.23343C9.234 8.54347 9.26083 8.58776 9.30173 8.58487L9.58897 8.58311L9.58724 8.41334H9.37882L9.37878 7.48754C9.3712 7.16032 9.77691 6.96956 9.94274 6.97128L8.95671 6.96956V6.93982H11.0303L11.032 6.96956L10.0321 6.97128C10.3286 6.97188 10.6146 7.25253 10.617 7.48934V7.75184H10.5784L10.5767 7.49287C10.5767 7.23382 10.2502 6.99176 9.98822 6.99933C9.76167 7.00582 9.4103 7.22159 9.41379 7.49114V7.57162L9.95145 7.57514L9.94619 7.66784L10.0306 7.72169L10.199 7.77532L10.1965 7.91444L10.3171 7.94996L10.3182 8.08893L10.4628 8.15096V8.29481L10.5546 8.35132L10.5504 8.49738L10.6747 8.58487H10.3805L10.5644 8.78962H10.2929L10.1581 8.58487H9.97944L10.06 8.78786L9.86919 8.78613L9.82359 8.58487H9.5907L9.59242 8.80184H8.75879H8.75886ZM9.59077 8.24009V8.41154H9.79042L9.75007 8.24006L9.59077 8.24009Z" stroke="#BD6B00" stroke-width="0.03"/>
<path fill-rule="evenodd" clip-rule="evenodd" d="M9.60156 7.93726H9.72589V8.22252H9.60156V7.93726Z" stroke="#BD6B00" stroke-width="0.03"/>
<path fill-rule="evenodd" clip-rule="evenodd" d="M9.42578 8.2426H9.54715L9.54639 8.03271C9.54482 7.94147 9.62678 7.84952 9.66599 7.84645C9.70949 7.8448 9.77359 7.93259 9.77572 8.02555L9.77749 8.24327L9.90621 8.24301V7.70264L9.42578 7.70515V8.2426ZM10.3861 8.36785H10.5367V8.48511H10.3861V8.36785ZM10.2968 8.16647H10.4474V8.28374H10.2968V8.16647ZM10.1516 7.9651H10.3022V8.08236H10.1516V7.9651ZM10.0273 7.7956H10.178V7.91286H10.0273V7.7956Z" stroke="#BD6B00" stroke-width="0.03"/>
<path fill-rule="evenodd" clip-rule="evenodd" d="M9.92773 8.24325L10.0818 8.2485L10.3568 8.49176V8.34825L10.264 8.28176V8.16799L10.1291 8.09104V7.96849L9.99776 7.92476V7.75849L9.93119 7.70422L9.92773 8.24325Z" stroke="#BD6B00" stroke-width="0.03"/>
<path fill-rule="evenodd" clip-rule="evenodd" d="M10.5791 7.88818H10.6159V8.15245H10.5791V7.88818Z" fill="white" stroke="#BD6B00" stroke-width="0.03"/>
<path fill-rule="evenodd" clip-rule="evenodd" d="M8.39793 6.99486C8.35162 6.92054 8.29615 7.09795 8.10566 7.22999C8.01699 7.29032 7.95522 7.45101 7.95462 7.55672C7.95173 7.62936 7.96272 7.70177 7.95462 7.77201C7.94948 7.81649 7.90313 7.91511 7.93484 7.94035C8.01868 8.0026 8.1272 8.14397 8.17753 8.19276C8.22106 8.2309 8.25878 7.99596 8.29146 7.89085C8.32647 7.77816 8.31079 7.6435 8.40787 7.5394C8.4767 7.46909 8.6503 7.3999 8.63078 7.36862L8.39793 6.99486Z" fill="white" stroke="#BD6B00" stroke-width="0.03"/>
<path fill-rule="evenodd" clip-rule="evenodd" d="M8.3879 7.57049C8.37228 7.53508 8.35132 7.50228 8.32575 7.47322C8.29952 7.44352 8.26852 7.41858 8.23426 7.40643C8.2012 7.39424 8.1675 7.37827 8.14397 7.34902C8.13092 7.33293 8.12169 7.3141 8.11699 7.29393C8.11233 7.27353 8.11237 7.24856 8.11586 7.22009C8.11173 7.22309 8.10952 7.22654 8.10528 7.22947C8.0166 7.28977 7.95457 7.45072 7.95401 7.55643C7.95283 7.58533 7.95283 7.61427 7.95401 7.64317C7.96057 7.66136 7.96688 7.67898 7.97626 7.69004C7.98849 7.70441 8.00305 7.71389 8.01848 7.72049C8.0494 7.73369 8.08509 7.73643 8.11819 7.74862C8.15241 7.76077 8.18765 7.78829 8.21786 7.82129C8.24468 7.85097 8.26683 7.88456 8.28353 7.92089C8.28601 7.91178 8.28931 7.89824 8.29175 7.89041C8.32346 7.78837 8.31791 7.66957 8.3879 7.57049Z" fill="#BF0000" stroke="#BD6B00" stroke-width="0.03"/>
<path d="M8.11689 7.2146C8.09873 7.34045 8.16886 7.38234 8.23503 7.40671C8.30351 7.43101 8.35969 7.50444 8.38862 7.57089M7.94727 7.62897C7.97616 7.73746 8.05227 7.72389 8.11843 7.74826C8.18695 7.7726 8.25897 7.85915 8.2879 7.9256" stroke="#BD6B00" stroke-width="0.03"/>
<path fill-rule="evenodd" clip-rule="evenodd" d="M8.33301 6.91803L8.36772 6.89575L9.03391 8.01693L8.99923 8.0392L8.33301 6.91803Z" fill="white" stroke="#BD6B00" stroke-width="0.03"/>
<path fill-rule="evenodd" clip-rule="evenodd" d="M8.40454 6.87334C8.40454 6.89369 8.39645 6.91321 8.38205 6.9276C8.36765 6.94199 8.34812 6.95007 8.32776 6.95007C8.30739 6.95007 8.28786 6.94199 8.27347 6.9276C8.25907 6.91321 8.25098 6.89369 8.25098 6.87334C8.25098 6.85299 8.25907 6.83348 8.27347 6.81909C8.28786 6.8047 8.30739 6.79662 8.32776 6.79662C8.34812 6.79662 8.36765 6.8047 8.38205 6.81909C8.39645 6.83348 8.40454 6.85299 8.40454 6.87334ZM8.9742 5.97259H9.24418V6.03447H8.9742V5.97259ZM8.9742 6.08997H9.24418V6.60687H8.9742V6.08997ZM8.95769 5.90209L9.25716 5.90386C9.26887 5.80238 9.16747 5.69273 9.10833 5.69386C9.04978 5.69671 8.95537 5.80471 8.95769 5.90209Z" fill="white" stroke="#BD6B00" stroke-width="0.03"/>
<path fill-rule="evenodd" clip-rule="evenodd" d="M9.72224 5.84106C9.66516 5.86506 9.62137 5.93019 9.59442 6.00512C9.56744 6.08004 9.5572 6.16513 9.56981 6.23364V6.23481C9.57457 6.25843 9.58107 6.27542 9.58857 6.28753C9.59604 6.29968 9.60441 6.30681 9.61435 6.30864C9.6243 6.31048 9.63364 6.30516 9.63897 6.29691C9.64434 6.28866 9.64692 6.27782 9.64602 6.26526C9.64062 6.19483 9.64096 6.12531 9.65773 6.06253C9.67455 5.99976 9.70794 5.94388 9.76919 5.89847C9.78022 5.89037 9.78656 5.88111 9.78795 5.87151C9.78927 5.86194 9.7842 5.85373 9.77737 5.84807C9.76371 5.83678 9.74217 5.83281 9.72224 5.84106ZM9.7281 5.85748C9.74198 5.85171 9.7597 5.85508 9.76679 5.86097C9.77035 5.86393 9.77077 5.86596 9.77032 5.86918C9.76986 5.87241 9.76743 5.87796 9.75861 5.88441C9.69432 5.93211 9.6589 5.99211 9.64133 6.05784C9.6237 6.12362 9.62411 6.19509 9.62959 6.26646C9.6303 6.2738 9.62866 6.28118 9.6249 6.28753C9.62227 6.29158 9.62088 6.29278 9.61788 6.29222C9.61484 6.29166 9.60857 6.28783 9.60261 6.27816C9.59668 6.26852 9.59071 6.25356 9.58621 6.23128C9.57438 6.16701 9.58482 6.08327 9.61082 6.01097C9.63687 5.93871 9.67849 5.87833 9.7281 5.85748Z" fill="#BD6B00"/>
<path fill-rule="evenodd" clip-rule="evenodd" d="M9.81823 5.91492C9.76119 5.93889 9.72437 6.00087 9.70449 6.07197C9.6846 6.14304 9.68144 6.22441 9.69394 6.29225C9.7037 6.3404 9.72899 6.36582 9.75372 6.36961C9.76611 6.37149 9.77804 6.36661 9.78539 6.35671C9.79275 6.34681 9.79515 6.3335 9.79125 6.31689C9.77729 6.26071 9.77192 6.19066 9.78187 6.12703C9.79185 6.06343 9.81714 6.00661 9.86518 5.97234C9.87625 5.96428 9.88255 5.95498 9.88394 5.94538C9.88526 5.93581 9.88019 5.92644 9.87336 5.92078C9.8597 5.90945 9.8382 5.90667 9.81823 5.91492ZM9.82529 5.93135C9.83917 5.92557 9.85568 5.92895 9.86281 5.93484C9.86634 5.9378 9.86795 5.93986 9.8675 5.94305C9.86705 5.94624 9.86341 5.95186 9.85459 5.95828C9.80161 5.99611 9.7747 6.05818 9.7643 6.1247C9.75387 6.19119 9.76036 6.2621 9.77481 6.32038C9.77793 6.33365 9.77485 6.34257 9.77132 6.34737C9.76779 6.35214 9.76329 6.35431 9.75609 6.35319C9.74167 6.35098 9.7192 6.33241 9.71034 6.28876C9.69841 6.22381 9.70182 6.14371 9.72089 6.07546C9.73999 6.00721 9.77556 5.9522 9.82525 5.93131L9.82529 5.93135Z" fill="#BD6B00"/>
<path fill-rule="evenodd" clip-rule="evenodd" d="M8.9598 7.0271H9.26103V7.44361H8.9598V7.0271ZM8.97743 7.68185H9.26816V7.76934H8.97743V7.68185ZM8.9703 7.8356H9.26801V8.1611H8.9703V7.8356ZM8.94929 8.22785H9.27502V8.40984H8.94929V8.22785ZM8.98944 7.60347H9.25195L9.304 7.51685H8.94238L8.98944 7.60347ZM9.34332 7.28435L9.3458 7.05669H9.52661C9.45557 7.11522 9.38956 7.18621 9.34332 7.28435Z" fill="white" stroke="#BD6B00" stroke-width="0.03"/>
<path fill-rule="evenodd" clip-rule="evenodd" d="M9.00782 7.37774C9.00962 7.42645 9.06479 7.40474 9.06479 7.38021C9.06479 7.30506 9.0658 7.22384 9.0628 7.17066C9.06242 7.13147 9.15624 7.1413 9.15572 7.16541C9.15609 7.22886 9.1568 7.31586 9.15714 7.39011C9.15647 7.42626 9.21775 7.42311 9.21692 7.39011C9.21655 7.30716 9.21651 7.18667 9.21692 7.12566C9.21745 7.04706 9.01045 7.04879 9.00883 7.1239C9.00891 7.18559 9.00771 7.29602 9.00782 7.37774ZM9.0082 7.87424H9.22188V8.14026H9.0082V7.87424Z" stroke="#BD6B00" stroke-width="0.03"/>
<path fill-rule="evenodd" clip-rule="evenodd" d="M9.14404 7.9845H9.21936V8.02826H9.14404V7.9845ZM9.0127 7.9845H9.08625V8.02826H9.0127V7.9845Z" fill="white" stroke="#BD6B00" stroke-width="0.03"/>
<path fill-rule="evenodd" clip-rule="evenodd" d="M9.08704 7.87765H9.14483V7.98614H9.08704V7.87765ZM9.08704 8.02652H9.14483V8.14202H9.08704V8.02652ZM7.89817 5.2114C7.91153 5.42016 7.84672 5.53476 7.73605 5.51732C7.70558 5.40152 7.77493 5.32382 7.89817 5.2114ZM7.65537 5.67415C7.55701 5.62416 7.62798 5.24241 7.66573 5.0824C7.69365 5.28853 7.74041 5.58148 7.65537 5.67415Z" fill="white" stroke="#BD6B00" stroke-width="0.03"/>
<path fill-rule="evenodd" clip-rule="evenodd" d="M7.68919 5.69207C7.85453 5.74955 7.98543 5.57162 8.02967 5.36552C7.89322 5.55373 7.67113 5.55395 7.68919 5.69207ZM7.56384 5.88482C7.43456 5.85069 7.51243 5.44569 7.53592 5.28369C7.56433 5.45102 7.65346 5.82939 7.56384 5.88482ZM7.60813 5.87207C7.61533 5.73238 7.75467 5.77277 7.85085 5.69822C7.83517 5.76797 7.77602 5.89172 7.60813 5.87207ZM7.44976 6.05919C7.32164 6.02465 7.39865 5.58879 7.39141 5.40935C7.42893 5.56442 7.5479 6.01719 7.44976 6.05919ZM7.50943 6.04044C7.61439 6.07457 7.75339 6.00639 7.76435 5.88148C7.67395 5.94279 7.52966 5.89592 7.50943 6.04044Z" fill="white" stroke="#BD6B00" stroke-width="0.03"/>
<path fill-rule="evenodd" clip-rule="evenodd" d="M7.35433 6.25157C7.2318 6.26132 7.28663 5.89015 7.28671 5.54443C7.33174 5.86757 7.45434 6.16337 7.35433 6.25157Z" fill="white" stroke="#BD6B00" stroke-width="0.03"/>
<path fill-rule="evenodd" clip-rule="evenodd" d="M7.39746 6.23478C7.48021 6.27626 7.62848 6.20996 7.67081 6.07027C7.5213 6.13526 7.42133 6.07177 7.39746 6.23478ZM8.35929 5.40491C8.33752 5.58599 8.26344 5.69133 8.15277 5.67393C8.1223 5.55813 8.21203 5.48411 8.35929 5.40491ZM8.06657 5.86953C8.25038 5.89559 8.31658 5.75463 8.44035 5.57441C8.26693 5.69981 8.05959 5.72587 8.06657 5.86953Z" fill="white" stroke="#BD6B00" stroke-width="0.03"/>
<path fill-rule="evenodd" clip-rule="evenodd" d="M8.01349 5.84886C7.91329 5.72871 8.01011 5.57781 8.08667 5.44922C8.07023 5.64054 8.13545 5.74697 8.01349 5.84886ZM7.96921 6.04723C7.95791 5.92971 8.15827 5.90361 8.24886 5.83828C8.21839 5.90619 8.17219 6.08904 7.96921 6.04723Z" fill="white" stroke="#BD6B00" stroke-width="0.03"/>
<path fill-rule="evenodd" clip-rule="evenodd" d="M7.92793 6.04983C7.78942 6.03416 7.84691 5.79911 7.94621 5.66846C7.90441 5.84872 8.01939 5.97408 7.92793 6.04983Z" fill="white" stroke="#BD6B00" stroke-width="0.03"/>
<path fill-rule="evenodd" clip-rule="evenodd" d="M7.82353 6.24562C7.66584 6.17594 7.7669 5.97836 7.82616 5.86169C7.8009 6.01492 7.92722 6.13154 7.82353 6.24562Z" fill="white" stroke="#BD6B00" stroke-width="0.03"/>
<path fill-rule="evenodd" clip-rule="evenodd" d="M7.8544 6.22727C7.93714 6.33523 8.09836 6.19506 8.13146 6.03137C7.99118 6.14807 7.88753 6.12887 7.8544 6.22727ZM7.49413 6.98702C7.47792 6.82626 7.59895 6.53387 7.51305 6.37802C7.50134 6.35661 7.53875 6.29976 7.56296 6.33426C7.60071 6.38931 7.63951 6.54621 7.65576 6.48827C7.67299 6.42527 7.67565 6.3139 7.73146 6.29222C7.76707 6.27955 7.81739 6.27126 7.80366 6.32725C7.79004 6.3811 7.75949 6.4555 7.79334 6.46026C7.81297 6.46318 7.86952 6.38698 7.91718 6.35177C7.95553 6.32035 8.0128 6.36951 7.95669 6.4165C7.77427 6.56788 7.59756 6.63602 7.49413 6.98702ZM7.16652 9.4069C7.14513 9.40277 7.11578 9.39553 7.1425 9.4288C7.35558 9.69115 7.41724 9.76345 7.728 9.72655C8.04192 9.68522 8.11667 9.6004 8.33647 9.47717C8.4539 9.40832 8.62554 9.39306 8.75565 9.4357C8.81622 9.4555 8.85285 9.4567 8.80947 9.41323C8.76601 9.36985 8.71471 9.31086 8.66127 9.27017C8.54426 9.1804 8.34578 9.14147 8.18381 9.17035C7.95474 9.20627 7.76546 9.35203 7.53924 9.40708C7.42039 9.4342 7.29006 9.43011 7.16656 9.4069H7.16652ZM8.95995 9.87565C8.99958 9.88056 9.02469 9.95728 9.0442 9.90535C9.07726 9.82127 9.05411 9.75437 9.01692 9.76176C8.97301 9.77346 8.89882 9.87178 8.95995 9.87565Z" fill="white" stroke="#BD6B00" stroke-width="0.03"/>
<path fill-rule="evenodd" clip-rule="evenodd" d="M7.01997 6.85957C6.97437 6.81199 6.98754 6.7938 7.05498 6.79305C7.10845 6.78967 7.21447 6.82579 7.25462 6.79654C7.29151 6.7698 7.27684 6.65636 7.2932 6.60405C7.30033 6.57487 7.32078 6.52909 7.36676 6.60056C7.50268 6.81821 7.67245 7.07955 7.74503 7.33556C7.7847 7.47904 7.74736 7.70306 7.61541 7.85359C7.62006 7.72522 7.57218 7.6389 7.51382 7.53157C7.44173 7.3905 7.17394 7.00841 7.01997 6.85957Z" fill="white"/>
<path fill-rule="evenodd" clip-rule="evenodd" d="M7.57945 8.00402C7.72892 8.00477 7.75459 7.80452 7.75459 7.74854C7.68104 7.76252 7.55142 7.88504 7.57945 8.00402ZM8.87115 9.94727C8.97746 9.97146 8.976 9.7156 8.86739 9.60715C8.9152 9.77147 8.78753 9.9217 8.87115 9.94727ZM8.82987 9.94502C8.83688 10.0666 8.53118 9.92912 8.45264 9.83455C8.63326 9.9112 8.82097 9.84775 8.82987 9.94502ZM8.69589 9.7714C8.70681 9.88919 8.4308 9.78565 8.34921 9.69362C8.53047 9.75212 8.68385 9.67446 8.69589 9.7714ZM8.74655 9.7879C8.85287 9.81209 8.83564 9.54745 8.73229 9.45651C8.7819 9.63314 8.66294 9.76232 8.74655 9.7879ZM8.63472 9.62702C8.74104 9.65121 8.68002 9.42336 8.60121 9.33239C8.61401 9.49851 8.56162 9.61371 8.63472 9.62702ZM8.57843 9.62627C8.58939 9.74759 8.37466 9.65444 8.29135 9.53969C8.4708 9.59822 8.56639 9.52934 8.57843 9.62627ZM8.51989 9.53402C8.58954 9.484 8.51565 9.35166 8.3831 9.35984C8.39609 9.43979 8.44187 9.58034 8.51989 9.53402ZM9.0434 10.0826C9.05041 10.2043 8.74468 10.1438 8.64865 10.0142C8.8415 10.0506 9.03446 9.98537 9.0434 10.0826ZM7.82901 9.86515C7.83997 9.98646 7.5062 9.85307 7.42285 9.73829C7.60234 9.79682 7.81696 9.76821 7.82901 9.86515ZM8.03353 9.9169C8.10319 9.86687 7.96099 9.73802 7.84774 9.70772C7.86072 9.78764 7.95552 9.96321 8.03353 9.9169ZM8.05492 10.0009C8.06239 10.1099 7.69703 10.0501 7.60144 9.94937C7.91581 10.0061 8.04464 9.90749 8.05492 10.0009Z" fill="white" stroke="#BD6B00" stroke-width="0.03"/>
<path fill-rule="evenodd" clip-rule="evenodd" d="M8.22622 10.0736C8.26675 10.1749 7.9161 10.1501 7.79297 10.0912C7.9919 10.0895 8.19834 10.003 8.22622 10.0736Z" fill="white" stroke="#BD6B00" stroke-width="0.03"/>
<path fill-rule="evenodd" clip-rule="evenodd" d="M8.39099 10.1475C8.42979 10.2383 8.10541 10.2364 7.94727 10.1861C8.15671 10.1845 8.3526 10.0577 8.39099 10.1475ZM8.62704 10.1963C8.68449 10.3037 8.34228 10.3141 8.23124 10.2613C8.42912 10.2341 8.57806 10.1117 8.62704 10.1963ZM8.22624 10.0125C8.11738 10.0811 8.12319 9.87887 8.03662 9.73877C8.17265 9.86259 8.30006 9.94712 8.22624 10.0125Z" fill="white" stroke="#BD6B00" stroke-width="0.03"/>
<path fill-rule="evenodd" clip-rule="evenodd" d="M8.4187 10.0853C8.3274 10.1661 8.25437 9.88855 8.17125 9.73281C8.3056 9.88109 8.50299 10.0182 8.4187 10.0853ZM8.67389 10.1625C8.59658 10.2521 8.37292 9.89935 8.2916 9.71556C8.41544 9.85863 8.7354 10.0866 8.67389 10.1625ZM8.45623 10.4318C8.41765 10.568 7.84859 10.3034 7.78505 10.1663C8.11068 10.3387 8.464 10.3027 8.45623 10.4318ZM6.62752 7.66428C6.6142 7.64703 6.57596 7.66473 6.58549 7.70628C6.59439 7.76257 6.67743 8.05143 6.82011 8.1508C6.92189 8.22408 7.45677 8.34213 7.69927 8.39227C7.83271 8.41908 7.94451 8.48564 8.03206 8.59177C7.99585 8.45294 7.96676 8.35008 7.91997 8.22427C7.87452 8.11375 7.75406 7.99278 7.62928 7.98629C7.39755 7.97796 7.09763 7.95824 6.87971 7.86374C6.76724 7.81679 6.69988 7.75338 6.62752 7.66424V7.66428Z" fill="white" stroke="#BD6B00" stroke-width="0.03"/>
<path fill-rule="evenodd" clip-rule="evenodd" d="M7.95552 8.80765C8.02859 8.86142 8.10923 8.66875 8.01643 8.4856C8.0135 8.66188 7.87326 8.7211 7.95552 8.80765Z" fill="white" stroke="#BD6B00" stroke-width="0.03"/>
<path fill-rule="evenodd" clip-rule="evenodd" d="M8.02584 8.98424C8.1269 9.01525 8.15854 8.8366 8.092 8.69373C8.10307 8.84721 7.93311 8.93973 8.02584 8.98424Z" fill="white" stroke="#BD6B00" stroke-width="0.03"/>
<path fill-rule="evenodd" clip-rule="evenodd" d="M8.10349 9.12606C8.20106 9.17462 8.23802 8.99413 8.16788 8.86011C8.17554 9.03111 8.02828 9.08151 8.10349 9.12606Z" fill="white" stroke="#BD6B00" stroke-width="0.03"/>
<path fill-rule="evenodd" clip-rule="evenodd" d="M8.06246 9.13697C8.02381 9.25247 7.79951 9.03741 7.76172 8.92041C7.90095 9.0586 8.09035 9.04333 8.06246 9.13697Z" fill="white" stroke="#BD6B00" stroke-width="0.03"/>
<path fill-rule="evenodd" clip-rule="evenodd" d="M7.9606 8.9603C7.91665 9.0758 7.6346 8.77843 7.57227 8.63525C7.71149 8.77344 7.99197 8.87893 7.9606 8.9603Z" fill="white" stroke="#BD6B00" stroke-width="0.03"/>
<path fill-rule="evenodd" clip-rule="evenodd" d="M7.90609 8.78698C7.86219 8.91823 7.55559 8.56839 7.46875 8.44442C7.61499 8.58088 7.93923 8.69162 7.90609 8.78698ZM7.89634 8.65723C8.0043 8.63623 7.89022 8.54642 7.75786 8.40039C7.75171 8.55414 7.77696 8.66162 7.89634 8.65723Z" fill="white" stroke="#BD6B00" stroke-width="0.03"/>
<path fill-rule="evenodd" clip-rule="evenodd" d="M7.7137 8.56989C7.76031 8.51915 7.66904 8.49755 7.55597 8.37076C7.53931 8.45626 7.66082 8.61279 7.7137 8.56989ZM8.23608 9.13989C8.29515 9.17442 8.3356 9.05349 8.26197 8.94395C8.24509 9.06245 8.18193 9.09534 8.23608 9.13989ZM6.95302 8.37676C6.8276 8.45191 6.62833 8.15206 6.5752 8.02869C6.68526 8.17029 6.9767 8.29959 6.95302 8.37676Z" fill="white" stroke="#BD6B00" stroke-width="0.03"/>
<path fill-rule="evenodd" clip-rule="evenodd" d="M7.0591 8.55151C6.98968 8.62838 6.77123 8.41955 6.69531 8.31372C6.8124 8.41505 7.0898 8.42708 7.0591 8.55151Z" fill="white" stroke="#BD6B00" stroke-width="0.03"/>
<path fill-rule="evenodd" clip-rule="evenodd" d="M7.17797 8.7083C7.15508 8.81334 6.83625 8.57724 6.76172 8.46545C6.89918 8.5949 7.19888 8.5832 7.17797 8.7083Z" fill="white" stroke="#BD6B00" stroke-width="0.03"/>
<path fill-rule="evenodd" clip-rule="evenodd" d="M7.12956 8.82188C7.0804 8.91645 6.82108 8.68211 6.75879 8.55986C6.91727 8.69805 7.16971 8.72835 7.12956 8.82188ZM6.99634 8.36138C7.07815 8.27516 7.04332 8.23478 6.98365 8.09888C6.95104 8.23841 6.90184 8.2941 6.99634 8.36138ZM7.10479 8.52413C7.25317 8.53065 7.10622 8.3502 7.07113 8.19863C7.08404 8.37139 7.03308 8.50755 7.10479 8.52413Z" fill="white" stroke="#BD6B00" stroke-width="0.03"/>
<path fill-rule="evenodd" clip-rule="evenodd" d="M7.19882 8.66737C7.30165 8.64412 7.272 8.49873 7.19319 8.32263C7.20955 8.51287 7.10609 8.62282 7.19882 8.66737ZM7.16392 8.95499C7.12527 9.07049 6.8327 8.80289 6.78613 8.70168C6.9341 8.82588 7.19004 8.86837 7.16392 8.95499Z" fill="white" stroke="#BD6B00" stroke-width="0.03"/>
<path fill-rule="evenodd" clip-rule="evenodd" d="M7.33979 9.13546C7.29589 9.25103 6.98929 9.0167 6.89551 8.88916C7.08022 9.03436 7.36246 9.0209 7.33979 9.13546Z" fill="white" stroke="#BD6B00" stroke-width="0.03"/>
<path fill-rule="evenodd" clip-rule="evenodd" d="M7.51804 9.31721C7.46888 9.47823 7.14828 9.22121 7.05273 9.09539C7.25673 9.25106 7.54419 9.20264 7.51804 9.31721ZM7.21669 8.90358C7.30376 8.94862 7.33896 8.70168 7.28983 8.52734C7.29047 8.71762 7.11518 8.85903 7.21669 8.90358Z" fill="white" stroke="#BD6B00" stroke-width="0.03"/>
<path fill-rule="evenodd" clip-rule="evenodd" d="M7.36627 9.09981C7.47089 9.13086 7.43772 8.86468 7.34833 8.69207C7.33673 8.86311 7.25954 9.02552 7.36627 9.09981ZM7.55203 9.28356C7.66889 9.29008 7.58847 9.05541 7.4921 8.92307C7.50849 9.09583 7.45408 9.26353 7.55203 9.28356ZM7.34713 9.38368C7.312 9.44316 7.22606 9.33317 7.08496 9.25284C7.21188 9.28603 7.36274 9.32856 7.34713 9.38368ZM7.28033 7.40593C7.38938 7.32531 7.30622 7.17444 7.28033 7.03101C7.24524 7.16706 7.15285 7.34559 7.28033 7.40593ZM7.27658 7.60693C7.11273 7.58728 7.13735 7.37552 7.13247 7.24131C7.18171 7.42348 7.31602 7.45427 7.27658 7.60693ZM7.30247 7.57956C7.4411 7.57153 7.43374 7.41392 7.44113 7.25451C7.37088 7.40102 7.28765 7.42378 7.30247 7.57956Z" fill="white" stroke="#BD6B00" stroke-width="0.03"/>
<path fill-rule="evenodd" clip-rule="evenodd" d="M7.29592 7.77519C7.18811 7.78382 7.13208 7.67792 7.10742 7.51296C7.20968 7.66498 7.30268 7.61758 7.29592 7.77519ZM7.33458 7.76207C7.4732 7.77988 7.45106 7.61863 7.44547 7.49976C7.40299 7.61308 7.29026 7.64878 7.33458 7.76207Z" fill="white" stroke="#BD6B00" stroke-width="0.03"/>
<path fill-rule="evenodd" clip-rule="evenodd" d="M7.11914 7.69385C7.13021 7.79911 7.19682 7.98012 7.304 7.93947C7.34832 7.81017 7.20969 7.78434 7.11914 7.69385Z" fill="white" stroke="#BD6B00" stroke-width="0.03"/>
<path fill-rule="evenodd" clip-rule="evenodd" d="M7.33586 7.95081C7.28782 7.85849 7.44487 7.81225 7.47816 7.69225C7.49726 7.864 7.48124 7.97665 7.33586 7.95081ZM6.88891 6.85656C6.97522 6.76368 6.899 6.61634 6.87314 6.4729C6.83802 6.60895 6.77719 6.78921 6.88891 6.85656ZM6.88628 7.02944C6.73471 7.04481 6.69804 6.73679 6.68262 6.6043C6.73189 6.78651 6.90647 6.8698 6.88628 7.02944ZM6.91743 7.02644C7.02453 6.97116 6.99965 6.85206 7.03331 6.76263C6.9613 6.87243 6.89562 6.88814 6.91743 7.02644Z" fill="white" stroke="#BD6B00" stroke-width="0.03"/>
<path fill-rule="evenodd" clip-rule="evenodd" d="M6.88785 7.22816C6.72929 7.24174 6.63484 6.90045 6.62988 6.76624C6.67916 6.94845 6.90631 7.04749 6.88785 7.22816ZM6.91824 7.22291C7.06734 7.18864 7.04951 7.0923 7.02715 6.93634C6.97968 7.09339 6.89644 7.06009 6.91824 7.22291Z" fill="white" stroke="#BD6B00" stroke-width="0.03"/>
<path fill-rule="evenodd" clip-rule="evenodd" d="M6.88552 7.42499C6.71116 7.45454 6.7234 7.17899 6.58496 6.979C6.70471 7.1275 6.9203 7.31463 6.88552 7.42499ZM6.92492 7.41562C7.05653 7.41944 7.0694 7.2214 7.06212 7.14112C7.03184 7.2211 6.87711 7.29708 6.92492 7.41562Z" fill="white" stroke="#BD6B00" stroke-width="0.03"/>
<path fill-rule="evenodd" clip-rule="evenodd" d="M6.61426 7.21277C6.67963 7.42479 6.77247 7.63727 6.88667 7.62114C6.94146 7.50058 6.77833 7.48524 6.61426 7.21277Z" fill="white" stroke="#BD6B00" stroke-width="0.03"/>
<path fill-rule="evenodd" clip-rule="evenodd" d="M6.9269 7.59011C6.87886 7.49778 7.03592 7.45154 7.0692 7.33154C7.0883 7.50329 7.07228 7.61594 6.9269 7.59011ZM6.6582 7.45511C6.75153 7.64613 6.79364 7.86566 6.9218 7.83374C6.96964 7.68521 6.78028 7.65412 6.6582 7.45511Z" fill="white" stroke="#BD6B00" stroke-width="0.03"/>
<path fill-rule="evenodd" clip-rule="evenodd" d="M6.94886 7.79732C6.89381 7.69626 7.0509 7.66052 7.0894 7.52125C7.11026 7.7035 7.09075 7.83362 6.94886 7.79732ZM7.21755 6.50432C7.30953 6.52918 7.40602 6.42595 7.37258 6.27152C7.26747 6.29766 7.21921 6.39302 7.21755 6.50432ZM6.92334 6.42707C6.93137 6.47053 6.98425 6.47447 6.9689 6.41308C6.95606 6.36328 6.95389 6.32582 6.9689 6.28532C6.98946 6.23458 6.9826 6.14815 6.96714 6.11207C6.95152 6.07401 6.89985 6.09632 6.92158 6.12613C6.94552 6.16063 6.9468 6.23252 6.93032 6.26608C6.90867 6.31558 6.91456 6.3814 6.92334 6.42707ZM7.78159 7.02407C7.74605 7.07631 7.67348 7.04436 7.72875 6.97262C7.77409 6.91453 7.83863 6.8671 7.8434 6.8071C7.84715 6.73101 7.89185 6.61558 7.93245 6.57666C7.97441 6.53518 8.02285 6.59353 7.97801 6.62121C7.92765 6.65391 7.89492 6.78831 7.89601 6.84006C7.89432 6.9151 7.81942 6.96932 7.78159 7.02407ZM7.66976 6.94007C7.63422 6.99231 7.57756 6.96201 7.60968 6.87812C7.63677 6.82003 7.6397 6.74807 7.66987 6.70562C7.71209 6.64123 7.78358 6.58761 7.82419 6.54865C7.86614 6.50717 7.90097 6.54715 7.8625 6.5827C7.81582 6.62938 7.76512 6.68751 7.73697 6.73157C7.68443 6.81707 7.70759 6.88532 7.6698 6.94007H7.66976ZM7.07908 6.6697C7.07488 6.74346 7.13424 6.76131 7.13162 6.65436C7.12892 6.54268 7.04985 6.44053 7.09837 6.27055C7.12389 6.18741 7.1243 6.03501 7.10888 5.95401C7.09525 5.87368 7.03806 5.92615 7.05979 5.9887C7.08373 6.06126 7.05529 6.20038 7.03701 6.27036C6.98211 6.47413 7.08231 6.57332 7.07908 6.6697ZM7.2412 6.2617C7.23249 6.32957 7.175 6.33572 7.1917 6.23987C7.20562 6.16206 7.20802 6.10356 7.1917 6.04033C7.16933 5.96106 7.1768 5.82606 7.19358 5.76973C7.21054 5.7103 7.26675 5.74513 7.24311 5.79163C7.21707 5.8456 7.21572 5.95783 7.23358 6.01026C7.25711 6.08762 7.25073 6.19033 7.2412 6.2617ZM6.65727 7.64995C6.68572 7.68377 6.73368 7.66112 6.68996 7.61533C6.65423 7.57832 6.66598 7.56666 6.64417 7.52158C6.62263 7.47122 6.62376 7.44343 6.59775 7.40743C6.57475 7.37331 6.54015 7.40815 6.56334 7.43687C6.59242 7.47085 6.58439 7.4959 6.60218 7.52875C6.63509 7.585 6.62706 7.61455 6.65727 7.64995ZM7.42283 8.57282C7.5144 8.61782 7.58386 8.73017 7.58844 8.82167C7.59621 8.92701 7.61141 9.01592 7.65873 9.09077C7.58337 9.06981 7.54727 8.94977 7.53658 8.83483C7.52569 8.71585 7.46156 8.66425 7.42283 8.57282ZM7.61347 8.79332C7.67681 8.91017 7.76542 8.95472 7.76996 9.04146C7.77761 9.14121 7.78519 9.14635 7.81225 9.24445C7.73768 9.22457 7.71892 9.21808 7.69877 9.0688C7.68638 8.96387 7.60232 8.88985 7.61347 8.79332Z" fill="white" stroke="#BD6B00" stroke-width="0.03"/>
<path fill-rule="evenodd" clip-rule="evenodd" d="M9.58513 9.87452C9.62075 9.94157 9.66161 10.0436 9.73573 10.025C9.73686 9.97363 9.65576 9.93808 9.58513 9.87452ZM9.69546 9.89739C9.83938 9.95634 9.96367 9.94179 9.97917 10.0322C9.84415 10.0468 9.79476 9.99133 9.69546 9.89739ZM9.09277 9.42152C9.18971 9.50087 9.2526 9.59143 9.28191 9.70851C9.3125 9.81756 9.35546 9.90448 9.41855 10.0025C9.3158 9.93249 9.25118 9.83724 9.2189 9.72249C9.19049 9.60965 9.15698 9.52536 9.09277 9.42152ZM9.21211 9.42114C9.31606 9.50402 9.41401 9.59811 9.44328 9.71514C9.47386 9.82419 9.49236 9.90767 9.56243 10.0162C9.45266 9.94614 9.40909 9.84036 9.37678 9.72561C9.34841 9.61284 9.28334 9.52854 9.21211 9.42114ZM9.55511 9.69264C9.55226 9.67217 9.56626 9.65428 9.58314 9.64892C9.61537 9.63708 9.64807 9.62657 9.68116 9.61742C9.71817 9.60868 9.73888 9.63504 9.73899 9.65241C9.73918 9.68128 9.7405 9.70577 9.73899 9.72763C9.73701 9.75486 9.73179 9.75688 9.71449 9.76093C9.68679 9.76558 9.65126 9.7703 9.62345 9.7889C9.60138 9.80244 9.58018 9.79176 9.56915 9.76794C9.56202 9.74976 9.55811 9.71421 9.55511 9.69264ZM9.95403 9.69264C9.95658 9.67217 9.94577 9.65252 9.93072 9.64715C9.90141 9.63489 9.87218 9.63189 9.84141 9.63313C9.80718 9.63261 9.79859 9.64033 9.79848 9.65765C9.79833 9.68653 9.79709 9.7145 9.79848 9.73637C9.80028 9.76359 9.79968 9.76562 9.81514 9.76967C9.83991 9.77432 9.88209 9.77556 9.90697 9.79416C9.92667 9.80766 9.94915 9.79697 9.95024 9.77143C9.94975 9.75219 9.9514 9.71421 9.95403 9.69264Z" fill="white"/>
<path fill-rule="evenodd" clip-rule="evenodd" d="M11.6011 6.99486C11.6474 6.92054 11.7029 7.09795 11.8934 7.22999C11.982 7.29032 12.0438 7.45101 12.0444 7.55672C12.0473 7.62936 12.0363 7.70177 12.0444 7.77201C12.0495 7.81649 12.0959 7.91511 12.0642 7.94035C11.9803 8.0026 11.8718 8.14397 11.8215 8.19276C11.778 8.2309 11.7402 7.99596 11.7076 7.89085C11.6725 7.77816 11.6882 7.6435 11.5912 7.5394C11.5223 7.46909 11.3487 7.3999 11.3682 7.36862L11.6011 6.99486Z" fill="white" stroke="#BD6B00" stroke-width="0.03"/>
<path fill-rule="evenodd" clip-rule="evenodd" d="M11.6111 7.57049C11.6267 7.53508 11.6477 7.50228 11.6733 7.47322C11.6995 7.44352 11.7305 7.41858 11.7648 7.40643C11.7978 7.39424 11.8315 7.37827 11.8551 7.34902C11.8681 7.33293 11.8773 7.3141 11.882 7.29393C11.8867 7.27353 11.8867 7.24856 11.8832 7.22009C11.8873 7.22309 11.8895 7.22654 11.8937 7.22947C11.9824 7.28977 12.0445 7.45072 12.045 7.55643C12.0462 7.58533 12.0462 7.61427 12.045 7.64317C12.0384 7.66136 12.0321 7.67898 12.0228 7.69004C12.0105 7.70441 11.996 7.71389 11.9805 7.72049C11.9496 7.73369 11.9139 7.73643 11.8808 7.74862C11.8466 7.76077 11.8114 7.78829 11.7812 7.82129C11.7543 7.85097 11.7322 7.88456 11.7155 7.92089C11.713 7.91178 11.7097 7.89824 11.7073 7.89041C11.6756 7.78837 11.6811 7.66957 11.6111 7.57049Z" fill="#BF0000" stroke="#BD6B00" stroke-width="0.03"/>
<path d="M11.8821 7.2146C11.9003 7.34045 11.8302 7.38234 11.764 7.40671C11.6955 7.43101 11.6393 7.50444 11.6104 7.57089M12.0518 7.62897C12.0229 7.73746 11.9468 7.72389 11.8806 7.74826C11.8121 7.7726 11.7401 7.85915 11.7111 7.9256" stroke="#BD6B00" stroke-width="0.03"/>
<path fill-rule="evenodd" clip-rule="evenodd" d="M11.666 6.91803L11.6313 6.89575L10.9651 8.01693L10.9998 8.0392L11.666 6.91803Z" fill="white" stroke="#BD6B00" stroke-width="0.03"/>
<path fill-rule="evenodd" clip-rule="evenodd" d="M11.5945 6.87334C11.5945 6.89369 11.6026 6.91321 11.617 6.9276C11.6314 6.94199 11.6509 6.95007 11.6713 6.95007C11.6916 6.95007 11.7112 6.94199 11.7256 6.9276C11.74 6.91321 11.748 6.89369 11.748 6.87334C11.748 6.85299 11.74 6.83348 11.7256 6.81909C11.7112 6.8047 11.6916 6.79662 11.6713 6.79662C11.6509 6.79662 11.6314 6.8047 11.617 6.81909C11.6026 6.83348 11.5945 6.85299 11.5945 6.87334ZM11.0248 5.97259H10.7548V6.03447H11.0248V5.97259ZM11.0248 6.08997H10.7548V6.60687H11.0248V6.08997ZM11.0413 5.90209L10.7419 5.90386C10.7302 5.80238 10.8316 5.69273 10.8907 5.69386C10.9492 5.69671 11.0437 5.80471 11.0413 5.90209Z" fill="white" stroke="#BD6B00" stroke-width="0.03"/>
<path fill-rule="evenodd" clip-rule="evenodd" d="M10.2768 5.84106C10.3339 5.86506 10.3777 5.93019 10.4046 6.00512C10.4316 6.08004 10.4418 6.16513 10.4292 6.23364V6.23481C10.4245 6.25843 10.418 6.27542 10.4105 6.28753C10.403 6.29968 10.3946 6.30681 10.3847 6.30864C10.3747 6.31048 10.3654 6.30516 10.3601 6.29691C10.3547 6.28866 10.3521 6.27782 10.353 6.26526C10.3584 6.19483 10.3581 6.12531 10.3413 6.06253C10.3245 5.99976 10.2911 5.94388 10.2298 5.89847C10.2188 5.89037 10.2125 5.88111 10.2111 5.87151C10.2098 5.86194 10.2148 5.85373 10.2217 5.84807C10.2353 5.83678 10.2569 5.83281 10.2768 5.84106ZM10.2709 5.85748C10.257 5.85171 10.2393 5.85508 10.2322 5.86097C10.2287 5.86393 10.2283 5.86596 10.2287 5.86918C10.2292 5.87241 10.2316 5.87796 10.2404 5.88441C10.3047 5.93211 10.3401 5.99211 10.3577 6.05784C10.3753 6.12362 10.3749 6.19509 10.3694 6.26646C10.3687 6.2738 10.3704 6.28118 10.3741 6.28753C10.3768 6.29158 10.3781 6.29278 10.3811 6.29222C10.3842 6.29166 10.3905 6.28783 10.3964 6.27816C10.4023 6.26852 10.4083 6.25356 10.4128 6.23128C10.4246 6.16701 10.4142 6.08327 10.3882 6.01097C10.3622 5.93871 10.3205 5.87833 10.2709 5.85748Z" fill="#BD6B00"/>
<path fill-rule="evenodd" clip-rule="evenodd" d="M10.1808 5.91492C10.2378 5.93889 10.2746 6.00087 10.2945 6.07197C10.3144 6.14304 10.3176 6.22441 10.3051 6.29225C10.2953 6.3404 10.27 6.36582 10.2453 6.36961C10.2329 6.37149 10.221 6.36661 10.2136 6.35671C10.2063 6.34681 10.2039 6.3335 10.2078 6.31689C10.2217 6.26071 10.2271 6.19066 10.2172 6.12703C10.2072 6.06343 10.1819 6.00661 10.1338 5.97234C10.1228 5.96428 10.1165 5.95498 10.1151 5.94538C10.1138 5.93581 10.1188 5.92644 10.1257 5.92078C10.1393 5.90945 10.1608 5.90667 10.1808 5.91492ZM10.1737 5.93135C10.1599 5.92557 10.1433 5.92895 10.1362 5.93484C10.1327 5.9378 10.1311 5.93986 10.1315 5.94305C10.132 5.94624 10.1356 5.95186 10.1444 5.95828C10.1974 5.99611 10.2243 6.05818 10.2347 6.1247C10.2452 6.19119 10.2387 6.2621 10.2242 6.32038C10.2211 6.33365 10.2242 6.34257 10.2277 6.34737C10.2312 6.35214 10.2357 6.35431 10.2429 6.35319C10.2573 6.35098 10.2798 6.33241 10.2887 6.28876C10.3006 6.22381 10.2972 6.14371 10.2781 6.07546C10.259 6.00721 10.2235 5.9522 10.1738 5.93131L10.1737 5.93135Z" fill="#BD6B00"/>
<path fill-rule="evenodd" clip-rule="evenodd" d="M11.0392 7.0271H10.738V7.44361H11.0392V7.0271ZM11.0216 7.68185H10.7309V7.76934H11.0216V7.68185ZM11.0287 7.8356H10.731V8.1611H11.0287V7.8356ZM11.0497 8.22785H10.724V8.40984H11.0497V8.22785ZM11.0096 7.60347H10.7471L10.695 7.51685H11.0566L11.0096 7.60347ZM10.6557 7.28435L10.6532 7.05669H10.4724C10.5435 7.11522 10.6095 7.18621 10.6557 7.28435Z" fill="white" stroke="#BD6B00" stroke-width="0.03"/>
<path fill-rule="evenodd" clip-rule="evenodd" d="M10.9912 7.37774C10.9894 7.42645 10.9342 7.40474 10.9342 7.38021C10.9342 7.30506 10.9332 7.22384 10.9362 7.17066C10.9366 7.13147 10.8428 7.1413 10.8433 7.16541C10.8429 7.22886 10.8422 7.31586 10.8419 7.39011C10.8426 7.42626 10.7813 7.42311 10.7821 7.39011C10.7825 7.30716 10.7825 7.18667 10.7821 7.12566C10.7816 7.04706 10.9886 7.04879 10.9902 7.1239C10.9901 7.18559 10.9913 7.29602 10.9912 7.37774ZM10.9908 7.87424H10.7771V8.14026H10.9908V7.87424Z" stroke="#BD6B00" stroke-width="0.03"/>
<path fill-rule="evenodd" clip-rule="evenodd" d="M10.855 7.9845H10.7797V8.02826H10.855V7.9845ZM10.9863 7.9845H10.9128V8.02826H10.9863V7.9845Z" fill="white" stroke="#BD6B00" stroke-width="0.03"/>
<path fill-rule="evenodd" clip-rule="evenodd" d="M10.913 7.87765H10.8552V7.98614H10.913V7.87765ZM10.913 8.02652H10.8552V8.14202H10.913V8.02652ZM12.1018 5.2114C12.0885 5.42016 12.1533 5.53476 12.2639 5.51732C12.2944 5.40152 12.2251 5.32382 12.1018 5.2114ZM12.3446 5.67415C12.443 5.62416 12.372 5.24241 12.3343 5.0824C12.3064 5.28853 12.2596 5.58148 12.3446 5.67415Z" fill="white" stroke="#BD6B00" stroke-width="0.03"/>
<path fill-rule="evenodd" clip-rule="evenodd" d="M12.3098 5.69207C12.1445 5.74955 12.0136 5.57162 11.9694 5.36552C12.1058 5.55373 12.3279 5.55395 12.3098 5.69207ZM12.4352 5.88482C12.5645 5.85069 12.4866 5.44569 12.4631 5.28369C12.4347 5.45102 12.3456 5.82939 12.4352 5.88482ZM12.3909 5.87207C12.3837 5.73238 12.2444 5.77277 12.1482 5.69822C12.1639 5.76797 12.223 5.89172 12.3909 5.87207ZM12.5493 6.05919C12.6774 6.02465 12.6004 5.58879 12.6076 5.40935C12.5701 5.56442 12.4511 6.01719 12.5493 6.05919ZM12.4896 6.04044C12.3846 6.07457 12.2456 6.00639 12.2347 5.88148C12.3251 5.94279 12.4694 5.89592 12.4896 6.04044Z" fill="white" stroke="#BD6B00" stroke-width="0.03"/>
<path fill-rule="evenodd" clip-rule="evenodd" d="M12.6457 6.25157C12.7682 6.26132 12.7134 5.89015 12.7133 5.54443C12.6683 5.86757 12.5457 6.16337 12.6457 6.25157Z" fill="white" stroke="#BD6B00" stroke-width="0.03"/>
<path fill-rule="evenodd" clip-rule="evenodd" d="M12.6016 6.23478C12.5188 6.27626 12.3705 6.20996 12.3282 6.07027C12.4777 6.13526 12.5777 6.07177 12.6016 6.23478ZM11.6397 5.40491C11.6615 5.58599 11.7356 5.69133 11.8462 5.67393C11.8767 5.55813 11.787 5.48411 11.6397 5.40491ZM11.9324 5.86953C11.7486 5.89559 11.6824 5.75463 11.5587 5.57441C11.7321 5.69981 11.9394 5.72587 11.9324 5.86953Z" fill="white" stroke="#BD6B00" stroke-width="0.03"/>
<path fill-rule="evenodd" clip-rule="evenodd" d="M11.9855 5.84886C12.0857 5.72871 11.9889 5.57781 11.9124 5.44922C11.9288 5.64054 11.8636 5.74697 11.9855 5.84886ZM12.0298 6.04723C12.0411 5.92971 11.8408 5.90361 11.7502 5.83828C11.7806 5.90619 11.8268 6.08904 12.0298 6.04723Z" fill="white" stroke="#BD6B00" stroke-width="0.03"/>
<path fill-rule="evenodd" clip-rule="evenodd" d="M12.0711 6.04983C12.2096 6.03416 12.1521 5.79911 12.0528 5.66846C12.0946 5.84872 11.9796 5.97408 12.0711 6.04983Z" fill="white" stroke="#BD6B00" stroke-width="0.03"/>
<path fill-rule="evenodd" clip-rule="evenodd" d="M12.1755 6.24562C12.3332 6.17594 12.2321 5.97836 12.1729 5.86169C12.1981 6.01492 12.0718 6.13154 12.1755 6.24562Z" fill="white" stroke="#BD6B00" stroke-width="0.03"/>
<path fill-rule="evenodd" clip-rule="evenodd" d="M12.1446 6.22727C12.0619 6.33523 11.9007 6.19506 11.8676 6.03137C12.0078 6.14807 12.1115 6.12887 12.1446 6.22727ZM12.5049 6.98702C12.5211 6.82626 12.4001 6.53387 12.486 6.37802C12.4977 6.35661 12.4603 6.29976 12.4361 6.33426C12.3983 6.38931 12.3595 6.54621 12.3433 6.48827C12.326 6.42527 12.3234 6.3139 12.2676 6.29222C12.232 6.27955 12.1816 6.27126 12.1954 6.32725C12.209 6.3811 12.2395 6.4555 12.2057 6.46026C12.1861 6.46318 12.1295 6.38698 12.0818 6.35177C12.0435 6.32035 11.9862 6.36951 12.0423 6.4165C12.2247 6.56788 12.4015 6.63602 12.5049 6.98702ZM12.8325 9.4069C12.8539 9.40277 12.8832 9.39553 12.8565 9.4288C12.6434 9.69115 12.5818 9.76345 12.271 9.72655C11.9571 9.68522 11.8823 9.6004 11.6626 9.47717C11.5451 9.40832 11.3735 9.39306 11.2434 9.4357C11.1828 9.4555 11.1462 9.4567 11.1896 9.41323C11.233 9.36985 11.2843 9.31086 11.3378 9.27017C11.4548 9.1804 11.6532 9.14147 11.8152 9.17035C12.0443 9.20627 12.2336 9.35203 12.4598 9.40708C12.5786 9.4342 12.709 9.43011 12.8325 9.4069H12.8325ZM11.0391 9.87565C10.9994 9.88056 10.9743 9.95728 10.9548 9.90535C10.9218 9.82127 10.9449 9.75437 10.9821 9.76176C11.026 9.77346 11.1002 9.87178 11.0391 9.87565Z" fill="white" stroke="#BD6B00" stroke-width="0.03"/>
<path fill-rule="evenodd" clip-rule="evenodd" d="M12.9791 6.85957C13.0247 6.81199 13.0115 6.7938 12.944 6.79305C12.8906 6.78967 12.7846 6.82579 12.7444 6.79654C12.7075 6.7698 12.7222 6.65636 12.7058 6.60405C12.6987 6.57487 12.6782 6.52909 12.6323 6.60056C12.4963 6.81821 12.3266 7.07955 12.254 7.33556C12.2143 7.47904 12.2517 7.70306 12.3836 7.85359C12.379 7.72522 12.4268 7.6389 12.4852 7.53157C12.5573 7.3905 12.8251 7.00841 12.9791 6.85957Z" fill="white"/>
<path fill-rule="evenodd" clip-rule="evenodd" d="M12.4196 8.00402C12.2701 8.00477 12.2444 7.80452 12.2444 7.74854C12.318 7.76252 12.4476 7.88504 12.4196 8.00402ZM11.1279 9.94727C11.0216 9.97146 11.023 9.7156 11.1316 9.60715C11.0838 9.77147 11.2115 9.9217 11.1279 9.94727ZM11.1692 9.94502C11.1621 10.0666 11.4678 9.92912 11.5464 9.83455C11.3658 9.9112 11.1781 9.84775 11.1692 9.94502ZM11.3031 9.7714C11.2922 9.88919 11.5682 9.78565 11.6498 9.69362C11.4686 9.75212 11.3152 9.67446 11.3031 9.7714ZM11.2525 9.7879C11.1462 9.81209 11.1634 9.54745 11.2667 9.45651C11.2171 9.63314 11.3361 9.76232 11.2525 9.7879ZM11.3643 9.62702C11.258 9.65121 11.319 9.42336 11.3978 9.33239C11.385 9.49851 11.4374 9.61371 11.3643 9.62702ZM11.4206 9.62627C11.4096 9.74759 11.6244 9.65444 11.7077 9.53969C11.5282 9.59822 11.4326 9.52934 11.4206 9.62627ZM11.4791 9.53402C11.4095 9.484 11.4834 9.35166 11.6159 9.35984C11.6029 9.43979 11.5572 9.58034 11.4791 9.53402ZM10.9556 10.0826C10.9486 10.2043 11.2543 10.1438 11.3504 10.0142C11.1575 10.0506 10.9646 9.98537 10.9556 10.0826ZM12.17 9.86515C12.1591 9.98646 12.4928 9.85307 12.5762 9.73829C12.3967 9.79682 12.1821 9.76821 12.17 9.86515ZM11.9655 9.9169C11.8958 9.86687 12.038 9.73802 12.1513 9.70772C12.1383 9.78764 12.0435 9.96321 11.9655 9.9169ZM11.9441 10.0009C11.9366 10.1099 12.302 10.0501 12.3976 9.94937C12.0832 10.0061 11.9544 9.90749 11.9441 10.0009Z" fill="white" stroke="#BD6B00" stroke-width="0.03"/>
<path fill-rule="evenodd" clip-rule="evenodd" d="M11.7728 10.0736C11.7323 10.1749 12.0829 10.1501 12.2061 10.0912C12.0071 10.0895 11.8007 10.003 11.7728 10.0736Z" fill="white" stroke="#BD6B00" stroke-width="0.03"/>
<path fill-rule="evenodd" clip-rule="evenodd" d="M11.608 10.1475C11.5692 10.2383 11.8936 10.2364 12.0518 10.1861C11.8423 10.1845 11.6464 10.0577 11.608 10.1475ZM11.372 10.1963C11.3145 10.3037 11.6567 10.3141 11.7678 10.2613C11.5699 10.2341 11.421 10.1117 11.372 10.1963ZM11.7728 10.0125C11.8816 10.0811 11.8758 9.87887 11.9624 9.73877C11.8264 9.86259 11.699 9.94712 11.7728 10.0125Z" fill="white" stroke="#BD6B00" stroke-width="0.03"/>
<path fill-rule="evenodd" clip-rule="evenodd" d="M11.5803 10.0853C11.6716 10.1661 11.7447 9.88855 11.8278 9.73281C11.6934 9.88109 11.496 10.0182 11.5803 10.0853ZM11.3251 10.1625C11.4024 10.2521 11.6261 9.89935 11.7074 9.71556C11.5836 9.85863 11.2636 10.0866 11.3251 10.1625ZM11.5428 10.4318C11.5814 10.568 12.1504 10.3034 12.214 10.1663C11.8883 10.3387 11.535 10.3027 11.5428 10.4318ZM13.3715 7.66428C13.3848 7.64703 13.4231 7.66473 13.4135 7.70628C13.4046 7.76257 13.3216 8.05143 13.1789 8.1508C13.0771 8.22408 12.5423 8.34213 12.2998 8.39227C12.1663 8.41908 12.0545 8.48564 11.967 8.59177C12.0032 8.45294 12.0323 8.35008 12.0791 8.22427C12.1245 8.11375 12.245 7.99278 12.3697 7.98629C12.6015 7.97796 12.9014 7.95824 13.1193 7.86374C13.2318 7.81679 13.2991 7.75338 13.3715 7.66424V7.66428Z" fill="white" stroke="#BD6B00" stroke-width="0.03"/>
<path fill-rule="evenodd" clip-rule="evenodd" d="M12.0435 8.80765C11.9704 8.86142 11.8898 8.66875 11.9826 8.4856C11.9855 8.66188 12.1258 8.7211 12.0435 8.80765Z" fill="white" stroke="#BD6B00" stroke-width="0.03"/>
<path fill-rule="evenodd" clip-rule="evenodd" d="M11.9732 8.98424C11.8721 9.01525 11.8405 8.8366 11.907 8.69373C11.896 8.84721 12.0659 8.93973 11.9732 8.98424Z" fill="white" stroke="#BD6B00" stroke-width="0.03"/>
<path fill-rule="evenodd" clip-rule="evenodd" d="M11.8965 9.12606C11.7989 9.17462 11.762 8.99413 11.8321 8.86011C11.8245 9.03111 11.9717 9.08151 11.8965 9.12606Z" fill="white" stroke="#BD6B00" stroke-width="0.03"/>
<path fill-rule="evenodd" clip-rule="evenodd" d="M11.9366 9.13697C11.9752 9.25247 12.1995 9.03741 12.2373 8.92041C12.0981 9.0586 11.9087 9.04333 11.9366 9.13697Z" fill="white" stroke="#BD6B00" stroke-width="0.03"/>
<path fill-rule="evenodd" clip-rule="evenodd" d="M12.0384 8.9603C12.0824 9.0758 12.3644 8.77843 12.4268 8.63525C12.2875 8.77344 12.0071 8.87893 12.0384 8.9603Z" fill="white" stroke="#BD6B00" stroke-width="0.03"/>
<path fill-rule="evenodd" clip-rule="evenodd" d="M12.0939 8.78698C12.1378 8.91823 12.4444 8.56839 12.5312 8.44442C12.385 8.58088 12.0608 8.69162 12.0939 8.78698ZM12.1037 8.65723C11.9957 8.63623 12.1098 8.54642 12.2421 8.40039C12.2483 8.55414 12.223 8.66162 12.1037 8.65723Z" fill="white" stroke="#BD6B00" stroke-width="0.03"/>
<path fill-rule="evenodd" clip-rule="evenodd" d="M12.2853 8.56989C12.2387 8.51915 12.33 8.49755 12.4431 8.37076C12.4597 8.45626 12.3382 8.61279 12.2853 8.56989ZM11.7629 9.13989C11.7039 9.17442 11.6634 9.05349 11.737 8.94395C11.7539 9.06245 11.8171 9.09534 11.7629 9.13989ZM13.046 8.37676C13.1714 8.45191 13.3707 8.15206 13.4238 8.02869C13.3138 8.17029 13.0223 8.29959 13.046 8.37676Z" fill="white" stroke="#BD6B00" stroke-width="0.03"/>
<path fill-rule="evenodd" clip-rule="evenodd" d="M12.9409 8.55151C13.0103 8.62838 13.2288 8.41955 13.3047 8.31372C13.1876 8.41505 12.9102 8.42708 12.9409 8.55151Z" fill="white" stroke="#BD6B00" stroke-width="0.03"/>
<path fill-rule="evenodd" clip-rule="evenodd" d="M12.8211 8.7083C12.8439 8.81334 13.1628 8.57724 13.2373 8.46545C13.0998 8.5949 12.8001 8.5832 12.8211 8.7083Z" fill="white" stroke="#BD6B00" stroke-width="0.03"/>
<path fill-rule="evenodd" clip-rule="evenodd" d="M12.8704 8.82188C12.9196 8.91645 13.1789 8.68211 13.2412 8.55986C13.0827 8.69805 12.8303 8.72835 12.8704 8.82188ZM13.0037 8.36138C12.9219 8.27516 12.9567 8.23478 13.0163 8.09888C13.049 8.23841 13.0982 8.2941 13.0037 8.36138ZM12.8952 8.52413C12.7468 8.53065 12.8938 8.3502 12.9289 8.19863C12.916 8.37139 12.9669 8.50755 12.8952 8.52413Z" fill="white" stroke="#BD6B00" stroke-width="0.03"/>
<path fill-rule="evenodd" clip-rule="evenodd" d="M12.8002 8.66737C12.6974 8.64412 12.727 8.49873 12.8058 8.32263C12.7895 8.51287 12.8929 8.62282 12.8002 8.66737ZM12.8351 8.95499C12.8738 9.07049 13.1663 8.80289 13.2129 8.70168C13.0649 8.82588 12.809 8.86837 12.8351 8.95499Z" fill="white" stroke="#BD6B00" stroke-width="0.03"/>
<path fill-rule="evenodd" clip-rule="evenodd" d="M12.6592 9.13546C12.7031 9.25103 13.0097 9.0167 13.1035 8.88916C12.9188 9.03436 12.6366 9.0209 12.6592 9.13546Z" fill="white" stroke="#BD6B00" stroke-width="0.03"/>
<path fill-rule="evenodd" clip-rule="evenodd" d="M12.481 9.31721C12.5301 9.47823 12.8507 9.22121 12.9463 9.09539C12.7423 9.25106 12.4548 9.20264 12.481 9.31721ZM12.7823 8.90358C12.6953 8.94862 12.6601 8.70168 12.7092 8.52734C12.7086 8.71762 12.8838 8.85903 12.7823 8.90358Z" fill="white" stroke="#BD6B00" stroke-width="0.03"/>
<path fill-rule="evenodd" clip-rule="evenodd" d="M12.6337 9.09981C12.5291 9.13086 12.5623 8.86468 12.6517 8.69207C12.6633 8.86311 12.7405 9.02552 12.6337 9.09981ZM12.448 9.28356C12.3311 9.29008 12.4115 9.05541 12.5079 8.92307C12.4915 9.09583 12.5459 9.26353 12.448 9.28356ZM12.6529 9.38368C12.688 9.44316 12.7739 9.33317 12.915 9.25284C12.7881 9.28603 12.6373 9.32856 12.6529 9.38368ZM12.7197 7.40593C12.6106 7.32531 12.6938 7.17444 12.7197 7.03101C12.7548 7.16706 12.8472 7.34559 12.7197 7.40593ZM12.7234 7.60693C12.8873 7.58728 12.8627 7.37552 12.8675 7.24131C12.8183 7.42348 12.684 7.45427 12.7234 7.60693ZM12.6975 7.57956C12.5589 7.57153 12.5663 7.41392 12.5589 7.25451C12.6291 7.40102 12.7124 7.42378 12.6975 7.57956Z" fill="white" stroke="#BD6B00" stroke-width="0.03"/>
<path fill-rule="evenodd" clip-rule="evenodd" d="M12.7031 7.77519C12.8109 7.78382 12.8669 7.67792 12.8916 7.51296C12.7893 7.66498 12.6963 7.61758 12.7031 7.77519ZM12.6644 7.76207C12.5258 7.77988 12.548 7.61863 12.5536 7.49976C12.596 7.61308 12.7088 7.64878 12.6644 7.76207Z" fill="white" stroke="#BD6B00" stroke-width="0.03"/>
<path fill-rule="evenodd" clip-rule="evenodd" d="M12.8809 7.69385C12.8698 7.79911 12.8032 7.98012 12.696 7.93947C12.6517 7.81017 12.7903 7.78434 12.8809 7.69385Z" fill="white" stroke="#BD6B00" stroke-width="0.03"/>
<path fill-rule="evenodd" clip-rule="evenodd" d="M12.6632 7.95081C12.7112 7.85849 12.5542 7.81225 12.5209 7.69225C12.5018 7.864 12.5178 7.97665 12.6632 7.95081ZM13.1101 6.85656C13.0238 6.76368 13.1 6.61634 13.1259 6.4729C13.161 6.60895 13.2218 6.78921 13.1101 6.85656ZM13.1127 7.02944C13.2643 7.04481 13.301 6.73679 13.3164 6.6043C13.2671 6.78651 13.0926 6.8698 13.1127 7.02944ZM13.0816 7.02644C12.9745 6.97116 12.9994 6.85206 12.9657 6.76263C13.0377 6.87243 13.1034 6.88814 13.0816 7.02644Z" fill="white" stroke="#BD6B00" stroke-width="0.03"/>
<path fill-rule="evenodd" clip-rule="evenodd" d="M13.1112 7.22816C13.2697 7.24174 13.3642 6.90045 13.3691 6.76624C13.3199 6.94845 13.0927 7.04749 13.1112 7.22816ZM13.0808 7.22291C12.9317 7.18864 12.9495 7.0923 12.9719 6.93634C13.0193 7.09339 13.1026 7.06009 13.0808 7.22291Z" fill="white" stroke="#BD6B00" stroke-width="0.03"/>
<path fill-rule="evenodd" clip-rule="evenodd" d="M13.1135 7.42499C13.2879 7.45454 13.2756 7.17899 13.4141 6.979C13.2943 7.1275 13.0787 7.31463 13.1135 7.42499ZM13.0741 7.41562C12.9425 7.41944 12.9296 7.2214 12.9369 7.14112C12.9672 7.2211 13.1219 7.29708 13.0741 7.41562Z" fill="white" stroke="#BD6B00" stroke-width="0.03"/>
<path fill-rule="evenodd" clip-rule="evenodd" d="M13.3848 7.21277C13.3194 7.42479 13.2266 7.63727 13.1124 7.62114C13.0576 7.50058 13.2207 7.48524 13.3848 7.21277Z" fill="white" stroke="#BD6B00" stroke-width="0.03"/>
<path fill-rule="evenodd" clip-rule="evenodd" d="M13.0721 7.59011C13.1202 7.49778 12.9631 7.45154 12.9298 7.33154C12.9107 7.50329 12.9267 7.61594 13.0721 7.59011ZM13.3408 7.45511C13.2475 7.64613 13.2054 7.86566 13.0772 7.83374C13.0294 7.68521 13.2187 7.65412 13.3408 7.45511Z" fill="white" stroke="#BD6B00" stroke-width="0.03"/>
<path fill-rule="evenodd" clip-rule="evenodd" d="M13.0502 7.79732C13.1052 7.69626 12.9481 7.66052 12.9096 7.52125C12.8888 7.7035 12.9083 7.83362 13.0502 7.79732ZM12.7815 6.50432C12.6895 6.52918 12.593 6.42595 12.6264 6.27152C12.7316 6.29766 12.7798 6.39302 12.7815 6.50432ZM13.0757 6.42707C13.0677 6.47053 13.0148 6.47447 13.0301 6.41308C13.043 6.36328 13.0451 6.32582 13.0301 6.28532C13.0096 6.23458 13.0164 6.14815 13.0319 6.11207C13.0475 6.07401 13.0992 6.09632 13.0774 6.12613C13.0535 6.16063 13.0522 6.23252 13.0687 6.26608C13.0904 6.31558 13.0845 6.3814 13.0757 6.42707ZM12.2174 7.02407C12.253 7.07631 12.3255 7.04436 12.2703 6.97262C12.2249 6.91453 12.1604 6.8671 12.1556 6.8071C12.1519 6.73101 12.1072 6.61558 12.0666 6.57666C12.0246 6.53518 11.9762 6.59353 12.021 6.62121C12.0714 6.65391 12.1041 6.78831 12.103 6.84006C12.1047 6.9151 12.1796 6.96932 12.2174 7.02407ZM12.3293 6.94007C12.3648 6.99231 12.4215 6.96201 12.3893 6.87812C12.3623 6.82003 12.3593 6.74807 12.3292 6.70562C12.2869 6.64123 12.2154 6.58761 12.1748 6.54865C12.1329 6.50717 12.0981 6.54715 12.1365 6.5827C12.1832 6.62938 12.2339 6.68751 12.2621 6.73157C12.3146 6.81707 12.2914 6.88532 12.3292 6.94007H12.3293ZM12.9199 6.6697C12.9241 6.74346 12.8648 6.76131 12.8674 6.65436C12.8701 6.54268 12.9492 6.44053 12.9007 6.27055C12.8751 6.18741 12.8747 6.03501 12.8901 5.95401C12.9038 5.87368 12.961 5.92615 12.9392 5.9887C12.9153 6.06126 12.9437 6.20038 12.962 6.27036C13.0169 6.47413 12.9167 6.57332 12.9199 6.6697ZM12.7578 6.2617C12.7665 6.32957 12.824 6.33572 12.8073 6.23987C12.7934 6.16206 12.791 6.10356 12.8073 6.04033C12.8297 5.96106 12.8222 5.82606 12.8054 5.76973C12.7885 5.7103 12.7323 5.74513 12.7559 5.79163C12.782 5.8456 12.7833 5.95783 12.7654 6.01026C12.7419 6.08762 12.7483 6.19033 12.7578 6.2617ZM13.3418 7.64995C13.3133 7.68377 13.2653 7.66112 13.3091 7.61533C13.3448 7.57832 13.333 7.56666 13.3548 7.52158C13.3764 7.47122 13.3753 7.44343 13.4013 7.40743C13.4243 7.37331 13.4589 7.40815 13.4357 7.43687C13.4066 7.47085 13.4146 7.4959 13.3968 7.52875C13.3639 7.585 13.372 7.61455 13.3418 7.64995ZM12.5762 8.57282C12.4846 8.61782 12.4152 8.73017 12.4106 8.82167C12.4028 8.92701 12.3876 9.01592 12.3403 9.09077C12.4157 9.06981 12.4518 8.94977 12.4624 8.83483C12.4733 8.71585 12.5375 8.66425 12.5762 8.57282ZM12.3856 8.79332C12.3222 8.91017 12.2336 8.95472 12.2291 9.04146C12.2214 9.14121 12.2138 9.14635 12.1868 9.24445C12.2613 9.22457 12.2801 9.21808 12.3003 9.0688C12.3126 8.96387 12.3967 8.88985 12.3856 8.79332Z" fill="white" stroke="#BD6B00" stroke-width="0.03"/>
<path fill-rule="evenodd" clip-rule="evenodd" d="M10.4139 9.87452C10.3783 9.94157 10.3374 10.0436 10.2633 10.025C10.2622 9.97363 10.3433 9.93808 10.4139 9.87452ZM10.3036 9.89739C10.1596 9.95634 10.0354 9.94179 10.0199 10.0322C10.1549 10.0468 10.2043 9.99133 10.3036 9.89739ZM10.9062 9.42152C10.8093 9.50087 10.7464 9.59143 10.7171 9.70851C10.6865 9.81756 10.6436 9.90448 10.5805 10.0025C10.6832 9.93249 10.7478 9.83724 10.7801 9.72249C10.8085 9.60965 10.842 9.52536 10.9062 9.42152ZM10.7869 9.42114C10.683 9.50402 10.585 9.59811 10.5557 9.71514C10.5252 9.82419 10.5067 9.90767 10.4366 10.0162C10.5464 9.94614 10.5899 9.84036 10.6222 9.72561C10.6506 9.61284 10.7157 9.52854 10.7869 9.42114ZM10.4439 9.69264C10.4468 9.67217 10.4328 9.65428 10.4159 9.64892C10.3837 9.63708 10.351 9.62657 10.3179 9.61742C10.2809 9.60868 10.2601 9.63504 10.26 9.65241C10.2598 9.68128 10.2585 9.70577 10.26 9.72763C10.262 9.75486 10.2672 9.75688 10.2845 9.76093C10.3122 9.76558 10.3478 9.7703 10.3756 9.7889C10.3976 9.80244 10.4188 9.79176 10.4299 9.76794C10.437 9.74976 10.4409 9.71421 10.4439 9.69264ZM10.045 9.69264C10.0424 9.67217 10.0533 9.65252 10.0683 9.64715C10.0976 9.63489 10.1268 9.63189 10.1576 9.63313C10.1918 9.63261 10.2004 9.64033 10.2005 9.65765C10.2007 9.68653 10.2019 9.7145 10.2005 9.73637C10.1987 9.76359 10.1993 9.76562 10.1839 9.76967C10.1591 9.77432 10.1169 9.77556 10.0921 9.79416C10.0724 9.80766 10.0499 9.79697 10.0488 9.77143C10.0493 9.75219 10.0476 9.71421 10.045 9.69264Z" fill="white"/>
<path fill-rule="evenodd" clip-rule="evenodd" d="M11.0702 10.7494C11.0719 10.7937 11.0772 10.8293 11.1035 10.8649C10.9505 10.8037 10.7345 10.8364 10.5868 10.9052C10.5209 10.9366 10.4412 10.8692 10.5185 10.8054C10.6285 10.7164 10.8827 10.7669 11.0702 10.7494ZM8.91214 10.7471C8.91428 10.7888 8.90944 10.8271 8.89409 10.8635C9.06034 10.7947 9.23886 10.8519 9.40687 10.9196C9.52234 10.9673 9.53165 10.8847 9.51127 10.8561C9.47622 10.8054 9.40837 10.7497 9.32258 10.7485C9.26546 10.7477 9.04555 10.7457 8.91214 10.7471ZM9.0525 9.9355C9.00611 9.91551 8.95222 9.93475 8.90389 9.98556C8.74151 10.1446 8.55098 10.2995 8.39719 10.42C8.33981 10.4698 8.2812 10.5592 8.52595 10.6485C8.53484 10.6519 8.71325 10.7179 8.82632 10.7221C8.87248 10.7209 8.87237 10.7897 8.86381 10.8081C8.84429 10.8448 8.85844 10.8588 8.81904 10.8941C8.77795 10.9288 8.82343 10.9736 8.8557 10.9431C8.9935 10.8236 9.21698 10.9001 9.43235 10.97C9.48324 10.9841 9.57634 10.9802 9.57552 10.91C9.57642 10.8336 9.63181 10.7795 9.66573 10.7776C9.75366 10.7928 10.1881 10.7977 10.3219 10.7814C10.3999 10.7713 10.4046 10.8882 10.4463 10.9343C10.4751 10.9649 10.5859 10.973 10.6619 10.9394C10.812 10.8698 11.0408 10.8698 11.134 10.9364C11.1723 10.9655 11.2026 10.9419 11.1808 10.9123C11.1528 10.8718 11.1534 10.853 11.1394 10.821C11.1044 10.7498 11.1324 10.7324 11.1691 10.7273C11.5839 10.6738 11.7163 10.5324 11.5895 10.4171C11.4257 10.2735 11.2434 10.1292 11.0863 9.95965C11.0437 9.91465 11.0156 9.89665 10.9269 9.93344C10.6559 10.0568 10.3119 10.1467 9.97529 10.1533C9.66205 10.156 9.23135 10.0111 9.05253 9.9355H9.0525Z" fill="white"/>
<path fill-rule="evenodd" clip-rule="evenodd" d="M10.998 9.95774C10.9762 9.95991 10.9531 9.96666 10.9359 9.97296C10.6011 10.0905 10.2935 10.1728 9.97305 10.1722C9.66026 10.1716 9.33261 10.0856 9.03839 9.96479C9.02166 9.95762 9.00237 9.95875 8.98327 9.96359C8.96417 9.96846 8.94529 9.97731 8.93283 9.98939C8.79623 10.1254 8.6483 10.2574 8.48956 10.3773C8.46558 10.3956 8.46948 10.4422 8.50832 10.4581H8.50948C8.82115 10.5699 9.12538 10.7781 9.99651 10.7699C10.8759 10.7615 11.1878 10.5584 11.4671 10.4652C11.4868 10.4577 11.5071 10.4464 11.5164 10.4288C11.5211 10.42 11.5223 10.4091 11.5187 10.3984C11.5152 10.3876 11.5081 10.3776 11.4953 10.3667H11.4941C11.3356 10.2373 11.1658 10.134 11.0543 9.97652C11.0418 9.95852 11.0198 9.9556 10.998 9.95777L10.998 9.95774ZM10.9992 9.97416C11.0182 9.97225 11.0327 9.97517 11.0402 9.98586C11.1543 10.1471 11.3262 10.2511 11.4835 10.3796C11.4947 10.3891 11.5001 10.3976 11.5023 10.4042C11.5033 10.4069 11.5038 10.4097 11.5036 10.4126C11.5034 10.4154 11.5025 10.4182 11.5011 10.4206C11.4955 10.4313 11.4789 10.442 11.4612 10.4488C11.1785 10.5431 10.8732 10.7452 9.99651 10.7534C9.12902 10.7616 8.82959 10.5546 8.5153 10.4417C8.48701 10.4301 8.48952 10.3982 8.50006 10.3902C8.65926 10.2699 8.8088 10.1374 8.9457 10.0011C8.95508 9.99198 8.97021 9.98421 8.98676 9.98001C9.00327 9.97577 9.02098 9.9751 9.0325 9.98001C9.32818 10.1014 9.65594 10.1892 9.97181 10.1898C10.2953 10.1903 10.6062 10.1071 10.9417 9.98939C10.9584 9.98327 10.9801 9.97604 10.9991 9.97416H10.9992Z" fill="#BD6B00"/>
<path fill-rule="evenodd" clip-rule="evenodd" d="M8.86213 4.29602C8.85958 4.24431 8.93981 4.24037 8.93058 4.31147C8.91883 4.40005 9.09791 4.6243 9.11274 4.76256C9.12268 4.8553 9.05821 4.93645 8.99437 4.98696C8.91609 5.04756 8.79574 5.03923 8.73941 5.00447C8.70534 4.97706 8.6743 4.8832 8.69978 4.84607C8.70879 4.83355 8.74962 4.98381 8.83946 4.98321C8.96173 4.98246 9.06072 4.89066 9.06436 4.80883C9.07063 4.66626 8.86434 4.441 8.86213 4.29602ZM9.21976 4.64815C9.23999 4.63371 9.27227 4.69675 9.24949 4.7125C9.23053 4.72513 9.19349 4.66562 9.21976 4.64815ZM9.27418 4.52027C9.26397 4.52522 9.24363 4.51817 9.24971 4.50951C9.27831 4.46867 9.33929 4.40721 9.3835 4.38576C9.39708 4.37916 9.42084 4.40312 9.41262 4.41486C9.38616 4.45262 9.3218 4.49717 9.27418 4.52027ZM9.74665 4.14565C9.75798 4.12202 9.82609 4.09525 9.84347 4.07927C9.85949 4.06281 9.86715 4.09315 9.86028 4.10743C9.84895 4.13106 9.79018 4.17103 9.7644 4.17208C9.75051 4.17268 9.73978 4.15993 9.74665 4.14565ZM9.90839 4.15315C9.92314 4.11163 9.97069 4.04867 10.0034 4.02793C10.0203 4.01732 10.0504 4.02568 10.0448 4.04158C10.0323 4.07683 9.97406 4.13837 9.93492 4.1674C9.92306 4.17797 9.90498 4.16278 9.90839 4.15315ZM9.76991 4.25702C9.76005 4.26197 9.76541 4.28293 9.77491 4.28612C9.7951 4.29287 9.83195 4.29415 9.84861 4.285C9.87282 4.27007 9.86174 4.17831 9.82936 4.22732C9.80759 4.25755 9.79176 4.24783 9.76991 4.25702ZM9.49634 4.46777C9.44688 4.4293 9.50966 4.37537 9.56134 4.41302C9.66202 4.48892 9.41112 4.7797 9.27463 4.91563C9.24964 4.94226 9.22772 4.87521 9.25973 4.84633C9.3576 4.76338 9.44924 4.66427 9.51293 4.56186C9.5252 4.54217 9.53694 4.49968 9.49634 4.46777ZM10.0694 4.21765C10.0755 4.18082 10.0098 4.2184 10.0086 4.16961C10.0079 4.14373 10.0804 4.12562 10.1107 4.15536C10.1619 4.20726 10.1236 4.29478 10.0385 4.3003C9.96753 4.30345 9.84914 4.40098 9.86715 4.4215C9.88764 4.44681 10.0717 4.46353 10.1787 4.44681C10.2449 4.43751 10.2311 4.49672 10.1632 4.50475C10.0976 4.51228 10.0442 4.50531 9.98285 4.52455C9.91072 4.54513 9.87927 4.64192 9.83919 4.678C9.83026 4.68426 9.80617 4.64627 9.81532 4.63198C9.84422 4.58687 9.89023 4.5178 9.94089 4.49803C9.97286 4.4851 9.85278 4.48101 9.81442 4.4701C9.78403 4.46095 9.79288 4.42232 9.80451 4.4008C9.81998 4.36723 9.9332 4.25395 9.97883 4.25578C10.0217 4.25762 10.0651 4.24513 10.0694 4.21765ZM10.26 4.2274C10.2813 4.20865 10.2922 4.17722 10.3145 4.1581C10.3268 4.14583 10.3463 4.16053 10.3431 4.19008C10.3403 4.21337 10.309 4.23343 10.288 4.25095C10.2709 4.26377 10.251 4.2361 10.26 4.2274ZM10.5028 4.14115C10.5345 4.13766 10.5424 4.19878 10.5077 4.20868C10.4867 4.2157 10.4683 4.14475 10.5028 4.14115ZM10.4229 4.33015C10.4224 4.3828 10.4484 4.37796 10.498 4.37616C10.5462 4.37432 10.5885 4.3774 10.5883 4.32985C10.5881 4.28057 10.5611 4.23745 10.5531 4.27097C10.5461 4.30247 10.5406 4.35407 10.5222 4.33161C10.505 4.3123 10.5118 4.30806 10.482 4.33975C10.4655 4.35722 10.4636 4.33127 10.4537 4.315C10.4468 4.30536 10.423 4.3228 10.4229 4.33015ZM10.0769 4.59865C10.0651 4.66832 10.0759 4.76586 10.1116 4.76695C10.1557 4.76837 10.247 4.61466 10.2902 4.5349C10.3161 4.49038 10.3606 4.48262 10.3421 4.52905C10.3139 4.60067 10.3165 4.75397 10.3412 4.79901C10.3544 4.82327 10.4524 4.77677 10.4682 4.7422C10.497 4.67938 10.4736 4.56362 10.4837 4.49293C10.4886 4.44655 10.5311 4.43683 10.5288 4.47985C10.5246 4.5568 10.5173 4.69791 10.5228 4.762C10.526 4.79882 10.6314 4.8532 10.6483 4.74163C10.6572 4.67143 10.6934 4.60217 10.6466 4.5244C10.6175 4.47576 10.6892 4.48187 10.7278 4.54828C10.7549 4.59351 10.7051 4.66836 10.7068 4.72618C10.7113 4.81517 10.6421 4.86576 10.5918 4.86681C10.5468 4.86771 10.5176 4.81258 10.4808 4.8118C10.4399 4.80917 10.398 4.87528 10.3642 4.87292C10.2334 4.864 10.3027 4.67293 10.2628 4.67061C10.2185 4.66798 10.1662 4.85788 10.1116 4.8511C10.0577 4.84465 10.002 4.69633 10.0244 4.6336C10.0447 4.57521 10.0829 4.56152 10.0769 4.59865Z" fill="white"/>
<path fill-rule="evenodd" clip-rule="evenodd" d="M10.71 4.29754C10.6462 4.25862 10.7141 4.15744 10.7453 4.19299C10.8055 4.26511 10.8663 4.43626 10.9087 4.45039C10.9356 4.45939 10.9344 4.32387 10.9533 4.26229C10.9656 4.21681 11.0206 4.23166 11.0101 4.28993C11.0065 4.30943 10.9382 4.53076 10.9434 4.53949C10.9908 4.63407 11.0376 4.73003 11.0673 4.83154C11.0795 4.87531 11.0269 4.84583 11.0206 4.83676C10.9871 4.78658 10.9283 4.59481 10.9283 4.60354C10.9013 4.73847 10.8949 4.77829 10.8662 4.89293C10.8574 4.92968 10.8033 4.92301 10.8155 4.85828C10.8273 4.80511 10.9046 4.54358 10.9003 4.53601C10.8395 4.42868 10.7838 4.34382 10.71 4.29754Z" fill="white"/>
<path fill-rule="evenodd" clip-rule="evenodd" d="M10.8261 4.92C10.8083 4.91798 10.7807 4.95956 10.8694 4.97588C10.9878 4.99733 11.1174 4.95746 11.1572 4.8414C11.2027 4.70314 11.2327 4.57226 11.2565 4.52291C11.2862 4.46535 11.3242 4.47 11.2961 4.386C11.2764 4.32555 11.2395 4.34378 11.2317 4.3761C11.211 4.46423 11.1324 4.7493 11.1079 4.8018C11.0616 4.89761 10.9684 4.93549 10.8261 4.92Z" fill="white"/>
<path fill-rule="evenodd" clip-rule="evenodd" d="M11.062 4.46514C11.0494 4.43796 11.0197 4.45899 11.025 4.48877C11.0261 4.50029 11.0316 4.51096 11.0403 4.51854C11.0491 4.52613 11.0604 4.53005 11.0719 4.52949C11.0979 4.52859 11.1528 4.53036 11.153 4.48731C11.153 4.45704 11.1293 4.43177 11.1116 4.46514C11.0947 4.49537 11.0729 4.49222 11.062 4.46514ZM11.0917 4.35114C11.0826 4.35744 11.0908 4.39112 11.1016 4.39074C11.1403 4.38943 11.1951 4.37713 11.2245 4.35669C11.2331 4.35069 11.2295 4.33037 11.2173 4.33082C11.18 4.33202 11.1206 4.33104 11.0917 4.35114ZM11.4204 4.43589C11.4485 4.39213 11.5257 4.38767 11.498 4.45014C11.4783 4.49319 11.2859 4.86471 11.2596 4.91196C11.2309 4.96509 11.2075 4.93877 11.2278 4.89741C11.2552 4.84416 11.4116 4.44883 11.4204 4.43589Z" fill="white"/>
<path fill-rule="evenodd" clip-rule="evenodd" d="M11.1314 4.989C11.1232 4.95945 11.0773 4.91573 11.0824 4.99482C11.0916 5.13837 11.2889 5.09299 11.3487 5.04195C11.403 4.99395 11.3559 5.20407 11.428 5.22653C11.4677 5.23928 11.5424 5.18509 11.5792 5.13743C11.6812 5.00524 11.7461 4.81575 11.8441 4.68525C11.8811 4.63425 11.8238 4.5978 11.8007 4.63838C11.7154 4.78125 11.6095 5.07285 11.4938 5.14857C11.3995 5.20887 11.4275 5.07094 11.4242 5.02947C11.4201 4.99909 11.383 4.95435 11.3336 4.99542C11.299 5.02242 11.2453 5.04435 11.1967 5.03997C11.1685 5.03839 11.1447 5.03888 11.1314 4.989Z" fill="white"/>
<path fill-rule="evenodd" clip-rule="evenodd" d="M11.4837 4.72241C11.4847 4.71431 11.4419 4.71064 11.444 4.75211C11.4455 4.78283 11.4823 4.79115 11.4886 4.78676C11.5464 4.74476 11.4763 4.76569 11.4837 4.72241ZM11.3996 4.89079C11.3882 4.89345 11.3778 4.92979 11.4046 4.93185C11.4291 4.93358 11.5252 4.92326 11.5517 4.92484C11.5689 4.9242 11.5754 4.89139 11.5386 4.89315C11.494 4.8954 11.4353 4.88419 11.3996 4.89079ZM9.0744 4.26604C9.08964 4.26679 9.13144 4.32086 9.1287 4.33778C9.12683 4.34576 9.08401 4.33661 9.07091 4.32555C9.06123 4.31734 9.06513 4.26559 9.0744 4.26604ZM8.87292 4.65799C8.83475 4.6788 8.879 4.7199 8.90759 4.70254C9.01492 4.63305 9.17606 4.56008 9.20976 4.42249C9.22053 4.37588 9.26392 4.30444 9.30508 4.2885C9.34483 4.27309 9.40258 4.36039 9.44026 4.29169C9.4624 4.25243 9.53985 4.31745 9.55854 4.27545C9.58132 4.22468 9.57048 4.19674 9.57142 4.14814C9.56973 4.11626 9.54541 4.10678 9.52773 4.15834C9.51854 4.1817 9.52935 4.20525 9.52188 4.21744C9.51618 4.2267 9.49843 4.23566 9.48811 4.22794C9.47861 4.22081 9.48518 4.20094 9.4624 4.19213C9.45358 4.1877 9.43943 4.18403 9.43328 4.19535C9.40626 4.2435 9.39125 4.28843 9.35342 4.23724C9.31972 4.19314 9.30264 4.1169 9.27795 4.22123C9.26906 4.25805 9.21303 4.31149 9.18 4.31149C9.13876 4.31149 9.14912 4.20296 9.05853 4.2195C9.01196 4.2294 9.01518 4.3185 9.02213 4.35139C9.03357 4.39714 9.16965 4.36429 9.16289 4.39418C9.13963 4.49809 8.99526 4.5969 8.87292 4.65799ZM8.02101 5.15329C8.01523 5.17069 8.03835 5.2179 8.06233 5.22139C8.0859 5.22311 8.0979 5.17039 8.09032 5.15329C8.08469 5.14069 8.02514 5.14095 8.02101 5.15329ZM8.14598 5.33629C8.13085 5.32001 8.08635 5.36366 8.12233 5.39453C8.1426 5.41088 8.21664 5.43465 8.2369 5.40008C8.2643 5.35564 8.20989 5.19428 8.23398 5.17294C8.25282 5.15629 8.3401 5.28075 8.38319 5.28971C8.4844 5.3037 8.46012 5.1165 8.56917 5.12921C8.64348 5.13911 8.65166 5.0463 8.6413 4.98836C8.63304 4.93275 8.5429 4.85246 8.50147 4.81654C8.44698 4.77116 8.42267 4.84999 8.45689 4.87594C8.50091 4.91119 8.57833 4.98233 8.59068 5.02943C8.59649 5.05163 8.53686 5.0958 8.51487 5.08384C8.46421 5.0562 8.41704 4.93766 8.37268 4.91059C8.35759 4.90136 8.3204 4.92221 8.3383 4.95919C8.35842 4.99883 8.44732 5.06018 8.45254 5.10248C8.45723 5.14106 8.41291 5.22446 8.38382 5.22446C8.35181 5.22446 8.27019 5.12366 8.24475 5.07623C8.23199 5.0535 8.18789 5.05571 8.18328 5.0871C8.17596 5.13416 8.19011 5.2338 8.20133 5.29553C8.21026 5.35399 8.16838 5.35695 8.14598 5.33629ZM7.99324 5.01491C7.98048 5.02931 8.02296 5.05744 8.03141 5.05016C8.04777 5.03599 8.11126 4.96361 8.09903 4.9383C8.08815 4.91576 8.00078 4.86638 7.98656 4.89083C7.96022 4.93313 8.06893 4.9521 8.05186 4.96451C8.04349 4.96931 8.01358 4.98998 7.99324 5.01491ZM8.14973 4.69766C8.14973 4.69766 8.17705 4.79104 8.19927 4.75211C8.21728 4.72515 8.14973 4.69766 8.14973 4.69766ZM8.19439 4.84616C8.1844 4.85164 8.15622 4.87391 8.17457 4.88576C8.20358 4.9029 8.28246 4.91651 8.26543 4.86041C8.25511 4.82741 8.38443 4.86135 8.3529 4.77191C8.34465 4.74716 8.30566 4.71146 8.28648 4.7064C8.27428 4.70321 8.23285 4.7259 8.25878 4.73843C8.2777 4.74818 8.33474 4.7817 8.31357 4.80368C8.28948 4.82663 8.27271 4.79336 8.24276 4.79873C8.22771 4.80158 8.23751 4.8444 8.22902 4.8561C8.2243 4.86255 8.20253 4.84174 8.19439 4.84616ZM8.40004 4.49141C8.38371 4.49955 8.35448 4.54376 8.35343 4.5642C8.35283 4.57511 8.3648 4.59011 8.37414 4.58546C8.39125 4.57691 8.41767 4.53506 8.41869 4.51586C8.41933 4.50371 8.41017 4.48635 8.40004 4.49141ZM8.50661 4.47979C8.47509 4.44128 8.54005 4.38416 8.56929 4.46119C8.58692 4.50956 8.77524 4.75714 8.81374 4.84114C8.84102 4.89799 8.81276 4.92146 8.77906 4.88074C8.68371 4.75916 8.60546 4.60763 8.50661 4.47979ZM8.69988 4.48504C8.73347 4.44866 8.80199 4.37441 8.78357 4.33305C8.76938 4.29743 8.72772 4.30095 8.72059 4.3092C8.67984 4.3578 8.74957 4.34558 8.73951 4.36219C8.71876 4.40111 8.69808 4.42256 8.68735 4.45999C8.68487 4.46876 8.69384 4.4916 8.69988 4.48504ZM11.6188 4.60654C11.5946 4.58704 11.6425 4.49239 11.6748 4.52955C11.7637 4.6323 11.805 4.9659 11.8307 5.21558C11.8307 5.21558 11.7907 5.24884 11.7904 5.24355C11.7904 5.11054 11.7369 4.70366 11.6188 4.60654ZM9.62606 4.28179C9.59731 4.21579 9.66921 4.19134 9.67995 4.2384C9.72986 4.45526 9.84946 4.6194 9.94046 4.76689C9.96785 4.81301 9.9459 4.84046 9.87929 4.79801C9.83313 4.76644 9.7863 4.65116 9.76359 4.64663C9.72254 4.63898 9.62425 4.83386 9.42322 4.77825C9.37124 4.7637 9.3747 4.6092 9.37368 4.54091C9.37151 4.50893 9.4069 4.50049 9.4081 4.54414C9.40994 4.60706 9.40802 4.73779 9.48856 4.74218C9.55423 4.74585 9.69972 4.65308 9.73038 4.58055C9.7577 4.50593 9.65713 4.35773 9.62606 4.28179Z" fill="white"/>
<path fill-rule="evenodd" clip-rule="evenodd" d="M11.6721 5.18923C11.6881 5.14456 11.9015 4.78666 11.9295 4.70791C11.9439 4.66993 12.0051 4.77305 11.9453 4.82866C11.8928 4.87591 11.7378 5.12994 11.7088 5.21896C11.6955 5.25916 11.6551 5.24004 11.6721 5.18923Z" fill="white"/>
<path fill-rule="evenodd" clip-rule="evenodd" d="M12.0352 4.8481C12.0746 4.70054 12.1701 4.87087 12.086 4.95487C11.9562 5.08188 11.9171 5.32439 11.7112 5.36088C11.6557 5.3728 11.558 5.3359 11.5291 5.31535C11.5178 5.30733 11.5364 5.25468 11.5711 5.28037C11.6213 5.31952 11.7249 5.32837 11.7795 5.28385C11.8966 5.1691 11.9918 5.01712 12.0352 4.8481ZM9.89578 5.32585C9.88651 5.3365 9.85811 5.33478 9.85555 5.34974C9.84441 5.40524 9.85555 5.43337 9.84332 5.4868C9.83161 5.53799 9.79607 5.5399 9.79851 5.4982C9.80174 5.44413 9.84632 5.36778 9.81484 5.36253C9.79382 5.35765 9.77769 5.32957 9.79934 5.31573C9.84032 5.28734 9.86235 5.29169 9.89053 5.30024C9.90029 5.30324 9.90284 5.31764 9.89578 5.32585Z" fill="white"/>
<path fill-rule="evenodd" clip-rule="evenodd" d="M9.86773 5.25337C9.81339 5.30085 9.76303 5.32027 9.713 5.38027C9.69259 5.40487 9.69315 5.43915 9.68095 5.4705C9.66872 5.5038 9.62935 5.51032 9.61716 5.50338C9.59678 5.49 9.59971 5.42827 9.57697 5.4615C9.55764 5.4921 9.54518 5.53425 9.51662 5.53372C9.49077 5.5332 9.44205 5.4804 9.46675 5.47785C9.55126 5.46922 9.55025 5.40161 9.58188 5.39718C9.61738 5.39242 9.61971 5.45298 9.64163 5.44087C9.65889 5.43202 9.66696 5.36148 9.68564 5.34243C9.74295 5.28393 9.78828 5.253 9.84675 5.21002C9.87632 5.18643 9.89741 5.22896 9.86773 5.25337ZM10.0659 5.43525C10.0224 5.44402 10.0298 5.4999 10.0426 5.50683C10.0636 5.51666 10.0962 5.52078 10.1084 5.45651C10.1141 5.43015 10.1193 5.58768 10.1771 5.52701C10.2105 5.49022 10.293 5.53368 10.3275 5.48741C10.3523 5.45658 10.3599 5.43506 10.3406 5.38953C10.335 5.3757 10.3011 5.38252 10.3031 5.41612C10.3048 5.44443 10.283 5.47938 10.2547 5.47342C10.2409 5.47091 10.2624 5.40416 10.2486 5.38605C10.241 5.37611 10.2294 5.3772 10.2218 5.38751C10.2112 5.40191 10.2325 5.46588 10.1976 5.47432C10.1535 5.48445 10.1766 5.43153 10.158 5.42182C10.098 5.3916 10.0922 5.4297 10.0659 5.43525ZM10.4055 5.328C10.4374 5.31903 10.4274 5.319 10.4776 5.27797C10.4971 5.26316 10.501 5.30647 10.4989 5.32357C10.4953 5.35263 10.4607 5.33212 10.45 5.3577C10.4343 5.39092 10.4407 5.46825 10.4354 5.49975C10.4318 5.51591 10.4059 5.51452 10.4034 5.50177C10.396 5.46337 10.4087 5.4258 10.4075 5.37776C10.4071 5.36145 10.3837 5.33587 10.4055 5.328ZM10.2179 5.22975C10.2102 5.26451 10.2107 5.29312 10.2107 5.31693C10.2125 5.33621 10.2477 5.3238 10.2476 5.32136C10.2458 5.29083 10.2528 5.24861 10.2438 5.23687C10.2389 5.2305 10.2197 5.22318 10.2179 5.22975Z" fill="white"/>
<path fill-rule="evenodd" clip-rule="evenodd" d="M9.98198 4.88208L9.92727 5.09185L9.85109 4.95123V5.09538L9.68694 4.90083L9.74402 5.10944L9.59654 4.98404L9.67505 5.12583L9.41329 4.95708L9.57984 5.15163L9.37044 5.04851L9.52036 5.17507L9.17773 5.04614L9.50846 5.20904C9.62941 5.14949 9.79517 5.11293 9.97958 5.11293C10.1633 5.11293 10.3299 5.14987 10.4507 5.20904C10.4511 5.20927 10.4527 5.20882 10.4531 5.20904L10.7815 5.04614L10.4436 5.17623L10.5911 5.04851L10.3841 5.15043L10.5483 4.95708L10.2865 5.12583L10.3651 4.98404L10.2175 5.10944L10.2746 4.90083L10.1104 5.09658L10.1128 4.95123L10.0367 5.09185L9.98195 4.88208H9.98198Z" fill="white"/>
<path d="M9.69217 9.43622C9.69217 9.45847 9.68882 9.49055 9.68214 9.53252H9.66658C9.66658 9.50392 9.66523 9.48195 9.66257 9.46657C9.66005 9.45117 9.65502 9.43287 9.64749 9.41165C9.64222 9.39581 9.63542 9.38052 9.62717 9.366C9.61982 9.3533 9.60801 9.33642 9.5918 9.31535L9.62289 9.2386C9.63731 9.257 9.64749 9.27112 9.65352 9.281C9.66037 9.29237 9.66683 9.30665 9.67286 9.32387C9.68571 9.35994 9.69224 9.39794 9.69217 9.43622ZM9.9361 9.28772C9.9361 9.31112 9.93167 9.32867 9.92279 9.34037C9.91393 9.3521 9.89877 9.36045 9.87738 9.36547C9.88356 9.3872 9.88766 9.40417 9.88966 9.41637C9.89194 9.42988 9.89303 9.44356 9.89292 9.45725C9.89292 9.46695 9.89234 9.4773 9.89117 9.48835C9.89016 9.49937 9.88824 9.51425 9.88541 9.53297H9.87135C9.87135 9.51625 9.87043 9.50187 9.8686 9.48985C9.86705 9.47819 9.86444 9.46669 9.86082 9.4555C9.85656 9.44364 9.85212 9.43185 9.84751 9.42012C9.83965 9.39907 9.83177 9.3816 9.82392 9.36772C9.81621 9.35367 9.8036 9.33437 9.78601 9.3098L9.81011 9.23755C9.82284 9.2558 9.83395 9.26842 9.84348 9.27542C9.85304 9.2823 9.86432 9.28572 9.87738 9.28572C9.9058 9.28572 9.92004 9.27032 9.92004 9.23957H9.9346C9.9346 9.2496 9.93485 9.25797 9.93535 9.26465C9.93585 9.27117 9.9361 9.27887 9.9361 9.28772ZM10.1601 9.45722L10.1421 9.53247C10.1307 9.52927 10.1214 9.52032 10.1142 9.50562C10.1082 9.49342 10.1038 9.47795 10.1012 9.45922C10.0987 9.4405 10.0974 9.4211 10.0974 9.40105C10.0822 9.40505 10.0701 9.40705 10.0613 9.40705C10.0437 9.40705 10.0291 9.40247 10.0176 9.3933C10.0062 9.38392 10.0005 9.37212 10.0005 9.35792C10.0005 9.32732 10.0084 9.29982 10.0241 9.27542C10.04 9.25085 10.0579 9.23855 10.0778 9.23855C10.0932 9.23855 10.1039 9.2429 10.1099 9.2516C10.1166 9.2611 10.1207 9.272 10.1222 9.2842C10.1237 9.2964 10.1245 9.31995 10.1245 9.3549C10.1245 9.38617 10.127 9.40825 10.132 9.42112C10.136 9.43112 10.1454 9.44317 10.1601 9.45722ZM10.0924 9.33235C10.0894 9.31327 10.0793 9.30375 10.0623 9.30375C10.0549 9.30375 10.0481 9.30575 10.0419 9.30975C10.0357 9.31377 10.0327 9.3173 10.0327 9.3203C10.0327 9.33032 10.0447 9.33535 10.0688 9.33535C10.0765 9.33535 10.0844 9.33435 10.0924 9.33235ZM10.3973 9.43847L10.3883 9.52975C10.3704 9.51722 10.3538 9.49457 10.3386 9.4618C10.3227 9.42755 10.3066 9.37897 10.2904 9.3161C10.2765 9.3766 10.2651 9.421 10.256 9.44925C10.2472 9.47735 10.2384 9.49725 10.2297 9.50895C10.2238 9.5168 10.2145 9.52475 10.2016 9.53277L10.2036 9.4455C10.2201 9.42292 10.2318 9.4057 10.2384 9.39385C10.2483 9.37627 10.2565 9.3558 10.2628 9.3324C10.2693 9.30882 10.2752 9.2773 10.2803 9.23785H10.2969C10.3071 9.27747 10.317 9.309 10.3265 9.3324C10.3354 9.35447 10.3458 9.37395 10.3577 9.39082C10.366 9.4027 10.3792 9.41857 10.3973 9.43847Z" fill="white"/>
<path d="M11.0872 10.2995C11.0994 10.3137 11.108 10.3278 11.1129 10.3415C11.1177 10.3551 11.1212 10.3745 11.1234 10.3997L11.0961 10.402C11.0845 10.3793 11.0733 10.3615 11.0623 10.3487C11.0539 10.3389 11.0404 10.3249 11.0218 10.3069C11.0032 10.2889 10.9841 10.2713 10.9646 10.2541C10.945 10.2368 10.92 10.2169 10.8897 10.1942C10.879 10.1863 10.8723 10.1806 10.8694 10.1773C10.8652 10.1723 10.8618 10.1625 10.8593 10.1479C10.8567 10.1331 10.8551 10.1147 10.8544 10.0927L10.9495 10.1699C10.9853 10.1994 11.015 10.2255 11.0385 10.2481C11.0556 10.2644 11.0718 10.2815 11.0872 10.2995ZM10.7502 10.0965L10.7445 10.1663L10.6326 10.1633L10.641 10.092L10.7502 10.0965M11.0446 10.4091L10.7779 10.4903L10.7289 10.4225L10.9594 10.3523C10.9489 10.3379 10.9408 10.3278 10.9351 10.322C10.9263 10.3133 10.9159 10.3062 10.9046 10.3012C10.9038 10.314 10.8985 10.3253 10.8886 10.335C10.8788 10.3447 10.866 10.3519 10.8504 10.3566C10.8305 10.3629 10.8093 10.3638 10.789 10.3592C10.7685 10.3547 10.7535 10.3458 10.7439 10.3325C10.7297 10.3129 10.722 10.2869 10.721 10.2544C10.7198 10.2186 10.7296 10.1976 10.7504 10.1913C10.7773 10.1831 10.8136 10.1906 10.8594 10.2137C10.9053 10.2369 10.9405 10.2654 10.965 10.2992L11.0446 10.4091M10.8398 10.2669C10.8272 10.2611 10.8171 10.2576 10.8096 10.2563C10.8029 10.2547 10.7959 10.2548 10.7893 10.2567C10.7816 10.259 10.7763 10.2634 10.7734 10.2697C10.7705 10.2761 10.7712 10.2822 10.7755 10.2882C10.7783 10.292 10.783 10.2946 10.7895 10.2958C10.7962 10.2968 10.8032 10.2962 10.8106 10.294C10.8165 10.2922 10.8216 10.2893 10.826 10.2853C10.8304 10.2811 10.835 10.275 10.8398 10.2668M10.5541 10.2123L10.5378 10.2814L10.4269 10.2712L10.4437 10.2014L10.5541 10.2123M10.817 10.4822L10.7577 10.4958C10.7381 10.5005 10.7178 10.502 10.6976 10.5002C10.6787 10.4984 10.6604 10.4923 10.6442 10.4824C10.6344 10.5002 10.6172 10.5151 10.5926 10.5272C10.5762 10.5352 10.5573 10.5417 10.5357 10.5467L10.4936 10.5563L10.4552 10.4857L10.4972 10.4761C10.5193 10.471 10.5344 10.4668 10.5425 10.4634C10.5507 10.4597 10.561 10.4536 10.5734 10.4449C10.5598 10.4365 10.5488 10.4308 10.5405 10.4276C10.5304 10.4239 10.5215 10.4229 10.5137 10.4247C10.511 10.4253 10.5084 10.4267 10.5065 10.4287C10.5047 10.4305 10.5032 10.4335 10.502 10.4379L10.4835 10.4404C10.4665 10.4091 10.4626 10.3849 10.4719 10.3678C10.4813 10.3504 10.504 10.3376 10.5401 10.3294C10.5771 10.3209 10.6088 10.3189 10.6351 10.3236C10.6615 10.3281 10.6792 10.3385 10.6882 10.355C10.693 10.3638 10.6948 10.3729 10.6937 10.3823C10.6924 10.3916 10.6878 10.4049 10.6798 10.4222C10.6854 10.4247 10.6918 10.4261 10.6993 10.4265C10.7067 10.427 10.7134 10.4265 10.7193 10.4252L10.7785 10.4116L10.817 10.4822ZM10.5339 10.548L10.4761 10.557C10.4439 10.5621 10.4175 10.5572 10.3968 10.5423C10.3738 10.5259 10.354 10.4953 10.3373 10.4505L10.3089 10.3743C10.3024 10.357 10.2937 10.3441 10.2827 10.3357C10.2774 10.3316 10.2666 10.3262 10.2504 10.3195L10.2701 10.2456C10.2913 10.2574 10.3077 10.2697 10.3192 10.2826C10.3327 10.2977 10.3441 10.3178 10.3535 10.343L10.3732 10.3957C10.3871 10.4329 10.4005 10.4582 10.4136 10.4714C10.424 10.4821 10.4358 10.4863 10.449 10.4843L10.5068 10.4752L10.5339 10.548ZM10.2871 10.283L10.2498 10.3487L10.1442 10.3243L10.1818 10.2581L10.2871 10.283ZM10.3484 10.5801L10.0853 10.6039L10.0693 10.5298L10.2904 10.5098C10.285 10.4981 10.277 10.4879 10.2669 10.4799C10.2617 10.4756 10.2501 10.4683 10.2322 10.4581L10.2518 10.3902C10.2762 10.4037 10.2939 10.4186 10.3051 10.4348C10.3167 10.451 10.326 10.4757 10.3331 10.509L10.3484 10.5801M10.1372 10.6138C10.1055 10.6127 10.0794 10.6104 10.0587 10.6067C10.038 10.6031 10.0176 10.5977 9.99787 10.5907C9.98091 10.5976 9.96582 10.6021 9.95263 10.604C9.93973 10.606 9.92041 10.6065 9.89469 10.6057L9.82562 10.6034C9.80668 10.6028 9.79194 10.5991 9.78144 10.5923C9.77093 10.5855 9.76187 10.5745 9.75429 10.5594C9.73753 10.5743 9.71927 10.5847 9.69953 10.5907C9.68269 10.5958 9.66282 10.598 9.63993 10.5972L9.57931 10.5952L9.58524 10.5205L9.64586 10.5225C9.67553 10.5235 9.70068 10.5189 9.72132 10.5087C9.74814 10.4955 9.7627 10.4745 9.76497 10.4457L9.79274 10.4494C9.79169 10.4552 9.79062 10.4619 9.78944 10.4694C9.78829 10.4769 9.78734 10.4852 9.78664 10.4944C9.78589 10.5037 9.79022 10.5117 9.79962 10.5182C9.80901 10.5248 9.82006 10.5283 9.8328 10.5287L9.88494 10.5304C9.91941 10.5316 9.94423 10.5293 9.95942 10.5235C9.97783 10.5166 9.98784 10.5029 9.98944 10.4824C9.98979 10.478 9.99224 10.4741 9.99674 10.4708C9.99944 10.4688 10.0049 10.466 10.0132 10.4622L10.0299 10.4545C10.0302 10.458 10.0302 10.4628 10.0301 10.4688C10.0299 10.4747 10.0297 10.4786 10.0296 10.4804C10.0288 10.4905 10.0255 10.5038 10.0196 10.5203C10.0298 10.5239 10.0413 10.5272 10.0541 10.53C10.0669 10.5328 10.0805 10.5351 10.0948 10.5368C10.0953 10.5306 10.0924 10.5224 10.0861 10.5123C10.0799 10.5022 10.0768 10.4954 10.0771 10.4919C10.0775 10.4871 10.0788 10.4835 10.081 10.481C10.0816 10.4801 10.0849 10.4774 10.091 10.4728L10.1295 10.4424C10.1362 10.4542 10.1407 10.4649 10.1431 10.4745C10.1458 10.484 10.1465 10.4958 10.1454 10.5099L10.1372 10.6138ZM9.7377 10.3066L9.67123 10.3536L9.62112 10.3227L9.57176 10.3595L9.50583 10.3197L9.56878 10.275L9.62199 10.3047L9.67341 10.2671L9.7377 10.3066ZM9.6332 10.5929L9.37556 10.5507L9.40384 10.4782L9.62029 10.5136C9.62199 10.501 9.62047 10.4899 9.61579 10.4802C9.61349 10.4749 9.60698 10.4653 9.59635 10.4515L9.65399 10.3934C9.66868 10.4119 9.67651 10.43 9.67748 10.4477C9.67874 10.4655 9.67298 10.4907 9.66032 10.5233L9.63318 10.5929M9.41632 10.5593L9.3606 10.5459C9.32958 10.5385 9.31187 10.5248 9.30751 10.505C9.30256 10.483 9.31242 10.4505 9.33711 10.4073L9.37917 10.3338C9.38872 10.3171 9.39255 10.3032 9.3907 10.2922C9.38982 10.2869 9.38555 10.2786 9.37789 10.2671L9.45777 10.2129C9.46528 10.2304 9.46828 10.2466 9.46668 10.2615C9.4649 10.2788 9.45707 10.2997 9.44319 10.3239L9.41414 10.3748C9.39358 10.4107 9.38302 10.4365 9.38247 10.4523C9.38192 10.4649 9.38802 10.4727 9.40073 10.4757L9.45647 10.4891L9.41632 10.5593ZM9.28437 10.2807L9.19396 10.3188L9.13184 10.2584L9.22305 10.2199L9.28437 10.2807ZM9.24592 10.5141C9.22713 10.5363 9.20864 10.553 9.1905 10.5641C9.17205 10.5752 9.15142 10.5822 9.13001 10.5846C9.10794 10.5874 9.07997 10.5861 9.0461 10.5808C9.01289 10.5758 8.98023 10.5676 8.94858 10.5564C8.88831 10.5349 8.84788 10.5112 8.82726 10.4852C8.80675 10.4595 8.80763 10.4336 8.82982 10.4073C8.84885 10.3849 8.87172 10.3661 8.89737 10.3516C8.92606 10.3353 8.97087 10.3167 9.03176 10.2959L9.04552 10.314C8.99791 10.3324 8.96511 10.3464 8.94708 10.3558C8.92926 10.3654 8.91485 10.3767 8.90382 10.3897C8.88951 10.4066 8.89169 10.4254 8.91033 10.4461C8.92936 10.4667 8.96156 10.4851 9.00697 10.5012C9.0516 10.5171 9.09388 10.525 9.13379 10.5247C9.17369 10.5245 9.20046 10.5163 9.2141 10.5003C9.22253 10.4903 9.22818 10.4794 9.23103 10.4677C9.23414 10.456 9.23601 10.4363 9.23666 10.4084L9.32458 10.355C9.3246 10.3816 9.32338 10.3995 9.32082 10.4086C9.3164 10.4252 9.30506 10.4443 9.2868 10.4659L9.24592 10.5141Z" fill="#BF0000"/>
</g>
<defs>
<clipPath id="clip0_202_3042">
<rect width="20" height="15" fill="white"/>
</clipPath>
</defs>
</svg>
