<svg width="20" height="15" viewBox="0 0 20 15" fill="none" xmlns="http://www.w3.org/2000/svg">
<g clip-path="url(#clip0_202_3047)">
<path d="M0 0H20V15H0V0Z" fill="#E41E20"/>
<path d="M8.50039 2.91565C8.35664 2.91565 8.11602 2.96252 8.11914 3.0719C7.71289 3.00627 7.67227 3.1719 7.69727 3.3219C7.73477 3.26252 7.78164 3.22815 7.81914 3.22502C7.87227 3.21565 7.92852 3.2344 7.98789 3.26877C8.0439 3.30391 8.09443 3.34708 8.13789 3.3969C7.99414 3.43127 7.88164 3.4094 7.76914 3.39065C7.70557 3.3771 7.64513 3.35165 7.59102 3.31565C7.54414 3.2844 7.52852 3.25315 7.45664 3.18127C7.37227 3.09377 7.28164 3.11877 7.30977 3.25315C7.37539 3.37815 7.48477 3.4344 7.62227 3.4594C7.68789 3.46877 7.78789 3.49065 7.90039 3.49065C8.01289 3.49065 8.13789 3.47502 8.20664 3.49065C8.16602 3.51565 8.11914 3.56252 8.02539 3.57815C7.93164 3.5969 7.79102 3.5219 7.70352 3.50315C7.71289 3.57502 7.80664 3.64377 7.98789 3.68127C8.28789 3.74377 8.53477 3.79377 8.70039 3.8844C8.83137 3.95743 8.94702 4.05505 9.04102 4.1719C9.18789 4.34377 9.19727 4.47815 9.20352 4.5094C9.23477 4.7844 9.13789 4.94065 8.95664 4.99065C8.86914 5.01252 8.70664 4.96877 8.65039 4.90002C8.58789 4.83127 8.53477 4.71252 8.55039 4.52502C8.56602 4.45627 8.64727 4.26565 8.57852 4.22815C8.25267 4.04909 7.9155 3.89146 7.56914 3.75627C7.49102 3.72502 7.42852 3.83127 7.40352 3.87502C7.17277 3.84286 6.95208 3.7597 6.75748 3.63159C6.56289 3.50348 6.39927 3.33364 6.27852 3.1344C6.14727 2.8969 5.92539 3.1344 5.96289 3.36252C6.02227 3.61252 6.21289 3.79377 6.44414 3.92502C6.67852 4.05315 6.97539 4.18127 7.27227 4.17502C7.43477 4.20627 7.43164 4.41252 7.24102 4.45315C6.86289 4.45315 6.55977 4.4469 6.27539 4.1719C6.05977 3.97502 5.94102 4.2094 6.00039 4.34065C6.10664 4.75002 6.69102 4.86565 7.28164 4.7344C7.51289 4.6969 7.37539 4.94065 7.31289 4.94377C7.06289 5.1219 6.62227 5.29377 6.23164 4.94377C6.05352 4.80627 5.93164 4.91877 6.00039 5.11565C6.17227 5.63127 6.83477 5.5219 7.28789 5.2719C7.40352 5.20627 7.50977 5.35627 7.36914 5.4719C6.80352 5.86565 6.52227 5.8719 6.26602 5.7219C5.94727 5.59377 5.92227 5.9469 6.10977 6.06565C6.31914 6.19065 6.85352 6.0969 7.24727 5.8469C7.41602 5.7219 7.42227 5.91877 7.31602 5.9969C6.85039 6.40002 6.66602 6.50627 6.18164 6.44065C5.94102 6.4219 5.94414 6.71877 6.13164 6.8344C6.39102 6.99377 6.89727 6.73127 7.28789 6.40315C7.45352 6.31565 7.48164 6.4594 7.40039 6.63127C7.2274 6.87605 6.99223 7.07023 6.71914 7.19377C6.50039 7.27815 6.29414 7.26565 6.14727 7.21565C5.96602 7.15315 5.94414 7.34065 6.04414 7.5094C6.10352 7.61252 6.35039 7.64377 6.61914 7.55002C6.88789 7.45627 7.17539 7.23127 7.37227 6.9719C7.54414 6.81877 7.52539 7.0219 7.44414 7.16565C7.05039 7.79065 6.68789 8.0219 6.20977 7.9844C6.00039 7.9469 5.95039 8.1094 6.08477 8.26565C6.32227 8.4594 6.61602 8.45315 6.87852 8.2594C7.10664 8.04065 7.54727 7.5594 7.77852 7.30315C7.94102 7.17502 7.99414 7.30315 7.94414 7.56565C7.90039 7.71565 7.79414 7.87815 7.49727 7.99065C7.29414 8.10627 7.44727 8.26565 7.59727 8.2719C7.68164 8.2719 7.85039 8.1719 7.98164 8.02815C8.15039 7.8344 8.16289 7.70627 8.25664 7.40627C8.34414 7.26252 8.50352 7.33127 8.50352 7.48127C8.42539 7.78127 8.36289 7.8344 8.20664 7.95627C8.05977 8.0969 8.30977 8.14377 8.39414 8.0844C8.63789 7.9219 8.72539 7.7094 8.80664 7.51565C8.86914 7.37815 9.03789 7.44377 8.95664 7.6719C8.76914 8.21565 8.45664 8.42815 7.91602 8.54065C7.86289 8.55002 7.82852 8.58127 7.84727 8.64377L8.06602 8.86252C7.73164 8.96252 7.45977 9.01877 7.12227 9.11252L6.65977 8.80627C6.61914 8.70627 6.59727 8.55002 6.35352 8.6594C6.19102 8.5844 6.11289 8.61252 6.02227 8.69065C6.15352 8.69065 6.20977 8.72815 6.26289 8.78752C6.33164 8.96565 6.48789 8.9844 6.64727 8.9344C6.75039 9.01877 6.80352 9.08752 6.90977 9.17502L6.38789 9.1594C6.20039 8.96252 6.05664 8.9719 5.92539 9.12815C5.82227 9.14377 5.78164 9.14377 5.71289 9.26565C5.81914 9.2219 5.88789 9.2094 5.93477 9.25627C6.13164 9.3719 6.25977 9.3469 6.35664 9.25627L6.90352 9.29065C6.83477 9.35315 6.74102 9.3844 6.66914 9.44065C6.38789 9.3594 6.23789 9.4719 6.18789 9.70002C6.14839 9.79147 6.1354 9.89217 6.15039 9.99065C6.17539 9.8969 6.22227 9.81877 6.30352 9.7719C6.55352 9.8344 6.64727 9.73127 6.66289 9.58127C6.78789 9.48127 6.96914 9.4594 7.09102 9.3594C7.23477 9.40315 7.30352 9.43127 7.44727 9.47815C7.49727 9.6344 7.61289 9.69377 7.80039 9.65315C8.01914 9.6594 7.98164 9.75315 8.00039 9.82502C8.06289 9.7219 8.05977 9.61877 7.92227 9.52502C7.87227 9.39065 7.75977 9.32815 7.61602 9.40627C7.47852 9.36877 7.44414 9.31252 7.30664 9.2719C7.65039 9.16252 7.89414 9.13752 8.23789 9.02815L8.47852 9.24065C8.52539 9.26877 8.56914 9.27502 8.59727 9.24065C8.81289 8.92815 8.90977 8.65627 9.10664 8.45002C9.18477 8.36252 9.28164 8.25002 9.38789 8.2219C9.44102 8.20627 9.50664 8.21565 9.55039 8.26252C9.59102 8.30627 9.62539 8.39065 9.61289 8.51877C9.59102 8.6969 9.54727 8.75627 9.49727 8.86252C9.44414 8.9719 9.38477 9.03752 9.31914 9.1219C9.19414 9.28752 9.02539 9.3844 8.92539 9.45002C8.72539 9.57815 8.64414 9.5219 8.48789 9.51252C8.28789 9.5344 8.23789 9.63127 8.40039 9.76565C8.55039 9.8469 8.68789 9.85627 8.80039 9.8344C8.89414 9.81565 9.00664 9.69377 9.08789 9.62815C9.17539 9.52502 9.32539 9.6469 9.22227 9.76877C9.03789 9.98752 8.85664 10.1313 8.62852 10.1281C8.38789 10.1594 8.43477 10.2938 8.59102 10.3594C8.87852 10.475 9.13477 10.2563 9.26602 10.1094C9.36602 10 9.43789 9.9969 9.42227 10.1688C9.31914 10.4781 9.18477 10.5969 8.95977 10.6125C8.77852 10.5938 8.77539 10.7375 8.90977 10.8313C9.20977 11.0375 9.42852 10.6813 9.53164 10.4688C9.60352 10.275 9.71602 10.3656 9.72852 10.525C9.72852 10.7406 9.63477 10.9125 9.37539 11.1313C9.57227 11.4469 9.80352 11.7688 10.0004 12.0844L10.6004 5.3969L10.0004 4.34377C9.93789 4.28752 9.72539 4.03752 9.67227 4.00002C9.65039 3.98127 9.64102 3.96877 9.66914 3.95627C9.69727 3.94377 9.76289 3.93127 9.80977 3.92502C9.68477 3.7969 9.57227 3.75627 9.33164 3.68752C9.39102 3.66252 9.44727 3.67502 9.62227 3.66877C9.51489 3.5245 9.36851 3.41391 9.20039 3.35002C9.33164 3.25627 9.35664 3.25002 9.48789 3.14065C9.28087 3.12466 9.07639 3.08481 8.87852 3.0219C8.76034 2.96574 8.63358 2.92983 8.50352 2.91565H8.50039ZM8.52539 3.17815C8.64414 3.17815 8.71602 3.21877 8.71602 3.26877C8.71602 3.31877 8.64414 3.3594 8.52539 3.3594C8.40664 3.3594 8.33164 3.31252 8.33164 3.26565C8.33164 3.21565 8.40664 3.17815 8.52539 3.17815Z" fill="black"/>
<path d="M11.4996 2.91565C11.6434 2.91565 11.884 2.96252 11.8809 3.0719C12.2871 3.00627 12.3277 3.1719 12.3027 3.3219C12.2652 3.26252 12.2184 3.22815 12.1809 3.22502C12.1277 3.21565 12.0715 3.2344 12.0121 3.26877C11.9561 3.30391 11.9056 3.34708 11.8621 3.3969C12.0059 3.43127 12.1184 3.4094 12.2309 3.39065C12.2944 3.3771 12.3549 3.35165 12.409 3.31565C12.4559 3.2844 12.4715 3.25315 12.5434 3.18127C12.6277 3.09377 12.7184 3.11877 12.6902 3.25315C12.6246 3.37815 12.5152 3.4344 12.3777 3.4594C12.3121 3.46877 12.2121 3.49065 12.0996 3.49065C11.9871 3.49065 11.8621 3.47502 11.7934 3.49065C11.834 3.51565 11.8809 3.56252 11.9746 3.57815C12.0684 3.5969 12.209 3.5219 12.2965 3.50315C12.2871 3.57502 12.1934 3.64377 12.0121 3.68127C11.7121 3.74377 11.4652 3.79377 11.2996 3.8844C11.1686 3.95743 11.053 4.05505 10.959 4.1719C10.8121 4.34377 10.8027 4.47815 10.7965 4.5094C10.7652 4.7844 10.8621 4.94065 11.0434 4.99065C11.1309 5.01252 11.2934 4.96877 11.3496 4.90002C11.4121 4.83127 11.4652 4.71252 11.4496 4.52502C11.434 4.45627 11.3527 4.26565 11.4215 4.22815C11.7473 4.04909 12.0845 3.89146 12.4309 3.75627C12.509 3.72502 12.5715 3.83127 12.5965 3.87502C12.8272 3.84286 13.0479 3.7597 13.2425 3.63159C13.4371 3.50348 13.6007 3.33364 13.7215 3.1344C13.8527 2.8969 14.0746 3.1344 14.0371 3.36252C13.9777 3.61252 13.7871 3.79377 13.5559 3.92502C13.3215 4.05315 13.0246 4.18127 12.7277 4.17502C12.5652 4.20627 12.5684 4.41252 12.759 4.45315C13.1371 4.45315 13.4402 4.4469 13.7246 4.1719C13.9402 3.97502 14.059 4.2094 13.9996 4.34065C13.8934 4.75002 13.309 4.86565 12.7184 4.7344C12.4871 4.6969 12.6246 4.94065 12.6871 4.94377C12.9371 5.1219 13.3777 5.29377 13.7684 4.94377C13.9465 4.80627 14.0684 4.91877 13.9996 5.11565C13.8277 5.63127 13.1652 5.5219 12.7121 5.2719C12.5965 5.20627 12.4902 5.35627 12.6309 5.4719C13.1965 5.86565 13.4777 5.8719 13.734 5.7219C14.0527 5.59377 14.0777 5.9469 13.8902 6.06565C13.6809 6.19065 13.1465 6.0969 12.7527 5.8469C12.584 5.7219 12.5777 5.91877 12.684 5.9969C13.1496 6.40002 13.334 6.50627 13.8184 6.44065C14.059 6.4219 14.0559 6.71877 13.8684 6.8344C13.609 6.99377 13.1027 6.73127 12.7121 6.40315C12.5465 6.31565 12.5184 6.4594 12.5996 6.63127C12.7726 6.87605 13.0078 7.07023 13.2809 7.19377C13.4996 7.27815 13.7059 7.26565 13.8527 7.21565C14.034 7.15315 14.0559 7.34065 13.9559 7.5094C13.8965 7.61252 13.6496 7.64377 13.3809 7.55002C13.1121 7.45627 12.8246 7.23127 12.6277 6.9719C12.4559 6.81877 12.4746 7.0219 12.5559 7.16565C12.9496 7.79065 13.3121 8.0219 13.7902 7.9844C13.9996 7.9469 14.0496 8.1094 13.9152 8.26565C13.6777 8.4594 13.384 8.45315 13.1215 8.2594C12.8934 8.04065 12.4527 7.5594 12.2215 7.30315C12.059 7.17502 12.0059 7.30315 12.0559 7.56565C12.0996 7.71565 12.2059 7.87815 12.5027 7.99065C12.7059 8.10627 12.5527 8.26565 12.4027 8.2719C12.3184 8.2719 12.1496 8.1719 12.0184 8.02815C11.8496 7.8344 11.8371 7.70627 11.7434 7.40627C11.6559 7.26252 11.4965 7.33127 11.4965 7.48127C11.5746 7.78127 11.6371 7.8344 11.7934 7.95627C11.9402 8.0969 11.6902 8.14377 11.6059 8.0844C11.3621 7.9219 11.2746 7.7094 11.1934 7.51565C11.1309 7.37815 10.9621 7.44377 11.0434 7.6719C11.2309 8.21565 11.5434 8.42815 12.084 8.54065C12.1371 8.55002 12.1715 8.58127 12.1527 8.64377L11.934 8.86252C12.2684 8.96252 12.5402 9.01877 12.8777 9.11252L13.3402 8.80627C13.3809 8.70627 13.4027 8.55002 13.6465 8.6594C13.809 8.5844 13.8871 8.61252 13.9777 8.69065C13.8465 8.69065 13.7902 8.72815 13.7371 8.78752C13.6684 8.96565 13.5121 8.9844 13.3527 8.9344C13.2496 9.01877 13.1965 9.08752 13.0902 9.17502L13.6121 9.1594C13.7996 8.96252 13.9434 8.9719 14.0746 9.12815C14.1777 9.14377 14.2184 9.14377 14.2871 9.26565C14.1809 9.2219 14.1121 9.2094 14.0652 9.25627C13.8684 9.3719 13.7402 9.3469 13.6434 9.25627L13.0965 9.29065C13.1652 9.35315 13.259 9.3844 13.3309 9.44065C13.6121 9.3594 13.7621 9.4719 13.8121 9.70002C13.8516 9.79147 13.8646 9.89217 13.8496 9.99065C13.8246 9.8969 13.7777 9.81877 13.6965 9.7719C13.4465 9.8344 13.3527 9.73127 13.3371 9.58127C13.2121 9.48127 13.0309 9.4594 12.909 9.3594C12.7652 9.40315 12.6965 9.43127 12.5527 9.47815C12.5027 9.6344 12.3871 9.69377 12.1996 9.65315C11.9809 9.6594 12.0184 9.75315 11.9996 9.82502C11.9371 9.7219 11.9402 9.61877 12.0777 9.52502C12.1277 9.39065 12.2402 9.32815 12.384 9.40627C12.5215 9.36877 12.5559 9.31252 12.6934 9.2719C12.3496 9.16252 12.1059 9.13752 11.7621 9.02815L11.5215 9.24065C11.4746 9.26877 11.4309 9.27502 11.4027 9.24065C11.1871 8.92815 11.0902 8.65627 10.8934 8.45002C10.8152 8.36252 10.7184 8.25002 10.6121 8.2219C10.559 8.20627 10.4934 8.21565 10.4496 8.26252C10.409 8.30627 10.3746 8.39065 10.3871 8.51877C10.409 8.6969 10.4527 8.75627 10.5027 8.86252C10.5559 8.9719 10.6152 9.03752 10.6809 9.1219C10.8059 9.28752 10.9746 9.3844 11.0746 9.45002C11.2746 9.57815 11.3559 9.5219 11.5121 9.51252C11.7121 9.5344 11.7621 9.63127 11.5996 9.76565C11.4496 9.8469 11.3121 9.85627 11.1996 9.8344C11.1059 9.81565 10.9934 9.69377 10.9121 9.62815C10.8246 9.52502 10.6746 9.6469 10.7777 9.76877C10.9621 9.98752 11.1434 10.1313 11.3715 10.1281C11.6121 10.1594 11.5652 10.2938 11.409 10.3594C11.1215 10.475 10.8652 10.2563 10.734 10.1094C10.634 10 10.5621 9.9969 10.5777 10.1688C10.6809 10.4781 10.8152 10.5969 11.0402 10.6125C11.2215 10.5938 11.2246 10.7375 11.0902 10.8313C10.7902 11.0375 10.5715 10.6813 10.4684 10.4688C10.3965 10.275 10.284 10.3656 10.2715 10.525C10.2715 10.7406 10.3652 10.9125 10.6246 11.1313C10.4277 11.4469 10.1965 11.7688 9.99961 12.0844L9.39961 5.3969L9.99961 4.34377C10.0621 4.28752 10.2746 4.03752 10.3277 4.00002C10.3496 3.98127 10.359 3.96877 10.3309 3.95627C10.3027 3.94377 10.2371 3.93127 10.1902 3.92502C10.3152 3.7969 10.4277 3.75627 10.6684 3.68752C10.609 3.66252 10.5527 3.67502 10.3777 3.66877C10.4851 3.5245 10.6315 3.41391 10.7996 3.35002C10.6684 3.25627 10.6434 3.25002 10.5121 3.14065C10.7191 3.12466 10.9236 3.08481 11.1215 3.0219C11.2397 2.96574 11.3664 2.92983 11.4965 2.91565H11.4996ZM11.4746 3.17815C11.3559 3.17815 11.284 3.21877 11.284 3.26877C11.284 3.31877 11.3559 3.3594 11.4746 3.3594C11.5934 3.3594 11.6684 3.31252 11.6684 3.26565C11.6684 3.21565 11.5934 3.17815 11.4746 3.17815Z" fill="black"/>
</g>
<defs>
<clipPath id="clip0_202_3047">
<rect width="20" height="15" fill="white"/>
</clipPath>
</defs>
</svg>
