<svg width="20" height="15" viewBox="0 0 20 15" fill="none" xmlns="http://www.w3.org/2000/svg">
<g clip-path="url(#clip0_202_3288)">
<path d="M10 0H20V15H10V0Z" fill="white"/>
<path d="M0 0H10V15H0V0Z" fill="#006233"/>
<path d="M13.2495 5.625C12.8368 4.91009 12.1997 4.35136 11.437 4.03545C10.6744 3.71955 9.82876 3.66412 9.03138 3.87778C8.23401 4.09144 7.52941 4.56223 7.02688 5.21715C6.52434 5.87206 6.25195 6.6745 6.25195 7.5C6.25195 8.3255 6.52434 9.12794 7.02688 9.78286C7.52941 10.4378 8.23401 10.9086 9.03138 11.1222C9.82876 11.3359 10.6744 11.2805 11.437 10.9645C12.1997 10.6486 12.8368 10.0899 13.2495 9.375C12.8611 9.8602 12.3315 10.2128 11.734 10.384C11.1365 10.5552 10.5006 10.5365 9.9141 10.3307C9.32763 10.1248 8.81958 9.74191 8.46015 9.23483C8.10073 8.72775 7.90767 8.12155 7.90767 7.5C7.90767 6.87845 8.10073 6.27225 8.46015 5.76517C8.81958 5.25809 9.32763 4.87516 9.9141 4.66931C10.5006 4.46346 11.1365 4.44485 11.734 4.61605C12.3315 4.78725 12.8611 5.13981 13.2495 5.625ZM13.3745 7.5L9.99955 6.4L12.0995 9.275V5.725L9.99955 8.6L13.3745 7.5Z" fill="#D21034"/>
</g>
<defs>
<clipPath id="clip0_202_3288">
<rect width="20" height="15" fill="white"/>
</clipPath>
</defs>
</svg>
