<svg width="20" height="15" viewBox="0 0 20 15" fill="none" xmlns="http://www.w3.org/2000/svg">
<g clip-path="url(#clip0_202_3059)">
<path d="M0 0H20V15H0V0Z" fill="black"/>
<path d="M0 0H20V7.5H0V0Z" fill="#CC092F"/>
<path fill-rule="evenodd" clip-rule="evenodd" d="M9.19922 5.14492H10.1163L10.3945 4.28149L10.68 5.14492H11.5971L10.8604 5.69307L11.1459 6.57144L10.3945 6.03834L9.65035 6.57144L9.93592 5.69307L9.19922 5.14492Z" fill="#FFCB00"/>
<path fill-rule="evenodd" clip-rule="evenodd" d="M12.5516 9.86764L11.8301 9.30439C12.5591 8.71129 13.0328 7.80279 13.0328 6.78927C13.0328 5.24262 11.928 3.94367 10.4696 3.63585L10.5824 3.11022C10.7853 3.15529 11.0235 3.24064 11.2189 3.30812L11.4068 2.99292C11.6096 3.09042 11.8353 3.18799 12.0231 3.30812L11.8803 3.64607C12.0683 3.76627 12.2952 3.95234 12.4213 4.09887L12.7036 3.87864C12.8539 4.04374 13.0344 4.21632 13.1622 4.39667L12.9066 4.65947C13.0716 4.90147 13.1354 5.01284 13.2571 5.29164L13.6157 5.20764C13.6834 5.41784 13.7862 5.67519 13.8239 5.89284L13.4844 6.02614C13.5249 6.1953 13.5774 6.49075 13.574 6.73927C13.5738 6.75422 13.5726 6.77117 13.5726 6.78622L13.9272 6.83674C13.9122 7.05454 13.9048 7.30237 13.8595 7.52007H13.4913C13.4387 7.74519 13.3709 8.02057 13.2883 8.23069L13.5963 8.41102C13.4987 8.60614 13.4011 8.83894 13.2733 9.02667L12.9351 8.8841C12.8072 9.07172 12.6645 9.25184 12.5066 9.41712L12.7245 9.70237C12.6645 9.75487 12.6118 9.80749 12.5516 9.86762M10.9658 9.80002L11.5107 10.128C11.4599 10.1744 11.3077 10.2532 11.2673 10.2691L11.3564 10.6108C11.146 10.6785 10.9204 10.776 10.6876 10.8211L10.5523 10.4832C10.3343 10.5282 10.1164 10.5582 9.8909 10.5582L9.84567 10.9111C9.63529 10.8961 9.37973 10.9111 9.14669 10.8585V10.5058C8.93618 10.4681 8.73325 10.4156 8.53791 10.348L8.36496 10.656C8.18459 10.5808 7.94409 10.4907 7.74857 10.3706L7.87642 10.0328C7.71849 9.95012 7.57571 9.84507 7.44043 9.7398L7.77868 9.31184C8.33496 9.75489 9.03391 10.0175 9.80062 10.0175C10.2066 10.0175 10.6048 9.95012 10.9658 9.80005" fill="#FFCB00"/>
<path fill-rule="evenodd" clip-rule="evenodd" d="M13.2381 10.6702L9.64086 7.93571L9.60808 7.98236L13.1961 10.7217L12.9831 10.9879L9.48539 8.74686C8.53835 8.15371 8.57595 7.68826 8.77139 7.18521L8.93677 6.77979C9.027 7.30536 9.56806 7.70339 10.1318 8.14624L13.3082 10.5837L13.2381 10.6702ZM14.1412 11.4852C14.1339 11.4852 14.1266 11.4838 14.1198 11.481C14.1131 11.4782 14.1069 11.474 14.1017 11.4688C14.0965 11.4636 14.0924 11.4575 14.0896 11.4507C14.0868 11.4439 14.0854 11.4366 14.0854 11.4293C14.0854 11.422 14.0869 11.4147 14.0897 11.4079C14.0925 11.4012 14.0966 11.395 14.1018 11.3898C14.1069 11.3846 14.1131 11.3805 14.1199 11.3777C14.1267 11.3749 14.1339 11.3735 14.1412 11.3735C14.1722 11.3735 14.1973 11.3985 14.1973 11.4293C14.1973 11.4366 14.1959 11.4439 14.1931 11.4507C14.1902 11.4575 14.1861 11.4637 14.1809 11.4689C14.1757 11.4741 14.1695 11.4782 14.1627 11.481C14.1559 11.4838 14.1486 11.4852 14.1412 11.4852ZM13.9263 11.3276C13.9114 11.3275 13.8972 11.3216 13.8867 11.3112C13.8762 11.3007 13.8703 11.2865 13.8703 11.2717C13.8703 11.2606 13.8735 11.2498 13.8797 11.2406C13.8858 11.2314 13.8946 11.2243 13.9048 11.22C13.915 11.2158 13.9263 11.2147 13.9371 11.2168C13.948 11.219 13.958 11.2243 13.9658 11.2321C13.9736 11.2399 13.979 11.2499 13.9811 11.2607C13.9833 11.2716 13.9822 11.2828 13.9779 11.293C13.9737 11.3032 13.9665 11.312 13.9573 11.3181C13.9481 11.3243 13.9373 11.3276 13.9263 11.3276ZM13.7063 11.1524C13.6754 11.1524 13.6503 11.1274 13.6503 11.0966C13.6507 11.0821 13.6568 11.0683 13.6673 11.0582C13.6777 11.0481 13.6917 11.0424 13.7062 11.0424C13.7208 11.0424 13.7348 11.0481 13.7452 11.0582C13.7557 11.0683 13.7617 11.0821 13.7622 11.0966C13.7622 11.1274 13.7371 11.1524 13.7063 11.1524ZM14.4459 11.4624L13.3681 10.6283L13.0549 11.0315L13.9912 11.6873C14.0664 11.7398 14.0738 11.9803 14.3518 12.0179C14.4647 12.0328 14.5397 11.9501 14.5397 11.9501C14.6608 11.8028 14.6278 11.6001 14.4459 11.4624Z" fill="#FFCB00"/>
</g>
<defs>
<clipPath id="clip0_202_3059">
<rect width="20" height="15" fill="white"/>
</clipPath>
</defs>
</svg>
