<svg width="20" height="15" viewBox="0 0 20 15" fill="none" xmlns="http://www.w3.org/2000/svg">
<g clip-path="url(#clip0_202_3080)">
<path d="M20 0H0V15H20V0Z" fill="#74ACDF"/>
<path d="M20 5.00012H0V10.0002H20V5.00012Z" fill="white"/>
<path d="M9.90039 7.5392L10.7535 9.39896C10.7535 9.39896 10.7682 9.43451 10.7918 9.42472C10.8155 9.41492 10.8008 9.37937 10.8008 9.37937L10.0898 7.46069M10.0694 8.18429C10.059 8.46713 10.2329 8.62268 10.2102 8.87525C10.1875 9.12785 10.3261 9.27065 10.3583 9.36887C10.3904 9.46711 10.3235 9.52584 10.3523 9.53982C10.3812 9.55381 10.4444 9.4762 10.4238 9.33655C10.4032 9.1969 10.2972 9.15545 10.3221 8.84695C10.347 8.53846 10.196 8.46661 10.2328 8.18521" fill="#F6B40E"/>
<path d="M9.90039 7.5392L10.7535 9.39896C10.7535 9.39896 10.7682 9.43451 10.7918 9.42472C10.8155 9.41492 10.8008 9.37937 10.8008 9.37937L10.0898 7.46069M10.0694 8.18429C10.059 8.46713 10.2329 8.62268 10.2102 8.87525C10.1875 9.12785 10.3261 9.27065 10.3583 9.36887C10.3904 9.46711 10.3235 9.52584 10.3523 9.53982C10.3812 9.55381 10.4444 9.4762 10.4238 9.33655C10.4032 9.1969 10.2972 9.15545 10.3221 8.84695C10.347 8.53846 10.196 8.46661 10.2328 8.18521" stroke="#85340A" stroke-width="0.03"/>
<path d="M9.8938 7.49978L9.9707 9.54464C9.9707 9.54464 9.97066 9.58311 9.9963 9.58313C10.0219 9.58315 10.0219 9.54467 10.0219 9.54467L10.0988 7.49978M9.80325 8.16049C9.68549 8.41782 9.78663 8.62811 9.66903 8.85275C9.55146 9.07743 9.62493 9.26245 9.61707 9.3655C9.60923 9.46858 9.52491 9.4972 9.54621 9.52116C9.56754 9.54514 9.65557 9.49763 9.68996 9.36073C9.72435 9.22383 9.64232 9.14496 9.78331 8.86948C9.92428 8.594 9.81227 8.4698 9.95384 8.2239" fill="#F6B40E"/>
<path d="M9.8938 7.49978L9.9707 9.54464C9.9707 9.54464 9.97066 9.58311 9.9963 9.58313C10.0219 9.58315 10.0219 9.54467 10.0219 9.54467L10.0988 7.49978M9.80325 8.16049C9.68549 8.41782 9.78663 8.62811 9.66903 8.85275C9.55146 9.07743 9.62493 9.26245 9.61707 9.3655C9.60923 9.46858 9.52491 9.4972 9.54621 9.52116C9.56754 9.54514 9.65557 9.49763 9.68996 9.36073C9.72435 9.22383 9.64232 9.14496 9.78331 8.86948C9.92428 8.594 9.81227 8.4698 9.95384 8.2239" stroke="#85340A" stroke-width="0.03"/>
<path d="M9.90057 7.46054L9.18957 9.37919C9.18957 9.37919 9.17483 9.41472 9.19851 9.42456C9.22219 9.43439 9.23689 9.39883 9.23689 9.39883L10.09 7.53905M9.56424 8.03629C9.35702 8.22893 9.37004 8.46194 9.17548 8.62445C8.98093 8.78701 8.97805 8.98608 8.93137 9.07828C8.88471 9.17051 8.79586 9.16466 8.80638 9.19495C8.81692 9.22528 8.91642 9.21509 9.00054 9.10178C9.08467 8.98847 9.03905 8.88419 9.27466 8.68367C9.51026 8.48314 9.45427 8.32551 9.67911 8.15254" fill="#F6B40E"/>
<path d="M9.90057 7.46054L9.18957 9.37919C9.18957 9.37919 9.17483 9.41472 9.19851 9.42456C9.22219 9.43439 9.23689 9.39883 9.23689 9.39883L10.09 7.53905M9.56424 8.03629C9.35702 8.22893 9.37004 8.46194 9.17548 8.62445C8.98093 8.78701 8.97805 8.98608 8.93137 9.07828C8.88471 9.17051 8.79586 9.16466 8.80638 9.19495C8.81692 9.22528 8.91642 9.21509 9.00054 9.10178C9.08467 8.98847 9.03905 8.88419 9.27466 8.68367C9.51026 8.48314 9.45427 8.32551 9.67911 8.15254" stroke="#85340A" stroke-width="0.03"/>
<path d="M9.92263 7.42726L8.53198 8.9276C8.53198 8.9276 8.50477 8.95478 8.52288 8.97294C8.541 8.99109 8.56818 8.96386 8.56818 8.96386L10.0676 7.57232M9.3917 7.83039C9.12659 7.92902 9.0495 8.14928 8.8076 8.22491C8.56569 8.3006 8.4869 8.48341 8.40851 8.55072C8.33013 8.61806 8.25028 8.57864 8.24841 8.61065C8.24655 8.64271 8.34237 8.67139 8.46343 8.59892C8.58449 8.52645 8.58222 8.41264 8.87658 8.31761C9.17094 8.22256 9.1795 8.05548 9.45338 7.98177" fill="#F6B40E"/>
<path d="M9.92263 7.42726L8.53198 8.9276C8.53198 8.9276 8.50477 8.95478 8.52288 8.97294C8.541 8.99109 8.56818 8.96386 8.56818 8.96386L10.0676 7.57232M9.3917 7.83039C9.12659 7.92902 9.0495 8.14928 8.8076 8.22491C8.56569 8.3006 8.4869 8.48341 8.40851 8.55072C8.33013 8.61806 8.25028 8.57864 8.24841 8.61065C8.24655 8.64271 8.34237 8.67139 8.46343 8.59892C8.58449 8.52645 8.58222 8.41264 8.87658 8.31761C9.17094 8.22256 9.1795 8.05548 9.45338 7.98177" stroke="#85340A" stroke-width="0.03"/>
<path d="M10.1248 8.2321C10.1384 8.50371 10.2923 8.62399 10.2621 8.87152C10.3285 8.67577 10.1685 8.52403 10.1776 8.23492M9.94824 7.52221L10.5325 8.79952L10.0429 7.48291" fill="#85340A"/>
<path d="M9.83463 8.22585C9.74331 8.48199 9.8395 8.65204 9.71692 8.86916C9.85308 8.71372 9.7633 8.51226 9.88227 8.24864M9.94298 7.50237L9.99425 8.90617L10.0455 7.50232" fill="#85340A"/>
<path d="M9.56908 8.10905C9.38675 8.31073 9.41058 8.50467 9.21429 8.65832C9.39954 8.56685 9.39363 8.34635 9.60437 8.14835M9.94586 7.48213L9.45636 8.79871L10.0406 7.52134" fill="#85340A"/>
<path d="M9.36902 7.89941C9.12344 8.01592 9.07128 8.20423 8.83117 8.27102C9.0373 8.25745 9.11618 8.05147 9.38659 7.94924M9.95688 7.4645L9.00112 8.49342L10.0294 7.53699" fill="#85340A"/>
<path d="M9.95572 7.40515L8.09713 8.25877C8.09713 8.25877 8.0616 8.27346 8.07139 8.29717C8.08118 8.32088 8.11671 8.30614 8.11671 8.30614L10.0342 7.59469M9.31104 7.57429C9.02838 7.56389 8.87292 7.73786 8.62051 7.71511C8.36807 7.69241 8.22536 7.83113 8.1272 7.8633C8.02903 7.8955 7.97033 7.8285 7.95636 7.85736C7.94239 7.88626 8.01994 7.94946 8.1595 7.92886C8.29906 7.90826 8.34049 7.80225 8.64879 7.82717C8.95709 7.85207 9.02889 7.70099 9.31012 7.73777" fill="#F6B40E"/>
<path d="M9.95572 7.40515L8.09713 8.25877C8.09713 8.25877 8.0616 8.27346 8.07139 8.29717C8.08118 8.32088 8.11671 8.30614 8.11671 8.30614L10.0342 7.59469M9.31104 7.57429C9.02838 7.56389 8.87292 7.73786 8.62051 7.71511C8.36807 7.69241 8.22536 7.83113 8.1272 7.8633C8.02903 7.8955 7.97033 7.8285 7.95636 7.85736C7.94239 7.88626 8.01994 7.94946 8.1595 7.92886C8.29906 7.90826 8.34049 7.80225 8.64879 7.82717C8.95709 7.85207 9.02889 7.70099 9.31012 7.73777" stroke="#85340A" stroke-width="0.03"/>
<path d="M9.99489 7.39732L7.95132 7.47427C7.95132 7.47427 7.91288 7.47423 7.91285 7.49989C7.91284 7.52554 7.9513 7.52552 7.9513 7.52552L9.9949 7.60248M9.3346 7.30672C9.07744 7.18888 8.86728 7.29008 8.64278 7.17241C8.41824 7.05476 8.23334 7.12828 8.13035 7.12042C8.02734 7.11257 7.99873 7.0282 7.97479 7.04951C7.95082 7.07086 7.9983 7.15895 8.13512 7.19335C8.27193 7.22776 8.35075 7.14568 8.62606 7.28676C8.90136 7.42782 9.02548 7.31574 9.27123 7.4574" fill="#F6B40E"/>
<path d="M9.99489 7.39732L7.95132 7.47427C7.95132 7.47427 7.91288 7.47423 7.91285 7.49989C7.91284 7.52554 7.95129 7.52552 7.95129 7.52552L9.9949 7.60248M9.3346 7.30672C9.07744 7.18888 8.86728 7.29008 8.64278 7.17241C8.41824 7.05476 8.23334 7.12828 8.13035 7.12042C8.02734 7.11257 7.99873 7.0282 7.97479 7.04951C7.95082 7.07086 7.9983 7.15895 8.13512 7.19335C8.27193 7.22776 8.35075 7.14568 8.62606 7.28676C8.90136 7.42782 9.02548 7.31574 9.27123 7.4574" stroke="#85340A" stroke-width="0.03"/>
<path d="M10.0353 7.40506L8.1179 6.69361C8.1179 6.69361 8.0824 6.67886 8.07256 6.70255C8.06273 6.72624 8.09827 6.74095 8.09827 6.74095L9.95688 7.59459M9.45996 7.06851C9.26744 6.86116 9.03457 6.87418 8.87217 6.6795C8.70971 6.48483 8.51077 6.48195 8.41862 6.43525C8.32645 6.38855 8.33229 6.29965 8.30202 6.31017C8.27171 6.32072 8.2819 6.42028 8.39514 6.50446C8.50838 6.58864 8.61259 6.54299 8.81298 6.77875C9.01338 7.01449 9.17092 6.95847 9.34378 7.18345" fill="#F6B40E"/>
<path d="M10.0353 7.40506L8.1179 6.69361C8.1179 6.69361 8.0824 6.67886 8.07256 6.70255C8.06273 6.72624 8.09827 6.74095 8.09827 6.74095L9.95688 7.59459M9.45996 7.06851C9.26744 6.86116 9.03457 6.87418 8.87217 6.6795C8.70971 6.48483 8.51077 6.48195 8.41862 6.43525C8.32645 6.38855 8.33229 6.29964 8.30202 6.31017C8.27172 6.32072 8.2819 6.42028 8.39514 6.50446C8.50838 6.58864 8.61259 6.54299 8.81298 6.77875C9.01338 7.01449 9.17092 6.95847 9.34378 7.18345" stroke="#85340A" stroke-width="0.03"/>
<path d="M10.0676 7.42734L8.56823 6.03582C8.56823 6.03582 8.54108 6.00859 8.52293 6.02671C8.50479 6.04484 8.53199 6.07204 8.53199 6.07204L9.92266 7.57241M9.66476 6.89608C9.56619 6.6308 9.34607 6.55366 9.27048 6.31161C9.19484 6.06955 9.01214 5.99071 8.94488 5.91228C8.87758 5.83384 8.91698 5.75394 8.88498 5.75207C8.85295 5.75021 8.82428 5.84609 8.89671 5.96723C8.96914 6.08836 9.08287 6.08609 9.17785 6.38064C9.27284 6.67518 9.43981 6.68374 9.51347 6.9578" fill="#F6B40E"/>
<path d="M10.0676 7.42734L8.56823 6.03582C8.56823 6.03582 8.54108 6.00859 8.52293 6.02671C8.50479 6.04484 8.53199 6.07204 8.53199 6.07204L9.92266 7.57241M9.66476 6.89608C9.56619 6.6308 9.34607 6.55366 9.27048 6.31161C9.19484 6.06955 9.01214 5.99071 8.94488 5.91228C8.87758 5.83384 8.91698 5.75394 8.88498 5.75207C8.85295 5.75021 8.82428 5.84609 8.89671 5.96723C8.96914 6.08836 9.08287 6.08609 9.17785 6.38064C9.27284 6.67518 9.43981 6.68374 9.51347 6.9578" stroke="#85340A" stroke-width="0.03"/>
<path d="M9.26398 7.62921C8.99253 7.64281 8.87233 7.79682 8.62496 7.76658C8.82058 7.83297 8.97223 7.67288 9.26116 7.68198M9.97342 7.45251L8.69691 8.03712L10.0127 7.54725" fill="#85340A"/>
<path d="M9.26999 7.33907C9.01401 7.24769 8.84406 7.34394 8.62709 7.22128C8.78242 7.35753 8.98376 7.26769 9.24721 7.38674M9.99301 7.44748L8.59009 7.49879L9.99306 7.55005" fill="#85340A"/>
<path d="M9.38575 7.07358C9.1842 6.89114 8.99038 6.91499 8.83683 6.71857C8.92823 6.90394 9.1486 6.89803 9.34647 7.1089M10.0123 7.4506L8.69652 6.96079L9.97309 7.54538" fill="#85340A"/>
<path d="M9.59525 6.8729C9.47882 6.62716 9.29063 6.57497 9.22389 6.33471C9.23744 6.54097 9.44329 6.6199 9.54546 6.89048M10.0299 7.46113L9.00162 6.50477L9.95745 7.53369" fill="#85340A"/>
<path d="M10.0898 7.46067L9.23676 5.60091C9.23676 5.60091 9.22208 5.56536 9.19838 5.57516C9.17469 5.58496 9.18943 5.6205 9.18943 5.6205L9.90043 7.53918M9.92082 6.81558C9.9312 6.53275 9.75734 6.37719 9.78008 6.12462C9.80277 5.87202 9.66413 5.72922 9.63198 5.631C9.5998 5.53277 9.66676 5.47404 9.63792 5.46006C9.60903 5.44607 9.54588 5.52368 9.56646 5.66333C9.58705 5.80297 9.693 5.84443 9.66809 6.15293C9.64321 6.46142 9.79419 6.53327 9.75744 6.81467" fill="#F6B40E"/>
<path d="M10.0898 7.46067L9.23676 5.60091C9.23676 5.60091 9.22208 5.56536 9.19838 5.57516C9.17469 5.58496 9.18943 5.6205 9.18943 5.6205L9.90043 7.53918M9.92082 6.81558C9.9312 6.53275 9.75734 6.37719 9.78008 6.12462C9.80277 5.87202 9.66413 5.72922 9.63198 5.631C9.5998 5.53277 9.66676 5.47404 9.63792 5.46006C9.60903 5.44607 9.54588 5.52368 9.56646 5.66333C9.58705 5.80297 9.693 5.84443 9.66809 6.15293C9.64321 6.46142 9.79419 6.53327 9.75744 6.81467" stroke="#85340A" stroke-width="0.03"/>
<path d="M10.0984 7.5001L10.0215 5.45524C10.0215 5.45524 10.0215 5.41677 9.99589 5.41674C9.97025 5.41673 9.97027 5.45521 9.97027 5.45521L9.89336 7.5001M10.1889 6.83939C10.3067 6.58206 10.2056 6.37177 10.3232 6.14713C10.4407 5.92245 10.3673 5.73743 10.3751 5.63438C10.383 5.5313 10.4673 5.50267 10.446 5.47872C10.4246 5.45474 10.3366 5.50225 10.3022 5.63915C10.2678 5.77605 10.3499 5.85492 10.2089 6.1304C10.0679 6.40588 10.1799 6.53007 10.0383 6.77598" fill="#F6B40E"/>
<path d="M10.0984 7.5001L10.0215 5.45524C10.0215 5.45524 10.0215 5.41677 9.99589 5.41674C9.97025 5.41673 9.97027 5.45521 9.97027 5.45521L9.89336 7.5001M10.1889 6.83939C10.3067 6.58206 10.2056 6.37177 10.3232 6.14713C10.4407 5.92245 10.3673 5.73743 10.3751 5.63438C10.383 5.5313 10.4673 5.50267 10.446 5.47872C10.4246 5.45474 10.3366 5.50225 10.3022 5.63915C10.2678 5.77605 10.3499 5.85492 10.2089 6.1304C10.0679 6.40588 10.1799 6.53007 10.0383 6.77598" stroke="#85340A" stroke-width="0.03"/>
<path d="M10.0897 7.53933L10.8007 5.62068C10.8007 5.62068 10.8154 5.58516 10.7917 5.57532C10.768 5.56548 10.7533 5.60105 10.7533 5.60105L9.90024 7.46083M10.426 6.96359C10.6332 6.77095 10.6202 6.53793 10.8148 6.37543C11.0093 6.21287 11.0122 6.0138 11.0589 5.9216C11.1055 5.82937 11.1944 5.83521 11.1839 5.80492C11.1733 5.7746 11.0738 5.78479 10.9897 5.8981C10.9056 6.01141 10.9512 6.11569 10.7156 6.31621C10.48 6.51673 10.536 6.67437 10.3111 6.84734" fill="#F6B40E"/>
<path d="M10.0897 7.53933L10.8007 5.62068C10.8007 5.62068 10.8154 5.58516 10.7917 5.57532C10.768 5.56548 10.7533 5.60105 10.7533 5.60105L9.90024 7.46083M10.426 6.96359C10.6332 6.77095 10.6202 6.53793 10.8148 6.37543C11.0093 6.21287 11.0122 6.0138 11.0589 5.9216C11.1055 5.82937 11.1944 5.83521 11.1839 5.80492C11.1733 5.7746 11.0738 5.78479 10.9897 5.8981C10.9056 6.01141 10.9512 6.11569 10.7156 6.31621C10.48 6.51673 10.536 6.67437 10.3111 6.84734" stroke="#85340A" stroke-width="0.03"/>
<path d="M10.0676 7.57262L11.4583 6.07227C11.4583 6.07227 11.4855 6.0451 11.4674 6.02694C11.4492 6.00879 11.4221 6.03601 11.4221 6.03601L9.92263 7.42755M10.5985 7.16949C10.8636 7.07086 10.9407 6.8506 11.1826 6.77496C11.4245 6.69928 11.5033 6.51646 11.5817 6.44916C11.6601 6.38182 11.74 6.42124 11.7418 6.38923C11.7437 6.35717 11.6479 6.32848 11.5268 6.40096C11.4057 6.47343 11.408 6.58724 11.1136 6.68227C10.8193 6.77732 10.8107 6.9444 10.5369 7.0181" fill="#F6B40E"/>
<path d="M10.0676 7.57262L11.4583 6.07227C11.4583 6.07227 11.4855 6.0451 11.4674 6.02694C11.4492 6.00879 11.4221 6.03601 11.4221 6.03601L9.92263 7.42755M10.5985 7.16949C10.8636 7.07086 10.9407 6.8506 11.1826 6.77496C11.4245 6.69928 11.5033 6.51646 11.5817 6.44916C11.6601 6.38182 11.74 6.42124 11.7418 6.38923C11.7437 6.35717 11.6479 6.32848 11.5268 6.40096C11.4057 6.47343 11.408 6.58724 11.1136 6.68227C10.8193 6.77732 10.8107 6.9444 10.5369 7.0181" stroke="#85340A" stroke-width="0.03"/>
<path d="M9.8654 6.76778C9.85181 6.49616 9.69791 6.37589 9.72813 6.12836C9.66177 6.3241 9.82177 6.47585 9.81268 6.76496M10.042 7.47767L9.45775 6.20036L9.94731 7.51697" fill="#85340A"/>
<path d="M10.1556 6.77403C10.2469 6.51789 10.1507 6.34783 10.2733 6.13072C10.1372 6.28616 10.2269 6.48762 10.108 6.75124M10.0473 7.49751L9.99599 6.0937L9.94475 7.49756" fill="#85340A"/>
<path d="M10.4212 6.89083C10.6035 6.68915 10.5797 6.49521 10.7759 6.34156C10.5907 6.43303 10.5966 6.65353 10.3859 6.85153M10.0444 7.51774L10.5339 6.20117L9.94965 7.47854" fill="#85340A"/>
<path d="M10.6212 7.10046C10.8668 6.98396 10.919 6.79565 11.1591 6.72886C10.9529 6.74243 10.8741 6.94841 10.6036 7.05064M10.0334 7.53538L10.9891 6.50646L9.96084 7.46289" fill="#85340A"/>
<path d="M10.0355 7.59473L11.8941 6.74111C11.8941 6.74111 11.9296 6.72642 11.9198 6.70271C11.91 6.679 11.8745 6.69374 11.8745 6.69374L9.95703 7.40519M10.6802 7.42559C10.9628 7.43599 11.1183 7.26201 11.3707 7.28476C11.6231 7.30747 11.7659 7.16874 11.864 7.13658C11.9622 7.10438 12.0209 7.17138 12.0348 7.14252C12.0488 7.11361 11.9713 7.05042 11.8317 7.07102C11.6921 7.09162 11.6507 7.19763 11.3424 7.17271C11.0341 7.14781 10.9623 7.29889 10.6811 7.26211" fill="#F6B40E"/>
<path d="M10.0355 7.59473L11.8941 6.74111C11.8941 6.74111 11.9296 6.72642 11.9198 6.70271C11.91 6.679 11.8745 6.69374 11.8745 6.69374L9.95703 7.40519M10.6802 7.42559C10.9628 7.43599 11.1183 7.26201 11.3707 7.28476C11.6231 7.30747 11.7659 7.16874 11.864 7.13658C11.9622 7.10438 12.0209 7.17138 12.0348 7.14252C12.0488 7.11361 11.9713 7.05042 11.8317 7.07102C11.6921 7.09162 11.6507 7.19763 11.3424 7.17271C11.0341 7.14781 10.9623 7.29889 10.6811 7.26211" stroke="#85340A" stroke-width="0.03"/>
<path d="M9.99632 7.60255L12.0399 7.52561C12.0399 7.52561 12.0783 7.52565 12.0784 7.49999C12.0784 7.47434 12.0399 7.47436 12.0399 7.47436L9.99631 7.3974M10.6566 7.69316C10.9138 7.811 11.1239 7.7098 11.3484 7.82747C11.573 7.94511 11.7579 7.8716 11.8609 7.87946C11.9639 7.88731 11.9925 7.97168 12.0164 7.95037C12.0404 7.92902 11.9929 7.84093 11.8561 7.80652C11.7193 7.77212 11.6405 7.85419 11.3652 7.71312C11.0898 7.57206 10.9657 7.68414 10.72 7.54247" fill="#F6B40E"/>
<path d="M9.99632 7.60255L12.0399 7.52561C12.0399 7.52561 12.0783 7.52565 12.0784 7.49999C12.0784 7.47434 12.0399 7.47436 12.0399 7.47436L9.99631 7.3974M10.6566 7.69316C10.9138 7.811 11.1239 7.7098 11.3484 7.82747C11.573 7.94511 11.7579 7.8716 11.8609 7.87946C11.9639 7.88731 11.9925 7.97168 12.0164 7.95037C12.0404 7.92902 11.9929 7.84093 11.8561 7.80652C11.7193 7.77212 11.6405 7.85419 11.3652 7.71312C11.0898 7.57206 10.9657 7.68414 10.72 7.54247" stroke="#85340A" stroke-width="0.03"/>
<path d="M9.95587 7.59482L11.8733 8.30627C11.8733 8.30627 11.9088 8.32102 11.9187 8.29733C11.9285 8.27364 11.8929 8.25893 11.8929 8.25893L10.0343 7.40529M10.5313 7.93137C10.7238 8.13872 10.9566 8.12569 11.119 8.32037C11.2815 8.51505 11.4804 8.51793 11.5726 8.56463C11.6648 8.61132 11.6589 8.70023 11.6892 8.68971C11.7195 8.67916 11.7093 8.5796 11.5961 8.49542C11.4828 8.41124 11.3786 8.45689 11.1782 8.22113C10.9778 7.98539 10.8203 8.04141 10.6474 7.81642" fill="#F6B40E"/>
<path d="M9.95587 7.59482L11.8733 8.30627C11.8733 8.30627 11.9088 8.32102 11.9187 8.29733C11.9285 8.27364 11.8929 8.25893 11.8929 8.25893L10.0343 7.40529M10.5313 7.93137C10.7238 8.13872 10.9566 8.12569 11.119 8.32037C11.2815 8.51505 11.4804 8.51793 11.5726 8.56463C11.6648 8.61132 11.6589 8.70023 11.6892 8.68971C11.7195 8.67916 11.7093 8.5796 11.5961 8.49542C11.4828 8.41124 11.3786 8.45689 11.1782 8.22113C10.9778 7.98539 10.8203 8.04141 10.6474 7.81642" stroke="#85340A" stroke-width="0.03"/>
<path d="M9.92358 7.57253L11.423 8.96406C11.423 8.96406 11.4501 8.99128 11.4683 8.97316C11.4864 8.95504 11.4592 8.92784 11.4592 8.92784L10.0686 7.42747M10.3265 8.10379C10.425 8.36908 10.6451 8.44622 10.7207 8.68827C10.7964 8.93033 10.9791 9.00917 11.0463 9.0876C11.1136 9.16603 11.0742 9.24594 11.1062 9.24781C11.1383 9.24967 11.1669 9.15378 11.0945 9.03265C11.0221 8.91152 10.9083 8.91379 10.8134 8.61924C10.7184 8.3247 10.5514 8.31614 10.4777 8.04208" fill="#F6B40E"/>
<path d="M9.92358 7.57253L11.423 8.96406C11.423 8.96406 11.4501 8.99129 11.4683 8.97316C11.4864 8.95504 11.4592 8.92784 11.4592 8.92784L10.0686 7.42747M10.3265 8.10379C10.425 8.36908 10.6451 8.44622 10.7207 8.68827C10.7964 8.93033 10.9791 9.00917 11.0463 9.0876C11.1136 9.16603 11.0742 9.24594 11.1062 9.24781C11.1383 9.24967 11.1669 9.15378 11.0945 9.03265C11.0221 8.91152 10.9083 8.91379 10.8134 8.61924C10.7184 8.3247 10.5514 8.31614 10.4777 8.04208" stroke="#85340A" stroke-width="0.03"/>
<path d="M10.7272 7.37066C10.9987 7.35706 11.1189 7.20306 11.3663 7.2333C11.1706 7.1669 11.019 7.327 10.7301 7.3179M10.0178 7.54736L11.2943 6.96275L9.97852 7.45262" fill="#85340A"/>
<path d="M10.7212 7.66081C10.9772 7.75218 11.1471 7.65593 11.3641 7.7786C11.2088 7.64234 11.0075 7.73219 10.744 7.61314M9.9982 7.55239L11.4011 7.50109L9.99815 7.44983" fill="#85340A"/>
<path d="M10.6055 7.9263C10.807 8.10874 11.0008 8.08489 11.1544 8.28131C11.063 8.09594 10.8426 8.10185 10.6447 7.89098M9.97894 7.54927L11.2947 8.03909L10.0181 7.45449" fill="#85340A"/>
<path d="M10.396 8.12698C10.5124 8.37272 10.7006 8.4249 10.7673 8.66516C10.7538 8.45891 10.5479 8.37998 10.4458 8.1094M9.96132 7.53875L10.9896 8.49511L10.0338 7.46619" fill="#85340A"/>
<path d="M9.9959 8.33331C10.4559 8.33331 10.8287 7.96021 10.8287 7.49997C10.8287 7.03973 10.4559 6.66663 9.9959 6.66663C9.53595 6.66663 9.16309 7.03973 9.16309 7.49997C9.16309 7.96021 9.53595 8.33331 9.9959 8.33331Z" fill="#F6B40E" stroke="#85340A" stroke-width="0.03"/>
<path d="M10.2801 7.32166C10.2232 7.32166 10.1687 7.34631 10.1367 7.39759C10.2008 7.45527 10.3423 7.46155 10.4384 7.39103C10.3968 7.34617 10.3369 7.32166 10.2801 7.32166ZM10.2791 7.33478C10.3345 7.33378 10.3862 7.35922 10.3934 7.38447C10.3294 7.45498 10.227 7.44886 10.163 7.39759C10.191 7.35272 10.2361 7.33556 10.2791 7.33478Z" fill="#843511"/>
<path d="M10.2909 7.28212C10.2076 7.28212 10.1884 7.30137 10.1499 7.33342C10.1115 7.36547 10.0923 7.35904 10.0859 7.36547C10.0795 7.37189 10.0859 7.39109 10.0987 7.38467C10.1115 7.37824 10.1371 7.36547 10.1755 7.33341C10.214 7.30132 10.2524 7.30136 10.2908 7.30136C10.4061 7.30136 10.4702 7.3975 10.483 7.39108C10.4958 7.38465 10.4189 7.2821 10.2908 7.2821L10.2909 7.28212Z" fill="#85340A"/>
<path d="M10.5215 7.32037C10.3741 7.19218 10.1884 7.17293 10.0859 7.26911C10.0608 7.30273 10.0447 7.33868 10.0381 7.3762C10.0252 7.44919 10.048 7.52805 10.1051 7.60888C10.0987 7.60885 10.0859 7.61525 10.0795 7.62167C10.0286 7.52435 10.0106 7.42439 10.0273 7.32931C10.0317 7.30447 10.0385 7.28002 10.0474 7.25624C10.1883 7.14088 10.3805 7.12805 10.5214 7.32037L10.5215 7.32037Z" fill="#85340A"/>
<path d="M10.2774 7.44216C10.3092 7.44216 10.335 7.41633 10.335 7.38447C10.335 7.35261 10.3092 7.32678 10.2774 7.32678C10.2455 7.32678 10.2197 7.35261 10.2197 7.38447C10.2197 7.41633 10.2455 7.44216 10.2774 7.44216Z" fill="#85340A"/>
<path d="M10.4443 7.42295C10.3354 7.5063 10.2265 7.49989 10.1625 7.46141C10.0984 7.42295 10.0984 7.41016 10.1112 7.41016C10.124 7.41016 10.1368 7.42295 10.188 7.44859C10.2393 7.47426 10.3162 7.47426 10.4443 7.42296L10.4443 7.42295Z" fill="#85340A"/>
<path d="M9.86911 7.61499C9.84173 7.61999 9.82227 7.64431 9.82227 7.67218C9.82227 7.70402 9.84857 7.72936 9.88035 7.72936C9.89914 7.72936 9.91641 7.72046 9.9272 7.70499C9.94937 7.72167 9.9801 7.72344 9.99653 7.72374C9.99906 7.7238 10.0023 7.72374 10.004 7.72374C10.0205 7.72344 10.0512 7.72167 10.0734 7.70499C10.0842 7.72046 10.1014 7.72936 10.1202 7.72936C10.152 7.72936 10.1783 7.70402 10.1783 7.67218C10.1783 7.64431 10.1588 7.61999 10.1314 7.61499C10.1468 7.62042 10.1567 7.63529 10.1567 7.65155C10.1567 7.67278 10.1396 7.68999 10.1183 7.68999C10.0979 7.68999 10.0811 7.67379 10.0799 7.65343C10.0737 7.66592 10.0489 7.70308 10.0003 7.70499C9.95165 7.70308 9.9269 7.66592 9.92065 7.65343C9.91945 7.67378 9.90263 7.68999 9.88224 7.68999C9.86095 7.68999 9.84382 7.67278 9.84382 7.65155C9.84382 7.63529 9.85373 7.62042 9.86911 7.61499Z" fill="#85340A"/>
<path d="M9.93127 7.78577C9.86717 7.78577 9.84184 7.84387 9.78418 7.88233C9.81622 7.86954 9.84143 7.84425 9.8863 7.81858C9.93115 7.79295 9.9694 7.82421 9.99498 7.82421H9.99592C10.0215 7.82421 10.0597 7.79296 10.1046 7.81858C10.1495 7.84426 10.1756 7.86954 10.2077 7.88233C10.15 7.84387 10.1237 7.78577 10.0596 7.78577C10.0468 7.78577 10.0215 7.79268 9.99592 7.80545H9.99498C9.9694 7.79266 9.94407 7.78577 9.93127 7.78577Z" fill="#85340A"/>
<path d="M9.90954 7.86153C9.88424 7.86265 9.85079 7.86773 9.80273 7.88215C9.91808 7.85652 9.94353 7.89528 9.9948 7.89528H9.99574C10.047 7.89528 10.0725 7.85652 10.1878 7.88215C10.0596 7.84369 10.0342 7.86903 9.99574 7.86903H9.9948C9.97078 7.86903 9.95171 7.85966 9.90954 7.86153Z" fill="#85340A"/>
<path d="M9.80854 7.88163C9.8011 7.88172 9.79299 7.88178 9.78418 7.88257C9.91873 7.8954 9.85405 7.97257 9.99498 7.97257H9.99592C10.1369 7.97257 10.0731 7.89539 10.2077 7.88257C10.0667 7.86977 10.1113 7.95288 9.99592 7.95288H9.99498C9.88683 7.95288 9.92016 7.88023 9.80854 7.88163Z" fill="#85340A"/>
<path d="M10.1115 8.08976C10.1115 8.02606 10.0598 7.97437 9.99618 7.97437C9.93252 7.97437 9.88086 8.02606 9.88086 8.08976C9.89354 8.03633 9.94132 7.99858 9.99618 7.99858C10.0511 7.99858 10.0988 8.03634 10.1115 8.08976Z" fill="#85340A"/>
<path d="M9.47852 7.32037C9.62586 7.19218 9.81161 7.17293 9.91414 7.26911C9.93924 7.30273 9.95531 7.33868 9.96191 7.3762C9.97481 7.44919 9.95201 7.52805 9.89485 7.60888C9.9013 7.60885 9.91415 7.61525 9.92054 7.62167C9.97141 7.52435 9.9894 7.42439 9.97271 7.32931C9.96834 7.30447 9.96151 7.28002 9.95263 7.25624C9.8117 7.14088 9.61954 7.12805 9.4786 7.32037L9.47852 7.32037Z" fill="#85340A"/>
<path d="M9.70816 7.28212C9.79141 7.28212 9.81065 7.30137 9.84909 7.33342C9.88756 7.36547 9.90675 7.35904 9.91315 7.36547C9.91952 7.37189 9.91315 7.39109 9.90036 7.38467C9.88757 7.37824 9.86188 7.36547 9.82351 7.33341C9.78503 7.30132 9.74666 7.30136 9.70819 7.30136C9.59288 7.30136 9.52882 7.3975 9.51603 7.39108C9.50324 7.38465 9.58009 7.2821 9.70819 7.2821L9.70816 7.28212Z" fill="#85340A"/>
<path d="M9.70389 7.32153C9.64703 7.32154 9.59257 7.34619 9.56055 7.39747C9.62461 7.45515 9.76611 7.46142 9.86222 7.39091C9.82059 7.34605 9.76076 7.32153 9.70389 7.32153ZM9.70296 7.33466C9.75831 7.33365 9.81004 7.35909 9.81726 7.38435C9.7532 7.45486 9.65084 7.44873 9.58678 7.39747C9.61481 7.3526 9.65991 7.33544 9.70296 7.33466Z" fill="#843511"/>
<path d="M9.71293 7.44204C9.74477 7.44204 9.77058 7.41621 9.77058 7.38435C9.77058 7.35249 9.74477 7.32666 9.71293 7.32666C9.68109 7.32666 9.65527 7.35249 9.65527 7.38435C9.65527 7.41621 9.68109 7.44204 9.71293 7.44204Z" fill="#85340A"/>
<path d="M9.55469 7.42308C9.6636 7.50643 9.7725 7.50001 9.83656 7.46154C9.90062 7.42308 9.90062 7.41028 9.88783 7.41028C9.87504 7.41028 9.86225 7.42308 9.81098 7.44871C9.75971 7.47439 9.68287 7.47439 9.55476 7.42309L9.55469 7.42308Z" fill="#85340A"/>
</g>
<defs>
<clipPath id="clip0_202_3080">
<rect width="20" height="15" fill="white"/>
</clipPath>
</defs>
</svg>
