<svg width="20" height="15" viewBox="0 0 20 15" fill="none" xmlns="http://www.w3.org/2000/svg">
<g clip-path="url(#clip0_202_3108)">
<path d="M0 0H20V15H0V0Z" fill="#000066"/>
<path fill-rule="evenodd" clip-rule="evenodd" d="M9.36836 12.2656L8.00273 12.3843L8.19023 13.7406L7.24961 12.75L6.30898 13.7406L6.49648 12.3843L5.13086 12.2656L6.30898 11.5687L5.54961 10.4281L6.83086 10.9125L7.24961 9.60935L7.67148 10.9125L8.95273 10.4281L8.19336 11.5687M15.2059 13.5156L14.8746 13.0219L15.4309 13.2312L15.6121 12.6656L15.7934 13.2312L16.3496 13.0219L16.0215 13.5156L16.534 13.8187L15.9402 13.8719L16.0215 14.4625L15.6152 14.0281L15.2027 14.4625L15.284 13.8719L14.6902 13.8218M15.2027 4.69998L14.8746 4.20623L15.4309 4.4156L15.6121 3.84998L15.7934 4.4156L16.3496 4.20623L16.0215 4.69998L16.534 5.00623L15.9402 5.05623L16.0215 5.64685L15.6152 5.2156L15.2027 5.64373L15.284 5.05623L14.6902 5.00623M11.8996 8.28123L11.5715 7.78748L12.1277 7.99685L12.309 7.43123L12.4934 7.99685L13.0496 7.78748L12.7184 8.28123L13.2309 8.58435L12.6371 8.63748L12.7215 9.2281L12.309 8.79373L11.9027 9.2281L11.9809 8.63748L11.3871 8.58748M18.1465 7.39998L17.8121 6.90623L18.3684 7.1156L18.5496 6.54998L18.734 7.1156L19.2902 6.90623L18.9621 7.39998L19.4715 7.7031L18.8777 7.75623L18.959 8.34373L18.5527 7.91248L18.1402 8.34373L18.2215 7.75623L17.6277 7.7031M16.9371 9.99998L16.6152 10.2031L16.7059 9.83123L16.4152 9.58748L16.7934 9.55623L16.9371 9.20623L17.084 9.55935L17.4621 9.58748L17.1715 9.83123L17.2621 10.2031" fill="white"/>
<path d="M0 0H10V7.5H0V0Z" fill="#000066"/>
<path d="M1.17188 0L4.98438 2.82812L8.78125 0H10V0.96875L6.25 3.76562L10 6.54688V7.5H8.75L5 4.70312L1.26562 7.5H0V6.5625L3.73438 3.78125L0 1V0H1.17188Z" fill="white"/>
<path d="M6.625 4.39062L10 6.875V7.5L5.76562 4.39062H6.625ZM3.75 4.70312L3.84375 5.25L0.84375 7.5H0L3.75 4.70312ZM10 0V0.046875L6.10938 2.98438L6.14062 2.29688L9.21875 0H10ZM0 0L3.73438 2.75H2.79688L0 0.65625V0Z" fill="#C8102E"/>
<path d="M3.76562 0V7.5H6.26562V0H3.76562ZM0 2.5V5H10V2.5H0Z" fill="white"/>
<path d="M0 3.01562V4.51562H10V3.01562H0ZM4.26562 0V7.5H5.76562V0H4.26562Z" fill="#C8102E"/>
</g>
<defs>
<clipPath id="clip0_202_3108">
<rect width="20" height="15" fill="white"/>
</clipPath>
</defs>
</svg>
