<svg width="20" height="15" viewBox="0 0 20 15" fill="none" xmlns="http://www.w3.org/2000/svg">
<g clip-path="url(#clip0_202_3125)">
<path d="M0.00292969 0H20.0029V15H0.00292969V0Z" fill="#3F9C35"/>
<path d="M0.00292969 0H20.0029V10H0.00292969V0Z" fill="#ED2939"/>
<path d="M0.00292969 0H20.0029V5H0.00292969V0Z" fill="#00B9E4"/>
<path d="M9.5 9.75C10.7426 9.75 11.75 8.74264 11.75 7.5C11.75 6.25736 10.7426 5.25 9.5 5.25C8.25736 5.25 7.25 6.25736 7.25 7.5C7.25 8.74264 8.25736 9.75 9.5 9.75Z" fill="white"/>
<path d="M10 9.375C11.0355 9.375 11.875 8.53553 11.875 7.5C11.875 6.46447 11.0355 5.625 10 5.625C8.96447 5.625 8.125 6.46447 8.125 7.5C8.125 8.53553 8.96447 9.375 10 9.375Z" fill="#ED2939"/>
<path d="M12 6.25L12.2406 6.92188L12.8844 6.61562L12.5781 7.2625L13.25 7.5L12.5781 7.74062L12.8844 8.38437L12.2406 8.07812L12 8.75L11.7594 8.07812L11.1156 8.38437L11.4219 7.74062L10.75 7.5L11.4219 7.25938L11.1156 6.61562L11.7594 6.92188L12 6.25Z" fill="white"/>
</g>
<defs>
<clipPath id="clip0_202_3125">
<rect width="20" height="15" fill="white"/>
</clipPath>
</defs>
</svg>
