<svg width="20" height="15" viewBox="0 0 20 15" fill="none" xmlns="http://www.w3.org/2000/svg">
<g clip-path="url(#clip0_202_3216)">
<path d="M0 0H20V15H0V0Z" fill="#00267F"/>
<path d="M6.66602 0H13.3348V15H6.66602V0Z" fill="#FFC726"/>
<path d="M9.99407 4.23438C9.77532 4.82812 9.55657 5.44062 9.08157 5.9125C9.22844 5.8625 9.48782 5.81875 9.65032 5.825V8.30937L8.95032 8.4125C8.92532 8.4125 8.91907 8.37188 8.91907 8.31875C8.85032 7.54688 8.66907 6.89687 8.45657 6.225C8.44094 6.13437 8.17532 5.7875 8.38157 5.85C8.40657 5.85 8.67844 5.9625 8.63782 5.90938C8.24519 5.51337 7.73789 5.25097 7.18782 5.15938C7.14094 5.15 7.11282 5.175 7.15657 5.22813C7.85657 6.30938 8.44719 7.5875 8.44094 9.10312C8.71594 9.10312 9.37844 8.94063 9.65032 8.94063V10.6938H10.0003L10.0784 5.79688L9.99407 4.23438Z" fill="black"/>
<path d="M9.99031 4.23438C10.2091 4.82812 10.4278 5.44062 10.9028 5.9125C10.7559 5.8625 10.4966 5.81875 10.3341 5.825V8.30937L11.0341 8.4125C11.0591 8.4125 11.0653 8.37188 11.0653 8.31875C11.1341 7.54688 11.3153 6.89687 11.5278 6.225C11.5434 6.13437 11.8091 5.7875 11.6028 5.85C11.5778 5.85 11.3059 5.9625 11.3466 5.90938C11.7392 5.51337 12.2465 5.25097 12.7966 5.15938C12.8434 5.15 12.8716 5.175 12.8278 5.22813C12.1278 6.30938 11.5372 7.5875 11.5434 9.10312C11.2684 9.10312 10.6059 8.94063 10.3341 8.94063V10.6938H9.98406L9.90593 5.79688L9.99031 4.23438Z" fill="black"/>
</g>
<defs>
<clipPath id="clip0_202_3216">
<rect width="20" height="15" fill="white"/>
</clipPath>
</defs>
</svg>
