<svg width="20" height="15" viewBox="0 0 20 15" fill="none" xmlns="http://www.w3.org/2000/svg">
<g clip-path="url(#clip0_202_3130)">
<mask id="mask0_202_3130" style="mask-type:luminance" maskUnits="userSpaceOnUse" x="0" y="0" width="20" height="15">
<path d="M0 0H20.0002V15H0V0Z" fill="white"/>
</mask>
<g mask="url(#mask0_202_3130)">
<path fill-rule="evenodd" clip-rule="evenodd" d="M0 0H30.0032V9.96387H0V0Z" fill="#B20000"/>
<path fill-rule="evenodd" clip-rule="evenodd" d="M0 9.96387H30.0032V15H0V9.96387Z" fill="#429F00"/>
<path fill-rule="evenodd" clip-rule="evenodd" d="M0 0H3.32262V15H0V0Z" fill="white"/>
<path fill-rule="evenodd" clip-rule="evenodd" d="M0.158203 0.254883H0.316423V0.509766H0.158203V0.254883ZM0.632863 0.254883H1.10752V0.509766H0.632863V0.254883ZM0.791083 0H0.949303V0.254883H0.791083V0ZM1.58218 0H1.7404V0.254883H1.58218V0ZM2.21506 0.254883H2.68972V0.509766H2.21506V0.254883ZM2.37328 0H2.5315V0.254883H2.37328V0ZM0.474643 0.509766H0.791083V0.761719H0.474643V0.509766ZM0.949303 0.509766H1.26574V0.761719H0.949303V0.509766ZM2.05684 0.509766H2.37328V0.761719H2.05684V0.509766ZM2.5315 0.509766H2.84794V0.761719H2.5315V0.509766ZM0.316423 0.761719H0.632863V1.0166H0.316423V0.761719ZM1.10752 0.761719H1.42396V1.0166H1.10752V0.761719ZM1.89862 0.761719H2.21506V1.0166H1.89862V0.761719ZM2.68972 0.761719H3.00616V1.0166H2.68972V0.761719ZM3.00616 0.254883H3.16438V0.509766H3.00616V0.254883ZM0.158203 1.0166H0.474643V1.27148H0.158203V1.0166ZM1.26574 1.0166H1.58218V1.27148H1.26574V1.0166ZM2.84794 1.0166H3.16438V1.27148H2.84794V1.0166ZM0.316423 1.77832H0.632863V2.0332H0.316423V1.77832ZM0.474643 2.0332H0.791083V2.28809H0.474643V2.0332ZM1.10752 1.78125H1.42396V2.0332H1.10752V1.78125ZM0.949303 2.0332H1.26574V2.28809H0.949303V2.0332ZM0.632863 2.28809H1.10752V2.54297H0.632863V2.28809Z" fill="#B20000"/>
<path fill-rule="evenodd" clip-rule="evenodd" d="M0.7911 2.54297H0.94932V2.79785H0.7911V2.54297ZM1.89864 1.78125H2.21508V2.0332H1.89864V1.78125ZM2.05686 2.0332H2.3733V2.28809H2.05686V2.0332ZM2.68974 1.78125H3.00618V2.0332H2.68974V1.78125ZM2.53152 2.0332H2.84796V2.28809H2.53152V2.0332ZM2.21508 2.28809H2.68974V2.54297H2.21508V2.28809ZM2.3733 2.54297H2.53152V2.79785H2.3733V2.54297ZM1.5822 2.28516H1.74042V2.54004H1.5822V2.28516ZM0 2.28516H0.15822V2.54004H0V2.28516ZM3.1644 2.28516H3.32262V2.54004H3.1644V2.28516ZM0.7911 3.55664H0.94932V3.81152H0.7911V3.55664ZM0.63288 3.81445H1.10754V4.06641H0.63288V3.81445ZM0.47466 4.06641H1.26576V4.32129H0.47466V4.06641ZM2.3733 3.55957H2.53152V3.81445H2.3733V3.55957ZM2.21508 3.81445H2.68974V4.06641H2.21508V3.81445ZM2.05686 4.06641H2.84796V4.32129H2.05686V4.06641ZM2.21508 5.33789H3.00618V5.59277H2.21508V5.33789ZM1.89864 4.32129H3.00618V4.57617H1.89864V4.32129ZM0.31644 4.32129H1.42398V4.57617H0.31644V4.32129ZM0.47466 5.59277H0.94932V5.84766H0.47466V5.59277ZM0.31644 5.33789H1.10754V5.59277H0.31644V5.33789ZM2.53152 4.83398H3.32262V5.08887H2.53152V4.83398ZM2.3733 5.5957H2.84796V5.85059H2.3733V5.5957Z" fill="#B20000"/>
<path fill-rule="evenodd" clip-rule="evenodd" d="M0.63288 5.84766H0.7911V6.10254H0.63288V5.84766ZM2.53152 5.84766H2.68974V6.10254H2.53152V5.84766ZM0 4.83105H0.7911V5.08594H0V4.83105ZM1.42398 5.33789H1.89864V5.59277H1.42398V5.33789ZM1.5822 5.5957H1.74042V5.85059H1.5822V5.5957ZM1.10754 4.83398H2.21508V5.08887H1.10754V4.83398ZM1.74042 1.0166H2.05686V1.27148H1.74042V1.0166ZM1.42398 1.27148H1.89864V1.52637H1.42398V1.27148ZM1.26576 1.52637H1.5822V1.77832H1.26576V1.52637ZM1.74042 1.52637H2.05686V1.77832H1.74042V1.52637ZM0 1.27148H0.31644V1.52637H0V1.27148ZM0.15822 1.52637H0.47466V1.77832H0.15822V1.52637ZM3.00618 1.27148H3.32262V1.52344H3.00618V1.27148ZM2.84796 1.52344H3.1644V1.77539H2.84796V1.52344ZM0 3.80859H0.15822V4.06348H0V3.80859ZM3.1644 3.80859H3.32262V4.06348H3.1644V3.80859ZM1.42398 5.84473H1.89864V6.09961H1.42398V5.84473ZM1.26576 6.09961H1.5822V6.35156H1.26576V6.09961ZM1.74042 6.09961H2.05686V6.35156H1.74042V6.09961ZM1.10754 6.35156H1.42398V6.60645H1.10754V6.35156ZM1.89864 6.35156H2.21508V6.60645H1.89864V6.35156ZM0.94932 6.60645H1.26576V6.86133H0.94932V6.60645ZM2.05686 6.60645H2.3733V6.86133H2.05686V6.60645ZM0.7911 6.86426H1.10754V7.11914H0.7911V6.86426ZM2.21508 6.86426H2.53152V7.11914H2.21508V6.86426ZM0.47466 7.11914H0.94932V7.37402H0.47466V7.11914ZM2.3733 7.11914H2.84796V7.37402H2.3733V7.11914ZM2.68974 6.86426H3.00618V7.11914H2.68974V6.86426ZM2.84796 6.60938H3.1644V6.86426H2.84796V6.60938ZM3.00618 6.35449H3.32262V6.60938H3.00618V6.35449ZM0.31644 6.86426H0.63288V7.11914H0.31644V6.86426ZM0.15822 6.60938H0.47466V6.86426H0.15822V6.60938ZM0 6.35742H0.31644V6.6123H0V6.35742ZM0.63288 7.37695H0.7911V7.62891H0.63288V7.37695ZM2.53152 7.37695H2.68974V7.62891H2.53152V7.37695ZM1.5822 6.61523H1.74042V6.86719H1.5822V6.61523ZM1.10754 7.37695H1.26576V7.62891H1.10754V7.37695ZM2.05686 7.37695H2.21508V7.62891H2.05686V7.37695ZM1.5822 7.37695H1.74042V7.62891H1.5822V7.37695ZM0 7.37695H0.15822V7.62891H0L0 7.37695ZM3.1644 7.37695H3.32262V7.62891H3.1644V7.37695ZM1.5822 3.81445H1.74042V4.06641H1.5822V3.81445ZM0.7911 1.27148H0.94932V1.52637H0.7911V1.27148ZM2.3733 1.27148H2.53152V1.52637H2.3733V1.27148ZM1.42398 3.0498H1.89864V3.30469H1.42398V3.0498ZM1.10754 3.30469H1.5822V3.55957H1.10754V3.30469ZM1.26576 3.55957H1.42398V3.81445H1.26576V3.55957ZM0.94932 3.0498H1.26576V3.30469H0.94932V3.0498ZM1.10754 2.79785H1.5822V3.0498H1.10754V2.79785ZM1.26576 2.54297H1.42398V2.79785H1.26576V2.54297ZM1.74042 2.79785H2.21508V3.0498H1.74042V2.79785ZM1.89864 2.54297H2.05686V2.79785H1.89864V2.54297ZM2.05686 3.0498H2.3733V3.30469H2.05686V3.0498ZM1.74042 3.30469H2.21508V3.55957H1.74042V3.30469ZM1.89864 3.55957H2.05686V3.81445H1.89864V3.55957ZM2.53152 3.0498H2.84796V3.30469H2.53152V3.0498ZM2.68974 2.79785H3.1644V3.0498H2.68974V2.79785ZM3.00618 3.0498H3.32262V3.30469H3.00618V3.0498ZM2.68974 3.30469H3.1644V3.55957H2.68974V3.30469ZM2.84796 3.55957H3.00618V3.81445H2.84796V3.55957ZM2.84796 2.54297H3.00618V2.79785H2.84796V2.54297ZM0 3.04688H0.31644V3.30176H0V3.04688ZM0.15822 2.79492H0.63288V3.04688H0.15822V2.79492ZM0.47466 3.04688H0.7911V3.30176H0.47466V3.04688ZM0.15822 3.30176H0.63288V3.55664H0.15822V3.30176Z" fill="#B20000"/>
<path fill-rule="evenodd" clip-rule="evenodd" d="M0.31644 3.55957H0.47466V3.81445H0.31644V3.55957ZM0.31644 2.54297H0.47466V2.79785H0.31644V2.54297ZM0.15822 4.57617H0.7911V4.83105H0.15822V4.57617ZM0.94932 4.57617H1.5822V4.83105H0.94932V4.57617ZM1.74042 4.57617H2.3733V4.83105H1.74042V4.57617ZM2.53152 4.57617H3.1644V4.83105H2.53152V4.57617ZM1.26576 5.08594H2.05686V5.33789H1.26576V5.08594ZM0.15822 5.08594H0.94932V5.33789H0.15822V5.08594ZM2.3733 5.08594H3.1644V5.33789H2.3733V5.08594ZM3.1644 6.10254H3.32262V6.35449H3.1644V6.10254ZM0 6.10254H0.15822V6.35449H0V6.10254ZM0.15822 14.7451H0.31644V14.4932H0.15822V14.7451ZM0.63288 14.7451H1.10754V14.4932H0.63288V14.7451ZM0.7911 15H0.94932V14.7451H0.7911V15ZM1.5822 15H1.74042V14.7451H1.5822V15ZM2.21508 14.7451H2.68974V14.4902H2.21508V14.7451ZM2.3733 15H2.53152V14.7451H2.3733V15ZM0.47466 14.4902H0.7911V14.2383H0.47466V14.4902ZM0.94932 14.4902H1.26576V14.2383H0.94932V14.4902ZM2.05686 14.4902H2.3733V14.2383H2.05686V14.4902ZM2.53152 14.4902H2.84796V14.2383H2.53152V14.4902ZM1.10754 14.2383H1.42398V13.9834H1.10754V14.2383ZM1.89864 14.2383H2.21508V13.9834H1.89864V14.2383ZM2.68974 14.2383H3.00618V13.9834H2.68974V14.2383ZM3.00618 14.7451H3.1644V14.4902H3.00618V14.7451ZM0.15822 13.9834H0.47466V13.7285H0.15822V13.9834ZM1.26576 13.9834H1.5822V13.7285H1.26576V13.9834ZM2.84796 13.9834H3.1644V13.7285H2.84796V13.9834ZM0.31644 13.2217H0.63288V12.9668H0.31644V13.2217ZM0.47466 12.9668H0.7911V12.7119H0.47466V12.9668ZM1.10754 13.2217H1.42398V12.9668H1.10754V13.2217ZM0.94932 12.9668H1.26576V12.7119H0.94932V12.9668ZM0.63288 12.7119H1.10754V12.457H0.63288V12.7119ZM0.7911 12.457H0.94932V12.2051H0.7911V12.457ZM1.89864 13.2188H2.21508V12.9668H1.89864V13.2188ZM2.05686 12.9668H2.3733V12.7119H2.05686V12.9668ZM2.68974 13.2217H3.00618V12.9668H2.68974V13.2217ZM2.53152 12.9668H2.84796V12.7119H2.53152V12.9668ZM2.21508 12.7119H2.68974V12.457H2.21508V12.7119ZM2.3733 12.457H2.53152V12.2051H2.3733V12.457ZM1.5822 12.7148H1.74042V12.46H1.5822V12.7148ZM0 12.7148H0.15822V12.46H0V12.7148ZM3.1644 12.7148H3.32262V12.46H3.1644V12.7148ZM0.7911 11.4434H0.94932V11.1885H0.7911V11.4434ZM0.63288 11.1855H1.10754V10.9336H0.63288V11.1855ZM0.47466 10.9336H1.26576V10.6787H0.47466V10.9336ZM2.3733 11.4404H2.53152V11.1855H2.3733V11.4404Z" fill="#B20000"/>
<path fill-rule="evenodd" clip-rule="evenodd" d="M2.21508 11.1855H2.68974V10.9336H2.21508V11.1855ZM2.05686 10.9336H2.84796V10.6787H2.05686V10.9336ZM2.21508 9.66211H3.00618V9.4043H2.21508V9.66211ZM1.89864 10.6787H3.00618V10.4238H1.89864V10.6787ZM0.31644 10.6787H1.42398V10.4238H0.31644V10.6787ZM0.47466 9.40723H0.94932V9.15234H0.47466V9.40723ZM0.31644 9.66211H1.10754V9.4043H0.31644V9.66211ZM2.53152 10.166H3.32262V9.91113H2.53152V10.166ZM2.3733 9.4043H2.84796V9.14941H2.3733V9.4043ZM0 10.166H0.7911V9.91113H0V10.166ZM1.42398 9.65918H1.89864V9.4043H1.42398V9.65918ZM1.5822 9.4043H1.74042V9.14941H1.5822V9.4043ZM1.10754 10.166H2.21508V9.91113H1.10754V10.166ZM1.74042 13.9805H2.05686V13.7256H1.74042V13.9805ZM1.42398 13.7256H1.89864V13.4766H1.42398V13.7256ZM1.26576 13.4707H1.5822V13.2158H1.26576V13.4707ZM1.74042 13.4707H2.05686V13.2158H1.74042V13.4707ZM0 13.7285H0.31644V13.4766H0V13.7285ZM0.15822 13.4736H0.47466V13.2217H0.15822V13.4736ZM3.00618 13.7285H3.32262V13.4766H3.00618V13.7285ZM2.84796 13.4736H3.1644V13.2217H2.84796V13.4736ZM0 11.1914H0.15822V10.9365H0V11.1914ZM3.1644 11.1914H3.32262V10.9365H3.1644V11.1914ZM1.26576 8.90039H1.5822V8.64844H1.26576V8.90039ZM1.74042 8.90039H2.05686V8.64844H1.74042V8.90039ZM1.10754 8.64844H1.42398V8.39355H1.10754V8.64844ZM1.89864 8.64844H2.21508V8.39355H1.89864V8.64844ZM0.94932 8.39355H1.26576V8.13867H0.94932V8.39355ZM2.05686 8.39355H2.3733V8.13867H2.05686V8.39355ZM0.7911 8.13574H1.10754V7.88086H0.7911V8.13574ZM2.21508 8.13574H2.53152V7.88086H2.21508V8.13574ZM0.47466 7.88086H0.94932V7.62598H0.47466V7.88086ZM2.3733 7.88086H2.84796V7.62598H2.3733V7.88086ZM2.68974 8.13574H3.00618V7.88086H2.68974V8.13574ZM2.84796 8.39062H3.1644V8.13574H2.84796V8.39062ZM3.00618 8.64551H3.32262V8.39062H3.00618V8.64551ZM0.31644 8.13574H0.63288V7.88086H0.31644V8.13574ZM0.15822 8.39062H0.47466V8.13574H0.15822V8.39062ZM0 8.64258H0.31644V8.38769H0V8.64258ZM0.63288 7.62305H0.7911V7.37109H0.63288V7.62305ZM1.5822 8.38477H1.74042V8.13281H1.5822V8.38477ZM1.5822 11.1826H1.74042V10.9307H1.5822V11.1826ZM0.7911 13.7256H0.94932V13.4766H0.7911V13.7256ZM2.3733 13.7256H2.53152V13.4766H2.3733V13.7256ZM1.42398 11.9531H1.89864V11.6982H1.42398V11.9531ZM1.10754 11.6982H1.5822V11.4434H1.10754V11.6982ZM1.26576 11.4434H1.42398V11.1885H1.26576V11.4434ZM0.94932 11.9531H1.26576V11.6982H0.94932V11.9531ZM1.10754 12.2021H1.5822V11.9531H1.10754V12.2021ZM1.26576 12.457H1.42398V12.2051H1.26576V12.457ZM1.74042 12.2021H2.21508V11.9531H1.74042V12.2021ZM1.89864 12.457H2.05686V12.2051H1.89864V12.457ZM2.05686 11.9502H2.3733V11.6953H2.05686V11.9502ZM1.74042 11.6953H2.21508V11.4404H1.74042V11.6953ZM1.89864 11.4404H2.05686V11.1855H1.89864V11.4404ZM2.53152 11.9531H2.84796V11.6982H2.53152V11.9531ZM2.68974 12.2021H3.1644V11.9531H2.68974V12.2021ZM3.00618 11.9502H3.32262V11.6953H3.00618V11.9502ZM2.68974 11.6953H3.1644V11.4404H2.68974V11.6953ZM2.84796 11.4404H3.00618V11.1855H2.84796V11.4404ZM2.84796 12.457H3.00618V12.2051H2.84796V12.457ZM0 11.9531H0.31644V11.6982H0V11.9531ZM0.15822 12.2021H0.63288V11.9531H0.15822V12.2021Z" fill="#B20000"/>
<path fill-rule="evenodd" clip-rule="evenodd" d="M0.47466 11.9502H0.7911V11.6953H0.47466V11.9502ZM0.15822 11.6953H0.63288V11.4404H0.15822V11.6953ZM0.31644 11.4404H0.47466V11.1855H0.31644V11.4404ZM0.31644 12.457H0.47466V12.2051H0.31644V12.457ZM0.15822 10.4238H0.7911V10.1689H0.15822V10.4238ZM0.94932 10.4238H1.5822V10.1689H0.94932V10.4238ZM1.74042 10.4238H2.3733V10.1689H1.74042V10.4238ZM2.53152 10.4238H3.1644V10.1689H2.53152V10.4238ZM1.26576 9.91406H2.05686V9.66211H1.26576V9.91406ZM0.15822 9.91406H0.94932V9.66211H0.15822V9.91406ZM2.3733 9.91406H3.1644V9.66211H2.3733V9.91406ZM3.1644 8.90039H3.32262V8.64258H3.1644V8.90039ZM0 8.90039H0.15822V8.64258H0V8.90039ZM1.42398 7.62598H1.5822V7.88086H1.42398V7.62598ZM1.74042 7.62598H1.89864V7.88086H1.74042V7.62598ZM1.74042 7.11914H1.89864V7.37402H1.74042V7.11914ZM1.42398 7.11914H1.5822V7.37402H1.42398V7.11914ZM0.31644 13.9834H0.63288V14.2383H0.31644V13.9834ZM2.53152 9.15234H2.68974V8.89746H2.53152V9.15234ZM0.63288 9.15234H0.7911V8.89746H0.63288V9.15234ZM1.42398 8.89746H1.89864V9.15234H1.42398V8.89746Z" fill="#B20000"/>
</g>
</g>
<defs>
<clipPath id="clip0_202_3130">
<rect width="20" height="15" fill="white"/>
</clipPath>
</defs>
</svg>
