<svg width="20" height="15" viewBox="0 0 20 15" fill="none" xmlns="http://www.w3.org/2000/svg">
<g clip-path="url(#clip0_202_3231)">
<path d="M0 0H20V15H0V0Z" fill="#CF142B"/>
<path d="M17.4904 4.0813V9.1313C17.4904 10.4782 14.7967 10.9188 14.7967 10.9188C14.7967 10.9188 12.0967 10.4813 12.0967 9.12505V4.0813H17.4873H17.4904Z" fill="white"/>
<path d="M17.4904 9.13125C17.4904 10.4781 14.7967 10.9187 14.7967 10.9187C14.7967 10.9187 12.0967 10.4813 12.0967 9.125C12.0967 9.125 12.0967 9.01563 12.1529 8.95625C12.1529 8.95625 12.1217 9.17813 12.2936 9.35C12.2936 9.35 12.1592 9.10625 12.2936 8.87187C12.2936 8.87187 12.2404 9.17813 12.4311 9.35C12.4311 9.35 12.3279 9.10313 12.4436 8.82812C12.4436 8.82812 12.3873 9.275 12.5904 9.36875C12.5904 9.36875 12.6467 9.10625 12.5654 8.94375C12.5654 8.94375 12.7061 9 12.6998 9.375C12.6998 9.375 12.7436 9.31875 12.7561 9.04688C12.7561 9.04688 12.7623 9.35937 12.8654 9.43125C12.8654 9.43125 12.9029 9.4 12.8561 9.25937C12.8061 9.12187 12.8748 9.07187 12.8873 9.07187C12.8873 9.07187 12.8623 9.22813 12.9936 9.34688C12.9936 9.34688 12.9373 9.1 13.0154 9.06563C13.0154 9.06563 12.9967 9.275 13.1654 9.31875C13.1654 9.31875 13.1748 9.25938 13.1404 9.19375C13.1404 9.19375 13.1092 9.11563 13.1311 9.05313C13.1311 9.05313 13.1842 9.24063 13.2561 9.27188C13.2561 9.27188 13.2123 9.15938 13.2561 9.05313C13.2561 9.05313 13.2623 9.20937 13.4029 9.275C13.4029 9.275 13.3092 9.15 13.3436 9.01875L14.2404 9.0625L14.7092 9.08438L16.1061 8.99063L16.3436 8.78125C16.3436 8.78125 16.4404 8.90937 16.2873 9.11875C16.2873 9.11875 16.4373 9.09375 16.4842 8.85938C16.4842 8.85938 16.5467 8.9875 16.4623 9.13437C16.4623 9.13437 16.6279 8.96563 16.6498 8.78125C16.6498 8.78125 16.7154 8.9625 16.5592 9.15625C16.5592 9.15625 16.6967 9.10625 16.7561 8.90312C16.7561 8.90312 16.8061 9.02812 16.6717 9.2C16.6717 9.2 16.9248 9.07187 16.9186 8.79375C16.9186 8.79375 17.0217 8.94375 16.9029 9.15625C16.9029 9.15625 17.0279 9.04063 17.0436 8.86563C17.0436 8.86563 17.1154 8.94375 17.0373 9.15938C17.0373 9.15938 17.1936 9.00938 17.2186 8.85C17.2186 8.85 17.2498 9 17.1186 9.1875C17.1186 9.1875 17.2092 9.1625 17.2967 8.98125C17.2967 8.98125 17.3186 9.05625 17.2404 9.1875C17.2404 9.1875 17.3279 9.17188 17.3842 9.00313C17.3842 9.00313 17.3936 9.10313 17.3686 9.19063C17.3686 9.19063 17.4342 9.15 17.4498 8.9625C17.4503 9.01079 17.4632 9.05815 17.4873 9.1V9.125L17.4904 9.13125Z" fill="#2F8F22"/>
<path d="M16.1059 6.20942C16.1059 6.20942 16.0121 6.22817 15.8871 6.19067C15.7684 6.15317 15.7215 6.1688 15.684 6.19067C15.684 6.19067 15.7309 6.0938 15.6121 6.01567C15.6121 6.01567 15.6496 6.11567 15.5965 6.15942C15.5965 6.15942 15.5746 6.1813 15.5465 6.15005C15.5465 6.15005 15.5059 6.10317 15.459 6.07505C15.459 6.07505 15.5621 6.03755 15.5434 5.93442C15.5246 5.8313 15.4684 5.82192 15.4402 5.8063C15.4352 5.83104 15.4352 5.85655 15.4402 5.8813C15.4402 5.8813 15.3309 5.8188 15.4777 5.73442C15.6277 5.65005 15.6027 5.59692 15.5746 5.55317C15.5457 5.50897 15.5086 5.47077 15.4652 5.44067C15.4652 5.44067 15.4965 5.49067 15.4871 5.5313C15.484 5.5688 15.4121 5.5938 15.4246 5.52817C15.4402 5.45317 15.4246 5.46567 15.4246 5.3938C15.4246 5.3938 15.5559 5.43755 15.6121 5.3063C15.6121 5.3063 15.6621 5.17192 15.4934 5.1063C15.4934 5.1063 15.534 5.16255 15.5152 5.20005C15.5152 5.20005 15.4777 5.2688 15.4371 5.2188C15.3965 5.16567 15.3684 5.15005 15.3715 5.08755C15.3715 5.08755 15.5246 5.10942 15.484 4.94067C15.484 4.94067 15.4559 5.05317 15.259 4.90317C15.259 4.90317 15.3902 4.77192 15.3371 4.66567C15.3371 4.66567 15.3215 4.6188 15.184 4.6438C15.184 4.6438 15.3027 4.5688 15.2559 4.50317C15.2559 4.50317 15.2277 4.46255 15.1121 4.51567C15.1121 4.51567 15.159 4.4438 15.0465 4.35942C15.0465 4.35942 14.9715 4.39692 14.934 4.43442C14.934 4.43442 14.859 4.34067 14.809 4.30005C14.809 4.30005 14.7215 4.33442 14.6996 4.43442C14.6996 4.43442 14.659 4.38755 14.5652 4.35942C14.5652 4.35942 14.5215 4.44692 14.5809 4.51567C14.5809 4.51567 14.5371 4.51567 14.4559 4.4813C14.4559 4.4813 14.3684 4.4438 14.384 4.51567C14.3934 4.59067 14.4027 4.60942 14.4215 4.64692C14.4215 4.64692 14.2184 4.60005 14.2277 4.70942C14.2295 4.74636 14.2388 4.78256 14.2549 4.81585C14.271 4.84914 14.2936 4.87884 14.3215 4.90317C14.3215 4.90317 14.2121 5.05317 14.1152 4.94067C14.1152 4.94067 14.0777 4.97817 14.1527 5.07192C14.1527 5.07192 14.2277 5.15005 14.1621 5.20317C14.1621 5.20317 14.084 5.26567 14.0465 5.14067C14.0465 5.14067 13.9184 5.2688 14.0715 5.36567C14.0715 5.36567 14.1652 5.42192 14.2684 5.33442C14.2684 5.33442 14.2371 5.58442 14.1434 5.53442C14.1434 5.53442 14.084 5.49692 14.1871 5.4438C14.1871 5.4438 14.0371 5.42505 14.0152 5.5688C14.0152 5.5688 13.9965 5.67817 14.1246 5.72505C14.1246 5.72505 14.2215 5.76255 14.1246 5.83755C14.1246 5.83755 14.0465 5.89067 14.0965 5.97505C14.0965 5.97505 14.1527 6.06255 14.0059 6.07505C14.0059 6.07505 13.9309 6.07505 13.9027 6.06255C13.9027 6.06255 13.8715 6.12505 13.8902 6.18755C13.8902 6.18755 13.8184 6.13442 13.6559 6.1938C13.4934 6.2563 13.5027 6.21255 13.4934 6.2313L13.4434 6.3063C13.4434 6.3063 13.5309 6.4188 13.534 6.40942L13.5152 6.53442L13.559 6.55317L13.8965 6.40317L14.2402 6.22505L14.5184 6.23755L14.6934 6.27817L14.9184 6.29692L15.0871 6.20942H15.3246L15.5871 6.34067L15.884 6.5188L16.0402 6.55005L16.1621 6.54067V6.29692L16.1059 6.20942Z" fill="#D40000" stroke="black" stroke-width="0.03" stroke-linejoin="round"/>
<path d="M13.3813 6.4906C13.3813 6.4906 13.5126 6.55935 13.5688 6.48123C13.5688 6.48123 13.6376 6.34373 13.4813 6.29373C13.4813 6.29373 13.5688 6.19373 13.4751 6.09998C13.4751 6.09998 13.4251 6.04998 13.3438 6.08435C13.3438 6.08435 13.3063 6.01248 13.2282 6.0156C13.2282 6.0156 13.1532 6.0156 13.1345 6.09373C13.1345 6.09373 13.0345 6.05623 12.9813 6.11248C12.9813 6.11248 12.8876 6.21248 13.0157 6.29373L13.1063 6.3031L13.1938 6.25935L13.297 6.28748C13.297 6.28748 13.2688 6.38748 13.3813 6.4906Z" fill="#D40000" stroke="black" stroke-width="0.03" stroke-linejoin="round"/>
<path d="M16.2998 6.25316C16.3436 6.24765 16.3881 6.25617 16.4269 6.2775C16.4656 6.29884 16.4966 6.33188 16.5154 6.37191C16.5966 6.56566 16.4216 6.67191 16.4216 6.67191C16.4341 6.71254 16.4373 6.77191 16.4373 6.77191C16.681 6.80316 16.6373 7.07816 16.6373 7.07816L16.556 7.00941C16.4154 6.95316 16.2654 7.07816 16.1623 7.27816C16.056 7.48441 16.106 7.57504 16.1248 7.81879C16.1435 8.05941 16.531 8.20629 16.531 8.20629L16.2279 8.98754C16.1091 9.30004 15.8529 9.17191 15.781 9.10316C15.7091 9.04066 15.6904 9.07816 15.656 9.10316C15.6216 9.13441 15.8216 9.29066 15.4529 9.44066C15.0873 9.58754 15.0248 9.70004 14.9623 9.73754C14.8998 9.77504 14.6498 9.75316 14.6248 9.71879C14.5935 9.68754 14.6123 9.68754 14.5154 9.62816C14.4216 9.57504 14.2591 9.51879 14.0841 9.43441C13.9091 9.35004 13.9154 9.24066 13.9185 9.21879C13.9185 9.19691 13.9779 9.01566 13.7716 9.15941C13.5685 9.30629 13.3935 9.09066 13.3935 9.09066C13.356 9.03754 13.181 8.57816 13.181 8.57816C13.1449 8.45022 13.1 8.32492 13.0466 8.20316C13.0466 8.20316 13.0341 8.22816 13.1873 8.14066C13.3373 8.05629 13.406 7.91254 13.4591 7.76879C13.5123 7.62504 13.4591 7.37816 13.4404 7.33129C13.4216 7.28129 13.3091 7.05316 13.1685 7.00629C13.031 6.95629 12.9341 7.08129 12.9341 7.08129C12.9341 7.08129 12.8935 6.80004 13.1404 6.76879C13.1404 6.76879 13.1404 6.71254 13.1529 6.67191C13.1529 6.67191 12.9779 6.56566 13.0591 6.37191C13.0591 6.37191 13.1154 6.23754 13.2716 6.25316L13.2373 6.32816C13.2373 6.32816 13.1998 6.72191 13.7748 6.45941C14.3529 6.19066 14.3373 6.14066 14.6716 6.30941L14.9091 6.30629C14.9091 6.30629 15.2529 6.14066 15.3685 6.21254C15.4779 6.28441 15.8779 6.50629 15.8779 6.50629C15.8779 6.50629 16.2654 6.65316 16.3435 6.38129L16.2998 6.25316Z" fill="#64B4D1" stroke="black" stroke-width="0.03"/>
<path d="M14.5566 7.96876C14.5566 7.96876 14.5379 7.84689 14.5191 7.76876C14.5191 7.76876 14.4723 7.64689 14.5504 7.55626L14.6379 7.45314C14.6379 7.45314 14.6941 7.37814 14.7629 7.36876C14.7629 7.36876 14.8348 7.36876 14.8379 7.35314C14.8473 7.33751 14.9254 7.21251 15.1066 7.35314C15.1066 7.35314 15.1629 7.25939 15.2566 7.24064C15.2566 7.24064 15.3504 7.21564 15.3973 7.28439C15.3973 7.28439 15.5066 7.20314 15.5973 7.33751C15.5973 7.33751 15.7254 7.26251 15.8223 7.40939C15.8223 7.40939 15.9473 7.34689 16.0223 7.47501C16.1004 7.60939 16.0848 7.66251 16.0848 7.66251L16.1473 7.87501L16.3504 8.12501L15.8754 8.30626H15.6566L15.2285 8.41876L14.4691 8.47814L14.2598 8.22814L14.5598 7.96876H14.5566Z" fill="white" stroke="#00247D" stroke-width="0.03" stroke-miterlimit="10"/>
<path d="M13.9156 9.23443C13.9156 9.23443 13.8031 9.23755 13.7437 9.27193C13.6875 9.29693 13.6406 9.32818 13.575 9.37193C13.575 9.37193 13.5438 9.41255 13.4125 9.38755C13.4125 9.38755 13.1875 9.33443 13.1875 9.51255C13.1875 9.51255 12.9125 9.5313 13.025 9.77193C13.025 9.77193 13.0969 9.95943 13.2531 9.82818C13.2531 9.82818 13.1531 9.9688 13.3469 10.0251C13.3469 10.0251 13.4844 10.0626 13.5281 9.91568C13.5281 9.91568 13.55 9.85943 13.4969 9.79068C13.4969 9.79068 13.5625 9.77818 13.6094 9.7063C13.6094 9.7063 13.4656 9.88755 13.625 9.9563C13.625 9.9563 13.8219 10.0032 13.8313 9.80005C13.8313 9.80005 13.8125 9.70005 13.8938 9.66568C13.8938 9.66568 14.05 9.62818 14.1125 9.45943C14.1125 9.45943 13.8937 9.33755 13.9156 9.23443ZM13.4563 7.43755C13.4563 7.43755 13.2813 7.35943 13.1938 7.43755C13.1938 7.43755 13.0844 7.3688 12.9594 7.43755C12.9594 7.43755 12.8437 7.51255 12.7625 7.60005C12.7625 7.60005 12.7063 7.64693 12.725 7.80005C12.725 7.80005 12.7563 7.90943 12.7406 7.95943C12.7406 7.95943 12.7031 7.95318 12.625 8.04693C12.625 8.04693 12.5281 8.1563 12.4375 8.0563C12.4375 8.0563 12.4688 8.20005 12.6281 8.17505C12.6281 8.17505 12.55 8.23755 12.6187 8.3938C12.6187 8.3938 12.6687 8.5063 12.5875 8.65005C12.5875 8.65005 12.7281 8.5938 12.725 8.42505C12.725 8.42505 12.7094 8.31255 12.7563 8.23755C12.7563 8.23755 12.7094 8.3063 12.8062 8.45943C12.8062 8.45943 12.8812 8.57193 12.8219 8.68443C12.8219 8.68443 12.9594 8.63443 12.9469 8.46568C12.9344 8.29693 12.8531 8.36568 12.9031 8.20943C12.9031 8.20943 12.9188 8.29068 12.9594 8.33443C12.9905 8.36069 13.0139 8.39491 13.0271 8.43343C13.0403 8.47196 13.0428 8.51334 13.0344 8.55318C13.0344 8.55318 13.1156 8.44693 13.0969 8.34068C13.0915 8.29281 13.0778 8.24627 13.0562 8.20318L13.3188 8.05318L13.4531 7.8188L13.4563 7.43755Z" fill="#D40000" stroke="black" stroke-width="0.03" stroke-linejoin="round"/>
<path d="M13.0559 8.10935C13.0559 8.10935 12.9465 8.1031 12.9309 8.0156M12.7402 7.95935C12.7402 7.95935 12.7777 7.95935 12.8152 7.99685C12.8152 7.99685 12.8371 8.03435 12.8746 8.0281" stroke="black" stroke-width="0.03" stroke-miterlimit="10"/>
<path d="M13.2186 7.78748C13.2186 7.78748 13.1623 7.78748 13.1248 7.76248C13.1248 7.76248 13.0967 7.7406 13.0779 7.77498C13.0779 7.77498 13.0467 7.82498 13.1029 7.84685C13.1029 7.84685 13.1717 7.88435 13.0654 7.9531C13.0654 7.9531 13.1904 7.9031 13.1404 7.8406C13.1404 7.8406 13.0842 7.8031 13.1029 7.78748C13.1029 7.78748 13.1092 7.77498 13.1342 7.78748C13.1529 7.80623 13.1967 7.79998 13.2186 7.78748Z" fill="black"/>
<path d="M14.9254 8.0937L14.991 8.07495L14.5535 6.57495H14.541L14.9254 8.0937Z" fill="#784421" stroke="black" stroke-width="0.03"/>
<path d="M13.4746 9.75938C13.4746 9.75938 13.3746 9.70001 13.2871 9.76876C13.2871 9.76876 13.2996 9.73126 13.3621 9.71563C13.3621 9.71563 13.3996 9.61563 13.4965 9.62501C13.4965 9.62501 13.4559 9.67501 13.4027 9.71251C13.4027 9.71251 13.459 9.71876 13.4777 9.75938H13.4746Z" fill="black"/>
<path d="M13.116 9.99372C13.116 9.99372 12.9535 9.89372 13.0441 9.72185C13.0441 9.72185 13.0691 9.67497 13.116 9.68435C13.116 9.68435 13.2191 9.7156 13.141 9.85622C13.141 9.85622 13.0972 9.94685 13.116 9.99685V9.99372ZM13.4441 10.1593C13.4441 10.1593 13.2128 10.0531 13.2847 9.87185C13.2847 9.87185 13.3066 9.80935 13.3597 9.8156C13.3597 9.8156 13.4472 9.82185 13.4316 9.9406C13.4316 9.9406 13.4035 10.0531 13.4441 10.1593Z" fill="#64B4D1" stroke="#00247D" stroke-width="0.03" stroke-miterlimit="2.6"/>
<path d="M13.3971 9.48755C13.3971 9.48755 13.3252 9.54067 13.3002 9.57505C13.3002 9.57505 13.2689 9.53755 13.2314 9.5188C13.2314 9.5188 13.2783 9.50942 13.3002 9.52817C13.3002 9.52817 13.3377 9.49692 13.3939 9.48755H13.3971Z" fill="black"/>
<path d="M13.5996 10.1125C13.5996 10.1125 13.7871 10.0688 13.7496 9.87816C13.7496 9.87816 13.7309 9.79691 13.6559 9.80941C13.6559 9.80941 13.5621 9.83441 13.6246 9.95316C13.6246 9.95316 13.659 10.0344 13.5996 10.1125Z" fill="#64B4D1" stroke="#00247D" stroke-width="0.03" stroke-miterlimit="2.6"/>
<path d="M14.4248 6.14687L14.6029 6.20625C14.6029 6.20625 14.7717 6.27813 14.9873 6.20625L15.1498 6.14375L15.0404 6.3125V6.40312L15.1061 6.50313C15.1061 6.50313 15.0654 6.52188 14.9373 6.44063C14.9373 6.44063 14.7998 6.33438 14.6373 6.44063C14.6373 6.44063 14.5436 6.50313 14.4686 6.50313L14.5779 6.38438L14.5373 6.275L14.4248 6.14062V6.14687Z" fill="#F5CE00" stroke="black" stroke-width="0.03" stroke-miterlimit="2.6"/>
<path d="M13.6714 9.89062C13.6714 9.89062 13.6777 9.87813 13.6714 9.875L13.6558 9.88125C13.6558 9.88125 13.637 9.9125 13.6558 9.95625C13.6558 9.95625 13.6714 9.98437 13.6652 10.0125V10.025C13.6652 10.025 13.6745 10.0219 13.6745 10.0125C13.6745 10.0125 13.687 9.9875 13.6683 9.95625C13.6683 9.95625 13.6495 9.9125 13.6714 9.89062Z" fill="white"/>
<path d="M16.1875 6.4906C16.1875 6.4906 16.0563 6.55935 16 6.48123C16 6.48123 15.9344 6.34373 16.0906 6.29373C16.0906 6.29373 16.0031 6.19373 16.0938 6.09998C16.0938 6.09998 16.1438 6.04998 16.225 6.08435C16.225 6.08435 16.2625 6.01248 16.3406 6.0156C16.3406 6.0156 16.4156 6.0156 16.4344 6.09373C16.4344 6.09373 16.5375 6.05623 16.5906 6.11248C16.5906 6.11248 16.6781 6.21248 16.5531 6.29373L16.4625 6.3031L16.3719 6.25935L16.2781 6.28748C16.2781 6.28748 16.3031 6.38748 16.1844 6.4906H16.1875Z" fill="#D40000" stroke="black" stroke-width="0.03" stroke-linejoin="round"/>
<path d="M15.1504 6.38753C15.1504 6.38753 15.1504 6.41253 15.1254 6.41878C15.1254 6.41878 15.0941 6.42816 15.0785 6.39066V6.38128C15.0785 6.36566 15.0691 6.31878 15.1223 6.27816C15.1223 6.27816 15.2035 6.21253 15.3598 6.29378C15.5105 6.37854 15.6648 6.45674 15.8223 6.52816C15.8223 6.52816 15.9191 6.57816 16.0691 6.58441C16.0691 6.58441 16.2723 6.60004 16.3598 6.45629C16.3598 6.45629 16.4254 6.34691 16.3598 6.27503C16.3598 6.27503 16.3316 6.24378 16.2879 6.25003C16.2651 6.2551 16.2451 6.26847 16.2316 6.28753C16.2316 6.28753 16.2004 6.33128 16.2348 6.36566C16.2348 6.36566 16.2848 6.39691 16.3035 6.33441C16.3035 6.34066 16.3191 6.38754 16.291 6.42504C16.291 6.42504 16.166 6.61253 15.8254 6.42191L15.3785 6.16878C15.3785 6.16878 15.1566 6.05316 15.016 6.23441C15.016 6.23441 14.9098 6.38441 15.0504 6.48128C15.0504 6.48128 15.1566 6.54378 15.2191 6.44378C15.2191 6.44378 15.2754 6.34691 15.1879 6.30628C15.1879 6.30628 15.1129 6.26878 15.0848 6.34378C15.0535 6.41878 15.141 6.43753 15.1473 6.38441C15.1473 6.38441 15.1473 6.37191 15.1566 6.38441L15.1504 6.38753Z" fill="#F5CE00" stroke="black" stroke-width="0.03" stroke-miterlimit="2.6"/>
<path d="M13.3752 7.16244V6.88119C13.3752 6.85619 13.3752 6.84369 13.4127 6.81244C13.4439 6.78744 13.4783 6.74057 13.5283 6.86557C13.5283 6.86557 13.6283 6.75619 13.6596 6.74057C13.6596 6.74057 13.7221 6.69369 13.7627 6.76244C13.7627 6.76244 13.8127 6.68119 13.8564 6.66244C13.8564 6.66244 13.9564 6.59994 13.9596 6.79369L14.0377 6.71869C14.0377 6.71869 14.1002 6.67182 14.1689 6.74057C14.1689 6.74057 14.2783 6.85307 14.2939 6.88432C14.2939 6.88432 14.3189 6.91557 14.3252 6.96869C14.3252 6.96869 14.3252 7.03119 14.3564 7.06244C14.3564 7.06244 14.3908 7.09369 14.4252 7.09994C14.4252 7.09994 14.5033 7.10307 14.5377 7.18119C14.5377 7.18119 14.5471 7.16557 14.5877 7.53119V8.20307L14.1377 8.73744L13.4158 8.53119L13.1283 8.40932L13.0596 8.20307L13.3408 8.01869L13.4908 7.61244L13.4439 7.32182L13.3752 7.15932V7.16244Z" fill="#E4CB5E" stroke="black" stroke-width="0.03" stroke-miterlimit="2.6"/>
<path d="M15.3623 7.51245L15.3998 7.46558L15.4779 7.40308C15.4779 7.40308 15.6029 7.72808 15.6092 7.79995V7.89995C15.6092 7.89995 15.7967 7.94995 15.8342 8.23433L15.6779 8.52183L15.4342 8.38433L15.3623 8.33745V7.51558V7.51245Z" fill="#784421" stroke="black" stroke-width="0.03"/>
<path d="M13.0716 9.76252C13.0716 9.76252 13.0779 9.75315 13.0716 9.74377L13.056 9.75628C13.056 9.75628 13.0091 9.8094 13.0498 9.89377C13.0498 9.89377 13.0498 9.90627 13.0591 9.90002C13.0591 9.90002 13.0685 9.90002 13.0591 9.89065C13.0591 9.89065 13.0248 9.81565 13.0716 9.76565V9.76252Z" fill="white"/>
<path d="M13.8036 9.7062C13.8036 9.7062 13.8067 9.6812 13.7911 9.6562C13.7911 9.6562 13.7817 9.63745 13.7848 9.60933M13.9598 6.7937C13.9598 6.7937 13.9598 6.86558 13.9817 6.9187C14.0004 6.9687 14.0723 7.05933 14.0754 7.10308" stroke="black" stroke-width="0.03" stroke-miterlimit="10"/>
<path d="M15.6561 9.23438C15.6561 9.23438 15.7686 9.2375 15.8279 9.27188C15.8904 9.29688 15.9342 9.32812 15.9998 9.37187C15.9998 9.37187 16.0311 9.4125 16.1623 9.3875C16.1623 9.3875 16.3873 9.33437 16.3873 9.5125C16.3873 9.5125 16.6592 9.53125 16.5498 9.77188C16.5498 9.77188 16.4748 9.95938 16.3186 9.82812C16.3186 9.82812 16.4186 9.96875 16.2248 10.025C16.2248 10.025 16.0873 10.0625 16.0467 9.91562C16.0467 9.91562 16.0217 9.85937 16.0779 9.79062C16.0779 9.79062 16.0123 9.77813 15.9686 9.70625C15.9686 9.70625 16.1092 9.8875 15.9529 9.95625C15.9529 9.95625 15.7561 10.0031 15.7436 9.8C15.7436 9.8 15.7592 9.7 15.6811 9.66562C15.6811 9.66562 15.5248 9.62813 15.4561 9.45938C15.4561 9.45938 15.6811 9.3375 15.6592 9.23438H15.6561Z" fill="#D40000" stroke="black" stroke-width="0.03" stroke-linejoin="round"/>
<path d="M13.8691 7.1063L14.0566 8.60005M13.916 7.10317L14.1223 8.49692M13.9504 7.09692L14.1941 8.47817" stroke="black" stroke-width="0.03" stroke-miterlimit="10"/>
<path d="M14.3316 8.3594L14.4004 8.33752L13.9629 6.83752H13.9473L14.3316 8.3594Z" fill="#784421" stroke="black" stroke-width="0.03"/>
<path d="M14.0848 7.04065L14.5254 8.15002M14.0566 7.05627L14.4816 8.21252" stroke="black" stroke-width="0.03" stroke-miterlimit="10"/>
<path d="M13.3621 10.05C13.3621 10.05 13.309 10.0031 13.3183 9.91558C13.3183 9.91558 13.3183 9.89683 13.309 9.89371C13.309 9.89371 13.2996 9.89058 13.2996 9.91246C13.2996 9.91246 13.284 10.0031 13.3465 10.0531C13.3465 10.0531 13.3496 10.0625 13.359 10.0593C13.359 10.0593 13.3652 10.0593 13.359 10.05H13.3621Z" fill="white"/>
<path d="M14.1094 7.02502L14.5562 8.03752M13.9844 7.08752L14.2656 8.45315" stroke="black" stroke-width="0.03" stroke-miterlimit="10"/>
<path d="M16.2499 8.09375C16.053 7.98125 16.0093 7.7375 16.0093 7.7375C15.981 7.58689 15.9984 7.43127 16.0593 7.29063C16.1843 7.02188 16.4061 6.96875 16.4061 6.96875C16.4061 6.96875 16.1905 7.11875 16.1311 7.31875C16.1311 7.31875 16.0874 7.49062 16.1124 7.65312C16.1374 7.825 16.128 7.78125 16.1686 7.9125L16.2499 8.1V8.09375Z" fill="#F5CE00" stroke="black" stroke-width="0.03" stroke-miterlimit="2.6"/>
<path d="M15.3969 7.45935L14.5656 7.72498L14.5219 8.09998C14.325 8.38435 13.9219 8.43435 13.9219 8.43435L14.2344 8.76873L14.8281 8.89373L15.1469 8.64998L15.4344 8.38748C15.4031 8.24685 15.4187 8.03748 15.4187 8.03748C15.4187 7.99998 15.4344 7.91873 15.4344 7.91873C15.4344 7.91873 15.3875 7.58435 15.3969 7.4656V7.45935Z" fill="#784421" stroke="black" stroke-width="0.03"/>
<path d="M14.5311 8.00623C14.5311 8.00623 15.0811 7.83435 15.4061 7.69373M14.2686 8.31873C14.2686 8.31873 14.9561 8.19373 15.4342 7.91873L15.6092 7.79998" stroke="black" stroke-width="0.03" stroke-miterlimit="10"/>
<path d="M15.6098 7.90002L15.4223 8.03752C15.4223 8.03752 14.6566 8.38752 14.0723 8.40002M15.4191 8.28752C15.4191 8.28752 14.8316 8.59377 14.5004 8.59377" stroke="black" stroke-width="0.03" stroke-miterlimit="10"/>
<path d="M16.1191 7.43755C16.1191 7.43755 16.2941 7.35943 16.3816 7.43755C16.3816 7.43755 16.4941 7.3688 16.6191 7.43755C16.6191 7.43755 16.7316 7.51255 16.8129 7.60005C16.8129 7.60005 16.8691 7.64693 16.8504 7.80005C16.8504 7.80005 16.8191 7.90943 16.841 7.95943C16.841 7.95943 16.8754 7.95318 16.9504 8.04693C16.9504 8.04693 17.0535 8.1563 17.1379 8.0563C17.1379 8.0563 17.1129 8.20005 16.9504 8.17505C16.9504 8.17505 17.0254 8.23755 16.9598 8.3938C16.9598 8.3938 16.9098 8.5063 16.991 8.65005C16.991 8.65005 16.8473 8.5938 16.8535 8.42505C16.8535 8.42505 16.866 8.31255 16.8223 8.23755C16.8223 8.23755 16.866 8.3063 16.7691 8.45943C16.7691 8.45943 16.6941 8.57193 16.7566 8.68443C16.7566 8.68443 16.616 8.63443 16.6316 8.46568C16.641 8.29693 16.7254 8.36568 16.6723 8.20943C16.6723 8.20943 16.6598 8.29068 16.6191 8.33443C16.588 8.36069 16.5646 8.39491 16.5514 8.43343C16.5382 8.47196 16.5357 8.51334 16.5441 8.55318C16.5441 8.55318 16.4629 8.44693 16.4816 8.34068C16.5004 8.2313 16.5191 8.20318 16.5191 8.20318L16.2598 8.05318L16.1285 7.8188L16.1191 7.43755Z" fill="#D40000" stroke="black" stroke-width="0.03" stroke-linejoin="round"/>
<path d="M13.1438 8.38749C13.1438 8.38749 13.1687 8.27186 13.2781 8.31249C13.2781 8.31249 13.3156 8.12499 13.5188 8.11874C13.7219 8.11249 13.7312 8.31874 13.7312 8.33124C13.7312 8.33124 13.7937 8.24374 13.8906 8.25311C13.8906 8.25311 14.0625 8.24374 14.0031 8.51874L14.0344 8.55624C14.0344 8.55624 14.1625 8.24686 14.4312 8.32499C14.4312 8.32499 14.6937 8.40624 14.525 8.65936C14.525 8.65936 14.6562 8.83124 14.7625 8.81561C14.875 8.79999 14.9719 8.76561 15.0813 8.57186C15.1938 8.37811 15.4469 8.34686 15.5094 8.35936C15.5719 8.36874 15.625 8.41561 15.6344 8.45936C15.6344 8.45936 15.7687 8.01249 16.2531 8.07811L16.4469 8.18124L16.5219 8.21249L16.4094 8.52499L16.1469 9.12499L15.9406 9.18749L15.7281 9.06561L15.6531 9.10311V9.28749L15.3719 9.48749L15.1781 9.56561L14.9656 9.71561L14.9125 9.84686C14.9125 9.84686 14.7969 9.79374 14.6625 9.84686L14.6187 9.73436L14.4937 9.61874L14.0063 9.38749L13.9219 9.10624L13.8313 9.06561L13.7312 9.17811L13.5906 9.19686L13.3719 9.04686L13.1406 8.39061L13.1438 8.38749Z" fill="white" stroke="#00247D" stroke-width="0.03" stroke-miterlimit="10"/>
<path d="M15.2566 6.18752C15.2566 6.18752 15.0691 6.18127 15.0785 6.37502" stroke="black" stroke-width="0.03" stroke-miterlimit="2.6"/>
<path d="M16.4684 8.22807C16.1496 8.12807 16.0621 7.7812 16.0621 7.7812C16.0239 7.61977 16.037 7.45044 16.0996 7.29682C16.2496 6.95307 16.4965 6.95307 16.4965 6.95307C16.5283 6.94847 16.5607 6.95629 16.5868 6.97491C16.613 6.99353 16.631 7.02152 16.6371 7.05307C16.6496 7.12807 16.5965 7.1562 16.5965 7.1562C16.5121 7.20307 16.4559 7.14057 16.4559 7.14057C16.4184 7.09057 16.4465 7.04995 16.4465 7.04995C16.4684 7.0187 16.509 7.03745 16.509 7.03745C16.5496 7.0437 16.5403 7.08745 16.5403 7.08745C16.5403 7.08745 16.5528 7.03745 16.5028 7.0312C16.5028 7.0312 16.4028 7.00932 16.2903 7.14995C16.2903 7.14995 16.1434 7.34057 16.1434 7.59057C16.1434 7.59057 16.1246 8.05307 16.6028 8.17182C16.6028 8.17182 16.5528 8.24682 16.459 8.5187C16.459 8.5187 16.3559 8.8687 16.259 9.05932C16.259 9.05932 16.1246 9.32807 15.8246 9.2187C15.8246 9.2187 15.6496 9.14057 15.6496 9.01557C15.6496 9.01557 15.6403 8.89682 15.7434 8.89057C15.7434 8.89057 15.8465 8.8812 15.8465 8.9687C15.8465 8.9687 15.8465 9.06244 15.7371 9.04369C15.7371 9.04369 15.6996 9.03432 15.7028 8.99682C15.7028 8.99682 15.709 8.95932 15.759 8.97807C15.8059 8.99682 15.759 8.97807 15.759 8.97495C15.759 8.97495 15.7403 8.96557 15.7215 8.97495C15.7215 8.97495 15.7028 8.97495 15.7028 9.0062C15.7028 9.0062 15.7028 9.02494 15.7246 9.04057L15.7778 9.04682C15.7778 9.04682 15.809 9.10932 15.8715 9.1312C15.9089 9.14272 15.9484 9.14533 15.9869 9.13882C16.0254 9.13231 16.0619 9.11685 16.0934 9.0937C16.1353 9.05737 16.1675 9.01119 16.1871 8.95932C16.2502 8.8223 16.3045 8.68139 16.3496 8.53745C16.3496 8.53745 16.4059 8.35932 16.4559 8.26557L16.4684 8.22807Z" fill="#F5CE00" stroke="black" stroke-width="0.03" stroke-miterlimit="2.6"/>
<path d="M15.5625 9.10626C15.5625 9.10626 15.625 9.10001 15.625 9.15314C15.625 9.15314 15.6219 9.22814 15.525 9.21251C15.525 9.21251 15.4313 9.19376 15.4625 9.08751C15.4625 9.08751 15.4875 9.01564 15.575 9.02501C15.575 9.02501 15.6625 9.02501 15.7 9.14376C15.7 9.14376 15.7313 9.24689 15.6782 9.33126C15.6219 9.42501 15.4844 9.48751 15.4157 9.51876C15.4157 9.51876 15.1438 9.62189 15.0625 9.68439C15.0625 9.68439 14.9375 9.77501 14.9938 9.85939C14.9938 9.85939 15.0157 9.89376 15.0469 9.89376C15.0469 9.89376 15.0844 9.89376 15.0875 9.85626C15.0875 9.85626 15.0875 9.87814 15.0657 9.88751C15.0657 9.88751 15.0407 9.90001 15.0125 9.87814C15.0125 9.87814 14.9813 9.84689 15.0063 9.80314C15.0063 9.80314 15.0375 9.75314 15.1188 9.78439C15.1188 9.78439 15.1813 9.81876 15.1563 9.88751C15.1563 9.88751 15.1282 9.95314 15.05 9.95001C15.05 9.95001 14.9907 9.95001 14.95 9.91251C14.8875 9.84689 14.8875 9.72501 14.9438 9.66251C14.9438 9.66251 14.9907 9.59689 15.0907 9.55001L15.3719 9.44064C15.4532 9.40626 15.525 9.36876 15.5719 9.31251C15.5719 9.31251 15.6125 9.26876 15.6282 9.18751C15.6282 9.18751 15.6407 9.12501 15.6032 9.11251L15.5657 9.10314L15.5625 9.10626Z" fill="#F5CE00" stroke="black" stroke-width="0.03" stroke-miterlimit="2.6"/>
<path d="M15.5684 9.1063C15.5684 9.1063 15.634 9.0938 15.6777 9.17505C15.6777 9.17505 15.6996 9.22192 15.7027 9.25317M15.7246 8.97192C15.7246 8.97192 15.659 8.9813 15.6934 9.07817C15.7277 9.1688 15.7871 9.1938 15.8027 9.20942" stroke="black" stroke-width="0.03" stroke-miterlimit="2.6"/>
<path d="M14.425 6.38753C14.425 6.38753 14.425 6.41253 14.4563 6.41878C14.4563 6.41878 14.4812 6.42503 14.4969 6.39066V6.38128C14.4969 6.36566 14.5063 6.31878 14.4594 6.27815C14.4594 6.27815 14.3719 6.21253 14.2156 6.29378C14.2156 6.29378 14.0906 6.35628 14.0063 6.40628C14.0063 6.40628 13.7844 6.52503 13.7563 6.53128C13.7563 6.53128 13.6563 6.58128 13.5063 6.58753C13.5063 6.58753 13.3031 6.60316 13.2188 6.45941C13.2188 6.45941 13.15 6.35003 13.2188 6.27815C13.2188 6.27815 13.2438 6.24691 13.2875 6.25316C13.3063 6.25628 13.325 6.26566 13.3438 6.29066C13.3438 6.29066 13.375 6.33441 13.3406 6.36878C13.3406 6.36878 13.2906 6.40003 13.2719 6.33753C13.2719 6.34378 13.2625 6.38753 13.2875 6.43128C13.2875 6.43128 13.4125 6.61566 13.75 6.42191L14.1969 6.17191C14.1969 6.17191 14.4219 6.05628 14.5594 6.23441C14.5594 6.23441 14.6656 6.38441 14.5281 6.48441C14.5281 6.48441 14.425 6.54691 14.3562 6.44691C14.3562 6.44691 14.3062 6.35316 14.3875 6.3094C14.3875 6.3094 14.4625 6.27191 14.4969 6.34691C14.5281 6.42191 14.4344 6.44065 14.4281 6.38753C14.4281 6.38753 14.4281 6.37503 14.425 6.38753ZM13.325 8.09691C13.5219 7.98753 13.5688 7.73753 13.5688 7.73753C13.6125 7.48753 13.5156 7.29066 13.5156 7.29066C13.3906 7.02191 13.1719 6.96878 13.1719 6.96878C13.1719 6.96878 13.3844 7.11878 13.4438 7.31878C13.4438 7.31878 13.4937 7.49065 13.4625 7.65315C13.4375 7.82503 13.4469 7.78128 13.4062 7.91253L13.325 8.09691Z" fill="#F5CE00" stroke="black" stroke-width="0.03" stroke-miterlimit="2.6"/>
<path d="M14.3252 6.18752C14.3252 6.18752 14.5127 6.18127 14.5002 6.37502" stroke="black" stroke-width="0.03" stroke-miterlimit="2.6"/>
<path d="M13.1033 8.22807C13.4252 8.12807 13.5096 7.7812 13.5096 7.7812C13.5488 7.62009 13.5368 7.45077 13.4752 7.29682C13.3252 6.95307 13.0783 6.95307 13.0783 6.95307C13.0465 6.94847 13.0142 6.95629 12.988 6.97491C12.9618 6.99353 12.9438 7.02152 12.9377 7.05307C12.9283 7.12807 12.9783 7.1562 12.9783 7.1562C13.0658 7.20307 13.1221 7.14057 13.1221 7.14057C13.1564 7.09057 13.1283 7.04995 13.1283 7.04995C13.1064 7.0187 13.0658 7.03745 13.0658 7.03745C13.0283 7.0437 13.0346 7.08745 13.0346 7.08745C13.0346 7.08745 13.0252 7.03745 13.0721 7.0312C13.0721 7.0312 13.1721 7.00932 13.2846 7.14995C13.2846 7.14995 13.4346 7.34057 13.4346 7.59057C13.4346 7.59057 13.4533 8.05307 12.9721 8.17182C12.9721 8.17182 13.0252 8.24682 13.1158 8.5187C13.1158 8.5187 13.2221 8.8687 13.3221 9.05932C13.3221 9.05932 13.4533 9.32807 13.7502 9.2187C13.7502 9.2187 13.9252 9.14057 13.9252 9.01557C13.9252 9.01557 13.9377 8.89682 13.8314 8.89057C13.8314 8.89057 13.7283 8.8812 13.7283 8.9687C13.7283 8.9687 13.7283 9.06244 13.8408 9.04369C13.8408 9.04369 13.8783 9.03432 13.8721 8.99682C13.8721 8.99682 13.8658 8.95932 13.8189 8.97807C13.7689 8.99682 13.8189 8.97807 13.8189 8.97495C13.8189 8.97495 13.8346 8.96557 13.8533 8.97495C13.8533 8.97495 13.8721 8.97495 13.8721 9.0062C13.8721 9.0062 13.8721 9.02494 13.8502 9.04057L13.8033 9.04682C13.8033 9.04682 13.7721 9.10932 13.7033 9.1312C13.6666 9.14351 13.6274 9.14652 13.5892 9.13998C13.5511 9.13343 13.5151 9.11753 13.4846 9.0937C13.4427 9.05737 13.4104 9.01119 13.3908 8.95932C13.3267 8.82237 13.2714 8.68146 13.2252 8.53745C13.2252 8.53745 13.1689 8.35932 13.1252 8.26557L13.1064 8.22807H13.1033Z" fill="#F5CE00" stroke="black" stroke-width="0.03" stroke-miterlimit="2.6"/>
<path d="M14.0153 9.10626C14.0153 9.10626 13.9528 9.10001 13.9528 9.15314C13.9528 9.15314 13.9528 9.22814 14.0528 9.21251C14.0528 9.21251 14.1465 9.19376 14.1121 9.08751C14.1121 9.08751 14.0903 9.01564 13.9996 9.02501C13.9996 9.02501 13.9153 9.02501 13.8746 9.14376C13.8746 9.14376 13.8465 9.24689 13.8996 9.33126C13.9559 9.42501 14.0934 9.48751 14.159 9.51876C14.159 9.51876 14.4309 9.62189 14.5153 9.68439C14.5153 9.68439 14.6371 9.77501 14.5809 9.85939C14.5809 9.85939 14.5621 9.89376 14.5278 9.89376C14.5278 9.89376 14.4903 9.89376 14.4871 9.85626C14.4871 9.85626 14.4871 9.87814 14.509 9.88751C14.509 9.88751 14.5371 9.90001 14.5621 9.87814C14.5621 9.87814 14.5934 9.84689 14.5684 9.80314C14.5684 9.80314 14.5371 9.75314 14.4621 9.78439C14.4621 9.78439 14.3934 9.81876 14.4246 9.88751C14.4246 9.88751 14.4465 9.95314 14.5246 9.95001C14.5246 9.95001 14.5871 9.95001 14.6246 9.91251C14.6871 9.84689 14.6871 9.72501 14.6371 9.66251C14.6371 9.66251 14.584 9.59689 14.4871 9.55001C14.4278 9.53126 14.3153 9.48439 14.2059 9.44064C14.1215 9.40626 14.0496 9.36876 14.0028 9.31251C14.0028 9.31251 13.9621 9.26876 13.9465 9.18751C13.9465 9.18751 13.9371 9.12501 13.9746 9.11251L14.0121 9.10314L14.0153 9.10626Z" fill="#F5CE00" stroke="black" stroke-width="0.03" stroke-miterlimit="2.6"/>
<path d="M14.0063 9.10626C14.0063 9.10626 13.9406 9.09376 13.9 9.17501C13.9 9.17501 13.8781 9.22189 13.8719 9.25314M13.85 8.97189C13.85 8.97189 13.9187 8.98126 13.8844 9.07814C13.8469 9.16876 13.7906 9.19376 13.7719 9.20939M14.6281 6.36251C14.6281 6.36251 14.7906 6.25939 14.9531 6.37189M13.7125 7.35001C13.7125 7.35001 13.7344 7.25626 13.6313 7.10001C13.6313 7.10001 13.5625 6.95314 13.5312 6.86564M13.7625 6.76251L13.8344 6.96876L13.9281 7.18126" stroke="black" stroke-width="0.03" stroke-miterlimit="2.6"/>
<path d="M13.7875 7.44685C13.7875 7.44685 13.85 7.51248 13.8438 7.62185M13.5906 7.37498C13.5906 7.37498 13.6562 7.40623 13.65 7.58748C13.65 7.58748 13.6469 7.71248 13.7437 7.78123M13.5781 7.82498C13.5781 7.82498 13.7875 7.8031 13.8031 7.93435C13.8031 7.93435 13.8031 8.05935 13.8781 8.06873C13.8781 8.06873 13.9813 8.0781 14.0031 8.18123M13.6469 7.96873C13.6469 7.96873 13.6844 8.02185 13.7219 8.04998M13.9156 7.83123C13.9156 7.83123 13.9656 7.9156 13.9781 7.95935M14.1438 6.8656C14.1438 6.8656 14.1938 6.93123 14.2406 6.95935M14.3375 7.25935C14.3375 7.25935 14.4437 7.30935 14.4312 7.57185C14.4312 7.57185 14.4125 7.7281 14.4594 7.81248" stroke="black" stroke-width="0.03" stroke-miterlimit="10"/>
<path d="M13.8467 7.08131L13.8592 7.1063C13.8592 7.1063 14.0467 7.11568 14.1436 6.98756L14.1342 6.96256C14.1342 6.96256 13.9686 6.95318 13.8529 7.08131H13.8467Z" fill="#784421" stroke="black" stroke-width="0.03"/>
<path d="M14.5215 8.07808C14.5215 8.07808 15.1652 7.89058 15.4152 7.77808" stroke="black" stroke-width="0.03" stroke-miterlimit="10"/>
<path d="M14.4535 6.89058L14.4473 6.87183L14.7629 6.74683L14.7723 6.77183L14.4535 6.89058Z" fill="#784421" stroke="black" stroke-width="0.03"/>
<path d="M14.4814 6.87813L14.6939 7.91875M14.5189 6.86875L14.7596 7.9M14.5596 6.85L14.8221 7.87813M14.6658 6.8125L15.0252 7.58125M14.7127 6.8L15.0971 7.55625M14.7439 6.78125L15.1627 7.54063M14.6783 7.92812L14.8408 7.87813M14.5564 7.82812C14.5564 7.82812 15.0314 7.6875 15.4002 7.54063M14.5439 7.875C14.5439 7.875 15.1533 7.71875 15.3939 7.6M14.7314 8.36875L14.7627 8.47188L14.8502 8.44063L14.8189 8.34375M14.9752 8.30313L15.0064 8.39688L15.0939 8.36875L15.0627 8.275M14.5627 7.725L14.5564 7.59375L15.3533 7.35313L15.3939 7.46562M14.8939 7.49062L14.9346 7.60938M15.1721 7.40938L15.2221 7.52187M15.2377 7.3875L15.2877 7.49062M15.3002 7.36562L15.3502 7.47813M15.3502 7.35313L15.4377 7.30312L15.4752 7.4M15.3939 7.32812L15.4377 7.43125" stroke="black" stroke-width="0.03" stroke-miterlimit="10"/>
<path d="M13.4223 8.84692C13.4223 8.84692 13.266 8.68755 13.4223 8.53442C13.4223 8.53442 13.2504 8.45317 13.2785 8.31567M13.7035 8.97192C13.7035 8.97192 13.5379 8.9938 13.5879 8.67817C13.5879 8.67817 13.5191 8.80317 13.4973 8.86567C13.4875 8.89675 13.4883 8.93019 13.4996 8.96074C13.5109 8.99129 13.5321 9.01721 13.5598 9.03442C13.5879 9.05317 13.7316 9.09067 13.7785 8.99692M13.5191 8.49067C13.5191 8.49067 13.4535 8.55005 13.5004 8.65942M13.5879 8.50317C13.5879 8.50317 13.5941 8.61255 13.6504 8.67192M13.6348 8.46255C13.6348 8.46255 13.6348 8.58755 13.7254 8.6688M13.6785 8.4188C13.6785 8.4188 13.6785 8.55942 13.7848 8.65005M14.2066 8.62817C14.2066 8.62817 14.2566 8.5063 14.3691 8.51567C14.3691 8.51567 14.316 8.54067 14.316 8.5938C14.316 8.5938 14.3098 8.68755 14.4066 8.6938C14.4066 8.6938 14.4848 8.7063 14.5254 8.66255" stroke="#00247D" stroke-width="0.03" stroke-miterlimit="10"/>
<path d="M14.4717 9.15935C14.4717 9.15935 14.1936 9.0281 14.2217 8.84373C14.2217 8.84373 14.2342 8.73123 14.3467 8.67498M14.2842 8.79373C14.2842 8.79373 14.2592 8.87185 14.3154 8.9281M14.3498 8.7406C14.3498 8.7406 14.3123 8.8281 14.3717 8.8906M14.4186 8.69373C14.4186 8.69373 14.3748 8.76873 14.4248 8.83435M14.1623 9.1781C14.1623 9.1781 14.3123 9.31248 14.4311 9.31248M14.1154 9.22185C14.1154 9.22185 14.2561 9.33435 14.3467 9.3531M14.0654 9.2531C14.0654 9.2531 14.2373 9.40622 14.3467 9.4156M14.7748 9.55935C14.7748 9.55935 14.6029 9.6531 14.7373 9.7531M14.6623 9.45935L14.9436 9.3156M14.7342 9.50935C14.7342 9.50935 15.0154 9.33748 15.0998 9.29998M14.8811 9.52497C14.8811 9.52497 15.1217 9.36247 15.2529 9.2906M15.0404 9.51248C15.0404 9.51248 15.2061 9.38747 15.3686 9.2906M15.4217 9.13123C15.4217 9.13123 15.3404 9.00935 15.0717 9.13123C15.0717 9.13123 15.1748 9.0406 15.3686 8.96873M15.6342 8.45935C15.6342 8.45935 15.6592 8.55623 15.6342 8.6156" stroke="#00247D" stroke-width="0.03" stroke-miterlimit="10"/>
<path d="M15.2031 8.9281C15.2031 8.9281 15.2594 8.84685 15.4 8.8031C15.4 8.8031 15.4375 8.89685 15.55 8.88122C15.55 8.88122 15.7125 8.84685 15.6625 8.66247C15.6625 8.66247 15.6281 8.53122 15.4375 8.51559M16.0031 8.28747C16.0031 8.28747 16.1937 8.32497 16.1906 8.47809C16.1906 8.47809 16.2094 8.71559 15.9594 8.75934M16.1656 8.38434C16.1656 8.38434 16.2156 8.26872 16.3375 8.22185M16.1938 8.15309C16.1938 8.15309 16.2469 8.24059 16.2812 8.24997M16.1688 8.21872C16.1688 8.21872 16.2156 8.28434 16.2313 8.29684M16.15 8.28122C16.1633 8.29996 16.179 8.31678 16.1969 8.33122M15.1562 7.36872C15.1562 7.36872 15.1937 7.30622 15.2906 7.33122M15.6687 7.82497C15.6687 7.82497 15.7312 7.58122 15.9344 7.66872M15.8531 7.64997C15.8531 7.64997 15.8719 7.53747 15.8219 7.4781M15.7094 7.64059C15.7094 7.64059 15.7375 7.68747 15.7125 7.72497" stroke="#00247D" stroke-width="0.03" stroke-miterlimit="10"/>
<path d="M16.1311 10.1562C16.1311 10.1562 16.3623 10.0531 16.2904 9.87187C16.2904 9.87187 16.2686 9.80937 16.2154 9.81562C16.2154 9.81562 16.1279 9.81875 16.1436 9.94062C16.1436 9.94062 16.1748 10.0594 16.1279 10.1594L16.1311 10.1562Z" fill="#64B4D1" stroke="#00247D" stroke-width="0.03" stroke-miterlimit="2.6"/>
<path d="M16.2129 10.05C16.2129 10.05 16.266 10.0031 16.2598 9.91558C16.2598 9.91558 16.2535 9.89683 16.2598 9.89371C16.2598 9.89371 16.2723 9.89058 16.2723 9.91246C16.2723 9.91246 16.2879 10.0031 16.2285 10.0531C16.2285 10.0531 16.2254 10.0625 16.216 10.0593C16.216 10.0593 16.2098 10.0593 16.216 10.05H16.2129Z" fill="white"/>
<path d="M16.4589 9.99372C16.4589 9.99372 16.6214 9.89372 16.5339 9.72185C16.5339 9.72185 16.5058 9.67497 16.4589 9.68435C16.4589 9.68435 16.3589 9.7156 16.4371 9.85622C16.4371 9.85622 16.4746 9.94685 16.4589 9.99685V9.99372Z" fill="#64B4D1" stroke="#00247D" stroke-width="0.03" stroke-miterlimit="2.6"/>
<path d="M16.4998 9.76252C16.4998 9.76252 16.4936 9.75315 16.4998 9.74377L16.5123 9.75628C16.5123 9.75628 16.5592 9.8094 16.5217 9.89377C16.5217 9.89377 16.5186 9.90627 16.5061 9.90002V9.89065C16.5061 9.89065 16.5436 9.81565 16.4998 9.76565V9.76252Z" fill="white"/>
<path d="M15.9686 10.1125C15.9686 10.1125 15.7873 10.0688 15.8217 9.87816C15.8217 9.87816 15.8405 9.79691 15.9186 9.80941C15.9186 9.80941 16.0123 9.83441 15.9498 9.95316C15.9498 9.95316 15.9155 10.0344 15.9717 10.1125H15.9686Z" fill="#64B4D1" stroke="#00247D" stroke-width="0.03" stroke-miterlimit="2.6"/>
<path d="M15.9004 9.89062V9.875C15.9004 9.875 15.9129 9.875 15.9161 9.88125C15.9161 9.88125 15.9348 9.9125 15.9192 9.95625C15.9192 9.95625 15.9036 9.98437 15.9129 10.0125C15.9129 10.0125 15.9129 10.0219 15.9036 10.025L15.8973 10.0125C15.8973 10.0125 15.8879 9.9875 15.9036 9.95625C15.9036 9.95625 15.9223 9.9125 15.9036 9.89062H15.9004Z" fill="white"/>
<path d="M16.0998 9.75942C16.0998 9.75942 16.2061 9.70005 16.2873 9.7688C16.2873 9.7688 16.2811 9.7313 16.2123 9.71567C16.2123 9.71567 16.1811 9.61567 16.0811 9.62505C16.0811 9.62505 16.1186 9.67505 16.1748 9.71255C16.1748 9.71255 16.1186 9.7188 16.0998 9.75942ZM16.1748 9.48755C16.1748 9.48755 16.2498 9.54067 16.2748 9.57505C16.2748 9.57505 16.3029 9.53755 16.3373 9.5188C16.3373 9.5188 16.2998 9.50942 16.2748 9.52817C16.2748 9.52817 16.2404 9.49692 16.1811 9.48755H16.1748Z" fill="black"/>
<path d="M15.7748 9.70623C15.7748 9.70623 15.7654 9.68123 15.7842 9.65623C15.7842 9.65623 15.7967 9.63748 15.7904 9.60935M16.5217 8.10935C16.5217 8.10935 16.6311 8.1031 16.6467 8.0156M16.8342 7.95935C16.8342 7.95935 16.7967 7.95935 16.7654 7.99685C16.7654 7.99685 16.7373 8.03435 16.7029 8.0281" stroke="black" stroke-width="0.03" stroke-miterlimit="10"/>
<path d="M16.3623 7.78748C16.3623 7.78748 16.4186 7.78748 16.4467 7.76248C16.4467 7.76248 16.4811 7.7406 16.4998 7.77498C16.4998 7.77498 16.5311 7.82498 16.4748 7.84685C16.4748 7.84685 16.4061 7.88435 16.5154 7.9531C16.5154 7.9531 16.3842 7.9031 16.4404 7.8406C16.4404 7.8406 16.4967 7.8031 16.4717 7.78748C16.4717 7.78748 16.4654 7.77498 16.4436 7.78748C16.4217 7.80623 16.3779 7.79998 16.3623 7.78748Z" fill="black"/>
<path d="M16.4375 6.42495C16.4375 6.42495 16.4625 6.38745 16.4531 6.28745C16.4406 6.18745 16.5344 6.17182 16.5656 6.19995C16.5656 6.19995 16.6031 6.2312 16.5656 6.29682C16.5397 6.35354 16.4942 6.39903 16.4375 6.42495Z" fill="#64B4D1" stroke="#00247D" stroke-width="0.03" stroke-miterlimit="2.6"/>
<path d="M16.4688 6.34373C16.4688 6.34373 16.5062 6.30935 16.4875 6.23123L16.4937 6.22498H16.5031C16.5031 6.22498 16.5219 6.31248 16.4844 6.35623C16.4844 6.35623 16.4781 6.3656 16.4688 6.35623V6.34373Z" fill="white"/>
<path d="M16.4093 6.38745C16.4093 6.38745 16.4093 6.3437 16.3374 6.27495C16.2624 6.19995 16.3218 6.13745 16.3687 6.13745C16.3687 6.13745 16.4093 6.13745 16.4312 6.20933C16.4453 6.26941 16.4376 6.33257 16.4093 6.38745Z" fill="#64B4D1" stroke="#00247D" stroke-width="0.03" stroke-miterlimit="2.6"/>
<path d="M16.3998 6.29373C16.3998 6.29373 16.3998 6.24373 16.3311 6.1906V6.1781H16.3436C16.3436 6.1781 16.4154 6.23435 16.4154 6.29685C16.4154 6.29685 16.4154 6.30623 16.4061 6.30623C16.4061 6.30623 16.3998 6.30623 16.3998 6.29373Z" fill="white"/>
<path d="M16.3128 6.35309C16.3128 6.35309 16.2909 6.32184 16.2034 6.28747C16.1128 6.25622 16.1346 6.17809 16.1721 6.16247C16.1721 6.16247 16.2128 6.14684 16.2534 6.19684C16.2903 6.24046 16.3103 6.29594 16.3096 6.35309H16.3128Z" fill="#64B4D1" stroke="#00247D" stroke-width="0.03" stroke-miterlimit="2.6"/>
<path d="M16.2684 6.29067C16.2684 6.29067 16.2496 6.24692 16.1684 6.22504C16.1684 6.22504 16.1621 6.22504 16.1621 6.21567C16.1621 6.21567 16.1621 6.20942 16.1715 6.21254C16.1715 6.21254 16.2621 6.23129 16.2871 6.28754L16.284 6.29692C16.284 6.29692 16.2746 6.29692 16.2715 6.29067H16.2684Z" fill="white"/>
<path d="M16.3652 6.38747C16.3652 6.38747 16.3246 6.40309 16.2277 6.35622C16.1308 6.30934 16.0902 6.39059 16.1089 6.42809C16.1089 6.42809 16.1246 6.47809 16.1964 6.46559C16.26 6.46214 16.3201 6.43545 16.3652 6.39059V6.38747Z" fill="#64B4D1" stroke="#00247D" stroke-width="0.03" stroke-miterlimit="2.6"/>
<path d="M16.1442 6.4187C16.1442 6.4187 16.1879 6.44995 16.2661 6.4187H16.2754C16.2754 6.4187 16.2754 6.42495 16.2692 6.42808C16.2692 6.42808 16.1879 6.46558 16.1317 6.4312C16.1317 6.4312 16.1254 6.4312 16.1317 6.42183H16.1442V6.4187Z" fill="white"/>
<path d="M16.2285 6.08435C16.2285 6.08435 16.2723 6.10935 16.266 6.16248" stroke="black" stroke-width="0.03" stroke-miterlimit="2.6"/>
<path d="M16.4375 6.09375C16.4375 6.09375 16.4563 6.15312 16.4375 6.1875" stroke="black" stroke-width="0.03" stroke-miterlimit="10"/>
<path d="M13.131 6.42499C13.131 6.42499 13.106 6.38749 13.1154 6.28749C13.1279 6.18124 13.0372 6.17186 13.006 6.19999C13.006 6.19999 12.9685 6.23124 12.9997 6.29686C13.0264 6.35413 13.0731 6.39969 13.131 6.42499Z" fill="#64B4D1" stroke="#00247D" stroke-width="0.03" stroke-miterlimit="2.6"/>
<path d="M13.097 6.34373C13.097 6.34373 13.0657 6.30935 13.0782 6.23123V6.22498H13.0657C13.0657 6.22498 13.0501 6.31248 13.0876 6.35623C13.0876 6.35623 13.0939 6.3656 13.097 6.35623V6.34373Z" fill="white"/>
<path d="M13.1624 6.38745C13.1624 6.38745 13.1624 6.3437 13.2374 6.27495C13.3093 6.19995 13.2499 6.13745 13.2062 6.13745C13.2062 6.13745 13.1562 6.13745 13.1437 6.20933C13.1286 6.26904 13.1352 6.33219 13.1624 6.38745Z" fill="#64B4D1" stroke="#00247D" stroke-width="0.03" stroke-miterlimit="2.6"/>
<path d="M13.1721 6.29373C13.1721 6.29373 13.1721 6.24373 13.2346 6.1906C13.2346 6.1906 13.2439 6.18123 13.2346 6.1781H13.2283C13.2283 6.1781 13.1533 6.23435 13.1533 6.29685C13.1533 6.29685 13.1533 6.30623 13.1658 6.30623C13.1658 6.30623 13.1721 6.30623 13.1721 6.29373Z" fill="white"/>
<path d="M13.2598 6.35309C13.2598 6.35309 13.2785 6.32184 13.3692 6.28747C13.4567 6.25622 13.4317 6.17809 13.3973 6.16247C13.3973 6.16247 13.3598 6.14684 13.316 6.19684C13.2791 6.24046 13.2591 6.29594 13.2598 6.35309Z" fill="#64B4D1" stroke="#00247D" stroke-width="0.03" stroke-miterlimit="2.6"/>
<path d="M13.2998 6.29067C13.2998 6.29067 13.3186 6.24692 13.3998 6.22504C13.3998 6.22504 13.4061 6.22504 13.4061 6.21567C13.4061 6.21567 13.4061 6.20942 13.3998 6.21254C13.3998 6.21254 13.3092 6.23129 13.2842 6.28754V6.29692C13.2842 6.29692 13.2967 6.29692 13.2998 6.29067Z" fill="white"/>
<path d="M13.2031 6.38747C13.2031 6.38747 13.2469 6.40309 13.3406 6.35622C13.4344 6.30934 13.4781 6.39059 13.4656 6.42809C13.4656 6.42809 13.4437 6.47809 13.3719 6.46559C13.3083 6.46214 13.2483 6.43545 13.2031 6.39059V6.38747Z" fill="#64B4D1" stroke="#00247D" stroke-width="0.03" stroke-miterlimit="2.6"/>
<path d="M13.425 6.4187C13.425 6.4187 13.3844 6.44995 13.3031 6.4187H13.2969V6.42808C13.2969 6.42808 13.3844 6.46558 13.4375 6.4312C13.4375 6.4312 13.4437 6.4312 13.4375 6.42183H13.425V6.4187Z" fill="white"/>
<path d="M13.3434 6.08435C13.3434 6.08435 13.2966 6.10935 13.3059 6.16248" stroke="black" stroke-width="0.03" stroke-miterlimit="2.6"/>
<path d="M13.1314 6.09375C13.1314 6.09375 13.1126 6.15312 13.1314 6.1875" stroke="black" stroke-width="0.03" stroke-miterlimit="10"/>
<path d="M15.2098 5.54994C15.2098 5.54994 15.241 5.63432 15.2285 5.71244C15.2191 5.78744 15.2348 5.80307 15.2598 5.81869C15.2816 5.82807 15.3348 5.80619 15.3379 5.74994C15.3379 5.74994 15.4004 5.86869 15.2816 5.94682C15.2816 5.94682 15.1973 5.99994 15.1254 5.93432C15.1004 5.90619 15.0879 5.84057 15.1035 5.77807C15.1035 5.77807 15.1223 5.69369 15.0879 5.60619C15.0879 5.60619 15.1379 5.65619 15.1254 5.75932C15.1254 5.75932 15.1004 5.94682 15.2379 5.93432C15.2379 5.93432 15.3316 5.93432 15.3316 5.82182C15.3316 5.82182 15.2973 5.85932 15.2566 5.84682C15.2378 5.84233 15.2214 5.83072 15.2109 5.8144C15.2004 5.79809 15.1966 5.77834 15.2004 5.75932C15.2035 5.70932 15.2191 5.62494 15.2098 5.54994ZM15.0629 5.84369C15.0629 5.84369 15.0504 5.99369 14.9191 6.02807C14.9191 6.02807 14.9379 5.99994 14.9098 5.92494C14.9098 5.92494 14.8785 5.88744 14.8785 5.82182C14.8785 5.82182 14.841 5.85307 14.8879 5.94057C14.9191 5.99369 14.8879 6.05307 14.8848 6.05619C14.8723 6.05932 15.1004 6.02494 15.0598 5.84682L15.0629 5.84369ZM14.8879 5.70307C14.8879 5.70307 14.8535 5.66557 14.8504 5.58432C14.8504 5.49994 14.8348 5.47807 14.8223 5.47182C14.8223 5.47182 14.8379 5.54369 14.8348 5.58432C14.832 5.6161 14.8363 5.6481 14.8473 5.67807C14.8473 5.67807 14.7723 5.68744 14.7254 5.58432C14.6848 5.48119 14.641 5.49057 14.6191 5.49057C14.6191 5.49057 14.6441 5.49369 14.6941 5.58432C14.7441 5.67807 14.7598 5.69994 14.8879 5.69994V5.70307ZM14.5504 5.48432C14.5504 5.48432 14.5879 5.58432 14.5941 5.63432C14.5941 5.63432 14.4973 5.60307 14.4691 5.52494C14.4691 5.52494 14.3691 5.55619 14.4066 5.67182C14.4066 5.67182 14.316 5.64057 14.2754 5.57182C14.2754 5.57182 14.3254 5.60932 14.3723 5.62494C14.3723 5.62494 14.366 5.52807 14.4848 5.49369C14.4848 5.49369 14.5035 5.57807 14.566 5.59682L14.5504 5.48432ZM14.7066 5.31557C14.7066 5.31557 14.7441 5.36244 14.8129 5.36244C14.8322 5.36388 14.8515 5.36033 14.869 5.35212C14.8866 5.34391 14.9017 5.33132 14.9129 5.31557C14.9129 5.31557 14.9098 5.39682 14.8129 5.39994C14.8129 5.39994 14.7098 5.39994 14.7098 5.31557H14.7066ZM14.2879 5.89369L14.3504 5.95307C14.3504 5.95307 14.3879 5.99057 14.4129 5.94369C14.4129 5.94369 14.4535 5.86869 14.5035 5.87494C14.5035 5.87494 14.466 5.89682 14.4285 5.96869C14.4285 5.96869 14.4223 5.99057 14.391 5.99369C14.3754 5.99369 14.3598 5.99994 14.3348 5.97182C14.3348 5.97182 14.3129 5.94369 14.2879 5.89682V5.89369ZM14.8098 4.97494C14.7098 4.97494 14.7941 5.04994 14.7941 5.04994C14.7941 5.17494 14.6973 5.21869 14.6285 5.18119C14.5598 5.14369 14.616 5.05619 14.616 5.05619C14.616 5.05619 14.541 5.10307 14.5848 5.17807C14.6348 5.25307 14.7629 5.21557 14.8098 5.14994C14.8566 5.21869 14.9879 5.25307 15.0316 5.17807C15.0848 5.10307 15.0066 5.05307 15.0066 5.05307C15.0066 5.05307 15.0629 5.14369 14.991 5.17807C14.9254 5.21869 14.8223 5.17807 14.8285 5.05307C14.8285 5.05307 14.9129 4.97494 14.8129 4.97494H14.8098ZM14.8723 4.83744C14.8723 4.83744 14.9098 4.89994 14.9035 4.99369C14.9035 4.99369 14.9316 4.89994 14.8723 4.84057V4.83744ZM14.5598 4.98432C14.5598 4.98432 14.5504 4.91557 14.4848 4.90932C14.4848 4.90932 14.5441 4.94994 14.5598 4.98432ZM15.0598 4.98432C15.0598 4.98432 15.0691 4.91557 15.1379 4.90932C15.1379 4.90932 15.0816 4.94994 15.0629 4.98432H15.0598ZM14.4598 5.08432C14.4598 5.08432 14.5098 5.09994 14.541 5.06244L14.4598 5.08432ZM14.291 4.67494C14.291 4.67494 14.3504 4.67182 14.4098 4.75932C14.4098 4.75932 14.3504 4.79057 14.3348 4.80932C14.3348 4.80932 14.3348 4.77807 14.366 4.75619C14.366 4.75619 14.3535 4.71244 14.291 4.67807V4.67494ZM15.291 4.67494C15.291 4.67494 15.2285 4.67182 15.1691 4.75932C15.1691 4.75932 15.2316 4.79057 15.2441 4.80932C15.2441 4.80932 15.2441 4.77807 15.2129 4.75619C15.2129 4.75619 15.2254 4.71244 15.291 4.67807V4.67494ZM14.8316 4.74369C14.8316 4.74369 14.8848 4.75932 14.9504 4.72182C14.9504 4.72182 15.0316 4.67807 15.0848 4.72182C15.0848 4.72182 15.041 4.69994 14.9504 4.74369C14.9504 4.74369 14.866 4.79369 14.8316 4.74369Z" fill="black"/>
<path d="M14.8877 4.80004C14.8877 4.80004 14.9314 4.72191 15.0752 4.73754C15.0752 4.73754 15.0346 4.85004 14.8877 4.80004Z" fill="white"/>
<path d="M14.9811 4.80935C14.9949 4.80935 15.0061 4.79396 15.0061 4.77498C15.0061 4.75599 14.9949 4.7406 14.9811 4.7406C14.9672 4.7406 14.9561 4.75599 14.9561 4.77498C14.9561 4.79396 14.9672 4.80935 14.9811 4.80935Z" fill="#784421"/>
<path d="M14.9814 4.79692C14.9901 4.79692 14.9971 4.78713 14.9971 4.77505C14.9971 4.76297 14.9901 4.75317 14.9814 4.75317C14.9728 4.75317 14.9658 4.76297 14.9658 4.77505C14.9658 4.78713 14.9728 4.79692 14.9814 4.79692Z" fill="black"/>
<path d="M14.5879 4.62817C14.5879 4.62817 14.6754 4.63755 14.7316 4.66567C14.7316 4.66567 14.7879 4.70317 14.8504 4.6563C14.8504 4.6563 14.9191 4.61255 14.966 4.55942C14.966 4.55942 14.8566 4.6313 14.816 4.6438C14.816 4.6438 14.7785 4.61255 14.7691 4.57192C14.7691 4.57192 14.7691 4.54067 14.8316 4.48755C14.8316 4.48755 14.7535 4.51255 14.7379 4.57817C14.7478 4.60467 14.7627 4.62905 14.7816 4.65005C14.7816 4.65005 14.7691 4.65942 14.7316 4.6313C14.7316 4.6313 14.6441 4.6063 14.5879 4.6313V4.62817ZM14.8129 5.15942C14.7379 5.22505 14.8129 5.2188 14.8129 5.2188C14.8129 5.2188 14.8879 5.22505 14.8129 5.1563V5.15942ZM14.7691 4.74692C14.7691 4.74692 14.7129 4.76255 14.6441 4.72505C14.6441 4.72505 14.5629 4.6813 14.5098 4.72505C14.5098 4.72505 14.5566 4.70317 14.6441 4.74692C14.6441 4.74692 14.7348 4.79692 14.7691 4.74692Z" fill="black"/>
<path d="M14.7129 4.80004C14.7129 4.80004 14.666 4.72191 14.5254 4.73754C14.5254 4.73754 14.5629 4.85004 14.7129 4.80004Z" fill="white"/>
<path d="M14.6158 4.80935C14.6296 4.80935 14.6408 4.79396 14.6408 4.77498C14.6408 4.75599 14.6296 4.7406 14.6158 4.7406C14.602 4.7406 14.5908 4.75599 14.5908 4.77498C14.5908 4.79396 14.602 4.80935 14.6158 4.80935Z" fill="#784421"/>
<path d="M14.6152 4.79692C14.6239 4.79692 14.6309 4.78713 14.6309 4.77505C14.6309 4.76297 14.6239 4.75317 14.6152 4.75317C14.6066 4.75317 14.5996 4.76297 14.5996 4.77505C14.5996 4.78713 14.6066 4.79692 14.6152 4.79692Z" fill="black"/>
<path d="M17.5002 4.0813V9.1313C17.5002 10.4782 14.8064 10.9188 14.8064 10.9188C14.8064 10.9188 12.1064 10.4813 12.1064 9.1313V4.0813H17.5033H17.5002Z" stroke="black" stroke-width="0.03"/>
<path d="M0 0H10V7.5H0V0Z" fill="#000066"/>
<path d="M1.17188 0L4.98438 2.82812L8.78125 0H10V0.96875L6.25 3.76562L10 6.54688V7.5H8.75L5 4.70312L1.26562 7.5H0V6.5625L3.73438 3.78125L0 1V0H1.17188Z" fill="white"/>
<path d="M6.625 4.39062L10 6.875V7.5L5.76562 4.39062H6.625ZM3.75 4.70312L3.84375 5.25L0.84375 7.5H0L3.75 4.70312ZM10 0V0.046875L6.10938 2.98438L6.14062 2.29688L9.21875 0H10ZM0 0L3.73438 2.75H2.79688L0 0.65625V0Z" fill="#C8102E"/>
<path d="M3.76562 0V7.5H6.26562V0H3.76562ZM0 2.5V5H10V2.5H0Z" fill="white"/>
<path d="M0 3.01562V4.51562H10V3.01562H0ZM4.26562 0V7.5H5.76562V0H4.26562Z" fill="#C8102E"/>
</g>
<defs>
<clipPath id="clip0_202_3231">
<rect width="20" height="15" fill="white"/>
</clipPath>
</defs>
</svg>
