<svg width="20" height="15" viewBox="0 0 20 15" fill="none" xmlns="http://www.w3.org/2000/svg">
<g clip-path="url(#clip0_202_3092)">
<path d="M0.00292969 0H20.0061V15H0.00292969V0Z" fill="#FFD520"/>
<path d="M0.00292969 15H20.0061V0L0.00292969 15Z" fill="#FF4E12"/>
<path d="M10.7941 4.68744C10.6691 4.64682 10.5878 4.70932 10.5941 4.87182C10.5941 5.03119 10.6816 5.12182 10.8066 5.06244L10.7941 4.68744Z" fill="white" stroke="black" stroke-width="0.04"/>
<path d="M10.9039 4.38753C10.8007 4.30628 10.7039 4.34066 10.6539 4.49379C10.607 4.65004 10.657 4.76254 10.7945 4.74379L10.9039 4.38753Z" fill="white" stroke="black" stroke-width="0.04"/>
<path d="M11.0752 4.09373C10.9877 3.99998 10.8877 4.01873 10.8127 4.16248C10.7408 4.30623 10.7721 4.42811 10.9127 4.43436L11.0752 4.09686V4.09373ZM10.9627 5.51561C10.8096 5.57186 10.794 5.78123 10.8908 5.90936C10.9846 6.03748 11.1627 6.06248 11.2596 5.90936L10.9627 5.51561Z" fill="white" stroke="black" stroke-width="0.04"/>
<path d="M10.7848 5.07181C10.641 5.02493 10.5098 5.21868 10.4879 5.39368C10.4598 5.61243 10.1442 5.68743 10.3192 6.02181C10.3567 5.80931 10.4973 5.69056 10.6098 5.68431C10.7223 5.67493 10.891 5.65306 10.9629 5.51556L10.7848 5.07181ZM11.2442 5.93431C11.0754 5.97493 11.0504 6.19993 11.1723 6.35931C11.2754 6.49681 11.6004 6.46556 11.591 6.32806L11.2473 5.93431H11.2442ZM11.7223 7.29056C11.7317 7.14368 11.4973 7.08743 11.3848 7.11556C11.2723 7.14681 11.0567 7.11243 11.0098 6.99056C10.966 7.08743 11.0254 7.19368 11.1879 7.24681C11.3129 7.28431 11.3098 7.37181 11.2723 7.41556C11.366 7.43118 11.6379 7.43118 11.7223 7.29056Z" fill="white" stroke="black" stroke-width="0.04"/>
<path d="M11.591 6.36566C11.4254 6.29066 11.3285 6.40317 11.266 6.50942C11.1723 6.66567 10.8879 6.46567 10.791 6.67504C10.9223 6.61879 11.0535 6.73754 11.116 6.77816C11.2941 6.89379 11.6348 6.85941 11.6848 6.58441L11.591 6.36566Z" fill="white" stroke="black" stroke-width="0.04"/>
<path d="M11.6879 6.55627C11.5223 6.68127 11.4567 6.83127 11.4629 6.93127C11.4661 7.03127 11.6067 7.25315 11.7598 7.26565C11.8473 7.0844 11.8942 6.70315 11.6879 6.55627ZM11.0004 7.3344C11.0004 7.2719 11.0879 7.25002 11.1504 7.2719C11.2098 7.29065 11.3036 7.35002 11.2692 7.41565L11.0004 7.3344ZM10.0942 7.00002C10.0786 6.92815 10.1942 6.80315 10.3504 6.8719C10.5067 6.94065 10.5286 7.0719 10.4629 7.12502L10.0942 7.00002Z" fill="white" stroke="black" stroke-width="0.04"/>
<path d="M10.4754 7.13743C10.4629 7.0968 10.5785 7.01555 10.7691 7.06243C10.9629 7.11243 11.0098 7.23743 11.0035 7.3343L10.4754 7.13743ZM10.0723 7.00305C10.1754 6.92805 10.1348 6.7843 10.0441 6.73743C9.88165 6.65618 9.94102 6.44993 9.83477 6.4093C9.73165 6.36868 9.63165 6.2968 9.6254 6.2218C9.5754 6.32493 9.60665 6.41555 9.67852 6.48118C9.7504 6.54368 9.62227 6.80618 9.71602 6.87493L10.0723 7.00305ZM7.91602 6.9468C7.83165 6.81555 7.63165 6.83743 7.54727 6.93118C7.4629 7.02493 7.4754 7.1593 7.55352 7.2218L7.91602 6.9468ZM8.4004 6.74993C8.36915 6.5718 8.15352 6.55305 8.0379 6.5968C7.91915 6.64055 7.84102 6.81868 7.91602 6.9468L8.4004 6.74993Z" fill="white"/>
<path d="M7.91602 6.9468C7.83165 6.81555 7.63165 6.83743 7.54727 6.93118C7.4629 7.02493 7.4754 7.1593 7.55352 7.2218L7.91602 6.9468ZM7.91602 6.9468C7.84102 6.81868 7.91915 6.64055 8.0379 6.5968C8.15352 6.55305 8.36915 6.5718 8.4004 6.74993L7.91602 6.9468ZM10.4754 7.13743C10.4629 7.0968 10.5785 7.01555 10.7691 7.06243C10.9629 7.11243 11.0098 7.23743 11.0035 7.3343L10.4754 7.13743ZM10.0723 7.00305C10.1754 6.92805 10.1348 6.7843 10.0441 6.73743C9.88165 6.65618 9.94102 6.44993 9.83477 6.4093C9.73165 6.36868 9.63165 6.2968 9.6254 6.2218C9.5754 6.32493 9.60665 6.41555 9.67852 6.48118C9.7504 6.54368 9.62227 6.80618 9.71602 6.87493L10.0723 7.00305Z" stroke="black" stroke-width="0.04"/>
<path d="M8.71892 6.72493C8.79704 6.57805 8.64704 6.35618 8.47829 6.32493C8.33767 6.29368 8.17204 6.2968 8.11579 6.1593C8.08454 6.27805 8.17204 6.35618 8.27829 6.42493C8.38142 6.49368 8.25954 6.66868 8.42829 6.76868L8.72204 6.72493H8.71892Z" fill="white" stroke="black" stroke-width="0.04"/>
<path d="M8.70711 6.73118C8.66961 6.62493 8.74148 6.48118 8.88523 6.49368C9.03211 6.50306 9.11336 6.60618 9.05086 6.74056L8.70711 6.73118Z" fill="white" stroke="black" stroke-width="0.04"/>
<path d="M9.02864 6.74062C9.00676 6.62812 9.09739 6.49687 9.24114 6.52812C9.38176 6.55937 9.44739 6.675 9.36614 6.79375L9.02864 6.7375V6.74062Z" fill="white" stroke="black" stroke-width="0.04"/>
<path d="M9.34376 6.79065C9.33126 6.67815 9.42813 6.55315 9.56876 6.59065C9.70938 6.62815 9.76876 6.7469 9.68126 6.86253L9.34688 6.79065H9.34376ZM6.91876 8.6344C6.64688 8.6344 6.58126 8.6969 6.54376 8.97815C6.49376 9.3219 6.96563 9.36252 6.91876 8.6344Z" fill="white" stroke="black" stroke-width="0.04"/>
<path d="M7.03789 8.27188C6.62539 8.11563 6.40039 8.77187 5.98789 8.65312C6.13477 8.8875 6.49102 8.65313 6.62539 8.67813C6.85039 8.71875 7.33789 8.63438 7.03789 8.27188ZM6.76914 9.16875C6.56289 9.075 6.34414 9.3875 6.38164 9.52812C6.43477 9.7 6.90352 9.55937 6.76914 9.16875ZM5.81289 10.5219C5.92539 10.5531 6.06289 10.6156 6.03789 10.8344C6.01289 11.0531 5.60039 11.4938 5.23164 11.5219C4.86289 11.5438 4.73164 11.9906 4.40977 11.8656C4.70977 11.8094 4.70977 11.4719 4.94102 11.3656C4.77227 11.3031 4.68477 11.6875 4.46602 11.6875C4.24727 11.6875 4.14414 12.0344 3.87852 12.0094C3.61289 11.9875 3.58789 12.4312 3.05352 12.4375C2.64727 12.4406 2.14727 12.9156 1.96289 12.7094C2.35977 12.6531 2.51914 12.4344 2.75352 12.1938C3.12852 11.8094 3.55664 11.9812 3.70352 11.6406C3.53483 11.7545 3.3351 11.8134 3.13164 11.8094C2.88164 11.8031 2.61289 12.2031 2.33477 12.0281C2.49414 12.0062 2.60039 11.9375 2.76914 11.7594C2.94102 11.5781 3.19727 11.6969 3.39727 11.5094C3.70977 11.2219 3.98164 11.4625 4.28164 11.1031C4.19727 11.0594 4.01602 11.0875 3.84727 11.1781C3.67852 11.2656 3.46289 11.1156 3.26914 11.2219C3.29102 10.9844 3.74414 11.1187 4.02539 10.9562C4.34414 10.7687 4.60664 10.825 4.85664 10.8469C4.50664 10.8469 4.37227 10.5125 3.88789 10.6094C3.67852 10.6531 3.50977 10.3187 3.30039 10.4875C3.30664 10.3625 3.52539 10.2625 3.75039 10.3844C3.97539 10.5062 4.06602 10.2781 4.51602 10.5625C4.70352 10.6781 5.01914 10.4875 5.21914 10.6125C5.19414 10.5375 5.07852 10.4875 4.94414 10.5C5.02852 10.325 5.57539 10.3469 5.81289 10.5219Z" fill="white" stroke="black" stroke-width="0.04"/>
<path d="M6.16895 10.2594C5.99395 10.1219 5.74707 10.2875 5.5752 10.2219C5.5752 10.3344 5.63457 10.5032 5.81895 10.5688C5.8752 10.5282 6.13145 10.3063 6.16895 10.2594Z" fill="white" stroke="black" stroke-width="0.04"/>
<path d="M6.44707 9.86875C6.16895 9.72812 6.12207 10.0781 5.90332 10.0062C5.9127 10.1062 5.99395 10.2312 6.16895 10.2594L6.4502 9.86875H6.44707Z" fill="white" stroke="black" stroke-width="0.04"/>
<path d="M6.61328 9.55002C6.20391 9.39065 6.15078 9.7844 5.91016 9.70627C5.96641 9.84377 6.31016 9.91877 6.48828 9.86877L6.61328 9.55002ZM7.17578 7.82502C7.06641 7.66877 6.83828 7.79377 6.80078 7.97815C6.76641 8.1594 6.85391 8.41252 7.00703 8.35315L7.17578 7.8219V7.82502Z" fill="white" stroke="black" stroke-width="0.04"/>
<path d="M7.45371 7.34374C7.26621 7.29686 7.04746 7.31874 7.07246 7.49999C6.99746 7.53436 6.97871 7.77186 7.17558 7.82499L7.45371 7.34061V7.34374Z" fill="white" stroke="black" stroke-width="0.04"/>
<path d="M7.57891 7.21868C7.39141 6.99993 7.18828 7.00305 7.07266 7.09368C6.85703 7.26555 6.65078 7.16868 6.64453 7.33743C6.77266 7.23743 6.88828 7.35618 6.98828 7.3218C7.09453 7.2843 7.17266 7.48743 7.46328 7.40305L7.57891 7.21555V7.21868ZM7.13203 10.4656C7.16016 10.5187 7.33203 10.5406 7.41641 10.4531C7.52891 10.3343 7.40703 10.0093 7.22891 9.9843C7.05078 9.96243 7.03516 10.3531 7.13203 10.4656Z" fill="white" stroke="black" stroke-width="0.04"/>
<path d="M6.93164 10.4718C7.18164 10.5656 7.29102 10.3562 7.15664 10.2218C7.08734 10.3101 7.01217 10.3936 6.93164 10.4718Z" fill="white" stroke="black" stroke-width="0.04"/>
<path d="M5.98125 10.8187C5.93125 10.9656 5.68125 10.9874 5.4 11.4374C5.11875 11.8906 4.85 11.6999 4.78125 12.0093C5.11875 11.7374 5.38438 11.9156 5.5875 11.6468C5.89063 11.2374 6.14375 11.2968 6.2625 11.0218C6.43125 10.6249 7.16875 10.6343 7.2125 10.0124C6.9625 9.96555 6.17187 10.6343 5.98125 10.8187ZM12.3313 4.7343C12.6531 4.84055 12.6594 5.25618 13.0312 5.39368C13.4 5.53118 13.4375 5.86243 13.7406 5.78118C13.4594 5.70305 13.4781 5.37805 13.1844 5.2968C12.8406 5.20305 12.7094 4.67805 12.4344 4.5968M13.8094 6.91868C13.8656 7.04993 13.8562 7.27805 13.6531 7.33743C13.7625 7.40618 13.925 7.34368 14.0125 7.19368C13.8812 7.48743 13.9688 7.75305 14.1781 7.80618C14.0781 7.59993 14.3031 7.50305 14.2312 7.36868C14.3625 7.42805 14.4813 7.6093 14.475 7.7218C14.65 7.52805 14.35 7.26868 14.4031 7.08743L13.8094 6.91868ZM11.7188 8.98743C11.5219 8.81555 11.4375 9.0343 11.3438 8.95618C11.25 8.88743 11.1313 8.87805 11.0844 8.9468C11.2531 8.95305 11.1719 9.0843 11.5 9.11555C11.1719 9.13743 11.2312 9.50618 11.0125 9.48743C11.2437 9.70618 11.3656 9.29055 11.5562 9.3593C11.5 9.37493 11.6437 9.50618 11.5437 9.6843C11.7062 9.68118 11.7719 9.45618 11.7937 9.34055L11.7188 8.98743ZM7.375 10.8687C7.30625 10.8062 7.09375 10.7781 7.01562 10.8281C6.93438 10.8749 6.9625 10.8906 7.05937 10.8968C7.15625 10.9031 7.27813 11.0593 7.07188 11.0687C6.975 11.0718 7.00938 11.3062 6.80625 11.3218C6.8875 11.4218 7.125 11.3562 7.20937 11.2468C7.19375 11.3374 7.3125 11.4187 7.26562 11.5281C7.4125 11.5437 7.32812 11.2249 7.5625 11.2406C7.46875 11.2531 7.50625 11.4718 7.675 11.4156C7.575 11.4624 7.62813 11.5812 7.7375 11.5531C7.66875 11.5749 7.64375 11.6687 7.74375 11.7218C7.84063 11.5874 7.73125 11.1124 7.37813 10.8687H7.375ZM16.1437 6.42805C16.2205 6.4338 16.2976 6.42365 16.3703 6.39822C16.443 6.37279 16.5096 6.33264 16.566 6.28028C16.6224 6.22792 16.6675 6.16448 16.6982 6.09392C16.729 6.02337 16.7449 5.94722 16.7449 5.87024C16.7449 5.79326 16.729 5.71711 16.6982 5.64655C16.6675 5.576 16.6224 5.51256 16.566 5.4602C16.5096 5.40784 16.443 5.36769 16.3703 5.34226C16.2976 5.31683 16.2205 5.30668 16.1437 5.31243C16.003 5.32297 15.8715 5.38631 15.7755 5.48976C15.6795 5.59321 15.6262 5.72912 15.6262 5.87024C15.6262 6.01136 15.6795 6.14727 15.7755 6.25072C15.8715 6.35417 16.003 6.41751 16.1437 6.42805Z" fill="white"/>
<path d="M12.3313 4.7343C12.6531 4.84055 12.6594 5.25618 13.0312 5.39368C13.4 5.53118 13.4375 5.86243 13.7406 5.78118C13.4594 5.70305 13.4781 5.37805 13.1844 5.2968C12.8406 5.20305 12.7094 4.67805 12.4344 4.5968M5.98125 10.8187C5.93125 10.9656 5.68125 10.9874 5.4 11.4374C5.11875 11.8906 4.85 11.6999 4.78125 12.0093C5.11875 11.7374 5.38438 11.9156 5.5875 11.6468C5.89063 11.2374 6.14375 11.2968 6.2625 11.0218C6.43125 10.6249 7.16875 10.6343 7.2125 10.0124C6.9625 9.96555 6.17187 10.6343 5.98125 10.8187ZM13.8094 6.91868C13.8656 7.04993 13.8562 7.27805 13.6531 7.33743C13.7625 7.40618 13.925 7.34368 14.0125 7.19368C13.8812 7.48743 13.9688 7.75305 14.1781 7.80618C14.0781 7.59993 14.3031 7.50305 14.2312 7.36868C14.3625 7.42805 14.4813 7.6093 14.475 7.7218C14.65 7.52805 14.35 7.26868 14.4031 7.08743L13.8094 6.91868ZM11.7188 8.98743C11.5219 8.81555 11.4375 9.0343 11.3438 8.95618C11.25 8.88743 11.1313 8.87805 11.0844 8.9468C11.2531 8.95305 11.1719 9.0843 11.5 9.11555C11.1719 9.13743 11.2312 9.50618 11.0125 9.48743C11.2437 9.70618 11.3656 9.29055 11.5562 9.3593C11.5 9.37493 11.6437 9.50618 11.5437 9.6843C11.7062 9.68118 11.7719 9.45618 11.7937 9.34055L11.7188 8.98743ZM7.375 10.8687C7.30625 10.8062 7.09375 10.7781 7.01562 10.8281C6.93438 10.8749 6.9625 10.8906 7.05937 10.8968C7.15625 10.9031 7.27813 11.0593 7.07188 11.0687C6.975 11.0718 7.00938 11.3062 6.80625 11.3218C6.8875 11.4218 7.125 11.3562 7.20937 11.2468C7.19375 11.3374 7.3125 11.4187 7.26562 11.5281C7.4125 11.5437 7.32812 11.2249 7.5625 11.2406C7.46875 11.2531 7.50625 11.4718 7.675 11.4156C7.575 11.4624 7.62813 11.5812 7.7375 11.5531C7.66875 11.5749 7.64375 11.6687 7.74375 11.7218C7.84063 11.5874 7.73125 11.1124 7.37813 10.8687H7.375ZM16.1437 6.42805C16.2205 6.4338 16.2976 6.42365 16.3703 6.39822C16.443 6.37279 16.5096 6.33264 16.566 6.28028C16.6224 6.22792 16.6675 6.16448 16.6982 6.09392C16.729 6.02337 16.7449 5.94722 16.7449 5.87024C16.7449 5.79326 16.729 5.71711 16.6982 5.64655C16.6675 5.576 16.6224 5.51256 16.566 5.4602C16.5096 5.40784 16.443 5.36769 16.3703 5.34226C16.2976 5.31683 16.2205 5.30668 16.1437 5.31243C16.003 5.32297 15.8715 5.38631 15.7755 5.48976C15.6795 5.59321 15.6262 5.72912 15.6262 5.87024C15.6262 6.01136 15.6795 6.14727 15.7755 6.25072C15.8715 6.35417 16.003 6.41751 16.1437 6.42805Z" stroke="black" stroke-width="0.04"/>
<path d="M13.2314 7.09998C13.4033 6.9406 13.6596 6.85935 13.8377 6.98123C14.0127 7.09998 14.6002 7.24373 14.8908 7.04373C15.1814 6.84373 15.3189 6.73748 15.4471 6.76248C15.5408 6.90623 15.6596 6.97498 15.8033 6.98748C15.8471 7.03748 16.0064 7.07498 16.0939 7.0656C16.2221 7.09685 16.3783 7.05623 16.5033 6.91873C16.6971 6.94998 16.8783 6.8031 16.9471 6.58435C17.1533 6.56248 17.1658 6.33435 17.0346 6.1781C16.9158 6.15623 17.0064 5.74685 16.5689 5.8281C16.7564 5.9406 16.6127 6.1656 16.7658 6.27185C16.6627 6.27185 16.5252 6.3156 16.4939 6.47185C16.5346 6.3656 16.4877 6.2906 16.4627 6.26873C16.4627 6.17498 16.2596 5.94685 16.0658 6.03123C16.2033 6.06248 16.1283 6.28123 16.2283 6.36873C16.1904 6.37027 16.1532 6.38034 16.1197 6.3982C16.0861 6.41605 16.0571 6.44122 16.0346 6.47185C15.9814 6.3781 15.7971 6.28435 15.6846 6.27498C15.6846 6.24373 15.6783 6.18123 15.6627 6.14685C15.6127 6.04998 15.5689 5.93435 15.5908 5.78748C15.4994 5.89505 15.4237 6.01498 15.3658 6.14373C15.2127 6.03748 14.8346 6.1906 14.6564 6.23123C14.4814 6.27185 13.8846 6.17498 13.7502 6.03123C13.559 5.87835 13.334 5.77335 13.0939 5.72498C12.7502 5.62498 12.7502 5.24998 12.3721 4.9906C12.3627 5.45935 13.0721 6.9406 13.2314 7.09998ZM9.2877 10.6594C9.43108 10.6594 9.56859 10.6024 9.66998 10.501C9.77136 10.3996 9.82832 10.2621 9.82832 10.1187C9.82832 9.97534 9.77136 9.83783 9.66998 9.73645C9.56859 9.63506 9.43108 9.5781 9.2877 9.5781C9.14431 9.5781 9.0068 9.63506 8.90542 9.73645C8.80403 9.83783 8.74707 9.97534 8.74707 10.1187C8.74707 10.2621 8.80403 10.3996 8.90542 10.501C9.0068 10.6024 9.14431 10.6594 9.2877 10.6594Z" fill="white" stroke="black" stroke-width="0.04"/>
<path d="M8.0002 10.2437C8.10957 10.3843 8.29395 10.375 8.37207 10.3656C8.43457 10.5343 8.64082 10.5281 8.72832 10.6218C8.81895 10.7156 9.11895 10.7062 9.20645 10.6531C9.12832 10.6468 9.02207 10.5968 8.9252 10.5125C8.8002 10.4125 8.85645 10.2062 8.7627 10.1375C8.7922 10.0999 8.81355 10.0566 8.82538 10.0103C8.83722 9.96406 8.83929 9.91583 8.83145 9.86872C8.90645 9.82497 8.9627 9.75309 8.96895 9.71559C9.08106 9.71018 9.18751 9.66472 9.26895 9.58747C9.3377 9.64997 9.50957 9.56872 9.60332 9.67497C9.62207 9.40934 9.36895 9.26872 9.19707 9.35934C9.13145 9.32184 8.9502 9.34684 8.91582 9.39372C8.8627 9.36872 8.70332 9.44997 8.63457 9.50309C8.7127 9.45934 8.7252 9.32497 8.69395 9.27809C8.7627 9.24684 8.8377 9.15622 8.84707 9.09059C8.94082 9.10622 9.0877 9.04059 9.1502 9.05622C9.04707 8.91872 8.8752 8.86872 8.69707 8.88434C8.5127 8.89372 8.43457 9.02184 8.40957 9.15934C8.30332 9.22497 8.26582 9.44059 8.30645 9.51872C8.24395 9.51872 8.18457 9.57809 8.1627 9.61247C8.06937 9.57404 7.96984 9.55286 7.86895 9.54997M7.90957 9.33122C7.87207 9.22497 7.91895 9.13122 7.94395 9.04997C8.00645 8.83747 7.96895 8.78122 7.77832 8.80934C7.78956 8.9899 7.83405 9.16683 7.90957 9.33122Z" fill="white"/>
<path d="M8.0002 10.2437C8.10957 10.3843 8.29395 10.375 8.37207 10.3656C8.43457 10.5343 8.64082 10.5281 8.72832 10.6218C8.81895 10.7156 9.11895 10.7062 9.20645 10.6531C9.12832 10.6468 9.02207 10.5968 8.9252 10.5125C8.8002 10.4125 8.85645 10.2062 8.7627 10.1375C8.7922 10.0999 8.81355 10.0566 8.82538 10.0103C8.83722 9.96406 8.83929 9.91583 8.83145 9.86872C8.90645 9.82497 8.9627 9.75309 8.96895 9.71559C9.08106 9.71018 9.18751 9.66472 9.26895 9.58747C9.3377 9.64997 9.50957 9.56872 9.60332 9.67497C9.62207 9.40934 9.36895 9.26872 9.19707 9.35934C9.13145 9.32184 8.9502 9.34684 8.91582 9.39372C8.8627 9.36872 8.70332 9.44997 8.63457 9.50309C8.7127 9.45934 8.7252 9.32497 8.69395 9.27809C8.7627 9.24684 8.8377 9.15622 8.84707 9.09059C8.94082 9.10622 9.0877 9.04059 9.1502 9.05622C9.04707 8.91872 8.8752 8.86872 8.69707 8.88434C8.5127 8.89372 8.43457 9.02184 8.40957 9.15934C8.30332 9.22497 8.26582 9.44059 8.30645 9.51872C8.24395 9.51872 8.18457 9.57809 8.1627 9.61247C8.06937 9.57404 7.96984 9.55286 7.86895 9.54997M7.90957 9.33122C7.87207 9.22497 7.91895 9.13122 7.94395 9.04997C8.00645 8.83747 7.96895 8.78122 7.77832 8.80934C7.78956 8.9899 7.83405 9.16683 7.90957 9.33122Z" stroke="black" stroke-width="0.04"/>
<path d="M7.76953 8.82185C7.81953 8.87185 7.98828 8.89372 8.00703 8.7406C8.02891 8.5656 7.95703 8.49685 7.80391 8.5656C7.79141 8.60622 7.77891 8.76872 7.77266 8.82185H7.76953Z" fill="white" stroke="black" stroke-width="0.04"/>
<path d="M7.80664 8.55933C7.86914 8.58433 8.00977 8.63745 8.08789 8.48745C8.15039 8.36245 8.06602 8.2687 7.93164 8.27495C7.90039 8.31245 7.83789 8.44058 7.80664 8.55933Z" fill="white" stroke="black" stroke-width="0.04"/>
<path d="M7.92578 8.26243C7.94141 8.31243 8.10703 8.4718 8.22578 8.35618C8.34766 8.24055 8.34766 8.06555 8.16641 8.00305C8.11953 8.0093 7.97266 8.17805 7.92578 8.26243Z" fill="white" stroke="black" stroke-width="0.04"/>
<path d="M8.16602 7.99993C8.20039 8.10305 8.31602 8.27493 8.52539 8.1968C8.73477 8.11555 8.64414 7.85305 8.54727 7.79993C8.40727 7.83996 8.27733 7.90919 8.16602 8.00305V7.99993Z" fill="white" stroke="black" stroke-width="0.04"/>
<path d="M8.54709 7.79998C8.53146 7.8906 8.54709 8.13123 8.83459 8.1281C9.11896 8.12185 9.04084 7.78748 8.96584 7.7406C8.85021 7.7406 8.65334 7.74373 8.54709 7.8031V7.79998Z" fill="white" stroke="black" stroke-width="0.04"/>
<path d="M8.9781 7.75C8.94685 7.82187 8.87497 8.27188 9.43435 8.14688C9.50622 8.13125 9.69372 7.71563 8.9781 7.75313V7.75Z" fill="white" stroke="black" stroke-width="0.04"/>
<path d="M9.2852 7.79376C9.22895 7.85001 9.3727 8.30314 9.75395 8.22814C10.129 8.15001 9.81333 7.71876 9.2852 7.79064V7.79376Z" fill="white" stroke="black" stroke-width="0.04"/>
<path d="M9.60617 7.86243C9.54367 7.98743 9.63742 8.35618 10.103 8.35618C10.5249 8.35618 10.0812 7.86868 9.60617 7.86243Z" fill="white" stroke="black" stroke-width="0.04"/>
<path d="M9.97196 7.96872C9.94071 8.0406 9.90633 8.43122 10.4563 8.4656C10.8532 8.4906 10.7563 7.92497 9.97196 7.96872Z" fill="white" stroke="black" stroke-width="0.04"/>
<path d="M10.5631 8.1344C10.4975 8.25627 10.4256 8.55627 11.0287 8.58127C11.4131 8.5969 11.1756 8.14377 10.5662 8.1344H10.5631Z" fill="white" stroke="black" stroke-width="0.04"/>
<path d="M11.0657 8.22815C10.9782 8.3469 11.0438 8.5844 11.2688 8.62815C11.5501 8.6844 11.5907 8.41877 11.3969 8.29065C11.2032 8.16565 11.0657 8.22815 11.0657 8.22815Z" fill="white" stroke="black" stroke-width="0.04"/>
<path d="M11.3445 8.28125C11.2789 8.39688 11.3164 8.66875 11.7445 8.66875C11.832 8.66875 12.1695 8.325 11.3414 8.28438L11.3445 8.28125ZM8.03516 13.5312C8.20092 13.5312 8.35989 13.4654 8.4771 13.3482C8.59431 13.231 8.66016 13.072 8.66016 12.9062C8.66016 12.7405 8.59431 12.5815 8.4771 12.4643C8.35989 12.3471 8.20092 12.2812 8.03516 12.2812C7.8694 12.2812 7.71042 12.3471 7.59321 12.4643C7.476 12.5815 7.41016 12.7405 7.41016 12.9062C7.41016 13.072 7.476 13.231 7.59321 13.3482C7.71042 13.4654 7.8694 13.5312 8.03516 13.5312Z" fill="white" stroke="black" stroke-width="0.04"/>
<path d="M12.6286 4.4281C12.5612 4.50329 12.5044 4.58741 12.4599 4.6781C12.2505 5.3031 12.8099 5.77185 13.1349 6.44997C13.2686 6.75513 13.3227 7.08923 13.2921 7.42099C13.2615 7.75274 13.1472 8.07131 12.9599 8.34685C12.8224 8.5281 12.863 8.58122 12.6849 8.7656C12.6161 8.83747 12.5411 8.9281 12.5661 9.18435C12.6786 9.14372 12.838 9.24685 12.8692 9.3406C12.9505 9.29685 13.063 9.31247 13.1036 9.36247C13.2411 9.29997 13.3536 9.33122 13.4755 9.45622C13.5786 9.44372 13.6942 9.45622 13.7974 9.57185C13.8536 9.45935 13.9661 9.4156 14.0474 9.44372C14.038 9.29685 14.1817 9.19372 14.3099 9.24997C14.2998 9.20872 14.3011 9.16553 14.3134 9.12491C14.3257 9.08428 14.3487 9.04771 14.38 9.01899C14.4113 8.99027 14.4497 8.97046 14.4912 8.96162C14.5327 8.95278 14.5759 8.95523 14.6161 8.96872C14.763 8.85622 15.0536 8.84685 15.1974 9.0156C14.938 8.94372 14.9474 9.21872 14.7286 9.19372C14.7849 9.3531 14.6411 9.44685 14.4974 9.49997C14.5911 9.45622 14.6911 9.4031 14.7224 9.45935C14.8036 9.38747 14.963 9.4156 15.0036 9.44997C15.1099 9.41872 15.213 9.44372 15.2599 9.57185C15.4067 9.65935 15.5036 9.88435 15.3974 10.0531C15.3661 9.8781 15.2442 9.88435 15.1974 9.81247C15.0849 9.8531 14.9724 9.8531 14.938 9.78122C14.8755 9.84372 14.6567 9.9031 14.563 9.80622C14.5255 9.94997 14.4005 10.0718 14.2536 10.0718C14.2942 10.1843 14.1817 10.375 14.0942 10.4718C14.2317 10.5437 14.188 10.7062 14.1567 10.8031C14.3692 10.8343 14.188 11.0218 14.5536 11.1406C14.3755 11.1968 14.0286 11.1406 13.9817 10.9218C13.8036 10.9156 13.6849 10.7375 13.6911 10.5531C13.5536 10.425 13.5349 10.2406 13.7224 10.1093C13.563 10.1593 13.4724 9.89997 13.2411 10.0062C13.1255 10.0593 12.8192 9.96872 12.8224 9.86247C12.7755 9.9406 12.4786 9.90935 12.4411 9.77185C12.3442 9.82497 12.1192 9.73747 12.1224 9.6031C11.9974 9.65935 11.8286 9.55935 11.838 9.43122C11.7192 9.4156 11.7067 9.30935 11.713 9.22185C11.6099 9.17185 11.638 9.07185 11.6817 8.9531C11.6067 8.87185 11.638 8.75935 11.6942 8.6531C11.6161 8.57185 11.6317 8.4781 11.6536 8.36247C11.2692 8.33122 10.7849 8.23747 9.67549 7.89685C8.00049 7.38122 7.55049 8.5906 7.91924 9.34685C8.34737 10.2218 7.87237 10.4093 8.01612 11.0593C8.17237 11.0906 8.25049 11.2218 8.24112 11.3593C8.33487 11.3625 8.39737 11.4468 8.36612 11.6093C8.40857 11.6024 8.45205 11.6052 8.49322 11.6177C8.5344 11.6301 8.57216 11.6519 8.60362 11.6812C8.65987 11.575 8.84737 11.55 8.94112 11.6718C9.15049 11.6562 9.25674 11.8281 9.24737 12.0343C9.29782 12.1289 9.32021 12.2359 9.31191 12.3427C9.30361 12.4496 9.26495 12.5519 9.20049 12.6375C9.21299 12.5531 9.20049 12.4343 9.19737 12.3593C9.18799 12.2281 9.00362 12.2 9.02237 12.0906C8.92862 12.1 8.83487 12.0468 8.80362 11.975C8.77571 11.999 8.74203 12.0155 8.70587 12.0226C8.66971 12.0297 8.63232 12.0273 8.59737 12.0156C8.70362 12.0625 8.79112 12.2562 8.75674 12.3843C8.81299 12.4812 8.80049 12.6593 8.73487 12.7343C8.70362 12.8906 8.57862 12.9468 8.42237 12.8781C8.51299 12.8218 8.54424 12.7218 8.54112 12.6375C8.48839 12.5848 8.45625 12.5149 8.45049 12.4406C8.29424 12.4656 8.07549 12.3312 8.03799 12.2781C7.95565 12.2781 7.87412 12.2944 7.79809 12.326C7.72206 12.3576 7.65302 12.4039 7.59494 12.4623C7.53686 12.5206 7.49089 12.5899 7.45967 12.6661C7.42844 12.7423 7.41258 12.8239 7.41299 12.9062C7.39424 12.7781 7.23174 12.65 7.25362 12.5406C7.15674 12.2437 7.29424 11.9656 7.68799 11.9093C7.63799 11.7968 7.80674 11.6812 7.74424 11.5531C7.61874 11.3249 7.46434 11.1137 7.28487 10.925C7.42237 10.6906 7.37862 10.3781 7.30049 10.1843C7.18487 9.90622 7.07549 9.97497 6.66612 10.425C5.99737 11.1593 5.10362 10.9562 4.31612 11.4406C4.10674 11.5656 3.89737 11.6156 4.12237 11.3906C4.34737 11.1656 4.94112 10.9406 5.32862 10.7468C6.05362 10.3843 6.66612 9.78122 6.90674 8.60622C7.47237 5.84372 9.56299 6.75622 10.8817 7.26872C12.1224 7.7531 11.8974 6.65935 11.2692 5.99685C10.513 5.20622 10.6661 4.58122 11.0192 4.08122C11.6536 3.99372 12.8755 4.2156 12.6286 4.4281Z" fill="white" stroke="black" stroke-width="0.04"/>
<path d="M14.8721 11.2125C14.9626 11.2125 15.0522 11.1947 15.1358 11.16C15.2194 11.1254 15.2953 11.0746 15.3593 11.0107C15.4233 10.9467 15.4741 10.8707 15.5087 10.7871C15.5433 10.7035 15.5611 10.6139 15.5611 10.5234C15.5611 10.4329 15.5433 10.3433 15.5087 10.2597C15.4741 10.1761 15.4233 10.1002 15.3593 10.0362C15.2953 9.97219 15.2194 9.92143 15.1358 9.8868C15.0522 9.85217 14.9626 9.83435 14.8721 9.83435C14.6897 9.83435 14.5149 9.90678 14.3859 10.0357C14.257 10.1646 14.1846 10.3395 14.1846 10.5219C14.1846 10.7042 14.257 10.8791 14.3859 11.008C14.5149 11.1369 14.6897 11.2094 14.8721 11.2094V11.2125Z" fill="white" stroke="black" stroke-width="0.04"/>
<path d="M12.244 4.45935C12.0878 5.13748 12.219 5.44373 12.444 5.7406C12.9096 6.35623 13.2815 7.75935 12.7503 8.6781" stroke="black" stroke-width="0.04"/>
<path d="M13.0479 7.88438C13.1104 7.8625 13.2354 7.78437 13.2604 7.65312M13.0979 7.59062C13.1166 7.475 13.2979 7.425 13.301 7.3M13.101 7.1375C13.0885 7.01562 13.2822 6.90625 13.2541 6.7875M12.9947 6.70312C12.9791 6.63437 13.1572 6.50625 13.1072 6.39687M12.8635 6.27812C12.826 6.20312 12.9479 6.11563 12.8947 6.03438M12.6697 5.94063C12.6572 5.89063 12.7322 5.775 12.6916 5.70625M12.476 5.54375C12.4916 5.52187 12.5572 5.475 12.5322 5.41563M12.3447 5.25C12.3697 5.2375 12.4479 5.2125 12.4385 5.15625" stroke="black" stroke-width="0.04" stroke-linecap="round"/>
<path d="M8.31309 12.8406C8.15684 12.7844 7.95371 12.8625 7.91309 13M8.03496 13.125C8.05371 12.9875 8.26309 12.9281 8.32559 12.9906C8.19434 12.9188 8.12871 13.1781 8.24746 13.1844M9.32871 9.94065C9.23496 9.99065 9.20371 10.1656 9.32871 10.3M9.47246 9.98127C9.40684 10.0375 9.40996 10.2063 9.50996 10.2469C9.42559 10.1844 9.50996 10.0813 9.57246 10.0781C9.63184 10.075 9.67246 10.1469 9.59746 10.2188M15.1287 10.3813C14.9037 10.3188 14.7225 10.5813 14.9287 10.8156C14.9225 10.5906 15.085 10.4406 15.2818 10.4813M15.1881 10.6375C15.1657 10.6375 15.1442 10.6464 15.1284 10.6622C15.1126 10.6781 15.1037 10.6995 15.1037 10.7219C15.1037 10.7656 15.1412 10.8094 15.2037 10.8094C15.2443 10.8094 15.2787 10.7625 15.2787 10.725M15.985 5.69377C16.0225 5.83127 16.21 5.89065 16.36 5.85627M16.36 5.76877C16.2443 5.7719 16.1475 5.66252 16.1537 5.5719C16.1537 5.64065 16.31 5.6719 16.36 5.62815" stroke="black" stroke-width="0.04" stroke-linecap="round" stroke-linejoin="round"/>
<path d="M8.37266 10.3656C8.34141 10.2844 8.46641 10.2031 8.47266 10.1281C8.47578 10.05 8.61641 9.9906 8.76328 10.1344M8.69453 9.2781L8.61641 9.3156M8.97266 9.7156C8.93828 9.7156 8.86641 9.7156 8.82891 9.68748M8.82891 9.86873C8.80391 9.88435 8.74141 9.90623 8.70391 9.9156M7.45078 12.3C7.44453 12.3719 7.51953 12.4781 7.55703 12.5094M7.76328 12.1281C7.74113 12.163 7.72613 12.202 7.71916 12.2428C7.71218 12.2835 7.71337 12.3253 7.72266 12.3656M8.36328 12.3656C8.29141 12.3187 8.33828 12.1969 8.33203 12.1156C8.32266 12.0344 8.41641 11.9062 8.59766 12.0156M7.68828 11.9062C7.76016 11.8937 7.83516 11.8969 7.88516 11.9187M8.60391 11.6781C8.57875 11.7153 8.56368 11.7584 8.56016 11.8031M8.94453 11.6687C8.88828 11.6687 8.83828 11.7094 8.81328 11.75M8.16328 9.60935C8.22578 9.63123 8.39453 9.73435 8.40078 9.8406M8.84766 9.08435C8.65078 9.08123 8.57266 8.88123 8.72266 8.88123M9.20078 9.35623C9.12578 9.38748 9.16016 9.51873 9.26953 9.58435M8.72891 10.6187C8.69141 10.5687 8.74141 10.4312 8.86641 10.4719M9.02266 12.0875C9.03203 11.9625 9.18516 11.8937 9.24766 12.0312M8.45078 12.4375C8.44141 12.3031 8.51328 12.2594 8.56953 12.25C8.63203 12.2437 8.71641 12.2937 8.75703 12.3812M7.25391 12.5375C7.26016 12.4562 7.32891 12.3719 7.40078 12.3844M14.6195 8.9656C14.5664 9.0031 14.532 9.17498 14.7289 9.1906M14.3133 9.24998C14.3133 9.26873 14.3383 9.29685 14.3539 9.31248M15.2602 9.57185C15.2102 9.53123 15.0727 9.69685 15.1977 9.81248M13.9789 10.925C13.9508 10.8094 14.057 10.7781 14.1602 10.8031M13.7227 10.1094C13.7852 10.0719 13.8477 10.025 13.9227 10.0062M13.6914 10.5531C13.6914 10.4594 13.7414 10.375 13.7852 10.3531M14.0477 9.44373C14.0429 9.54495 14.0691 9.64521 14.1227 9.73123M15.0039 9.44998C14.9445 9.46873 14.8945 9.4906 14.8727 9.5406M14.9383 9.78123C14.9695 9.75623 15.0008 9.7281 15.0133 9.70935M16.4602 6.2656C16.4602 6.3781 16.3195 6.4406 16.2258 6.36873M16.7664 6.27185C16.8289 6.31873 17.0445 6.27185 16.9945 6.14685M16.5008 6.91873C16.4423 6.90159 16.3895 6.86924 16.3477 6.82498M16.9445 6.58435C16.8727 6.59998 16.8227 6.58435 16.7883 6.56873M15.8008 6.98748C15.8711 6.98444 15.9402 6.96744 16.0039 6.93748M15.6883 6.27498C15.6352 6.26873 15.5945 6.2781 15.5664 6.29998M16.4977 6.47185C16.4821 6.53366 16.4496 6.58992 16.4039 6.63435" stroke="black" stroke-width="0.04" stroke-linecap="round"/>
<path d="M15.5479 6.65005C15.6479 6.6063 15.7729 6.94692 16.0166 6.82817M16.0354 6.47192C16.0015 6.52427 15.9821 6.58465 15.9791 6.64692" stroke="black" stroke-width="0.04" stroke-linecap="round" stroke-linejoin="round"/>
<path d="M11.2188 5.94998C11.25 5.94373 11.3094 5.93435 11.3219 5.89373M7.07812 9.69685C7.2 9.7656 7.28438 9.88123 7.23438 10.0531M12.6125 5.5781C12.65 5.6031 12.7844 5.6031 12.8625 5.5781M12.9563 5.65935C12.9563 5.7156 12.9719 5.9281 12.8625 5.97185M12.9031 5.94685C13.0031 5.9781 13.2031 5.9656 13.2688 5.78123M13.1281 5.93748C13.1813 6.01873 13.1969 6.17498 13.0406 6.25935M13.1656 6.07185C13.2844 6.10935 13.5531 6.1156 13.525 5.88435M13.4312 6.07185C13.5156 6.18123 13.8687 6.3156 13.8125 6.08123M13.1094 6.39373C13.2438 6.4281 13.4375 6.33435 13.3594 6.09373M13.7437 6.2156C13.7625 6.30935 14.2125 6.4031 14.1531 6.19373M14.0688 6.3156C14.1531 6.50935 14.6 6.49373 14.4594 6.23435M14.3875 6.43748C14.475 6.54373 14.8719 6.48123 14.7125 6.21873M14.7094 6.43123C14.9563 6.61873 15.2406 6.3531 14.9281 6.15935M15.0719 6.37185C15.2906 6.54373 15.5563 6.23123 15.3656 6.14373M13.3531 6.29998C13.4219 6.31873 13.5656 6.31248 13.6 6.18748M13.5437 6.27185C13.5375 6.4531 13.8438 6.52185 13.9219 6.31248M13.8188 6.4281C13.875 6.54998 14.1469 6.59685 14.1906 6.42498M14.1469 6.50623C14.1906 6.62498 14.425 6.61248 14.4906 6.48748M14.4031 6.56873C14.475 6.72498 14.775 6.72498 14.8406 6.49685M14.7906 6.59685C14.9062 6.66873 15.1562 6.6406 15.1344 6.4156M15.0875 6.5781C15.2625 6.71873 15.5062 6.58123 15.3844 6.34373M15.375 6.76248C15.4688 6.74685 15.5156 6.56248 15.4187 6.51248M13.2312 6.79373C13.4187 6.6906 13.4594 6.51248 13.325 6.3406M13.3938 6.61873C13.5156 6.6906 13.7438 6.61248 13.7844 6.43748M13.5594 6.63748C13.6281 6.72498 13.6406 6.83435 13.55 6.93435M13.6125 6.74998C13.8281 6.61873 14.0938 6.86248 13.8938 7.01248M13.8625 6.73748C13.9094 6.72498 13.9937 6.63748 14 6.53748M13.9563 6.83123C14.0469 6.73748 14.65 6.92498 14.2688 7.12185M14.2375 6.5781C14.3563 6.62185 14.4156 6.78748 14.2375 6.84373M14.3938 6.98123C14.5188 6.84685 14.925 6.93123 14.7781 7.09998M14.6812 6.9281C14.7531 6.68123 15.1844 6.83435 15.0437 6.93435M14.5938 6.68435C14.6063 6.73123 14.6094 6.84998 14.5312 6.9156M14.9563 6.63435C14.965 6.66204 14.9672 6.69135 14.9629 6.72006C14.9586 6.74876 14.9478 6.77609 14.9312 6.79998M15.2281 6.63748C15.2531 6.68123 15.2906 6.7656 15.2031 6.83435M11.7844 4.78748C11.7875 5.0156 11.8688 5.16873 12.1781 5.02498M11.8813 5.05935C11.725 5.2656 11.9 5.48748 12.2031 5.2656M11.4062 5.15623C11.6156 5.38123 11.9906 5.21873 11.75 4.87498M12 5.34998C11.9625 5.57185 12.1437 5.6156 12.2906 5.5156M11.2219 5.19373C11.2594 5.4156 11.4875 5.5906 11.7094 5.45623M11.4937 5.49998C11.4937 5.81873 11.9313 5.8531 12.0344 5.52498M11.8781 5.72498C12.0188 6.0156 12.325 5.89685 12.425 5.72185M11.5688 5.26248C11.625 5.4031 11.7375 5.55935 11.9969 5.44373M10.7625 5.19373C10.8 5.30935 11.0094 5.44998 11.25 5.28748M10.9125 5.34373C10.7813 5.53123 11.0375 5.70935 11.35 5.4281M11.0656 5.57498C11.1156 5.8406 11.2219 6.05623 11.5969 5.71248M11.4094 5.84998C11.5469 6.01873 11.7562 6.12185 11.9531 5.83748" stroke="black" stroke-width="0.04"/>
<path d="M12.1032 5.90002C12.0907 6.10315 12.1282 6.20315 12.2875 6.19377C12.4125 6.18752 12.5282 6.09065 12.5969 5.9844M12.2594 6.19377C12.2532 6.42502 12.4344 6.60627 12.775 6.3719M12.4 6.46565C12.3375 6.63752 12.5282 6.91877 12.9063 6.77502M11.5969 6.00627C11.575 6.22502 11.7782 6.37502 12.1094 6.09065M11.7594 6.25002C11.7719 6.43127 11.9782 6.65002 12.2782 6.3344M11.9032 6.48127C11.8813 6.79065 12.1657 6.87815 12.4063 6.64065M11.475 6.25002C11.5375 6.25627 11.5907 6.20002 11.6219 6.15627M11.6094 6.47502C11.6657 6.48752 11.7657 6.43752 11.7969 6.3719M11.7532 6.84065C11.8157 6.91252 12.0344 6.86252 12.0625 6.76877M11.9938 6.83752C12.1125 7.11877 12.4344 7.1094 12.5688 6.79065M12.5063 6.90315C12.5688 7.06877 12.7219 7.1719 12.9719 7.11565M12.6282 7.0719C12.4875 7.30002 12.6719 7.5719 12.9875 7.30627M12.7063 7.41565C12.6907 7.5594 12.8219 7.72502 13.0032 7.74377M12.1094 6.99377C12.0625 7.31877 12.2969 7.47502 12.5875 7.30002M11.7688 7.15002C11.8438 7.2094 11.9813 7.21565 12.1125 7.16877M12.2688 7.35627C12.1938 7.63127 12.475 7.82815 12.7157 7.5219M11.875 7.19377C11.8813 7.3344 12.0157 7.48752 12.2532 7.44377M12.9188 7.72502C12.7563 7.83127 12.725 8.02502 12.95 8.15002M12.525 7.66877C12.5313 7.83127 12.6094 7.92502 12.7907 7.94065M12.2875 7.5844C12.0438 7.80315 12.2813 8.06252 12.5688 7.84377M12.4563 7.91252C12.375 8.16565 12.675 8.31877 12.8375 8.06252M11.9563 7.37502C11.8688 7.62502 11.9813 7.78752 12.1875 7.7719M11.6375 7.32502C11.65 7.47502 11.7782 7.52815 11.925 7.49377M11.7313 7.48127C11.6219 7.69065 11.7875 7.80315 12.0063 7.72502M12.6625 8.19377C12.6313 8.32502 12.65 8.41877 12.8469 8.46565M12.6782 8.38127C12.4407 8.48752 12.4188 8.71877 12.6032 8.86565M12.4844 8.12502C12.456 8.14988 12.4339 8.18116 12.42 8.21626C12.4061 8.25136 12.4007 8.28927 12.4044 8.32685C12.4081 8.36443 12.4206 8.40059 12.4411 8.43234C12.4615 8.46408 12.4892 8.4905 12.5219 8.5094M11.4282 7.39065C11.2938 7.52502 11.4219 7.8969 11.725 7.69377M12.2157 7.8594C12.0282 8.01565 12.1125 8.29065 12.4188 8.21565M11.9094 7.7469C11.8125 8.01877 11.9032 8.11565 12.1219 8.11877" stroke="black" stroke-width="0.04"/>
<path d="M11.2283 7.37805C11.1984 7.3986 11.1731 7.42527 11.1543 7.45632C11.1354 7.48736 11.1234 7.52206 11.1189 7.55811C11.1145 7.59416 11.1178 7.63074 11.1285 7.66543C11.1393 7.70011 11.1574 7.73211 11.1814 7.7593C11.2533 7.84055 11.3908 7.80305 11.4314 7.69993M10.8814 7.26868C10.6971 7.50618 10.8814 7.78743 11.1439 7.70618M11.8721 7.97493C11.6846 8.04055 11.5377 8.21243 11.6533 8.36555C11.7252 8.45305 12.0221 8.46555 12.1064 8.1218M11.5314 7.75305C11.4221 7.9093 11.4564 8.0593 11.6564 8.1343M11.5189 8.0468C11.4002 8.1093 11.3252 8.18743 11.3533 8.32805M11.2564 7.79993C11.2127 7.98743 11.2658 8.10618 11.3814 8.16243M11.2533 8.02493C11.0721 8.01243 10.9783 8.08743 11.0408 8.26868M11.0564 8.06868C10.8783 8.00618 10.8502 7.84993 10.9283 7.69368M10.9033 7.93118C10.7096 7.93743 10.6221 8.0343 10.6221 8.16555" stroke="black" stroke-width="0.04"/>
<path d="M10.6406 7.17812C10.5 7.2375 10.4531 7.42813 10.5063 7.53125C10.5594 7.63437 10.725 7.64375 10.825 7.575M10.25 7.02812C10.1219 7.17187 10.2688 7.45625 10.5 7.3875M9.91876 6.91563C9.80001 7.08438 9.93126 7.36563 10.2406 7.28438M10.2563 8.06875C10.225 7.86875 10.4344 7.7375 10.6938 7.99687M10.5688 7.59062C10.532 7.62371 10.5034 7.665 10.4855 7.71114C10.4676 7.75728 10.4608 7.80699 10.4656 7.85625M9.59064 6.81875C9.45626 7.04375 9.61876 7.25 9.90314 7.16875M10.3344 7.37813C10.1469 7.56563 10.2094 7.75625 10.35 7.86562M10.2125 7.6C9.92814 7.60312 9.91251 7.93438 10.1438 8.0375M9.99689 7.26875C9.87814 7.35 9.84064 7.57188 10.0438 7.65938M9.98751 7.76562C9.86564 7.70938 9.72189 7.77812 9.73439 7.91875M9.80626 7.76875C9.69689 7.5125 9.38126 7.55625 9.40939 7.82188M9.89376 7.45C9.82814 7.4625 9.69064 7.50312 9.63751 7.60625M9.65626 7.15938C9.63113 7.18531 9.6128 7.21707 9.60293 7.25181C9.59305 7.28655 9.59193 7.3232 9.59967 7.35848C9.60741 7.39376 9.62376 7.42657 9.64727 7.45399C9.67077 7.48142 9.70071 7.50259 9.73439 7.51562M9.27189 6.75C9.24689 6.925 9.31564 7.00938 9.53439 6.99375M9.34689 6.97188C9.26564 7.18125 9.37814 7.275 9.59689 7.2625M9.39689 7.23125C9.26876 7.38437 9.35626 7.54687 9.48126 7.61562M9.33751 7.425C9.10626 7.39375 9.07189 7.6625 9.15001 7.78438" stroke="black" stroke-width="0.04"/>
<path d="M9.15391 6.73438C9.01328 6.79688 8.93203 6.97187 9.00703 7.07812C9.08516 7.1875 9.23828 7.15313 9.31953 7.09688M9.05703 7.12813C8.93828 7.30625 9.04453 7.44062 9.16953 7.49062" stroke="black" stroke-width="0.04"/>
<path d="M8.60371 6.71252C8.50996 6.8094 8.56934 7.00627 8.79121 7.01252C8.97559 7.01252 9.06621 6.84377 9.00996 6.7219M8.75996 7.01252C8.68809 7.1719 8.73496 7.3469 9.00996 7.31877M9.12246 7.56877C8.95684 7.49377 8.72871 7.56877 8.82559 7.7719M8.80371 7.2844C8.73496 7.38127 8.75684 7.51877 8.83496 7.60315M8.79121 7.54065C8.67871 7.56252 8.56934 7.6219 8.63496 7.80002M8.61934 7.65627C8.47559 7.61252 8.29121 7.71877 8.40059 7.86565M8.37871 7.72502C8.25371 7.70315 8.10684 7.83752 8.22559 7.96877M8.17871 7.8594C8.06621 7.89065 7.93184 8.01565 8.05059 8.11877M8.74746 7.22815C8.58496 7.30002 8.56934 7.48127 8.64434 7.61565M8.57559 6.8969C8.33496 6.99065 8.33809 7.3094 8.60684 7.4094M8.49121 7.33752C8.34746 7.4219 8.31934 7.5844 8.41621 7.68752M8.23809 6.77502C8.14434 6.80627 8.15059 7.10315 8.40684 7.0969M7.97246 6.87502C7.77871 7.00315 8.01309 7.32815 8.32559 7.09377M8.15371 7.17815C8.12559 7.3094 8.16309 7.45315 8.37559 7.4719M8.16621 7.35315C8.01309 7.4094 7.98496 7.72502 8.25996 7.75002M7.67871 7.06877C7.48184 7.25002 7.84121 7.40627 7.97246 7.14377M7.40684 7.36877C7.30996 7.48752 7.64746 7.79377 7.79746 7.28127M7.83184 7.2719C7.84121 7.3969 7.91309 7.46565 8.05996 7.47502M8.05996 7.59065C7.81934 7.62815 7.74434 7.92502 8.00996 7.99065M7.61934 7.55315C7.60996 7.66252 7.72871 7.75627 7.85996 7.73752M7.98184 7.98127C7.76309 8.03127 7.73496 8.31252 7.92871 8.29377M7.82871 8.55627C7.64746 8.50315 7.64121 8.28752 7.80371 8.20627" stroke="black" stroke-width="0.04"/>
<path d="M7.67812 8.36868C7.525 8.46243 7.58438 8.68118 7.66563 8.71243C7.74688 8.74368 7.8125 8.70618 7.82188 8.63743M7.80625 8.94993C7.825 9.05305 7.43438 9.01243 7.63438 8.68743M7.63438 8.96555C7.50313 9.1718 7.71562 9.34055 7.85 9.16243M7.65 9.21243C7.59688 9.37805 7.79688 9.4968 7.925 9.36868M7.21875 7.66868C7.14688 7.81555 7.50938 7.8718 7.53125 7.56555M7.11875 7.88743C7.04688 8.17805 7.59375 8.11868 7.45312 7.74368M7.46562 7.93743C7.50197 7.95445 7.54181 7.96269 7.58193 7.9615C7.62205 7.9603 7.66133 7.9497 7.6966 7.93055C7.73187 7.91139 7.76215 7.88422 7.78499 7.85122C7.80784 7.81821 7.82261 7.78031 7.82812 7.74055M7.6625 7.9468C7.67241 7.98784 7.69054 8.02644 7.71578 8.06027C7.74103 8.09411 7.77286 8.12248 7.80937 8.14368M7.4 8.0218C7.375 8.17805 7.53438 8.3093 7.7125 8.2968M7.42812 8.17493C7.34062 8.2968 7.3125 8.52805 7.59062 8.54368M7 8.21868C6.95625 8.34368 7.21875 8.4718 7.36875 8.26555M6.91875 8.53743C6.89687 8.63118 7.13125 8.75618 7.2625 8.35618M7.15938 8.5593C7.21563 8.6593 7.40625 8.74055 7.52187 8.54368M7.33437 8.66555C7.28437 8.80618 7.41875 8.93743 7.57812 8.89993M7.03125 8.6343C7 8.8343 7.23438 8.94993 7.375 8.8468M6.87813 8.7218C6.80938 8.97805 7.14062 9.07493 7.26562 8.88118M7.18125 8.9593C7.19375 9.10305 7.41875 9.22805 7.59375 9.1093M6.77812 9.07805C6.7625 9.14368 7.03125 9.2093 7.07188 8.9843M6.93437 9.13743C6.99687 9.29993 7.21562 9.34055 7.34062 9.13743M7.26875 9.21868C7.3 9.37493 7.49375 9.4593 7.66875 9.35305M7.74062 9.41555C7.69687 9.61868 7.90937 9.7843 8.04062 9.6718M7.39687 9.37805C7.33437 9.60305 7.61562 9.73118 7.77187 9.60618M7.05937 9.26243C7.04375 9.47493 7.20937 9.59993 7.39687 9.50618M6.7 9.28743C6.64375 9.4218 6.94375 9.5343 7.08437 9.41868M6.51562 9.6593C6.59375 9.7468 6.85937 9.6593 6.88125 9.46243M6.80937 9.60618C6.90625 9.71868 7.1375 9.78118 7.22813 9.53743M7.14687 9.66243C7.14687 9.83743 7.45312 9.96243 7.55312 9.64368M7.91875 9.70618C7.8875 9.79055 7.95625 9.92493 8.09688 9.94055M7.6625 9.65305C7.64375 9.7468 7.78437 9.8843 7.93437 9.83118M7.9625 9.8718C7.92188 9.97493 7.95625 10.1249 8.09688 10.1218M7.975 10.0656C7.86875 10.1531 7.9125 10.3124 8.06563 10.3156M7.92188 10.2156C7.77187 10.3156 7.825 10.5374 8.02188 10.5249M7.46875 9.78118C7.46875 9.99993 7.74063 10.0312 7.79063 9.83118M7.6875 9.95618C7.64688 10.0874 7.75 10.2124 7.91563 10.1749M7.71875 11.5124C7.75625 11.5656 7.90625 11.4749 7.86562 11.3874C7.825 11.2999 7.66562 11.3468 7.68437 11.4406M7.82812 11.3499C7.84688 11.1749 7.64063 11.1468 7.5875 11.2999M7.6625 11.2093C7.71562 11.1218 7.5375 10.9999 7.46562 11.1312M7.52812 11.0781C7.57812 10.9499 7.37813 10.8906 7.3625 11.0093M7.31563 10.8406C7.34063 10.7781 7.56563 10.8156 7.47188 10.9499M7.64375 11.1093C7.73125 11.0281 7.58125 10.8656 7.4875 10.9218M8.2375 11.3562C8.16875 11.3624 8.09688 11.4093 8.14688 11.5593C8.18438 11.6624 8.3375 11.6656 8.3625 11.6062" stroke="black" stroke-width="0.04"/>
<path d="M8.14134 11.4344C8.07259 11.3875 7.92259 11.4656 7.99134 11.6094M7.99134 11.6094C8.04134 11.7188 8.17259 11.6719 8.19134 11.6156M7.99134 11.6094C7.96009 11.6719 7.79134 11.7031 7.75384 11.6406M7.87259 11.4406C7.91009 11.4156 7.97572 11.4469 7.98822 11.4781M7.86322 10.4469C7.74447 10.525 7.81634 10.7594 7.99759 10.6969M7.82259 10.6375C7.72884 10.7094 7.81634 10.9375 7.98822 10.85M7.85384 10.85C7.78822 10.9156 7.85072 11.0937 8.01634 11.0594M7.82884 10.9406C7.79134 10.925 7.69759 10.9344 7.65697 10.9969M7.72259 10.1219C7.63509 10.2094 7.67884 10.3813 7.84134 10.3969M7.69134 10.3031C7.56634 10.3656 7.56634 10.6156 7.81634 10.625M7.68197 10.5844C7.61009 10.6406 7.64447 10.8594 7.82572 10.8313M7.73822 10.8219C7.71322 10.85 7.70697 10.9156 7.73197 10.9438M7.66009 10.7406C7.59759 10.7406 7.51009 10.7875 7.48822 10.8562M7.37259 10.6219C7.39447 10.5594 7.59447 10.5594 7.61009 10.75M7.62884 10.525C7.60072 10.5312 7.54759 10.5563 7.53509 10.6125M7.54134 9.93437C7.45697 10.0156 7.41634 10.2625 7.67572 10.3094M7.36634 10.4469C7.36634 10.3812 7.54759 10.3219 7.61009 10.4219M7.25072 10.0875C7.27572 10.1375 7.40072 10.2062 7.47572 10.15M6.60072 9.69375C6.5995 9.72267 6.60467 9.7515 6.61587 9.77819C6.62706 9.80489 6.64401 9.82878 6.66549 9.84818C6.68698 9.86758 6.71247 9.882 6.74017 9.89041C6.76786 9.89883 6.79707 9.90104 6.82572 9.89688C6.96009 9.88125 6.98822 9.76562 6.94759 9.6875M6.84759 9.90312C6.75697 10.0094 6.86634 10.1625 6.96634 10.1187M6.94759 9.825C7.00072 9.80625 7.17259 9.78125 7.22572 9.8625M6.38822 9.85625C6.34759 9.91875 6.59759 9.97813 6.68197 9.8625M6.59759 9.92188C6.58822 10.0031 6.62884 10.1406 6.83509 10.0813" stroke="black" stroke-width="0.04"/>
<path d="M6.86898 10.2063C6.90023 10.1375 6.75023 10.025 6.63148 10.15C6.51586 10.275 6.65023 10.4156 6.72211 10.3687M6.33461 9.9375C6.27211 10.0438 6.50648 10.2344 6.64086 10.0562" stroke="black" stroke-width="0.04"/>
<path d="M6.17866 10.1187C6.09429 10.2062 6.20054 10.3656 6.32554 10.3156C6.45366 10.2687 6.44116 10.1344 6.40991 10.1" stroke="black" stroke-width="0.04"/>
<path d="M6.01594 10.2812C5.94719 10.3437 6.01594 10.4875 6.10969 10.4875C6.20344 10.4875 6.26281 10.4156 6.24406 10.3187M6.40031 10.2687C6.38781 10.3625 6.52531 10.425 6.61594 10.3375M6.61594 10.1687C6.63156 10.15 6.62219 10.1156 6.60031 10.0969M5.86906 10.4031C5.79094 10.4656 5.96281 10.6406 6.06594 10.4812M6.47531 10.3719C6.42531 10.4187 6.50656 10.5437 6.58781 10.5062M6.20031 10.4594C6.21281 10.5437 6.38156 10.6094 6.48781 10.4781M6.29094 10.5437C6.26594 10.6 6.31906 10.6844 6.38469 10.675M7.89406 11.0437C7.83156 11.1656 8.03156 11.3094 8.17531 11.1594M8.03781 11.225C8.00656 11.2906 8.04406 11.3844 8.10031 11.4187M7.85031 11.3656C7.86281 11.3031 7.95031 11.2469 8.02844 11.275M7.74719 11.2062C7.75656 11.15 7.82844 11.0969 7.88469 11.1125M12.5659 9.0656C12.3191 9.15623 12.1972 8.69685 12.4847 8.69373C12.3128 8.73123 12.1784 8.65935 12.1659 8.5656M12.3909 9.03435C12.3347 9.12498 12.4441 9.27185 12.5659 9.18435M12.5347 9.2031C12.4472 9.34373 12.7503 9.55935 12.8722 9.33748M12.7753 9.42185C12.7753 9.55623 13.1659 9.6406 13.1097 9.37498M13.0722 9.51873C13.1659 9.67498 13.5097 9.6906 13.4753 9.45623M13.3972 9.61873C13.4691 9.72498 13.8097 9.78748 13.7972 9.57185M12.0253 8.29685C12.0722 8.42185 12.2378 8.4656 12.4191 8.3906M11.9191 8.38435C12.0347 8.45623 11.8691 8.78748 11.6972 8.6531M11.9222 8.5906C12.0472 8.64998 12.2003 8.60623 12.2441 8.4281M11.8566 8.66248C12.0191 8.79998 11.7847 9.08123 11.6784 8.9531M11.9159 8.7656C11.9941 8.82185 12.1909 8.7906 12.2097 8.6406M12.1222 8.7656C12.1378 8.86248 12.2159 8.89998 12.3222 8.9031M11.8722 8.89998C11.9534 9.01248 12.1534 9.04373 12.2441 8.89685M12.1534 8.98123C12.1472 9.08748 12.2659 9.1781 12.3909 9.1531M11.7191 9.21873C11.8222 9.27185 11.9378 9.07185 11.8472 8.93748M11.8409 9.4281C11.9659 9.43435 11.9816 9.24685 11.8628 9.1406M12.1253 9.59998C12.2316 9.57498 12.1972 9.34685 11.9441 9.3281M12.4441 9.76873C12.5441 9.7406 12.4628 9.48748 12.1847 9.5031M12.8253 9.85935C12.8941 9.7531 12.6691 9.5781 12.4816 9.67185M13.0128 10.0031C13.1378 10.0406 13.2253 9.70935 12.8284 9.76248M13.2441 10.0031C13.3534 9.97185 13.4316 9.7781 13.1128 9.8406M13.4878 10.0187C13.5816 10.0687 13.6253 9.78435 13.3316 9.86248M11.8628 9.14373C11.9847 9.20935 12.1753 9.13123 12.1566 8.9781M12.1097 9.10935C12.1503 9.18123 12.1347 9.32185 12.0566 9.35935M12.1191 9.2781C12.2003 9.30935 12.3097 9.28123 12.3753 9.1531M12.2628 9.2781C12.2847 9.33435 12.2941 9.44685 12.2409 9.5031M12.2816 9.37498C12.3722 9.42498 12.4753 9.35935 12.5191 9.2656M12.4628 9.34685C12.5253 9.38748 12.5847 9.57498 12.4753 9.6531M12.5378 9.5656C12.6128 9.5656 12.7253 9.5656 12.7972 9.47185M12.7441 9.52498C12.8128 9.54373 12.8941 9.65623 12.8659 9.75623M12.8691 9.72185C12.9472 9.71248 13.0784 9.65935 13.1159 9.5656M13.0784 9.6281C13.1131 9.64852 13.141 9.67862 13.1588 9.71472C13.1766 9.75081 13.1834 9.79131 13.1784 9.83123M13.1784 9.7656C13.2566 9.76248 13.3253 9.72185 13.3441 9.63748M13.3253 9.69373C13.3816 9.71248 13.4503 9.7781 13.4534 9.8531M13.4441 9.80623C13.5003 9.79685 13.5409 9.76248 13.5784 9.70623M13.7316 9.69685C13.8034 9.76873 13.7066 10.0094 13.5566 9.9656M12.1847 4.81873C12.0378 4.90935 11.6128 4.88123 11.8222 4.53123M12.2284 4.58123C11.9316 4.69998 11.5722 4.47185 11.9472 4.2281M11.8472 4.14685C11.6034 4.14685 11.4378 4.5406 11.7659 4.6781M10.8941 4.31248C10.8316 4.43748 11.0597 4.57498 11.2159 4.44998C11.3378 4.3531 11.3284 4.0906 11.2566 3.9906M10.7691 4.60935C10.6878 4.87498 11.2816 4.8906 11.1878 4.46873M10.7378 5.00623C10.7566 5.20623 11.3034 5.1406 11.1284 4.73435M11.1909 4.62185C11.2347 4.68435 11.3566 4.78748 11.5628 4.7656M11.2816 4.34373C11.3003 4.4156 11.4222 4.46873 11.5784 4.4156M5.79406 10.4625C5.65344 10.5594 5.86906 10.7156 5.94719 10.5437M5.68469 10.5375C5.54719 10.6375 5.75969 10.7937 5.83781 10.6219M5.56906 10.6125C5.43156 10.7125 5.64406 10.8656 5.72531 10.6969M5.45031 10.6812C5.31594 10.7531 5.47219 10.925 5.60656 10.775M5.31906 10.7469C5.18469 10.8187 5.34094 10.9906 5.47531 10.8406M5.99406 10.5406C5.99094 10.6437 6.18469 10.6844 6.25656 10.5312M6.11594 10.6344C6.05344 10.7125 6.16594 10.8062 6.22531 10.7719M5.85656 10.6219C5.85031 10.7094 6.01906 10.7594 6.10031 10.6625M5.94719 10.7125C5.89406 10.7812 6.00031 10.8781 6.07219 10.85M5.74406 10.7C5.75031 10.7687 5.84719 10.8469 5.95031 10.8031M5.80656 10.7937C5.76594 10.8281 5.78469 10.9125 5.84094 10.9406M5.59719 10.7844C5.58156 10.8469 5.68781 10.9594 5.79719 10.8875M5.61906 10.8562C5.55656 10.9094 5.56281 10.9844 5.64406 10.9969M5.46281 10.85C5.45656 10.8937 5.50969 10.9625 5.57844 10.9531M5.11906 10.8469C5.05656 10.8812 5.21906 11.0562 5.32219 10.8937M4.95969 10.9187C4.87844 10.9562 5.07844 11.15 5.16906 10.9531M5.48156 10.9125C5.41906 10.925 5.37844 11.0156 5.43156 11.0531M5.27531 10.9437C5.26906 10.9812 5.34719 11.0375 5.40969 11.0187M5.22531 10.9594C5.16281 10.9969 5.19719 11.1031 5.26906 11.0875M5.00969 11.0312C4.95344 11.0719 4.99406 11.1562 5.07219 11.1375M5.11281 11.025C5.11281 11.0469 5.16594 11.0812 5.20656 11.0656M4.81594 10.9875C4.74406 11.0187 4.75031 11.1937 4.98781 11.1M4.65656 11.0594C4.55656 11.1062 4.59094 11.2406 4.80656 11.1125M4.82219 11.1219C4.79719 11.1437 4.76906 11.2312 4.86906 11.1969M4.64406 11.1656C4.60344 11.2 4.62844 11.275 4.71594 11.2469M4.43469 11.1781C4.36281 11.2187 4.52219 11.275 4.62844 11.1625M4.48469 11.2281C4.45344 11.2594 4.45344 11.3562 4.53469 11.3219M4.27844 11.2687C4.23156 11.3031 4.30969 11.3531 4.46594 11.2844M4.34094 11.3187C4.28156 11.3656 4.28781 11.425 4.37219 11.4062M4.17219 11.3437C4.10969 11.4031 4.20031 11.4406 4.30969 11.3937M4.17219 11.4094C4.06594 11.4562 4.11281 11.5469 4.17844 11.5125M7.73469 11.7156C7.70969 11.7687 7.79094 11.8125 7.86906 11.8C7.94094 11.7906 8.01281 11.7281 7.95656 11.6437M7.95969 11.75C8.03469 11.8062 8.16281 11.7406 8.16281 11.6562" stroke="black" stroke-width="0.04"/>
<path d="M12.4 3.21874C12.0781 3.06249 11.4094 2.76249 11.2188 3.00311C11.3937 2.93124 11.9 3.00624 12.3188 3.39374L12.4 3.22186V3.21874Z" fill="white" stroke="black" stroke-width="0.04"/>
<path d="M12.5934 3.20311C12.2215 2.76873 11.9996 2.86561 11.734 2.71873C11.484 2.57811 11.084 2.54998 11.0059 2.77186C11.3715 2.59373 11.709 2.86561 11.9184 2.90311C12.1996 2.94686 12.3621 3.16873 12.4465 3.26873L12.5934 3.20623V3.20311ZM13.9965 3.14686C13.8027 2.70623 13.3902 2.82186 13.209 2.63436C12.9434 2.35936 12.2715 2.10311 11.9902 2.29373C12.6027 2.26248 12.8652 2.71561 13.1902 2.87498C13.4246 2.98748 13.6746 3.22811 13.9965 3.14686Z" fill="white" stroke="black" stroke-width="0.04"/>
<path d="M13.2715 3.09994C12.9434 2.69057 12.434 2.32807 12.2027 2.46244C12.509 2.48119 12.6059 2.69369 12.8215 2.83119C13.0402 2.96557 12.9434 3.16557 13.2715 3.09994ZM11.7027 3.82494C11.359 3.69682 10.6809 3.63119 10.3652 4.02494C10.8902 4.11557 11.6777 4.06557 11.7027 3.82494Z" fill="white" stroke="black" stroke-width="0.04"/>
<path d="M11.6375 3.97807C11.2937 3.81557 11.0219 4.04057 10.6969 4.00932C10.0781 3.94682 9.63437 3.98432 9.57812 4.28432C9.93125 3.96557 10.5281 4.22807 10.7688 4.16244C11.0094 4.09994 11.9031 4.15307 12.1844 4.27494C12.0406 4.09682 11.8156 4.04994 11.6375 3.97807ZM12.725 3.05619C12.6438 2.79057 12.65 2.50932 13.0469 2.52807C12.9469 2.40307 12.5781 2.34057 12.5156 2.80619C12.0781 2.48432 11.5969 2.42807 11.5094 2.70619C11.7344 2.51244 12.0844 2.65307 12.5031 3.12807C12.5728 3.09259 12.6477 3.06833 12.725 3.05619Z" fill="white" stroke="black" stroke-width="0.04"/>
<path d="M12.1216 3.42183C11.8716 3.25933 11.5341 2.99995 12.1247 2.8937C11.8747 2.75933 11.4997 2.8187 11.5404 3.28433C10.8654 3.01245 10.381 3.10308 10.2779 3.37495C10.1654 3.67183 10.5841 3.83745 10.656 3.64683C10.581 3.67808 10.3185 3.59058 10.456 3.42183C10.5935 3.25308 11.2935 3.3812 11.9591 3.72808C12.1466 3.82183 12.781 3.80933 12.1216 3.42183Z" fill="white" stroke="black" stroke-width="0.04"/>
<path d="M11.9435 3.86562C11.7528 3.47187 11.1278 3.82813 11.0028 3.44688C10.8278 4.00625 11.8903 3.69687 11.9435 3.86562ZM15.9153 4.29063C16.0466 4.35625 16.1591 4.25313 15.9591 4.175C16.0903 4.2375 16.206 4.14062 16.006 4.05937C16.1372 4.12187 16.2497 4.025 16.0497 3.94375C15.9966 3.99687 15.9216 4.19375 15.9153 4.29063ZM15.9841 3.53437C16.2747 3.22812 15.9622 3.125 16.3153 2.80938C16.606 2.55313 16.3716 2.38125 16.6435 2.18438C16.7341 2.11875 16.9247 1.99062 16.9435 1.85938C17.0591 2.15 16.581 2.19063 16.6122 2.65625C16.6341 2.95312 16.431 2.92813 16.356 3.43125C16.3403 3.53438 16.2653 3.76875 15.9841 3.53437Z" fill="white" stroke="black" stroke-width="0.04"/>
<path d="M16.1123 3.6719C16.2748 3.32815 16.4592 3.33127 16.5498 3.1969C16.7186 2.93752 17.0748 3.24065 17.3779 3.0094C17.3248 3.33752 16.9186 3.2219 16.7404 3.43127C16.5654 3.64065 16.4186 3.7344 16.1154 3.6719H16.1123Z" fill="white" stroke="black" stroke-width="0.04"/>
<path d="M16.1558 3.78443C16.4371 3.55943 16.6433 3.70943 16.8371 3.59068C17.3277 3.2938 17.5246 3.65318 17.9621 3.50943C17.8496 3.79068 17.1996 3.55005 16.9183 3.75943C16.6371 3.9688 15.6464 4.17193 16.1527 3.78443H16.1558ZM15.3339 5.39068C15.3277 5.26255 15.2089 5.09693 15.0402 5.07818C14.8714 5.0563 14.7964 4.87818 14.6683 4.87193C14.5402 4.86255 14.4558 4.6063 14.2777 4.60943C14.1027 4.61255 14.0277 4.8438 14.4433 5.05318C14.8589 5.26255 15.3183 5.50318 15.3339 5.39068ZM14.8089 5.50005C14.6339 5.5063 14.6089 5.76568 14.4402 5.77193C14.6714 5.89693 14.8433 5.71568 14.9621 5.55318L14.8121 5.50005H14.8089Z" fill="white" stroke="black" stroke-width="0.04"/>
<path d="M14.9562 5.53125C14.7999 5.65937 14.7562 5.92812 14.978 6.00625C14.8468 5.82187 15.2124 5.74062 15.0999 5.56875L14.9562 5.53125Z" fill="white" stroke="black" stroke-width="0.04"/>
<path d="M15.1066 5.54063C14.9878 5.77188 15.2972 5.8 15.216 5.97813C15.3941 5.9375 15.4222 5.60312 15.2597 5.51562L15.1066 5.5375V5.54063Z" fill="white" stroke="black" stroke-width="0.04"/>
<path d="M13.9248 5.04065C14.2154 5.02503 14.4779 5.18128 14.6561 5.4344C14.7686 5.59378 15.1467 5.6594 15.2779 5.52815C15.4029 5.40315 15.3342 5.12815 15.0123 5.21565C14.9311 5.08128 14.6998 5.12815 14.5842 5.01565C14.4717 4.90315 14.0373 4.58128 13.9248 5.04065Z" fill="white" stroke="black" stroke-width="0.04"/>
<path d="M15.0129 5.21873C14.9348 5.23435 14.9098 5.3656 14.9598 5.43435L15.0129 5.21873ZM15.1785 5.29685C15.2004 5.33748 15.1848 5.39373 15.1723 5.42185L15.1785 5.29685ZM14.3848 5.0531C14.5316 5.05935 14.5598 5.16873 14.7223 5.20935L14.3848 5.0531Z" fill="white"/>
<path d="M15.0129 5.21873C14.9348 5.23435 14.9098 5.3656 14.9598 5.43435M15.1785 5.29685C15.2004 5.33748 15.1848 5.39373 15.1723 5.42185M14.3848 5.0531C14.5316 5.05935 14.5598 5.16873 14.7223 5.20935" stroke="black" stroke-width="0.04" stroke-linecap="round"/>
<path d="M14.2846 4.68752C14.6906 4.76686 15.0852 4.89596 15.4596 5.0719C15.7127 5.21565 16.1065 5.2594 16.4471 5.1594C16.7908 5.06565 17.4533 4.97502 17.419 5.40315C17.6002 5.18752 17.3721 4.9594 16.9127 4.91877C16.9221 4.7094 16.6971 4.5219 16.5377 4.6469C16.6846 4.62502 16.8127 4.90315 16.519 5.01565C16.5322 4.96722 16.5312 4.91602 16.5162 4.86812C16.5012 4.82022 16.4727 4.77763 16.4342 4.7454C16.3958 4.71317 16.3489 4.69265 16.2991 4.68627C16.2493 4.67988 16.1987 4.68791 16.1533 4.7094C16.2908 4.75002 16.4346 4.9844 16.1221 5.0719C15.9252 5.12815 15.6408 5.05627 15.4283 4.92815C15.2158 4.80002 14.0221 4.3344 14.2846 4.6844V4.68752Z" fill="white" stroke="black" stroke-width="0.04"/>
<path d="M15.5809 4.47807C15.4215 4.54994 15.5246 4.71869 15.2777 4.81557C15.0277 4.90932 14.8527 5.13119 14.909 5.32182C15.0777 4.94994 15.3777 4.96869 15.4809 4.82182C15.5871 4.67807 15.7402 4.46557 15.5809 4.47807Z" fill="white" stroke="black" stroke-width="0.04"/>
<path d="M15.6254 4.5C15.6191 4.79375 15.3879 4.6875 15.4785 5.1C15.5066 5.22813 15.5598 5.4375 15.4691 5.64688C15.7285 5.45938 15.5629 5.0625 15.6785 4.9125C15.7348 4.8375 15.8098 4.725 15.8348 4.63125C15.7754 4.79688 15.7816 5.1125 15.9441 5.19375C15.8129 4.88125 16.3035 4.62188 15.966 4.25625C15.916 4.35 15.7629 4.50625 15.6285 4.5H15.6254ZM14.8066 4.20625C14.8473 4.26875 14.8879 4.41875 14.8504 4.50625C14.9316 4.45625 15.0473 4.33125 15.0848 4.24688C15.2504 4.27188 15.3129 4.475 15.1566 4.56563C15.2504 4.56563 15.4191 4.56563 15.5098 4.45625C15.3973 4.33125 15.0473 4.1375 14.8066 4.20625Z" fill="white" stroke="black" stroke-width="0.04"/>
<path d="M12.3031 3.6281C12.2595 3.59441 12.2078 3.57284 12.1531 3.5656C11.9094 3.5156 12.0375 3.29685 12.2437 3.29998C12.6875 2.8156 12.9344 3.18748 13.475 3.03748C13.6625 2.98123 13.7938 2.99685 13.8938 3.04373C14.1375 2.88123 14.4187 2.92498 14.625 3.1156C14.6458 3.07976 14.6792 3.053 14.7188 3.0406C14.9094 2.98748 15.0625 3.14685 15.1156 3.35623C15.2625 3.33123 15.4312 3.4031 15.5437 3.5031C15.6969 3.42498 15.8 3.42185 15.8406 3.5031C15.9781 3.4406 16.1531 3.39685 16.2437 3.6156C16.3344 3.83435 16.0344 3.76873 15.9844 4.2281C15.9531 4.50935 15.6406 4.62185 15.3906 4.4531C14.9906 4.18123 14.6 4.1406 14.4062 4.54685C14.2156 4.95935 14.0625 5.19685 13.5938 5.06248C13.4964 5.04038 13.3947 5.04792 13.3017 5.08412C13.2087 5.12032 13.1287 5.18353 13.0719 5.2656C12.9344 5.4531 12.7281 5.2781 12.4781 5.29685C12.7906 5.24998 12.6688 5.17185 12.9438 5.1531C13.1938 5.13748 13.1281 4.9031 13.2875 4.87185C12.6625 5.03123 12.6844 4.79685 12.1687 4.95935C12.3937 4.66873 12.75 4.83123 12.925 4.66248C12.4594 4.6531 12.25 4.34998 12.0406 4.47498C11.7125 4.6781 11.8531 5.24998 10.9937 5.19998C10.575 5.1781 10.3094 5.23123 10.0625 5.48123C10.4969 4.58123 11.0875 5.07498 11.375 4.7906C11.5242 4.65639 11.6536 4.50173 11.7594 4.33123C11.7717 4.30649 11.7893 4.28474 11.8109 4.26747C11.8325 4.2502 11.8575 4.23784 11.8844 4.23123C11.1687 4.00623 11.6031 3.6531 12.3031 3.6281Z" fill="white" stroke="black" stroke-width="0.04"/>
<path d="M15.8401 3.5C15.8495 3.525 15.8558 3.55625 15.8558 3.59375C15.8558 3.76875 15.5901 3.775 15.5745 4.0375C15.5651 4.175 15.5495 4.25 15.4589 4.23438C15.3651 4.21875 15.2839 4.075 15.3714 3.90625" fill="white"/>
<path d="M15.8401 3.5C15.8495 3.525 15.8558 3.55625 15.8558 3.59375C15.8558 3.76875 15.5901 3.775 15.5745 4.0375C15.5651 4.175 15.5495 4.25 15.4589 4.23438C15.3651 4.21875 15.2839 4.075 15.3714 3.90625" stroke="black" stroke-width="0.04" stroke-linecap="round"/>
<path d="M12.4379 3.36565C12.3816 3.32444 12.3139 3.30153 12.2441 3.30002L12.4379 3.36565ZM13.8941 3.04065C14.1066 3.1344 14.2098 3.35315 14.5191 3.36565C14.8191 3.37502 15.0035 3.8094 15.5035 3.52502C15.5159 3.51855 15.5284 3.5123 15.541 3.50627M14.6254 3.11565C14.5825 3.19373 14.567 3.28399 14.5816 3.3719L14.6254 3.11565ZM13.6504 4.02815C13.2754 4.02815 13.1754 4.21877 13.1754 4.40315C13.1754 4.59065 13.3535 4.83127 13.666 4.83127C13.9785 4.83127 14.1504 4.63752 14.1504 4.42815C14.1504 4.21877 13.9566 4.02502 13.6504 4.02502V4.02815Z" fill="white"/>
<path d="M12.4379 3.36565C12.3816 3.32444 12.3139 3.30153 12.2441 3.30002M13.8941 3.04065C14.1066 3.1344 14.2098 3.35315 14.5191 3.36565C14.8191 3.37502 15.0035 3.8094 15.5035 3.52502C15.5159 3.51855 15.5284 3.5123 15.541 3.50627M14.6254 3.11565C14.5825 3.19373 14.567 3.28399 14.5816 3.3719M13.6504 4.02815C13.2754 4.02815 13.1754 4.21877 13.1754 4.40315C13.1754 4.59065 13.3535 4.83127 13.666 4.83127C13.9785 4.83127 14.1504 4.63752 14.1504 4.42815C14.1504 4.21877 13.9566 4.02502 13.6504 4.02502V4.02815Z" stroke="black" stroke-width="0.04"/>
<path d="M13.7191 4.82188C13.7128 4.71876 13.5222 4.73438 13.5316 4.65313C13.5378 4.57188 13.6347 4.54063 13.6347 4.42813C13.6347 4.31563 13.8035 4.30626 13.8597 4.39688C13.916 4.48438 14.0847 4.65626 14.1222 4.56876M13.8597 4.39688C13.8081 4.45187 13.7783 4.52382 13.776 4.5992C13.7737 4.67459 13.799 4.74822 13.8472 4.80626M13.9816 4.53126C13.9503 4.59376 13.9441 4.68751 13.9785 4.74376L13.9816 4.53126Z" fill="white"/>
<path d="M13.7191 4.82188C13.7128 4.71876 13.5222 4.73438 13.5316 4.65313C13.5378 4.57188 13.6347 4.54063 13.6347 4.42813C13.6347 4.31563 13.8035 4.30626 13.8597 4.39688M13.8597 4.39688C13.916 4.48438 14.0847 4.65626 14.1222 4.56876M13.8597 4.39688C13.8081 4.45187 13.7783 4.52382 13.776 4.5992C13.7737 4.67459 13.799 4.74822 13.8472 4.80626M13.9816 4.53126C13.9503 4.59376 13.9441 4.68751 13.9785 4.74376" stroke="black" stroke-width="0.04"/>
<path d="M15.4848 4.23756C15.7816 4.26256 15.8285 3.93443 15.6098 3.91568M15.1191 3.35943C15.0191 3.22818 14.7816 3.18443 14.7754 3.45943" stroke="black" stroke-width="0.04"/>
<path d="M14.7498 3.77499C14.6498 3.52499 14.3904 3.49061 14.2561 3.61561C14.1404 3.71874 14.1373 3.99061 14.3811 4.04686C14.4686 3.94374 14.6311 3.81249 14.7498 3.77499ZM14.6404 3.61874C14.4936 3.49061 14.2811 3.73436 14.4748 3.95624L14.6404 3.61874ZM11.8811 4.22811C11.9811 4.20624 12.1217 4.25311 12.3404 4.35311C12.4748 4.41874 12.8873 4.55624 13.1436 4.41874C12.8779 4.51561 12.6748 4.11561 12.4748 4.16249C12.2748 4.21249 11.9061 4.28749 11.7529 4.13749C12.1279 4.16249 12.3311 3.86249 12.7654 4.12186C12.8882 4.19801 13.0304 4.23707 13.1748 4.23436C12.8217 3.80936 12.3561 4.08124 12.3061 3.73436C12.5186 3.96561 13.0404 3.68436 13.3061 4.11249M12.3842 3.79999C12.3342 3.73749 12.3529 3.67499 12.3029 3.62811L12.3842 3.79999Z" fill="white"/>
<path d="M14.6404 3.61874C14.4936 3.49061 14.2811 3.73436 14.4748 3.95624M11.8811 4.22811C11.9811 4.20624 12.1217 4.25311 12.3404 4.35311C12.4748 4.41874 12.8873 4.55624 13.1436 4.41874C12.8779 4.51561 12.6748 4.11561 12.4748 4.16249C12.2748 4.21249 11.9061 4.28749 11.7529 4.13749C12.1279 4.16249 12.3311 3.86249 12.7654 4.12186C12.8882 4.19801 13.0304 4.23707 13.1748 4.23436C12.8217 3.80936 12.3561 4.08124 12.3061 3.73436C12.5186 3.96561 13.0404 3.68436 13.3061 4.11249M12.3842 3.79999C12.3342 3.73749 12.3529 3.67499 12.3029 3.62811M14.7498 3.77499C14.6498 3.52499 14.3904 3.49061 14.2561 3.61561C14.1404 3.71874 14.1373 3.99061 14.3811 4.04686C14.4686 3.94374 14.6311 3.81249 14.7498 3.77499Z" stroke="black" stroke-width="0.04"/>
<path d="M15.1187 3.35941C15.0312 3.26566 14.8375 3.33754 14.8937 3.52816C14.9142 3.48321 14.9454 3.444 14.9847 3.41401C15.0239 3.38403 15.07 3.3642 15.1187 3.35629V3.35941ZM14.5718 3.87504C14.6257 3.83265 14.6858 3.79892 14.75 3.77504C14.7254 3.71136 14.6844 3.6553 14.6312 3.61254C14.5843 3.58129 14.4531 3.75941 14.5718 3.87191V3.87504Z" fill="black"/>
<path d="M14.3345 3.54688C14.1907 3.45001 14.0564 3.45938 14.0126 3.53751C13.9095 3.53751 13.822 3.61251 13.8189 3.76251M14.0407 3.82813C13.8689 3.70938 13.6314 3.75313 13.647 4.01876M13.5407 4.17188C13.6251 4.10313 13.747 4.05313 13.8407 4.17188M14.8345 3.90938C14.8032 3.95313 14.7782 4.02188 14.8314 4.12813C14.7689 4.04063 14.6064 4.04063 14.4314 4.26563M15.2157 3.89688C15.0064 3.92188 15.0126 4.05938 15.1814 4.11563M13.7282 3.38438C13.5501 3.35001 13.422 3.45313 13.6657 3.54063M14.0657 3.26563C13.8157 3.20313 13.7157 3.26876 13.8282 3.32813M13.3439 4.26563C13.3376 4.35626 13.3845 4.47188 13.5314 4.34063M13.3939 4.53126C13.3939 4.55626 13.3907 4.58438 13.372 4.60626M12.8126 3.35626C12.6595 3.30938 12.6314 3.16876 12.8126 3.18126M12.7626 3.68126C12.5939 3.62188 12.5939 3.45938 12.7314 3.47501M13.0751 3.59376C12.8782 3.54688 12.872 3.40938 13.0189 3.43126M13.1001 3.17501C12.9939 3.16876 12.8345 3.28438 13.1032 3.35313M13.3939 3.40938C13.147 3.37501 13.1532 3.47188 13.297 3.53751M13.5782 3.17501C13.3907 3.14063 13.3251 3.25313 13.4532 3.30001M12.9845 3.87188C12.9376 3.83438 12.9001 3.65313 13.1189 3.70626M13.4407 3.81563C13.2939 3.77501 13.1532 3.92188 13.2876 4.00313M13.6376 3.64376C13.4814 3.61251 13.3501 3.65938 13.4345 3.71563" stroke="black" stroke-width="0.04" stroke-linecap="round"/>
<path d="M15.1133 3.35938C15.066 3.36791 15.0214 3.3877 14.9833 3.41707C14.9453 3.44644 14.9148 3.48453 14.8945 3.52813" fill="white"/>
<path d="M15.1133 3.35938C15.066 3.36791 15.0214 3.3877 14.9833 3.41707C14.9453 3.44644 14.9148 3.48453 14.8945 3.52813" stroke="black" stroke-width="0.04"/>
</g>
<defs>
<clipPath id="clip0_202_3092">
<rect width="20" height="15" fill="white"/>
</clipPath>
</defs>
</svg>
