<svg width="20" height="15" viewBox="0 0 20 15" fill="none" xmlns="http://www.w3.org/2000/svg">
<mask id="mask0_202_3113" style="mask-type:luminance" maskUnits="userSpaceOnUse" x="0" y="0" width="20" height="15">
<path d="M0 0H19.998V15H0V0Z" fill="white"/>
</mask>
<g mask="url(#mask0_202_3113)">
<path fill-rule="evenodd" clip-rule="evenodd" d="M0 0H19.998V15H0V0Z" fill="#000099"/>
<path fill-rule="evenodd" clip-rule="evenodd" d="M4.1543 0L19.125 15.0088V0.00878906L4.1543 0Z" fill="#FFCC00"/>
<path fill-rule="evenodd" clip-rule="evenodd" d="M15.3867 14.1064L14.5693 13.5117L13.7314 14.1035L14.0479 13.1309L13.2217 12.5303H14.2471L14.5635 11.5576L14.877 12.5332H15.9023L15.082 13.1396L15.3867 14.1064ZM17.7686 14.4111L16.7432 14.4082L16.4297 13.4326L16.1133 14.4053H15.0879L15.9141 15.0059L15.5977 15.9785L16.4355 15.3867L17.2559 15.9814L16.9482 15.0146L17.7686 14.4111ZM13.21 11.2705L14.0303 10.6641L13.0049 10.6611L12.6914 9.68848L12.375 10.6611L11.3496 10.6582L12.1758 11.2588L11.8594 12.2344L12.6973 11.6396L13.5176 12.2373L13.21 11.2705ZM11.3262 9.38086L12.1465 8.77734L11.1211 8.77442L10.8076 7.79883L10.4883 8.77149H9.46582L10.292 9.37207L9.97559 10.3447L10.8135 9.75293L11.6309 10.3477L11.3262 9.38086ZM9.45996 7.51758L10.2803 6.91113H9.25488L8.94434 5.93262L8.62793 6.90527H7.60254L8.42871 7.50293L8.1123 8.47852L8.9502 7.88379L9.77051 8.48145L9.46289 7.51465L9.45996 7.51758ZM7.57324 5.63379L8.39355 5.03027L7.36816 5.02734L7.05469 4.05176L6.73535 5.02441H5.71289L6.54199 5.625L6.22559 6.59766L7.06348 6.00586L7.88086 6.60059L7.57617 5.63379H7.57324ZM5.70996 3.76172L6.52734 3.15527H5.50195L5.19141 2.17676L4.87207 3.15234H3.84668L4.67871 3.75L4.35938 4.72266L5.19727 4.13086L6.01172 4.72852L5.70996 3.76172ZM3.83496 1.88672L4.65234 1.28027H3.62695L3.31641 0.301758L2.99707 1.27734H1.97168L2.80371 1.875L2.48145 2.85059L3.32227 2.25586L4.13672 2.85352L3.83496 1.88672ZM1.95996 0.0117189L2.77441 -0.594727H1.74902L1.43555 -1.57031L1.12207 -0.597656H0.0966797L0.925781 0L0.609375 0.972656L1.44727 0.380859L2.26172 0.978516L1.95996 0.0117189Z" fill="white"/>
</g>
</svg>
