<svg width="20" height="15" viewBox="0 0 20 15" fill="none" xmlns="http://www.w3.org/2000/svg">
<g clip-path="url(#clip0_202_3154)">
<path fill-rule="evenodd" clip-rule="evenodd" d="M0 0H20V15H0V0Z" fill="#229E45"/>
<path fill-rule="evenodd" clip-rule="evenodd" d="M10.0436 13.625L19.4654 7.50938L9.9873 1.375L0.53418 7.52187L10.0436 13.625Z" fill="#F8E509"/>
<path fill-rule="evenodd" clip-rule="evenodd" d="M14.15 7.5C14.15 9.69687 12.3656 11.4781 10.1625 11.4781C9.37522 11.4769 8.60598 11.2423 7.95202 10.8039C7.29806 10.3656 6.78875 9.74315 6.48847 9.01538C6.18819 8.28761 6.11042 7.48715 6.26499 6.71519C6.41957 5.94323 6.79955 5.23443 7.3569 4.6784C7.91425 4.12236 8.62394 3.74405 9.39626 3.59129C10.1686 3.43853 10.9689 3.51818 11.6959 3.82018C12.423 4.12217 13.0442 4.63295 13.481 5.28793C13.9178 5.94292 14.1506 6.71271 14.15 7.5Z" fill="#2B49A3"/>
<path fill-rule="evenodd" clip-rule="evenodd" d="M8.85332 9.88433L8.72832 9.81245L8.60332 9.87495L8.63145 9.73433L8.53145 9.62808L8.67207 9.61245L8.74082 9.48745L8.8002 9.6187L8.9377 9.6437L8.83457 9.73745M11.5221 10.5593L11.4002 10.4875L11.2752 10.55L11.3002 10.4093L11.2033 10.3062L11.3439 10.2906L11.4096 10.1625L11.4721 10.2937L11.6096 10.3187L11.5033 10.4156M10.3721 9.47808L10.2658 9.41558L10.1564 9.47183L10.1814 9.34995L10.0939 9.25933L10.2189 9.24683L10.2752 9.13433L10.3252 9.24995L10.4471 9.27183L10.3533 9.3562M13.0721 9.09058L12.9658 9.02808L12.8564 9.08433L12.8814 8.96245L12.7971 8.87495L12.9189 8.86245L12.9752 8.75308L13.0252 8.86558L13.1439 8.88745L13.0533 8.9687M10.3252 8.2812L10.2002 8.21245L10.0752 8.27495L10.1002 8.1312L10.0033 8.02808L10.1439 8.01245L10.2096 7.88433L10.2721 8.01558L10.4096 8.04058L10.3033 8.14058M7.03457 7.04683L6.90957 6.97808L6.78457 7.04058L6.81582 6.89683L6.7127 6.7937L6.85645 6.77808L6.91895 6.64995L6.98145 6.7812L7.11895 6.8062L7.01582 6.90308M7.43145 8.69058L7.30645 8.6187L7.18145 8.6812L7.20957 8.54058L7.10957 8.43745L7.2502 8.4187L7.31582 8.2937L7.37832 8.42495L7.51582 8.44995L7.4127 8.54683M11.5377 6.4437L11.4252 6.3812L11.3127 6.43745L11.3377 6.31245L11.2502 6.2187L11.3752 6.20308L11.4346 6.09058L11.4877 6.20933L11.6127 6.2312L11.5189 6.31558M11.3096 7.51245L11.2252 7.46245L11.1346 7.5062L11.1533 7.4062L11.0846 7.33433L11.1846 7.32183L11.2314 7.23433L11.2721 7.32808L11.3658 7.3437L11.2971 7.41245M6.85332 8.98745L6.76895 8.94058L6.68457 8.9812L6.70332 8.88745L6.6377 8.8187L6.73145 8.8062L6.7752 8.72183L6.81582 8.80933L6.90957 8.82808L6.8377 8.89058M13.0939 9.3687L13.0252 9.33433L12.9564 9.36558L12.9721 9.2937L12.9189 9.2437L12.9939 9.23433L13.0314 9.17183L13.0627 9.23433L13.1408 9.24995L13.0814 9.29683" fill="#FFFFEF"/>
<path fill-rule="evenodd" clip-rule="evenodd" d="M6.85332 8.98755L6.76895 8.94067L6.68457 8.9813L6.70332 8.88755L6.6377 8.8188L6.73145 8.8063L6.7752 8.72192L6.81582 8.80942L6.90957 8.82817L6.8377 8.89067" fill="#FFFFEF"/>
<path fill-rule="evenodd" clip-rule="evenodd" d="M6.85332 8.98745L6.76895 8.94058L6.68457 8.9812L6.70332 8.88745L6.6377 8.8187L6.73145 8.8062L6.7752 8.72183L6.81582 8.80933L6.90957 8.82808L6.8377 8.89058M8.15957 8.98433L8.07832 8.94058L7.99395 8.9812L8.0127 8.88745L7.94707 8.8187L8.04082 8.8062L8.08457 8.72183L8.1252 8.80933L8.21895 8.82495L8.14707 8.89058M7.99707 9.42183L7.91582 9.37495L7.83145 9.4187L7.8502 9.32495L7.78457 9.25308L7.87832 9.24058L7.92207 9.1562L7.9627 9.2437L8.05645 9.26245L7.98457 9.32495M10.7158 8.6312L10.6346 8.5812L10.5471 8.62495L10.5658 8.5312L10.5033 8.45933L10.5971 8.44995L10.6408 8.36558L10.6783 8.45308L10.7721 8.4687L10.7033 8.53433M9.91895 8.62808L9.83457 8.5812L9.7502 8.62495L9.76895 8.5312L9.70645 8.45933L9.8002 8.44995L9.84395 8.36245L9.88145 8.45308L9.9752 8.4687L9.90645 8.53433M7.75645 8.35308L7.70332 8.32183L7.6502 8.34683L7.6627 8.28745L7.62207 8.2437L7.68145 8.23745L7.70645 8.18433L7.73145 8.24058L7.79082 8.24995L7.74707 8.29058M12.9908 9.70933L12.9096 9.66245L12.8252 9.7062L12.8439 9.61245L12.7783 9.54058L12.8721 9.52808L12.9158 9.4437L12.9564 9.5312L13.0502 9.54995L12.9783 9.61245M12.3283 9.79995L12.2596 9.7562L12.1877 9.7937L12.2033 9.71245L12.1502 9.6562L12.2283 9.64683L12.2658 9.57495L12.2971 9.64995L12.3752 9.66245L12.3158 9.7187M12.6408 9.79058L12.5783 9.75308L12.5127 9.78433L12.5252 9.71245L12.4752 9.65933L12.5471 9.64995L12.5814 9.58745L12.6127 9.64995L12.6846 9.66558L12.6314 9.71558M13.5408 9.00308L13.4783 8.97183L13.4158 9.00308L13.4314 8.9312L13.3814 8.87808L13.4533 8.8687L13.4846 8.8062L13.5158 8.87183L13.5814 8.88433L13.5314 8.93433M12.3189 10.2406L12.2408 10.1968L12.1564 10.2343L12.1752 10.1468L12.1127 10.0843L12.2064 10.075L12.2471 9.99683L12.2846 10.0781L12.3783 10.0937L12.3064 10.1531M12.3252 10.5968L12.2502 10.5531L12.1752 10.5937L12.1939 10.5062L12.1346 10.4437L12.2189 10.4312L12.2564 10.3531L12.2908 10.4343L12.3752 10.45L12.3127 10.5125M11.7189 9.79058L11.6596 9.75308L11.5971 9.78433L11.6096 9.71558L11.5627 9.66245L11.6314 9.6562L11.6627 9.5937L11.6939 9.6562L11.7627 9.6687L11.7127 9.7187M11.1564 9.79058L11.0939 9.75308L11.0314 9.78433L11.0471 9.71558L10.9971 9.66245L11.0689 9.6562L11.1002 9.5937L11.1314 9.6562L11.1971 9.6687L11.1471 9.7187M10.1971 8.94995L10.1346 8.91558L10.0721 8.94683L10.0877 8.87495L10.0377 8.82495L10.1064 8.81558L10.1377 8.75308L10.1689 8.81558L10.2377 8.8312L10.1877 8.87808M10.3033 10.6593L10.2533 10.6312L10.1971 10.6593L10.2096 10.5968L10.1689 10.5531L10.2283 10.5468L10.2564 10.4937L10.2814 10.55L10.3408 10.5593L10.2971 10.6M8.85332 7.8937L8.72832 7.82183L8.60332 7.88433L8.63145 7.7437L8.53145 7.64058L8.67207 7.62183L8.74082 7.49683L8.8002 7.62808L8.9377 7.65308L8.83457 7.74995" fill="#FFFFEF"/>
<path fill-rule="evenodd" clip-rule="evenodd" d="M13.8875 8.93119C13.9649 8.73031 14.0255 8.52335 14.0688 8.31244C11.95 6.45307 9.59063 5.49994 6.60938 5.69682C6.50125 5.90604 6.41234 6.12465 6.34375 6.34994C9.875 6.01244 12.4688 7.57494 13.8875 8.93119Z" fill="white"/>
<path d="M12.9371 7.8875L13.009 7.92812C12.9983 7.94935 12.995 7.97355 12.9996 7.99687C13.0069 8.01949 13.0226 8.03848 13.0434 8.05C13.0652 8.06563 13.0871 8.075 13.1059 8.07187C13.1246 8.07187 13.1371 8.0625 13.1465 8.05C13.1519 8.0417 13.1542 8.0317 13.1527 8.02188C13.1502 8.01033 13.1448 7.9996 13.1371 7.99062C13.1309 7.98125 13.1152 7.95937 13.0902 7.93437C13.0645 7.90785 13.0453 7.87578 13.034 7.84062C13.0262 7.81402 13.0282 7.7855 13.0397 7.76026C13.0512 7.73502 13.0713 7.71474 13.0965 7.70312C13.1192 7.69364 13.1443 7.69145 13.1684 7.69688C13.1977 7.70364 13.2254 7.71641 13.2496 7.73438C13.2934 7.76562 13.3215 7.79687 13.3309 7.83437C13.3352 7.85191 13.3357 7.87017 13.3325 7.88794C13.3293 7.90572 13.3223 7.9226 13.3121 7.9375L13.2371 7.89062C13.2465 7.87188 13.2496 7.85313 13.2434 7.8375C13.2402 7.82188 13.2277 7.80625 13.2059 7.79375C13.1898 7.78084 13.1702 7.7732 13.1496 7.77187C13.1439 7.77168 13.1383 7.77304 13.1334 7.77579C13.1284 7.77854 13.1243 7.78259 13.1215 7.7875C13.1152 7.79687 13.1152 7.80625 13.1184 7.81875C13.1215 7.83125 13.1371 7.85625 13.1684 7.8875C13.1996 7.91875 13.2184 7.94687 13.2309 7.96562C13.242 7.98611 13.2471 8.00936 13.2454 8.03262C13.2437 8.05589 13.2354 8.07819 13.2215 8.09688C13.2069 8.11812 13.1862 8.13446 13.1621 8.14375C13.1387 8.15454 13.1125 8.15781 13.0871 8.15312C13.059 8.14687 13.0309 8.13438 12.9996 8.1125C12.9527 8.08125 12.9246 8.04687 12.9152 8.00937C12.9051 7.96685 12.9118 7.92204 12.934 7.88438L12.9371 7.8875ZM12.5746 7.65L12.6527 7.69063C12.6431 7.71221 12.6409 7.7364 12.6465 7.75938C12.6545 7.78082 12.67 7.79861 12.6902 7.80937C12.7152 7.825 12.734 7.83125 12.7527 7.82812C12.7715 7.82812 12.784 7.81875 12.7934 7.80312C12.7981 7.79569 12.8003 7.78692 12.7996 7.77812C12.7996 7.76875 12.7934 7.75625 12.784 7.74687C12.768 7.72755 12.7513 7.70879 12.734 7.69063C12.6996 7.65625 12.6777 7.62813 12.6715 7.60313C12.6664 7.58704 12.6648 7.57004 12.667 7.5533C12.6692 7.53657 12.675 7.52051 12.684 7.50625C12.6959 7.48697 12.7133 7.47172 12.734 7.4625C12.7555 7.4526 12.7794 7.44934 12.8027 7.45312C12.8316 7.45799 12.8593 7.46862 12.884 7.48438C12.9309 7.51562 12.959 7.54688 12.9684 7.58125C12.9741 7.59882 12.9759 7.6174 12.9737 7.63574C12.9716 7.65408 12.9655 7.67174 12.9559 7.6875L12.8777 7.64375C12.8871 7.62188 12.8902 7.60625 12.884 7.59062C12.8777 7.575 12.8652 7.55938 12.8434 7.54688C12.8261 7.53447 12.8053 7.5279 12.784 7.52812C12.7789 7.52847 12.7739 7.53008 12.7695 7.5328C12.7652 7.53553 12.7615 7.53929 12.759 7.54375C12.7527 7.55312 12.7527 7.5625 12.7559 7.575C12.759 7.5875 12.7777 7.6125 12.809 7.64375C12.8402 7.675 12.8621 7.7 12.8715 7.71875C12.884 7.73835 12.8907 7.76112 12.8907 7.78438C12.8907 7.80763 12.884 7.8304 12.8715 7.85C12.858 7.8718 12.8385 7.88918 12.8152 7.9C12.7918 7.91079 12.7656 7.91406 12.7402 7.90938C12.7081 7.90394 12.6773 7.89226 12.6496 7.875C12.6092 7.85347 12.5781 7.8179 12.5621 7.775C12.55 7.73328 12.5545 7.68851 12.5746 7.65ZM12.1309 7.53125L12.359 7.15625L12.634 7.32812L12.5965 7.39062L12.3965 7.26562L12.3465 7.35L12.534 7.46562L12.4934 7.52812L12.3059 7.4125L12.2434 7.51562L12.4527 7.64062L12.4152 7.70312L12.134 7.53125H12.1309ZM11.484 7L11.5184 6.9375L11.6871 7.02187L11.609 7.17812C11.584 7.18437 11.5527 7.1875 11.5152 7.18437C11.4792 7.18041 11.4443 7.16981 11.4121 7.15312C11.3743 7.1347 11.342 7.10669 11.3184 7.07188C11.2969 7.03953 11.2859 7.00131 11.2871 6.9625C11.2887 6.9221 11.2994 6.88258 11.3184 6.84688C11.3371 6.80929 11.3651 6.77705 11.3996 6.75313C11.4326 6.73028 11.472 6.71827 11.5121 6.71875C11.5434 6.71875 11.5746 6.72812 11.6121 6.75C11.6621 6.77188 11.6934 6.80313 11.709 6.8375C11.7252 6.87162 11.7286 6.91048 11.7184 6.94688L11.634 6.92188C11.6391 6.90094 11.6369 6.87887 11.6277 6.85938C11.6184 6.84063 11.6027 6.82813 11.5777 6.81563C11.5632 6.80731 11.547 6.80217 11.5303 6.80056C11.5136 6.79894 11.4968 6.80088 11.4809 6.80625C11.4496 6.81563 11.4215 6.84375 11.3996 6.8875C11.3777 6.93125 11.3684 6.97187 11.3777 7.00625C11.3821 7.02255 11.3899 7.03771 11.4007 7.05067C11.4115 7.06363 11.425 7.07406 11.4402 7.08125C11.4559 7.09063 11.4746 7.09688 11.4934 7.09688C11.512 7.0997 11.531 7.0997 11.5496 7.09688L11.5746 7.04688L11.484 7ZM8.66523 6.30312L8.72773 5.86562L8.85898 5.8875L8.89336 6.19375L9.01523 5.9125L9.14648 5.93125L9.08398 6.3625L8.99961 6.35L9.05273 6.00938L8.91523 6.3375L8.83086 6.325L8.79648 5.97188L8.74648 6.31563L8.66523 6.30312ZM8.22461 6.25L8.26523 5.8125L8.58711 5.84375L8.58086 5.91875L8.34648 5.89687L8.33711 5.99062L8.55586 6.0125L8.54648 6.0875L8.32773 6.06563L8.31836 6.18437L8.56211 6.20625L8.55586 6.28125L8.22461 6.25Z" fill="#309E3A"/>
<path d="M6.76539 5.97817C6.76539 5.9313 6.77477 5.89692 6.78727 5.86567C6.79822 5.84345 6.81304 5.82335 6.83102 5.8063C6.84705 5.79013 6.86618 5.77738 6.88727 5.7688C6.91852 5.75942 6.94977 5.75317 6.98102 5.75317C7.04664 5.75317 7.09664 5.77817 7.13727 5.81567C7.1566 5.83956 7.17099 5.86707 7.17957 5.89658C7.18816 5.92609 7.19077 5.95701 7.18727 5.98755C7.18727 6.0563 7.16539 6.11255 7.12477 6.15317C7.10389 6.17247 7.0792 6.18717 7.05228 6.19632C7.02537 6.20547 6.99683 6.20887 6.96852 6.2063C6.94059 6.20658 6.91289 6.20119 6.8871 6.19044C6.86132 6.1797 6.83798 6.16383 6.81852 6.1438C6.77963 6.09777 6.76053 6.03823 6.76539 5.97817Z" fill="#309E3A"/>
<path d="M6.85645 5.97818C6.85645 6.02506 6.86582 6.06256 6.8877 6.09068C6.90957 6.11568 6.9377 6.13131 6.9752 6.13131C6.99142 6.13244 7.00769 6.12995 7.02283 6.124C7.03796 6.11805 7.05158 6.10881 7.0627 6.09693C7.08457 6.07193 7.09395 6.03443 7.09707 5.98131C7.09707 5.93131 7.09082 5.89381 7.06582 5.86881C7.05564 5.85621 7.04279 5.84603 7.0282 5.83901C7.01361 5.83198 6.99764 5.82829 6.98145 5.82818C6.96501 5.82766 6.94865 5.83074 6.93353 5.83722C6.91842 5.8437 6.9049 5.85342 6.89395 5.86568C6.86895 5.89068 6.85957 5.92818 6.85645 5.97818Z" fill="#F7FFFF"/>
<path d="M7.28125 6.20312L7.2875 5.76562H7.475C7.52187 5.76562 7.55312 5.77187 7.575 5.78125C7.59687 5.7875 7.6125 5.80313 7.625 5.82188C7.6375 5.84063 7.64375 5.86563 7.64375 5.89375C7.64399 5.92381 7.63283 5.95285 7.6125 5.975C7.5894 5.99664 7.55967 6.00985 7.52812 6.0125L7.575 6.05C7.5875 6.0625 7.60312 6.0875 7.62187 6.12187L7.675 6.20937H7.56875L7.50625 6.10938L7.4625 6.04688C7.45492 6.03828 7.44523 6.03181 7.43437 6.02812C7.42016 6.02398 7.40543 6.02187 7.39062 6.02187H7.37187V6.20312H7.28125Z" fill="#309E3A"/>
<path d="M7.375 5.95308H7.4375C7.48125 5.95308 7.50938 5.95308 7.51875 5.94683C7.52813 5.94683 7.5375 5.93745 7.54375 5.9312C7.55 5.92495 7.55312 5.90933 7.55312 5.89995C7.55312 5.8812 7.55 5.8687 7.54063 5.86245C7.53438 5.85308 7.52188 5.84683 7.50938 5.8437H7.44688L7.375 5.84058V5.94995V5.95308Z" fill="white"/>
<path d="M7.78164 5.78748L7.94414 5.79685C7.97852 5.79685 8.00664 5.79998 8.02539 5.80623C8.04971 5.81505 8.07127 5.83014 8.08789 5.84998C8.10589 5.87182 8.11871 5.89747 8.12539 5.92498C8.13477 5.9531 8.13789 5.98748 8.13477 6.0281C8.13474 6.06 8.12946 6.09167 8.11914 6.12185C8.10664 6.1531 8.08789 6.1781 8.06602 6.19685C8.04781 6.21185 8.02644 6.22254 8.00352 6.2281C7.98477 6.23435 7.95664 6.23435 7.92539 6.23435L7.75977 6.22498L7.78164 5.78748Z" fill="#309E3A"/>
<path d="M7.86621 5.8656L7.85059 6.15623H7.96934C7.98496 6.15623 7.99746 6.14998 8.00684 6.1406C8.01621 6.13123 8.02559 6.11873 8.03184 6.09998C8.03809 6.08123 8.04434 6.0531 8.04434 6.01873L8.04121 5.9406C8.03675 5.92412 8.02814 5.90906 8.01621 5.89685C8.00583 5.88641 7.99291 5.87887 7.97871 5.87498C7.95508 5.86972 7.93103 5.86658 7.90684 5.8656H7.86621Z" fill="white"/>
<path d="M9.9248 6.5688L10.0279 6.1438L10.1654 6.17505L10.2654 6.2063C10.2873 6.2188 10.3061 6.23755 10.3154 6.26567C10.3279 6.29067 10.3279 6.3188 10.3217 6.35317C10.3154 6.37817 10.3061 6.40005 10.2904 6.41567C10.279 6.4294 10.2646 6.44043 10.2484 6.44799C10.2322 6.45555 10.2146 6.45945 10.1967 6.45942C10.1748 6.45942 10.1436 6.45317 10.1029 6.4438L10.0498 6.42817L10.0123 6.59067L9.9248 6.5688Z" fill="#309E3A"/>
<path d="M10.0934 6.23755L10.0684 6.3563L10.1152 6.3688C10.1465 6.37505 10.1715 6.3813 10.184 6.37817C10.1961 6.37649 10.2075 6.37107 10.2164 6.36268C10.2254 6.35428 10.2315 6.34332 10.234 6.3313C10.234 6.31567 10.234 6.30317 10.2277 6.29067C10.2209 6.27797 10.2098 6.26803 10.1965 6.26255L10.1371 6.24692L10.0965 6.23755H10.0934Z" fill="white"/>
<path d="M10.3311 6.69058L10.4779 6.27808L10.6498 6.34058C10.6967 6.3562 10.7248 6.37183 10.7436 6.38433C10.7592 6.39995 10.7717 6.41558 10.7748 6.44058C10.7779 6.46558 10.7811 6.48745 10.7748 6.51245C10.7623 6.5437 10.7436 6.56558 10.7186 6.5812C10.6936 6.5937 10.6623 6.59683 10.6248 6.59058C10.6373 6.6062 10.6498 6.62183 10.6561 6.64058L10.6811 6.72495L10.6998 6.82183L10.6029 6.78745L10.5717 6.67495C10.566 6.64951 10.5587 6.62446 10.5498 6.59995C10.5457 6.59023 10.5392 6.58165 10.5311 6.57495C10.5248 6.56558 10.5123 6.55933 10.4904 6.55308L10.4748 6.54683L10.4123 6.72183L10.3311 6.69058Z" fill="#309E3A"/>
<path d="M10.5002 6.48118L10.5596 6.50305C10.6002 6.51868 10.6252 6.52493 10.6377 6.52493C10.6471 6.52493 10.6564 6.52493 10.6658 6.51555C10.6752 6.5093 10.6814 6.49993 10.6846 6.48743C10.6908 6.47493 10.6908 6.46243 10.6846 6.44993C10.6799 6.43782 10.6711 6.42781 10.6596 6.4218L10.5971 6.39993L10.5346 6.37805L10.4971 6.48118H10.5002Z" fill="white"/>
<path d="M10.8436 6.67498C10.8543 6.63839 10.8724 6.60436 10.8967 6.57498C10.9125 6.55612 10.9316 6.54025 10.953 6.5281C10.9723 6.51716 10.9935 6.50975 11.0155 6.50623C11.0467 6.50623 11.078 6.50623 11.1123 6.51873C11.1403 6.52564 11.1664 6.53841 11.189 6.55618C11.2117 6.57396 11.2303 6.59635 11.2436 6.62185C11.2686 6.67185 11.2686 6.73123 11.2498 6.79998C11.2344 6.85904 11.1962 6.90959 11.1436 6.9406C11.0967 6.96873 11.0405 6.97185 10.9811 6.9531C10.9532 6.94601 10.9272 6.93317 10.9046 6.91541C10.882 6.89765 10.8633 6.87536 10.8498 6.84998C10.8373 6.82266 10.8303 6.79313 10.8292 6.7631C10.8282 6.73307 10.833 6.70312 10.8436 6.67498Z" fill="#309E3A"/>
<path d="M10.9315 6.70001C10.919 6.74688 10.9159 6.78751 10.9315 6.81876C10.9471 6.85001 10.969 6.86876 11.0034 6.88126C11.0346 6.89063 11.0659 6.88751 11.0971 6.86876C11.1284 6.85313 11.1471 6.81876 11.1627 6.76876C11.1784 6.72188 11.1784 6.68438 11.1627 6.65313C11.1566 6.6383 11.1472 6.62502 11.1353 6.61422C11.1234 6.60342 11.1093 6.59536 11.094 6.59063C11.0786 6.58532 11.0623 6.58341 11.0461 6.58503C11.0299 6.58665 11.0142 6.59176 11.0002 6.60001C10.969 6.61876 10.9471 6.65001 10.9315 6.70001Z" fill="white"/>
<path d="M11.6973 7.28435L11.8973 6.89685L12.0629 6.98123C12.0941 6.99621 12.1226 7.01627 12.1473 7.0406C12.1629 7.05623 12.1723 7.07498 12.1723 7.09998C12.1723 7.12498 12.1723 7.14685 12.1598 7.16873C12.1478 7.19682 12.1254 7.21921 12.0973 7.23123C12.066 7.23748 12.0348 7.23748 12.0004 7.22498C12.0129 7.24373 12.0191 7.26248 12.0254 7.2781C12.0316 7.29685 12.0348 7.32498 12.0379 7.3656L12.0441 7.4656L11.9504 7.41873L11.9379 7.3031C11.9364 7.27689 11.9333 7.25079 11.9285 7.22498C11.9264 7.21329 11.921 7.20245 11.9129 7.19373L11.8754 7.17185L11.8598 7.16248L11.7754 7.32498L11.6973 7.28435Z" fill="#309E3A"/>
<path d="M11.8906 7.1L11.95 7.13125C11.9875 7.15 12.0125 7.1625 12.0219 7.1625C12.0313 7.1625 12.0438 7.1625 12.0531 7.15625C12.0625 7.15313 12.0687 7.14375 12.075 7.13125C12.0812 7.11875 12.0844 7.10625 12.0813 7.09375C12.0774 7.08131 12.0697 7.07038 12.0594 7.0625C12.0411 7.05127 12.0223 7.04085 12.0031 7.03125L11.9406 7L11.8906 7.1Z" fill="white"/>
<path d="M13.3159 8.08441C13.3362 8.05227 13.3627 8.02462 13.3941 8.00316C13.4151 7.9897 13.4384 7.98017 13.4628 7.97503C13.4855 7.9704 13.5089 7.9704 13.5316 7.97503C13.5628 7.98128 13.5909 7.99378 13.6191 8.01253C13.6434 8.02768 13.6643 8.04773 13.6804 8.07141C13.6966 8.09508 13.7076 8.12186 13.7128 8.15003C13.7222 8.20315 13.7066 8.26253 13.6691 8.3219C13.6377 8.37355 13.5871 8.41064 13.5284 8.42503C13.5005 8.43107 13.4715 8.43114 13.4435 8.42521C13.4155 8.41929 13.3891 8.40751 13.3659 8.39066C13.3416 8.37551 13.3207 8.35545 13.3046 8.33178C13.2884 8.30811 13.2774 8.28133 13.2722 8.25316C13.2628 8.19691 13.2784 8.14066 13.3159 8.08441Z" fill="#309E3A"/>
<path d="M13.3936 8.13443C13.3624 8.17505 13.353 8.21255 13.3592 8.24693C13.3616 8.26275 13.3672 8.27791 13.3758 8.29138C13.3844 8.30485 13.3958 8.31633 13.4092 8.32505C13.4405 8.34693 13.4717 8.35318 13.503 8.3438C13.5342 8.33443 13.5655 8.31255 13.5936 8.2688C13.6217 8.22505 13.6342 8.18755 13.628 8.1563C13.6249 8.12505 13.6061 8.09693 13.578 8.07505C13.5499 8.05318 13.5155 8.05005 13.4842 8.05943C13.453 8.06568 13.4217 8.09068 13.3905 8.13443H13.3936Z" fill="white"/>
<path d="M9.43164 6.3906L9.50352 6.08435L9.72852 6.13748L9.71914 6.18748L9.55352 6.14998L9.53789 6.21873L9.69102 6.2531L9.67852 6.30623L9.52539 6.26873L9.50664 6.3531L9.67852 6.39373L9.66602 6.44373L9.43164 6.3906Z" fill="#309E3A"/>
</g>
<defs>
<clipPath id="clip0_202_3154">
<rect width="20" height="15" fill="white"/>
</clipPath>
</defs>
</svg>
