<svg width="20" height="15" viewBox="0 0 20 15" fill="none" xmlns="http://www.w3.org/2000/svg">
<g clip-path="url(#clip0_202_3204)">
<path d="M0 0H20V15H0V0Z" fill="#F7E017"/>
<path d="M0 1.04065V7.7094L20 10.8344V7.29065L0 1.04065Z" fill="white"/>
<path d="M0 4.58435V7.70935L20 13.9594V10.8344L0 4.58435Z" fill="black"/>
<path d="M9.49378 11.8689C9.1281 11.8285 8.77628 11.706 8.4646 11.5106C8.4146 11.4772 8.36877 11.4481 8.36044 11.4481C8.3521 11.4481 8.34794 11.4876 8.34794 11.5335C8.34794 11.6668 8.29377 11.7335 8.16044 11.7689C8.03127 11.8022 7.83543 11.7356 7.6771 11.6022C7.52696 11.4738 7.35171 11.378 7.16251 11.321C6.96543 11.2741 6.75799 11.3007 6.57918 11.396C6.5615 11.4084 6.54175 11.4176 6.52084 11.4231C6.49793 11.4231 6.50001 11.2793 6.52501 11.2356C6.55626 11.1731 6.63126 11.1147 6.72085 11.0835C6.76668 11.0668 6.80418 11.046 6.80418 11.0356C6.80418 11.0272 6.78751 10.9939 6.76876 10.9606C6.70835 10.8543 6.73335 10.7522 6.8396 10.671C6.94793 10.5876 7.13126 10.5751 7.29168 10.6356C7.31878 10.6471 7.34662 10.6569 7.37502 10.6647C7.39585 10.6647 7.38335 10.6335 7.32501 10.5481C7.25835 10.4501 7.24376 10.4022 7.2521 10.2835C7.25782 10.2108 7.2893 10.1425 7.34085 10.091C7.39241 10.0394 7.46066 10.0079 7.53335 10.0022C7.65418 9.99389 7.72918 10.0356 7.90835 10.2043C8.38956 10.6887 9.02158 10.9944 9.70003 11.071C9.87294 11.0918 10.2167 11.0814 10.4188 11.0501C11.059 10.9433 11.6525 10.6473 12.123 10.2001C12.2563 10.0751 12.3188 10.0418 12.4292 10.0418C12.523 10.0418 12.5896 10.071 12.6584 10.146C12.7209 10.2147 12.7417 10.2793 12.7334 10.3856C12.7292 10.4522 12.7188 10.4835 12.6792 10.5501C12.6209 10.6439 12.6313 10.6543 12.7459 10.6085C12.9042 10.546 13.098 10.5751 13.2021 10.6751C13.2938 10.7626 13.3021 10.8501 13.2313 10.9668C13.2042 11.0106 13.1834 11.0501 13.1834 11.0585C13.1834 11.071 13.2042 11.0751 13.298 11.0918C13.423 11.1126 13.4959 11.2043 13.4959 11.346C13.4959 11.3876 13.4896 11.4231 13.4834 11.4231C13.4771 11.4231 13.4292 11.4043 13.3792 11.3835C13.2334 11.3231 13.15 11.3085 12.9792 11.3106C12.85 11.3106 12.8063 11.3168 12.7167 11.346C12.5668 11.3981 12.4287 11.4796 12.3105 11.5856C12.1771 11.7043 12.0938 11.7418 11.9646 11.7397C11.8438 11.7397 11.7625 11.7043 11.7188 11.6356C11.6959 11.5981 11.6917 11.5772 11.698 11.4939C11.7021 11.4397 11.7 11.396 11.698 11.396C11.6917 11.396 11.6459 11.4251 11.5938 11.4606C11.4749 11.5458 11.3453 11.6152 11.2084 11.6668C10.6601 11.8654 10.0732 11.9346 9.49378 11.8689Z" fill="#CF1126"/>
<path d="M9.71503 10.9417C9.31204 10.9047 8.92161 10.782 8.56986 10.5819C8.21812 10.3817 7.91317 10.1088 7.67544 9.7813C7.1671 9.08963 7.00877 8.17504 7.16294 7.33962C7.24627 6.95837 7.41294 6.57712 7.69419 6.30628C7.46233 6.78746 7.39851 7.33248 7.51294 7.85421C7.70044 8.89171 8.57544 9.7688 9.62337 9.92088C10.04 10.0396 10.4671 9.91255 10.863 9.78547C11.738 9.47713 12.4046 8.64796 12.4838 7.72087C12.5525 7.22087 12.4775 6.69795 12.2505 6.2417C12.3796 6.31045 12.5421 6.5792 12.638 6.75837C12.9713 7.4042 12.9859 8.17713 12.79 8.86671C12.5234 9.7438 11.8525 10.5126 10.9671 10.7917C10.5632 10.9179 10.1395 10.9688 9.71712 10.9417H9.71503Z" fill="#CF1126"/>
<path d="M5.66716 9.7897C5.61507 9.78137 5.55674 9.83345 5.57757 9.88762C5.61507 9.94178 5.68174 9.97095 5.74007 9.99595C5.89377 10.056 6.05875 10.0816 6.22341 10.071C6.34421 10.071 6.46408 10.0498 6.57758 10.0085C6.64008 9.98762 6.71925 9.96678 6.74425 9.89595C6.77133 9.8522 6.72341 9.80637 6.67966 9.8147C6.61716 9.82928 6.55466 9.85637 6.49216 9.87512C6.35478 9.91401 6.21157 9.92812 6.06924 9.91678C5.96566 9.90172 5.86468 9.87227 5.76924 9.82928C5.73591 9.8147 5.70466 9.79387 5.66716 9.7897Z" fill="#CF1126"/>
<path d="M5.7248 9.57302C5.67272 9.56469 5.62689 9.62719 5.64772 9.67719C5.68939 9.73552 5.75814 9.76677 5.82272 9.79385C5.93539 9.83804 6.05594 9.85861 6.17689 9.85427H6.20814C6.311 9.85471 6.41294 9.83489 6.50814 9.79594C6.56439 9.77302 6.63523 9.7501 6.66023 9.6876C6.67898 9.65219 6.66439 9.60219 6.61856 9.59802C6.58106 9.59802 6.54564 9.62302 6.50814 9.63344C6.37243 9.68948 6.22529 9.71234 6.07897 9.7001C5.9873 9.68969 5.90189 9.65635 5.81855 9.61677C5.7873 9.60219 5.76022 9.57927 5.7248 9.5751V9.57302Z" fill="#CF1126"/>
<path d="M5.79764 9.36685C5.7518 9.3606 5.72055 9.41268 5.72889 9.45226C5.73514 9.48976 5.76639 9.51476 5.79347 9.5356C5.90691 9.61417 6.04316 9.653 6.18097 9.64601H6.2143C6.30094 9.64538 6.38634 9.62545 6.46431 9.58768C6.51639 9.56685 6.57681 9.53976 6.59556 9.47935C6.60389 9.45226 6.60806 9.41268 6.57681 9.39601C6.54347 9.37935 6.51222 9.40643 6.48306 9.41685C6.3834 9.46921 6.2727 9.49706 6.16014 9.4981C6.06351 9.49424 5.96952 9.46554 5.88722 9.41476C5.85597 9.40018 5.83097 9.3731 5.79764 9.36685Z" fill="#CF1126"/>
<path d="M5.0314 6.3064C4.96474 6.37515 5.01682 6.50015 5.01057 6.58765C5.04807 6.86265 5.09182 7.13973 5.1939 7.40015C5.3189 7.65015 5.58557 7.78557 5.74599 8.00849C5.80432 8.11474 5.78349 8.24391 5.79599 8.36266C5.80432 8.68141 5.80224 9.00224 5.79599 9.32099C5.94183 9.39599 6.09808 9.46683 6.26474 9.43975C6.36266 9.41683 6.546 9.40225 6.56683 9.30433L6.546 7.64807C6.48974 7.47932 6.31683 7.39182 6.18974 7.28348C6.08352 7.17863 5.98468 7.06655 5.89391 6.94807C5.83974 6.85432 5.62516 6.82307 5.70224 6.9814C5.74807 7.12098 5.86266 7.22307 5.89182 7.3689C5.89807 7.45015 5.99599 7.59807 5.91266 7.6439C5.86133 7.55335 5.78355 7.48066 5.68974 7.43557C5.59807 7.36682 5.44599 7.33765 5.41266 7.21682C5.38264 7.04495 5.30298 6.88562 5.18349 6.75848C5.21474 6.60431 5.18349 6.41056 5.05015 6.31056L5.0314 6.3064Z" fill="#CF1126"/>
<path d="M5.23751 6.33765C5.17501 6.34806 5.17917 6.42515 5.20626 6.46681C5.23714 6.55649 5.24502 6.65247 5.22917 6.74598C5.34342 6.87319 5.4199 7.02976 5.45001 7.19807C5.45001 7.26057 5.51667 7.2814 5.56042 7.31265C5.66251 7.37723 5.77501 7.42515 5.86668 7.5064C5.88543 7.52724 5.90001 7.54807 5.88751 7.5064C5.87293 7.45223 5.86668 7.3939 5.82501 7.35432C5.76668 7.29182 5.69584 7.23765 5.61251 7.22098C5.60626 7.13348 5.56459 7.05432 5.52709 6.97932C5.48542 6.9064 5.44167 6.82932 5.37084 6.78348C5.37084 6.6564 5.37084 6.52306 5.31667 6.40431C5.30001 6.37515 5.27501 6.33973 5.23751 6.33765Z" fill="#CF1126"/>
<path d="M5.41089 6.3877C5.36923 6.4002 5.37756 6.45436 5.39006 6.48561C5.40826 6.57608 5.41525 6.66844 5.41089 6.76061C5.49214 6.82311 5.54006 6.91478 5.58589 7.00228C5.61506 7.06062 5.64006 7.12312 5.65048 7.1877C5.71506 7.20853 5.77131 7.2502 5.82131 7.29187C5.80048 7.23353 5.75881 7.1877 5.72756 7.13145C5.69631 7.0752 5.66506 7.01478 5.65048 6.9502C5.58798 6.88561 5.55464 6.79186 5.56714 6.7002C5.57131 6.60228 5.54006 6.5002 5.47339 6.4252C5.45673 6.40853 5.43589 6.38978 5.41089 6.3877Z" fill="#CF1126"/>
<path d="M5.60869 6.41681C5.58369 6.42098 5.57119 6.44181 5.55869 6.46056C5.55244 6.47931 5.57536 6.49806 5.57952 6.5189C5.60674 6.58767 5.61676 6.66205 5.60869 6.73557C5.60661 6.78765 5.62536 6.83973 5.65036 6.8814C5.65504 6.86536 5.66455 6.85115 5.6776 6.84071C5.69065 6.83027 5.7066 6.82411 5.72327 6.82307C5.73369 6.82307 5.75244 6.82723 5.74411 6.80848C5.73577 6.70848 5.72119 6.60848 5.68577 6.51681C5.67551 6.48071 5.6553 6.44822 5.62744 6.42306C5.62327 6.4189 5.61494 6.41473 5.60661 6.41681H5.60869Z" fill="#CF1126"/>
<path d="M14.3328 9.7897C14.3849 9.78137 14.4433 9.83345 14.4224 9.88762C14.3849 9.94178 14.3183 9.97095 14.2599 9.99595C14.1062 10.056 13.9412 10.0816 13.7766 10.071C13.6558 10.071 13.5359 10.0498 13.4224 10.0085C13.3599 9.98762 13.2808 9.96678 13.2558 9.89595C13.2287 9.8522 13.2766 9.80637 13.3203 9.8147C13.3828 9.82928 13.4453 9.85637 13.5078 9.87512C13.6452 9.91401 13.7884 9.92812 13.9308 9.91678C14.0343 9.90172 14.1353 9.87227 14.2308 9.82928C14.2641 9.8147 14.2953 9.79387 14.3328 9.7897Z" fill="#CF1126"/>
<path d="M14.2752 9.57302C14.3273 9.56469 14.3731 9.62719 14.3523 9.67719C14.3106 9.73552 14.2419 9.76677 14.1773 9.79385C14.0646 9.83804 13.9441 9.85861 13.8231 9.85427H13.7919C13.689 9.85471 13.5871 9.83489 13.4919 9.79594C13.4356 9.77302 13.3648 9.7501 13.3398 9.6876C13.321 9.65219 13.3356 9.60219 13.3814 9.59802C13.4189 9.59802 13.4544 9.62302 13.4919 9.63344C13.6276 9.68948 13.7747 9.71234 13.921 9.7001C14.0127 9.68969 14.0981 9.65635 14.1814 9.61677C14.2127 9.60219 14.2398 9.57927 14.2752 9.5751V9.57302Z" fill="#CF1126"/>
<path d="M14.2024 9.36685C14.2482 9.3606 14.2794 9.41268 14.2711 9.45226C14.2649 9.48976 14.2336 9.51476 14.2065 9.5356C14.0931 9.61417 13.9568 9.653 13.819 9.64601H13.7857C13.6991 9.64538 13.6137 9.62545 13.5357 9.58768C13.4836 9.56685 13.4232 9.53976 13.4044 9.47935C13.3961 9.45226 13.3919 9.41268 13.4232 9.39601C13.4565 9.37935 13.4878 9.40643 13.5169 9.41685C13.6166 9.46921 13.7273 9.49706 13.8399 9.4981C13.9365 9.49424 14.0305 9.46554 14.1128 9.41476C14.144 9.40018 14.169 9.3731 14.2024 9.36685Z" fill="#CF1126"/>
<path d="M14.9686 6.3064C15.0353 6.37515 14.9832 6.50015 14.9894 6.58765C14.9519 6.86265 14.9082 7.13973 14.8061 7.40015C14.6811 7.65015 14.4144 7.78557 14.254 8.00849C14.1957 8.11474 14.2165 8.24391 14.204 8.36266C14.1957 8.68141 14.1978 9.00224 14.204 9.32099C14.0582 9.39599 13.9019 9.46683 13.7353 9.43975C13.6373 9.41683 13.454 9.40225 13.4332 9.30433L13.454 7.64807C13.5103 7.47932 13.6832 7.39182 13.8103 7.28348C13.9165 7.17863 14.0153 7.06655 14.1061 6.94807C14.1603 6.85432 14.3748 6.82307 14.2978 6.9814C14.2519 7.12098 14.1373 7.22307 14.1082 7.3689C14.1019 7.45015 14.004 7.59807 14.0873 7.6439C14.1387 7.55335 14.2165 7.48066 14.3103 7.43557C14.4019 7.36682 14.554 7.33765 14.5873 7.21682C14.6174 7.04495 14.697 6.88562 14.8165 6.75848C14.7853 6.60431 14.8165 6.41056 14.9498 6.31056L14.9686 6.3064Z" fill="#CF1126"/>
<path d="M14.7625 6.33765C14.825 6.34806 14.8208 6.42515 14.7937 6.46681C14.7629 6.55649 14.755 6.65247 14.7708 6.74598C14.6566 6.87319 14.5801 7.02976 14.55 7.19807C14.55 7.26057 14.4833 7.2814 14.4396 7.31265C14.3375 7.37723 14.225 7.42515 14.1333 7.5064C14.1146 7.52724 14.1 7.54807 14.1125 7.5064C14.1271 7.45223 14.1333 7.3939 14.175 7.35432C14.2333 7.29182 14.3042 7.23765 14.3875 7.22098C14.3937 7.13348 14.4354 7.05432 14.4729 6.97932C14.5146 6.9064 14.5583 6.82932 14.6292 6.78348C14.6292 6.6564 14.6292 6.52306 14.6833 6.40431C14.7 6.37515 14.725 6.33973 14.7625 6.33765Z" fill="#CF1126"/>
<path d="M14.5891 6.3877C14.6308 6.4002 14.6224 6.45436 14.6099 6.48561C14.5917 6.57608 14.5847 6.66844 14.5891 6.76061C14.5079 6.82311 14.4599 6.91478 14.4141 7.00228C14.3849 7.06062 14.3599 7.12312 14.3495 7.1877C14.2849 7.20853 14.2287 7.2502 14.1787 7.29187C14.1995 7.23353 14.2412 7.1877 14.2724 7.13145C14.3037 7.0752 14.3349 7.01478 14.3495 6.9502C14.412 6.88561 14.4454 6.79186 14.4329 6.7002C14.4287 6.60228 14.4599 6.5002 14.5266 6.4252C14.5433 6.40853 14.5641 6.38978 14.5891 6.3877Z" fill="#CF1126"/>
<path d="M14.3913 6.41681C14.4163 6.42098 14.4288 6.44181 14.4413 6.46056C14.4476 6.47931 14.4246 6.49806 14.4205 6.5189C14.3933 6.58767 14.3832 6.66205 14.3913 6.73557C14.3934 6.78765 14.3746 6.83973 14.3496 6.8814C14.345 6.86536 14.3354 6.85115 14.3224 6.84071C14.3094 6.83027 14.2934 6.82411 14.2767 6.82307C14.2663 6.82307 14.2476 6.82723 14.2559 6.80848C14.2642 6.70848 14.2788 6.60848 14.3142 6.51681C14.3245 6.48071 14.3447 6.44822 14.3726 6.42306C14.3767 6.4189 14.3851 6.41473 14.3934 6.41681H14.3913Z" fill="#CF1126"/>
<path d="M9.91101 9.91676C9.77029 9.90154 9.63686 9.84638 9.52649 9.75778C9.41611 9.66918 9.33338 9.55085 9.28809 9.41675C9.29434 9.37092 9.35059 9.44176 9.37767 9.44801C9.42848 9.47829 9.48543 9.4968 9.54434 9.50217C9.61725 9.53342 9.66309 9.60634 9.73392 9.64592C9.76726 9.67092 9.88392 9.72092 9.86101 9.63967C9.83392 9.59801 9.81517 9.54384 9.84017 9.49384C9.87767 9.40842 9.93809 9.33342 10.0006 9.2605C10.0443 9.24592 10.0756 9.3355 10.1068 9.36467C10.1506 9.43342 10.2048 9.51676 10.1777 9.60009C10.1527 9.63134 10.136 9.72509 10.2048 9.69592C10.2881 9.65842 10.3568 9.59592 10.4256 9.53759C10.4881 9.49592 10.5652 9.49384 10.6277 9.45425C10.6589 9.448 10.7193 9.38967 10.7318 9.42092C10.6945 9.51405 10.6425 9.60058 10.5777 9.67717C10.4775 9.7961 10.339 9.8764 10.186 9.90426C10.0943 9.92092 10.0027 9.92509 9.91101 9.91676Z" fill="#CF1126"/>
<path d="M10.2401 9.58756C10.2463 9.53131 10.2338 9.47506 10.2047 9.42089C10.1609 9.33339 10.1005 9.25422 10.038 9.17297C9.97966 9.13964 9.94841 9.25006 9.91091 9.28131C9.85049 9.37089 9.77549 9.46256 9.77133 9.57297C9.73799 9.62506 9.67549 9.53131 9.64841 9.50006C9.59289 9.42869 9.56348 9.34046 9.56508 9.25006C9.56004 9.10335 9.58558 8.95719 9.64008 8.82089C9.68174 8.70422 9.74633 8.59172 9.74008 8.46672C9.74424 8.3688 9.72549 8.26463 9.64841 8.20005C9.57341 8.14172 9.69633 8.12922 9.73383 8.15838C9.80049 8.16463 9.83591 8.27297 9.89633 8.24588C9.91924 8.18963 9.92549 8.12088 9.97549 8.07713C10.0234 8.01047 10.0734 8.10422 10.0901 8.15005C10.1255 8.18755 10.0901 8.28547 10.1442 8.28755C10.2109 8.23963 10.2588 8.16255 10.3442 8.1438C10.3797 8.12297 10.438 8.1438 10.3922 8.1813C10.3297 8.24172 10.2755 8.31463 10.263 8.40422C10.2442 8.51464 10.2713 8.62714 10.3192 8.72505C10.413 8.92089 10.4859 9.14172 10.438 9.36047C10.4172 9.45631 10.3505 9.53964 10.2713 9.59589C10.2609 9.60214 10.2442 9.60214 10.2401 9.58756Z" fill="#CF1126"/>
<path d="M10.1402 8.11675C10.1121 8.06038 10.0723 8.01065 10.0235 7.97091C9.9735 7.97091 9.94225 8.03342 9.90892 8.06675C9.886 8.1105 9.85684 8.18342 9.7985 8.12717C9.70475 8.073 9.69017 7.95425 9.69017 7.85633C9.68392 7.698 9.7485 7.55008 9.80475 7.40633C9.84017 7.31674 9.83184 7.21466 9.80892 7.12299C9.78184 7.01883 9.69642 6.94383 9.63184 6.86049C9.636 6.82924 9.71934 6.84591 9.75059 6.85216C9.82142 6.87091 9.86309 6.93133 9.91517 6.97716C9.95267 6.96466 9.936 6.88966 9.95475 6.85424C9.95475 6.80424 10.0214 6.73966 10.0485 6.81049C10.0902 6.85633 10.0485 6.94591 10.1006 6.97299C10.1506 6.95424 10.1756 6.90008 10.2214 6.87508C10.2454 6.85959 10.2729 6.8505 10.3013 6.84867C10.3298 6.84685 10.3582 6.85235 10.3839 6.86466C10.4027 6.91049 10.3298 6.94799 10.3089 6.98966C10.2673 7.0416 10.2384 7.10259 10.2247 7.16773C10.2109 7.23287 10.2127 7.30032 10.2298 7.36466C10.2589 7.46883 10.3089 7.56258 10.3277 7.66675C10.3502 7.78554 10.3466 7.9078 10.3173 8.02508C10.2985 8.09592 10.2381 8.14175 10.1756 8.17092C10.1589 8.15633 10.1506 8.1355 10.1402 8.11675Z" fill="#CF1126"/>
<path d="M9.82518 6.81056C9.75434 6.75848 9.73143 6.71056 9.73143 6.61264C9.73143 6.56473 9.74184 6.53764 9.77309 6.49181C9.82309 6.42514 9.81476 6.40431 9.74601 6.42306C9.63559 6.45431 9.58351 6.42723 9.57934 6.33348C9.57934 6.28764 9.58768 6.26889 9.64809 6.19389C9.69809 6.13556 9.71684 6.10431 9.70643 6.09389C9.69601 6.08556 9.63768 6.13556 9.51893 6.25639C9.44446 6.3349 9.36514 6.40866 9.28142 6.47723C9.07726 6.61473 8.88142 6.63556 8.79184 6.52931C8.74601 6.47514 8.74809 6.44598 8.80017 6.41264C8.83335 6.39023 8.86407 6.3644 8.89184 6.33556C8.99395 6.24233 9.1065 6.16124 9.22726 6.09389C9.30226 6.05639 9.31892 6.03139 9.27101 6.03139C9.20851 6.03139 9.01059 6.16056 8.85851 6.29806C8.81476 6.33973 8.75017 6.38556 8.71684 6.40223C8.62414 6.43603 8.52384 6.44325 8.42725 6.42306C8.38142 6.40848 8.296 6.32931 8.296 6.30014C8.296 6.29389 8.31684 6.27723 8.33767 6.26264C8.37162 6.24346 8.40371 6.22114 8.4335 6.19597C8.55434 6.09181 8.78351 5.98139 8.96476 5.94181C9.02309 5.93139 9.00017 5.90014 8.93559 5.90431C8.74436 5.94083 8.56531 6.02462 8.41475 6.14806C8.24184 6.29181 7.98142 6.27723 7.89808 6.12097C7.8835 6.09389 7.87308 6.06889 7.87725 6.06472C8.02482 6.02748 8.16748 5.97293 8.30225 5.90222C8.41833 5.83381 8.54625 5.78787 8.67934 5.76681C8.73767 5.75639 8.74184 5.72722 8.68559 5.72097C8.61059 5.71264 8.49809 5.75014 8.30017 5.84597C8.04392 5.97306 7.971 5.99597 7.83767 5.98764C7.71267 5.97931 7.64392 5.94806 7.546 5.85431C7.47933 5.79181 7.38767 5.63556 7.40433 5.61681C7.51249 5.63955 7.62308 5.64865 7.7335 5.64389C7.90642 5.64389 7.95433 5.63972 8.046 5.61264C8.22508 5.55589 8.39389 5.47078 8.546 5.36055C8.76044 5.17915 9.0318 5.07886 9.31267 5.07722C9.57101 5.07722 9.73351 5.13555 9.87934 5.28347C9.92934 5.33347 9.97101 5.36472 9.97726 5.35847C9.98351 5.35222 9.98976 5.26472 9.99184 5.16472C9.99184 5.16472 10.0689 5.15639 10.0856 5.1793C10.0856 5.33972 10.0856 5.3543 10.1106 5.3543C10.1252 5.3543 10.1418 5.33764 10.1523 5.31264C10.1731 5.26055 10.2564 5.18764 10.3439 5.1418C10.5314 5.04805 10.8585 5.04389 11.121 5.13555C11.2465 5.18317 11.3639 5.24993 11.4689 5.33347C11.6222 5.44127 11.7907 5.52553 11.9689 5.58347C12.1106 5.62514 12.3648 5.63556 12.4919 5.60431C12.529 5.5957 12.5666 5.58875 12.6044 5.58347C12.6523 5.58347 12.571 5.74181 12.4752 5.83556C12.3002 6.00639 12.0731 6.00431 11.7544 5.83347C11.5544 5.72514 11.3169 5.66681 11.3169 5.72514C11.3169 5.73764 11.3294 5.74597 11.3481 5.74597C11.4169 5.74597 11.5502 5.79181 11.7377 5.88139C11.8555 5.94932 11.9847 5.99521 12.1189 6.01681C12.1669 6.01681 12.1689 6.04806 12.1231 6.11472C12.0752 6.18556 11.9939 6.21889 11.8794 6.21889C11.7689 6.21889 11.7064 6.19598 11.6085 6.11472C11.4419 5.97722 11.0335 5.82306 11.0481 5.90639C11.0523 5.92097 11.071 5.93139 11.1148 5.93764C11.2907 5.97587 11.4554 6.05431 11.596 6.16681L11.7189 6.25639C11.7419 6.26889 11.7419 6.27306 11.7231 6.30848C11.6939 6.36681 11.6148 6.41056 11.5314 6.41889C11.4231 6.43139 11.3273 6.39806 11.2294 6.31473C11.021 6.14181 10.8273 6.01681 10.7648 6.01681C10.7127 6.01681 10.7356 6.04597 10.8273 6.09389C10.9458 6.1567 11.0564 6.23365 11.1564 6.32306C11.1981 6.36264 11.246 6.40014 11.2606 6.40848C11.3002 6.42931 11.2981 6.45848 11.2564 6.51264C11.2148 6.56681 11.1439 6.59181 11.0543 6.58139C10.8752 6.56264 10.7335 6.47723 10.5127 6.24806C10.4602 6.18941 10.403 6.13507 10.3418 6.08556C10.3127 6.08556 10.3314 6.12514 10.3877 6.18973C10.4585 6.26681 10.471 6.31056 10.4439 6.37723C10.421 6.43139 10.3814 6.44598 10.3023 6.42306C10.2189 6.40223 10.2064 6.42306 10.2606 6.48764C10.3398 6.58973 10.3293 6.71056 10.2293 6.79598C10.2087 6.8159 10.1847 6.83211 10.1585 6.84389C10.1502 6.84389 10.1293 6.82306 10.1106 6.79389C10.0481 6.69806 9.99184 6.69806 9.92934 6.79389C9.91616 6.81519 9.90226 6.83603 9.88768 6.8564C9.86659 6.84146 9.84576 6.82618 9.82518 6.81056Z" fill="#CF1126"/>
<path d="M10.1397 4.85425L10.0314 4.93758L9.93555 4.86675V5.44592H10.1397V4.85425Z" fill="#CF1126"/>
<path d="M9.47754 4.25639C9.45859 4.49061 9.39494 4.71904 9.29004 4.92931L9.52129 4.71472L9.68171 4.90639L9.85671 4.71056L10.0338 4.87722L10.2046 4.70431L10.3817 4.91264L10.5359 4.74181L10.7984 4.92931C10.7025 4.72097 10.5755 4.54181 10.59 4.24597C10.338 4.43347 9.73587 4.46681 9.47754 4.2543V4.25639Z" fill="#CF1126"/>
<path d="M9.93776 4.11671C9.84401 4.11671 9.74609 4.11879 9.65859 4.13754C9.60065 4.14676 9.54528 4.16805 9.49609 4.20004C9.50234 4.37921 10.3503 4.45213 10.5773 4.20421C10.5262 4.16884 10.4679 4.14535 10.4065 4.13546C10.3232 4.11879 10.2273 4.11879 10.1378 4.11462V4.26254H9.93776V4.11671Z" fill="#CF1126"/>
<path d="M10.102 3.20837H9.9707V4.23755H10.104L10.102 3.20837Z" fill="#CF1126"/>
<path d="M10.1027 3.23341L10.0527 3.72716L10.5589 3.97508L10.3027 3.63133L10.6527 3.51674L10.1027 3.23341ZM10.0464 3.10632C9.96934 3.10632 9.91309 3.13549 9.91309 3.16882C9.91309 3.20216 9.96934 3.23132 10.0464 3.23132C10.1235 3.23132 10.1798 3.20216 10.1798 3.16882C10.1798 3.13549 10.1235 3.10632 10.0464 3.10632Z" fill="#CF1126"/>
<path d="M9.81279 11.7469C9.89717 11.7187 9.94404 11.6687 9.97842 11.5719C9.99404 11.5219 10.0065 11.4719 10.0034 11.4594C9.99717 11.4281 9.95967 11.4281 9.92217 11.4625C9.89404 11.4844 9.89092 11.4969 9.89717 11.5437C9.91904 11.6594 9.87529 11.6906 9.65654 11.7125C9.63467 11.7125 9.56904 11.7125 9.51592 11.7031C9.40967 11.6906 9.37217 11.7031 9.40967 11.7344C9.42986 11.7473 9.45203 11.7568 9.47529 11.7625C9.53467 11.7781 9.75029 11.7687 9.81279 11.7469ZM10.2722 11.7281C10.2847 11.7156 10.3253 11.6969 10.3659 11.6812C10.419 11.6656 10.4472 11.65 10.469 11.6125C10.5347 11.5187 10.5222 11.4344 10.4284 11.3219C10.3753 11.2594 10.3534 11.2625 10.3128 11.3312C10.2753 11.3875 10.2784 11.3937 10.3284 11.4062C10.3565 11.4125 10.3815 11.4312 10.394 11.4562C10.4503 11.5531 10.4347 11.6125 10.3503 11.6125C10.2753 11.6125 10.2565 11.625 10.2347 11.675L10.2159 11.7344C10.2159 11.7531 10.2472 11.75 10.2722 11.7281ZM10.1222 11.6187C10.1347 11.5781 10.1409 11.5094 10.1378 11.3687C10.1412 11.3019 10.138 11.2349 10.1284 11.1687C10.1159 11.1562 10.0565 11.1937 10.0472 11.2219C10.0441 11.2449 10.0496 11.2683 10.0628 11.2875C10.0815 11.325 10.0847 11.3625 10.0784 11.5062C10.069 11.6937 10.0815 11.725 10.1222 11.6187Z" fill="#F7E017"/>
<path d="M9.76897 11.5313L9.79085 11.3751C9.79397 11.3219 9.80647 11.2563 9.81272 11.2282C9.8346 11.1563 9.81272 11.1376 9.75647 11.1782L9.71585 11.2094L9.7221 11.3126C9.73147 11.4063 9.71585 11.5782 9.69397 11.6469C9.68772 11.6657 9.6971 11.6594 9.7221 11.6313C9.74085 11.6094 9.76272 11.5626 9.76897 11.5282V11.5313ZM9.45647 11.5813C9.53147 11.5188 9.5221 11.4063 9.54085 11.3188C9.54085 11.2594 9.57835 11.1907 9.55335 11.1376C9.48147 11.1501 9.43772 11.2188 9.47522 11.2844C9.47522 11.3626 9.47522 11.4469 9.4346 11.5157C9.40335 11.5626 9.2971 11.5501 9.30335 11.4844C9.32835 11.3907 9.21272 11.4376 9.16897 11.4626C9.1346 11.4876 9.0596 11.4907 9.08772 11.4313C9.06897 11.3469 8.96585 11.4001 8.9096 11.4001C8.85647 11.4001 8.90647 11.2907 8.82835 11.3063C8.68772 11.2969 8.53147 11.3094 8.40647 11.2251C8.3346 11.1907 8.34397 11.1032 8.3846 11.0469C8.42835 10.9719 8.44085 10.8751 8.5096 10.8157C8.58147 10.7501 8.4471 10.7782 8.41585 10.8001C8.3471 10.8376 8.4096 10.9344 8.35335 10.9876C8.3221 11.0438 8.27835 11.1188 8.20335 11.1094C8.09397 11.0876 8.03147 10.9844 7.95335 10.9219C7.8846 10.9063 7.9221 11.0282 7.9596 11.0532C8.02888 11.105 8.10735 11.1431 8.19085 11.1657C8.2721 11.1501 8.27522 11.2594 8.3471 11.2751C8.4721 11.3376 8.61585 11.3532 8.75647 11.3626C8.81272 11.3657 8.78147 11.4657 8.85335 11.4438C8.89397 11.4563 8.98772 11.4282 8.99085 11.4751C8.92835 11.5501 9.05022 11.5469 9.09397 11.5376C9.15335 11.5251 9.22522 11.5063 9.24085 11.5813C9.28772 11.6344 9.37522 11.6251 9.4346 11.5969L9.45647 11.5813Z" fill="#F7E017"/>
<path d="M8.21257 10.95C8.24195 10.9089 8.26707 10.8649 8.28757 10.8188C8.30347 10.7787 8.32448 10.7409 8.35007 10.7063C8.38757 10.6688 8.3657 10.6438 8.30632 10.6562C8.27507 10.6625 8.26257 10.675 8.25945 10.7031C8.24544 10.7798 8.21905 10.8537 8.18132 10.9219C8.1282 11 8.1282 11.0031 8.15007 11.0031C8.15945 11.0031 8.18757 10.9781 8.21257 10.95ZM7.43132 10.4594C7.37195 10.4594 7.36882 10.4969 7.42507 10.5156C7.45632 10.525 7.4782 10.5469 7.49695 10.5875C7.55007 10.6969 7.58445 10.7187 7.73132 10.7312L7.82507 10.7375L7.83132 10.7969C7.83132 10.8281 7.8407 10.8531 7.84695 10.8531L7.9282 10.8219C7.99695 10.7844 8.06257 10.7031 8.06257 10.65C8.06257 10.6187 8.00632 10.5813 7.95632 10.5813C7.93445 10.5813 7.89382 10.6 7.85945 10.625C7.7532 10.7 7.6407 10.6875 7.5782 10.5875C7.53132 10.5062 7.4782 10.4625 7.43132 10.4625V10.4594ZM7.9407 10.6625C7.96882 10.6625 7.97195 10.6844 7.95945 10.725C7.95753 10.7305 7.95394 10.7353 7.94918 10.7387C7.94442 10.7421 7.93872 10.7439 7.93288 10.7439C7.92704 10.7439 7.92135 10.7421 7.91659 10.7387C7.91183 10.7353 7.90824 10.7305 7.90632 10.725C7.89382 10.6938 7.90945 10.6625 7.93757 10.6625H7.9407ZM11.8938 10.5375C11.8532 10.5375 11.8438 10.5438 11.8188 10.5813C11.7782 10.6406 11.7751 10.7688 11.8126 10.8125C11.8344 10.8406 11.8376 10.8406 11.8844 10.8188C11.9532 10.7906 11.9657 10.7937 11.9626 10.8281C11.9626 10.9219 11.8313 11.1 11.6938 11.1938C11.6656 11.2104 11.6403 11.2315 11.6188 11.2563C11.6094 11.2813 11.6594 11.2781 11.7219 11.2437C11.8254 11.1844 11.9108 11.098 11.9688 10.9937C12.0032 10.9219 12.0094 10.9 12.0157 10.775C12.0157 10.6562 12.0157 10.6188 11.9969 10.5813C11.9719 10.5375 11.9657 10.5344 11.9094 10.5344H11.8938V10.5375ZM11.8969 10.6156C11.9282 10.6156 11.9282 10.6219 11.9344 10.6656C11.9344 10.6969 11.9313 10.7188 11.9126 10.7375C11.8876 10.7594 11.8813 10.7594 11.8626 10.725C11.8313 10.675 11.8501 10.6156 11.8969 10.6156ZM11.2657 11.5063C11.3876 11.4438 11.4594 11.3781 11.5032 11.2812C11.5194 11.2502 11.533 11.2177 11.5438 11.1844C11.5438 11.1656 11.4844 11.1375 11.4501 11.1375C11.4157 11.1375 11.4063 11.1125 11.4188 11.0437C11.4344 10.9781 11.4188 10.8938 11.3876 10.8938C11.3782 10.8938 11.3563 10.9094 11.3469 10.9281C11.3282 10.9594 11.3251 10.9719 11.3407 11.0125C11.3626 11.075 11.3438 11.125 11.2876 11.1656C11.2594 11.1844 11.2469 11.2062 11.2469 11.2281L11.2501 11.2594L11.3157 11.2281L11.3782 11.1906L11.4126 11.2219C11.4344 11.2344 11.4501 11.2594 11.4501 11.275C11.4501 11.35 11.2376 11.475 11.0938 11.4875C11.0157 11.4938 11.0001 11.4875 10.9751 11.4625C10.9532 11.4406 10.9469 11.4219 10.9532 11.4L10.9688 11.3188C10.9813 11.2531 10.9563 11.2625 10.9063 11.3375C10.8688 11.4 10.8563 11.4656 10.8782 11.5C10.8969 11.5312 11.0157 11.5563 11.1032 11.55C11.1563 11.55 11.2094 11.5344 11.2657 11.5063ZM12.0782 11.0531C12.1532 10.975 12.1876 10.8813 12.1876 10.7406V10.6313L12.2501 10.6C12.3344 10.5625 12.4126 10.4844 12.4126 10.4406C12.4126 10.3969 12.3907 10.3969 12.3563 10.4469C12.3282 10.4812 12.2938 10.5031 12.1688 10.5625C12.1376 10.575 12.1344 10.5844 12.1251 10.7188C12.1188 10.875 12.0938 10.9313 12.0094 11.0375C11.9563 11.1 11.9532 11.1125 11.9907 11.1125C12.0063 11.1125 12.0469 11.0844 12.0782 11.05V11.0531ZM11.2438 10.9656C11.2501 10.9437 11.2063 10.9281 11.1907 10.9469C11.1813 10.9531 11.1782 10.9656 11.1844 10.975C11.1969 10.9938 11.2344 10.9875 11.2438 10.9656ZM12.3938 10.6687C12.4032 10.6437 12.3594 10.6281 12.3407 10.6469C12.3344 10.6563 12.3313 10.6688 12.3376 10.6781C12.3501 10.6969 12.3876 10.6906 12.3938 10.6687ZM11.0094 9.85938C10.9782 9.875 10.9626 9.90625 10.9438 9.93125C10.9282 9.94062 10.9407 9.95 10.9469 9.9625C11.0001 10.0156 11.0219 10.0937 11.0469 10.1656C11.0719 10.25 11.1032 10.3406 11.0782 10.4281C11.0688 10.4594 11.0407 10.4937 11.0032 10.4844C10.9407 10.4812 10.8782 10.4625 10.8157 10.4625C10.7563 10.4656 10.7126 10.5187 10.6563 10.5125C10.6188 10.5125 10.6188 10.4375 10.5876 10.4594C10.5688 10.5 10.5782 10.5438 10.5751 10.5844C10.5813 10.5938 10.6001 10.5875 10.6094 10.5906H10.7251C10.7313 10.6281 10.7313 10.675 10.7563 10.7063C10.7969 10.7188 10.8438 10.7063 10.8813 10.6906C10.9188 10.6719 10.9251 10.625 10.9376 10.5875C10.9501 10.5469 11.0001 10.5562 11.0313 10.5406C11.0689 10.5289 11.1016 10.5051 11.1242 10.4729C11.1468 10.4406 11.1581 10.4018 11.1563 10.3625C11.1501 10.2406 11.1063 10.1313 11.0688 10.0188C11.0532 9.96875 11.0407 9.91563 11.0219 9.86563L11.0094 9.85938ZM10.8219 10.5406C10.8626 10.5406 10.8813 10.5906 10.8719 10.625C10.8563 10.6719 10.7969 10.6438 10.7876 10.6094C10.7657 10.5781 10.7782 10.5375 10.8188 10.5406H10.8219Z" fill="#F7E017"/>
<path d="M9.24975 10.15C9.231 10.15 9.20912 10.1563 9.18725 10.1719C9.07787 10.25 9.04662 10.3406 9.12475 10.3781C9.17787 10.4031 9.16537 10.4344 9.07787 10.4781C8.95287 10.5406 8.8435 10.5313 8.63412 10.4469C8.58412 10.425 8.57163 10.4344 8.581 10.4781C8.5935 10.525 8.63725 10.55 8.74038 10.5719C8.85288 10.6031 8.99037 10.5938 9.07787 10.5563C9.12923 10.5301 9.1749 10.494 9.21225 10.45L9.281 10.3781L9.35912 10.3875C9.456 10.4 9.45913 10.4 9.45913 10.4469C9.45913 10.4844 9.45913 10.4844 9.54975 10.4938L9.69662 10.5C9.73725 10.5 9.75913 10.5094 9.77163 10.5281C9.79038 10.55 9.79975 10.5531 9.94662 10.5406C10.0841 10.5281 10.1091 10.5281 10.1716 10.55C10.2154 10.5625 10.2654 10.5688 10.2998 10.5656C10.406 10.5531 10.5497 10.4688 10.5716 10.4063C10.5716 10.3969 10.6122 10.3844 10.656 10.375C10.7622 10.3531 10.7654 10.3313 10.6685 10.3188C10.6195 10.3123 10.5714 10.3008 10.5247 10.2844C10.4899 10.2696 10.453 10.2602 10.4154 10.2563C10.3622 10.2563 10.3122 10.2875 10.3122 10.325C10.3122 10.3469 10.3185 10.35 10.3841 10.3438C10.4404 10.3375 10.4591 10.3407 10.4904 10.3657C10.5123 10.3813 10.5248 10.4 10.5216 10.4063C10.506 10.4313 10.381 10.4875 10.3279 10.4969C10.2958 10.5022 10.2628 10.4967 10.2341 10.4813C10.1841 10.4563 10.1154 10.4532 10.0998 10.475C10.0935 10.4844 10.081 10.4782 10.0591 10.4594L10.0279 10.4282L9.95287 10.4594C9.87787 10.4907 9.84975 10.4906 9.84975 10.4531C9.84975 10.4375 9.82787 10.4344 9.7185 10.4438C9.59662 10.45 9.58412 10.4469 9.56225 10.4219C9.54037 10.4 9.54037 10.3906 9.556 10.3688C9.5685 10.3438 9.5685 10.3375 9.556 10.3219C9.5435 10.3094 9.52475 10.3094 9.47787 10.3219C9.356 10.3531 9.32162 10.3375 9.32162 10.2438C9.32162 10.1844 9.29037 10.15 9.24975 10.15ZM9.2185 10.2375C9.22475 10.2375 9.231 10.2406 9.24038 10.25C9.24975 10.2594 9.256 10.2813 9.24975 10.2906C9.24037 10.3188 9.18725 10.3188 9.17788 10.2906C9.17163 10.275 9.17788 10.2594 9.1935 10.25L9.2185 10.2375Z" fill="#F7E017"/>
<path d="M8.99977 10.325C9.07477 10.2781 9.07477 10.2813 9.08414 10.1531C9.09039 10.0594 9.09039 10.0532 9.06539 10.0532C9.02789 10.0532 9.00914 10.0938 9.00914 10.1688C9.00914 10.2188 9.00289 10.2406 8.97789 10.2625C8.91539 10.325 8.76539 10.2969 8.74352 10.2219C8.73727 10.1969 8.74664 10.1719 8.77789 10.1281C8.84352 10.0344 8.83102 10.0094 8.74664 10.0813C8.69352 10.1313 8.68414 10.1313 8.69352 10.0906C8.70289 10.05 8.68414 10.0344 8.63727 10.0469C8.61539 10.0531 8.59977 10.0656 8.59664 10.0969C8.59039 10.1219 8.57789 10.1375 8.55602 10.1438C8.51852 10.1531 8.45602 10.1188 8.45602 10.0875C8.45602 10.0656 8.54977 9.95002 8.67164 9.82502C8.71539 9.77815 8.75289 9.73127 8.75289 9.72815C8.75289 9.7219 8.72789 9.71565 8.69977 9.71565C8.65602 9.71565 8.64352 9.7219 8.64352 9.74065C8.64352 9.75315 8.58414 9.8344 8.50914 9.91877C8.35289 10.0938 8.34039 10.1281 8.41539 10.175C8.44661 10.1943 8.48279 10.2039 8.51945 10.2028C8.55611 10.2017 8.59164 10.1899 8.62164 10.1688L8.67164 10.1344V10.1969C8.67164 10.275 8.68727 10.3063 8.74977 10.3375C8.78886 10.3576 8.83255 10.367 8.87645 10.3648C8.92034 10.3626 8.96287 10.3489 8.99977 10.325ZM12.2623 9.24377C12.206 9.27815 12.2498 9.35002 12.2623 9.40002C12.2373 9.46252 12.1529 9.48127 12.0904 9.49377C12.0029 9.5094 11.9404 9.58127 11.9091 9.6594C11.8904 9.7094 11.8466 9.7844 11.7998 9.7094C11.7591 9.66878 11.6841 9.6344 11.6373 9.6844C11.5998 9.71877 11.5904 9.76877 11.5748 9.81565C11.5529 9.78127 11.5435 9.72815 11.4998 9.71565C11.4248 9.72502 11.4529 9.81877 11.4873 9.85627C11.5185 9.90315 11.5498 9.9594 11.5185 10.0125C11.4873 10.075 11.3935 10.1188 11.3404 10.0656C11.2904 10.0375 11.3248 9.94065 11.2716 9.9344C11.2466 9.95315 11.2466 10.0563 11.206 10C11.1748 9.95315 11.1935 9.88752 11.156 9.8469C11.1154 9.85315 11.081 9.92502 11.0935 9.96252C11.1498 10.0375 11.1748 10.1313 11.1966 10.2219C11.2091 10.2594 11.1935 10.3313 11.2279 10.3469C11.2498 10.2875 11.2279 10.2219 11.2466 10.1625C11.3029 10.1563 11.3623 10.1813 11.4185 10.1688C11.5029 10.1594 11.5654 10.0875 11.5935 10.0156C11.6029 9.9594 11.5935 9.90315 11.5904 9.8469C11.6529 9.8594 11.7216 9.8594 11.7841 9.87815C11.8154 9.92502 11.7748 9.99377 11.7654 10.0438C11.7341 10.15 11.6498 10.225 11.5716 10.2938C11.5373 10.3156 11.5341 10.3688 11.581 10.3406C11.6879 10.2899 11.7716 10.2006 11.8154 10.0906C11.8498 10.0094 11.8216 9.91877 11.8466 9.83752C11.8779 9.77502 11.956 9.78753 12.0154 9.78753C12.0748 9.78753 12.1248 9.71565 12.106 9.65627C12.0873 9.58752 12.1591 9.55627 12.206 9.53127C12.2716 9.50002 12.3216 9.4344 12.3154 9.3594C12.3154 9.31877 12.3154 9.2469 12.2623 9.24377ZM12.0341 9.6344C12.1029 9.65315 12.0216 9.7844 11.9841 9.70002C11.9716 9.66877 11.9998 9.6344 12.0341 9.6344ZM11.7123 9.72815C11.8029 9.72502 11.7685 9.85315 11.6935 9.7969C11.6529 9.77502 11.6654 9.72815 11.7123 9.72815ZM8.43727 10.2375C8.43727 10.225 8.43102 10.2156 8.41852 10.2156C8.39664 10.2156 8.38102 10.2375 8.39039 10.2563C8.40289 10.2782 8.43102 10.2657 8.43727 10.2375ZM9.49977 10.125C9.49977 10.1031 9.49039 10.0969 9.47477 10.1C9.44039 10.1063 9.43414 10.1531 9.47164 10.1531C9.49039 10.1531 9.49977 10.1438 9.49977 10.1219V10.125ZM8.18727 9.48752C8.14664 9.47815 8.11852 9.51565 8.10289 9.55002C8.07164 9.60315 8.03414 9.65627 7.97789 9.6844C7.93727 9.6969 7.89352 9.68127 7.85602 9.6594C7.81539 9.63752 7.82477 9.58753 7.80602 9.55315C7.77477 9.52815 7.72164 9.56253 7.72477 9.60003C7.72164 9.65003 7.76539 9.67815 7.80602 9.6969C7.83727 9.71877 7.88727 9.72815 7.89977 9.76877C7.89977 9.80315 7.91227 9.84377 7.95289 9.83127C7.99977 9.83127 8.01539 9.88752 7.99352 9.9219C7.97263 9.96001 7.96494 10.004 7.97164 10.0469C7.99352 10.0688 8.01539 10.0156 8.03414 10.0031L8.06539 9.9594C8.14977 9.96253 8.23102 9.97502 8.31539 9.9719C8.37789 9.9719 8.42477 9.9344 8.46227 9.89065C8.51852 9.8344 8.56227 9.76877 8.62164 9.7219C8.66539 9.7094 8.64352 9.62815 8.59664 9.65315C8.55602 9.66877 8.54352 9.71565 8.51539 9.74377C8.46981 9.80384 8.41737 9.85837 8.35914 9.90627C8.31227 9.92502 8.26227 9.91565 8.21539 9.90627C8.19664 9.89065 8.25289 9.87502 8.26227 9.85627C8.28727 9.83127 8.31852 9.80628 8.33414 9.7719C8.31852 9.74065 8.27477 9.74065 8.24352 9.74065C8.16852 9.7469 8.10914 9.81253 8.03102 9.81878C7.97164 9.81878 8.00289 9.75627 8.03102 9.7344C8.08102 9.6719 8.13727 9.61565 8.19039 9.55627C8.20602 9.53752 8.26227 9.51877 8.22789 9.49377C8.21539 9.48752 8.19977 9.48752 8.18727 9.48752ZM8.22477 9.80002C8.26539 9.8219 8.19977 9.85627 8.17477 9.85315C8.14039 9.86252 8.13727 9.82815 8.16852 9.8219C8.18727 9.8094 8.20602 9.80002 8.22477 9.80002ZM8.10602 9.88128C8.12789 9.88128 8.17477 9.90315 8.13102 9.91565C8.09977 9.94065 8.06852 9.89065 8.10602 9.88128Z" fill="#F7E017"/>
<path d="M9.04366 9.93127C9.04366 9.90002 8.99366 9.90627 8.98741 9.93752C8.98116 9.95627 8.98741 9.9594 9.01241 9.95627C9.03116 9.95627 9.04366 9.94377 9.04366 9.93127ZM11.378 9.72503C11.3843 9.6969 11.3468 9.67815 11.3249 9.70002C11.303 9.71877 11.3249 9.7594 11.3499 9.75315C11.3624 9.75315 11.3749 9.73753 11.3812 9.72503H11.378ZM7.74991 9.44065C7.78429 9.4094 7.78741 9.40627 7.77179 9.33752C7.74679 9.24065 7.74991 9.22815 7.78741 9.21877C7.83429 9.2094 7.95304 9.2719 7.97491 9.3219C7.99991 9.36252 7.99679 9.36565 7.96241 9.3969C7.92491 9.43128 7.92491 9.4719 7.96241 9.4719C7.99366 9.4719 8.07804 9.39065 8.07804 9.36252C8.07804 9.3219 7.98429 9.22502 7.90929 9.19065C7.86428 9.16969 7.81518 9.15902 7.76554 9.1594C7.66866 9.1594 7.65616 9.18127 7.68116 9.29065C7.71241 9.4219 7.67179 9.44065 7.56554 9.34065C7.52773 9.30739 7.49817 9.2658 7.47919 9.21916C7.46021 9.17252 7.45233 9.12211 7.45616 9.0719C7.45616 8.9469 7.50616 8.88128 7.61554 8.86565C7.69054 8.85628 7.68741 8.83752 7.61554 8.82815C7.50304 8.8094 7.40929 8.8844 7.37491 9.01565C7.33429 9.16252 7.42491 9.34065 7.58429 9.43127C7.66866 9.47815 7.69991 9.48127 7.74991 9.44065ZM12.0999 9.27815C12.1093 9.2719 12.1155 9.25002 12.1155 9.2344C12.1155 9.21877 12.1312 9.1844 12.1499 9.1594C12.1687 9.1344 12.1812 9.1094 12.1812 9.10315C12.1812 9.07815 12.1405 9.07815 12.1093 9.10315C12.0749 9.13127 12.0468 9.1344 12.0468 9.10315L12.0843 9.07502C12.1343 9.05315 12.1374 9.02815 12.0968 9.0094C12.0437 8.9844 11.9874 9.02815 11.9843 9.10315C11.9812 9.15315 11.9843 9.1594 12.0218 9.18127C12.0562 9.20315 12.0624 9.21252 12.0562 9.24377C12.0468 9.29377 12.0687 9.31252 12.0999 9.27815ZM12.5062 9.2344C12.5374 9.20315 12.5624 9.17502 12.5624 9.16565C12.5624 9.15627 12.5905 9.12815 12.6218 9.10315C12.7093 9.04065 12.7312 8.97815 12.6905 8.87502C12.6749 8.8344 12.628 8.78127 12.5187 8.68752C12.4688 8.63433 12.4121 8.58808 12.3499 8.55002C12.3218 8.55002 12.328 8.65627 12.3562 8.66565C12.4093 8.6844 12.4437 8.70627 12.5249 8.78127C12.6249 8.86877 12.6687 8.95315 12.6437 9.00002C12.6218 9.04377 12.5905 9.03127 12.503 8.93752C12.4747 8.90226 12.4409 8.87167 12.403 8.8469C12.3937 8.8469 12.3874 8.86565 12.3874 8.89065C12.3874 8.9219 12.403 8.95315 12.4499 9.00002C12.5218 9.08127 12.528 9.12815 12.4718 9.1719C12.4591 9.18477 12.4443 9.19534 12.428 9.20315C12.3566 9.08088 12.2609 8.97453 12.1468 8.89065C12.1374 8.89065 12.1312 8.90315 12.1312 8.9344C12.1312 8.97502 12.1374 8.98752 12.1687 9.00315C12.2508 9.06622 12.3243 9.13976 12.3874 9.2219L12.4437 9.2844C12.467 9.26984 12.488 9.25194 12.5062 9.23127V9.2344ZM12.6937 8.7094C12.678 8.6719 12.4312 8.41565 12.403 8.41565C12.3905 8.41565 12.3874 8.43127 12.3905 8.4719C12.3905 8.5219 12.3999 8.52815 12.4343 8.53753C12.4877 8.56874 12.5361 8.60771 12.578 8.65315C12.612 8.68967 12.6509 8.72123 12.6937 8.7469V8.7094ZM11.1999 11.6031C11.2016 11.6078 11.2019 11.6127 11.2009 11.6175C11.1999 11.6223 11.1975 11.6269 11.194 11.6308C11.1905 11.6347 11.186 11.6378 11.1808 11.64C11.1756 11.6422 11.1698 11.6433 11.164 11.6433C11.1581 11.6433 11.1524 11.6422 11.1472 11.64C11.1419 11.6378 11.1374 11.6347 11.1339 11.6308C11.1304 11.6269 11.1281 11.6223 11.127 11.6175C11.126 11.6127 11.1264 11.6078 11.128 11.6031C11.1264 11.5985 11.126 11.5936 11.127 11.5888C11.1281 11.584 11.1304 11.5794 11.1339 11.5755C11.1374 11.5716 11.1419 11.5685 11.1472 11.5663C11.1524 11.5641 11.1581 11.563 11.164 11.563C11.1698 11.563 11.1756 11.5641 11.1808 11.5663C11.186 11.5685 11.1905 11.5716 11.194 11.5755C11.1975 11.5794 11.1999 11.584 11.2009 11.5888C11.2019 11.5936 11.2016 11.5985 11.1999 11.6031ZM11.3312 11.5594C11.3312 11.5635 11.3302 11.5676 11.3283 11.5714C11.3264 11.5752 11.3237 11.5786 11.3202 11.5815C11.3167 11.5844 11.3126 11.5867 11.308 11.5883C11.3035 11.5898 11.2986 11.5906 11.2937 11.5906C11.2887 11.5906 11.2839 11.5898 11.2793 11.5883C11.2748 11.5867 11.2706 11.5844 11.2671 11.5815C11.2637 11.5786 11.2609 11.5752 11.259 11.5714C11.2571 11.5676 11.2562 11.5635 11.2562 11.5594C11.2562 11.5553 11.2571 11.5512 11.259 11.5474C11.2609 11.5436 11.2637 11.5402 11.2671 11.5373C11.2706 11.5344 11.2748 11.5321 11.2793 11.5305C11.2839 11.529 11.2887 11.5281 11.2937 11.5281C11.2986 11.5281 11.3035 11.529 11.308 11.5305C11.3126 11.5321 11.3167 11.5344 11.3202 11.5373C11.3237 11.5402 11.3264 11.5436 11.3283 11.5474C11.3302 11.5512 11.3312 11.5553 11.3312 11.5594Z" fill="#F7E017"/>
</g>
<defs>
<clipPath id="clip0_202_3204">
<rect width="20" height="15" fill="white"/>
</clipPath>
</defs>
</svg>
