<svg width="20" height="15" viewBox="0 0 20 15" fill="none" xmlns="http://www.w3.org/2000/svg">
<g clip-path="url(#clip0_202_3226)">
<mask id="mask0_202_3226" style="mask-type:luminance" maskUnits="userSpaceOnUse" x="0" y="0" width="20" height="15">
<path d="M0.00195312 0H19.9971V15H0.00195312V0Z" fill="white"/>
</mask>
<g mask="url(#mask0_202_3226)">
<path fill-rule="evenodd" clip-rule="evenodd" d="M-2.56152 0L10.001 7.5L-2.56152 15V0ZM22.5635 0L10.001 7.5L22.5635 15V0Z" fill="#18B637"/>
<path fill-rule="evenodd" clip-rule="evenodd" d="M-2.56152 0L10.001 7.5L22.5635 0H-2.56152ZM-2.56152 15L10.001 7.5L22.5635 15H-2.56152Z" fill="#CF0921"/>
<path fill-rule="evenodd" clip-rule="evenodd" d="M22.5635 0H20.2227L-2.56152 13.6025V15H-0.220703L22.5635 1.39746V0Z" fill="white"/>
<path fill-rule="evenodd" clip-rule="evenodd" d="M14.3398 7.5C14.3398 8.65035 13.8829 9.75359 13.0694 10.567C12.256 11.3804 11.1528 11.8374 10.0024 11.8374C8.85209 11.8374 7.74886 11.3804 6.93543 10.567C6.12201 9.75359 5.66504 8.65035 5.66504 7.5C5.66504 6.35004 6.12186 5.24718 6.93501 4.43403C7.74815 3.62088 8.85101 3.16406 10.001 3.16406C11.1509 3.16406 12.2538 3.62088 13.0669 4.43403C13.8801 5.24718 14.3369 6.35004 14.3369 7.5H14.3398Z" fill="white"/>
<path fill-rule="evenodd" clip-rule="evenodd" d="M-2.56152 0V1.39746L20.2227 15H22.5635V13.6025L-0.220703 0H-2.56152Z" fill="white"/>
<path fill-rule="evenodd" clip-rule="evenodd" d="M10.8564 5.86523L10.291 5.87402L9.99805 6.35449L9.70801 5.87402L9.14551 5.8623L9.41797 5.36719L9.14844 4.875L9.71094 4.86328L10.0039 4.38281L10.2939 4.86621L10.8564 4.87793L10.584 5.37012L10.8564 5.86523ZM8.96387 9.13477L8.40137 9.14356L8.1084 9.62402L7.81836 9.14356L7.25586 9.13184L7.52832 8.63672L7.25879 8.14453L7.82129 8.13281L8.11426 7.65234L8.4043 8.13574L8.9668 8.14746L8.69434 8.63965L8.96387 9.13477ZM12.79 9.13477L12.2275 9.14356L11.9346 9.62402L11.6416 9.14356L11.082 9.13184L11.3545 8.63672L11.082 8.14453L11.6445 8.13281L11.9375 7.65234L12.2305 8.13574L12.793 8.14746L12.5176 8.63965L12.79 9.13477Z" fill="#CF0921" stroke="#18B637" stroke-width="0.2"/>
</g>
</g>
<defs>
<clipPath id="clip0_202_3226">
<rect width="20" height="15" fill="white"/>
</clipPath>
</defs>
</svg>
