<svg width="20" height="15" viewBox="0 0 20 15" fill="none" xmlns="http://www.w3.org/2000/svg">
<g clip-path="url(#clip0_202_3669)">
<path d="M0 0H20V15H0V0Z" fill="#032EA1"/>
<path d="M0 3.75H20V11.25H0V3.75Z" fill="#E00025"/>
<path d="M7.8877 7.0686H12.1552V8.7111H7.8877V7.0686Z" fill="white" stroke="black" stroke-width="0.06" stroke-linejoin="bevel"/>
<path d="M11.9377 7.97225H12.0689V8.591H11.9377V7.97225ZM7.8877 7.66851H12.1552V7.85601H7.8877V7.66851ZM7.8877 7.40601H12.1552V7.5785H7.8877V7.40601Z" fill="white" stroke="black" stroke-width="0.06" stroke-linejoin="bevel"/>
<path d="M7.8877 7.15112H12.1552V7.31237H7.8877V7.15112Z" fill="white" stroke="black" stroke-width="0.06" stroke-linejoin="bevel"/>
<path d="M9.0123 7.97241H9.14731V8.59116H9.0123V7.97241ZM10.8498 7.97241H10.9848V8.59116H10.8498V7.97241ZM7.9248 7.97241H8.05605V8.59116H7.9248V7.97241ZM8.1873 7.97241H8.31855V8.59116H8.1873V7.97241ZM8.46855 7.97241H8.5998V8.59116H8.46855V7.97241ZM8.7498 7.97241H8.88105V8.59116H8.7498V7.97241ZM11.1048 7.97241H11.2398V8.59116H11.1048V7.97241ZM11.3861 7.97241H11.5211V8.59116H11.3861V7.97241ZM11.6673 7.97241H11.8023V8.59116H11.6673V7.97241Z" fill="white" stroke="black" stroke-width="0.06" stroke-linejoin="bevel"/>
<path d="M6.21875 8.79372C6.29716 8.75103 6.35622 8.6799 6.38375 8.59497H13.625C13.6525 8.6799 13.7116 8.75103 13.79 8.79372H6.21875Z" fill="white" stroke="black" stroke-width="0.06"/>
<path d="M9.9123 4.56741C9.9123 4.56741 9.90855 4.41366 9.99855 4.40991C10.0848 4.40991 10.0811 4.56741 10.0811 4.56741H9.9123ZM9.44355 6.61116V6.40491C9.44355 6.29991 9.33855 6.29241 9.33855 6.21741C9.33855 6.21741 9.32355 6.10491 9.35355 6.05241C9.3948 6.20241 9.46605 6.17616 9.46605 6.11241C9.46605 6.05991 9.42855 6.00741 9.3423 5.87616C9.3123 5.83491 9.33105 5.70366 9.36855 5.65491C9.38355 5.76741 9.4023 5.82366 9.45105 5.82366C9.48105 5.82366 9.50355 5.80491 9.50355 5.74866C9.50355 5.67366 9.4548 5.63616 9.42855 5.56866C9.41563 5.53507 9.41264 5.49847 9.41996 5.46322C9.42727 5.42798 9.44458 5.39559 9.4698 5.36991C9.48855 5.48241 9.4848 5.52741 9.53355 5.52741C9.6348 5.49366 9.53355 5.34741 9.51105 5.30991C9.48855 5.26866 9.54855 5.18241 9.54855 5.18241C9.57855 5.28366 9.58605 5.29116 9.62355 5.27991C9.66855 5.26866 9.66105 5.20491 9.60855 5.15241C9.5748 5.11491 9.57855 5.06616 9.61605 5.02866C9.65355 5.09991 9.69855 5.09616 9.7023 5.05116L9.6723 4.88616H10.3248L10.2911 5.04741C10.2836 5.09241 10.3436 5.10366 10.3811 5.02866C10.4186 5.06616 10.4223 5.11866 10.3886 5.15241C10.3361 5.20491 10.3286 5.26866 10.3736 5.27991C10.4111 5.29116 10.4186 5.27991 10.4486 5.18241C10.4486 5.18241 10.5048 5.23866 10.4861 5.30991C10.4636 5.34741 10.3623 5.49741 10.4636 5.52741C10.5123 5.52741 10.5086 5.48241 10.5273 5.36991C10.5519 5.39599 10.5685 5.42857 10.5752 5.4638C10.5818 5.49902 10.5782 5.53542 10.5648 5.56866C10.5423 5.63616 10.4898 5.67366 10.4898 5.74866C10.4898 5.80491 10.5161 5.82366 10.5461 5.82366C10.5948 5.82366 10.6136 5.77116 10.6286 5.65491C10.6661 5.70366 10.6848 5.83491 10.6548 5.87991C10.5686 6.00741 10.5273 6.05991 10.5273 6.11241C10.5273 6.17616 10.6023 6.20241 10.6398 6.05241C10.6736 6.10491 10.6586 6.21741 10.6586 6.21741C10.6586 6.29241 10.5573 6.29991 10.5536 6.40491V6.61116H9.44355ZM9.71355 4.88616L9.69855 4.76991H10.2948L10.2798 4.88616H9.71355ZM9.75105 4.76616L9.74355 4.67241H10.2498L10.2386 4.76616H9.75105ZM9.8373 4.66866L9.82605 4.57116H10.1636L10.1598 4.66866H9.8373ZM11.0748 8.79366C10.9998 8.76741 10.8873 8.68491 10.8873 8.60616V7.69491L10.9848 7.56741H9.0123L9.10605 7.69491V8.60616C9.10605 8.68491 9.03105 8.76741 8.95605 8.79366H11.0748Z" fill="white" stroke="black" stroke-width="0.06"/>
<path d="M9.35742 7.97241H9.49242V8.59116H9.35742V7.97241ZM10.4974 7.97241H10.6324V8.59116H10.4974V7.97241Z" fill="white" stroke="black" stroke-width="0.06" stroke-linejoin="bevel"/>
<path d="M8.97445 6.53247V7.56747H10.9995V6.53247C10.9761 6.54102 10.955 6.55499 10.9381 6.57324C10.9211 6.59149 10.9087 6.61351 10.902 6.63747V7.07997H9.0757V6.63747C9.0757 6.63747 9.0532 6.56247 8.9707 6.53247H8.97445Z" fill="white" stroke="black" stroke-width="0.06"/>
<path d="M10.7227 8.79374C10.6552 8.76749 10.5127 8.68499 10.5127 8.60624V7.58624C10.5277 7.52999 10.6027 7.49624 10.6514 7.45874H9.3127C9.37645 7.49624 9.4477 7.52249 9.47395 7.58624V8.60624C9.47395 8.68499 9.36145 8.76749 9.29395 8.79374H10.7227Z" fill="white" stroke="black" stroke-width="0.06"/>
<path d="M10.9024 7.46982V6.73482H10.7187V6.66357H9.26367V6.73857H9.07617V7.46982H10.9024ZM10.4374 8.79357C10.3699 8.76732 10.2762 8.68482 10.2762 8.60607V7.73607L10.3287 7.65732H9.66492L9.72117 7.73232V8.60607C9.72117 8.68482 9.62367 8.76732 9.55992 8.79357H10.4374Z" fill="white" stroke="black" stroke-width="0.06"/>
<path d="M9.82617 7.65747H10.1637V8.79372H9.82617V7.65747Z" fill="white" stroke="black" stroke-width="0.06"/>
<path d="M10.3393 7.40617C10.3393 7.33117 10.5568 7.32742 10.6693 7.26367H9.31934C9.43184 7.32742 9.64559 7.33117 9.64559 7.40617L9.69059 7.55242L10.2531 7.57492L10.3393 7.40617Z" fill="white" stroke="black" stroke-width="0.06" stroke-linejoin="bevel"/>
<path d="M10.602 6.61121C10.602 6.42746 10.6095 6.35996 10.6657 6.35996V6.93746C10.527 6.98996 10.4295 7.16246 10.4295 7.16246H9.55949C9.55949 7.16246 9.46199 6.98996 9.32324 6.93746V6.35621C9.39074 6.35621 9.39074 6.43121 9.39074 6.60746L10.602 6.61121ZM10.6657 6.53621C10.6657 6.32621 10.8495 6.30371 10.8495 6.30371V6.49121C10.7782 6.48746 10.7445 6.55121 10.7445 6.64121C10.7445 6.73496 10.8007 6.73496 10.8007 6.73496V7.26746H10.6657V6.53621Z" fill="white" stroke="black" stroke-width="0.06"/>
<path d="M9.3234 6.53621C9.3234 6.32621 9.13965 6.30371 9.13965 6.30371V6.49121C9.2109 6.48746 9.24465 6.55121 9.24465 6.64121C9.24465 6.73496 9.1884 6.73496 9.1884 6.73496V7.26746H9.3234V6.53621Z" fill="white" stroke="black" stroke-width="0.06"/>
<path d="M9.6798 5.08496H10.3248M9.6048 5.28746H10.3923M9.5298 5.53121H10.4636M9.45105 5.82746H10.5573M9.4248 6.16496H10.5648" stroke="black" stroke-width="0.03"/>
<path d="M9.08008 7.2749H10.9026M9.65758 7.2749H10.3326V7.5224H9.65758V7.2749Z" stroke="black" stroke-width="0.06"/>
<path d="M9.5752 6.71984C9.6877 6.85484 9.6727 7.08359 9.6727 7.21859H10.3252C10.3252 7.08359 10.3102 6.85484 10.4227 6.71984H9.5752ZM9.93895 5.18234L9.84895 5.13359V5.00234C9.88645 5.01359 9.92395 5.01734 9.93145 5.07734C9.9427 4.99109 9.96895 4.99859 10.0027 4.96484C10.0402 4.99859 10.0589 4.99109 10.0739 5.07734C10.0739 5.01734 10.1189 5.01359 10.1527 5.00234V5.13359L10.0664 5.17859L9.93895 5.18234Z" fill="white" stroke="black" stroke-width="0.06"/>
<path d="M9.93125 5.39606L9.78125 5.29105V5.1748C9.8375 5.18605 9.89375 5.19356 9.90125 5.25731C9.91625 5.16356 9.95 5.11855 10.0025 5.08105C10.0512 5.11855 10.085 5.16356 10.1038 5.25731C10.1075 5.19356 10.1675 5.18605 10.2163 5.1748V5.29481L10.07 5.39606H9.93125Z" fill="white" stroke="black" stroke-width="0.06"/>
<path d="M9.92004 5.72989L9.75129 5.57989V5.40364C9.81129 5.41864 9.87879 5.42614 9.88629 5.51989C9.90504 5.38864 9.94254 5.31739 9.99879 5.26489C10.0588 5.31739 10.0963 5.38864 10.1188 5.51989C10.1263 5.42614 10.1938 5.41864 10.2538 5.40364V5.57989L10.0813 5.72989H9.92004ZM10.235 5.92864L10.085 6.14239H9.90879L9.75504 5.92864H10.235ZM9.66504 6.28489C9.74004 6.32614 9.77004 6.41239 9.77754 6.56989H10.2125C10.22 6.41239 10.25 6.32614 10.325 6.28489H9.66504Z" fill="white" stroke="black" stroke-width="0.06"/>
<path d="M10.3322 5.92502V5.71502C10.2999 5.7219 10.2699 5.73686 10.245 5.75851C10.2201 5.78015 10.2011 5.80777 10.1897 5.83877C10.1897 5.76377 10.096 5.60252 9.99473 5.52002C9.89348 5.61002 9.79598 5.76002 9.79973 5.83502C9.78098 5.77877 9.73223 5.73377 9.65723 5.71502V5.92877L10.3322 5.92502Z" fill="white" stroke="black" stroke-width="0.06" stroke-linejoin="bevel"/>
<path d="M10.362 6.28488V6.07488C10.2832 6.09738 10.2307 6.13863 10.2082 6.19863C10.2082 6.12363 10.107 5.96238 9.99445 5.87988C9.88195 5.97363 9.77695 6.11988 9.7807 6.19863C9.76195 6.14238 9.7057 6.09738 9.62695 6.07488V6.28863L10.362 6.28488Z" fill="white" stroke="black" stroke-width="0.06" stroke-linejoin="bevel"/>
<path d="M10.452 6.72378V6.47628C10.3739 6.50067 10.3064 6.55093 10.2607 6.61878C10.2607 6.48753 10.1107 6.28128 9.99445 6.21753C9.87445 6.28503 9.7282 6.49503 9.7282 6.61878C9.68133 6.55046 9.61254 6.50019 9.5332 6.47628V6.72378H10.452Z" fill="white" stroke="black" stroke-width="0.06" stroke-linejoin="bevel"/>
<path d="M10.3998 7.27503V7.02003C10.3098 7.05378 10.2873 7.13628 10.2573 7.19628C10.2686 6.93753 10.1148 6.66378 9.99484 6.59253C9.87484 6.66378 9.71734 6.94503 9.73234 7.19253C9.70234 7.14003 9.67609 7.05378 9.58984 7.02003V7.27128L10.3998 7.27503Z" fill="white" stroke="black" stroke-width="0.06" stroke-linejoin="bevel"/>
<path d="M10.3394 7.65743V7.40243C10.2457 7.42493 10.2419 7.45868 10.2119 7.51493C10.2232 7.36118 10.1144 7.18493 9.99441 7.11743C9.87441 7.18493 9.76941 7.36118 9.77691 7.51493C9.74691 7.45868 9.74316 7.42493 9.64941 7.40243V7.65743H10.3394Z" fill="white" stroke="black" stroke-width="0.06"/>
<path d="M6.38734 8.59489V7.82989C6.36109 7.73239 6.27484 7.64239 6.21484 7.62739V6.95239L6.35359 7.02739L6.51484 7.73614V8.59864L6.38734 8.59489Z" fill="white" stroke="black" stroke-width="0.06"/>
<path d="M6.38734 8.59848V7.82973C6.36109 7.73223 6.27484 7.64223 6.21484 7.62723V6.90723C6.30859 6.90723 6.35359 7.02723 6.35359 7.02723L6.51484 7.73598V8.59473L6.38734 8.59848Z" fill="white" stroke="black" stroke-width="0.06"/>
<path d="M6.28613 8.79354C6.34988 8.76729 6.44363 8.68479 6.44363 8.60604V7.64604L6.39863 7.57104H8.03738L7.97363 7.64604V8.60604C7.97638 8.64579 7.98964 8.68409 8.01204 8.71703C8.03444 8.74997 8.06518 8.77638 8.10113 8.79354H6.28613Z" fill="white" stroke="black" stroke-width="0.06"/>
<path d="M7.7673 8.79363C7.70355 8.76738 7.6098 8.68488 7.6098 8.60613V7.69488L7.7448 7.56738H6.6348L6.7698 7.69488V8.60613C6.7698 8.68488 6.67605 8.76738 6.6123 8.79363H7.7673Z" fill="white" stroke="black" stroke-width="0.06"/>
<path d="M7.61312 8.79348C7.54937 8.76723 7.45188 8.68473 7.45188 8.60598V7.78098L7.54188 7.65723H6.83688L6.92688 7.78098V8.60598C6.92688 8.68473 6.83313 8.76723 6.76562 8.79348H7.61312Z" fill="white" stroke="black" stroke-width="0.06"/>
<path d="M7.02523 7.65723H7.35898V8.79723H7.02148L7.02523 7.65723Z" fill="white" stroke="black" stroke-width="0.06"/>
<path d="M6.56352 7.97231H6.69852V8.59106H6.56352V7.97231ZM7.71852 7.97231H7.84977V8.59106H7.71477L7.71852 7.97231ZM6.44727 6.92981H6.61227V7.56731H6.44727V6.92981ZM6.44727 6.80981H6.60852V6.92981H6.44727V6.80981ZM7.78227 7.06857H8.01102V7.55607H7.78227V7.06857Z" fill="white"/>
<path d="M6.44727 6.92981H6.61227V7.56731H6.44727V6.92981ZM6.44727 6.92981H6.60852V6.80981H6.44727V6.92981ZM6.56352 7.97231H6.69852V8.59106H6.56352V7.97231ZM7.71852 7.97231H7.84977V8.59106H7.71477L7.71852 7.97231ZM7.78227 7.06857H8.01102V7.55607H7.78227V7.06857Z" stroke="black" stroke-width="0.06" stroke-linejoin="bevel"/>
<path d="M6.60836 7.55981V6.47231C6.65336 6.47231 6.66086 6.63357 6.76586 6.63357C6.82211 6.63357 6.81836 6.56607 6.78461 6.51357C6.75836 6.46482 6.72461 6.40107 6.76961 6.27732C6.80336 6.37107 6.88586 6.40107 6.87086 6.34482C6.84461 6.24357 6.76586 6.22482 6.82586 6.07107C6.84461 6.19857 6.92711 6.19482 6.90836 6.11982C6.88586 6.03357 6.83711 5.99607 6.89711 5.87607C6.93086 6.01482 6.97211 6.00732 6.97211 5.92107C6.97211 5.79357 6.97211 5.65856 7.12961 5.60981C7.12961 5.60981 7.14086 5.49731 7.20086 5.49731C7.25711 5.49731 7.26836 5.60981 7.26836 5.60981C7.42961 5.65856 7.42586 5.79732 7.42586 5.92107C7.42586 6.00732 7.46711 6.01482 7.50086 5.87607C7.56086 5.99607 7.51211 6.03357 7.48961 6.11982C7.47086 6.19482 7.55336 6.19857 7.57211 6.07107C7.63211 6.22482 7.55336 6.24357 7.52711 6.34482C7.51211 6.40107 7.59461 6.37107 7.62836 6.27732C7.67336 6.40107 7.63961 6.46482 7.61336 6.51357C7.58336 6.56607 7.57586 6.63357 7.63211 6.63357C7.73711 6.63357 7.74461 6.47607 7.78961 6.47607V7.55981H6.60836ZM6.34961 6.73857V7.56731H6.44336V6.73857C6.40961 6.71982 6.37961 6.71982 6.34961 6.73857Z" fill="white" stroke="black" stroke-width="0.06"/>
<path d="M6.35742 7.27473C6.47367 7.33473 6.58992 7.40598 6.61992 7.56723H6.35742V7.27473ZM7.97742 7.02723V7.56723H8.05242V7.02723C8.02992 7.01598 7.99617 7.01223 7.97742 7.02723Z" fill="white" stroke="black" stroke-width="0.06"/>
<path d="M8.0527 7.27493C7.93645 7.33118 7.8202 7.39868 7.7902 7.56368H8.0527V7.27493ZM7.2802 6.01118L7.3477 5.95493V5.87993C7.3252 5.87993 7.3102 5.89118 7.29145 5.91743C7.28417 5.89335 7.27211 5.87098 7.25601 5.85165C7.2399 5.83232 7.22007 5.81643 7.1977 5.80493C7.17499 5.81561 7.15467 5.83074 7.13792 5.84942C7.12117 5.8681 7.10834 5.88995 7.1002 5.91368C7.08145 5.88743 7.0702 5.88368 7.04395 5.87618V5.95118L7.11145 6.01118H7.2802Z" fill="white" stroke="black" stroke-width="0.06"/>
<path d="M7.3177 6.19483L7.3477 6.12358V6.02983C7.3252 6.02983 7.3102 6.04108 7.29145 6.06733C7.28417 6.04325 7.27211 6.02088 7.25601 6.00155C7.2399 5.98223 7.22007 5.96634 7.1977 5.95483C7.17499 5.96552 7.15467 5.98065 7.13792 5.99933C7.12117 6.01801 7.10834 6.03986 7.1002 6.06358C7.08145 6.03733 7.0702 6.03358 7.04395 6.02983V6.12358L7.07395 6.19483H7.3177Z" fill="white" stroke="black" stroke-width="0.06"/>
<path d="M7.325 6.44222L7.4225 6.31847V6.19847C7.385 6.19847 7.36625 6.21722 7.34 6.25847C7.31375 6.17222 7.265 6.15722 7.1975 6.11597C7.12625 6.15347 7.0775 6.17222 7.055 6.25472C7.025 6.21347 7.00625 6.20222 6.96875 6.19847V6.31847L7.07 6.44222H7.325Z" fill="white" stroke="black" stroke-width="0.06"/>
<path d="M7.35102 6.68601C7.35102 6.68601 7.47102 6.58475 7.47477 6.5285V6.39725C7.42977 6.401 7.38852 6.41226 7.35477 6.46851C7.32477 6.35976 7.27977 6.32976 7.19727 6.28101C7.11102 6.32976 7.06602 6.35976 7.03977 6.46851C7.00227 6.41226 6.96477 6.40101 6.91602 6.39351V6.5285C6.94751 6.58799 6.98943 6.64133 7.03977 6.68601H7.35102Z" fill="white" stroke="black" stroke-width="0.06"/>
<path d="M7.39992 7.13611C7.39992 7.13611 7.56492 6.95986 7.56867 6.88861V6.68611C7.50867 6.69361 7.44867 6.73487 7.40367 6.82112C7.36617 6.65237 7.30617 6.53611 7.19742 6.45361C7.08492 6.53611 7.02492 6.65237 6.98742 6.82112C6.94242 6.73487 6.88617 6.69361 6.82617 6.68611V6.88861C6.83742 6.95986 6.99117 7.13611 6.99117 7.13611H7.39992Z" fill="white" stroke="black" stroke-width="0.06"/>
<path d="M7.39992 7.40235C7.39992 7.40235 7.53867 7.2636 7.56867 7.2036V7.0011C7.50867 7.0086 7.44867 7.04985 7.40367 7.13235C7.39364 7.06412 7.37026 6.99853 7.33487 6.93933C7.29948 6.88014 7.25278 6.82849 7.19742 6.78735C7.08492 6.86985 7.02492 6.9636 6.98742 7.13235C6.94242 7.04985 6.88617 7.0086 6.82617 7.0011V7.2036C6.86367 7.2636 6.99117 7.40235 6.99117 7.40235H7.39992Z" fill="white" stroke="black" stroke-width="0.06"/>
<path d="M7.45617 7.55984C7.41867 7.38359 7.38117 7.25234 7.18992 7.12109C6.99492 7.25234 6.96117 7.38359 6.91992 7.55984H7.45617Z" fill="white" stroke="black" stroke-width="0.06"/>
<path d="M7.55742 7.65735V7.40235C7.46742 7.43985 7.38867 7.4886 7.35867 7.54485C7.32867 7.40235 7.26492 7.34235 7.18617 7.2561C7.10742 7.34235 7.05492 7.4061 7.02117 7.54485C6.99117 7.4886 6.91242 7.4361 6.82617 7.40235V7.65735H7.55742Z" fill="white" stroke="black" stroke-width="0.06"/>
<path d="M13.6136 8.59489V7.82989C13.6399 7.73239 13.7261 7.64239 13.7861 7.62739V6.95239L13.6474 7.02739L13.4861 7.73614V8.59864L13.6136 8.59489Z" fill="white" stroke="black" stroke-width="0.06"/>
<path d="M13.6136 8.59848V7.82973C13.6399 7.73223 13.7261 7.64223 13.7861 7.62723V6.90723C13.6924 6.90723 13.6474 7.02723 13.6474 7.02723L13.4861 7.73598V8.59473L13.6136 8.59848Z" fill="white" stroke="black" stroke-width="0.06"/>
<path d="M13.7148 8.79354C13.6511 8.76729 13.5573 8.68479 13.5573 8.60604V7.64604L13.6023 7.57104H11.9636L12.0273 7.64604V8.60604C12.0246 8.64579 12.0113 8.68409 11.9889 8.71703C11.9665 8.74997 11.9358 8.77638 11.8998 8.79354H13.7148Z" fill="white" stroke="black" stroke-width="0.06"/>
<path d="M12.2337 8.79363C12.2974 8.76738 12.3912 8.68488 12.3912 8.60613V7.69488L12.2562 7.56738H13.3662L13.2312 7.69488V8.60613C13.2312 8.68488 13.3249 8.76738 13.3887 8.79363H12.2337Z" fill="white" stroke="black" stroke-width="0.06"/>
<path d="M12.3879 8.79348C12.4516 8.76723 12.5491 8.68473 12.5491 8.60598V7.78098L12.4591 7.65723H13.1641L13.0741 7.78098V8.60598C13.0741 8.68473 13.1679 8.76723 13.2354 8.79348H12.3879Z" fill="white" stroke="black" stroke-width="0.06"/>
<path d="M12.9757 7.65723H12.642V8.79723H12.9795L12.9757 7.65723Z" fill="white" stroke="black" stroke-width="0.06"/>
<path d="M13.4375 7.97231H13.3025V8.59106H13.4375V7.97231ZM12.2825 7.97231H12.1512V8.59106H12.2862L12.2825 7.97231ZM13.5537 6.92981H13.3887V7.56731H13.5537V6.92981ZM13.5537 6.80981H13.3925V6.92981H13.5537V6.80981ZM12.2187 7.06857H11.99V7.55607H12.2187V7.06857Z" fill="white"/>
<path d="M13.5537 6.92981H13.3887V7.56731H13.5537V6.92981ZM13.5537 6.92981H13.3925V6.80981H13.5537V6.92981ZM13.4375 7.97231H13.3025V8.59106H13.4375V7.97231ZM12.2825 7.97231H12.1512V8.59106H12.2862L12.2825 7.97231ZM12.2187 7.06857H11.99V7.55607H12.2187V7.06857Z" stroke="black" stroke-width="0.06" stroke-linejoin="bevel"/>
<path d="M13.3926 7.55981V6.47231C13.3476 6.47231 13.3401 6.63357 13.2351 6.63357C13.1789 6.63357 13.1826 6.56607 13.2164 6.51357C13.2426 6.46482 13.2764 6.40107 13.2314 6.27732C13.1976 6.37107 13.1151 6.40107 13.1301 6.34482C13.1564 6.24357 13.2351 6.22482 13.1751 6.07107C13.1564 6.19857 13.0739 6.19482 13.0926 6.11982C13.1151 6.03357 13.1639 5.99607 13.1039 5.87607C13.0701 6.01482 13.0289 6.00732 13.0289 5.92107C13.0289 5.79357 13.0289 5.65856 12.8714 5.60981C12.8714 5.60981 12.8601 5.49731 12.8001 5.49731C12.7439 5.49731 12.7326 5.60981 12.7326 5.60981C12.5714 5.65856 12.5751 5.79732 12.5751 5.92107C12.5751 6.00732 12.5339 6.01482 12.5001 5.87607C12.4401 5.99607 12.4889 6.03357 12.5114 6.11982C12.5301 6.19482 12.4476 6.19857 12.4289 6.07107C12.3689 6.22482 12.4476 6.24357 12.4739 6.34482C12.4889 6.40107 12.4064 6.37107 12.3726 6.27732C12.3276 6.40107 12.3614 6.46482 12.3876 6.51357C12.4176 6.56607 12.4251 6.63357 12.3689 6.63357C12.2639 6.63357 12.2564 6.47607 12.2114 6.47607V7.55981H13.3926ZM13.6514 6.73857V7.56731H13.5576V6.73857C13.5914 6.71982 13.6214 6.71982 13.6514 6.73857Z" fill="white" stroke="black" stroke-width="0.06"/>
<path d="M13.6436 7.27473C13.5273 7.33473 13.4111 7.40598 13.3811 7.56723H13.6436V7.27473ZM12.0236 7.02723V7.56723H11.9486V7.02723C11.9711 7.01598 12.0048 7.01223 12.0236 7.02723Z" fill="white" stroke="black" stroke-width="0.06"/>
<path d="M11.9483 7.27493C12.0645 7.33118 12.1808 7.39868 12.2108 7.56368H11.9483V7.27493ZM12.7208 6.01118L12.6533 5.95493V5.87993C12.6758 5.87993 12.6908 5.89118 12.7095 5.91743C12.7168 5.89335 12.7289 5.87098 12.745 5.85165C12.7611 5.83232 12.7809 5.81643 12.8033 5.80493C12.826 5.81561 12.8463 5.83074 12.8631 5.84942C12.8798 5.8681 12.8926 5.88995 12.9008 5.91368C12.9195 5.88743 12.9308 5.88368 12.957 5.87618V5.95118L12.8895 6.01118H12.7208Z" fill="white" stroke="black" stroke-width="0.06"/>
<path d="M12.6833 6.19483L12.6533 6.12358V6.02983C12.6758 6.02983 12.6908 6.04108 12.7095 6.06733C12.7168 6.04325 12.7289 6.02088 12.745 6.00155C12.7611 5.98223 12.7809 5.96634 12.8033 5.95483C12.826 5.96552 12.8463 5.98065 12.8631 5.99933C12.8798 6.01801 12.8926 6.03986 12.9008 6.06358C12.9195 6.03733 12.9308 6.03358 12.957 6.02983V6.12358L12.927 6.19483H12.6833Z" fill="white" stroke="black" stroke-width="0.06"/>
<path d="M12.676 6.44222L12.5785 6.31847V6.19847C12.616 6.19847 12.6347 6.21722 12.661 6.25847C12.6872 6.17222 12.736 6.15722 12.8035 6.11597C12.8747 6.15347 12.9235 6.17222 12.946 6.25472C12.976 6.21347 12.9947 6.20222 13.0322 6.19847V6.31847L12.931 6.44222H12.676Z" fill="white" stroke="black" stroke-width="0.06"/>
<path d="M12.65 6.68601C12.65 6.68601 12.53 6.58475 12.5262 6.5285V6.39725C12.5712 6.401 12.6125 6.41226 12.6462 6.46851C12.6762 6.35976 12.7212 6.32976 12.8037 6.28101C12.89 6.32976 12.935 6.35976 12.9612 6.46851C12.9987 6.41226 13.0362 6.40101 13.085 6.39351V6.5285C13.0535 6.58799 13.0116 6.64133 12.9612 6.68601H12.65Z" fill="white" stroke="black" stroke-width="0.06"/>
<path d="M12.6011 7.13611C12.6011 7.13611 12.4361 6.95986 12.4323 6.88861V6.68611C12.4923 6.69361 12.5523 6.73487 12.5973 6.82112C12.6348 6.65237 12.6948 6.53611 12.8036 6.45361C12.9161 6.53611 12.9761 6.65237 13.0136 6.82112C13.0586 6.73487 13.1148 6.69361 13.1748 6.68611V6.88861C13.1636 6.95986 13.0098 7.13611 13.0098 7.13611H12.6011Z" fill="white" stroke="black" stroke-width="0.06"/>
<path d="M12.6011 7.40235C12.6011 7.40235 12.4623 7.2636 12.4323 7.2036V7.0011C12.4923 7.0086 12.5523 7.04985 12.5973 7.13235C12.6073 7.06412 12.6307 6.99853 12.6661 6.93933C12.7015 6.88014 12.7482 6.82849 12.8036 6.78735C12.9161 6.86985 12.9761 6.9636 13.0136 7.13235C13.0586 7.04985 13.1148 7.0086 13.1748 7.0011V7.2036C13.1373 7.2636 13.0098 7.40235 13.0098 7.40235H12.6011Z" fill="white" stroke="black" stroke-width="0.06"/>
<path d="M12.5448 7.55984C12.5823 7.38359 12.6198 7.25234 12.8111 7.12109C13.0061 7.25234 13.0398 7.38359 13.0811 7.55984H12.5448Z" fill="white" stroke="black" stroke-width="0.06"/>
<path d="M12.4436 7.65735V7.40235C12.5336 7.43985 12.6123 7.4886 12.6423 7.54485C12.6723 7.40235 12.7361 7.34235 12.8148 7.2561C12.8936 7.34235 12.9461 7.4061 12.9798 7.54485C13.0098 7.4886 13.0886 7.4361 13.1748 7.40235V7.65735H12.4436Z" fill="white" stroke="black" stroke-width="0.06"/>
<path d="M5.40098 9.72355H14.5997V10.1923H5.40098V9.72355ZM5.15723 10.1923H14.8435V10.6611H5.15723V10.1923ZM5.88473 9.01855H14.1122V9.3223H5.88473V9.01855Z" fill="white" stroke="black" stroke-width="0.07"/>
<path d="M5.64453 9.32238H14.3595V9.71988H5.64453V9.32238ZM6.02703 8.78613H13.977V9.01863H6.02703V8.78613Z" fill="white" stroke="black" stroke-width="0.07"/>
<path d="M6.88965 8.78613H7.48965V10.6611H6.88965V8.78613Z" fill="white" stroke="black" stroke-width="0.07"/>
<path d="M7.02426 8.78613H7.35801V10.6611H7.02051L7.02426 8.78613ZM9.68676 8.78613H10.2868V10.6611H9.68676V8.78613Z" fill="white" stroke="black" stroke-width="0.07"/>
<path d="M9.82617 8.78613H10.1637V10.6611H9.82617V8.78613ZM12.5074 8.78613H13.1074V10.6611H12.5074V8.78613Z" fill="white" stroke="black" stroke-width="0.07"/>
<path d="M12.6387 8.78613H12.9762V10.6611H12.6387V8.78613Z" fill="white" stroke="black" stroke-width="0.07"/>
<path d="M6.3877 8.59497H13.6252M7.0177 10.425H7.3627M7.0177 10.1887H7.3627M7.0177 9.95622H7.3627M7.0177 9.71997H7.3627M7.0177 9.48747H7.3627M7.0177 9.25122H7.3627M7.0177 9.01872H7.3627M9.8302 10.425H10.1527M9.8302 10.1887H10.1527M9.8302 9.95622H10.1527M9.8302 9.71997H10.1527M9.8302 9.48747H10.1527M9.8302 9.25122H10.1527M9.8302 9.01872H10.1527M12.6352 10.425H12.9802M12.6352 10.1887H12.9802M12.6352 9.95622H12.9802M12.6352 9.71997H12.9802M12.6352 9.48747H12.9802M12.6352 9.25122H12.9802M12.6352 9.01872H12.9802" stroke="black" stroke-width="0.07"/>
</g>
<defs>
<clipPath id="clip0_202_3669">
<rect width="20" height="15" fill="white"/>
</clipPath>
</defs>
</svg>
