<svg width="20" height="15" viewBox="0 0 20 15" fill="none" xmlns="http://www.w3.org/2000/svg">
<g clip-path="url(#clip0_202_3327)">
<path d="M0 0H6.66563V15H0V0Z" fill="#007A5E"/>
<path d="M6.66602 0H13.3348V15H6.66602V0Z" fill="#CE1126"/>
<path d="M13.334 0H19.9996V15H13.334V0Z" fill="#FCD116"/>
<path d="M9.99989 5.72217L9.44434 7.41105L10.2888 7.69994L9.99989 5.72217Z" fill="#FCD116"/>
<path d="M10.0001 5.72217L10.5557 7.41105L9.71122 7.69994L10.0001 5.72217Z" fill="#FCD116"/>
<path d="M11.6912 6.95061L9.9133 6.94414L9.8995 7.83652L11.6912 6.95061Z" fill="#FCD116"/>
<path d="M11.6916 6.95064L10.2571 8.0009L9.72136 7.28706L11.6916 6.95064Z" fill="#FCD116"/>
<path d="M11.0447 8.93824L10.5014 7.24536L9.64847 7.50799L11.0447 8.93824Z" fill="#FCD116"/>
<path d="M11.0452 8.93822L9.603 7.89843L10.1164 7.16837L11.0452 8.93822Z" fill="#FCD116"/>
<path d="M8.95484 8.93822L10.397 7.89843L9.88363 7.16837L8.95484 8.93822Z" fill="#FCD116"/>
<path d="M8.95531 8.93824L9.49856 7.24536L10.3515 7.50799L8.95531 8.93824Z" fill="#FCD116"/>
<path d="M8.30937 6.95064L9.74392 8.0009L10.2796 7.28706L8.30937 6.95064Z" fill="#FCD116"/>
<path d="M8.30977 6.95061L10.0877 6.94414L10.1015 7.83652L8.30977 6.95061Z" fill="#FCD116"/>
</g>
<defs>
<clipPath id="clip0_202_3327">
<rect width="20" height="15" fill="white"/>
</clipPath>
</defs>
</svg>
