<svg width="20" height="15" viewBox="0 0 20 15" fill="none" xmlns="http://www.w3.org/2000/svg">
<g clip-path="url(#clip0_202_3276)">
<path d="M4.69141 0H15.3057V15H4.69144L4.69141 0Z" fill="white"/>
<path d="M-0.614258 0H4.6914V15H-0.614258V0ZM15.3057 0H20.6113V15H15.3086L15.3057 0ZM6.28224 7.24806L5.86621 7.38869L7.78515 9.07325C7.93165 9.50391 7.73537 9.62988 7.60937 9.85841L9.68946 9.59472L9.63965 11.6894L10.0732 11.6777L9.97655 9.59766L12.0625 9.84669C11.9336 9.57422 11.8193 9.43066 11.9365 8.99706L13.8526 7.40037L13.5186 7.27734C13.2431 7.06641 13.6357 6.26075 13.6943 5.75097C13.6943 5.75097 12.5781 6.13475 12.5049 5.93262L12.2178 5.38478L11.2012 6.50391C11.0898 6.53028 11.043 6.48631 11.0166 6.39256L11.4854 4.05469L10.7412 4.47363C10.6797 4.50294 10.6181 4.4795 10.5771 4.40625L9.85937 2.97069L9.12109 4.46194C9.06543 4.51466 9.00977 4.5205 8.9629 4.48537L8.2539 4.08694L8.68165 6.40428C8.64649 6.49803 8.56446 6.52147 8.47071 6.47169L7.49512 5.36719C7.36915 5.57228 7.28418 5.90331 7.11427 5.9795C6.94727 6.04981 6.38184 5.83887 6.0039 5.75684C6.1328 6.22266 6.53712 6.99609 6.28224 7.25097V7.24806Z" fill="#D52B1E"/>
</g>
<defs>
<clipPath id="clip0_202_3276">
<rect width="20" height="15" fill="white"/>
</clipPath>
</defs>
</svg>
