<svg width="20" height="15" viewBox="0 0 20 15" fill="none" xmlns="http://www.w3.org/2000/svg">
<rect width="20" height="15" fill="#003893"/>
<rect y="7.54016" width="20" height="3.60963" fill="white"/>
<rect y="8.74329" width="20" height="1.20321" fill="#CF2027"/>
<path d="M8.44037 6.27815L8.83067 6.57761L8.68518 6.0908L9.07687 5.78543H8.58726L8.43757 5.29419L8.28649 5.78396H7.79688L8.19137 6.08637L8.04028 6.57614L8.44037 6.27815Z" fill="#F7D116"/>
<path d="M10.3857 6.92793L10.776 7.22739L10.6305 6.74058L11.0222 6.43521H10.5326L10.3829 5.94397L10.2318 6.43374H9.74219L10.1367 6.73615L9.9856 7.22592L10.3857 6.92793Z" fill="#F7D116"/>
<path d="M11.6816 8.59883L12.0719 8.89829L11.9264 8.41148L12.3181 8.10611H11.8285L11.6788 7.61487L11.5277 8.10463H11.0381L11.4326 8.40705L11.2815 8.89682L11.6816 8.59883Z" fill="#F7D116"/>
<path d="M11.6816 10.734L12.0719 11.0334L11.9264 10.5466L12.3181 10.2412H11.8285L11.6788 9.75L11.5277 10.2398H11.0381L11.4326 10.5422L11.2815 11.0319L11.6816 10.734Z" fill="#F7D116"/>
<path d="M10.3857 12.405L10.776 12.7044L10.6305 12.2176L11.0222 11.9123H10.5326L10.3829 11.421L10.2318 11.9108H9.74219L10.1367 12.2132L9.9856 12.703L10.3857 12.405Z" fill="#F7D116"/>
<path d="M8.44037 13.1477L8.83067 13.4471L8.68518 12.9603L9.07687 12.6549H8.58726L8.43757 12.1637L8.28649 12.6535H7.79688L8.19137 12.9559L8.04028 13.4456L8.44037 13.1477Z" fill="#F7D116"/>
<path d="M6.41314 6.92793L6.02285 7.22739L6.16833 6.74058L5.77664 6.43521H6.26626L6.41594 5.94397L6.56702 6.43374H7.05664L6.66215 6.73615L6.81323 7.22592L6.41314 6.92793Z" fill="#F7D116"/>
<path d="M5.11724 8.59883L4.72695 8.89829L4.87244 8.41148L4.48074 8.10611H4.97036L5.12004 7.61487L5.27112 8.10463H5.76074L5.36625 8.40705L5.51733 8.89682L5.11724 8.59883Z" fill="#F7D116"/>
<path d="M5.11724 10.734L4.72695 11.0334L4.87244 10.5466L4.48074 10.2412H4.97036L5.12004 9.75L5.27112 10.2398H5.76074L5.36625 10.5422L5.51733 11.0319L5.11724 10.734Z" fill="#F7D116"/>
<path d="M6.41314 12.405L6.02285 12.7044L6.16833 12.2176L5.77664 11.9123H6.26626L6.41594 11.421L6.56702 11.9108H7.05664L6.66215 12.2132L6.81323 12.703L6.41314 12.405Z" fill="#F7D116"/>
</svg>
