<svg width="20" height="15" viewBox="0 0 20 15" fill="none" xmlns="http://www.w3.org/2000/svg">
<g clip-path="url(#clip0_202_3310)">
<path d="M0 0H20V15H0V0Z" fill="#DE2910"/>
<path d="M2.39999 5.55L3.74997 1.5L5.09996 5.55L1.5 3.075H5.99994L2.39999 5.55Z" fill="#FFDE00"/>
<path d="M8.25577 1.57758L6.86646 1.88546L7.79318 0.805567L7.70229 2.25896L6.93131 0.97227L8.25577 1.57758Z" fill="#FFDE00"/>
<path d="M9.65744 3.35459L8.25748 3.09954L9.53048 2.46359L8.88302 3.76798L8.67142 2.28298L9.65744 3.35459Z" fill="#FFDE00"/>
<path d="M9.4527 5.84766L8.27849 5.0438L9.70017 4.98235L8.57702 5.90925L8.98947 4.46707L9.4527 5.84766Z" fill="#FFDE00"/>
<path d="M7.68666 7.47621L6.91403 6.28121L8.24913 6.77363L6.85515 7.19481L7.79259 6.02384L7.68666 7.47621Z" fill="#FFDE00"/>
</g>
<defs>
<clipPath id="clip0_202_3310">
<rect width="20" height="15" fill="white"/>
</clipPath>
</defs>
</svg>
