<svg width="20" height="15" viewBox="0 0 20 15" fill="none" xmlns="http://www.w3.org/2000/svg">
<g clip-path="url(#clip0_202_3385)">
<path d="M0 0H20V15H0V0Z" fill="white"/>
<path d="M9.6186 12.4562C9.61616 12.4545 9.61404 12.4524 9.61235 12.45H9.60922L9.5686 12.4062L9.44985 12.2656L9.29672 12.0687L9.27797 12.0406L9.08422 11.9812L8.94047 11.9156L9.01547 11.8312L9.27797 11.9406L9.47172 11.9812L9.8311 12.2469L9.72797 12.3375C9.69127 12.3717 9.65683 12.4082 9.62485 12.4469L9.64672 12.4312L9.67172 12.45L9.62172 12.4562H9.6186ZM8.28735 12.0562C8.11114 12.0547 7.93854 12.0061 7.78735 11.9156C7.78735 11.9156 7.80922 11.875 7.85922 11.8406C7.90922 11.8031 7.99672 11.7625 8.14047 11.7594C8.30922 11.7594 8.51547 11.8187 8.74985 11.9281C8.60981 12.0108 8.44998 12.054 8.28735 12.0531V12.0562ZM7.55297 11.8937C7.52172 11.8937 7.49047 11.8812 7.47172 11.8625C7.454 11.8409 7.44216 11.815 7.43735 11.7875C7.42905 11.7527 7.42589 11.7169 7.42797 11.6812C7.441 11.6766 7.45478 11.6745 7.4686 11.675C7.5311 11.675 7.5811 11.7281 7.60297 11.7812C7.61547 11.8125 7.6186 11.8375 7.60922 11.8594C7.60297 11.8781 7.57797 11.8906 7.55297 11.8906V11.8937ZM8.8436 11.7437C8.40922 11.6812 8.22485 11.525 8.14672 11.4031C8.06547 11.275 8.08422 11.1531 8.08422 11.1531C8.08422 11.1531 8.10922 11.1469 8.14672 11.1469C8.26547 11.1469 8.55922 11.2062 8.8436 11.7406V11.7437ZM7.95297 11.6562C7.7686 11.6562 7.62797 11.625 7.53422 11.5625C7.49415 11.5373 7.46173 11.5017 7.44047 11.4594C7.43377 11.4434 7.42955 11.4266 7.42797 11.4094C7.49923 11.3797 7.57578 11.3648 7.65297 11.3656C7.76451 11.3696 7.87414 11.3957 7.97553 11.4424C8.07691 11.489 8.16802 11.5554 8.2436 11.6375C8.13735 11.65 8.04047 11.6562 7.95297 11.6562ZM7.0561 11.625C6.86235 11.625 6.5936 11.5625 6.42485 11.3969C6.42485 11.3969 6.60922 11.35 6.81235 11.3437H6.84985C7.03422 11.3437 7.17485 11.3781 7.2686 11.45C7.29985 11.475 7.3186 11.4969 7.32172 11.5187C7.32485 11.5375 7.31547 11.5562 7.29672 11.5719C7.25297 11.6031 7.17797 11.6219 7.07172 11.6219H7.0561V11.625ZM6.42172 11.2969C6.40964 11.2966 6.39775 11.2937 6.38694 11.2883C6.37613 11.2829 6.36666 11.2751 6.35922 11.2656C6.34616 11.247 6.33761 11.2256 6.33422 11.2031C6.32485 11.1594 6.32797 11.1156 6.32797 11.1125C6.33782 11.1082 6.34848 11.1061 6.35922 11.1062C6.38735 11.1062 6.40922 11.1219 6.42172 11.1375C6.44073 11.1549 6.45566 11.1762 6.46547 11.2C6.47172 11.2281 6.47485 11.25 6.46547 11.2687C6.46547 11.2812 6.44672 11.3 6.42485 11.3L6.42172 11.2969ZM7.88735 11.2656C7.8561 11.2656 7.82485 11.2531 7.8061 11.2344C7.78838 11.2127 7.77654 11.1869 7.77172 11.1594C7.76342 11.1246 7.76026 11.0888 7.76235 11.0531C7.77537 11.0485 7.78916 11.0464 7.80297 11.0469C7.86547 11.0469 7.9186 11.1 7.93735 11.1531C7.94985 11.1844 7.95297 11.2094 7.94672 11.2312C7.93735 11.25 7.91547 11.2625 7.88422 11.2625L7.88735 11.2656ZM7.17485 11.2344C6.7811 11.2219 6.57485 11.1094 6.47485 11.0156C6.43126 10.9779 6.39521 10.9323 6.3686 10.8812C6.35297 10.85 6.34672 10.825 6.34672 10.8187C6.34672 10.8125 6.38422 10.8062 6.44047 10.8062H6.45297C6.58422 10.8062 6.8561 10.8625 7.17172 11.2344H7.17485ZM7.59985 11.1969C7.37494 11.1724 7.16582 11.0695 7.00922 10.9062C6.95158 10.8432 6.90791 10.7686 6.8811 10.6875C6.8811 10.6875 6.9186 10.6781 6.97485 10.675C6.98526 10.6746 6.99568 10.6746 7.0061 10.675C7.16235 10.6781 7.45297 10.75 7.59985 11.1969ZM5.97485 11.0406C5.87502 11.0415 5.77542 11.031 5.67797 11.0094C5.51235 10.9656 5.44047 10.9031 5.40922 10.8562C5.39645 10.8375 5.38792 10.8161 5.38422 10.7937C5.38324 10.7854 5.38324 10.777 5.38422 10.7687C5.38422 10.7687 5.4936 10.7375 5.64672 10.7344C5.72425 10.7324 5.80177 10.7387 5.87797 10.7531C6.03738 10.7867 6.17937 10.8766 6.27797 11.0062C6.27797 11.0062 6.15297 11.0437 5.97485 11.0437V11.0406ZM6.70922 10.7781C6.69476 10.7785 6.68037 10.7759 6.66694 10.7706C6.6535 10.7652 6.64131 10.7571 6.6311 10.7469C6.61338 10.7252 6.60154 10.6994 6.59672 10.6719C6.58422 10.6219 6.58735 10.5719 6.58735 10.5656C6.59919 10.5603 6.61189 10.5571 6.62485 10.5562H6.62797C6.69047 10.5562 6.74047 10.6125 6.76235 10.6656C6.77485 10.6969 6.77485 10.7219 6.7686 10.7406C6.75922 10.7625 6.73735 10.775 6.70922 10.775V10.7781ZM6.15922 10.7C6.05372 10.6701 5.95279 10.6259 5.85922 10.5687C5.72172 10.4844 5.54985 10.3344 5.5311 10.1L5.56235 10.0969H5.57172C5.61235 10.0969 5.69672 10.1062 5.79985 10.1844C5.9311 10.2844 6.04985 10.4594 6.15922 10.7ZM6.5186 10.6875C6.43242 10.6483 6.35241 10.5967 6.2811 10.5344C6.09821 10.3765 5.95571 10.1772 5.86547 9.95312C5.86547 9.95312 5.8936 9.93749 5.93735 9.93437C5.93943 9.9343 5.94152 9.9343 5.9436 9.93437H5.9561C6.0186 9.93437 6.10922 9.96249 6.20922 10.0719C6.32797 10.1969 6.4311 10.4031 6.52172 10.6875H6.5186ZM5.58422 10.6594C5.46235 10.6594 5.42172 10.5969 5.40922 10.5656C5.39711 10.5359 5.39281 10.5037 5.39672 10.4719C5.41724 10.4673 5.43822 10.4652 5.45922 10.4656C5.49804 10.4644 5.5366 10.4722 5.57186 10.4885C5.60711 10.5048 5.6381 10.529 5.66235 10.5594C5.6686 10.5719 5.68735 10.6031 5.67172 10.6312C5.65922 10.65 5.6311 10.6625 5.58422 10.6625V10.6594ZM5.3186 10.3219C5.22439 10.3229 5.13027 10.3156 5.03735 10.3C4.9311 10.2812 4.87172 10.1906 4.83735 10.1156C4.8061 10.0375 4.7936 9.95937 4.7936 9.95937C5.12485 9.96874 5.28422 10.0656 5.3561 10.1469C5.40148 10.1936 5.43007 10.254 5.43735 10.3187C5.43735 10.3187 5.38735 10.325 5.3186 10.325V10.3219ZM5.66235 9.97812C5.63564 9.94394 5.61061 9.90848 5.58735 9.87187C5.54672 9.80937 5.51235 9.74687 5.51235 9.69687C5.51235 9.64374 5.49985 9.54062 5.4936 9.47812L5.47485 9.33749C5.48422 9.33749 5.6811 9.41249 5.6811 9.59999C5.6811 9.78749 5.66235 9.97499 5.66235 9.97499V9.97812ZM5.4061 9.95937H5.39985C5.18548 9.89517 4.99017 9.77927 4.8311 9.62187C4.77797 9.55937 4.7436 9.45937 4.73422 9.32812C4.72797 9.23437 4.73422 9.15624 4.73422 9.14687C4.74542 9.1439 4.75705 9.14285 4.7686 9.14374C4.81235 9.14374 4.86235 9.16249 4.92485 9.20624C4.98286 9.24732 5.03723 9.29333 5.08735 9.34374C5.18735 9.44374 5.26547 9.54374 5.26547 9.54374C5.27485 9.55624 5.32797 9.65937 5.37485 9.75937C5.39678 9.80528 5.41355 9.8535 5.42485 9.90312C5.42797 9.92187 5.4311 9.93437 5.42485 9.94687C5.42337 9.95205 5.42003 9.9565 5.41547 9.95937C5.41136 9.9603 5.40709 9.9603 5.40297 9.95937H5.4061Z" fill="#435125"/>
<path d="M8.93414 12.4562C8.93657 12.4545 8.93869 12.4524 8.94039 12.45H8.94351L8.98414 12.4062L9.10289 12.2656L9.25601 12.0687L9.27476 12.0406L9.46851 11.9812L9.61226 11.9156L9.53726 11.8312L9.27476 11.9406L9.08101 11.9812L8.72164 12.2469L8.82476 12.3375C8.86146 12.3717 8.89591 12.4082 8.92789 12.4469L8.90601 12.4312L8.88101 12.45L8.93101 12.4562H8.93414ZM10.2654 12.0562C10.4416 12.0547 10.6142 12.0061 10.7654 11.9156C10.7654 11.9156 10.7435 11.875 10.6935 11.8406C10.6435 11.8031 10.556 11.7625 10.4123 11.7594C10.2435 11.7594 10.0373 11.8187 9.80289 11.9281C9.94293 12.0108 10.1028 12.054 10.2654 12.0531V12.0562ZM10.9998 11.8937C11.031 11.8937 11.0623 11.8812 11.081 11.8625C11.0987 11.8409 11.1106 11.815 11.1154 11.7875C11.1237 11.7527 11.1268 11.7169 11.1248 11.6812C11.1117 11.6766 11.098 11.6745 11.0841 11.675C11.0216 11.675 10.9716 11.7281 10.9498 11.7812C10.9373 11.8125 10.9341 11.8375 10.9435 11.8594C10.9498 11.8781 10.9748 11.8906 10.9998 11.8906V11.8937ZM9.70914 11.7437C10.1435 11.6812 10.3279 11.525 10.406 11.4031C10.4873 11.275 10.4685 11.1531 10.4685 11.1531C10.4685 11.1531 10.4435 11.1469 10.406 11.1469C10.2873 11.1469 9.99351 11.2062 9.70914 11.7406V11.7437ZM10.5998 11.6562C10.7841 11.6562 10.9248 11.625 11.0185 11.5625C11.0586 11.5373 11.091 11.5017 11.1123 11.4594C11.119 11.4434 11.1232 11.4266 11.1248 11.4094C11.0535 11.3797 10.977 11.3648 10.8998 11.3656C10.7882 11.3696 10.6786 11.3957 10.5772 11.4424C10.4758 11.489 10.3847 11.5554 10.3091 11.6375C10.4154 11.65 10.5123 11.6562 10.5998 11.6562ZM11.4966 11.625C11.6904 11.625 11.9591 11.5625 12.1279 11.3969C12.1279 11.3969 11.9435 11.35 11.7404 11.3437H11.7029C11.5185 11.3437 11.3779 11.3781 11.2841 11.45C11.2529 11.475 11.2341 11.4969 11.231 11.5187C11.2279 11.5375 11.2373 11.5562 11.256 11.5719C11.2998 11.6031 11.3748 11.6219 11.481 11.6219H11.4966V11.625ZM12.131 11.2969C12.1431 11.2966 12.155 11.2937 12.1658 11.2883C12.1766 11.2829 12.1861 11.2751 12.1935 11.2656C12.2066 11.247 12.2151 11.2256 12.2185 11.2031C12.2279 11.1594 12.2248 11.1156 12.2248 11.1125C12.2149 11.1082 12.2043 11.1061 12.1935 11.1062C12.1654 11.1062 12.1435 11.1219 12.131 11.1375C12.112 11.1549 12.0971 11.1762 12.0873 11.2C12.081 11.2281 12.0779 11.25 12.0873 11.2687C12.0873 11.2812 12.106 11.3 12.1279 11.3L12.131 11.2969ZM10.6654 11.2656C10.6966 11.2656 10.7279 11.2531 10.7466 11.2344C10.7644 11.2127 10.7762 11.1869 10.781 11.1594C10.7893 11.1246 10.7925 11.0888 10.7904 11.0531C10.7774 11.0485 10.7636 11.0464 10.7498 11.0469C10.6873 11.0469 10.6341 11.1 10.6154 11.1531C10.6029 11.1844 10.5998 11.2094 10.606 11.2312C10.6154 11.25 10.6373 11.2625 10.6685 11.2625L10.6654 11.2656ZM11.3779 11.2344C11.7716 11.2219 11.9779 11.1094 12.0779 11.0156C12.1215 10.9779 12.1575 10.9323 12.1841 10.8812C12.1998 10.85 12.206 10.825 12.206 10.8187C12.206 10.8125 12.1685 10.8062 12.1123 10.8062H12.0998C11.9685 10.8062 11.6966 10.8625 11.381 11.2344H11.3779ZM10.9529 11.1969C11.1778 11.1724 11.3869 11.0695 11.5435 10.9062C11.6012 10.8432 11.6448 10.7686 11.6716 10.6875C11.6716 10.6875 11.6341 10.6781 11.5779 10.675C11.5675 10.6746 11.557 10.6746 11.5466 10.675C11.3904 10.6781 11.0998 10.75 10.9529 11.1969ZM12.5779 11.0406C12.6777 11.0415 12.7773 11.031 12.8748 11.0094C13.0404 10.9656 13.1123 10.9031 13.1435 10.8562C13.1563 10.8375 13.1648 10.8161 13.1685 10.7937C13.1695 10.7854 13.1695 10.777 13.1685 10.7687C13.1685 10.7687 13.0591 10.7375 12.906 10.7344C12.8285 10.7324 12.751 10.7387 12.6748 10.7531C12.5154 10.7867 12.3734 10.8766 12.2748 11.0062C12.2748 11.0062 12.3998 11.0437 12.5779 11.0437V11.0406ZM11.8435 10.7781C11.858 10.7785 11.8724 10.7759 11.8858 10.7706C11.8992 10.7652 11.9114 10.7571 11.9216 10.7469C11.9394 10.7252 11.9512 10.6994 11.956 10.6719C11.9685 10.6219 11.9654 10.5719 11.9654 10.5656C11.9535 10.5603 11.9408 10.5571 11.9279 10.5562H11.9248C11.8623 10.5562 11.8123 10.6125 11.7904 10.6656C11.7779 10.6969 11.7779 10.7219 11.7841 10.7406C11.7935 10.7625 11.8154 10.775 11.8435 10.775V10.7781ZM12.3935 10.7C12.499 10.6701 12.5999 10.6259 12.6935 10.5687C12.831 10.4844 13.0029 10.3344 13.0216 10.1L12.9904 10.0969H12.981C12.9404 10.0969 12.856 10.1062 12.7529 10.1844C12.6216 10.2844 12.5029 10.4594 12.3935 10.7ZM12.0341 10.6875C12.1203 10.6483 12.2003 10.5967 12.2716 10.5344C12.4545 10.3765 12.597 10.1772 12.6873 9.95312C12.6873 9.95312 12.6591 9.93749 12.6154 9.93437C12.6133 9.9343 12.6112 9.9343 12.6091 9.93437H12.5966C12.5341 9.93437 12.4435 9.96249 12.3435 10.0719C12.2248 10.1969 12.1216 10.4031 12.031 10.6875H12.0341ZM12.9685 10.6594C13.0904 10.6594 13.131 10.5969 13.1435 10.5656C13.1556 10.5359 13.1599 10.5037 13.156 10.4719C13.1355 10.4673 13.1145 10.4652 13.0935 10.4656C13.0547 10.4644 13.0161 10.4722 12.9809 10.4885C12.9456 10.5048 12.9146 10.529 12.8904 10.5594C12.8841 10.5719 12.8654 10.6031 12.881 10.6312C12.8935 10.65 12.9216 10.6625 12.9685 10.6625V10.6594ZM13.2341 10.3219C13.3283 10.3229 13.4225 10.3156 13.5154 10.3C13.6216 10.2812 13.681 10.1906 13.7154 10.1156C13.7466 10.0375 13.7591 9.95937 13.7591 9.95937C13.4279 9.96874 13.2685 10.0656 13.1966 10.1469C13.1513 10.1936 13.1227 10.254 13.1154 10.3187C13.1154 10.3187 13.1654 10.325 13.2341 10.325V10.3219ZM12.8904 9.97812C12.9171 9.94394 12.9421 9.90848 12.9654 9.87187C13.006 9.80937 13.0404 9.74687 13.0404 9.69687C13.0404 9.64374 13.0529 9.54062 13.0591 9.47812L13.0779 9.33749C13.0685 9.33749 12.8716 9.41249 12.8716 9.59999C12.8716 9.78749 12.8904 9.97499 12.8904 9.97499V9.97812ZM13.1466 9.95937H13.1529C13.3673 9.89517 13.5626 9.77927 13.7216 9.62187C13.7748 9.55937 13.8091 9.45937 13.8185 9.32812C13.8248 9.23437 13.8185 9.15624 13.8185 9.14687C13.8073 9.1439 13.7957 9.14285 13.7841 9.14374C13.7404 9.14374 13.6904 9.16249 13.6279 9.20624C13.5699 9.24732 13.5155 9.29333 13.4654 9.34374C13.3654 9.44374 13.2873 9.54374 13.2873 9.54374C13.2779 9.55624 13.2248 9.65937 13.1779 9.75937C13.156 9.80528 13.1392 9.8535 13.1279 9.90312C13.1248 9.92187 13.1216 9.93437 13.1279 9.94687C13.1294 9.95205 13.1327 9.9565 13.1373 9.95937C13.1414 9.9603 13.1456 9.9603 13.1498 9.95937H13.1466Z" fill="#435125"/>
<path d="M16.2191 2.38745L16.1629 2.40933L16.1379 2.4187L16.0691 2.41558L16.0004 2.44683L15.8816 2.52808L15.8785 2.5312L15.8316 2.5437L15.791 2.52495L15.7691 2.53745L15.7598 2.58433L15.7379 2.6187L15.7098 2.63745L15.616 2.64683L15.5379 2.69058L15.4316 2.65933L15.3848 2.6812L15.2816 2.77495L15.2285 2.79683H15.2129L15.141 2.7937L15.1129 2.80308L15.0691 2.8437L14.9879 2.84995L14.9598 2.8687L14.9191 2.94995L14.8754 2.99995L14.8504 3.00308L14.8254 2.9937L14.8035 2.99683L14.7941 3.04995L14.7754 3.07183L14.7191 3.09058L14.6754 3.12808L14.6348 3.14683H14.5723L14.5191 3.17808L14.4223 3.18433L14.3816 3.22183L14.3723 3.2312L14.3535 3.24058L14.3223 3.25933L14.316 3.26558L14.2785 3.25933L14.2348 3.27495L14.216 3.24995L14.1848 3.26558L14.1473 3.2687L14.0973 3.24683L14.0566 3.22808L14.0285 3.23433L14.0191 3.2812V3.28745L13.9879 3.32495L13.9348 3.35933L13.9285 3.3687L13.866 3.44995L13.7473 3.57495L13.6473 3.62495L13.5441 3.6562L13.4723 3.71558L13.2848 3.80933L12.9816 3.95933L12.9191 3.97808L12.8316 3.99058L12.6754 4.04995L12.5379 4.09058L12.5285 4.0937L12.5035 4.10308L12.3066 4.16245L12.216 4.14995L12.1629 4.17183L12.0223 4.1562H11.9254L11.8629 4.1687L11.7473 4.22495L11.5504 4.3187L11.4879 4.3812L11.3879 4.4312L11.2691 4.4687V4.4187L11.2285 4.4312L11.1973 4.44058L11.1035 4.45308H11.0504L11.016 4.4437H11.0098L10.816 4.50933L10.5973 4.5312L10.4879 4.56558H10.4066L10.3566 4.5812L10.2566 4.5937L10.2191 4.58433L10.2129 4.5812L9.91914 4.5937L9.78477 4.57808L9.72227 4.5937L9.61289 4.5562L9.45664 4.53745L9.41914 4.52808L9.33789 4.50308L9.30039 4.52495L9.26914 4.52808L9.20664 4.50308H9.18164L9.12539 4.52183L9.09414 4.51558L9.06289 4.49058L8.99727 4.4812L8.95352 4.44683L8.71914 4.47808L8.65664 4.45933L8.44102 4.39683H8.40977L8.36602 4.42808L8.30352 4.45308L8.24414 4.46558L8.16914 4.4687L8.08164 4.44683L7.99414 4.40308L7.95977 4.3937L7.88477 4.40308H7.86289L7.72539 4.3312L7.55039 4.22183L7.43164 4.16245L7.38477 4.1562L7.37852 4.17808L7.40039 4.24683L7.40977 4.3187V4.3812L7.40664 4.42183L7.41602 4.4562L7.45977 4.5062L7.47852 4.55308L7.49102 4.68433V4.8187L7.46914 5.0312L7.46289 5.06245L7.43789 5.17495L7.41602 5.27808L7.32539 5.54995L7.30352 5.5812L7.24102 5.62183L7.10664 5.71558L7.00664 5.77183L6.97539 5.78433L6.89414 5.79058H6.84414L6.78164 5.7562L6.71914 5.74058L6.63789 5.6812L6.55039 5.66245L6.45039 5.6062L6.42539 5.57495L6.37227 5.5687L6.29727 5.54683L6.26914 5.53745L6.25039 5.53433L6.15664 5.5312L6.06602 5.49058L6.01914 5.47808H5.95664L5.89102 5.50933L5.85664 5.52183L5.81289 5.5062H5.78164L5.75039 5.55933L5.74414 5.5687L5.71914 5.5812H5.66602L5.64102 5.59058L5.60664 5.6062L5.57539 5.6187L5.55977 5.62495H5.55039L5.53477 5.6312H5.51602L5.47852 5.61245L5.45977 5.60308L5.42852 5.59683L5.41289 5.6062L5.40977 5.66558L5.39414 5.69995L5.34414 5.7437L5.29414 5.78745L5.26289 5.83745L5.16914 6.04683L5.10977 6.1312L5.09414 6.15308L5.03164 6.2187L4.97852 6.25933L4.85664 6.35308L4.74102 6.39995L4.64102 6.4187H4.59102L4.49727 6.4062L4.41602 6.3812L4.32227 6.32495L4.22539 6.2437L4.07852 6.10308L4.05977 6.09058L4.05352 6.08745L4.00977 6.0562H3.97539L3.96289 6.0812L3.95352 6.11245L3.94727 6.14058L3.93164 6.29683V6.3062L3.94102 6.37183L4.05352 6.52808L4.08477 6.60933L4.09102 6.6187L4.11289 6.6562L4.13164 6.68745L4.17227 6.79995L4.14414 6.86245L4.15664 6.9062L4.12539 6.9312L4.11914 6.9687L4.21602 7.0937L4.23789 7.14683L4.21602 7.22183L4.17539 7.26558L4.16602 7.27495L4.17227 7.3062L4.21602 7.34995L4.29414 7.4187L4.33477 7.5187L4.36602 7.54995L4.40352 7.54058L4.42227 7.5562H4.45352L4.48477 7.58745L4.50352 7.5937L4.53477 7.60933L4.55977 7.64058L4.56289 7.74058L4.60977 7.85933V7.93745L4.64102 7.98433L4.64727 8.02183L4.63164 8.12495L4.66914 8.1562L4.70664 8.14995L4.73164 8.15308L4.77227 8.18745L4.82227 8.26245L4.87227 8.2562L4.90352 8.2687L5.05039 8.40308L5.08164 8.42183L5.10977 8.43433L5.14102 8.46558L5.18477 8.43433H5.19102L5.24102 8.42808L5.26289 8.4437L5.30664 8.47183H5.35977L5.48477 8.50933L5.53477 8.52183L5.64102 8.58745L5.68789 8.61558L5.71289 8.63745L5.75039 8.6687L5.81914 8.69995L5.88164 8.71245L5.91289 8.7187L5.94102 8.72808L6.07227 8.7812L6.14414 8.79683L6.20664 8.82183L6.25664 8.83745H6.29414L6.34414 8.79683H6.39102L6.43164 8.80308L6.47227 8.79683L6.53477 8.75933L6.54414 8.74058L6.58789 8.72183L6.73789 8.70308L6.78164 8.71558L6.89414 8.6687L6.96914 8.68745L7.03164 8.66558L7.17852 8.69683L7.21602 8.72495L7.25977 8.77183H7.31289L7.29102 8.8062L7.35352 8.87495L7.41289 8.95933L7.41602 8.97183L7.45664 9.0937L7.48789 9.13745L7.50977 9.19683V9.23433L7.47852 9.26245L7.47227 9.27495V9.2812L7.47852 9.29683L7.49102 9.29058L7.51289 9.27808L7.54414 9.27183L7.59414 9.27808L7.62852 9.2812L7.68164 9.2562L7.71914 9.23745L7.77539 9.26245H7.83789L7.86602 9.27183L7.94102 9.3062L7.97852 9.30933L7.99102 9.29995L8.00039 9.2812L7.99727 9.2562L7.96602 9.22183L7.90352 9.14683L7.87852 9.10933L7.85977 9.0562L7.85352 8.98745L7.84727 8.94058L7.85664 8.87808L7.87227 8.8562L7.88477 8.8062L7.88789 8.7937L7.92539 8.74683L8.01914 8.68433L8.11914 8.59683L8.19727 8.5437L8.27852 8.50933V8.49995L8.29102 8.50308L8.49727 8.4312L8.59102 8.41558L9.21602 8.45933L9.23789 8.45308L9.25977 8.3937L9.26914 8.38433L9.27852 8.37808L9.34727 8.34683L9.37852 8.34058L9.46602 8.36245L9.50352 8.37183L9.56289 8.34058H9.60352L9.68789 8.2937H9.74102L9.76289 8.28745L9.86602 8.21245L9.96289 8.18433L9.98789 8.17183L9.99727 8.16558L10.1004 8.11245L10.1629 8.06245L10.2191 8.0312L10.2816 8.0187L10.4379 8.0062L10.4723 7.95308L10.541 7.9437L10.5816 7.89683L10.6285 7.87808L10.6629 7.82808L10.6941 7.78745L10.7316 7.76558L10.8598 7.7562L11.0098 7.77495L11.0316 7.76245L11.0629 7.64058L11.1004 7.6187L11.1941 7.47808V7.42808L11.1973 7.38433L11.2129 7.32183L11.2035 7.21558L11.216 7.10308L11.2754 6.96245L11.3285 6.9062L11.4129 6.84683L11.4566 6.82808L11.5191 6.8187H11.5254L11.541 6.81245H11.8285L11.9004 6.80933L12.0785 6.84058H12.091L12.1504 6.86245L12.2191 6.91558L12.2941 6.98745L12.3066 6.99995L12.3535 7.02183L12.3691 7.02808L12.4066 7.02183L12.4629 6.99058L12.5066 6.95933L12.5629 6.92808V6.92183L12.5973 6.87495L12.6098 6.85308L12.7223 6.80933L12.8535 6.80308L12.8691 6.7937H12.8754L12.9098 6.74995H12.941L13.0223 6.7812L13.0754 6.7687L13.1191 6.78433L13.1535 6.7812L13.216 6.77183L13.2879 6.82183L13.3285 6.82808L13.4691 6.90933H13.4816L13.4879 6.91245L13.5035 6.9062L13.5285 6.89995H13.5316L13.5348 6.90308L13.5535 6.92495L13.5754 6.92808L13.6004 6.89683L13.591 6.87808L13.5879 6.87183L13.5348 6.86245L13.491 6.78433L13.5348 6.73745L13.466 6.6562L13.4535 6.64058V6.63745L13.4285 6.59995L13.3098 6.4187L13.1535 6.2937L13.1004 6.25308L13.0816 6.23745L12.9973 6.15308L12.9379 6.07495L12.9316 6.05933L12.9191 6.0312L12.8848 5.9562L12.8223 5.90933L12.7723 5.85308L12.666 5.70933L12.6504 5.68745L12.6254 5.67183H12.5723L12.5691 5.66558H12.566V5.66245L12.591 5.63745L12.6223 5.6312L12.6316 5.60308L12.5785 5.44995V5.4437L12.5754 5.39683L12.616 5.17495L12.6223 5.14683L12.6973 4.99995L12.741 4.96245L12.791 4.86558L12.8348 4.80308L12.8754 4.76245L12.8816 4.75933L12.9535 4.71558L13.016 4.7062L13.0754 4.69683L13.1785 4.72808H13.2723L13.2941 4.72495L13.3379 4.7187L13.4098 4.69683L13.4441 4.67495L13.4629 4.64995L13.5004 4.52495L13.5129 4.48433L13.5348 4.44058L13.6691 4.28745L13.7691 4.1937L13.9941 4.0312L14.1035 3.96558L14.1598 3.9312L14.6629 3.7062L14.7941 3.57495L14.8629 3.5062L14.9816 3.42495L15.1223 3.36558L15.2473 3.27183L15.2723 3.23745L15.3035 3.12808L15.3348 3.12183L15.3566 3.0687L15.366 3.05308L15.4629 2.98433L15.4754 2.97808L15.8598 2.78433L15.916 2.7937L15.9473 2.74683L16.0566 2.72808H16.0785L16.1066 2.71245L16.1285 2.67183V2.66245L16.1316 2.5562L16.1566 2.52808L16.1691 2.45933L16.1816 2.44058L16.1941 2.42495L16.2254 2.40308L16.2191 2.39058V2.38745Z" fill="#D47600"/>
</g>
<defs>
<clipPath id="clip0_202_3385">
<rect width="20" height="15" fill="white"/>
</clipPath>
</defs>
</svg>
