<svg width="20" height="15" viewBox="0 0 20 15" fill="none" xmlns="http://www.w3.org/2000/svg">
<g clip-path="url(#clip0_202_3419)">
<path d="M0 0H20V15H0V0Z" fill="#046A38"/>
<path d="M20 8.15002H0V9.45002H20V8.15002Z" fill="white"/>
<path d="M20 5.55005H0V6.85005H20V5.55005Z" fill="#FFCD00"/>
<path d="M20 6.84998H0V8.14998H20V6.84998Z" fill="black"/>
<path d="M11.5996 0L11.5996 15H10.5596L10.5596 0H11.5996Z" fill="white"/>
<path d="M9.51953 0L9.51953 15H8.47953L8.47953 0H9.51953Z" fill="#FFCD00"/>
<path d="M10.5596 0L10.5596 15H9.51957L9.51957 0H10.5596Z" fill="black"/>
<path d="M10 11.5C12.0711 11.5 13.75 9.82107 13.75 7.75C13.75 5.67893 12.0711 4 10 4C7.92893 4 6.25 5.67893 6.25 7.75C6.25 9.82107 7.92893 11.5 10 11.5Z" fill="#D50032"/>
<path d="M10.0004 4.41541L10.1177 4.77624H10.4968L10.1899 4.99916L10.3072 5.35978L10.0004 5.13686L9.69349 5.35978L9.81078 4.99916L9.50391 4.77624H9.88307L10.0004 4.41541Z" fill="#046A38" stroke="black" stroke-width="0.03"/>
<path d="M11.9602 5.05231L11.843 5.41317L12.1498 5.63604L11.7705 5.63601L11.6534 5.9967L11.5362 5.63598L11.1569 5.63595L11.4637 5.41314L11.3465 5.05242L11.6533 5.27529L11.9602 5.05231Z" fill="#046A38" stroke="black" stroke-width="0.03"/>
<path d="M13.171 6.71947L12.8641 6.94253L12.9812 7.30314L12.6744 7.08017L12.3677 7.30316L12.4848 6.94242L12.178 6.71945L12.5572 6.71956L12.6744 6.35882L12.7916 6.71943L13.171 6.71947Z" fill="#046A38" stroke="black" stroke-width="0.03"/>
<path d="M13.2075 8.81845L12.8092 8.78062L12.7193 9.11231L12.5632 8.7571L12.1652 8.71935L12.4668 8.53766L12.3107 8.18244L12.6531 8.42541L12.9547 8.24372L12.8648 8.57541L13.2075 8.81845Z" fill="#046A38" stroke="black" stroke-width="0.03"/>
<path d="M11.9914 10.4838L11.6682 10.2249L11.385 10.4202L11.4686 10.0648L11.1456 9.80596L11.5204 9.84517L11.604 9.48971L11.7519 9.86939L12.1267 9.9086L11.8434 10.104L11.9914 10.4838Z" fill="#046A38" stroke="black" stroke-width="0.03"/>
<path d="M9.99964 11.0845L9.88234 10.7236H9.50318L9.81005 10.5007L9.69276 10.1401L9.99964 10.363L10.3065 10.1401L10.1892 10.5007L10.4961 10.7236H10.1169L9.99964 11.0845Z" fill="#046A38" stroke="black" stroke-width="0.03"/>
<path d="M8.03976 10.4477L8.15696 10.0868L7.85021 9.86396L8.22951 9.86399L8.34659 9.5033L8.46383 9.86402L8.84312 9.86405L8.53626 10.0869L8.6535 10.4476L8.34675 10.2247L8.03976 10.4477Z" fill="#046A38" stroke="black" stroke-width="0.03"/>
<path d="M6.82901 8.78028L7.13594 8.55723L7.01877 8.19662L7.3256 8.41959L7.63233 8.1966L7.51516 8.55734L7.82199 8.78031L7.44277 8.7802L7.32559 9.14094L7.20843 8.78033L6.82901 8.78028Z" fill="#046A38" stroke="black" stroke-width="0.03"/>
<path d="M6.7925 6.68155L7.19078 6.71938L7.28066 6.38769L7.43678 6.7429L7.83484 6.78065L7.53322 6.96234L7.68934 7.31756L7.34689 7.07459L7.04527 7.25628L7.13516 6.92459L6.7925 6.68155Z" fill="#046A38" stroke="black" stroke-width="0.03"/>
<path d="M8.00856 5.01616L8.33179 5.27515L8.61504 5.07977L8.53135 5.43523L8.85445 5.69404L8.47965 5.65483L8.39596 6.01029L8.2481 5.63061L7.8733 5.5914L8.15655 5.39602L8.00856 5.01616Z" fill="#046A38" stroke="black" stroke-width="0.03"/>
<path d="M10.2681 8.76428C10.2983 9.36873 10.4333 9.84856 10.5696 9.83602C10.7059 9.82347 10.7919 9.3233 10.7617 8.71885C10.7315 8.11439 10.5965 7.63456 10.4602 7.64711C10.3239 7.65965 10.2379 8.15983 10.2681 8.76428Z" fill="#046A38" stroke="black" stroke-width="0.03"/>
<path d="M10.4749 8.76273C10.5049 9.36698 10.6455 9.84609 10.7888 9.83285C10.9321 9.81962 11.024 9.31905 10.9939 8.71481C10.9638 8.11056 10.8233 7.63146 10.6799 7.64469C10.5366 7.65792 10.4448 8.15849 10.4749 8.76273Z" fill="#046A38" stroke="black" stroke-width="0.03"/>
<path d="M10.4184 8.8173C10.4526 9.48661 10.5754 10.0206 10.6927 10.01C10.81 9.99938 10.8773 9.44821 10.8431 8.7789C10.809 8.1096 10.6862 7.57561 10.5689 7.58622C10.4516 7.59682 10.3842 8.14799 10.4184 8.8173Z" fill="#046A38" stroke="black" stroke-width="0.03"/>
<path d="M10.9154 9.55829C10.5799 9.59371 9.11328 9.61038 9.05078 9.56454C8.98828 9.51871 8.89453 9.32496 8.89453 9.31454C9.0862 9.30621 9.00286 9.20413 9.10078 9.14996C9.19661 9.09371 9.33411 9.13121 9.37578 9.19788C9.41745 9.26663 9.38411 9.33329 9.4362 9.33538C9.49036 9.33538 10.532 9.28538 10.9154 9.31246C10.9779 9.31663 11.0258 9.37288 11.0258 9.43538C11.0258 9.49788 10.9779 9.55204 10.9154 9.55829Z" fill="#9C4A00" stroke="black" stroke-width="0.03"/>
<path d="M9.91549 9.45418C9.91341 9.60001 10.1259 9.55834 10.1301 9.67918C10.1238 9.80626 9.77174 9.68751 9.76758 9.45209C9.78216 9.21876 10.1259 9.10418 10.1301 9.23751C10.1342 9.34793 9.91966 9.31043 9.91549 9.45418Z" fill="#FFCD00" stroke="black" stroke-width="0.03"/>
<path d="M10.0405 9.45418C10.0384 9.60001 10.2509 9.55834 10.2551 9.67918C10.2488 9.80626 9.89674 9.68751 9.89258 9.45209C9.90716 9.21876 10.2509 9.10418 10.2551 9.23751C10.2592 9.34793 10.0447 9.31043 10.0405 9.45418Z" fill="#FFCD00" stroke="black" stroke-width="0.03"/>
<path d="M10.1753 9.45418C10.1732 9.60001 10.3857 9.55834 10.3898 9.67918C10.3836 9.80626 10.0315 9.68751 10.0273 9.45209C10.0419 9.21876 10.3857 9.10418 10.3898 9.23751C10.394 9.34793 10.1794 9.31043 10.1753 9.45418Z" fill="#FFCD00" stroke="black" stroke-width="0.03"/>
<path d="M10.3032 9.45418C10.3011 9.60001 10.5136 9.55834 10.5178 9.67918C10.5115 9.80626 10.1594 9.68751 10.1553 9.45209C10.1699 9.21876 10.5136 9.10418 10.5178 9.23751C10.5219 9.34793 10.3074 9.31043 10.3032 9.45418Z" fill="#FFCD00" stroke="black" stroke-width="0.03"/>
<path d="M10.0947 9.16762C10.1387 9.2714 10.2089 9.28965 10.2516 9.20839C10.2943 9.12712 10.2934 8.97711 10.2494 8.87333C10.2055 8.76955 10.1353 8.7513 10.0926 8.83257C10.0499 8.91384 10.0508 9.06384 10.0947 9.16762Z" fill="#046A38" stroke="black" stroke-width="0.03"/>
<path d="M9.91018 9.15444C9.95409 9.25822 10.0243 9.27647 10.067 9.1952C10.1098 9.11394 10.1088 8.96393 10.0649 8.86015C10.021 8.75637 9.95072 8.73812 9.908 8.81939C9.86529 8.90065 9.86626 9.05066 9.91018 9.15444Z" fill="#046A38" stroke="black" stroke-width="0.03"/>
<path d="M9.77834 8.91628C9.82226 9.02006 9.89249 9.03831 9.9352 8.95704C9.97792 8.87578 9.97695 8.72577 9.93303 8.62199C9.88912 8.51821 9.81889 8.49996 9.77617 8.58123C9.73345 8.66249 9.73442 8.8125 9.77834 8.91628Z" fill="#046A38" stroke="black" stroke-width="0.03"/>
<path d="M9.95329 8.85567C9.98548 8.99062 10.0519 9.05687 10.1017 9.00364C10.1514 8.95042 10.1657 8.79787 10.1335 8.66292C10.1013 8.52798 10.0349 8.46173 9.9851 8.51495C9.93534 8.56818 9.9211 8.72073 9.95329 8.85567Z" fill="#046A38" stroke="black" stroke-width="0.03"/>
<path d="M9.89244 8.67501C9.92647 8.79164 9.9939 8.83169 10.043 8.76445C10.0922 8.69722 10.1044 8.54816 10.0704 8.43152C10.0364 8.31489 9.96895 8.27484 9.9198 8.34208C9.87066 8.40932 9.85841 8.55837 9.89244 8.67501Z" fill="#046A38" stroke="black" stroke-width="0.03"/>
<path d="M9.72838 8.60201C9.76241 8.71865 9.82984 8.75869 9.87899 8.69145C9.92813 8.62422 9.94038 8.47516 9.90635 8.35853C9.87232 8.24189 9.80489 8.20185 9.75574 8.26908C9.70659 8.33632 9.69434 8.48538 9.72838 8.60201Z" fill="#046A38" stroke="black" stroke-width="0.03"/>
<path d="M9.63201 6.43335C9.63201 6.43335 9.26534 6.75002 9.30701 7.61043C9.35284 8.4771 10.1174 8.88335 10.1174 8.88335H10.2383V6.43335H9.63201Z" fill="#9063CD" stroke="black" stroke-width="0.03"/>
<path d="M10.3802 9.23886C10.4239 9.31851 10.4939 9.2976 10.5365 9.19215C10.5791 9.0867 10.5781 8.93664 10.5343 8.85699C10.4906 8.77734 10.4206 8.79825 10.378 8.9037C10.3354 9.00915 10.3364 9.15921 10.3802 9.23886Z" fill="#046A38" stroke="black" stroke-width="0.03"/>
<path d="M10.2015 9.19333C10.2452 9.27298 10.3152 9.25207 10.3578 9.14662C10.4004 9.04117 10.3994 8.89111 10.3556 8.81146C10.3119 8.73181 10.2419 8.75272 10.1993 8.85817C10.1567 8.96362 10.1577 9.11368 10.2015 9.19333Z" fill="#046A38" stroke="black" stroke-width="0.03"/>
<path d="M10.1136 8.93918C10.1573 9.01883 10.2273 8.99792 10.2699 8.89247C10.3125 8.78701 10.3115 8.63696 10.2677 8.55731C10.224 8.47766 10.154 8.49857 10.1114 8.60402C10.0688 8.70947 10.0698 8.85953 10.1136 8.93918Z" fill="#046A38" stroke="black" stroke-width="0.03"/>
<path d="M10.3241 9.01803C10.3759 9.06708 10.4415 8.99497 10.4707 8.85696C10.4998 8.71895 10.4815 8.5673 10.4297 8.51826C10.3779 8.46921 10.3123 8.54132 10.2832 8.67933C10.254 8.81734 10.2723 8.96898 10.3241 9.01803Z" fill="#046A38" stroke="black" stroke-width="0.03"/>
<path d="M10.5714 9.03425C10.6221 9.09797 10.6886 9.05317 10.7198 8.93417C10.7511 8.81517 10.7353 8.66704 10.6846 8.60331C10.6339 8.53958 10.5674 8.58438 10.5362 8.70338C10.5049 8.82238 10.5207 8.97052 10.5714 9.03425Z" fill="#046A38" stroke="black" stroke-width="0.03"/>
<path d="M10.4494 8.92328C10.5001 8.98701 10.5665 8.94221 10.5978 8.82321C10.629 8.70421 10.6132 8.55608 10.5625 8.49235C10.5118 8.42862 10.4454 8.47342 10.4141 8.59242C10.3829 8.71142 10.3986 8.85955 10.4494 8.92328Z" fill="#046A38" stroke="black" stroke-width="0.03"/>
<path d="M10.2941 8.76996C10.3448 8.83369 10.4112 8.78889 10.4425 8.66989C10.4737 8.55089 10.458 8.40275 10.4073 8.33903C10.3565 8.2753 10.2901 8.3201 10.2588 8.4391C10.2276 8.5581 10.2434 8.70623 10.2941 8.76996Z" fill="#046A38" stroke="black" stroke-width="0.03"/>
<path d="M10.1447 8.66913C10.1954 8.73286 10.2618 8.68806 10.2931 8.56906C10.3243 8.45006 10.3086 8.30192 10.2578 8.2382C10.2071 8.17447 10.1407 8.21927 10.1094 8.33827C10.0782 8.45727 10.094 8.6054 10.1447 8.66913Z" fill="#046A38" stroke="black" stroke-width="0.03"/>
<path d="M10.1258 8.03385C10.335 8.515 10.6312 8.85001 10.7874 8.78211C10.9435 8.71421 10.9005 8.26911 10.6913 7.78796C10.4821 7.3068 10.1859 6.97179 10.0297 7.0397C9.87358 7.1076 9.91658 7.5527 10.1258 8.03385Z" fill="#D50032" stroke="black" stroke-width="0.03"/>
<path d="M10.1452 6.83616C10.2157 6.83616 10.2728 6.78621 10.2728 6.7246C10.2728 6.66299 10.2157 6.61304 10.1452 6.61304C10.0747 6.61304 10.0176 6.66299 10.0176 6.7246C10.0176 6.78621 10.0747 6.83616 10.1452 6.83616Z" fill="#046A38" stroke="black" stroke-width="0.03"/>
<path d="M10.1296 6.69627C10.2 6.69627 10.2572 6.64632 10.2572 6.58471C10.2572 6.52309 10.2 6.47314 10.1296 6.47314C10.0591 6.47314 10.002 6.52309 10.002 6.58471C10.002 6.64632 10.0591 6.69627 10.1296 6.69627Z" fill="#046A38" stroke="black" stroke-width="0.03"/>
<path d="M9.95182 6.87169C10.018 6.87169 10.0716 6.81857 10.0716 6.75305C10.0716 6.68752 10.018 6.6344 9.95182 6.6344C9.88566 6.6344 9.83203 6.68752 9.83203 6.75305C9.83203 6.81857 9.88566 6.87169 9.95182 6.87169Z" fill="#046A38" stroke="black" stroke-width="0.03"/>
<path d="M9.98893 6.71764C10.0551 6.71764 10.1087 6.66531 10.1087 6.60076C10.1087 6.53621 10.0551 6.48389 9.98893 6.48389C9.92277 6.48389 9.86914 6.53621 9.86914 6.60076C9.86914 6.66531 9.92277 6.71764 9.98893 6.71764Z" fill="#046A38" stroke="black" stroke-width="0.03"/>
<path d="M9.79069 6.72289C9.86548 6.72289 9.92611 6.66977 9.92611 6.60424C9.92611 6.53872 9.86548 6.4856 9.79069 6.4856C9.7159 6.4856 9.65527 6.53872 9.65527 6.60424C9.65527 6.66977 9.7159 6.72289 9.79069 6.72289Z" fill="#046A38" stroke="black" stroke-width="0.03"/>
<path d="M10.0378 6.51927C10.1082 6.51927 10.1654 6.46932 10.1654 6.40771C10.1654 6.34609 10.1082 6.29614 10.0378 6.29614C9.96729 6.29614 9.91016 6.34609 9.91016 6.40771C9.91016 6.46932 9.96729 6.51927 10.0378 6.51927Z" fill="#046A38" stroke="black" stroke-width="0.03"/>
<path d="M9.86882 6.54576C9.93497 6.54576 9.98861 6.49344 9.98861 6.42889C9.98861 6.36434 9.93497 6.31201 9.86882 6.31201C9.80266 6.31201 9.74902 6.36434 9.74902 6.42889C9.74902 6.49344 9.80266 6.54576 9.86882 6.54576Z" fill="#046A38" stroke="black" stroke-width="0.03"/>
<path d="M9.61393 6.72997C9.68009 6.72997 9.73372 6.67685 9.73372 6.61132C9.73372 6.5458 9.68009 6.49268 9.61393 6.49268C9.54777 6.49268 9.49414 6.5458 9.49414 6.61132C9.49414 6.67685 9.54777 6.72997 9.61393 6.72997Z" fill="#046A38" stroke="black" stroke-width="0.03"/>
<path d="M9.65495 6.63976C9.72111 6.63976 9.77474 6.58743 9.77474 6.52288C9.77474 6.45833 9.72111 6.40601 9.65495 6.40601C9.58879 6.40601 9.53516 6.45833 9.53516 6.52288C9.53516 6.58743 9.58879 6.63976 9.65495 6.63976Z" fill="#046A38" stroke="black" stroke-width="0.03"/>
<path d="M9.70573 6.54051C9.77189 6.54051 9.82552 6.48819 9.82552 6.42364C9.82552 6.35909 9.77189 6.30676 9.70573 6.30676C9.63957 6.30676 9.58594 6.35909 9.58594 6.42364C9.58594 6.48819 9.63957 6.54051 9.70573 6.54051Z" fill="#046A38" stroke="black" stroke-width="0.03"/>
<path d="M10.0846 7.96297C10.3056 8.51243 10.6705 8.86912 10.8995 8.75965C11.1285 8.65019 11.1349 8.11602 10.9139 7.56655C10.6929 7.01709 10.328 6.6604 10.099 6.76986C9.87002 6.87933 9.86356 7.4135 10.0846 7.96297Z" fill="#046A38" stroke="black" stroke-width="0.03"/>
<path d="M10.7422 7.98352C10.7889 8.09922 10.8625 8.17597 10.9066 8.15494C10.9507 8.13391 10.9487 8.02307 10.902 7.90737C10.8552 7.79167 10.7816 7.71492 10.7375 7.73595C10.6934 7.75698 10.6955 7.86782 10.7422 7.98352Z" fill="#046A38" stroke="black" stroke-width="0.03"/>
<path d="M10.7883 7.94581C11.107 8.33539 11.0674 8.58331 11.0341 8.79164L10.582 8.30623V7.81873L10.7883 7.94581Z" fill="#046A38" stroke="black" stroke-width="0.03"/>
<path d="M10.8149 8.26048C11.1357 8.65007 11.0962 8.89798 11.0628 9.10632L10.4482 8.15423V7.51465C10.4962 7.63965 10.4962 7.8709 10.8149 8.26048Z" fill="#046A38" stroke="black" stroke-width="0.03"/>
<path d="M10.8256 8.5146C11.1527 8.89585 11.1173 9.14585 11.0881 9.35627C10.9839 9.11668 10.9256 8.9646 10.5964 8.58127C10.2693 8.19793 10.4235 7.92085 10.4423 7.7771C10.4943 7.90002 10.4985 8.13127 10.8256 8.5146Z" fill="#046A38" stroke="black" stroke-width="0.03"/>
<path d="M10.4735 7.6352C10.5718 7.84584 10.7072 7.99059 10.776 7.95849C10.8448 7.9264 10.821 7.72962 10.7228 7.51898C10.6245 7.30833 10.4891 7.16359 10.4203 7.19568C10.3515 7.22778 10.3753 7.42455 10.4735 7.6352Z" fill="#046A38" stroke="black" stroke-width="0.03"/>
<path d="M10.3605 7.84348C10.4391 8.01755 10.5522 8.13641 10.613 8.10895C10.6738 8.08148 10.6594 7.9181 10.5808 7.74403C10.5022 7.56995 10.3892 7.4511 10.3283 7.47856C10.2675 7.50602 10.2819 7.6694 10.3605 7.84348Z" fill="#046A38" stroke="black" stroke-width="0.03"/>
<path d="M10.2071 7.98997C10.2823 8.16553 10.393 8.28653 10.4544 8.26024C10.5157 8.23395 10.5044 8.07033 10.4292 7.89477C10.354 7.71922 10.2432 7.59822 10.1819 7.62451C10.1206 7.6508 10.1318 7.81442 10.2071 7.98997Z" fill="#046A38" stroke="black" stroke-width="0.03"/>
<path d="M10.3593 7.45299C10.4279 7.58201 10.5214 7.66646 10.5681 7.64161C10.6148 7.61676 10.5971 7.49203 10.5285 7.36301C10.4599 7.23399 10.3664 7.14954 10.3197 7.17439C10.2729 7.19923 10.2907 7.32397 10.3593 7.45299Z" fill="#046A38" stroke="black" stroke-width="0.03"/>
<path d="M10.2277 7.54596C10.2881 7.67903 10.3761 7.76919 10.4243 7.74732C10.4725 7.72546 10.4626 7.59986 10.4023 7.46678C10.3419 7.33371 10.2539 7.24355 10.2057 7.26542C10.1575 7.28728 10.1674 7.41289 10.2277 7.54596Z" fill="#046A38" stroke="black" stroke-width="0.03"/>
<path d="M10.9159 9.3125C10.8833 9.3125 10.852 9.32545 10.829 9.3485C10.8059 9.37155 10.793 9.40282 10.793 9.43542C10.793 9.46802 10.8059 9.49928 10.829 9.52233C10.852 9.54538 10.8833 9.55833 10.9159 9.55833" stroke="black" stroke-width="0.03" stroke-linecap="round"/>
<path d="M10.0449 7.44578C10.0674 7.50081 10.0919 7.55414 10.117 7.60273C10.1421 7.65132 10.1673 7.69421 10.1912 7.72897C10.215 7.76372 10.2371 7.78965 10.2561 7.80527C10.2751 7.82089 10.2906 7.82591 10.3018 7.82003C10.313 7.81414 10.3197 7.79748 10.3215 7.77099C10.3232 7.74449 10.32 7.70869 10.312 7.66562C10.304 7.62255 10.2914 7.57306 10.2749 7.51997C10.2584 7.46688 10.2383 7.41123 10.2158 7.3562" fill="#046A38"/>
<path d="M10.0449 7.44578C10.0674 7.50081 10.0919 7.55414 10.117 7.60273C10.1421 7.65132 10.1673 7.69421 10.1912 7.72897C10.215 7.76372 10.2371 7.78965 10.2561 7.80527C10.2751 7.82089 10.2906 7.82591 10.3018 7.82003C10.313 7.81414 10.3197 7.79748 10.3215 7.77099C10.3232 7.74449 10.32 7.70869 10.312 7.66562C10.304 7.62255 10.2914 7.57306 10.2749 7.51997C10.2584 7.46688 10.2383 7.41123 10.2158 7.3562" stroke="black" stroke-width="0.03" stroke-linecap="round"/>
<path d="M10.2131 7.27411C10.2734 7.40718 10.3614 7.49734 10.4096 7.47547C10.4578 7.45361 10.448 7.32801 10.3876 7.19493C10.3273 7.06186 10.2392 6.9717 10.191 6.99357C10.1428 7.01543 10.1527 7.14104 10.2131 7.27411Z" fill="#046A38" stroke="black" stroke-width="0.03" stroke-linecap="round"/>
<path d="M10.0531 7.34897C10.1106 7.48328 10.1967 7.57525 10.2454 7.5544C10.294 7.53355 10.2868 7.40777 10.2292 7.27346C10.1717 7.13915 10.0856 7.04718 10.0369 7.06803C9.98827 7.08888 9.9955 7.21466 10.0531 7.34897Z" fill="#046A38" stroke="black" stroke-width="0.03" stroke-linecap="round"/>
<path d="M9.93848 7.12704C9.9605 7.16426 9.98376 7.20001 10.0069 7.23225C10.0301 7.26449 10.0527 7.29259 10.0735 7.31494C10.0943 7.3373 10.1129 7.35346 10.1281 7.36253C10.1434 7.37159 10.1551 7.37336 10.1624 7.36776C10.1698 7.36215 10.1728 7.34926 10.1712 7.32984C10.1696 7.31041 10.1634 7.28483 10.1531 7.25454C10.1427 7.22426 10.1284 7.18987 10.1109 7.15334C10.0934 7.11681 10.073 7.07885 10.051 7.04163" fill="#046A38"/>
<path d="M9.93848 7.12704C9.9605 7.16426 9.98376 7.20001 10.0069 7.23225C10.0301 7.26449 10.0527 7.29259 10.0735 7.31494C10.0943 7.3373 10.1129 7.35346 10.1281 7.36253C10.1434 7.37159 10.1551 7.37336 10.1624 7.36776C10.1698 7.36215 10.1728 7.34926 10.1712 7.32984C10.1696 7.31041 10.1634 7.28483 10.1531 7.25454C10.1427 7.22426 10.1284 7.18987 10.1109 7.15334C10.0934 7.11681 10.073 7.07885 10.051 7.04163" stroke="black" stroke-width="0.03" stroke-linecap="round"/>
<path d="M10.0039 7.02288C10.0437 7.09306 10.089 7.15806 10.1298 7.20358C10.1706 7.24911 10.2037 7.27142 10.2216 7.26562C10.2396 7.25982 10.241 7.22638 10.2256 7.17265C10.2101 7.11892 10.1791 7.04931 10.1393 6.97913" fill="#046A38"/>
<path d="M10.0039 7.02288C10.0437 7.09306 10.089 7.15806 10.1298 7.20358C10.1706 7.24911 10.2037 7.27142 10.2216 7.26562C10.2396 7.25982 10.241 7.22638 10.2256 7.17265C10.2101 7.11892 10.1791 7.04931 10.1393 6.97913" stroke="black" stroke-width="0.03" stroke-linecap="round"/>
<path d="M10.2451 7.07712C10.2756 7.1279 10.3078 7.17668 10.3399 7.22067C10.372 7.26465 10.4034 7.30299 10.4322 7.33348C10.461 7.36398 10.4867 7.38603 10.5079 7.39839C10.529 7.41075 10.5452 7.41316 10.5554 7.4055C10.5657 7.39784 10.5698 7.38025 10.5677 7.35374C10.5655 7.32723 10.557 7.29231 10.5427 7.25099C10.5284 7.20966 10.5085 7.16273 10.4843 7.11288C10.46 7.06303 10.4319 7.01123 10.4014 6.96045" fill="#046A38"/>
<path d="M10.2451 7.07712C10.2756 7.1279 10.3078 7.17668 10.3399 7.22067C10.372 7.26465 10.4034 7.30299 10.4322 7.33348C10.461 7.36398 10.4867 7.38603 10.5079 7.39839C10.529 7.41075 10.5452 7.41316 10.5554 7.4055C10.5657 7.39784 10.5698 7.38025 10.5677 7.35374C10.5655 7.32723 10.557 7.29231 10.5427 7.25099C10.5284 7.20966 10.5085 7.16273 10.4843 7.11288C10.46 7.06303 10.4319 7.01123 10.4014 6.96045" stroke="black" stroke-width="0.03" stroke-linecap="round"/>
<path d="M10.1016 6.94165C10.1226 6.98212 10.1453 7.02131 10.168 7.05684C10.1908 7.09237 10.2133 7.12349 10.2341 7.14828C10.2549 7.17308 10.2736 7.19104 10.289 7.20107C10.3044 7.21109 10.3163 7.21297 10.3238 7.20658C10.3313 7.2002 10.3344 7.18568 10.3328 7.16393C10.3312 7.14218 10.3249 7.11364 10.3145 7.08006C10.304 7.04649 10.2895 7.00858 10.2719 6.96867C10.2543 6.92875 10.2339 6.88765 10.212 6.8479" fill="#046A38"/>
<path d="M10.1016 6.94165C10.1226 6.98212 10.1453 7.02131 10.168 7.05684C10.1908 7.09237 10.2133 7.12349 10.2341 7.14828C10.2549 7.17308 10.2736 7.19104 10.289 7.20107C10.3044 7.21109 10.3163 7.21297 10.3238 7.20658C10.3313 7.2002 10.3344 7.18568 10.3328 7.16393C10.3312 7.14218 10.3249 7.11364 10.3145 7.08006C10.304 7.04649 10.2895 7.00858 10.2719 6.96867C10.2543 6.92875 10.2339 6.88765 10.212 6.8479" stroke="black" stroke-width="0.03" stroke-linecap="round"/>
<path d="M10.2025 6.59791C10.1421 6.66041 10.2046 6.77291 10.2587 6.81874C10.3233 6.87291 10.6775 7.24999 10.9275 6.93541C10.7275 6.93124 10.3525 6.46041 10.2025 6.59791Z" fill="#9063CD" stroke="black" stroke-width="0.03"/>
<path d="M10.1595 6.41248C10.0991 6.47498 10.1616 6.58748 10.2158 6.63332C10.2804 6.68748 10.6345 7.06457 10.8845 6.74998C10.6845 6.74582 10.3095 6.27498 10.1595 6.41248Z" fill="#9063CD" stroke="black" stroke-width="0.03"/>
<path d="M10.1029 6.23536C10.0425 6.29786 10.105 6.41036 10.1591 6.45619C10.2237 6.51036 10.5779 6.88744 10.8279 6.57286C10.6279 6.56869 10.2529 6.09786 10.1029 6.23536Z" fill="#9063CD" stroke="black" stroke-width="0.03"/>
<path d="M9.97983 6.03333C9.91941 6.09583 9.98191 6.20833 10.0361 6.25417C10.1007 6.30833 10.4548 6.68542 10.7048 6.37083C10.5048 6.36667 10.1298 5.89583 9.97983 6.03333Z" fill="#9063CD" stroke="black" stroke-width="0.03"/>
<path d="M9.54429 5.83957C9.67138 5.74374 9.90471 5.71665 10.086 5.80832C10.238 5.88332 10.4901 6.1854 10.6797 6.25832C10.5464 6.28124 10.4651 6.2604 10.3797 6.22082C10.211 6.34165 10.1505 6.3604 9.97971 6.3854C9.74013 6.41874 9.54221 6.35624 9.47138 6.23332C9.40054 6.11457 9.43179 5.92707 9.54429 5.83957Z" fill="#9063CD" stroke="black" stroke-width="0.03"/>
<path d="M9.81493 6.09183C9.87615 6.09183 9.92577 6.06311 9.92577 6.02767C9.92577 5.99223 9.87615 5.9635 9.81493 5.9635C9.75372 5.9635 9.7041 5.99223 9.7041 6.02767C9.7041 6.06311 9.75372 6.09183 9.81493 6.09183Z" fill="#D50032" stroke="black" stroke-width="0.03"/>
<path d="M9.8094 6.05683C9.83034 6.05683 9.84732 6.04181 9.84732 6.02329C9.84732 6.00476 9.83034 5.98975 9.8094 5.98975C9.78846 5.98975 9.77148 6.00476 9.77148 6.02329C9.77148 6.04181 9.78846 6.05683 9.8094 6.05683Z" fill="black"/>
<path d="M9.33548 6.33647C9.35353 6.385 9.43198 6.40061 9.5107 6.37133C9.58943 6.34205 9.63862 6.27898 9.62057 6.23045C9.60252 6.18192 9.52407 6.16631 9.44535 6.19559C9.36662 6.22487 9.31743 6.28794 9.33548 6.33647Z" fill="#FFCD00" stroke="black" stroke-width="0.03"/>
<path d="M9.57003 6.11251C9.58045 6.16043 9.54503 6.2271 9.46586 6.25001C9.3867 6.28335 9.32628 6.35835 9.29086 6.48126C9.17003 6.2021 9.24711 6.08335 9.37628 6.05418C9.4867 6.01876 9.55336 6.02293 9.57003 6.11251Z" fill="#FFCD00" stroke="black" stroke-width="0.03"/>
<path d="M9.45482 6.20212C9.46978 6.20212 9.4819 6.18999 9.4819 6.17503C9.4819 6.16007 9.46978 6.14795 9.45482 6.14795C9.43986 6.14795 9.42773 6.16007 9.42773 6.17503C9.42773 6.18999 9.43986 6.20212 9.45482 6.20212Z" fill="black"/>
</g>
<defs>
<clipPath id="clip0_202_3419">
<rect width="20" height="15" fill="white"/>
</clipPath>
</defs>
</svg>
