<svg width="20" height="15" viewBox="0 0 20 15" fill="none" xmlns="http://www.w3.org/2000/svg">
<g clip-path="url(#clip0_202_3315)">
<path d="M0 10H20V15H0V10Z" fill="black"/>
<path d="M0 5H20V10H0V5Z" fill="white"/>
<path d="M0 0H20V5H0V0Z" fill="#CE1126"/>
<path d="M10.0201 7.56002L11.7326 9.15002L11.6101 6.26252C11.5926 5.82502 11.2126 5.92502 10.9351 6.08252C10.6576 6.26252 10.3351 6.26252 10.0001 6.14502C9.66258 6.26252 9.34258 6.26252 9.06508 6.08252C8.79008 5.92502 8.40758 5.82502 8.39008 6.26252L8.26758 9.15002L10.0201 7.56002Z" fill="white" stroke="#C09300" stroke-width="0.04" stroke-linejoin="round"/>
<path d="M8.58758 6.16248L8.46758 8.96998L8.26758 9.14998L8.39008 6.26248C8.44914 6.21718 8.51611 6.18327 8.58758 6.16248ZM8.82758 6.36248L8.72758 8.71248L8.52758 8.91748L8.64758 6.20498C8.68758 6.24498 8.80508 6.34248 8.82758 6.36248ZM9.04508 6.54248L8.96758 8.50248L8.80508 8.65998L8.90508 6.42498C8.94508 6.46248 9.02508 6.51998 9.04508 6.54248ZM9.28258 6.64248L9.20508 8.31248L9.04758 8.43998L9.12508 6.58248C9.16508 6.59998 9.24258 6.64248 9.28258 6.64248ZM9.50258 6.64248L9.44508 8.03498L9.28258 8.19248L9.34508 6.65998C9.38258 6.65998 9.48508 6.65998 9.50258 6.64248Z" fill="#C09300"/>
<path d="M11.4124 6.16248L11.5324 8.96998L11.7324 9.14998L11.6099 6.26248C11.5509 6.21718 11.4839 6.18327 11.4124 6.16248ZM11.1724 6.36248L11.2724 8.71248L11.4724 8.91748L11.3524 6.20498C11.3124 6.24498 11.1949 6.34248 11.1724 6.36248ZM10.9549 6.54248L11.0324 8.50248L11.1949 8.65998L11.0949 6.42498C11.0549 6.46248 10.9749 6.51998 10.9549 6.54248ZM10.7174 6.64248L10.7949 8.31248L10.9524 8.43998L10.8749 6.58248C10.8349 6.59998 10.7574 6.64248 10.7174 6.64248ZM10.4974 6.64248L10.5549 8.03498L10.7174 8.19248L10.6549 6.65998C10.6174 6.65998 10.5149 6.65998 10.4974 6.64248Z" fill="#C09300"/>
<path d="M10.0797 7.875L10.3197 8.97L10.2397 9.05L10.1572 8.9875L10.0222 8.0125L10.0797 8.9875L9.99969 9.0875L9.92219 8.9875L9.97969 8.0125L9.84219 8.9875L9.75969 9.05L9.67969 8.97L9.91969 7.8775H10.0797V7.875Z" fill="#C09300" stroke="#C09300" stroke-width="0.04"/>
<path d="M9.46285 7.39502L8.98535 9.08752L9.64285 9.18752L9.92035 7.91502L9.46285 7.39502Z" fill="white" stroke="#C09300" stroke-width="0.04" stroke-linejoin="round"/>
<path d="M9.30566 7.975L9.36316 8.1125L9.67316 7.8175" stroke="#C09300" stroke-width="0.04" stroke-linejoin="round"/>
<path d="M9.5207 7.625L9.5857 8.2325L9.7832 7.9725M9.7032 8.0725L9.8107 8.4475M9.8532 8.31L9.6357 8.64M9.7032 8.97L9.6332 8.64M9.6332 8.64L9.5732 8.305L9.4257 8.5025L9.3632 8.275L9.1582 8.485L9.2607 8.865L9.4057 8.63L9.4832 8.87L9.6332 8.64Z" stroke="#C09300" stroke-width="0.04" stroke-linejoin="round"/>
<path d="M9.125 9.05005L9.2575 8.86255L9.3425 9.15005L9.4625 8.95005L9.54 9.19005" stroke="#C09300" stroke-width="0.04" stroke-linejoin="round"/>
<path d="M10.5371 7.39502L11.0146 9.08752L10.3571 9.18752L10.0796 7.91502L10.5371 7.39502Z" fill="white" stroke="#C09300" stroke-width="0.04" stroke-linejoin="round"/>
<path d="M10.6943 7.975L10.6368 8.1125L10.3268 7.8175" stroke="#C09300" stroke-width="0.04" stroke-linejoin="round"/>
<path d="M10.4793 7.625L10.4143 8.2325L10.2168 7.9725M10.2968 8.0725L10.1893 8.4475M10.1468 8.31L10.3643 8.64M10.2968 8.97L10.3668 8.64M10.3668 8.64L10.4268 8.305L10.5743 8.5025L10.6368 8.275L10.8418 8.485L10.7393 8.865L10.5943 8.63L10.5168 8.87L10.3668 8.64Z" stroke="#C09300" stroke-width="0.04" stroke-linejoin="round"/>
<path d="M10.875 9.05005L10.7425 8.86255L10.6575 9.15005L10.5375 8.95005L10.46 9.19005" stroke="#C09300" stroke-width="0.04" stroke-linejoin="round"/>
<path d="M9.9998 9.8451C10.4998 9.8451 10.9748 9.8051 11.2548 9.7276C11.3723 9.7051 11.3723 9.6451 11.3723 9.5651C11.4923 9.5251 11.4323 9.3851 11.5148 9.3851C11.4298 9.4101 11.4148 9.2476 11.3148 9.2676C11.3148 9.1276 11.1723 9.1101 11.0548 9.1501C10.8173 9.2276 10.3973 9.2476 9.9998 9.2476C9.5998 9.2276 9.1848 9.2276 8.9448 9.1476C8.8273 9.1101 8.6873 9.1276 8.6873 9.2676C8.5873 9.2476 8.5698 9.4076 8.4873 9.3851C8.5698 9.3851 8.5073 9.5276 8.6273 9.5651C8.6273 9.6451 8.6273 9.7051 8.7473 9.7276C9.0223 9.8051 9.5023 9.8451 9.9998 9.8451Z" fill="white" stroke="#C09300" stroke-width="0.08" stroke-linecap="round" stroke-linejoin="round"/>
<path d="M9.32194 9.08754C9.48194 9.11004 9.66194 9.12754 9.80194 9.11004C9.88194 9.11004 9.93944 9.24754 9.77944 9.26754C9.64194 9.28504 9.42194 9.26754 9.30444 9.24754C9.14981 9.22047 8.99635 9.18711 8.84444 9.14754C8.70444 9.08754 8.80444 8.97254 8.88444 8.98754C9.02716 9.03327 9.17352 9.06672 9.32194 9.08754ZM10.6769 9.08754C10.5169 9.11004 10.3369 9.12754 10.2019 9.11004C10.1169 9.11004 10.0594 9.24754 10.2194 9.26754C10.3594 9.28504 10.5769 9.26754 10.6944 9.24754C10.7944 9.22754 11.0144 9.19004 11.1544 9.14754C11.2944 9.08754 11.1944 8.97254 11.1144 8.98754C10.9717 9.03328 10.8254 9.06673 10.6769 9.08754Z" fill="white" stroke="#C09300" stroke-width="0.04" stroke-linecap="round" stroke-linejoin="round"/>
<path d="M8.82492 9.00998C8.70492 8.98748 8.64992 9.12748 8.68742 9.20748C8.70492 9.16748 8.78742 9.16748 8.80492 9.12748C8.82742 9.06748 8.78742 9.06748 8.82742 9.00998H8.82492ZM9.30492 9.37748C9.30492 9.29748 9.38242 9.30748 9.38242 9.22748C9.38242 9.18998 9.36242 9.12748 9.32242 9.12748C9.30159 9.12868 9.28193 9.13749 9.26718 9.15224C9.25243 9.16699 9.24362 9.18666 9.24242 9.20748C9.22492 9.28498 9.30492 9.29748 9.30492 9.37748ZM9.87242 9.14998C9.98992 9.14998 9.97742 9.30748 9.92242 9.38748C9.92242 9.32998 9.82242 9.30749 9.82242 9.26748C9.82242 9.20749 9.91242 9.20748 9.87242 9.14998ZM11.1724 9.00998C11.2949 8.98748 11.3524 9.12748 11.3124 9.20748C11.2949 9.16748 11.2124 9.16748 11.1949 9.12748C11.1724 9.06748 11.2124 9.06748 11.1724 9.00998ZM10.6999 9.37498C10.6999 9.29498 10.6199 9.30498 10.6199 9.22498C10.6199 9.18748 10.6399 9.12498 10.6799 9.12498C10.7008 9.12618 10.7204 9.13499 10.7352 9.14974C10.7499 9.16449 10.7587 9.18416 10.7599 9.20499C10.7774 9.28249 10.6974 9.29498 10.6974 9.37498H10.6999ZM10.1249 9.14998C10.0074 9.14998 10.0199 9.30748 10.0749 9.38748C10.0749 9.32998 10.1749 9.30749 10.1749 9.26748C10.1749 9.20749 10.0849 9.20748 10.1249 9.14998Z" fill="white" stroke="#C09300" stroke-width="0.04" stroke-linecap="round" stroke-linejoin="round"/>
<path d="M8.86719 9.05005C8.90719 9.05005 8.96719 9.06755 8.98469 9.09005L8.86719 9.05005ZM9.06469 9.11005C9.08469 9.11005 9.16469 9.12755 9.20219 9.15005L9.06469 9.11005ZM9.77969 9.19005C9.74219 9.19005 9.66219 9.19005 9.64219 9.20755L9.77969 9.18755V9.19005ZM9.56219 9.19005C9.53969 9.16755 9.46219 9.16755 9.42219 9.19005H9.56219ZM11.1322 9.05005C11.0898 9.05058 11.0486 9.06459 11.0147 9.09005L11.1322 9.05005ZM10.9372 9.11005C10.9122 9.11005 10.8372 9.12755 10.7972 9.15005L10.9372 9.11005ZM10.2197 9.19005C10.2572 9.19005 10.3372 9.19005 10.3597 9.20755L10.2197 9.18755V9.19005ZM10.4372 9.19005C10.4597 9.16755 10.5372 9.16755 10.5772 9.19005H10.4372Z" fill="white" stroke="#C09300" stroke-width="0.04" stroke-linecap="round" stroke-linejoin="round"/>
<path d="M8.83297 9.365C8.82047 9.3625 8.81297 9.35 8.81797 9.34C8.82047 9.3225 8.83297 9.315 8.84297 9.32C8.85297 9.32 8.86547 9.335 8.86547 9.34L8.85547 9.3575L8.85047 9.36C8.85047 9.365 8.84047 9.365 8.83297 9.365ZM10.208 9.4625C10.203 9.4625 10.193 9.45 10.193 9.445C10.193 9.435 10.208 9.42 10.218 9.42L10.238 9.43C10.2455 9.4375 10.2455 9.4525 10.2355 9.46C10.2305 9.465 10.2155 9.465 10.208 9.46V9.4625ZM10.2155 9.525C10.2055 9.52 10.203 9.515 10.2005 9.505C10.2005 9.4925 10.2005 9.49 10.213 9.4825L10.223 9.4775L10.233 9.4825C10.243 9.4875 10.2505 9.4925 10.2505 9.5025C10.2505 9.51 10.243 9.5175 10.233 9.5225C10.2255 9.5275 10.223 9.5275 10.2155 9.5225V9.525Z" fill="#C09300"/>
<path d="M8.94527 9.25C8.93527 9.25 8.92277 9.26 8.91527 9.265C8.90027 9.2675 8.88027 9.2775 8.86527 9.265C8.85027 9.2625 8.83027 9.265 8.82777 9.285C8.83027 9.3025 8.85277 9.31 8.86777 9.3C8.87777 9.2875 8.90527 9.2775 8.91027 9.3C8.89777 9.32 8.90027 9.3425 8.89027 9.36C8.89027 9.3725 8.88277 9.3825 8.87777 9.3925C8.86527 9.3925 8.85277 9.3925 8.84277 9.4C8.83501 9.4 8.82736 9.40181 8.82041 9.40528C8.81347 9.40875 8.80743 9.41379 8.80277 9.42C8.79277 9.435 8.78277 9.45 8.78027 9.47C8.78277 9.485 8.80527 9.49 8.82027 9.4925L8.87027 9.5075L8.95027 9.53C8.99027 9.5425 9.03027 9.5475 9.07027 9.5575L9.08277 9.56C9.10027 9.565 9.10777 9.5475 9.10777 9.535L9.13277 9.445C9.13777 9.4325 9.14527 9.4075 9.12277 9.4125C9.11027 9.42 9.09777 9.4325 9.08277 9.4325C9.06027 9.4325 9.07277 9.4575 9.08277 9.465C9.08277 9.48 9.07777 9.4975 9.07027 9.51C9.05527 9.5175 9.04027 9.51 9.02527 9.505C9.01277 9.505 8.98277 9.4975 8.99527 9.48L9.00777 9.435C9.01527 9.42 9.01527 9.4025 9.02027 9.385C9.01027 9.3675 8.99527 9.3925 8.98277 9.395C8.97277 9.4 8.94277 9.4025 8.95777 9.42C8.97277 9.43 8.96277 9.4475 8.95777 9.4625C8.95777 9.48 8.93777 9.4875 8.92277 9.48C8.90777 9.48 8.88527 9.4675 8.89777 9.4525L8.91027 9.4075L8.92777 9.3575C8.92777 9.34 8.93527 9.3275 8.94277 9.3125C8.94277 9.295 8.95527 9.28 8.95527 9.2625C8.95527 9.255 8.95027 9.2525 8.94527 9.2525V9.25ZM8.85277 9.4325C8.85391 9.43184 8.85521 9.43149 8.85652 9.43149C8.85784 9.43149 8.85913 9.43184 8.86027 9.4325C8.86527 9.4375 8.86527 9.4425 8.86027 9.4475L8.85277 9.4525C8.84027 9.4525 8.83777 9.45 8.83777 9.445C8.83777 9.4425 8.83777 9.44 8.84527 9.4375C8.84832 9.43531 8.85169 9.43362 8.85527 9.4325H8.85277ZM8.82777 9.5575C8.81527 9.5475 8.81777 9.54 8.83527 9.525C8.84527 9.52 8.84777 9.52 8.85777 9.5275C8.87277 9.54 8.87277 9.5475 8.85777 9.56C8.85277 9.565 8.85027 9.565 8.84527 9.565C8.83777 9.565 8.83527 9.565 8.82777 9.56V9.5575ZM8.90277 9.5825C8.89719 9.58076 8.8925 9.57692 8.8897 9.57179C8.8869 9.56666 8.88621 9.56063 8.88777 9.555C8.89277 9.545 8.89527 9.5425 8.91027 9.5425C8.92777 9.5425 8.93027 9.545 8.93277 9.56C8.93277 9.57 8.93277 9.5725 8.92527 9.5775C8.92249 9.57971 8.91926 9.58129 8.91581 9.58216C8.91236 9.58302 8.90877 9.58314 8.90527 9.5825H8.90277ZM11.1328 9.5825C11.1278 9.58 11.1253 9.5775 11.1253 9.57C11.1253 9.56 11.1303 9.5525 11.1453 9.5475C11.1603 9.54 11.1703 9.54 11.1753 9.5525C11.1828 9.5675 11.1828 9.5725 11.1728 9.5825C11.1678 9.59 11.1653 9.59 11.1528 9.59C11.1403 9.59 11.1378 9.59 11.1328 9.585V9.5825ZM9.00777 9.6125C8.99777 9.6125 8.99277 9.6025 8.99277 9.5925C8.99277 9.585 8.99277 9.5825 8.99777 9.5775L9.01277 9.5725L9.02777 9.575C9.04027 9.585 9.04277 9.595 9.03527 9.605C9.02777 9.615 9.02027 9.615 9.00527 9.6125H9.00777ZM9.55277 9.6375L9.54777 9.63C9.54777 9.615 9.54777 9.6025 9.55277 9.5875C9.55527 9.575 9.55277 9.5625 9.55777 9.55L9.56777 9.48C9.56777 9.4675 9.56777 9.455 9.57277 9.445C9.57527 9.425 9.57277 9.4075 9.57777 9.39C9.57777 9.3825 9.58527 9.365 9.59277 9.375C9.60277 9.39 9.61527 9.4 9.62777 9.4125C9.63777 9.42 9.62777 9.43 9.62027 9.4325C9.61027 9.435 9.60777 9.4475 9.60777 9.4575L9.60277 9.4875C9.60277 9.505 9.60277 9.52 9.59777 9.5375L9.59527 9.5825L9.59027 9.6125C9.59027 9.6225 9.59027 9.635 9.58027 9.64C9.57277 9.645 9.56027 9.645 9.55527 9.6375H9.55277ZM10.2953 9.3925L10.2628 9.4225C10.2478 9.435 10.2753 9.44 10.2778 9.45C10.2828 9.465 10.2828 9.48 10.2828 9.495C10.2878 9.51 10.2903 9.5225 10.2878 9.5375C10.2878 9.555 10.2678 9.55 10.2578 9.56C10.2453 9.565 10.2403 9.5775 10.2328 9.585C10.2268 9.59754 10.2234 9.61114 10.2228 9.625C10.2228 9.6375 10.2153 9.65 10.2228 9.66L10.2253 9.665H10.2378L10.2753 9.6625C10.3053 9.6575 10.3378 9.6575 10.3678 9.655L10.4228 9.65C10.4378 9.6525 10.4453 9.6375 10.4453 9.625C10.4353 9.6075 10.4428 9.59 10.4353 9.575C10.4303 9.555 10.4328 9.5375 10.4303 9.52C10.4303 9.505 10.4128 9.5 10.4053 9.51C10.3953 9.52 10.3803 9.5225 10.3753 9.5325C10.3678 9.5475 10.3903 9.5475 10.3953 9.5575L10.3978 9.595C10.4003 9.61 10.3853 9.61 10.3728 9.6125C10.3603 9.6175 10.3428 9.62 10.3353 9.605C10.3303 9.5925 10.3303 9.58 10.3303 9.5675C10.3303 9.5425 10.3228 9.5225 10.3228 9.5C10.3228 9.475 10.3153 9.4475 10.3153 9.42C10.3153 9.4075 10.3128 9.39 10.2953 9.3925ZM10.2803 9.5975H10.2878V9.6175L10.2803 9.62C10.277 9.62104 10.2737 9.62188 10.2703 9.6225C10.2686 9.62257 10.2669 9.62257 10.2653 9.6225C10.2603 9.6175 10.2603 9.61 10.2678 9.6025L10.2803 9.5975ZM9.53027 9.3675C9.52277 9.3675 9.51027 9.385 9.50027 9.3825C9.47777 9.385 9.48027 9.4075 9.49777 9.415V9.435C9.50027 9.455 9.48777 9.4725 9.49027 9.4925C9.49027 9.5125 9.48277 9.535 9.48277 9.5575C9.47527 9.58 9.47527 9.6025 9.47277 9.625C9.47027 9.645 9.45527 9.6375 9.44277 9.6325V9.6075C9.44527 9.585 9.43027 9.58 9.41277 9.5775C9.39527 9.5775 9.38777 9.565 9.39277 9.55C9.40027 9.54 9.41777 9.5425 9.43027 9.5425C9.45527 9.5475 9.45277 9.515 9.44027 9.5025C9.43027 9.4875 9.41027 9.4775 9.40527 9.4625C9.40527 9.4425 9.39277 9.42 9.37527 9.41C9.34777 9.4075 9.32527 9.43 9.31777 9.455C9.30527 9.455 9.29277 9.46 9.28277 9.465C9.26527 9.47 9.24027 9.5 9.26527 9.5125C9.27777 9.515 9.32027 9.525 9.30027 9.5425C9.29027 9.5625 9.27027 9.5625 9.25277 9.5575C9.23527 9.5575 9.21527 9.5475 9.21527 9.5275C9.21277 9.5075 9.21277 9.4875 9.20527 9.47C9.20027 9.45 9.17777 9.455 9.17527 9.475C9.15777 9.4875 9.16027 9.51 9.17277 9.525C9.18027 9.5425 9.17277 9.565 9.16527 9.58C9.16027 9.605 9.13527 9.605 9.11777 9.61C9.11027 9.615 9.07777 9.61 9.09027 9.6275C9.10902 9.63613 9.12998 9.63875 9.15027 9.635C9.17027 9.635 9.18777 9.6175 9.20027 9.6C9.21277 9.5875 9.23527 9.595 9.25527 9.595C9.27277 9.595 9.29277 9.6075 9.31277 9.5975C9.31777 9.585 9.34277 9.56 9.35027 9.585C9.35027 9.6075 9.36777 9.6175 9.38777 9.615C9.41027 9.615 9.40027 9.63 9.40027 9.645C9.40027 9.6675 9.41777 9.68 9.43777 9.69H9.45777C9.47527 9.6825 9.49527 9.675 9.50277 9.655C9.51027 9.6375 9.51027 9.6175 9.51527 9.6C9.52027 9.5725 9.52527 9.5425 9.52527 9.515C9.53277 9.49 9.53027 9.4625 9.53527 9.435L9.54277 9.3775C9.54277 9.365 9.53777 9.365 9.53027 9.3675ZM9.36277 9.47C9.36527 9.47 9.36777 9.475 9.36777 9.4825C9.36777 9.4925 9.37277 9.5 9.38027 9.5025V9.51L9.36027 9.515C9.34777 9.515 9.33777 9.51 9.33027 9.5025L9.32527 9.4975L9.33277 9.4925L9.34527 9.48C9.35277 9.4725 9.35777 9.47 9.36277 9.47ZM11.0128 9.2725C10.9984 9.27353 10.9841 9.27605 10.9703 9.28C10.9453 9.28 10.9328 9.305 10.9578 9.32C10.9728 9.3575 10.9953 9.31 11.0203 9.315C11.0553 9.32 11.0578 9.36 11.0653 9.39C11.0653 9.4175 11.0753 9.445 11.0828 9.4725C11.1078 9.5 11.0653 9.5175 11.0478 9.4975C11.0328 9.48 10.9978 9.46 10.9803 9.4825C10.9578 9.4925 10.9553 9.5225 10.9378 9.5325C10.9078 9.54 10.9053 9.5025 10.8878 9.4875C10.8728 9.465 10.8453 9.4625 10.8228 9.4575C10.8128 9.435 10.8178 9.3975 10.7978 9.3825C10.7778 9.39 10.7428 9.425 10.7728 9.4425C10.7978 9.4675 10.7603 9.4775 10.7478 9.4925C10.7278 9.515 10.7228 9.5425 10.7228 9.5675C10.6903 9.585 10.6853 9.5475 10.6803 9.525C10.6803 9.4975 10.6553 9.505 10.6378 9.515C10.6128 9.525 10.6028 9.5475 10.5878 9.565V9.615C10.5928 9.6375 10.6178 9.6275 10.6328 9.625C10.6578 9.615 10.6678 9.6425 10.6478 9.6575C10.6328 9.6725 10.5928 9.665 10.5978 9.6925H10.6378C10.6628 9.685 10.6928 9.665 10.6953 9.635C10.7003 9.61 10.7378 9.6125 10.7578 9.6075C10.7828 9.6 10.8153 9.5975 10.8228 9.6325C10.8403 9.65 10.8778 9.67 10.8978 9.645C10.9073 9.63897 10.9149 9.63037 10.9198 9.6202C10.9247 9.61003 10.9266 9.5987 10.9253 9.5875C10.9228 9.5675 10.9578 9.5675 10.9678 9.58C10.9803 9.6 11.0203 9.595 11.0403 9.58C11.0603 9.5675 11.0653 9.54 11.0953 9.54L11.2303 9.5025C11.2653 9.495 11.2253 9.4725 11.2153 9.4575C11.1903 9.445 11.1653 9.5 11.1353 9.4725C11.1103 9.455 11.1128 9.4225 11.1053 9.395C11.0978 9.36 11.1003 9.32 11.0753 9.295C11.0603 9.2775 11.0353 9.2725 11.0128 9.2725ZM10.8428 9.51C10.8453 9.51 10.8503 9.51 10.8553 9.515C10.8653 9.52 10.8728 9.53 10.8728 9.54C10.8728 9.545 10.8728 9.545 10.8653 9.5475L10.8528 9.5525C10.8478 9.5525 10.8353 9.545 10.8353 9.54V9.53C10.8303 9.52 10.8303 9.52 10.8353 9.515L10.8428 9.51ZM11.0053 9.52C11.0153 9.52 11.0203 9.52 11.0253 9.5275C11.0278 9.5375 11.0253 9.5425 11.0153 9.5475L11.0028 9.5525L10.9928 9.545C10.9878 9.5425 10.9853 9.54 10.9853 9.535C10.9853 9.5275 10.9953 9.52 11.0053 9.5175V9.52ZM10.7803 9.52C10.7853 9.52 10.7878 9.52 10.7903 9.525C10.7953 9.53 10.7978 9.5325 10.7978 9.54V9.555C10.7978 9.5625 10.7978 9.56 10.7828 9.56C10.7678 9.56 10.7653 9.56 10.7653 9.545C10.7653 9.535 10.7653 9.5325 10.7728 9.5275C10.7753 9.5225 10.7803 9.5225 10.7828 9.5225L10.7803 9.52ZM10.6453 9.5575C10.6476 9.55822 10.6498 9.5595 10.6515 9.56125C10.6533 9.56299 10.6546 9.56514 10.6553 9.5675C10.6553 9.575 10.6553 9.58 10.6503 9.5825C10.6428 9.585 10.6303 9.5875 10.6253 9.5825C10.6252 9.58167 10.6252 9.58083 10.6253 9.58C10.6203 9.5775 10.6203 9.575 10.6253 9.5725V9.57L10.6303 9.5625C10.6318 9.56007 10.6341 9.55824 10.6369 9.55733C10.6396 9.55642 10.6426 9.55648 10.6453 9.5575ZM10.8753 9.5875L10.8878 9.59V9.605H10.8578L10.8553 9.6C10.8553 9.595 10.8553 9.5925 10.8603 9.59L10.8753 9.5875ZM10.4478 9.7075C10.4453 9.7075 10.4403 9.705 10.4453 9.7025C10.4478 9.695 10.4578 9.6925 10.4653 9.6875C10.4789 9.68231 10.4909 9.6737 10.5003 9.6625C10.5003 9.6525 10.5103 9.6475 10.5103 9.6375L10.5078 9.6025C10.5044 9.592 10.4973 9.5831 10.4878 9.5775C10.4803 9.575 10.4703 9.5725 10.4678 9.5625C10.4678 9.555 10.4753 9.5475 10.4778 9.54L10.4928 9.51C10.5003 9.5025 10.5103 9.51 10.5128 9.515L10.5253 9.54C10.5328 9.5475 10.5378 9.555 10.5403 9.565C10.5453 9.575 10.5503 9.5825 10.5503 9.59L10.5553 9.6225C10.5553 9.635 10.5553 9.65 10.5503 9.6625L10.5353 9.6825C10.5278 9.69 10.5203 9.6975 10.5103 9.7C10.5028 9.7025 10.4978 9.71 10.4878 9.71H10.4503L10.4478 9.7075ZM10.2753 9.7175C10.2703 9.7125 10.2678 9.71 10.2678 9.7025C10.2678 9.695 10.2678 9.695 10.2753 9.6875C10.2853 9.6775 10.2903 9.6775 10.3103 9.6875C10.3278 9.6975 10.3353 9.6975 10.3353 9.69C10.3378 9.685 10.3478 9.6775 10.3603 9.6775C10.3649 9.67767 10.3693 9.67944 10.3728 9.6825C10.3778 9.6875 10.3803 9.69 10.3803 9.7C10.3803 9.7125 10.3803 9.7125 10.3728 9.72C10.3653 9.725 10.3653 9.725 10.3553 9.725C10.3508 9.72476 10.3466 9.7232 10.343 9.72053C10.3394 9.71786 10.3367 9.7142 10.3353 9.71C10.3353 9.705 10.3353 9.7025 10.3303 9.7075L10.3253 9.71C10.3203 9.71 10.3103 9.7175 10.3053 9.7225L10.2928 9.725C10.2828 9.725 10.2828 9.725 10.2753 9.7175ZM9.78027 9.495C9.76277 9.495 9.74527 9.51 9.74277 9.5275C9.74777 9.545 9.76277 9.565 9.75277 9.5825C9.76027 9.6075 9.73277 9.6175 9.71527 9.605C9.70527 9.58 9.70027 9.555 9.68277 9.53C9.66277 9.525 9.65527 9.5575 9.64027 9.57C9.64777 9.5875 9.66777 9.605 9.67027 9.6275C9.67527 9.6525 9.66027 9.6775 9.64277 9.6875C9.62527 9.705 9.60027 9.7 9.58027 9.7025C9.55527 9.7175 9.59777 9.7225 9.61027 9.7225C9.63527 9.725 9.66277 9.7225 9.68527 9.7025C9.70277 9.695 9.70027 9.66 9.72277 9.6575L9.84277 9.665C9.86277 9.67 9.89527 9.6625 9.91027 9.6775C9.91027 9.7025 9.93527 9.7225 9.95777 9.7325C9.97027 9.7375 9.98277 9.72 9.99527 9.7175C10.0203 9.71 10.0128 9.68 10.0278 9.6675H10.1528C10.1578 9.6675 10.1603 9.655 10.1678 9.65L10.1628 9.6025C10.1553 9.5825 10.1628 9.5575 10.1503 9.54C10.1278 9.535 10.1103 9.5525 10.0903 9.555C10.0653 9.565 10.0478 9.5875 10.0453 9.6125C10.0328 9.635 10.0103 9.6075 10.0203 9.5875L10.0178 9.5625C10.0053 9.55 9.98277 9.555 9.96527 9.5525L9.89027 9.5475C9.86527 9.5475 9.84277 9.55 9.82277 9.545C9.79777 9.545 9.79777 9.52 9.79777 9.5C9.79278 9.49619 9.78653 9.49441 9.78027 9.495ZM9.83027 9.5875L9.85527 9.59H9.88777C9.91277 9.595 9.93777 9.595 9.96277 9.595C9.96777 9.595 9.97277 9.6 9.97777 9.605V9.655C9.97777 9.6625 9.97777 9.6725 9.97277 9.675C9.97146 9.67699 9.96976 9.67869 9.96777 9.68C9.96411 9.67935 9.96064 9.67789 9.95761 9.67573C9.95458 9.67357 9.95208 9.67075 9.95027 9.6675V9.6325C9.94532 9.62831 9.93922 9.6257 9.93277 9.625L9.86777 9.6225L9.81777 9.62C9.81027 9.6175 9.80027 9.62 9.79527 9.61C9.79027 9.605 9.79777 9.595 9.80527 9.5925C9.81313 9.58898 9.82167 9.58727 9.83027 9.5875ZM10.1128 9.595C10.1153 9.595 10.1178 9.595 10.1178 9.6025L10.1228 9.615C10.1228 9.6175 10.1228 9.62 10.1178 9.62C10.1053 9.625 10.0928 9.625 10.0878 9.62C10.0878 9.6175 10.0878 9.6075 10.0928 9.605L10.1128 9.595Z" fill="#C09300"/>
<path d="M10.0006 8.17998C10.8156 7.55498 10.7456 6.63498 10.7456 6.63498L10.6831 6.63998C10.5106 6.63998 10.1031 6.53998 10.0081 6.41748C9.90805 6.52998 9.48805 6.64248 9.31805 6.64248L9.25555 6.63498C9.25555 6.63498 9.18305 7.55248 10.0006 8.17998Z" fill="white" stroke="#C09300" stroke-width="0.05"/>
<path d="M10.6803 6.69994H10.6603C10.5053 6.69994 10.1453 6.62244 10.0053 6.50244C9.86031 6.61244 9.49281 6.70244 9.34031 6.70244C9.33359 6.70218 9.3269 6.70135 9.32031 6.69994C9.32168 6.85793 9.34353 7.01507 9.38531 7.16744C9.48559 7.53454 9.70119 7.85969 10.0003 8.09494C10.2996 7.8588 10.5152 7.5328 10.6153 7.16494C10.6569 7.01338 10.6787 6.85709 10.6803 6.69994Z" fill="white" stroke="#C09300" stroke-width="0.04"/>
<path d="M9.73531 6.62494C9.60103 6.66867 9.46141 6.6939 9.32031 6.69994L9.32281 6.80244C9.33135 6.92507 9.35229 7.04652 9.38531 7.16494C9.45252 7.41081 9.57189 7.63932 9.73531 7.83494V6.62494ZM10.2503 6.62494V7.85494C10.4216 7.65482 10.5463 7.41914 10.6153 7.16494C10.6483 7.04652 10.6692 6.92507 10.6778 6.80244L10.6803 6.70244H10.6603C10.5653 6.70244 10.4003 6.67244 10.2503 6.62244V6.62494Z" fill="#C09300"/>
<path d="M10.3079 6.32499C10.3254 6.32749 10.2854 6.23749 10.2854 6.23749C10.3304 6.28249 10.4954 6.29499 10.4954 6.29499C10.3954 6.24999 10.2954 5.91749 10.3079 5.64999C10.3179 5.38499 10.2704 5.27999 10.2329 5.23999C10.1829 5.18999 10.0204 5.14499 9.91543 5.13999C9.85293 5.13749 9.86543 5.18499 9.86543 5.18499C9.75293 5.15749 9.64043 5.14499 9.59043 5.17999C9.54543 5.20999 9.53543 5.36749 9.57043 5.33999C9.65293 5.27249 9.72543 5.33499 9.77543 5.40749C9.82043 5.46999 9.81793 5.64999 9.75293 5.86249C9.69537 6.02313 9.61083 6.17278 9.50293 6.30499C9.60293 6.30499 9.74293 6.21749 9.74293 6.21749L9.71043 6.35499C9.81543 6.30499 9.89793 6.22749 9.89793 6.22749L9.99793 6.33249C10.0304 6.28749 10.0979 6.22749 10.0979 6.22749C10.0979 6.22749 10.1804 6.31499 10.3079 6.32749V6.32499Z" fill="white" stroke="#C09300" stroke-width="0.04"/>
<path d="M9.90316 5.68999C9.90316 5.68999 9.84816 6.09999 9.74316 6.21499M9.99316 5.67749C9.99316 5.67749 9.96816 6.09499 9.89816 6.22749M10.0707 5.69499C10.0707 5.69499 10.0707 6.14999 10.0957 6.22749M10.1707 5.71749C10.1707 5.71749 10.1907 6.09999 10.2857 6.23749" stroke="#C09300" stroke-width="0.04"/>
<path d="M9.80031 5.48999C9.79808 5.461 9.78954 5.43285 9.77531 5.40749C9.72531 5.33249 9.65281 5.27249 9.57031 5.33999C9.57031 5.33999 9.59781 5.25249 9.66031 5.24999C9.70531 5.24749 9.81281 5.28499 9.90781 5.44499C9.90781 5.44499 9.83781 5.42999 9.82031 5.44499C9.79031 5.46999 9.80281 5.48999 9.80281 5.48999H9.80031Z" fill="#C09300" stroke="#C09300" stroke-width="0.03"/>
<path d="M9.56055 5.23249C9.56805 5.20749 9.57805 5.18749 9.59305 5.17999C9.64305 5.14499 9.75305 5.15499 9.86555 5.18499C9.86555 5.18499 9.85555 5.13749 9.91555 5.13999C10.0205 5.14499 10.1805 5.18999 10.2305 5.23999C10.2466 5.25757 10.2593 5.27789 10.268 5.29999C10.243 5.26499 10.173 5.26749 10.1555 5.26999C10.1305 5.27249 10.113 5.26999 10.078 5.27999C10.0605 5.28499 10.0355 5.28999 10.0205 5.29999C10.0105 5.30999 10.0005 5.33999 9.98555 5.33999C9.96055 5.33999 9.96055 5.33499 9.95305 5.32749C9.94555 5.31499 9.94055 5.29999 9.93055 5.30249C9.90555 5.30499 9.86055 5.28499 9.80555 5.23999C9.74805 5.19499 9.72555 5.18499 9.65555 5.18999C9.58055 5.19499 9.56055 5.23749 9.56055 5.23749V5.23249Z" fill="#C09300" stroke="#C09300" stroke-width="0.03"/>
<path d="M9.97043 5.29755C9.987 5.29755 10.0004 5.28412 10.0004 5.26755C10.0004 5.25098 9.987 5.23755 9.97043 5.23755C9.95386 5.23755 9.94043 5.25098 9.94043 5.26755C9.94043 5.28412 9.95386 5.29755 9.97043 5.29755Z" fill="white"/>
</g>
<defs>
<clipPath id="clip0_202_3315">
<rect width="20" height="15" fill="white"/>
</clipPath>
</defs>
</svg>
