<svg width="20" height="15" viewBox="0 0 20 15" fill="none" xmlns="http://www.w3.org/2000/svg">
<g clip-path="url(#clip0_202_3535)">
<path d="M0 0H20V15H0V0Z" fill="#E32118"/>
<path d="M0 0H20V10H0V0Z" fill="white"/>
<path d="M0 0H20V5H0V0Z" fill="#3E9A00"/>
<path d="M0 0V15L5.625 7.5L0 0Z" fill="#0073CE"/>
<path d="M8.7998 5.99377H11.1936V8.50002C11.1936 9.34377 10.0936 8.69377 9.9998 9.14377C9.8373 8.68127 8.80605 9.35002 8.80605 8.45002L8.7998 5.99377Z" fill="white" stroke="black" stroke-width="0.06"/>
<path d="M10.1686 8.74377C10.1686 8.74377 10.1373 8.77502 10.0811 8.75002C10.0248 8.72502 10.0186 7.14377 10.0186 7.14377C10.1436 7.00627 10.2436 6.96252 10.2436 6.96252L10.3186 7.02502C10.0373 7.16877 10.0623 7.37502 10.0873 7.73127C10.0936 7.86252 10.0936 8.03127 10.1248 8.19377C10.1686 8.40002 10.2561 8.57502 10.2623 8.70627C10.2686 8.78752 10.1686 8.74377 10.1686 8.74377Z" fill="#73452B" stroke="black" stroke-width="0.025"/>
<path d="M9.97422 6.92493H10.0867C9.99297 7.83118 10.0742 8.36868 10.0742 8.63118C10.0742 8.71868 10.1242 8.74993 10.118 8.74993C10.0055 8.87493 9.94922 8.74368 9.94922 8.74368L9.97422 6.92493Z" fill="#73452B" stroke="black" stroke-width="0.025"/>
<path d="M9.79937 8.74375C9.69312 8.79375 9.68062 8.69375 9.68687 8.68125C9.91812 8.2125 10.0181 7.18125 9.80562 7.06875L9.81812 6.96875C9.89937 6.99375 9.97437 7.1 9.97437 7.1C10.0056 8.25625 9.97437 8.73125 9.95562 8.75C9.84312 8.86875 9.79937 8.73125 9.79312 8.71875" fill="#A36629"/>
<path d="M9.79937 8.74375C9.69312 8.79375 9.68062 8.69375 9.68687 8.68125C9.91812 8.2125 10.0181 7.18125 9.80562 7.06875L9.81812 6.96875C9.89937 6.99375 9.97437 7.1 9.97437 7.1C10.0056 8.25625 9.97437 8.73125 9.95562 8.75C9.84312 8.86875 9.79937 8.73125 9.79312 8.71875" stroke="black" stroke-width="0.025"/>
<path d="M9.79335 8.72498C9.7746 8.62498 9.95585 8.36873 9.94335 8.09998M10.0996 8.31873C10.1559 8.47498 10.1809 8.61247 10.1684 8.74372" stroke="black" stroke-width="0.025"/>
<path d="M10.3432 6.49993C10.3807 6.45618 10.3807 6.45618 10.4494 6.45618C10.4619 6.36243 10.6182 6.36243 10.6307 6.48118C10.7557 6.45618 10.7807 6.53118 10.7307 6.60618C10.8494 6.57493 10.9557 6.60618 10.9244 6.74368C11.1369 6.79993 11.0557 6.94993 10.9619 6.98118C10.9494 7.07493 10.8619 7.10618 10.7432 7.06868C10.5932 7.17493 10.5057 7.13743 10.4369 7.03118C10.2682 7.05618 10.2557 7.01868 10.1807 6.92493C10.0494 6.98118 10.0244 6.98118 9.91193 6.91243C9.90568 6.99993 9.87443 6.97493 9.81818 6.96868C9.82443 7.08118 9.78068 7.13118 9.68068 7.09368C9.75568 7.24993 9.56193 7.31868 9.46818 7.18743C9.38068 7.19368 9.37443 7.16868 9.33068 7.13743C9.29318 7.26243 9.15568 7.24368 9.13068 7.17493C8.95568 7.14993 8.97443 7.05618 9.11818 7.04993C9.13068 6.94993 9.21818 6.96868 9.27443 6.98118C9.28068 6.91868 9.31818 6.93118 9.34943 6.94368C9.33068 6.89993 9.34318 6.87493 9.39943 6.86243C9.31818 6.75618 9.36818 6.71868 9.44943 6.68118C9.40568 6.58118 9.48068 6.58743 9.53693 6.58118C9.53068 6.47493 9.56193 6.45618 9.67443 6.44368C9.66193 6.40618 9.68068 6.37493 9.74318 6.37493C9.70568 6.26868 9.75568 6.24368 9.86818 6.26243C9.88693 6.10618 10.2182 6.18118 10.1932 6.39368C10.2869 6.40618 10.3182 6.42493 10.3432 6.49993Z" fill="#009A3B" stroke="black" stroke-width="0.025"/>
<path d="M9.67461 6.44368C9.69961 6.45618 9.73086 6.44368 9.73711 6.51243C9.78711 6.42493 9.84961 6.47493 9.84961 6.57493M10.1934 6.39368C10.1684 6.43118 10.0746 6.43118 10.0871 6.53118C10.0559 6.48743 9.99336 6.47493 9.96836 6.51868M10.3434 6.49993C10.3434 6.52493 10.3371 6.59993 10.3121 6.63743M10.7309 6.60618C10.7371 6.61243 10.6434 6.60618 10.5996 6.63743M10.9621 6.98118C10.9371 6.96868 10.8871 6.93743 10.8496 6.98743C10.8496 6.96243 10.8496 6.89368 10.7809 6.89368M10.7434 7.06868C10.7434 7.00618 10.7309 6.98743 10.7184 6.96868M10.5371 6.98118C10.4871 6.94368 10.4371 6.99993 10.4371 7.03118M10.1746 6.92493C10.1746 6.89993 10.1559 6.84993 10.1996 6.83118M9.46211 7.18743C9.47461 7.12493 9.51836 7.12493 9.51211 7.09368M9.51211 7.09368C9.50586 7.04368 9.44961 6.99993 9.38086 7.06868M9.51211 7.09368C9.54961 7.08118 9.58711 7.08743 9.59961 7.10618M9.40586 6.86243C9.43086 6.83743 9.49336 6.84368 9.53086 6.86243M9.53086 6.71243C9.56211 6.71243 9.61836 6.69993 9.63711 6.75618C9.70586 6.64993 9.75586 6.66243 9.76836 6.68743M9.89336 6.67493C9.94336 6.65618 10.0309 6.70618 10.0809 6.79368C10.1059 6.72493 10.1434 6.73743 10.1809 6.73118M10.4184 6.79368C10.4996 6.75618 10.5496 6.83118 10.5746 6.86243C10.6121 6.81243 10.6434 6.81243 10.6809 6.81243M9.66211 6.94368C9.68086 6.91243 9.72461 6.90618 9.75586 6.92493C9.74961 6.86868 9.78711 6.84368 9.81211 6.85618" stroke="black" stroke-width="0.025"/>
<path d="M9.91875 5.6406L9.78125 5.64685L9.7125 5.77185L9.6375 5.6531L9.5 5.65935L9.5625 5.53435L9.4875 5.41873L9.63125 5.41248L9.69375 5.28748L9.76875 5.40623L9.90625 5.39998L9.84375 5.52498L9.91875 5.6406ZM9.33125 5.68748L9.19375 5.71873L9.15625 5.8531L9.05625 5.7531L8.925 5.78435L8.9625 5.6531L8.86875 5.5531L9 5.51873L9.0375 5.38435L9.1375 5.48435L9.275 5.4531L9.23125 5.58748L9.33125 5.68748ZM8.7625 5.8031L8.6375 5.8656L8.63125 6.0031L8.5125 5.9281L8.3875 5.9906L8.4 5.84998L8.28125 5.77498L8.40625 5.71248L8.41875 5.57185L8.53125 5.64998L8.65625 5.58748L8.65 5.72498L8.7625 5.8031ZM10.1 5.6406L10.2375 5.64685L10.3 5.77185L10.375 5.6531L10.5125 5.65935L10.45 5.53435L10.525 5.41873L10.3875 5.41248L10.3188 5.28748L10.2437 5.40623L10.1062 5.39998L10.1687 5.52498L10.1 5.6406ZM10.6875 5.68748L10.8188 5.71873L10.8562 5.8531L10.9563 5.7531L11.0875 5.78435L11.05 5.6531L11.15 5.5531L11.0125 5.51873L10.975 5.38435L10.875 5.48435L10.7437 5.4531L10.7812 5.58748L10.6875 5.68748ZM11.25 5.8031L11.375 5.8656L11.3813 6.0031L11.5 5.9281L11.625 5.9906L11.6187 5.84998L11.7312 5.77498L11.6062 5.71248L11.6 5.57185L11.4812 5.64998L11.3562 5.58748L11.3687 5.72498L11.25 5.8031Z" fill="#FFD700" stroke="black" stroke-width="0.04"/>
<path d="M11.4182 8.44988L11.5744 8.67488L11.7182 8.46238L11.6182 8.28113L11.4182 8.44988ZM10.4244 9.10613L10.4369 9.33113C10.4369 9.33113 10.4994 9.33113 10.5557 9.31238C10.6057 9.29363 10.6494 9.25613 10.6494 9.25613L10.6432 9.13738L10.4244 9.10613ZM9.58691 9.10613L9.57441 9.32488C9.57441 9.32488 9.51816 9.32488 9.46191 9.31238C9.41191 9.29988 9.36816 9.26863 9.36816 9.26863L9.30566 9.11863L9.58691 9.10613ZM8.58066 8.44988L8.41816 8.67488L8.24316 8.38738L8.37441 8.24988L8.58066 8.44988Z" fill="white" stroke="black" stroke-width="0.04"/>
<path d="M9.3623 9.55622C9.3623 9.76872 10.6498 9.76872 10.6498 9.55622V9.25623C10.6498 9.41248 9.3623 9.38123 9.3623 9.25623V9.55622Z" fill="white" stroke="black" stroke-width="0.04"/>
<path d="M8.21191 8.86238C8.32441 9.43738 9.36191 9.44988 9.36191 9.44988V9.25613C9.33691 9.18113 9.38066 9.15613 9.54941 9.13113C9.61816 9.12488 9.58691 9.02488 9.58691 9.02488C9.58691 9.02488 9.13691 9.10613 8.81816 8.98113C8.38691 8.80613 8.32441 8.46863 8.32441 8.46863C8.32441 8.46863 8.29316 8.73113 8.21191 8.86238ZM11.7932 8.86238C11.6869 9.43738 10.6494 9.44988 10.6494 9.44988V9.25613C10.6682 9.18113 10.6244 9.15613 10.4557 9.13113C10.3869 9.12488 10.4244 9.02488 10.4244 9.02488C10.4244 9.02488 10.8744 9.10613 11.1932 8.98113C11.6182 8.80613 11.6682 8.46863 11.6682 8.46863C11.6682 8.46863 11.7119 8.73113 11.7932 8.86238Z" fill="white" stroke="black" stroke-width="0.04"/>
<path d="M8.29327 8.64368C8.00577 8.48743 8.23077 8.32493 8.25577 7.86243C8.29952 8.14368 8.61827 8.26243 8.58077 8.44368C8.44952 8.44993 8.38702 8.24993 8.32452 8.46868L8.29327 8.64368ZM11.712 8.64368C11.9995 8.48118 11.762 8.32493 11.737 7.86243C11.6933 8.14368 11.3808 8.26243 11.4183 8.44368C11.5433 8.44993 11.6058 8.24993 11.6683 8.46868L11.712 8.63743V8.64368Z" fill="white" stroke="black" stroke-width="0.04"/>
<path d="M8.46843 8.85625L8.49968 8.88125L8.43093 8.95625C8.39968 8.9875 8.39656 9.00625 8.41531 9.025C8.43718 9.04687 8.45593 9.0375 8.47781 9.0125L8.55593 8.93125L8.58093 8.95625L8.50593 9.04375C8.46531 9.09062 8.42781 9.08125 8.39343 9.05C8.36843 9.025 8.34968 8.9875 8.39343 8.94063L8.46843 8.85625ZM8.59343 8.9625L8.62468 8.98125L8.61843 9.13125L8.68718 9.025L8.71843 9.04375L8.61843 9.20625L8.58093 9.1875L8.58718 9.0375L8.51843 9.14375L8.48718 9.125L8.59343 8.9625ZM8.64968 9.225L8.73718 9.05L8.76843 9.06875L8.68718 9.2375L8.64968 9.225ZM8.78718 9.075L8.71843 9.25625L8.78718 9.28125C8.84968 9.30312 8.88093 9.275 8.89968 9.22188C8.92156 9.16563 8.91218 9.12813 8.84968 9.1L8.78718 9.075ZM8.81218 9.11875C8.87468 9.14062 8.88093 9.16562 8.86218 9.2125C8.84343 9.25312 8.83093 9.26875 8.76843 9.2375L8.81218 9.11875ZM8.99343 9.14375L8.88093 9.3125L8.92468 9.325L8.94968 9.28125L9.02468 9.3L9.03093 9.34375L9.07468 9.35L9.03093 9.15L8.99343 9.14375ZM9.00593 9.1875L9.01843 9.2625L8.96843 9.25625L9.00593 9.1875ZM9.09968 9.15938L9.09343 9.35312H9.16531C9.23406 9.35625 9.25281 9.32187 9.25593 9.25937C9.25593 9.20312 9.23406 9.16562 9.16531 9.16562L9.09968 9.15938ZM9.13718 9.19063C9.20593 9.19375 9.21531 9.21562 9.21531 9.2625C9.21218 9.30937 9.20281 9.32813 9.13406 9.31875V9.19375L9.13718 9.19063ZM9.75593 9.43125V9.63125H9.79968V9.55625C9.79968 9.55625 9.83718 9.55625 9.86843 9.55C9.89031 9.54375 9.90906 9.52813 9.90906 9.4875C9.90906 9.45 9.88718 9.43125 9.84968 9.43125H9.75593ZM9.79968 9.4625H9.84343C9.87781 9.4625 9.87468 9.51875 9.84343 9.51875H9.79968V9.4625ZM9.98093 9.43125L9.89968 9.63125H9.94343L9.96218 9.58125H10.0434L10.0622 9.63125H10.1059L10.0247 9.43125H9.98093ZM9.99968 9.475L10.0309 9.55H9.97468L9.99968 9.475ZM10.1059 9.59375L10.2122 9.4625H10.1184V9.43125H10.2684V9.4625L10.1559 9.59375H10.2684V9.63125H10.1059V9.59375ZM10.7372 9.20625L10.7747 9.2L10.7934 9.3125C10.7997 9.35312 10.7809 9.37813 10.7528 9.39062C10.7216 9.40312 10.6778 9.39062 10.6747 9.3375L10.7059 9.33125C10.7122 9.3625 10.7247 9.36563 10.7372 9.3625C10.7528 9.35625 10.7591 9.3375 10.7559 9.31875L10.7372 9.20625ZM10.7997 9.19375L10.8341 9.1875L10.8528 9.28125C10.8591 9.32188 10.8716 9.3375 10.8997 9.33438C10.9309 9.32813 10.9341 9.30938 10.9278 9.27188L10.9059 9.175L10.9434 9.16875L10.9684 9.27188C10.9809 9.33438 10.9497 9.35625 10.9059 9.36563C10.8716 9.37188 10.8309 9.36563 10.8184 9.30313L10.7997 9.19375ZM10.9934 9.28125L11.0247 9.26875C11.0403 9.29688 11.0622 9.29375 11.0809 9.2875C11.1059 9.275 11.1122 9.25312 11.0966 9.24375C11.0778 9.23437 11.0341 9.25 11.0122 9.24375C10.9841 9.23125 10.9716 9.2125 10.9747 9.19063C10.9747 9.15938 10.9997 9.14687 11.0278 9.1375C11.0591 9.12812 11.0903 9.13125 11.1122 9.16875L11.0747 9.18125C11.0622 9.15937 11.0434 9.1625 11.0309 9.16875C11.0184 9.175 10.9997 9.18437 11.0122 9.2C11.0184 9.21562 11.0653 9.20625 11.0903 9.20625C11.1153 9.20625 11.1341 9.225 11.1372 9.24687C11.1434 9.28125 11.1309 9.3 11.0903 9.31563C11.0434 9.33438 10.9997 9.31563 10.9934 9.28125ZM11.1622 9.125L11.1122 9.15L11.0997 9.11875L11.2372 9.0625L11.2497 9.0875L11.1997 9.1125L11.2559 9.25L11.2247 9.26875L11.1622 9.125ZM11.2434 9.05625L11.2747 9.0375L11.3622 9.2L11.3309 9.21875L11.2434 9.05625ZM11.4559 9.06875L11.4934 9.05625C11.4983 9.06807 11.5 9.08093 11.4984 9.09361C11.4969 9.10629 11.4922 9.11837 11.4846 9.12869C11.4771 9.13902 11.4671 9.14726 11.4555 9.15263C11.4439 9.158 11.4312 9.16032 11.4184 9.15938C11.3247 9.15938 11.3122 9.05313 11.3278 9.01875C11.3528 8.95938 11.4216 8.9625 11.4528 8.99375L11.4216 9.01875C11.4028 8.99375 11.3591 9.00938 11.3591 9.03125C11.3549 9.04952 11.357 9.06864 11.3649 9.08562C11.3728 9.10259 11.3861 9.11645 11.4028 9.125C11.4341 9.1375 11.4778 9.1 11.4559 9.06875ZM11.4372 8.9375L11.4684 8.9125L11.5809 9.0625L11.5497 9.0875L11.4372 8.9375ZM11.5559 8.84375L11.5247 8.86875L11.5934 9.05625L11.6247 9.025L11.6059 8.9875L11.6622 8.9375L11.6997 8.95625L11.7309 8.93125L11.5559 8.84375ZM11.5684 8.8875L11.6309 8.91875L11.5934 8.95625L11.5684 8.8875Z" fill="black"/>
</g>
<defs>
<clipPath id="clip0_202_3535">
<rect width="20" height="15" fill="white"/>
</clipPath>
</defs>
</svg>
