<svg width="20" height="15" viewBox="0 0 20 15" fill="none" xmlns="http://www.w3.org/2000/svg">
<g clip-path="url(#clip0_202_3322)">
<path d="M0 0H20V15H0V0Z" fill="#E4002B"/>
<path d="M0 0H20V7.5L0 0Z" fill="#43B02A"/>
<path d="M20 7.5V15H0L20 7.5Z" fill="#418FDE"/>
<path d="M5.23047 4.19172C5.25964 4.21047 5.4013 4.01463 5.57005 3.93755C5.7138 3.87088 5.87422 3.87297 6.02422 3.89797C5.97839 4.15422 5.21797 4.20213 5.21381 4.30422C5.28672 4.3188 5.49505 4.2438 5.8138 4.19172C5.36172 4.80422 4.82422 4.51463 4.64714 4.56047C4.54714 4.58547 4.42422 4.67713 4.42422 4.72505C4.67006 4.62713 4.77631 4.83755 5.01589 4.71047C4.93672 5.17297 4.12006 5.37297 3.94922 5.10213C3.81589 5.23755 3.82631 5.28963 3.81173 5.32088C4.07631 5.19588 4.22839 5.48755 4.41381 5.25422C4.38672 5.71672 3.77423 6.02713 3.44298 5.9938C3.42006 6.03547 3.30964 6.27297 3.31798 6.31672C3.35548 6.30213 3.33256 6.23755 3.55339 6.21255C3.89089 6.17505 3.89506 6.1063 4.00131 5.89588C4.13047 6.13338 3.62631 6.90838 3.20756 7.13338C3.20131 7.18963 3.20964 7.34172 3.26381 7.40422C3.29506 7.2813 3.37006 7.25005 3.46589 7.18963C3.61798 7.09588 3.73464 7.04797 3.78881 6.73547C3.97214 7.02505 3.77006 7.97713 3.45131 8.34588C3.48464 8.41672 3.56798 8.59797 3.59506 8.63963C3.55339 8.47297 3.68673 8.42922 3.80339 8.23547C3.92006 8.03963 3.91798 7.69588 3.91381 7.64588C4.23047 8.06672 4.24922 9.32505 4.19922 9.46047C4.22214 9.50422 4.43464 9.68547 4.52631 9.74588C4.53672 9.7188 4.53047 9.72297 4.48464 9.62505C4.40131 9.46047 4.46172 8.97088 4.27214 8.63547C4.58256 8.6688 5.10756 9.47505 5.28255 9.78755C5.4763 10.1 5.69714 10.3417 6.09505 10.4875C6.45964 10.6209 6.88672 10.95 7.07213 11.15L6.89713 11.3C6.78255 11.2021 6.21797 10.6417 6.06172 10.6521C5.00131 10.7355 4.50339 10.5855 3.96797 10.3667C3.26381 10.0771 2.91173 9.41047 2.94089 9.3688C3.15131 9.56463 3.94506 9.7188 4.19506 9.70005L4.07422 9.58338C3.80339 9.66255 3.07423 9.28338 2.84714 8.92088C2.45965 8.2813 2.50756 7.79172 2.53048 7.75838C2.77839 8.23963 3.12006 8.38755 3.34506 8.50422L3.32839 8.38755C2.46798 8.01047 2.48048 7.07922 2.48048 6.96672C2.48048 6.5688 2.6159 6.35422 2.66381 6.3438C2.63048 6.63755 2.94923 7.06672 3.09298 7.17505L3.12006 7.08547C2.82839 6.83963 2.72839 6.38547 2.69506 6.12922C2.64506 5.67088 3.11589 5.15422 3.18048 5.12088C3.07839 5.62922 3.17423 5.85422 3.26381 6.03963L3.30548 5.94172C2.94923 5.30422 3.50756 4.37505 3.92214 4.3938C3.70131 4.59797 3.75131 4.98547 3.78464 5.07922C3.80756 5.04172 3.81381 5.03547 3.84298 5.00422C3.75548 4.3563 4.36589 3.98963 4.59089 3.91255C4.72839 3.87088 4.92006 3.86672 4.92214 3.8938C4.85964 3.96463 4.45339 4.10838 4.45756 4.50005C4.48047 4.47297 4.59506 4.4063 4.65964 4.38755C4.73672 4.04172 5.16381 3.80005 5.51172 3.80005C5.55547 3.80005 5.58255 3.8063 5.59089 3.81047C5.57214 3.82297 5.19714 4.1438 5.23047 4.19172Z" fill="#FFC72C"/>
<path d="M6.37932 10.7375C6.34599 11.0854 6.42932 11.1667 6.38141 11.2333C6.31891 11.1688 6.04807 11.2229 6.01682 11.1917C6.12099 10.9917 6.16266 9.55626 5.93349 8.77084C5.82724 8.67709 5.51683 8.31042 5.42724 8.22917C5.23349 8.38751 4.49183 8.39167 4.33766 7.79167C4.45433 7.87084 4.77099 7.98751 4.93974 7.95626C4.68349 7.86459 4.28558 7.56459 4.32725 7.17917C4.38766 7.21876 4.47933 7.35209 4.56058 7.38334C4.65224 7.41459 4.86891 7.37501 4.93766 7.41667C5.01474 7.46042 5.08766 7.59584 5.10433 7.63126C5.12933 7.56459 5.12099 7.23959 4.88766 7.15834C4.95641 7.10001 5.19183 7.14792 5.35016 7.35417C5.58141 7.66876 5.48558 7.97084 5.52724 8.09584C5.56058 8.19792 5.80433 8.43126 5.86683 8.47917C5.86891 8.30209 5.73349 8.02917 5.90641 7.42084C5.96682 7.20834 6.16682 6.89167 6.21057 6.75209C6.11891 6.65417 5.87933 6.42084 5.83141 6.39167C5.77933 6.38959 5.31891 6.47292 5.12516 6.35417C5.02099 6.29376 4.92933 6.22084 4.88974 6.11876C4.95641 6.12709 5.31058 6.17292 5.31474 6.13751C5.31891 6.10001 5.29599 6.11876 5.15224 6.02084C5.04599 5.92292 4.91891 5.80001 4.92933 5.45417C5.00016 5.55626 5.05641 5.70001 5.25433 5.66042C5.38558 5.64167 5.52724 5.80001 5.56058 5.87709C5.56474 5.79792 5.52724 5.56251 5.39808 5.41667C5.43766 5.36042 5.86474 5.69584 5.88349 5.98542C5.88766 6.08126 5.87724 6.15417 5.86891 6.23126C5.86474 6.28751 6.20432 6.61667 6.30224 6.59167C6.34182 6.58542 6.43974 6.16042 6.47724 5.96251C6.52307 5.72084 6.61682 5.25209 6.43557 4.97917C6.39182 5.00626 6.17724 5.08959 5.90641 4.80001C5.79391 4.67084 5.78349 4.53751 5.82724 4.49792C5.86683 4.56876 6.07516 4.74584 6.12516 4.71251C6.14182 4.64167 5.86474 4.61042 5.96891 4.20417C5.98557 4.15209 6.02516 4.13126 6.05641 4.12709C6.08766 4.30834 6.24182 4.33542 6.35641 4.58542C6.40016 4.50417 6.34807 4.39167 6.36266 4.31459C6.37932 4.23126 6.37724 4.13542 6.33141 4.10001C6.37724 4.08542 6.46057 4.10001 6.59182 4.41042C6.66474 4.59376 6.58557 4.85834 6.54599 4.91459C6.54391 4.98542 6.64807 5.06251 6.68141 5.35209C6.71891 5.60209 6.62724 5.97292 6.60849 6.05001C6.68766 6.00001 6.78557 5.95417 6.81682 5.85417C6.85016 5.73751 6.82307 5.50626 6.93349 5.32917C7.01057 5.19584 7.14182 5.10001 7.3564 5.16667C7.3314 5.23751 7.27099 5.19792 7.19182 5.28751C7.12932 5.38751 7.10016 5.46042 7.12724 5.53542C7.17724 5.52709 7.16266 5.43959 7.25849 5.38126C7.40432 5.30626 7.46682 5.38751 7.55432 5.36667C7.63557 5.34167 7.68557 5.28542 7.70849 5.25417C7.73349 5.31876 7.69807 5.52084 7.44599 5.67709C7.43974 5.68126 7.4314 5.68542 7.42515 5.68959C7.33765 5.73751 7.33557 5.70626 7.3189 5.72084C7.2939 5.74792 7.36057 5.77917 7.4689 5.76459C7.57724 5.75001 7.67515 5.71459 7.69807 5.64376C7.72307 5.66042 7.75432 5.78959 7.4939 5.96251C7.32099 6.06667 7.03141 6.02917 6.94391 5.98334C6.90224 6.00626 6.62307 6.17917 6.59599 6.23751C6.54391 6.47292 6.31266 7.02917 6.10016 7.41042C6.10432 7.44584 6.27099 7.39584 6.45016 7.23542C6.52932 7.16876 6.64807 6.68542 6.80641 6.55626C6.94182 6.45209 7.10016 6.46876 7.22515 6.47709C7.16474 6.49792 6.97516 6.60209 6.97516 6.78126C7.00016 6.80417 7.04391 6.70626 7.15849 6.68542C7.2689 6.67292 7.36265 6.74167 7.44599 6.74167C7.52932 6.74584 7.66682 6.66876 7.68557 6.64376C7.60849 7.01251 7.26474 7.11042 7.03557 7.12709C7.08141 7.20001 7.34182 7.26042 7.57724 7.09584C7.58765 7.13126 7.49807 7.35834 7.17724 7.45626C6.83141 7.56042 6.78557 7.36459 6.63974 7.37292C6.49807 7.37917 6.37307 7.51251 6.31266 7.54376C6.22099 7.59376 6.08557 7.58959 6.05849 7.62501C6.02099 7.67292 6.02724 8.08959 6.08974 8.38126C6.13349 8.58126 6.22932 8.88959 6.28349 9.08334C6.36682 9.00001 6.59807 8.96459 6.74391 8.62084C6.69182 8.46459 6.59807 7.84167 7.35224 7.69167C7.36682 7.72292 7.22515 7.78542 7.17724 7.87709C7.11057 7.97709 7.10432 8.16667 7.12724 8.23334C7.20016 8.14167 7.27724 8.01251 7.52932 8.02709C7.68765 8.03751 7.79599 7.98126 7.88557 7.87292C7.91265 7.88334 7.85849 8.15626 7.71265 8.32084C7.58765 8.46667 7.42099 8.53334 7.40015 8.59376C7.50224 8.58751 7.66682 8.57292 7.92307 8.33751C7.93349 8.39376 7.78765 8.72084 7.49182 8.87292C7.30432 8.95834 6.97307 8.95834 6.77932 8.85001C6.72932 8.93334 6.55641 9.16667 6.33557 9.27917C6.42099 10.0688 6.41057 10.3938 6.37932 10.7375Z" fill="#FFC72C"/>
<path d="M7.23047 4.19172C7.2013 4.21047 7.05963 4.01463 6.89088 3.93755C6.74713 3.87088 6.58672 3.87297 6.43672 3.89797C6.48255 4.15422 7.24297 4.20213 7.24713 4.30422C7.17422 4.3188 6.96588 4.2438 6.64713 4.19172C7.09922 4.80422 7.63671 4.51463 7.8138 4.56047C7.9138 4.58547 8.03671 4.67713 8.03671 4.72505C7.79088 4.62713 7.68463 4.83755 7.44505 4.71047C7.52421 5.17297 8.34088 5.37297 8.51171 5.10213C8.64505 5.23755 8.63463 5.28963 8.64921 5.32088C8.38463 5.19588 8.23255 5.48755 8.04713 5.25422C8.07421 5.71672 8.68671 6.02713 9.01796 5.9938C9.04088 6.03547 9.15129 6.27297 9.14296 6.31672C9.10546 6.30213 9.12838 6.23755 8.90754 6.21255C8.57005 6.17505 8.56588 6.1063 8.45963 5.89588C8.33046 6.13338 8.83463 6.90838 9.25338 7.13338C9.25963 7.18963 9.25129 7.34172 9.19713 7.40422C9.16588 7.2813 9.09088 7.25005 8.99504 7.18963C8.84296 7.09588 8.7263 7.04797 8.67213 6.73547C8.4888 7.02505 8.69088 7.97713 9.00963 8.34588C8.97629 8.41672 8.89296 8.59797 8.86588 8.63963C8.90754 8.47297 8.77421 8.42922 8.65755 8.23547C8.54088 8.03963 8.54296 7.69588 8.54713 7.64588C8.23046 8.06672 8.21171 9.32505 8.26171 9.46047C8.2388 9.50422 8.0263 9.68547 7.93463 9.74588C7.92421 9.7188 7.93046 9.72297 7.9763 9.62505C8.05963 9.46047 7.99921 8.97088 8.1888 8.63547C7.87838 8.6688 7.35338 9.47505 7.17838 9.78755C6.98463 10.1 6.7638 10.3417 6.36588 10.4875C6.0013 10.6209 5.57422 10.95 5.3888 11.15L5.5638 11.3C5.67839 11.2021 6.24297 10.6417 6.39922 10.6521C7.45963 10.7355 7.95755 10.5855 8.49296 10.3667C9.19713 10.0771 9.54921 9.41047 9.52004 9.3688C9.30963 9.56463 8.51588 9.7188 8.26588 9.70005L8.38671 9.58338C8.65755 9.66255 9.38671 9.28338 9.61379 8.92088C10.0013 8.2813 9.95338 7.79172 9.93046 7.75838C9.68254 8.23963 9.34088 8.38755 9.11588 8.50422L9.13254 8.38755C9.99296 8.01047 9.98046 7.07922 9.98046 6.96672C9.98046 6.5688 9.84504 6.35422 9.79713 6.3438C9.83046 6.63755 9.51171 7.06672 9.36796 7.17505L9.34088 7.08547C9.63254 6.83963 9.73254 6.38547 9.76588 6.12922C9.81588 5.67088 9.34504 5.15422 9.28046 5.12088C9.38254 5.62922 9.28671 5.85422 9.19713 6.03963L9.15546 5.94172C9.51171 5.30422 8.95338 4.37505 8.5388 4.3938C8.75963 4.59797 8.70963 4.98547 8.6763 5.07922C8.65338 5.04172 8.64713 5.03547 8.61796 5.00422C8.70546 4.3563 8.09505 3.98963 7.87005 3.91255C7.73255 3.87088 7.54088 3.86672 7.5388 3.8938C7.6013 3.96463 8.00755 4.10838 8.00338 4.50005C7.98046 4.47297 7.86588 4.4063 7.8013 4.38755C7.72421 4.04172 7.29713 3.80005 6.94922 3.80005C6.90547 3.80005 6.87838 3.8063 6.87005 3.81047C6.8888 3.82297 7.2638 4.1438 7.23047 4.19172Z" fill="#FFC72C"/>
</g>
<defs>
<clipPath id="clip0_202_3322">
<rect width="20" height="15" fill="white"/>
</clipPath>
</defs>
</svg>
