<svg width="20" height="15" viewBox="0 0 20 15" fill="none" xmlns="http://www.w3.org/2000/svg">
<g clip-path="url(#clip0_202_3349)">
<mask id="mask0_202_3349" style="mask-type:luminance" maskUnits="userSpaceOnUse" x="-1" y="0" width="22" height="16">
<path d="M-0.00390625 0H20.0504V15.04H-0.00390625V0Z" fill="white"/>
</mask>
<g mask="url(#mask0_202_3349)">
<path fill-rule="evenodd" clip-rule="evenodd" d="M-5.19434 0.102783H25.2969V14.7315H-5.19434V0.102783Z" fill="#FFC621"/>
<path fill-rule="evenodd" clip-rule="evenodd" d="M-5.25293 10.0609H25.2765V15.04H-5.25293V10.0609Z" fill="#EF2118"/>
<path fill-rule="evenodd" clip-rule="evenodd" d="M-5.19434 0H25.2969V5.2875H-5.19434V0Z" fill="#298C08"/>
<path d="M9.51247 10.941C11.262 10.941 12.6802 9.5227 12.6802 7.77321C12.6802 6.02371 11.262 4.60547 9.51247 4.60547C7.76297 4.60547 6.34473 6.02371 6.34473 7.77321C6.34473 9.5227 7.76297 10.941 9.51247 10.941Z" fill="#006BC6"/>
<path fill-rule="evenodd" clip-rule="evenodd" d="M8.09192 5.52837L7.90098 5.66056L8.5913 6.62993L8.77636 6.51243L8.08898 5.52837H8.09192ZM8.95555 7.81962L8.67061 7.61987L8.78811 7.24681L7.37517 7.26737L6.96392 6.95306L8.89386 6.9325L9.25223 5.84856L9.44611 6.28918L8.95555 7.81668V7.81962ZM11.2027 5.74281L11.0177 5.60181L10.3039 6.55356L10.4684 6.69162L11.2027 5.74281ZM9.28161 7.25562L9.38442 6.92662H9.77511L9.32861 5.58125L9.50486 5.09656L10.107 6.92956L11.2468 6.94424L10.8884 7.25856L9.28161 7.25268V7.25562ZM11.943 8.75962L12.0223 8.54224L10.8972 8.15156L10.815 8.35718L11.943 8.75962ZM9.91317 7.39662L10.2569 7.39368L10.3773 7.76381L11.517 6.92662L12.034 6.94424L10.4742 8.08106L10.812 9.17381L10.4008 8.92706L9.91317 7.39662ZM9.33155 10.3929L9.56361 10.3987L9.57242 9.20906L9.35505 9.19437L9.33155 10.3958V10.3929ZM9.9778 8.03406L10.0894 8.36012L9.77511 8.59512L10.9325 9.40881L11.0794 9.90231L9.50486 8.78606L8.57955 9.45287L8.68236 8.98287L9.97486 8.03406H9.9778ZM6.94336 8.41593L7.01092 8.63625L8.14773 8.27787L8.08898 8.06637L6.94336 8.41593ZM9.38736 8.29843L9.11123 8.507L8.79398 8.28081L8.37686 9.63206L7.95386 9.92581L8.52667 8.084L7.6043 7.40837L8.08311 7.36137L9.38736 8.29843Z" fill="#FFC621"/>
</g>
</g>
<defs>
<clipPath id="clip0_202_3349">
<rect width="20" height="15" fill="white"/>
</clipPath>
</defs>
</svg>
