<svg width="20" height="15" viewBox="0 0 20 15" fill="none" xmlns="http://www.w3.org/2000/svg">
<g clip-path="url(#clip0_202_3373)">
<mask id="mask0_202_3373" style="mask-type:luminance" maskUnits="userSpaceOnUse" x="-1" y="0" width="22" height="16">
<path d="M-0.00390625 0H20.0475V15.04H-0.00390625V0Z" fill="white"/>
</mask>
<g mask="url(#mask0_202_3373)">
<path fill-rule="evenodd" clip-rule="evenodd" d="M-5.01855 0H25.0614V15.04H-5.01855V0Z" fill="#6797D6"/>
<path fill-rule="evenodd" clip-rule="evenodd" d="M10.0159 3.61315L9.0642 4.26528L9.42845 3.21072L8.47376 2.55859H9.6517L10.0159 1.50403L10.3802 2.56153H11.5552L10.6034 3.21072L10.9677 4.26528M10.0159 11.4563L9.0642 10.8042L9.42845 11.8617L8.47376 12.5108H9.6517L10.0159 13.5654L10.3802 12.5079L11.5552 12.5108L10.6034 11.8587L10.9677 10.8042M5.43345 8.0899L4.71376 8.98878L4.75488 7.87253L3.65332 7.52884L4.78132 7.18515L4.81951 6.0689L5.47457 6.97365L6.60257 6.62703L5.87995 7.52884L6.53795 8.43065M14.5926 8.08697L15.3152 8.98878L15.2741 7.87253L16.3756 7.52884L15.2476 7.18515L15.2094 6.0689L14.5544 6.97365L13.4264 6.62703L14.149 7.52884L13.491 8.43065" fill="white"/>
</g>
</g>
<defs>
<clipPath id="clip0_202_3373">
<rect width="20" height="15" fill="white"/>
</clipPath>
</defs>
</svg>
