<svg width="20" height="15" viewBox="0 0 20 15" fill="none" xmlns="http://www.w3.org/2000/svg">
<g clip-path="url(#clip0_202_3383)">
<path d="M0 0V15H20V0H0Z" fill="#68BFE5"/>
<path d="M13.1533 6.03748V10.3C13.1533 11.6937 15.6721 12.5187 15.6721 12.5187C15.6721 12.5187 18.1877 11.6937 18.1877 10.3V6.03748H13.1533Z" fill="white"/>
<path d="M15.3221 7.53748V9.45623H13.1533V10.1531H15.3221V12.3875L15.6721 12.5219L16.0189 12.3875V10.1562H18.1877V9.45623H16.0189V7.53748H15.3221Z" fill="#D21034"/>
<path d="M13.1535 6.03748H18.1879V7.68748H13.1504L13.1535 6.03748Z" fill="#D21034"/>
<path d="M13.556 7.26861C13.7121 7.26861 13.8386 7.16629 13.8386 7.04007C13.8386 6.91385 13.7121 6.81152 13.556 6.81152C13.3999 6.81152 13.2734 6.91385 13.2734 7.04007C13.2734 7.16629 13.3999 7.26861 13.556 7.26861Z" fill="white" stroke="black" stroke-width="0.03" stroke-miterlimit="3"/>
<path d="M13.5561 7.0484C13.6949 7.0484 13.8075 6.99166 13.8075 6.92166C13.8075 6.85166 13.6949 6.79492 13.5561 6.79492C13.4172 6.79492 13.3047 6.85166 13.3047 6.92166C13.3047 6.99166 13.4172 7.0484 13.5561 7.0484Z" fill="white" stroke="black" stroke-width="0.03" stroke-miterlimit="3"/>
<path d="M13.5561 7.30401C13.6949 7.30401 13.8075 7.24727 13.8075 7.17728C13.8075 7.10728 13.6949 7.05054 13.5561 7.05054C13.4172 7.05054 13.3047 7.10728 13.3047 7.17728C13.3047 7.24727 13.4172 7.30401 13.5561 7.30401Z" fill="white" stroke="black" stroke-width="0.03" stroke-miterlimit="3"/>
<path d="M13.5561 7.16681C13.6949 7.16681 13.8075 7.11006 13.8075 7.04007C13.8075 6.97007 13.6949 6.91333 13.5561 6.91333C13.4172 6.91333 13.3047 6.97007 13.3047 7.04007C13.3047 7.11006 13.4172 7.16681 13.5561 7.16681Z" fill="white" stroke="black" stroke-width="0.03" stroke-miterlimit="3"/>
<path d="M18.0626 7.3562L18.0219 7.2437C18.0219 7.2437 17.9094 7.19683 17.9001 7.13745C17.8813 6.97808 17.8251 6.9187 17.7376 6.8937C17.6904 6.88035 17.64 6.88595 17.5969 6.90933C17.5719 6.94683 17.4407 6.94683 17.3719 6.94995C17.3001 6.94995 17.2969 6.9187 17.2969 6.9187C17.2438 6.9187 17.2188 6.87808 17.2188 6.87808C17.1844 6.8062 17.1563 6.77808 17.1376 6.7687C17.2313 6.7687 17.3001 6.72808 17.4063 6.6187C17.5188 6.49995 17.6001 6.5437 17.6001 6.5437C17.5438 6.6562 17.6188 6.64683 17.6188 6.64683C17.7688 6.5687 17.6376 6.37495 17.5938 6.38433C17.5469 6.3937 17.5344 6.36245 17.5344 6.36245C17.5344 6.39683 17.4844 6.41245 17.4844 6.41245C17.5219 6.19058 17.3907 6.1312 17.3907 6.1312C17.3719 6.14995 17.3594 6.19058 17.3594 6.19058C17.3219 6.32495 17.2001 6.30308 17.0626 6.23745C16.9251 6.17495 16.5626 6.3062 16.4469 6.35308C16.3313 6.39995 16.1219 6.4687 15.9344 6.36558C15.7469 6.25933 15.7001 6.27808 15.6251 6.29995C15.5532 6.3187 15.4219 6.34995 15.3751 6.32495C15.342 6.30827 15.3058 6.29869 15.2688 6.29683C15.2813 6.29058 15.2626 6.25933 15.2626 6.25933C15.2032 6.1812 15.2688 6.13433 15.2688 6.13433C15.2688 6.13433 15.1626 6.16558 15.2063 6.34683L15.2251 6.37183C15.2251 6.37183 15.2376 6.4312 15.2688 6.44683V6.45933C15.2688 6.45933 15.2969 6.44683 15.3032 6.48433C15.3126 6.52183 15.3532 6.48433 15.3688 6.45308C15.3688 6.45308 15.3407 6.62183 15.5469 6.66245C15.5469 6.66245 15.5251 6.63433 15.5313 6.6187C15.5407 6.59995 15.5063 6.58745 15.5094 6.56245C15.5126 6.53433 15.4594 6.52495 15.5001 6.50308C15.5438 6.48433 15.5626 6.4437 15.6563 6.49995C15.7469 6.55308 15.8188 6.54058 15.8188 6.54058C15.8188 6.54058 15.7626 6.42808 15.7938 6.42808C15.8251 6.42808 15.9626 6.59683 16.0282 6.59058C16.0969 6.5812 16.2282 6.50308 16.2938 6.5312C16.2938 6.5312 16.3001 6.49995 16.5501 6.4562C16.8001 6.41245 17.1126 6.28745 17.2282 6.39683C17.2282 6.39683 17.2407 6.48433 17.2907 6.5062C17.2907 6.5062 17.2813 6.68745 16.9719 6.58745L16.8594 6.5562C16.8594 6.5562 16.8407 6.50308 16.2501 6.6562C16.2501 6.6562 16.2157 6.6687 16.1907 6.68433C16.1688 6.69995 16.1376 6.67495 16.0188 6.71558C15.9032 6.76245 15.4657 6.90308 15.1969 6.85308C15.1376 6.83433 15.0844 6.8437 15.0813 6.83433C15.0813 6.82495 15.1126 6.83745 15.1126 6.83745C15.0938 6.81558 15.0844 6.81245 15.0844 6.81245C14.8594 6.78745 14.8969 6.68745 14.8969 6.68745L14.9094 6.7187C14.9469 6.6687 14.8969 6.5562 14.8969 6.5562H14.8938C14.8939 6.55308 14.8939 6.54995 14.8938 6.54683L14.9094 6.53433C15.0188 6.44058 15.1438 6.42495 15.1438 6.42495C15.0688 6.3312 14.9126 6.3812 14.9126 6.3812C14.9157 6.27183 14.8688 6.14058 14.8688 6.14058C14.7726 6.15638 14.6862 6.20906 14.6282 6.28745C14.6219 6.17183 14.4751 6.1062 14.4751 6.1062C14.5313 6.17183 14.4969 6.3312 14.4969 6.3312H14.5032H14.4876L14.4844 6.36558H14.4782C14.4782 6.36558 14.4251 6.38433 14.3626 6.52808C14.3626 6.52808 14.3563 6.55933 14.3313 6.59058V6.57808C14.3313 6.57808 14.2594 6.67183 14.1001 6.57808C14.1001 6.57808 13.8813 6.44995 13.8001 6.45308C13.7251 6.45933 13.6751 6.4937 13.6782 6.51558C13.6782 6.51558 13.5001 6.50308 13.4407 6.60308C13.4407 6.60308 13.3063 6.65308 13.4219 6.75933C13.4219 6.75933 13.4376 6.80933 13.4688 6.83433C13.4688 6.83433 13.4657 6.73433 13.4907 6.76245L13.5063 6.7812C13.5094 6.7937 13.5219 6.8312 13.5438 6.85308L13.5626 6.84683C13.5626 6.82183 13.5688 6.79058 13.5751 6.77808H13.5813L13.6126 6.82808L13.6438 6.80933C13.6626 6.80933 13.6844 6.82495 13.6844 6.82495L13.7251 6.79058C13.7657 6.79683 13.7782 6.71558 13.7782 6.71558C13.7946 6.71964 13.8116 6.72035 13.8282 6.71767C13.8449 6.71498 13.8608 6.70896 13.8751 6.69995C13.8938 6.76245 14.0376 6.83433 14.0376 6.83433H14.0438L14.0251 6.84683C14.0907 6.8937 14.2126 6.8812 14.2126 6.8812C14.1626 6.89995 14.1688 6.99683 14.1688 6.99683C14.1376 7.00933 14.1376 7.03745 14.1376 7.03745C14.2376 7.07808 14.3032 7.0437 14.3032 7.0437C14.3094 7.07495 14.3032 7.0812 14.3032 7.0812C14.2626 7.16558 14.2438 7.24995 14.2438 7.24995H14.2469V7.2562C14.2469 7.2562 14.0688 7.3187 13.9938 7.40308C13.9938 7.40308 13.9844 7.37808 13.9626 7.37808C13.9407 7.37808 13.8751 7.32183 13.8438 7.31245C13.8126 7.30308 13.7657 7.32183 13.7501 7.3062C13.7407 7.2937 13.7469 7.1937 13.7251 7.1812L13.7032 7.1187C13.6907 7.14995 13.6282 7.1437 13.6282 7.1437L13.6032 7.16245L13.5782 7.15933C13.5719 7.15933 13.5657 7.17495 13.5626 7.19058L13.5532 7.19995V7.1812C13.5438 7.19058 13.5188 7.17808 13.5094 7.17808C13.5032 7.17808 13.4969 7.19058 13.4938 7.2062L13.4344 7.20933C13.4251 7.21558 13.4344 7.29058 13.4344 7.29058C13.3626 7.32808 13.3969 7.38745 13.3969 7.38745C13.4344 7.57495 13.7563 7.49058 13.7813 7.51558C13.8063 7.54058 13.8626 7.54683 13.8907 7.54683C13.9219 7.54683 13.9563 7.61558 13.9969 7.62183C14.0376 7.62808 13.9969 7.56558 14.1876 7.52183C14.3782 7.47495 14.4438 7.39683 14.4438 7.39683C14.5032 7.38433 14.5188 7.31245 14.5219 7.28433L14.5282 7.32808C14.5376 7.3937 14.4907 7.42183 14.4907 7.42183L14.6563 7.3687C14.7219 7.35308 14.7126 7.2937 14.7126 7.2937C14.7751 7.47495 14.8907 7.48745 14.8907 7.48745C14.9126 7.4187 14.9094 7.39683 14.9094 7.39683H14.9626C14.9626 7.3562 14.9313 7.32808 14.9094 7.31558L14.9907 7.36245L15.0219 7.35933C15.0219 7.38745 15.0626 7.41245 15.0626 7.41245L15.0688 7.37495C15.1063 7.42495 15.1751 7.4062 15.1751 7.4062C15.1735 7.39776 15.1714 7.38941 15.1688 7.3812C15.3157 7.47183 15.5501 7.3562 15.5501 7.3562C15.6126 7.3687 15.6219 7.3312 15.6219 7.3312C15.6907 7.34058 15.7094 7.29058 15.7094 7.29058C15.8751 7.27808 15.9938 7.15933 15.9938 7.15933C16.0782 7.15308 16.0813 7.0937 16.0813 7.0937C16.0813 7.0937 16.1626 7.10933 16.2438 7.00933C16.4313 6.7437 16.7063 6.88433 16.7063 6.88433L16.5469 6.8937C16.1251 6.89058 16.3001 7.17495 16.3001 7.17495H16.3251C16.3657 7.1812 16.5032 7.29058 16.4501 7.3687V7.37495C16.3626 7.49058 16.2063 7.3812 16.1594 7.2812C16.1157 7.1812 16.0219 7.20308 16.0219 7.20308C16.0219 7.20308 15.7876 7.2437 15.8844 7.4312C15.8876 7.47808 15.9157 7.5312 16.0032 7.5812C16.0501 7.64995 16.2063 7.6562 16.3188 7.6312C16.3751 7.62495 16.6563 7.49995 16.6563 7.49995C16.6782 7.43745 16.7501 7.45308 16.8126 7.36245C16.8751 7.27495 16.7219 7.2437 16.6876 7.1937C16.6563 7.14683 16.6969 7.1562 16.6969 7.1562C16.8344 7.22808 16.8469 6.9937 16.8469 6.9937C16.851 7.03205 16.8658 7.06848 16.8895 7.09886C16.9133 7.12924 16.9451 7.15235 16.9813 7.16558C17.0532 7.0937 17.0001 6.94058 17.0001 6.94058C17.1782 7.25933 17.2844 7.2062 17.2844 7.2062C17.1907 7.14995 17.2376 7.0687 17.2376 7.0687C17.3219 7.4062 17.6751 7.11245 17.6751 7.11245C17.6563 7.16245 17.6751 7.19058 17.7063 7.22183C17.7376 7.25308 17.7751 7.26558 17.7563 7.32495C17.7407 7.3812 17.5751 7.3687 17.5751 7.3687C17.5751 7.3687 17.4188 7.36245 17.4313 7.4937C17.4407 7.52495 17.5438 7.53745 17.5876 7.52808C17.5876 7.52808 17.5688 7.53433 17.6282 7.54058H17.6969C17.7626 7.54058 17.8376 7.52808 17.8376 7.52808C17.9282 7.50933 17.9126 7.47808 17.9126 7.47808C18.0532 7.45308 18.0688 7.35933 18.0688 7.35933L18.0626 7.3562Z" fill="#FFD100" stroke="black" stroke-width="0.04" stroke-miterlimit="3"/>
<path d="M13.425 6.77178C13.425 6.77178 13.4344 6.75615 13.4469 6.75303C13.4594 6.75303 13.4719 6.75928 13.4844 6.77803L13.4937 6.77178C13.4937 6.77178 13.4563 6.71553 13.4688 6.67803C13.4781 6.65928 13.4938 6.64678 13.5188 6.64365V6.63428C13.4875 6.64053 13.4687 6.65303 13.4625 6.6749C13.4591 6.68175 13.457 6.68916 13.4563 6.69678C13.4563 6.71553 13.4625 6.73428 13.4719 6.7499C13.4647 6.74466 13.4557 6.74242 13.4469 6.74365C13.4414 6.74431 13.4363 6.74639 13.4319 6.74968C13.4275 6.75297 13.424 6.75736 13.4219 6.7624L13.425 6.77178ZM17.8312 7.52178C17.7375 7.5374 17.5969 7.54365 17.5844 7.51553C17.5844 7.50928 17.5844 7.49053 17.6594 7.44053L17.6531 7.4249C17.5875 7.46865 17.5594 7.49678 17.5688 7.51865C17.5906 7.5749 17.7938 7.54365 17.8344 7.5374L17.8312 7.52178ZM16.0063 7.5749C15.9844 7.54365 15.9969 7.49678 16.0375 7.44053L16.0219 7.43115C15.9781 7.49365 15.9688 7.54365 15.9906 7.5874L16.0063 7.5749Z" fill="black"/>
<path d="M15.8783 7.4312C15.8783 7.49058 15.9221 7.5437 16.0002 7.59058L16.0096 7.57495C15.9346 7.5312 15.8971 7.4812 15.8971 7.4312C15.8908 7.35308 15.9752 7.29058 15.9783 7.29058L15.9689 7.27808C15.9627 7.27808 15.8752 7.3437 15.8783 7.43433V7.4312ZM17.5033 7.45308C17.4783 7.4937 17.4877 7.54058 17.4877 7.54058H17.5033C17.5033 7.53745 17.4971 7.49683 17.5189 7.46245C17.5263 7.45234 17.5357 7.44382 17.5464 7.43738C17.5571 7.43094 17.5691 7.42671 17.5814 7.42495V7.40933C17.5471 7.41558 17.5189 7.4312 17.5064 7.45308H17.5033ZM13.7814 6.72183H13.7752V6.72808C13.7752 6.72808 13.7689 6.77808 13.7439 6.79058C13.7379 6.79301 13.7312 6.79301 13.7252 6.79058L13.6846 6.7687C13.6783 6.76245 13.6721 6.75933 13.6596 6.76245C13.6546 6.75643 13.6509 6.74943 13.6487 6.7419C13.6465 6.73436 13.646 6.72646 13.6471 6.7187C13.6502 6.69683 13.6658 6.67495 13.6971 6.6562L13.6908 6.64683C13.6596 6.6687 13.6408 6.6937 13.6377 6.7187C13.6377 6.74995 13.6533 6.7687 13.6533 6.7687V6.77183H13.6596C13.6689 6.7687 13.6689 6.77183 13.6783 6.77808L13.7221 6.80308H13.7533C13.7752 6.78745 13.7846 6.7437 13.7846 6.73433C13.8846 6.7562 13.9658 6.6312 13.9721 6.62808L13.9627 6.62183C13.9627 6.62183 13.8783 6.74683 13.7814 6.72183Z" fill="black"/>
<path d="M13.5346 6.70303C13.5313 6.72468 13.5357 6.74679 13.5471 6.76553C13.5564 6.78115 13.5689 6.79053 13.5783 6.79365C13.5939 6.79365 13.6033 6.78428 13.6158 6.7749C13.6221 6.76865 13.6283 6.7624 13.6346 6.7624L13.6439 6.76865L13.6502 6.7624L13.6346 6.75303C13.6252 6.75303 13.6158 6.75928 13.6096 6.76865C13.6033 6.77803 13.5908 6.78428 13.5783 6.78428C13.5721 6.78428 13.5627 6.7749 13.5533 6.75928C13.5483 6.75151 13.5448 6.7428 13.5432 6.73367C13.5416 6.72454 13.5418 6.71518 13.5439 6.70615C13.5564 6.6624 13.6096 6.62803 13.6096 6.62803L13.6064 6.61865C13.6033 6.61865 13.5471 6.65615 13.5346 6.70303ZM13.3971 7.3499C13.4002 7.33115 13.4158 7.31865 13.4377 7.30615C13.4314 7.30615 13.4564 7.3249 13.4783 7.3249L13.4939 7.31553C13.5002 7.32178 13.5377 7.35615 13.5377 7.3999C13.5377 7.40928 13.5377 7.41865 13.5314 7.42803L13.5408 7.43115C13.5689 7.36553 13.4971 7.30615 13.4971 7.30615H13.4908L13.4783 7.31553C13.4596 7.31553 13.4377 7.29678 13.4377 7.29678C13.4064 7.30928 13.3939 7.32803 13.3877 7.34678L13.3971 7.3499ZM13.7189 7.18115C13.6971 7.18428 13.6408 7.19365 13.6221 7.2249C13.6158 7.2374 13.6127 7.2499 13.6189 7.2624L13.6252 7.28115C13.6439 7.33115 13.6627 7.38115 13.6846 7.39365L13.6877 7.38428C13.6689 7.3749 13.6502 7.32178 13.6346 7.27803L13.6283 7.25928C13.6256 7.25453 13.6241 7.24914 13.6241 7.24365C13.6241 7.23817 13.6256 7.23278 13.6283 7.22803C13.6439 7.20615 13.6971 7.19678 13.7221 7.19365C13.7346 7.19365 13.7377 7.24053 13.7408 7.26865H13.7502C13.7471 7.2249 13.7408 7.18115 13.7189 7.18115Z" fill="black"/>
<path d="M13.5595 7.23121C13.547 7.24058 13.5502 7.25621 13.5502 7.25933C13.5502 7.26246 13.5564 7.38433 13.6127 7.40933L13.6158 7.39996C13.5658 7.37808 13.5595 7.25933 13.5595 7.25621C13.5595 7.25621 13.5595 7.24371 13.5658 7.23746C13.5752 7.23121 13.5908 7.22808 13.6158 7.23746L13.6189 7.22808C13.5908 7.21871 13.572 7.22183 13.5595 7.22808V7.23121Z" fill="black"/>
<path d="M13.5122 7.2406C13.4872 7.25935 13.4904 7.30935 13.4904 7.31248H13.4997C13.4997 7.31248 13.4997 7.26248 13.5185 7.24998C13.5279 7.24373 13.5372 7.24373 13.5497 7.24998L13.5529 7.23748C13.5372 7.23123 13.5216 7.23123 13.5122 7.23748V7.2406Z" fill="black"/>
<path d="M14.8875 6.56849C14.8875 6.56849 14.9145 6.63082 14.9145 6.67861C14.9145 6.68692 14.9104 6.69315 14.9083 6.69938L14.8979 6.67237L14.8917 6.69315C14.8917 6.69315 14.8792 6.72224 14.8979 6.7534C14.9228 6.79496 14.9852 6.81989 15.0849 6.83028V6.83236C15.082 6.83231 15.0791 6.83303 15.0766 6.83443L15.0724 6.83859V6.8469C15.0766 6.85729 15.087 6.85729 15.1098 6.85729L15.1244 6.85937L15.1368 6.86352L15.1348 6.86144C15.1555 6.86144 15.1826 6.86768 15.2096 6.87806L15.1888 6.88222L15.2116 6.89261C15.2137 6.89261 15.3924 6.96533 15.4651 7.0235C15.4443 7.0422 15.355 7.10661 15.2013 7.06921L15.1763 7.06298L15.1929 7.08376C15.1929 7.08376 15.2948 7.20011 15.3155 7.27075C15.2802 7.27075 15.1452 7.27075 15.0974 7.22919L15.087 7.23958C15.087 7.23958 15.1493 7.33516 15.1659 7.40787C15.1452 7.41203 15.1036 7.41411 15.0766 7.37879L15.0641 7.36424L15.0579 7.4058C15.0454 7.39541 15.0288 7.38294 15.0288 7.36632V7.35801L14.9914 7.36424L14.9125 7.31646C14.9084 7.3135 14.9043 7.31073 14.9 7.30815L14.8917 7.32269L14.9041 7.32892C14.9208 7.34139 14.9499 7.36424 14.9519 7.39749H14.9021V7.40787C14.9021 7.41411 14.9021 7.43696 14.8834 7.48475C14.8605 7.48059 14.7733 7.44943 14.7213 7.30191L14.7047 7.30607V7.31022C14.7047 7.32477 14.7005 7.35801 14.6548 7.37048L14.5198 7.41203C14.5316 7.39502 14.5375 7.37455 14.5364 7.35385V7.33723C14.5339 7.31933 14.5325 7.30129 14.5322 7.28321C14.5322 7.25205 14.5385 7.23335 14.5613 7.22088L14.553 7.20426C14.5509 7.20426 14.3536 7.28529 14.2559 7.25205C14.2601 7.23127 14.2767 7.16479 14.3099 7.09414L14.3058 7.0983C14.312 7.09414 14.3182 7.08583 14.312 7.05259V7.0422L14.3016 7.04636C14.3016 7.04636 14.2393 7.07544 14.1479 7.0422C14.1479 7.03389 14.1541 7.02142 14.1728 7.01311L14.179 7.01104V6.99441C14.179 6.96948 14.1811 6.91131 14.2164 6.89884L14.2123 6.88222C14.2123 6.88222 14.1063 6.89053 14.0419 6.85521C14.0697 6.83521 14.1017 6.82172 14.1354 6.81573H14.1416V6.80742C14.1414 6.79096 14.1378 6.77472 14.1312 6.75964C14.1562 6.76795 14.1853 6.77418 14.1957 6.76587L14.1998 6.76379L14.1957 6.69938H14.179L14.1811 6.7534L14.1188 6.73886L14.0938 6.73055L14.1105 6.75133C14.1205 6.76597 14.1256 6.78344 14.125 6.80119C14.0873 6.80933 14.0518 6.82565 14.0211 6.84898L14.0107 6.85729L14.0211 6.86352C14.071 6.89676 14.1479 6.90092 14.1873 6.89884C14.1697 6.92682 14.1603 6.95924 14.1603 6.99234V7.00065C14.1521 7.00547 14.145 7.01208 14.1396 7.01999C14.1342 7.02789 14.1306 7.0369 14.1292 7.04636V7.05259L14.1333 7.05467C14.1849 7.07838 14.2434 7.08208 14.2975 7.06506V7.08376C14.2559 7.17102 14.2351 7.2562 14.2351 7.2562V7.26451H14.2414C14.3224 7.29776 14.4637 7.25413 14.5281 7.23127C14.5198 7.24581 14.5135 7.26244 14.5135 7.28321C14.5138 7.30689 14.5159 7.3305 14.5198 7.35385C14.5198 7.40164 14.4886 7.42034 14.4865 7.42034L14.4928 7.43696L14.659 7.3871C14.6964 7.37671 14.7109 7.35385 14.7172 7.33516C14.7816 7.4889 14.8834 7.50137 14.8896 7.50345H14.8958L14.8979 7.49722C14.9089 7.47069 14.9159 7.44268 14.9187 7.41411C14.9353 7.41346 14.9519 7.41277 14.9686 7.41203V7.40164C14.9686 7.3871 14.9665 7.37463 14.9602 7.36424L14.9893 7.38086L15.0163 7.37671C15.0226 7.40372 15.0558 7.42657 15.06 7.42865L15.0704 7.43488L15.0766 7.39956C15.1182 7.43488 15.1742 7.4245 15.1784 7.4245L15.1846 7.42242V7.41411C15.1763 7.35801 15.1389 7.29152 15.1161 7.2562C15.1888 7.28945 15.3218 7.28737 15.328 7.28737H15.3363V7.27698C15.3089 7.20824 15.2695 7.14492 15.22 7.08999C15.3903 7.12115 15.4817 7.03181 15.4859 7.02766L15.4921 7.02142L15.4838 7.01727C15.4092 6.96391 15.3282 6.91995 15.2428 6.88638L15.2615 6.88222L15.2407 6.87183C15.2034 6.85278 15.1621 6.84281 15.1202 6.84274C15.0995 6.81781 15.0891 6.81573 15.087 6.81366C14.9706 6.80119 14.9291 6.77002 14.9125 6.74509V6.73886L14.9166 6.73263C14.927 6.71808 14.9312 6.69938 14.9312 6.67861C14.9312 6.62459 14.9041 6.56433 14.9041 6.56226L14.8875 6.56849Z" fill="black"/>
<path d="M14.3577 6.53523C14.3577 6.53523 14.3452 6.59756 14.2912 6.62873C14.2497 6.64951 14.1977 6.64951 14.1333 6.6225L14.125 6.62042V6.62873C14.1296 6.65547 14.1446 6.67933 14.1666 6.69522C14.1936 6.71599 14.2351 6.7243 14.2891 6.72015C14.2704 6.74092 14.2143 6.81157 14.2143 6.88221V6.8926C14.2227 6.89675 14.3099 6.92168 14.3515 6.86974C14.3515 6.89052 14.3598 6.96324 14.3868 6.99025C14.4034 7.00687 14.4076 7.02765 14.4076 7.04634C14.4076 7.06297 14.4034 7.07543 14.4034 7.07543L14.3993 7.0879L14.4096 7.07959C14.4138 7.07751 14.4948 7.01726 14.5198 6.94038C14.5198 6.94038 14.5343 6.91961 14.5592 6.91337V6.92376C14.5592 6.95493 14.5717 7.00895 14.659 7.04219L14.6652 7.04427V7.03803C14.665 7.03319 14.665 7.02834 14.6652 7.02349C14.6652 7.00064 14.6652 6.96116 14.6881 6.94038C14.6973 6.93183 14.7034 6.92053 14.7057 6.90817C14.7079 6.89582 14.7061 6.88306 14.7005 6.87182C14.7192 6.87597 14.7608 6.89052 14.7774 6.92168C14.8023 6.96739 14.8875 6.92999 14.8917 6.92999L14.8896 6.91961C14.8896 6.91961 14.8522 6.92792 14.8293 6.91337C14.8245 6.90962 14.8206 6.90491 14.8177 6.89955C14.8149 6.89418 14.8132 6.88827 14.8127 6.88221L14.8086 6.83234C14.8086 6.81157 14.8044 6.79702 14.794 6.78663C14.8044 6.78663 14.8273 6.78663 14.8356 6.80741C14.8522 6.84065 14.9041 6.84273 14.9062 6.84273L14.9249 6.84481L14.9104 6.83442C14.9104 6.83442 14.8647 6.80533 14.873 6.76586L14.8792 6.73677C14.8917 6.68483 14.9124 6.59964 14.8937 6.54562L14.8854 6.54978C14.8896 6.56224 14.8917 6.57887 14.8917 6.59549C14.8917 6.6412 14.8771 6.69937 14.8709 6.73469L14.8626 6.76378C14.8622 6.76723 14.8622 6.77071 14.8626 6.77417C14.8626 6.80118 14.8771 6.81988 14.8896 6.83027C14.875 6.82819 14.8543 6.81988 14.848 6.80326C14.8335 6.77417 14.8002 6.77417 14.7857 6.77625L14.7732 6.77832L14.7816 6.78663C14.7961 6.79494 14.7982 6.80741 14.7982 6.83442L14.8023 6.88221C14.8044 6.89883 14.8127 6.91129 14.8231 6.91961C14.8356 6.92792 14.848 6.92792 14.8584 6.92999C14.8335 6.93623 14.7982 6.94038 14.7857 6.91753C14.7629 6.87182 14.6964 6.86143 14.6943 6.85935H14.6839L14.6881 6.86766C14.6881 6.86766 14.6964 6.88013 14.6964 6.89675C14.6964 6.90714 14.6922 6.92168 14.6818 6.93207C14.659 6.95493 14.6548 6.99856 14.6548 7.02141V7.02972C14.58 6.99856 14.5675 6.95285 14.5675 6.92584V6.90506L14.5717 6.89883H14.5634C14.5525 6.90069 14.5421 6.90502 14.5331 6.91151C14.5241 6.91799 14.5167 6.92644 14.5115 6.93623C14.4908 6.98701 14.4571 7.03144 14.4138 7.06504C14.415 7.05818 14.4157 7.05123 14.4159 7.04427C14.4159 7.02557 14.4117 7.00271 14.3951 6.98401C14.3639 6.95493 14.3598 6.85935 14.3598 6.85935V6.84273L14.3515 6.85728C14.3182 6.91545 14.2227 6.88636 14.2206 6.88636C14.2164 6.81364 14.3037 6.71807 14.3037 6.71599L14.312 6.70768H14.2995C14.2434 6.71599 14.1998 6.70768 14.1707 6.6869C14.1542 6.67374 14.1425 6.65547 14.1375 6.63496C14.1998 6.65782 14.2538 6.6599 14.2954 6.63704C14.3133 6.62613 14.3289 6.61165 14.341 6.5945C14.3532 6.57734 14.3617 6.55788 14.366 6.53731C14.4283 6.40018 14.4803 6.37733 14.4803 6.37733L14.4782 6.36902C14.4741 6.36902 14.42 6.3898 14.3577 6.53523Z" fill="black"/>
<path d="M14.4974 6.3296H14.4932L14.4434 6.39816H14.4579C14.6129 6.41037 14.7583 6.47827 14.8672 6.58931L14.8734 6.59554L14.9212 6.5436L14.9171 6.53736C14.782 6.32544 14.4995 6.3296 14.4953 6.3296H14.4974ZM14.5015 6.34829C14.5348 6.34829 14.7758 6.35453 14.9005 6.54152L14.8734 6.57061C14.7638 6.46644 14.6228 6.40142 14.4724 6.38569C14.4821 6.37321 14.4918 6.36074 14.5015 6.34829Z" fill="black"/>
<path d="M14.4574 6.47091C14.4351 6.50015 14.4201 6.53436 14.4138 6.57064L14.4159 6.57895C14.4014 6.5941 14.3903 6.61207 14.3832 6.63174C14.376 6.6514 14.373 6.67234 14.3743 6.69322C14.3743 6.72023 14.3785 6.74724 14.3868 6.77217L14.393 6.78672C14.418 6.85736 14.4408 6.91969 14.5551 6.88229C14.6631 6.84905 14.6673 6.84074 14.6943 6.79503L14.7026 6.78464C14.7172 6.75971 14.7338 6.75555 14.7504 6.74932C14.7712 6.74308 14.7919 6.73685 14.8127 6.69945L14.8293 6.67244C14.8501 6.64543 14.8751 6.61011 14.8771 6.56856H14.8688C14.8626 6.60463 14.8468 6.63836 14.8231 6.66621L14.8023 6.6953C14.7978 6.70678 14.7905 6.71697 14.7811 6.72494C14.7716 6.73292 14.7604 6.73844 14.7483 6.74101C14.7372 6.74312 14.7266 6.74754 14.7173 6.75399C14.708 6.76043 14.7002 6.76875 14.6943 6.77841L14.686 6.79087C14.6611 6.8345 14.6569 6.84074 14.5509 6.87398C14.447 6.90722 14.4263 6.85528 14.4013 6.78256L14.3951 6.76802C14.366 6.68906 14.3889 6.61011 14.4284 6.58103L14.4408 6.57064L14.4221 6.57271V6.57064C14.4221 6.55609 14.4367 6.51662 14.4637 6.47714C14.4886 6.4439 14.5468 6.41273 14.5468 6.41065L14.5426 6.40234C14.5385 6.40442 14.4824 6.43766 14.4574 6.47091Z" fill="black"/>
<path d="M14.4074 6.75963C14.4261 6.77209 14.451 6.77001 14.4843 6.75963C14.4843 6.77001 14.4843 6.79495 14.5051 6.81157C14.53 6.83235 14.5674 6.8365 14.6193 6.82403V6.81365C14.5695 6.82611 14.5321 6.82196 14.5113 6.80326C14.5047 6.79684 14.4996 6.78904 14.4963 6.78042C14.4931 6.7718 14.4918 6.76257 14.4926 6.75339V6.74508L14.4864 6.74924C14.4552 6.7617 14.4303 6.76378 14.4116 6.74924C14.3804 6.72846 14.3825 6.67236 14.3825 6.67236H14.3742C14.3742 6.67236 14.37 6.73469 14.4074 6.75963Z" fill="black"/>
<path d="M14.4656 6.68278C14.4532 6.68694 14.449 6.69733 14.449 6.70564V6.71187C14.4532 6.7368 14.4802 6.75342 14.503 6.75966C14.528 6.76589 14.5571 6.76797 14.5674 6.75342C14.5716 6.74719 14.5757 6.7368 14.5674 6.7181C14.5585 6.70057 14.5432 6.68713 14.5246 6.68056C14.5061 6.67399 14.4857 6.67478 14.4677 6.68278H14.4656ZM14.5072 6.75135C14.4864 6.74511 14.4615 6.73057 14.4594 6.70979C14.4594 6.70979 14.4573 6.69525 14.4698 6.69109C14.4858 6.68459 14.5038 6.6844 14.52 6.69056C14.5361 6.69673 14.5494 6.7088 14.5571 6.72434C14.5633 6.73265 14.5633 6.74096 14.5591 6.74511C14.5529 6.7555 14.53 6.75758 14.5072 6.75135ZM14.4989 6.80744C14.4926 6.85939 14.4989 6.86146 14.501 6.86146H14.5051L14.5093 6.85939L14.5384 6.81783L14.501 6.80121V6.80744H14.4989ZM14.5093 6.81575L14.5238 6.82199L14.5072 6.84484V6.81575H14.5093ZM14.422 6.76589L14.4199 6.81368L14.4615 6.76381L14.4199 6.75966V6.76589H14.422ZM14.4303 6.77005H14.4428L14.4303 6.78667V6.77005Z" fill="black"/>
<path d="M14.3931 6.74925C14.3931 6.74925 14.4242 6.8095 14.4305 6.83235C14.4326 6.84482 14.4513 6.86144 14.472 6.86767C14.4928 6.87598 14.5136 6.87598 14.5281 6.8656L14.5551 6.84274C14.5634 6.83235 14.5676 6.83027 14.5759 6.83235V6.82196C14.5634 6.82196 14.5572 6.82612 14.5489 6.83443L14.5219 6.85521C14.5053 6.86767 14.4866 6.86352 14.4762 6.85936C14.4554 6.85313 14.4409 6.83859 14.4388 6.8282C14.4326 6.80742 14.4035 6.74717 14.4014 6.74509L14.3931 6.74925ZM14.4346 6.57056C14.4112 6.58289 14.3934 6.6037 14.3848 6.62874L14.3931 6.63082C14.3931 6.63082 14.4076 6.59342 14.4367 6.57887C14.4445 6.57532 14.453 6.57347 14.4616 6.57347C14.4702 6.57347 14.4787 6.57532 14.4866 6.57887L14.4887 6.57056C14.4679 6.56225 14.4513 6.56225 14.4326 6.57056H14.4346ZM14.659 6.6786C14.6632 6.6786 14.7255 6.72847 14.6902 6.78664L14.6964 6.79288C14.738 6.72431 14.6653 6.67029 14.6653 6.66822L14.659 6.6786ZM14.4679 6.68691C14.4679 6.68691 14.4575 6.72224 14.5094 6.7347C14.5094 6.7347 14.4616 6.7347 14.4575 6.72224C14.4554 6.70977 14.4575 6.68276 14.4679 6.68691ZM14.6237 6.72847C14.6237 6.73262 14.6195 6.7347 14.6175 6.7347C14.6161 6.73478 14.6148 6.73441 14.6137 6.73366C14.6125 6.73292 14.6117 6.73182 14.6112 6.73055C14.6112 6.72639 14.6133 6.72431 14.6175 6.72431C14.6195 6.72431 14.6237 6.72639 14.6237 6.73055V6.72847ZM14.6279 6.7534C14.6279 6.75548 14.6279 6.75756 14.6237 6.75756C14.6224 6.75763 14.621 6.75727 14.6199 6.75652C14.6188 6.75577 14.6179 6.75467 14.6175 6.7534C14.6175 6.75175 14.6181 6.75016 14.6193 6.74899C14.6205 6.74782 14.622 6.74717 14.6237 6.74717C14.6258 6.74717 14.6279 6.74924 14.6279 6.7534Z" fill="black"/>
<path d="M14.5902 6.74721C14.5937 6.74721 14.5964 6.74442 14.5964 6.74097C14.5964 6.73753 14.5937 6.73474 14.5902 6.73474C14.5868 6.73474 14.584 6.73753 14.584 6.74097C14.584 6.74442 14.5868 6.74721 14.5902 6.74721Z" fill="black"/>
<path d="M14.6072 6.77421C14.6072 6.77586 14.6066 6.77745 14.6054 6.77862C14.6043 6.77979 14.6027 6.78044 14.601 6.78044C14.5994 6.78044 14.5978 6.77979 14.5966 6.77862C14.5954 6.77745 14.5948 6.77586 14.5948 6.77421C14.5948 6.77213 14.5969 6.77005 14.601 6.77005L14.6072 6.77421ZM14.4597 6.62254C14.4597 6.62419 14.4591 6.62578 14.4579 6.62695C14.4567 6.62811 14.4552 6.62877 14.4535 6.62877C14.4518 6.62877 14.4503 6.62811 14.4491 6.62695C14.4479 6.62578 14.4473 6.62419 14.4473 6.62254C14.4478 6.62168 14.4486 6.62098 14.4495 6.62049C14.4504 6.62001 14.4514 6.61975 14.4525 6.61975C14.4535 6.61975 14.4545 6.62001 14.4554 6.62049C14.4563 6.62098 14.4571 6.62168 14.4577 6.62254H14.4597Z" fill="black"/>
<path d="M14.4574 6.65163C14.4608 6.65163 14.4636 6.64884 14.4636 6.64539C14.4636 6.64195 14.4608 6.63916 14.4574 6.63916C14.454 6.63916 14.4512 6.64195 14.4512 6.64539C14.4512 6.64884 14.454 6.65163 14.4574 6.65163Z" fill="black"/>
<path d="M14.4262 6.64125C14.4296 6.64125 14.4324 6.63846 14.4324 6.63502C14.4324 6.63157 14.4296 6.62878 14.4262 6.62878C14.4227 6.62878 14.4199 6.63157 14.4199 6.63502C14.4199 6.63846 14.4227 6.64125 14.4262 6.64125Z" fill="black"/>
<path d="M14.4411 6.6682C14.4411 6.66955 14.4408 6.67089 14.44 6.67201C14.4393 6.67314 14.4382 6.67399 14.4369 6.67444C14.4352 6.67444 14.4337 6.67378 14.4325 6.67261C14.4313 6.67144 14.4307 6.66986 14.4307 6.6682C14.4307 6.66655 14.4313 6.66496 14.4325 6.6638C14.4337 6.66263 14.4352 6.66197 14.4369 6.66197C14.4382 6.66242 14.4393 6.66327 14.44 6.66439C14.4408 6.66552 14.4411 6.66685 14.4411 6.6682ZM14.5408 6.46875C14.5408 6.46875 14.6135 6.51445 14.5429 6.59964C14.5429 6.59964 14.5782 6.57263 14.5803 6.529C14.5844 6.48537 14.5553 6.45005 14.5387 6.46875H14.5408ZM14.8213 6.59133C14.7963 6.6038 14.7631 6.58094 14.7465 6.56016C14.7299 6.53939 14.6945 6.53315 14.6717 6.57263C14.6509 6.61003 14.6197 6.62457 14.6197 6.62457C14.6197 6.62457 14.6509 6.60795 14.6821 6.57263C14.7132 6.53939 14.7319 6.5664 14.7631 6.58302C14.7922 6.59964 14.7984 6.60379 14.8192 6.59341V6.59133H14.8213Z" fill="black"/>
<path d="M14.815 6.59758C14.8084 6.60272 14.8002 6.60533 14.7918 6.60495C14.7834 6.60457 14.7754 6.60122 14.7693 6.59551C14.7485 6.57889 14.734 6.55811 14.7111 6.57058C14.6862 6.58304 14.6426 6.61628 14.6426 6.61628C14.6426 6.61628 14.7153 6.56642 14.7298 6.57889C14.7423 6.58927 14.7755 6.61628 14.7942 6.60797L14.815 6.59758Z" fill="black"/>
<path d="M14.7589 6.62673C14.7361 6.61011 14.7132 6.64751 14.6945 6.64336C14.6737 6.6392 14.6592 6.60596 14.6592 6.60596C14.6592 6.60596 14.6758 6.6392 14.7007 6.63297C14.7277 6.62466 14.7444 6.60803 14.761 6.6205C14.7755 6.63297 14.7589 6.62673 14.7589 6.62673Z" fill="black"/>
<path d="M14.7237 6.63298C14.7178 6.6342 14.7116 6.6341 14.7057 6.63269C14.6998 6.63129 14.6943 6.62861 14.6896 6.62485C14.6848 6.62109 14.6809 6.61634 14.6782 6.61092C14.6755 6.60551 14.674 6.59956 14.6738 6.59351C14.6738 6.59351 14.6884 6.6309 14.7278 6.62467L14.7237 6.63298Z" fill="black"/>
<path d="M14.7212 6.60385C14.7232 6.61424 14.7232 6.62047 14.7108 6.62047C14.6983 6.62047 14.69 6.61632 14.69 6.60385C14.69 6.59346 14.7191 6.59554 14.7212 6.60385ZM14.5591 6.54152C14.5586 6.54501 14.5569 6.54819 14.5542 6.55049C14.5515 6.55278 14.5481 6.55402 14.5446 6.55399C14.5363 6.55399 14.5342 6.54983 14.5342 6.54152C14.5342 6.53321 14.5342 6.52698 14.5446 6.52698C14.555 6.52698 14.5591 6.53321 14.5591 6.54152Z" fill="black"/>
<path d="M14.507 6.48958C14.507 6.48958 14.586 6.48958 14.5486 6.58723C14.5486 6.58723 14.5777 6.53945 14.559 6.50413C14.5382 6.47088 14.5112 6.47919 14.5112 6.47919C14.5112 6.47919 14.5029 6.48543 14.507 6.48958Z" fill="black"/>
<path d="M14.507 6.52909C14.507 6.54987 14.5194 6.56857 14.5444 6.58935L14.5506 6.58103C14.5277 6.56234 14.5153 6.54571 14.5153 6.52909C14.5153 6.51247 14.5277 6.50208 14.5277 6.50208L14.5215 6.49585C14.5215 6.49585 14.507 6.50832 14.5049 6.52909H14.507Z" fill="black"/>
<path d="M14.524 6.54571C14.5261 6.5561 14.5365 6.56649 14.5489 6.57064L14.5531 6.56233C14.5427 6.55818 14.5344 6.54986 14.5323 6.54155C14.5282 6.52493 14.5406 6.50623 14.5406 6.50623L14.5323 6.5C14.5323 6.5 14.5178 6.52493 14.524 6.54571ZM14.63 6.59973C14.63 6.59973 14.6445 6.63089 14.6237 6.66414L14.603 6.69738C14.603 6.69738 14.6279 6.64959 14.6175 6.63089C14.6092 6.61012 14.63 6.59973 14.63 6.59973ZM14.9333 6.928C15.0123 6.94255 15.193 7.08383 15.193 7.08383L15.2034 7.07136C15.1972 7.06513 15.0185 6.92593 14.9354 6.91138L14.9312 6.928H14.9333ZM15.004 7.12538C15.0081 7.1981 15.0871 7.24173 15.0871 7.24381L15.0975 7.22927C15.0975 7.22927 15.0247 7.18771 15.0206 7.12538H15.004ZM14.8107 7.14201C14.8107 7.22096 14.8855 7.31653 14.8897 7.32069L14.9022 7.3103C14.9022 7.3103 14.8274 7.21472 14.8274 7.14201H14.8107ZM14.5593 7.15032C14.5718 7.17733 14.5718 7.18979 14.5676 7.19603C14.5635 7.20434 14.5552 7.20434 14.5552 7.20434L14.5573 7.22096C14.5635 7.22096 14.576 7.2168 14.5822 7.20434C14.5905 7.18979 14.5884 7.16902 14.5739 7.14201L14.5593 7.15032Z" fill="black"/>
<path d="M13.4248 6.75934C13.4248 6.75934 13.4279 6.81246 13.4686 6.84371C13.4686 6.84371 13.4654 6.78746 13.4779 6.76246C13.4779 6.76246 13.4561 6.73746 13.4248 6.75934ZM13.5061 6.79059C13.5061 6.79059 13.5154 6.84059 13.5436 6.86246L13.5623 6.85934C13.5623 6.85934 13.5686 6.79684 13.5779 6.79059C13.5873 6.78434 13.5373 6.81246 13.5061 6.79059Z" fill="white" stroke="black" stroke-width="0.025" stroke-miterlimit="3"/>
<path d="M13.5782 6.79054L13.6094 6.84054L13.6469 6.81866L13.6407 6.76241C13.6407 6.76241 13.6188 6.75616 13.5782 6.79054ZM13.725 6.79991L13.6844 6.83429C13.6844 6.83429 13.6625 6.81866 13.6469 6.81866L13.6532 6.76554C13.6532 6.76554 13.6844 6.74366 13.725 6.79991ZM13.4344 7.29991C13.4344 7.29991 13.4282 7.22491 13.4344 7.22179C13.4344 7.22179 13.4657 7.23116 13.4782 7.22179C13.4782 7.22179 13.4938 7.27804 13.4907 7.30304C13.4844 7.32804 13.4563 7.31866 13.4344 7.30304V7.29991ZM13.6219 7.22491C13.6219 7.22491 13.6188 7.16241 13.6282 7.15304C13.6282 7.15304 13.6907 7.16241 13.7032 7.12804L13.725 7.19054C13.725 7.19054 13.6594 7.18116 13.6188 7.22179L13.6219 7.22491Z" fill="white"/>
<path d="M13.6469 6.81866L13.6094 6.84054L13.5782 6.79054C13.6188 6.75616 13.6407 6.76241 13.6407 6.76241L13.6469 6.81866ZM13.6469 6.81866C13.6625 6.81866 13.6844 6.83429 13.6844 6.83429L13.725 6.79991C13.6844 6.74366 13.6532 6.76554 13.6532 6.76554L13.6469 6.81866ZM13.4344 7.29991C13.4344 7.29991 13.4282 7.22491 13.4344 7.22179C13.4344 7.22179 13.4657 7.23116 13.4782 7.22179C13.4782 7.22179 13.4938 7.27804 13.4907 7.30304C13.4844 7.32804 13.4563 7.31866 13.4344 7.30304V7.29991ZM13.6219 7.22491C13.6219 7.22491 13.6188 7.16241 13.6282 7.15304C13.6282 7.15304 13.6907 7.16241 13.7032 7.12804L13.725 7.19054C13.725 7.19054 13.6594 7.18116 13.6188 7.22179L13.6219 7.22491Z" stroke="black" stroke-width="0.025" stroke-miterlimit="3"/>
<path d="M13.5562 7.23752C13.5562 7.23752 13.5656 7.1719 13.5781 7.16877C13.5781 7.16877 13.6094 7.17815 13.6187 7.16565V7.2469C13.6187 7.2469 13.6187 7.21252 13.5562 7.23752ZM13.4844 7.2469C13.4844 7.2469 13.5 7.18752 13.5094 7.18752C13.5187 7.18752 13.5406 7.20315 13.5531 7.19377V7.23752C13.5531 7.23752 13.5031 7.22502 13.4937 7.2969L13.4844 7.2469Z" fill="white" stroke="black" stroke-width="0.025" stroke-miterlimit="3"/>
<path d="M14.4284 8.45003C14.4284 8.45003 14.5909 8.60315 14.5503 8.73753C14.5503 8.73753 14.6534 8.5094 14.5409 8.44065C14.4284 8.37815 14.4253 8.42503 14.4284 8.45003Z" fill="#00A651" stroke="black" stroke-width="0.03" stroke-miterlimit="4.8"/>
<path d="M14.2184 8.59683C14.2184 8.59683 14.1778 8.65933 14.2247 8.69995C14.2247 8.69995 14.1716 8.77495 14.2122 8.83745C14.2122 8.83745 14.1809 8.90308 14.1872 8.97495C14.1872 8.97495 14.1622 9.08433 14.2184 9.13433C14.2184 9.13433 14.2809 9.16558 14.3122 9.13745C14.3122 9.13745 14.3653 9.0562 14.3309 8.97183C14.3309 8.97183 14.3684 8.89995 14.3247 8.80933C14.3247 8.80933 14.3372 8.75933 14.3028 8.69995C14.3028 8.69995 14.3247 8.66245 14.3059 8.6312C14.3059 8.6312 14.2278 8.54683 14.2184 8.59995V8.59683Z" fill="#964B36" stroke="black" stroke-width="0.03" stroke-miterlimit="4.8"/>
<path d="M14.266 8.40623C14.266 8.40623 14.0723 8.03123 13.9348 8.0156C13.7973 7.99998 13.791 7.8656 13.791 7.8656C13.791 7.8656 13.8066 7.9281 13.916 7.9281C14.0254 7.9281 14.2348 8.08435 14.2598 8.19998C14.2816 8.3156 14.3066 8.29998 14.3066 8.29998L14.266 8.40623Z" fill="#00A651" stroke="black" stroke-width="0.03" stroke-miterlimit="4.8"/>
<path d="M14.2661 8.37808C14.2661 8.37808 14.338 7.9062 14.6474 7.89683C14.9567 7.89058 14.8536 7.92183 14.9286 7.87183C14.9286 7.87183 14.7224 7.97808 14.5942 7.99683C14.463 8.00933 14.3567 8.26245 14.363 8.30933C14.363 8.3562 14.2911 8.44683 14.2567 8.41558C14.2192 8.38433 14.2661 8.37808 14.2661 8.37808Z" fill="#00A651" stroke="black" stroke-width="0.03" stroke-miterlimit="4.8"/>
<path d="M14.3378 8.55628C14.3378 8.55628 14.4096 8.36878 14.5284 8.43128C14.5284 8.43128 14.4346 8.25003 14.2659 8.40628C14.2659 8.40628 14.3409 8.50941 14.3378 8.55628ZM14.1034 8.36878C14.1034 8.36878 14.2034 8.78753 14.0471 8.91566C14.0471 8.91566 14.0534 8.70003 13.9565 8.57191C13.8628 8.44066 14.0503 8.30003 14.1034 8.36878Z" fill="#00A651" stroke="black" stroke-width="0.03" stroke-miterlimit="4.8"/>
<path d="M14.1162 8.44058C14.1162 8.44058 14.3006 8.6187 14.31 8.67808C14.3225 8.73433 14.3662 8.49995 14.2787 8.43433C14.1912 8.3687 14.1006 8.3562 14.1006 8.3562L14.1162 8.4437V8.44058Z" fill="#00A651" stroke="black" stroke-width="0.03" stroke-miterlimit="4.8"/>
<path d="M13.7754 8.90625C13.7754 8.90625 13.791 8.97812 13.8379 8.99375C13.8379 8.99375 13.8379 9.04688 13.8816 9.0625C13.8816 9.0625 13.8598 9.10937 13.8941 9.1375C13.8941 9.1375 13.8879 9.23125 13.9191 9.24687C13.9191 9.24687 14.0035 9.24375 14.0316 9.21875C14.0316 9.21875 14.0473 9.15938 14.0004 9.1C14.0004 9.1 14.0098 9.04375 13.9629 9.0125C13.9629 9.0125 13.9785 8.93438 13.9191 8.90625C13.9191 8.90625 13.9098 8.84375 13.8754 8.8125C13.8754 8.8125 13.8066 8.90937 13.7754 8.90625Z" fill="#964B36" stroke="black" stroke-width="0.03" stroke-miterlimit="4.8"/>
<path d="M13.8662 8.81249C13.8662 8.81249 13.6256 8.72499 13.4912 8.84999C13.4912 8.84999 13.6975 8.88124 13.7225 8.92186C13.7475 8.96249 13.8756 8.85311 13.8662 8.81249Z" fill="#00A651" stroke="black" stroke-width="0.03" stroke-miterlimit="4.8"/>
<path d="M13.7908 8.96252L13.747 8.93127C13.7252 8.91252 13.522 8.85939 13.4939 9.05627C13.4939 9.05627 13.4189 8.85939 13.5252 8.83752C13.6345 8.80627 13.7189 8.86877 13.7908 8.96252ZM13.6345 8.56252C13.6345 8.56252 13.7064 8.72502 13.7345 8.73127C13.7627 8.74064 13.7814 8.71252 13.7814 8.71252C13.7814 8.71252 13.6845 8.56877 13.6314 8.56252H13.6345ZM13.5783 8.31564C13.5783 8.31564 13.5158 8.10939 13.4408 8.16564C13.3658 8.21877 13.3845 8.36877 13.3845 8.36877C13.3845 8.36877 13.2377 8.21252 13.322 8.09377C13.4095 7.97189 13.5783 8.10627 13.5783 8.31564Z" fill="#00A651" stroke="black" stroke-width="0.03" stroke-miterlimit="4.8"/>
<path d="M13.7471 8.74374C13.7471 8.74374 13.7471 8.78437 13.7752 8.79374C13.8002 8.80624 13.8533 8.825 13.8533 8.80312C13.8533 8.78125 13.8127 8.68749 13.7971 8.69999C13.7814 8.71249 13.7533 8.71249 13.7471 8.74374Z" fill="#964B36" stroke="black" stroke-width="0.03" stroke-miterlimit="4.8"/>
<path d="M13.7004 8.49993C13.7004 8.49993 13.691 8.3218 13.8097 8.25305C13.8097 8.25305 13.8316 8.2593 13.8441 8.2218C13.8441 8.2218 13.7504 8.44993 13.7785 8.56555L13.7754 8.57805" fill="#00A651"/>
<path d="M13.7004 8.49993C13.7004 8.49993 13.691 8.3218 13.8097 8.25305C13.8097 8.25305 13.8316 8.2593 13.8441 8.2218C13.8441 8.2218 13.7504 8.44993 13.7785 8.56555L13.7754 8.57805" stroke="black" stroke-width="0.03" stroke-miterlimit="4.8"/>
<path d="M13.7217 8.28124C13.7217 8.28124 13.9342 7.84374 14.1904 7.99687C14.1904 7.99687 13.9217 8.04999 13.8248 8.24374L13.7279 8.38749L13.7217 8.28124Z" fill="#00A651" stroke="black" stroke-width="0.03" stroke-miterlimit="4.8"/>
<path d="M13.6098 8.44063C13.6098 8.44063 13.5473 8.14688 13.5066 8.10938C13.4691 8.06875 13.4035 8.02813 13.3223 8.09375C13.3223 8.09375 13.4598 7.97188 13.6035 8.075C13.7504 8.175 13.7191 8.3375 13.7191 8.3375L13.7035 8.54062L13.6066 8.45" fill="#00A651"/>
<path d="M13.6098 8.44063C13.6098 8.44063 13.5473 8.14688 13.5066 8.10938C13.4691 8.06875 13.4035 8.02813 13.3223 8.09375C13.3223 8.09375 13.4598 7.97188 13.6035 8.075C13.7504 8.175 13.7191 8.3375 13.7191 8.3375L13.7035 8.54062L13.6066 8.45" stroke="black" stroke-width="0.03" stroke-miterlimit="4.8"/>
<path d="M13.8372 8.79062C13.8372 8.79062 13.5778 8.3 13.4091 8.65C13.4091 8.65 13.3778 8.74062 13.4122 8.775C13.4122 8.775 13.3185 8.70312 13.3622 8.53125C13.406 8.35937 13.6903 8.4375 13.7747 8.57812C13.856 8.71875 13.8778 8.79062 13.8685 8.79687C13.856 8.80625 13.8372 8.79062 13.8372 8.79062ZM14.5653 8.93125C14.5653 8.93125 14.7528 8.54375 14.8622 8.71875C14.8622 8.71875 14.8935 8.80625 14.8466 8.84375C14.8466 8.84375 14.7716 8.75 14.706 8.8625C14.6372 8.97187 14.6653 8.9625 14.6653 8.9625C14.6653 8.9625 14.5966 8.98125 14.5653 8.93125Z" fill="#00A651" stroke="black" stroke-width="0.03" stroke-miterlimit="4.8"/>
<path d="M14.8438 8.84375C14.8438 8.84375 14.9469 8.89688 14.9125 9.00625C14.9125 9.00625 15.05 8.74375 14.8625 8.71875C14.8625 8.71875 14.8969 8.80312 14.8469 8.84375H14.8438ZM14.8594 8.575C14.8594 8.575 15.1063 8.64688 15.1125 8.75313C15.1125 8.75313 15.1562 8.54688 15.0156 8.48438C15.0156 8.48438 14.8469 8.51562 14.8594 8.57812V8.575Z" fill="#00A651" stroke="black" stroke-width="0.03" stroke-miterlimit="4.8"/>
<path d="M14.9689 8.25003C15.0752 8.04378 15.2064 8.31565 15.2064 8.31565C15.2064 8.31565 15.2533 8.10003 15.1221 8.06253C14.9877 8.0219 14.9033 8.5219 14.9033 8.5219L14.7471 8.55315C14.7471 8.55315 14.7877 8.1219 15.0221 8.0844H15.0533" fill="#00A651"/>
<path d="M14.9689 8.25003C15.0752 8.04378 15.2064 8.31565 15.2064 8.31565C15.2064 8.31565 15.2533 8.10003 15.1221 8.06253C14.9877 8.0219 14.9033 8.5219 14.9033 8.5219L14.7471 8.55315C14.7471 8.55315 14.7877 8.1219 15.0221 8.0844H15.0533" stroke="black" stroke-width="0.03" stroke-miterlimit="4.8"/>
<path d="M14.7811 8.37501C14.7811 8.37501 14.6311 8.06876 14.5311 8.03751C14.4311 8.00626 14.5842 7.95938 14.6467 8.01876C14.7092 8.07813 14.8279 8.15313 14.8154 8.30938L14.7811 8.37501ZM14.6248 8.79376C14.6248 8.79376 14.6686 8.58751 14.7873 8.52501C14.9061 8.46251 15.0154 8.48438 15.0154 8.48438C15.0154 8.48438 14.8748 8.51563 14.8498 8.58751C14.8279 8.65626 14.7873 8.66251 14.7873 8.66251L14.6279 8.79376H14.6248Z" fill="#00A651" stroke="black" stroke-width="0.03" stroke-miterlimit="4.8"/>
<path d="M14.5622 8.93127C14.5622 8.93127 14.4997 9.05627 14.5122 9.07502C14.5122 9.07502 14.4435 9.17815 14.4716 9.23127C14.4716 9.23127 14.5404 9.2844 14.5716 9.26252C14.5716 9.26252 14.6529 9.1469 14.631 9.0844C14.631 9.0844 14.6872 9.0094 14.6654 8.96252C14.6654 8.96252 14.5841 8.96565 14.5654 8.93127H14.5622Z" fill="#964B36" stroke="black" stroke-width="0.03" stroke-miterlimit="4.8"/>
<path d="M14.2193 8.70623C14.2256 8.70935 14.2662 8.7281 14.2912 8.71873L14.31 8.7031L14.2943 8.69685C14.285 8.7156 14.2412 8.69998 14.2287 8.69373L14.2225 8.70623H14.2193ZM14.2162 8.83123L14.21 8.84685C14.2131 8.84685 14.2943 8.86248 14.3318 8.8281L14.3193 8.8156C14.2881 8.84373 14.2162 8.8281 14.2131 8.8281L14.2162 8.83123ZM14.1943 8.96873L14.185 8.98123C14.185 8.98123 14.2787 9.04685 14.3381 8.97498L14.3225 8.9656C14.2756 9.02498 14.1975 8.97185 14.1943 8.9656V8.96873ZM13.835 8.98748L13.8381 8.99685C13.8412 8.99685 13.9193 8.9656 13.9256 8.90623H13.9162C13.9131 8.95623 13.8381 8.98748 13.835 8.98748ZM13.8787 9.05935V9.06873C13.885 9.06873 13.9568 9.06248 13.9693 9.01248H13.96C13.9475 9.0531 13.8818 9.05935 13.8787 9.05935ZM13.8943 9.13435V9.14373C13.8975 9.14373 13.9787 9.14685 14.0068 9.1031L13.9975 9.09685C13.9725 9.13748 13.8943 9.13435 13.8943 9.13435ZM14.51 9.08123C14.51 9.08123 14.5443 9.11873 14.585 9.1156C14.5951 9.11541 14.605 9.11308 14.6142 9.10877C14.6233 9.10446 14.6315 9.09827 14.6381 9.0906L14.6256 9.0781C14.6131 9.09373 14.6006 9.09998 14.585 9.09998C14.5537 9.09998 14.5225 9.06873 14.5225 9.06873L14.51 9.08123Z" fill="black"/>
<path d="M16.9381 9.3687C16.9344 9.37119 16.9312 9.37437 16.9287 9.37808L16.9412 9.3687H16.9381ZM17.2287 9.29683C17.2256 9.29058 17.2225 9.2937 17.2193 9.29058L17.2068 9.26558H17.1975L17.1756 9.22183C17.1768 9.21882 17.1768 9.21546 17.1756 9.21245C17.1757 9.20829 17.1757 9.20412 17.1756 9.19995C17.1756 9.19995 17.1693 9.19995 17.1662 9.1937V9.1437L17.1631 9.12808C17.1567 9.11777 17.1534 9.10583 17.1537 9.0937V9.06245C17.1568 9.04995 17.1506 9.0437 17.1506 9.0312L17.1537 9.00308V8.83433L17.1506 8.80308L17.1475 8.79058V8.74058V8.82183L17.1412 8.68745L17.035 8.63745C17.035 8.63745 17.0256 8.8312 17.0287 8.8562C17.0287 8.88433 17.0412 9.06558 17.035 9.08745L17.0193 9.22183C17.0193 9.22183 16.9693 9.25933 16.9506 9.29683C16.9287 9.33745 16.935 9.34995 16.9287 9.34995L16.9756 9.3437L16.9412 9.3687C16.9448 9.36723 16.9487 9.36675 16.9526 9.3673C16.9564 9.36785 16.96 9.36941 16.9631 9.37183L16.9693 9.37808L16.9756 9.37183C16.985 9.37183 16.9912 9.38433 16.9975 9.3812L17.01 9.37495L17.0162 9.36245C17.0193 9.35933 17.0256 9.36245 17.0287 9.36245H17.0506C17.06 9.36245 17.0693 9.34683 17.0787 9.34058C17.085 9.33433 17.0912 9.3312 17.1006 9.3312C17.11 9.3312 17.1193 9.34058 17.1318 9.34058C17.1381 9.34058 17.1412 9.34058 17.1475 9.33433L17.16 9.31558L17.185 9.31245L17.1975 9.31558H17.2162L17.2256 9.32183L17.2318 9.30933L17.2287 9.29683Z" fill="#964B36"/>
<path d="M16.9412 9.3687L16.9287 9.37808C16.9312 9.37437 16.9344 9.37119 16.9381 9.3687H16.9412ZM16.9412 9.3687L16.9756 9.3437L16.9287 9.34995C16.935 9.34995 16.9287 9.33745 16.9506 9.29683C16.9693 9.25933 17.0193 9.22183 17.0193 9.22183L17.035 9.08745C17.0412 9.06558 17.0287 8.88433 17.0287 8.8562C17.0256 8.8312 17.035 8.63745 17.035 8.63745L17.1412 8.68745L17.1475 8.82183V8.74058V8.79058L17.1506 8.80308L17.1537 8.83433V9.00308L17.1506 9.0312C17.1506 9.0437 17.1568 9.04995 17.1537 9.06245V9.0937C17.1534 9.10583 17.1567 9.11777 17.1631 9.12808L17.1662 9.1437V9.1937C17.1693 9.19995 17.1756 9.19995 17.1756 9.19995C17.1757 9.20412 17.1757 9.20829 17.1756 9.21245C17.1768 9.21546 17.1768 9.21882 17.1756 9.22183L17.1975 9.26558H17.2068L17.2193 9.29058C17.2225 9.2937 17.2256 9.29058 17.2287 9.29683L17.2318 9.30933L17.2256 9.32183L17.2162 9.31558H17.1975L17.185 9.31245L17.16 9.31558L17.1475 9.33433C17.1412 9.34058 17.1381 9.34058 17.1318 9.34058C17.1193 9.34058 17.11 9.3312 17.1006 9.3312C17.0912 9.3312 17.085 9.33433 17.0787 9.34058C17.0693 9.34683 17.06 9.36245 17.0506 9.36245H17.0287C17.0256 9.36245 17.0193 9.35933 17.0162 9.36245L17.01 9.37495L16.9975 9.3812C16.9912 9.38433 16.985 9.37183 16.9756 9.37183L16.9693 9.37808L16.9631 9.37183C16.96 9.36941 16.9564 9.36785 16.9526 9.3673C16.9487 9.36675 16.9448 9.36723 16.9412 9.3687Z" stroke="black" stroke-width="0.03" stroke-miterlimit="4.8"/>
<path d="M17.0159 9.36554H17.0346V9.37179C17.0356 9.37234 17.0366 9.37262 17.0377 9.37262C17.0388 9.37262 17.0399 9.37234 17.0409 9.37179L17.0502 9.37804H17.0596L17.0721 9.38116C17.0784 9.38429 17.0846 9.38116 17.0909 9.37804C17.0971 9.37179 17.1002 9.37804 17.1096 9.38429C17.1127 9.38741 17.1127 9.38741 17.1159 9.38429L17.119 9.38116L17.1284 9.37804L17.1377 9.37491L17.1502 9.36866L17.1627 9.37491C17.1648 9.37465 17.1669 9.37465 17.169 9.37491L17.1909 9.35929C17.2002 9.35304 17.2065 9.35929 17.2127 9.35929H17.2221C17.2252 9.35616 17.2284 9.35929 17.2346 9.35929C17.2346 9.35616 17.2346 9.35304 17.2409 9.34991L17.2627 9.36241C17.2659 9.36554 17.2846 9.36866 17.2815 9.35616C17.2815 9.34366 17.269 9.35304 17.2659 9.34366V9.32491C17.2644 9.31973 17.261 9.31528 17.2565 9.31241C17.2502 9.31241 17.2502 9.31554 17.244 9.31241L17.2377 9.29366L17.2284 9.29991C17.2221 9.29991 17.2221 9.29679 17.219 9.29054C17.2096 9.28116 17.2065 9.29679 17.1971 9.29366C17.1909 9.29366 17.1846 9.27804 17.1815 9.27179C17.1784 9.26866 17.1721 9.25616 17.1659 9.25929C17.1596 9.26241 17.1659 9.27491 17.1659 9.28116H17.1502C17.144 9.28116 17.144 9.28116 17.1409 9.28741C17.1346 9.29991 17.1315 9.30929 17.119 9.30616C17.1159 9.30616 17.1096 9.30304 17.1065 9.30616L17.0909 9.31241C17.0867 9.31325 17.0825 9.31325 17.0784 9.31241L17.0659 9.29991C17.0659 9.29908 17.0655 9.29829 17.0649 9.2977C17.0644 9.29712 17.0636 9.29679 17.0627 9.29679C17.0619 9.29679 17.0611 9.29712 17.0605 9.2977C17.0599 9.29829 17.0596 9.29908 17.0596 9.29991C17.0586 9.29782 17.0575 9.29573 17.0565 9.29366C17.0502 9.29366 17.0502 9.29366 17.0471 9.30304L17.044 9.31866L17.0346 9.33116L17.0221 9.33429C17.0159 9.33429 17.0096 9.34366 17.0096 9.33429C17.0034 9.32179 17.019 9.29991 17.0034 9.30304C17.0002 9.30304 16.9971 9.30304 16.994 9.30929V9.33116C16.9909 9.34054 16.9721 9.35616 16.9752 9.36241C16.9752 9.37179 16.9877 9.36241 16.9877 9.36241L16.994 9.37491C17.0002 9.38429 17.0159 9.36241 17.0159 9.37491M16.9502 9.29054V9.28429L16.9377 9.28116C16.9315 9.28116 16.9252 9.29054 16.9221 9.29366C16.9159 9.30616 16.9159 9.32491 16.9034 9.32491H16.8877V9.35616C16.8877 9.35616 16.8815 9.35616 16.8815 9.36241C16.8784 9.37491 16.8877 9.36866 16.894 9.36866H16.9252L16.9409 9.36554C16.9471 9.36554 16.9534 9.36554 16.9565 9.35929C16.959 9.35534 16.9611 9.35116 16.9627 9.34679V9.33429C16.9627 9.32804 16.9721 9.33116 16.9721 9.32179C16.9752 9.29991 16.9534 9.31554 16.9565 9.29366" fill="#964B36"/>
<path d="M17.0159 9.36554H17.0346V9.37179C17.0356 9.37234 17.0366 9.37262 17.0377 9.37262C17.0388 9.37262 17.0399 9.37234 17.0409 9.37179L17.0502 9.37804H17.0596L17.0721 9.38116C17.0784 9.38429 17.0846 9.38116 17.0909 9.37804C17.0971 9.37179 17.1002 9.37804 17.1096 9.38429C17.1127 9.38741 17.1127 9.38741 17.1159 9.38429L17.119 9.38116L17.1284 9.37804L17.1377 9.37491L17.1502 9.36866L17.1627 9.37491C17.1648 9.37465 17.1669 9.37465 17.169 9.37491L17.1909 9.35929C17.2002 9.35304 17.2065 9.35929 17.2127 9.35929H17.2221C17.2252 9.35616 17.2284 9.35929 17.2346 9.35929C17.2346 9.35616 17.2346 9.35304 17.2409 9.34991L17.2627 9.36241C17.2659 9.36554 17.2846 9.36866 17.2815 9.35616C17.2815 9.34366 17.269 9.35304 17.2659 9.34366V9.32491C17.2644 9.31973 17.261 9.31528 17.2565 9.31241C17.2502 9.31241 17.2502 9.31554 17.244 9.31241L17.2377 9.29366L17.2284 9.29991C17.2221 9.29991 17.2221 9.29679 17.219 9.29054C17.2096 9.28116 17.2065 9.29679 17.1971 9.29366C17.1909 9.29366 17.1846 9.27804 17.1815 9.27179C17.1784 9.26866 17.1721 9.25616 17.1659 9.25929C17.1596 9.26241 17.1659 9.27491 17.1659 9.28116H17.1502C17.144 9.28116 17.144 9.28116 17.1409 9.28741C17.1346 9.29991 17.1315 9.30929 17.119 9.30616C17.1159 9.30616 17.1096 9.30304 17.1065 9.30616L17.0909 9.31241C17.0867 9.31325 17.0825 9.31325 17.0784 9.31241L17.0659 9.29991C17.0659 9.29908 17.0655 9.29829 17.0649 9.2977C17.0644 9.29712 17.0636 9.29679 17.0627 9.29679C17.0619 9.29679 17.0611 9.29712 17.0605 9.2977C17.0599 9.29829 17.0596 9.29908 17.0596 9.29991C17.0586 9.29782 17.0575 9.29573 17.0565 9.29366C17.0502 9.29366 17.0502 9.29366 17.0471 9.30304L17.044 9.31866L17.0346 9.33116L17.0221 9.33429C17.0159 9.33429 17.0096 9.34366 17.0096 9.33429C17.0034 9.32179 17.019 9.29991 17.0034 9.30304C17.0002 9.30304 16.9971 9.30304 16.994 9.30929V9.33116C16.9909 9.34054 16.9721 9.35616 16.9752 9.36241C16.9752 9.37179 16.9877 9.36241 16.9877 9.36241L16.994 9.37491C17.0002 9.38429 17.0159 9.36241 17.0159 9.37491M16.9502 9.29054V9.28429L16.9377 9.28116C16.9315 9.28116 16.9252 9.29054 16.9221 9.29366C16.9159 9.30616 16.9159 9.32491 16.9034 9.32491H16.8877V9.35616C16.8877 9.35616 16.8815 9.35616 16.8815 9.36241C16.8784 9.37491 16.8877 9.36866 16.894 9.36866H16.9252L16.9409 9.36554C16.9471 9.36554 16.9534 9.36554 16.9565 9.35929C16.959 9.35534 16.9611 9.35116 16.9627 9.34679V9.33429C16.9627 9.32804 16.9721 9.33116 16.9721 9.32179C16.9752 9.29991 16.9534 9.31554 16.9565 9.29366" stroke="black" stroke-width="0.03" stroke-miterlimit="4.8"/>
<path d="M17.2125 8.6844C17.2125 8.71252 17.1938 8.7344 17.1688 8.7344C17.1469 8.7344 17.125 8.71252 17.125 8.6844C17.125 8.65627 17.1469 8.6344 17.1688 8.6344C17.1938 8.6344 17.2125 8.65627 17.2125 8.6844ZM17.0719 8.6219C17.0719 8.65002 17.0531 8.6719 17.0281 8.6719C17.0031 8.6719 16.9844 8.65002 16.9844 8.6219C16.9844 8.59065 17.0063 8.5719 17.0281 8.5719C17.05 8.5719 17.0719 8.59377 17.0719 8.6219Z" fill="black" stroke="black" stroke-width="0.03" stroke-miterlimit="4.8"/>
<path d="M17.1471 8.6407C17.1471 8.67195 17.1283 8.6907 17.1033 8.6907C17.0783 8.6907 17.0596 8.66882 17.0596 8.6407C17.0596 8.61257 17.0783 8.5907 17.1033 8.5907C17.1283 8.5907 17.1471 8.61257 17.1471 8.6407Z" fill="black" stroke="black" stroke-width="0.03" stroke-miterlimit="4.8"/>
<path d="M17.0748 8.68757C17.0748 8.7157 17.0561 8.73757 17.0311 8.73757C17.0061 8.73757 16.9873 8.7157 16.9873 8.68757C16.9873 8.65945 17.0061 8.63757 17.0311 8.63757C17.0561 8.63757 17.0748 8.65945 17.0748 8.68757Z" fill="black" stroke="black" stroke-width="0.03" stroke-miterlimit="4.8"/>
<path d="M17.1402 8.72817C17.1402 8.75317 17.1215 8.77817 17.0965 8.77817C17.0746 8.77817 17.0527 8.7563 17.0527 8.72817C17.0527 8.69692 17.0746 8.67505 17.0965 8.67505C17.1215 8.67505 17.1402 8.69692 17.1402 8.72505V8.72817Z" fill="black" stroke="black" stroke-width="0.03" stroke-miterlimit="4.8"/>
<path d="M17.1625 8.17183C17.1625 8.17183 17.5969 7.56558 18.0625 8.1937C18.0625 8.1937 18.0656 8.2562 18.0219 8.32495L18.0125 8.27183L17.9813 8.2812L17.975 8.24995L17.925 8.24683L17.9406 8.17808L17.8875 8.22183L17.8937 8.17495L17.8312 8.23745L17.8406 8.10308L17.7719 8.2187L17.7812 8.14058L17.7563 8.17495L17.7437 8.12808L17.7219 8.17495L17.6906 8.15308V8.18433L17.6344 8.13745L17.6156 8.19995L17.5875 8.1312L17.5812 8.17808L17.5531 8.12495L17.55 8.18433L17.4594 8.1437L17.4781 8.19995L17.4375 8.1687L17.4438 8.19995L17.3844 8.18745L17.3906 8.22183L17.3281 8.20933L17.3375 8.24058L17.2531 8.2312L17.2844 8.26245L17.275 8.2812C17.275 8.2812 17.7437 8.12495 17.775 8.71245L17.6906 8.75308L17.7156 8.7062L17.6906 8.69058L17.6187 8.63745L17.6406 8.56245L17.6156 8.57183L17.6125 8.52808L17.6 8.53433L17.5719 8.4937L17.5656 8.50933L17.5469 8.4562L17.525 8.4937L17.5156 8.4062L17.4844 8.46245L17.4781 8.4312L17.4688 8.44995L17.4281 8.40308L17.4156 8.43433L17.4 8.40933L17.3906 8.44058L17.3469 8.39683V8.42808L17.3156 8.4062L17.3062 8.42183L17.2406 8.38745L17.2375 8.4187L17.2 8.38745L17.1906 8.4187C17.1906 8.4187 17.6156 8.66245 17.4844 9.0562L17.4594 9.1062L17.4531 8.97495L17.4125 9.0437L17.4406 8.89058L17.4125 8.92183L17.4094 8.85933L17.375 8.92183L17.3625 8.85308L17.3469 8.87183L17.3219 8.77183L17.3031 8.81245L17.2719 8.69995L17.2469 8.74683L17.2313 8.64995L17.2156 8.70933L17.1688 8.62183L17.1625 8.6562L17.1344 8.58745L17.1187 8.60933C17.1187 8.60933 17.0406 8.6062 17.0156 8.58745C16.9937 8.56558 16.9281 8.70308 16.9281 8.70308L16.9344 8.62183L16.9062 8.67808V8.62183L16.8563 8.78745L16.8438 8.6687L16.8188 8.77183L16.8062 8.74058L16.7969 8.7812L16.7812 8.76558L16.7687 8.81245L16.7437 8.7937V8.8562L16.7188 8.82495L16.7 8.9187L16.6875 8.8812V8.92183L16.6688 8.89995L16.65 8.9937L16.6187 8.95308V9.02183L16.6281 9.07183L16.5969 9.0562L16.6094 9.13745C16.6094 9.13745 16.4875 8.91245 16.6344 8.6937C16.7781 8.47495 16.975 8.41245 16.975 8.41245L16.9531 8.3937V8.37495L16.8344 8.43433V8.39995L16.8031 8.42495L16.7969 8.38745L16.7781 8.42183L16.775 8.4062L16.7437 8.44995L16.7313 8.38745L16.7125 8.46245L16.6938 8.40933L16.6531 8.5187V8.43745L16.6219 8.52495L16.6094 8.4312L16.5875 8.53745V8.4437L16.55 8.53745L16.5281 8.4437L16.5125 8.53745L16.4875 8.46558L16.4656 8.57183L16.4281 8.47808L16.4094 8.6187L16.3875 8.56245L16.3813 8.66558L16.3563 8.60308L16.3813 8.73433L16.35 8.68433L16.3594 8.76558L16.3094 8.67495V8.7812L16.2844 8.74683L16.2719 8.78745C16.2719 8.78745 16.2625 8.3812 16.5406 8.29995C16.8187 8.22183 16.9969 8.32495 16.9969 8.32495L16.8906 8.23745L16.9031 8.20933H16.8656L16.8813 8.17808L16.7969 8.1812L16.8219 8.14995L16.7594 8.15933V8.14058L16.7188 8.17183L16.7344 8.13433L16.6812 8.17183L16.6781 8.1187L16.6469 8.16245L16.6344 8.11558L16.5094 8.24058L16.5406 8.11245L16.5187 8.14058L16.5156 8.10933L16.4813 8.16558L16.4719 8.12808L16.4562 8.17495L16.4438 8.1187L16.4188 8.17495L16.3875 8.12495L16.3781 8.19058L16.3594 8.1562L16.3344 8.2062L16.3031 8.17495V8.2062L16.2406 8.17808L16.2531 8.22495L16.2062 8.18745L16.1938 8.24995L16.1688 8.2187L16.1469 8.29683L16.1281 8.22183L16.1094 8.2812C16.1094 8.2812 16.3531 7.64995 16.9719 8.06245C16.9719 8.06245 17.0406 8.12808 17.0562 8.17495C17.0719 8.22183 17.0594 8.1812 17.0594 8.1812L17.0469 7.74683L17.0719 7.93433L17.0875 7.87183L17.0844 7.96558L17.1469 7.8312C17.1469 7.8312 17.0719 8.0562 17.1 8.14058C17.1 8.14058 17.1281 7.87808 17.2219 7.84683L17.1344 8.03433L17.1625 8.0312L17.1437 8.0687H17.1656L17.1375 8.1312L17.1219 8.16245L17.1375 8.1937L17.1625 8.17183Z" fill="#00A651" stroke="black" stroke-width="0.03" stroke-miterlimit="4.8"/>
<path d="M17.0971 8.425L17.1096 8.4375C17.1096 8.4375 17.1502 8.39375 17.2158 8.45L17.2252 8.4375C17.1471 8.37188 17.1002 8.425 17.1002 8.425H17.0971ZM17.0783 8.2125V8.22812L17.1064 8.21562L17.0846 8.25313L17.1314 8.2375L17.0752 8.30937L17.0877 8.31875L17.1783 8.20312L17.1221 8.22188L17.1471 8.18125L17.0971 8.2L17.1064 8.14062H17.0908L17.0783 8.2125Z" fill="black"/>
<path d="M16.9969 8.21873L17.0156 8.25935L16.9844 8.24685L17.075 8.40935L17.0875 8.39373L17.0688 8.4406L17.0844 8.44685L17.1219 8.34685L17.1094 8.33747L17.0781 8.3781L17.0219 8.28123L17.0469 8.2906L17.0219 8.23748L17.0562 8.25623V8.19685H17.0406V8.2281L16.9844 8.19373L16.9969 8.21873ZM16.9375 8.41873L16.9438 8.43435C16.9688 8.42498 16.9906 8.42185 17.0063 8.4281C17.0219 8.43748 17.0281 8.45623 17.0281 8.45935L17.0438 8.4531C17.0438 8.4531 17.0375 8.42497 17.0125 8.4156C16.9938 8.40622 16.9688 8.40623 16.9375 8.41873ZM17.0094 8.58747L16.9937 8.49998H17.0125L17.025 8.58435L17.0094 8.58747ZM17.1281 8.57498L17.1063 8.50623L17.1219 8.5031L17.1437 8.5656L17.1281 8.57498ZM17.1719 8.62185L17.1562 8.55622L17.1719 8.5531L17.1906 8.61872L17.1719 8.62185Z" fill="black"/>
<path d="M13.8314 10.6313C13.8314 10.6313 13.7564 10.6 13.7221 10.625C13.6908 10.6469 13.6939 10.6844 13.6658 10.6812C13.6658 10.6812 13.7783 10.7063 13.8002 10.6781L13.8314 10.6406M13.8439 10.6625C13.8439 10.6625 13.7939 10.725 13.8127 10.7656C13.8283 10.8031 13.8658 10.8063 13.8564 10.8344C13.8564 10.8344 13.9033 10.7312 13.8814 10.7C13.8596 10.6687 13.8502 10.6656 13.8502 10.6656M13.7627 10.4844C13.7627 10.4844 13.6846 10.5094 13.6752 10.5469C13.6689 10.5906 13.6939 10.6125 13.6721 10.6313C13.6721 10.6313 13.7721 10.575 13.7689 10.5375V10.4906M13.8064 10.5125C13.8064 10.5125 13.8439 10.4406 13.8221 10.4062C13.7971 10.3687 13.7596 10.375 13.7658 10.3438C13.7658 10.3438 13.7346 10.4531 13.7658 10.4812L13.8002 10.5125M13.7314 10.4844C13.7314 10.4844 13.7314 10.4031 13.7002 10.3844C13.6627 10.3625 13.6314 10.3812 13.6221 10.3531C13.6221 10.3531 13.6439 10.4656 13.6783 10.4781L13.7252 10.4875M13.8627 10.6187C13.8627 10.6187 13.9471 10.5875 13.9564 10.6812C13.9627 10.775 13.9502 10.7437 13.9502 10.7437C13.9502 10.7437 13.9064 10.6438 13.8564 10.6281L13.8627 10.6187Z" fill="#00A651"/>
<path d="M13.8314 10.6313C13.8314 10.6313 13.7564 10.6 13.7221 10.625C13.6908 10.6469 13.6939 10.6844 13.6658 10.6812C13.6658 10.6812 13.7783 10.7063 13.8002 10.6781L13.8314 10.6406M13.8439 10.6625C13.8439 10.6625 13.7939 10.725 13.8127 10.7656C13.8283 10.8031 13.8658 10.8063 13.8564 10.8344C13.8564 10.8344 13.9033 10.7312 13.8814 10.7C13.8596 10.6687 13.8502 10.6656 13.8502 10.6656M13.7627 10.4844C13.7627 10.4844 13.6846 10.5094 13.6752 10.5469C13.6689 10.5906 13.6939 10.6125 13.6721 10.6313C13.6721 10.6313 13.7721 10.575 13.7689 10.5375V10.4906M13.8064 10.5125C13.8064 10.5125 13.8439 10.4406 13.8221 10.4062C13.7971 10.3687 13.7596 10.375 13.7658 10.3438C13.7658 10.3438 13.7346 10.4531 13.7658 10.4812L13.8002 10.5125M13.7314 10.4844C13.7314 10.4844 13.7314 10.4031 13.7002 10.3844C13.6627 10.3625 13.6314 10.3812 13.6221 10.3531C13.6221 10.3531 13.6439 10.4656 13.6783 10.4781L13.7252 10.4875M13.8627 10.6187C13.8627 10.6187 13.9471 10.5875 13.9564 10.6812C13.9627 10.775 13.9502 10.7437 13.9502 10.7437C13.9502 10.7437 13.9064 10.6438 13.8564 10.6281L13.8627 10.6187Z" stroke="black" stroke-width="0.03" stroke-miterlimit="4.8"/>
<path d="M13.8439 10.6656L13.8502 10.7343H13.8627L13.8533 10.6656L13.8846 10.5125H13.8721L13.8408 10.6656H13.8439Z" fill="black"/>
<path d="M13.7658 10.6437L13.7627 10.6531C13.8033 10.6687 13.8564 10.6219 13.8596 10.6219L13.8533 10.6125C13.8533 10.6125 13.8002 10.6531 13.7658 10.6437ZM13.8721 10.5531L13.6846 10.4594L13.6908 10.4437L13.8783 10.5375L13.8721 10.5531Z" fill="black"/>
<path d="M13.7352 10.5312L13.7227 10.5187L13.7602 10.4812L13.7727 10.4937L13.7352 10.5312ZM13.8008 10.5125L13.7602 10.425L13.7758 10.4187L13.8164 10.5062L13.8008 10.5125ZM13.857 10.6187V10.6375C13.9102 10.6343 13.9195 10.6687 13.9195 10.6687L13.9383 10.6625C13.9383 10.6531 13.9164 10.6156 13.857 10.6187Z" fill="black"/>
<path d="M14.7258 10.6562C14.7883 10.625 14.8008 10.5 14.8008 10.5C14.7852 10.5438 14.6695 10.5906 14.6695 10.5906C14.7539 10.5375 14.857 10.2969 14.857 10.2969C14.832 10.3813 14.607 10.4531 14.4633 10.5344C14.3195 10.6156 14.3945 10.8469 14.3945 10.8469C14.3539 10.8188 14.2758 10.6969 14.2602 10.5875C14.2445 10.4781 14.2039 10.4344 14.1039 10.4219C14.007 10.4094 13.9477 10.5219 13.9477 10.5219L13.8008 10.5969L13.9508 10.6031C13.9508 10.6031 14.057 10.6375 14.057 10.7219C14.057 10.8031 13.9633 11.1375 14.1195 11.325C14.2227 11.4531 14.6195 11.5281 14.6195 11.5281" fill="white"/>
<path d="M14.7258 10.6562C14.7883 10.625 14.8008 10.5 14.8008 10.5C14.7852 10.5437 14.6695 10.5906 14.6695 10.5906C14.7539 10.5375 14.857 10.2969 14.857 10.2969C14.832 10.3813 14.607 10.4531 14.4633 10.5344C14.3195 10.6156 14.3945 10.8469 14.3945 10.8469C14.3539 10.8188 14.2758 10.6969 14.2602 10.5875C14.2445 10.4781 14.2039 10.4344 14.1039 10.4219C14.007 10.4094 13.9477 10.5219 13.9477 10.5219L13.8008 10.5969L13.9508 10.6031C13.9508 10.6031 14.057 10.6375 14.057 10.7219C14.057 10.8031 13.9633 11.1375 14.1195 11.325C14.2227 11.4531 14.6195 11.5281 14.6195 11.5281" stroke="black" stroke-width="0.03" stroke-miterlimit="4.8"/>
<path d="M14.4346 10.9156C14.4346 10.9156 14.4658 10.7657 14.5627 10.7719C14.6596 10.7782 14.6877 10.6594 14.7471 10.6438C14.8064 10.625 15.1064 10.5438 15.1377 10.4C15.1377 10.4 15.1096 10.6375 14.8346 10.7563C14.8346 10.7563 15.0564 10.6844 15.0846 10.6344C15.0846 10.6344 14.9846 10.8469 14.7439 10.8813C14.7439 10.8813 14.9689 10.8625 15.0002 10.8032C15.0002 10.8032 14.9002 10.9344 14.7346 10.9531C14.7346 10.9531 14.8908 11.0156 14.9283 10.9625C14.9283 10.9625 14.8439 11.0625 14.7408 11.0688L14.7721 11.075C14.7721 11.075 14.6721 11.1938 14.5627 11.1157C14.4533 11.0375 14.4502 11.1344 14.4502 11.1344" fill="white"/>
<path d="M14.4346 10.9156C14.4346 10.9156 14.4658 10.7657 14.5627 10.7719C14.6596 10.7782 14.6877 10.6594 14.7471 10.6438C14.8064 10.625 15.1064 10.5438 15.1377 10.4C15.1377 10.4 15.1096 10.6375 14.8346 10.7563C14.8346 10.7563 15.0564 10.6844 15.0846 10.6344C15.0846 10.6344 14.9846 10.8469 14.7439 10.8813C14.7439 10.8813 14.9689 10.8625 15.0002 10.8032C15.0002 10.8032 14.9002 10.9344 14.7346 10.9531C14.7346 10.9531 14.8908 11.0156 14.9283 10.9625C14.9283 10.9625 14.8439 11.0625 14.7408 11.0688L14.7721 11.075C14.7721 11.075 14.6721 11.1938 14.5627 11.1157C14.4533 11.0375 14.4502 11.1344 14.4502 11.1344" stroke="black" stroke-width="0.03" stroke-miterlimit="4.8"/>
<path d="M14.6566 11.1406C14.6566 11.1406 14.7848 11.3531 14.7973 11.4656C14.7973 11.4656 15.041 11.7312 15.1316 11.7469C15.1316 11.7469 15.0879 11.7656 15.0066 11.7C15.0066 11.7 15.0754 11.7688 15.0879 11.7719C15.1004 11.7719 15.0348 11.7656 15.0254 11.7469C15.0372 11.7649 15.052 11.7808 15.0691 11.7937L15.0535 11.7875C15.0535 11.7875 15.0223 11.7844 15.0035 11.7719C14.9879 11.7594 15.0004 11.8031 15.0004 11.8031C15.0004 11.8031 14.9629 11.7937 14.9504 11.7812C14.9379 11.7688 14.9535 11.8094 14.9535 11.8094L14.9223 11.8L14.8973 11.8156C14.8973 11.8156 14.8973 11.8313 14.8816 11.8156C14.866 11.8063 14.8379 11.8156 14.8379 11.8156C14.8379 11.8156 14.8191 11.8344 14.8066 11.8219C14.7973 11.8094 14.7598 11.8719 14.7598 11.8719L14.6035 11.4875" fill="white"/>
<path d="M14.6566 11.1406C14.6566 11.1406 14.7848 11.3531 14.7973 11.4656C14.7973 11.4656 15.041 11.7312 15.1316 11.7469C15.1316 11.7469 15.0879 11.7656 15.0066 11.7C15.0066 11.7 15.0754 11.7688 15.0879 11.7719C15.1004 11.7719 15.0348 11.7656 15.0254 11.7469C15.0372 11.7649 15.052 11.7808 15.0691 11.7937L15.0535 11.7875C15.0535 11.7875 15.0223 11.7844 15.0035 11.7719C14.9879 11.7594 15.0004 11.8031 15.0004 11.8031C15.0004 11.8031 14.9629 11.7938 14.9504 11.7812C14.9379 11.7687 14.9535 11.8094 14.9535 11.8094L14.9223 11.8L14.8973 11.8156C14.8973 11.8156 14.8973 11.8313 14.8816 11.8156C14.866 11.8063 14.8379 11.8156 14.8379 11.8156C14.8379 11.8156 14.8191 11.8344 14.8066 11.8219C14.7973 11.8094 14.7598 11.8719 14.7598 11.8719L14.6035 11.4875" stroke="black" stroke-width="0.03" stroke-miterlimit="4.8"/>
<path d="M14.8094 11.8344L14.6094 11.4531L14.6281 11.4406L14.8281 11.825L14.8094 11.8344ZM14.9844 11.8094L14.6406 11.425L14.6594 11.4094L15.0031 11.7937L14.9844 11.8094ZM15.0625 11.7781L14.6719 11.4062L14.6875 11.3906L15.0781 11.7563L15.0625 11.7781Z" fill="black"/>
<path d="M14.0796 10.5431C14.0796 10.5431 14.0547 10.4974 14.0318 10.5161C14.0111 10.5327 13.9986 10.5369 13.9944 10.5348C13.9944 10.5348 14.0152 10.5348 14.0298 10.5244C14.0422 10.5119 14.063 10.5182 14.0796 10.5452V10.5431ZM13.9425 10.5223L13.9571 10.5514L13.9404 10.5992L13.9529 10.6034L13.9674 10.5514L13.9529 10.5182L13.9425 10.5223Z" fill="black"/>
<path d="M14.0756 10.5369C14.0756 10.5369 14.0549 10.5576 14.0299 10.5535L14.0029 10.5473H14.0403C14.0549 10.5473 14.0736 10.541 14.0756 10.5369Z" fill="black"/>
<path d="M14.0689 10.541C14.0689 10.541 14.044 10.5161 14.0273 10.5244C14.0273 10.5244 14.0564 10.514 14.0731 10.5389L14.0689 10.541Z" fill="black"/>
<path d="M14.065 10.5369C14.065 10.5369 14.038 10.5556 14.0089 10.5369L14.0068 10.5327H14.011C14.011 10.5327 14.0463 10.5473 14.065 10.5369Z" fill="black"/>
<path d="M14.0425 10.541C14.0471 10.541 14.0508 10.5373 14.0508 10.5327C14.0508 10.5281 14.0471 10.5244 14.0425 10.5244C14.0379 10.5244 14.0342 10.5281 14.0342 10.5327C14.0342 10.5373 14.0379 10.541 14.0425 10.541Z" fill="black"/>
<path d="M17.169 10.4625C17.169 10.4625 17.344 10.2313 17.5003 10.2906C17.6565 10.3531 17.7534 10.3844 17.7534 10.3844C17.7534 10.3844 17.7565 10.5375 17.6753 10.5375C17.594 10.5375 17.5128 10.3813 17.4378 10.4281C17.3811 10.46 17.3329 10.505 17.2972 10.5594C17.294 10.5813 17.1003 10.5844 17.169 10.4625Z" fill="#964B36" stroke="black" stroke-width="0.0375" stroke-miterlimit="4.8"/>
<path d="M16.5063 11.575C16.5063 11.575 16.4563 11.625 16.4782 11.6375C16.5001 11.65 16.5438 11.6375 16.5438 11.6188C16.5438 11.6 16.5126 11.5688 16.5063 11.575Z" fill="#964B36" stroke="black" stroke-width="0.0625" stroke-miterlimit="4.8"/>
<path d="M16.4687 11.625C16.4687 11.625 16.3749 11.5719 16.3062 11.6938C16.2343 11.8125 16.178 12.0094 16.1374 12.0375C16.0968 12.0625 16.5374 11.8438 16.5437 11.75C16.5437 11.75 16.5718 11.6313 16.5249 11.6344C16.478 11.6344 16.4749 11.6407 16.4655 11.6219L16.4687 11.625Z" fill="#964B36" stroke="black" stroke-width="0.0625" stroke-miterlimit="4.8"/>
<path d="M16.4777 11.6375C16.4777 11.6375 16.384 11.6593 16.3652 11.7906C16.3465 11.9218 16.2184 11.9875 16.209 11.9937M17.7527 10.3812C17.7527 10.3812 17.6152 10.4312 17.6371 10.5281L17.7527 10.3812Z" fill="#964B36"/>
<path d="M16.4777 11.6375C16.4777 11.6375 16.384 11.6593 16.3652 11.7906C16.3465 11.9218 16.2184 11.9875 16.209 11.9937M17.7527 10.3812C17.7527 10.3812 17.6152 10.4312 17.6371 10.5281" stroke="black" stroke-width="0.0375" stroke-miterlimit="4.8"/>
<path d="M16.6787 10.6657C16.6787 10.6657 16.685 10.3344 16.9568 10.3469C17.0068 10.3532 16.9818 10.4125 16.9818 10.4125C16.9818 10.4125 17.0443 10.3719 17.0693 10.4375C17.0693 10.4375 17.1537 10.4 17.1631 10.4844C17.1631 10.4844 17.2568 10.4719 17.2443 10.5469C17.2443 10.5469 17.3068 10.5313 17.3068 10.5844C17.3068 10.5844 17.3787 10.5563 17.3693 10.6313C17.3693 10.6313 17.4506 10.5782 17.4412 10.675C17.4412 10.675 17.5225 10.6157 17.5506 10.7125C17.5818 10.8125 17.4693 11.0188 17.36 11.0719" fill="#FFF200"/>
<path d="M16.6787 10.6657C16.6787 10.6657 16.685 10.3344 16.9568 10.3469C17.0068 10.3532 16.9818 10.4125 16.9818 10.4125C16.9818 10.4125 17.0443 10.3719 17.0693 10.4375C17.0693 10.4375 17.1537 10.4 17.1631 10.4844C17.1631 10.4844 17.2568 10.4719 17.2443 10.5469C17.2443 10.5469 17.3068 10.5313 17.3068 10.5844C17.3068 10.5844 17.3787 10.5563 17.3693 10.6313C17.3693 10.6313 17.4506 10.5782 17.4412 10.675C17.4412 10.675 17.5225 10.6157 17.5506 10.7125C17.5818 10.8125 17.4693 11.0188 17.36 11.0719" stroke="black" stroke-width="0.0375" stroke-miterlimit="4.8"/>
<path d="M17.4344 10.6874C17.4344 10.6874 17.4688 10.9437 17.325 11.0406L17.3281 11.0468C17.4812 10.9531 17.4438 10.6874 17.4438 10.6843H17.4344V10.6874ZM17.2563 10.9687L17.2625 10.9749C17.3563 10.8843 17.3781 10.6437 17.3781 10.6312H17.3687C17.3687 10.6312 17.3469 10.8812 17.2563 10.9687ZM17.1719 10.9093H17.1812C17.2003 10.794 17.244 10.6843 17.3094 10.5874L17.3031 10.5843C17.3031 10.5843 17.1844 10.7562 17.1719 10.9093ZM17.1031 10.8656H17.1125C17.1281 10.6874 17.25 10.5531 17.25 10.5499L17.2437 10.5437C17.2437 10.5437 17.1187 10.6843 17.1031 10.8656ZM17.0094 10.8031H17.0187C17.0281 10.5937 17.1688 10.4906 17.1688 10.4906L17.1625 10.4812C17.1625 10.4812 17.0188 10.5874 17.0063 10.8062L17.0094 10.8031ZM16.9219 10.7531H16.9312C16.925 10.5593 17.0719 10.4406 17.075 10.4406L17.0688 10.4343C17.0688 10.4343 16.9125 10.5531 16.9219 10.7531ZM16.7656 10.6812H16.775C16.7823 10.6219 16.8061 10.5659 16.8436 10.5195C16.8812 10.4731 16.931 10.4381 16.9875 10.4187V10.4093C16.9286 10.429 16.8764 10.465 16.8372 10.5131C16.7979 10.5612 16.7731 10.6195 16.7656 10.6812Z" fill="black"/>
<path d="M16.519 11.0687C16.519 11.0687 16.4721 10.7593 16.6565 10.6624C16.6565 10.6624 16.6909 10.6562 16.7096 10.6999C16.7096 10.6999 16.8065 10.6593 16.8096 10.7405C16.8096 10.7405 16.8596 10.703 16.8721 10.7562C16.8721 10.7562 16.9752 10.7343 16.9565 10.8124C16.9565 10.8124 17.044 10.7874 17.0346 10.8624C17.0346 10.8624 17.1221 10.8312 17.1096 10.8937C17.1096 10.8937 17.2034 10.8749 17.1784 10.9499C17.1784 10.9499 17.294 10.9374 17.2596 11.0155C17.2596 11.0155 17.344 10.9937 17.3221 11.0593C17.3221 11.0593 17.4346 11.0812 17.3846 11.153C17.3027 11.2507 17.1973 11.326 17.0784 11.3718" fill="#00A651"/>
<path d="M16.519 11.0687C16.519 11.0687 16.4721 10.7593 16.6565 10.6624C16.6565 10.6624 16.6909 10.6562 16.7096 10.6999C16.7096 10.6999 16.8065 10.6593 16.8096 10.7405C16.8096 10.7405 16.8596 10.703 16.8721 10.7562C16.8721 10.7562 16.9752 10.7343 16.9565 10.8124C16.9565 10.8124 17.044 10.7874 17.0346 10.8624C17.0346 10.8624 17.1221 10.8312 17.1096 10.8937C17.1096 10.8937 17.2034 10.8749 17.1784 10.9499C17.1784 10.9499 17.294 10.9374 17.2596 11.0155C17.2596 11.0155 17.344 10.9937 17.3221 11.0593C17.3221 11.0593 17.4346 11.0812 17.3846 11.153C17.3027 11.2507 17.1973 11.326 17.0784 11.3718" stroke="black" stroke-width="0.0375" stroke-miterlimit="4.8"/>
<path d="M16.419 11.3781C16.419 11.3781 16.344 11.1219 16.4877 11.0562C16.4877 11.0562 16.5158 11.05 16.519 11.075C16.519 11.075 16.5502 11.0344 16.5752 11.0719C16.5752 11.0719 16.6471 11.0375 16.6658 11.0906C16.6658 11.0906 16.7127 11.05 16.7377 11.1094C16.7377 11.1094 16.7846 11.0906 16.7846 11.1406C16.7846 11.1406 16.8471 11.1094 16.8471 11.1719C16.8471 11.1719 16.9096 11.1469 16.894 11.2094C16.894 11.2094 16.9877 11.225 16.9596 11.2687C16.9596 11.2687 17.044 11.2906 17.0127 11.325C17.0127 11.325 17.1002 11.3156 17.0533 11.375C17.0533 11.375 17.1221 11.3531 17.0846 11.4281C17.044 11.5031 16.9221 11.5844 16.8346 11.5969" fill="#00A651"/>
<path d="M16.419 11.3781C16.419 11.3781 16.344 11.1219 16.4877 11.0562C16.4877 11.0562 16.5158 11.05 16.519 11.075C16.519 11.075 16.5502 11.0344 16.5752 11.0719C16.5752 11.0719 16.6471 11.0375 16.6658 11.0906C16.6658 11.0906 16.7127 11.05 16.7377 11.1094C16.7377 11.1094 16.7846 11.0906 16.7846 11.1406C16.7846 11.1406 16.8471 11.1094 16.8471 11.1719C16.8471 11.1719 16.9096 11.1469 16.894 11.2094C16.894 11.2094 16.9877 11.225 16.9596 11.2687C16.9596 11.2687 17.044 11.2906 17.0127 11.325C17.0127 11.325 17.1002 11.3156 17.0533 11.375C17.0533 11.375 17.1221 11.3531 17.0846 11.4281C17.044 11.5031 16.9221 11.5844 16.8346 11.5969" stroke="black" stroke-width="0.0375" stroke-miterlimit="4.8"/>
<path d="M16.5097 11.5812C16.5097 11.5812 16.3503 11.425 16.4253 11.3812C16.4253 11.3812 16.4566 11.3906 16.4722 11.425C16.4722 11.425 16.5097 11.3687 16.5347 11.425C16.5347 11.425 16.591 11.4062 16.591 11.4468L16.6347 11.4781C16.6347 11.4781 16.6878 11.475 16.6785 11.5093C16.6785 11.5093 16.7378 11.5 16.7347 11.5312C16.7347 11.5312 16.7847 11.5344 16.7816 11.5687C16.7816 11.5687 16.8691 11.5844 16.8285 11.6281C16.8285 11.6281 16.6785 11.6594 16.5691 11.6156C16.5691 11.6156 16.516 11.5969 16.5097 11.5812Z" fill="#00A651" stroke="black" stroke-width="0.0375" stroke-miterlimit="4.8"/>
<path d="M17.0599 11.325V11.3344C17.1644 11.2598 17.2553 11.1678 17.3287 11.0625L17.3193 11.0563C17.3193 11.0594 17.1506 11.2906 17.0599 11.325ZM17.0037 11.2844L17.0099 11.2938C17.0912 11.2469 17.2568 11.0281 17.2599 11.0188L17.2568 11.0125C17.2537 11.0156 17.0849 11.2375 17.0068 11.2844H17.0037ZM16.9568 11.2656L16.9631 11.2719C17.0497 11.1746 17.1232 11.0664 17.1818 10.95L17.1756 10.9469C17.1756 10.9469 17.0443 11.1938 16.9568 11.2656ZM16.9162 11.2094H16.9256C16.9412 11.0907 17.1131 10.9 17.1131 10.8969L17.1037 10.8938C17.0974 10.9 16.9318 11.0875 16.9162 11.2094ZM16.5756 11.0625H16.5849C16.5724 10.8906 16.7131 10.7031 16.7162 10.7031L16.7068 10.6969C16.7068 10.6969 16.5599 10.8906 16.5756 11.0625ZM16.6662 11.0781H16.6756C16.6506 10.9406 16.8131 10.7469 16.8131 10.7438L16.8068 10.7375C16.8006 10.7469 16.6412 10.9375 16.6662 11.0781ZM16.8037 11.1281H16.8131C16.8068 10.9719 16.9568 10.8156 16.9599 10.8156L16.9537 10.8063C16.9537 10.8094 16.7974 10.9688 16.8037 11.1281ZM16.4756 11.4094H16.4849C16.4287 11.2625 16.5224 11.0781 16.5256 11.0781L16.5162 11.0719C16.5162 11.0719 16.4193 11.2625 16.4756 11.4125V11.4094ZM16.5381 11.4219L16.5474 11.4188C16.4974 11.2719 16.5787 11.075 16.5787 11.075L16.5724 11.0688C16.5724 11.0688 16.4881 11.2719 16.5381 11.4219ZM16.7974 11.5688V11.575C16.9537 11.5219 17.0568 11.3781 17.0568 11.3781L17.0474 11.3719C17.0474 11.3719 16.9474 11.5125 16.7974 11.5688ZM16.7662 11.5344V11.5438C16.8912 11.4875 17.0068 11.3313 17.0068 11.3313L17.0006 11.325C17.0006 11.325 16.8849 11.4813 16.7662 11.5344ZM16.7349 11.5219L16.7412 11.5313C16.8349 11.4594 16.9599 11.2813 16.9599 11.2813L16.9537 11.275C16.9537 11.275 16.8287 11.4532 16.7349 11.5219ZM16.5787 11.4313H16.5912C16.586 11.3128 16.613 11.195 16.6693 11.0906L16.6599 11.0875C16.6599 11.0875 16.5599 11.275 16.5818 11.4313H16.5787ZM16.6474 11.475L16.6537 11.4813C16.7537 11.3906 16.7881 11.15 16.7881 11.1375H16.7787C16.7787 11.1375 16.7474 11.3875 16.6474 11.475ZM16.7162 11.5L16.7224 11.5094C16.8133 11.4331 16.876 11.3286 16.9006 11.2125H16.8912C16.8912 11.2125 16.8537 11.4 16.7162 11.5031V11.5ZM16.7318 11.0813V11.1094L16.6256 11.4531L16.6349 11.4563L16.7412 11.1125C16.7256 10.9438 16.8724 10.7594 16.8756 10.7594L16.8662 10.7531C16.8662 10.7531 16.7318 10.9188 16.7318 11.0813Z" fill="black"/>
<path d="M16.8439 11.1656C16.8439 11.1719 16.8096 11.4062 16.6814 11.4937L16.6877 11.5031C16.8189 11.4125 16.8502 11.1812 16.8502 11.1687C16.9064 11.1031 17.0377 10.8656 17.0377 10.8656L17.0314 10.8594C17.0314 10.8594 16.9002 11.0969 16.8439 11.1656ZM16.4689 11.425C16.4689 11.4281 16.4877 11.55 16.5127 11.5875L16.5221 11.5844C16.4971 11.5438 16.4752 11.425 16.4752 11.4219L16.4658 11.425H16.4689ZM16.5283 11.425L16.5252 11.5906H16.5346V11.425H16.5283Z" fill="black"/>
<path d="M16.5312 11.5938L16.5406 11.5969C16.5812 11.5094 16.5938 11.4469 16.5938 11.4469H16.5844C16.5844 11.4469 16.5719 11.5063 16.5312 11.5938ZM16.5406 11.5969L16.5469 11.6063C16.5933 11.5785 16.627 11.5336 16.6406 11.4813H16.6313C16.6313 11.4813 16.6125 11.5563 16.5406 11.5969ZM16.5562 11.6031V11.6125C16.6312 11.6063 16.6812 11.5156 16.6812 11.5094H16.675C16.675 11.5094 16.625 11.5969 16.5562 11.6031Z" fill="black"/>
<path d="M16.5625 11.6094V11.6187C16.6844 11.6094 16.7375 11.5375 16.7375 11.5344L16.7313 11.5312C16.7313 11.5312 16.6781 11.6 16.5625 11.6094Z" fill="black"/>
<path d="M16.5723 11.6094V11.6187C16.5754 11.6187 16.7285 11.6531 16.7816 11.575L16.7723 11.5687C16.7254 11.6437 16.5723 11.6125 16.5723 11.6094Z" fill="black"/>
<path d="M13.1533 6.03748V10.3C13.1533 11.6937 15.6721 12.5187 15.6721 12.5187C15.6721 12.5187 18.1877 11.6937 18.1877 10.3V6.03748H13.1533Z" stroke="black" stroke-width="0.12" stroke-miterlimit="4.8"/>
<path d="M0 0H10V7.5H0V0Z" fill="#012169"/>
<path d="M1.17188 0L4.98438 2.82812L8.78125 0H10V0.96875L6.25 3.76562L10 6.54688V7.5H8.75L5 4.70312L1.26562 7.5H0V6.5625L3.73438 3.78125L0 1V0H1.17188Z" fill="white"/>
<path d="M6.625 4.39062L10 6.875V7.5L5.76562 4.39062H6.625ZM3.75 4.70312L3.84375 5.25L0.84375 7.5H0L3.75 4.70312ZM10 0V0.046875L6.10938 2.98438L6.14062 2.29688L9.21875 0H10ZM0 0L3.73438 2.75H2.79688L0 0.65625V0Z" fill="#C8102E"/>
<path d="M3.76562 0V7.5H6.26562V0H3.76562ZM0 2.5V5H10V2.5H0Z" fill="white"/>
<path d="M0 3.01562V4.51562H10V3.01562H0ZM4.26562 0V7.5H5.76562V0H4.26562Z" fill="#C8102E"/>
</g>
<defs>
<clipPath id="clip0_202_3383">
<rect width="20" height="15" fill="white"/>
</clipPath>
</defs>
</svg>
