<svg width="20" height="15" viewBox="0 0 20 15" fill="none" xmlns="http://www.w3.org/2000/svg">
<g clip-path="url(#clip0_202_3579)">
<path d="M0 0H20V15H0V0Z" fill="#CE1126"/>
<path d="M5.15549 0.26001L4.5838 2.02381L6.08047 0.93371H4.23047L5.72714 2.02381L5.15549 0.26001Z" fill="#FCD116"/>
<path d="M10.0051 0.26001L9.43341 2.02381L10.9301 0.93371H9.08008L10.5767 2.02381L10.0051 0.26001Z" fill="#FCD116"/>
<path d="M14.8557 0.26001L14.284 2.02381L15.7807 0.93371H13.9307L15.4273 2.02381L14.8557 0.26001Z" fill="#FCD116"/>
<path d="M5.15549 12.98L4.5838 14.7438L6.08047 13.6537H4.23047L5.72714 14.7438L5.15549 12.98Z" fill="#FCD116"/>
<path d="M10.0051 12.98L9.43341 14.7438L10.9301 13.6537H9.08008L10.5767 14.7438L10.0051 12.98Z" fill="#FCD116"/>
<path d="M14.8557 12.98L14.284 14.7438L15.7807 13.6537H13.9307L15.4273 14.7438L14.8557 12.98Z" fill="#FCD116"/>
<path d="M1.67969 3.18005H18.3197V11.8201H1.67969V3.18005Z" fill="#007A5E"/>
<path d="M1.67969 3.18005H18.3197L1.67969 11.8201H18.3197L1.67969 3.18005Z" fill="#FCD116"/>
<path d="M9.99957 8.94006C10.7949 8.94006 11.4396 8.29535 11.4396 7.50006C11.4396 6.70477 10.7949 6.06006 9.99957 6.06006C9.20428 6.06006 8.55957 6.70477 8.55957 7.50006C8.55957 8.29535 9.20428 8.94006 9.99957 8.94006Z" fill="#CE1126"/>
<path d="M2.71777 7.50473C2.88825 7.84533 3.22805 8.22045 3.53029 8.35757C3.54497 8.01705 3.43665 7.57697 3.28133 7.22437L2.71777 7.50473Z" fill="#CE1126"/>
<path d="M2.41075 6.35962C2.66475 6.90742 1.70943 8.19386 3.26887 8.51866C3.07943 8.25294 2.97567 7.80858 3.02727 7.46042C3.35107 7.59834 3.67575 7.91898 3.80335 8.2193C4.34111 6.71994 2.74511 6.86242 2.41075 6.35962Z" fill="#FCD116"/>
<path d="M9.9995 6.18005L9.22362 8.56793L11.2549 7.09213H8.74414L10.7754 8.56793L9.9995 6.18005Z" fill="#FCD116"/>
</g>
<defs>
<clipPath id="clip0_202_3579">
<rect width="20" height="15" fill="white"/>
</clipPath>
</defs>
</svg>
