<svg width="20" height="15" viewBox="0 0 20 15" fill="none" xmlns="http://www.w3.org/2000/svg">
<g clip-path="url(#clip0_202_3613)">
<path d="M0 0H20V15H0V0Z" fill="#D21034"/>
<path d="M0 0H20V7.5H0V0Z" fill="#00209F"/>
<path d="M7.63379 5.6156H12.365V9.38123H7.63379V5.6156Z" fill="white"/>
<path d="M10.9527 8.33752L9.98398 8.36877L9.02461 8.37815C9.02461 8.37815 8.53086 8.5594 8.32773 8.60003C8.12773 8.64065 8.15273 8.70627 7.99961 8.74377C7.87461 8.7719 7.85898 8.77815 7.78711 8.7844C7.74023 8.7844 7.68711 8.8219 7.63086 8.8594V9.38128H12.3652V8.8844C12.3152 8.85627 12.2652 8.83752 12.2152 8.8219C12.1465 8.7969 12.0996 8.7719 11.9746 8.74377C11.8184 8.7094 11.8434 8.64065 11.6434 8.60003C11.4402 8.5594 10.9527 8.33752 10.9527 8.33752Z" fill="#016A16" stroke="#016A16" stroke-width="0.03"/>
<path d="M9.72461 7.17505H9.79461L9.92461 7.71005L9.89461 7.88005L9.72461 7.18005V7.17505Z" fill="#F1B517" stroke="black" stroke-width="0.03"/>
<path d="M9.65039 6.81506L9.70039 7.23006H9.75039L9.65039 6.82006V6.81506Z" fill="white" stroke="black" stroke-width="0.03"/>
<path d="M9.78531 7.73002L9.57031 7.15502L9.65031 7.15002L9.90031 7.85002L9.78531 7.73002Z" fill="#F1B517" stroke="black" stroke-width="0.03"/>
<path d="M9.46973 6.82507L9.55973 7.22507H9.62973L9.46973 6.82507Z" fill="white" stroke="black" stroke-width="0.03"/>
<path d="M9.59473 7.53L9.46973 7.255L9.51973 7.245L9.75473 7.695L9.59473 7.53Z" fill="#F1B517" stroke="black" stroke-width="0.03"/>
<path d="M9.2998 6.94006L9.4448 7.32006H9.5148L9.3048 6.94006H9.2998Z" fill="white" stroke="black" stroke-width="0.03"/>
<path d="M9.61532 7.57007L9.04032 6.94507C8.86032 7.08507 8.89532 7.34507 8.89532 7.34507L9.54532 7.85507L9.61032 7.57007H9.61532Z" fill="#0A328C" stroke="black" stroke-width="0.03"/>
<path d="M9.945 7.90998L9.52 7.47998C9.34 7.48998 9.48 7.75498 9.49 7.78998L9.94 8.17498V7.90998H9.945Z" fill="#D20014" stroke="black" stroke-width="0.03"/>
<path d="M9.90527 7.84003L9.03027 6.90003L8.99527 6.92503L9.92527 7.95503L9.90527 7.84003ZM8.98027 6.84003L8.96027 6.81503V6.77003L8.78027 6.65503L8.86027 6.84003L8.92527 6.85003L8.94027 6.87003L8.98027 6.84003Z" fill="#F1B517" stroke="black" stroke-width="0.03"/>
<path d="M8.88477 6.90504C8.92159 6.85935 8.96757 6.82188 9.01977 6.79504L9.06977 6.87004L8.95977 6.96004L8.88477 6.91004V6.90504Z" fill="#F1B517" stroke="black" stroke-width="0.03"/>
<path d="M8.79004 7.06499L8.82004 7.11499C8.84004 7.10999 9.02004 6.93999 9.02004 6.93999H9.15504L9.19004 6.89499C9.09004 6.79499 9.00504 6.90999 9.00504 6.90999L8.79004 7.05999V7.06499Z" fill="#0A328C" stroke="#0A328C" stroke-width="0.03"/>
<path d="M8.90031 7.15002C8.90031 7.10002 8.99031 6.99002 9.00031 6.98502C9.06531 7.00502 9.12531 7.04502 9.19531 6.89502C9.13531 6.96502 9.02031 6.89502 9.02031 6.89502L8.97031 6.93502V6.95502L8.82031 7.09502L8.89531 7.15002H8.90031Z" fill="#D20014" stroke="#D20014" stroke-width="0.03"/>
<path d="M9.36525 7.73504L8.64525 7.16504C8.52025 7.29004 8.62525 7.67504 8.62525 7.67504L9.32525 8.05504L9.36025 7.73504H9.36525Z" fill="#0A328C" stroke="black" stroke-width="0.03"/>
<path d="M9.95968 8.19997L9.36468 7.71997C9.16468 7.74997 9.32468 8.04497 9.33468 8.07997L9.95968 8.41997V8.19497V8.19997Z" fill="#D20014" stroke="black" stroke-width="0.03"/>
<path d="M9.93523 8.10007L8.65523 7.14007L8.63023 7.17007L9.97023 8.22007L9.93523 8.10007ZM8.59523 7.09007L8.57523 7.07007L8.56523 7.03007L8.36523 6.94507L8.48023 7.11007H8.54523L8.56523 7.13007L8.59523 7.09007Z" fill="#F1B517" stroke="black" stroke-width="0.03"/>
<path d="M8.51465 7.17004C8.54327 7.119 8.58248 7.07467 8.62965 7.04004L8.68965 7.10504L8.59965 7.21004L8.51465 7.17004Z" fill="#F1B517" stroke="black" stroke-width="0.03"/>
<path d="M8.45031 7.33V7.385C8.47031 7.375 8.63531 7.2 8.63531 7.2L8.76031 7.175L8.79031 7.135C8.70031 7.03 8.60531 7.17 8.60531 7.17L8.44531 7.33H8.45031Z" fill="#0A328C" stroke="#0A328C" stroke-width="0.03"/>
<path d="M8.55008 7.425C8.54008 7.375 8.61008 7.235 8.62008 7.225C8.70008 7.25 8.77008 7.285 8.79508 7.125C8.74508 7.205 8.62008 7.145 8.62008 7.145L8.58008 7.195V7.22L8.45508 7.385L8.55008 7.425Z" fill="#D20014" stroke="#D20014" stroke-width="0.03"/>
<path d="M9.31053 8.08506C9.00153 7.91124 8.6932 7.73624 8.38553 7.56006C8.32053 7.67506 8.38053 7.83506 8.41053 7.86006C8.41053 7.93506 8.38053 7.97506 8.44553 8.13506C8.46553 8.23506 8.51053 8.33006 8.58053 8.38506C8.66053 8.70506 8.99053 8.73006 9.11553 8.46506L9.31553 8.08506H9.31053Z" fill="#0A328C" stroke="black" stroke-width="0.03"/>
<path d="M9.91549 8.42506L9.29049 8.06006C9.09049 8.08506 9.29049 8.46006 9.30549 8.49506L9.91549 8.71006V8.42506Z" fill="#D20014" stroke="black" stroke-width="0.03"/>
<path d="M9.81008 8.29002L8.39508 7.54002L8.37008 7.57002L9.87008 8.40502L9.81008 8.29002ZM8.32508 7.50002L8.30008 7.48502L8.28508 7.44502L8.08008 7.39502L8.21508 7.54002L8.27508 7.53002L8.30508 7.54502L8.32508 7.50002Z" fill="#F1B517" stroke="black" stroke-width="0.03"/>
<path d="M8.25977 7.59006C8.27977 7.54006 8.29977 7.49506 8.34977 7.44006L8.41977 7.49506L8.34977 7.61506L8.25977 7.59006Z" fill="#F1B517" stroke="black" stroke-width="0.03"/>
<path d="M8.20508 7.76L8.23508 7.82L8.38508 7.59L8.51008 7.545L8.53508 7.495C8.43508 7.405 8.36008 7.565 8.36008 7.565L8.20508 7.76Z" fill="#0A328C" stroke="#0A328C" stroke-width="0.03"/>
<path d="M8.34023 7.84C8.33023 7.79 8.36523 7.63 8.37523 7.625C8.45023 7.65 8.51523 7.655 8.53523 7.495C8.48523 7.57 8.37023 7.545 8.37023 7.545L8.33523 7.595L8.34023 7.615L8.24023 7.815L8.34023 7.84Z" fill="#D20014" stroke="#D20014" stroke-width="0.03"/>
<path d="M10.2705 7.17505H10.2005L10.0705 7.71005L10.1005 7.88005L10.2705 7.18005V7.17505Z" fill="#F1B517" stroke="black" stroke-width="0.03"/>
<path d="M10.3447 6.81506L10.2947 7.23006H10.2447L10.3447 6.82006V6.81506Z" fill="white" stroke="black" stroke-width="0.03"/>
<path d="M10.2098 7.73002L10.4248 7.15502L10.3448 7.15002L10.0948 7.85002L10.2098 7.73002Z" fill="#F1B517" stroke="black" stroke-width="0.03"/>
<path d="M10.5254 6.82507L10.4354 7.22507H10.3654L10.5254 6.82507Z" fill="white" stroke="black" stroke-width="0.03"/>
<path d="M10.4004 7.53L10.5254 7.255L10.4754 7.245L10.2404 7.695L10.4004 7.53Z" fill="#F1B517" stroke="black" stroke-width="0.03"/>
<path d="M10.6953 6.94006L10.5503 7.32006H10.4803L10.6903 6.94006H10.6953Z" fill="white" stroke="black" stroke-width="0.03"/>
<path d="M10.3798 7.57007L10.9548 6.94507C11.1348 7.08507 11.0998 7.34507 11.0998 7.34507L10.4498 7.85507L10.3848 7.57007H10.3798Z" fill="#0A328C" stroke="black" stroke-width="0.03"/>
<path d="M10.0501 7.90998L10.4751 7.47998C10.6551 7.48998 10.5151 7.75498 10.5051 7.78998L10.0551 8.17498V7.90998H10.0501Z" fill="#D20014" stroke="black" stroke-width="0.03"/>
<path d="M10.0898 7.84003L10.9648 6.90003L10.9998 6.92503L10.0698 7.95503L10.0898 7.84003ZM11.0148 6.84003L11.0348 6.81503V6.77003L11.2148 6.65503L11.1348 6.84003L11.0698 6.85003L11.0548 6.87003L11.0148 6.84003Z" fill="#F1B517" stroke="black" stroke-width="0.03"/>
<path d="M11.1104 6.90504C11.0735 6.85935 11.0275 6.82188 10.9754 6.79504L10.9254 6.87004L11.0354 6.96004L11.1104 6.91004V6.90504Z" fill="#F1B517" stroke="black" stroke-width="0.03"/>
<path d="M11.2051 7.06499L11.1751 7.11499C11.1551 7.10999 10.9751 6.93999 10.9751 6.93999H10.8401L10.8051 6.89499C10.9051 6.79499 10.9901 6.90999 10.9901 6.90999L11.2051 7.05999V7.06499Z" fill="#0A328C" stroke="#0A328C" stroke-width="0.03"/>
<path d="M11.0948 7.15002C11.0948 7.10002 11.0048 6.99002 10.9948 6.98502C10.9298 7.00502 10.8698 7.04502 10.7998 6.89502C10.8598 6.96502 10.9748 6.89502 10.9748 6.89502L11.0248 6.93502V6.95502L11.1748 7.09502L11.0998 7.15002H11.0948Z" fill="#D20014" stroke="#D20014" stroke-width="0.03"/>
<path d="M10.6299 7.73504L11.3499 7.16504C11.4749 7.29004 11.3699 7.67504 11.3699 7.67504L10.6699 8.05504L10.6349 7.73504H10.6299Z" fill="#0A328C" stroke="black" stroke-width="0.03"/>
<path d="M10.0354 8.19997L10.6304 7.71997C10.8304 7.74997 10.6704 8.04497 10.6604 8.07997L10.0354 8.41997V8.19497V8.19997Z" fill="#D20014" stroke="black" stroke-width="0.03"/>
<path d="M10.0599 8.10007L11.3399 7.14007L11.3649 7.17007L10.0249 8.22007L10.0599 8.10007ZM11.3999 7.09007L11.4199 7.07007L11.4299 7.03007L11.6299 6.94507L11.5149 7.11007H11.4499L11.4299 7.13007L11.3999 7.09007Z" fill="#F1B517" stroke="black" stroke-width="0.03"/>
<path d="M11.4805 7.17004C11.4519 7.119 11.4126 7.07467 11.3655 7.04004L11.3055 7.10504L11.3955 7.21004L11.4805 7.17004Z" fill="#F1B517" stroke="black" stroke-width="0.03"/>
<path d="M11.5448 7.33V7.385C11.5248 7.375 11.3598 7.2 11.3598 7.2L11.2348 7.175L11.2048 7.135C11.2948 7.03 11.3898 7.17 11.3898 7.17L11.5498 7.33H11.5448Z" fill="#0A328C" stroke="#0A328C" stroke-width="0.03"/>
<path d="M11.445 7.425C11.455 7.375 11.385 7.235 11.375 7.225C11.295 7.25 11.225 7.285 11.2 7.125C11.25 7.205 11.375 7.145 11.375 7.145L11.415 7.195V7.22L11.54 7.385L11.445 7.425Z" fill="#D20014" stroke="#D20014" stroke-width="0.03"/>
<path d="M10.6846 8.08506C10.9936 7.91124 11.3019 7.73624 11.6096 7.56006C11.6746 7.67506 11.6146 7.83506 11.5846 7.86006C11.5846 7.93506 11.6146 7.97506 11.5496 8.13506C11.5296 8.23506 11.4846 8.33006 11.4146 8.38506C11.3346 8.70506 11.0046 8.73006 10.8796 8.46506L10.6796 8.08506H10.6846Z" fill="#0A328C" stroke="black" stroke-width="0.03"/>
<path d="M10.0796 8.42506L10.7046 8.06006C10.9046 8.08506 10.7046 8.46006 10.6896 8.49506L10.0796 8.71006V8.42506Z" fill="#D20014" stroke="black" stroke-width="0.03"/>
<path d="M10.185 8.29002L11.6 7.54002L11.625 7.57002L10.125 8.40502L10.185 8.29002ZM11.67 7.50002L11.695 7.48502L11.71 7.44502L11.915 7.39502L11.78 7.54002L11.72 7.53002L11.69 7.54502L11.67 7.50002Z" fill="#F1B517" stroke="black" stroke-width="0.03"/>
<path d="M11.7354 7.59006C11.7154 7.54006 11.6954 7.49506 11.6454 7.44006L11.5754 7.49506L11.6454 7.61506L11.7354 7.59006Z" fill="#F1B517" stroke="black" stroke-width="0.03"/>
<path d="M11.79 7.76L11.76 7.82L11.61 7.59L11.485 7.545L11.46 7.495C11.56 7.405 11.635 7.565 11.635 7.565L11.79 7.76Z" fill="#0A328C" stroke="#0A328C" stroke-width="0.03"/>
<path d="M11.6549 7.84C11.6649 7.79 11.6299 7.63 11.6199 7.625C11.5449 7.65 11.4799 7.655 11.4599 7.495C11.5099 7.57 11.6249 7.545 11.6249 7.545L11.6599 7.595L11.6549 7.615L11.7549 7.815L11.6549 7.84Z" fill="#D20014" stroke="#D20014" stroke-width="0.03"/>
<path d="M9.9398 6.27996L9.9148 6.72996H10.0598L10.0398 6.27996L10.1898 6.26496L10.1748 6.08496L9.7998 6.09996V6.25996L9.9398 6.27996Z" fill="#016A16" stroke="#016A16" stroke-width="0.03"/>
<path d="M9.98961 6.09502C9.59961 5.70502 9.29461 5.89502 9.22461 5.95002C9.27461 5.96002 9.31461 5.93002 9.33961 5.92502L9.28961 5.98502C9.28961 5.98502 9.41461 5.93502 9.42961 5.93502C9.40961 5.95002 9.38961 5.98502 9.38961 5.98502C9.39961 5.98502 9.46961 5.93002 9.47961 5.93002C9.45961 5.95002 9.45461 6.00502 9.45461 6.00502L9.51461 5.98002C9.52961 5.99002 9.50961 6.01002 9.51961 6.01002C9.61961 6.00002 9.75461 6.09502 9.76961 6.12502" fill="#016A16"/>
<path d="M9.98961 6.09502C9.59961 5.70502 9.29461 5.89502 9.22461 5.95002C9.27461 5.96002 9.31461 5.93002 9.33961 5.92502L9.28961 5.98502C9.28961 5.98502 9.41461 5.93502 9.42961 5.93502C9.40961 5.95002 9.38961 5.98502 9.38961 5.98502C9.39961 5.98502 9.46961 5.93002 9.47961 5.93002C9.45961 5.95002 9.45461 6.00502 9.45461 6.00502L9.51461 5.98002C9.52961 5.99002 9.50961 6.01002 9.51961 6.01002C9.61961 6.00002 9.75461 6.09502 9.76961 6.12502" stroke="black" stroke-width="0.03"/>
<path d="M9.89484 6.16504C9.85484 6.07504 9.11484 5.91504 8.96484 6.18004C9.02484 6.19504 9.07984 6.13004 9.07984 6.13004V6.19004L9.17484 6.11004L9.13984 6.19004L9.21484 6.12504V6.19004L9.31484 6.09004L9.29984 6.14504L9.38484 6.11004L9.37484 6.16004" fill="#016A16"/>
<path d="M9.89484 6.16504C9.85484 6.07504 9.11484 5.91504 8.96484 6.18004C9.02484 6.19504 9.07984 6.13004 9.07984 6.13004V6.19004L9.17484 6.11004L9.13984 6.19004L9.21484 6.12504V6.19004L9.31484 6.09004L9.29984 6.14504L9.38484 6.11004L9.37484 6.16004" stroke="black" stroke-width="0.03"/>
<path d="M9.86031 6.18004C9.67031 6.05504 9.38031 6.14004 9.38031 6.14004C9.19031 6.24004 9.09031 6.22504 9.07031 6.42004C9.08531 6.41504 9.13531 6.35004 9.13531 6.35004L9.17531 6.42504L9.18531 6.32004L9.21531 6.40504L9.26531 6.26504L9.27531 6.36004L9.34531 6.26504L9.37531 6.29504L9.40531 6.22004L9.43531 6.27004C9.43531 6.27004 9.48531 6.24004 9.51031 6.25504L9.56031 6.19504L9.57531 6.24004L9.62531 6.19004L9.64031 6.22504L9.68531 6.18504V6.21504H9.83531" fill="#016A16"/>
<path d="M9.86031 6.18004C9.67031 6.05504 9.38031 6.14004 9.38031 6.14004C9.19031 6.24004 9.09031 6.22504 9.07031 6.42004C9.08531 6.41504 9.13531 6.35004 9.13531 6.35004L9.17531 6.42504L9.18531 6.32004L9.21531 6.40504L9.26531 6.26504L9.27531 6.36004L9.34531 6.26504L9.37531 6.29504L9.40531 6.22004L9.43531 6.27004C9.43531 6.27004 9.48531 6.24004 9.51031 6.25504L9.56031 6.19504L9.57531 6.24004L9.62531 6.19004L9.64031 6.22504L9.68531 6.18504V6.21504H9.83531" stroke="black" stroke-width="0.03"/>
<path d="M9.81996 6.20007C9.68496 6.20007 9.30496 6.34507 9.20996 6.49007C9.23107 6.47891 9.25277 6.4689 9.27496 6.46007L9.28996 6.52007L9.31496 6.46007L9.31996 6.51007C9.33496 6.47007 9.34996 6.47007 9.37996 6.50507L9.38996 6.45007L9.40496 6.50007L9.42996 6.44507C9.42996 6.44507 9.44496 6.50507 9.45496 6.50507C9.45496 6.50507 9.49496 6.39507 9.51496 6.39007L9.51996 6.46007L9.54496 6.39007L9.56996 6.44007V6.37007L9.59996 6.42007C9.59996 6.42007 9.60996 6.37007 9.62996 6.36007L9.66996 6.39507L9.83996 6.27007" fill="#016A16"/>
<path d="M9.81996 6.20007C9.68496 6.20007 9.30496 6.34507 9.20996 6.49007C9.23107 6.47891 9.25277 6.4689 9.27496 6.46007L9.28996 6.52007L9.31496 6.46007L9.31996 6.51007C9.33496 6.47007 9.34996 6.47007 9.37996 6.50507L9.38996 6.45007L9.40496 6.50007L9.42996 6.44507C9.42996 6.44507 9.44496 6.50507 9.45496 6.50507C9.45496 6.50507 9.49496 6.39507 9.51496 6.39007L9.51996 6.46007L9.54496 6.39007L9.56996 6.44007V6.37007L9.59996 6.42007C9.59996 6.42007 9.60996 6.37007 9.62996 6.36007L9.66996 6.39507L9.83996 6.27007" stroke="black" stroke-width="0.03"/>
<path d="M9.84441 6.23499C9.66941 6.29999 9.50941 6.54499 9.52441 6.64499C9.59941 6.54499 9.58441 6.55999 9.61941 6.67499C9.61941 6.67499 9.62941 6.57499 9.64441 6.56499L9.66941 6.63499L9.67441 6.53999H9.69941L9.69441 6.48499L9.72942 6.50999C9.71942 6.47499 9.71441 6.46499 9.74941 6.43499C9.74941 6.43499 9.69941 6.43999 9.73941 6.35999L9.77441 6.38999C9.77441 6.38999 9.76441 6.35499 9.77441 6.33999L9.90442 6.29999" fill="#016A16"/>
<path d="M9.84441 6.23499C9.66941 6.29999 9.50941 6.54499 9.52441 6.64499C9.59941 6.54499 9.58441 6.55999 9.61941 6.67499C9.61941 6.67499 9.62941 6.57499 9.64441 6.56499L9.66941 6.63499L9.67441 6.53999H9.69941L9.69441 6.48499L9.72942 6.50999C9.71942 6.47499 9.71441 6.46499 9.74941 6.43499C9.74941 6.43499 9.69941 6.43999 9.73941 6.35999L9.77441 6.38999C9.77441 6.38999 9.76441 6.35499 9.77441 6.33999L9.90442 6.29999" stroke="black" stroke-width="0.03"/>
<path d="M9.86008 6.25L9.79508 6.38L9.83008 6.39L9.75008 6.445L9.81508 6.44C9.81508 6.44 9.71508 6.475 9.70508 6.575L9.80508 6.525C9.80508 6.525 9.72008 6.615 9.70508 6.67L9.77008 6.62C9.77008 6.62 9.71008 6.68 9.72008 6.77L9.76508 6.72C9.75508 6.835 9.75508 6.845 9.80508 6.93C9.80508 6.93 9.79508 6.8 9.80508 6.78L9.92008 6.9L9.86008 6.735C9.86008 6.735 9.93008 6.835 9.97008 6.83L9.88008 6.695L9.97008 6.765L9.87008 6.615L9.96008 6.645C9.96008 6.645 9.89508 6.56 9.90008 6.505L9.96508 6.575C9.96508 6.575 9.94008 6.5 9.94508 6.475L9.98008 6.48L9.91508 6.41L9.96008 6.4L9.95508 6.35L9.98508 6.345V6.29M9.93008 6.29C9.82008 6.44 9.87508 6.665 9.81008 6.785L9.93008 6.29Z" fill="#016A16"/>
<path d="M9.86008 6.25L9.79508 6.38L9.83008 6.39L9.75008 6.445L9.81508 6.44C9.81508 6.44 9.71508 6.475 9.70508 6.575L9.80508 6.525C9.80508 6.525 9.72008 6.615 9.70508 6.67L9.77008 6.62C9.77008 6.62 9.71008 6.68 9.72008 6.77L9.76508 6.72C9.75508 6.835 9.75508 6.845 9.80508 6.93C9.80508 6.93 9.79508 6.8 9.80508 6.78L9.92008 6.9L9.86008 6.735C9.86008 6.735 9.93008 6.835 9.97008 6.83L9.88008 6.695L9.97008 6.765L9.87008 6.615L9.96008 6.645C9.96008 6.645 9.89508 6.56 9.90008 6.505L9.96508 6.575C9.96508 6.575 9.94008 6.5 9.94508 6.475L9.98008 6.48L9.91508 6.41L9.96008 6.4L9.95508 6.35L9.98508 6.345V6.29M9.93008 6.29C9.82008 6.44 9.87508 6.665 9.81008 6.785" stroke="black" stroke-width="0.03"/>
<path d="M10.0055 6.09502C10.3955 5.70502 10.7005 5.89502 10.7705 5.95002C10.7205 5.96002 10.6805 5.93002 10.6555 5.92502L10.7055 5.98502C10.7055 5.98502 10.5805 5.93502 10.5655 5.93502C10.5855 5.95002 10.6055 5.98502 10.6055 5.98502C10.5955 5.98502 10.5255 5.93002 10.5155 5.93002C10.5355 5.95002 10.5405 6.00502 10.5405 6.00502L10.4805 5.98002C10.4655 5.99002 10.4855 6.01002 10.4755 6.01002C10.3755 6.00002 10.2405 6.09502 10.2255 6.12502" fill="#016A16"/>
<path d="M10.0055 6.09502C10.3955 5.70502 10.7005 5.89502 10.7705 5.95002C10.7205 5.96002 10.6805 5.93002 10.6555 5.92502L10.7055 5.98502C10.7055 5.98502 10.5805 5.93502 10.5655 5.93502C10.5855 5.95002 10.6055 5.98502 10.6055 5.98502C10.5955 5.98502 10.5255 5.93002 10.5155 5.93002C10.5355 5.95002 10.5405 6.00502 10.5405 6.00502L10.4805 5.98002C10.4655 5.99002 10.4855 6.01002 10.4755 6.01002C10.3755 6.00002 10.2405 6.09502 10.2255 6.12502" stroke="black" stroke-width="0.03"/>
<path d="M10.1003 6.16504C10.1403 6.07504 10.8803 5.91504 11.0303 6.18004C10.9703 6.19504 10.9153 6.13004 10.9153 6.13004V6.19004L10.8203 6.11004L10.8553 6.19004L10.7803 6.12504V6.19004L10.6803 6.09004L10.6953 6.14504L10.6103 6.11004L10.6203 6.16004" fill="#016A16"/>
<path d="M10.1003 6.16504C10.1403 6.07504 10.8803 5.91504 11.0303 6.18004C10.9703 6.19504 10.9153 6.13004 10.9153 6.13004V6.19004L10.8203 6.11004L10.8553 6.19004L10.7803 6.12504V6.19004L10.6803 6.09004L10.6953 6.14504L10.6103 6.11004L10.6203 6.16004" stroke="black" stroke-width="0.03"/>
<path d="M10.1348 6.18004C10.3248 6.05504 10.6148 6.14004 10.6148 6.14004C10.8048 6.24004 10.9048 6.22504 10.9248 6.42004C10.9098 6.41504 10.8598 6.35004 10.8598 6.35004L10.8198 6.42504L10.8098 6.32004L10.7798 6.40504L10.7298 6.26504L10.7198 6.36004L10.6498 6.26504L10.6198 6.29504L10.5898 6.22004L10.5598 6.27004C10.5598 6.27004 10.5098 6.24004 10.4848 6.25504L10.4348 6.19504L10.4198 6.24004L10.3698 6.19004L10.3548 6.22504L10.3098 6.18504V6.21504H10.1598" fill="#016A16"/>
<path d="M10.1348 6.18004C10.3248 6.05504 10.6148 6.14004 10.6148 6.14004C10.8048 6.24004 10.9048 6.22504 10.9248 6.42004C10.9098 6.41504 10.8598 6.35004 10.8598 6.35004L10.8198 6.42504L10.8098 6.32004L10.7798 6.40504L10.7298 6.26504L10.7198 6.36004L10.6498 6.26504L10.6198 6.29504L10.5898 6.22004L10.5598 6.27004C10.5598 6.27004 10.5098 6.24004 10.4848 6.25504L10.4348 6.19504L10.4198 6.24004L10.3698 6.19004L10.3548 6.22504L10.3098 6.18504V6.21504H10.1598" stroke="black" stroke-width="0.03"/>
<path d="M10.1752 6.20007C10.3102 6.20007 10.6902 6.34507 10.7852 6.49007C10.764 6.47891 10.7423 6.4689 10.7202 6.46007L10.7052 6.52007L10.6802 6.46007L10.6752 6.51007C10.6602 6.47007 10.6452 6.47007 10.6152 6.50507L10.6052 6.45007L10.5902 6.50007L10.5652 6.44507C10.5652 6.44507 10.5502 6.50507 10.5402 6.50507C10.5402 6.50507 10.5002 6.39507 10.4802 6.39007L10.4752 6.46007L10.4502 6.39007L10.4252 6.44007V6.37007L10.3952 6.42007C10.3952 6.42007 10.3852 6.37007 10.3652 6.36007L10.3252 6.39507L10.1552 6.27007" fill="#016A16"/>
<path d="M10.1752 6.20007C10.3102 6.20007 10.6902 6.34507 10.7852 6.49007C10.764 6.47891 10.7423 6.4689 10.7202 6.46007L10.7052 6.52007L10.6802 6.46007L10.6752 6.51007C10.6602 6.47007 10.6452 6.47007 10.6152 6.50507L10.6052 6.45007L10.5902 6.50007L10.5652 6.44507C10.5652 6.44507 10.5502 6.50507 10.5402 6.50507C10.5402 6.50507 10.5002 6.39507 10.4802 6.39007L10.4752 6.46007L10.4502 6.39007L10.4252 6.44007V6.37007L10.3952 6.42007C10.3952 6.42007 10.3852 6.37007 10.3652 6.36007L10.3252 6.39507L10.1552 6.27007" stroke="black" stroke-width="0.03"/>
<path d="M10.1507 6.23499C10.3257 6.29999 10.4857 6.54499 10.4707 6.64499C10.3957 6.54499 10.4107 6.55999 10.3757 6.67499C10.3757 6.67499 10.3657 6.57499 10.3507 6.56499L10.3257 6.63499L10.3207 6.53999H10.2957L10.3007 6.48499L10.2657 6.50999C10.2757 6.47499 10.2807 6.46499 10.2457 6.43499C10.2457 6.43499 10.2957 6.43999 10.2557 6.35999L10.2207 6.38999C10.2207 6.38999 10.2307 6.35499 10.2207 6.33999L10.0907 6.29999" fill="#016A16"/>
<path d="M10.1507 6.23499C10.3257 6.29999 10.4857 6.54499 10.4707 6.64499C10.3957 6.54499 10.4107 6.55999 10.3757 6.67499C10.3757 6.67499 10.3657 6.57499 10.3507 6.56499L10.3257 6.63499L10.3207 6.53999H10.2957L10.3007 6.48499L10.2657 6.50999C10.2757 6.47499 10.2807 6.46499 10.2457 6.43499C10.2457 6.43499 10.2957 6.43999 10.2557 6.35999L10.2207 6.38999C10.2207 6.38999 10.2307 6.35499 10.2207 6.33999L10.0907 6.29999" stroke="black" stroke-width="0.03"/>
<path d="M10.135 6.25L10.2 6.38L10.165 6.39L10.245 6.445L10.18 6.44C10.18 6.44 10.28 6.475 10.29 6.575L10.19 6.525C10.19 6.525 10.275 6.615 10.29 6.67L10.225 6.62C10.225 6.62 10.285 6.68 10.275 6.77L10.23 6.72C10.24 6.835 10.24 6.845 10.19 6.93C10.19 6.93 10.2 6.8 10.19 6.78L10.075 6.9L10.135 6.735C10.135 6.735 10.065 6.835 10.025 6.83L10.115 6.695L10.025 6.765L10.125 6.615L10.035 6.645C10.035 6.645 10.1 6.56 10.095 6.505L10.03 6.575C10.03 6.575 10.055 6.5 10.05 6.475L10.015 6.48L10.08 6.41L10.035 6.4L10.04 6.35L10.01 6.345V6.29M10.065 6.29C10.175 6.44 10.12 6.665 10.185 6.785L10.065 6.29Z" fill="#016A16"/>
<path d="M10.135 6.25L10.2 6.38L10.165 6.39L10.245 6.445L10.18 6.44C10.18 6.44 10.28 6.475 10.29 6.575L10.19 6.525C10.19 6.525 10.275 6.615 10.29 6.67L10.225 6.62C10.225 6.62 10.285 6.68 10.275 6.77L10.23 6.72C10.24 6.835 10.24 6.845 10.19 6.93C10.19 6.93 10.2 6.8 10.19 6.78L10.075 6.9L10.135 6.735C10.135 6.735 10.065 6.835 10.025 6.83L10.115 6.695L10.025 6.765L10.125 6.615L10.035 6.645C10.035 6.645 10.1 6.56 10.095 6.505L10.03 6.575C10.03 6.575 10.055 6.5 10.05 6.475L10.015 6.48L10.08 6.41L10.035 6.4L10.04 6.35L10.01 6.345V6.29M10.065 6.29C10.175 6.44 10.12 6.665 10.185 6.785" stroke="black" stroke-width="0.03"/>
<path d="M10.0496 8.32507C10.0496 8.32507 10.1046 7.82507 10.1046 7.61507C10.1046 7.44507 10.0646 7.07507 10.0646 7.07507H9.89957C9.89957 7.07507 9.87457 7.44507 9.87957 7.61507C9.87957 7.82507 9.93457 8.32507 9.93457 8.32507H10.0496Z" fill="#F1B517" stroke="black" stroke-width="0.03"/>
<path d="M9.88477 7.09997H10.0848L10.0598 6.96497H9.91477L9.88477 7.09497V7.09997Z" fill="#F1B517" stroke="black" stroke-width="0.03"/>
<path d="M9.89953 6.98998H10.0745L10.0395 6.85498H9.92953L9.89453 6.98998H9.89953Z" fill="#F1B517" stroke="black" stroke-width="0.03"/>
<path d="M9.91016 6.885H10.0602L10.0302 6.75H9.93516L9.91016 6.885Z" fill="#F1B517" stroke="black" stroke-width="0.03"/>
<path d="M10.0351 6.73499H9.93512L9.92012 6.78499H10.0451L10.0351 6.73499ZM10.0551 8.21999H9.92512H10.0551ZM10.0651 8.11999H9.91512H10.0651ZM10.0851 8.01999H9.89512H10.0851ZM10.0951 7.91499H9.89512H10.0951ZM10.0951 7.80499H9.89012H10.0951ZM10.1001 7.70499H9.88012H10.1001ZM10.1001 7.61999H9.87012H10.1001ZM10.1001 7.50999H9.87012H10.1001ZM10.0951 7.40499H9.87012H10.0951ZM10.0851 7.29499H9.88012H10.0851ZM10.0751 7.19499H9.89012H10.0751Z" fill="#F1B517"/>
<path d="M10.0551 8.21999H9.92512M10.0651 8.11999H9.91512M10.0851 8.01999H9.89512M10.0951 7.91499H9.89512M10.0951 7.80499H9.89012M10.1001 7.70499H9.88012M10.1001 7.61999H9.87012M10.1001 7.50999H9.87012M10.0951 7.40499H9.87012M10.0851 7.29499H9.88012M10.0751 7.19499H9.89012M10.0351 6.73499H9.93512L9.92012 6.78499H10.0451L10.0351 6.73499Z" stroke="black" stroke-width="0.03"/>
<path d="M9.9997 5.95002C9.9597 5.93502 9.8847 5.88502 9.9047 5.85502L9.9397 5.79502C9.9897 5.68502 9.9397 5.72502 9.9397 5.69502C9.9297 5.65502 10.1297 5.68502 10.1297 5.76002C10.1297 5.78502 10.1147 5.77002 10.1197 5.89002L10.0797 5.96502C10.051 5.96878 10.0218 5.96534 9.9947 5.95502L9.9997 5.95002Z" fill="#0A328C" stroke="#0A328C" stroke-width="0.03"/>
<path d="M10.0197 6.24998L9.96973 6.20498L9.98473 5.84998L10.0347 5.86498L10.0197 6.24498V6.24998Z" fill="#F1B517" stroke="black" stroke-width="0.03"/>
<path d="M10.0849 5.96504C10.1149 5.94504 10.1349 5.89004 10.1149 5.86004C10.0649 5.79504 10.0299 5.82004 9.9449 5.79004C9.9299 5.81004 9.8949 5.84004 9.8999 5.87004C10.0149 5.92004 9.9699 5.88004 10.0099 5.88504C10.0299 5.88504 10.0399 5.91004 10.0849 5.96004V5.96504Z" fill="#D20014" stroke="#D20014" stroke-width="0.03"/>
<path d="M9.42393 8.01501C9.41393 7.99001 9.37393 7.97001 9.32393 7.97001C9.27393 7.97001 9.23893 7.99001 9.22393 8.01501C9.22223 8.00846 9.22223 8.00157 9.22393 7.99501C9.22393 7.96001 9.26893 7.93502 9.32393 7.93502C9.38393 7.93502 9.42893 7.96001 9.42893 7.99501C9.43062 8.00157 9.43062 8.00846 9.42893 8.01501H9.42393Z" fill="#016A16" stroke="white" stroke-width="0.03" stroke-linecap="round"/>
<path d="M9.41937 8.09002C9.41937 8.15002 9.37438 8.20502 9.32438 8.20502C9.27438 8.20502 9.23438 8.15502 9.23438 8.08502V8.02502H9.41937V8.08502V8.09002Z" fill="#016A16" stroke="white" stroke-width="0.03" stroke-linecap="round"/>
<path d="M9.32438 8.04996C9.37408 8.04996 9.41438 8.02981 9.41438 8.00496C9.41438 7.98011 9.37408 7.95996 9.32438 7.95996C9.27467 7.95996 9.23438 7.98011 9.23438 8.00496C9.23438 8.02981 9.27467 8.04996 9.32438 8.04996Z" fill="white"/>
<path d="M9.30406 8.05001L9.28906 7.89001H9.35906L9.34906 8.05501H9.30406V8.05001Z" fill="#016A16" stroke="#F1B517" stroke-width="0.03"/>
<path d="M9.42393 8.005C9.41393 8.03 9.37393 8.05 9.32393 8.05C9.27393 8.05 9.23893 8.03 9.22393 8.005C9.22223 8.01156 9.22223 8.01845 9.22393 8.025C9.22393 8.06 9.26893 8.085 9.32393 8.085C9.38393 8.085 9.42893 8.06 9.42893 8.025C9.43062 8.01845 9.43062 8.01156 9.42893 8.005H9.42393Z" fill="#016A16" stroke="white" stroke-width="0.03" stroke-linecap="round"/>
<path d="M9.79902 8.63999L9.44902 8.52999L9.29402 8.26499L8.74902 8.23999L8.76902 8.43999L9.23402 8.52499L9.27402 8.60499L9.80902 8.75499L9.79902 8.63999Z" fill="#F1B517" stroke="black" stroke-width="0.03"/>
<path d="M9.43461 8.71501L8.87461 7.89001L8.84961 7.91501L9.39961 8.73501L9.43461 8.71501Z" fill="#503200" stroke="black" stroke-width="0.03"/>
<path d="M8.92909 7.925L8.86909 7.825C8.85409 7.805 8.83909 7.8 8.81409 7.815C8.78909 7.825 8.79409 7.85 8.80409 7.87L8.85409 7.965L8.92909 7.925Z" fill="white" stroke="black" stroke-width="0.03"/>
<path d="M9.49973 8.20497L8.37473 8.08997L8.34473 8.25497L9.46473 8.36997L9.49973 8.20497Z" fill="#F1B517" stroke="black" stroke-width="0.03"/>
<path d="M8.34922 8.05005L8.32422 8.27505H8.37422L8.40422 8.07005L8.35422 8.05005H8.34922ZM8.53922 8.08505L8.52922 8.29005H8.55922L8.58422 8.11505L8.54422 8.08505H8.53922ZM9.30422 8.17505L9.27422 8.36505H9.32922L9.35422 8.17505H9.30422ZM9.46922 8.18005L9.43422 8.40005L9.49422 8.41005L9.51422 8.29505C9.51422 8.32005 9.53922 8.33505 9.56422 8.33505C9.59422 8.33505 9.61422 8.31005 9.61422 8.28505C9.61422 8.25505 9.59422 8.23505 9.56422 8.23505C9.55379 8.23419 9.54336 8.23662 9.53439 8.24201C9.52542 8.24739 9.51837 8.25545 9.51422 8.26505L9.52922 8.18505L9.46922 8.18005ZM9.06922 8.21505L8.90922 8.39005L8.92922 8.41005L9.12922 8.27505L9.06422 8.21505H9.06922ZM8.69922 8.65005L8.85422 8.47505L8.83922 8.45505L8.63922 8.59005L8.69922 8.65005ZM9.10422 8.60505L8.91922 8.46005L8.89922 8.47505L9.04922 8.66505L9.10422 8.60505ZM8.63922 8.27005L8.83422 8.41005L8.85422 8.39505L8.70422 8.20505L8.63922 8.27005ZM8.84922 8.15505L8.86922 8.38505H8.89422L8.95422 8.16005L8.84922 8.15505ZM8.90922 8.70505L8.89422 8.48005H8.86422L8.82922 8.71005H8.90922V8.70505ZM9.16422 8.40505L8.92422 8.42505V8.45005L9.16422 8.48005V8.40005V8.40505ZM8.59422 8.48005L8.82922 8.44505V8.42505L8.58922 8.40005V8.48005H8.59422Z" fill="#F1B517" stroke="black" stroke-width="0.03"/>
<path d="M8.88434 8.49C8.92023 8.49 8.94934 8.46313 8.94934 8.43C8.94934 8.39686 8.92023 8.37 8.88434 8.37C8.84844 8.37 8.81934 8.39686 8.81934 8.43C8.81934 8.46313 8.84844 8.49 8.88434 8.49Z" fill="#F1B517" stroke="black" stroke-width="0.03"/>
<path fill-rule="evenodd" clip-rule="evenodd" d="M9.21883 8.43002C9.21883 8.60502 9.06883 8.75502 8.88383 8.75502C8.84049 8.75568 8.79745 8.7478 8.75716 8.73182C8.71687 8.71585 8.68012 8.69209 8.64901 8.66191C8.6179 8.63173 8.59304 8.59572 8.57585 8.55593C8.55866 8.51614 8.54948 8.47336 8.54883 8.43002C8.54883 8.25002 8.69883 8.10502 8.88383 8.10502C8.92717 8.10436 8.97021 8.11224 9.0105 8.12821C9.05079 8.14419 9.08754 8.16795 9.11865 8.19813C9.14976 8.22831 9.17462 8.26432 9.19181 8.30411C9.20899 8.3439 9.21818 8.38668 9.21883 8.43002ZM9.15383 8.43002C9.15318 8.46482 9.14568 8.49915 9.13176 8.53106C9.11783 8.56296 9.09776 8.59181 9.07269 8.61595C9.04762 8.6401 9.01803 8.65906 8.98563 8.67177C8.95322 8.68448 8.91863 8.69068 8.88383 8.69002C8.84861 8.69068 8.81361 8.68432 8.78088 8.6713C8.74815 8.65828 8.71834 8.63887 8.6932 8.61419C8.66806 8.58952 8.6481 8.56008 8.63447 8.5276C8.62084 8.49512 8.61382 8.46024 8.61383 8.42502C8.61644 8.35561 8.64619 8.29 8.69669 8.24231C8.74718 8.19462 8.81438 8.16866 8.88383 8.17002C8.91863 8.16936 8.95322 8.17556 8.98563 8.18826C9.01803 8.20097 9.04762 8.21994 9.07269 8.24409C9.09776 8.26823 9.11783 8.29708 9.13176 8.32898C9.14568 8.36088 9.15318 8.39522 9.15383 8.43002Z" fill="#F1B517" stroke="black" stroke-width="0.03" stroke-linecap="round"/>
<path d="M8.67402 8.26498L8.62402 8.22498L8.67402 8.26498ZM9.04902 8.22498L9.09902 8.17498L9.04902 8.22498ZM9.14902 8.63498L9.09402 8.58998L9.14902 8.63498ZM8.67402 8.68498L8.72402 8.63498L8.67402 8.68498ZM9.80902 8.10498L9.86402 8.40498L9.81902 8.42498L9.76902 8.10998H9.80902V8.10498Z" fill="#F1B517"/>
<path d="M8.67402 8.26498L8.62402 8.22498M9.04902 8.22498L9.09902 8.17498M9.14902 8.63498L9.09402 8.58998M8.67402 8.68498L8.72402 8.63498M9.80902 8.10498L9.86402 8.40498L9.81902 8.42498L9.76902 8.10998H9.80902V8.10498Z" stroke="black" stroke-width="0.03"/>
<path d="M9.77905 8.07C9.75405 8.055 9.71905 8.075 9.65905 8.005C9.56405 8.09 9.65905 8.105 9.66905 8.19C9.69405 8.2 9.71405 8.12 9.78405 8.115L9.89905 8.105L9.87405 8.07H9.77405H9.77905Z" fill="white" stroke="black" stroke-width="0.03"/>
<path d="M9.81879 8.12498L9.80879 8.03998C9.79379 8.00498 9.75879 8.03498 9.75879 8.04998L9.76879 8.13498L9.81879 8.12498Z" fill="white" stroke="black" stroke-width="0.03"/>
<path fill-rule="evenodd" clip-rule="evenodd" d="M9.53919 8.37V8.45C9.50919 8.46 9.51419 8.48 9.51419 8.51V8.745C9.50919 8.765 9.47919 8.765 9.46419 8.775C9.44919 8.79 9.45419 8.815 9.51419 8.825L9.56419 8.83C9.63919 8.815 9.65419 8.79 9.61419 8.78C9.59919 8.77 9.56919 8.76 9.56419 8.75V8.69H9.61419C9.62419 8.69 9.64919 8.66 9.64919 8.635V8.51C9.64919 8.44 9.59919 8.43 9.57919 8.435V8.37H9.53919ZM9.61919 8.505C9.61919 8.485 9.58919 8.465 9.57919 8.465C9.56919 8.465 9.54419 8.49 9.54419 8.51V8.56C9.54419 8.58 9.55919 8.64 9.58919 8.645C9.59919 8.645 9.61919 8.625 9.61919 8.605V8.505Z" fill="#F1B517" stroke="black" stroke-width="0.03"/>
<path d="M9.21453 8.61499C9.17953 8.60499 9.17953 8.67499 9.17953 8.67499H9.22953C9.25453 8.68499 9.26953 8.71499 9.25953 8.73499C9.24453 8.74499 9.14953 8.70999 9.14453 8.73499C9.15953 8.82999 9.28953 8.86499 9.33453 8.82499C9.37953 8.77999 9.38953 8.67499 9.24453 8.63999L9.21453 8.61499ZM9.24453 8.64499L9.22953 8.67499L9.24453 8.64499Z" fill="white"/>
<path d="M9.22953 8.67499H9.17953C9.17953 8.67499 9.17953 8.60499 9.21453 8.61499L9.24453 8.63999C9.38953 8.67499 9.37953 8.77999 9.33453 8.82499C9.28953 8.86499 9.15953 8.82999 9.14453 8.73499C9.14953 8.70999 9.24453 8.74499 9.25953 8.73499C9.26953 8.71499 9.25453 8.68499 9.22953 8.67499ZM9.22953 8.67499L9.24453 8.64499" stroke="black" stroke-width="0.03"/>
<path d="M8.24934 8.64995L8.19934 8.44995L8.24934 8.64995ZM8.30434 8.63995L8.22934 8.48495L8.30434 8.63995ZM8.42934 8.59995L8.26434 8.50995L8.42934 8.59995ZM8.50434 8.57995L8.19434 8.44495L8.50434 8.57995Z" fill="#F1B517"/>
<path d="M8.24934 8.64995L8.19934 8.44995M8.30434 8.63995L8.22934 8.48495M8.42934 8.59995L8.26434 8.50995M8.50434 8.57995L8.19434 8.44495" stroke="black" stroke-width="0.03"/>
<path d="M8.00927 8.29997L7.87927 8.30497C7.86927 8.30997 7.90427 8.34997 7.89927 8.35997C7.86927 8.41497 7.67927 8.40997 7.66427 8.39997C7.63927 8.37497 7.83927 8.35997 7.84427 8.34997C7.84427 8.32997 7.81427 8.28997 7.81927 8.26497C7.81927 8.22997 7.90427 8.21497 7.90427 8.21497L8.00927 8.29997Z" fill="#D20014" stroke="#D20014" stroke-width="0.03"/>
<path d="M8.15933 8.39999L7.90933 8.18999C7.90933 8.18999 7.89433 8.17999 7.88433 8.18999C7.87433 8.19999 7.88433 8.20999 7.88433 8.20999L8.15433 8.42999L8.15933 8.40499V8.39999Z" fill="#503200" stroke="black" stroke-width="0.03"/>
<path d="M8.40926 8.61L8.19926 8.43L8.18426 8.38L8.14426 8.41C8.12926 8.42 8.11426 8.45 8.11426 8.45H8.16926L8.34926 8.62L8.40426 8.61H8.40926Z" fill="#F1B517" stroke="black" stroke-width="0.03"/>
<path d="M9.12387 8.88995C9.1432 8.88995 9.15887 8.87428 9.15887 8.85495C9.15887 8.83562 9.1432 8.81995 9.12387 8.81995C9.10454 8.81995 9.08887 8.83562 9.08887 8.85495C9.08887 8.87428 9.10454 8.88995 9.12387 8.88995Z" fill="#F1B517" stroke="black" stroke-width="0.03"/>
<path d="M9.02914 8.82C9.04847 8.82 9.06414 8.80433 9.06414 8.785C9.06414 8.76567 9.04847 8.75 9.02914 8.75C9.00981 8.75 8.99414 8.76567 8.99414 8.785C8.99414 8.80433 9.00981 8.82 9.02914 8.82Z" fill="#F1B517" stroke="black" stroke-width="0.03"/>
<path d="M8.90414 8.86504C8.92347 8.86504 8.93914 8.84937 8.93914 8.83004C8.93914 8.81071 8.92347 8.79504 8.90414 8.79504C8.88481 8.79504 8.86914 8.81071 8.86914 8.83004C8.86914 8.84937 8.88481 8.86504 8.90414 8.86504Z" fill="#F1B517" stroke="black" stroke-width="0.03"/>
<path d="M8.70883 8.90496C8.72816 8.90496 8.74383 8.88929 8.74383 8.86996C8.74383 8.85063 8.72816 8.83496 8.70883 8.83496C8.6895 8.83496 8.67383 8.85063 8.67383 8.86996C8.67383 8.88929 8.6895 8.90496 8.70883 8.90496Z" fill="#F1B517" stroke="black" stroke-width="0.03"/>
<path d="M8.62387 8.91497C8.6432 8.91497 8.65887 8.8993 8.65887 8.87997C8.65887 8.86064 8.6432 8.84497 8.62387 8.84497C8.60454 8.84497 8.58887 8.86064 8.58887 8.87997C8.58887 8.8993 8.60454 8.91497 8.62387 8.91497Z" fill="#F1B517" stroke="black" stroke-width="0.03"/>
<path d="M8.53891 8.91497C8.55824 8.91497 8.57391 8.8993 8.57391 8.87997C8.57391 8.86064 8.55824 8.84497 8.53891 8.84497C8.51958 8.84497 8.50391 8.86064 8.50391 8.87997C8.50391 8.8993 8.51958 8.91497 8.53891 8.91497Z" fill="#F1B517" stroke="black" stroke-width="0.03"/>
<path d="M8.45883 8.91497C8.47816 8.91497 8.49383 8.8993 8.49383 8.87997C8.49383 8.86064 8.47816 8.84497 8.45883 8.84497C8.4395 8.84497 8.42383 8.86064 8.42383 8.87997C8.42383 8.8993 8.4395 8.91497 8.45883 8.91497Z" fill="#F1B517" stroke="black" stroke-width="0.03"/>
<path d="M8.49887 8.85003C8.5182 8.85003 8.53387 8.83436 8.53387 8.81503C8.53387 8.7957 8.5182 8.78003 8.49887 8.78003C8.47954 8.78003 8.46387 8.7957 8.46387 8.81503C8.46387 8.83436 8.47954 8.85003 8.49887 8.85003Z" fill="#F1B517" stroke="black" stroke-width="0.03"/>
<path d="M8.57895 8.85503C8.59828 8.85503 8.61395 8.83936 8.61395 8.82003C8.61395 8.8007 8.59828 8.78503 8.57895 8.78503C8.55962 8.78503 8.54395 8.8007 8.54395 8.82003C8.54395 8.83936 8.55962 8.85503 8.57895 8.85503Z" fill="#F1B517" stroke="black" stroke-width="0.03"/>
<path d="M8.65414 8.84502C8.67347 8.84502 8.68914 8.82935 8.68914 8.81002C8.68914 8.79069 8.67347 8.77502 8.65414 8.77502C8.63481 8.77502 8.61914 8.79069 8.61914 8.81002C8.61914 8.82935 8.63481 8.84502 8.65414 8.84502Z" fill="#F1B517" stroke="black" stroke-width="0.03"/>
<path d="M8.61898 8.78497C8.63831 8.78497 8.65398 8.7693 8.65398 8.74997C8.65398 8.73064 8.63831 8.71497 8.61898 8.71497C8.59965 8.71497 8.58398 8.73064 8.58398 8.74997C8.58398 8.7693 8.59965 8.78497 8.61898 8.78497Z" fill="#F1B517" stroke="black" stroke-width="0.03"/>
<path d="M8.53891 8.77996C8.55824 8.77996 8.57391 8.76429 8.57391 8.74496C8.57391 8.72563 8.55824 8.70996 8.53891 8.70996C8.51958 8.70996 8.50391 8.72563 8.50391 8.74496C8.50391 8.76429 8.51958 8.77996 8.53891 8.77996Z" fill="#F1B517" stroke="black" stroke-width="0.03"/>
<path d="M9.68209 8.93908C9.65666 8.95303 9.62199 8.94564 9.60918 8.92002H9.59418C9.58949 8.92534 9.58372 8.9296 9.57725 8.93252C9.57079 8.93544 9.56377 8.93695 9.55668 8.93695C9.54959 8.93695 9.54257 8.93544 9.53611 8.93252C9.52964 8.9296 9.52387 8.92534 9.51918 8.92002C9.48143 8.94519 9.45776 8.94221 9.43635 8.92879C9.43334 8.93301 9.43003 8.93685 9.42651 8.9403M9.68209 8.93908L9.34247 8.87719C9.32558 8.8644 9.28418 8.85341 9.28418 8.87002C9.28418 8.88074 9.29567 8.88428 9.30633 8.88756C9.31556 8.89041 9.32418 8.89306 9.32418 8.90002C9.32418 8.90828 9.31357 8.91048 9.30404 8.91245C9.29625 8.91406 9.28918 8.91553 9.28918 8.92002C9.28918 8.93606 9.3149 8.93602 9.3354 8.92764C9.33667 8.93269 9.33864 8.93733 9.34126 8.94145M9.68209 8.93908C9.68519 8.94398 9.68953 8.94722 9.69419 8.94929M9.42651 8.9403C9.42242 8.93762 9.41853 8.93471 9.41481 8.93173L9.41913 8.92633C9.39807 8.94984 9.36742 8.95256 9.35465 8.93449C9.35054 8.93717 9.346 8.9395 9.34126 8.94145M9.42651 8.9403C9.41272 8.95382 9.39559 8.96127 9.37918 8.96127C9.36878 8.96127 9.35837 8.95822 9.34996 8.95129C9.34655 8.94848 9.34364 8.94517 9.34126 8.94145M9.42651 8.9403C9.43702 8.94717 9.44892 8.95255 9.46293 8.95372C9.47976 8.95512 9.49752 8.95032 9.51745 8.93877C9.52131 8.9417 9.5255 8.94419 9.52994 8.94619C9.53834 8.94999 9.54746 8.95195 9.55668 8.95195C9.5659 8.95195 9.57502 8.94999 9.58342 8.94619C9.58966 8.94338 9.59539 8.93961 9.60043 8.93502H9.60079C9.61175 8.95013 9.62886 8.95855 9.64621 8.96055C9.66234 8.96241 9.67968 8.95889 9.69419 8.94929M9.34126 8.94145C9.33184 8.94533 9.32163 8.94767 9.31243 8.94813C9.3049 8.9485 9.29623 8.94772 9.28883 8.94388C9.28042 8.93951 9.27418 8.93128 9.27418 8.92002C9.27418 8.91368 9.27722 8.9088 9.28073 8.90569C9.28379 8.90297 9.28725 8.9015 9.2896 8.90066C9.29098 8.90017 9.29249 8.89973 9.29402 8.89933C9.29012 8.89792 9.28577 8.89603 9.28193 8.8934C9.27529 8.88883 9.26918 8.88124 9.26918 8.87002C9.26918 8.86322 9.27199 8.85698 9.27732 8.85266C9.28202 8.84885 9.28751 8.84746 9.2918 8.84693C9.30038 8.84587 9.31027 8.84755 9.31885 8.84995C9.32773 8.85244 9.33689 8.85618 9.34444 8.86056C9.34668 8.86186 9.34891 8.86329 9.35101 8.86485C9.36602 8.855 9.37975 8.85225 9.39324 8.85542C9.40082 8.8572 9.40724 8.86065 9.41235 8.86367C9.41358 8.86439 9.41469 8.86507 9.41574 8.8657M9.69419 8.94929C9.69965 8.95171 9.70555 8.95252 9.71043 8.95252C9.7174 8.95252 9.72483 8.95103 9.73193 8.94812C9.73493 8.95029 9.73815 8.95216 9.74155 8.95369C9.74866 8.9569 9.75638 8.95856 9.76418 8.95856C9.77198 8.95856 9.7797 8.9569 9.78681 8.95369C9.78815 8.95309 9.78947 8.95243 9.79076 8.95171M9.69419 8.94929C9.69793 8.94681 9.70149 8.94393 9.70479 8.94063L9.69919 8.93503C9.70743 8.93957 9.72236 8.9379 9.73418 8.93002C9.73793 8.93428 9.74255 8.93769 9.74772 8.94002C9.7529 8.94236 9.7585 8.94356 9.76418 8.94356C9.76985 8.94356 9.77546 8.94236 9.78064 8.94002C9.78099 8.93986 9.78135 8.9397 9.7817 8.93953C9.78391 8.94434 9.78714 8.9484 9.79076 8.95171M9.79076 8.95171C9.79203 8.95288 9.79335 8.95395 9.79468 8.95493C9.80135 8.95982 9.80937 8.96311 9.81749 8.96473C9.82763 8.96676 9.84009 8.96646 9.85096 8.96136M9.79076 8.95171C9.79527 8.94922 9.79941 8.94611 9.80306 8.94247C9.81301 8.95004 9.82896 8.95329 9.84142 8.94903C9.84369 8.95433 9.84704 8.95838 9.85096 8.96136M9.85096 8.96136C9.85809 8.9668 9.86709 8.96869 9.87471 8.9681C9.88127 8.9676 9.88812 8.96532 9.89367 8.96097C9.8994 8.95648 9.90418 8.9493 9.90418 8.94002C9.90418 8.9325 9.90225 8.92529 9.89708 8.91969C9.89659 8.91916 9.89608 8.91866 9.89557 8.9182C9.8985 8.91671 9.90175 8.91474 9.90463 8.9121C9.91035 8.90685 9.91418 8.89948 9.91418 8.89002C9.91418 8.8798 9.90728 8.87366 9.90158 8.8709C9.89619 8.86828 9.89007 8.86752 9.8848 8.86752C9.87684 8.86752 9.86756 8.86929 9.85907 8.87305L9.85875 8.87288L9.85105 8.86884C9.84588 8.86621 9.83991 8.86344 9.83367 8.86178C9.82734 8.86009 9.81986 8.8593 9.8121 8.86156C9.80955 8.8623 9.80714 8.86332 9.80486 8.8646M9.85096 8.96136C9.85572 8.95913 9.86018 8.95598 9.86399 8.9517C9.87452 8.95611 9.88918 8.95051 9.88918 8.94002C9.88918 8.92831 9.88232 8.92689 9.87663 8.92571C9.87261 8.92487 9.86918 8.92416 9.86918 8.92002C9.86918 8.91306 9.87564 8.91041 9.88257 8.90756C9.89056 8.90428 9.89918 8.90074 9.89918 8.89002C9.89918 8.88002 9.87418 8.88002 9.85918 8.89002C9.8565 8.88868 9.85382 8.88725 9.85116 8.88583C9.83837 8.87901 9.82586 8.87234 9.81496 8.8764L9.81589 8.87565C9.81267 8.87162 9.80895 8.86791 9.80486 8.8646M9.80486 8.8646C9.79308 8.85504 9.77825 8.84875 9.7635 8.84757C9.75337 8.84676 9.74271 8.84832 9.73306 8.85355C9.72875 8.85588 9.72482 8.85884 9.72135 8.86242M9.80486 8.8646C9.80051 8.86704 9.79666 8.87042 9.79329 8.8746C9.77503 8.86103 9.74891 8.85684 9.73306 8.87193C9.72972 8.86804 9.72579 8.86474 9.72135 8.86242M9.72135 8.86242C9.71693 8.86011 9.71202 8.85877 9.70668 8.85877C9.70028 8.85877 9.69448 8.8607 9.68944 8.86391M9.72135 8.86242C9.7179 8.86597 9.7149 8.87011 9.71242 8.87484C9.70847 8.87335 9.70435 8.87342 9.70041 8.87505C9.69707 8.87095 9.6934 8.8672 9.68944 8.86391M9.68944 8.86391C9.67921 8.85544 9.66696 8.85002 9.65296 8.84941C9.63745 8.84874 9.62168 8.85404 9.60614 8.86462M9.68944 8.86391C9.68521 8.8666 9.6815 8.87019 9.67841 8.87429C9.66178 8.86142 9.64042 8.86012 9.61619 8.87594C9.6134 8.87163 9.60999 8.86787 9.60614 8.86462M9.60614 8.86462C9.59464 8.85491 9.57927 8.8498 9.56521 8.84824C9.5503 8.84658 9.53319 8.8485 9.5195 8.8562C9.50288 8.84427 9.4849 8.83743 9.4662 8.83881C9.44736 8.84021 9.43047 8.84974 9.41574 8.8657M9.60614 8.86462C9.60222 8.86729 9.59831 8.8703 9.59442 8.87363L9.59671 8.87631C9.5767 8.85915 9.53658 8.85762 9.51918 8.87502C9.48418 8.84502 9.44918 8.84502 9.41918 8.88502M9.41574 8.8657C9.4128 8.86889 9.40995 8.87233 9.40718 8.87602L9.41918 8.88502M9.41574 8.8657C9.41638 8.86609 9.41699 8.86647 9.41759 8.86684C9.42055 8.86866 9.423 8.87016 9.42589 8.87161L9.41918 8.88502" fill="#F1B517" stroke="black" stroke-width="0.03"/>
<path d="M10.1941 8.63999L10.5441 8.52999L10.6991 8.26499L11.2441 8.23999L11.2241 8.43999L10.7591 8.52499L10.7191 8.60499L10.1841 8.75499L10.1941 8.63999Z" fill="#F1B517" stroke="black" stroke-width="0.03"/>
<path d="M10.5586 8.71501L11.1186 7.89001L11.1436 7.91501L10.5936 8.73501L10.5586 8.71501Z" fill="#503200" stroke="black" stroke-width="0.03"/>
<path d="M11.0641 7.925L11.1241 7.825C11.1391 7.805 11.1541 7.8 11.1791 7.815C11.2041 7.825 11.1991 7.85 11.1891 7.87L11.1391 7.965L11.0641 7.925Z" fill="white" stroke="black" stroke-width="0.03"/>
<path d="M10.4934 8.20497L11.6184 8.08997L11.6484 8.25497L10.5284 8.36997L10.4934 8.20497Z" fill="#F1B517" stroke="black" stroke-width="0.03"/>
<path d="M11.6439 8.05005L11.6689 8.27505H11.6189L11.5889 8.07005L11.6389 8.05005H11.6439ZM11.4539 8.08505L11.4639 8.29005H11.4339L11.4089 8.11505L11.4489 8.08505H11.4539ZM10.6889 8.17505L10.7189 8.36505H10.6639L10.6389 8.17505H10.6889ZM10.5239 8.18005L10.5589 8.40005L10.4989 8.41005L10.4789 8.29505C10.4789 8.32005 10.4539 8.33505 10.4289 8.33505C10.3989 8.33505 10.3789 8.31005 10.3789 8.28505C10.3789 8.25505 10.3989 8.23505 10.4289 8.23505C10.4394 8.23419 10.4498 8.23662 10.4588 8.24201C10.4677 8.24739 10.4748 8.25545 10.4789 8.26505L10.4639 8.18505L10.5239 8.18005ZM10.9239 8.21505L11.0839 8.39005L11.0639 8.41005L10.8639 8.27505L10.9289 8.21505H10.9239ZM11.2939 8.65005L11.1389 8.47505L11.1539 8.45505L11.3539 8.59005L11.2939 8.65005ZM10.8889 8.60505L11.0739 8.46005L11.0939 8.47505L10.9439 8.66505L10.8889 8.60505ZM11.3539 8.27005L11.1589 8.41005L11.1389 8.39505L11.2889 8.20505L11.3539 8.27005ZM11.1439 8.15505L11.1239 8.38505H11.0989L11.0389 8.16005L11.1439 8.15505ZM11.0839 8.70505L11.0989 8.48005H11.1289L11.1639 8.71005H11.0839V8.70505ZM10.8289 8.40505L11.0689 8.42505V8.45005L10.8289 8.48005V8.40005V8.40505ZM11.3989 8.48005L11.1639 8.44505V8.42505L11.4039 8.40005V8.48005H11.3989Z" fill="#F1B517" stroke="black" stroke-width="0.03"/>
<path d="M11.1088 8.49C11.0729 8.49 11.0438 8.46313 11.0438 8.43C11.0438 8.39686 11.0729 8.37 11.1088 8.37C11.1447 8.37 11.1738 8.39686 11.1738 8.43C11.1738 8.46313 11.1447 8.49 11.1088 8.49Z" fill="#F1B517" stroke="black" stroke-width="0.03"/>
<path fill-rule="evenodd" clip-rule="evenodd" d="M10.7743 8.43002C10.7743 8.60502 10.9243 8.75502 11.1093 8.75502C11.1527 8.75568 11.1957 8.7478 11.236 8.73182C11.2763 8.71585 11.313 8.69209 11.3442 8.66191C11.3753 8.63173 11.4001 8.59572 11.4173 8.55593C11.4345 8.51614 11.4437 8.47336 11.4443 8.43002C11.4443 8.25002 11.2943 8.10502 11.1093 8.10502C11.066 8.10436 11.023 8.11224 10.9827 8.12821C10.9424 8.14419 10.9056 8.16795 10.8745 8.19813C10.8434 8.22831 10.8185 8.26432 10.8014 8.30411C10.7842 8.3439 10.775 8.38668 10.7743 8.43002ZM10.8393 8.43002C10.84 8.46482 10.8475 8.49915 10.8614 8.53106C10.8753 8.56296 10.8954 8.59181 10.9205 8.61595C10.9455 8.6401 10.9751 8.65906 11.0075 8.67177C11.0399 8.68448 11.0745 8.69068 11.1093 8.69002C11.1446 8.69068 11.1796 8.68432 11.2123 8.6713C11.245 8.65828 11.2748 8.63887 11.3 8.61419C11.3251 8.58952 11.3451 8.56008 11.3587 8.5276C11.3723 8.49512 11.3793 8.46024 11.3793 8.42502C11.3767 8.35561 11.347 8.29 11.2965 8.24231C11.246 8.19462 11.1788 8.16866 11.1093 8.17002C11.0745 8.16936 11.0399 8.17556 11.0075 8.18826C10.9751 8.20097 10.9455 8.21994 10.9205 8.24409C10.8954 8.26823 10.8753 8.29708 10.8614 8.32898C10.8475 8.36088 10.84 8.39522 10.8393 8.43002Z" fill="#F1B517" stroke="black" stroke-width="0.03" stroke-linecap="round"/>
<path d="M11.3191 8.26498L11.3691 8.22498L11.3191 8.26498ZM10.9441 8.22498L10.8941 8.17498L10.9441 8.22498ZM10.8441 8.63498L10.8991 8.58998L10.8441 8.63498ZM11.3191 8.68498L11.2691 8.63498L11.3191 8.68498ZM10.1841 8.10498L10.1291 8.40498L10.1741 8.42498L10.2241 8.10998H10.1841V8.10498Z" fill="#F1B517"/>
<path d="M11.3191 8.26498L11.3691 8.22498M10.9441 8.22498L10.8941 8.17498M10.8441 8.63498L10.8991 8.58998M11.3191 8.68498L11.2691 8.63498M10.1841 8.10498L10.1291 8.40498L10.1741 8.42498L10.2241 8.10998H10.1841V8.10498Z" stroke="black" stroke-width="0.03"/>
<path d="M10.2141 8.07C10.2391 8.055 10.2741 8.075 10.3341 8.005C10.4291 8.09 10.3341 8.105 10.3241 8.19C10.2991 8.2 10.2791 8.12 10.2091 8.115L10.0941 8.105L10.1191 8.07H10.2191H10.2141Z" fill="white" stroke="black" stroke-width="0.03"/>
<path d="M10.1744 8.12498L10.1844 8.03998C10.1994 8.00498 10.2344 8.03498 10.2344 8.04998L10.2244 8.13498L10.1744 8.12498Z" fill="white" stroke="black" stroke-width="0.03"/>
<path fill-rule="evenodd" clip-rule="evenodd" d="M10.454 8.37V8.45C10.484 8.46 10.479 8.48 10.479 8.51V8.745C10.484 8.765 10.514 8.765 10.529 8.775C10.544 8.79 10.539 8.815 10.479 8.825L10.429 8.83C10.354 8.815 10.339 8.79 10.379 8.78C10.394 8.77 10.424 8.76 10.429 8.75V8.69H10.379C10.369 8.69 10.344 8.66 10.344 8.635V8.51C10.344 8.44 10.394 8.43 10.414 8.435V8.37H10.454ZM10.374 8.505C10.374 8.485 10.404 8.465 10.414 8.465C10.424 8.465 10.449 8.49 10.449 8.51V8.56C10.449 8.58 10.434 8.64 10.404 8.645C10.394 8.645 10.374 8.625 10.374 8.605V8.505Z" fill="#F1B517" stroke="black" stroke-width="0.03"/>
<path d="M10.7786 8.61499C10.8136 8.60499 10.8136 8.67499 10.8136 8.67499H10.7636C10.7386 8.68499 10.7236 8.71499 10.7336 8.73499C10.7486 8.74499 10.8436 8.70999 10.8486 8.73499C10.8336 8.82999 10.7036 8.86499 10.6586 8.82499C10.6136 8.77999 10.6036 8.67499 10.7486 8.63999L10.7786 8.61499ZM10.7486 8.64499L10.7636 8.67499L10.7486 8.64499Z" fill="white"/>
<path d="M10.7636 8.67499H10.8136C10.8136 8.67499 10.8136 8.60499 10.7786 8.61499L10.7486 8.63999C10.6036 8.67499 10.6136 8.77999 10.6586 8.82499C10.7036 8.86499 10.8336 8.82999 10.8486 8.73499C10.8436 8.70999 10.7486 8.74499 10.7336 8.73499C10.7236 8.71499 10.7386 8.68499 10.7636 8.67499ZM10.7636 8.67499L10.7486 8.64499" stroke="black" stroke-width="0.03"/>
<path d="M11.7438 8.64995L11.7938 8.44995L11.7438 8.64995ZM11.6888 8.63995L11.7638 8.48495L11.6888 8.63995ZM11.5638 8.59995L11.7288 8.50995L11.5638 8.59995ZM11.4888 8.57995L11.7988 8.44495L11.4888 8.57995Z" fill="#F1B517"/>
<path d="M11.7438 8.64995L11.7938 8.44995M11.6888 8.63995L11.7638 8.48495M11.5638 8.59995L11.7288 8.50995M11.4888 8.57995L11.7988 8.44495" stroke="black" stroke-width="0.03"/>
<path d="M11.9839 8.29997L12.1139 8.30497C12.1239 8.30997 12.0889 8.34997 12.0939 8.35997C12.1239 8.41497 12.3139 8.40997 12.3289 8.39997C12.3539 8.37497 12.1539 8.35997 12.1489 8.34997C12.1489 8.32997 12.1789 8.28997 12.1739 8.26497C12.1739 8.22997 12.0889 8.21497 12.0889 8.21497L11.9839 8.29997Z" fill="#D20014" stroke="#D20014" stroke-width="0.03"/>
<path d="M11.8338 8.39999L12.0838 8.18999C12.0838 8.18999 12.0988 8.17999 12.1088 8.18999C12.1188 8.19999 12.1088 8.20999 12.1088 8.20999L11.8388 8.42999L11.8338 8.40499V8.39999Z" fill="#503200" stroke="black" stroke-width="0.03"/>
<path d="M11.5839 8.61L11.7939 8.43L11.8089 8.38L11.8489 8.41C11.8639 8.42 11.8789 8.45 11.8789 8.45H11.8239L11.6439 8.62L11.5889 8.61H11.5839Z" fill="#F1B517" stroke="black" stroke-width="0.03"/>
<path d="M10.8693 8.88995C10.85 8.88995 10.8343 8.87428 10.8343 8.85495C10.8343 8.83562 10.85 8.81995 10.8693 8.81995C10.8886 8.81995 10.9043 8.83562 10.9043 8.85495C10.9043 8.87428 10.8886 8.88995 10.8693 8.88995Z" fill="#F1B517" stroke="black" stroke-width="0.03"/>
<path d="M10.964 8.82C10.9447 8.82 10.929 8.80433 10.929 8.785C10.929 8.76567 10.9447 8.75 10.964 8.75C10.9834 8.75 10.999 8.76567 10.999 8.785C10.999 8.80433 10.9834 8.82 10.964 8.82Z" fill="#F1B517" stroke="black" stroke-width="0.03"/>
<path d="M11.089 8.86504C11.0697 8.86504 11.054 8.84937 11.054 8.83004C11.054 8.81071 11.0697 8.79504 11.089 8.79504C11.1084 8.79504 11.124 8.81071 11.124 8.83004C11.124 8.84937 11.1084 8.86504 11.089 8.86504Z" fill="#F1B517" stroke="black" stroke-width="0.03"/>
<path d="M11.2843 8.90496C11.265 8.90496 11.2493 8.88929 11.2493 8.86996C11.2493 8.85063 11.265 8.83496 11.2843 8.83496C11.3037 8.83496 11.3193 8.85063 11.3193 8.86996C11.3193 8.88929 11.3037 8.90496 11.2843 8.90496Z" fill="#F1B517" stroke="black" stroke-width="0.03"/>
<path d="M11.3693 8.91497C11.35 8.91497 11.3343 8.8993 11.3343 8.87997C11.3343 8.86064 11.35 8.84497 11.3693 8.84497C11.3886 8.84497 11.4043 8.86064 11.4043 8.87997C11.4043 8.8993 11.3886 8.91497 11.3693 8.91497Z" fill="#F1B517" stroke="black" stroke-width="0.03"/>
<path d="M11.4543 8.91497C11.4349 8.91497 11.4193 8.8993 11.4193 8.87997C11.4193 8.86064 11.4349 8.84497 11.4543 8.84497C11.4736 8.84497 11.4893 8.86064 11.4893 8.87997C11.4893 8.8993 11.4736 8.91497 11.4543 8.91497Z" fill="#F1B517" stroke="black" stroke-width="0.03"/>
<path d="M11.5343 8.91497C11.515 8.91497 11.4993 8.8993 11.4993 8.87997C11.4993 8.86064 11.515 8.84497 11.5343 8.84497C11.5537 8.84497 11.5693 8.86064 11.5693 8.87997C11.5693 8.8993 11.5537 8.91497 11.5343 8.91497Z" fill="#F1B517" stroke="black" stroke-width="0.03"/>
<path d="M11.4943 8.85003C11.475 8.85003 11.4593 8.83436 11.4593 8.81503C11.4593 8.7957 11.475 8.78003 11.4943 8.78003C11.5136 8.78003 11.5293 8.7957 11.5293 8.81503C11.5293 8.83436 11.5136 8.85003 11.4943 8.85003Z" fill="#F1B517" stroke="black" stroke-width="0.03"/>
<path d="M11.4142 8.85503C11.3949 8.85503 11.3792 8.83936 11.3792 8.82003C11.3792 8.8007 11.3949 8.78503 11.4142 8.78503C11.4335 8.78503 11.4492 8.8007 11.4492 8.82003C11.4492 8.83936 11.4335 8.85503 11.4142 8.85503Z" fill="#F1B517" stroke="black" stroke-width="0.03"/>
<path d="M11.339 8.84502C11.3197 8.84502 11.304 8.82935 11.304 8.81002C11.304 8.79069 11.3197 8.77502 11.339 8.77502C11.3584 8.77502 11.374 8.79069 11.374 8.81002C11.374 8.82935 11.3584 8.84502 11.339 8.84502Z" fill="#F1B517" stroke="black" stroke-width="0.03"/>
<path d="M11.3742 8.78497C11.3548 8.78497 11.3392 8.7693 11.3392 8.74997C11.3392 8.73064 11.3548 8.71497 11.3742 8.71497C11.3935 8.71497 11.4092 8.73064 11.4092 8.74997C11.4092 8.7693 11.3935 8.78497 11.3742 8.78497Z" fill="#F1B517" stroke="black" stroke-width="0.03"/>
<path d="M11.4543 8.77996C11.4349 8.77996 11.4193 8.76429 11.4193 8.74496C11.4193 8.72563 11.4349 8.70996 11.4543 8.70996C11.4736 8.70996 11.4893 8.72563 11.4893 8.74496C11.4893 8.76429 11.4736 8.77996 11.4543 8.77996Z" fill="#F1B517" stroke="black" stroke-width="0.03"/>
<path d="M10.3111 8.93908C10.3365 8.95303 10.3712 8.94564 10.384 8.92002H10.399C10.4037 8.92534 10.4094 8.9296 10.4159 8.93252C10.4224 8.93544 10.4294 8.93695 10.4365 8.93695C10.4436 8.93695 10.4506 8.93544 10.4571 8.93252C10.4635 8.9296 10.4693 8.92534 10.474 8.92002C10.5117 8.94519 10.5354 8.94221 10.5568 8.92879C10.5598 8.93301 10.5631 8.93685 10.5666 8.9403M10.3111 8.93908L10.6507 8.87719C10.6676 8.8644 10.709 8.85341 10.709 8.87002C10.709 8.88074 10.6975 8.88428 10.6868 8.88756C10.6776 8.89041 10.669 8.89306 10.669 8.90002C10.669 8.90828 10.6796 8.91048 10.6891 8.91245C10.6969 8.91406 10.704 8.91553 10.704 8.92002C10.704 8.93606 10.6783 8.93602 10.6578 8.92764C10.6565 8.93269 10.6545 8.93733 10.6519 8.94145M10.3111 8.93908C10.308 8.94398 10.3036 8.94722 10.299 8.94929M10.5666 8.9403C10.5707 8.93762 10.5746 8.93471 10.5784 8.93173L10.574 8.92633C10.5951 8.94984 10.6257 8.95256 10.6385 8.93449C10.6426 8.93717 10.6472 8.9395 10.6519 8.94145M10.5666 8.9403C10.5804 8.95382 10.5976 8.96127 10.614 8.96127C10.6244 8.96127 10.6348 8.95822 10.6432 8.95129C10.6466 8.94848 10.6495 8.94517 10.6519 8.94145M10.5666 8.9403C10.5561 8.94717 10.5442 8.95255 10.5302 8.95372C10.5134 8.95512 10.4956 8.95032 10.4757 8.93877C10.4719 8.9417 10.4677 8.94419 10.4632 8.94619C10.4548 8.94999 10.4457 8.95195 10.4365 8.95195C10.4273 8.95195 10.4181 8.94999 10.4097 8.94619C10.4035 8.94338 10.3978 8.93961 10.3927 8.93502H10.3924C10.3814 8.95013 10.3643 8.95855 10.347 8.96055C10.3308 8.96241 10.3135 8.95889 10.299 8.94929M10.6519 8.94145C10.6613 8.94533 10.6715 8.94767 10.6807 8.94813C10.6883 8.9485 10.6969 8.94772 10.7043 8.94388C10.7127 8.93951 10.719 8.93128 10.719 8.92002C10.719 8.91368 10.7159 8.9088 10.7124 8.90569C10.7094 8.90297 10.7059 8.9015 10.7036 8.90066C10.7022 8.90017 10.7007 8.89973 10.6991 8.89933C10.703 8.89792 10.7074 8.89603 10.7112 8.8934C10.7179 8.88883 10.724 8.88124 10.724 8.87002C10.724 8.86322 10.7212 8.85698 10.7158 8.85266C10.7111 8.84885 10.7057 8.84746 10.7014 8.84693C10.6928 8.84587 10.6829 8.84755 10.6743 8.84995C10.6654 8.85244 10.6563 8.85618 10.6487 8.86056C10.6465 8.86186 10.6443 8.86329 10.6422 8.86485C10.6271 8.855 10.6134 8.85225 10.5999 8.85542C10.5923 8.8572 10.5859 8.86065 10.5808 8.86367C10.5796 8.86439 10.5785 8.86507 10.5774 8.8657M10.299 8.94929C10.2935 8.95171 10.2876 8.95252 10.2827 8.95252C10.2758 8.95252 10.2683 8.95103 10.2612 8.94812C10.2582 8.95029 10.255 8.95216 10.2516 8.95369C10.2445 8.9569 10.2368 8.95856 10.229 8.95856C10.2212 8.95856 10.2135 8.9569 10.2064 8.95369C10.205 8.95309 10.2037 8.95243 10.2024 8.95171M10.299 8.94929C10.2952 8.94681 10.2917 8.94393 10.2884 8.94063L10.294 8.93503C10.2857 8.93957 10.2708 8.9379 10.259 8.93002C10.2552 8.93428 10.2506 8.93769 10.2454 8.94002C10.2403 8.94236 10.2347 8.94356 10.229 8.94356C10.2233 8.94356 10.2177 8.94236 10.2125 8.94002C10.2122 8.93986 10.2118 8.9397 10.2115 8.93953C10.2093 8.94434 10.206 8.9484 10.2024 8.95171M10.2024 8.95171C10.2011 8.95288 10.1998 8.95395 10.1985 8.95493C10.1918 8.95982 10.1838 8.96311 10.1757 8.96473C10.1655 8.96676 10.1531 8.96646 10.1422 8.96136M10.2024 8.95171C10.1979 8.94922 10.1938 8.94611 10.1901 8.94247C10.1802 8.95004 10.1642 8.95329 10.1517 8.94903C10.1495 8.95433 10.1461 8.95838 10.1422 8.96136M10.1422 8.96136C10.1351 8.9668 10.1261 8.96869 10.1185 8.9681C10.1119 8.9676 10.105 8.96532 10.0995 8.96097C10.0938 8.95648 10.089 8.9493 10.089 8.94002C10.089 8.9325 10.0909 8.92529 10.0961 8.91969C10.0966 8.91916 10.0971 8.91866 10.0976 8.9182C10.0947 8.91671 10.0914 8.91474 10.0885 8.9121C10.0828 8.90685 10.079 8.89948 10.079 8.89002C10.079 8.8798 10.0859 8.87366 10.0916 8.8709C10.097 8.86828 10.1031 8.86752 10.1084 8.86752C10.1163 8.86752 10.1256 8.86929 10.1341 8.87305L10.1344 8.87288L10.1421 8.86884C10.1473 8.86621 10.1533 8.86344 10.1595 8.86178C10.1658 8.86009 10.1733 8.8593 10.1811 8.86156C10.1836 8.8623 10.186 8.86332 10.1883 8.8646M10.1422 8.96136C10.1374 8.95913 10.133 8.95598 10.1292 8.9517C10.1186 8.95611 10.104 8.95051 10.104 8.94002C10.104 8.92831 10.1108 8.92689 10.1165 8.92571C10.1206 8.92487 10.124 8.92416 10.124 8.92002C10.124 8.91306 10.1175 8.91041 10.1106 8.90756C10.1026 8.90428 10.094 8.90074 10.094 8.89002C10.094 8.88002 10.119 8.88002 10.134 8.89002C10.1367 8.88868 10.1393 8.88725 10.142 8.88583C10.1548 8.87901 10.1673 8.87234 10.1782 8.8764L10.1773 8.87565C10.1805 8.87162 10.1842 8.86791 10.1883 8.8646M10.1883 8.8646C10.2001 8.85504 10.2149 8.84875 10.2297 8.84757C10.2398 8.84676 10.2505 8.84832 10.2601 8.85355C10.2644 8.85588 10.2683 8.85884 10.2718 8.86242M10.1883 8.8646C10.1927 8.86704 10.1965 8.87042 10.1999 8.8746C10.2181 8.86103 10.2443 8.85684 10.2601 8.87193C10.2634 8.86804 10.2674 8.86474 10.2718 8.86242M10.2718 8.86242C10.2762 8.86011 10.2811 8.85877 10.2865 8.85877C10.2929 8.85877 10.2987 8.8607 10.3037 8.86391M10.2718 8.86242C10.2753 8.86597 10.2783 8.87011 10.2807 8.87484C10.2847 8.87335 10.2888 8.87342 10.2928 8.87505C10.2961 8.87095 10.2998 8.8672 10.3037 8.86391M10.3037 8.86391C10.314 8.85544 10.3262 8.85002 10.3402 8.84941C10.3557 8.84874 10.3715 8.85404 10.387 8.86462M10.3037 8.86391C10.308 8.8666 10.3117 8.87019 10.3148 8.87429C10.3314 8.86142 10.3527 8.86012 10.377 8.87594C10.3798 8.87163 10.3832 8.86787 10.387 8.86462M10.387 8.86462C10.3985 8.85491 10.4139 8.8498 10.428 8.84824C10.4429 8.84658 10.46 8.8485 10.4737 8.8562C10.4903 8.84427 10.5083 8.83743 10.527 8.83881C10.5458 8.84021 10.5627 8.84974 10.5774 8.8657M10.387 8.86462C10.3909 8.86729 10.3949 8.8703 10.3987 8.87363L10.3965 8.87631C10.4165 8.85915 10.4566 8.85762 10.474 8.87502C10.509 8.84502 10.544 8.84502 10.574 8.88502M10.5774 8.8657C10.5804 8.86889 10.5832 8.87233 10.586 8.87602L10.574 8.88502M10.5774 8.8657C10.5768 8.86609 10.5762 8.86647 10.5756 8.86684C10.5726 8.86866 10.5702 8.87016 10.5673 8.87161L10.574 8.88502" fill="#F1B517" stroke="black" stroke-width="0.03"/>
<path d="M9.98965 8.28503C9.86465 8.28503 9.76465 8.33503 9.76465 8.39003C9.76465 8.40003 9.76465 8.41003 9.77465 8.42003C9.79965 8.45003 9.88965 8.47003 9.99465 8.47003C10.0946 8.47003 10.1746 8.45503 10.2046 8.42503C10.2146 8.41503 10.2196 8.40503 10.2196 8.39003C10.2196 8.33503 10.1196 8.29003 9.98965 8.29003V8.28503Z" fill="#0A328C" stroke="#0A328C" stroke-width="0.03"/>
<path d="M10.2196 8.40002V8.75002C10.2196 8.79502 10.1196 8.82502 9.99465 8.82502C9.86965 8.82502 9.76465 8.79502 9.76465 8.75002V8.40002C9.76465 8.44002 9.86465 8.47502 9.98965 8.47502C10.1196 8.47502 10.2196 8.44002 10.2196 8.40002Z" fill="#F1B517" stroke="black" stroke-width="0.03"/>
<path d="M9.76465 8.40002V8.45002L9.87465 8.80002L9.96465 8.53002L10.0646 8.80502L10.1296 8.54502L10.2196 8.72002V8.62502L10.1396 8.45502C10.1298 8.45874 10.1198 8.46207 10.1096 8.46502L10.0596 8.65502L9.98465 8.47502C9.97298 8.47531 9.96131 8.47531 9.94965 8.47502L9.87465 8.65502L9.79465 8.43502C9.77465 8.42502 9.76465 8.41002 9.76465 8.40002Z" fill="#D20014" stroke="#D20014" stroke-width="0.03"/>
<path d="M10.2196 8.68494V8.74994C10.2196 8.79494 10.1196 8.82494 9.99465 8.82494C9.86965 8.82494 9.76465 8.79494 9.76465 8.74994V8.68494C9.76465 8.72994 9.86465 8.75994 9.98965 8.75994C10.1196 8.75994 10.2196 8.72994 10.2196 8.68494Z" fill="#0A328C" stroke="#0A328C" stroke-width="0.03"/>
<path d="M10.0846 8.74994L10.0296 8.75994V8.82494L10.0896 8.81994V8.75494L10.0846 8.74994ZM9.84465 8.74494V8.80994L9.89965 8.81994V8.75494C9.88112 8.75276 9.86275 8.74942 9.84465 8.74494ZM9.76465 8.68494V8.74994C9.76465 8.76494 9.77465 8.77494 9.78965 8.78494V8.71994C9.77465 8.70994 9.76465 8.69994 9.76465 8.68494ZM10.2196 8.69494C10.2196 8.70494 10.1996 8.71994 10.1796 8.72994V8.79494C10.2046 8.78494 10.2196 8.76994 10.2196 8.74994V8.69994V8.69494Z" fill="#F1B517" stroke="black" stroke-width="0.03"/>
<path d="M10.2196 8.40002V8.75002C10.2196 8.79502 10.1196 8.82502 9.99465 8.82502C9.86965 8.82502 9.76465 8.79502 9.76465 8.75002V8.40002" stroke="black" stroke-width="0.03"/>
<path d="M10.1695 8.37496C10.1695 8.39996 10.0895 8.42496 9.99445 8.42496C9.89445 8.42496 9.81445 8.39996 9.81445 8.37496C9.81445 8.34996 9.89445 8.32996 9.98945 8.32996C10.0895 8.32996 10.1695 8.34996 10.1695 8.37996V8.37496Z" fill="white" stroke="white" stroke-width="0.03"/>
<path d="M9.93379 8.41L9.94379 8.47H9.99379L9.99879 8.41H9.93379ZM10.1388 8.395L10.0888 8.405L10.0938 8.465L10.1438 8.455V8.4L10.1388 8.395ZM9.86879 8.295L9.83379 8.31L9.83879 8.36L9.86879 8.35V8.3V8.295ZM9.98879 8.28H9.97379L9.98379 8.34H10.0138L10.0238 8.28C10.0121 8.27958 10.0005 8.27958 9.98879 8.28ZM10.1238 8.3L10.1188 8.35L10.1538 8.365V8.315C10.1441 8.30937 10.1341 8.30436 10.1238 8.3ZM9.79879 8.44L9.80879 8.375L9.75879 8.35V8.425L9.79879 8.44ZM10.2188 8.425V8.36L10.1788 8.375L10.2188 8.425ZM10.6838 8C10.7238 8 10.7838 8.05 10.7888 8.125C10.7888 8.175 10.7038 8.175 10.7038 8.175C10.7038 8.2 10.6538 8.22 10.6138 8.225C10.5738 8.225 10.6238 8.15 10.6238 8.15C10.5988 8.085 10.6338 8.015 10.6338 8.015L10.6838 8Z" fill="#F1B517" stroke="black" stroke-width="0.03"/>
<path d="M10.624 8.15002H10.664C10.664 8.15002 10.664 8.16502 10.674 8.16502C10.684 8.16502 10.689 8.14502 10.689 8.14502H10.749" fill="#F1B517"/>
<path d="M10.624 8.15002H10.664C10.664 8.15002 10.664 8.16502 10.674 8.16502C10.684 8.16502 10.689 8.14502 10.689 8.14502H10.749" stroke="black" stroke-width="0.03"/>
<path d="M10.7038 8.04497C10.7388 8.01997 10.7088 7.96997 10.6838 7.96997H10.6338C10.6038 7.96997 10.5638 7.99997 10.5688 8.01997C10.5688 8.04497 10.5888 8.05497 10.6088 8.04997C10.6188 8.04997 10.6388 8.01997 10.6488 8.01997C10.6638 8.01997 10.6988 8.04997 10.7038 8.04497Z" fill="#D20014" stroke="#F1B517" stroke-width="0.03"/>
<path fill-rule="evenodd" clip-rule="evenodd" d="M8.20949 8.73999C8.17949 8.74499 8.17449 8.77999 8.18449 8.81499C8.05449 8.84999 7.93449 8.89999 7.81449 8.93499C7.80949 8.90999 7.87449 8.84499 7.87449 8.84499C7.88949 8.84999 7.90449 8.88999 7.90449 8.88999C7.90449 8.80999 7.98449 8.75999 7.98449 8.75999C7.93449 8.74999 7.79949 8.80999 7.78449 8.82999C7.78449 8.82999 7.83449 8.81999 7.84449 8.82999C7.84449 8.82999 7.73449 8.94499 7.72949 8.97999C7.74949 9.01499 7.92949 9.04499 7.92949 9.04499C7.92949 9.05499 7.87949 9.09499 7.87949 9.09499C7.95449 9.10499 8.06449 9.05499 8.09449 9.02499C8.09449 9.02499 8.00949 9.01499 7.94449 8.95999C7.94449 8.95999 7.95449 8.99499 7.94449 9.00999C7.94449 9.00999 7.84449 8.97999 7.82949 8.95999C7.82949 8.95999 8.07949 8.89999 8.19949 8.85999C8.20449 8.88499 8.22949 8.92499 8.25949 8.91499C8.27449 8.90999 8.26949 8.87499 8.25949 8.84499C8.26355 8.84861 8.2683 8.85136 8.27346 8.85308C8.27862 8.8548 8.28407 8.85545 8.28949 8.85499C8.30949 8.85499 8.32449 8.83999 8.32449 8.81999C8.32449 8.79999 8.30949 8.78499 8.28949 8.78499C8.28188 8.78539 8.27455 8.78796 8.26835 8.79239C8.26215 8.79681 8.25734 8.80292 8.25449 8.80999C8.24949 8.78499 8.23449 8.73999 8.21449 8.74499L8.20949 8.73999ZM8.30949 8.81999C8.30949 8.82999 8.29949 8.83499 8.28949 8.83499C8.28716 8.83582 8.28466 8.83606 8.28221 8.83569C8.27976 8.83531 8.27745 8.83434 8.27547 8.83286C8.27349 8.83137 8.2719 8.82942 8.27086 8.82717C8.26982 8.82493 8.26935 8.82246 8.26949 8.81999C8.26949 8.80999 8.27949 8.79999 8.28949 8.79999C8.29949 8.79999 8.30449 8.80999 8.30449 8.81999H8.30949Z" fill="#F1B517" stroke="black" stroke-width="0.03"/>
<path d="M12.1488 8.895C12.1588 8.875 12.1488 8.785 12.1488 8.785C12.1238 8.785 12.0988 8.82 12.0988 8.82C12.1238 8.74 12.0588 8.62 12.0588 8.62C12.1038 8.625 12.2538 8.77 12.2588 8.8C12.2588 8.8 12.1938 8.775 12.1838 8.78C12.1988 8.855 12.2488 8.89 12.2688 8.93C12.2688 8.93 12.1838 8.945 12.1888 9.02H12.1338C12.1138 8.995 12.1388 8.955 12.1388 8.955L11.7538 8.795C11.7288 8.785 11.6738 8.755 11.6838 8.725C11.6888 8.7 11.7838 8.74 11.8038 8.75L12.1538 8.895H12.1488Z" fill="#F1B517" stroke="black" stroke-width="0.03"/>
<path d="M11.7795 8.82501L11.8295 8.74501C11.8445 8.72001 11.8095 8.69501 11.7845 8.72501L11.7345 8.80001C11.7145 8.84501 11.7595 8.85501 11.7845 8.82501H11.7795Z" fill="#F1B517" stroke="black" stroke-width="0.03"/>
<path d="M9.06895 9.01868L9.06582 8.92493L8.95645 8.9343L8.9502 9.03118L9.06895 9.01868Z" fill="white" stroke="black" stroke-width="0.03"/>
<path d="M8.2623 9.14681L8.11543 9.06244C8.72168 9.11869 8.84668 8.90619 8.99355 8.89681C9.0873 8.88744 9.09668 8.99681 8.92168 8.94369L8.96855 9.05619C8.96855 9.05619 8.5373 9.29994 8.1123 9.19994L8.2623 9.14681ZM10.9123 9.01869L10.9154 8.92494L11.0498 8.93119L11.0561 9.02806L10.9123 9.01869Z" fill="white" stroke="black" stroke-width="0.03"/>
<path d="M11.7471 9.12493L11.8877 9.0468C11.1877 9.06868 11.3471 8.9343 11.0002 8.8968C10.9065 8.8843 10.844 9.00305 11.069 8.94368L11.0252 9.05618H11.1346C11.3721 9.21243 11.6908 9.22805 11.9033 9.17805L11.7471 9.12493Z" fill="white" stroke="black" stroke-width="0.03"/>
<path d="M8.92188 8.94678V9.10303C8.92188 9.10303 9.30625 9.24678 9.99687 9.24678C10.6906 9.24678 11.0719 9.10303 11.0719 9.10303V8.94678C11.0719 8.94678 10.7812 9.08115 9.99687 9.08115C9.21562 9.08115 8.92188 8.94678 8.92188 8.94678Z" fill="white" stroke="black" stroke-width="0.03"/>
<path d="M8.97754 9.10305L9.01191 8.98743L9.02754 8.99368L8.99629 9.09368L9.05879 9.1093L9.05254 9.12493L8.97754 9.10305ZM9.09004 9.05305V9.03118L9.09629 9.0093L9.11504 9.01555L9.10879 9.0343L9.09941 9.05618L9.09004 9.05305ZM9.25566 9.04368L9.27129 9.04993L9.25879 9.11555L9.24629 9.1468C9.24231 9.15231 9.23691 9.15663 9.23066 9.1593H9.19941C9.18914 9.15754 9.17948 9.15325 9.17129 9.1468C9.16494 9.14232 9.16048 9.13564 9.15879 9.12805L9.16191 9.0968L9.17754 9.02805L9.19316 9.03118L9.17754 9.09993C9.17594 9.10818 9.17594 9.11667 9.17754 9.12493C9.1782 9.12966 9.1804 9.13406 9.18379 9.13743L9.19941 9.14368H9.23066L9.24316 9.11243L9.25566 9.04368ZM9.27441 9.16868L9.29316 9.05305H9.31191L9.35879 9.1593L9.37441 9.06555H9.39004L9.37129 9.18743L9.35566 9.1843L9.30566 9.08118L9.29004 9.17493L9.27441 9.1718V9.16868ZM9.39941 9.19055L9.41816 9.0718H9.43379L9.41816 9.19055H9.40254H9.39941ZM9.44941 9.13743C9.44941 9.11868 9.45879 9.10305 9.47129 9.09368C9.48378 9.08416 9.4994 9.0797 9.51504 9.08118C9.52754 9.08118 9.53691 9.0843 9.54629 9.09055L9.56191 9.11555C9.56816 9.12493 9.56816 9.13743 9.56504 9.1468C9.56447 9.15782 9.56125 9.16854 9.55566 9.17805C9.54988 9.18783 9.54112 9.19549 9.53066 9.19993C9.52068 9.20361 9.50993 9.20469 9.49941 9.20305C9.48835 9.20275 9.47757 9.19951 9.46816 9.19368C9.4607 9.18698 9.45528 9.17832 9.45254 9.16868C9.44898 9.15867 9.44791 9.14794 9.44941 9.13743ZM9.46504 9.13743C9.46504 9.15305 9.46504 9.16868 9.47441 9.17493C9.48066 9.1843 9.49004 9.19055 9.50254 9.19055C9.51504 9.19055 9.52441 9.19055 9.53379 9.18118C9.54316 9.17493 9.54629 9.16243 9.54941 9.14993C9.55221 9.1397 9.55221 9.12891 9.54941 9.11868C9.54589 9.11202 9.54045 9.10657 9.53379 9.10305C9.5276 9.09781 9.51998 9.09455 9.51191 9.09368C9.50254 9.09368 9.49004 9.09368 9.48066 9.10305C9.47441 9.1093 9.46816 9.1218 9.46504 9.14055V9.13743ZM9.58066 9.2093L9.59004 9.09055H9.60879L9.66504 9.19055L9.67129 9.0968H9.68691L9.67754 9.21868H9.66191L9.60254 9.11868L9.59629 9.21243H9.58066V9.2093ZM9.75566 9.2218L9.75879 9.10305L9.84316 9.10618V9.1218L9.77754 9.11868L9.77441 9.15305L9.83379 9.15618V9.1718L9.77129 9.16868V9.22493H9.75566V9.2218ZM9.84941 9.22493L9.89629 9.10618H9.91504L9.96191 9.23118H9.94316L9.93066 9.19055H9.87754L9.86504 9.22805H9.84629L9.84941 9.22493ZM9.88066 9.17805H9.92441L9.91191 9.1468C9.90939 9.13753 9.90731 9.12814 9.90566 9.11868L9.89941 9.14368L9.88379 9.17805H9.88066ZM9.97754 9.22805V9.1093H9.99629V9.22805H9.97754ZM10.0557 9.22805V9.12493H10.015V9.11243H10.1119V9.12493H10.0713V9.23118H10.0557V9.22805ZM10.1807 9.22805L10.1713 9.10305H10.19L10.1932 9.2093H10.2557V9.2218L10.1775 9.22493L10.1807 9.22805ZM10.2619 9.2218L10.2994 9.0968H10.3182L10.3807 9.21243H10.3588L10.3432 9.18118H10.29L10.2807 9.2218H10.2619ZM10.2932 9.16868H10.3369L10.3213 9.13743L10.3088 9.1093C10.3085 9.11771 10.3074 9.12607 10.3057 9.1343L10.2932 9.16868ZM10.44 9.20618L10.4275 9.08743L10.5088 9.07805L10.5119 9.09368L10.4463 9.09993V9.13743L10.5088 9.13118V9.1468L10.4494 9.15305L10.4557 9.20618H10.44ZM10.5338 9.14055C10.5313 9.13224 10.5306 9.1235 10.5317 9.11489C10.5327 9.10629 10.5356 9.098 10.54 9.09055C10.5503 9.07835 10.5648 9.07052 10.5807 9.06868L10.6119 9.0718C10.6244 9.07493 10.6307 9.08118 10.6369 9.09055L10.6494 9.1218L10.6463 9.15305C10.6429 9.16317 10.6363 9.17194 10.6275 9.17805C10.6194 9.1845 10.6097 9.18879 10.5994 9.19055C10.5889 9.19219 10.5781 9.19111 10.5682 9.18743C10.5581 9.18382 10.5494 9.17729 10.5432 9.16868C10.5364 9.15952 10.532 9.14875 10.5307 9.13743L10.5338 9.14055ZM10.5494 9.13743C10.5494 9.14993 10.5557 9.16243 10.565 9.16868C10.5744 9.17805 10.5838 9.17805 10.5963 9.17805C10.6088 9.17805 10.6182 9.1718 10.6275 9.16243C10.6338 9.15305 10.6338 9.14055 10.6338 9.12493C10.6325 9.11602 10.6293 9.10749 10.6244 9.09993C10.6199 9.09292 10.6134 9.08747 10.6057 9.0843C10.5985 9.08245 10.591 9.08245 10.5838 9.0843C10.5713 9.0843 10.5619 9.08743 10.5525 9.0968C10.5494 9.10618 10.5463 9.11868 10.5494 9.13743ZM10.6775 9.17805L10.6588 9.0593L10.7119 9.04993H10.7369C10.7432 9.04993 10.7494 9.04993 10.7525 9.05618L10.7619 9.07493C10.7619 9.0843 10.7619 9.09055 10.7557 9.0968C10.7525 9.10305 10.7432 9.1093 10.7338 9.11243C10.737 9.11311 10.7402 9.11416 10.7432 9.11555L10.7588 9.13118L10.79 9.1593H10.7682L10.7463 9.14055C10.7413 9.1351 10.7361 9.12988 10.7307 9.12493C10.7279 9.12238 10.7247 9.12028 10.7213 9.11868C10.7182 9.11809 10.715 9.11809 10.7119 9.11868H10.7025L10.6838 9.1218L10.6963 9.17493H10.6775V9.17805ZM10.6838 9.1093L10.715 9.10305C10.7216 9.10216 10.728 9.10004 10.7338 9.0968C10.737 9.09497 10.7397 9.0922 10.7413 9.08886C10.743 9.08552 10.7436 9.08176 10.7432 9.07805C10.7428 9.07324 10.7405 9.06876 10.7369 9.06555H10.715L10.6744 9.06868L10.6838 9.1093ZM10.8807 9.0968H10.8963C10.8963 9.1093 10.8932 9.1218 10.8869 9.12805C10.8786 9.13727 10.8677 9.1438 10.8557 9.1468C10.8454 9.14945 10.8347 9.14945 10.8244 9.1468C10.8143 9.14338 10.8055 9.13681 10.7994 9.12805C10.792 9.11889 10.7867 9.10823 10.7838 9.0968C10.7814 9.08652 10.7814 9.07583 10.7838 9.06555C10.7838 9.05305 10.7932 9.04368 10.7994 9.03743L10.8275 9.02493H10.8588C10.8713 9.03118 10.8775 9.03743 10.8838 9.04993L10.8682 9.05618C10.8646 9.04952 10.8592 9.04407 10.8525 9.04055C10.8454 9.03817 10.8378 9.03817 10.8307 9.04055C10.8224 9.04067 10.8146 9.04404 10.8088 9.04993C10.8032 9.05587 10.7998 9.06363 10.7994 9.0718V9.09368C10.8019 9.10275 10.8062 9.11124 10.8119 9.11868C10.815 9.12493 10.8213 9.13118 10.8307 9.13118H10.8525C10.8596 9.13008 10.8662 9.1268 10.8713 9.1218C10.8775 9.11555 10.8807 9.10618 10.8807 9.0968ZM10.9244 9.12805L10.8932 9.01243L10.9775 8.99055L10.9838 9.00305L10.9119 9.0218L10.9213 9.05618L10.9869 9.04055L10.9932 9.05305L10.9244 9.0718L10.9369 9.1093L11.0119 9.09055V9.10305L10.9244 9.12805Z" fill="black"/>
</g>
<defs>
<clipPath id="clip0_202_3613">
<rect width="20" height="15" fill="white"/>
</clipPath>
</defs>
</svg>
