<svg width="20" height="15" viewBox="0 0 20 15" fill="none" xmlns="http://www.w3.org/2000/svg">
<g clip-path="url(#clip0_202_3630)">
<path d="M0 0H20V15H0V0Z" fill="#18C3DF"/>
<path d="M0 5H20V10H0V5Z" fill="white"/>
<path d="M9.75 7.49996L10.1667 7.58329L10 6.66663L9.75 7.49996Z" fill="#18C3DF"/>
<path d="M10.25 7.49996L9.83333 7.58329L10 6.66663L10.25 7.49996Z" fill="#18C3DF"/>
<path d="M9.9223 7.26215L9.9718 7.68418L10.7921 7.2424L9.9223 7.26215Z" fill="#18C3DF"/>
<path d="M10.0766 7.73774L9.86858 7.36722L10.7919 7.24246L10.0766 7.73774Z" fill="#18C3DF"/>
<path d="M9.92243 7.73774L10.1304 7.36722L9.20714 7.24246L9.92243 7.73774Z" fill="#18C3DF"/>
<path d="M10.0767 7.26215L10.0272 7.68418L9.20693 7.2424L10.0767 7.26215Z" fill="#18C3DF"/>
<path d="M10.2016 7.35304L9.81551 7.53053L10.4892 8.17417L10.2016 7.35304Z" fill="#18C3DF"/>
<path d="M9.79729 7.64699L10.0854 7.33466L10.4894 8.17422L9.79729 7.64699Z" fill="#18C3DF"/>
<path d="M10.2017 7.64686L9.91363 7.33454L9.50966 8.1741L10.2017 7.64686Z" fill="#18C3DF"/>
<path d="M9.79744 7.35292L10.1835 7.53041L9.50987 8.17405L9.79744 7.35292Z" fill="#18C3DF"/>
<path d="M13.916 6.16561L14.3327 6.24894L14.166 5.33228L13.916 6.16561Z" fill="#18C3DF"/>
<path d="M14.416 6.16561L13.9993 6.24894L14.166 5.33228L14.416 6.16561Z" fill="#18C3DF"/>
<path d="M14.0883 5.9278L14.1378 6.34983L14.9581 5.90805L14.0883 5.9278Z" fill="#18C3DF"/>
<path d="M14.2426 6.40339L14.0346 6.03287L14.9579 5.90811L14.2426 6.40339Z" fill="#18C3DF"/>
<path d="M14.0884 6.40339L14.2965 6.03287L13.3732 5.90811L14.0884 6.40339Z" fill="#18C3DF"/>
<path d="M14.2427 5.9278L14.1932 6.34983L13.3729 5.90805L14.2427 5.9278Z" fill="#18C3DF"/>
<path d="M14.3676 6.01869L13.9815 6.19618L14.6552 6.83982L14.3676 6.01869Z" fill="#18C3DF"/>
<path d="M13.9633 6.31264L14.2514 6.00031L14.6554 6.83987L13.9633 6.31264Z" fill="#18C3DF"/>
<path d="M14.3678 6.31251L14.0796 6.00019L13.6757 6.83975L14.3678 6.31251Z" fill="#18C3DF"/>
<path d="M13.9635 6.01857L14.3495 6.19606L13.6759 6.8397L13.9635 6.01857Z" fill="#18C3DF"/>
<path d="M13.916 8.66561L14.3327 8.74894L14.166 7.83228L13.916 8.66561Z" fill="#18C3DF"/>
<path d="M14.416 8.66561L13.9993 8.74894L14.166 7.83228L14.416 8.66561Z" fill="#18C3DF"/>
<path d="M14.0883 8.4278L14.1378 8.84983L14.9581 8.40805L14.0883 8.4278Z" fill="#18C3DF"/>
<path d="M14.2426 8.90339L14.0346 8.53287L14.9579 8.40811L14.2426 8.90339Z" fill="#18C3DF"/>
<path d="M14.0884 8.90339L14.2965 8.53287L13.3732 8.40811L14.0884 8.90339Z" fill="#18C3DF"/>
<path d="M14.2427 8.4278L14.1932 8.84983L13.3729 8.40805L14.2427 8.4278Z" fill="#18C3DF"/>
<path d="M14.3676 8.51869L13.9815 8.69618L14.6552 9.33982L14.3676 8.51869Z" fill="#18C3DF"/>
<path d="M13.9633 8.81264L14.2514 8.50031L14.6554 9.33987L13.9633 8.81264Z" fill="#18C3DF"/>
<path d="M14.3678 8.81251L14.0796 8.50019L13.6757 9.33975L14.3678 8.81251Z" fill="#18C3DF"/>
<path d="M13.9635 8.51857L14.3495 8.69606L13.6759 9.3397L13.9635 8.51857Z" fill="#18C3DF"/>
<path d="M5.58496 6.16561L6.00163 6.24894L5.83496 5.33228L5.58496 6.16561Z" fill="#18C3DF"/>
<path d="M6.08496 6.16561L5.66829 6.24894L5.83496 5.33228L6.08496 6.16561Z" fill="#18C3DF"/>
<path d="M5.75726 5.9278L5.80676 6.34983L6.62706 5.90805L5.75726 5.9278Z" fill="#18C3DF"/>
<path d="M5.91155 6.40339L5.70354 6.03287L6.62685 5.90811L5.91155 6.40339Z" fill="#18C3DF"/>
<path d="M5.75739 6.40339L5.9654 6.03287L5.0421 5.90811L5.75739 6.40339Z" fill="#18C3DF"/>
<path d="M5.91169 5.9278L5.86218 6.34983L5.04189 5.90805L5.91169 5.9278Z" fill="#18C3DF"/>
<path d="M6.03655 6.01869L5.65047 6.19618L6.32411 6.83982L6.03655 6.01869Z" fill="#18C3DF"/>
<path d="M5.63225 6.31264L5.92036 6.00031L6.32432 6.83987L5.63225 6.31264Z" fill="#18C3DF"/>
<path d="M6.0367 6.31251L5.74859 6.00019L5.34462 6.83975L6.0367 6.31251Z" fill="#18C3DF"/>
<path d="M5.6324 6.01857L6.01847 6.19606L5.34483 6.8397L5.6324 6.01857Z" fill="#18C3DF"/>
<path d="M5.58496 8.66561L6.00163 8.74894L5.83496 7.83228L5.58496 8.66561Z" fill="#18C3DF"/>
<path d="M6.08496 8.66561L5.66829 8.74894L5.83496 7.83228L6.08496 8.66561Z" fill="#18C3DF"/>
<path d="M5.75726 8.4278L5.80676 8.84983L6.62706 8.40805L5.75726 8.4278Z" fill="#18C3DF"/>
<path d="M5.91155 8.90339L5.70354 8.53287L6.62685 8.40811L5.91155 8.90339Z" fill="#18C3DF"/>
<path d="M5.75739 8.90339L5.9654 8.53287L5.0421 8.40811L5.75739 8.90339Z" fill="#18C3DF"/>
<path d="M5.91169 8.4278L5.86218 8.84983L5.04189 8.40805L5.91169 8.4278Z" fill="#18C3DF"/>
<path d="M6.03655 8.51869L5.65047 8.69618L6.32411 9.33982L6.03655 8.51869Z" fill="#18C3DF"/>
<path d="M5.63225 8.81264L5.92036 8.50031L6.32432 9.33987L5.63225 8.81264Z" fill="#18C3DF"/>
<path d="M6.0367 8.81251L5.74859 8.50019L5.34462 9.33975L6.0367 8.81251Z" fill="#18C3DF"/>
<path d="M5.6324 8.51857L6.01847 8.69606L5.34483 9.3397L5.6324 8.51857Z" fill="#18C3DF"/>
</g>
<defs>
<clipPath id="clip0_202_3630">
<rect width="20" height="15" fill="white"/>
</clipPath>
</defs>
</svg>
