<svg width="20" height="15" viewBox="0 0 20 15" fill="none" xmlns="http://www.w3.org/2000/svg">
<g clip-path="url(#clip0_202_3664)">
<path d="M0 0H20V5H0V0Z" fill="#FF9933"/>
<path d="M0 5H20V10H0V5Z" fill="white"/>
<path d="M0 10H20V15H0V10Z" fill="#128807"/>
<path d="M10 9.5C11.1046 9.5 12 8.60457 12 7.5C12 6.39543 11.1046 5.5 10 5.5C8.89543 5.5 8 6.39543 8 7.5C8 8.60457 8.89543 9.5 10 9.5Z" fill="#000088"/>
<path d="M10 9.25C10.9665 9.25 11.75 8.4665 11.75 7.5C11.75 6.5335 10.9665 5.75 10 5.75C9.0335 5.75 8.25 6.5335 8.25 7.5C8.25 8.4665 9.0335 9.25 10 9.25Z" fill="white"/>
<path d="M9.99941 7.8499C10.1927 7.8499 10.3494 7.6932 10.3494 7.4999C10.3494 7.3066 10.1927 7.1499 9.99941 7.1499C9.80611 7.1499 9.64941 7.3066 9.64941 7.4999C9.64941 7.6932 9.80611 7.8499 9.99941 7.8499Z" fill="#000088"/>
<path d="M11.7239 7.81814C11.7732 7.82463 11.8184 7.78993 11.8249 7.74065C11.8314 7.69137 11.7967 7.64616 11.7474 7.63968C11.6982 7.63319 11.6529 7.66788 11.6465 7.71716C11.64 7.76644 11.6747 7.81165 11.7239 7.81814Z" fill="#000088"/>
<path d="M10.0004 9.24983L10.0604 8.19983L10.0004 7.69983L9.94043 8.19983L10.0004 9.24983Z" fill="#000088"/>
<path d="M11.5826 8.25335C11.6285 8.27237 11.6812 8.25057 11.7002 8.20464C11.7192 8.15872 11.6974 8.10608 11.6515 8.08705C11.6056 8.06803 11.5529 8.08984 11.5339 8.13576C11.5149 8.18168 11.5367 8.23433 11.5826 8.25335Z" fill="#000088"/>
<path d="M9.54741 9.1902L9.87713 8.19151L9.94858 7.69302L9.76122 8.16045L9.54741 9.1902Z" fill="#000088"/>
<path d="M11.3329 8.63717C11.3724 8.66743 11.4288 8.65999 11.4591 8.62055C11.4894 8.58112 11.4819 8.52462 11.4425 8.49436C11.4031 8.4641 11.3466 8.47154 11.3163 8.51098C11.286 8.55041 11.2935 8.60691 11.3329 8.63717Z" fill="#000088"/>
<path d="M9.12462 9.01541L9.70158 8.13608L9.89962 7.67307L9.59766 8.07608L9.12462 9.01541Z" fill="#000088"/>
<path d="M10.993 8.94343C11.0233 8.98286 11.0798 8.9903 11.1192 8.96004C11.1587 8.92978 11.1661 8.87329 11.1358 8.83385C11.1056 8.79442 11.0491 8.78698 11.0097 8.81724C10.9702 8.8475 10.9628 8.904 10.993 8.94343Z" fill="#000088"/>
<path d="M8.76184 8.73732L9.54673 8.03728L9.85786 7.6413L9.46188 7.95243L8.76184 8.73732Z" fill="#000088"/>
<path d="M10.5859 9.15142C10.6049 9.19734 10.6576 9.21915 10.7035 9.20013C10.7494 9.18111 10.7712 9.12846 10.7522 9.08254C10.7332 9.03662 10.6805 9.01481 10.6346 9.03383C10.5887 9.05285 10.5669 9.1055 10.5859 9.15142Z" fill="#000088"/>
<path d="M8.48454 8.37494L9.42386 7.9019L9.82688 7.59994L9.36386 7.79797L8.48454 8.37494Z" fill="#000088"/>
<path d="M10.139 9.24676C10.1454 9.29604 10.1906 9.33073 10.2399 9.32424C10.2892 9.31775 10.3239 9.27254 10.3174 9.22326C10.3109 9.17398 10.2657 9.13929 10.2164 9.14578C10.1672 9.15227 10.1325 9.19748 10.139 9.24676Z" fill="#000088"/>
<path d="M8.31034 7.95278L9.34009 7.73897L9.80752 7.55161L9.30903 7.62306L8.31034 7.95278Z" fill="#000088"/>
<path d="M9.68284 9.22321C9.67635 9.27249 9.71104 9.3177 9.76032 9.32418C9.8096 9.33067 9.85481 9.29598 9.8613 9.2467C9.86779 9.19742 9.8331 9.15221 9.78382 9.14572C9.73454 9.13924 9.68933 9.17393 9.68284 9.22321Z" fill="#000088"/>
<path d="M8.25078 7.49994L9.30078 7.55994L9.80078 7.49994L9.30078 7.43994L8.25078 7.49994Z" fill="#000088"/>
<path d="M9.2475 9.08202C9.22848 9.12794 9.25029 9.18058 9.29621 9.19961C9.34213 9.21863 9.39478 9.19682 9.4138 9.1509C9.43282 9.10498 9.41102 9.05233 9.36509 9.03331C9.31917 9.01429 9.26652 9.03609 9.2475 9.08202Z" fill="#000088"/>
<path d="M8.31053 7.04704L9.30922 7.37676L9.80771 7.44821L9.34028 7.26085L8.31053 7.04704Z" fill="#000088"/>
<path d="M8.86295 8.83304C8.8327 8.87247 8.84013 8.92897 8.87957 8.95923C8.919 8.98949 8.9755 8.98205 9.00576 8.94262C9.03602 8.90318 9.02858 8.84669 8.98915 8.81643C8.94971 8.78617 8.89321 8.79361 8.86295 8.83304Z" fill="#000088"/>
<path d="M8.48411 6.62474L9.36343 7.2017L9.82645 7.39974L9.42343 7.09778L8.48411 6.62474Z" fill="#000088"/>
<path d="M8.55535 8.49328C8.51592 8.52354 8.50848 8.58004 8.53874 8.61947C8.56899 8.65891 8.62549 8.66635 8.66493 8.63609C8.70436 8.60583 8.7118 8.54933 8.68154 8.5099C8.65128 8.47046 8.59478 8.46302 8.55535 8.49328Z" fill="#000088"/>
<path d="M8.76195 6.26233L9.46198 7.04722L9.85796 7.35834L9.54684 6.96236L8.76195 6.26233Z" fill="#000088"/>
<path d="M8.34797 8.08592C8.30205 8.10494 8.28024 8.15759 8.29926 8.20351C8.31828 8.24943 8.37093 8.27124 8.41685 8.25221C8.46277 8.23319 8.48458 8.18055 8.46556 8.13462C8.44654 8.0887 8.39389 8.0669 8.34797 8.08592Z" fill="#000088"/>
<path d="M9.12421 5.98441L9.59725 6.92374L9.89921 7.32675L9.70117 6.86374L9.12421 5.98441Z" fill="#000088"/>
<path d="M8.25251 7.63846C8.20323 7.64495 8.16854 7.69016 8.17503 7.73944C8.18151 7.78872 8.22672 7.82341 8.276 7.81692C8.32528 7.81044 8.35997 7.76523 8.35349 7.71595C8.347 7.66667 8.30179 7.63198 8.25251 7.63846Z" fill="#000088"/>
<path d="M9.54673 5.80948L9.76054 6.83923L9.9479 7.30667L9.87645 6.80817L9.54673 5.80948Z" fill="#000088"/>
<path d="M8.27606 7.18162C8.22678 7.17513 8.18157 7.20982 8.17508 7.2591C8.1686 7.30838 8.20329 7.35359 8.25257 7.36008C8.30185 7.36657 8.34706 7.33188 8.35354 7.2826C8.36003 7.23332 8.32534 7.18811 8.27606 7.18162Z" fill="#000088"/>
<path d="M9.99957 5.74993L9.93957 6.79993L9.99957 7.29993L10.0596 6.79993L9.99957 5.74993Z" fill="#000088"/>
<path d="M8.41737 6.7464C8.37145 6.72738 8.31881 6.74919 8.29978 6.79511C8.28076 6.84103 8.30257 6.89368 8.34849 6.9127C8.39441 6.93172 8.44706 6.90992 8.46608 6.86399C8.4851 6.81807 8.4633 6.76543 8.41737 6.7464Z" fill="#000088"/>
<path d="M10.4526 5.80955L10.1229 6.80824L10.0514 7.30674L10.2388 6.8393L10.4526 5.80955Z" fill="#000088"/>
<path d="M8.66708 6.36259C8.62765 6.33233 8.57115 6.33977 8.54089 6.3792C8.51063 6.41864 8.51807 6.47513 8.5575 6.50539C8.59694 6.53565 8.65344 6.52821 8.68369 6.48878C8.71395 6.44934 8.70652 6.39285 8.66708 6.36259Z" fill="#000088"/>
<path d="M10.8754 5.98435L10.2984 6.86368L10.1004 7.32669L10.4023 6.92368L10.8754 5.98435Z" fill="#000088"/>
<path d="M9.00696 6.05633C8.9767 6.01689 8.9202 6.00945 8.88077 6.03971C8.84134 6.06997 8.8339 6.12647 8.86416 6.1659C8.89442 6.20534 8.95091 6.21278 8.99035 6.18252C9.02978 6.15226 9.03722 6.09576 9.00696 6.05633Z" fill="#000088"/>
<path d="M11.2382 6.26244L10.4533 6.96247L10.1421 7.35845L10.5381 7.04733L11.2382 6.26244Z" fill="#000088"/>
<path d="M9.41408 5.84846C9.39506 5.80253 9.34241 5.78073 9.29649 5.79975C9.25057 5.81877 9.22876 5.87142 9.24779 5.91734C9.26681 5.96326 9.31945 5.98507 9.36538 5.96605C9.4113 5.94703 9.4331 5.89438 9.41408 5.84846Z" fill="#000088"/>
<path d="M11.5155 6.62494L10.5761 7.09798L10.1731 7.39994L10.6361 7.2019L11.5155 6.62494Z" fill="#000088"/>
<path d="M9.86105 5.75312C9.85456 5.70384 9.80935 5.66915 9.76007 5.67564C9.71079 5.68213 9.6761 5.72733 9.68259 5.77661C9.68908 5.8259 9.73429 5.86059 9.78357 5.8541C9.83285 5.84761 9.86754 5.8024 9.86105 5.75312Z" fill="#000088"/>
<path d="M11.6897 7.0471L10.6599 7.2609L10.1925 7.44827L10.691 7.37682L11.6897 7.0471Z" fill="#000088"/>
<path d="M10.3172 5.77667C10.3236 5.72739 10.289 5.68218 10.2397 5.67569C10.1904 5.66921 10.1452 5.7039 10.1387 5.75318C10.1322 5.80246 10.1669 5.84767 10.2162 5.85415C10.2655 5.86064 10.3107 5.82595 10.3172 5.77667Z" fill="#000088"/>
<path d="M11.7492 7.49994L10.6992 7.43994L10.1992 7.49994L10.6992 7.55994L11.7492 7.49994Z" fill="#000088"/>
<path d="M10.7525 5.91786C10.7715 5.87194 10.7497 5.81929 10.7038 5.80027C10.6579 5.78125 10.6052 5.80306 10.5862 5.84898C10.5672 5.8949 10.589 5.94755 10.6349 5.96657C10.6808 5.98559 10.7335 5.96378 10.7525 5.91786Z" fill="#000088"/>
<path d="M11.6895 7.95283L10.6908 7.62312L10.1923 7.55166L10.6597 7.73903L11.6895 7.95283Z" fill="#000088"/>
<path d="M11.137 6.16684C11.1673 6.1274 11.1599 6.07091 11.1204 6.04065C11.081 6.01039 11.0245 6.01783 10.9942 6.05726C10.964 6.09669 10.9714 6.15319 11.0109 6.18345C11.0503 6.21371 11.1068 6.20627 11.137 6.16684Z" fill="#000088"/>
<path d="M11.5159 8.37514L10.6366 7.79818L10.1736 7.60014L10.5766 7.9021L11.5159 8.37514Z" fill="#000088"/>
<path d="M11.4447 6.50659C11.4841 6.47634 11.4915 6.41984 11.4613 6.3804C11.431 6.34097 11.3745 6.33353 11.3351 6.36379C11.2956 6.39405 11.2882 6.45055 11.3185 6.48998C11.3487 6.52942 11.4052 6.53685 11.4447 6.50659Z" fill="#000088"/>
<path d="M11.2381 8.73755L10.538 7.95266L10.142 7.64153L10.4532 8.03751L11.2381 8.73755Z" fill="#000088"/>
<path d="M11.652 6.91396C11.698 6.89494 11.7198 6.84229 11.7007 6.79637C11.6817 6.75045 11.6291 6.72864 11.5831 6.74766C11.5372 6.76668 11.5154 6.81933 11.5344 6.86525C11.5535 6.91118 11.6061 6.93298 11.652 6.91396Z" fill="#000088"/>
<path d="M10.8758 9.01546L10.4028 8.07614L10.1008 7.67312L10.2988 8.13614L10.8758 9.01546Z" fill="#000088"/>
<path d="M11.7475 7.36141C11.7968 7.35493 11.8315 7.30972 11.825 7.26044C11.8185 7.21116 11.7733 7.17647 11.724 7.18295C11.6747 7.18944 11.64 7.23465 11.6465 7.28393C11.653 7.33321 11.6982 7.3679 11.7475 7.36141Z" fill="#000088"/>
<path d="M10.4533 9.1904L10.2395 8.16064L10.0521 7.69321L10.1236 8.1917L10.4533 9.1904Z" fill="#000088"/>
</g>
<defs>
<clipPath id="clip0_202_3664">
<rect width="20" height="15" fill="white"/>
</clipPath>
</defs>
</svg>
