<svg width="20" height="15" viewBox="0 0 20 15" fill="none" xmlns="http://www.w3.org/2000/svg">
<g clip-path="url(#clip0_202_3671)">
<mask id="mask0_202_3671" style="mask-type:luminance" maskUnits="userSpaceOnUse" x="0" y="0" width="21" height="15">
<path d="M0.000976562 0H20.002V15H0.000976562V0Z" fill="white"/>
</mask>
<g mask="url(#mask0_202_3671)">
<path fill-rule="evenodd" clip-rule="evenodd" d="M-3.125 0H23.125V15H-3.125V0Z" fill="white"/>
<path fill-rule="evenodd" clip-rule="evenodd" d="M-3.125 10.0723H23.125V15H-3.125V10.0723Z" fill="#DA0000"/>
<path fill-rule="evenodd" clip-rule="evenodd" d="M1.86719 10.2832H3.30273V10.3799H1.86719V10.2832ZM2.08105 10.7754H2.18066V10.8721H2.08105V10.7754ZM3.30859 10.7754V10.8721H3.02148V10.7725L3.30859 10.7754ZM3.46094 10.2832H3.56055V10.8691H3.46094V10.2832Z" fill="white"/>
<path fill-rule="evenodd" clip-rule="evenodd" d="M4.03516 10.7725V10.8721H3.49023V10.7725H4.03516ZM3.02148 10.541H3.11523V10.8721H3.01855L3.02148 10.541Z" fill="white"/>
<path fill-rule="evenodd" clip-rule="evenodd" d="M3.95312 10.2832H4.05273V10.8691H3.95312V10.2832ZM3.70703 10.2832H3.80371V10.8691H3.70703V10.2832ZM2.39453 10.5176V10.6172H1.86719V10.5176H2.39453ZM3.5459 10.5176V10.6172H3.01855V10.5176H3.5459Z" fill="white"/>
<path fill-rule="evenodd" clip-rule="evenodd" d="M3.02148 10.5439H3.11523V10.8691H3.01855L3.02148 10.5439Z" fill="white"/>
<path fill-rule="evenodd" clip-rule="evenodd" d="M3.02148 10.5439H3.11523V10.8691H3.01855L3.02148 10.5439Z" fill="white"/>
<path fill-rule="evenodd" clip-rule="evenodd" d="M3.02148 10.5439H3.11523V10.8691H3.01855L3.02148 10.5439ZM1.87012 10.5439H1.9668V10.8691H1.87012V10.5439ZM2.71387 10.5439H2.81348V10.8691H2.71387V10.5439ZM2.29492 10.5439H2.39453V10.8691H2.29492V10.5439Z" fill="white"/>
<path fill-rule="evenodd" clip-rule="evenodd" d="M2.78125 10.7725V10.8721H2.33887V10.7725H2.78125ZM2.81055 10.5176V10.6172H2.5293V10.5176H2.81055Z" fill="white"/>
<path fill-rule="evenodd" clip-rule="evenodd" d="M-0.494141 10.2832H0.941406V10.3799H-0.494141V10.2832ZM-0.280274 10.7754H-0.180664V10.8721H-0.283203L-0.280274 10.7754ZM0.947266 10.7754V10.8721H0.660156V10.7725L0.947266 10.7754ZM1.09961 10.2832H1.19922V10.8691H1.09961V10.2832Z" fill="white"/>
<path fill-rule="evenodd" clip-rule="evenodd" d="M1.67383 10.7725V10.8721H1.12891V10.7725H1.67383ZM0.660156 10.541H0.756836V10.8721H0.660156V10.541Z" fill="white"/>
<path fill-rule="evenodd" clip-rule="evenodd" d="M1.5918 10.2832H1.69141V10.8691H1.5918V10.2832ZM1.3457 10.2832H1.44238V10.8691H1.3457V10.2832ZM0.0332031 10.5176V10.6172H-0.494141V10.5176H0.0332031ZM1.18457 10.5176V10.6172H0.657226V10.5176H1.18457Z" fill="white"/>
<path fill-rule="evenodd" clip-rule="evenodd" d="M0.660156 10.5439H0.756836V10.8691H0.660156V10.5439Z" fill="white"/>
<path fill-rule="evenodd" clip-rule="evenodd" d="M0.660156 10.5439H0.756836V10.8691H0.660156V10.5439Z" fill="white"/>
<path fill-rule="evenodd" clip-rule="evenodd" d="M0.660156 10.5439H0.756836V10.8691H0.660156V10.5439ZM-0.491211 10.5439H-0.394531V10.8691H-0.491211V10.5439ZM0.352539 10.5439H0.449219V10.8691H0.352539V10.5439ZM-0.0664062 10.5439H0.0332032V10.8691H-0.0664062V10.5439Z" fill="white"/>
<path fill-rule="evenodd" clip-rule="evenodd" d="M0.419922 10.7725V10.8721H-0.0195312V10.7725H0.419922ZM0.449219 10.5176V10.6172H0.167969V10.5176H0.449219Z" fill="white"/>
<path fill-rule="evenodd" clip-rule="evenodd" d="M4.20801 10.2832H5.64355V10.3799H4.20801V10.2832ZM4.42187 10.7754H4.52148V10.8721H4.42187V10.7754ZM5.64941 10.7754V10.8721H5.3623V10.7725L5.64941 10.7754ZM5.80469 10.2832H5.9043V10.8691H5.80469V10.2832Z" fill="white"/>
<path fill-rule="evenodd" clip-rule="evenodd" d="M6.37598 10.7725V10.8721H5.83105V10.7725H6.37598ZM5.3623 10.541H5.46191V10.8721H5.3623V10.541Z" fill="white"/>
<path fill-rule="evenodd" clip-rule="evenodd" d="M6.29395 10.2832H6.39355V10.8691H6.29395V10.2832ZM6.04785 10.2832H6.14746V10.8691H6.04492L6.04785 10.2832ZM4.73535 10.5176V10.6172H4.20801V10.5176H4.73535ZM5.88672 10.5176V10.6172H5.35938V10.5176H5.88672Z" fill="white"/>
<path fill-rule="evenodd" clip-rule="evenodd" d="M5.3623 10.5439H5.46191V10.8691H5.3623V10.5439Z" fill="white"/>
<path fill-rule="evenodd" clip-rule="evenodd" d="M5.3623 10.5439H5.46191V10.8691H5.3623V10.5439Z" fill="white"/>
<path fill-rule="evenodd" clip-rule="evenodd" d="M5.3623 10.5439H5.46191V10.8691H5.3623V10.5439ZM4.21094 10.5439H4.31055V10.8691H4.21094V10.5439ZM5.05469 10.5439H5.1543V10.8691H5.05469V10.5439ZM4.63574 10.5439H4.73535V10.8691H4.63574V10.5439Z" fill="white"/>
<path fill-rule="evenodd" clip-rule="evenodd" d="M5.125 10.7725V10.8721H4.67969V10.7725H5.125ZM5.1543 10.5176V10.6172H4.87305V10.5176H5.1543Z" fill="white"/>
<path fill-rule="evenodd" clip-rule="evenodd" d="M6.56348 10.2832H8.00195V10.3799H6.56641L6.56348 10.2832ZM6.78027 10.7754H6.87695V10.8721H6.78027V10.7754ZM8.00488 10.7754V10.8721H7.71777V10.7725L8.00488 10.7754ZM8.16016 10.2832H8.25977V10.8691H8.16016V10.2832Z" fill="white"/>
<path fill-rule="evenodd" clip-rule="evenodd" d="M8.73437 10.7725V10.8721H8.18945V10.7725H8.73437ZM7.71777 10.541H7.81738V10.8721H7.71777V10.541Z" fill="white"/>
<path fill-rule="evenodd" clip-rule="evenodd" d="M8.65234 10.2832H8.75195V10.8691H8.65234V10.2832ZM8.40332 10.2832H8.50293V10.8691H8.40332V10.2832ZM7.09082 10.5176V10.6172H6.56641V10.5176H7.09082ZM8.24219 10.5176V10.6172H7.71777V10.5176H8.24219Z" fill="white"/>
<path fill-rule="evenodd" clip-rule="evenodd" d="M7.71777 10.5439H7.81738V10.8691H7.71777V10.5439Z" fill="white"/>
<path fill-rule="evenodd" clip-rule="evenodd" d="M7.71777 10.5439H7.81738V10.8691H7.71777V10.5439Z" fill="white"/>
<path fill-rule="evenodd" clip-rule="evenodd" d="M7.71777 10.5439H7.81738V10.8691H7.71777V10.5439ZM6.56641 10.5439H6.66602V10.8691H6.56641V10.5439ZM7.41016 10.5439H7.50977V10.8691H7.41016V10.5439ZM6.99414 10.5439H7.09082V10.8691H6.99414V10.5439Z" fill="white"/>
<path fill-rule="evenodd" clip-rule="evenodd" d="M7.48047 10.7725V10.8721H7.03809V10.7725H7.48047ZM7.50977 10.5176V10.6172H7.22852V10.5176H7.50977Z" fill="white"/>
<path fill-rule="evenodd" clip-rule="evenodd" d="M8.93066 10.2832H10.3662V10.3799H8.93066V10.2832ZM9.14453 10.7754H9.24414V10.8721H9.14453V10.7754ZM10.3721 10.7754V10.8721H10.085V10.7725L10.3721 10.7754ZM10.5273 10.2832H10.624V10.8691H10.5273V10.2832Z" fill="white"/>
<path fill-rule="evenodd" clip-rule="evenodd" d="M11.0986 10.7725V10.8721H10.5537V10.7725H11.0986ZM10.085 10.541H10.1846V10.8721H10.085V10.541Z" fill="white"/>
<path fill-rule="evenodd" clip-rule="evenodd" d="M11.0166 10.2832H11.1162V10.8691H11.0166V10.2832ZM10.7705 10.2832H10.8701V10.8691H10.7705V10.2832ZM9.45801 10.5176V10.6172H8.93066V10.5176H9.45801ZM10.6094 10.5176V10.6172H10.082V10.5176H10.6094Z" fill="white"/>
<path fill-rule="evenodd" clip-rule="evenodd" d="M10.085 10.5439H10.1846V10.8691H10.085V10.5439Z" fill="white"/>
<path fill-rule="evenodd" clip-rule="evenodd" d="M10.085 10.5439H10.1846V10.8691H10.085V10.5439Z" fill="white"/>
<path fill-rule="evenodd" clip-rule="evenodd" d="M10.085 10.5439H10.1846V10.8691H10.085V10.5439ZM8.93359 10.5439H9.03027V10.8691H8.93359V10.5439ZM9.77734 10.5439H9.87695V10.8691H9.77734V10.5439ZM9.3584 10.5439H9.45801V10.8691H9.35547L9.3584 10.5439Z" fill="white"/>
<path fill-rule="evenodd" clip-rule="evenodd" d="M9.84766 10.7725V10.8721H9.40234V10.7725H9.84766ZM9.87695 10.5176V10.6172H9.58984V10.5176H9.87695Z" fill="white"/>
<path fill-rule="evenodd" clip-rule="evenodd" d="M-3.125 0H23.125V4.92773H-3.125V0Z" fill="#239F40"/>
<path fill-rule="evenodd" clip-rule="evenodd" d="M11.3096 10.2832H12.7451V10.3799H11.3096V10.2832ZM11.5234 10.7754H11.623V10.8721H11.5234V10.7754ZM12.751 10.7754V10.8721H12.4609V10.7725L12.751 10.7754ZM12.9062 10.2832H13.0029V10.8691H12.9062V10.2832Z" fill="white"/>
<path fill-rule="evenodd" clip-rule="evenodd" d="M13.4775 10.7725V10.8721H12.9326V10.7725H13.4775ZM12.4639 10.541H12.5635V10.8721H12.4609L12.4639 10.541Z" fill="white"/>
<path fill-rule="evenodd" clip-rule="evenodd" d="M13.3984 10.2832H13.4951V10.8691H13.3984V10.2832ZM13.1494 10.2832H13.249V10.8691H13.1494V10.2832ZM11.8369 10.5176V10.6172H11.3096V10.5176H11.8369ZM12.9883 10.5176V10.6172H12.4609V10.5176H12.9883Z" fill="white"/>
<path fill-rule="evenodd" clip-rule="evenodd" d="M12.4609 10.5439H12.5635V10.8691H12.4609V10.5439Z" fill="white"/>
<path fill-rule="evenodd" clip-rule="evenodd" d="M12.4609 10.5439H12.5635V10.8691H12.4609V10.5439Z" fill="white"/>
<path fill-rule="evenodd" clip-rule="evenodd" d="M12.4609 10.5439H12.5635V10.8691H12.4609V10.5439ZM11.3125 10.5439H11.4121V10.8691H11.3125V10.5439ZM12.1563 10.5439H12.2559V10.8691H12.1563V10.5439ZM11.7373 10.5439H11.8369V10.8691H11.7373V10.5439Z" fill="white"/>
<path fill-rule="evenodd" clip-rule="evenodd" d="M12.2266 10.7725V10.8721H11.7812V10.7725H12.2266ZM12.2559 10.5176V10.6172H11.9746V10.5176H12.2559Z" fill="white"/>
<path fill-rule="evenodd" clip-rule="evenodd" d="M13.6738 10.2832H15.1094V10.3799H13.6738V10.2832ZM13.8877 10.7754H13.9873V10.8721H13.8877V10.7754ZM15.1182 10.7754V10.8721H14.8281V10.7725L15.1182 10.7754ZM15.2705 10.2832H15.3701V10.8691H15.2705V10.2832Z" fill="white"/>
<path fill-rule="evenodd" clip-rule="evenodd" d="M15.8418 10.7725V10.8721H15.2969V10.7725H15.8418ZM14.8281 10.541H14.9277V10.8721H14.8281V10.541Z" fill="white"/>
<path fill-rule="evenodd" clip-rule="evenodd" d="M15.7627 10.2832H15.8594V10.8691H15.7627V10.2832ZM15.5137 10.2832H15.6133V10.8691H15.5137V10.2832ZM14.2012 10.5176V10.6172H13.6768V10.5176H14.2012ZM15.3525 10.5176V10.6172H14.8281V10.5176H15.3525Z" fill="white"/>
<path fill-rule="evenodd" clip-rule="evenodd" d="M14.8281 10.5439H14.9277V10.8691H14.8281V10.5439Z" fill="white"/>
<path fill-rule="evenodd" clip-rule="evenodd" d="M14.8281 10.5439H14.9277V10.8691H14.8281V10.5439Z" fill="white"/>
<path fill-rule="evenodd" clip-rule="evenodd" d="M14.8281 10.5439H14.9277V10.8691H14.8281V10.5439ZM13.6768 10.5439H13.7764V10.8691H13.6768V10.5439ZM14.5205 10.5439H14.6201V10.8691H14.5205V10.5439ZM14.1016 10.5439H14.2012V10.8691H14.1045L14.1016 10.5439Z" fill="white"/>
<path fill-rule="evenodd" clip-rule="evenodd" d="M14.5908 10.7725V10.8721H14.1484V10.7725H14.5908ZM14.6201 10.5176V10.6172H14.3359V10.5176H14.6201Z" fill="white"/>
<path fill-rule="evenodd" clip-rule="evenodd" d="M16.041 10.2832H17.4766V10.3799H16.041V10.2832ZM16.2549 10.7754H16.3545V10.8721H16.2549V10.7754ZM17.4824 10.7754V10.8721H17.1953V10.7725L17.4824 10.7754ZM17.6348 10.2832H17.7344V10.8691H17.6348V10.2832Z" fill="white"/>
<path fill-rule="evenodd" clip-rule="evenodd" d="M18.209 10.7725V10.8721H17.6641V10.7725H18.209ZM17.1924 10.541H17.292V10.8721H17.1924V10.541Z" fill="white"/>
<path fill-rule="evenodd" clip-rule="evenodd" d="M18.127 10.2832H18.2266V10.8691H18.127V10.2832ZM17.8809 10.2832H17.9775V10.8691H17.8809V10.2832ZM16.5684 10.5176V10.6172H16.041V10.5176H16.5684ZM17.7197 10.5176V10.6172H17.1924V10.5176H17.7197Z" fill="white"/>
<path fill-rule="evenodd" clip-rule="evenodd" d="M17.1953 10.5439H17.292V10.8691H17.1953V10.5439Z" fill="white"/>
<path fill-rule="evenodd" clip-rule="evenodd" d="M17.1953 10.5439H17.292V10.8691H17.1953V10.5439Z" fill="white"/>
<path fill-rule="evenodd" clip-rule="evenodd" d="M17.1953 10.5439H17.292V10.8691H17.1953V10.5439ZM16.041 10.5439H16.1406V10.8691H16.041V10.5439ZM16.8877 10.5439H16.9844V10.8691H16.8877V10.5439ZM16.4687 10.5439H16.5684V10.8691H16.4687V10.5439Z" fill="white"/>
<path fill-rule="evenodd" clip-rule="evenodd" d="M16.9551 10.7725V10.8721H16.5127V10.7725H16.9551ZM16.9844 10.5176V10.6172H16.7031V10.5176H16.9844Z" fill="white"/>
<path fill-rule="evenodd" clip-rule="evenodd" d="M18.4199 10.2832H19.8555V10.3799H18.4199V10.2832ZM18.6338 10.7754H18.7334V10.8721H18.6338V10.7754ZM19.8613 10.7754V10.8721H19.5742V10.7725L19.8613 10.7754ZM20.0137 10.2832H20.1133V10.8691H20.0137V10.2832Z" fill="white"/>
<path fill-rule="evenodd" clip-rule="evenodd" d="M20.5879 10.7725V10.8721H20.043V10.7725H20.5879ZM19.5742 10.541H19.6709V10.8721H19.5742V10.541Z" fill="white"/>
<path fill-rule="evenodd" clip-rule="evenodd" d="M20.5059 10.2832H20.6055V10.8691H20.5059V10.2832ZM20.2598 10.2832H20.3564V10.8691H20.2598V10.2832ZM18.9473 10.5176V10.6172H18.4199V10.5176H18.9473ZM20.0986 10.5176V10.6172H19.5713V10.5176H20.0986Z" fill="white"/>
<path fill-rule="evenodd" clip-rule="evenodd" d="M19.5742 10.5439H19.6709V10.8691H19.5742V10.5439Z" fill="white"/>
<path fill-rule="evenodd" clip-rule="evenodd" d="M19.5742 10.5439H19.6709V10.8691H19.5742V10.5439Z" fill="white"/>
<path fill-rule="evenodd" clip-rule="evenodd" d="M19.5742 10.5439H19.6709V10.8691H19.5742V10.5439ZM18.4229 10.5439H18.5195V10.8691H18.4229V10.5439ZM19.2666 10.5439H19.3662V10.8691H19.2666V10.5439ZM18.8477 10.5439H18.9473V10.8691H18.8477V10.5439Z" fill="white"/>
<path fill-rule="evenodd" clip-rule="evenodd" d="M19.334 10.7725V10.8721H18.8916V10.7725H19.334ZM19.3633 10.5176V10.6172H19.082V10.5176H19.3633Z" fill="white"/>
<path fill-rule="evenodd" clip-rule="evenodd" d="M1.86719 4.20117H3.30273V4.30078H1.86719V4.20117ZM2.08105 4.69922H2.18066V4.79297H2.08105V4.69922ZM3.30859 4.69336V4.79297H3.02148V4.69336H3.30859ZM3.46094 4.20117H3.56055V4.79297H3.46094V4.20117Z" fill="white"/>
<path fill-rule="evenodd" clip-rule="evenodd" d="M4.03516 4.69336V4.79297H3.49023V4.69336H4.03516ZM3.02148 4.46191H3.11523V4.79297H3.01855L3.02148 4.46191Z" fill="white"/>
<path fill-rule="evenodd" clip-rule="evenodd" d="M3.95312 4.20117H4.05273V4.79297H3.95312V4.20117ZM3.70703 4.20117H3.80371V4.79297H3.70703V4.20117ZM2.39453 4.43555V4.53516H1.86719V4.43848L2.39453 4.43555ZM3.5459 4.43555V4.53516H3.01855V4.43848L3.5459 4.43555Z" fill="white"/>
<path fill-rule="evenodd" clip-rule="evenodd" d="M3.02148 4.46191H3.11523V4.79297H3.01855L3.02148 4.46191Z" fill="white"/>
<path fill-rule="evenodd" clip-rule="evenodd" d="M3.02148 4.46191H3.11523V4.79297H3.01855L3.02148 4.46191Z" fill="white"/>
<path fill-rule="evenodd" clip-rule="evenodd" d="M3.02148 4.46191H3.11523V4.79297H3.01855L3.02148 4.46191ZM1.87012 4.46191H1.9668V4.79297H1.87012V4.46191ZM2.71387 4.46191H2.81348V4.79297H2.71387V4.46191ZM2.29492 4.46191H2.39453V4.79297H2.29492V4.46191Z" fill="white"/>
<path fill-rule="evenodd" clip-rule="evenodd" d="M2.78125 4.69336V4.79297H2.33887V4.69336H2.78125ZM2.81055 4.43848V4.53516H2.5293V4.43848H2.81055Z" fill="white"/>
<path fill-rule="evenodd" clip-rule="evenodd" d="M-0.494141 4.20117H0.941406V4.30078H-0.494141V4.20117ZM-0.280274 4.69922H-0.180664V4.79297H-0.283203L-0.280274 4.69922ZM0.947266 4.69336V4.79297H0.660156V4.69336H0.947266ZM1.09961 4.20117H1.19922V4.79297H1.09961V4.20117Z" fill="white"/>
<path fill-rule="evenodd" clip-rule="evenodd" d="M1.67383 4.69336V4.79297H1.12891V4.69336H1.67383ZM0.660156 4.46191H0.756836V4.79297H0.660156V4.46191Z" fill="white"/>
<path fill-rule="evenodd" clip-rule="evenodd" d="M1.5918 4.20117H1.69141V4.79297H1.5918V4.20117ZM1.3457 4.20117H1.44238V4.79297H1.3457V4.20117ZM0.0332031 4.43555V4.53516H-0.494141V4.43848L0.0332031 4.43555ZM1.18457 4.43555V4.53516H0.657226V4.43848L1.18457 4.43555Z" fill="white"/>
<path fill-rule="evenodd" clip-rule="evenodd" d="M0.660156 4.46191H0.756836V4.79297H0.660156V4.46191Z" fill="white"/>
<path fill-rule="evenodd" clip-rule="evenodd" d="M0.660156 4.46191H0.756836V4.79297H0.660156V4.46191Z" fill="white"/>
<path fill-rule="evenodd" clip-rule="evenodd" d="M0.660156 4.46191H0.756836V4.79297H0.660156V4.46191ZM-0.491211 4.46191H-0.394531V4.79297H-0.491211V4.46191ZM0.352539 4.46191H0.449219V4.79297H0.352539V4.46191ZM-0.0664062 4.46191H0.0332032V4.79297H-0.0664062V4.46191Z" fill="white"/>
<path fill-rule="evenodd" clip-rule="evenodd" d="M0.419922 4.69336V4.79297H-0.0195312V4.69336H0.419922ZM0.449219 4.43848V4.53516H0.167969V4.43848H0.449219Z" fill="white"/>
<path fill-rule="evenodd" clip-rule="evenodd" d="M4.20801 4.20117H5.64355V4.30078H4.20801V4.20117ZM4.42187 4.69922H4.52148V4.79297H4.42187V4.69922ZM5.64941 4.69336V4.79297H5.3623V4.69336H5.64941ZM5.80469 4.20117H5.9043V4.79297H5.80469V4.20117Z" fill="white"/>
<path fill-rule="evenodd" clip-rule="evenodd" d="M6.37598 4.69336V4.79297H5.83105V4.69336H6.37598ZM5.3623 4.46191H5.46191V4.79297H5.3623V4.46191Z" fill="white"/>
<path fill-rule="evenodd" clip-rule="evenodd" d="M6.29395 4.20117H6.39355V4.79297H6.29395V4.20117ZM6.04785 4.20117H6.14746V4.79297H6.04492L6.04785 4.20117ZM4.73535 4.43555V4.53516H4.20801V4.43848L4.73535 4.43555ZM5.88672 4.43555V4.53516H5.35938V4.43848L5.88672 4.43555Z" fill="white"/>
<path fill-rule="evenodd" clip-rule="evenodd" d="M5.3623 4.46191H5.46191V4.79297H5.3623V4.46191Z" fill="white"/>
<path fill-rule="evenodd" clip-rule="evenodd" d="M5.3623 4.46191H5.46191V4.79297H5.3623V4.46191Z" fill="white"/>
<path fill-rule="evenodd" clip-rule="evenodd" d="M5.3623 4.46191H5.46191V4.79297H5.3623V4.46191ZM4.21094 4.46191H4.31055V4.79297H4.21094V4.46191ZM5.05469 4.46191H5.1543V4.79297H5.05469V4.46191ZM4.63574 4.46191H4.73535V4.79297H4.63574V4.46191Z" fill="white"/>
<path fill-rule="evenodd" clip-rule="evenodd" d="M5.125 4.69336V4.79297H4.67969V4.69336H5.125ZM5.1543 4.43848V4.53516H4.87305V4.43848H5.1543Z" fill="white"/>
<path fill-rule="evenodd" clip-rule="evenodd" d="M6.56348 4.20117H8.00195V4.30078H6.56641L6.56348 4.20117ZM6.78027 4.69922H6.87695V4.79297H6.78027V4.69922ZM8.00488 4.69336V4.79297H7.71777V4.69336H8.00488ZM8.16016 4.20117H8.25977V4.79297H8.16016V4.20117Z" fill="white"/>
<path fill-rule="evenodd" clip-rule="evenodd" d="M8.73437 4.69336V4.79297H8.18945V4.69336H8.73437ZM7.71777 4.46191H7.81738V4.79297H7.71777V4.46191Z" fill="white"/>
<path fill-rule="evenodd" clip-rule="evenodd" d="M8.65234 4.20117H8.75195V4.79297H8.65234V4.20117ZM8.40332 4.20117H8.50293V4.79297H8.40332V4.20117ZM7.09082 4.43555V4.53516H6.56641V4.43848L7.09082 4.43555ZM8.24219 4.43555V4.53516H7.71777V4.43848L8.24219 4.43555Z" fill="white"/>
<path fill-rule="evenodd" clip-rule="evenodd" d="M7.71777 4.46191H7.81738V4.79297H7.71777V4.46191Z" fill="white"/>
<path fill-rule="evenodd" clip-rule="evenodd" d="M7.71777 4.46191H7.81738V4.79297H7.71777V4.46191Z" fill="white"/>
<path fill-rule="evenodd" clip-rule="evenodd" d="M7.71777 4.46191H7.81738V4.79297H7.71777V4.46191ZM6.56641 4.46191H6.66602V4.79297H6.56641V4.46191ZM7.41016 4.46191H7.50977V4.79297H7.41016V4.46191ZM6.99414 4.46191H7.09082V4.79297H6.99414V4.46191Z" fill="white"/>
<path fill-rule="evenodd" clip-rule="evenodd" d="M7.48047 4.69336V4.79297H7.03809V4.69336H7.48047ZM7.50977 4.43848V4.53516H7.22852V4.43848H7.50977Z" fill="white"/>
<path fill-rule="evenodd" clip-rule="evenodd" d="M8.93066 4.20117H10.3662V4.30078H8.93066V4.20117ZM9.14453 4.69922H9.24414V4.79297H9.14453V4.69922ZM10.3721 4.69336V4.79297H10.085V4.69336H10.3721ZM10.5273 4.20117H10.624V4.79297H10.5273V4.20117Z" fill="white"/>
<path fill-rule="evenodd" clip-rule="evenodd" d="M11.0986 4.69336V4.79297H10.5537V4.69336H11.0986ZM10.085 4.46191H10.1846V4.79297H10.085V4.46191Z" fill="white"/>
<path fill-rule="evenodd" clip-rule="evenodd" d="M11.0166 4.20117H11.1162V4.79297H11.0166V4.20117ZM10.7705 4.20117H10.8701V4.79297H10.7705V4.20117ZM9.45801 4.43555V4.53516H8.93066V4.43848L9.45801 4.43555ZM10.6094 4.43555V4.53516H10.082V4.43848L10.6094 4.43555Z" fill="white"/>
<path fill-rule="evenodd" clip-rule="evenodd" d="M10.085 4.46191H10.1846V4.79297H10.085V4.46191Z" fill="white"/>
<path fill-rule="evenodd" clip-rule="evenodd" d="M10.085 4.46191H10.1846V4.79297H10.085V4.46191Z" fill="white"/>
<path fill-rule="evenodd" clip-rule="evenodd" d="M10.085 4.46191H10.1846V4.79297H10.085V4.46191ZM8.93359 4.46191H9.03027V4.79297H8.93359V4.46191ZM9.77734 4.46191H9.87695V4.79297H9.77734V4.46191ZM9.3584 4.46191H9.45801V4.79297H9.35547L9.3584 4.46191Z" fill="white"/>
<path fill-rule="evenodd" clip-rule="evenodd" d="M9.84766 4.69336V4.79297H9.40234V4.69336H9.84766ZM9.87695 4.43848V4.53516H9.58984V4.43848H9.87695Z" fill="white"/>
<path fill-rule="evenodd" clip-rule="evenodd" d="M11.3096 4.20117H12.7451V4.30078H11.3096V4.20117ZM11.5234 4.69922H11.623V4.79297H11.5234V4.69922ZM12.751 4.69336V4.79297H12.4609V4.69336H12.751ZM12.9062 4.20117H13.0029V4.79297H12.9062V4.20117Z" fill="white"/>
<path fill-rule="evenodd" clip-rule="evenodd" d="M13.4775 4.69336V4.79297H12.9326V4.69336H13.4775ZM12.4639 4.46191H12.5635V4.79297H12.4609L12.4639 4.46191Z" fill="white"/>
<path fill-rule="evenodd" clip-rule="evenodd" d="M13.3984 4.20117H13.4951V4.79297H13.3984V4.20117ZM13.1494 4.20117H13.249V4.79297H13.1494V4.20117ZM11.8369 4.43555V4.53516H11.3096V4.43848L11.8369 4.43555ZM12.9883 4.43555V4.53516H12.4609V4.43848L12.9883 4.43555Z" fill="white"/>
<path fill-rule="evenodd" clip-rule="evenodd" d="M12.4609 4.46191H12.5635V4.79297H12.4609V4.46191Z" fill="white"/>
<path fill-rule="evenodd" clip-rule="evenodd" d="M12.4609 4.46191H12.5635V4.79297H12.4609V4.46191Z" fill="white"/>
<path fill-rule="evenodd" clip-rule="evenodd" d="M12.4609 4.46191H12.5635V4.79297H12.4609V4.46191ZM11.3125 4.46191H11.4121V4.79297H11.3125V4.46191ZM12.1563 4.46191H12.2559V4.79297H12.1563V4.46191ZM11.7373 4.46191H11.8369V4.79297H11.7373V4.46191Z" fill="white"/>
<path fill-rule="evenodd" clip-rule="evenodd" d="M12.2266 4.69336V4.79297H11.7812V4.69336H12.2266ZM12.2559 4.43848V4.53516H11.9746V4.43848H12.2559Z" fill="white"/>
<path fill-rule="evenodd" clip-rule="evenodd" d="M13.6738 4.20117H15.1094V4.30078H13.6738V4.20117ZM13.8877 4.69922H13.9873V4.79297H13.8877V4.69922ZM15.1182 4.69336V4.79297H14.8281V4.69336H15.1182ZM15.2705 4.20117H15.3701V4.79297H15.2705V4.20117Z" fill="white"/>
<path fill-rule="evenodd" clip-rule="evenodd" d="M15.8418 4.69336V4.79297H15.2969V4.69336H15.8418ZM14.8281 4.46191H14.9277V4.79297H14.8281V4.46191Z" fill="white"/>
<path fill-rule="evenodd" clip-rule="evenodd" d="M15.7627 4.20117H15.8594V4.79297H15.7627V4.20117ZM15.5137 4.20117H15.6133V4.79297H15.5137V4.20117ZM14.2012 4.43555V4.53516H13.6768V4.43848L14.2012 4.43555ZM15.3525 4.43555V4.53516H14.8281V4.43848L15.3525 4.43555Z" fill="white"/>
<path fill-rule="evenodd" clip-rule="evenodd" d="M14.8281 4.46191H14.9277V4.79297H14.8281V4.46191Z" fill="white"/>
<path fill-rule="evenodd" clip-rule="evenodd" d="M14.8281 4.46191H14.9277V4.79297H14.8281V4.46191Z" fill="white"/>
<path fill-rule="evenodd" clip-rule="evenodd" d="M14.8281 4.46191H14.9277V4.79297H14.8281V4.46191ZM13.6768 4.46191H13.7764V4.79297H13.6768V4.46191ZM14.5205 4.46191H14.6201V4.79297H14.5205V4.46191ZM14.1016 4.46191H14.2012V4.79297H14.1045L14.1016 4.46191Z" fill="white"/>
<path fill-rule="evenodd" clip-rule="evenodd" d="M14.5908 4.69336V4.79297H14.1484V4.69336H14.5908ZM14.6201 4.43848V4.53516H14.3359V4.43848H14.6201Z" fill="white"/>
<path fill-rule="evenodd" clip-rule="evenodd" d="M16.041 4.20117H17.4766V4.30078H16.041V4.20117ZM16.2549 4.69922H16.3545V4.79297H16.2549V4.69922ZM17.4824 4.69336V4.79297H17.1953V4.69336H17.4824ZM17.6348 4.20117H17.7344V4.79297H17.6348V4.20117Z" fill="white"/>
<path fill-rule="evenodd" clip-rule="evenodd" d="M18.209 4.69336V4.79297H17.6641V4.69336H18.209ZM17.1924 4.46191H17.292V4.79297H17.1924V4.46191Z" fill="white"/>
<path fill-rule="evenodd" clip-rule="evenodd" d="M18.127 4.20117H18.2266V4.79297H18.127V4.20117ZM17.8809 4.20117H17.9775V4.79297H17.8809V4.20117ZM16.5684 4.43555V4.53516H16.041V4.43848L16.5684 4.43555ZM17.7197 4.43555V4.53516H17.1924V4.43848L17.7197 4.43555Z" fill="white"/>
<path fill-rule="evenodd" clip-rule="evenodd" d="M17.1953 4.46191H17.292V4.79297H17.1953V4.46191Z" fill="white"/>
<path fill-rule="evenodd" clip-rule="evenodd" d="M17.1953 4.46191H17.292V4.79297H17.1953V4.46191Z" fill="white"/>
<path fill-rule="evenodd" clip-rule="evenodd" d="M17.1953 4.46191H17.292V4.79297H17.1953V4.46191ZM16.041 4.46191H16.1406V4.79297H16.041V4.46191ZM16.8877 4.46191H16.9844V4.79297H16.8877V4.46191ZM16.4687 4.46191H16.5684V4.79297H16.4687V4.46191Z" fill="white"/>
<path fill-rule="evenodd" clip-rule="evenodd" d="M16.9551 4.69336V4.79297H16.5127V4.69336H16.9551ZM16.9844 4.43848V4.53516H16.7031V4.43848H16.9844Z" fill="white"/>
<path fill-rule="evenodd" clip-rule="evenodd" d="M18.4199 4.20117H19.8555V4.30078H18.4199V4.20117ZM18.6338 4.69922H18.7334V4.79297H18.6338V4.69922ZM19.8613 4.69336V4.79297H19.5742V4.69336H19.8613ZM20.0137 4.20117H20.1133V4.79297H20.0137V4.20117Z" fill="white"/>
<path fill-rule="evenodd" clip-rule="evenodd" d="M20.5879 4.69336V4.79297H20.043V4.69336H20.5879ZM19.5742 4.46191H19.6709V4.79297H19.5742V4.46191Z" fill="white"/>
<path fill-rule="evenodd" clip-rule="evenodd" d="M20.5059 4.20117H20.6055V4.79297H20.5059V4.20117ZM20.2598 4.20117H20.3564V4.79297H20.2598V4.20117ZM18.9473 4.43555V4.53516H18.4199V4.43848L18.9473 4.43555ZM20.0986 4.43555V4.53516H19.5713V4.43848L20.0986 4.43555Z" fill="white"/>
<path fill-rule="evenodd" clip-rule="evenodd" d="M19.5742 4.46191H19.6709V4.79297H19.5742V4.46191Z" fill="white"/>
<path fill-rule="evenodd" clip-rule="evenodd" d="M19.5742 4.46191H19.6709V4.79297H19.5742V4.46191Z" fill="white"/>
<path fill-rule="evenodd" clip-rule="evenodd" d="M19.5742 4.46191H19.6709V4.79297H19.5742V4.46191ZM18.4229 4.46191H18.5195V4.79297H18.4229V4.46191ZM19.2666 4.46191H19.3662V4.79297H19.2666V4.46191ZM18.8477 4.46191H18.9473V4.79297H18.8477V4.46191Z" fill="white"/>
<path fill-rule="evenodd" clip-rule="evenodd" d="M19.334 4.69336V4.79297H18.8916V4.69336H19.334ZM19.3633 4.43848V4.53516H19.082V4.43848H19.3633Z" fill="white"/>
<path fill-rule="evenodd" clip-rule="evenodd" d="M0.484375 9.94629H0.660156V10.2539H0.484375V9.94629ZM5.18652 9.94629H5.3623V10.2539H5.18652V9.94629ZM-3.125 9.94629H-2.94922V10.2539H-3.125V9.94629ZM-0.737305 9.94629H-0.561523V10.2539H-0.737305V9.94629ZM1.63281 9.94629H1.80859V10.2539H1.63281V9.94629ZM2.80469 9.94629H2.98047V10.2539H2.80469V9.94629ZM4.00293 9.94629H4.17871V10.2539H4.00293V9.94629ZM6.3584 9.94629H6.53418V10.2539H6.3584V9.94629ZM12.3057 9.94629H12.4844V10.2539H12.3086L12.3057 9.94629ZM7.55664 9.94629H7.73242V10.2539H7.55664V9.94629ZM8.72852 9.94629H8.9043V10.2539H8.72852V9.94629ZM9.91504 9.94629H10.0908V10.2539H9.91504V9.94629ZM11.0986 9.94629H11.2744V10.2539H11.0986V9.94629ZM20.5674 9.94629H20.7432V10.2539H20.5674V9.94629ZM13.457 9.94629H13.6328V10.2539H13.457V9.94629ZM14.6523 9.94629H14.8281V10.2539H14.6523V9.94629ZM15.8623 9.94629H16.0381V10.2539H15.8623V9.94629ZM16.999 9.94629H17.1748V10.2539H16.999V9.94629ZM18.209 9.94629H18.3848V10.2539H18.209V9.94629ZM19.3926 9.94629H19.5684V10.2539H19.3926V9.94629ZM22.8994 9.94629H23.0752V10.2539H22.8994V9.94629ZM21.7627 9.94629H21.9385V10.2539H21.7627V9.94629ZM-1.93555 9.94629H-1.75977V10.2539H-1.93555V9.94629Z" fill="#D90000"/>
<path fill-rule="evenodd" clip-rule="evenodd" d="M0.484375 4.76367H0.660156V5.07129H0.484375V4.76367ZM5.18652 4.76367H5.3623V5.07129H5.18652V4.76367ZM-3.125 4.76367H-2.94922V5.07129H-3.125V4.76367ZM-0.737305 4.76367H-0.561523V5.07129H-0.737305V4.76367ZM1.63281 4.76367H1.80859V5.07129H1.63281V4.76367ZM2.80469 4.76367H2.98047V5.07129H2.80469V4.76367ZM4.00293 4.76367H4.17871V5.07129H4.00293V4.76367ZM6.3584 4.76367H6.53418V5.07129H6.3584V4.76367ZM12.3057 4.76367H12.4844V5.07129H12.3086L12.3057 4.76367ZM7.55664 4.76367H7.73242V5.07129H7.55664V4.76367ZM8.72852 4.76367H8.9043V5.07129H8.72852V4.76367ZM9.91504 4.76367H10.0908V5.07129H9.91504V4.76367ZM11.0986 4.76367H11.2744V5.07129H11.0986V4.76367ZM20.5674 4.76367H20.7432V5.07129H20.5674V4.76367ZM13.457 4.76367H13.6328V5.07129H13.457V4.76367ZM14.6523 4.76367H14.8281V5.07129H14.6523V4.76367ZM15.8623 4.76367H16.0381V5.07129H15.8623V4.76367ZM16.999 4.76367H17.1748V5.07129H16.999V4.76367ZM18.209 4.76367H18.3848V5.07129H18.209V4.76367ZM19.3926 4.76367H19.5684V5.07129H19.3926V4.76367ZM22.8994 4.76367H23.0752V5.07129H22.8994V4.76367ZM21.7627 4.76367H21.9385V5.07129H21.7627V4.76367ZM-1.93555 4.76367H-1.75977V5.07129H-1.93555V4.76367Z" fill="#239E3F"/>
<path fill-rule="evenodd" clip-rule="evenodd" d="M10.6966 5.78613C10.9427 6.09082 11.7074 7.7666 10.2367 8.86816C9.54234 9.38965 9.973 9.41309 9.99351 9.50098C11.1068 8.91211 11.4671 8.10938 11.4584 7.3916C11.4525 6.67676 11.0716 6.04395 10.6966 5.78613Z" fill="#DA0000"/>
<path fill-rule="evenodd" clip-rule="evenodd" d="M10.8434 5.70703C11.1152 5.87243 11.3468 6.09616 11.5216 6.36206C11.6964 6.62795 11.8099 6.92936 11.8539 7.24449C11.8979 7.55962 11.8713 7.88059 11.7761 8.18419C11.6809 8.4878 11.5194 8.76645 11.3033 9C12.1002 8.82422 13.1197 6.46875 10.8434 5.70703ZM9.15585 5.70703C8.88425 5.87268 8.65284 6.0966 8.47835 6.36262C8.30387 6.62863 8.19067 6.93009 8.14693 7.2452C8.1032 7.56032 8.13002 7.88121 8.22547 8.18469C8.32091 8.48816 8.48259 8.76665 8.69882 9C7.89902 8.82422 6.88241 6.46875 9.15585 5.70703Z" fill="#DA0000"/>
<path fill-rule="evenodd" clip-rule="evenodd" d="M9.30191 5.78613C9.05582 6.09082 8.29117 7.7666 9.76188 8.86816C10.4533 9.38965 10.0255 9.41309 10.005 9.50098C8.89176 8.91211 8.53141 8.10938 8.5402 7.3916C8.54605 6.67676 8.92691 6.04395 9.30191 5.78613Z" fill="#DA0000"/>
<path fill-rule="evenodd" clip-rule="evenodd" d="M11.4121 9.34863C10.9756 9.35449 10.4277 9.29004 10.0205 9.07617C10.0879 9.20801 10.1436 9.29004 10.2109 9.41895C10.5977 9.45703 11.1338 9.50098 11.4121 9.34863ZM8.62891 9.34863C9.06543 9.35449 9.61328 9.29004 10.0205 9.07617C9.95313 9.20801 9.89746 9.29004 9.83008 9.41895C9.44336 9.45703 8.90723 9.50098 8.62891 9.34863ZM9.42871 5.28516C9.5166 5.51953 9.74805 5.55469 9.99414 5.41699C10.1758 5.52246 10.4541 5.53125 10.5508 5.29688C10.624 5.87695 10.0146 5.73633 9.99414 5.625C9.76563 5.84473 9.34375 5.71875 9.42871 5.28516Z" fill="#DA0000"/>
<path fill-rule="evenodd" clip-rule="evenodd" d="M10.0117 9.71484L10.2402 9.45117L10.2725 5.93262L10 5.69238L9.72754 5.9209L9.7832 9.46582L10.0117 9.71484Z" fill="#DA0000"/>
</g>
</g>
<defs>
<clipPath id="clip0_202_3671">
<rect width="20" height="15" fill="white"/>
</clipPath>
</defs>
</svg>
