<svg width="20" height="15" viewBox="0 0 20 15" fill="none" xmlns="http://www.w3.org/2000/svg">
<g clip-path="url(#clip0_202_3618)">
<path d="M0 0H20V15H0V0Z" fill="#00ABC2"/>
<path d="M10.8944 10.6719C10.8409 10.6749 10.7888 10.6819 10.7378 10.6984C10.6679 10.7079 10.601 10.7324 10.5316 10.7439L10.5039 10.7484L10.4573 10.7529C10.4603 10.7659 10.4623 10.7789 10.4623 10.7919C10.4623 10.8054 10.4608 10.8184 10.4573 10.8294C10.4543 10.8399 10.4449 10.8529 10.4375 10.8609C10.4276 10.8719 10.4172 10.8814 10.4048 10.8874C10.3929 10.8934 10.3795 10.8959 10.3661 10.8969C10.3528 10.8974 10.3389 10.8969 10.326 10.8919C10.3126 10.8874 10.3002 10.8789 10.2888 10.8689C10.2751 10.8723 10.2612 10.8748 10.2472 10.8764C10.2333 10.8779 10.2204 10.8779 10.2081 10.8764C10.1942 10.8724 10.1798 10.8679 10.1664 10.8624C10.153 10.8567 10.14 10.8499 10.1278 10.8419C10.0772 10.8719 10.0208 10.9004 9.99002 10.9529C9.97269 10.9769 9.96921 11.0044 9.96526 11.0329C9.96277 11.0679 9.97169 11.1049 9.98656 11.1374C9.99202 11.1469 9.99648 11.1029 10.0133 11.0969C10.0416 11.0734 10.0768 11.0564 10.1124 11.0469C10.1427 11.0314 10.1387 11.0479 10.1263 11.0719C10.1233 11.0844 10.1065 11.1319 10.1293 11.1079C10.2299 11.0629 10.3414 11.0539 10.4499 11.0454C10.6075 11.0289 10.7655 11.0254 10.9236 11.0234L11.3696 11.0329C11.4404 11.0349 11.5118 11.0509 11.5817 11.0389C11.5985 11.0344 11.6248 11.0334 11.6347 11.0234C11.603 11.0049 11.5658 11.0044 11.5306 10.9999H11.2472C11.1684 10.9919 11.0861 10.9909 11.0118 10.9609C10.992 10.9529 10.9737 10.9339 10.9548 10.9544C10.9266 10.9644 10.8964 10.9714 10.8666 10.9734C10.8146 10.9774 10.7626 10.9664 10.7145 10.9469C10.7492 10.8984 10.7908 10.8559 10.829 10.8109C10.7982 10.8059 10.7685 10.7994 10.7378 10.7919C10.7918 10.7544 10.8418 10.7119 10.8944 10.6719Z" fill="#FFEC2D"/>
<path d="M13.2092 11.19C13.1015 11.2553 13.0193 11.1396 12.9293 11.1049C12.865 11.1401 12.859 11.258 12.7989 11.3139C12.727 11.3964 12.639 11.2908 12.6455 11.2094C12.5596 11.2825 12.5161 11.4482 12.3771 11.4261C12.3112 11.3719 12.2623 11.2581 12.212 11.3876C12.1709 11.4509 12.0617 11.5411 12.0051 11.4454C11.9876 11.361 11.9456 11.2617 11.9001 11.3958C11.8689 11.4907 11.7685 11.5605 11.6715 11.5189C11.6183 11.4751 11.7141 11.313 11.6464 11.3246C11.5454 11.392 11.4866 11.5594 11.3455 11.546C11.2907 11.484 11.3788 11.3789 11.3187 11.31C11.2478 11.4019 11.1691 11.5363 11.0464 11.546C10.9871 11.4976 11.0487 11.3585 11.0109 11.3379C10.885 11.4141 10.7522 11.5499 10.5939 11.5073C10.6556 11.2693 10.9134 11.1857 11.1302 11.1671C11.5031 11.1209 11.8955 11.2059 12.2544 11.0701C12.3123 11.0345 12.4528 10.984 12.4028 10.9015C12.3585 10.8362 12.5181 10.8617 12.5334 10.7856C12.5239 10.6891 12.6066 10.7024 12.6875 10.694C13.0498 10.6782 13.4078 10.7552 13.7691 10.7683C13.7964 10.9459 13.6011 11.0706 13.4439 11.0158C13.3688 11.0281 13.2562 10.8416 13.2782 10.9772C13.2631 11.0485 13.2737 11.1425 13.2092 11.1901M10.126 10.8263C10.2099 10.9038 10.2687 10.8118 10.3472 10.7781C10.6102 10.6868 10.8396 10.5273 11.0659 10.3679C11.2029 10.2535 11.3218 10.1051 11.5059 10.0679C11.8649 9.9584 12.2467 9.97169 12.6071 9.87059C12.8816 9.49139 13.3478 9.35611 13.7384 9.13814C13.8261 9.11065 13.8599 9.03782 13.888 8.95742C14.037 8.71997 14.2401 8.50957 14.4803 8.36584C14.5939 8.30318 14.7295 8.26711 14.8582 8.29576C14.8489 8.45036 14.761 8.58739 14.6549 8.69431C14.7417 8.69239 14.8164 8.63702 14.9042 8.64014C14.9342 8.79881 14.7644 8.88185 14.6741 8.98064C14.7244 8.99245 14.9172 9.00716 14.8121 9.05803C14.6782 9.15178 14.5254 9.21614 14.4018 9.32501C14.5158 9.34568 14.5288 9.37013 14.4129 9.41174C14.3501 9.45467 14.2294 9.46967 14.2177 9.5533C14.3039 9.60671 14.1781 9.65975 14.1295 9.67712C14.0367 9.69893 13.9393 9.7396 14.0625 9.81073C14.0159 9.8818 13.9159 9.89696 13.8342 9.88993C13.859 9.97048 13.8949 10.0606 13.7913 10.0961C13.559 10.2733 13.2864 10.4022 12.9944 10.4317C13.3592 10.4599 13.7349 10.3916 14.0465 10.1915C14.0877 10.1424 14.3034 10.0896 14.1828 10.0484C14.1259 10.0245 14.0041 9.998 13.9959 9.95429C14.1647 9.8492 14.3774 9.88658 14.559 9.82415C14.5637 9.76483 14.4209 9.78133 14.3676 9.76783C14.2406 9.75733 14.2481 9.72463 14.3705 9.71251C14.5255 9.67111 14.7009 9.66296 14.8313 9.56104C14.7252 9.51143 14.5917 9.5551 14.4785 9.5146C14.6704 9.42985 14.8968 9.42134 15.069 9.29404C15.1475 9.20599 14.9685 9.2335 14.9164 9.23564C14.8101 9.25432 14.761 9.20297 14.8817 9.15841C15.0879 9.005 15.349 8.90536 15.4939 8.68295C15.5282 8.63317 15.5746 8.48317 15.4652 8.53712C15.3213 8.58541 15.1947 8.74864 15.0307 8.69815C15.3538 8.44549 15.6612 8.15785 15.882 7.8082C15.8934 7.70735 15.7366 7.69645 15.6957 7.77562C15.4882 7.97743 15.3003 8.21564 15.0345 8.34217C15.2891 8.09429 15.4995 7.80079 15.6831 7.49659C15.7224 7.40611 15.8282 7.2973 15.7708 7.19684C15.6783 7.11955 15.5625 7.1903 15.5144 7.28279C15.3531 7.49534 15.2305 7.74343 15.023 7.91654C15.2047 7.56673 15.3928 7.19434 15.3974 6.79085C15.3968 6.70778 15.3803 6.58544 15.2685 6.60095C15.1798 6.61699 15.2009 6.75083 15.1643 6.81853C15.0839 7.09418 15.0461 7.39271 14.8811 7.63408C14.9183 7.41008 14.9832 7.17658 14.9334 6.95038C14.9101 6.84929 14.7483 6.89278 14.7691 6.99283C14.5758 7.98073 13.9189 8.84473 13.0597 9.34453C12.6663 9.56912 12.2269 9.71392 11.7798 9.77956C11.6595 9.80612 11.5295 9.79054 11.4145 9.83191C11.136 10.0474 10.9673 10.408 10.6147 10.5209C10.4566 10.6002 10.2505 10.6163 10.1375 10.7644C10.1277 10.7834 10.1256 10.8053 10.126 10.8263Z" fill="#FFEC2D"/>
<path d="M11.1812 9.82416C11.1291 9.91947 11.0985 10.029 11.0316 10.1144C10.8303 9.92955 10.5385 9.93566 10.2832 9.92336C10.0724 9.912 9.84323 9.89238 9.68017 9.74072C9.50863 9.59894 9.36861 9.41486 9.17692 9.29982C9.00197 9.25182 8.8256 9.19176 8.68494 9.07076C8.38435 8.82353 8.2122 8.4567 7.91848 8.20176C7.86248 8.14614 7.79645 8.10305 7.73371 8.05586C7.6741 8.07051 7.70108 8.20032 7.62813 8.13416C7.58844 8.10566 7.48917 8.10288 7.48022 8.14269C7.57002 8.26209 7.65992 8.39843 7.67236 8.55114C7.61111 8.55747 7.50222 8.53809 7.47186 8.5611C7.5532 8.6841 7.65745 8.7932 7.7759 8.88005C7.71908 8.88926 7.60713 8.88425 7.58535 8.90735C7.70293 9.00404 7.829 9.10286 7.98297 9.1277C8.01449 9.16961 7.93688 9.25055 8.00215 9.28634C8.03998 9.30194 8.16484 9.32804 8.07884 9.37146C8.01982 9.41159 8.04172 9.50511 8.11719 9.50301C8.16491 9.52761 8.27205 9.53363 8.28044 9.57621C8.23814 9.61964 8.10653 9.67113 8.21855 9.71181C8.32319 9.77037 8.44253 9.8084 8.56203 9.81257C8.50206 9.86348 8.42817 9.89237 8.36645 9.94026C8.64221 10.1034 8.9479 10.2107 9.24998 10.314C9.37024 10.3546 9.4919 10.3924 9.61657 10.4162C9.25432 10.3951 8.90418 10.2869 8.57425 10.1388C8.40324 10.0631 8.23108 9.98997 8.05583 9.9248C8.13267 9.88445 8.22155 9.87459 8.30125 9.83967C8.13582 9.80622 7.9551 9.79527 7.80968 9.70352C7.83198 9.66338 7.91646 9.66149 7.96318 9.64106C8.05105 9.61982 8.10557 9.59405 7.98166 9.58634C7.85671 9.55212 7.71341 9.56748 7.60329 9.49142C7.61038 9.44582 7.72563 9.46172 7.77256 9.44202C7.83166 9.43178 7.89737 9.4232 7.9446 9.38307C7.75143 9.30227 7.49877 9.35952 7.34747 9.1874C7.31258 9.12182 7.45582 9.17465 7.49662 9.16371C7.60028 9.16371 7.71168 9.19695 7.81039 9.15479C7.52892 9.03009 7.22742 8.91336 7.01276 8.68272C6.98893 8.64564 6.91751 8.54435 6.97513 8.53182C7.14221 8.55413 7.26315 8.73812 7.44186 8.70948C7.46561 8.67719 7.33804 8.62427 7.3062 8.57811C7.04563 8.3525 6.79273 8.10765 6.6101 7.81212C6.59754 7.71342 6.75128 7.69865 6.79176 7.77486C6.99104 7.96853 7.17105 8.19452 7.41925 8.32673C7.50732 8.36982 7.36868 8.27573 7.35022 8.2416C7.12088 7.97289 6.90256 7.68909 6.74228 7.37262C6.71358 7.31559 6.66604 7.21233 6.75188 7.18197C6.8377 7.13859 6.92285 7.19769 6.96636 7.27208C7.13497 7.48665 7.25904 7.74168 7.46908 7.92045C7.29014 7.57007 7.09909 7.20123 7.09446 6.79803C7.09867 6.71988 7.10365 6.60165 7.20869 6.60486C7.29689 6.59136 7.28296 6.7053 7.31186 6.75963C7.39877 7.05584 7.43666 7.37645 7.61099 7.63797C7.57249 7.41824 7.51581 7.19195 7.55346 6.96857C7.56215 6.89522 7.64398 6.87302 7.6974 6.91736C7.74058 7.02401 7.74957 7.15571 7.78892 7.26972C8.0128 8.04252 8.5155 8.7222 9.17058 9.17832C9.71009 9.55169 10.3504 9.77457 11.0038 9.81344C11.0629 9.81863 11.1221 9.82043 11.1812 9.82409" fill="#FFEC2D"/>
<path d="M10.3506 10.8488C10.3701 10.8488 10.3858 10.8329 10.3858 10.8133C10.3858 10.7937 10.3701 10.7778 10.3506 10.7778C10.3312 10.7778 10.3154 10.7937 10.3154 10.8133C10.3154 10.8329 10.3312 10.8488 10.3506 10.8488Z" fill="#FFEC2D"/>
<path d="M10.3483 10.8219C10.3563 10.8219 10.3627 10.8154 10.3627 10.8074C10.3627 10.7994 10.3563 10.793 10.3483 10.793C10.3404 10.793 10.334 10.7994 10.334 10.8074C10.334 10.8154 10.3404 10.8219 10.3483 10.8219Z" fill="#FFEC2D" stroke="#FFEC2D" stroke-width="0.1905"/>
<path d="M11.2502 8.31824C12.3549 8.31824 13.2504 7.41464 13.2504 6.29999C13.2504 5.18534 12.3549 4.28174 11.2502 4.28174C10.1455 4.28174 9.25 5.18534 9.25 6.29999C9.25 7.41464 10.1455 8.31824 11.2502 8.31824Z" fill="#FFEC2D"/>
<path d="M11.2504 4.00644C11.3694 4.00494 11.414 3.92994 11.414 3.83994C11.414 3.71994 11.2504 3.14844 11.2504 3.14844C11.2504 3.14844 11.0869 3.71994 11.0869 3.83994C11.0869 3.92994 11.1315 4.00644 11.2504 4.00644Z" fill="#FFEC2D"/>
<path d="M13.5227 6.29977C13.5242 6.41977 13.5985 6.46477 13.6877 6.46477C13.8067 6.46477 14.373 6.29977 14.373 6.29977C14.373 6.29977 13.8067 6.13477 13.6877 6.13477C13.5985 6.13477 13.5227 6.17977 13.5227 6.29977Z" fill="#FFEC2D"/>
<path d="M11.2505 8.59342C11.1316 8.59492 11.087 8.66992 11.087 8.75992C11.087 8.87992 11.2505 9.45142 11.2505 9.45142C11.2505 9.45142 11.4141 8.87992 11.4141 8.75992C11.4141 8.66992 11.3695 8.59342 11.2505 8.59342Z" fill="#FFEC2D"/>
<path d="M8.97728 6.29984C8.9758 6.17984 8.90147 6.13484 8.81227 6.13484C8.69334 6.13484 8.12695 6.29984 8.12695 6.29984C8.12695 6.29984 8.69334 6.46484 8.81227 6.46484C8.90147 6.46484 8.97728 6.41984 8.97728 6.29984Z" fill="#FFEC2D"/>
<path d="M12.1443 4.1643C12.2713 4.22106 12.3431 4.17648 12.3725 4.09684C12.4116 3.99065 12.4239 3.40506 12.4239 3.40506C12.4239 3.40506 12.0637 3.83091 12.0246 3.9371C11.9953 4.01674 12.0178 4.10621 12.1443 4.1643Z" fill="#FFEC2D"/>
<path d="M13.3379 7.15581C13.3041 7.2515 13.362 7.31965 13.4474 7.35865C13.5612 7.41066 14.1518 7.52766 14.1518 7.52766C14.1518 7.52766 13.6581 7.14929 13.5442 7.09728C13.4588 7.05828 13.3731 7.06076 13.3379 7.15581Z" fill="#FFEC2D"/>
<path d="M10.3596 8.43555C10.2327 8.37879 10.1608 8.42338 10.1314 8.50302C10.0923 8.60921 10.08 9.19479 10.08 9.19479C10.08 9.19479 10.4402 8.76894 10.4793 8.66276C10.5087 8.58312 10.4861 8.49364 10.3596 8.43555Z" fill="#FFEC2D"/>
<path d="M9.16605 5.4438C9.19984 5.34811 9.1419 5.27996 9.05652 5.24096C8.94269 5.18895 8.35213 5.07195 8.35213 5.07195C8.35213 5.07195 8.84585 5.45032 8.95969 5.50233C9.04507 5.54133 9.13084 5.53885 9.16605 5.4438Z" fill="#FFEC2D"/>
<path d="M12.8581 4.67845C12.9433 4.76224 13.0273 4.74103 13.0904 4.67739C13.1745 4.59253 13.4594 4.07175 13.4594 4.07175C13.4594 4.07175 12.9433 4.35919 12.8592 4.44404C12.7961 4.50768 12.774 4.5936 12.8581 4.67845Z" fill="#FFEC2D"/>
<path d="M12.8583 7.92184C12.7752 8.00775 12.7963 8.09261 12.8593 8.15625C12.9434 8.2411 13.4596 8.52854 13.4596 8.52854C13.4596 8.52854 13.1747 8.00775 13.0906 7.9229C13.0275 7.85926 12.9424 7.83699 12.8583 7.92184Z" fill="#FFEC2D"/>
<path d="M9.64385 7.92189C9.5587 7.8381 9.47461 7.85931 9.41154 7.92295C9.32744 8.00781 9.04257 8.52859 9.04257 8.52859C9.04257 8.52859 9.5587 8.24115 9.6428 8.1563C9.70587 8.09266 9.72794 8.00675 9.64385 7.92189Z" fill="#FFEC2D"/>
<path d="M9.64366 4.67826C9.7267 4.59234 9.70568 4.50749 9.64261 4.44385C9.55852 4.359 9.04239 4.07156 9.04239 4.07156C9.04239 4.07156 9.32726 4.59234 9.41135 4.6772C9.47442 4.74084 9.55957 4.76311 9.64366 4.67826Z" fill="#FFEC2D"/>
<path d="M13.337 5.44394C13.3737 5.53834 13.458 5.54147 13.5434 5.50247C13.6572 5.45046 14.151 5.07209 14.151 5.07209C14.151 5.07209 13.5604 5.18909 13.4466 5.2411C13.3612 5.2801 13.3018 5.3489 13.337 5.44394Z" fill="#FFEC2D"/>
<path d="M12.145 8.43562C12.019 8.49504 11.996 8.58318 12.0253 8.66283C12.0645 8.76901 12.4247 9.19486 12.4247 9.19486C12.4247 9.19486 12.4123 8.60927 12.3732 8.50309C12.3439 8.42345 12.2715 8.37754 12.145 8.43562Z" fill="#FFEC2D"/>
<path d="M9.1659 7.15591C9.12926 7.06152 9.04491 7.05838 8.95953 7.09738C8.8457 7.14939 8.35197 7.52776 8.35197 7.52776C8.35197 7.52776 8.94253 7.41076 9.05637 7.35876C9.14174 7.31975 9.20111 7.25095 9.1659 7.15591Z" fill="#FFEC2D"/>
<path d="M10.3579 4.16423C10.4839 4.10482 10.5069 4.01667 10.4776 3.93703C10.4385 3.83084 10.0782 3.40499 10.0782 3.40499C10.0782 3.40499 10.0906 3.99058 10.1297 4.09677C10.159 4.17641 10.2314 4.22232 10.3579 4.16423Z" fill="#FFEC2D"/>
<path d="M11.7263 4.02873C11.8659 4.06655 11.9273 4.0115 11.9381 3.92779C11.9525 3.81617 11.8294 3.23068 11.8294 3.23068C11.8294 3.23068 11.569 3.70832 11.5546 3.81994C11.5437 3.90365 11.5868 3.98951 11.7263 4.02873Z" fill="#FFEC2D"/>
<path d="M13.4671 6.71363C13.4561 6.80722 13.5268 6.86269 13.6174 6.88732C13.7381 6.92015 14.3304 6.94843 14.3304 6.94843C14.3304 6.94843 13.7726 6.66391 13.6519 6.63107C13.5614 6.60644 13.4797 6.62045 13.4671 6.71363Z" fill="#FFEC2D"/>
<path d="M10.7766 8.57113C10.637 8.5333 10.5757 8.58836 10.5649 8.67207C10.5504 8.78368 10.6735 9.36917 10.6735 9.36917C10.6735 9.36917 10.9339 8.89153 10.9484 8.77992C10.9592 8.6962 10.9161 8.61034 10.7766 8.57113Z" fill="#FFEC2D"/>
<path d="M9.03678 5.88622C9.04783 5.79264 8.97708 5.73717 8.88652 5.71254C8.76579 5.6797 8.17351 5.65142 8.17351 5.65142C8.17351 5.65142 8.73126 5.93594 8.85199 5.96878C8.94255 5.99341 9.02422 5.9794 9.03678 5.88622Z" fill="#FFEC2D"/>
<path d="M12.5363 4.37085C12.6529 4.45243 12.7336 4.42497 12.7782 4.35477C12.8378 4.26118 12.962 3.70167 12.962 3.70167C12.962 3.70167 12.5192 4.03362 12.4596 4.12721C12.415 4.1974 12.4204 4.2881 12.5363 4.37085Z" fill="#FFEC2D"/>
<path d="M13.1222 7.55072C13.0701 7.63439 13.1149 7.71118 13.1928 7.76609C13.2965 7.83931 13.8641 8.07423 13.8641 8.07423C13.8641 8.07423 13.4433 7.61175 13.3395 7.53853C13.2617 7.48362 13.1755 7.46797 13.1222 7.55072Z" fill="#FFEC2D"/>
<path d="M9.96369 8.22901C9.84708 8.14743 9.76642 8.17489 9.72176 8.24508C9.66222 8.33867 9.53796 8.89818 9.53796 8.89818C9.53796 8.89818 9.98084 8.56624 10.0404 8.47265C10.085 8.40245 10.0796 8.31176 9.96369 8.22901Z" fill="#FFEC2D"/>
<path d="M9.37686 5.04913C9.42894 4.96547 9.38409 4.88868 9.30626 4.83376C9.20249 4.76055 8.6349 4.52563 8.6349 4.52563C8.6349 4.52563 9.05573 4.9881 9.1595 5.06132C9.23733 5.11623 9.3235 5.13188 9.37686 5.04913Z" fill="#FFEC2D"/>
<path d="M13.1397 5.02351C13.2066 5.12408 13.2931 5.12083 13.3674 5.07129C13.4665 5.00525 13.848 4.55129 13.848 4.55129C13.848 4.55129 13.286 4.7264 13.187 4.79245C13.1127 4.84198 13.0741 4.92211 13.1397 5.02351Z" fill="#FFEC2D"/>
<path d="M12.5144 8.20499C12.4158 8.27156 12.4197 8.35874 12.4691 8.43396C12.535 8.53426 12.9854 8.92209 12.9854 8.92209C12.9854 8.92209 12.8084 8.35462 12.7425 8.25433C12.6931 8.17911 12.6139 8.13967 12.5144 8.20499Z" fill="#FFEC2D"/>
<path d="M9.36123 7.57659C9.29438 7.47602 9.20786 7.47927 9.13356 7.52881C9.0345 7.59485 8.65295 8.04881 8.65295 8.04881C8.65295 8.04881 9.21494 7.87369 9.314 7.80765C9.3883 7.75811 9.42684 7.67799 9.36123 7.57659Z" fill="#FFEC2D"/>
<path d="M9.98654 4.39487C10.0851 4.32829 10.0813 4.24111 10.0319 4.16589C9.96601 4.0656 9.51562 3.67776 9.51562 3.67776C9.51562 3.67776 9.69257 4.24523 9.75844 4.34553C9.80783 4.42075 9.88711 4.46019 9.98654 4.39487Z" fill="#FFEC2D"/>
<path d="M13.477 5.84823C13.4992 5.96869 13.5805 6.00006 13.6687 5.98338C13.7863 5.96114 14.3176 5.6892 14.3176 5.6892C14.3176 5.6892 13.7291 5.62912 13.6115 5.65136C13.5234 5.66804 13.4562 5.72749 13.477 5.84823Z" fill="#FFEC2D"/>
<path d="M11.7005 8.54722C11.5796 8.57047 11.5475 8.65259 11.5636 8.74133C11.5851 8.85965 11.8539 9.39322 11.8539 9.39322C11.8539 9.39322 11.9184 8.79977 11.8969 8.68145C11.8808 8.5927 11.8217 8.52544 11.7005 8.54722Z" fill="#FFEC2D"/>
<path d="M9.02496 6.75162C9.00271 6.63117 8.92143 6.59979 8.83325 6.61647C8.71568 6.63871 8.18432 6.91065 8.18432 6.91065C8.18432 6.91065 8.77283 6.97074 8.8904 6.9485C8.97858 6.93182 9.04574 6.87236 9.02496 6.75162Z" fill="#FFEC2D"/>
<path d="M10.8005 4.05288C10.9214 4.02963 10.9535 3.94751 10.9374 3.85877C10.9159 3.74044 10.6471 3.20687 10.6471 3.20687C10.6471 3.20687 10.5826 3.80033 10.6041 3.91865C10.6201 4.00739 10.6793 4.07466 10.8005 4.05288Z" fill="#FFEC2D"/>
<path d="M1.31876 1.0938C1.31876 1.0938 1.20358 0.972656 1.16446 1.03342C1.10153 1.13115 1.3579 1.61794 1.3579 1.78936C1.3579 2.07075 1.20788 2.14726 1.02264 2.18745C0.898335 2.21442 0.695927 2.17617 0.695927 2.17617C0.73404 2.11207 0.758826 2.09319 0.823043 2.08807C0.751551 2.04162 0.678752 1.94077 0.678752 1.78381C0.678752 1.54174 0.75837 1.44196 0.75837 1.16907C0.75837 1.01767 0.65918 0.824951 0.65918 0.824951C0.834513 0.846911 0.921407 1.05009 0.871968 1.21246C0.899869 1.21749 0.925207 1.20961 0.946972 1.18381C0.959796 1.22881 0.939541 1.28106 0.912418 1.32607C0.934267 1.34068 0.950316 1.33192 0.985121 1.32292C0.981813 1.3693 0.959616 1.41856 0.905299 1.46494C1.06292 1.41372 1.1599 1.55121 1.1599 1.69515C1.1599 1.80387 1.09903 1.88179 1.03952 1.88179C1.0203 1.88179 0.992049 1.87188 0.97612 1.85698C0.964878 1.88691 0.970667 1.92696 0.982233 1.95688C0.93863 1.94245 0.910944 1.91004 0.930648 1.84257C0.897149 1.83871 0.870505 1.82455 0.852383 1.79757C0.870745 1.76812 0.898611 1.75117 0.930648 1.75255C0.906258 1.68955 0.93344 1.6543 0.973052 1.62571C0.973052 1.62571 0.947859 1.75255 1.01218 1.75255C1.0411 1.75255 1.06746 1.74076 1.06746 1.68741C1.06746 1.64095 1.03502 1.5766 0.96 1.5807C0.884984 1.58479 0.824182 1.64542 0.824182 1.79529C0.824182 1.93353 0.913281 2.00229 1.03069 2.00673C1.13656 2.01082 1.21646 1.93905 1.21646 1.80235C1.21646 1.62043 1.00662 1.20576 1.00662 1.04365C1.00662 0.922001 1.09402 0.854111 1.17954 0.854111C1.29042 0.854111 1.38398 0.991526 1.38398 0.991526L1.31884 1.09375L1.31876 1.0938Z" fill="#FFEC2D"/>
<path d="M1.34296 4.38211C1.34296 4.68616 1.12486 4.84243 0.953465 4.84243C0.722555 4.84243 0.599609 4.66965 0.599609 4.44346C0.599609 4.31524 0.618378 4.2348 0.665613 4.11208L1.1948 2.73729C1.2133 2.68947 1.21926 2.63502 1.21926 2.55522C1.21926 2.43196 1.12374 2.33122 1.02358 2.32813C0.932275 2.32528 0.832796 2.43466 0.832796 2.55931C0.832796 2.71071 0.895552 2.77821 0.959985 2.77821C1.03928 2.77821 1.07087 2.73741 1.07087 2.66773C1.07087 2.61918 1.05214 2.59818 1.02521 2.59818C0.957204 2.59818 0.976297 2.71275 0.976297 2.71275C0.942522 2.70349 0.914764 2.66029 0.930633 2.60635C0.904986 2.59926 0.881837 2.58205 0.864593 2.55726C0.882823 2.53513 0.903738 2.51806 0.930633 2.51226C0.914704 2.44644 0.93599 2.41429 0.982002 2.40076C0.972713 2.42607 0.972402 2.44936 0.975482 2.47134C1.04791 2.44555 1.15893 2.48658 1.15893 2.64318C1.15893 2.79865 1.07271 2.92957 0.911061 2.89686C0.94951 2.91987 0.96907 2.96695 0.973025 3.0196C0.943661 3.00529 0.911061 3.00325 0.911061 3.00325C0.929962 3.04495 0.956209 3.08091 0.955083 3.16281C0.925119 3.14575 0.897277 3.11418 0.858876 3.13416C0.919163 3.28263 0.845093 3.48684 0.656672 3.53515C0.725635 3.43398 0.759398 3.32475 0.759398 3.216C0.759398 2.86356 0.681134 2.80432 0.681134 2.5593C0.681134 2.45677 0.723238 2.34607 0.806692 2.27083V2.27493C0.751536 2.25643 0.716203 2.22244 0.695888 2.17626C0.821914 2.13153 1.00511 2.13235 1.10346 2.18079C1.21653 2.19718 1.29547 2.30574 1.31872 2.36085C1.34197 2.41596 1.38714 2.61514 1.31872 2.79453L0.7806 4.2225C0.757253 4.28497 0.743086 4.35124 0.743086 4.42299C0.743086 4.60344 0.875165 4.66644 0.950193 4.66644C1.03988 4.66644 1.1312 4.58094 1.1312 4.47414C1.1312 4.40647 1.10183 4.36572 1.05944 4.36572C0.958067 4.36572 0.964228 4.47364 0.984435 4.54165C0.921344 4.50615 0.884669 4.44277 0.894749 4.37595C0.859032 4.36981 0.82503 4.34862 0.793652 4.30434C0.818342 4.26534 0.848449 4.23583 0.894749 4.23478C0.874529 4.1311 0.929986 4.08726 0.984435 4.06294C0.967212 4.13904 0.95591 4.22661 1.05944 4.22661C1.13495 4.22661 1.19437 4.24297 1.22903 4.30435L1.23718 3.89928C1.24154 3.77781 1.10728 3.78127 1.02195 3.81744C1.05415 3.67753 1.12021 3.60189 1.27307 3.62104C1.23596 3.60162 1.19642 3.55792 1.19642 3.47374C1.19644 3.35985 1.27027 3.23367 1.31874 3.19636L1.34298 4.38213L1.34296 4.38211Z" fill="#FFEC2D"/>
<path d="M1.34296 5.29416C1.34296 4.99011 1.12486 4.83384 0.953465 4.83384C0.722555 4.83384 0.599609 5.00662 0.599609 5.23281C0.599609 5.36103 0.618378 5.44147 0.665613 5.56419L1.1948 6.93898C1.2133 6.9868 1.21926 7.04125 1.21926 7.12105C1.21926 7.24431 1.12374 7.34505 1.02358 7.34814C0.932275 7.35099 0.832796 7.24161 0.832796 7.11696C0.832796 6.96556 0.895552 6.89806 0.959985 6.89806C1.03928 6.89806 1.07087 6.93886 1.07087 7.00854C1.07087 7.05709 1.05214 7.07809 1.02521 7.07809C0.957204 7.07809 0.976297 6.96352 0.976297 6.96352C0.942522 6.97278 0.914764 7.01598 0.930633 7.06992C0.904986 7.07701 0.881837 7.09422 0.864593 7.11901C0.882823 7.14114 0.903738 7.15821 0.930633 7.16401C0.914704 7.22983 0.93599 7.26198 0.982002 7.27551C0.972713 7.2502 0.972402 7.22691 0.975482 7.20493C1.04791 7.23072 1.15893 7.18969 1.15893 7.03309C1.15893 6.87762 1.07271 6.7467 0.911061 6.77941C0.94951 6.7564 0.96907 6.70932 0.973025 6.65667C0.943661 6.67098 0.911061 6.67302 0.911061 6.67302C0.929962 6.63132 0.956209 6.59536 0.955083 6.51346C0.925119 6.53052 0.897277 6.56209 0.858876 6.54211C0.919163 6.39364 0.845093 6.18943 0.656672 6.14112C0.725635 6.24229 0.759398 6.35152 0.759398 6.46027C0.759398 6.81271 0.681134 6.87195 0.681134 7.11697C0.681134 7.2195 0.723238 7.3302 0.806692 7.40544V7.40134C0.751536 7.41984 0.716203 7.45383 0.695888 7.50001C0.821914 7.54474 1.00511 7.54392 1.10346 7.49548C1.21653 7.47909 1.29547 7.37053 1.31872 7.31542C1.34197 7.26031 1.38714 7.06113 1.31872 6.88174L0.7806 5.45377C0.757253 5.3913 0.743086 5.32503 0.743086 5.25328C0.743086 5.07283 0.875165 5.00983 0.950193 5.00983C1.03988 5.00983 1.1312 5.09533 1.1312 5.20213C1.1312 5.2698 1.10183 5.31055 1.05944 5.31055C0.958067 5.31055 0.964228 5.20263 0.984435 5.13462C0.921344 5.17012 0.884669 5.2335 0.894749 5.30032C0.859032 5.30646 0.82503 5.32765 0.793652 5.37193C0.818342 5.41093 0.848449 5.44044 0.894749 5.44149C0.874529 5.54517 0.929986 5.58901 0.984435 5.61333C0.967212 5.53723 0.95591 5.44966 1.05944 5.44966C1.13495 5.44966 1.19437 5.4333 1.22903 5.37192L1.23718 5.77699C1.24154 5.89846 1.10728 5.895 1.02195 5.85883C1.05415 5.99874 1.12021 6.07438 1.27307 6.05523C1.23596 6.07465 1.19642 6.11835 1.19642 6.20253C1.19644 6.31642 1.27027 6.4426 1.31874 6.47991L1.34298 5.29414L1.34296 5.29416Z" fill="#FFEC2D"/>
<path d="M1.31894 1.0938C1.31894 1.0938 1.43412 0.972656 1.47324 1.03342C1.53616 1.13115 1.27979 1.61794 1.27979 1.78936C1.27979 2.07075 1.42981 2.14726 1.61506 2.18745C1.73936 2.21442 1.94177 2.17617 1.94177 2.17617C1.90366 2.11207 1.87887 2.09319 1.81465 2.08807C1.88614 2.04162 1.95894 1.94077 1.95894 1.78381C1.95894 1.54174 1.87932 1.44196 1.87932 1.16907C1.87932 1.01767 1.97852 0.824951 1.97852 0.824951C1.80318 0.846911 1.71629 1.05009 1.76573 1.21246C1.73783 1.21749 1.71249 1.20961 1.69072 1.18381C1.6779 1.22881 1.69815 1.28106 1.72528 1.32607C1.70343 1.34068 1.68738 1.33192 1.65257 1.32292C1.65588 1.3693 1.67808 1.41856 1.7324 1.46494C1.57478 1.41372 1.47779 1.55121 1.47779 1.69515C1.47779 1.80387 1.53867 1.88179 1.59817 1.88179C1.6174 1.88179 1.64565 1.87188 1.66158 1.85698C1.67282 1.88691 1.66703 1.92696 1.65546 1.95688C1.69907 1.94245 1.72675 1.91004 1.70705 1.84257C1.74055 1.83871 1.76719 1.82455 1.78531 1.79757C1.76695 1.76812 1.73908 1.75117 1.70705 1.75255C1.73144 1.68955 1.70425 1.6543 1.66464 1.62571C1.66464 1.62571 1.68984 1.75255 1.62551 1.75255C1.59659 1.75255 1.57023 1.74076 1.57023 1.68741C1.57023 1.64095 1.60268 1.5766 1.6777 1.5807C1.75271 1.58479 1.81351 1.64542 1.81351 1.79529C1.81351 1.93353 1.72441 2.00229 1.60701 2.00673C1.50114 2.01082 1.42123 1.93905 1.42123 1.80235C1.42123 1.62043 1.63107 1.20576 1.63107 1.04365C1.63107 0.922001 1.54368 0.854111 1.45816 0.854111C1.34727 0.854111 1.25371 0.991526 1.25371 0.991526L1.31885 1.09375L1.31894 1.0938Z" fill="#FFEC2D"/>
<path d="M1.29473 4.38211C1.29473 4.68616 1.51284 4.84243 1.68423 4.84243C1.91514 4.84243 2.03809 4.66965 2.03809 4.44346C2.03809 4.31524 2.01932 4.2348 1.97208 4.11208L1.44289 2.73729C1.4244 2.68947 1.41843 2.63502 1.41843 2.55522C1.41843 2.43196 1.51395 2.33122 1.61412 2.32813C1.70542 2.32528 1.8049 2.43466 1.8049 2.55931C1.8049 2.71071 1.74214 2.77821 1.67771 2.77821C1.59842 2.77821 1.56682 2.73741 1.56682 2.66773C1.56682 2.61918 1.58556 2.59818 1.61249 2.59818C1.68049 2.59818 1.6614 2.71275 1.6614 2.71275C1.69517 2.70349 1.72293 2.66029 1.70706 2.60635C1.73271 2.59926 1.75586 2.58205 1.7731 2.55726C1.75487 2.53513 1.73396 2.51806 1.70706 2.51226C1.72299 2.44644 1.70171 2.41429 1.65569 2.40076C1.66498 2.42607 1.66529 2.44936 1.66221 2.47134C1.58979 2.44555 1.47877 2.48658 1.47877 2.64318C1.47877 2.79865 1.56499 2.92957 1.72663 2.89686C1.68819 2.91987 1.66863 2.96695 1.66467 3.0196C1.69403 3.00529 1.72663 3.00325 1.72663 3.00325C1.70773 3.04495 1.68149 3.08091 1.68261 3.16281C1.71258 3.14575 1.74042 3.11418 1.77882 3.13416C1.71853 3.28263 1.7926 3.48684 1.98102 3.53515C1.91206 3.43398 1.8783 3.32475 1.8783 3.216C1.8783 2.86356 1.95656 2.80432 1.95656 2.5593C1.95656 2.45677 1.91446 2.34607 1.831 2.27083V2.27493C1.88616 2.25643 1.92149 2.22244 1.94181 2.17626C1.81578 2.13153 1.63259 2.13235 1.53423 2.18079C1.42116 2.19718 1.34223 2.30574 1.31898 2.36085C1.29573 2.41596 1.25055 2.61514 1.31898 2.79453L1.8571 4.2225C1.88044 4.28497 1.89461 4.35124 1.89461 4.42299C1.89461 4.60344 1.76253 4.66644 1.6875 4.66644C1.59782 4.66644 1.5065 4.58094 1.5065 4.47414C1.5065 4.40647 1.53586 4.36572 1.57826 4.36572C1.67963 4.36572 1.67347 4.47364 1.65326 4.54165C1.71635 4.50615 1.75303 4.44277 1.74295 4.37595C1.77866 4.36981 1.81267 4.34862 1.84404 4.30434C1.81935 4.26534 1.78925 4.23583 1.74295 4.23478C1.76317 4.1311 1.70771 4.08726 1.65326 4.06294C1.67048 4.13904 1.68179 4.22661 1.57826 4.22661C1.50275 4.22661 1.44332 4.24297 1.40866 4.30435L1.40051 3.89928C1.39615 3.77781 1.53041 3.78127 1.61575 3.81744C1.58354 3.67753 1.51749 3.60189 1.36463 3.62104C1.40174 3.60162 1.44128 3.55792 1.44128 3.47374C1.44125 3.35985 1.36742 3.23367 1.31895 3.19636L1.29472 4.38213L1.29473 4.38211Z" fill="#FFEC2D"/>
<path d="M1.29473 5.29416C1.29473 4.99011 1.51284 4.83384 1.68423 4.83384C1.91514 4.83384 2.03809 5.00662 2.03809 5.23281C2.03809 5.36103 2.01932 5.44147 1.97208 5.56419L1.44289 6.93898C1.4244 6.9868 1.41843 7.04125 1.41843 7.12105C1.41843 7.24431 1.51395 7.34505 1.61412 7.34814C1.70542 7.35099 1.8049 7.24161 1.8049 7.11696C1.8049 6.96556 1.74214 6.89806 1.67771 6.89806C1.59842 6.89806 1.56682 6.93886 1.56682 7.00854C1.56682 7.05709 1.58556 7.07809 1.61249 7.07809C1.68049 7.07809 1.6614 6.96352 1.6614 6.96352C1.69517 6.97278 1.72293 7.01598 1.70706 7.06992C1.73271 7.07701 1.75586 7.09422 1.7731 7.11901C1.75487 7.14114 1.73396 7.15821 1.70706 7.16401C1.72299 7.22983 1.70171 7.26198 1.65569 7.27551C1.66498 7.2502 1.66529 7.22691 1.66221 7.20493C1.58979 7.23072 1.47877 7.18969 1.47877 7.03309C1.47877 6.87762 1.56499 6.7467 1.72663 6.77941C1.68819 6.7564 1.66863 6.70932 1.66467 6.65667C1.69403 6.67098 1.72663 6.67302 1.72663 6.67302C1.70773 6.63132 1.68149 6.59536 1.68261 6.51346C1.71258 6.53052 1.74042 6.56209 1.77882 6.54211C1.71853 6.39364 1.7926 6.18943 1.98102 6.14112C1.91206 6.24229 1.8783 6.35152 1.8783 6.46027C1.8783 6.81271 1.95656 6.87195 1.95656 7.11697C1.95656 7.2195 1.91446 7.3302 1.831 7.40544V7.40134C1.88616 7.41984 1.92149 7.45383 1.94181 7.50001C1.81578 7.54474 1.63259 7.54392 1.53423 7.49548C1.42116 7.47909 1.34223 7.37053 1.31898 7.31542C1.29573 7.26031 1.25055 7.06113 1.31898 6.88174L1.8571 5.45377C1.88044 5.3913 1.89461 5.32503 1.89461 5.25328C1.89461 5.07283 1.76253 5.00983 1.6875 5.00983C1.59782 5.00983 1.5065 5.09533 1.5065 5.20213C1.5065 5.2698 1.53586 5.31055 1.57826 5.31055C1.67963 5.31055 1.67347 5.20263 1.65326 5.13462C1.71635 5.17012 1.75303 5.2335 1.74295 5.30032C1.77866 5.30646 1.81267 5.32765 1.84404 5.37193C1.81935 5.41093 1.78925 5.44044 1.74295 5.44149C1.76317 5.54517 1.70771 5.58901 1.65326 5.61333C1.67048 5.53723 1.68179 5.44966 1.57826 5.44966C1.50275 5.44966 1.44332 5.4333 1.40866 5.37192L1.40051 5.77699C1.39615 5.89846 1.53041 5.895 1.61575 5.85883C1.58354 5.99874 1.51749 6.07438 1.36463 6.05523C1.40174 6.07465 1.44128 6.11835 1.44128 6.20253C1.44125 6.31642 1.36742 6.4426 1.31895 6.47991L1.29472 5.29414L1.29473 5.29416Z" fill="#FFEC2D"/>
<path d="M1.31876 13.9062C1.31876 13.9062 1.20358 14.0273 1.16446 13.9666C1.10153 13.8689 1.3579 13.3821 1.3579 13.2106C1.3579 12.9293 1.20788 12.8527 1.02264 12.8126C0.898335 12.7856 0.695927 12.8238 0.695927 12.8238C0.73404 12.8879 0.758826 12.9068 0.823043 12.9119C0.751551 12.9584 0.678752 13.0592 0.678752 13.2162C0.678752 13.4583 0.75837 13.558 0.75837 13.8309C0.75837 13.9823 0.65918 14.175 0.65918 14.175C0.834513 14.1531 0.921407 13.9499 0.871968 13.7875C0.899869 13.7825 0.925207 13.7904 0.946972 13.8162C0.959796 13.7712 0.939541 13.7189 0.912418 13.6739C0.934267 13.6593 0.950316 13.6681 0.985121 13.6771C0.981813 13.6307 0.959616 13.5814 0.905299 13.5351C1.06292 13.5863 1.1599 13.4488 1.1599 13.3049C1.1599 13.1961 1.09903 13.1182 1.03952 13.1182C1.0203 13.1182 0.992049 13.1281 0.97612 13.143C0.964878 13.1131 0.970667 13.073 0.982233 13.0431C0.93863 13.0575 0.910944 13.09 0.930648 13.1574C0.897149 13.1613 0.870505 13.1754 0.852383 13.2024C0.870745 13.2319 0.898611 13.2488 0.930648 13.2474C0.906258 13.3104 0.93344 13.3457 0.973052 13.3743C0.973052 13.3743 0.947859 13.2474 1.01218 13.2474C1.0411 13.2474 1.06746 13.2592 1.06746 13.3126C1.06746 13.359 1.03502 13.4234 0.96 13.4193C0.884984 13.4152 0.824182 13.3546 0.824182 13.2047C0.824182 13.0665 0.913281 12.9977 1.03069 12.9933C1.13656 12.9892 1.21646 13.061 1.21646 13.1976C1.21646 13.3796 1.00662 13.7942 1.00662 13.9563C1.00662 14.078 1.09402 14.1459 1.17954 14.1459C1.29042 14.1459 1.38398 14.0085 1.38398 14.0085L1.31884 13.9062L1.31876 13.9062Z" fill="#FFEC2D"/>
<path d="M1.34296 10.6179C1.34296 10.3138 1.12486 10.1576 0.953465 10.1576C0.722555 10.1576 0.599609 10.3304 0.599609 10.5565C0.599609 10.6848 0.618378 10.7652 0.665613 10.8879L1.1948 12.2627C1.2133 12.3105 1.21926 12.365 1.21926 12.4448C1.21926 12.568 1.12374 12.6688 1.02358 12.6719C0.932275 12.6747 0.832796 12.5653 0.832796 12.4407C0.832796 12.2893 0.895552 12.2218 0.959985 12.2218C1.03928 12.2218 1.07087 12.2626 1.07087 12.3323C1.07087 12.3808 1.05214 12.4018 1.02521 12.4018C0.957204 12.4018 0.976297 12.2873 0.976297 12.2873C0.942522 12.2965 0.914764 12.3397 0.930633 12.3936C0.904986 12.4007 0.881837 12.4179 0.864593 12.4427C0.882823 12.4649 0.903738 12.4819 0.930633 12.4877C0.914704 12.5536 0.93599 12.5857 0.982002 12.5992C0.972713 12.5739 0.972402 12.5506 0.975482 12.5287C1.04791 12.5544 1.15893 12.5134 1.15893 12.3568C1.15893 12.2013 1.07271 12.0704 0.911061 12.1031C0.94951 12.0801 0.96907 12.033 0.973025 11.9804C0.943661 11.9947 0.911061 11.9967 0.911061 11.9967C0.929962 11.955 0.956209 11.9191 0.955083 11.8372C0.925119 11.8542 0.897277 11.8858 0.858876 11.8658C0.919163 11.7174 0.845093 11.5132 0.656672 11.4648C0.725635 11.566 0.759398 11.6753 0.759398 11.784C0.759398 12.1364 0.681134 12.1957 0.681134 12.4407C0.681134 12.5432 0.723238 12.6539 0.806692 12.7292V12.7251C0.751536 12.7436 0.716203 12.7776 0.695888 12.8237C0.821914 12.8685 1.00511 12.8676 1.10346 12.8192C1.21653 12.8028 1.29547 12.6943 1.31872 12.6392C1.34197 12.584 1.38714 12.3849 1.31872 12.2055L0.7806 10.7775C0.757253 10.715 0.743086 10.6488 0.743086 10.577C0.743086 10.3966 0.875165 10.3336 0.950193 10.3336C1.03988 10.3336 1.1312 10.4191 1.1312 10.5259C1.1312 10.5935 1.10183 10.6343 1.05944 10.6343C0.958067 10.6343 0.964228 10.5264 0.984435 10.4583C0.921344 10.4939 0.884669 10.5572 0.894749 10.6241C0.859032 10.6302 0.82503 10.6514 0.793652 10.6957C0.818342 10.7347 0.848449 10.7642 0.894749 10.7652C0.874529 10.8689 0.929986 10.9127 0.984435 10.9371C0.967212 10.861 0.95591 10.7734 1.05944 10.7734C1.13495 10.7734 1.19437 10.757 1.22903 10.6956L1.23718 11.1007C1.24154 11.2222 1.10728 11.2187 1.02195 11.1826C1.05415 11.3225 1.12021 11.3981 1.27307 11.379C1.23596 11.3984 1.19642 11.4421 1.19642 11.5263C1.19644 11.6402 1.27027 11.7663 1.31874 11.8036L1.34298 10.6179L1.34296 10.6179Z" fill="#FFEC2D"/>
<path d="M1.34296 9.70584C1.34296 10.0099 1.12486 10.1662 0.953465 10.1662C0.722555 10.1662 0.599609 9.99338 0.599609 9.76719C0.599609 9.63897 0.618378 9.55853 0.665613 9.43581L1.1948 8.06102C1.2133 8.0132 1.21926 7.95875 1.21926 7.87895C1.21926 7.75569 1.12374 7.65495 1.02358 7.65186C0.932275 7.64901 0.832796 7.75839 0.832796 7.88304C0.832796 8.03444 0.895552 8.10194 0.959985 8.10194C1.03928 8.10194 1.07087 8.06114 1.07087 7.99146C1.07087 7.94291 1.05214 7.92191 1.02521 7.92191C0.957204 7.92191 0.976297 8.03648 0.976297 8.03648C0.942522 8.02722 0.914764 7.98402 0.930633 7.93008C0.904986 7.92299 0.881837 7.90578 0.864593 7.88099C0.882823 7.85886 0.903738 7.84179 0.930633 7.83599C0.914704 7.77017 0.93599 7.73802 0.982002 7.72449C0.972713 7.7498 0.972402 7.77309 0.975482 7.79507C1.04791 7.76928 1.15893 7.81031 1.15893 7.96691C1.15893 8.12238 1.07271 8.2533 0.911061 8.22059C0.94951 8.2436 0.96907 8.29068 0.973025 8.34333C0.943661 8.32902 0.911061 8.32698 0.911061 8.32698C0.929962 8.36868 0.956209 8.40464 0.955083 8.48654C0.925119 8.46948 0.897277 8.43791 0.858876 8.45789C0.919163 8.60636 0.845093 8.81057 0.656672 8.85888C0.725635 8.75771 0.759398 8.64848 0.759398 8.53973C0.759398 8.18729 0.681134 8.12805 0.681134 7.88303C0.681134 7.7805 0.723238 7.6698 0.806692 7.59456V7.59866C0.751536 7.58016 0.716203 7.54617 0.695888 7.49999C0.821914 7.45526 1.00511 7.45608 1.10346 7.50452C1.21653 7.52091 1.29547 7.62947 1.31872 7.68458C1.34197 7.73969 1.38714 7.93887 1.31872 8.11826L0.7806 9.54623C0.757253 9.6087 0.743086 9.67497 0.743086 9.74672C0.743086 9.92717 0.875165 9.99017 0.950193 9.99017C1.03988 9.99017 1.1312 9.90467 1.1312 9.79787C1.1312 9.7302 1.10183 9.68945 1.05944 9.68945C0.958067 9.68945 0.964228 9.79737 0.984435 9.86538C0.921344 9.82988 0.884669 9.7665 0.894749 9.69968C0.859032 9.69354 0.82503 9.67235 0.793652 9.62807C0.818342 9.58907 0.848449 9.55956 0.894749 9.55851C0.874529 9.45483 0.929986 9.41099 0.984435 9.38667C0.967212 9.46277 0.95591 9.55034 1.05944 9.55034C1.13495 9.55034 1.19437 9.5667 1.22903 9.62808L1.23718 9.22301C1.24154 9.10154 1.10728 9.105 1.02195 9.14117C1.05415 9.00126 1.12021 8.92562 1.27307 8.94477C1.23596 8.92535 1.19642 8.88165 1.19642 8.79747C1.19644 8.68358 1.27027 8.5574 1.31874 8.52009L1.34298 9.70586L1.34296 9.70584Z" fill="#FFEC2D"/>
<path d="M1.31894 13.9062C1.31894 13.9062 1.43412 14.0273 1.47324 13.9666C1.53616 13.8689 1.27979 13.3821 1.27979 13.2106C1.27979 12.9293 1.42981 12.8527 1.61506 12.8126C1.73936 12.7856 1.94177 12.8238 1.94177 12.8238C1.90366 12.8879 1.87887 12.9068 1.81465 12.9119C1.88614 12.9584 1.95894 13.0592 1.95894 13.2162C1.95894 13.4583 1.87932 13.558 1.87932 13.8309C1.87932 13.9823 1.97852 14.175 1.97852 14.175C1.80318 14.1531 1.71629 13.9499 1.76573 13.7875C1.73783 13.7825 1.71249 13.7904 1.69072 13.8162C1.6779 13.7712 1.69815 13.7189 1.72528 13.6739C1.70343 13.6593 1.68738 13.6681 1.65257 13.6771C1.65588 13.6307 1.67808 13.5814 1.7324 13.5351C1.57478 13.5863 1.47779 13.4488 1.47779 13.3049C1.47779 13.1961 1.53867 13.1182 1.59817 13.1182C1.6174 13.1182 1.64565 13.1281 1.66158 13.143C1.67282 13.1131 1.66703 13.073 1.65546 13.0431C1.69907 13.0575 1.72675 13.09 1.70705 13.1574C1.74055 13.1613 1.76719 13.1754 1.78531 13.2024C1.76695 13.2319 1.73908 13.2488 1.70705 13.2474C1.73144 13.3104 1.70425 13.3457 1.66464 13.3743C1.66464 13.3743 1.68984 13.2474 1.62551 13.2474C1.59659 13.2474 1.57023 13.2592 1.57023 13.3126C1.57023 13.359 1.60268 13.4234 1.6777 13.4193C1.75271 13.4152 1.81351 13.3546 1.81351 13.2047C1.81351 13.0665 1.72441 12.9977 1.60701 12.9933C1.50114 12.9892 1.42123 13.061 1.42123 13.1976C1.42123 13.3796 1.63107 13.7942 1.63107 13.9563C1.63107 14.078 1.54368 14.1459 1.45816 14.1459C1.34727 14.1459 1.25371 14.0085 1.25371 14.0085L1.31885 13.9062L1.31894 13.9062Z" fill="#FFEC2D"/>
<path d="M1.29473 10.6179C1.29473 10.3138 1.51284 10.1576 1.68423 10.1576C1.91514 10.1576 2.03809 10.3304 2.03809 10.5565C2.03809 10.6848 2.01932 10.7652 1.97208 10.8879L1.44289 12.2627C1.4244 12.3105 1.41843 12.365 1.41843 12.4448C1.41843 12.568 1.51395 12.6688 1.61412 12.6719C1.70542 12.6747 1.8049 12.5653 1.8049 12.4407C1.8049 12.2893 1.74214 12.2218 1.67771 12.2218C1.59842 12.2218 1.56682 12.2626 1.56682 12.3323C1.56682 12.3808 1.58556 12.4018 1.61249 12.4018C1.68049 12.4018 1.6614 12.2873 1.6614 12.2873C1.69517 12.2965 1.72293 12.3397 1.70706 12.3936C1.73271 12.4007 1.75586 12.4179 1.7731 12.4427C1.75487 12.4649 1.73396 12.4819 1.70706 12.4877C1.72299 12.5536 1.70171 12.5857 1.65569 12.5992C1.66498 12.5739 1.66529 12.5506 1.66221 12.5287C1.58979 12.5544 1.47877 12.5134 1.47877 12.3568C1.47877 12.2013 1.56499 12.0704 1.72663 12.1031C1.68819 12.0801 1.66863 12.033 1.66467 11.9804C1.69403 11.9947 1.72663 11.9967 1.72663 11.9967C1.70773 11.955 1.68149 11.9191 1.68261 11.8372C1.71258 11.8542 1.74042 11.8858 1.77882 11.8658C1.71853 11.7174 1.7926 11.5132 1.98102 11.4648C1.91206 11.566 1.8783 11.6753 1.8783 11.784C1.8783 12.1364 1.95656 12.1957 1.95656 12.4407C1.95656 12.5432 1.91446 12.6539 1.831 12.7292V12.7251C1.88616 12.7436 1.92149 12.7776 1.94181 12.8237C1.81578 12.8685 1.63259 12.8676 1.53423 12.8192C1.42116 12.8028 1.34223 12.6943 1.31898 12.6392C1.29573 12.584 1.25055 12.3849 1.31898 12.2055L1.8571 10.7775C1.88044 10.715 1.89461 10.6488 1.89461 10.577C1.89461 10.3966 1.76253 10.3336 1.6875 10.3336C1.59782 10.3336 1.5065 10.4191 1.5065 10.5259C1.5065 10.5935 1.53586 10.6343 1.57826 10.6343C1.67963 10.6343 1.67347 10.5264 1.65326 10.4583C1.71635 10.4939 1.75303 10.5572 1.74295 10.6241C1.77866 10.6302 1.81267 10.6514 1.84404 10.6957C1.81935 10.7347 1.78925 10.7642 1.74295 10.7652C1.76317 10.8689 1.70771 10.9127 1.65326 10.9371C1.67048 10.861 1.68179 10.7734 1.57826 10.7734C1.50275 10.7734 1.44332 10.757 1.40866 10.6956L1.40051 11.1007C1.39615 11.2222 1.53041 11.2187 1.61575 11.1826C1.58354 11.3225 1.51749 11.3981 1.36463 11.379C1.40174 11.3984 1.44128 11.4421 1.44128 11.5263C1.44125 11.6402 1.36742 11.7663 1.31895 11.8036L1.29472 10.6179L1.29473 10.6179Z" fill="#FFEC2D"/>
<path d="M1.29473 9.70584C1.29473 10.0099 1.51284 10.1662 1.68423 10.1662C1.91514 10.1662 2.03809 9.99338 2.03809 9.76719C2.03809 9.63897 2.01932 9.55853 1.97208 9.43581L1.44289 8.06102C1.4244 8.0132 1.41843 7.95875 1.41843 7.87895C1.41843 7.75569 1.51395 7.65495 1.61412 7.65186C1.70542 7.64901 1.8049 7.75839 1.8049 7.88304C1.8049 8.03444 1.74214 8.10194 1.67771 8.10194C1.59842 8.10194 1.56682 8.06114 1.56682 7.99146C1.56682 7.94291 1.58556 7.92191 1.61249 7.92191C1.68049 7.92191 1.6614 8.03648 1.6614 8.03648C1.69517 8.02722 1.72293 7.98402 1.70706 7.93008C1.73271 7.92299 1.75586 7.90578 1.7731 7.88099C1.75487 7.85886 1.73396 7.84179 1.70706 7.83599C1.72299 7.77017 1.70171 7.73802 1.65569 7.72449C1.66498 7.7498 1.66529 7.77309 1.66221 7.79507C1.58979 7.76928 1.47877 7.81031 1.47877 7.96691C1.47877 8.12238 1.56499 8.2533 1.72663 8.22059C1.68819 8.2436 1.66863 8.29068 1.66467 8.34333C1.69403 8.32902 1.72663 8.32698 1.72663 8.32698C1.70773 8.36868 1.68149 8.40464 1.68261 8.48654C1.71258 8.46948 1.74042 8.43791 1.77882 8.45789C1.71853 8.60636 1.7926 8.81057 1.98102 8.85888C1.91206 8.75771 1.8783 8.64848 1.8783 8.53973C1.8783 8.18729 1.95656 8.12805 1.95656 7.88303C1.95656 7.7805 1.91446 7.6698 1.831 7.59456V7.59866C1.88616 7.58016 1.92149 7.54617 1.94181 7.49999C1.81578 7.45526 1.63259 7.45608 1.53423 7.50452C1.42116 7.52091 1.34223 7.62947 1.31898 7.68458C1.29573 7.73969 1.25055 7.93887 1.31898 8.11826L1.8571 9.54623C1.88044 9.6087 1.89461 9.67497 1.89461 9.74672C1.89461 9.92717 1.76253 9.99017 1.6875 9.99017C1.59782 9.99017 1.5065 9.90467 1.5065 9.79787C1.5065 9.7302 1.53586 9.68945 1.57826 9.68945C1.67963 9.68945 1.67347 9.79737 1.65326 9.86538C1.71635 9.82988 1.75303 9.7665 1.74295 9.69968C1.77866 9.69354 1.81267 9.67235 1.84404 9.62807C1.81935 9.58907 1.78925 9.55956 1.74295 9.55851C1.76317 9.45483 1.70771 9.41099 1.65326 9.38667C1.67048 9.46277 1.68179 9.55034 1.57826 9.55034C1.50275 9.55034 1.44332 9.5667 1.40866 9.62808L1.40051 9.22301C1.39615 9.10154 1.53041 9.105 1.61575 9.14117C1.58354 9.00126 1.51749 8.92562 1.36463 8.94477C1.40174 8.92535 1.44128 8.88165 1.44128 8.79747C1.44125 8.68358 1.36742 8.5574 1.31895 8.52009L1.29472 9.70586L1.29473 9.70584Z" fill="#FFEC2D"/>
</g>
<defs>
<clipPath id="clip0_202_3618">
<rect width="20" height="15" fill="white"/>
</clipPath>
</defs>
</svg>
