<svg width="20" height="15" viewBox="0 0 20 15" fill="none" xmlns="http://www.w3.org/2000/svg">
<g clip-path="url(#clip0_202_3625)">
<path d="M0 0H20V15H0V0Z" fill="white"/>
<path d="M0 0H20V4.5H0V0Z" fill="black"/>
<path d="M0 10.5H20V15H0V10.5Z" fill="#006600"/>
<path d="M7.31836 11.9531L7.48711 12.0469L11.8652 4.45312C12.1184 4.39687 12.259 4.15313 12.3996 3.90938C12.4934 3.74063 12.8684 3.09375 13.0277 2.25C12.583 2.64524 12.2061 3.1108 11.9121 3.62813C11.7715 3.87188 11.6309 4.11562 11.6965 4.36875L7.31836 11.9531Z" fill="black" stroke="black" stroke-width="0.2" stroke-miterlimit="10"/>
<path d="M7.31836 11.9531L7.48711 12.0469L11.8652 4.45312C12.1184 4.39687 12.259 4.15313 12.3996 3.90938C12.4934 3.74063 12.8684 3.09375 13.0277 2.25C12.583 2.64524 12.2061 3.1108 11.9121 3.62813C11.7715 3.87188 11.6309 4.11562 11.6965 4.36875L7.31836 11.9531Z" fill="white"/>
<path d="M12.6816 11.9531L12.5129 12.0469L8.13477 4.45312C7.88164 4.39687 7.74101 4.15313 7.60039 3.90938C7.50664 3.74063 7.13164 3.09375 6.97227 2.25C7.41704 2.64524 7.79392 3.1108 8.08789 3.62813C8.22852 3.87188 8.36914 4.11562 8.30352 4.36875L12.6816 11.9531Z" fill="black" stroke="black" stroke-width="0.2" stroke-miterlimit="10"/>
<path d="M12.6816 11.9531L12.5129 12.0469L8.13477 4.45312C7.88164 4.39687 7.74101 4.15313 7.60039 3.90938C7.50664 3.74063 7.13164 3.09375 6.97227 2.25C7.41704 2.64524 7.79392 3.1108 8.08789 3.62813C8.22852 3.87188 8.36914 4.11562 8.30352 4.36875L12.6816 11.9531Z" fill="white"/>
<path d="M20.016 5.25H11.7816C11.5004 4.5 10.5629 3 10.0004 3C9.43789 3 8.50039 4.5 8.21914 5.25H-0.00585938V9.75H8.21914C8.50039 10.5 9.43789 12 10.0004 12C10.5629 12 11.5004 10.5 11.7816 9.75H20.016V5.25Z" fill="#BB0000"/>
<path d="M11.7812 9.75C12.0625 9 12.25 8.25 12.25 7.5C12.25 6.75 12.0625 6 11.7812 5.25C11.5 6 11.3125 6.75 11.3125 7.5C11.3125 8.25 11.5 9 11.7812 9.75Z" fill="black"/>
<path d="M8.21875 9.75C7.9375 9 7.75 8.25 7.75 7.5C7.75 6.75 7.9375 6 8.21875 5.25C8.5 6 8.6875 6.75 8.6875 7.5C8.6875 8.25 8.5 9 8.21875 9.75Z" fill="black"/>
<path d="M10 8.0625C10.2071 8.0625 10.375 7.81066 10.375 7.5C10.375 7.18934 10.2071 6.9375 10 6.9375C9.79289 6.9375 9.625 7.18934 9.625 7.5C9.625 7.81066 9.79289 8.0625 10 8.0625Z" fill="white"/>
<path d="M10.0938 8.0437C10.0938 8.0437 10.4688 8.7937 10.4688 10.0125C10.4688 11.2312 10.0938 11.9812 10.0938 11.9812V8.0437Z" fill="white"/>
<path d="M9.90625 6.9563C9.90625 6.9563 9.53125 6.2063 9.53125 4.98755C9.53125 3.7688 9.90625 3.0188 9.90625 3.0188V6.9563Z" fill="white"/>
<path d="M9.90625 8.0437C9.90625 8.0437 9.53125 8.7937 9.53125 10.0125C9.53125 11.2312 9.90625 11.9812 9.90625 11.9812V8.0437Z" fill="white"/>
<path d="M10.0938 6.9563C10.0938 6.9563 10.4688 6.2063 10.4688 4.98755C10.4688 3.7688 10.0938 3.0188 10.0938 3.0188V6.9563Z" fill="white"/>
</g>
<defs>
<clipPath id="clip0_202_3625">
<rect width="20" height="15" fill="white"/>
</clipPath>
</defs>
</svg>
