<svg width="20" height="15" viewBox="0 0 20 15" fill="none" xmlns="http://www.w3.org/2000/svg">
<g clip-path="url(#clip0_217_9009)">
<path d="M0 0H20V15H0V0Z" fill="#244AA5"/>
<path d="M7.90586 7.025C7.90586 7.025 7.94336 7 7.95586 6.99687C7.97148 6.99687 8.01836 6.97812 8.01836 6.97812C8.01836 6.97812 8.04961 6.9625 8.06523 6.9625C8.08398 6.9625 8.11523 6.98125 8.12773 6.99687C8.13711 7.0125 8.19023 7.04062 8.19023 7.04062C8.19023 7.04062 8.22773 7.05312 8.23711 7.04062C8.24336 7.02812 8.25898 7.01875 8.27773 7.01875C8.29336 7.01875 8.29648 7.00312 8.29648 6.99062C8.29648 6.97812 8.30273 6.9625 8.31523 6.94687C8.33086 6.93125 8.35586 6.92187 8.35586 6.92187C8.35586 6.92187 8.39336 6.90625 8.39648 6.88437C8.40273 6.8625 8.43711 6.84687 8.45898 6.84375C8.48086 6.84375 8.45898 6.83125 8.51523 6.8375C8.56836 6.84375 8.57773 6.825 8.57773 6.80937C8.58086 6.79375 8.57773 6.77812 8.61211 6.77812C8.64648 6.78437 8.66211 6.78437 8.66211 6.76562C8.66211 6.74687 8.69336 6.73438 8.64023 6.72187C8.58398 6.70625 8.59023 6.71875 8.58398 6.69062C8.58398 6.66875 8.58398 6.67187 8.54961 6.66875C8.51211 6.66562 8.53086 6.64687 8.52773 6.62812C8.52461 6.60938 8.51523 6.59687 8.50898 6.5875C8.49961 6.575 8.48086 6.575 8.48086 6.55625C8.48086 6.5375 8.47773 6.525 8.45898 6.525C8.43711 6.525 8.42773 6.525 8.42773 6.50937C8.42773 6.49062 8.43398 6.47812 8.45273 6.47812C8.47461 6.47812 8.48398 6.45937 8.48398 6.44062C8.47773 6.42188 8.47773 6.38125 8.47773 6.38125L8.50586 6.35C8.50586 6.35 8.58711 6.28437 8.59336 6.27187C8.59961 6.25937 8.62773 6.25 8.64023 6.275C8.65273 6.3 8.65898 6.30625 8.67148 6.31875C8.68086 6.33125 8.71211 6.32187 8.71836 6.30937C8.72461 6.29687 8.72773 6.25 8.74648 6.225C8.76523 6.20312 8.77773 6.19062 8.78086 6.16875C8.78398 6.14687 8.79648 6.13125 8.81836 6.13125C8.83711 6.13125 8.84961 6.10312 8.84961 6.0875C8.84961 6.07187 8.86211 6.05625 8.88711 6.05C8.91211 6.04688 8.92773 6.03125 8.93711 6.05625C8.94648 6.08125 8.95586 6.07812 8.97148 6.0875C8.99023 6.09687 9.01523 6.10625 9.02773 6.09687C9.04336 6.08437 9.04961 6.06562 9.06836 6.075C9.08711 6.0875 9.09961 6.075 9.10586 6.05312L9.11523 5.99375C9.11523 5.99375 9.11836 5.97812 9.14961 5.97812C9.18086 5.97812 9.15898 5.95937 9.17461 5.94687C9.19336 5.93437 9.19336 5.92187 9.21523 5.92812C9.23711 5.9375 9.27148 5.91875 9.25586 5.89687C9.23711 5.87812 9.19961 5.84687 9.22148 5.82187C9.24336 5.79687 9.25273 5.75937 9.23086 5.75312C9.20898 5.75 9.17461 5.75625 9.17148 5.73437C9.16836 5.70937 9.15898 5.69062 9.18711 5.6875C9.21211 5.68437 9.25586 5.68437 9.27148 5.67187C9.28398 5.65937 9.32773 5.65 9.32773 5.61562C9.32773 5.57812 9.34023 5.575 9.34648 5.55312C9.34961 5.53437 9.34961 5.49063 9.33086 5.47188C9.31211 5.45 9.28711 5.42188 9.28398 5.40938C9.27773 5.39688 9.26211 5.37812 9.23398 5.36875C9.20898 5.3625 9.18398 5.35625 9.18398 5.3375C9.18398 5.31562 9.20273 5.34062 9.20273 5.2875C9.20273 5.23437 9.16836 5.225 9.16836 5.225L9.11523 5.19375C9.11523 5.19375 9.02148 5.16875 8.99648 5.16875C8.97148 5.16875 8.94023 5.14375 8.96836 5.125C8.99961 5.10937 9.00586 5.07812 8.99648 5.05625C8.98398 5.03437 8.97773 5.01562 8.93711 5.00625C8.89648 4.99687 8.88711 4.9875 8.90586 4.9625C8.92148 4.94062 8.92773 4.92188 8.94961 4.94063C8.96836 4.95625 9.00586 4.9625 9.03398 4.95C9.06523 4.9375 9.07461 4.925 9.09023 4.94063C9.10273 4.95312 9.12148 4.96562 9.14336 4.94687C9.16523 4.925 9.20586 4.92187 9.22461 4.93125C9.24023 4.94375 9.28711 4.94062 9.29961 4.93125C9.31211 4.925 9.34336 4.9 9.34336 4.89062C9.34336 4.88125 9.36211 4.85312 9.37773 4.84375C9.39648 4.83125 9.41836 4.8 9.43711 4.8C9.45586 4.8 9.46211 4.77813 9.46211 4.76875C9.46211 4.75312 9.47773 4.725 9.48086 4.71562C9.48086 4.70625 9.51836 4.69062 9.54336 4.71562C9.57148 4.73125 9.60586 4.74062 9.60586 4.74062C9.60586 4.74062 9.63711 4.74687 9.65898 4.74062C9.66885 4.73454 9.68021 4.73132 9.6918 4.73132C9.70339 4.73132 9.71475 4.73454 9.72461 4.74062C9.75273 4.75937 9.78711 4.75937 9.78711 4.75937L9.79648 4.71875C9.79648 4.70625 9.80273 4.68125 9.78711 4.67187C9.77461 4.6625 9.75586 4.65 9.78398 4.62813C9.81523 4.60938 9.81523 4.6125 9.84336 4.6125L9.91211 4.61562C9.93398 4.61562 9.96836 4.6375 9.96836 4.65625C9.96836 4.675 9.98398 4.6875 9.99961 4.7C10.0184 4.70937 10.0402 4.71875 10.0309 4.7375C10.0277 4.75312 10.0277 4.76875 10.0496 4.7625C10.0715 4.75937 10.0777 4.77187 10.0777 4.79062C10.0777 4.80625 10.084 4.81562 10.109 4.82187C10.1277 4.82812 10.1402 4.84375 10.1402 4.85937C10.1402 4.875 10.134 4.8875 10.1402 4.90312L10.1715 4.94687C10.1715 4.94687 10.2121 4.99375 10.159 4.96875C10.109 4.94687 10.0965 4.9375 10.0809 4.9375L10.0496 4.95312L10.009 4.95937C9.99023 4.95937 9.97148 4.99688 10.0027 5.00313C10.0309 5.00938 10.0402 5.01562 10.0402 5.04062C10.0402 5.06562 10.0309 5.05625 10.0152 5.07187C10.0027 5.09062 9.99023 5.07812 9.96523 5.07812C9.94023 5.07812 9.93398 5.1 9.93398 5.11875C9.93398 5.1375 9.94336 5.1375 9.95273 5.15C9.96523 5.16875 9.98398 5.17187 10.0027 5.15625C10.0184 5.14062 10.034 5.12813 10.0434 5.15938C10.0559 5.19063 10.0715 5.19063 10.0902 5.19063C10.1121 5.19063 10.1215 5.19062 10.1402 5.17812C10.1559 5.16875 10.1777 5.17813 10.1809 5.20625C10.1871 5.23125 10.2027 5.2375 10.2215 5.24687C10.2402 5.25625 10.2527 5.2625 10.2527 5.27812C10.259 5.29687 10.2684 5.30312 10.2871 5.29375C10.3059 5.28125 10.334 5.275 10.3465 5.29062L10.3746 5.32812V5.3625L10.4465 5.3875L10.4527 5.41875C10.4527 5.42812 10.4652 5.4375 10.484 5.43125H10.534C10.534 5.43125 10.559 5.42187 10.559 5.4C10.559 5.38125 10.5684 5.375 10.5902 5.375C10.6059 5.375 10.6465 5.39062 10.6559 5.36875C10.6684 5.35 10.6996 5.34375 10.7246 5.35312L10.8184 5.39062C10.8184 5.39062 10.809 5.39062 10.8309 5.425C10.8527 5.45938 10.8934 5.45937 10.8934 5.45937C10.8934 5.45937 10.8934 5.49063 10.9027 5.50313C10.909 5.51562 10.9434 5.52187 10.959 5.50937C10.9777 5.49687 11.0027 5.47812 11.0246 5.47812C11.0465 5.47812 11.0621 5.47812 11.0621 5.46562C11.0621 5.45312 11.0402 5.44375 11.0402 5.42187C11.0402 5.4 11.0621 5.40312 11.0652 5.38125C11.0684 5.3625 11.0902 5.38125 11.1059 5.39375C11.1215 5.40625 11.1371 5.41875 11.1371 5.43125C11.1371 5.44687 11.1684 5.49375 11.184 5.5C11.2027 5.50625 11.2496 5.50937 11.2652 5.49375C11.2777 5.475 11.3152 5.46875 11.3121 5.50937C11.309 5.55 11.2996 5.55313 11.3246 5.56563C11.3496 5.57812 11.3559 5.62812 11.334 5.64062C11.3121 5.65312 11.3027 5.65625 11.3027 5.67812C11.3027 5.7 11.2965 5.72812 11.3152 5.74062C11.334 5.75625 11.3465 5.76562 11.3465 5.77812C11.3465 5.79375 11.3652 5.85312 11.3652 5.85312C11.3652 5.85312 11.3777 5.9125 11.3715 5.925C11.3715 5.94062 11.3621 5.9625 11.3934 5.95937C11.4246 5.95625 11.434 5.95625 11.434 5.98125C11.434 6.00625 11.4465 6.01875 11.4277 6.02812C11.409 6.04062 11.3965 6.07187 11.4152 6.07812C11.434 6.08437 11.4465 6.09687 11.4527 6.10937C11.4559 6.12187 11.484 6.14687 11.5027 6.13125C11.5215 6.11875 11.5246 6.1125 11.5402 6.10937C11.5527 6.10625 11.5652 6.09687 11.5496 6.07812C11.5371 6.0625 11.5309 6.04688 11.5465 6.03437C11.5621 6.025 11.5684 5.99375 11.5684 5.99375C11.5684 5.99375 11.5902 5.9625 11.6152 5.99375C11.6402 6.025 11.6465 6.0125 11.6621 6.0125C11.6777 6.0125 11.6871 6.02812 11.6871 6.04375C11.6871 6.0625 11.7246 6.05937 11.7246 6.08437L11.7309 6.17812C11.7309 6.17812 11.7309 6.2125 11.7527 6.225C11.7746 6.24062 11.7715 6.24375 11.759 6.25625C11.7496 6.275 11.7527 6.30312 11.7527 6.31875C11.7527 6.33437 11.759 6.33437 11.7434 6.35C11.7246 6.3625 11.7152 6.38125 11.7277 6.4C11.7371 6.41875 11.734 6.43125 11.7621 6.45625C11.7934 6.47812 11.7902 6.4875 11.7902 6.50625C11.7902 6.52187 11.8184 6.54687 11.8184 6.5625C11.8184 6.57812 11.8402 6.6 11.859 6.60312C11.8777 6.60625 11.8965 6.63437 11.8965 6.65312L11.8996 6.7125C11.8996 6.7125 11.8996 6.72187 11.9184 6.72187C11.9402 6.72187 11.9559 6.74688 11.9621 6.72187C11.9684 6.69062 11.9934 6.69062 12.0059 6.68125C12.0184 6.67187 12.0496 6.6625 12.0652 6.67187C12.0809 6.68125 12.0965 6.68125 12.1121 6.68125L12.1934 6.68437C12.1934 6.68437 12.2121 6.68437 12.2246 6.70937C12.234 6.73437 12.2652 6.76562 12.2496 6.77812C12.2309 6.79375 12.2309 6.81875 12.2496 6.81875C12.2684 6.81875 12.2965 6.81875 12.2965 6.83437C12.2965 6.85312 12.2965 6.86562 12.3184 6.85625C12.334 6.84687 12.3465 6.84375 12.3527 6.85625C12.3621 6.86875 12.3746 6.86875 12.3934 6.87812C12.4121 6.89062 12.4184 6.88125 12.4309 6.86875C12.4402 6.85625 12.484 6.84375 12.484 6.84375C12.484 6.84375 12.5402 6.82812 12.5621 6.83437L12.6152 6.85625C12.6152 6.85625 12.6277 6.8875 12.6215 6.90937C12.6152 6.92812 12.6059 6.925 12.6152 6.95625C12.6215 6.9875 12.6059 6.9875 12.5934 6.9875C12.5777 6.98125 12.5621 6.98125 12.5621 7.00937C12.5621 7.03437 12.5496 7.04062 12.5496 7.06562C12.5496 7.09063 12.5496 7.08437 12.534 7.09687C12.5215 7.10625 12.5152 7.12188 12.5371 7.12812C12.559 7.12812 12.5527 7.15312 12.5527 7.16562L12.5496 7.20937C12.5496 7.20937 12.5496 7.225 12.5277 7.225C12.5059 7.225 12.4809 7.225 12.4777 7.24062C12.4715 7.25625 12.4465 7.28125 12.4684 7.3C12.4934 7.31562 12.4871 7.325 12.4715 7.33125C12.459 7.34063 12.4465 7.37187 12.4777 7.38125C12.5059 7.39375 12.5027 7.40312 12.484 7.41562C12.4652 7.42812 12.4309 7.44062 12.4309 7.45937C12.4309 7.47812 12.4215 7.47812 12.3996 7.48125C12.3777 7.48437 12.3684 7.5125 12.3934 7.54375C12.4184 7.57812 12.4246 7.575 12.4434 7.575C12.4621 7.575 12.4621 7.54375 12.4621 7.54375L12.5402 7.55C12.559 7.55 12.584 7.55 12.5996 7.54062C12.6152 7.52812 12.6527 7.5125 12.6527 7.54062C12.6527 7.57187 12.6621 7.57187 12.6777 7.58125C12.6965 7.59687 12.6996 7.58437 12.7152 7.60625C12.7309 7.625 12.734 7.60625 12.7465 7.58437C12.7559 7.5625 12.7777 7.54062 12.7965 7.56562C12.8121 7.59375 12.8121 7.58437 12.834 7.58437C12.8559 7.58437 12.8652 7.59687 12.8652 7.6125C12.8652 7.62812 12.884 7.62812 12.9121 7.625C12.9371 7.625 12.9402 7.64062 12.9496 7.65625C12.959 7.67187 12.9652 7.66875 12.9809 7.66875C12.9934 7.66875 13.009 7.66875 13.0184 7.65625C13.0309 7.64375 13.0434 7.625 13.059 7.64687C13.0746 7.66562 13.1027 7.6625 13.109 7.64062C13.1184 7.61562 13.1496 7.59687 13.1684 7.62187C13.1871 7.65 13.1996 7.65 13.2184 7.65312C13.2371 7.65312 13.2621 7.65312 13.2715 7.67187C13.284 7.69062 13.3184 7.71562 13.2934 7.73437C13.2684 7.75625 13.2402 7.78125 13.2621 7.79062C13.2817 7.79539 13.2992 7.80635 13.3121 7.82187C13.3277 7.83437 13.3746 7.84375 13.3965 7.84687C13.4184 7.84687 13.434 7.85312 13.459 7.83125C13.4871 7.8125 13.5121 7.8125 13.509 7.84062C13.5059 7.86562 13.5184 7.89687 13.5184 7.89687C13.5184 7.89687 13.5371 7.94062 13.5371 7.95625C13.5371 7.97187 13.534 7.975 13.5684 7.99687C13.5996 8.01562 13.5934 8.02812 13.6215 8.00937C13.6465 7.99062 13.6527 7.97812 13.6527 7.9625V7.90937C13.6527 7.90937 13.6902 7.90313 13.7027 7.89375C13.7184 7.88125 13.7746 7.85312 13.7902 7.86562C13.8059 7.87812 13.8215 7.875 13.8371 7.86875C13.8527 7.8625 13.8809 7.8625 13.8965 7.8625C13.909 7.8625 13.934 7.86562 13.9652 7.84375C13.9934 7.81875 13.9934 7.825 14.0121 7.84375C14.0277 7.85937 14.0277 7.87812 14.0184 7.89375C14.0059 7.90625 14.0184 7.93437 14.0434 7.93437C14.0684 7.93437 14.0746 7.95 14.0746 7.96562L14.084 8.01875C14.084 8.03125 14.084 8.04062 14.1277 8.05C14.1652 8.05938 14.159 8.08125 14.1652 8.1C14.1746 8.11563 14.1746 8.13125 14.1527 8.13125C14.1309 8.13125 14.1215 8.14062 14.1215 8.15625C14.1152 8.17187 14.084 8.17813 14.084 8.17813L14.0527 8.17187C14.0527 8.17187 14.0277 8.17187 14.0184 8.18437C14.0059 8.2 13.9871 8.225 13.9996 8.24687C14.0152 8.27187 14.0152 8.28437 13.9996 8.29687C13.9871 8.30625 13.9777 8.35625 13.9652 8.34687C13.9496 8.33437 13.934 8.34687 13.9184 8.35625C13.9027 8.3625 13.9059 8.40937 13.934 8.425C13.9652 8.44375 13.9715 8.46562 13.9715 8.46562L14.0027 8.51562C14.0027 8.51562 13.9934 8.525 13.9871 8.54375C13.9777 8.55937 13.9559 8.59375 13.9777 8.6C13.9996 8.60625 13.9902 8.64375 13.9684 8.64375C13.9465 8.64375 13.9215 8.63125 13.9184 8.65938C13.9152 8.6875 13.9027 8.67813 13.8809 8.675C13.859 8.675 13.8059 8.65937 13.7902 8.68437C13.7746 8.7125 13.7715 8.72188 13.7465 8.71875C13.7215 8.71875 13.7309 8.75937 13.7402 8.775L13.7715 8.81563C13.7715 8.81563 13.7934 8.83125 13.7934 8.86563C13.7934 8.89688 13.7777 8.89687 13.7621 8.87187C13.7496 8.85 13.7215 8.85313 13.7184 8.87813C13.7152 8.90625 13.709 8.94687 13.6871 8.94687C13.659 8.94687 13.6496 8.95312 13.6371 8.96562C13.6277 8.97812 13.609 9.00313 13.609 9.01562C13.609 9.02812 13.6059 9.04375 13.5871 9.04688C13.5684 9.05 13.5652 9.08438 13.5652 9.08438C13.5652 9.08438 13.5215 9.09375 13.5184 9.10938C13.5152 9.125 13.5215 9.15312 13.4871 9.15625C13.4731 9.1579 13.4596 9.16269 13.4477 9.17026C13.4358 9.17784 13.4258 9.188 13.4184 9.2C13.4059 9.21562 13.4027 9.23125 13.4184 9.24687C13.434 9.2625 13.4434 9.31562 13.4621 9.325C13.4777 9.33437 13.4934 9.34063 13.4902 9.36563C13.4871 9.39375 13.4652 9.4125 13.4934 9.4125C13.5246 9.4125 13.5402 9.41875 13.5309 9.44375C13.5184 9.46563 13.5184 9.46875 13.4996 9.47812C13.4746 9.49062 13.4652 9.49062 13.4652 9.51562C13.4652 9.54063 13.4715 9.54375 13.4527 9.55313C13.434 9.5625 13.434 9.575 13.434 9.59688C13.434 9.61875 13.4277 9.60938 13.4059 9.63125C13.384 9.65625 13.3559 9.65625 13.3371 9.65C13.3184 9.64375 13.3152 9.64375 13.3121 9.62187C13.309 9.60312 13.2777 9.60312 13.259 9.60625C13.2402 9.60625 13.2152 9.62813 13.2152 9.62813C13.2152 9.62813 13.184 9.65 13.1965 9.66562C13.2121 9.68125 13.2027 9.70938 13.1777 9.70625C13.1527 9.70312 13.0965 9.73125 13.0777 9.70312C13.059 9.67188 13.009 9.65313 12.9996 9.69375C12.9934 9.73125 13.0215 9.72813 13.0184 9.76875C13.0184 9.80938 13.009 9.80937 12.9934 9.82187C12.9809 9.83437 12.9809 9.84688 12.9746 9.8625C12.9746 9.87813 12.9684 9.91563 12.9934 9.92813C13.0184 9.94375 13.0309 9.97813 13.0309 10C13.0309 10.0188 13.0309 10.0406 13.0559 10.0406C13.0809 10.0406 13.1027 10.0344 13.1059 10.0125C13.109 9.99062 13.159 9.975 13.1652 10.0219C13.1652 10.0688 13.1652 10.0938 13.1871 10.1125C13.2027 10.1313 13.2184 10.1594 13.234 10.1687C13.2465 10.1781 13.2715 10.2625 13.2715 10.2625C13.2371 10.2719 13.2277 10.3187 13.2059 10.325C13.1934 10.3312 13.1777 10.325 13.1652 10.3344C13.159 10.3438 13.159 10.3562 13.1465 10.3594C13.1184 10.3719 13.1246 10.3313 13.0902 10.3469C13.0621 10.3594 13.059 10.3938 13.0184 10.3781C12.9965 10.3719 12.984 10.2844 12.9777 10.2656L12.9434 10.2094C12.9184 10.1719 12.8715 10.2094 12.8559 10.1969C12.8309 10.1812 12.8402 10.1531 12.8027 10.15C12.7277 10.1437 12.7809 10.1969 12.7496 10.2063C12.6871 10.2281 12.6871 10.15 12.6434 10.1875C12.6277 10.2 12.6746 10.2094 12.6621 10.2312C12.6527 10.25 12.609 10.2813 12.609 10.3031C12.6152 10.3344 12.6465 10.3438 12.6559 10.3656C12.6871 10.4375 12.6402 10.4844 12.5715 10.4281C12.534 10.4 12.5246 10.3438 12.4684 10.35C12.4527 10.35 12.4496 10.3625 12.4371 10.3656C12.4215 10.3656 12.4121 10.3531 12.3965 10.3562C12.3746 10.3656 12.3965 10.3813 12.3902 10.3938C12.3902 10.3938 12.359 10.4156 12.359 10.425C12.3402 10.4438 12.3465 10.4625 12.3215 10.4812C12.3027 10.4969 12.2871 10.4875 12.2652 10.5125C12.2434 10.5344 12.2402 10.5719 12.2121 10.5938C12.1965 10.6062 12.1871 10.5594 12.1684 10.5906L12.1621 10.6031C12.1559 10.6125 12.1559 10.6156 12.1621 10.625C12.1996 10.7 12.1184 10.725 12.0934 10.7781C12.084 10.8 12.1121 10.8187 12.1027 10.8375L12.0559 10.8906C12.0559 10.8969 12.0496 10.9156 12.0434 10.9219C12.0371 10.9281 12.0121 10.9219 12.0121 10.9344C12.0121 10.9469 12.0371 10.9562 12.0434 10.9625C12.0496 10.9719 12.0371 10.9844 12.0434 10.9875C12.0809 11.0281 12.059 11.0156 12.0777 11.05C12.0809 11.0563 12.0934 11.0469 12.0996 11.0594C12.1027 11.0719 12.0871 11.0719 12.0934 11.0844C12.0934 11.0906 12.1246 11.1281 12.1246 11.1281C12.1246 11.1406 12.0684 11.1656 12.0559 11.1656C12.0215 11.1656 12.0871 11.0969 12.0309 11.0969C12.0059 11.0969 12.0027 11.15 11.9996 11.1594H11.9684C11.9309 11.1594 11.9059 11.2031 11.8934 11.2063C11.884 11.2094 11.8621 11.2 11.8465 11.2063C11.834 11.2063 11.8152 11.2219 11.8027 11.2219C11.7934 11.2219 11.7902 11.2156 11.7809 11.2094C11.7652 11.2 11.734 11.1969 11.7184 11.1906C11.7059 11.1906 11.6871 11.2031 11.6809 11.2C11.6715 11.1937 11.6902 11.1687 11.6621 11.1562L11.6402 11.1031C11.6496 11.0719 11.659 11.0406 11.6559 11.0063C11.6496 10.9719 11.5934 10.9438 11.5809 10.9125C11.5715 10.8938 11.5621 10.8375 11.5402 10.825C11.5164 10.8067 11.4972 10.7832 11.484 10.7563C11.484 10.75 11.4934 10.7375 11.484 10.725C11.4746 10.7156 11.459 10.7094 11.4527 10.6938C11.4496 10.6813 11.4527 10.6375 11.4371 10.6281C11.4215 10.6188 11.3121 10.6031 11.2809 10.6C11.2684 10.6 11.259 10.6 11.2496 10.5906L11.2309 10.5688L11.1996 10.575C11.1902 10.575 11.1746 10.5687 11.1684 10.575C11.134 10.5969 11.1246 10.6281 11.0902 10.6562C11.0559 10.6813 11.0184 10.6813 10.984 10.7094C10.9621 10.7281 10.9465 10.775 10.9246 10.7969C10.9152 10.8063 10.9027 10.7969 10.8996 10.8C10.8809 10.8219 10.8559 10.8375 10.8371 10.8562C10.834 10.8625 10.8371 10.8687 10.8309 10.8719L10.7902 10.8844H10.7527C10.7371 10.8906 10.7371 10.9094 10.6746 10.9219L10.659 10.9312L10.6402 10.9469H10.6121C10.5965 10.9469 10.5871 10.9625 10.5746 10.9625C10.5434 10.9687 10.4871 10.9469 10.4621 10.9594C10.4465 10.9625 10.4059 11.0125 10.3902 11.0156C10.3809 11.0188 10.3715 11.0156 10.359 11.0125L10.3402 11.0813L10.2652 11.1469C10.2559 11.1563 10.2527 11.1688 10.2402 11.1781C10.234 11.1875 10.2215 11.1938 10.209 11.1938C10.1965 11.1938 10.1746 11.1812 10.159 11.1812C10.134 11.175 10.0559 11.1719 10.034 11.1781C10.0059 11.1813 10.0152 11.2531 9.95273 11.2594L9.84961 11.2719C9.84648 11.2719 9.82461 11.2594 9.80273 11.2625C9.79336 11.2656 9.76836 11.2938 9.76836 11.3V11.3156L9.77461 11.3281C9.76211 11.3438 9.73086 11.3688 9.72148 11.3906L9.70898 11.4031C9.70273 11.4094 9.65898 11.425 9.65586 11.4312C9.64648 11.4562 9.68711 11.4813 9.68086 11.4906C9.67148 11.5219 9.62773 11.5531 9.61211 11.5844C9.60898 11.5969 9.62773 11.6375 9.62773 11.65C9.62148 11.6906 9.60898 11.7406 9.61211 11.7781L9.61836 11.8313L9.64023 11.8469L9.69648 11.9594C9.70586 12.0281 9.60273 12.0031 9.66523 12.0719C9.67148 12.0844 9.67773 12.0937 9.69023 12.1031L9.77773 12.175C9.77773 12.1875 9.71523 12.1969 9.70586 12.2063C9.67461 12.2375 9.65273 12.2875 9.62461 12.3188C9.60586 12.3344 9.59336 12.3156 9.56836 12.3594C9.56211 12.375 9.56836 12.4094 9.55898 12.4219C9.54336 12.4344 9.53398 12.4156 9.51836 12.4219C9.51211 12.4219 9.50898 12.4437 9.50273 12.4469C9.48711 12.4625 9.34023 12.5406 9.32773 12.5312C9.32148 12.5281 9.31211 12.5031 9.31211 12.4969C9.31211 12.4875 9.29961 12.4688 9.29336 12.4656C9.25586 12.4344 9.19961 12.425 9.16211 12.4656C9.15273 12.475 9.15273 12.4906 9.14023 12.4969L9.07773 12.5469L9.06211 12.5625C9.04648 12.5625 9.01211 12.5219 8.99961 12.5094C8.98711 12.4906 8.93711 12.4469 8.93398 12.425C8.93398 12.35 8.87461 12.2719 8.85273 12.2H8.88711C8.92773 12.1719 8.91836 12.1063 8.99023 12.1313C8.99961 12.1188 8.99961 12.1063 9.01523 12.1C9.02148 12.0938 9.03398 12.0906 9.03711 12.0844C9.06211 12.0469 9.09023 11.9031 9.06523 11.8656C9.04336 11.8344 9.01836 11.8344 9.00273 11.7812C8.99648 11.7656 9.00273 11.75 9.00273 11.7312L8.97148 11.6344C8.96523 11.625 8.94961 11.6188 8.94961 11.6125L8.94336 11.5156C8.92148 11.4469 8.83711 11.4063 8.83398 11.3969L8.80273 11.3438C8.79023 11.3219 8.79023 11.3125 8.78398 11.2937C8.78086 11.2844 8.76523 11.275 8.76523 11.2656C8.76523 11.2469 8.81523 11.2125 8.81211 11.1812C8.81211 11.1719 8.78086 11.1406 8.78711 11.125C8.79336 11.1062 8.82461 11.0687 8.82461 11.0469C8.82461 11.0219 8.77461 10.9656 8.76836 10.9406C8.76523 10.925 8.78711 10.9156 8.78086 10.9062C8.77461 10.8938 8.72461 10.8469 8.71836 10.8344C8.70898 10.825 8.73398 10.8125 8.71836 10.7937C8.69961 10.7781 8.71523 10.7812 8.70898 10.7688C8.70273 10.7531 8.68711 10.7375 8.67773 10.7219C8.67148 10.7063 8.62773 10.55 8.63086 10.5406C8.62148 10.5312 8.60898 10.5219 8.60273 10.5094L8.59023 10.4719C8.59023 10.4719 8.54023 10.4563 8.53086 10.4406C8.52461 10.4313 8.52148 10.3906 8.50898 10.3719C8.50273 10.3625 8.49336 10.3656 8.48711 10.3594C8.48086 10.3531 8.48086 10.3437 8.47773 10.3375C8.46211 10.3187 8.43398 10.3375 8.41523 10.2625C8.38398 10.2437 8.36211 10.2313 8.34023 10.2063L8.32773 10.1938C8.30898 10.1875 8.28086 10.1844 8.26523 10.1719C8.25586 10.1719 8.20898 10.1719 8.20273 10.1656L8.19023 10.1406C8.16523 10.1375 8.12148 10.1406 8.09961 10.1219C8.08398 10.1062 8.08086 10.0344 8.04961 10.0437C8.04553 10.0425 8.04119 10.0425 8.03711 10.0437C8.01523 10.0125 7.94648 10.0125 7.91836 9.99375C7.91211 9.99062 7.88711 9.99375 7.88711 9.9875L7.89023 9.94687L7.85586 9.90312C7.82773 9.89687 7.83711 9.89375 7.82461 9.88437C7.77773 9.88437 7.77148 9.89062 7.74336 9.91562C7.73711 9.92187 7.72148 9.925 7.71211 9.92813C7.69648 9.9375 7.69336 9.96562 7.67148 9.95312L7.65273 9.9375C7.64023 9.925 7.63398 9.93125 7.62773 9.9125C7.59023 9.89063 7.48711 9.95938 7.46523 9.9125C7.44648 9.90313 7.43398 9.9125 7.41836 9.9C7.41211 9.89375 7.44023 9.80625 7.36523 9.775L7.41523 9.74063C7.42148 9.73125 7.41523 9.71563 7.41523 9.70938C7.41523 9.69375 7.42461 9.66563 7.42148 9.65625C7.42148 9.64687 7.40898 9.6375 7.40586 9.625C7.39961 9.61562 7.40586 9.6 7.39961 9.5875L7.37461 9.575C7.35586 9.55937 7.33711 9.55 7.32148 9.53125L7.30898 9.51562C7.29648 9.50625 7.25273 9.49063 7.25273 9.47188C7.25273 9.46563 7.26523 9.4625 7.26523 9.45625C7.26836 9.44688 7.26523 9.4375 7.27461 9.43125C7.29336 9.4 7.34023 9.41563 7.33398 9.3625C7.33086 9.3375 7.31211 9.31875 7.30898 9.29375C7.29961 9.2875 7.29961 9.27813 7.29336 9.27188C7.24648 9.26875 7.25273 9.22188 7.23711 9.20938C7.19023 9.17813 7.15273 9.19687 7.20586 9.13437C7.21211 9.1125 7.15898 9.07813 7.14961 9.06875C7.13086 9.05 7.14023 9.00938 7.13086 8.99063C7.13086 8.98125 7.09648 8.9625 7.08711 8.95L7.07148 8.91875V8.91562C7.08086 8.90625 7.07773 8.89062 7.07148 8.88437C7.06836 8.875 7.05273 8.87812 7.04961 8.87187C7.00586 8.83437 6.95586 8.81562 6.89648 8.79375C6.88086 8.7875 6.88711 8.775 6.87148 8.76875L6.77773 8.73125C6.77148 8.73125 6.76523 8.69687 6.75898 8.68437L6.73086 8.65312C6.73086 8.62187 6.71211 8.62187 6.68711 8.60312V8.58438L6.70586 8.51875C6.70898 8.50625 6.72461 8.49375 6.72148 8.48125L6.70898 8.40937C6.68398 8.34687 6.65586 8.35312 6.67148 8.26875C6.67148 8.25 6.66836 8.24063 6.68086 8.225L6.68711 8.21562L6.72461 8.1875C6.73711 8.16875 6.74648 8.12813 6.76211 8.11563L6.81836 8.07812C6.82461 8.07187 6.83086 8.05 6.82773 8.04062C6.81523 8.03437 6.80273 8.0375 6.79023 8.03437C6.78398 8.03437 6.76836 8.02188 6.75586 8.02188C6.75273 8.01563 6.74648 8.0125 6.74648 8.00625L6.74023 8C6.72461 8 6.70898 7.99062 6.69648 7.98437C6.68086 7.97812 6.65898 7.97812 6.64336 7.96875C6.61211 7.95312 6.58086 7.90625 6.55273 7.9C6.51523 7.89062 6.49023 7.90312 6.45273 7.90625C6.43086 7.90625 6.43086 7.89375 6.41211 7.8875C6.38711 7.87812 6.40586 7.9 6.34961 7.88125C6.34023 7.875 6.34961 7.85625 6.34961 7.85H6.31836C6.27461 7.8375 6.29023 7.79375 6.27773 7.76562C6.27461 7.75937 6.25273 7.75937 6.24648 7.75937C6.24023 7.75937 6.24023 7.75312 6.24023 7.75312L6.24648 7.75C6.25273 7.7375 6.22461 7.70625 6.22461 7.7C6.22773 7.69062 6.28711 7.68125 6.29336 7.68125C6.29648 7.67187 6.29023 7.66562 6.28711 7.65937C6.28711 7.64375 6.29648 7.62187 6.30273 7.60625V7.6C6.28398 7.59062 6.28086 7.57812 6.26523 7.56875C6.26523 7.55937 6.27461 7.55625 6.27773 7.54687C6.30586 7.46875 6.34961 7.53125 6.38711 7.45937C6.39023 7.45312 6.40273 7.4375 6.40586 7.425H6.41211C6.41836 7.425 6.43086 7.43125 6.43711 7.425C6.44336 7.41875 6.45273 7.41875 6.46211 7.41562H6.47773C6.54648 7.40312 6.53086 7.37812 6.57148 7.35C6.58398 7.34062 6.61523 7.3375 6.62773 7.33125C6.64336 7.34063 6.66523 7.3625 6.69336 7.375C6.71523 7.38125 6.78711 7.39687 6.79961 7.40625C6.81523 7.4125 6.81836 7.43125 6.83086 7.4375C6.87148 7.4625 6.84648 7.425 6.88711 7.43125C6.92773 7.44062 6.95898 7.475 6.99648 7.49062L7.02773 7.4875C7.03711 7.48438 7.09961 7.47187 7.10586 7.475L7.13086 7.48437C7.14023 7.4875 7.14648 7.46875 7.15586 7.46875C7.18086 7.475 7.18086 7.48437 7.21836 7.48125C7.21836 7.48125 7.23711 7.37812 7.25586 7.375C7.26523 7.37187 7.29336 7.39687 7.29961 7.4C7.31211 7.40312 7.29961 7.37812 7.29961 7.37812C7.29336 7.36875 7.27461 7.30625 7.27773 7.3C7.27773 7.3 7.29336 7.30625 7.30273 7.30312C7.32148 7.29687 7.34961 7.29062 7.36523 7.275L7.39648 7.22812C7.39961 7.22187 7.39023 7.20312 7.39648 7.19687L7.42461 7.17812C7.43711 7.16562 7.43711 7.14687 7.45586 7.1375C7.51836 7.13125 7.54023 7.08125 7.59961 7.075H7.61836L7.63086 7.09375C7.63086 7.09687 7.67148 7.12187 7.67773 7.11875C7.68398 7.11875 7.68711 7.10937 7.69336 7.10625C7.70273 7.10937 7.73711 7.09062 7.74023 7.07812C7.74023 7.07812 7.73398 7.06875 7.73711 7.05937C7.7527 7.04551 7.76943 7.03296 7.78711 7.02187H7.83086C7.83711 7.02812 7.83711 7.04062 7.84648 7.04062H7.88398C7.89023 7.04062 7.89336 7.025 7.90586 7.025Z" fill="#D0A650"/>
<path d="M10.9973 2.2937L11.5004 3.8437L10.1816 2.88433H11.8129L10.4941 3.8437L10.9941 2.2937H10.9973ZM12.9598 2.64058L13.4598 4.19058L12.1441 3.2312H13.7723L12.4535 4.19058L12.9598 2.64058ZM14.8316 3.32183L15.3316 4.87183L14.016 3.91245H15.6441L14.3254 4.87495L14.8316 3.32495V3.32183Z" fill="white"/>
<path d="M9.00273 2.2937L8.49961 3.8437L9.81836 2.88433H8.18711L9.50586 3.8437L9.00586 2.2937H9.00273ZM7.04023 2.64058L6.54023 4.19058L7.85586 3.2312H6.22773L7.54648 4.19058L7.04023 2.64058ZM5.17773 3.32183L5.68398 4.87183L4.36523 3.91245H5.99336L4.67461 4.87183L5.17773 3.32183Z" fill="white"/>
</g>
<defs>
<clipPath id="clip0_217_9009">
<rect width="20" height="15" fill="white"/>
</clipPath>
</defs>
</svg>
