<svg width="20" height="15" viewBox="0 0 20 15" fill="none" xmlns="http://www.w3.org/2000/svg">
<g clip-path="url(#clip0_202_3635)">
<path d="M0 0H20V15H0V0Z" fill="#FF0000"/>
<path d="M8.86971 6.48191C8.59031 6.30833 8.29396 6.16438 7.98917 6.04583C7.72669 6.43533 7.5743 6.90103 7.5743 7.40483C7.5743 7.65463 7.6124 7.89596 7.68437 8.12458C7.81136 7.83246 7.97224 7.54881 8.16697 7.27783C8.37044 6.98686 8.60618 6.71985 8.86971 6.48191ZM8.12463 5.86801C8.45485 5.98233 8.77232 6.13051 9.07714 6.30408C9.14488 6.24483 9.21682 6.19401 9.28457 6.14321C8.96285 5.96538 8.61993 5.82146 8.26856 5.71136C8.21777 5.76218 8.16697 5.81298 8.12463 5.86801ZM8.42097 5.56743C8.80196 5.66903 9.16603 5.80873 9.50892 5.99078C9.58936 5.93998 9.66981 5.89341 9.746 5.84686C9.38193 5.66056 8.99669 5.52511 8.59876 5.42771C8.53592 5.46954 8.47647 5.51626 8.42097 5.56743ZM8.78079 5.31341C9.1999 5.39808 9.60629 5.53356 9.9873 5.71983C10.3725 5.53356 10.7789 5.39808 11.1938 5.31341C10.8424 5.10596 10.4276 4.98741 9.9873 4.98741C9.54704 4.98741 9.13638 5.10596 8.78079 5.31341ZM11.3758 5.43196C10.9785 5.52506 10.5935 5.6643 10.2286 5.84686C10.3085 5.89328 10.3876 5.94127 10.4657 5.99078C10.8128 5.80873 11.1768 5.66903 11.5536 5.56743C11.4986 5.51661 11.4393 5.47006 11.3758 5.43193L11.3758 5.43196ZM11.706 5.71561C11.3546 5.82146 11.016 5.96538 10.69 6.14321C10.7623 6.19446 10.8329 6.24811 10.9017 6.30408C11.2022 6.13051 11.5198 5.98233 11.85 5.86801C11.8076 5.81298 11.761 5.76218 11.706 5.71561ZM11.9854 6.05006C11.6798 6.16477 11.3863 6.30943 11.1091 6.48191C11.3673 6.71476 11.6002 6.98148 11.8119 7.27783C11.9993 7.5441 12.1609 7.82763 12.2944 8.12458C12.3622 7.89173 12.4003 7.65463 12.4003 7.40483C12.4003 6.90103 12.2479 6.43531 11.9854 6.05006ZM11.778 7.70968C11.524 7.29901 11.2192 6.93491 10.8805 6.62586L10.6519 6.79096C11.2234 7.32441 11.6848 7.99333 11.9769 8.77233C12.0447 8.67073 12.1082 8.56488 12.159 8.45903C12.0531 8.20503 11.9261 7.95523 11.778 7.70968ZM10.436 6.60893C10.5122 6.55388 10.5884 6.49883 10.6689 6.44803C10.6011 6.38878 10.5292 6.33373 10.4572 6.27868L10.2159 6.43533H10.2201C10.2921 6.49038 10.3641 6.54963 10.436 6.60891V6.60893ZM9.9873 6.27021L10.2286 6.12203L9.9873 5.97386C9.90686 6.02043 9.83067 6.07123 9.75022 6.12203C9.83067 6.16861 9.90686 6.21941 9.9873 6.27021ZM9.7587 6.43533C9.67826 6.38028 9.60206 6.32948 9.52162 6.27868L9.30574 6.44381L9.53857 6.60468C9.61012 6.5459 9.68353 6.48942 9.7587 6.43533ZM9.9873 6.60468C9.91531 6.65971 9.84336 6.71898 9.76717 6.78251C9.84336 6.84176 9.91533 6.90526 9.9873 6.96876C10.0593 6.90526 10.1312 6.84176 10.2074 6.78251C10.1354 6.72323 10.0635 6.65971 9.9873 6.60468ZM9.9873 7.39638C9.65649 7.75315 9.37591 8.1534 9.15333 8.58606C8.99669 8.88241 8.87393 9.19148 8.78079 9.50053C9.13641 9.69953 9.54702 9.81806 9.9873 9.81806C10.4276 9.81806 10.8382 9.69951 11.1938 9.50053C11.1006 9.19148 10.9779 8.88241 10.8212 8.58603C10.5926 8.14153 10.3132 7.74353 9.9873 7.39638ZM8.59031 9.00096C8.86546 8.29816 9.27187 7.68428 9.7714 7.17621C9.6994 7.10848 9.62746 7.04498 9.55127 6.97726C8.97132 7.54033 8.50562 8.23888 8.22199 9.04751C8.30176 9.13576 8.38808 9.21785 8.48022 9.29308C8.51412 9.19571 8.55221 9.09833 8.59031 9.00096ZM10.2032 7.17621C10.7027 7.68428 11.1091 8.29816 11.3885 9.00096C11.4266 9.09833 11.4605 9.19571 11.4943 9.29308C11.5875 9.21688 11.6764 9.13643 11.7568 9.04753C11.4689 8.23888 11.0033 7.54033 10.4233 6.97726L10.2032 7.17623V7.17621ZM7.99764 8.77233C8.28974 7.99333 8.75117 7.32863 9.32689 6.79521C9.25104 6.73638 9.17339 6.6799 9.09406 6.62586C8.75539 6.93913 8.45062 7.30323 8.1966 7.71391C8.05045 7.95201 7.92307 8.20114 7.81563 8.45903C7.8664 8.56911 7.9299 8.67073 7.99764 8.77233ZM10 4.79266C11.4901 4.79266 12.7051 6.00773 12.7051 7.49798C12.7051 8.98823 11.4901 10.2033 10 10.2033C8.50989 10.2033 7.29491 8.98826 7.29491 7.49798C7.29491 6.00771 8.50987 4.79266 10 4.79266ZM11.1938 4.19993C11.1176 4.28886 11.0329 4.40316 10.9483 4.58518C10.9271 4.53863 10.9271 4.48361 10.9398 4.42433C10.961 4.22958 11.016 4.11103 11.1176 3.94591C11.1514 3.88666 11.1853 3.83583 11.2022 3.77233C11.2657 3.58183 11.2531 3.32781 11.1133 3.12883C11.1345 3.35321 11.0668 3.53948 10.9906 3.65378C10.9779 3.67496 10.9652 3.68766 10.9483 3.70461C10.8678 3.78503 10.7789 3.86548 10.6646 4.05176C10.6011 4.15336 10.5376 4.27613 10.4784 4.47088C10.453 4.42856 10.4445 4.37776 10.4487 4.31848C10.4402 4.11948 10.4741 3.99673 10.5461 3.81468C10.5715 3.75118 10.5969 3.69613 10.6053 3.62838C10.635 3.43363 10.5842 3.18386 10.4149 3.01026C10.4699 3.22618 10.436 3.42093 10.3768 3.54796C10.3641 3.56911 10.3556 3.58606 10.3429 3.60298C10.2751 3.69613 10.2032 3.78926 10.1143 3.98823C10.072 4.10256 10.0254 4.23381 10 4.43278C9.96613 4.39468 9.94918 4.34388 9.94496 4.28461C9.90686 4.08986 9.91956 3.96286 9.9619 3.77236C9.97883 3.70883 9.99575 3.64956 9.99153 3.58181C9.99153 3.38283 9.90263 3.14576 9.7079 2.99756C9.79679 3.20501 9.79257 3.40401 9.75445 3.53948C9.746 3.55641 9.73752 3.57758 9.72905 3.59451C9.67826 3.70036 9.61899 3.80198 9.56397 4.01366C9.53857 4.13221 9.51317 4.27191 9.5174 4.47091C9.48352 4.43703 9.45815 4.39046 9.4412 4.33541C9.37346 4.14491 9.36498 4.02213 9.38193 3.82316C9.38618 3.75541 9.39041 3.69613 9.38193 3.63263C9.34806 3.43363 9.22107 3.21348 9.00939 3.09918C9.12793 3.28968 9.15333 3.48868 9.13638 3.62416L9.12371 3.68766C9.08984 3.79773 9.04749 3.90781 9.02634 4.12796C9.01784 4.24651 9.01364 4.38621 9.05174 4.58521C9.00939 4.55556 8.97975 4.51323 8.95437 4.46243C8.85701 4.28461 8.83161 4.16183 8.81466 3.96708C8.81041 3.89933 8.80619 3.84008 8.78079 3.77658C8.72155 3.58606 8.56066 3.38708 8.33208 3.31086C8.48024 3.47598 8.53951 3.66648 8.53951 3.80621C8.53951 3.82738 8.53951 3.84853 8.53526 3.86971C8.51834 3.98401 8.49717 4.10256 8.50987 4.31848C8.52256 4.43703 8.53951 4.57673 8.60723 4.76723C8.56066 4.74608 8.52256 4.70798 8.48869 4.66141C8.36595 4.50476 8.32361 4.38623 8.27704 4.19571C8.26011 4.12796 8.24742 4.07293 8.21354 4.00943C8.12463 3.83583 7.93414 3.66226 7.69709 3.61993C7.8664 3.76386 7.95532 3.94593 7.98072 4.08138C7.98494 4.10256 7.98494 4.12373 7.98494 4.14488C7.98919 4.25921 7.98494 4.37776 8.03151 4.59368C8.06113 4.70798 8.09925 4.84346 8.1966 5.01703C8.15005 5.00433 8.1077 4.97471 8.06536 4.93236C7.9172 4.79688 7.8537 4.68681 7.78173 4.50476C7.75634 4.44126 7.73094 4.38623 7.69284 4.33118C7.5743 4.17453 7.36262 4.03483 7.11712 4.03058C7.31185 4.14491 7.42614 4.30578 7.47271 4.43703L7.48541 4.50053C7.50659 4.61483 7.51928 4.73338 7.5997 4.93661C7.64627 5.04668 7.70977 5.17368 7.83253 5.33036C7.78173 5.32611 7.73516 5.30071 7.68862 5.26683C7.52351 5.15676 7.44307 5.05516 7.33725 4.89003C7.30338 4.83078 7.27376 4.77996 7.22294 4.73338C7.08325 4.59368 6.85042 4.48783 6.60912 4.52171C6.81655 4.60638 6.95624 4.75031 7.02398 4.87311C7.03246 4.89003 7.0409 4.91121 7.04938 4.93236C7.08748 5.03821 7.11712 5.15253 7.22719 5.34303C7.29068 5.44466 7.37112 5.55896 7.51928 5.69866C7.46849 5.69866 7.41767 5.68173 7.36687 5.65633C7.18484 5.57166 7.09172 5.48698 6.96471 5.33881C6.91814 5.28801 6.88004 5.24143 6.82503 5.19908C6.66414 5.08478 6.41861 5.01703 6.18579 5.08901C6.40591 5.13981 6.56677 5.25836 6.64722 5.36843C6.66414 5.38538 6.67261 5.40231 6.68109 5.42348C6.73611 5.52508 6.78693 5.63516 6.92662 5.80028C7.00281 5.89341 7.10017 5.99503 7.26528 6.10933C7.21871 6.11781 7.16792 6.10933 7.10865 6.08816C6.91817 6.03736 6.81233 5.96541 6.66414 5.83838C6.61335 5.79603 6.56677 5.75793 6.50753 5.72408C6.32972 5.63516 6.07572 5.60976 5.85559 5.71558C6.07995 5.72831 6.25775 5.82568 6.35934 5.91883C6.37204 5.93576 6.38474 5.94846 6.39744 5.96963C6.46943 6.05853 6.53293 6.16013 6.69801 6.30408C6.78693 6.38028 6.90122 6.46496 7.08323 6.55388C7.03668 6.57081 6.98166 6.57081 6.92662 6.55813C6.72763 6.53693 6.61335 6.48188 6.44401 6.38028C6.38477 6.34643 6.33395 6.31253 6.27045 6.29561C6.07997 6.23211 5.83019 6.24481 5.63121 6.38453C5.85137 6.36336 6.04185 6.43111 6.15616 6.50728C6.17309 6.52001 6.19001 6.53271 6.20271 6.54963C6.28738 6.63008 6.36782 6.71898 6.54985 6.83331C6.65144 6.89681 6.77845 6.96456 6.96894 7.01958C6.92662 7.04498 6.87582 7.05346 6.81655 7.05346C6.61757 7.05771 6.49483 7.02381 6.3128 6.95183C6.2493 6.92643 6.19426 6.90103 6.12652 6.89258C5.93178 6.86293 5.68203 6.91373 5.50845 7.08308C5.72435 7.02806 5.92334 7.06191 6.0461 7.12118C6.06725 7.13388 6.08419 7.14236 6.10112 7.15506C6.19426 7.22281 6.28738 7.29478 6.49058 7.38368C6.60065 7.42601 6.73188 7.47258 6.93084 7.49798C6.89274 7.53186 6.84195 7.54878 6.78693 7.55303C6.58795 7.59536 6.46521 7.57843 6.27048 7.53608C6.20696 7.51916 6.14769 7.50646 6.07995 7.50646C5.88099 7.50646 5.64394 7.59536 5.5 7.79011C5.70318 7.70121 5.90216 7.70543 6.03762 7.74356C6.0588 7.75201 6.07572 7.76048 6.09687 7.76896C6.19848 7.81976 6.30432 7.87903 6.51598 7.93406C6.63029 7.95946 6.76998 7.98486 6.96894 7.98063C6.93509 8.01451 6.88852 8.03988 6.83347 8.05683C6.64722 8.12458 6.52023 8.13306 6.3255 8.11611C6.25775 8.11186 6.19851 8.10763 6.13077 8.11611C5.93603 8.14998 5.71588 8.27698 5.60159 8.49291C5.78785 8.37013 5.9868 8.34473 6.12654 8.36166L6.18579 8.37436C6.29585 8.41248 6.40591 8.45058 6.62604 8.47173C6.74458 8.48023 6.88427 8.48443 7.08325 8.44633C7.0536 8.48868 7.01128 8.51833 6.96049 8.54371C6.78693 8.64108 6.65992 8.66648 6.46518 8.68343C6.39744 8.69188 6.3382 8.69613 6.2747 8.71731C6.08419 8.77656 5.88946 8.93746 5.80902 9.16606C5.97835 9.01788 6.16886 8.96286 6.30855 8.95861C6.32972 8.95861 6.35089 8.95861 6.37204 8.96286C6.48211 8.97978 6.60065 9.00096 6.82078 8.98826C6.93931 8.97978 7.079 8.95861 7.26528 8.89088C7.24834 8.93746 7.21024 8.97556 7.15944 9.00943C7.00281 9.13218 6.88429 9.17453 6.69379 9.22111C6.63029 9.23803 6.57102 9.25073 6.51175 9.28461C6.33395 9.37353 6.16461 9.56403 6.12229 9.80111C6.26198 9.63178 6.44401 9.54286 6.5795 9.51746C6.60065 9.51323 6.62182 9.51323 6.64299 9.51323C6.75728 9.50898 6.88004 9.51323 7.0917 9.46666C7.20601 9.43703 7.34148 9.39891 7.51928 9.30156C7.50659 9.34811 7.47271 9.39468 7.43037 9.43281C7.29491 9.58098 7.18484 9.64448 7.00281 9.71646C6.94356 9.74608 6.88852 9.76726 6.83347 9.80536C6.67261 9.92391 6.53293 10.1356 6.52868 10.3811C6.64299 10.1864 6.80808 10.0721 6.93931 10.0255L6.99856 10.0128C7.11287 9.99163 7.23141 9.97893 7.43462 9.89851C7.54468 9.85193 7.67167 9.78843 7.83253 9.66988C7.82408 9.71646 7.80291 9.76303 7.76479 9.80958C7.65475 9.97471 7.55738 10.0552 7.38805 10.161C7.333 10.1949 7.28221 10.2245 7.23141 10.2753C7.09172 10.415 6.99011 10.6479 7.02398 10.8892C7.10442 10.6817 7.24834 10.542 7.37112 10.4743C7.39227 10.4658 7.40922 10.4574 7.43037 10.4489C7.54043 10.415 7.65475 10.3811 7.841 10.2711C7.94262 10.2076 8.05691 10.1271 8.1966 9.97893C8.20084 10.0297 8.1839 10.0806 8.15427 10.1314C8.06961 10.3134 7.98494 10.4065 7.83678 10.5336C7.78598 10.5801 7.73941 10.6182 7.70129 10.6733C7.587 10.8342 7.51928 11.0797 7.59125 11.3126C7.6378 11.0924 7.75634 10.9315 7.87065 10.8511C7.88757 10.8384 7.9045 10.8257 7.92145 10.8172C8.02304 10.7622 8.1331 10.7114 8.30244 10.5717C8.39133 10.4955 8.49292 10.3981 8.60723 10.233C8.61571 10.2795 8.60723 10.3346 8.59031 10.3896C8.53526 10.5801 8.46755 10.686 8.33631 10.8342C8.29396 10.885 8.25586 10.9315 8.22624 10.995C8.13735 11.1728 8.1077 11.4226 8.21354 11.6428C8.23047 11.4184 8.32361 11.2406 8.42097 11.1432C8.43367 11.1263 8.4506 11.1136 8.46755 11.1009C8.56066 11.0289 8.65803 10.9654 8.80196 10.8003C8.87816 10.7114 8.96282 10.5971 9.05174 10.415C9.06866 10.4616 9.06866 10.5166 9.06019 10.5717C9.03479 10.7707 8.984 10.885 8.88241 11.0543C8.84431 11.1136 8.81466 11.1644 8.79349 11.2279C8.73424 11.4184 8.74694 11.6724 8.88663 11.8714C8.86546 11.647 8.92898 11.4565 9.00939 11.3422C9.02209 11.3253 9.03479 11.3083 9.04749 11.2956C9.12793 11.211 9.21682 11.1305 9.33536 10.9485C9.39461 10.8469 9.46235 10.7198 9.5174 10.5293C9.54279 10.5717 9.55127 10.6225 9.55127 10.6817C9.55972 10.8807 9.52587 11.0035 9.44965 11.1855C9.42425 11.249 9.40311 11.3041 9.39041 11.3718C9.36076 11.5666 9.41156 11.8164 9.58089 11.99C9.52587 11.774 9.55972 11.575 9.62324 11.4523C9.63168 11.4311 9.64016 11.4142 9.65286 11.3972C9.7206 11.3041 9.79679 11.211 9.88146 11.0077C9.92803 10.8977 9.9746 10.7664 10 10.5674C10.0296 10.6055 10.0465 10.6563 10.055 10.7114C10.0931 10.9104 10.0804 11.0331 10.0338 11.2279C10.0169 11.2914 10.0042 11.3507 10.0042 11.4184C10.0042 11.6174 10.0974 11.8545 10.2921 11.9984C10.2032 11.7952 10.2032 11.5962 10.2455 11.4607C10.2498 11.4396 10.2582 11.4226 10.2667 11.4015C10.3175 11.2999 10.3768 11.194 10.4318 10.9823C10.4572 10.868 10.4826 10.7283 10.4784 10.5293C10.5165 10.5632 10.5376 10.6098 10.5545 10.6648C10.6265 10.8511 10.6308 10.9781 10.618 11.1771C10.6096 11.2406 10.6053 11.2999 10.618 11.3676C10.6477 11.5666 10.7747 11.7867 10.9906 11.901C10.872 11.7105 10.8424 11.5115 10.8636 11.3761C10.8636 11.3549 10.8678 11.3337 10.8763 11.3126C10.9101 11.2025 10.9525 11.0924 10.9737 10.8723C10.9779 10.7537 10.9821 10.614 10.9483 10.415C10.9864 10.4447 11.0202 10.487 11.0456 10.5378C11.143 10.7114 11.1684 10.8384 11.1853 11.0331C11.1896 11.1009 11.1938 11.1601 11.215 11.2236C11.2785 11.4142 11.4351 11.6089 11.6679 11.6894C11.5198 11.52 11.4605 11.3295 11.4562 11.1898C11.4562 11.1686 11.4562 11.1474 11.4605 11.1263C11.4774 11.0162 11.5028 10.8977 11.4859 10.6775C11.4774 10.559 11.4562 10.4193 11.3927 10.233C11.4351 10.2541 11.4732 10.288 11.5071 10.3388C11.6298 10.4955 11.6764 10.614 11.7229 10.8045C11.7356 10.868 11.7526 10.9273 11.7822 10.9866C11.8753 11.1644 12.0616 11.3337 12.3029 11.3761C12.1293 11.2364 12.0404 11.0543 12.015 10.9188C12.0108 10.8977 12.0108 10.8765 12.0108 10.8553C12.0108 10.741 12.0151 10.6225 11.9685 10.4066C11.9388 10.2922 11.8965 10.1568 11.7992 9.97893C11.8499 9.99163 11.8923 10.0255 11.9304 10.0679C12.0786 10.2033 12.142 10.3134 12.2182 10.4955C12.2436 10.5547 12.2648 10.6098 12.3071 10.6648C12.4257 10.8257 12.6374 10.9654 12.8786 10.9696C12.6881 10.8553 12.5738 10.6902 12.5273 10.559C12.5188 10.5378 12.5146 10.5209 12.5103 10.4997C12.4934 10.3854 12.4765 10.2668 12.396 10.0636C12.3495 9.95353 12.2902 9.82653 12.1674 9.66986C12.2182 9.67411 12.2648 9.69528 12.3114 9.73338C12.4765 9.84346 12.5569 9.94083 12.6585 10.1102C12.6924 10.1652 12.7262 10.2203 12.7728 10.2668C12.9125 10.4065 13.1453 10.5082 13.3866 10.4743C13.1792 10.3938 13.0395 10.2499 12.976 10.1271C12.9633 10.106 12.9548 10.089 12.9506 10.0679C12.9125 9.95778 12.8786 9.84346 12.7686 9.65718C12.7051 9.55556 12.6246 9.44126 12.4807 9.30156C12.5273 9.30156 12.5781 9.31426 12.6331 9.34388C12.8109 9.42856 12.9083 9.51323 13.0353 9.66141C13.0776 9.71221 13.1157 9.75878 13.1708 9.79691C13.3316 9.91543 13.5771 9.97893 13.8099 9.91121C13.5941 9.86041 13.4332 9.74186 13.3485 9.62753C13.3358 9.61061 13.3231 9.59368 13.3147 9.57673C13.2596 9.47513 13.2131 9.36506 13.0734 9.19571C12.9929 9.10681 12.8956 9.00521 12.7305 8.89088C12.7813 8.88241 12.8321 8.89088 12.8871 8.90781C13.0776 8.96286 13.1834 9.03481 13.3358 9.16183C13.3866 9.20418 13.4332 9.24228 13.4925 9.27191C13.6703 9.36081 13.92 9.39046 14.1402 9.28461C13.9158 9.26768 13.7422 9.17453 13.6406 9.07716C13.6237 9.06446 13.611 9.04753 13.5983 9.03058C13.5305 8.93746 13.4628 8.84008 13.302 8.69613C13.2088 8.61993 13.0945 8.53526 12.9167 8.44633C12.9633 8.42941 13.0141 8.42941 13.0734 8.43788C13.2681 8.46328 13.3866 8.51408 13.5517 8.61993C13.611 8.65378 13.6618 8.68343 13.7253 8.70461C13.9158 8.76386 14.1698 8.75116 14.3687 8.61146C14.1444 8.63263 13.9581 8.56911 13.8438 8.48868L13.793 8.45058C13.7126 8.37013 13.6322 8.28123 13.4459 8.16268C13.3443 8.10343 13.2215 8.03568 13.0268 7.98063C13.0691 7.95523 13.1242 7.94676 13.1792 7.94676C13.3824 7.93831 13.5052 7.97216 13.683 8.04838C13.7464 8.07378 13.8015 8.09493 13.8692 8.10763C14.064 8.13728 14.3137 8.08648 14.4873 7.91713C14.2714 7.97216 14.0767 7.93831 13.9497 7.87478C13.9327 7.86633 13.9116 7.85786 13.8946 7.84516C13.8015 7.77741 13.7084 7.70543 13.5094 7.61653C13.3993 7.57421 13.2639 7.52763 13.0649 7.49798C13.103 7.46836 13.1538 7.45143 13.2131 7.44296C13.4078 7.40486 13.5348 7.41756 13.7253 7.46413C13.7888 7.48106 13.8481 7.49376 13.9158 7.49376C14.1148 7.49376 14.3518 7.40061 14.5 7.21011C14.2926 7.29478 14.0936 7.29478 13.9624 7.25243C13.9412 7.24818 13.92 7.23973 13.9031 7.23126C13.7973 7.18046 13.6957 7.12118 13.484 7.06616C13.3655 7.04076 13.23 7.01536 13.0268 7.01958C13.0607 6.98148 13.1072 6.96033 13.1623 6.94338C13.3528 6.87138 13.4797 6.86716 13.6745 6.87988C13.7422 6.88833 13.8015 6.89258 13.8692 6.87988C14.0639 6.85023 14.2841 6.72323 14.3984 6.50731C14.2079 6.62586 14.0132 6.65548 13.8735 6.63856C13.8523 6.63431 13.8311 6.63008 13.81 6.62161C13.6999 6.58776 13.5898 6.54541 13.3739 6.52423C13.2554 6.51998 13.1115 6.51578 12.9167 6.55388C12.9421 6.51153 12.9845 6.47766 13.0395 6.45226C13.2131 6.35488 13.3358 6.32951 13.5306 6.31256C13.5983 6.30831 13.6576 6.30408 13.721 6.28291C13.9116 6.21941 14.1105 6.06276 14.1867 5.82991C14.0216 5.97808 13.8311 6.03736 13.6914 6.04161C13.6703 6.04161 13.6491 6.04161 13.6279 6.03736C13.5136 6.02043 13.3951 5.99503 13.1792 6.01196C13.0607 6.02043 12.921 6.04161 12.7305 6.10933C12.7516 6.06276 12.7897 6.02466 12.8363 5.99078C12.9929 5.86803 13.1115 5.82146 13.302 5.77488C13.3664 5.76351 13.4291 5.74358 13.4882 5.71561C13.6618 5.62246 13.8354 5.43618 13.8777 5.19486C13.7338 5.36843 13.556 5.45736 13.4163 5.48276C13.3951 5.48698 13.3739 5.48698 13.3528 5.48698C13.2385 5.48698 13.1199 5.48273 12.9083 5.52933C12.7897 5.55896 12.6543 5.60128 12.4807 5.69866C12.4934 5.64786 12.523 5.60553 12.5654 5.56741C12.7008 5.41923 12.8109 5.35573 12.9929 5.27953C13.0564 5.25413 13.1115 5.23296 13.1665 5.19063C13.3231 5.07208 13.4628 4.86038 13.4671 4.61908C13.3528 4.80958 13.1919 4.92391 13.0607 4.97048C13.0395 4.97893 13.0183 4.98318 12.9972 4.98741C12.8829 5.00858 12.7643 5.02128 12.5611 5.10171C12.4553 5.14828 12.3283 5.20756 12.1674 5.33033C12.1717 5.28376 12.1971 5.23296 12.2309 5.18638C12.341 5.02128 12.4426 4.94083 12.6077 4.83923C12.6669 4.80536 12.7178 4.77148 12.7643 4.72491C12.904 4.58521 13.0099 4.35236 12.976 4.11103C12.8913 4.31848 12.7474 4.45818 12.6246 4.52593C12.6077 4.53441 12.5865 4.54286 12.5696 4.54711C12.4595 4.58521 12.3452 4.61908 12.1547 4.72916C12.0531 4.79266 11.9388 4.87311 11.7992 5.01703C11.7992 4.97048 11.8161 4.91966 11.8415 4.86886C11.9261 4.68681 12.0108 4.59368 12.159 4.46243C12.2098 4.42008 12.2563 4.38198 12.2987 4.32693C12.413 4.16606 12.4807 3.92051 12.4087 3.68768C12.3579 3.90358 12.2394 4.06446 12.1293 4.14913C12.1124 4.16183 12.0955 4.17453 12.0743 4.18301C11.9727 4.23803 11.8626 4.28461 11.6975 4.42433C11.6044 4.50476 11.5028 4.60213 11.3927 4.76726C11.38 4.72068 11.3885 4.66566 11.4097 4.61061C11.4647 4.42011 11.5324 4.31426 11.6594 4.16186C11.7018 4.11103 11.7441 4.06868 11.7737 4.00518C11.8626 3.82738 11.888 3.57758 11.7822 3.35743C11.7695 3.58181 11.6764 3.75541 11.579 3.85701C11.5621 3.87393 11.5494 3.88663 11.5325 3.89936C11.4393 3.96711 11.3377 4.03483 11.1938 4.19993Z" fill="#FFFF00"/>
</g>
<defs>
<clipPath id="clip0_202_3635">
<rect width="20" height="15" fill="white"/>
</clipPath>
</defs>
</svg>
