<svg width="20" height="15" viewBox="0 0 20 15" fill="none" xmlns="http://www.w3.org/2000/svg">
<g clip-path="url(#clip0_202_3749)">
<path d="M0 0H20V15H0V0Z" fill="#ED1C24"/>
<path d="M0 3.75H20V11.25H0V3.75Z" fill="white"/>
<path d="M9.84937 3.75C9.6884 4.089 9.38532 4.32592 9.0956 4.55015C9.04794 4.59177 8.92944 4.6724 9.0154 4.73377C9.08906 4.65145 9.29119 4.76047 9.17371 4.84902C9.06849 4.94752 8.92359 4.9836 8.80674 5.0649C8.70326 5.12115 8.59829 5.17985 8.51623 5.26592C8.51065 5.40042 8.68304 5.32597 8.753 5.382C8.84411 5.4794 8.71439 5.64365 8.59481 5.60607C8.44194 5.61077 8.33637 5.74533 8.27853 5.87368C8.15895 6.05862 7.93235 6.11342 7.75192 6.21867C7.64869 6.27885 7.54854 6.34545 7.45246 6.41568C7.32856 6.50043 7.43634 6.66817 7.56818 6.627C7.71048 6.6128 7.8385 6.50097 7.98584 6.5332C8.11944 6.58015 8.15693 6.7548 8.11142 6.87675C8.07767 6.97438 7.99594 7.04315 7.93048 7.1194C7.82418 7.22712 7.68516 7.29705 7.53856 7.3304C7.39692 7.37797 7.26957 7.46477 7.17664 7.58197C7.06881 7.69057 6.96139 7.80092 6.83741 7.89147C6.79825 7.99142 6.90877 8.07655 7.00088 8.0739C7.19504 8.06165 7.32956 7.90275 7.4949 7.82107C7.63212 7.7594 7.79358 7.90732 7.76002 8.05027C7.74939 8.18937 7.6192 8.25995 7.50345 8.30275C7.16314 8.47385 6.86766 8.722 6.60531 8.99575C6.55105 9.10647 6.40186 9.07387 6.32155 9.15105C6.26924 9.2487 6.40053 9.3002 6.47889 9.29017C6.81557 9.24967 7.12975 9.10732 7.42736 8.95072C7.53804 8.8978 7.64197 8.82815 7.75704 8.78597C7.86512 8.75925 8.01584 8.80622 8.03516 8.92927C8.03501 9.05917 7.90636 9.1311 7.80448 9.18185C7.4903 9.34695 7.1455 9.43822 6.80969 9.54737C6.68397 9.51222 6.58924 9.73595 6.72716 9.77617C6.87298 9.82617 7.02802 9.78607 7.17719 9.77952C7.63847 9.70885 8.04188 9.4592 8.47304 9.29782C8.6523 9.23937 8.86388 9.32092 8.95234 9.48892C9.04122 9.63867 9.03307 9.8356 8.93934 9.9811C8.79117 10.2981 8.56592 10.5895 8.26353 10.7718C8.07372 10.8658 7.85217 10.9018 7.68948 11.0457C7.53901 11.0953 7.76491 11.2986 7.79756 11.1372C7.88796 11.0139 8.04743 10.977 8.19205 10.9719C8.40943 10.9483 8.64028 10.9082 8.80917 10.7577C8.96058 10.6401 9.1098 10.4778 9.31541 10.4753C9.42903 10.4888 9.54143 10.5801 9.65683 10.5244C9.75781 10.4781 9.9162 10.5052 9.94257 10.6294C9.99079 10.7747 10.1405 10.8408 10.2592 10.9185C10.3022 10.9788 10.4449 11.1345 10.4779 10.9973C10.4513 10.8994 10.4893 10.7496 10.6176 10.7823C10.7298 10.7873 10.8366 10.8287 10.9485 10.8355C11.0975 10.8663 11.2219 10.9684 11.3065 11.0916C11.3647 11.172 11.4922 11.3102 11.587 11.2036C11.6458 11.0933 11.5336 11.0013 11.4422 10.9619C11.309 10.8794 11.1951 10.7694 11.0786 10.6653C10.9068 10.5049 10.7586 10.3009 10.7313 10.0613C10.6944 9.8224 10.7138 9.57872 10.745 9.34047C10.7842 9.1871 10.9803 9.10335 11.1174 9.18485C11.3104 9.2729 11.502 9.3989 11.7232 9.38525C12.0428 9.39212 12.3713 9.33092 12.6836 9.42355C12.9876 9.51932 13.2049 9.7759 13.501 9.88692C13.5673 9.92722 13.6521 9.88887 13.6764 9.81805C13.7058 9.75442 13.685 9.67302 13.6238 9.63675C13.2806 9.29027 12.8116 9.12197 12.4145 8.85125C12.2895 8.8195 12.2668 8.61832 12.3823 8.56025C12.5343 8.44982 12.7492 8.50125 12.884 8.6151C12.9978 8.68177 13.1261 8.73175 13.2596 8.73185C13.3964 8.68902 13.3301 8.49105 13.2076 8.47615C12.9857 8.35082 12.8268 8.14515 12.6345 7.98215C12.5238 7.8884 12.4026 7.79347 12.2538 7.7753C12.1725 7.76047 12.0894 7.75725 12.007 7.76277C11.9297 7.67877 12.0326 7.55015 12.1326 7.56067C12.2351 7.56757 12.337 7.5752 12.4394 7.56093C12.5539 7.55255 12.6682 7.5407 12.783 7.53992C12.8757 7.60305 13.061 7.494 12.9773 7.38512C12.8859 7.30502 12.7538 7.31197 12.6446 7.27087C12.4528 7.20817 12.2575 7.15683 12.0597 7.11712C11.9214 7.10887 11.9385 6.92683 12.0601 6.90673C12.1396 6.87705 12.2088 6.93817 12.2851 6.94765C12.4156 6.9757 12.5502 6.97532 12.6806 7.00375C12.7911 6.94917 12.7057 6.78767 12.6057 6.77825C12.3698 6.69387 12.1659 6.5416 11.9666 6.39345C11.7465 6.22793 11.5469 6.0365 11.3241 5.87477C11.2433 5.8247 11.1108 5.81027 11.0896 5.69925C11.0821 5.5971 11.2023 5.5506 11.2875 5.57447C11.4084 5.61018 11.521 5.67235 11.6442 5.70288C11.7409 5.71933 11.8405 5.74792 11.9337 5.73575C12.052 5.6614 11.883 5.6139 11.8218 5.58812C11.6641 5.50305 11.524 5.38972 11.3821 5.28162C11.2622 5.17925 11.4838 5.13402 11.5601 5.17345C11.6875 5.22678 11.702 5.041 11.6068 4.99425C11.4945 4.9465 11.398 4.86725 11.2962 4.7981C11.1122 4.66715 10.9039 4.56347 10.6778 4.53467C10.4243 4.5092 10.1876 4.3634 10.0531 4.14655C9.96974 4.02297 9.90853 3.8863 9.84937 3.75ZM9.01687 5.17252C9.14752 5.1764 9.12742 5.41195 8.9988 5.39622C8.87388 5.38817 8.88153 5.14722 9.01687 5.17252ZM10.2493 5.29938C10.3765 5.27663 10.4034 5.50867 10.2764 5.51957C10.144 5.54327 10.0949 5.28468 10.2493 5.29938ZM9.88833 5.32962C10.0172 5.35497 9.99431 5.57957 9.86421 5.58152C9.76903 5.60272 9.66646 5.6677 9.57018 5.61902C9.49187 5.53617 9.60504 5.4137 9.69245 5.38677C9.75949 5.37325 9.82117 5.3428 9.88833 5.32962ZM10.7191 5.3306C10.8433 5.3759 10.7995 5.59523 10.6685 5.59242C10.5446 5.60905 10.4869 5.4023 10.6024 5.35327C10.6398 5.34002 10.679 5.32885 10.7191 5.3306ZM9.31766 5.57937C9.40901 5.66632 9.35505 5.83412 9.24242 5.87422C9.16126 5.91937 9.05059 6.02622 8.96218 5.9383C8.91419 5.83092 9.03462 5.75007 9.10545 5.69047C9.16866 5.64132 9.23842 5.5967 9.31766 5.57937ZM10.3608 6.0643C10.4916 6.12605 10.4252 6.36177 10.2816 6.34712C10.1638 6.31725 10.1792 6.11502 10.2979 6.0989C10.3203 6.0903 10.3409 6.07765 10.3608 6.0643ZM9.94585 6.0877C10.0681 6.14497 9.97477 6.34912 9.85157 6.3197C9.72384 6.3047 9.72619 6.0801 9.86706 6.10037C9.89361 6.09907 9.921 6.09837 9.94585 6.0877ZM10.8403 6.2048C10.9744 6.1632 11.1357 6.3013 11.0923 6.4414C11.0325 6.55 10.8848 6.56372 10.7789 6.52315C10.6574 6.51715 10.5757 6.33442 10.684 6.25705C10.7288 6.22322 10.7852 6.2093 10.8403 6.2048ZM8.86026 6.23992C8.97111 6.1796 9.08878 6.36087 8.99453 6.44082C8.93209 6.53265 8.77175 6.57015 8.70106 6.46807C8.64233 6.36832 8.73728 6.2008 8.86026 6.23992ZM8.34886 6.32577C8.47459 6.34297 8.55652 6.4572 8.60301 6.56597C8.61433 6.6985 8.4188 6.77122 8.33352 6.6748C8.23759 6.61462 8.15363 6.49085 8.20392 6.37597C8.23491 6.33035 8.29663 6.31153 8.34889 6.32577H8.34886ZM11.4083 6.80482C11.5448 6.76887 11.6438 6.98697 11.5267 7.06588C11.4195 7.1632 11.2112 7.03428 11.2671 6.8954C11.2949 6.8439 11.3504 6.8097 11.4083 6.80482ZM9.67156 7.05362C9.78598 7.0682 9.74891 7.26655 9.64311 7.25987C9.52959 7.23882 9.55558 7.04245 9.67156 7.05362ZM9.09118 7.159C9.18449 7.09295 9.30486 7.25415 9.22723 7.32925C9.1342 7.3948 9.01352 7.23617 9.09118 7.159ZM10.014 7.1785C10.1221 7.24425 10.1863 7.36682 10.1998 7.4905C10.148 7.60607 9.94775 7.57822 9.92518 7.45515C9.88561 7.35782 9.92208 7.23265 10.014 7.17852L10.014 7.1785ZM10.336 7.36975C10.4754 7.33472 10.4254 7.62615 10.309 7.52507C10.2703 7.47912 10.291 7.40352 10.336 7.36975H10.336ZM8.3135 7.57267C8.4058 7.54565 8.54035 7.57407 8.56582 7.68002C8.57657 7.7796 8.46709 7.8314 8.38686 7.85607C8.25831 7.89577 8.13256 7.96093 7.99429 7.95217C7.89064 7.89292 7.85345 7.77167 7.8165 7.66592C7.91651 7.57212 8.0638 7.59965 8.18777 7.57617C8.22964 7.57402 8.27158 7.573 8.3135 7.57267ZM11.4508 8.0293C11.5685 7.97155 11.6951 8.1585 11.5966 8.2458C11.4733 8.38775 11.2359 8.41412 11.0885 8.29488C11.0708 8.16928 11.1962 8.07802 11.3077 8.06C11.3545 8.04675 11.4011 8.02697 11.4508 8.0293ZM12.1126 8.17272C12.2464 8.1497 12.3517 8.34058 12.2562 8.43937C12.1658 8.57575 11.9501 8.6115 11.8269 8.49972C11.7788 8.38667 11.8763 8.26887 11.9801 8.2326C12.0247 8.2136 12.0669 8.18927 12.1126 8.17272ZM8.78505 8.37567C8.90894 8.36342 9.02244 8.48637 9.0062 8.60855C9.09588 8.69683 8.93706 8.8613 8.84771 8.76988C8.76897 8.67445 8.76937 8.545 8.73888 8.43077C8.73751 8.4054 8.7563 8.37255 8.78505 8.37567ZM9.73614 8.4469C9.86424 8.3915 10.03 8.54477 9.96022 8.67452C9.9104 8.7802 9.7162 8.74477 9.72264 8.62237C9.72232 8.5638 9.7176 8.50375 9.73614 8.44687V8.4469ZM9.27344 8.52982C9.40186 8.50037 9.51969 8.6669 9.44833 8.778C9.32028 8.7894 9.25382 8.6374 9.27344 8.52982Z" fill="#00A651"/>
</g>
<defs>
<clipPath id="clip0_202_3749">
<rect width="20" height="15" fill="white"/>
</clipPath>
</defs>
</svg>
