<svg width="20" height="15" viewBox="0 0 20 15" fill="none" xmlns="http://www.w3.org/2000/svg">
<g clip-path="url(#clip0_202_3739)">
<path d="M0 0H20V15H0V0Z" fill="white"/>
<path d="M0 10.5H20V15H0V10.5Z" fill="#009543"/>
<path d="M0 0H20V4.5H0V0Z" fill="#00209F"/>
<path d="M9.9873 4.78128C9.90293 4.78128 9.81855 4.87503 9.81855 4.87503L9.82793 5.88753L9.50605 6.2219H9.76543V6.80003L8.23418 8.86253L8.00918 8.78128L7.6123 9.62503C7.6123 9.62503 8.59043 10.2375 10.0092 10.2188C11.5654 10.2032 12.4123 9.5969 12.4123 9.5969L12.0061 8.76565L11.8029 8.85315L10.2529 6.80315V6.20628H10.5092L10.1592 5.87503V4.86878C10.1592 4.86878 10.0748 4.77503 9.9873 4.77815V4.78128Z" fill="black" stroke="black" stroke-width="0.04"/>
<path d="M10.5223 7.20008H9.46292C9.46292 7.20008 9.08167 6.3907 9.14104 5.82508C9.20354 5.25008 9.5348 4.9782 9.9723 4.97195C10.491 4.96883 10.7598 5.22508 10.841 5.8032C10.9223 6.37508 10.5223 7.20008 10.5223 7.20008Z" stroke="black" stroke-width="0.3"/>
<path d="M8.14102 9.12808C8.12227 9.14995 7.99414 9.4062 7.99414 9.4062L8.21289 9.35933L8.14102 9.12808ZM8.26602 9.4562L8.03477 9.5312L8.31289 9.64058L8.26602 9.4562ZM8.36914 9.13433L8.48477 9.47495L8.76602 9.3937L8.69414 9.2312L8.36914 9.13433ZM8.55039 9.59683L8.58789 9.73433L8.96289 9.82808L8.81289 9.50933L8.55039 9.59683ZM8.96289 9.3062L9.09727 9.62495L9.37852 9.51558L9.28477 9.37495L8.96289 9.3062ZM9.15039 9.74058L9.19414 9.85933L9.63164 9.92183L9.44727 9.63433L9.14727 9.74058H9.15039ZM9.56914 9.39683L9.73164 9.6812L10.1379 9.5312L10.0941 9.42183L9.56914 9.39995V9.39683ZM9.80664 9.78433L9.89102 9.93433L10.3973 9.9187L10.2098 9.63745L9.80352 9.78433H9.80664ZM10.341 9.40933L10.4785 9.64683L10.8035 9.49058L10.716 9.36558L10.341 9.40933ZM10.8723 9.59058L10.5504 9.74995L10.6348 9.89058L11.066 9.82183L10.8723 9.59058ZM10.9754 9.34058L11.141 9.54995L11.4129 9.33433L11.3191 9.24058L10.9754 9.34058ZM11.4723 9.44995L11.2129 9.64683L11.2816 9.7687L11.6379 9.67495L11.4723 9.44995ZM11.8285 9.0437L11.891 9.13433L11.7129 9.39995L11.5285 9.16245L11.8285 9.0437ZM11.9504 9.27183L12.0598 9.49058L11.841 9.56558L11.8223 9.46245L11.9473 9.27495L11.9504 9.27183Z" fill="white"/>
</g>
<defs>
<clipPath id="clip0_202_3739">
<rect width="20" height="15" fill="white"/>
</clipPath>
</defs>
</svg>
