<svg width="20" height="15" viewBox="0 0 20 15" fill="none" xmlns="http://www.w3.org/2000/svg">
<g clip-path="url(#clip0_202_3756)">
<path d="M0 0H20V7.5H0V0Z" fill="#002B7F"/>
<path d="M0 7.5H20V15H0V7.5Z" fill="#CE1126"/>
<path d="M5.40937 3.05739L5.36188 4.61989H3.77688C3.58188 4.23989 3.42188 3.91989 3.42188 3.48239C3.42188 3.11739 3.70937 2.82739 4.12187 2.82739C4.55937 2.82739 5.04187 2.97489 5.40937 3.05739Z" fill="#FFD83D"/>
<path d="M3.6123 3.12996V4.02996V3.12996ZM3.7373 3.03746V4.23746V3.03746ZM3.8673 2.97496V4.40496V2.97496ZM3.9923 2.94496V4.06746V2.94496ZM4.1198 2.93996V4.07246V2.93996ZM4.2473 2.89746V4.07246V2.89746ZM4.3748 2.89746V4.07246V2.89746ZM4.5023 2.90996V4.08496V2.90996ZM4.6298 2.92246V4.09496V2.92246ZM4.7573 2.99496V4.16996V2.99496ZM4.8823 3.00746V4.32996V3.00746ZM5.0123 3.00746V4.18246V3.00746ZM5.1373 3.00746V4.18246V3.00746Z" fill="#FFD83D"/>
<path d="M3.6123 3.12996V4.02996M3.7373 3.03746V4.23746M3.8673 2.97496V4.40496M3.9923 2.94496V4.06746M4.1198 2.93996V4.07246M4.2473 2.89746V4.07246M4.3748 2.89746V4.07246M4.5023 2.90996V4.08496M4.6298 2.92246V4.09496M4.7573 2.99496V4.16996M4.8823 3.00746V4.32996M5.0123 3.00746V4.18246M5.1373 3.00746V4.18246" stroke="black" stroke-width="0.06" stroke-linecap="round" stroke-linejoin="round"/>
<path d="M4.40934 2.94995C4.67934 2.99245 5.26934 3.26995 5.20184 3.64245C5.10684 4.17245 4.79684 3.95995 4.38684 3.88495L4.07684 3.98745C3.96434 4.09995 3.80184 4.20495 3.69184 4.06745H3.50684V4.78745H5.54184V3.04995L4.40934 2.94995Z" fill="black" stroke="black" stroke-width="0.06" stroke-linecap="round" stroke-linejoin="round"/>
<path d="M5.31879 2.94739C5.38644 2.94739 5.44129 2.89255 5.44129 2.82489C5.44129 2.75724 5.38644 2.70239 5.31879 2.70239C5.25113 2.70239 5.19629 2.75724 5.19629 2.82489C5.19629 2.89255 5.25113 2.94739 5.31879 2.94739Z" fill="#FFD83D" stroke="black" stroke-width="0.09" stroke-linecap="round" stroke-linejoin="round"/>
<path d="M5.04145 2.88001C5.1091 2.88001 5.16395 2.82516 5.16395 2.75751C5.16395 2.68985 5.1091 2.63501 5.04145 2.63501C4.97379 2.63501 4.91895 2.68985 4.91895 2.75751C4.91895 2.82516 4.97379 2.88001 5.04145 2.88001Z" fill="#FFD83D" stroke="black" stroke-width="0.09" stroke-linecap="round" stroke-linejoin="round"/>
<path d="M4.75922 2.80994C4.82687 2.80994 4.88172 2.7551 4.88172 2.68744C4.88172 2.61979 4.82687 2.56494 4.75922 2.56494C4.69156 2.56494 4.63672 2.61979 4.63672 2.68744C4.63672 2.7551 4.69156 2.80994 4.75922 2.80994Z" fill="#FFD83D" stroke="black" stroke-width="0.09" stroke-linecap="round" stroke-linejoin="round"/>
<path d="M4.47699 2.76258C4.54465 2.76258 4.59949 2.70773 4.59949 2.64008C4.59949 2.57242 4.54465 2.51758 4.47699 2.51758C4.40934 2.51758 4.35449 2.57242 4.35449 2.64008C4.35449 2.70773 4.40934 2.76258 4.47699 2.76258Z" fill="#FFD83D" stroke="black" stroke-width="0.09" stroke-linecap="round" stroke-linejoin="round"/>
<path d="M4.19379 2.73499C4.26144 2.73499 4.31629 2.68015 4.31629 2.61249C4.31629 2.54484 4.26144 2.48999 4.19379 2.48999C4.12613 2.48999 4.07129 2.54484 4.07129 2.61249C4.07129 2.68015 4.12613 2.73499 4.19379 2.73499Z" fill="#FFD83D" stroke="black" stroke-width="0.09" stroke-linecap="round" stroke-linejoin="round"/>
<path d="M3.91938 2.74988C3.98703 2.74988 4.04188 2.69504 4.04188 2.62738C4.04188 2.55973 3.98703 2.50488 3.91938 2.50488C3.85172 2.50488 3.79688 2.55973 3.79688 2.62738C3.79688 2.69504 3.85172 2.74988 3.91938 2.74988Z" fill="#FFD83D" stroke="black" stroke-width="0.09" stroke-linecap="round" stroke-linejoin="round"/>
<path d="M3.65375 2.83997C3.7214 2.83997 3.77625 2.78513 3.77625 2.71747C3.77625 2.64982 3.7214 2.59497 3.65375 2.59497C3.58609 2.59497 3.53125 2.64982 3.53125 2.71747C3.53125 2.78513 3.58609 2.83997 3.65375 2.83997Z" fill="#FFD83D" stroke="black" stroke-width="0.09" stroke-linecap="round" stroke-linejoin="round"/>
<path d="M3.43207 3.00501C3.49973 3.00501 3.55457 2.95016 3.55457 2.88251C3.55457 2.81485 3.49973 2.76001 3.43207 2.76001C3.36442 2.76001 3.30957 2.81485 3.30957 2.88251C3.30957 2.95016 3.36442 3.00501 3.43207 3.00501Z" fill="#FFD83D" stroke="black" stroke-width="0.09" stroke-linecap="round" stroke-linejoin="round"/>
<path d="M3.27387 3.23255C3.34152 3.23255 3.39637 3.1777 3.39637 3.11005C3.39637 3.04239 3.34152 2.98755 3.27387 2.98755C3.20621 2.98755 3.15137 3.04239 3.15137 3.11005C3.15137 3.1777 3.20621 3.23255 3.27387 3.23255Z" fill="#FFD83D" stroke="black" stroke-width="0.09" stroke-linecap="round" stroke-linejoin="round"/>
<path d="M3.19672 3.50257C3.26437 3.50257 3.31922 3.44772 3.31922 3.38007C3.31922 3.31241 3.26437 3.25757 3.19672 3.25757C3.12906 3.25757 3.07422 3.31241 3.07422 3.38007C3.07422 3.44772 3.12906 3.50257 3.19672 3.50257Z" fill="#FFD83D" stroke="black" stroke-width="0.09" stroke-linecap="round" stroke-linejoin="round"/>
<path d="M3.19965 3.77991C3.2673 3.77991 3.32215 3.72507 3.32215 3.65741C3.32215 3.58976 3.2673 3.53491 3.19965 3.53491C3.13199 3.53491 3.07715 3.58976 3.07715 3.65741C3.07715 3.72507 3.13199 3.77991 3.19965 3.77991Z" fill="#FFD83D" stroke="black" stroke-width="0.09" stroke-linecap="round" stroke-linejoin="round"/>
<path d="M3.25434 4.05237C3.32199 4.05237 3.37684 3.99753 3.37684 3.92987C3.37684 3.86222 3.32199 3.80737 3.25434 3.80737C3.18668 3.80737 3.13184 3.86222 3.13184 3.92987C3.13184 3.99753 3.18668 4.05237 3.25434 4.05237Z" fill="#FFD83D" stroke="black" stroke-width="0.09" stroke-linecap="round" stroke-linejoin="round"/>
<path d="M5.37387 2.98757L5.36137 3.15007C5.05387 3.10007 4.61887 2.93007 4.21137 2.93007C3.83637 2.93007 3.54637 3.08007 3.54637 3.46007C3.54637 3.83257 3.70387 4.17257 3.91387 4.51757L3.69637 4.61757C3.50137 4.24257 3.33887 3.91757 3.33887 3.48257C3.33887 3.11757 3.62637 2.75757 4.12137 2.75757C4.55887 2.75757 5.00637 2.90757 5.37387 2.98757Z" fill="#FFD83D" stroke="black" stroke-width="0.09" stroke-linecap="round" stroke-linejoin="round"/>
<path d="M5.68926 3.05739L5.73676 4.61989H7.32176C7.51676 4.23989 7.67676 3.91989 7.67676 3.48239C7.67676 3.11739 7.38926 2.82739 6.97676 2.82739C6.53926 2.82739 6.05676 2.97489 5.68926 3.05739Z" fill="#FFD83D"/>
<path d="M7.48633 3.12996V4.02996V3.12996ZM7.36133 3.03746V4.23746V3.03746ZM7.23133 2.97496V4.40496V2.97496ZM7.10633 2.94496V4.06746V2.94496ZM6.97883 2.93996V4.07246V2.93996ZM6.85133 2.89746V4.07246V2.89746ZM6.72383 2.89746V4.07246V2.89746ZM6.59633 2.90996V4.08496V2.90996ZM6.46883 2.92246V4.09496V2.92246ZM6.34133 2.99496V4.16996V2.99496ZM6.21633 3.00746V4.32996V3.00746ZM6.08633 3.00746V4.18246V3.00746ZM5.96133 3.00746V4.18246V3.00746Z" fill="#FFD83D"/>
<path d="M7.48633 3.12996V4.02996M7.36133 3.03746V4.23746M7.23133 2.97496V4.40496M7.10633 2.94496V4.06746M6.97883 2.93996V4.07246M6.85133 2.89746V4.07246M6.72383 2.89746V4.07246M6.59633 2.90996V4.08496M6.46883 2.92246V4.09496M6.34133 2.99496V4.16996M6.21633 3.00746V4.32996M6.08633 3.00746V4.18246M5.96133 3.00746V4.18246" stroke="black" stroke-width="0.06" stroke-linecap="round" stroke-linejoin="round"/>
<path d="M6.6893 2.94995C6.4193 2.99245 5.8293 3.26995 5.8968 3.64245C5.9918 4.17245 6.3018 3.95995 6.7118 3.88495L7.0218 3.98745C7.1343 4.09995 7.2968 4.20495 7.4068 4.06745H7.5918V4.78745H5.5568V3.04995L6.6893 2.94995Z" fill="black" stroke="black" stroke-width="0.06" stroke-linecap="round" stroke-linejoin="round"/>
<path d="M5.77984 2.94739C5.71219 2.94739 5.65734 2.89255 5.65734 2.82489C5.65734 2.75724 5.71219 2.70239 5.77984 2.70239C5.8475 2.70239 5.90234 2.75724 5.90234 2.82489C5.90234 2.89255 5.8475 2.94739 5.77984 2.94739Z" fill="#FFD83D" stroke="black" stroke-width="0.09" stroke-linecap="round" stroke-linejoin="round"/>
<path d="M6.05719 2.88001C5.98953 2.88001 5.93469 2.82516 5.93469 2.75751C5.93469 2.68985 5.98953 2.63501 6.05719 2.63501C6.12484 2.63501 6.17969 2.68985 6.17969 2.75751C6.17969 2.82516 6.12484 2.88001 6.05719 2.88001Z" fill="#FFD83D" stroke="black" stroke-width="0.09" stroke-linecap="round" stroke-linejoin="round"/>
<path d="M6.33941 2.80994C6.27176 2.80994 6.21691 2.7551 6.21691 2.68744C6.21691 2.61979 6.27176 2.56494 6.33941 2.56494C6.40707 2.56494 6.46191 2.61979 6.46191 2.68744C6.46191 2.7551 6.40707 2.80994 6.33941 2.80994Z" fill="#FFD83D" stroke="black" stroke-width="0.09" stroke-linecap="round" stroke-linejoin="round"/>
<path d="M6.62164 2.76258C6.55399 2.76258 6.49914 2.70773 6.49914 2.64008C6.49914 2.57242 6.55399 2.51758 6.62164 2.51758C6.6893 2.51758 6.74414 2.57242 6.74414 2.64008C6.74414 2.70773 6.6893 2.76258 6.62164 2.76258Z" fill="#FFD83D" stroke="black" stroke-width="0.09" stroke-linecap="round" stroke-linejoin="round"/>
<path d="M6.90484 2.73499C6.83719 2.73499 6.78234 2.68015 6.78234 2.61249C6.78234 2.54484 6.83719 2.48999 6.90484 2.48999C6.9725 2.48999 7.02734 2.54484 7.02734 2.61249C7.02734 2.68015 6.9725 2.73499 6.90484 2.73499Z" fill="#FFD83D" stroke="black" stroke-width="0.09" stroke-linecap="round" stroke-linejoin="round"/>
<path d="M7.17926 2.74988C7.1116 2.74988 7.05676 2.69504 7.05676 2.62738C7.05676 2.55973 7.1116 2.50488 7.17926 2.50488C7.24691 2.50488 7.30176 2.55973 7.30176 2.62738C7.30176 2.69504 7.24691 2.74988 7.17926 2.74988Z" fill="#FFD83D" stroke="black" stroke-width="0.09" stroke-linecap="round" stroke-linejoin="round"/>
<path d="M7.44488 2.83997C7.37723 2.83997 7.32238 2.78513 7.32238 2.71747C7.32238 2.64982 7.37723 2.59497 7.44488 2.59497C7.51254 2.59497 7.56738 2.64982 7.56738 2.71747C7.56738 2.78513 7.51254 2.83997 7.44488 2.83997Z" fill="#FFD83D" stroke="black" stroke-width="0.09" stroke-linecap="round" stroke-linejoin="round"/>
<path d="M7.66656 3.00501C7.59891 3.00501 7.54406 2.95016 7.54406 2.88251C7.54406 2.81485 7.59891 2.76001 7.66656 2.76001C7.73422 2.76001 7.78906 2.81485 7.78906 2.88251C7.78906 2.95016 7.73422 3.00501 7.66656 3.00501Z" fill="#FFD83D" stroke="black" stroke-width="0.09" stroke-linecap="round" stroke-linejoin="round"/>
<path d="M7.82477 3.23255C7.75711 3.23255 7.70227 3.1777 7.70227 3.11005C7.70227 3.04239 7.75711 2.98755 7.82477 2.98755C7.89242 2.98755 7.94727 3.04239 7.94727 3.11005C7.94727 3.1777 7.89242 3.23255 7.82477 3.23255Z" fill="#FFD83D" stroke="black" stroke-width="0.09" stroke-linecap="round" stroke-linejoin="round"/>
<path d="M7.90191 3.50257C7.83426 3.50257 7.77941 3.44772 7.77941 3.38007C7.77941 3.31241 7.83426 3.25757 7.90191 3.25757C7.96957 3.25757 8.02441 3.31241 8.02441 3.38007C8.02441 3.44772 7.96957 3.50257 7.90191 3.50257Z" fill="#FFD83D" stroke="black" stroke-width="0.09" stroke-linecap="round" stroke-linejoin="round"/>
<path d="M7.89898 3.77991C7.83133 3.77991 7.77648 3.72507 7.77648 3.65741C7.77648 3.58976 7.83133 3.53491 7.89898 3.53491C7.96664 3.53491 8.02148 3.58976 8.02148 3.65741C8.02148 3.72507 7.96664 3.77991 7.89898 3.77991Z" fill="#FFD83D" stroke="black" stroke-width="0.09" stroke-linecap="round" stroke-linejoin="round"/>
<path d="M7.8443 4.05237C7.77664 4.05237 7.7218 3.99753 7.7218 3.92987C7.7218 3.86222 7.77664 3.80737 7.8443 3.80737C7.91195 3.80737 7.9668 3.86222 7.9668 3.92987C7.9668 3.99753 7.91195 4.05237 7.8443 4.05237Z" fill="#FFD83D" stroke="black" stroke-width="0.09" stroke-linecap="round" stroke-linejoin="round"/>
<path d="M5.72477 2.98757L5.73727 3.15007C6.04477 3.10007 6.47977 2.93007 6.88727 2.93007C7.26227 2.93007 7.55227 3.08007 7.55227 3.46007C7.55227 3.83257 7.39477 4.17257 7.18477 4.51757L7.40227 4.61757C7.59727 4.24257 7.75977 3.91757 7.75977 3.48257C7.75977 3.11757 7.47227 2.75757 6.97727 2.75757C6.53977 2.75757 6.09227 2.90757 5.72477 2.98757Z" fill="#FFD83D" stroke="black" stroke-width="0.09" stroke-linecap="round" stroke-linejoin="round"/>
<path d="M5.54984 1.32745L5.41984 1.56995L5.54984 1.80995L5.67734 1.56995L5.54984 1.32495V1.32745ZM5.54984 1.93745L5.41984 2.17745L5.54984 2.41995L5.67484 2.17495L5.54734 1.93495L5.54984 1.93745ZM5.08984 1.87495L5.29234 2.00245L5.49484 1.87495L5.29484 1.74495L5.08984 1.87495ZM5.60234 1.87495L5.80484 2.00245L6.00984 1.87495L5.80484 1.74495L5.60484 1.87495H5.60234Z" fill="#FFD83D" stroke="black" stroke-width="0.09" stroke-linecap="round" stroke-linejoin="round"/>
<path d="M5.54965 1.97503C5.6035 1.97503 5.64715 1.93138 5.64715 1.87753C5.64715 1.82368 5.6035 1.78003 5.54965 1.78003C5.4958 1.78003 5.45215 1.82368 5.45215 1.87753C5.45215 1.93138 5.4958 1.97503 5.54965 1.97503Z" fill="#FFD83D" stroke="black" stroke-width="0.09" stroke-linecap="round" stroke-linejoin="round"/>
<path d="M5.54961 2.76255C5.69458 2.76255 5.81211 2.64502 5.81211 2.50005C5.81211 2.35507 5.69458 2.23755 5.54961 2.23755C5.40463 2.23755 5.28711 2.35507 5.28711 2.50005C5.28711 2.64502 5.40463 2.76255 5.54961 2.76255Z" fill="#FFD83D" stroke="black" stroke-width="0.09" stroke-linecap="round" stroke-linejoin="round"/>
<path d="M5.48242 2.24756V2.41256C5.42041 2.41554 5.35864 2.42222 5.29742 2.43256M5.80242 2.43256C5.74038 2.4221 5.67777 2.41542 5.61492 2.41256V2.24756M5.29492 2.56506C5.37915 2.55047 5.46444 2.54295 5.54992 2.54256C5.63492 2.54256 5.71992 2.55006 5.79992 2.56506" stroke="black" stroke-width="0.06" stroke-linecap="round" stroke-linejoin="round"/>
<path d="M5.29426 2.94238C5.26926 3.36738 5.21926 3.80488 5.05176 4.11988L5.32176 4.00988C5.41676 3.65238 5.43676 3.18988 5.46426 2.96988L5.29426 2.94238ZM5.80426 2.94238L5.63176 2.96988C5.66176 3.18988 5.68176 3.65238 5.77426 4.00988L6.04426 4.11988C5.87926 3.80488 5.82926 3.36988 5.80426 2.94238Z" fill="#FFD83D" stroke="black" stroke-width="0.09" stroke-linecap="round" stroke-linejoin="round"/>
<path d="M5.54957 3.86743C5.22457 3.86743 4.98707 4.01743 4.97457 4.40743C4.89457 4.26743 4.56207 3.83243 4.24957 3.88993C4.06457 3.92493 3.89957 4.18243 3.92957 4.47493C3.77457 4.03493 3.32707 3.96243 2.99707 4.22493C3.28957 4.46243 3.41957 5.16993 3.66457 5.47493H7.43207C7.67707 5.16993 7.80707 4.46243 8.09957 4.22493C7.77207 3.96243 7.32207 4.03493 7.16957 4.47493C7.19457 4.18243 7.03207 3.92493 6.84457 3.88993C6.53457 3.83243 6.20207 4.26743 6.12207 4.40743C6.10957 4.01993 5.87207 3.86743 5.54707 3.86743H5.54957Z" fill="#FFD83D" stroke="black" stroke-width="0.09" stroke-linecap="round" stroke-linejoin="round"/>
<path d="M7.42742 5.47495C7.42742 5.61495 6.58742 5.76745 5.54992 5.76745C4.51242 5.76745 3.66992 5.61745 3.66992 5.47495C3.66992 5.33745 4.51242 5.26245 5.54992 5.26245C6.58492 5.26245 7.42742 5.33745 7.42742 5.47495Z" fill="black" stroke="black" stroke-width="0.06" stroke-linecap="round" stroke-linejoin="round"/>
<path d="M5.54941 2.94746C5.59774 2.94746 5.63691 2.90829 5.63691 2.85996C5.63691 2.81164 5.59774 2.77246 5.54941 2.77246C5.50109 2.77246 5.46191 2.81164 5.46191 2.85996C5.46191 2.90829 5.50109 2.94746 5.54941 2.94746Z" fill="#FFD83D" stroke="black" stroke-width="0.06" stroke-linecap="round" stroke-linejoin="round"/>
<path d="M5.54953 3.14252C5.60062 3.14252 5.64203 3.10111 5.64203 3.05002C5.64203 2.99893 5.60062 2.95752 5.54953 2.95752C5.49844 2.95752 5.45703 2.99893 5.45703 3.05002C5.45703 3.10111 5.49844 3.14252 5.54953 3.14252Z" fill="#FFD83D" stroke="black" stroke-width="0.06" stroke-linecap="round" stroke-linejoin="round"/>
<path d="M5.54977 3.35734C5.60637 3.35734 5.65227 3.31145 5.65227 3.25484C5.65227 3.19823 5.60637 3.15234 5.54977 3.15234C5.49316 3.15234 5.44727 3.19823 5.44727 3.25484C5.44727 3.31145 5.49316 3.35734 5.54977 3.35734Z" fill="#FFD83D" stroke="black" stroke-width="0.06" stroke-linecap="round" stroke-linejoin="round"/>
<path d="M5.54914 3.59999C5.61403 3.59999 5.66664 3.54738 5.66664 3.48249C5.66664 3.4176 5.61403 3.36499 5.54914 3.36499C5.48425 3.36499 5.43164 3.4176 5.43164 3.48249C5.43164 3.54738 5.48425 3.59999 5.54914 3.59999Z" fill="#FFD83D" stroke="black" stroke-width="0.06" stroke-linecap="round" stroke-linejoin="round"/>
<path d="M5.54938 3.86242C5.61979 3.86242 5.67688 3.80534 5.67688 3.73492C5.67688 3.66451 5.61979 3.60742 5.54938 3.60742C5.47896 3.60742 5.42188 3.66451 5.42188 3.73492C5.42188 3.80534 5.47896 3.86242 5.54938 3.86242Z" fill="#FFD83D" stroke="black" stroke-width="0.06" stroke-linecap="round" stroke-linejoin="round"/>
<path d="M5.49962 3.97998C5.48463 3.97998 5.47213 3.99248 5.47463 4.01498L5.48963 4.12248C5.49463 4.15998 5.51462 4.14748 5.52213 4.12248C5.52712 4.09248 5.52463 4.07248 5.52713 4.01998C5.52713 3.99248 5.51213 3.97998 5.49712 3.97998H5.49962ZM5.59963 3.97998C5.58463 3.97998 5.57212 3.99248 5.57212 4.01998C5.57212 4.07248 5.57213 4.09248 5.57713 4.11998C5.58213 4.14998 5.60212 4.15998 5.60962 4.11998L5.62212 4.01498C5.62712 3.98998 5.61213 3.97998 5.59963 3.97998ZM5.40713 3.99498C5.40049 3.99498 5.39414 3.99761 5.38945 4.0023C5.38476 4.00699 5.38213 4.01335 5.38213 4.01998C5.38213 4.04498 5.38963 4.07748 5.39212 4.11498C5.39713 4.15248 5.42463 4.13998 5.42713 4.11498C5.42713 4.09498 5.43213 4.05998 5.42713 4.01748C5.42713 4.00248 5.42213 3.99498 5.41213 3.99248C5.41047 3.99227 5.40879 3.99227 5.40713 3.99248V3.99498ZM5.68462 3.99498C5.67712 3.99498 5.66963 4.00248 5.66712 4.01998C5.66578 4.05173 5.66746 4.08354 5.67212 4.11498C5.67212 4.13998 5.70213 4.15248 5.70462 4.11498C5.70462 4.07748 5.71463 4.04748 5.71463 4.02248C5.71463 4.00748 5.70213 3.99748 5.68963 3.99498C5.68797 3.99477 5.68629 3.99477 5.68462 3.99498ZM5.29963 4.03748C5.28713 4.03998 5.27463 4.05498 5.27962 4.06998C5.28712 4.10248 5.29463 4.13748 5.29463 4.16998C5.29463 4.19748 5.31713 4.18748 5.31963 4.16998C5.32157 4.13668 5.32241 4.10333 5.32212 4.06998C5.32212 4.04498 5.30962 4.03498 5.29712 4.03748H5.29963ZM5.78963 4.03748C5.78213 4.03998 5.77463 4.04998 5.77463 4.06998L5.77962 4.16998C5.77962 4.18748 5.80463 4.19748 5.80463 4.16998C5.80463 4.13748 5.80962 4.10248 5.81713 4.06998C5.82212 4.05498 5.80963 4.03998 5.79963 4.03748C5.79717 4.03685 5.79458 4.03685 5.79212 4.03748H5.78963ZM4.31463 4.04248C4.29963 4.04248 4.28963 4.05998 4.29963 4.07998C4.31463 4.11498 4.33212 4.13498 4.34712 4.16998C4.35962 4.20248 4.38213 4.18248 4.37463 4.15998L4.33963 4.06748C4.33213 4.04998 4.32213 4.04248 4.31463 4.04248ZM6.78462 4.04248C6.77462 4.04248 6.76712 4.04998 6.75962 4.06748C6.73712 4.11498 6.72962 4.13748 6.72212 4.15998C6.71712 4.18498 6.73713 4.20248 6.75213 4.16998L6.79712 4.07998C6.80712 4.05998 6.79712 4.04248 6.78462 4.04248ZM4.41463 4.04248C4.40213 4.04748 4.39713 4.05998 4.40213 4.07498C4.41713 4.10498 4.43462 4.13748 4.44712 4.16998C4.45712 4.19748 4.48212 4.18998 4.47212 4.16498L4.44712 4.07248C4.43712 4.04748 4.42213 4.03998 4.41463 4.04248ZM6.67713 4.04248C6.66713 4.04498 6.65713 4.05498 6.65213 4.07248C6.63463 4.12248 6.63213 4.13748 6.62462 4.16498C6.61462 4.18998 6.63963 4.19748 6.64963 4.16998L6.69462 4.07498C6.69962 4.05998 6.69462 4.04748 6.68462 4.04248C6.68217 4.04185 6.67958 4.04185 6.67713 4.04248ZM4.53963 4.06748C4.52463 4.06998 4.51463 4.08998 4.52463 4.11498C4.53463 4.14498 4.54963 4.17248 4.56463 4.20748C4.57963 4.24248 4.60212 4.23498 4.59712 4.21248C4.58962 4.18998 4.58463 4.15498 4.56712 4.09998C4.55962 4.07498 4.54963 4.06498 4.53963 4.06748ZM6.55962 4.06748C6.54962 4.06748 6.53713 4.07498 6.52963 4.09998C6.51463 4.15498 6.50463 4.18998 6.50213 4.21248C6.49463 4.23748 6.51962 4.24248 6.53212 4.20748C6.54712 4.17248 6.56212 4.14498 6.57212 4.11498C6.58212 4.08998 6.57212 4.06998 6.55962 4.06748ZM4.22962 4.08498C4.21462 4.08498 4.20463 4.10998 4.21213 4.12748C4.22462 4.15248 4.23462 4.16248 4.24712 4.19248C4.26212 4.22248 4.27712 4.19998 4.27212 4.17998C4.26462 4.15998 4.25713 4.13748 4.25213 4.10998C4.24713 4.08998 4.23713 4.08498 4.22713 4.08498H4.22962ZM6.86962 4.08498C6.85962 4.08498 6.85212 4.08998 6.84462 4.10998L6.82713 4.17998C6.82213 4.19998 6.83713 4.22248 6.85213 4.19248C6.86463 4.16248 6.87213 4.15498 6.88713 4.12748C6.89463 4.10998 6.88212 4.08748 6.86962 4.08498ZM5.19463 4.15498C5.17713 4.15498 5.16213 4.17498 5.16963 4.19248C5.17463 4.22248 5.18962 4.24748 5.19712 4.28498C5.20712 4.31748 5.22963 4.30248 5.22713 4.27998C5.22531 4.2464 5.22113 4.21298 5.21463 4.17998C5.20963 4.16248 5.20212 4.15498 5.19212 4.15498H5.19463ZM5.90462 4.15498C5.89713 4.15498 5.88713 4.16248 5.88462 4.17998C5.87728 4.21292 5.87227 4.24634 5.86963 4.27998C5.86963 4.30248 5.89213 4.31748 5.89963 4.28498L5.92963 4.19248C5.93462 4.17498 5.91963 4.15498 5.90462 4.15498ZM5.54963 4.18498C5.52962 4.18498 5.52713 4.20998 5.52713 4.22748C5.5256 4.28442 5.50829 4.33981 5.47713 4.38748C5.45213 4.41748 5.41963 4.40998 5.38963 4.39248C5.36055 4.37663 5.33294 4.35823 5.30713 4.33748C5.27213 4.31248 5.24713 4.32748 5.28713 4.38498C5.40213 4.54998 5.52713 4.68998 5.52713 4.95998C5.52713 4.99248 5.53463 5.00248 5.54963 5.00248C5.56463 5.00248 5.56963 4.99248 5.56963 4.95748C5.56963 4.68998 5.69462 4.54998 5.80962 4.38248C5.84962 4.32748 5.82463 4.31248 5.79212 4.33748C5.76642 4.35838 5.7388 4.37679 5.70963 4.39248C5.67712 4.40998 5.64462 4.41748 5.62212 4.38748C5.59096 4.33981 5.57365 4.28442 5.57212 4.22748C5.56962 4.20998 5.56712 4.18498 5.54712 4.18498H5.54963ZM4.66712 4.14498C4.66547 4.1447 4.66378 4.1447 4.66212 4.14498C4.65463 4.14748 4.65213 4.15498 4.65462 4.16998L4.68213 4.26748C4.68963 4.29248 4.71713 4.28498 4.71213 4.25498L4.69712 4.17748C4.69212 4.15748 4.67712 4.14498 4.66712 4.14498ZM6.43212 4.14498C6.41962 4.14498 6.40713 4.15748 6.40213 4.17748C6.39213 4.21248 6.39213 4.22248 6.38713 4.25248C6.37963 4.28498 6.40963 4.28998 6.41463 4.26748L6.44462 4.16748C6.44462 4.15498 6.44212 4.14748 6.43462 4.14498C6.43297 4.1447 6.43128 4.1447 6.42963 4.14498H6.43212ZM4.14212 4.15498C4.12712 4.15498 4.11713 4.17498 4.13213 4.19998C4.14713 4.22998 4.17463 4.26498 4.18713 4.28748C4.19963 4.30748 4.22213 4.29248 4.20713 4.26748C4.19213 4.24248 4.18712 4.20998 4.16712 4.17248C4.16547 4.16721 4.16213 4.16264 4.1576 4.15947C4.15308 4.15631 4.14764 4.15473 4.14212 4.15498ZM6.95463 4.15498C6.94713 4.15498 6.93713 4.15998 6.92963 4.17248C6.91213 4.20998 6.90463 4.23998 6.89213 4.26748C6.87713 4.29248 6.89713 4.30748 6.90962 4.28748C6.92212 4.26498 6.94963 4.22998 6.96463 4.19998C6.97963 4.17498 6.96963 4.15498 6.95463 4.15498ZM3.34963 4.23748C3.33463 4.23748 3.32963 4.26748 3.34463 4.28748C3.36404 4.31205 3.38581 4.33465 3.40962 4.35498C3.42962 4.37498 3.43463 4.34998 3.42463 4.32998L3.37962 4.26248C3.36712 4.24498 3.35713 4.23748 3.34963 4.23748ZM7.74713 4.23748C7.73962 4.23748 7.72962 4.24498 7.71962 4.26248L7.67212 4.32998C7.66213 4.34998 7.66713 4.37498 7.68963 4.35498C7.71346 4.33468 7.73524 4.31207 7.75463 4.28748C7.76963 4.26748 7.76463 4.23748 7.74713 4.23748ZM3.47713 4.26248C3.46213 4.26248 3.45213 4.27248 3.46463 4.29498L3.51213 4.38998C3.52463 4.41498 3.56212 4.42248 3.54712 4.38498L3.51463 4.28998C3.50713 4.27248 3.48963 4.26498 3.47713 4.26498V4.26248ZM7.62213 4.26248C7.60712 4.26248 7.58962 4.27248 7.58212 4.28998L7.55213 4.38498C7.53713 4.42248 7.57463 4.41498 7.58713 4.38998C7.59963 4.36498 7.61962 4.32748 7.63212 4.29498C7.64462 4.27248 7.63462 4.26248 7.62213 4.26248ZM3.23213 4.27248C3.21213 4.27248 3.21212 4.28998 3.22962 4.30248C3.25212 4.31998 3.27962 4.33748 3.30462 4.35998C3.33712 4.38498 3.34712 4.35998 3.32962 4.33998C3.31462 4.31998 3.29963 4.29998 3.25713 4.27748C3.24713 4.27248 3.23963 4.27248 3.23213 4.27248ZM7.86463 4.27248C7.85963 4.27248 7.84963 4.27248 7.83963 4.27748C7.79963 4.29998 7.78213 4.31998 7.76463 4.33998C7.74963 4.36248 7.76213 4.38498 7.79213 4.35998C7.81713 4.33748 7.84713 4.31998 7.86713 4.30248C7.88713 4.28998 7.88463 4.27248 7.86713 4.27248H7.86463ZM5.12463 4.28998C5.11213 4.28998 5.10463 4.30248 5.10713 4.31998L5.13213 4.40998C5.13713 4.43748 5.16963 4.43748 5.16463 4.40998C5.15963 4.38498 5.15712 4.35248 5.14712 4.31248C5.14462 4.29748 5.13713 4.28998 5.12713 4.28748C5.12629 4.28741 5.12546 4.28741 5.12463 4.28748V4.28998ZM5.96963 4.28998C5.96213 4.28998 5.95463 4.29748 5.94963 4.31498C5.93963 4.35248 5.93713 4.38498 5.93213 4.41248C5.92713 4.43748 5.95963 4.43748 5.96463 4.40998L5.98963 4.31998C5.99463 4.30248 5.98463 4.28998 5.97463 4.28998C5.97297 4.2897 5.97128 4.2897 5.96963 4.28998ZM4.36963 4.23998C4.36213 4.23998 4.35713 4.25748 4.36463 4.28248C4.39114 4.35453 4.40468 4.43071 4.40462 4.50748C4.39713 4.53748 4.37963 4.53998 4.35713 4.53248C4.3326 4.52038 4.30918 4.50616 4.28712 4.48998C4.26713 4.47748 4.24462 4.49248 4.27463 4.51748C4.42463 4.64248 4.53212 4.78498 4.57463 4.95748C4.57963 4.99248 4.60212 4.99748 4.59712 4.95748C4.56212 4.73998 4.55463 4.55998 4.60713 4.44998C4.62713 4.40748 4.60713 4.36748 4.57713 4.43498C4.55463 4.47998 4.52213 4.49748 4.49463 4.45998C4.45554 4.39897 4.42207 4.33454 4.39463 4.26748C4.38963 4.24998 4.38213 4.24248 4.37463 4.23998C4.3738 4.23984 4.37295 4.23984 4.37212 4.23998H4.36963ZM6.72212 4.23998C6.71462 4.23998 6.70713 4.24998 6.70213 4.26498C6.68463 4.31498 6.62963 4.41998 6.60213 4.45998C6.57463 4.49998 6.54212 4.47998 6.52213 4.43498C6.48962 4.36748 6.47213 4.40748 6.48963 4.44998C6.54213 4.55998 6.53463 4.73998 6.50213 4.95748C6.49463 4.99748 6.51713 4.99248 6.52713 4.95748C6.57336 4.7819 6.67726 4.62694 6.82212 4.51748C6.85212 4.49248 6.82962 4.47748 6.80962 4.49248C6.78744 4.50702 6.76402 4.51957 6.73963 4.52998C6.71463 4.53998 6.69963 4.53748 6.69213 4.50498C6.68713 4.47498 6.69712 4.40748 6.73462 4.27998C6.73962 4.25998 6.73463 4.24248 6.72713 4.23998C6.72551 4.23941 6.72374 4.23941 6.72212 4.23998ZM3.60962 4.29998C3.59712 4.29998 3.58462 4.30998 3.59212 4.32998C3.60212 4.36498 3.62212 4.39998 3.62962 4.41998C3.63712 4.44248 3.65962 4.43248 3.65462 4.40248L3.64212 4.32498C3.64212 4.30998 3.62462 4.29998 3.60962 4.29998ZM7.48712 4.29998C7.47213 4.29998 7.45713 4.30998 7.45463 4.32498L7.44462 4.40248C7.43962 4.43248 7.46212 4.44248 7.46962 4.41998C7.47462 4.39998 7.49463 4.36498 7.50463 4.32998C7.51213 4.30998 7.50213 4.29998 7.48712 4.29998ZM4.07962 4.25748C4.06462 4.25498 4.06213 4.29498 4.07463 4.31248L4.14463 4.38998C4.16463 4.41498 4.17713 4.39248 4.16463 4.37248L4.09963 4.27748C4.09212 4.26498 4.08462 4.25748 4.07962 4.25748ZM7.01713 4.25748C7.01213 4.25748 7.00462 4.26498 6.99712 4.27748L6.93212 4.37248C6.91962 4.39248 6.93213 4.41498 6.95463 4.38998L7.02213 4.31248C7.03462 4.29498 7.03463 4.25498 7.01713 4.25748ZM3.71712 4.35748C3.70712 4.35748 3.69962 4.36248 3.70462 4.38248C3.70962 4.41248 3.71712 4.43248 3.72463 4.45998C3.73213 4.48498 3.74963 4.48248 3.74963 4.45748L3.74212 4.37748C3.74104 4.37149 3.73799 4.36603 3.73347 4.36196C3.72894 4.35789 3.72319 4.35544 3.71712 4.35498V4.35748ZM7.37963 4.35748C7.37378 4.35736 7.36807 4.3593 7.3635 4.36295C7.35894 4.36661 7.35579 4.37175 7.35463 4.37748L7.34713 4.45748C7.34713 4.48248 7.36713 4.48748 7.37213 4.45998L7.39462 4.38498C7.39962 4.36248 7.38963 4.35498 7.37963 4.35498V4.35748ZM4.04463 4.39248C4.02963 4.39248 4.01712 4.40998 4.03462 4.43248C4.06212 4.46998 4.09463 4.49498 4.10713 4.50748C4.11713 4.52248 4.14463 4.51748 4.12713 4.48998L4.06963 4.40248C4.06463 4.39248 4.05463 4.38998 4.04463 4.39248ZM7.04462 4.39248C7.03962 4.39248 7.03213 4.39498 7.02963 4.40248L6.96962 4.48998C6.95212 4.51748 6.97963 4.52248 6.99213 4.50998C7.00213 4.49498 7.03463 4.46998 7.06463 4.43248C7.08213 4.40748 7.06713 4.39248 7.05213 4.39248C7.05046 4.39229 7.04879 4.39229 7.04712 4.39248H7.04462ZM3.52713 4.49498C3.51713 4.49498 3.51213 4.50498 3.52713 4.52748C3.56573 4.57431 3.59387 4.62887 3.60962 4.68748C3.61212 4.72248 3.59713 4.72248 3.58213 4.72248C3.53463 4.72248 3.51212 4.68748 3.47212 4.67748C3.42962 4.66998 3.42213 4.68998 3.45213 4.71248C3.59542 4.8031 3.72014 4.92019 3.81963 5.05748C3.84463 5.10498 3.87712 5.11998 3.85962 5.07748C3.81105 4.97999 3.79029 4.871 3.79963 4.76248C3.81213 4.69248 3.82963 4.64748 3.82713 4.60748C3.82713 4.56998 3.80213 4.57248 3.79463 4.60748L3.76963 4.67748C3.75963 4.68998 3.72463 4.69748 3.69463 4.65498C3.65211 4.60281 3.60528 4.5543 3.55462 4.50998C3.54712 4.50248 3.53712 4.49748 3.52962 4.49498H3.52713ZM7.56962 4.49498C7.56212 4.49498 7.55213 4.49998 7.54213 4.50998C7.49236 4.55442 7.44637 4.60292 7.40463 4.65498C7.37213 4.69748 7.33713 4.68998 7.32963 4.67998C7.31822 4.65698 7.30982 4.63262 7.30463 4.60748C7.29463 4.57248 7.27212 4.56998 7.26962 4.60748C7.26962 4.64748 7.28463 4.69248 7.29712 4.76248C7.30963 4.83248 7.29713 4.94248 7.23963 5.07748C7.21962 5.11998 7.25463 5.10248 7.27963 5.05748C7.37818 4.92026 7.50208 4.80316 7.64462 4.71248C7.67462 4.68998 7.66963 4.66998 7.62713 4.67748C7.58463 4.68748 7.56213 4.72248 7.51713 4.72248C7.50213 4.72248 7.48462 4.72248 7.48712 4.68748C7.48962 4.65498 7.53212 4.57748 7.56962 4.52748C7.58462 4.50248 7.58212 4.49498 7.56962 4.49498Z" fill="black"/>
<path d="M3.75195 5.31745L3.80195 5.46995L3.75195 5.31745ZM3.85195 5.28745L3.89695 5.44245L3.85195 5.28745ZM3.96195 5.26745L3.99195 5.42745L3.96195 5.26745ZM4.06195 5.24995L4.09445 5.40745L4.06195 5.24995ZM4.18945 5.23745L4.21445 5.39745L4.18945 5.23745ZM4.32695 5.23745L4.35445 5.39495L4.32695 5.23745ZM4.46195 5.19245L4.48195 5.35245L4.46195 5.19245ZM4.58695 5.19995L4.60695 5.35995L4.58695 5.19995ZM4.70945 5.18495L4.72945 5.34495L4.70945 5.18495ZM4.82945 5.16995L4.84195 5.33245L4.82945 5.16995ZM4.96195 5.16995L4.97195 5.33245L4.96195 5.16995ZM5.08195 5.16245L5.08945 5.32495L5.08195 5.16245ZM5.21195 5.15495L5.21945 5.31495L5.21195 5.15495ZM5.36195 5.14995L5.36945 5.31245L5.36195 5.14995ZM7.34445 5.31745L7.29445 5.46995L7.34445 5.31745ZM7.24445 5.28745L7.20195 5.44245L7.24445 5.28745ZM7.13695 5.26745L7.10695 5.42745L7.13695 5.26745ZM7.03695 5.24995L7.00445 5.40745L7.03695 5.24995ZM6.90445 5.23745L6.87945 5.39745L6.90445 5.23745ZM6.76945 5.23745L6.74195 5.39745L6.76945 5.23745ZM6.63695 5.19245L6.61695 5.35245L6.63695 5.19245ZM6.50945 5.19995L6.48945 5.35995L6.50945 5.19995ZM6.38945 5.18495L6.36695 5.34495L6.38945 5.18495ZM6.26695 5.16995L6.25445 5.33245L6.26695 5.16995ZM6.13445 5.16995L6.12445 5.33245L6.13445 5.16995ZM6.01695 5.16245L6.00945 5.32495L6.01695 5.16245ZM5.88445 5.15495L5.87945 5.31495L5.88445 5.15495ZM5.73445 5.14995L5.72945 5.31245L5.73445 5.14995ZM5.54945 5.13745V5.31745V5.13745Z" fill="#FFD83D"/>
<path d="M3.75195 5.31745L3.80195 5.46995M3.85195 5.28745L3.89695 5.44245M3.96195 5.26745L3.99195 5.42745M4.06195 5.24995L4.09445 5.40745M4.18945 5.23745L4.21445 5.39745M4.32695 5.23745L4.35445 5.39495M4.46195 5.19245L4.48195 5.35245M4.58695 5.19995L4.60695 5.35995M4.70945 5.18495L4.72945 5.34495M4.82945 5.16995L4.84195 5.33245M4.96195 5.16995L4.97195 5.33245M5.08195 5.16245L5.08945 5.32495M5.21195 5.15495L5.21945 5.31495M5.36195 5.14995L5.36945 5.31245M7.34445 5.31745L7.29445 5.46995M7.24445 5.28745L7.20195 5.44245M7.13695 5.26745L7.10695 5.42745M7.03695 5.24995L7.00445 5.40745M6.90445 5.23745L6.87945 5.39745M6.76945 5.23745L6.74195 5.39745M6.63695 5.19245L6.61695 5.35245M6.50945 5.19995L6.48945 5.35995M6.38945 5.18495L6.36695 5.34495M6.26695 5.16995L6.25445 5.33245M6.13445 5.16995L6.12445 5.33245M6.01695 5.16245L6.00945 5.32495M5.88445 5.15495L5.87945 5.31495M5.73445 5.14995L5.72945 5.31245M5.54945 5.13745V5.31745" stroke="black" stroke-width="0.06" stroke-linecap="round" stroke-linejoin="round"/>
</g>
<defs>
<clipPath id="clip0_202_3756">
<rect width="20" height="15" fill="white"/>
</clipPath>
</defs>
</svg>
