<svg width="20" height="15" viewBox="0 0 20 15" fill="none" xmlns="http://www.w3.org/2000/svg">
<g clip-path="url(#clip0_202_3807)">
<path d="M0 0H20V15H0V0Z" fill="#CC0000"/>
<path d="M0.015625 1.24683H19.9844V2.44683H0.015625V1.24683ZM0.015625 3.7062H19.9844V4.9062H0.015625V3.7062ZM0.015625 6.1687H19.9844V7.3687H0.015625V6.1687Z" fill="white"/>
<path d="M0 0.015625H10V8.76562H0V0.015625Z" fill="#000066"/>
<path d="M6.48436 2.30625L6.67186 3.57813L7.39061 2.51563L7.00311 3.74063L8.11248 3.09063L7.23436 4.02813L8.51561 3.92813L7.31873 4.39063L8.51561 4.85313L7.23436 4.75313L8.11248 5.69063L7.00311 5.04063L7.38748 6.26875L6.66873 5.20313L6.48123 6.475L6.29686 5.20313L5.57811 6.26563L5.96561 5.04063L4.85623 5.69063L5.73123 4.75313L4.44998 4.85313L5.64998 4.39063L4.45311 3.92813L5.73436 4.02813L4.85623 3.09063L5.96561 3.74063L5.57811 2.5125L6.29686 3.57813L6.48436 2.30625ZM5.44373 2.35938C5.10547 2.20943 4.73512 2.14633 4.36629 2.17581C3.99746 2.20529 3.64183 2.32642 3.33168 2.52819C3.02153 2.72996 2.76668 3.00599 2.59026 3.33123C2.41384 3.65647 2.32144 4.02062 2.32144 4.39063C2.32144 4.76063 2.41384 5.12478 2.59026 5.45002C2.76668 5.77526 3.02153 6.05129 3.33168 6.25306C3.64183 6.45483 3.99746 6.57596 4.36629 6.60544C4.73512 6.63492 5.10547 6.57182 5.44373 6.42188C5.07015 6.68992 4.62988 6.84974 4.17135 6.88377C3.71282 6.9178 3.25379 6.82472 2.84473 6.61476C2.43567 6.4048 2.09244 6.08609 1.85279 5.6937C1.61313 5.30131 1.48633 4.85042 1.48633 4.39063C1.48633 3.93083 1.61313 3.47995 1.85279 3.08755C2.09244 2.69516 2.43567 2.37646 2.84473 2.1665C3.25379 1.95654 3.71282 1.86345 4.17135 1.89748C4.62988 1.93151 5.07015 2.09133 5.44373 2.35938Z" fill="#FFCC00"/>
<path d="M0.015625 8.63135H19.9844V9.83135H0.015625V8.63135ZM0.015625 11.0751H19.9844V12.2751H0.015625V11.0751ZM0 13.8001H19.9688V15.0001H0V13.8001Z" fill="white"/>
</g>
<defs>
<clipPath id="clip0_202_3807">
<rect width="20" height="15" fill="white"/>
</clipPath>
</defs>
</svg>
