<svg width="20" height="15" viewBox="0 0 20 15" fill="none" xmlns="http://www.w3.org/2000/svg">
<g clip-path="url(#clip0_202_3686)">
<path d="M0 0H20V15H0V0Z" fill="#D21034"/>
<path d="M3.75 3.75H16.25V11.25H3.75V3.75Z" fill="#007E3A"/>
<path d="M10.9375 10C12.3182 10 13.4375 8.88071 13.4375 7.5C13.4375 6.11929 12.3182 5 10.9375 5C9.55679 5 8.4375 6.11929 8.4375 7.5C8.4375 8.88071 9.55679 10 10.9375 10Z" fill="white"/>
<path d="M11.875 10C13.2557 10 14.375 8.88071 14.375 7.5C14.375 6.11929 13.2557 5 11.875 5C10.4943 5 9.375 6.11929 9.375 7.5C9.375 8.88071 10.4943 10 11.875 10Z" fill="#007E3A"/>
</g>
<defs>
<clipPath id="clip0_202_3686">
<rect width="20" height="15" fill="white"/>
</clipPath>
</defs>
</svg>
