<svg width="20" height="15" viewBox="0 0 20 15" fill="none" xmlns="http://www.w3.org/2000/svg">
<g clip-path="url(#clip0_202_3727)">
<path d="M0 0H20V15H0V0Z" fill="white"/>
<path d="M10 0H20V15H10V0Z" fill="#CF142B"/>
<path d="M2.20006 0.868164H3.34291V1.95377C3.38629 1.95069 3.43106 1.95782 3.47375 1.9746C3.51645 1.99139 3.55592 2.01738 3.58909 2.05056C3.62227 2.08373 3.64826 2.1232 3.66504 2.1659C3.68183 2.20859 3.68896 2.25336 3.68588 2.29674H4.77148V3.43959H3.68588C3.68896 3.48297 3.68183 3.52774 3.66504 3.57043C3.64826 3.61313 3.62227 3.6526 3.58909 3.68577C3.55592 3.71895 3.51645 3.74494 3.47375 3.76172C3.43106 3.77851 3.38629 3.78564 3.34291 3.78256V4.86816H2.20006V3.78256C2.15668 3.78564 2.11191 3.77851 2.06922 3.76172C2.02652 3.74494 1.98705 3.71895 1.95388 3.68577C1.9207 3.6526 1.89471 3.61313 1.87793 3.57043C1.86114 3.52774 1.85401 3.48297 1.85709 3.43959H0.771484V2.29674H1.85709C1.85401 2.25336 1.86114 2.20859 1.87793 2.1659C1.89471 2.1232 1.9207 2.08373 1.95388 2.05056C1.98705 2.01738 2.02652 1.99139 2.06922 1.9746C2.11191 1.95782 2.15668 1.95069 2.20006 1.95377V0.868164Z" stroke="#CF142B" stroke-width="0.15"/>
<path d="M3.33627 1.95438C3.38056 1.95015 3.42655 1.95666 3.4705 1.97338C3.51445 1.99011 3.5551 2.01657 3.58915 2.05061C3.62319 2.08466 3.64965 2.12531 3.66638 2.16926C3.6831 2.21321 3.68962 2.2592 3.68538 2.30349V3.43295C3.68962 3.47724 3.6831 3.52323 3.66638 3.56718C3.64965 3.61113 3.62319 3.65178 3.58915 3.68583C3.5551 3.71987 3.51445 3.74633 3.4705 3.76306C3.42655 3.77978 3.38056 3.78629 3.33627 3.78206H2.20681C2.16252 3.78629 2.11653 3.77978 2.07258 3.76306C2.02863 3.74633 1.98798 3.71987 1.95393 3.68583C1.91989 3.65178 1.89343 3.61113 1.8767 3.56718C1.85998 3.52323 1.85347 3.47724 1.8577 3.43295V2.30349C1.85347 2.2592 1.85998 2.21321 1.8767 2.16926C1.89343 2.12531 1.91989 2.08466 1.95393 2.05061C1.98798 2.01657 2.02863 1.99011 2.07258 1.97338C2.11653 1.95666 2.16252 1.95015 2.20681 1.95438H3.33627Z" fill="white"/>
<path d="M2.20592 0.875H3.33538V4.86161H2.20592V0.875ZM0.777344 2.30357H4.76395V3.43304H0.777344V2.30357Z" fill="white" stroke="black" stroke-width="0.03"/>
<path d="M2.27135 0.939453H3.27135V4.7966H2.27135V0.939453ZM0.842773 2.36802H4.69992V3.36802H0.842773V2.36802Z" fill="white" stroke="black" stroke-width="0.03"/>
<path d="M2.77176 3.76106C3.26487 3.76106 3.66462 3.36131 3.66462 2.8682C3.66462 2.37509 3.26487 1.97534 2.77176 1.97534C2.27865 1.97534 1.87891 2.37509 1.87891 2.8682C1.87891 3.36131 2.27865 3.76106 2.77176 3.76106Z" fill="white" stroke="black" stroke-width="0.03"/>
<path d="M2.77204 3.52895C3.13694 3.52895 3.43276 3.23314 3.43276 2.86823C3.43276 2.50333 3.13694 2.20752 2.77204 2.20752C2.40714 2.20752 2.11133 2.50333 2.11133 2.86823C2.11133 3.23314 2.40714 3.52895 2.77204 3.52895Z" fill="white" stroke="black" stroke-width="0.03"/>
<path d="M3.631 2.15241C3.60003 2.17613 3.54116 2.23668 3.50544 2.28104L3.47224 2.26039C3.51772 2.22105 3.58078 2.16274 3.61565 2.12116L3.631 2.15241ZM3.60282 2.1008C3.54674 2.11726 3.43959 2.14879 3.39383 2.1778L3.38379 2.1633C3.40304 2.13567 3.4248 2.02211 3.42397 1.98975L3.45884 1.99756C3.44741 2.02546 3.43624 2.08517 3.43318 2.12395C3.46917 2.11754 3.55455 2.08963 3.57882 2.07206L3.60282 2.1008Z" fill="white" stroke="black" stroke-width="0.03" stroke-linejoin="round"/>
<path d="M3.67596 2.22862H3.63171C3.63567 2.20525 3.62932 2.17599 3.61369 2.14556C3.59807 2.11514 3.57408 2.08534 3.54562 2.06099C3.51716 2.03664 3.48589 2.01917 3.45688 2.01142C3.42787 2.00366 3.40282 2.00607 3.38579 2.01825C3.36876 2.03043 3.36074 2.05167 3.36304 2.07853C3.36534 2.10539 3.37782 2.1363 3.39846 2.16624C3.41909 2.19619 3.44668 2.22341 3.47674 2.24351C3.50681 2.26361 3.53759 2.2754 3.5641 2.27697L3.59538 2.23967L3.63391 2.2782L3.59081 2.32128C3.5506 2.31531 3.51104 2.30086 3.47479 2.27893C3.43854 2.257 3.40645 2.22809 3.38069 2.19416C3.35492 2.16022 3.33608 2.12205 3.32544 2.08223C3.3148 2.0424 3.31261 2.00185 3.31901 1.9633C3.35703 1.95699 3.39702 1.95903 3.43633 1.96931C3.47565 1.97958 3.51341 1.99785 3.54713 2.02291C3.58085 2.04797 3.60976 2.07926 3.63196 2.11472C3.65417 2.15017 3.66916 2.18899 3.67596 2.22862Z" fill="white" stroke="black" stroke-width="0.03" stroke-linejoin="round"/>
<path d="M3.48577 3.7289C3.46205 3.69793 3.40151 3.63906 3.35714 3.60334L3.37779 3.57014C3.41713 3.61562 3.47545 3.67868 3.51702 3.71355L3.48577 3.7289ZM3.53739 3.70072C3.52093 3.64464 3.4894 3.53749 3.46038 3.49173L3.47489 3.48169C3.50251 3.50094 3.61607 3.52271 3.64844 3.52187L3.64062 3.55675C3.61272 3.54531 3.55301 3.53414 3.51423 3.53108C3.52065 3.56707 3.54855 3.65245 3.56613 3.67672L3.53739 3.70072Z" fill="white" stroke="black" stroke-width="0.03" stroke-linejoin="round"/>
<path d="M3.40981 3.7724V3.72815C3.43317 3.7321 3.46244 3.72575 3.49287 3.71013C3.52329 3.6945 3.55309 3.67051 3.57744 3.64205C3.60179 3.61359 3.61925 3.58232 3.62701 3.55331C3.63477 3.52431 3.63236 3.49926 3.62018 3.48222C3.608 3.46519 3.58676 3.45718 3.5599 3.45948C3.53303 3.46178 3.50213 3.47425 3.47218 3.49489C3.44224 3.51553 3.41501 3.54311 3.39492 3.57318C3.37482 3.60324 3.36303 3.63403 3.36145 3.66054L3.39876 3.69182L3.36023 3.73035L3.31715 3.68724C3.32312 3.64704 3.33756 3.60747 3.3595 3.57123C3.38143 3.53498 3.41034 3.50289 3.44427 3.47712C3.47821 3.45136 3.51638 3.43252 3.5562 3.42188C3.59603 3.41124 3.63658 3.40905 3.67513 3.41545C3.68144 3.45347 3.6794 3.49345 3.66912 3.53277C3.65885 3.57209 3.64058 3.60985 3.61552 3.64356C3.59045 3.67728 3.55917 3.70619 3.52371 3.7284C3.48826 3.7506 3.44944 3.7656 3.40981 3.7724Z" fill="white" stroke="black" stroke-width="0.03" stroke-linejoin="round"/>
<path d="M1.91197 3.58367C1.94294 3.55995 2.00181 3.49941 2.03753 3.45504L2.07073 3.47569C2.02525 3.51503 1.96219 3.57335 1.92732 3.61492L1.91197 3.58367ZM1.94015 3.63529C1.99623 3.61883 2.10338 3.5873 2.14914 3.55828L2.15918 3.57279C2.13993 3.60041 2.11816 3.71397 2.119 3.74634L2.08412 3.73853C2.09556 3.71062 2.10672 3.65091 2.10979 3.61213C2.0738 3.61855 1.98842 3.64645 1.96415 3.66403L1.94015 3.63529Z" fill="white" stroke="black" stroke-width="0.03" stroke-linejoin="round"/>
<path d="M1.86798 3.50771H1.91224C1.90828 3.53107 1.91463 3.56034 1.93025 3.59077C1.94588 3.62119 1.96987 3.65099 1.99833 3.67534C2.02679 3.69969 2.05806 3.71715 2.08707 3.72491C2.11607 3.73267 2.14112 3.73026 2.15816 3.71808C2.17519 3.7059 2.1832 3.68466 2.1809 3.6578C2.17861 3.63093 2.16613 3.60003 2.14549 3.57009C2.12485 3.54014 2.09727 3.51292 2.0672 3.49282C2.03714 3.47272 2.00635 3.46093 1.97984 3.45935L1.94856 3.49666L1.91003 3.45813L1.95314 3.41505C1.99334 3.42102 2.03291 3.43546 2.06915 3.4574C2.1054 3.47933 2.13749 3.50824 2.16326 3.54217C2.18902 3.57611 2.20786 3.61428 2.2185 3.6541C2.22914 3.69393 2.23133 3.73448 2.22493 3.77303C2.18691 3.77934 2.14693 3.7773 2.10761 3.76702C2.06829 3.75675 2.03053 3.73848 1.99682 3.71342C1.9631 3.68835 1.93419 3.65707 1.91198 3.62161C1.88978 3.58616 1.87478 3.54734 1.86798 3.50771Z" fill="white" stroke="black" stroke-width="0.03" stroke-linejoin="round"/>
<path d="M2.05622 2.00767C2.07994 2.03864 2.14049 2.09752 2.18485 2.13323L2.1642 2.16643C2.12486 2.12095 2.06655 2.0579 2.02497 2.02302L2.05622 2.00767ZM2.0046 2.03585C2.02107 2.09194 2.05259 2.19908 2.08161 2.24484L2.0671 2.25488C2.03948 2.23563 1.92592 2.21387 1.89355 2.2147L1.90137 2.17983C1.92927 2.19127 1.98898 2.20243 2.02776 2.2055C2.02134 2.1695 1.99344 2.08412 1.97586 2.05985L2.0046 2.03585Z" fill="white" stroke="black" stroke-width="0.03" stroke-linejoin="round"/>
<path d="M2.13218 1.96393V2.00818C2.10882 2.00423 2.07955 2.01058 2.04913 2.0262C2.0187 2.04183 1.9889 2.06581 1.96455 2.09427C1.94021 2.12274 1.92274 2.154 1.91498 2.18301C1.90722 2.21202 1.90963 2.23707 1.92181 2.2541C1.93399 2.27113 1.95524 2.27915 1.9821 2.27685C2.00896 2.27455 2.03986 2.26207 2.06981 2.24144C2.09975 2.2208 2.12698 2.19321 2.14707 2.16315C2.16717 2.13308 2.17896 2.1023 2.18054 2.07579L2.14323 2.04451L2.18177 2.00598L2.22485 2.04909C2.21887 2.08929 2.20443 2.12885 2.1825 2.1651C2.16057 2.20135 2.13166 2.23344 2.09772 2.25921C2.06379 2.28497 2.02562 2.30381 1.98579 2.31445C1.94596 2.32509 1.90541 2.32728 1.86687 2.32088C1.86055 2.28286 1.8626 2.24287 1.87287 2.20356C1.88314 2.16424 1.90141 2.12648 1.92648 2.09276C1.95154 2.05905 1.98283 2.03013 2.01828 2.00793C2.05374 1.98572 2.09256 1.97073 2.13218 1.96393Z" fill="white" stroke="black" stroke-width="0.03" stroke-linejoin="round"/>
<path d="M2.06306 3.36775C2.04297 3.33259 2.01646 3.28767 2.00195 3.27595C2.01088 3.26981 2.02288 3.26088 2.02902 3.25921C2.02874 3.28153 2.0625 3.32785 2.0625 3.32785L2.11217 3.2952C2.09821 3.27372 2.08594 3.25725 2.07589 3.25084C2.08817 3.24191 2.10128 3.23437 2.10491 3.23354C2.10519 3.24442 2.11161 3.26256 2.13058 3.28488C2.13058 3.28488 2.1769 3.26032 2.19196 3.24135L2.2115 3.27316C2.18973 3.27734 2.09208 3.33817 2.06306 3.36775ZM1.99414 2.94448C1.94196 2.95396 1.91546 2.99833 1.92439 3.04827C1.93331 3.09877 1.97852 3.13337 2.02818 3.125C2.07785 3.11635 2.10603 3.07059 2.09654 3.01758C2.08705 2.96456 2.04632 2.93499 1.99414 2.94448ZM2.00167 2.97461C2.04353 2.96708 2.07868 2.98744 2.08454 3.01981C2.0904 3.05218 2.06445 3.08426 2.02232 3.0918C1.98019 3.09933 1.94671 3.07254 1.94196 3.04548C1.93694 3.01786 1.95954 2.98214 2.00167 2.97461ZM2.10379 2.66769C2.0865 2.69503 2.04827 2.72015 2.01451 2.7433C2.00977 2.71931 1.99191 2.70396 1.97126 2.70257C1.94922 2.70145 1.92662 2.71903 1.92271 2.73075C1.91713 2.74693 1.91016 2.81641 1.91016 2.81641C1.95368 2.81306 2.04883 2.82059 2.08147 2.83259L2.08538 2.79576C2.0639 2.80134 2.01535 2.79129 2.01535 2.79129L2.01646 2.77511L2.06669 2.73549C2.0731 2.73047 2.11077 2.69531 2.11189 2.6702C2.11217 2.66239 2.10547 2.66434 2.10379 2.66769ZM2.00307 2.79074C1.98326 2.79129 1.94196 2.78906 1.93052 2.78404C1.93499 2.74414 1.94727 2.72991 1.96847 2.73186C1.988 2.73382 2.00865 2.74498 2.00307 2.79074ZM2.19336 2.29632C2.15541 2.29939 2.10798 2.3351 2.1091 2.36579C2.10937 2.38198 2.11496 2.4043 2.13644 2.42048C2.15765 2.43666 2.17969 2.44141 2.19727 2.43806C2.21429 2.43499 2.24247 2.41127 2.24219 2.39816C2.24219 2.38532 2.21205 2.34961 2.19308 2.34961L2.22461 2.31585C2.2327 2.33538 2.26507 2.36384 2.27706 2.36747C2.26339 2.40011 2.24637 2.43415 2.21066 2.45061C2.17494 2.46735 2.13783 2.46652 2.10407 2.43471C2.07227 2.40458 2.08454 2.34654 2.10463 2.32394C2.12667 2.29911 2.16769 2.2885 2.16853 2.26925L2.19336 2.29632ZM2.37137 2.10854L2.37807 2.23521C2.37807 2.23521 2.38058 2.28013 2.37026 2.30804L2.4096 2.28041C2.39425 2.26814 2.39732 2.23047 2.39732 2.23047L2.46094 2.19643C2.46094 2.19643 2.49107 2.21568 2.488 2.23912L2.54213 2.21708C2.5106 2.20508 2.47154 2.17746 2.47154 2.17746L2.37137 2.10854ZM2.39174 2.14788L2.44978 2.18638L2.39314 2.2168L2.39174 2.14788ZM2.67578 2.01562C2.66853 2.0466 2.67634 2.1077 2.68778 2.15848C2.72712 2.15485 2.75725 2.15095 2.77065 2.13421L2.77427 2.17606C2.73549 2.17606 2.6928 2.18052 2.65374 2.18666C2.6543 2.12946 2.64844 2.05441 2.63225 2.02204L2.67578 2.01562ZM2.97126 2.03432C2.95312 2.06055 2.93806 2.12026 2.93025 2.1716C2.96819 2.18276 2.99777 2.19001 3.01646 2.17913L3.00446 2.21959C2.96847 2.20564 2.9269 2.19392 2.88839 2.18527C2.9096 2.13253 2.93164 2.06027 2.92857 2.02455L2.97126 2.03432ZM3.27009 2.16964L3.1596 2.23242C3.1596 2.23242 3.12054 2.25502 3.09096 2.25837L3.13309 2.28069C3.13728 2.26172 3.17243 2.24749 3.17243 2.24749L3.23158 2.28906C3.23158 2.28906 3.22768 2.32506 3.20536 2.33259L3.24916 2.37109C3.24609 2.33761 3.25307 2.2899 3.25307 2.2899L3.27009 2.16964ZM3.24386 2.20536L3.23521 2.27483L3.18248 2.23772L3.24386 2.20536ZM3.32868 2.4654L3.31138 2.43276C3.33984 2.43052 3.4255 2.3803 3.46484 2.35463L3.47098 2.36579L3.43415 2.53404C3.46708 2.52093 3.51925 2.49358 3.53348 2.47852L3.55301 2.51562C3.51646 2.51032 3.44866 2.54381 3.39732 2.57506L3.3923 2.56613L3.42383 2.40234C3.42383 2.40234 3.33873 2.44085 3.32868 2.4654ZM3.58817 2.70871C3.58482 2.68387 3.58426 2.66685 3.57227 2.66127L3.57087 2.65095L3.60128 2.64593C3.61384 2.67857 3.62807 2.76953 3.62612 2.79297L3.59487 2.79799L3.59347 2.78934C3.60379 2.77762 3.59347 2.73465 3.59347 2.73465C3.54715 2.7394 3.46652 2.75251 3.45508 2.76842L3.44782 2.72545C3.46429 2.73103 3.54548 2.72238 3.58817 2.70871ZM3.43834 3.07812C3.45564 3.05078 3.49442 3.02595 3.52818 3.00307C3.53292 3.02706 3.5505 3.04269 3.57143 3.04381C3.59347 3.0452 3.61607 3.02818 3.61998 3.01618C3.62584 3 3.63309 2.9308 3.63309 2.9308C3.58956 2.93359 3.4947 2.9255 3.46205 2.91323L3.45787 2.95006C3.47935 2.94475 3.5279 2.9548 3.5279 2.9548L3.52679 2.97098L3.47628 3.01032C3.46959 3.01535 3.43164 3.05022 3.43025 3.07533C3.42997 3.08315 3.43666 3.08092 3.43834 3.07812ZM3.54018 2.95564C3.55999 2.95536 3.60128 2.95787 3.61272 2.96289C3.60798 3.00279 3.59542 3.01702 3.57422 3.01479C3.55469 3.01256 3.53432 3.0014 3.54018 2.95564ZM3.38225 3.18889L3.35631 3.23354C3.37639 3.23047 3.4043 3.24637 3.4269 3.26116C3.43443 3.28125 3.46401 3.33259 3.46177 3.38281L3.49526 3.32533C3.48047 3.31864 3.46317 3.31138 3.45201 3.25753C3.49609 3.24107 3.52902 3.23577 3.54297 3.24358L3.57254 3.19336C3.53823 3.21401 3.45759 3.23521 3.4442 3.23075C3.43025 3.22266 3.39062 3.21038 3.38225 3.18889Z" fill="black"/>
<path d="M3.18429 3.5617C3.20355 3.5617 3.21917 3.54608 3.21917 3.52682C3.21917 3.50756 3.20355 3.49194 3.18429 3.49194C3.16503 3.49194 3.14941 3.50756 3.14941 3.52682C3.14941 3.54608 3.16503 3.5617 3.18429 3.5617Z" fill="black"/>
<path d="M2.36105 3.5617C2.38031 3.5617 2.39593 3.54608 2.39593 3.52682C2.39593 3.50756 2.38031 3.49194 2.36105 3.49194C2.34179 3.49194 2.32617 3.50756 2.32617 3.52682C2.32617 3.54608 2.34179 3.5617 2.36105 3.5617Z" fill="black"/>
<path d="M2.82626 3.71962C2.82263 3.72213 2.81287 3.71711 2.81064 3.7093C2.81064 3.71181 2.81008 3.71962 2.80533 3.72409C2.79389 3.73497 2.78162 3.72967 2.77185 3.72967C2.76209 3.72967 2.74981 3.73497 2.73837 3.72409C2.73363 3.71962 2.73307 3.71181 2.73307 3.7093C2.73084 3.71711 2.72107 3.72213 2.71744 3.71962C2.7141 3.71711 2.71577 3.70623 2.72247 3.70176C2.72023 3.70232 2.71242 3.70428 2.70684 3.70121C2.69289 3.69367 2.69429 3.68028 2.69122 3.67107C2.68815 3.66187 2.67922 3.65182 2.68619 3.63759C2.68898 3.63173 2.69624 3.62866 2.69847 3.62783C2.69038 3.6281 2.68285 3.62029 2.68396 3.61639C2.68536 3.6122 2.69624 3.61053 2.70266 3.61555C2.70098 3.6136 2.69708 3.6069 2.69819 3.60048C2.70098 3.58486 2.7141 3.58207 2.72191 3.57621C2.73 3.57035 2.7367 3.55891 2.75232 3.56114C2.75874 3.56198 2.76376 3.56784 2.76544 3.56979C2.76264 3.56226 2.76767 3.55249 2.77185 3.55249C2.77604 3.55249 2.78106 3.56226 2.77827 3.56979C2.77994 3.56784 2.78497 3.56198 2.79138 3.56114C2.80701 3.55891 2.81371 3.57035 2.8218 3.57621C2.82961 3.58207 2.84272 3.58486 2.84551 3.60048C2.84663 3.6069 2.84272 3.6136 2.84105 3.61555C2.84747 3.61053 2.85835 3.6122 2.85974 3.61639C2.86086 3.62029 2.85333 3.6281 2.84523 3.62783C2.84747 3.62866 2.85472 3.63173 2.85751 3.63759C2.86449 3.65182 2.85556 3.66187 2.85249 3.67107C2.84942 3.68028 2.85081 3.69367 2.83686 3.70121C2.83128 3.70428 2.82347 3.70232 2.82124 3.70176C2.82794 3.70623 2.82961 3.71711 2.82626 3.71962ZM2.7459 3.68056C2.75037 3.68391 2.73837 3.69395 2.74311 3.70651C2.74842 3.7213 2.7632 3.71683 2.77185 3.71683C2.7805 3.71683 2.79529 3.7213 2.80059 3.70651C2.80533 3.69395 2.79334 3.68391 2.7978 3.68056C2.80227 3.67721 2.8084 3.69172 2.82152 3.69144C2.83742 3.6906 2.8377 3.67554 2.84021 3.66717C2.843 3.6588 2.85193 3.64624 2.83937 3.63647C2.82905 3.6281 2.81538 3.63647 2.81371 3.63117C2.81203 3.62587 2.82766 3.62476 2.83156 3.61192C2.83575 3.59658 2.82124 3.59183 2.81426 3.58653C2.80701 3.58151 2.7978 3.56923 2.78469 3.57788C2.77381 3.58541 2.77743 3.60076 2.77185 3.60076C2.76627 3.60076 2.7699 3.58541 2.75902 3.57788C2.7459 3.56923 2.7367 3.58151 2.72944 3.58653C2.72247 3.59183 2.70796 3.59658 2.71214 3.61192C2.71605 3.62476 2.73167 3.62587 2.73 3.63117C2.72833 3.63647 2.71465 3.6281 2.70433 3.63647C2.69177 3.64624 2.7007 3.6588 2.70349 3.66717C2.706 3.67554 2.70628 3.6906 2.72219 3.69144C2.7353 3.69172 2.74144 3.67721 2.7459 3.68056Z" fill="black"/>
<path d="M2.77166 3.70016C2.76915 3.70016 2.76608 3.6943 2.76775 3.68956C2.76691 3.69095 2.76384 3.6943 2.75994 3.69486C2.75045 3.69625 2.74655 3.68928 2.7418 3.68593C2.73706 3.6823 2.72925 3.68063 2.72757 3.67142C2.72674 3.66752 2.72925 3.66333 2.73008 3.66221C2.72618 3.66528 2.71976 3.66417 2.71892 3.66166C2.71809 3.65942 2.72283 3.65468 2.72757 3.65468C2.72618 3.6544 2.72199 3.65245 2.72032 3.6491C2.71613 3.64045 2.72143 3.63459 2.72339 3.62901C2.72506 3.62343 2.72422 3.61534 2.73259 3.61087C2.73594 3.60892 2.74069 3.61004 2.74208 3.6106C2.7379 3.60781 2.73706 3.60139 2.73901 3.59971C2.74124 3.59832 2.7471 3.60139 2.7485 3.60585C2.7485 3.60446 2.74878 3.59971 2.75157 3.5972C2.75854 3.59051 2.7658 3.59385 2.77166 3.59385C2.77752 3.59385 2.78477 3.59051 2.79175 3.5972C2.79454 3.59971 2.79482 3.60446 2.79482 3.60585C2.79621 3.60139 2.80207 3.59832 2.8043 3.59971C2.80626 3.60139 2.80542 3.60781 2.80123 3.6106C2.80263 3.61004 2.80737 3.60892 2.81072 3.61087C2.81909 3.61534 2.81825 3.62343 2.81993 3.62901C2.82188 3.63459 2.82718 3.64045 2.823 3.6491C2.82132 3.65245 2.81714 3.6544 2.81574 3.65468C2.82049 3.65468 2.82523 3.65942 2.82439 3.66166C2.82355 3.66417 2.81714 3.66528 2.81323 3.66221C2.81407 3.66333 2.81658 3.66752 2.81574 3.67142C2.81407 3.68063 2.80626 3.6823 2.80151 3.68593C2.79677 3.68928 2.79286 3.69625 2.78338 3.69486C2.77947 3.6943 2.7764 3.69095 2.77556 3.68956C2.77724 3.6943 2.77417 3.70016 2.77166 3.70016ZM2.77166 3.66835C2.77473 3.66835 2.77277 3.67672 2.77863 3.68063C2.78561 3.68537 2.79063 3.67896 2.79454 3.67616C2.79844 3.67337 2.80626 3.67058 2.80374 3.66249C2.80179 3.65552 2.79342 3.65496 2.79426 3.65189C2.79509 3.6491 2.80235 3.65356 2.80821 3.6491C2.81491 3.6438 2.81016 3.6371 2.80877 3.63264C2.80709 3.62817 2.80709 3.6198 2.79844 3.61952C2.79119 3.61925 2.78812 3.62706 2.78561 3.62538C2.7831 3.62371 2.78979 3.61813 2.78728 3.61143C2.78421 3.60334 2.7764 3.60585 2.77166 3.60585C2.76691 3.60585 2.7591 3.60334 2.75603 3.61143C2.75352 3.61813 2.76022 3.62371 2.75771 3.62538C2.7552 3.62706 2.75213 3.61925 2.74487 3.61952C2.73622 3.6198 2.73622 3.62817 2.73455 3.63264C2.73315 3.6371 2.72841 3.6438 2.73511 3.6491C2.74097 3.65356 2.74822 3.6491 2.74906 3.65189C2.74989 3.65496 2.74152 3.65552 2.73957 3.66249C2.73706 3.67058 2.74487 3.67337 2.74878 3.67616C2.75268 3.67896 2.75771 3.68537 2.76468 3.68063C2.77054 3.67672 2.76859 3.66835 2.77166 3.66835Z" fill="black"/>
<path d="M2.77218 3.65813C2.77958 3.65813 2.78557 3.65214 2.78557 3.64474C2.78557 3.63734 2.77958 3.63135 2.77218 3.63135C2.76479 3.63135 2.75879 3.63734 2.75879 3.64474C2.75879 3.65214 2.76479 3.65813 2.77218 3.65813Z" fill="black"/>
<path d="M2.31543 3.34741C2.6185 3.33504 2.92195 3.33504 3.22503 3.34741" stroke="black" stroke-width="0.03" stroke-linecap="round" stroke-linejoin="round"/>
<path d="M2.73633 2.54053C2.75698 2.56341 2.75921 2.56927 2.75921 2.56927M2.79743 2.93283C2.79604 2.95654 2.79715 2.9811 2.80106 2.99365M2.74023 2.93673C2.74916 2.9465 2.76116 2.98026 2.75949 2.99282" stroke="black" stroke-width="0.03" stroke-linecap="round" stroke-linejoin="round"/>
<path d="M2.92852 3.34389C2.91764 3.34724 2.89867 3.35812 2.89894 3.36789C2.89922 3.37737 2.92154 3.37877 2.92824 3.38072C2.91624 3.38574 2.87802 3.393 2.861 3.38435C2.84872 3.3916 2.76111 3.37151 2.74325 3.37095C2.73209 3.37068 2.71619 3.36119 2.71814 3.3397C2.71842 3.33496 2.72149 3.32408 2.73209 3.32045C2.72595 3.30985 2.75302 3.29199 2.7798 3.27581C2.73963 3.28111 2.68912 3.26549 2.67629 3.25014C2.6456 3.23954 2.6322 3.24986 2.61937 3.27665C2.62048 3.32268 2.59481 3.34445 2.56412 3.34082C2.5432 3.33831 2.53873 3.34807 2.53315 3.35031L2.59565 3.36956C2.63639 3.4089 2.61239 3.43764 2.60346 3.44489C2.59481 3.45187 2.57166 3.44852 2.55798 3.44852C2.54431 3.44852 2.54403 3.45271 2.53817 3.45578C2.52841 3.4608 2.51864 3.46359 2.51446 3.45912C2.51697 3.45271 2.52088 3.42759 2.53762 3.42369C2.54766 3.42285 2.5658 3.41811 2.56635 3.40862C2.56663 3.39941 2.53287 3.40081 2.50637 3.39076C2.48404 3.38239 2.47651 3.37095 2.4846 3.33608C2.49102 3.29729 2.5365 3.29283 2.55854 3.29255C2.55547 3.27609 2.55743 3.24763 2.57807 3.22893C2.60821 3.20131 2.6548 3.21136 2.69442 3.21387C2.71702 3.20131 2.75888 3.18262 2.79989 3.18094C2.83672 3.17955 2.99995 3.13742 3.07417 3.14551C3.05743 3.12068 3.06133 3.06208 3.09175 3.04478C3.13053 3.02302 3.17238 3.08189 3.18243 3.07157C3.19247 3.06097 3.16987 3.04562 3.14141 3.01604C3.13444 3.00293 3.13583 3.0046 3.13555 3.00042C3.13499 2.99093 3.13723 2.97949 3.14085 2.97698C3.1442 2.97475 3.16736 2.9834 3.17294 2.99177C3.18047 3.00321 3.18996 3.00851 3.19749 3.00237C3.20726 2.99484 3.1947 2.99763 3.18912 2.98117C3.18633 2.97307 3.17992 2.96666 3.18019 2.95857C3.18577 2.95215 3.20754 2.93429 3.22456 2.92871C3.23153 2.93541 3.236 2.94434 3.24158 2.95326C3.25525 2.97391 3.26781 2.96833 3.27701 2.98228C3.28036 2.98786 3.28036 3.00265 3.28706 3.01521C3.29906 3.03836 3.32277 3.06459 3.35402 3.08329C3.35877 3.08636 3.36546 3.09222 3.36602 3.09696C3.36686 3.10421 3.361 3.11147 3.35821 3.11482C3.3543 3.11984 3.34035 3.12012 3.32696 3.1137C3.30659 3.10393 3.29933 3.09891 3.28734 3.10059C3.26111 3.10449 3.24381 3.14634 3.2067 3.1469C3.17154 3.14188 3.14783 3.09138 3.12718 3.10617C3.10681 3.12095 3.17517 3.1642 3.1668 3.18234C3.17266 3.1868 3.18215 3.20187 3.17992 3.21443C3.21479 3.20689 3.24269 3.18318 3.25302 3.16392C3.27088 3.13909 3.2851 3.12514 3.29571 3.12068C3.30603 3.11621 3.31942 3.12263 3.31942 3.13072C3.32333 3.12988 3.32919 3.13463 3.33644 3.13574C3.34705 3.14076 3.34286 3.15109 3.33979 3.15472C3.33951 3.15304 3.33393 3.15109 3.32863 3.14858C3.32305 3.14634 3.3144 3.15332 3.30631 3.16002C3.29822 3.16643 3.29236 3.18206 3.28427 3.1921C3.27618 3.20187 3.25525 3.22196 3.24632 3.23284C3.25134 3.24037 3.24883 3.25432 3.24967 3.26102C3.25162 3.26102 3.25832 3.2627 3.26223 3.26549C3.26585 3.26828 3.26529 3.27134 3.26362 3.27888C3.26111 3.28809 3.22651 3.32938 3.21647 3.3291C3.20112 3.3291 3.19135 3.31097 3.19275 3.30343C3.17601 3.31124 3.16848 3.29283 3.16792 3.28613C3.1615 3.29478 3.13611 3.30873 3.1269 3.31208C3.11797 3.31543 3.11435 3.31655 3.11156 3.30455C3.10877 3.31264 3.08617 3.32101 3.08086 3.32213C3.05157 3.32799 3.02171 3.34082 2.99269 3.34054L2.92154 3.33915L2.92852 3.34389Z" fill="white" stroke="black" stroke-width="0.03" stroke-linecap="round" stroke-linejoin="round"/>
<path d="M3.0286 3.07353C3.02888 3.08469 3.0127 3.11342 3.03641 3.13379C3.05092 3.14607 3.07631 3.15639 3.08468 3.1723C3.09166 3.18569 3.08189 3.19769 3.07882 3.19685C3.0632 3.1935 3.04255 3.22057 3.03502 3.23898C3.02637 3.21303 3.00935 3.21945 2.98759 3.22308C2.99344 3.19601 2.97168 3.17899 2.9382 3.17453C2.94378 3.16895 2.93457 3.1603 2.92648 3.15305C2.91811 3.14579 2.89188 3.15165 2.88937 3.14579C2.88686 3.13993 2.90193 3.12877 2.89439 3.11677C2.88714 3.1045 2.85561 3.11175 2.84557 3.10757C2.8478 3.0925 2.84947 3.08413 2.84194 3.07074C2.83413 3.05706 2.79869 3.06125 2.78139 3.05734C2.79562 3.0473 2.80204 3.03251 2.79423 3.01633C2.78613 2.99959 2.74875 3.0194 2.74902 2.99707C2.75014 2.98926 2.79283 2.98284 2.81013 2.98173C2.82603 2.98089 2.88184 2.99373 2.93373 3.00628C2.94601 3.01661 3.02748 3.04172 3.0286 3.07353Z" fill="white" stroke="black" stroke-width="0.03" stroke-linecap="round" stroke-linejoin="round"/>
<path d="M3.16895 3.28624C3.19489 3.2734 3.22028 3.25666 3.24735 3.23295M2.76074 3.21313C2.78418 3.21425 2.83468 3.22178 2.84919 3.24104C2.8637 3.26057 2.87291 3.29154 2.77218 3.31777C2.80232 3.31805 2.84752 3.31051 2.86342 3.31442C2.87765 3.31191 2.91002 3.3013 2.92369 3.30577C2.91839 3.30828 2.90137 3.31302 2.90081 3.32307C2.90025 3.33311 2.90806 3.33479 2.92257 3.33925M3.01967 3.27173C3.05455 3.27842 3.10533 3.2681 3.11258 3.30465" stroke="black" stroke-width="0.03" stroke-linecap="round" stroke-linejoin="round"/>
<path d="M3.13672 2.98682C3.1476 2.99742 3.17383 3.01583 3.18806 3.02588C3.20675 3.03899 3.2154 3.02253 3.20089 2.99881" stroke="black" stroke-width="0.03" stroke-linecap="round" stroke-linejoin="round"/>
<path d="M2.88923 3.14605C2.92467 3.13879 2.97517 3.13154 3.00502 3.13293M2.84542 3.10782C2.90095 3.09276 2.96177 3.09917 3 3.09973M2.98996 3.2211C3.00028 3.20799 3.02344 3.1893 3.04102 3.17339M2.93834 3.17451C2.95536 3.16753 2.98744 3.15553 3.01423 3.15079M2.93359 3.00654C2.96345 2.97724 2.9986 2.98143 3.03209 2.96357C3.05218 2.95325 3.06948 2.92451 3.08984 2.9047C3.09905 2.89689 3.10575 2.89075 3.12891 2.8927C3.15318 2.89465 3.15625 2.90219 3.125 2.90581C3.10268 2.9086 3.10184 2.91949 3.09291 2.93651C3.08538 2.95101 3.09263 2.96803 3.0971 2.97975C3.09152 2.99147 3.08454 3.00821 3.08259 3.02105C3.08147 3.02747 3.08426 3.03249 3.09208 3.04197M2.78125 3.0576C2.85965 3.04058 2.9721 3.06988 2.9933 3.07127" stroke="black" stroke-width="0.03" stroke-linecap="round" stroke-linejoin="round"/>
<path d="M3.2606 3.18175C3.28599 3.16807 3.28627 3.14212 3.32003 3.13096M3.19336 3.30368C3.22573 3.28833 3.2327 3.27522 3.25028 3.26127M3.27344 3.06009C3.25809 3.06233 3.25558 3.04977 3.24051 3.04726C3.22433 3.04419 3.21345 3.05479 3.21345 3.06456C3.21345 3.0746 3.22349 3.08325 3.23354 3.08381C3.24358 3.08437 3.25195 3.07711 3.27288 3.07935M3.19978 2.94374C3.21205 2.94486 3.22461 2.94709 3.23382 2.93872M3.26618 3.00122C3.26367 3.00373 3.25558 3.00038 3.25167 2.99564C3.24805 2.99062 3.24609 2.98392 3.24916 2.98085C3.25195 2.97806 3.25642 2.97862 3.26311 2.9842C3.26981 2.98978 3.26869 2.99843 3.26618 3.00122Z" stroke="black" stroke-width="0.03" stroke-linecap="round" stroke-linejoin="round"/>
<path d="M2.78869 2.68098C2.78789 2.68141 2.78691 2.68116 2.78596 2.68029C2.78501 2.67942 2.78416 2.67799 2.78361 2.67633C2.78305 2.67466 2.78283 2.67289 2.783 2.67141C2.78317 2.66993 2.78371 2.66886 2.7845 2.66843C2.78365 2.66873 2.78264 2.66834 2.78169 2.66733C2.78075 2.66631 2.77995 2.66477 2.77947 2.66303C2.77899 2.66129 2.77887 2.6595 2.77913 2.65805C2.77939 2.65661 2.78002 2.65562 2.78087 2.65531C2.78045 2.65549 2.77999 2.65549 2.77952 2.65532C2.77904 2.65516 2.77856 2.65482 2.77809 2.65434C2.77763 2.65385 2.77719 2.65323 2.77682 2.6525C2.77644 2.65177 2.77612 2.65095 2.77588 2.65009C2.77564 2.64923 2.77549 2.64834 2.77543 2.64748C2.77537 2.64662 2.7754 2.6458 2.77553 2.64506C2.77565 2.64433 2.77587 2.6437 2.77617 2.64321C2.77646 2.64272 2.77683 2.64237 2.77725 2.6422C2.77682 2.64238 2.77635 2.64239 2.77588 2.64222C2.7754 2.64205 2.77492 2.6417 2.77446 2.64121C2.774 2.64072 2.77358 2.64008 2.77322 2.63934C2.77285 2.63859 2.77255 2.63776 2.77233 2.63688C2.77211 2.636 2.77197 2.63509 2.77193 2.63421C2.77189 2.63333 2.77195 2.63249 2.77209 2.63174C2.77239 2.63023 2.77304 2.62917 2.7739 2.62881C2.77301 2.62914 2.772 2.62873 2.77109 2.62769C2.77018 2.62664 2.76944 2.62503 2.76903 2.62322C2.76862 2.6214 2.76858 2.61953 2.76892 2.61802C2.76926 2.6165 2.76994 2.61546 2.77083 2.61513C2.76994 2.61542 2.76895 2.61497 2.76809 2.61388C2.76722 2.6128 2.76655 2.61117 2.76622 2.60936C2.76588 2.60755 2.76592 2.6057 2.76631 2.60421C2.7667 2.60273 2.76743 2.60174 2.76832 2.60146C2.76786 2.60159 2.76739 2.60153 2.76692 2.60129C2.76644 2.60106 2.76598 2.60065 2.76556 2.60008C2.76513 2.59952 2.76476 2.59883 2.76445 2.59803C2.76414 2.59723 2.76391 2.59634 2.76376 2.59543C2.76361 2.59451 2.76356 2.59358 2.76359 2.59269C2.76363 2.59179 2.76376 2.59096 2.76398 2.59022C2.76441 2.58874 2.76517 2.58776 2.76608 2.58751C2.76515 2.58778 2.76416 2.58729 2.76332 2.58615C2.76247 2.585 2.76186 2.5833 2.7616 2.58141C2.76134 2.57952 2.76146 2.57761 2.76193 2.57608C2.76241 2.57456 2.7632 2.57355 2.76413 2.57328C2.76321 2.57351 2.76226 2.57299 2.76148 2.57184C2.7607 2.57069 2.76016 2.569 2.75997 2.56715C2.75979 2.5653 2.75997 2.56344 2.76049 2.56197C2.76101 2.5605 2.76182 2.55955 2.76274 2.55933C2.76179 2.5595 2.76085 2.55892 2.7601 2.55771C2.75936 2.55649 2.75888 2.55475 2.75877 2.55287C2.75866 2.55098 2.75892 2.5491 2.75951 2.54764C2.7601 2.54619 2.76096 2.54527 2.7619 2.5451C2.76095 2.5453 2.76002 2.54474 2.75929 2.54354C2.75857 2.54235 2.75813 2.54062 2.75805 2.53873C2.75798 2.53684 2.75828 2.53495 2.7589 2.53348C2.75952 2.53201 2.76039 2.53107 2.76134 2.53087C2.76037 2.531 2.75945 2.53036 2.75879 2.52908C2.75813 2.52781 2.75778 2.52602 2.75782 2.5241C2.75785 2.52217 2.75827 2.52028 2.75899 2.51883C2.7597 2.51738 2.76065 2.51649 2.76162 2.51636C2.76066 2.51644 2.75979 2.51576 2.75919 2.51448C2.75859 2.51319 2.75832 2.51141 2.75843 2.50953C2.75854 2.50764 2.75903 2.5058 2.75978 2.50441C2.76054 2.50303 2.7615 2.50221 2.76246 2.50213C2.76149 2.50221 2.76063 2.50153 2.76008 2.50025C2.75952 2.49896 2.75931 2.49718 2.7595 2.4953C2.75968 2.49341 2.76025 2.49157 2.76106 2.49018C2.76188 2.4888 2.76288 2.48798 2.76385 2.4879C2.76286 2.48792 2.76202 2.48717 2.76152 2.48581C2.76103 2.48446 2.76092 2.48262 2.76121 2.4807C2.76151 2.47878 2.76219 2.47693 2.7631 2.47556C2.76401 2.47418 2.76509 2.47341 2.76608 2.47339C2.7651 2.47333 2.76433 2.47252 2.76392 2.47113C2.76351 2.46975 2.76352 2.46792 2.76392 2.46603C2.76433 2.46414 2.76511 2.46236 2.76609 2.46107C2.76707 2.45978 2.76817 2.4591 2.76915 2.45916C2.76867 2.45911 2.76824 2.45888 2.76789 2.45849C2.76754 2.45809 2.76727 2.45754 2.76711 2.45686C2.76679 2.45548 2.76689 2.45366 2.76741 2.45181C2.76767 2.4509 2.76802 2.45 2.76844 2.44917C2.76886 2.44834 2.76935 2.4476 2.76988 2.44699C2.77093 2.44575 2.77208 2.44511 2.77306 2.44521C2.77256 2.44515 2.77213 2.44492 2.77178 2.44451C2.77144 2.44411 2.7712 2.44355 2.77106 2.44286C2.77093 2.44217 2.77091 2.44137 2.77101 2.4405C2.7711 2.43963 2.77131 2.43872 2.77163 2.4378C2.77194 2.43688 2.77234 2.43599 2.77282 2.43516C2.7733 2.43434 2.77384 2.4336 2.77442 2.433C2.77499 2.43239 2.77559 2.43192 2.77617 2.43163C2.77675 2.43133 2.7773 2.4312 2.7778 2.43126C2.77678 2.43107 2.7761 2.43015 2.77593 2.42871C2.77575 2.42726 2.77609 2.42541 2.77687 2.42356C2.77764 2.42171 2.7788 2.42002 2.78007 2.41884C2.78135 2.41767 2.78264 2.41712 2.78366 2.41731C2.78265 2.41703 2.78204 2.41604 2.78198 2.41456C2.78191 2.41308 2.7824 2.41123 2.78332 2.40941C2.78425 2.4076 2.78554 2.40597 2.78691 2.40489C2.78828 2.40381 2.78962 2.40336 2.79064 2.40364C2.78967 2.40325 2.78916 2.40218 2.78923 2.40068C2.7893 2.39917 2.78995 2.39735 2.79102 2.39561C2.79209 2.39387 2.79351 2.39236 2.79495 2.3914C2.7964 2.39045 2.79776 2.39013 2.79873 2.39052C2.79823 2.39031 2.79786 2.38994 2.79763 2.38942C2.7974 2.3889 2.79733 2.38825 2.7974 2.3875C2.79755 2.386 2.79833 2.38419 2.79955 2.38249C2.80077 2.38079 2.80234 2.37933 2.80391 2.37843C2.80549 2.37753 2.80693 2.37726 2.80794 2.37769C2.807 2.37713 2.80667 2.37595 2.807 2.37443C2.80733 2.3729 2.80831 2.37115 2.80972 2.36956C2.81112 2.36797 2.81284 2.36667 2.8145 2.36594C2.81615 2.36522 2.81761 2.36513 2.81854 2.36569C2.81759 2.36507 2.8173 2.36385 2.81772 2.36231C2.81815 2.36076 2.81926 2.35903 2.82082 2.35747C2.82237 2.35592 2.82424 2.35468 2.82601 2.35402C2.82778 2.35336 2.82931 2.35335 2.83026 2.35397" fill="white"/>
<path d="M2.78869 2.68098C2.78789 2.68141 2.78691 2.68116 2.78596 2.68029C2.78501 2.67942 2.78416 2.67799 2.78361 2.67633C2.78305 2.67466 2.78283 2.67289 2.783 2.67141C2.78317 2.66993 2.78371 2.66886 2.7845 2.66843C2.78365 2.66873 2.78264 2.66834 2.78169 2.66733C2.78075 2.66631 2.77995 2.66477 2.77947 2.66303C2.77899 2.66129 2.77887 2.6595 2.77913 2.65805C2.77939 2.65661 2.78002 2.65562 2.78087 2.65531C2.78045 2.65549 2.77999 2.65549 2.77952 2.65532C2.77904 2.65516 2.77856 2.65482 2.77809 2.65434C2.77763 2.65385 2.77719 2.65323 2.77682 2.6525C2.77644 2.65177 2.77612 2.65095 2.77588 2.65009C2.77564 2.64923 2.77549 2.64834 2.77543 2.64748C2.77537 2.64662 2.7754 2.6458 2.77553 2.64506C2.77565 2.64433 2.77587 2.6437 2.77617 2.64321C2.77646 2.64272 2.77683 2.64237 2.77725 2.6422C2.77682 2.64238 2.77635 2.64239 2.77588 2.64222C2.7754 2.64205 2.77492 2.6417 2.77446 2.64121C2.774 2.64072 2.77358 2.64008 2.77322 2.63934C2.77285 2.63859 2.77255 2.63776 2.77233 2.63688C2.77211 2.636 2.77197 2.63509 2.77193 2.63421C2.77189 2.63333 2.77195 2.63249 2.77209 2.63174C2.77239 2.63023 2.77304 2.62917 2.7739 2.62881C2.77301 2.62914 2.772 2.62873 2.77109 2.62768C2.77018 2.62664 2.76944 2.62503 2.76903 2.62322C2.76862 2.6214 2.76858 2.61953 2.76892 2.61802C2.76926 2.6165 2.76994 2.61546 2.77083 2.61513C2.76994 2.61542 2.76895 2.61497 2.76809 2.61388C2.76722 2.6128 2.76655 2.61117 2.76622 2.60936C2.76588 2.60755 2.76592 2.6057 2.76631 2.60422C2.7667 2.60273 2.76743 2.60174 2.76832 2.60146C2.76786 2.60159 2.76739 2.60153 2.76692 2.60129C2.76644 2.60106 2.76598 2.60065 2.76556 2.60008C2.76513 2.59952 2.76476 2.59883 2.76445 2.59803C2.76414 2.59723 2.76391 2.59634 2.76376 2.59543C2.76361 2.59451 2.76356 2.59358 2.76359 2.59269C2.76363 2.59179 2.76376 2.59096 2.76398 2.59022C2.76441 2.58874 2.76517 2.58776 2.76608 2.58751C2.76515 2.58778 2.76416 2.58729 2.76332 2.58615C2.76247 2.585 2.76186 2.5833 2.7616 2.58141C2.76134 2.57952 2.76146 2.57761 2.76193 2.57608C2.76241 2.57456 2.7632 2.57355 2.76413 2.57328C2.76321 2.57351 2.76226 2.57299 2.76148 2.57184C2.7607 2.57069 2.76016 2.569 2.75997 2.56715C2.75979 2.5653 2.75997 2.56344 2.76049 2.56197C2.76101 2.5605 2.76182 2.55955 2.76274 2.55933C2.76179 2.5595 2.76085 2.55892 2.7601 2.55771C2.75936 2.55649 2.75888 2.55475 2.75877 2.55287C2.75866 2.55098 2.75892 2.5491 2.75951 2.54764C2.7601 2.54619 2.76096 2.54527 2.7619 2.5451C2.76095 2.5453 2.76002 2.54474 2.75929 2.54354C2.75857 2.54235 2.75813 2.54062 2.75805 2.53873C2.75798 2.53684 2.75828 2.53495 2.7589 2.53348C2.75952 2.53201 2.76039 2.53107 2.76134 2.53087C2.76037 2.531 2.75945 2.53036 2.75879 2.52908C2.75813 2.52781 2.75778 2.52602 2.75782 2.5241C2.75785 2.52217 2.75827 2.52028 2.75899 2.51883C2.7597 2.51738 2.76065 2.51649 2.76162 2.51636C2.76066 2.51644 2.75979 2.51576 2.75919 2.51448C2.75859 2.51319 2.75832 2.51141 2.75843 2.50953C2.75854 2.50764 2.75903 2.5058 2.75978 2.50441C2.76054 2.50303 2.7615 2.50221 2.76246 2.50213C2.76149 2.50221 2.76063 2.50153 2.76008 2.50025C2.75952 2.49896 2.75931 2.49718 2.7595 2.4953C2.75968 2.49341 2.76025 2.49157 2.76106 2.49018C2.76188 2.4888 2.76288 2.48798 2.76385 2.4879C2.76286 2.48792 2.76202 2.48717 2.76152 2.48581C2.76103 2.48446 2.76092 2.48262 2.76121 2.4807C2.76151 2.47878 2.76219 2.47693 2.7631 2.47556C2.76401 2.47418 2.76509 2.47341 2.76608 2.47339C2.7651 2.47333 2.76433 2.47252 2.76392 2.47113C2.76351 2.46975 2.76352 2.46792 2.76392 2.46603C2.76433 2.46414 2.76511 2.46236 2.76609 2.46107C2.76707 2.45978 2.76817 2.4591 2.76915 2.45916C2.76867 2.45911 2.76824 2.45888 2.76789 2.45849C2.76754 2.45809 2.76727 2.45754 2.76711 2.45686C2.76679 2.45548 2.76689 2.45366 2.76741 2.45181C2.76767 2.4509 2.76802 2.45 2.76844 2.44917C2.76886 2.44834 2.76935 2.4476 2.76988 2.44699C2.77093 2.44575 2.77208 2.44511 2.77306 2.44521C2.77256 2.44515 2.77213 2.44492 2.77178 2.44451C2.77144 2.44411 2.7712 2.44355 2.77106 2.44286C2.77093 2.44217 2.77091 2.44137 2.77101 2.4405C2.7711 2.43963 2.77131 2.43872 2.77163 2.4378C2.77194 2.43688 2.77234 2.43599 2.77282 2.43516C2.7733 2.43434 2.77384 2.4336 2.77442 2.433C2.77499 2.43239 2.77559 2.43192 2.77617 2.43163C2.77675 2.43133 2.7773 2.4312 2.7778 2.43126C2.77678 2.43107 2.7761 2.43015 2.77593 2.42871C2.77575 2.42726 2.77609 2.42541 2.77687 2.42356C2.77764 2.42171 2.7788 2.42002 2.78007 2.41884C2.78135 2.41767 2.78264 2.41712 2.78366 2.41731C2.78265 2.41703 2.78204 2.41604 2.78198 2.41456C2.78191 2.41308 2.7824 2.41123 2.78332 2.40941C2.78425 2.4076 2.78554 2.40597 2.78691 2.40489C2.78828 2.40381 2.78962 2.40336 2.79064 2.40364C2.78967 2.40325 2.78916 2.40218 2.78923 2.40068C2.7893 2.39917 2.78995 2.39735 2.79102 2.39561C2.79209 2.39387 2.79351 2.39236 2.79495 2.3914C2.7964 2.39045 2.79776 2.39013 2.79873 2.39052C2.79823 2.39031 2.79786 2.38994 2.79763 2.38942C2.7974 2.3889 2.79733 2.38825 2.7974 2.3875C2.79755 2.386 2.79833 2.38419 2.79955 2.38249C2.80077 2.38079 2.80234 2.37933 2.80391 2.37843C2.80549 2.37753 2.80693 2.37726 2.80794 2.37769C2.807 2.37713 2.80667 2.37595 2.807 2.37443C2.80733 2.3729 2.80831 2.37115 2.80972 2.36956C2.81112 2.36797 2.81284 2.36667 2.8145 2.36594C2.81615 2.36522 2.81761 2.36513 2.81854 2.36569C2.81759 2.36507 2.8173 2.36385 2.81772 2.36231C2.81815 2.36076 2.81926 2.35903 2.82082 2.35747C2.82237 2.35592 2.82424 2.35468 2.82601 2.35402C2.82778 2.35336 2.82931 2.35335 2.83026 2.35397" stroke="black" stroke-width="0.03" stroke-linecap="round" stroke-linejoin="round"/>
<path d="M2.80497 2.67578L2.78906 2.68052M2.80218 2.66323L2.78488 2.66797M2.79967 2.65039L2.78125 2.65485M2.79715 2.63728L2.77762 2.64174M2.7952 2.62416L2.77427 2.62835M2.79325 2.61077L2.77121 2.61468M2.79185 2.59738L2.76869 2.601M2.79074 2.58398L2.76646 2.58705M2.79018 2.57059L2.76451 2.57282M2.7899 2.55748L2.76311 2.55887M2.79018 2.54408L2.76228 2.54464M2.79074 2.53097L2.76172 2.53041M2.79185 2.51786L2.762 2.5159M2.79381 2.50502L2.76283 2.50167M2.79604 2.49247L2.76423 2.48744M2.79911 2.48019L2.76646 2.47294M2.80273 2.46791L2.76953 2.45871M2.8072 2.45619L2.77344 2.44475M2.81222 2.44503L2.77818 2.4308M2.8178 2.43387L2.78404 2.41685M2.8245 2.42355L2.79102 2.40318M2.83175 2.4135L2.79911 2.39007M2.84012 2.40374L2.80831 2.37723M2.84905 2.39481L2.81892 2.36523M2.8591 2.38644L2.83064 2.35352" stroke="black" stroke-width="0.03" stroke-linecap="round" stroke-linejoin="round"/>
<path d="M2.98128 2.49194C2.96481 2.49557 2.95644 2.49613 2.93524 2.49697C2.93105 2.50673 2.93077 2.53324 2.93105 2.54272C2.97597 2.58541 3.0195 2.64038 3.02229 2.69228C3.03624 2.70344 3.04517 2.71488 3.05298 2.73553C3.08507 2.71962 3.11744 2.69228 3.14478 2.6853C3.16264 2.68084 3.19417 2.67944 3.20979 2.68865C3.21844 2.69367 3.29489 2.74027 3.31721 2.75394C3.33926 2.76789 3.3546 2.78603 3.36548 2.80193C3.37636 2.81784 3.37748 2.84658 3.37385 2.85383L3.30968 2.83541C3.30522 2.82481 3.30884 2.81253 3.31386 2.80193C3.31861 2.79189 3.31861 2.79133 3.3094 2.78408C3.30326 2.77905 3.29461 2.78045 3.28847 2.78184C3.28234 2.78296 3.27257 2.78045 3.26699 2.77152C3.26085 2.76231 3.19361 2.73274 3.18217 2.73106C3.17101 2.72939 3.15399 2.72911 3.14004 2.74222C3.13334 2.7531 3.11074 2.78826 3.09288 2.80416C3.08814 2.80891 3.0873 2.81421 3.09009 2.81979C3.09009 2.81979 3.13278 2.81812 3.15873 2.82174C3.18496 2.82565 3.2176 2.85271 3.23183 2.86973C3.29712 2.92972 3.32196 2.96237 3.34316 2.98301C3.35265 2.99222 3.36297 3.00255 3.36074 3.01678L3.29712 3.01566C3.29796 2.99278 3.2935 2.97632 3.28959 2.96376C3.28206 2.95344 3.26866 2.95846 3.26336 2.95874C3.25806 2.9593 3.24997 2.94786 3.24355 2.93753C3.23546 2.9194 3.20086 2.89512 3.18552 2.88564C3.17017 2.87615 3.16487 2.88034 3.14869 2.87894C3.13892 2.87587 3.1166 2.87197 3.10042 2.87838C3.08423 2.8848 3.0368 2.89987 2.99299 2.90489C2.97681 2.91214 2.9291 2.92107 2.8786 2.93195C2.84065 2.94005 2.75555 2.95372 2.73741 2.954C2.73183 2.99501 2.68886 3.05249 2.67659 3.05891C2.66403 3.07565 2.66459 3.09044 2.67324 3.09797C2.68217 3.10578 2.74718 3.10578 2.76336 3.10634C2.77982 3.10662 2.81219 3.10774 2.81693 3.10857C2.82809 3.11025 2.84205 3.12364 2.85879 3.13285C2.87078 3.13926 2.8733 3.14596 2.88083 3.15796C2.88557 3.16577 2.89283 3.1733 2.89534 3.18L2.81861 3.17833C2.81945 3.16214 2.80996 3.14847 2.79908 3.14847C2.78847 3.15601 2.77536 3.16493 2.76085 3.15908C2.70142 3.15545 2.66347 3.15796 2.60823 3.15433C2.5926 3.15349 2.57865 3.13089 2.58451 3.11025C2.59037 3.08932 2.58786 3.07509 2.58395 3.06002C2.57837 3.06616 2.55661 3.08765 2.54433 3.10188C2.52536 3.12336 2.53624 3.14652 2.54322 3.15824C2.55466 3.168 2.61772 3.22883 2.62609 3.24724C2.6325 3.25701 2.65761 3.27682 2.68273 3.29775C2.69082 3.31644 2.70588 3.32565 2.71788 3.33793L2.62051 3.3382C2.62357 3.33207 2.62497 3.32621 2.62636 3.31253C2.62692 3.30751 2.62051 3.29635 2.60795 3.29775C2.59511 3.29942 2.58395 3.28463 2.58005 3.27264C2.57614 3.26036 2.53317 3.20539 2.52034 3.19312C2.5075 3.18112 2.46872 3.1415 2.46202 3.13899C2.45505 3.13647 2.45337 3.12224 2.46147 3.11387C2.46984 3.1055 2.49383 3.06728 2.50136 3.04245C2.50639 3.02543 2.50025 3.02403 2.49634 3.01873C2.45393 2.9872 2.41682 2.94535 2.39478 2.90545C2.38669 2.91047 2.34037 2.91019 2.31721 2.89875C2.29963 2.89038 2.2762 2.88787 2.26364 2.90768C2.25639 2.9194 2.25667 2.94144 2.2695 2.95121C2.28792 2.96516 2.30996 2.98804 2.33116 3.01426C2.35237 3.04049 2.33395 3.05779 2.30717 3.08067C2.31107 3.09072 2.30661 3.08904 2.31163 3.10578C2.32056 3.11862 2.32056 3.15098 2.30912 3.15768C2.29796 3.16493 2.28345 3.17219 2.27006 3.18781C2.25667 3.204 2.25081 3.18837 2.25667 3.16159C2.26001 3.14485 2.24634 3.13089 2.23462 3.11806C2.22318 3.10522 2.22904 3.06784 2.23658 3.05668C2.24383 3.04607 2.25136 3.02431 2.23518 3.00813C2.219 2.99194 2.18691 2.9579 2.19193 2.9127C2.19807 2.85299 2.25583 2.83402 2.29015 2.84964C2.34595 2.87476 2.37915 2.86918 2.3959 2.86555C2.41264 2.83848 2.43356 2.81281 2.46788 2.79328C2.49997 2.77487 2.56331 2.74948 2.62553 2.73971L2.7801 2.68447C2.80103 2.67833 2.80019 2.65991 2.79824 2.64931C2.77815 2.54496 2.78429 2.43474 2.86911 2.37866C2.87804 2.37057 2.87525 2.34769 2.88864 2.32983C2.89115 2.33765 2.90845 2.35885 2.91236 2.37252C2.94891 2.38452 3.01504 2.40768 3.04099 2.42079C3.05354 2.42693 3.06665 2.42777 3.07447 2.43084C3.08144 2.43363 3.08786 2.4406 3.09232 2.44925C3.0993 2.46181 3.09149 2.47409 3.08479 2.47771C3.07977 2.48022 3.04908 2.4699 3.04154 2.47688C3.04294 2.48385 3.05075 2.49139 3.06721 2.49808C3.07475 2.50143 3.06331 2.51538 3.05438 2.51622C3.04936 2.51678 3.04238 2.51454 3.03792 2.5112C3.01978 2.50589 3.00025 2.49836 2.98128 2.49194Z" fill="white" stroke="black" stroke-width="0.03" stroke-linecap="round" stroke-linejoin="round"/>
<path d="M2.87626 2.42383C2.87542 2.488 2.89718 2.52037 2.93206 2.54269M3.05399 2.73549C3.06013 2.76256 3.05929 2.78934 3.05427 2.81278M2.58496 3.05999C2.63351 3.03711 2.67564 2.98214 2.67425 2.94922M2.67425 2.94922C2.67341 2.92997 2.65834 2.90039 2.61509 2.899M2.67425 2.94922C2.68764 2.95452 2.71722 2.95117 2.73842 2.95396M2.9781 2.79771C3.01576 2.79939 3.06627 2.82087 3.0911 2.81975M2.96052 2.87277C2.99233 2.87974 2.99289 2.89509 3.05901 2.89174M2.94461 2.65988C2.98172 2.66099 3.00293 2.67913 3.0233 2.69224" stroke="black" stroke-width="0.03" stroke-linecap="round" stroke-linejoin="round"/>
<path d="M2.66602 2.97935C2.69196 2.97907 2.7115 2.97573 2.7221 2.95285M2.875 2.42383C2.8736 2.47628 2.89481 2.4894 2.93499 2.49693" stroke="black" stroke-width="0.03" stroke-linecap="round" stroke-linejoin="round"/>
<path d="M3.07785 2.43279C3.07533 2.44618 3.07506 2.45679 3.09682 2.45483M2.98103 2.39624C2.96429 2.43921 3.04883 2.44479 3.05218 2.47185M2.57812 2.75087C2.61942 2.76901 2.61468 2.85104 2.6144 2.89903" stroke="black" stroke-width="0.03" stroke-linecap="round" stroke-linejoin="round"/>
<path d="M3.03175 2.47208C3.01836 2.49831 2.98906 2.53904 2.95893 2.56081C2.91429 2.59261 2.86602 2.61633 2.80547 2.63056C2.79738 2.63251 2.78705 2.63502 2.77534 2.63251C2.7639 2.63028 2.75134 2.62275 2.74325 2.60629C2.73878 2.59764 2.74102 2.55634 2.75636 2.55048C2.77255 2.54462 2.78733 2.54267 2.80268 2.54351C2.81105 2.54406 2.82277 2.54658 2.82193 2.55802C2.82137 2.56778 2.81217 2.57364 2.8024 2.57085C2.79068 2.5675 2.77282 2.56081 2.76278 2.5675C2.7558 2.57197 2.75162 2.59066 2.75636 2.59903C2.76362 2.61242 2.77087 2.61661 2.77841 2.618C2.78594 2.61968 2.79403 2.618 2.80212 2.61605C2.86016 2.60238 2.9062 2.57978 2.95 2.54853C2.97874 2.52788 3.00859 2.48491 3.01864 2.4651L3.03175 2.47208ZM2.80435 2.55383C2.78705 2.5502 2.75915 2.55439 2.75664 2.56164C2.76948 2.55355 2.78538 2.55606 2.80352 2.56164C2.8091 2.56332 2.81245 2.55523 2.80435 2.55383ZM2.91736 2.41237L2.92405 2.39953C2.92545 2.39674 2.91903 2.36605 2.95084 2.38251C2.98265 2.39898 2.95698 2.41321 2.95558 2.41627C2.95419 2.41906 2.94889 2.42883 2.94889 2.42883" fill="white"/>
<path d="M2.91736 2.41237L2.92405 2.39953C2.92545 2.39674 2.91903 2.36605 2.95084 2.38251C2.98265 2.39898 2.95698 2.41321 2.95558 2.41627C2.95419 2.41906 2.94889 2.42883 2.94889 2.42883M3.03175 2.47208C3.01836 2.49831 2.98906 2.53904 2.95893 2.56081C2.91429 2.59261 2.86602 2.61633 2.80547 2.63056C2.79738 2.63251 2.78705 2.63502 2.77534 2.63251C2.7639 2.63028 2.75134 2.62275 2.74325 2.60629C2.73878 2.59764 2.74102 2.55634 2.75636 2.55048C2.77255 2.54462 2.78733 2.54267 2.80268 2.54351C2.81105 2.54406 2.82277 2.54658 2.82193 2.55802C2.82137 2.56778 2.81217 2.57364 2.8024 2.57085C2.79068 2.5675 2.77282 2.56081 2.76278 2.5675C2.7558 2.57197 2.75162 2.59066 2.75636 2.59903C2.76362 2.61242 2.77087 2.61661 2.77841 2.618C2.78594 2.61968 2.79403 2.618 2.80212 2.61605C2.86016 2.60238 2.9062 2.57978 2.95 2.54853C2.97874 2.52788 3.00859 2.48491 3.01864 2.4651L3.03175 2.47208ZM2.80435 2.55383C2.78705 2.5502 2.75915 2.55439 2.75664 2.56164C2.76948 2.55355 2.78538 2.55606 2.80352 2.56164C2.8091 2.56332 2.81245 2.55523 2.80435 2.55383Z" stroke="black" stroke-width="0.03" stroke-linecap="round" stroke-linejoin="round"/>
<path d="M2.86426 2.38428L3.04395 2.47831" stroke="black" stroke-width="0.03" stroke-linecap="round" stroke-linejoin="round"/>
<path d="M2.63535 2.3911C2.60355 2.39417 2.54495 2.38775 2.51314 2.38217C2.4978 2.37938 2.45455 2.44216 2.43167 2.44662C2.40879 2.45109 2.38703 2.40059 2.35327 2.41258C2.33764 2.42458 2.3541 2.48652 2.34462 2.49434C2.33485 2.50215 2.305 2.46309 2.28658 2.4762C2.26817 2.48931 2.30221 2.57162 2.29328 2.58111C2.28491 2.59004 2.24306 2.54512 2.2305 2.55349C2.21794 2.56186 2.24417 2.68993 2.23189 2.69662C2.21934 2.70332 2.1613 2.66286 2.15377 2.68016C2.14624 2.69746 2.23552 2.7382 2.26063 2.73931L2.28575 2.72983C2.29412 2.73429 2.36554 2.74015 2.37252 2.74071L2.41354 2.69913C2.47631 2.61738 2.54523 2.54065 2.63535 2.5454V2.3911Z" fill="white" stroke="black" stroke-width="0.03" stroke-linecap="round" stroke-linejoin="round"/>
<path d="M2.35938 2.4112L2.47907 2.40674M2.28767 2.47538L2.34626 2.45529M2.23214 2.55183L2.28544 2.52839M2.1543 2.67878L2.22879 2.61126M2.28627 2.72817C2.3178 2.67264 2.38225 2.61126 2.43499 2.57889M2.23242 2.69636C2.27734 2.64223 2.40597 2.55155 2.44699 2.54653M2.34431 2.49435C2.3976 2.4698 2.47377 2.46701 2.53432 2.46198M2.43025 2.44692C2.43778 2.44608 2.5293 2.43464 2.56836 2.43659M2.29241 2.58224C2.36356 2.54067 2.43304 2.50691 2.51144 2.48235" stroke="black" stroke-width="0.03" stroke-linecap="round" stroke-linejoin="round"/>
<path d="M2.8923 3.45074C2.89788 3.45241 2.90374 3.46441 2.90374 3.46441C2.90374 3.46441 2.89174 3.47027 2.88672 3.46915L2.32868 3.3023C2.31222 3.29728 2.31919 3.27189 2.33649 3.27719L2.8923 3.45074ZM2.35909 2.67088C2.35575 2.65944 2.3457 2.64912 2.33817 2.64772C2.33342 2.64717 2.32115 2.65972 2.32171 2.66363C2.3231 2.67172 2.33928 2.68204 2.3457 2.68427L2.35909 2.67088ZM2.41183 2.69153L2.36495 2.7384C2.35909 2.74454 2.36998 2.75431 2.37556 2.74873L2.42243 2.70185C2.42829 2.69599 2.41713 2.68623 2.41183 2.69153ZM2.38867 2.73561L2.53404 2.88628L2.56417 2.89075L2.55971 2.86061L2.40904 2.71525L2.38867 2.73561Z" fill="white" stroke="black" stroke-width="0.03" stroke-linecap="round" stroke-linejoin="round"/>
<path d="M2.54241 2.86935L2.39844 2.7251" stroke="black" stroke-width="0.03" stroke-linecap="round" stroke-linejoin="round"/>
<path d="M2.73615 2.45066C2.73503 2.44285 2.73922 2.43811 2.74508 2.43392C2.75512 2.42695 2.75233 2.43029 2.75791 2.43308C2.76321 2.43587 2.7688 2.44034 2.77186 2.44285C2.77577 2.44564 2.778 2.44424 2.7794 2.44201C2.78191 2.43811 2.78275 2.43029 2.78526 2.42778C2.78721 2.42806 2.79028 2.42667 2.79 2.42304C2.79307 2.42248 2.79391 2.42053 2.79363 2.41746C2.79307 2.41523 2.79502 2.40909 2.79865 2.4102C2.80256 2.41132 2.81065 2.41495 2.81093 2.40965C2.81148 2.40574 2.814 2.39123 2.81539 2.38007C2.82683 2.38202 2.82292 2.36891 2.82711 2.36724C2.83939 2.3717 2.84385 2.35217 2.83688 2.34519C2.83799 2.32957 2.84943 2.32678 2.8684 2.32706C2.86701 2.31645 2.8525 2.31338 2.84246 2.29999C2.83325 2.28632 2.80284 2.26874 2.77019 2.2693C2.73755 2.27014 2.71076 2.30055 2.69876 2.31394C2.68676 2.32734 2.66193 2.3332 2.6544 2.3318C2.64714 2.33013 2.6438 2.32482 2.63542 2.32399C2.63542 2.32399 2.61422 2.32455 2.60306 2.32482C2.5919 2.32482 2.58771 2.33264 2.57516 2.33096C2.56762 2.3304 2.53693 2.33068 2.528 2.33375C2.51907 2.33682 2.52772 2.35691 2.53721 2.35775C2.54167 2.35831 2.56511 2.3597 2.57376 2.36472C2.58353 2.37003 2.61227 2.37142 2.6251 2.36668C2.6491 2.35803 2.665 2.37421 2.69151 2.38063L2.69988 2.3837C2.69932 2.39765 2.70016 2.4049 2.69318 2.4049C2.68676 2.4049 2.67616 2.40434 2.6703 2.40379C2.66695 2.40379 2.65328 2.39458 2.64547 2.3929C2.63347 2.39039 2.62622 2.39542 2.62147 2.39737C2.5905 2.4102 2.47583 2.49949 2.46467 2.51986C2.45211 2.54246 2.43342 2.55585 2.41556 2.58961C2.40551 2.60831 2.38654 2.63119 2.3751 2.66272C2.35585 2.67136 2.33604 2.6895 2.33297 2.69369C2.32962 2.69815 2.33604 2.7054 2.33967 2.70513C2.33827 2.70792 2.34497 2.71545 2.35027 2.71489C2.3472 2.71824 2.35557 2.72438 2.35948 2.72326C2.35724 2.72661 2.3631 2.73582 2.36785 2.73554L2.41416 2.68922C2.41416 2.66941 2.42588 2.64737 2.43202 2.63649C2.45685 2.60635 2.48922 2.55641 2.49815 2.54302C2.50289 2.53548 2.5573 2.514 2.57153 2.50005C2.5679 2.53911 2.56902 2.5659 2.57404 2.58905C2.58185 2.627 2.59441 2.65128 2.60194 2.68336C2.60975 2.71517 2.60194 2.7347 2.60334 2.74977C2.6039 2.76149 2.60808 2.7626 2.61924 2.76902C2.63068 2.776 2.67477 2.77014 2.68872 2.77432C2.71467 2.78241 2.73838 2.78297 2.74787 2.78465C2.78023 2.78018 2.80451 2.78911 2.81483 2.7972C2.82544 2.80557 2.84608 2.85356 2.8539 2.87142C2.86143 2.889 2.90328 2.91355 2.91193 2.9236C2.92086 2.93336 2.92728 2.96182 2.9256 2.97438C2.92421 2.98665 2.92588 2.99224 2.93872 2.99084C2.94876 2.98945 2.98587 2.99642 2.99285 3.00005C2.99954 3.0034 3.01573 3.01623 3.02131 3.01679C3.02689 3.01735 3.05339 3.02014 3.06567 3.01902C3.07795 3.0179 3.07739 2.99782 3.07209 2.99698C3.06707 2.99642 3.04586 2.99196 3.0333 2.98889C3.02103 2.9861 2.9934 2.96154 2.98252 2.94815C2.97136 2.93448 2.96578 2.91551 2.95881 2.90183C2.95155 2.88816 2.90998 2.82985 2.8991 2.81673C2.89575 2.81032 2.87371 2.75758 2.86868 2.74447C2.86394 2.73135 2.85306 2.72996 2.84469 2.72745C2.81009 2.7174 2.7967 2.71294 2.76126 2.70624C2.73559 2.7015 2.72973 2.7001 2.7275 2.68113C2.72583 2.6669 2.71494 2.63984 2.72052 2.62114C2.72248 2.615 2.72611 2.59519 2.72778 2.58626C2.72973 2.57734 2.73531 2.56255 2.73671 2.55362C2.73838 2.54162 2.74061 2.50507 2.74061 2.49558C2.74061 2.47828 2.7381 2.46489 2.73615 2.45066ZM2.76294 2.60775C2.75959 2.60859 2.7434 2.61082 2.73503 2.60747C2.73224 2.60607 2.7328 2.60049 2.73559 2.60049C2.73392 2.59938 2.73113 2.59352 2.73503 2.59268C2.7328 2.59212 2.73001 2.58375 2.73392 2.58347C2.73001 2.58096 2.73001 2.57622 2.73392 2.57455C2.73671 2.57231 2.75401 2.57176 2.76126 2.57287C2.76573 2.5818 2.76461 2.59826 2.76294 2.60775Z" fill="white" stroke="black" stroke-width="0.03" stroke-linecap="round" stroke-linejoin="round"/>
<path d="M2.70089 2.3855C2.70898 2.39052 2.70787 2.38494 2.72238 2.38075C2.73661 2.37657 2.74609 2.38913 2.74163 2.40084C2.73744 2.41256 2.73689 2.42233 2.75223 2.42317C2.76758 2.424 2.77121 2.41089 2.77455 2.40447C2.77818 2.39833 2.78488 2.39861 2.78878 2.39108C2.79185 2.37545 2.80776 2.37908 2.81752 2.38075M2.83733 2.34588C2.82952 2.35006 2.81278 2.33667 2.80999 2.32384C2.80525 2.30877 2.79436 2.29789 2.77511 2.29761C2.75586 2.29761 2.71931 2.30849 2.7115 2.33109C2.70898 2.34811 2.70759 2.35927 2.70731 2.36234C2.70033 2.36485 2.69364 2.36262 2.69308 2.36569C2.69364 2.37238 2.69503 2.37824 2.69113 2.38103M2.57227 2.50017L2.61105 2.48343" stroke="black" stroke-width="0.03" stroke-linecap="round" stroke-linejoin="round"/>
<path d="M2.61035 2.4834C2.62123 2.50795 2.62877 2.53306 2.64383 2.54171M2.66504 2.5512C2.68122 2.55929 2.6921 2.5565 2.71136 2.55343M2.61454 2.73368C2.65472 2.73563 2.67118 2.75377 2.70438 2.76409C2.7373 2.77414 2.78418 2.76855 2.82687 2.78864M2.60254 2.60505C2.61258 2.61258 2.62709 2.61761 2.63909 2.61761M2.65667 2.61844C2.67787 2.62179 2.69741 2.63016 2.70047 2.64244M2.64802 2.66476C2.66727 2.68345 2.70243 2.69768 2.72754 2.69908" stroke="black" stroke-width="0.03" stroke-linecap="round" stroke-linejoin="round"/>
<path d="M2.67857 2.40423C2.69671 2.46282 2.69922 2.48682 2.74163 2.49574M2.74163 2.49574C2.70117 2.491 2.68136 2.45947 2.66323 2.4006M2.74163 2.49574C2.69224 2.49323 2.66462 2.45194 2.64648 2.39307" stroke="black" stroke-width="0.03" stroke-linecap="round" stroke-linejoin="round"/>
<path d="M2.95969 2.96521C2.95076 2.95852 2.94853 2.95433 2.94211 2.9415L2.92704 2.91164L2.91756 2.91667C2.91337 2.91862 2.90891 2.91109 2.91365 2.90885L2.92174 2.90495L2.91086 2.88318C2.90472 2.88207 2.91058 2.87844 2.91477 2.87649C2.91923 2.87425 2.92565 2.87146 2.92286 2.87704L2.93374 2.89881L2.94155 2.8949C2.9463 2.89239 2.94992 2.90048 2.94546 2.90244L2.93597 2.90718L2.95104 2.93703C2.95746 2.94987 2.95969 2.95405 2.95969 2.96521Z" stroke="black" stroke-width="0.03" stroke-linecap="round" stroke-linejoin="round"/>
<path d="M2.95968 2.90175L2.91392 2.92491M2.87179 2.89115L2.93206 2.86074M2.8623 2.88166L2.92508 2.84985" stroke="black" stroke-width="0.03" stroke-linecap="round" stroke-linejoin="round"/>
<path d="M2.35965 2.72346L2.38002 2.70504M2.35045 2.71509L2.36998 2.69751M2.33984 2.70532L2.36105 2.68747M2.73577 2.60069L2.75558 2.59985M2.7341 2.58367L2.75279 2.58311M2.73521 2.59288L2.75363 2.5912M2.77762 2.41821C2.78181 2.42072 2.78571 2.42268 2.78962 2.42324" stroke="black" stroke-width="0.03" stroke-linecap="round" stroke-linejoin="round"/>
</g>
<defs>
<clipPath id="clip0_202_3727">
<rect width="20" height="15" fill="white"/>
</clipPath>
</defs>
</svg>
