<svg width="20" height="15" viewBox="0 0 20 15" fill="none" xmlns="http://www.w3.org/2000/svg">
<g clip-path="url(#clip0_202_3771)">
<path d="M0 0H20V15H0V0Z" fill="#CD2A3E"/>
<path d="M0 2.25H20V12.75H0V2.25Z" fill="#006233"/>
<path d="M14.6875 4.8313C14.6875 6.0745 14.1936 7.26678 13.3146 8.14586C12.4355 9.02494 11.2432 9.5188 10 9.5188C8.7568 9.5188 7.56452 9.02494 6.68544 8.14586C5.80636 7.26678 5.3125 6.0745 5.3125 4.8313C5.20833 5.23129 5.15582 5.64297 5.15625 6.0563C5.15625 7.34094 5.66657 8.57297 6.57495 9.48135C7.48333 10.3897 8.71536 10.9 10 10.9C11.2846 10.9 12.5167 10.3897 13.4251 9.48135C14.3334 8.57297 14.8438 7.34094 14.8438 6.0563C14.8444 5.64296 14.7918 5.23125 14.6875 4.8313Z" fill="#FFC400"/>
<path d="M10 2.93115L9.57812 4.22803H8.21875L9.32187 5.02803L8.9 6.32178L10.0031 5.52178L11.1062 6.32178L10.6844 5.02803L11.7875 4.22803H10.425L10 2.93115Z" fill="#FFC400"/>
</g>
<defs>
<clipPath id="clip0_202_3771">
<rect width="20" height="15" fill="white"/>
</clipPath>
</defs>
</svg>
