<svg width="20" height="15" viewBox="0 0 20 15" fill="none" xmlns="http://www.w3.org/2000/svg">
<g clip-path="url(#clip0_202_3824)">
<path d="M0 0H20V15H0V0Z" fill="#CC092F"/>
<path d="M0 0H13.3333V15H0V0Z" fill="#FFD200"/>
<path d="M0 0H6.66667V15H0V0Z" fill="#0046AE"/>
<path d="M9.12584 3.05395C9.08053 3.0519 9.03572 3.06415 8.99776 3.08895C9.0427 3.10222 9.07337 3.14367 9.07291 3.19048V3.3142H8.94913C8.90255 3.31468 8.86119 3.28447 8.84751 3.23997C8.80083 3.31892 8.80083 3.41698 8.84751 3.49593C8.86079 3.45102 8.90226 3.42035 8.94913 3.42083H9.07291V4.01552C9.07308 4.03737 9.06643 4.05872 9.05388 4.07662C9.04133 4.09451 9.02351 4.10804 9.00289 4.11533C9.06195 4.12337 9.11277 4.20257 9.12669 4.24588C9.14065 4.20267 9.19147 4.12337 9.25051 4.11533C9.2297 4.10823 9.21166 4.09478 9.19894 4.07686C9.18621 4.05895 9.17945 4.03748 9.17961 4.01552V3.4208H9.30343C9.35002 3.42032 9.39138 3.45053 9.40504 3.49507C9.45169 3.4161 9.45169 3.31805 9.40504 3.23908C9.39177 3.28398 9.35027 3.31463 9.30343 3.31415H9.17961V3.19045C9.17911 3.14388 9.20936 3.10255 9.25391 3.0889C9.21593 3.06412 9.17114 3.05188 9.12584 3.05393V3.05395Z" fill="black"/>
<path d="M9.12561 3.07961C9.10067 3.07971 9.07589 3.08374 9.0522 3.09154C9.06656 3.10375 9.07812 3.11891 9.08608 3.13599C9.09404 3.15308 9.09821 3.17168 9.09831 3.19052V3.31424C9.0982 3.31597 9.09791 3.31769 9.09744 3.31937V3.33899H9.0778C9.07613 3.33944 9.07441 3.33974 9.07268 3.33986H8.94886C8.91116 3.33961 8.87538 3.32312 8.8507 3.29464C8.84244 3.31824 8.83812 3.34302 8.83789 3.36802C8.838 3.39295 8.84203 3.41771 8.84983 3.44139C8.87455 3.41236 8.91072 3.39552 8.94886 3.39534H9.09828C9.09811 3.39791 9.09741 3.40039 9.09741 3.40299V3.41579C9.09787 3.41746 9.09816 3.41918 9.09828 3.42091V4.01559C9.09704 4.05179 9.08023 4.08569 9.05216 4.10859C9.07059 4.12007 9.08704 4.13449 9.10083 4.15127C9.11089 4.16512 9.11946 4.17999 9.12645 4.19562C9.13344 4.18 9.14202 4.16514 9.15206 4.15127C9.16567 4.13489 9.18182 4.12077 9.19988 4.10946C9.18593 4.09802 9.17459 4.08372 9.16664 4.06753C9.15868 4.05134 9.15429 4.03363 9.15376 4.01561V3.39614H9.17426C9.17594 3.39569 9.17765 3.39541 9.17938 3.39531H9.30318C9.32182 3.39543 9.34021 3.39953 9.35714 3.40733C9.37407 3.41512 9.38914 3.42643 9.40134 3.44051C9.4096 3.41691 9.41394 3.39212 9.41417 3.36714C9.41405 3.34221 9.41002 3.31746 9.40221 3.29377C9.37749 3.32281 9.34132 3.33964 9.30318 3.33982H9.17938C9.17765 3.33971 9.17593 3.33942 9.17426 3.33896H9.15462V3.31934C9.15415 3.31766 9.15386 3.31594 9.15375 3.31421V3.19051C9.15387 3.17188 9.15798 3.15349 9.16578 3.13657C9.17358 3.11965 9.18491 3.10459 9.19899 3.09239C9.17538 3.08416 9.15058 3.07983 9.12558 3.07959" fill="#FFD200"/>
<path d="M10.6756 5.23297C10.6033 5.18394 10.5414 5.12099 10.4937 5.04781C10.3875 4.87742 10.3426 4.66826 10.3426 4.45569C10.3426 4.36584 10.4433 4.26469 10.4433 4.19202C10.444 4.13327 10.4406 4.07456 10.4331 4.01629C10.4688 4.02116 10.5313 4.08454 10.5313 4.08454C10.5313 4.08454 10.5291 3.90224 10.4715 3.87039C10.4715 3.87039 10.4948 3.84642 10.5791 3.84394C10.5554 3.78401 10.4382 3.71084 10.4382 3.71084C10.4458 3.6991 10.4564 3.68966 10.4689 3.68354C10.5013 3.66766 10.5358 3.65646 10.5714 3.65026C10.5324 3.64182 10.4939 3.63127 10.4561 3.61867C10.3471 3.58224 10.2404 3.53894 10.1368 3.48901C10.0044 3.42262 9.85811 3.38842 9.70995 3.38917C9.65033 3.38919 9.56252 3.39081 9.51104 3.42504C9.46392 3.45629 9.46776 3.49694 9.45126 3.51121C9.4124 3.54481 9.34584 3.54362 9.31379 3.54362C9.10632 3.54362 9.09863 3.76547 9.09863 3.76547C9.09863 3.76547 9.15168 3.68526 9.24548 3.68526C9.40143 3.68526 9.51954 3.77016 9.51954 3.80214C9.51954 3.81509 9.50346 3.81749 9.50248 3.81749C9.40061 3.81749 9.24688 3.75889 9.16521 3.75606V3.79616C9.34751 3.85954 9.53233 3.94927 9.53233 4.34477C9.53233 4.59382 9.5025 4.84794 9.37782 5.04782C9.32975 5.121 9.26766 5.18394 9.19511 5.23299L9.93535 5.36632L10.6756 5.23299V5.23297Z" fill="black"/>
<path d="M9.93519 5.0664L9.19499 5.23307C9.16132 5.2229 9.00298 5.17373 8.89189 5.11192C8.69633 5.00305 8.59493 4.89473 8.36255 4.8841V4.70747C8.36255 4.6131 8.39672 4.52808 8.39672 4.43785C8.29875 4.4116 8.02684 4.07935 7.77601 3.93188C7.40694 4.17078 7.12117 4.56297 7.12117 4.74332V9.96848C7.12117 10.0463 7.07422 10.1562 7.07422 10.1562C7.20896 10.0992 7.45594 9.76154 7.50794 9.63317V9.69462C7.71142 9.60189 7.86042 9.35822 7.92714 9.23217L7.93143 9.29613C8.11322 9.13688 8.34463 8.1955 8.34463 8.1955L8.73029 8.57425C8.73029 8.57425 8.59081 8.85718 8.53648 8.90785C8.56226 8.91082 8.58821 8.91225 8.61416 8.91212C8.58878 8.94859 8.3949 9.22754 8.33413 9.33275C8.27726 9.43119 8.23713 9.38737 8.14971 9.38737C8.07721 9.38737 7.91289 9.50279 7.8859 9.54949C7.85671 9.59725 7.8397 9.65147 7.8364 9.70733C7.8364 9.76133 7.89361 9.83532 7.89361 9.83532C7.89571 9.82223 7.90165 9.81006 7.91067 9.80033L8.08313 10.0119C8.10037 10.031 8.17728 10.0434 8.20438 10.0188C8.27219 9.95715 8.33783 9.91407 8.39819 9.82508C8.42926 9.77923 8.43162 9.72669 8.46733 9.67745L8.87885 9.12544L8.88906 9.1826C8.95066 9.05832 9.24681 8.82084 9.24681 8.82084L9.55664 8.96334C9.55664 8.96334 8.97815 10.2923 8.46466 10.4966C8.46466 10.4966 8.68806 10.5914 8.96241 10.7338L9.08535 10.7995C9.11989 10.7579 9.15625 10.7118 9.19207 10.6638C9.35611 10.4445 9.51654 10.1903 9.51654 10.1903C9.52771 10.2563 9.44109 10.4602 9.29456 10.7116L9.20235 10.8652L9.31334 10.9301C9.5851 11.0935 9.84031 11.2813 9.93486 11.4539L10.0016 11.2871L9.93486 11.1203V5.28768L9.96821 5.20435L9.93519 5.0664Z" fill="black"/>
<path d="M9.93441 11.1202C9.83853 11.0162 9.63807 10.8893 9.41277 10.7721C9.68518 10.2835 9.82017 9.51116 9.75683 9.35741C9.75683 9.35741 9.64501 9.75796 9.50837 9.98623C9.38185 10.1976 9.2261 10.4354 9.07552 10.6117C8.96235 10.5628 8.84664 10.5201 8.72887 10.4837C9.18013 10.1363 9.64157 8.98796 9.64157 8.98796L9.16439 8.76696C9.16439 8.76696 8.98587 8.97495 8.9279 9.01356C8.9279 9.01356 8.90314 8.91013 8.88863 8.87363C8.88863 8.87363 8.82023 8.92533 8.78279 8.92656L8.76314 8.8105C8.71603 8.84188 8.63765 8.83525 8.63765 8.83525C8.70647 8.80268 8.78791 8.60316 8.78791 8.60316L8.33225 7.99745C8.33225 7.99745 8.17219 8.76605 7.98989 8.92405V5.61438L8.13418 5.74831L8.35274 5.5444V5.38911L8.15893 5.56998V5.10156C8.18131 5.06798 8.20238 5.03354 8.22211 4.99833C8.25348 5.05298 8.35486 5.22048 8.47396 5.32341C8.49355 5.24378 8.62252 5.16811 8.62252 5.16811C8.62252 5.16811 8.66873 5.29325 8.73946 5.32425C8.76435 5.28045 8.91281 5.18348 8.91281 5.18348C8.91281 5.18348 8.78579 5.20276 8.73436 5.2509C8.69018 5.24101 8.67886 5.0666 8.67886 5.0666C8.67886 5.0666 8.49195 5.15758 8.45945 5.22273C8.42381 5.2131 8.36832 5.07293 8.34672 5.0154C8.39293 5.01025 8.4394 5.00769 8.4859 5.00773C8.5392 5.00773 8.60739 5.03296 8.67884 5.0666C8.75734 5.10353 8.83946 5.1503 8.91279 5.1835C9.00672 5.226 9.14883 5.23463 9.19026 5.2364C9.14052 5.27091 9.08831 5.30171 9.03404 5.32855C9.03404 5.32855 9.2577 5.32648 9.41482 5.24833C9.47194 5.21389 9.5267 5.1757 9.57875 5.134C9.55482 5.20372 9.51835 5.26848 9.47114 5.32511C9.70189 5.3056 9.8168 5.17391 9.84937 5.12973C9.87013 5.18615 9.89888 5.23931 9.93475 5.28756H10.0181V10.9542L9.93441 11.1202ZM8.23405 4.4548L8.2383 4.5606V4.87205C8.1546 4.84326 8.04941 4.70583 7.99841 4.63315V4.59048C7.99897 4.5742 8.0029 4.55822 8.00995 4.54353C8.01701 4.52885 8.02703 4.51578 8.03939 4.50516L7.98902 4.48726C7.96427 4.51339 7.94998 4.5477 7.94889 4.58366V4.60841L7.79865 4.76968L7.65095 4.54613V4.49153C7.65095 4.45473 7.67927 4.4137 7.70303 4.38573L7.6535 4.36781C7.6285 4.40018 7.60227 4.4438 7.60227 4.4847V4.52905L7.43237 4.70398L7.34615 4.51883C7.44963 4.37558 7.61743 4.21518 7.77558 4.1001C7.77558 4.1001 8.11854 4.41478 8.23405 4.4548ZM7.36481 4.75685V5.0137L7.24528 5.1246V4.74321C7.24869 4.69766 7.26272 4.65353 7.28624 4.61436L7.36481 4.75685ZM7.73706 4.85581V5.01451L7.59962 5.14336V4.6468L7.73706 4.85581ZM7.55092 5.14251L7.41344 5.01453V4.82855L7.55092 4.68435V5.14251ZM8.17845 4.94968C8.14652 4.99476 8.06292 5.10503 7.97269 5.15361V4.71761C7.99339 4.75203 8.08834 4.90553 8.17845 4.94968ZM7.924 4.73978V5.1425L7.78652 5.01451V4.87203L7.924 4.73978ZM7.3648 5.16895V5.57083L7.24527 5.45905V5.28071L7.3648 5.16895ZM7.55082 5.2978V5.44198L7.41333 5.56995V5.1698L7.55082 5.2978ZM7.73691 5.16983V5.57L7.59947 5.44115V5.29866L7.73691 5.16983ZM7.92391 5.29866V5.44115L7.78644 5.56998V5.16983L7.92391 5.29866ZM8.11002 5.57083L7.97253 5.44198V5.30805C8.01994 5.27913 8.06762 5.22598 8.11 5.16983L8.11002 5.57083ZM7.76171 5.7483L7.90685 5.61348V8.92398L7.92393 9.1953L7.61658 9.50586V5.6126L7.76171 5.7483ZM7.53369 9.38216C7.53369 9.48858 7.33925 9.73671 7.24512 9.79341V5.61441L7.38854 5.74835L7.53369 5.61351V9.38216Z" fill="#B07E5B"/>
<path d="M8.74064 9.02298L8.84651 8.95044L8.86272 9.03323L8.42815 9.62364C8.39612 9.66671 8.36922 9.77636 8.36922 9.77636C8.36922 9.77636 8.32228 9.75418 8.32228 9.71409C8.32228 9.67473 8.32742 9.62791 8.32742 9.62791C8.31494 9.64061 8.30006 9.65069 8.28363 9.65758C8.26721 9.66446 8.24958 9.66801 8.23177 9.66801C8.23177 9.61963 8.3254 9.56714 8.3291 9.49824C8.25771 9.55114 8.1957 9.52399 8.11311 9.54944C8.02317 9.57713 7.99812 9.61489 7.97054 9.61344C7.95429 9.61256 7.93958 9.58456 7.94579 9.56736C7.95653 9.53758 8.06777 9.45514 8.14553 9.44024C8.16416 9.43668 8.31069 9.47211 8.34021 9.42659L8.6783 8.90529C8.68996 8.9031 8.70119 8.89906 8.71157 8.89331C8.71157 8.89331 8.71044 8.98916 8.74062 9.02298H8.74064ZM8.05995 9.60738C8.0658 9.61376 8.0654 9.62366 8.05906 9.62954L8.01126 9.67134C8.00441 9.67669 7.99454 9.67554 7.98908 9.66878C7.98321 9.66241 7.9836 9.65249 7.98995 9.64659L8.03775 9.60479C8.03925 9.60348 8.04102 9.60249 8.04294 9.60191C8.04485 9.60132 8.04687 9.60115 8.04885 9.60139C8.05316 9.60196 8.05709 9.60409 8.05995 9.60738ZM8.13251 9.65771C8.14667 9.67263 8.14604 9.69618 8.13113 9.71033L8.13079 9.71063L8.01468 9.81214C7.99705 9.82523 7.97215 9.82154 7.95908 9.80393C7.94742 9.78823 7.94892 9.76639 7.9626 9.75244L8.07871 9.65176C8.0845 9.64688 8.09165 9.64389 8.0992 9.64321C8.11198 9.64251 8.12432 9.64788 8.13251 9.65771ZM8.19905 9.73621C8.20242 9.73975 8.20506 9.74392 8.20681 9.74848C8.20857 9.75303 8.2094 9.75789 8.20928 9.76277C8.20915 9.76766 8.20807 9.77246 8.20608 9.77693C8.20409 9.78139 8.20125 9.78542 8.1977 9.78878L8.19734 9.78911L8.08039 9.89064C8.0642 9.90361 8.04055 9.90101 8.02756 9.88483L8.02744 9.88468C8.02058 9.8773 8.01691 9.86752 8.01723 9.85745C8.01756 9.84739 8.02185 9.83786 8.02918 9.83094L8.14527 9.73026C8.15074 9.7254 8.15762 9.72241 8.16491 9.72171C8.17792 9.72098 8.19055 9.72633 8.19905 9.73621ZM8.23913 9.79849C8.24537 9.79797 8.25164 9.79894 8.25743 9.80131C8.26322 9.80368 8.26836 9.8074 8.27243 9.81214C8.28671 9.82749 8.28596 9.85148 8.27073 9.86589L8.15461 9.96659C8.14665 9.97231 8.13686 9.97487 8.12712 9.97378C8.11738 9.97269 8.1084 9.96802 8.10191 9.96068C8.09543 9.95334 8.0919 9.94386 8.09201 9.93407C8.09212 9.92428 8.09587 9.91488 8.10252 9.90769L8.2195 9.80618C8.22503 9.80154 8.23192 9.79884 8.23913 9.79849Z" fill="#CC092F"/>
<path d="M9.93454 5.0664L10.6747 5.23307C10.7084 5.2229 10.8668 5.17373 10.9778 5.11192C11.1734 5.00305 11.2748 4.89473 11.5072 4.8841V4.70747C11.5072 4.6131 11.473 4.52808 11.473 4.43785C11.571 4.4116 11.8429 4.07935 12.0937 3.93188C12.4628 4.17078 12.7486 4.56297 12.7486 4.74332V9.96848C12.7486 10.0463 12.7955 10.1562 12.7955 10.1562C12.6608 10.0992 12.4138 9.76154 12.3618 9.63317V9.69462C12.1583 9.60189 12.0093 9.35822 11.9426 9.23217L11.9383 9.29613C11.7565 9.13688 11.5251 8.1955 11.5251 8.1955L11.1394 8.57425C11.1394 8.57425 11.2789 8.85718 11.3333 8.90785C11.3075 8.91082 11.2815 8.91225 11.2556 8.91212C11.281 8.94859 11.4748 9.22754 11.5356 9.33275C11.5925 9.43119 11.6326 9.38737 11.72 9.38737C11.7925 9.38737 11.9568 9.50279 11.9838 9.54949C12.013 9.59725 12.03 9.65147 12.0333 9.70733C12.0333 9.76133 11.9761 9.83532 11.9761 9.83532C11.974 9.82223 11.9681 9.81006 11.9591 9.80033L11.7866 10.0119C11.7694 10.031 11.6925 10.0434 11.6654 10.0188C11.5975 9.95715 11.5319 9.91407 11.4715 9.82508C11.4405 9.77923 11.4381 9.72669 11.4024 9.67745L10.9909 9.12544L10.9807 9.1826C10.9191 9.05832 10.6229 8.82084 10.6229 8.82084L10.3131 8.96334C10.3131 8.96334 10.8916 10.2923 11.4051 10.4966C11.4051 10.4966 11.1817 10.5914 10.9073 10.7338L10.7844 10.7995C10.7498 10.7579 10.7135 10.7118 10.6777 10.6638C10.5136 10.4445 10.3532 10.1903 10.3532 10.1903C10.342 10.2563 10.4286 10.4602 10.5752 10.7116L10.6674 10.8652L10.5564 10.9301C10.2846 11.0935 10.0294 11.2813 9.93487 11.4539L9.86816 11.2871L9.93487 11.1203V5.28768L9.90152 5.20435L9.93454 5.0664Z" fill="black"/>
<path d="M9.93431 11.1202C10.0302 11.0162 10.2307 10.8893 10.4559 10.7721C10.1835 10.2835 10.0485 9.51116 10.1119 9.35741C10.1119 9.35741 10.2237 9.75796 10.3604 9.98623C10.4869 10.1976 10.6426 10.4354 10.7932 10.6117C10.9064 10.5628 11.0221 10.5201 11.1398 10.4837C10.6886 10.1363 10.2271 8.98796 10.2271 8.98796L10.7043 8.76696C10.7043 8.76696 10.8828 8.97495 10.9408 9.01356C10.9408 9.01356 10.9656 8.91013 10.9801 8.87363C10.9801 8.87363 11.0485 8.92533 11.0859 8.92656L11.1056 8.8105C11.1527 8.84188 11.2311 8.83525 11.2311 8.83525C11.1622 8.80268 11.0808 8.60316 11.0808 8.60316L11.5365 7.99745C11.5365 7.99745 11.6965 8.76605 11.8788 8.92405V5.61438L11.7345 5.74831L11.516 5.5444V5.38911L11.7098 5.56998V5.10156C11.6874 5.06798 11.6663 5.03354 11.6466 4.99833C11.6152 5.05298 11.5139 5.22048 11.3948 5.32341C11.3752 5.24378 11.2462 5.16811 11.2462 5.16811C11.2462 5.16811 11.2 5.29325 11.1293 5.32425C11.1044 5.28045 10.9559 5.18348 10.9559 5.18348C10.9559 5.18348 11.0829 5.20276 11.1344 5.2509C11.1785 5.24101 11.1899 5.0666 11.1899 5.0666C11.1899 5.0666 11.3768 5.15758 11.4093 5.22273C11.4449 5.2131 11.5004 5.07293 11.522 5.0154C11.4758 5.01025 11.4293 5.00769 11.3828 5.00773C11.3295 5.00773 11.2613 5.03296 11.1899 5.0666C11.1114 5.10353 11.0293 5.1503 10.9559 5.1835C10.862 5.226 10.7199 5.23463 10.6785 5.2364C10.7282 5.27091 10.7804 5.30171 10.8347 5.32855C10.8347 5.32855 10.611 5.32648 10.4539 5.24833C10.3968 5.21389 10.342 5.1757 10.29 5.134C10.3139 5.20372 10.3504 5.26848 10.3976 5.32511C10.1668 5.3056 10.0519 5.17391 10.0193 5.12973C9.99859 5.18615 9.96984 5.23931 9.93397 5.28756H9.85059V10.9542L9.93431 11.1202ZM11.6347 4.4548L11.6304 4.5606V4.87205C11.7141 4.84326 11.8193 4.70583 11.8703 4.63315V4.59048C11.8697 4.5742 11.8658 4.55822 11.8588 4.54353C11.8517 4.52885 11.8417 4.51578 11.8293 4.50516L11.8797 4.48726C11.9045 4.51339 11.9187 4.5477 11.9198 4.58366V4.60841L12.0701 4.76968L12.2178 4.54613V4.49153C12.2178 4.45473 12.1895 4.4137 12.1657 4.38573L12.2152 4.36781C12.2402 4.40018 12.2665 4.4438 12.2665 4.4847V4.52905L12.4363 4.70398L12.5226 4.51883C12.4191 4.37558 12.2513 4.21518 12.0931 4.1001C12.0931 4.1001 11.7502 4.41478 11.6347 4.4548ZM12.5039 4.75685V5.0137L12.6234 5.1246V4.74321C12.62 4.69766 12.606 4.65353 12.5825 4.61436L12.5039 4.75685ZM12.1317 4.85581V5.01451L12.2691 5.14336V4.6468L12.1317 4.85581ZM12.3178 5.14251L12.4553 5.01453V4.82855L12.3178 4.68435V5.14251ZM11.6903 4.94968C11.7222 4.99476 11.8058 5.10503 11.896 5.15361V4.71761C11.8753 4.75203 11.7804 4.90553 11.6903 4.94968ZM11.9447 4.73978V5.1425L12.0822 5.01451V4.87203L11.9447 4.73978ZM12.5039 5.16895V5.57083L12.6235 5.45905V5.28071L12.5039 5.16895ZM12.3179 5.2978V5.44198L12.4554 5.56995V5.1698L12.3179 5.2978ZM12.1318 5.16983V5.57L12.2693 5.44115V5.29866L12.1318 5.16983ZM11.9448 5.29866V5.44115L12.0823 5.56998V5.16983L11.9448 5.29866ZM11.7587 5.57083L11.8962 5.44198V5.30805C11.8488 5.27913 11.8011 5.22598 11.7587 5.16983L11.7587 5.57083ZM12.107 5.7483L11.9619 5.61348V8.92398L11.9448 9.1953L12.2521 9.50586V5.6126L12.107 5.7483ZM12.335 9.38216C12.335 9.48858 12.5295 9.73671 12.6236 9.79341V5.61441L12.4802 5.74835L12.335 5.61351V9.38216Z" fill="#B07E5B"/>
<path d="M11.1299 9.02298L11.024 8.95044L11.0078 9.03323L11.4424 9.62364C11.4744 9.66671 11.5013 9.77636 11.5013 9.77636C11.5013 9.77636 11.5483 9.75418 11.5483 9.71409C11.5483 9.67473 11.5431 9.62791 11.5431 9.62791C11.5556 9.64061 11.5705 9.65069 11.5869 9.65758C11.6033 9.66446 11.621 9.66801 11.6388 9.66801C11.6388 9.61963 11.5451 9.56714 11.5414 9.49824C11.6128 9.55114 11.6748 9.52399 11.7574 9.54944C11.8474 9.57713 11.8724 9.61489 11.9 9.61344C11.9162 9.61256 11.931 9.58456 11.9247 9.56736C11.914 9.53758 11.8028 9.45514 11.725 9.44024C11.7064 9.43668 11.5598 9.47211 11.5303 9.42659L11.1922 8.90529C11.1806 8.9031 11.1693 8.89906 11.159 8.89331C11.159 8.89331 11.1601 8.98916 11.1299 9.02298H11.1299ZM11.8106 9.60738C11.8047 9.61376 11.8051 9.62366 11.8115 9.62954L11.8593 9.67134C11.8661 9.67669 11.876 9.67554 11.8815 9.66878C11.8873 9.66241 11.8869 9.65249 11.8806 9.64659L11.8328 9.60479C11.8313 9.60348 11.8295 9.60249 11.8276 9.60191C11.8257 9.60132 11.8237 9.60115 11.8217 9.60139C11.8174 9.60196 11.8134 9.60409 11.8106 9.60738ZM11.738 9.65771C11.7239 9.67263 11.7245 9.69618 11.7394 9.71033L11.7397 9.71063L11.8559 9.81214C11.8735 9.82523 11.8984 9.82154 11.9115 9.80393C11.9231 9.78823 11.9216 9.76639 11.9079 9.75244L11.7918 9.65176C11.786 9.64688 11.7789 9.64389 11.7713 9.64321C11.7586 9.64251 11.7462 9.64788 11.738 9.65771ZM11.6715 9.73621C11.6681 9.73975 11.6655 9.74392 11.6637 9.74848C11.662 9.75303 11.6611 9.75789 11.6613 9.76277C11.6614 9.76766 11.6625 9.77246 11.6645 9.77693C11.6664 9.78139 11.6693 9.78542 11.6728 9.78878L11.6732 9.78911L11.7901 9.89064C11.8063 9.90361 11.83 9.90101 11.843 9.88483L11.8431 9.88468C11.85 9.8773 11.8536 9.86752 11.8533 9.85745C11.853 9.84739 11.8487 9.83786 11.8414 9.83094L11.7253 9.73026C11.7198 9.7254 11.7129 9.72241 11.7056 9.72171C11.6926 9.72098 11.68 9.72633 11.6715 9.73621ZM11.6314 9.79849C11.6252 9.79797 11.6189 9.79894 11.6131 9.80131C11.6073 9.80368 11.6022 9.8074 11.5981 9.81214C11.5838 9.82749 11.5846 9.85148 11.5998 9.86589L11.7159 9.96659C11.7239 9.97231 11.7337 9.97487 11.7434 9.97378C11.7531 9.97269 11.7621 9.96802 11.7686 9.96068C11.7751 9.95334 11.7786 9.94386 11.7785 9.93407C11.7784 9.92428 11.7747 9.91488 11.768 9.90769L11.651 9.80618C11.6455 9.80154 11.6386 9.79884 11.6314 9.79849Z" fill="#CC092F"/>
<path d="M9.76373 3.44381C9.95482 3.44381 10.0892 3.53088 10.27 3.61103C10.3174 3.63203 10.3609 3.64905 10.3998 3.66221C10.3787 3.67833 10.362 3.69946 10.3511 3.72366C10.3511 3.72366 10.4322 3.73866 10.4689 3.80645C10.4689 3.80645 10.3919 3.81518 10.3793 3.86018C10.4224 3.86343 10.4653 3.9178 10.4655 3.97026L10.3562 3.93611C10.373 4.02041 10.3819 4.10611 10.3827 4.19208C10.3827 4.26018 10.2845 4.34031 10.2845 4.45573C10.2845 4.81796 10.3759 4.9572 10.4408 5.06918C10.4662 5.113 10.4868 5.16341 10.5296 5.20143C10.3425 5.10188 10.2034 4.97745 10.2034 4.86186V4.42416H10.1548V4.86186C10.1548 4.94568 10.1753 4.98473 10.1753 4.98473C10.2046 5.07746 10.264 5.2206 10.3008 5.27823C10.1286 5.18526 10.0412 5.06885 10.0412 5.02568V4.42415H9.99253V5.0342L10.0019 5.076C9.98106 5.10733 9.95394 5.14443 9.93533 5.15705C9.91677 5.14445 9.89047 5.10728 9.86957 5.076L9.87897 5.0342V4.42415H9.83031V5.02568C9.83031 5.06883 9.74287 5.18526 9.57076 5.27823C9.60753 5.22058 9.66689 5.07746 9.69624 4.98473C9.69624 4.98473 9.71674 4.9457 9.71674 4.86186V4.42416H9.66807V4.86186C9.66807 4.97731 9.52953 5.10195 9.34277 5.20143C9.38508 5.16338 9.40543 5.11275 9.4307 5.06918C9.50171 4.94671 9.5895 4.79113 9.5895 4.34821C9.5895 4.18198 9.5649 4.06896 9.52206 3.98986C9.50903 3.96376 9.49149 3.8943 9.5912 3.8943C9.64285 3.8943 9.76111 3.9856 9.76111 3.9856C9.7564 3.94011 9.73286 3.89866 9.69622 3.87126C9.68874 3.86537 9.68254 3.85802 9.67799 3.84966C9.67344 3.84129 9.67065 3.83209 9.66977 3.82261C9.67663 3.79697 9.69314 3.77496 9.71585 3.76118C9.72974 3.75488 9.51267 3.71708 9.51267 3.6187C9.51267 3.59821 9.52556 3.58456 9.57069 3.58456C9.62981 3.58456 9.72599 3.65538 9.81148 3.65538C9.87467 3.65538 9.89959 3.64001 9.9643 3.64001C10.0434 3.64001 10.2084 3.78966 10.2648 3.7842C10.2017 3.74461 10.0998 3.59478 9.94552 3.59478C9.89197 3.59478 9.8435 3.60673 9.79352 3.60673C9.72946 3.60673 9.66639 3.54785 9.59716 3.54785C9.55076 3.54785 9.49894 3.55043 9.49127 3.53845C9.47785 3.51753 9.48994 3.5054 9.50238 3.48811C9.52588 3.4555 9.59187 3.44603 9.65693 3.44376C9.67644 3.44308 9.69592 3.44275 9.71417 3.44291L9.76372 3.4438L9.76373 3.44381Z" fill="#B07E5B"/>
<path d="M9.14359 3.67818C9.17397 3.62914 9.22823 3.60004 9.28591 3.60183C9.32854 3.60183 9.46924 3.59888 9.46924 3.59888C9.48798 3.64756 9.57345 3.72891 9.57345 3.81351C9.57345 3.81351 9.4867 3.65723 9.24452 3.65723C9.20973 3.65669 9.17526 3.66384 9.14355 3.67816L9.14359 3.67818ZM9.53735 3.84334C9.53735 3.84334 9.48576 3.89764 9.47455 3.92663C9.4235 3.90729 9.33448 3.81561 9.33448 3.81561C9.33448 3.81561 9.40995 3.85964 9.53733 3.84334H9.53735Z" fill="#CC092F"/>
<path d="M9.45599 3.6995C9.45599 3.6995 9.39648 3.68043 9.39648 3.66047C9.39648 3.63503 9.42539 3.63503 9.44266 3.65485C9.45089 3.66833 9.45547 3.68373 9.45597 3.69952L9.45599 3.6995Z" fill="black"/>
<path d="M9.73332 3.82521C9.80123 3.82521 9.85628 3.78345 9.85628 3.73194C9.85628 3.68043 9.80123 3.63867 9.73332 3.63867C9.6654 3.63867 9.61035 3.68043 9.61035 3.73194C9.61035 3.78345 9.6654 3.82521 9.73332 3.82521Z" fill="black"/>
<path d="M9.73189 3.81743C9.77906 3.81743 9.8173 3.77922 9.8173 3.73208C9.8173 3.68494 9.77906 3.64673 9.73189 3.64673C9.68472 3.64673 9.64648 3.68494 9.64648 3.73208C9.64648 3.77922 9.68472 3.81743 9.73189 3.81743Z" fill="#FFD200"/>
<path d="M9.73249 3.77107C9.75409 3.77107 9.77161 3.75357 9.77161 3.73197C9.77161 3.71038 9.75409 3.69287 9.73249 3.69287C9.71088 3.69287 9.69336 3.71038 9.69336 3.73197C9.69336 3.75357 9.71088 3.77107 9.73249 3.77107Z" fill="black"/>
<path d="M8.35265 9.86572L8.62286 10.013L8.5573 10.3135L8.28711 10.1662L8.35265 9.86572Z" fill="black"/>
<path d="M7.0944 6.97876L6.99707 7.02314L8.09672 9.43014H8.2137L7.0944 6.97876ZM8.39128 9.81743L8.3119 9.89934L8.36141 10.0086L8.45788 9.96419L8.39128 9.81743Z" fill="black"/>
<path d="M7.43605 8.87651C7.43605 8.87651 7.52868 9.06771 7.59907 9.09392C7.56266 9.08401 7.44445 9.12736 7.44445 9.12736C7.44445 9.12736 7.65291 9.31344 7.82971 9.32566C7.97964 9.33597 8.05244 9.26119 8.05244 9.26119L8.0224 9.10246C7.95737 9.0298 7.87545 8.97424 7.78388 8.94067C7.63555 8.88904 7.43603 8.87654 7.43603 8.87654L7.43605 8.87651ZM8.13434 8.53401C8.13434 8.53401 8.00644 8.64342 7.97143 8.77016C7.93643 8.89689 7.99425 9.04094 7.99425 9.04094L8.10172 9.24129C8.10172 9.24129 8.25066 9.16207 8.31402 9.04362C8.37738 8.92517 8.35415 8.76532 8.35415 8.76532C8.35415 8.76532 8.23616 8.80922 8.22115 8.82866C8.24605 8.69726 8.13434 8.53401 8.13434 8.53401ZM7.72324 8.48284C7.72324 8.48284 7.57777 8.53197 7.43652 8.52347C7.30196 8.51536 7.19007 8.40244 7.19007 8.40244C7.19007 8.40244 7.30161 8.32701 7.35666 8.33706C7.29611 8.31494 7.2083 8.16334 7.2083 8.16334C7.2083 8.16334 7.33308 8.12566 7.44372 8.16734C7.55436 8.20902 7.65084 8.33017 7.65084 8.33017L7.72324 8.48284ZM7.77327 7.77284C7.77327 7.77284 7.84602 7.92337 7.82877 7.97569C7.85134 7.94086 7.93674 7.88661 7.93674 7.88661C7.93674 7.88661 7.98838 8.13034 7.93899 8.28087C7.88961 8.43141 7.7393 8.48871 7.7393 8.48871L7.57347 8.16642C7.57347 8.16642 7.54879 8.04702 7.60049 7.95247C7.65219 7.85792 7.77327 7.77282 7.77327 7.77282V7.77284ZM6.82682 7.37434C6.82682 7.37434 6.98404 7.35784 7.12786 7.41739C7.24811 7.46727 7.28497 7.55794 7.28497 7.55794L7.34419 7.71661C7.34419 7.71661 7.17306 7.78074 7.03785 7.73171C6.90265 7.68267 6.80328 7.52037 6.80328 7.52037C6.80328 7.52037 6.89778 7.48456 6.93375 7.49799C6.88135 7.47482 6.82685 7.37434 6.82685 7.37434V7.37436L6.82682 7.37434ZM7.32131 7.07984C7.32131 7.07984 7.3903 7.16839 7.39237 7.27024C7.41076 7.21609 7.4969 7.15624 7.4969 7.15624C7.4969 7.15624 7.5855 7.37049 7.56605 7.52261C7.5466 7.67472 7.41914 7.76472 7.41914 7.76472L7.26018 7.46319C7.26018 7.46319 7.20838 7.33961 7.22364 7.24374C7.2389 7.14787 7.32131 7.07981 7.32131 7.07981V7.07984ZM6.77678 6.50317C6.77678 6.50317 6.74828 6.66741 6.79678 6.76201C6.84011 6.84642 6.86769 6.86494 6.86769 6.86494C6.78507 6.81046 6.66016 6.80576 6.66016 6.80576C6.66016 6.80576 6.70462 6.98444 6.81087 7.06596C6.91713 7.14747 7.08097 7.12842 7.08097 7.12842C7.08097 7.12842 7.1887 6.98509 7.1812 6.83067C7.17369 6.67626 7.05098 6.51072 7.05098 6.51072C7.05098 6.51072 7.00258 6.61106 6.99831 6.68596C6.96699 6.60874 6.77675 6.50319 6.77675 6.50319L6.77678 6.50317ZM8.06096 9.25434L8.06538 9.31329C8.16336 9.31421 8.17795 9.30446 8.20307 9.33532C8.2273 9.36252 8.26644 9.37074 8.29958 9.35557C8.31886 9.34665 8.33384 9.33048 8.34127 9.31059C8.3487 9.2907 8.34799 9.26868 8.33927 9.24931C8.32101 9.20932 8.2838 9.20064 8.24796 9.20771C8.22597 9.21204 8.21149 9.22959 8.19283 9.23922C8.15734 9.25759 8.06092 9.25436 8.06092 9.25436L8.06096 9.25434Z" fill="black"/>
<path d="M8.05262 9.20955L8.1003 9.24447C8.04915 9.32804 8.03319 9.33524 8.04608 9.37289C8.05107 9.38991 8.05046 9.40809 8.04435 9.42474C8.03824 9.4414 8.02696 9.45566 8.01214 9.46544C7.99436 9.47705 7.9727 9.48119 7.95188 9.47696C7.93106 9.47272 7.91275 9.46045 7.90092 9.4428C7.87667 9.40614 7.889 9.37004 7.91398 9.34339C7.92932 9.32702 7.95184 9.32405 7.9699 9.31334C8.00429 9.29295 8.0526 9.20954 8.0526 9.20954L8.05262 9.20955ZM7.72074 8.50955L7.72514 8.5685C7.82314 8.5694 7.83771 8.55967 7.86283 8.59052C7.88706 8.6177 7.9262 8.62592 7.95934 8.61077C7.9995 8.59222 8.0172 8.54482 7.99902 8.50452C7.98076 8.46452 7.94357 8.45585 7.90773 8.46292C7.88571 8.46727 7.87125 8.4848 7.85261 8.49444C7.8171 8.51279 7.7207 8.50957 7.7207 8.50957L7.72074 8.50955Z" fill="black"/>
<path d="M7.74037 8.53015L7.78206 8.5721C7.71854 8.64667 7.70161 8.65132 7.7085 8.6905C7.7132 8.72663 7.69376 8.76158 7.66057 8.77667C7.64119 8.78538 7.61916 8.7861 7.59925 8.77867C7.57934 8.77125 7.56317 8.75628 7.55423 8.73702C7.53597 8.69703 7.55376 8.66327 7.5826 8.64083C7.6003 8.62708 7.62304 8.62762 7.64252 8.61987C7.67966 8.60508 7.74037 8.53017 7.74037 8.53017V8.53015ZM7.39064 7.81182L7.39506 7.87077C7.49306 7.87167 7.50764 7.86193 7.53277 7.89282C7.54458 7.90605 7.56033 7.91516 7.57771 7.9188C7.59508 7.92243 7.61316 7.92041 7.6293 7.91303C7.64858 7.90411 7.66356 7.88794 7.67099 7.86804C7.67842 7.84814 7.67769 7.82612 7.66897 7.80675C7.65068 7.76677 7.6135 7.7581 7.57765 7.76517C7.55563 7.76952 7.54117 7.78705 7.52251 7.79668C7.48702 7.81505 7.39062 7.8118 7.39062 7.8118L7.39064 7.81182Z" fill="black"/>
<path d="M7.41768 7.79974L7.45935 7.84167C7.39583 7.91626 7.37893 7.92091 7.38579 7.96009C7.39048 7.99621 7.37105 8.03116 7.33787 8.04624C7.3185 8.05495 7.29646 8.05567 7.27656 8.04824C7.25665 8.04082 7.24047 8.02585 7.23154 8.00659C7.21329 7.96659 7.23109 7.93282 7.25991 7.91041C7.2776 7.89662 7.30033 7.89719 7.31985 7.88941C7.35699 7.87462 7.41768 7.79974 7.41768 7.79974ZM7.0391 7.07574L7.0435 7.13467C7.1415 7.13559 7.15609 7.12584 7.18119 7.15669C7.193 7.16994 7.20874 7.17905 7.22611 7.1827C7.24349 7.18635 7.26157 7.18435 7.27772 7.17697C7.297 7.16805 7.31199 7.15188 7.31942 7.13198C7.32685 7.11208 7.32613 7.09006 7.31741 7.07069C7.29915 7.03069 7.26194 7.02201 7.22608 7.02909C7.2041 7.03344 7.18963 7.05099 7.17097 7.06061C7.13548 7.07896 7.03906 7.07574 7.03906 7.07574H7.0391Z" fill="black"/>
<path d="M7.06659 7.06323L7.10825 7.10518C7.04474 7.17977 7.02781 7.1844 7.0347 7.2236C7.03938 7.25972 7.01995 7.29467 6.98678 7.30975C6.96741 7.31845 6.94538 7.31917 6.92547 7.31175C6.90557 7.30432 6.8894 7.28936 6.88046 7.2701C6.86218 7.23012 6.88 7.19632 6.9088 7.17392C6.92651 7.16017 6.94924 7.1607 6.96874 7.15292C7.00586 7.13815 7.06657 7.06325 7.06657 7.06325L7.06659 7.06323Z" fill="black"/>
<path d="M8.39178 9.95091L8.55937 10.0423L8.51871 10.2287L8.35112 10.1373L8.39178 9.95091ZM7.65815 8.33471C7.62303 8.34928 7.57092 8.19646 7.53267 8.11274C7.49342 8.02683 7.41374 7.89441 7.43637 7.88408C7.4612 7.87274 7.49392 7.94228 7.53408 8.03019C7.57424 8.11811 7.69105 8.32101 7.65815 8.33468V8.33471ZM7.29741 7.52988C7.26231 7.54449 7.22386 7.44443 7.18562 7.36069C7.14638 7.27479 7.10815 7.21411 7.13079 7.20378C7.15563 7.19244 7.19233 7.26773 7.22445 7.33803C7.25557 7.40616 7.33032 7.51619 7.2974 7.52989L7.29741 7.52988ZM8.13196 9.35471C8.10439 9.36208 7.98404 9.11034 7.88675 8.89734C7.78945 8.68434 7.71702 8.51203 7.73965 8.50174C7.7645 8.49039 7.84327 8.69159 7.9406 8.90461C8.03793 9.11763 8.15262 9.34916 8.13198 9.35471H8.13196Z" fill="#FFD200"/>
<path d="M8.26612 9.32661C8.29012 9.32661 8.30958 9.30717 8.30958 9.28318C8.30958 9.25919 8.29012 9.23975 8.26612 9.23975C8.24211 9.23975 8.22266 9.25919 8.22266 9.28318C8.22266 9.30717 8.24211 9.32661 8.26612 9.32661Z" fill="#FFD200"/>
<path d="M7.96827 9.44233C7.99227 9.44233 8.01173 9.42289 8.01173 9.3989C8.01173 9.37491 7.99227 9.35547 7.96827 9.35547C7.94426 9.35547 7.9248 9.37491 7.9248 9.3989C7.9248 9.42289 7.94426 9.44233 7.96827 9.44233Z" fill="#FFD200"/>
<path d="M7.92627 8.58101C7.95028 8.58101 7.96974 8.56156 7.96974 8.53757C7.96974 8.51359 7.95028 8.49414 7.92627 8.49414C7.90227 8.49414 7.88281 8.51359 7.88281 8.53757C7.88281 8.56156 7.90227 8.58101 7.92627 8.58101Z" fill="#FFD200"/>
<path d="M7.62745 8.74751C7.65145 8.74751 7.67091 8.72807 7.67091 8.70408C7.67091 8.68009 7.65145 8.66064 7.62745 8.66064C7.60344 8.66064 7.58398 8.68009 7.58398 8.70408C7.58398 8.72807 7.60344 8.74751 7.62745 8.74751Z" fill="#FFD200"/>
<path d="M7.5962 7.88374C7.6202 7.88374 7.63966 7.8643 7.63966 7.84031C7.63966 7.81632 7.6202 7.79688 7.5962 7.79688C7.57219 7.79688 7.55273 7.81632 7.55273 7.84031C7.55273 7.8643 7.57219 7.88374 7.5962 7.88374Z" fill="#FFD200"/>
<path d="M7.3042 8.0168C7.32821 8.0168 7.34767 7.99735 7.34767 7.97337C7.34767 7.94938 7.32821 7.92993 7.3042 7.92993C7.2802 7.92993 7.26074 7.94938 7.26074 7.97337C7.26074 7.99735 7.2802 8.0168 7.3042 8.0168Z" fill="#FFD200"/>
<path d="M7.24463 7.14741C7.26864 7.14741 7.2881 7.12797 7.2881 7.10398C7.2881 7.07999 7.26864 7.06055 7.24463 7.06055C7.22063 7.06055 7.20117 7.07999 7.20117 7.10398C7.20117 7.12797 7.22063 7.14741 7.24463 7.14741Z" fill="#FFD200"/>
<path d="M6.95264 7.28047C6.97664 7.28047 6.9961 7.26102 6.9961 7.23704C6.9961 7.21305 6.97664 7.1936 6.95264 7.1936C6.92864 7.1936 6.90918 7.21305 6.90918 7.23704C6.90918 7.26102 6.92864 7.28047 6.95264 7.28047Z" fill="#FFD200"/>
<path d="M6.82524 6.60303C6.82524 6.60303 6.82099 6.72304 6.86072 6.79111C6.90044 6.85918 6.9892 6.88636 6.9892 6.88636C6.9892 6.88636 6.99344 6.76638 6.95371 6.69831C6.91398 6.63024 6.82524 6.60303 6.82524 6.60303ZM6.74219 6.87453C6.74219 6.87453 6.84651 6.88066 6.90676 6.92679C6.96702 6.97293 6.9903 7.06904 6.9903 7.06904C6.94394 7.07148 6.89819 7.05764 6.86095 7.02993C6.80073 6.98378 6.74219 6.87453 6.74219 6.87453ZM7.06957 6.63219C7.04827 6.68463 7.03783 6.74083 7.03888 6.79739C7.04287 6.88311 7.09292 6.97968 7.09292 6.97968C7.09292 6.97968 7.13816 6.87678 7.13418 6.79104C7.13019 6.70531 7.08169 6.65646 7.06957 6.63219ZM6.89395 7.40486C6.92878 7.45068 6.97316 7.48836 7.02402 7.51529C7.10287 7.55424 7.22037 7.55569 7.22037 7.55569C7.1826 7.50865 7.13586 7.46956 7.08286 7.44069C7.00401 7.40174 6.89395 7.40483 6.89395 7.40483V7.40486ZM6.9193 7.57086C6.9193 7.57086 6.95694 7.64454 7.02577 7.67613C7.0946 7.70771 7.23548 7.70513 7.23548 7.70513C7.20181 7.66361 7.15999 7.62942 7.1126 7.60468C7.04375 7.57306 6.9193 7.57086 6.9193 7.57086ZM7.31573 7.17786C7.29065 7.22184 7.2777 7.27168 7.27819 7.32229C7.28227 7.39804 7.33201 7.48081 7.33201 7.48081C7.33201 7.48081 7.36698 7.38593 7.36289 7.31019C7.35941 7.26264 7.3431 7.21691 7.31571 7.17786H7.31573ZM7.469 7.27503C7.469 7.27503 7.3978 7.37053 7.38758 7.46871C7.37735 7.56689 7.42807 7.66774 7.42807 7.66774C7.42807 7.66774 7.51408 7.58144 7.5243 7.48328C7.53452 7.38511 7.469 7.27506 7.469 7.27506V7.27503ZM7.2727 8.18169C7.28054 8.20824 7.29356 8.23298 7.31101 8.25448C7.33531 8.28278 7.36233 8.30863 7.39166 8.33168C7.4277 8.32203 7.46553 8.32114 7.50199 8.32909C7.56311 8.34234 7.64441 8.39676 7.64441 8.39676C7.64441 8.39676 7.5569 8.26624 7.46605 8.21549C7.40654 8.18487 7.33911 8.17308 7.27274 8.18168L7.2727 8.18169ZM7.2637 8.40603C7.2637 8.40603 7.37699 8.35766 7.47028 8.37014C7.56358 8.38263 7.64771 8.45633 7.64771 8.45633C7.64771 8.45633 7.52161 8.49993 7.42832 8.48746C7.36685 8.47641 7.30976 8.44818 7.26368 8.40603H7.2637ZM7.74251 7.87969C7.74251 7.87969 7.64233 7.98576 7.63392 8.07781C7.62552 8.16986 7.71516 8.25563 7.71516 8.25563C7.71278 8.22259 7.71652 8.18941 7.72618 8.15773C7.73895 8.12909 7.75515 8.1021 7.77443 8.07736C7.78237 8.04964 7.78527 8.02072 7.783 7.99198C7.77534 7.9527 7.76168 7.91483 7.74251 7.87969ZM7.88627 8.00253C7.88627 8.00253 7.79184 8.09801 7.76689 8.20026C7.74194 8.30251 7.7864 8.41153 7.7864 8.41153C7.7864 8.41153 7.87228 8.34383 7.89724 8.24159C7.92221 8.13936 7.88627 8.00253 7.88627 8.00253ZM8.12276 8.61886C8.14741 8.67104 8.16542 8.72609 8.17638 8.78274C8.18725 8.85736 8.17718 8.88319 8.17718 8.88319C8.17718 8.88319 8.13295 8.92664 8.11312 8.95219C8.08764 8.98503 8.0839 9.04513 8.0839 9.04513C8.0839 9.04513 7.99509 8.91319 8.00878 8.81674C8.02248 8.72029 8.12276 8.61884 8.12276 8.61884V8.61886ZM8.30988 8.82536C8.30988 8.82536 8.19617 8.90041 8.15106 8.97741C8.12421 9.02468 8.11643 9.08042 8.12931 9.13323C8.1553 9.12954 8.18013 9.12006 8.20197 9.10551C8.22381 9.09095 8.2421 9.07169 8.2555 9.04913C8.30063 8.97216 8.30986 8.82534 8.30986 8.82534L8.30988 8.82536ZM7.56273 9.14236C7.56273 9.14236 7.7266 9.13789 7.82676 9.16251C7.92693 9.18713 7.96339 9.24076 7.96339 9.24076C7.96339 9.24076 7.85076 9.29346 7.7506 9.26886C7.65043 9.24426 7.56271 9.14234 7.56271 9.14234L7.56273 9.14236ZM7.53504 8.94803C7.53504 8.94803 7.60897 9.06258 7.70455 9.10414C7.83627 9.16139 7.98879 9.13364 7.98879 9.13364C7.98879 9.13364 7.90593 9.03216 7.79193 8.98736C7.67792 8.94256 7.53504 8.94803 7.53504 8.94803Z" fill="#007A50"/>
<path d="M13.1454 6.69902L13.1668 6.74422C13.1456 6.75219 13.1278 6.76726 13.1164 6.78687C13.1007 6.81766 13.1267 6.86112 13.1267 6.86112C13.1267 6.86112 12.9465 6.84541 12.9183 6.86369C12.8928 6.88019 12.9291 7.00492 12.9123 7.11027C12.889 7.25711 12.831 7.24477 12.8287 7.27322C12.8264 7.30087 12.8509 7.34404 12.8509 7.34404C12.8509 7.34404 12.8171 7.35467 12.8099 7.36879C12.7983 7.39149 12.8179 7.43337 12.8039 7.46092L12.5333 7.99164C12.5226 8.01259 12.4939 8.02059 12.4795 8.04881C12.4719 8.06933 12.471 8.09173 12.4769 8.11279C12.4769 8.11279 12.4262 8.11582 12.4086 8.15034C12.3975 8.17766 12.3948 8.20766 12.4009 8.23651C12.3908 8.23831 12.3812 8.2424 12.3729 8.24846C12.3646 8.25452 12.3579 8.2624 12.3531 8.27149C12.3362 8.30451 12.3648 8.32182 12.3574 8.33634L12.0594 8.92081C12.0322 8.97412 11.937 8.98481 11.8818 9.09316C11.8664 9.12226 11.8603 9.15542 11.8644 9.18809C11.8686 9.22077 11.8827 9.25138 11.9049 9.27574C11.9049 9.27574 11.8253 9.28294 11.8041 9.32439C11.7826 9.36664 11.7996 9.43079 11.8571 9.46004C11.9145 9.48929 11.9772 9.46561 11.9988 9.42336C12.0199 9.38191 11.9774 9.31329 11.9774 9.31329C12.0103 9.31661 12.0433 9.3098 12.0722 9.29378C12.101 9.27776 12.1243 9.2533 12.1388 9.22369C12.1941 9.11534 12.1475 9.03301 12.1747 8.97967L12.4726 8.39521C12.4801 8.38069 12.5104 8.39326 12.5273 8.36024C12.5318 8.3511 12.5342 8.34102 12.5342 8.33081C12.5342 8.32059 12.5318 8.31052 12.5273 8.30137C12.5544 8.28923 12.5773 8.26933 12.593 8.24419C12.6106 8.20967 12.5836 8.16656 12.5836 8.16656C12.6042 8.15921 12.6219 8.14546 12.634 8.12732C12.6484 8.09911 12.6378 8.07149 12.6485 8.05051L12.9192 7.51982C12.9332 7.49224 12.9785 7.48281 12.99 7.46007C12.9972 7.44597 12.9858 7.41231 12.9858 7.41231C12.9858 7.41231 13.0356 7.40737 13.0566 7.38926C13.0783 7.37062 13.0343 7.33066 13.1395 7.22544C13.2149 7.14997 13.3365 7.10557 13.335 7.07527C13.3332 7.04177 13.2146 6.90549 13.2146 6.90549C13.2146 6.90549 13.2646 6.90127 13.2803 6.87052C13.2895 6.84956 13.2914 6.82609 13.2855 6.80396L13.335 6.79542V6.56079L13.1454 6.69902ZM11.5088 9.96692C11.5047 9.975 11.5026 9.98391 11.5026 9.99293C11.5026 10.002 11.5047 10.0109 11.5088 10.0189C11.5088 10.0189 11.449 10.0003 11.4285 10.0104C11.4092 10.02 11.4285 10.3014 11.4285 10.3014C11.4285 10.3014 11.6669 10.1511 11.6633 10.1299C11.6594 10.1073 11.6095 10.0693 11.6095 10.0693C11.6183 10.0679 11.6267 10.0645 11.634 10.0593C11.6412 10.0542 11.6472 10.0473 11.6513 10.0394C11.6592 10.024 11.6602 9.97997 11.6061 9.95239C11.5899 9.94343 11.5716 9.93929 11.5531 9.94046C11.5349 9.94162 11.5184 9.95147 11.5088 9.96692Z" fill="black"/>
<path d="M13.189 6.70841L13.3017 6.76559L13.3 6.62991L13.189 6.70841ZM13.1455 6.79033C13.1256 6.82031 13.1338 6.86069 13.1638 6.88054C13.1938 6.90039 13.2342 6.89219 13.2541 6.86221C13.274 6.83223 13.2657 6.79184 13.2357 6.77199C13.2336 6.77059 13.2314 6.76931 13.2291 6.76816C13.2178 6.76231 13.2051 6.75965 13.1924 6.76048C13.1726 6.76139 13.1547 6.77276 13.1455 6.79034L13.1455 6.79033ZM12.9517 6.89358C12.9398 6.90124 12.9559 7.00266 12.9525 7.08894C12.9493 7.17031 12.9232 7.19323 12.909 7.22119C12.8958 7.24701 12.8484 7.27751 12.8484 7.27751L12.8876 7.31676C12.8876 7.31676 12.9132 7.27699 12.9534 7.19813C13.0008 7.10514 12.9993 6.93666 13.0132 6.92768C13.0496 6.91488 13.0866 6.90406 13.1242 6.89524C13.1241 6.89524 13.0334 6.89034 12.9833 6.89101C12.9727 6.89036 12.962 6.89123 12.9517 6.89359V6.89358ZM12.962 7.36199C12.9794 7.31887 12.999 7.27672 13.0209 7.23571C13.0762 7.12739 13.194 7.04883 13.1968 7.02923C13.1997 7.00903 13.1558 6.91406 13.1558 6.91406C13.1558 6.91406 13.0518 6.93398 13.0371 6.94819C13.0229 6.96191 13.0292 7.10264 12.9739 7.21098C12.9534 7.25314 12.9306 7.29415 12.9056 7.33384L12.962 7.36199ZM13.2275 7.03691C13.2284 7.05339 13.0914 7.15126 13.044 7.24423C13.0038 7.32308 12.9867 7.36711 12.9867 7.36711L13.0414 7.37564C13.0414 7.37564 13.0376 7.31953 13.0508 7.29373C13.065 7.26578 13.0688 7.23154 13.1328 7.18111C13.2006 7.12763 13.2923 7.08088 13.2916 7.06676C13.2909 7.05373 13.1891 6.92769 13.1891 6.92769C13.2038 6.96341 13.2166 6.99986 13.2275 7.03691ZM12.8263 7.64524C12.9086 7.48378 12.9337 7.47278 12.9441 7.45243C12.9552 7.43056 12.9526 7.40113 12.9159 7.38244C12.905 7.37639 12.8925 7.37373 12.8801 7.37479C12.8722 7.37573 12.8647 7.37864 12.8583 7.38327C12.8519 7.38789 12.8467 7.39407 12.8433 7.40123C12.833 7.42159 12.8386 7.44881 12.7562 7.61029L12.5692 7.97631C12.5667 7.98073 12.565 7.9856 12.5644 7.99066C12.5637 7.99572 12.564 8.00086 12.5653 8.00579C12.5666 8.01072 12.5689 8.01534 12.572 8.01939C12.5751 8.02344 12.579 8.02684 12.5834 8.02939C12.5844 8.02994 12.5853 8.03044 12.5863 8.03091C12.595 8.03574 12.6052 8.03694 12.6147 8.03425C12.6242 8.03156 12.6323 8.02521 12.6371 8.01658C12.6379 8.01514 12.6386 8.01365 12.6393 8.01213L12.8263 7.64524ZM12.4959 8.06504C12.4857 8.08506 12.5031 8.11444 12.5352 8.13076C12.5672 8.14708 12.6018 8.14394 12.612 8.12393C12.6222 8.10391 12.6039 8.07453 12.5719 8.05821C12.5577 8.05061 12.5418 8.04707 12.5257 8.04799C12.5135 8.04808 12.5022 8.05454 12.4959 8.06504ZM12.4267 8.16913C12.4135 8.19501 12.4341 8.23218 12.4728 8.25193C12.5115 8.27168 12.5535 8.26669 12.5667 8.24081C12.5799 8.21493 12.5593 8.17778 12.5206 8.15803C12.5074 8.15107 12.4928 8.147 12.4779 8.14609C12.4578 8.14313 12.4378 8.15213 12.4267 8.16913ZM12.3831 8.28519C12.3729 8.30518 12.3904 8.33458 12.4224 8.35088C12.4544 8.36718 12.489 8.36406 12.4993 8.34406C12.5095 8.32406 12.492 8.29466 12.46 8.27836C12.4456 8.27074 12.4293 8.26719 12.413 8.26811C12.407 8.26816 12.4011 8.26976 12.3958 8.27275C12.3906 8.27574 12.3862 8.28003 12.3831 8.28519ZM12.355 8.39611L12.0741 8.94813C12.0507 8.99403 11.9522 9.02263 11.9136 9.09831C11.8747 9.17444 11.9021 9.24571 11.9528 9.27151C12.0035 9.29731 12.078 9.27856 12.1168 9.20241C12.1554 9.12674 12.1207 9.02986 12.1441 8.98398L12.425 8.43194C12.4303 8.42328 12.4319 8.41286 12.4296 8.40298C12.4272 8.3931 12.421 8.38457 12.4123 8.37926C12.4112 8.37856 12.41 8.37791 12.4088 8.37734C12.4014 8.37346 12.3931 8.37197 12.3849 8.37309C12.3719 8.37574 12.3608 8.38424 12.355 8.39613V8.39611ZM11.8298 9.34401C11.8142 9.37451 11.832 9.41516 11.8699 9.43444C11.9078 9.45373 11.9517 9.44446 11.9672 9.41398C11.9828 9.38349 11.9641 9.34281 11.9263 9.32353C11.9131 9.31658 11.8984 9.31306 11.8836 9.31329C11.8613 9.31288 11.8407 9.32466 11.8298 9.34401ZM11.5532 9.96773C11.5483 9.96729 11.5433 9.96817 11.5388 9.97026C11.5343 9.97236 11.5304 9.97561 11.5276 9.97968C11.5197 9.99526 11.5361 10.0199 11.5643 10.0343C11.5926 10.0487 11.6221 10.0473 11.6301 10.0317C11.638 10.0161 11.6216 9.99148 11.5934 9.97711C11.581 9.97066 11.5672 9.96744 11.5532 9.96773ZM11.4559 10.0445V10.2459L11.6198 10.1281C11.6023 10.1009 11.5779 10.0789 11.5491 10.0642C11.5203 10.0495 11.4882 10.0427 11.4559 10.0445ZM11.5596 5.55986C11.5596 5.44943 11.7048 5.34058 11.7048 5.34058H8.16504C8.16504 5.34058 8.31018 5.44941 8.31018 5.55986V8.19296C8.30892 8.25081 8.32863 8.30718 8.36569 8.35164C8.39973 8.39919 8.47226 8.46489 8.54752 8.51376C8.78001 8.66464 9.1687 8.82374 9.46279 8.95744C9.70785 9.06884 9.80753 9.11379 9.93492 9.27143C10.0623 9.11379 10.1628 9.06886 10.4079 8.95744C10.702 8.82376 11.0907 8.66464 11.3232 8.51376C11.3985 8.46489 11.471 8.39921 11.505 8.35164C11.5418 8.30707 11.5612 8.25071 11.5596 8.19296V5.55986Z" fill="#FFD200"/>
<path d="M8.39328 7.04972V5.55997C8.39408 5.51133 8.3791 5.46373 8.35059 5.42432H11.5181C11.4896 5.46374 11.4746 5.51133 11.4754 5.55997L11.4763 7.04972L9.93482 7.51638L8.3933 7.04972H8.39328Z" fill="#CC092F"/>
<path d="M11.4766 7.04965L10.5221 7.03174H9.34808L8.39355 7.04965V8.193C8.39355 8.25047 8.45323 8.38509 8.7974 8.55645C9.36629 8.83975 9.80356 8.97202 9.93463 9.13324C10.0657 8.97202 10.503 8.83974 11.0719 8.55645C11.416 8.38509 11.4757 8.25047 11.4757 8.193L11.4766 7.04965Z" fill="#0046AE"/>
<path d="M10.4991 6.98991C10.4991 6.98991 11.0497 6.85115 11.0497 6.26296C11.0497 5.80358 10.4976 5.57568 10.482 5.46606C10.428 5.65575 10.6664 5.91773 10.6664 6.22798C10.6664 6.62941 10.3701 6.64863 10.3701 6.64863C10.3008 6.64863 10.2727 6.6981 10.2455 6.6981C10.1871 6.69201 10.1597 6.61788 10.102 6.61788C10.0479 6.61788 10.0063 6.7015 9.93468 6.7015C9.86308 6.7015 9.82236 6.61788 9.76819 6.61788C9.71055 6.61788 9.68308 6.69201 9.62476 6.6981C9.59751 6.6981 9.56941 6.64863 9.50008 6.64863C9.50008 6.64863 9.20383 6.62941 9.20383 6.22798C9.20383 5.91773 9.44224 5.65571 9.38826 5.46606C9.37261 5.57568 8.82053 5.80356 8.82053 6.26296C8.82053 6.85115 9.37121 6.98991 9.37121 6.98991L9.21411 7.27573C9.21411 7.27573 9.44167 7.28711 9.56245 7.39008C9.7081 7.51421 9.69392 7.77723 9.69392 7.96856C9.69392 8.11931 9.67486 8.2784 9.59746 8.34396C9.49353 8.43203 9.42326 8.43855 9.42326 8.54193C9.42326 8.62816 9.48959 8.64545 9.59746 8.70235C9.73567 8.77523 9.72923 8.87298 9.93468 8.87298C10.1401 8.87298 10.1346 8.77525 10.2728 8.70235C10.3807 8.64545 10.447 8.62816 10.447 8.54193C10.447 8.43855 10.3767 8.43203 10.2728 8.34396C10.1954 8.27836 10.1763 8.1193 10.1763 7.96856C10.1763 7.77723 10.1622 7.51421 10.3078 7.39008C10.4286 7.28713 10.6561 7.27573 10.6561 7.27573L10.4991 6.98991ZM9.93463 5.5069L9.83899 5.77825L9.57858 5.65451L9.70238 5.91476L9.43088 6.01116L9.70238 6.10758L9.57858 6.36696L9.83899 6.24325L9.93463 6.51456L10.0311 6.24325L10.2915 6.36696L10.1677 6.10758L10.4392 6.01116L10.1677 5.91476L10.2915 5.65451L10.0311 5.77825L9.93463 5.5069ZM9.34808 7.03173C9.34808 7.03173 9.00807 6.94866 8.88107 6.78088C8.73971 6.90433 8.57346 6.996 8.39355 7.04965C8.39355 7.04965 8.67052 7.17461 8.88107 7.33378C8.97809 7.19485 9.34808 7.03173 9.34808 7.03173Z" fill="black"/>
<path d="M10.5215 7.03186C10.5215 7.03186 10.8915 7.19496 10.9886 7.33391C11.1991 7.17474 11.476 7.04977 11.476 7.04977C11.2962 6.99611 11.1299 6.90446 10.9886 6.78101C10.8616 6.94877 10.5215 7.03186 10.5215 7.03186ZM9.48686 7.39352L9.35452 7.52576L9.48686 7.65801L9.61919 7.52576L9.48686 7.39352ZM10.3824 7.39352L10.2501 7.52576L10.3824 7.65801L10.5148 7.52576L10.3824 7.39352ZM9.45355 8.16569C9.4551 8.25102 9.44968 8.33636 9.43734 8.42081C9.43734 8.42081 9.6239 8.36592 9.66105 8.17679C9.67846 8.08812 9.69786 7.76149 9.6081 7.70581L9.36479 7.65802C9.42365 7.82081 9.45369 7.9926 9.45357 8.16569H9.45355ZM10.2612 7.70582C10.1714 7.76149 10.1908 8.08812 10.2082 8.17681C10.2454 8.36594 10.4319 8.42082 10.4319 8.42082C10.4196 8.33637 10.4142 8.25104 10.4157 8.16571C10.4156 7.99261 10.4457 7.82082 10.5045 7.65802L10.2612 7.70582ZM8.87987 7.71527C8.79667 7.73527 8.74544 7.81887 8.76545 7.90202C8.76876 7.91578 8.77394 7.92902 8.78084 7.94137C8.76842 7.93719 8.75549 7.93461 8.74242 7.93369C8.73702 7.93341 8.73161 7.93341 8.72621 7.93369C8.70476 7.93445 8.68369 7.93962 8.66432 7.94886C8.64495 7.95811 8.62769 7.97123 8.6136 7.98742C8.59952 8.00361 8.58892 8.02252 8.58246 8.04298C8.576 8.06343 8.57381 8.085 8.57604 8.10634C8.57827 8.12767 8.58486 8.14832 8.59541 8.167C8.60596 8.18569 8.62024 8.202 8.63737 8.21494C8.65449 8.22787 8.67409 8.23715 8.69496 8.2422C8.71582 8.24724 8.7375 8.24795 8.75864 8.24427C8.75103 8.25454 8.74473 8.26571 8.73988 8.27754C8.72419 8.31604 8.72443 8.3592 8.74056 8.39752C8.75669 8.43584 8.78739 8.46619 8.82591 8.48191C8.86443 8.49759 8.90762 8.49735 8.94596 8.48123C8.98431 8.46511 9.01468 8.43443 9.03041 8.39594L9.03101 8.39446C9.03568 8.38267 9.03883 8.37034 9.04041 8.35776C9.04802 8.3682 9.05691 8.37766 9.06686 8.38591C9.13241 8.44234 9.23132 8.43499 9.28781 8.36949C9.3443 8.30399 9.33692 8.20514 9.27138 8.14869C9.26065 8.13945 9.24872 8.13171 9.23591 8.12567C9.2482 8.12174 9.25995 8.1163 9.2709 8.10947C9.30613 8.08721 9.33111 8.05192 9.34038 8.01131C9.34966 7.9707 9.34248 7.92808 9.32041 7.89274C9.28993 7.84412 9.23511 7.81624 9.17784 7.82022C9.15175 7.82199 9.12652 7.83021 9.1044 7.84412C9.0935 7.85082 9.08347 7.85884 9.07453 7.86801C9.07434 7.82616 9.05751 7.7861 9.02777 7.75664C8.99802 7.72719 8.95779 7.71074 8.91591 7.71092C8.90377 7.71097 8.89168 7.71244 8.87987 7.71526V7.71527ZM10.5446 8.17086C10.5616 8.33064 10.6915 8.46451 10.852 8.50276C10.8241 8.45797 10.8066 8.40755 10.8007 8.35516C10.7807 8.16566 10.9273 8.01214 11.1277 8.01214C11.1588 8.01219 11.1898 8.01591 11.2199 8.02326C11.1452 7.90242 11.0137 7.82834 10.8716 7.82701C10.6712 7.82701 10.5245 7.98137 10.5446 8.17084V8.17086Z" fill="black"/>
<path d="M9.12362 6.22789C9.12362 6.53002 9.28484 6.70824 9.50013 6.70824C9.54119 6.70824 9.58611 6.76371 9.6248 6.76371C9.68787 6.76371 9.72983 6.69374 9.76824 6.69374C9.81706 6.69374 9.84996 6.77052 9.93472 6.77052C10.0195 6.77052 10.0532 6.69374 10.1021 6.69374C10.1405 6.69374 10.1824 6.76371 10.2455 6.76371C10.2842 6.76371 10.3291 6.70824 10.3702 6.70824C10.5854 6.70824 10.7467 6.53002 10.7467 6.22789C10.7467 5.98149 10.5396 5.68106 10.5623 5.63232C10.5623 5.63232 10.9661 5.92181 10.9661 6.26286C10.9661 6.81224 10.4086 6.94801 10.4086 6.94801L10.5341 7.23041C10.5341 7.23041 10.3613 7.25631 10.2557 7.34134C10.115 7.45476 10.1132 7.76119 10.1132 7.96844C10.1132 8.21257 10.1222 8.31602 10.2105 8.38226C10.3036 8.45214 10.3736 8.46719 10.3736 8.53841C10.3736 8.60046 10.3011 8.62584 10.2071 8.66724C10.1001 8.71436 10.0895 8.79609 9.93472 8.79609C9.77998 8.79609 9.77016 8.71436 9.66321 8.66724C9.56919 8.62584 9.49671 8.60047 9.49671 8.53841C9.49671 8.46719 9.56671 8.45214 9.65977 8.38226C9.74803 8.31602 9.7571 8.21257 9.7571 7.96844C9.7571 7.76119 9.75527 7.45476 9.61452 7.34134C9.50899 7.25627 9.33619 7.23041 9.33619 7.23041L9.46167 6.94801C9.46167 6.94801 8.90418 6.81226 8.90418 6.26286C8.90418 5.92181 9.30802 5.63232 9.30802 5.63232C9.33067 5.68106 9.12362 5.98149 9.12362 6.22789ZM9.72381 8.49666C9.61429 8.49666 9.54453 8.51976 9.54453 8.55297C9.54453 8.58619 9.61431 8.60844 9.72381 8.60844C9.753 8.60844 9.78614 8.59146 9.78614 8.55297C9.78578 8.53764 9.77934 8.52308 9.76824 8.51249C9.75713 8.5019 9.74228 8.49615 9.72693 8.49651C9.72589 8.49653 9.72485 8.49658 9.72381 8.49666ZM10.1464 8.49666C10.1388 8.49607 10.1312 8.49698 10.124 8.49934C10.1168 8.50169 10.1101 8.50545 10.1043 8.51039C10.0985 8.51533 10.0938 8.52136 10.0903 8.52813C10.0869 8.5349 10.0848 8.54228 10.0842 8.54986C10.0842 8.55089 10.0841 8.55193 10.0841 8.55297C10.0841 8.59146 10.1172 8.60844 10.1464 8.60844C10.256 8.60844 10.3257 8.58622 10.3257 8.55297C10.3257 8.51972 10.2559 8.49666 10.1464 8.49666ZM9.93562 5.68949L9.99709 5.86272L10.1627 5.78337L10.0842 5.94974L10.2566 6.01119L10.0842 6.07262L10.1627 6.23814L9.99709 6.15964L9.93477 6.33199L9.87329 6.15964L9.70767 6.23814L9.78622 6.07262L9.61376 6.01119L9.78622 5.94974L9.70767 5.78337L9.87329 5.86272L9.93562 5.68949ZM8.55566 7.05447C8.55566 7.05447 8.76595 7.15914 8.87159 7.25242L8.87754 7.25754L8.88094 7.25329C8.98078 7.13877 9.1661 7.04169 9.1661 7.04169C9.1661 7.04169 8.98805 6.99261 8.87584 6.86422C8.75723 6.98502 8.55566 7.05447 8.55566 7.05447ZM11.3143 7.05474C11.3143 7.05474 11.104 7.15941 10.9984 7.25269L10.9924 7.25781L10.989 7.25356C10.8892 7.13904 10.7039 7.04196 10.7039 7.04196C10.7039 7.04196 10.8819 6.99287 10.9941 6.86449C11.1128 6.98529 11.3143 7.05474 11.3143 7.05474ZM9.48732 7.45649L9.55649 7.52557L9.48732 7.59556L9.41731 7.52557L9.48732 7.45649ZM10.3829 7.45649L10.4529 7.52557L10.3829 7.59556L10.3138 7.52557L10.3829 7.45649ZM9.58127 7.75847C9.62958 7.82511 9.62138 7.93284 9.62138 8.08272C9.62282 8.12452 9.61305 8.16593 9.59309 8.20268C9.57313 8.23943 9.54369 8.27018 9.50784 8.29174C9.50784 7.92851 9.47036 7.84117 9.45063 7.73117L9.58127 7.75847ZM10.4196 7.73116C10.3998 7.84119 10.3624 7.92851 10.3624 8.29172C10.3266 8.27017 10.2971 8.23942 10.2772 8.20267C10.2572 8.16592 10.2474 8.1245 10.2489 8.08271C10.2489 7.93282 10.2407 7.82512 10.289 7.75847L10.4196 7.73116ZM9.04423 7.86862C9.04736 7.88175 9.04823 7.89532 9.04679 7.90874C9.04567 7.91927 9.04308 7.92961 9.03911 7.93944C8.9707 7.91521 8.89442 7.93477 8.84615 7.98894C8.83761 7.98148 8.83014 7.97286 8.82397 7.96334C8.81661 7.95238 8.81113 7.94027 8.80775 7.92751C8.79997 7.89616 8.80497 7.86301 8.82164 7.83535C8.83831 7.80769 8.86529 7.78777 8.89665 7.77997C8.92799 7.77222 8.96112 7.77719 8.98878 7.79381C9.01645 7.81043 9.03639 7.83733 9.04423 7.86862ZM9.22625 8.09626C9.21472 8.10329 9.20208 8.1083 9.18886 8.11107C9.17849 8.11326 9.16785 8.11401 9.15727 8.11327C9.15919 8.04077 9.117 7.97431 9.05054 7.94517C9.055 7.93474 9.06089 7.92498 9.06805 7.91617C9.07622 7.90579 9.08604 7.89684 9.09714 7.88967C9.12455 7.87258 9.15763 7.86706 9.18912 7.87433C9.2206 7.8816 9.24791 7.90106 9.26505 7.92844C9.28215 7.95584 9.28768 7.9889 9.2804 8.02036C9.27313 8.05183 9.25365 8.07912 9.22625 8.09624V8.09626ZM9.06588 8.33959C9.05562 8.33081 9.04694 8.32034 9.04021 8.30864C9.03493 8.29946 9.03094 8.28957 9.02836 8.27929C9.09795 8.25871 9.14815 8.19807 9.15536 8.12591C9.16666 8.12692 9.17777 8.12951 9.18836 8.13359C9.20075 8.13814 9.21231 8.14472 9.22257 8.15304C9.24725 8.17388 9.26265 8.20366 9.26538 8.23583C9.2681 8.26801 9.25794 8.29995 9.23711 8.32464C9.21633 8.34923 9.18666 8.3646 9.15458 8.3674C9.1225 8.3702 9.09061 8.3602 9.06588 8.33959ZM8.78473 8.26236C8.78992 8.2499 8.7972 8.23842 8.80626 8.22841C8.81337 8.22054 8.82154 8.2137 8.83053 8.20807C8.87162 8.26786 8.94484 8.29684 9.01575 8.28137C9.01828 8.29243 9.01925 8.30378 9.01863 8.31511C9.01813 8.3283 9.01545 8.34131 9.01068 8.35362C8.99854 8.38355 8.975 8.40744 8.94525 8.42003C8.91549 8.43262 8.88195 8.4329 8.85199 8.42079C8.82207 8.40866 8.79818 8.38517 8.78557 8.35547C8.77296 8.32576 8.77266 8.29227 8.78473 8.26234V8.26236ZM8.77136 7.97129C8.78481 7.97237 8.79799 7.97574 8.81031 7.98126C8.82 7.98559 8.82903 7.99122 8.83716 7.99804C8.79297 8.05557 8.78802 8.13412 8.82464 8.19674C8.8149 8.20256 8.80439 8.20699 8.79342 8.20991C8.78071 8.21351 8.7675 8.21498 8.75431 8.21426C8.72208 8.21196 8.69208 8.19696 8.67091 8.17257C8.64973 8.14818 8.63912 8.11639 8.64139 8.08417C8.64369 8.052 8.65866 8.02205 8.68302 8.00089C8.70739 7.97973 8.73915 7.96909 8.77136 7.97131V7.97129Z" fill="#FFD200"/>
<path d="M8.97916 8.22525C9.04423 8.22525 9.09698 8.17253 9.09698 8.1075C9.09698 8.04246 9.04423 7.98975 8.97916 7.98975C8.91408 7.98975 8.86133 8.04246 8.86133 8.1075C8.86133 8.17253 8.91408 8.22525 8.97916 8.22525Z" fill="#FFD200"/>
<path d="M11.0478 7.9489C10.8522 7.9867 10.7114 8.15937 10.7319 8.36102C10.6696 8.30942 10.6239 8.23992 10.6158 8.16307C10.5999 8.01342 10.7087 7.89771 10.8728 7.89771C10.9347 7.89826 10.9953 7.91598 11.0478 7.9489Z" fill="#FFD200"/>
<path d="M11.6359 5.36688H8.23452C8.27963 5.41226 8.33689 5.48466 8.33689 5.5597V7.84638H8.33679V8.19281H8.33689C8.33638 8.21994 8.34074 8.24694 8.34978 8.27253C8.35853 8.29522 8.37073 8.31642 8.38594 8.3354L8.38655 8.33621C8.41972 8.37845 8.45824 8.41618 8.50114 8.44848C8.51086 8.45609 8.52074 8.4635 8.53076 8.4707C8.54071 8.47782 8.55082 8.48472 8.56108 8.49138L8.56132 8.49155C8.74232 8.60898 9.02119 8.73247 9.27455 8.84462L9.47295 8.93315L9.47305 8.93325V8.93323L9.47869 8.93578H9.47877C9.71067 9.0412 9.81409 9.08825 9.93518 9.22996C10.0566 9.08771 10.1597 9.04085 10.3937 8.93447L10.3937 8.93443L10.3964 8.93321L10.5948 8.8447C10.8481 8.73255 11.127 8.60906 11.3081 8.4916L11.3083 8.4915C11.359 8.45848 11.4061 8.42001 11.4485 8.37678C11.4551 8.3699 11.4615 8.36281 11.4678 8.35553C11.4733 8.34903 11.4784 8.34255 11.4829 8.33623L11.4833 8.33583L11.4834 8.33571L11.4836 8.3354C11.4989 8.31632 11.5113 8.29506 11.5203 8.27231C11.5295 8.24685 11.534 8.2199 11.5335 8.19281H11.5336V7.84638H11.5335V5.5597C11.5335 5.48466 11.5908 5.41228 11.6359 5.36688ZM11.5865 5.5597V7.84638H11.5864V8.19281H11.5865C11.5869 8.22626 11.5813 8.25952 11.5697 8.29092C11.559 8.31832 11.5442 8.34397 11.5258 8.367L11.5259 8.36705C11.5203 8.37482 11.5143 8.38236 11.5081 8.38965C11.5012 8.39778 11.494 8.4057 11.4866 8.4134C11.4413 8.45951 11.3912 8.50055 11.337 8.53577L11.3369 8.53586C11.1519 8.65588 10.8711 8.78018 10.6161 8.89306L10.4183 8.9814L10.4156 8.98261H10.4156C10.1765 9.0913 10.0787 9.13573 9.9558 9.28785L9.9352 9.31333L9.91462 9.28788C9.79224 9.13646 9.69389 9.09175 9.45685 8.98398L9.45687 8.98395L9.45132 8.98143L9.45112 8.98133L9.45103 8.9813L9.45102 8.98135L9.25322 8.893C8.99819 8.7801 8.71745 8.65581 8.5325 8.5358L8.53188 8.53538L8.53168 8.53525C8.52126 8.52848 8.5106 8.52121 8.49991 8.51353C8.48922 8.50585 8.4788 8.49803 8.46864 8.49008C8.42173 8.45465 8.37966 8.41321 8.34351 8.36686H8.34353C8.32523 8.34386 8.31059 8.3182 8.3001 8.29075C8.28887 8.25935 8.28339 8.2262 8.2839 8.19285H8.284V7.84641H8.2839V5.5597C8.2839 5.46235 8.14978 5.3618 8.14941 5.36151V5.31396H11.7209V5.36151C11.7206 5.3618 11.5864 5.46235 11.5864 5.5597H11.5865ZM11.5064 5.39768L11.5064 5.39758H11.519L11.5738 5.39756L11.5396 5.4405C11.5147 5.4752 11.5018 5.51704 11.5028 5.55971V7.8464H11.5027V8.19283H11.5028C11.5028 8.23968 11.47 8.33015 11.3155 8.4429L11.3155 8.44295C11.2866 8.46403 11.2533 8.4861 11.2149 8.509C11.1762 8.53203 11.133 8.5557 11.0848 8.57971L11.0848 8.57963L11.0843 8.57988V8.57998C10.8778 8.68278 10.6872 8.76635 10.5226 8.83848C10.2399 8.96236 10.0351 9.05211 9.95575 9.14963L9.95535 9.15015L9.95526 9.15025L9.93465 9.17425L9.91472 9.14971C9.83539 9.05213 9.63057 8.96235 9.34773 8.83842C9.18326 8.76633 8.99277 8.68283 8.78652 8.58015V8.58005L8.78617 8.57987L8.78611 8.57995C8.63977 8.5071 8.54351 8.44026 8.48096 8.38286C8.46945 8.3723 8.45834 8.3613 8.44766 8.3499C8.38414 8.28168 8.36771 8.22656 8.36769 8.19288H8.36759V8.1928H8.36769V7.84636H8.36759V5.5597C8.36859 5.51702 8.35567 5.47518 8.3308 5.44048L8.29654 5.39768H8.41029V5.39758H11.4601V5.39768H11.5063H11.5064ZM11.4601 5.4504V5.4505H8.4103V5.4504H8.39713C8.41262 5.48476 8.4206 5.52202 8.42056 5.5597V7.84638H8.42046V8.19281H8.42056V8.1929H8.42046C8.42048 8.21668 8.43402 8.2577 8.48639 8.31393C8.49539 8.3236 8.50551 8.33366 8.51679 8.34401C8.57596 8.39835 8.66814 8.46211 8.80975 8.5326V8.5327L8.8101 8.53288L8.81015 8.5328C9.01762 8.6361 9.20611 8.71871 9.36888 8.79003C9.63797 8.90795 9.83809 8.99567 9.93522 9.09372C10.0324 8.99567 10.2325 8.90798 10.5015 8.79008C10.6644 8.7187 10.8531 8.636 11.0607 8.5326L11.0607 8.53268L11.0612 8.53243V8.53233C11.1093 8.50841 11.1512 8.48548 11.1878 8.4637C11.2246 8.44175 11.2566 8.42056 11.2843 8.40035H11.2844C11.4209 8.30078 11.4499 8.22865 11.4499 8.1928H11.45V7.84636H11.4499V5.5597C11.4498 5.52202 11.4578 5.48476 11.4733 5.4504H11.4601Z" fill="black"/>
</g>
<defs>
<clipPath id="clip0_202_3824">
<rect width="20" height="15" fill="white"/>
</clipPath>
</defs>
</svg>
