<svg width="20" height="15" viewBox="0 0 20 15" fill="none" xmlns="http://www.w3.org/2000/svg">
<g clip-path="url(#clip0_202_3703)">
<path d="M0 0H20V15H0V0Z" fill="#C4272F"/>
<path d="M6.66602 0H13.3348V15H6.66602V0Z" fill="#015197"/>
<path d="M3.34375 7.00317C3.94781 7.00317 4.4375 6.51349 4.4375 5.90942C4.4375 5.30536 3.94781 4.81567 3.34375 4.81567C2.73969 4.81567 2.25 5.30536 2.25 5.90942C2.25 6.51349 2.73969 7.00317 3.34375 7.00317Z" fill="#F9CF02"/>
<path d="M3.34414 6.60625C4.00343 6.60625 4.53789 6.07179 4.53789 5.4125C4.53789 4.75321 4.00343 4.21875 3.34414 4.21875C2.68485 4.21875 2.15039 4.75321 2.15039 5.4125C2.15039 6.07179 2.68485 6.60625 3.34414 6.60625Z" fill="#C4272F"/>
<path fill-rule="evenodd" clip-rule="evenodd" d="M2.84668 4.11865C2.84668 4.25043 2.89903 4.37681 2.99221 4.47C3.08539 4.56318 3.21178 4.61553 3.34355 4.61553C3.47533 4.61553 3.60172 4.56318 3.6949 4.47C3.78808 4.37681 3.84043 4.25043 3.84043 4.11865C3.84043 3.92178 3.71543 3.89365 3.71543 3.82178C3.71543 3.74678 3.79043 3.64678 3.64043 3.52178C3.71543 3.64678 3.59043 3.67178 3.59043 3.79678C3.59043 3.92178 3.64043 3.92178 3.64043 4.01865C3.6363 4.04175 3.62417 4.06267 3.60618 4.07773C3.58818 4.09279 3.56546 4.10104 3.54199 4.10104C3.51852 4.10104 3.4958 4.09279 3.47781 4.07773C3.45981 4.06267 3.44769 4.04175 3.44355 4.01865C3.44355 3.92178 3.54043 3.82178 3.54043 3.6749C3.54043 3.52178 3.51855 3.47178 3.44355 3.3499C3.36855 3.2249 3.24355 3.1249 3.34355 3.0249C3.19355 3.0749 3.26855 3.2749 3.26855 3.3999C3.26855 3.5249 3.16855 3.59678 3.16855 3.74365C3.16855 3.89053 3.24355 3.92178 3.24355 4.01865C3.23942 4.04175 3.2273 4.06267 3.2093 4.07773C3.19131 4.09279 3.16859 4.10104 3.14512 4.10104C3.12165 4.10104 3.09893 4.09279 3.08093 4.07773C3.06294 4.06267 3.05081 4.04175 3.04668 4.01865C3.04668 3.92178 3.09668 3.92178 3.09668 3.79678C3.09668 3.67178 2.97168 3.64678 3.04668 3.52178C2.89668 3.64678 2.97168 3.74678 2.97168 3.82178C2.97168 3.89678 2.84668 3.91865 2.84668 4.11865Z" fill="#F9CF02"/>
<path d="M3.34355 6.40317C3.78193 6.40317 4.1373 6.0478 4.1373 5.60942C4.1373 5.17105 3.78193 4.81567 3.34355 4.81567C2.90518 4.81567 2.5498 5.17105 2.5498 5.60942C2.5498 6.0478 2.90518 6.40317 3.34355 6.40317Z" fill="#F9CF02"/>
<path d="M1.15625 7.19995V11.9718H2.15V7.19995H1.15625ZM4.5375 7.19995V11.9718H5.53125V7.19995H4.5375ZM2.35 7.99683V8.3937H4.3375V7.99683H2.35ZM2.35 10.7781V11.1781H4.3375V10.7812L2.35 10.7781ZM2.35 7.19995H4.3375L3.34375 7.79683L2.35 7.19995ZM2.35 11.3781H4.3375L3.34375 11.9687L2.35 11.3781Z" fill="#F9CF02"/>
<path d="M3.34414 10.6407C3.92577 10.6407 4.39727 10.1692 4.39727 9.58755C4.39727 9.00592 3.92577 8.53442 3.34414 8.53442C2.76252 8.53442 2.29102 9.00592 2.29102 9.58755C2.29102 10.1692 2.76252 10.6407 3.34414 10.6407Z" fill="#F9CF02" stroke="#C4272F" stroke-width="0.17"/>
<path d="M3.34411 8.53125C3.48418 8.53125 3.61851 8.58689 3.71755 8.68593C3.81659 8.78498 3.87224 8.91931 3.87224 9.05937C3.87224 9.19944 3.81659 9.33377 3.71755 9.43282C3.61851 9.53186 3.48418 9.5875 3.34411 9.5875C3.27155 9.58191 3.19862 9.59137 3.12989 9.61529C3.06116 9.63922 2.99812 9.67709 2.94471 9.72653C2.89131 9.77598 2.84871 9.83592 2.81957 9.90261C2.79043 9.9693 2.77539 10.0413 2.77539 10.1141C2.77539 10.1868 2.79043 10.2588 2.81957 10.3255C2.84871 10.3922 2.89131 10.4521 2.94471 10.5016C2.99812 10.551 3.06116 10.5889 3.12989 10.6128C3.19862 10.6368 3.27155 10.6462 3.34411 10.6406" stroke="#C4272F" stroke-width="0.17"/>
<path d="M3.34355 9.25937C3.45401 9.25937 3.54355 9.16983 3.54355 9.05937C3.54355 8.94892 3.45401 8.85938 3.34355 8.85938C3.2331 8.85938 3.14355 8.94892 3.14355 9.05937C3.14355 9.16983 3.2331 9.25937 3.34355 9.25937Z" fill="#C4272F"/>
<path d="M3.34355 10.3126C3.45401 10.3126 3.54355 10.2231 3.54355 10.1126C3.54355 10.0021 3.45401 9.9126 3.34355 9.9126C3.2331 9.9126 3.14355 10.0021 3.14355 10.1126C3.14355 10.2231 3.2331 10.3126 3.34355 10.3126Z" fill="#C4272F"/>
</g>
<defs>
<clipPath id="clip0_202_3703">
<rect width="20" height="15" fill="white"/>
</clipPath>
</defs>
</svg>
