<svg width="20" height="15" viewBox="0 0 20 15" fill="none" xmlns="http://www.w3.org/2000/svg">
<g clip-path="url(#clip0_202_3754)">
<mask id="mask0_202_3754" style="mask-type:luminance" maskUnits="userSpaceOnUse" x="0" y="0" width="21" height="15">
<path d="M0 0H20.001V15H0V0Z" fill="white"/>
</mask>
<g mask="url(#mask0_202_3754)">
<path fill-rule="evenodd" clip-rule="evenodd" d="M0 0H22.5V4.6875H0V0Z" fill="#009A00"/>
<path fill-rule="evenodd" clip-rule="evenodd" d="M0 4.6875H22.5V5.15625H0V4.6875Z" fill="white"/>
<path fill-rule="evenodd" clip-rule="evenodd" d="M0 5.15625H22.5V9.84375H0V5.15625Z" fill="black"/>
<path fill-rule="evenodd" clip-rule="evenodd" d="M0 9.84375H22.5V10.3125H0V9.84375Z" fill="white"/>
<path fill-rule="evenodd" clip-rule="evenodd" d="M0 10.3125H22.5V15H0V10.3125Z" fill="#FFCA00"/>
<path fill-rule="evenodd" clip-rule="evenodd" d="M0 0V15L9.84375 7.5L0 0Z" fill="#FF0000"/>
<path fill-rule="evenodd" clip-rule="evenodd" d="M5.81543 9.75586L4.31543 8.65723L2.81543 9.75586L3.39844 7.98926L1.88965 6.90234L3.75 6.9082L4.31543 5.13867L4.88379 6.91113L6.74414 6.90234L5.23535 7.98926L5.81543 9.75586Z" fill="#FFCA00"/>
<path fill-rule="evenodd" clip-rule="evenodd" d="M3.01172 8.52246H4.0957C4.18359 8.61914 4.37402 8.66016 4.55859 8.52246C4.89844 8.33496 5.55469 8.52246 5.55469 8.52246L5.68359 8.38477L5.37012 7.35352L5.25586 7.23047C5.25586 7.23047 5.0127 7.08398 4.55273 7.13379C4.09277 7.18359 3.93164 7.11914 3.93164 7.11914C3.93164 7.11914 3.53027 7.16602 3.41602 7.22461L3.28711 7.35352L3.01172 8.52246Z" fill="white" stroke="black" stroke-width="0.05" stroke-linecap="round" stroke-linejoin="round"/>
<path d="M3.23145 8.25583C3.23145 8.25583 4.2627 8.12693 4.56152 8.52243C4.39453 8.63962 4.24512 8.64841 4.08691 8.53122C4.11035 8.48728 4.45605 8.12693 5.33789 8.24704" stroke="black" stroke-width="0.05" stroke-linecap="round" stroke-linejoin="round"/>
<path d="M4.33594 7.22461L4.32715 8.36133M5.25586 7.23926L5.44922 8.14453" stroke="black" stroke-width="0.05"/>
<path d="M3.42773 7.22461L3.31934 7.69336" stroke="black" stroke-width="0.05" stroke-linecap="round" stroke-linejoin="round"/>
<path fill-rule="evenodd" clip-rule="evenodd" d="M2.31152 8.64551L2.56348 8.94434C2.59277 8.96191 2.62207 8.96191 2.64844 8.94434L3.02344 8.49316L3.18164 8.29688C3.20801 8.26758 3.21387 8.23535 3.21094 8.20898L3.51562 7.93652L3.58008 7.94238C3.55078 7.93652 3.53027 7.92187 3.55078 7.88965L3.62109 7.83691L3.67383 7.9043C3.67383 7.9043 3.59766 8.00391 3.58887 8.00391H3.50684L3.34863 8.14746L3.41895 8.20605L3.52148 8.49316L3.65039 8.40234L3.56836 8.10937L3.74707 7.91309L3.67969 7.80762L3.72656 7.74902C3.72656 7.74902 4.35059 8.1416 4.59375 8.03613C4.59961 8.03613 4.6084 7.75488 4.6084 7.75488C4.6084 7.75488 3.95801 7.6875 3.94336 7.55859C3.92871 7.42969 4.08984 7.41211 4.08984 7.41211L4.01953 7.31836L4.03418 7.26562L4.14844 7.40625L4.40332 7.18945L5.91211 8.90625C5.99414 8.87402 6.01172 8.85352 6.01758 8.77148L4.54102 7.0752L4.65234 6.95508C4.67578 6.92871 4.68164 6.91992 4.68164 6.87891L4.85742 6.72949C4.90345 6.74527 4.94272 6.77627 4.96875 6.81738L5.44922 6.41602C5.46094 6.42773 5.49902 6.43945 5.52539 6.42773L6.31348 5.66895L5.45508 6.27539L5.42578 6.25488C5.42578 6.22852 5.45508 6.22559 5.42578 6.17871C5.39062 6.1377 5.34082 6.2168 5.33496 6.2168C5.32617 6.2168 5.20898 6.17578 5.18262 6.12305L5.17676 6.26074L4.95703 6.46582L4.79004 6.45703L4.5498 6.69141L4.52051 6.7793L4.55859 6.8584C4.55859 6.8584 4.42969 6.96973 4.42969 6.96387C4.42969 6.95508 4.40332 6.92871 4.40039 6.92578L4.51172 6.82617L4.52637 6.75879L4.49121 6.7002C4.47949 6.70898 4.33887 6.8584 4.33008 6.84082L3.91992 6.38672L3.94336 6.30176L3.68848 6.02344C3.59473 5.99121 3.44531 5.98535 3.41602 6.19043C3.39258 6.2373 3.19922 6.19629 3.19922 6.19629L3.09375 6.21973L2.49609 7.06055L2.82715 7.45898L3.50684 6.60059L3.52734 6.35742L3.66797 6.51562C3.71777 6.52148 3.76172 6.52441 3.80566 6.50098L4.20703 6.94922L4.13965 7.0166L4.19824 7.08105L4.26855 7.03418L4.29492 7.07227C4.2627 7.08984 4.23633 7.11621 4.2041 7.13379C4.15137 7.09863 4.09863 7.05469 4.10156 6.9873L3.87598 7.1748L3.86719 7.20996L3.19629 7.7666L3.1377 7.77539L3.12305 7.95117L3.55957 7.58789V7.53516L3.60352 7.57324L3.94336 7.30078C3.94336 7.30078 3.9668 7.33008 3.95801 7.33008C3.94922 7.33008 3.65625 7.60254 3.65625 7.60254L3.65039 7.63184L3.59766 7.67871L3.56836 7.65527L3.1582 8.01856H3.09961L2.87402 8.24414C2.81543 8.25 2.76562 8.25586 2.71582 8.28809L2.31152 8.64551Z" fill="black" stroke="black" stroke-width="0.05" stroke-linecap="round" stroke-linejoin="round"/>
</g>
</g>
<defs>
<clipPath id="clip0_202_3754">
<rect width="20" height="15" fill="white"/>
</clipPath>
</defs>
</svg>
