<svg width="20" height="15" viewBox="0 0 20 15" fill="none" xmlns="http://www.w3.org/2000/svg">
<g clip-path="url(#clip0_202_3805)">
<mask id="mask0_202_3805" style="mask-type:luminance" maskUnits="userSpaceOnUse" x="0" y="0" width="20" height="15">
<path d="M0 0H20V15H0V0Z" fill="white"/>
</mask>
<g mask="url(#mask0_202_3805)">
<path fill-rule="evenodd" clip-rule="evenodd" d="M0 0H20V15H0V0Z" fill="white"/>
<path fill-rule="evenodd" clip-rule="evenodd" d="M-0.825195 0.00625L-0.800195 10.8062L16.0154 0L-0.825195 0.00625Z" fill="#3662A2"/>
<path fill-rule="evenodd" clip-rule="evenodd" d="M20.8244 14.9874L20.7807 3.75928L3.82129 14.9937L20.8213 14.9874H20.8244Z" fill="#38A100"/>
<path fill-rule="evenodd" clip-rule="evenodd" d="M-0.8125 11.6187L-0.8 14.9999L2.87188 14.9968L20.7938 2.98115L20.7719 0.0405273L17.1469 0.00927734L-0.8125 11.6155V11.6187Z" fill="#C70000"/>
<path fill-rule="evenodd" clip-rule="evenodd" d="M6.86191 5.375L6.18066 4.9625L5.78691 5.65312L5.40566 4.95937L4.71816 5.3625L4.73691 4.56875L3.94316 4.575L4.35566 3.89375L3.66504 3.50312L4.35879 3.11875L3.95879 2.43125L4.75254 2.45L4.74941 1.65313L5.42754 2.06562L5.82129 1.375L6.20254 2.06875L6.89004 1.66562L6.87129 2.45937L7.66504 2.45312L7.25254 3.13438L7.94316 3.525L7.24941 3.90937L7.64941 4.59688L6.85566 4.57812L6.86191 5.375Z" fill="#FFE700"/>
<path fill-rule="evenodd" clip-rule="evenodd" d="M7.26211 3.5126C7.26211 4.3126 6.60898 4.95947 5.80586 4.95947C5.00273 4.95947 4.34961 4.3126 4.34961 3.5126C4.34961 2.7126 4.99961 2.06885 5.80586 2.06885C6.61211 2.06885 7.26211 2.71572 7.26211 3.5126Z" fill="#3662A2"/>
<path fill-rule="evenodd" clip-rule="evenodd" d="M6.94629 3.51245C6.94629 3.81496 6.82612 4.10509 6.61221 4.31899C6.3983 4.5329 6.10818 4.65308 5.80566 4.65308C5.50315 4.65308 5.21303 4.5329 4.99912 4.31899C4.78521 4.10509 4.66504 3.81496 4.66504 3.51245C4.66504 3.20994 4.78521 2.91982 4.99912 2.70591C5.21303 2.492 5.50315 2.37183 5.80566 2.37183C6.10818 2.37183 6.3983 2.492 6.61221 2.70591C6.82612 2.91982 6.94629 3.20994 6.94629 3.51245Z" fill="#FFE700"/>
</g>
</g>
<defs>
<clipPath id="clip0_202_3805">
<rect width="20" height="15" fill="white"/>
</clipPath>
</defs>
</svg>
