<svg width="20" height="15" viewBox="0 0 20 15" fill="none" xmlns="http://www.w3.org/2000/svg">
<g clip-path="url(#clip0_202_4039)">
<path d="M0 0H20V15H0V0Z" fill="white"/>
<mask id="mask0_202_4039" style="mask-type:luminance" maskUnits="userSpaceOnUse" x="0" y="0" width="15" height="15">
<path d="M0 0H15V15H0V0Z" fill="white"/>
</mask>
<g mask="url(#mask0_202_4039)">
<path fill-rule="evenodd" clip-rule="evenodd" d="M0.19043 14.8096H11.2881L4.02539 7.44434L11.5635 7.45312L0.193359 0.19043V14.8096H0.19043Z" fill="#CE0000" stroke="#000063" stroke-width="0.5"/>
<path fill-rule="evenodd" clip-rule="evenodd" d="M5.29395 10.8926L4.50293 11.1562L5.12402 11.7363L4.28906 11.6836L4.63184 12.4512L3.88477 12.0908L3.89941 12.9287L3.34863 12.3164L3.03516 13.0957L2.76562 12.3252L2.1709 12.9287L2.22363 12.1172L1.43555 12.4512L1.80469 11.7188L0.946289 11.7363L1.57617 11.2002L0.776367 10.8926L1.56738 10.6289L0.943359 10.0488L1.77539 10.1016L1.43555 9.33398L2.18555 9.69434L2.1709 8.85644L2.72168 9.46875L3.03516 8.68945L3.30176 9.45996L3.89941 8.85644L3.84375 9.66797L4.63477 9.33398L4.2627 10.0664L5.12402 10.0488L4.49414 10.585L5.29395 10.8926ZM4.34473 5.48145L4.01367 5.72754L4.17773 5.8623C4.56273 5.59337 4.87239 5.23026 5.07715 4.80762C5.12988 5.43164 4.55859 6.8291 3.06445 6.84375C2.79136 6.84723 2.52028 6.7966 2.26686 6.69476C2.01344 6.59293 1.7827 6.44191 1.58795 6.25043C1.3932 6.05895 1.2383 5.8308 1.13219 5.57914C1.02608 5.32748 0.970865 5.05729 0.969727 4.78418C1.2627 5.31738 1.44434 5.5752 1.90723 5.85352L2.04492 5.72461L1.73438 5.46387L2.13574 5.3584L1.91895 4.99512L2.34082 5.02441L2.28809 4.60254L2.65723 4.81934L2.77441 4.42383L3.03809 4.74023L3.28711 4.43848L3.42188 4.84863L3.76758 4.6084L3.72363 5.02734L4.13965 4.97754L3.94336 5.36426L4.34473 5.48145Z" fill="white"/>
</g>
</g>
<defs>
<clipPath id="clip0_202_4039">
<rect width="20" height="15" fill="white"/>
</clipPath>
</defs>
</svg>
