<svg width="20" height="15" viewBox="0 0 20 15" fill="none" xmlns="http://www.w3.org/2000/svg">
<g clip-path="url(#clip0_202_4049)">
<path fill-rule="evenodd" clip-rule="evenodd" d="M0 0H20V15H0V0Z" fill="#00247D"/>
<path d="M15.3252 3.34937V3.82341L16.2733 3.34937H15.3252Z" fill="white"/>
<path d="M15.5277 3.87643L15.249 3.49292L16.2947 3.31916L15.5277 3.87643Z" fill="white"/>
<path d="M15.3262 3.34937V3.82341L14.3781 3.34937H15.3262Z" fill="white"/>
<path d="M15.1237 3.87643L15.4023 3.49292L14.3567 3.31916L15.1237 3.87643Z" fill="white"/>
<path d="M15.5957 3.54614L15.1449 3.69263L15.8887 4.44782L15.5957 3.54614Z" fill="white"/>
<path d="M15.1569 3.90084L15.4355 3.51733L15.9239 4.45811L15.1569 3.90084Z" fill="white"/>
<path d="M15.0547 3.5459L15.5055 3.69238L15.3477 2.64422L15.0547 3.5459Z" fill="white"/>
<path d="M15.6188 3.5166L15.168 3.66309L15.3258 2.61492L15.6188 3.5166Z" fill="white"/>
<path d="M15.0547 3.54614L15.5055 3.69263L14.7617 4.44782L15.0547 3.54614Z" fill="white"/>
<path d="M15.4935 3.90084L15.2148 3.51733L14.7265 4.45811L15.4935 3.90084Z" fill="white"/>
<path d="M15.3262 3.4458V3.75904L15.9527 3.4458H15.3262Z" fill="#CC142B"/>
<path d="M15.4595 3.79395L15.2754 3.54053L15.9663 3.42571L15.4595 3.79395Z" fill="#CC142B"/>
<path d="M15.3262 3.4458V3.75904L14.6997 3.4458H15.3262Z" fill="#CC142B"/>
<path d="M15.1928 3.79395L15.377 3.54053L14.686 3.42571L15.1928 3.79395Z" fill="#CC142B"/>
<path d="M15.5049 3.57593L15.207 3.67272L15.6985 4.17175L15.5049 3.57593Z" fill="#CC142B"/>
<path d="M15.2143 3.8103L15.3984 3.55688L15.7212 4.17854L15.2143 3.8103Z" fill="#CC142B"/>
<path d="M15.1465 3.57593L15.4444 3.67272L15.3401 2.98011L15.1465 3.57593Z" fill="#CC142B"/>
<path d="M15.5196 3.55652L15.2217 3.65332L15.326 2.9607L15.5196 3.55652Z" fill="#CC142B"/>
<path d="M15.1465 3.57593L15.4444 3.67272L14.9529 4.17175L15.1465 3.57593Z" fill="#CC142B"/>
<path d="M15.437 3.8103L15.2529 3.55688L14.9302 4.17854L15.437 3.8103Z" fill="#CC142B"/>
<path d="M17.8096 5.5376L17.8096 5.95943L18.6532 5.5376L17.8096 5.5376Z" fill="white"/>
<path d="M17.9892 6.00631L17.7412 5.66504L18.6717 5.51041L17.9892 6.00631Z" fill="white"/>
<path d="M17.8096 5.5376L17.8096 5.95943L16.9659 5.5376L17.8096 5.5376Z" fill="white"/>
<path d="M17.63 6.00631L17.8779 5.66504L16.9474 5.51041L17.63 6.00631Z" fill="white"/>
<path d="M18.0508 5.7124L17.6496 5.84276L18.3115 6.51478L18.0508 5.7124Z" fill="white"/>
<path d="M17.6603 6.02828L17.9082 5.68701L18.3428 6.52418L17.6603 6.02828Z" fill="white"/>
<path d="M17.5684 5.71265L17.9695 5.843L17.8291 4.91027L17.5684 5.71265Z" fill="white"/>
<path d="M18.0701 5.68654L17.6689 5.81689L17.8094 4.88417L18.0701 5.68654Z" fill="white"/>
<path d="M17.5684 5.7124L17.9695 5.84276L17.3077 6.51478L17.5684 5.7124Z" fill="white"/>
<path d="M17.9589 6.02828L17.7109 5.68701L17.2763 6.52418L17.9589 6.02828Z" fill="white"/>
<path d="M17.8096 5.63403L17.8096 5.89507L18.3316 5.63403L17.8096 5.63403Z" fill="#CC142B"/>
<path d="M17.921 5.92407L17.7676 5.71289L18.3434 5.61721L17.921 5.92407Z" fill="#CC142B"/>
<path d="M17.8105 5.63403L17.8105 5.89507L17.2885 5.63403L17.8105 5.63403Z" fill="#CC142B"/>
<path d="M17.6991 5.92407L17.8525 5.71289L17.2767 5.61721L17.6991 5.92407Z" fill="#CC142B"/>
<path d="M17.959 5.74219L17.7107 5.82285L18.1203 6.23871L17.959 5.74219Z" fill="#CC142B"/>
<path d="M17.7177 5.9375L17.8711 5.72632L18.14 6.24437L17.7177 5.9375Z" fill="#CC142B"/>
<path d="M17.6611 5.74219L17.9094 5.82285L17.8225 5.24567L17.6611 5.74219Z" fill="#CC142B"/>
<path d="M17.9719 5.72598L17.7236 5.80664L17.8106 5.22946L17.9719 5.72598Z" fill="#CC142B"/>
<path d="M17.6611 5.74219L17.9094 5.82285L17.4998 6.23871L17.6611 5.74219Z" fill="#CC142B"/>
<path d="M17.9025 5.9375L17.749 5.72632L17.4801 6.24437L17.9025 5.9375Z" fill="#CC142B"/>
<path d="M12.4326 6.2627L12.4326 6.73674L13.3807 6.2627L12.4326 6.2627Z" fill="white"/>
<path d="M12.6351 6.78976L12.3564 6.40625L13.4021 6.23249L12.6351 6.78976Z" fill="white"/>
<path d="M12.4336 6.2627L12.4336 6.73674L11.4855 6.2627L12.4336 6.2627Z" fill="white"/>
<path d="M12.2311 6.78976L12.5098 6.40625L11.4641 6.23249L12.2311 6.78976Z" fill="white"/>
<path d="M12.7031 6.45947L12.2523 6.60596L12.9961 7.36115L12.7031 6.45947Z" fill="white"/>
<path d="M12.2643 6.81417L12.543 6.43066L13.0313 7.37144L12.2643 6.81417Z" fill="white"/>
<path d="M12.1621 6.45923L12.6129 6.60571L12.4551 5.55755L12.1621 6.45923Z" fill="white"/>
<path d="M12.7262 6.42993L12.2754 6.57642L12.4333 5.52825L12.7262 6.42993Z" fill="white"/>
<path d="M12.1621 6.45947L12.6129 6.60596L11.8691 7.36115L12.1621 6.45947Z" fill="white"/>
<path d="M12.6009 6.81417L12.3223 6.43066L11.8339 7.37144L12.6009 6.81417Z" fill="white"/>
<path d="M12.4336 6.35913L12.4336 6.67237L13.0601 6.35913L12.4336 6.35913Z" fill="#CC142B"/>
<path d="M12.5669 6.70728L12.3828 6.45386L13.0738 6.33904L12.5669 6.70728Z" fill="#CC142B"/>
<path d="M12.4336 6.35913L12.4336 6.67237L11.8071 6.35913L12.4336 6.35913Z" fill="#CC142B"/>
<path d="M12.3003 6.70728L12.4844 6.45386L11.7934 6.33904L12.3003 6.70728Z" fill="#CC142B"/>
<path d="M12.6123 6.48926L12.3144 6.58605L12.8059 7.08508L12.6123 6.48926Z" fill="#CC142B"/>
<path d="M12.3217 6.72363L12.5059 6.47021L12.8286 7.09187L12.3217 6.72363Z" fill="#CC142B"/>
<path d="M12.2539 6.48926L12.5518 6.58605L12.4475 5.89344L12.2539 6.48926Z" fill="#CC142B"/>
<path d="M12.627 6.46985L12.3291 6.56665L12.4334 5.87403L12.627 6.46985Z" fill="#CC142B"/>
<path d="M12.2539 6.48926L12.5518 6.58605L12.0603 7.08508L12.2539 6.48926Z" fill="#CC142B"/>
<path d="M12.5445 6.72363L12.3604 6.47021L12.0376 7.09187L12.5445 6.72363Z" fill="#CC142B"/>
<path d="M15.3252 10.8359V11.3622L16.3777 10.8359H15.3252Z" fill="white"/>
<path d="M15.5496 11.4209L15.2402 10.9951L16.401 10.8022L15.5496 11.4209Z" fill="white"/>
<path d="M15.3262 10.8359V11.3622L14.2737 10.8359H15.3262Z" fill="white"/>
<path d="M15.1018 11.4209L15.4111 10.9951L14.2503 10.8022L15.1018 11.4209Z" fill="white"/>
<path d="M15.626 11.0542L15.1255 11.2168L15.9512 12.0552L15.626 11.0542Z" fill="white"/>
<path d="M15.1399 11.4482L15.4492 11.0225L15.9914 12.0668L15.1399 11.4482Z" fill="white"/>
<path d="M15.0254 11.0542L15.5259 11.2168L15.3506 10.0532L15.0254 11.0542Z" fill="white"/>
<path d="M15.6509 11.0217L15.1504 11.1843L15.3256 10.0207L15.6509 11.0217Z" fill="white"/>
<path d="M15.0254 11.0542L15.5259 11.2168L14.7002 12.0552L15.0254 11.0542Z" fill="white"/>
<path d="M15.5115 11.4482L15.2021 11.0225L14.66 12.0668L15.5115 11.4482Z" fill="white"/>
<path d="M15.3262 10.9324V11.2978L16.0571 10.9324H15.3262Z" fill="#CC142B"/>
<path d="M15.4814 11.3386L15.2666 11.043L16.0727 10.909L15.4814 11.3386Z" fill="#CC142B"/>
<path d="M15.3252 10.9324V11.2978L14.5943 10.9324H15.3252Z" fill="#CC142B"/>
<path d="M15.17 11.3386L15.3848 11.043L14.5787 10.909L15.17 11.3386Z" fill="#CC142B"/>
<path d="M15.5352 11.084L15.1876 11.1969L15.761 11.7791L15.5352 11.084Z" fill="#CC142B"/>
<path d="M15.1973 11.3577L15.4121 11.062L15.7886 11.7873L15.1973 11.3577Z" fill="#CC142B"/>
<path d="M15.1172 11.084L15.4648 11.1969L15.343 10.3889L15.1172 11.084Z" fill="#CC142B"/>
<path d="M15.5517 11.0614L15.2041 11.1743L15.3258 10.3663L15.5517 11.0614Z" fill="#CC142B"/>
<path d="M15.1172 11.084L15.4648 11.1969L14.8913 11.7791L15.1172 11.084Z" fill="#CC142B"/>
<path d="M15.455 11.3577L15.2402 11.062L14.8637 11.7873L15.455 11.3577Z" fill="#CC142B"/>
<path d="M0 0H10V7.5H0V0Z" fill="#012169"/>
<path d="M1.17188 0L4.98438 2.82812L8.78125 0H10V0.96875L6.25 3.76562L10 6.54688V7.5H8.75L5 4.70312L1.26562 7.5H0V6.5625L3.73438 3.78125L0 1V0H1.17188Z" fill="white"/>
<path d="M6.625 4.39062L10 6.875V7.5L5.76562 4.39062H6.625ZM3.75 4.70312L3.84375 5.25L0.84375 7.5H0L3.75 4.70312ZM10 0V0.046875L6.10938 2.98438L6.14062 2.29688L9.21875 0H10ZM0 0L3.73438 2.75H2.79688L0 0.65625V0Z" fill="#C8102E"/>
<path d="M3.76562 0V7.5H6.26562V0H3.76562ZM0 2.5V5H10V2.5H0Z" fill="white"/>
<path d="M0 3.01562V4.51562H10V3.01562H0ZM4.26562 0V7.5H5.76562V0H4.26562Z" fill="#C8102E"/>
</g>
<defs>
<clipPath id="clip0_202_4049">
<rect width="20" height="15" fill="white"/>
</clipPath>
</defs>
</svg>
