<svg width="20" height="15" viewBox="0 0 20 15" fill="none" xmlns="http://www.w3.org/2000/svg">
<g clip-path="url(#clip0_202_4056)">
<path d="M0 0H20V15H0V0Z" fill="#0067C6"/>
<path d="M0 5H20V10H0V5Z" fill="white"/>
<path d="M7.75 7.48438L8 7.5V7.4625L7.90625 7.45625L7.9125 7.3375L8.01562 7.2625L8.01875 7.21562L7.90938 7.29375C7.90625 7.26875 7.89062 7.24062 7.86562 7.23125C7.84062 7.225 7.81562 7.225 7.79375 7.24062C7.76875 7.25937 7.7625 7.29062 7.7625 7.31875L7.75 7.48438ZM7.7875 7.45L7.79688 7.325C7.8 7.30625 7.80313 7.28125 7.82188 7.26875C7.82584 7.2661 7.83036 7.26439 7.83508 7.26375C7.83981 7.26311 7.84462 7.26356 7.84914 7.26507C7.85367 7.26658 7.85779 7.2691 7.86119 7.27245C7.86458 7.27579 7.86717 7.27987 7.86875 7.28438C7.88125 7.31563 7.875 7.35 7.87187 7.38438L7.86875 7.45312L7.7875 7.45ZM7.78125 7.1L8.025 7.15625L8.08125 6.91875C8.06979 6.9167 8.05833 6.91462 8.04688 6.9125L8 7.1125L7.925 7.09688L7.96875 6.91563L7.93437 6.90625L7.89062 7.0875L7.82812 7.07188L7.87187 6.87813L7.83437 6.87187L7.78125 7.1ZM7.86875 6.77187L8.10625 6.85625L8.11875 6.82188L8.025 6.79063L8.0625 6.68125C8.06875 6.65 8.075 6.61875 8.05937 6.5875C8.0521 6.5778 8.04266 6.56992 8.03181 6.5645C8.02097 6.55907 8.009 6.55625 7.99687 6.55625C7.96562 6.55625 7.94687 6.57813 7.93437 6.60313C7.91562 6.63438 7.90313 6.67187 7.89375 6.70937L7.86875 6.77187ZM7.91563 6.75L7.95312 6.64375C7.9625 6.625 7.97188 6.60313 7.99375 6.59688C7.99809 6.59597 8.00257 6.59601 8.0069 6.59697C8.01123 6.59794 8.0153 6.59981 8.01885 6.60247C8.0224 6.60513 8.02534 6.60852 8.02747 6.6124C8.02961 6.61629 8.0309 6.62058 8.03125 6.625C8.0375 6.65625 8.02187 6.6875 8.0125 6.71875L7.99062 6.77812L7.91563 6.75ZM8 6.46875L8.13437 6.55C8.15937 6.5625 8.19063 6.56875 8.21875 6.55625C8.25263 6.53327 8.27877 6.50059 8.29375 6.4625C8.30625 6.43125 8.31875 6.39375 8.3 6.3625C8.28125 6.33125 8.24687 6.31875 8.21562 6.3L8.13125 6.25L8.1125 6.28125L8.2375 6.35625C8.25938 6.36875 8.275 6.3875 8.27188 6.41563C8.26565 6.44424 8.2528 6.47099 8.23438 6.49375C8.22188 6.5125 8.19688 6.52813 8.17188 6.525C8.14687 6.51875 8.125 6.5 8.10312 6.4875L8.01875 6.44063L8 6.47188V6.46875ZM8.18125 6.17812L8.37813 6.32812L8.47188 6.20937C8.49063 6.18125 8.50312 6.14687 8.49375 6.11562C8.48794 6.1036 8.47915 6.09326 8.4682 6.0856C8.45726 6.07794 8.44454 6.07322 8.43125 6.07188C8.41562 6.07188 8.4 6.08125 8.39375 6.08437C8.4 6.05625 8.37812 6.03125 8.35625 6.025C8.325 6.01563 8.29375 6.03438 8.275 6.05625L8.2125 6.13438L8.18125 6.17812ZM8.23125 6.16875C8.25312 6.1375 8.275 6.10625 8.3 6.08125C8.3125 6.06875 8.33125 6.05 8.34688 6.0625C8.3625 6.06875 8.36875 6.09063 8.35938 6.10313C8.34688 6.13125 8.32812 6.15 8.30937 6.175L8.28438 6.20937L8.23125 6.16875ZM8.3125 6.23125L8.38437 6.1375C8.39687 6.125 8.41562 6.10625 8.43437 6.1125C8.45312 6.11563 8.46563 6.13437 8.45938 6.15312C8.45 6.18437 8.425 6.20938 8.40312 6.2375L8.37187 6.27812L8.30937 6.23125H8.3125ZM8.40625 5.9125L8.57812 6.09375L8.725 5.95312L8.7 5.92812L8.58125 6.04063H8.57812L8.43125 5.88438L8.40625 5.9125ZM8.625 5.71875L8.77812 5.91563L8.80937 5.89375L8.65312 5.69688L8.625 5.71875ZM8.85 5.56563C8.82558 5.57996 8.80432 5.59909 8.7875 5.62187C8.7733 5.64067 8.76537 5.66345 8.76481 5.687C8.76425 5.71054 8.77109 5.73367 8.78438 5.75313C8.79648 5.773 8.81376 5.78921 8.83438 5.8C8.85357 5.8101 8.87527 5.81445 8.89688 5.8125C8.92698 5.80852 8.95581 5.79784 8.98125 5.78125C9.00727 5.76634 9.02884 5.74477 9.04375 5.71875C9.05625 5.69375 9.05938 5.66875 9.05313 5.64375L9.02188 5.65625C9.02813 5.70625 8.99688 5.73125 8.95938 5.75C8.90313 5.7875 8.85 5.78438 8.81563 5.73438C8.78125 5.675 8.81563 5.62813 8.86563 5.59688C8.9 5.575 8.93437 5.55938 8.96562 5.58125L8.99375 5.55625C8.9756 5.54319 8.95359 5.53659 8.93125 5.5375C8.90312 5.5375 8.87813 5.55 8.85 5.56875V5.56563ZM9.14688 5.41875L9.11875 5.7L9.15938 5.68437L9.16562 5.59688L9.29062 5.54688L9.35938 5.60313L9.39688 5.5875L9.18437 5.40312L9.14688 5.41875ZM9.17813 5.45L9.2625 5.51875L9.16875 5.55625L9.17813 5.44688V5.45ZM9.69375 5.2625L9.70938 5.5125L9.84375 5.50625C9.88125 5.5 9.91875 5.49375 9.94063 5.4625C9.97188 5.43125 9.97812 5.37812 9.9625 5.33437C9.95659 5.31538 9.9456 5.29836 9.93074 5.28515C9.91587 5.27193 9.89768 5.26302 9.87813 5.25938C9.84063 5.25313 9.80312 5.25938 9.76562 5.25938L9.69375 5.26562V5.2625ZM9.73125 5.29688L9.84062 5.29375C9.86056 5.29284 9.88027 5.29831 9.89688 5.30937C9.92188 5.32812 9.9375 5.35625 9.93437 5.3875C9.93302 5.40494 9.92627 5.42152 9.91507 5.43496C9.90388 5.44839 9.88878 5.45802 9.87187 5.4625C9.85312 5.46875 9.83125 5.46875 9.8125 5.47188L9.74375 5.475L9.73125 5.29688ZM10.0437 5.25L10.0281 5.5L10.2719 5.5125V5.47813L10.0656 5.46562L10.0688 5.39062L10.2563 5.4V5.36562L10.0719 5.35625L10.075 5.2875L10.275 5.3V5.2625L10.0406 5.25H10.0437ZM10.6938 5.35313L10.6031 5.5875L10.6344 5.6L10.7094 5.4125V5.40625L10.7156 5.41563L10.8031 5.66563L10.8438 5.68125L10.9344 5.44688L10.9031 5.43437L10.8313 5.62187L10.8281 5.62813L10.8219 5.61875L10.7375 5.36875L10.6938 5.35313ZM11.0312 5.5L10.9156 5.71875L10.8844 5.70312L10.9969 5.48125L11.0312 5.5ZM11.2188 5.60938C11.196 5.59416 11.1706 5.58354 11.1438 5.57812C11.1206 5.57157 11.096 5.57258 11.0735 5.58102C11.0511 5.58945 11.0319 5.60486 11.0188 5.625C11.0067 5.64478 11.0002 5.66746 11 5.69063C11 5.7125 11.0031 5.73437 11.0188 5.75625C11.0313 5.77812 11.05 5.79687 11.0813 5.81875C11.1064 5.83586 11.1354 5.84659 11.1656 5.85C11.1904 5.85069 11.2146 5.84298 11.2344 5.82812L11.2094 5.8C11.1656 5.83125 11.1313 5.80937 11.0969 5.7875C11.0406 5.75 11.0188 5.7 11.0531 5.64687C11.0906 5.59062 11.15 5.60625 11.2 5.6375C11.2312 5.65937 11.2625 5.68438 11.2563 5.72188L11.2875 5.73438C11.2912 5.71308 11.2879 5.69115 11.2781 5.67188C11.2656 5.64687 11.2469 5.62813 11.2188 5.60938ZM11.4563 5.7875L11.1969 5.89375L11.2281 5.92188L11.3094 5.89062L11.4125 5.97813L11.3906 6.0625L11.4219 6.09062L11.4875 5.81563L11.4563 5.7875ZM11.4469 5.83125L11.4219 5.9375L11.3438 5.875L11.4469 5.83125ZM11.6469 5.9625L11.4531 6.11875L11.475 6.15L11.5531 6.0875L11.6281 6.18125L11.6062 6.30625L11.6344 6.34062L11.6594 6.20937C11.6813 6.225 11.7125 6.23438 11.7375 6.22188C11.7594 6.20938 11.7812 6.19063 11.7812 6.16563C11.7812 6.13125 11.7594 6.10312 11.7406 6.07812L11.6469 5.9625ZM11.6406 6.0125L11.7219 6.1125C11.7344 6.13125 11.75 6.15625 11.7344 6.175C11.725 6.19375 11.7 6.19375 11.6844 6.18125C11.6531 6.15938 11.6344 6.12812 11.6094 6.1L11.5781 6.06563L11.6406 6.0125ZM11.9375 6.35938L11.6562 6.37187L11.6781 6.40938L11.7656 6.40625L11.8344 6.525L11.7844 6.59688L11.8062 6.63438L11.9594 6.39687L11.9375 6.35938ZM11.9156 6.39687L11.8531 6.49062L11.8062 6.40312L11.9156 6.39687ZM12.1 6.69063C12.0844 6.65 12.0594 6.60625 12.0156 6.58437C11.992 6.57345 11.9654 6.5706 11.94 6.57624C11.9146 6.58189 11.8918 6.59572 11.875 6.61562C11.8438 6.64687 11.8437 6.69375 11.8531 6.7375C11.8625 6.78438 11.8844 6.83125 11.9156 6.86562L11.8969 6.87187L11.9094 6.90625L12.0281 6.86562L11.9812 6.7375L11.9563 6.74687L11.9875 6.84062L11.95 6.85625C11.9161 6.82462 11.8931 6.78304 11.8844 6.7375C11.875 6.70313 11.875 6.6625 11.9 6.6375C11.9312 6.60625 11.9812 6.59687 12.0156 6.62187C12.05 6.64687 12.0687 6.6875 12.0781 6.72813C12.0875 6.75625 12.0844 6.7875 12.0656 6.80937C12.0594 6.80937 12.0656 6.81875 12.0688 6.82188L12.0781 6.8375C12.0887 6.82941 12.0973 6.81902 12.1033 6.8071C12.1092 6.79519 12.1124 6.78207 12.1125 6.76875C12.1131 6.74217 12.1089 6.71569 12.1 6.69063ZM12.1719 6.8875L12.0312 6.9125C12.0097 6.91564 11.9892 6.92425 11.9719 6.9375C11.9583 6.94972 11.9495 6.96631 11.9469 6.98438V7.05937C11.9562 7.09062 11.9656 7.1125 11.9781 7.13125C11.9875 7.15 12 7.1625 12.0156 7.1625C12.0361 7.16779 12.0576 7.16779 12.0781 7.1625L12.2188 7.1375L12.2125 7.10313L12.075 7.12813C12.0125 7.14063 11.9937 7.10937 11.9812 7.05312C11.9719 6.99687 11.9812 6.95937 12.0406 6.95L12.1781 6.92188L12.1719 6.8875ZM12.2469 7.3125L11.9875 7.2L11.9906 7.24375L12.0719 7.275L12.0813 7.4125L12.0063 7.45937L12.0094 7.5L12.25 7.35313L12.2469 7.3125ZM12.2094 7.33437L12.1156 7.39375L12.1094 7.29375L12.2094 7.33437ZM7.94375 7.95937L7.90625 7.96875L7.94688 8.12187L7.98438 8.1125L7.94375 7.95937ZM12.0562 7.95937L12.0938 7.96875L12.0531 8.12187L12.0156 8.1125L12.0562 7.95937ZM8.33125 8.6L8.05 8.63125L8.075 8.66562L8.1625 8.65625L8.2375 8.76875L8.19375 8.84688L8.21875 8.87813L8.35312 8.63437L8.33125 8.6ZM8.30937 8.64062L8.25625 8.73438L8.2 8.65312L8.30937 8.64062ZM8.4375 8.75313L8.25937 8.91875L8.28438 8.94375L8.43437 8.80313L8.35312 9.02188L8.38437 9.05L8.59688 8.9875L8.45 9.12187L8.475 9.14688L8.65312 8.98125L8.61563 8.94375L8.39688 9.00625L8.47812 8.79688L8.4375 8.75313ZM8.69687 9.01562L8.54688 9.21875L8.74063 9.3625L8.7625 9.33438L8.59688 9.20938L8.64375 9.14688L8.79062 9.2625L8.8125 9.23125L8.66562 9.12187L8.70625 9.06875L8.8625 9.1875L8.88437 9.15625L8.69687 9.01562ZM8.94063 9.19687L8.825 9.41562L8.85625 9.43437L8.90312 9.34688L9.00937 9.40312L9.03438 9.52812L9.075 9.55L9.04688 9.41875C9.075 9.42812 9.10938 9.42187 9.125 9.4C9.14062 9.38125 9.15313 9.35938 9.14375 9.33438C9.1375 9.30313 9.10312 9.28438 9.07812 9.26875L8.94063 9.19687ZM8.95625 9.24375L9.06875 9.30625C9.0875 9.31875 9.10937 9.33437 9.10625 9.35625C9.10625 9.37812 9.08438 9.3875 9.06563 9.38437C9.02813 9.37812 8.99687 9.35625 8.96562 9.34062L8.91875 9.31563L8.95625 9.24375ZM9.225 9.34375L9.13125 9.575L9.1625 9.59062L9.25625 9.35938L9.225 9.34375ZM9.45 9.42188C9.42401 9.41238 9.39639 9.40813 9.36875 9.40938C9.34468 9.40977 9.32136 9.41787 9.30224 9.4325C9.28311 9.44712 9.26918 9.4675 9.2625 9.49063C9.2568 9.51213 9.2568 9.53475 9.2625 9.55625C9.2625 9.58125 9.275 9.6 9.29375 9.61875C9.3153 9.63787 9.34096 9.65178 9.36875 9.65938C9.39782 9.6697 9.42916 9.67186 9.45938 9.66562C9.48398 9.66088 9.50612 9.6476 9.52188 9.62813L9.49063 9.60938C9.45938 9.65 9.41875 9.64062 9.37813 9.625C9.31563 9.60313 9.28125 9.5625 9.3 9.5C9.32188 9.4375 9.38437 9.4375 9.4375 9.45312C9.475 9.46562 9.50937 9.48438 9.5125 9.51875L9.55 9.525C9.54828 9.5015 9.53832 9.47937 9.52188 9.4625C9.50165 9.44322 9.47695 9.42926 9.45 9.42188ZM9.7 9.47812L9.5375 9.70625L9.57812 9.7125L9.62813 9.64062L9.76562 9.6625L9.79375 9.74375L9.83438 9.75L9.74063 9.48438L9.7 9.47812ZM9.71562 9.51875L9.75313 9.625L9.65312 9.60938L9.71562 9.51875ZM10.2875 9.48125C10.2563 9.48438 10.2344 9.49375 10.2125 9.50937C10.1918 9.52141 10.1756 9.53971 10.166 9.56163C10.1565 9.58354 10.1541 9.60793 10.1594 9.63125C10.1625 9.65313 10.1719 9.67188 10.1906 9.69375C10.2031 9.70938 10.2219 9.71875 10.2469 9.725C10.2687 9.73125 10.3 9.73125 10.3344 9.725C10.3656 9.71875 10.3969 9.70625 10.4156 9.6875C10.4339 9.67125 10.4461 9.64917 10.45 9.625H10.4125C10.4031 9.675 10.3656 9.6875 10.325 9.69375C10.2594 9.70625 10.2094 9.68437 10.1969 9.62187C10.1844 9.55625 10.2375 9.525 10.2906 9.5125C10.3312 9.50625 10.3688 9.50313 10.3906 9.53438L10.4219 9.52188C10.4101 9.50319 10.3926 9.4889 10.3719 9.48125C10.3442 9.47411 10.3152 9.47411 10.2875 9.48125ZM10.4531 9.45L10.525 9.69063L10.7594 9.62187L10.7469 9.5875L10.55 9.64688L10.5281 9.57187L10.7063 9.51875L10.6969 9.4875L10.5188 9.5375L10.5 9.475L10.6875 9.41875L10.6781 9.38437L10.4531 9.45ZM10.725 9.36563L10.8281 9.59375L10.8594 9.57812L10.7719 9.39062L11.0156 9.5H11.0312L11.0625 9.48438L10.9563 9.25625L10.925 9.27188L11.0125 9.45938L10.7625 9.34688L10.725 9.36563ZM11 9.2375L11.0188 9.26875L11.1062 9.20625H11.1125L11.2281 9.38437L11.2594 9.3625L11.1438 9.1875V9.18437L11.2344 9.12187L11.2156 9.09375L11 9.2375ZM11.25 9.0625L11.4187 9.25L11.4469 9.22188L11.3813 9.15L11.4688 9.06875L11.5938 9.0875L11.6313 9.05625L11.4969 9.0375C11.5125 9.01563 11.5188 8.98125 11.5031 8.95625C11.4906 8.93438 11.4719 8.91562 11.4438 8.91875C11.4125 8.91875 11.3812 8.94375 11.3594 8.9625L11.25 9.06563V9.0625ZM11.3 9.06563L11.3938 8.97812C11.4125 8.96562 11.4375 8.95 11.4563 8.9625C11.4781 8.97187 11.4781 8.99687 11.4656 9.0125C11.4469 9.04375 11.4188 9.06562 11.3906 9.09375L11.3562 9.125L11.3 9.0625V9.06563ZM11.5406 8.77188L11.6531 9.03125L11.6781 9L11.6469 8.91875L11.7312 8.8125L11.8156 8.83125L11.8438 8.8L11.5688 8.7375L11.5406 8.77188ZM11.5844 8.78125L11.6938 8.80313L11.6313 8.88125L11.5844 8.78125ZM11.65 8.63125L11.8594 8.76562L11.9688 8.59688L11.9375 8.57812L11.8531 8.7125L11.85 8.71875H11.8469L11.6687 8.6L11.65 8.63125Z" fill="#C8A400"/>
<mask id="mask0_202_4056" style="mask-type:luminance" maskUnits="userSpaceOnUse" x="8" y="5" width="4" height="4">
<path d="M9.99973 5.65991L8.40723 8.41741H11.5922L9.99973 5.65991Z" fill="white"/>
</mask>
<g mask="url(#mask0_202_4056)">
<path d="M9.99965 5.65991L9.21215 7.02241L8.82715 7.68991H11.1721L10.8046 7.05491L9.99965 5.65991Z" fill="white"/>
<path opacity="0.6" d="M9.99945 5.65991L9.93945 5.75991L9.99945 7.13491L10.0595 5.75991L9.99945 5.65991Z" fill="#17C0EB" stroke="#17C0EB" stroke-width="0.03"/>
<path d="M9.99957 6.9375H9.99707L9.99957 7.0125L10.0021 6.9375H9.99957Z" fill="white"/>
<path opacity="0.6" d="M11.4053 6.68084L11.2916 6.65468L10.0025 7.13664L11.3287 6.76881L11.4053 6.68084Z" fill="#17C0EB" stroke="#17C0EB" stroke-width="0.03"/>
<path d="M10.1902 7.07562L10.1895 7.07324L10.1189 7.0988L10.191 7.078L10.1902 7.07562Z" fill="white"/>
<path opacity="0.6" d="M10.8685 8.33263L10.8582 8.21646L10.0015 7.13933L10.7611 8.287L10.8685 8.33263Z" fill="#17C0EB" stroke="#17C0EB" stroke-width="0.03"/>
<path d="M10.1171 7.29908L10.1191 7.29761L10.073 7.2384L10.1151 7.30055L10.1171 7.29908Z" fill="white"/>
<path opacity="0.6" d="M9.13115 8.33265L9.23847 8.28702L9.99813 7.13935L9.14138 8.21648L9.13115 8.33265Z" fill="#17C0EB" stroke="#17C0EB" stroke-width="0.03"/>
<path d="M9.88177 7.29907L9.88379 7.30054L9.92585 7.23839L9.87974 7.2976L9.88177 7.29907Z" fill="white"/>
<path opacity="0.6" d="M8.59471 6.68073L8.67128 6.76869L9.99752 7.13653L8.70836 6.65457L8.59471 6.68073Z" fill="#17C0EB" stroke="#17C0EB" stroke-width="0.03"/>
<path d="M9.80937 7.0755L9.80859 7.07788L9.8807 7.09868L9.81014 7.07313L9.80937 7.0755Z" fill="white"/>
<path opacity="0.6" d="M10.2059 5.67412L10.1326 5.7648L10.0006 7.13477L10.2514 5.7815L10.2059 5.67412Z" fill="#17C0EB" stroke="#17C0EB" stroke-width="0.03"/>
<path d="M10.0279 6.93907L10.0254 6.93872L10.0174 7.01334L10.0303 6.93942L10.0279 6.93907Z" fill="white"/>
<path opacity="0.6" d="M11.4548 6.88087L11.3459 6.83914L10.0022 7.137L11.3667 6.95732L11.4548 6.88087Z" fill="#17C0EB" stroke="#17C0EB" stroke-width="0.03"/>
<path d="M10.1967 7.1028L10.1963 7.10034L10.1229 7.11583L10.1972 7.10527L10.1967 7.1028Z" fill="white"/>
<path opacity="0.6" d="M10.6941 8.44199L10.7001 8.32552L10.0016 7.13964L10.5942 8.38186L10.6941 8.44199Z" fill="#17C0EB" stroke="#17C0EB" stroke-width="0.03"/>
<path d="M10.0945 7.31392L10.0967 7.31274L10.0593 7.2477L10.0923 7.31509L10.0945 7.31392Z" fill="white"/>
<path opacity="0.6" d="M8.97344 8.20026L9.08607 8.17001L9.99806 7.13924L8.99975 8.08665L8.97344 8.20026Z" fill="#17C0EB" stroke="#17C0EB" stroke-width="0.03"/>
<path d="M9.86051 7.28122L9.8623 7.28296L9.91261 7.22727L9.85871 7.27949L9.86051 7.28122Z" fill="white"/>
<path opacity="0.6" d="M8.67181 6.48953L8.73539 6.58729L9.99753 7.13613L8.78799 6.47944L8.67181 6.48953Z" fill="#17C0EB" stroke="#17C0EB" stroke-width="0.03"/>
<path d="M9.82043 7.04951L9.81934 7.05176L9.88784 7.08239L9.82153 7.04726L9.82043 7.04951Z" fill="white"/>
<path opacity="0.6" d="M10.4063 5.71722L10.3211 5.79681L9.99974 7.13508L10.4364 5.82989L10.4063 5.71722Z" fill="#17C0EB" stroke="#17C0EB" stroke-width="0.03"/>
<path d="M10.0542 6.94527L10.0518 6.94458L10.0335 7.01736L10.0566 6.94596L10.0542 6.94527Z" fill="white"/>
<path opacity="0.6" d="M11.4757 7.08584L11.3737 7.02937L10.0016 7.13732L11.3779 7.1493L11.4757 7.08584Z" fill="#17C0EB" stroke="#17C0EB" stroke-width="0.03"/>
<path d="M10.1993 7.13043L10.1992 7.12793L10.1244 7.13305L10.1994 7.13293L10.1993 7.13043Z" fill="white"/>
<path opacity="0.6" d="M10.5051 8.52589L10.5273 8.4114L10.0007 7.13985L10.4146 8.45244L10.5051 8.52589Z" fill="#17C0EB" stroke="#17C0EB" stroke-width="0.03"/>
<path d="M10.068 7.32532L10.0703 7.32446L10.0423 7.25484L10.0656 7.32617L10.068 7.32532Z" fill="white"/>
<path opacity="0.6" d="M8.83513 8.04696L8.95087 8.03267L9.99745 7.13886L8.87699 7.93811L8.83513 8.04696Z" fill="#17C0EB" stroke="#17C0EB" stroke-width="0.03"/>
<path d="M9.84221 7.26048L9.84375 7.26245L9.90131 7.21431L9.84067 7.25851L9.84221 7.26048Z" fill="white"/>
<path opacity="0.6" d="M8.77476 6.3111L8.82411 6.41676L9.99759 7.13591L8.89122 6.31727L8.77476 6.3111Z" fill="#17C0EB" stroke="#17C0EB" stroke-width="0.03"/>
<path d="M9.83343 7.02552L9.83203 7.02759L9.89561 7.06745L9.83483 7.02344L9.83343 7.02552Z" fill="white"/>
<path opacity="0.6" d="M10.6007 5.78759L10.5052 5.85454L10.0008 7.13507L10.6148 5.90335L10.6007 5.78759Z" fill="#17C0EB" stroke="#17C0EB" stroke-width="0.03"/>
<path d="M10.0814 6.95463L10.0791 6.95361L10.0509 7.02315L10.0837 6.95565L10.0814 6.95463Z" fill="white"/>
<path opacity="0.6" d="M11.4693 7.29185L11.3761 7.22172L10.0024 7.13767L11.3636 7.34107L11.4693 7.29185Z" fill="#17C0EB" stroke="#17C0EB" stroke-width="0.03"/>
<path d="M10.199 7.15825L10.1992 7.15576L10.1244 7.15041L10.1987 7.16073L10.199 7.15825Z" fill="white"/>
<path opacity="0.6" d="M10.3065 8.58254L10.3444 8.47225L9.99988 7.13978L10.2271 8.4972L10.3065 8.58254Z" fill="#17C0EB" stroke="#17C0EB" stroke-width="0.03"/>
<path d="M10.0405 7.33304L10.043 7.33252L10.0249 7.25968L10.0381 7.33356L10.0405 7.33304Z" fill="white"/>
<path opacity="0.6" d="M8.72 7.87602L8.8366 7.87798L9.99739 7.13852L8.7766 7.77406L8.72 7.87602Z" fill="#17C0EB" stroke="#17C0EB" stroke-width="0.03"/>
<path d="M9.8259 7.23734L9.82715 7.2395L9.89085 7.19984L9.82465 7.23517L9.8259 7.23734Z" fill="white"/>
<path opacity="0.6" d="M8.90148 6.14877L8.93564 6.26027L9.99761 7.13574L9.01594 6.1711L8.90148 6.14877Z" fill="#17C0EB" stroke="#17C0EB" stroke-width="0.03"/>
<path d="M9.85128 7.00351L9.84961 7.00537L9.90702 7.0537L9.85296 7.00166L9.85128 7.00351Z" fill="white"/>
<path opacity="0.6" d="M10.7823 5.88433L10.6785 5.93734L10.0007 7.13521L10.7802 6.00093L10.7823 5.88433Z" fill="#17C0EB" stroke="#17C0EB" stroke-width="0.03"/>
<path d="M10.1056 6.96763L10.1035 6.96631L10.0659 7.03124L10.1078 6.96896L10.1056 6.96763Z" fill="white"/>
<path opacity="0.6" d="M11.4337 7.49474L11.3512 7.41233L10.0025 7.13791L11.3222 7.52877L11.4337 7.49474Z" fill="#17C0EB" stroke="#17C0EB" stroke-width="0.03"/>
<path d="M10.1937 7.18578L10.1943 7.18335L10.121 7.16763L10.1931 7.1882L10.1937 7.18578Z" fill="white"/>
<path opacity="0.6" d="M10.1023 8.61112L10.1551 8.50718L9.99936 7.13971L10.0354 8.51555L10.1023 8.61112Z" fill="#17C0EB" stroke="#17C0EB" stroke-width="0.03"/>
<path d="M10.0131 7.33684L10.0156 7.33667L10.0079 7.26203L10.0106 7.33702L10.0131 7.33684Z" fill="white"/>
<path opacity="0.6" d="M8.62987 7.69071L8.74506 7.70888L9.99746 7.13816L8.70011 7.59762L8.62987 7.69071Z" fill="#17C0EB" stroke="#17C0EB" stroke-width="0.03"/>
<path d="M9.81449 7.21204L9.81543 7.21436L9.88403 7.18394L9.81356 7.20972L9.81449 7.21204Z" fill="white"/>
<path opacity="0.6" d="M9.04987 6.00562L9.06819 6.12079L9.99798 7.13554L9.16011 6.04366L9.04987 6.00562Z" fill="#17C0EB" stroke="#17C0EB" stroke-width="0.03"/>
<path d="M9.87106 6.98423L9.86914 6.98584L9.91926 7.04169L9.87297 6.98263L9.87106 6.98423Z" fill="white"/>
<path opacity="0.6" d="M10.9503 6.00561L10.84 6.04365L10.0021 7.13552L10.9319 6.12078L10.9503 6.00561Z" fill="#17C0EB" stroke="#17C0EB" stroke-width="0.03"/>
<path d="M10.1289 6.98427L10.127 6.98267L10.0807 7.04173L10.1308 6.98588L10.1289 6.98427Z" fill="white"/>
<path opacity="0.6" d="M11.3701 7.69088L11.2999 7.59779L10.0025 7.13834L11.2549 7.70906L11.3701 7.69088Z" fill="#17C0EB" stroke="#17C0EB" stroke-width="0.03"/>
<path d="M10.1856 7.21228L10.1865 7.20996L10.116 7.18418L10.1847 7.2146L10.1856 7.21228Z" fill="white"/>
<path opacity="0.6" d="M9.89718 8.61129L9.96401 8.51572L10.0001 7.13989L9.8443 8.50735L9.89718 8.61129Z" fill="#17C0EB" stroke="#17C0EB" stroke-width="0.03"/>
<path d="M9.98676 7.33698L9.98926 7.33716L9.992 7.26217L9.98427 7.33681L9.98676 7.33698Z" fill="white"/>
<path opacity="0.6" d="M8.56654 7.49476L8.67808 7.52879L9.99773 7.13793L8.64905 7.41235L8.56654 7.49476Z" fill="#17C0EB" stroke="#17C0EB" stroke-width="0.03"/>
<path d="M9.80604 7.18581L9.80664 7.18823L9.87881 7.16766L9.80543 7.18338L9.80604 7.18581Z" fill="white"/>
<path opacity="0.6" d="M9.2169 5.88422L9.21901 6.00082L9.99853 7.13509L9.32077 5.93723L9.2169 5.88422Z" fill="#17C0EB" stroke="#17C0EB" stroke-width="0.03"/>
<path d="M9.89372 6.96767L9.8916 6.96899L9.93347 7.03127L9.89584 6.96634L9.89372 6.96767Z" fill="white"/>
<path opacity="0.6" d="M11.0978 6.14859L10.9833 6.17092L10.0016 7.13556L11.0636 6.26009L11.0978 6.14859Z" fill="#17C0EB" stroke="#17C0EB" stroke-width="0.03"/>
<path d="M10.1482 7.00332L10.1465 7.00146L10.0924 7.05351L10.1498 7.00518L10.1482 7.00332Z" fill="white"/>
<path opacity="0.6" d="M11.2796 7.87594L11.223 7.77397L10.0022 7.13844L11.163 7.8779L11.2796 7.87594Z" fill="#17C0EB" stroke="#17C0EB" stroke-width="0.03"/>
<path d="M10.1736 7.23727L10.1748 7.23511L10.1086 7.19977L10.1723 7.23944L10.1736 7.23727Z" fill="white"/>
<path opacity="0.6" d="M9.69326 8.5825L9.77274 8.49716L9.99993 7.13973L9.65537 8.47221L9.69326 8.5825Z" fill="#17C0EB" stroke="#17C0EB" stroke-width="0.03"/>
<path d="M9.95849 7.33298L9.96094 7.3335L9.97409 7.25962L9.95605 7.33246L9.95849 7.33298Z" fill="white"/>
<path opacity="0.6" d="M8.53084 7.29165L8.63656 7.34087L9.99776 7.13747L8.62402 7.22152L8.53084 7.29165Z" fill="#17C0EB" stroke="#17C0EB" stroke-width="0.03"/>
<path d="M9.8015 7.15816L9.80176 7.16064L9.87609 7.15032L9.80124 7.15567L9.8015 7.15816Z" fill="white"/>
<path opacity="0.6" d="M9.39954 5.78761L9.3854 5.90337L9.99948 7.13509L9.49503 5.85456L9.39954 5.78761Z" fill="#17C0EB" stroke="#17C0EB" stroke-width="0.03"/>
<path d="M9.91928 6.95455L9.91699 6.95557L9.94978 7.02307L9.92156 6.95353L9.91928 6.95455Z" fill="white"/>
<path opacity="0.6" d="M11.225 6.31122L11.1085 6.31739L10.0021 7.13603L11.1756 6.41688L11.225 6.31122Z" fill="#17C0EB" stroke="#17C0EB" stroke-width="0.03"/>
<path d="M10.1655 7.02551L10.1641 7.02344L10.1033 7.06745L10.1669 7.02758L10.1655 7.02551Z" fill="white"/>
<path opacity="0.6" d="M11.1642 8.04704L11.1224 7.93819L10.0019 7.13894L11.0485 8.03275L11.1642 8.04704Z" fill="#17C0EB" stroke="#17C0EB" stroke-width="0.03"/>
<path d="M10.1576 7.26052L10.1592 7.25854L10.0985 7.21434L10.1561 7.26249L10.1576 7.26052Z" fill="white"/>
<path opacity="0.6" d="M9.4944 8.52587L9.58498 8.45242L9.99888 7.13982L9.47222 8.41138L9.4944 8.52587Z" fill="#17C0EB" stroke="#17C0EB" stroke-width="0.03"/>
<path d="M9.93124 7.32532L9.93359 7.32617L9.9569 7.25484L9.92889 7.32446L9.93124 7.32532Z" fill="white"/>
<path opacity="0.6" d="M8.52358 7.08579L8.62142 7.14924L9.99768 7.13727L8.62561 7.02932L8.52358 7.08579Z" fill="#17C0EB" stroke="#17C0EB" stroke-width="0.03"/>
<path d="M9.79989 7.13031L9.7998 7.13281L9.87485 7.13293L9.79998 7.12782L9.79989 7.13031Z" fill="white"/>
<path opacity="0.6" d="M9.59283 5.7171L9.56272 5.82977L9.9994 7.13497L9.67807 5.79669L9.59283 5.7171Z" fill="#17C0EB" stroke="#17C0EB" stroke-width="0.03"/>
<path d="M9.94479 6.94511L9.94238 6.9458L9.96546 7.01721L9.94719 6.94442L9.94479 6.94511Z" fill="white"/>
<path opacity="0.6" d="M11.3281 6.48972L11.2119 6.47963L10.0023 7.13632L11.2645 6.58748L11.3281 6.48972Z" fill="#17C0EB" stroke="#17C0EB" stroke-width="0.03"/>
<path d="M10.1798 7.04985L10.1787 7.04761L10.1124 7.08273L10.1809 7.0521L10.1798 7.04985Z" fill="white"/>
<path opacity="0.6" d="M11.0262 8.20013L10.9999 8.08651L10.0016 7.1391L10.9135 8.16987L11.0262 8.20013Z" fill="#17C0EB" stroke="#17C0EB" stroke-width="0.03"/>
<path d="M10.1388 7.28128L10.1406 7.27954L10.0867 7.22733L10.137 7.28301L10.1388 7.28128Z" fill="white"/>
<path opacity="0.6" d="M9.3064 8.4418L9.40632 8.38168L9.99887 7.13945L9.30037 8.32534L9.3064 8.4418Z" fill="#17C0EB" stroke="#17C0EB" stroke-width="0.03"/>
<path d="M9.906 7.31377L9.9082 7.31494L9.94121 7.24755L9.90379 7.31259L9.906 7.31377Z" fill="white"/>
<path opacity="0.6" d="M8.54558 6.88061L8.63364 6.95706L9.99817 7.13674L8.65447 6.83889L8.54558 6.88061Z" fill="#17C0EB" stroke="#17C0EB" stroke-width="0.03"/>
<path d="M9.80415 7.10252L9.80371 7.10498L9.87801 7.11554L9.80458 7.10006L9.80415 7.10252Z" fill="white"/>
<path opacity="0.6" d="M9.79477 5.67427L9.74927 5.78164L10 7.13491L9.8681 5.76494L9.79477 5.67427Z" fill="#17C0EB" stroke="#17C0EB" stroke-width="0.03"/>
<path d="M9.9722 6.93935L9.96973 6.9397L9.98264 7.01362L9.97468 6.939L9.9722 6.93935Z" fill="white"/>
<path d="M9.99965 6.64478C9.73334 6.64447 9.47588 6.74035 9.27465 6.91478L8.90965 7.54978C8.89657 7.61818 8.88988 7.68764 8.88965 7.75728H9.01465C9.02737 7.50495 9.13657 7.26715 9.31966 7.09306C9.50276 6.91897 9.74575 6.82188 9.9984 6.82188C10.251 6.82188 10.494 6.91897 10.6771 7.09306C10.8602 7.26715 10.9694 7.50495 10.9821 7.75728H11.1071C11.1077 7.68772 11.1019 7.61825 11.0896 7.54978L10.7246 6.91478C10.5233 6.74055 10.2659 6.6447 9.99965 6.64478Z" fill="#FF0000"/>
<path d="M10.0002 6.66724C9.71762 6.66665 9.44595 6.77603 9.24266 6.97224L8.94266 7.49474C8.92141 7.57978 8.9105 7.66708 8.91016 7.75474H9.01766C9.03539 7.50627 9.14661 7.27375 9.32891 7.104C9.51121 6.93425 9.75106 6.83987 10.0002 6.83987C10.2493 6.83987 10.4891 6.93425 10.6714 7.104C10.8537 7.27375 10.9649 7.50627 10.9827 7.75474H11.0902C11.0899 7.66625 11.079 7.57811 11.0577 7.49224L10.7577 6.97224C10.5544 6.77603 10.2827 6.66665 10.0002 6.66724Z" fill="#FF6600"/>
<path d="M10.0002 6.68726C9.84916 6.68686 9.69975 6.71852 9.56184 6.78014C9.42394 6.84177 9.30068 6.93196 9.20021 7.04476L8.98271 7.41976C8.94806 7.52885 8.93118 7.64281 8.93271 7.75726H9.01521C9.02794 7.50493 9.13714 7.26714 9.32023 7.09304C9.50332 6.91895 9.74631 6.82187 9.99896 6.82187C10.2516 6.82187 10.4946 6.91895 10.6777 7.09304C10.8608 7.26714 10.97 7.50493 10.9827 7.75726H11.0702C11.0702 7.63976 11.0502 7.52726 11.0177 7.42226L10.7977 7.04476C10.6976 6.93215 10.5748 6.84206 10.4373 6.78044C10.2999 6.71881 10.1509 6.68705 10.0002 6.68726Z" fill="#FFFF00"/>
<path d="M10.0002 6.70733C9.82776 6.70724 9.65796 6.74962 9.50579 6.83072C9.35362 6.91182 9.22377 7.02914 9.1277 7.17233L9.0577 7.29483C8.98685 7.43871 8.95006 7.59696 8.9502 7.75733H9.0177C9.03543 7.50887 9.14665 7.27635 9.32895 7.1066C9.51125 6.93685 9.7511 6.84247 10.0002 6.84247C10.2493 6.84247 10.4891 6.93685 10.6714 7.1066C10.8537 7.27635 10.965 7.50887 10.9827 7.75733H11.0502C11.0503 7.59696 11.0135 7.43871 10.9427 7.29483L10.8727 7.16983C10.7766 7.02664 10.6468 6.90932 10.4946 6.82822C10.3424 6.74712 10.1726 6.70474 10.0002 6.70483V6.70733Z" fill="#00FF00"/>
<path d="M9.99973 6.72485C9.86426 6.72485 9.73012 6.75158 9.60499 6.8035C9.47986 6.85541 9.3662 6.93151 9.27052 7.02742C9.17485 7.12333 9.09903 7.23717 9.04742 7.36242C8.9958 7.48768 8.9694 7.62188 8.96973 7.75735H9.01723C9.03497 7.50889 9.14618 7.27637 9.32848 7.10662C9.51079 6.93687 9.75063 6.84249 9.99973 6.84249C10.2488 6.84249 10.4887 6.93687 10.671 7.10662C10.8533 7.27637 10.9645 7.50889 10.9822 7.75735H11.0297C11.0301 7.62188 11.0037 7.48768 10.952 7.36242C10.9004 7.23717 10.8246 7.12333 10.7289 7.02742C10.6333 6.93151 10.5196 6.85541 10.3945 6.8035C10.2693 6.75158 10.1352 6.72485 9.99973 6.72485Z" fill="#00CCFF"/>
<path d="M10.0002 6.74487C9.73237 6.74487 9.47547 6.85128 9.28606 7.0407C9.09664 7.23011 8.99023 7.487 8.99023 7.75487H9.02523C9.02523 7.49629 9.12796 7.24829 9.3108 7.06544C9.49365 6.8826 9.74165 6.77987 10.0002 6.77987C10.2588 6.77987 10.5068 6.8826 10.6897 7.06544C10.8725 7.24829 10.9752 7.49629 10.9752 7.75487H11.0102C11.0089 7.48787 10.9019 7.23226 10.7127 7.04393C10.5234 6.85559 10.2672 6.74987 10.0002 6.74987V6.74487Z" fill="#0000FF"/>
<path d="M9.99992 6.76739C9.86843 6.76737 9.73824 6.79355 9.61698 6.84439C9.49571 6.89523 9.38579 6.96972 9.29362 7.06352C9.20146 7.15731 9.12891 7.26852 9.0802 7.39066C9.03149 7.5128 9.0076 7.64342 9.00992 7.77489H9.02992V7.75489C9.03257 7.49763 9.13731 7.25196 9.3211 7.07193C9.50488 6.89189 9.75266 6.79224 10.0099 6.79489C10.2672 6.79754 10.5128 6.90228 10.6929 7.08607C10.8729 7.26986 10.9726 7.51763 10.9699 7.77489H10.9899V7.75489C10.9899 7.62488 10.9643 7.49615 10.9146 7.37604C10.8648 7.25592 10.7919 7.14679 10.7 7.05486C10.608 6.96293 10.4989 6.89 10.3788 6.84025C10.2587 6.7905 10.1299 6.76489 9.99992 6.76489V6.76739Z" fill="#800080"/>
<path d="M10.0099 7.20226C9.99245 7.20226 9.97995 7.18976 9.96495 7.18726C9.95765 7.19368 9.95219 7.20192 9.94911 7.21114C9.94604 7.22037 9.94546 7.23024 9.94745 7.23976C9.95495 7.24226 9.95495 7.24976 9.96995 7.26226C9.98495 7.27476 9.98245 7.27976 9.97995 7.31226C9.97995 7.32226 9.98245 7.34976 9.99495 7.35226C10.0074 7.35476 10.0199 7.34476 10.0224 7.32226C10.0249 7.30476 10.0324 7.29226 10.0399 7.28226C10.0474 7.23476 10.0349 7.21726 10.0099 7.20226Z" fill="#510000"/>
<path d="M9.92973 7.08729C9.91473 7.08729 9.88973 7.11229 9.87973 7.09979C9.87473 7.09229 9.87223 7.07729 9.87973 7.06479C9.89099 7.03993 9.91039 7.01965 9.93473 7.00729C9.99223 6.97229 10.0322 6.98229 10.0597 7.03229C10.0872 7.07729 10.1147 7.12729 10.1172 7.16729C10.1172 7.17979 10.1247 7.20229 10.1122 7.21479C10.0797 7.24979 9.99723 7.17729 9.94973 7.18979C9.93473 7.19229 9.91473 7.20479 9.89973 7.19479C9.88973 7.18729 9.89973 7.16979 9.90723 7.16229C9.92223 7.14979 9.94473 7.10229 9.94223 7.08229C9.94223 7.07229 9.94223 7.08729 9.92973 7.08729Z" fill="#FF0000"/>
<path d="M9.92441 7.06474C9.89441 7.07474 9.89941 7.08974 9.88441 7.10224C9.88941 7.10474 9.90441 7.10974 9.91941 7.09474C9.92441 7.08974 9.93191 7.08724 9.93691 7.08724L9.91941 7.10474C9.90456 7.11696 9.89261 7.13233 9.88441 7.14974C9.87691 7.16974 9.87441 7.19224 9.87691 7.19474C9.87691 7.19474 9.88691 7.21474 9.91441 7.22474C9.96441 7.24474 9.97441 7.28724 10.0269 7.28724C10.0669 7.28724 10.0619 7.25974 10.0944 7.26474C10.1194 7.26974 10.1369 7.24724 10.1094 7.23474C10.0648 7.22598 10.019 7.22598 9.97441 7.23474C9.96441 7.13474 9.97441 7.16974 9.97191 7.12474C9.96941 7.08224 9.95441 7.07974 9.97191 7.04224C9.95941 7.06724 9.94191 7.06224 9.92191 7.06224L9.92441 7.06474Z" fill="url(#paint0_linear_202_4056)"/>
<path d="M10.025 6.99487L10.0225 7.00987L10.03 7.03487L10.035 7.05987C10.035 7.06737 10.045 7.06987 10.0525 7.07487C10.0625 7.08237 10.0525 7.09987 10.06 7.10237C10.065 7.10237 10.0725 7.07737 10.0725 7.07237V7.05487C10.0685 7.04724 10.0644 7.03973 10.06 7.03237C10.0584 7.02979 10.0568 7.02729 10.055 7.02487C10.0494 7.01645 10.0427 7.00887 10.035 7.00237C10.0325 7.00059 10.03 6.99893 10.0275 6.99737L10.0225 6.99487H10.025Z" fill="#FF2A2A"/>
<path d="M10.032 7.18476L9.98196 7.16726C9.94946 7.15726 9.91696 7.13726 9.89446 7.14726C9.88696 7.14976 9.88696 7.15726 9.88446 7.16976C9.88446 7.18226 9.87196 7.20226 9.88446 7.19476C9.89946 7.18476 9.94446 7.21476 9.95946 7.22226C9.96696 7.22726 9.98446 7.23726 9.98696 7.24726C9.99196 7.26226 9.98696 7.29226 9.98696 7.30726C9.98696 7.31976 9.99196 7.35226 10.0045 7.35726C10.0195 7.35976 10.032 7.34726 10.037 7.32476C10.0445 7.30226 10.047 7.28976 10.057 7.27726C10.067 7.26476 10.077 7.25726 10.0895 7.25476C10.1045 7.25476 10.1245 7.26726 10.1245 7.24976C10.1245 7.23976 10.1145 7.22976 10.1195 7.21476C10.122 7.20226 10.1095 7.20476 10.097 7.19976L10.0295 7.18476H10.032Z" fill="url(#paint1_linear_202_4056)"/>
<path d="M9.96 7.22235C9.95 7.21735 9.9025 7.18485 9.885 7.19735C9.8775 7.19735 9.875 7.19735 9.875 7.18985L9.88 7.16735C9.88 7.15985 9.885 7.14735 9.8925 7.14235C9.91 7.12735 9.95 7.15485 9.97 7.16235L9.96 7.22235Z" fill="#910000"/>
<path d="M10.0443 7.28492C10.0668 7.24492 10.0818 7.24992 10.1093 7.24992C10.1193 7.24992 10.1218 7.24242 10.1193 7.23242C10.1118 7.24742 10.0768 7.23242 10.0568 7.23992C10.0193 7.25742 10.0268 7.33242 10.0068 7.33992C10.0268 7.35742 10.0343 7.29742 10.0443 7.28492Z" fill="#FF3A3A"/>
<path d="M8.82715 7.6897L8.57715 8.1222H11.4246L11.1746 7.6922H8.82965L8.82715 7.6897Z" fill="white"/>
<path d="M8.7423 8.03474C8.70302 8.03468 8.66377 8.03718 8.6248 8.04224L8.6123 8.06474C8.6723 8.05724 8.7298 8.04724 8.7923 8.04724C8.87231 8.04724 8.9473 8.06724 9.0348 8.06724H9.1498C9.2373 8.06724 9.3098 8.04724 9.39231 8.04724C9.4748 8.04724 9.5498 8.06724 9.6373 8.06724H9.7523C9.8398 8.06724 9.9123 8.04724 9.9948 8.04724C10.0773 8.04724 10.1523 8.06724 10.2398 8.06724H10.3523C10.4398 8.06724 10.5148 8.04724 10.5973 8.04724C10.6798 8.04724 10.7548 8.06724 10.8423 8.06724H10.9548C11.0423 8.06724 11.1173 8.04724 11.1998 8.04724C11.2648 8.04724 11.3248 8.05974 11.3873 8.06474L11.3748 8.03974C11.3383 8.03595 11.3015 8.03428 11.2648 8.03474H11.1523C11.0648 8.03474 10.9898 8.05224 10.9073 8.05474C10.8248 8.05474 10.7498 8.03474 10.6623 8.03474H10.5498C10.4623 8.03474 10.3873 8.05224 10.3048 8.05474C10.2223 8.05474 10.1473 8.03474 10.0598 8.03474H9.9498C9.8623 8.03474 9.7873 8.05224 9.70481 8.05474C9.62231 8.05474 9.5473 8.03474 9.4598 8.03474H9.3473C9.2598 8.03474 9.1848 8.05224 9.1023 8.05474C9.0198 8.05474 8.9473 8.03474 8.8598 8.03474H8.7448H8.7423Z" fill="url(#paint2_linear_202_4056)"/>
<path d="M8.7423 8.03474C8.70302 8.03468 8.66377 8.03718 8.6248 8.04224L8.6123 8.06474C8.6723 8.05724 8.7298 8.04724 8.7923 8.04724C8.87231 8.04724 8.9473 8.06724 9.0348 8.06724H9.1498C9.2373 8.06724 9.3098 8.04724 9.39231 8.04724C9.4748 8.04724 9.5498 8.06724 9.6373 8.06724H9.7523C9.8398 8.06724 9.9123 8.04724 9.9948 8.04724C10.0773 8.04724 10.1523 8.06724 10.2398 8.06724H10.3523C10.4398 8.06724 10.5148 8.04724 10.5973 8.04724C10.6798 8.04724 10.7548 8.06724 10.8423 8.06724H10.9548C11.0423 8.06724 11.1173 8.04724 11.1998 8.04724C11.2648 8.04724 11.3248 8.05974 11.3873 8.06474L11.3748 8.03974C11.3383 8.03595 11.3015 8.03428 11.2648 8.03474H11.1523C11.0648 8.03474 10.9898 8.05224 10.9073 8.05474C10.8248 8.05474 10.7498 8.03474 10.6623 8.03474H10.5498C10.4623 8.03474 10.3873 8.05224 10.3048 8.05474C10.2223 8.05474 10.1473 8.03474 10.0598 8.03474H9.9498C9.8623 8.03474 9.7873 8.05224 9.70481 8.05474C9.62231 8.05474 9.5473 8.03474 9.4598 8.03474H9.3473C9.2598 8.03474 9.1848 8.05224 9.1023 8.05474C9.0198 8.05474 8.9473 8.03474 8.8598 8.03474H8.7448H8.7423Z" fill="url(#paint3_linear_202_4056)"/>
<path d="M8.7423 8.03474C8.70302 8.03468 8.66377 8.03718 8.6248 8.04224L8.6123 8.06474C8.6723 8.05724 8.7298 8.04724 8.7923 8.04724C8.87231 8.04724 8.9473 8.06724 9.0348 8.06724H9.1498C9.2373 8.06724 9.3098 8.04724 9.39231 8.04724C9.4748 8.04724 9.5498 8.06724 9.6373 8.06724H9.7523C9.8398 8.06724 9.9123 8.04724 9.9948 8.04724C10.0773 8.04724 10.1523 8.06724 10.2398 8.06724H10.3523C10.4398 8.06724 10.5148 8.04724 10.5973 8.04724C10.6798 8.04724 10.7548 8.06724 10.8423 8.06724H10.9548C11.0423 8.06724 11.1173 8.04724 11.1998 8.04724C11.2648 8.04724 11.3248 8.05974 11.3873 8.06474L11.3748 8.03974C11.3383 8.03595 11.3015 8.03428 11.2648 8.03474H11.1523C11.0648 8.03474 10.9898 8.05224 10.9073 8.05474C10.8248 8.05474 10.7498 8.03474 10.6623 8.03474H10.5498C10.4623 8.03474 10.3873 8.05224 10.3048 8.05474C10.2223 8.05474 10.1473 8.03474 10.0598 8.03474H9.9498C9.8623 8.03474 9.7873 8.05224 9.70481 8.05474C9.62231 8.05474 9.5473 8.03474 9.4598 8.03474H9.3473C9.2598 8.03474 9.1848 8.05224 9.1023 8.05474C9.0198 8.05474 8.9473 8.03474 8.8598 8.03474H8.7448H8.7423Z" fill="url(#paint4_linear_202_4056)"/>
<path d="M8.7423 8.03474C8.70302 8.03468 8.66377 8.03718 8.6248 8.04224L8.6123 8.06474C8.6723 8.05724 8.7298 8.04724 8.7923 8.04724C8.87231 8.04724 8.9473 8.06724 9.0348 8.06724H9.1498C9.2373 8.06724 9.3098 8.04724 9.39231 8.04724C9.4748 8.04724 9.5498 8.06724 9.6373 8.06724H9.7523C9.8398 8.06724 9.9123 8.04724 9.9948 8.04724C10.0773 8.04724 10.1523 8.06724 10.2398 8.06724H10.3523C10.4398 8.06724 10.5148 8.04724 10.5973 8.04724C10.6798 8.04724 10.7548 8.06724 10.8423 8.06724H10.9548C11.0423 8.06724 11.1173 8.04724 11.1998 8.04724C11.2648 8.04724 11.3248 8.05974 11.3873 8.06474L11.3748 8.03974C11.3383 8.03595 11.3015 8.03428 11.2648 8.03474H11.1523C11.0648 8.03474 10.9898 8.05224 10.9073 8.05474C10.8248 8.05474 10.7498 8.03474 10.6623 8.03474H10.5498C10.4623 8.03474 10.3873 8.05224 10.3048 8.05474C10.2223 8.05474 10.1473 8.03474 10.0598 8.03474H9.9498C9.8623 8.03474 9.7873 8.05224 9.70481 8.05474C9.62231 8.05474 9.5473 8.03474 9.4598 8.03474H9.3473C9.2598 8.03474 9.1848 8.05224 9.1023 8.05474C9.0198 8.05474 8.9473 8.03474 8.8598 8.03474H8.7448H8.7423Z" fill="url(#paint5_linear_202_4056)"/>
<path d="M8.7423 8.03474C8.70302 8.03468 8.66377 8.03718 8.6248 8.04224L8.6123 8.06474C8.6723 8.05724 8.7298 8.04724 8.7923 8.04724C8.87231 8.04724 8.9473 8.06724 9.0348 8.06724H9.1498C9.2373 8.06724 9.3098 8.04724 9.39231 8.04724C9.4748 8.04724 9.5498 8.06724 9.6373 8.06724H9.7523C9.8398 8.06724 9.9123 8.04724 9.9948 8.04724C10.0773 8.04724 10.1523 8.06724 10.2398 8.06724H10.3523C10.4398 8.06724 10.5148 8.04724 10.5973 8.04724C10.6798 8.04724 10.7548 8.06724 10.8423 8.06724H10.9548C11.0423 8.06724 11.1173 8.04724 11.1998 8.04724C11.2648 8.04724 11.3248 8.05974 11.3873 8.06474L11.3748 8.03974C11.3383 8.03595 11.3015 8.03428 11.2648 8.03474H11.1523C11.0648 8.03474 10.9898 8.05224 10.9073 8.05474C10.8248 8.05474 10.7498 8.03474 10.6623 8.03474H10.5498C10.4623 8.03474 10.3873 8.05224 10.3048 8.05474C10.2223 8.05474 10.1473 8.03474 10.0598 8.03474H9.9498C9.8623 8.03474 9.7873 8.05224 9.70481 8.05474C9.62231 8.05474 9.5473 8.03474 9.4598 8.03474H9.3473C9.2598 8.03474 9.1848 8.05224 9.1023 8.05474C9.0198 8.05474 8.9473 8.03474 8.8598 8.03474H8.7448H8.7423Z" fill="url(#paint6_linear_202_4056)"/>
<path d="M8.7423 8.03474C8.70302 8.03468 8.66377 8.03718 8.6248 8.04224L8.6123 8.06474C8.6723 8.05724 8.7298 8.04724 8.7923 8.04724C8.87231 8.04724 8.9473 8.06724 9.0348 8.06724H9.1498C9.2373 8.06724 9.3098 8.04724 9.39231 8.04724C9.4748 8.04724 9.5498 8.06724 9.6373 8.06724H9.7523C9.8398 8.06724 9.9123 8.04724 9.9948 8.04724C10.0773 8.04724 10.1523 8.06724 10.2398 8.06724H10.3523C10.4398 8.06724 10.5148 8.04724 10.5973 8.04724C10.6798 8.04724 10.7548 8.06724 10.8423 8.06724H10.9548C11.0423 8.06724 11.1173 8.04724 11.1998 8.04724C11.2648 8.04724 11.3248 8.05974 11.3873 8.06474L11.3748 8.03974C11.3383 8.03595 11.3015 8.03428 11.2648 8.03474H11.1523C11.0648 8.03474 10.9898 8.05224 10.9073 8.05474C10.8248 8.05474 10.7498 8.03474 10.6623 8.03474H10.5498C10.4623 8.03474 10.3873 8.05224 10.3048 8.05474C10.2223 8.05474 10.1473 8.03474 10.0598 8.03474H9.9498C9.8623 8.03474 9.7873 8.05224 9.70481 8.05474C9.62231 8.05474 9.5473 8.03474 9.4598 8.03474H9.3473C9.2598 8.03474 9.1848 8.05224 9.1023 8.05474C9.0198 8.05474 8.9473 8.03474 8.8598 8.03474H8.7448H8.7423Z" fill="url(#paint7_linear_202_4056)"/>
<path d="M8.7423 8.03474C8.70302 8.03468 8.66377 8.03718 8.6248 8.04224L8.6123 8.06474C8.6723 8.05724 8.7298 8.04724 8.7923 8.04724C8.87231 8.04724 8.9473 8.06724 9.0348 8.06724H9.1498C9.2373 8.06724 9.3098 8.04724 9.39231 8.04724C9.4748 8.04724 9.5498 8.06724 9.6373 8.06724H9.7523C9.8398 8.06724 9.9123 8.04724 9.9948 8.04724C10.0773 8.04724 10.1523 8.06724 10.2398 8.06724H10.3523C10.4398 8.06724 10.5148 8.04724 10.5973 8.04724C10.6798 8.04724 10.7548 8.06724 10.8423 8.06724H10.9548C11.0423 8.06724 11.1173 8.04724 11.1998 8.04724C11.2648 8.04724 11.3248 8.05974 11.3873 8.06474L11.3748 8.03974C11.3383 8.03595 11.3015 8.03428 11.2648 8.03474H11.1523C11.0648 8.03474 10.9898 8.05224 10.9073 8.05474C10.8248 8.05474 10.7498 8.03474 10.6623 8.03474H10.5498C10.4623 8.03474 10.3873 8.05224 10.3048 8.05474C10.2223 8.05474 10.1473 8.03474 10.0598 8.03474H9.9498C9.8623 8.03474 9.7873 8.05224 9.70481 8.05474C9.62231 8.05474 9.5473 8.03474 9.4598 8.03474H9.3473C9.2598 8.03474 9.1848 8.05224 9.1023 8.05474C9.0198 8.05474 8.9473 8.03474 8.8598 8.03474H8.7448H8.7423Z" fill="url(#paint8_linear_202_4056)"/>
<path d="M8.7423 8.03474C8.70302 8.03468 8.66377 8.03718 8.6248 8.04224L8.6123 8.06474C8.6723 8.05724 8.7298 8.04724 8.7923 8.04724C8.87231 8.04724 8.9473 8.06724 9.0348 8.06724H9.1498C9.2373 8.06724 9.3098 8.04724 9.39231 8.04724C9.4748 8.04724 9.5498 8.06724 9.6373 8.06724H9.7523C9.8398 8.06724 9.9123 8.04724 9.9948 8.04724C10.0773 8.04724 10.1523 8.06724 10.2398 8.06724H10.3523C10.4398 8.06724 10.5148 8.04724 10.5973 8.04724C10.6798 8.04724 10.7548 8.06724 10.8423 8.06724H10.9548C11.0423 8.06724 11.1173 8.04724 11.1998 8.04724C11.2648 8.04724 11.3248 8.05974 11.3873 8.06474L11.3748 8.03974C11.3383 8.03595 11.3015 8.03428 11.2648 8.03474H11.1523C11.0648 8.03474 10.9898 8.05224 10.9073 8.05474C10.8248 8.05474 10.7498 8.03474 10.6623 8.03474H10.5498C10.4623 8.03474 10.3873 8.05224 10.3048 8.05474C10.2223 8.05474 10.1473 8.03474 10.0598 8.03474H9.9498C9.8623 8.03474 9.7873 8.05224 9.70481 8.05474C9.62231 8.05474 9.5473 8.03474 9.4598 8.03474H9.3473C9.2598 8.03474 9.1848 8.05224 9.1023 8.05474C9.0198 8.05474 8.9473 8.03474 8.8598 8.03474H8.7448H8.7423Z" fill="url(#paint9_linear_202_4056)"/>
<path d="M8.7423 8.03474C8.70302 8.03468 8.66377 8.03718 8.6248 8.04224L8.6123 8.06474C8.6723 8.05724 8.7298 8.04724 8.7923 8.04724C8.87231 8.04724 8.9473 8.06724 9.0348 8.06724H9.1498C9.2373 8.06724 9.3098 8.04724 9.39231 8.04724C9.4748 8.04724 9.5498 8.06724 9.6373 8.06724H9.7523C9.8398 8.06724 9.9123 8.04724 9.9948 8.04724C10.0773 8.04724 10.1523 8.06724 10.2398 8.06724H10.3523C10.4398 8.06724 10.5148 8.04724 10.5973 8.04724C10.6798 8.04724 10.7548 8.06724 10.8423 8.06724H10.9548C11.0423 8.06724 11.1173 8.04724 11.1998 8.04724C11.2648 8.04724 11.3248 8.05974 11.3873 8.06474L11.3748 8.03974C11.3383 8.03595 11.3015 8.03428 11.2648 8.03474H11.1523C11.0648 8.03474 10.9898 8.05224 10.9073 8.05474C10.8248 8.05474 10.7498 8.03474 10.6623 8.03474H10.5498C10.4623 8.03474 10.3873 8.05224 10.3048 8.05474C10.2223 8.05474 10.1473 8.03474 10.0598 8.03474H9.9498C9.8623 8.03474 9.7873 8.05224 9.70481 8.05474C9.62231 8.05474 9.5473 8.03474 9.4598 8.03474H9.3473C9.2598 8.03474 9.1848 8.05224 9.1023 8.05474C9.0198 8.05474 8.9473 8.03474 8.8598 8.03474H8.7448H8.7423Z" fill="url(#paint10_linear_202_4056)"/>
<path d="M8.82965 7.68726V7.69226H11.1721L11.1696 7.68726H8.82965ZM8.82465 7.69476L8.82215 7.70226H11.1746L11.1721 7.69476H8.82215H8.82465ZM8.81965 7.70476L8.81465 7.71226H11.1846L11.1796 7.70476H8.81965ZM8.81215 7.71726L8.80465 7.72976H11.1946L11.1871 7.71726H8.81215ZM8.80215 7.73476L8.79465 7.74726H11.2046L11.1971 7.73476H8.80215ZM8.79215 7.75226L8.78715 7.76226H11.2121L11.2071 7.75226H8.79215ZM8.78215 7.76976L8.77715 7.77976H11.2246L11.2171 7.76976H8.78215ZM8.77215 7.78726L8.76465 7.80226H11.2346L11.2271 7.78726H8.77465H8.77215Z" fill="url(#paint11_linear_202_4056)"/>
<path d="M8.93457 7.80737C9.01957 7.82487 9.02707 7.80737 9.02707 7.80737H8.93457ZM10.9721 7.80737C10.9721 7.80737 10.9796 7.82487 11.0646 7.80737H10.9721Z" fill="url(#paint12_linear_202_4056)"/>
<path d="M10.7653 7.4248C10.7228 7.4248 10.7103 7.4473 10.7103 7.4473C10.6428 7.7123 10.4153 7.9798 10.1453 7.9798H9.94531V8.2498H11.4803L11.3253 7.9748C11.0828 7.9398 10.8853 7.6923 10.8228 7.4473C10.8228 7.4473 10.8078 7.4248 10.7653 7.4248Z" fill="url(#paint13_linear_202_4056)"/>
<path d="M10.7656 7.43719C10.7456 7.43719 10.7356 7.43969 10.7281 7.44469L10.7206 7.45219C10.6831 7.5906 10.6108 7.71712 10.5106 7.81969C10.4106 7.92219 10.2856 7.99219 10.1456 7.99219H9.95312V8.23969H11.4756L11.3331 7.98969C11.2156 7.97219 11.1081 7.90969 11.0231 7.81969C10.9229 7.71712 10.8506 7.5906 10.8131 7.45219L10.8056 7.44469C10.7933 7.43828 10.7794 7.43567 10.7656 7.43719Z" fill="#97C924"/>
<path d="M10.7656 7.43726H10.7756V7.70726C10.7732 7.76404 10.756 7.81921 10.7256 7.86726C10.7131 7.90726 10.7006 7.89226 10.6681 7.93976C10.626 7.95429 10.5824 7.96435 10.5381 7.96976C10.4756 7.97976 10.3381 7.98976 10.2656 7.97226C10.3587 7.94379 10.443 7.89218 10.5106 7.82226C10.5292 7.80237 10.5467 7.78151 10.5631 7.75976C10.591 7.72512 10.6161 7.68834 10.6381 7.64976L10.6631 7.59976C10.6751 7.57611 10.6859 7.55192 10.6956 7.52726C10.7053 7.50272 10.7136 7.47768 10.7206 7.45226L10.7281 7.44476L10.7431 7.43976L10.7681 7.43726H10.7656Z" fill="#EDE71F"/>
<path d="M10.7499 7.47241C10.7374 7.62241 10.6924 7.80241 10.5824 7.91741C10.5424 7.94991 10.4899 7.98241 10.4424 7.97491C10.6099 7.83741 10.7124 7.62491 10.7474 7.47241H10.7499Z" fill="#C6CB24"/>
<path d="M10.6128 7.73242C10.5878 7.79992 10.4928 7.89992 10.3928 7.98242H10.3203C10.3828 7.97742 10.5278 7.85742 10.6128 7.73242Z" fill="#9ECB34"/>
<path d="M10.7653 7.4248C10.7228 7.4248 10.7103 7.4473 10.7103 7.4473C10.6428 7.7123 10.4153 7.9798 10.1453 7.9798H9.94531V8.2498H11.4803L11.3253 7.9748C11.0828 7.9398 10.8853 7.6923 10.8228 7.4473C10.8228 7.4473 10.8078 7.4248 10.7653 7.4248Z" fill="url(#paint14_linear_202_4056)"/>
<path d="M10.7656 7.43719C10.7456 7.43719 10.7356 7.43969 10.7281 7.44469L10.7206 7.45219C10.6831 7.5906 10.6108 7.71712 10.5106 7.81969C10.4106 7.92219 10.2856 7.99219 10.1456 7.99219H9.95312V8.23969H11.4756L11.3331 7.98969C11.2156 7.97219 11.1081 7.90969 11.0231 7.81969C10.9229 7.71712 10.8506 7.5906 10.8131 7.45219L10.8056 7.44469C10.7933 7.43828 10.7794 7.43567 10.7656 7.43719Z" fill="#97C924"/>
<path d="M10.7656 7.43726H10.7756V7.70726C10.7732 7.76404 10.756 7.81921 10.7256 7.86726C10.7131 7.90726 10.7006 7.89226 10.6681 7.93976C10.626 7.95429 10.5824 7.96435 10.5381 7.96976C10.4756 7.97976 10.3381 7.98976 10.2656 7.97226C10.3587 7.94379 10.443 7.89218 10.5106 7.82226C10.5292 7.80237 10.5467 7.78151 10.5631 7.75976C10.591 7.72512 10.6161 7.68834 10.6381 7.64976L10.6631 7.59976C10.6751 7.57611 10.6859 7.55192 10.6956 7.52726C10.7053 7.50272 10.7136 7.47768 10.7206 7.45226L10.7281 7.44476L10.7431 7.43976L10.7681 7.43726H10.7656Z" fill="#EDE71F"/>
<path d="M10.7499 7.47241C10.7374 7.62241 10.6924 7.80241 10.5824 7.91741C10.5424 7.94991 10.4899 7.98241 10.4424 7.97491C10.6099 7.83741 10.7124 7.62491 10.7474 7.47241H10.7499Z" fill="#C6CB24"/>
<path d="M10.6128 7.73242C10.5878 7.79992 10.4928 7.89992 10.3928 7.98242H10.3203C10.3828 7.97742 10.5278 7.85742 10.6128 7.73242Z" fill="#9ECB34"/>
<path d="M10.0552 7.44975C10.1252 7.71225 10.3502 7.97975 10.6202 7.97975H10.8227V8.24975H9.17773V7.97975H9.37773C9.64773 7.97975 9.87523 7.71225 9.94273 7.44725C9.94273 7.44725 9.95773 7.42725 10.0002 7.42725C10.0427 7.42725 10.0552 7.44725 10.0552 7.44725V7.44975Z" fill="url(#paint15_linear_202_4056)"/>
<path d="M10 7.43731C10.02 7.43731 10.03 7.44231 10.0375 7.44481L10.045 7.45231C10.0825 7.59073 10.1548 7.71724 10.255 7.81981C10.355 7.92231 10.48 7.99231 10.62 7.99231H10.8125V8.23981H9.1875V7.98981H9.38C9.5175 7.98981 9.645 7.92231 9.745 7.81981C9.84431 7.71697 9.91574 7.59047 9.9525 7.45231L9.96 7.44481C9.97239 7.43867 9.98623 7.43608 10 7.43731Z" fill="#97C924"/>
<path d="M9.9825 7.43734C9.98 7.43723 9.9775 7.43723 9.975 7.43734L9.96 7.44484L9.9525 7.45234C9.94554 7.47778 9.9372 7.50281 9.9275 7.52734C9.91869 7.5528 9.90868 7.57783 9.8975 7.60234C9.88967 7.61843 9.88133 7.63427 9.8725 7.64984C9.85045 7.68843 9.82537 7.72521 9.7975 7.75984C9.78105 7.78073 9.76353 7.80076 9.745 7.81984C9.67762 7.89067 9.5933 7.94316 9.5 7.97234C9.57 7.98984 9.6 7.97234 9.6625 7.96234C9.7125 7.95484 9.7675 7.94734 9.8125 7.93234C9.85 7.88234 9.8375 7.89984 9.85 7.85984C9.88 7.80484 9.925 7.75484 9.935 7.69234C9.975 7.61734 9.9825 7.47734 9.9825 7.43734Z" fill="#EDE71F"/>
<path d="M9.9823 7.47217C9.9723 7.62217 9.9248 7.80217 9.8148 7.91717C9.7748 7.94967 9.7248 7.98217 9.6748 7.97467C9.8448 7.83717 9.9473 7.62467 9.9823 7.47217Z" fill="#C6CB24"/>
<path d="M9.84566 7.73218C9.79131 7.83047 9.71625 7.91577 9.62566 7.98218H9.55566C9.61816 7.97718 9.76066 7.85718 9.84566 7.73218Z" fill="#9ECB34"/>
<path d="M10.0251 7.4397L10.0376 7.4447L10.0476 7.4522C10.0547 7.47759 10.063 7.50262 10.0726 7.5272C10.0814 7.55266 10.0914 7.57769 10.1026 7.6022L10.1276 7.6497C10.1496 7.68829 10.1747 7.72507 10.2026 7.7597C10.219 7.78059 10.2366 7.80062 10.2551 7.8197C10.322 7.89334 10.4062 7.94919 10.5001 7.9822C10.3176 7.9822 10.2401 7.9672 10.1751 7.8822C10.1278 7.83216 10.092 7.77245 10.0701 7.7072C10.0576 7.6572 10.0201 7.5447 10.0226 7.4397H10.0251Z" fill="#EDE71F"/>
<path d="M10.0381 7.47217C10.0481 7.62217 10.0931 7.77217 10.2031 7.88717C10.2431 7.92217 10.2931 7.95217 10.3431 7.94467C10.186 7.83074 10.0772 7.66221 10.0381 7.47217Z" fill="#C6CB24"/>
<path d="M9.62027 7.4248C9.57527 7.4248 9.56277 7.4473 9.56277 7.4473C9.50027 7.6923 9.26777 8.00481 9.02527 8.0423L8.90527 8.2498H10.1303V7.96731C9.91027 7.90731 9.73277 7.6748 9.67527 7.4473C9.67527 7.4473 9.66277 7.4273 9.61777 7.4273L9.62027 7.4248Z" fill="url(#paint16_linear_202_4056)"/>
<path d="M9.62059 7.43719C9.60059 7.43719 9.58809 7.44219 9.58059 7.44469L9.57309 7.45219C9.53104 7.58934 9.46221 7.7168 9.37059 7.82719C9.28559 7.93469 9.12809 8.04219 9.02059 8.05219L8.91309 8.23969H10.1131V7.97219C10.0228 7.9424 9.94127 7.89089 9.87559 7.82219C9.775 7.71892 9.70268 7.5915 9.66559 7.45219L9.65809 7.44469C9.64648 7.43888 9.63353 7.43629 9.62059 7.43719Z" fill="#97C924"/>
<path d="M9.58496 7.47241C9.56996 7.69741 9.44496 7.98491 9.30246 8.03241C9.25496 8.04991 9.17496 8.05491 9.14746 8.05741C9.25769 7.99617 9.35382 7.91244 9.42962 7.81167C9.50542 7.71089 9.5592 7.59531 9.58746 7.47241H9.58496Z" fill="#93BC30"/>
<path d="M9.61992 7.43733H9.60742V7.70733C9.60742 7.76483 9.62992 7.81233 9.65742 7.86733L9.66242 7.87983C9.67492 7.90733 9.68242 7.91733 9.71992 7.94733C9.82728 8.02395 9.95859 8.05944 10.0899 8.04733C10.0624 8.02483 10.0324 8.00483 10.0049 7.98733L10.1174 7.97483C10.0248 7.94455 9.94131 7.89122 9.87492 7.81983C9.86284 7.80772 9.85117 7.79522 9.83992 7.78233L9.82492 7.76233C9.79533 7.72699 9.76858 7.68938 9.74492 7.64983C9.73605 7.63344 9.72771 7.61676 9.71992 7.59983C9.70458 7.56819 9.69123 7.53563 9.67992 7.50233C9.67437 7.48583 9.66937 7.46916 9.66492 7.45233L9.65742 7.44483C9.65269 7.44245 9.64764 7.44076 9.64242 7.43983C9.63425 7.43783 9.62583 7.43699 9.61742 7.43733H9.61992Z" fill="#EDE71F"/>
<path d="M9.63574 7.47241C9.64824 7.62241 9.69324 7.80241 9.80324 7.91741C9.84324 7.94991 9.89324 7.98241 9.94324 7.97491C9.79074 7.84367 9.6832 7.66793 9.63574 7.47241Z" fill="#CCD11E"/>
<path d="M9.74023 7.68219C9.82121 7.84057 9.94853 7.97051 10.1052 8.05469H10.1677C10.0577 7.99469 9.88023 7.90969 9.74273 7.67969L9.74023 7.68219Z" fill="#9ECB34"/>
<path d="M9.62027 7.4248C9.57527 7.4248 9.56277 7.4473 9.56277 7.4473C9.50027 7.6923 9.26777 8.00481 9.02527 8.0423L8.90527 8.2498H10.1303V7.96731C9.91027 7.90731 9.73277 7.6748 9.67527 7.4473C9.67527 7.4473 9.66277 7.4273 9.61777 7.4273L9.62027 7.4248Z" fill="url(#paint17_linear_202_4056)"/>
<path d="M9.62059 7.43719C9.60059 7.43719 9.58809 7.44219 9.58059 7.44469L9.57309 7.45219C9.53104 7.58934 9.46221 7.7168 9.37059 7.82719C9.28559 7.93469 9.12809 8.04219 9.02059 8.05219L8.91309 8.23969H10.1131V7.97219C10.0228 7.9424 9.94127 7.89089 9.87559 7.82219C9.775 7.71892 9.70268 7.5915 9.66559 7.45219L9.65809 7.44469C9.64648 7.43888 9.63353 7.43629 9.62059 7.43719Z" fill="#97C924"/>
<path d="M9.58496 7.47241C9.56996 7.69741 9.44496 7.98491 9.30246 8.03241C9.25496 8.04991 9.17496 8.05491 9.14746 8.05741C9.25769 7.99617 9.35382 7.91244 9.42962 7.81167C9.50542 7.71089 9.5592 7.59531 9.58746 7.47241H9.58496Z" fill="#93BC30"/>
<path d="M9.61992 7.43733H9.60742V7.70733C9.60742 7.76483 9.62992 7.81233 9.65742 7.86733L9.66242 7.87983C9.67492 7.90733 9.68242 7.91733 9.71992 7.94733C9.82728 8.02395 9.95859 8.05944 10.0899 8.04733C10.0624 8.02483 10.0324 8.00483 10.0049 7.98733L10.1174 7.97483C10.0248 7.94455 9.94131 7.89122 9.87492 7.81983C9.86284 7.80772 9.85117 7.79522 9.83992 7.78233L9.82492 7.76233C9.79533 7.72699 9.76858 7.68938 9.74492 7.64983C9.73605 7.63344 9.72771 7.61676 9.71992 7.59983C9.70458 7.56819 9.69123 7.53563 9.67992 7.50233C9.67437 7.48583 9.66937 7.46916 9.66492 7.45233L9.65742 7.44483C9.65269 7.44245 9.64764 7.44076 9.64242 7.43983C9.63425 7.43783 9.62583 7.43699 9.61742 7.43733H9.61992Z" fill="#EDE71F"/>
<path d="M9.63574 7.47241C9.64824 7.62241 9.69324 7.80241 9.80324 7.91741C9.84324 7.94991 9.89324 7.98241 9.94324 7.97491C9.79074 7.84367 9.6832 7.66793 9.63574 7.47241Z" fill="#C6CB24"/>
<path d="M9.74023 7.68219C9.82121 7.84057 9.94853 7.97051 10.1052 8.05469H10.1677C10.0577 7.99469 9.88023 7.90969 9.74273 7.67969L9.74023 7.68219Z" fill="#9ECB34"/>
<path d="M11.4122 8.11741C11.3972 8.12241 11.3022 8.11241 11.2522 8.11741L11.2197 8.12491H11.1372C11.0472 8.12491 10.9697 8.14991 10.8847 8.14991C10.7997 8.14991 10.7222 8.12491 10.6347 8.12491H10.5497C10.4597 8.12491 10.3822 8.14991 10.2972 8.14991C10.2122 8.14991 10.1347 8.12491 10.0472 8.12491H9.96223C9.87223 8.12491 9.79473 8.14991 9.71223 8.14991C9.62473 8.14991 9.54973 8.12491 9.45973 8.12491H9.37473C9.28473 8.12491 9.20973 8.14991 9.12473 8.14991C9.03723 8.14991 8.96223 8.12491 8.87223 8.12491H8.78723C8.71723 8.12491 8.63223 8.13991 8.56473 8.14491L8.40723 8.41741H11.5922L11.4122 8.11741Z" fill="white"/>
<path d="M11.1995 8.07739H11.1845C11.1045 8.07989 11.0445 8.10489 10.9045 8.10489C10.7645 8.10489 10.7495 8.07989 10.5895 8.08489C10.4395 8.08489 10.3795 8.11489 10.297 8.11489C10.217 8.11489 10.087 8.09739 9.98453 8.10739C9.88453 8.11739 9.76453 8.13989 9.68453 8.13989C9.58703 8.13989 9.48953 8.12239 9.38953 8.13239C9.28703 8.14239 9.23953 8.16989 9.11203 8.16989C9.00203 8.16989 8.88703 8.15239 8.79203 8.15239C8.70703 8.15239 8.61203 8.17739 8.54203 8.18739L8.51953 8.22489C8.57703 8.21739 8.73453 8.19239 8.78953 8.19239C8.84953 8.19239 9.05703 8.20489 9.17203 8.19989C9.28953 8.19739 9.30203 8.16989 9.43953 8.16989C9.53453 8.16989 9.60453 8.17989 9.70203 8.17989C9.76453 8.17989 9.81953 8.14989 9.91203 8.14989L9.98203 8.14739C10.0595 8.13489 10.192 8.14739 10.282 8.15239C10.3645 8.15739 10.4195 8.13739 10.507 8.13489L10.617 8.13239C10.7045 8.12739 10.777 8.14739 10.8595 8.14739C10.9395 8.14239 11.0195 8.12239 11.1045 8.12239L11.217 8.11739C11.2745 8.11739 11.3645 8.11739 11.4245 8.12989L11.4045 8.09489C11.3445 8.09239 11.272 8.07739 11.1995 8.07739Z" fill="url(#paint18_linear_202_4056)"/>
<path d="M8.75754 8.36993C8.67254 8.36993 8.59754 8.38993 8.51754 8.39243C8.48742 8.39164 8.45737 8.38913 8.42754 8.38493L8.41504 8.40493H8.56504C8.65254 8.40493 8.72504 8.38493 8.80504 8.38243C8.88754 8.38493 8.96004 8.40743 9.04754 8.40743H9.16004C9.24504 8.40743 9.32004 8.38493 9.40004 8.38243C9.48254 8.38493 9.55754 8.40743 9.64254 8.40743H9.75504C9.84254 8.40743 9.91504 8.38493 9.99754 8.38243C10.0775 8.38493 10.15 8.40743 10.2375 8.40743H10.35C10.435 8.40743 10.51 8.38493 10.5925 8.38243C10.6725 8.38493 10.7475 8.40743 10.8325 8.40743H10.945C11.0325 8.40743 11.105 8.38493 11.185 8.38243C11.2675 8.38493 11.34 8.40743 11.4275 8.40743H11.54L11.585 8.40493L11.5725 8.38493C11.5475 8.38743 11.52 8.39243 11.4925 8.39243C11.41 8.39243 11.3375 8.36743 11.25 8.36743H11.1375C11.0525 8.36743 10.9775 8.39243 10.8975 8.39243C10.815 8.38993 10.7425 8.36743 10.655 8.36743H10.5425C10.4575 8.36743 10.3825 8.39243 10.3025 8.39243C10.22 8.38993 10.1475 8.36743 10.06 8.36743H9.94754C9.86004 8.36743 9.78754 8.39243 9.70754 8.39243C9.62504 8.38993 9.55254 8.36743 9.46504 8.36743H9.35254C9.26754 8.36743 9.19254 8.39243 9.11254 8.39243C9.03004 8.38993 8.95754 8.36743 8.87004 8.36743H8.75754V8.36993Z" fill="url(#paint19_linear_202_4056)"/>
<path d="M8.75754 8.36993C8.67254 8.36993 8.59754 8.38993 8.51754 8.39243C8.48742 8.39164 8.45737 8.38913 8.42754 8.38493L8.41504 8.40493H8.56504C8.65254 8.40493 8.72504 8.38493 8.80504 8.38243C8.88754 8.38493 8.96004 8.40743 9.04754 8.40743H9.16004C9.24504 8.40743 9.32004 8.38493 9.40004 8.38243C9.48254 8.38493 9.55754 8.40743 9.64254 8.40743H9.75504C9.84254 8.40743 9.91504 8.38493 9.99754 8.38243C10.0775 8.38493 10.15 8.40743 10.2375 8.40743H10.35C10.435 8.40743 10.51 8.38493 10.5925 8.38243C10.6725 8.38493 10.7475 8.40743 10.8325 8.40743H10.945C11.0325 8.40743 11.105 8.38493 11.185 8.38243C11.2675 8.38493 11.34 8.40743 11.4275 8.40743H11.54L11.585 8.40493L11.5725 8.38493C11.5475 8.38743 11.52 8.39243 11.4925 8.39243C11.41 8.39243 11.3375 8.36743 11.25 8.36743H11.1375C11.0525 8.36743 10.9775 8.39243 10.8975 8.39243C10.815 8.38993 10.7425 8.36743 10.655 8.36743H10.5425C10.4575 8.36743 10.3825 8.39243 10.3025 8.39243C10.22 8.38993 10.1475 8.36743 10.06 8.36743H9.94754C9.86004 8.36743 9.78754 8.39243 9.70754 8.39243C9.62504 8.38993 9.55254 8.36743 9.46504 8.36743H9.35254C9.26754 8.36743 9.19254 8.39243 9.11254 8.39243C9.03004 8.38993 8.95754 8.36743 8.87004 8.36743H8.75754V8.36993Z" fill="url(#paint20_linear_202_4056)"/>
<path d="M8.75754 8.36993C8.67254 8.36993 8.59754 8.38993 8.51754 8.39243C8.48742 8.39164 8.45737 8.38913 8.42754 8.38493L8.41504 8.40493H8.56504C8.65254 8.40493 8.72504 8.38493 8.80504 8.38243C8.88754 8.38493 8.96004 8.40743 9.04754 8.40743H9.16004C9.24504 8.40743 9.32004 8.38493 9.40004 8.38243C9.48254 8.38493 9.55754 8.40743 9.64254 8.40743H9.75504C9.84254 8.40743 9.91504 8.38493 9.99754 8.38243C10.0775 8.38493 10.15 8.40743 10.2375 8.40743H10.35C10.435 8.40743 10.51 8.38493 10.5925 8.38243C10.6725 8.38493 10.7475 8.40743 10.8325 8.40743H10.945C11.0325 8.40743 11.105 8.38493 11.185 8.38243C11.2675 8.38493 11.34 8.40743 11.4275 8.40743H11.54L11.585 8.40493L11.5725 8.38493C11.5475 8.38743 11.52 8.39243 11.4925 8.39243C11.41 8.39243 11.3375 8.36743 11.25 8.36743H11.1375C11.0525 8.36743 10.9775 8.39243 10.8975 8.39243C10.815 8.38993 10.7425 8.36743 10.655 8.36743H10.5425C10.4575 8.36743 10.3825 8.39243 10.3025 8.39243C10.22 8.38993 10.1475 8.36743 10.06 8.36743H9.94754C9.86004 8.36743 9.78754 8.39243 9.70754 8.39243C9.62504 8.38993 9.55254 8.36743 9.46504 8.36743H9.35254C9.26754 8.36743 9.19254 8.39243 9.11254 8.39243C9.03004 8.38993 8.95754 8.36743 8.87004 8.36743H8.75754V8.36993Z" fill="url(#paint21_linear_202_4056)"/>
<path d="M8.75754 8.36993C8.67254 8.36993 8.59754 8.38993 8.51754 8.39243C8.48742 8.39164 8.45737 8.38913 8.42754 8.38493L8.41504 8.40493H8.56504C8.65254 8.40493 8.72504 8.38493 8.80504 8.38243C8.88754 8.38493 8.96004 8.40743 9.04754 8.40743H9.16004C9.24504 8.40743 9.32004 8.38493 9.40004 8.38243C9.48254 8.38493 9.55754 8.40743 9.64254 8.40743H9.75504C9.84254 8.40743 9.91504 8.38493 9.99754 8.38243C10.0775 8.38493 10.15 8.40743 10.2375 8.40743H10.35C10.435 8.40743 10.51 8.38493 10.5925 8.38243C10.6725 8.38493 10.7475 8.40743 10.8325 8.40743H10.945C11.0325 8.40743 11.105 8.38493 11.185 8.38243C11.2675 8.38493 11.34 8.40743 11.4275 8.40743H11.54L11.585 8.40493L11.5725 8.38493C11.5475 8.38743 11.52 8.39243 11.4925 8.39243C11.41 8.39243 11.3375 8.36743 11.25 8.36743H11.1375C11.0525 8.36743 10.9775 8.39243 10.8975 8.39243C10.815 8.38993 10.7425 8.36743 10.655 8.36743H10.5425C10.4575 8.36743 10.3825 8.39243 10.3025 8.39243C10.22 8.38993 10.1475 8.36743 10.06 8.36743H9.94754C9.86004 8.36743 9.78754 8.39243 9.70754 8.39243C9.62504 8.38993 9.55254 8.36743 9.46504 8.36743H9.35254C9.26754 8.36743 9.19254 8.39243 9.11254 8.39243C9.03004 8.38993 8.95754 8.36743 8.87004 8.36743H8.75754V8.36993Z" fill="url(#paint22_linear_202_4056)"/>
<path d="M8.75754 8.36993C8.67254 8.36993 8.59754 8.38993 8.51754 8.39243C8.48742 8.39164 8.45737 8.38913 8.42754 8.38493L8.41504 8.40493H8.56504C8.65254 8.40493 8.72504 8.38493 8.80504 8.38243C8.88754 8.38493 8.96004 8.40743 9.04754 8.40743H9.16004C9.24504 8.40743 9.32004 8.38493 9.40004 8.38243C9.48254 8.38493 9.55754 8.40743 9.64254 8.40743H9.75504C9.84254 8.40743 9.91504 8.38493 9.99754 8.38243C10.0775 8.38493 10.15 8.40743 10.2375 8.40743H10.35C10.435 8.40743 10.51 8.38493 10.5925 8.38243C10.6725 8.38493 10.7475 8.40743 10.8325 8.40743H10.945C11.0325 8.40743 11.105 8.38493 11.185 8.38243C11.2675 8.38493 11.34 8.40743 11.4275 8.40743H11.54L11.585 8.40493L11.5725 8.38493C11.5475 8.38743 11.52 8.39243 11.4925 8.39243C11.41 8.39243 11.3375 8.36743 11.25 8.36743H11.1375C11.0525 8.36743 10.9775 8.39243 10.8975 8.39243C10.815 8.38993 10.7425 8.36743 10.655 8.36743H10.5425C10.4575 8.36743 10.3825 8.39243 10.3025 8.39243C10.22 8.38993 10.1475 8.36743 10.06 8.36743H9.94754C9.86004 8.36743 9.78754 8.39243 9.70754 8.39243C9.62504 8.38993 9.55254 8.36743 9.46504 8.36743H9.35254C9.26754 8.36743 9.19254 8.39243 9.11254 8.39243C9.03004 8.38993 8.95754 8.36743 8.87004 8.36743H8.75754V8.36993Z" fill="url(#paint23_linear_202_4056)"/>
<path d="M8.75754 8.36993C8.67254 8.36993 8.59754 8.38993 8.51754 8.39243C8.48742 8.39164 8.45737 8.38913 8.42754 8.38493L8.41504 8.40493H8.56504C8.65254 8.40493 8.72504 8.38493 8.80504 8.38243C8.88754 8.38493 8.96004 8.40743 9.04754 8.40743H9.16004C9.24504 8.40743 9.32004 8.38493 9.40004 8.38243C9.48254 8.38493 9.55754 8.40743 9.64254 8.40743H9.75504C9.84254 8.40743 9.91504 8.38493 9.99754 8.38243C10.0775 8.38493 10.15 8.40743 10.2375 8.40743H10.35C10.435 8.40743 10.51 8.38493 10.5925 8.38243C10.6725 8.38493 10.7475 8.40743 10.8325 8.40743H10.945C11.0325 8.40743 11.105 8.38493 11.185 8.38243C11.2675 8.38493 11.34 8.40743 11.4275 8.40743H11.54L11.585 8.40493L11.5725 8.38493C11.5475 8.38743 11.52 8.39243 11.4925 8.39243C11.41 8.39243 11.3375 8.36743 11.25 8.36743H11.1375C11.0525 8.36743 10.9775 8.39243 10.8975 8.39243C10.815 8.38993 10.7425 8.36743 10.655 8.36743H10.5425C10.4575 8.36743 10.3825 8.39243 10.3025 8.39243C10.22 8.38993 10.1475 8.36743 10.06 8.36743H9.94754C9.86004 8.36743 9.78754 8.39243 9.70754 8.39243C9.62504 8.38993 9.55254 8.36743 9.46504 8.36743H9.35254C9.26754 8.36743 9.19254 8.39243 9.11254 8.39243C9.03004 8.38993 8.95754 8.36743 8.87004 8.36743H8.75754V8.36993Z" fill="url(#paint24_linear_202_4056)"/>
<path d="M8.75754 8.36993C8.67254 8.36993 8.59754 8.38993 8.51754 8.39243C8.48742 8.39164 8.45737 8.38913 8.42754 8.38493L8.41504 8.40493H8.56504C8.65254 8.40493 8.72504 8.38493 8.80504 8.38243C8.88754 8.38493 8.96004 8.40743 9.04754 8.40743H9.16004C9.24504 8.40743 9.32004 8.38493 9.40004 8.38243C9.48254 8.38493 9.55754 8.40743 9.64254 8.40743H9.75504C9.84254 8.40743 9.91504 8.38493 9.99754 8.38243C10.0775 8.38493 10.15 8.40743 10.2375 8.40743H10.35C10.435 8.40743 10.51 8.38493 10.5925 8.38243C10.6725 8.38493 10.7475 8.40743 10.8325 8.40743H10.945C11.0325 8.40743 11.105 8.38493 11.185 8.38243C11.2675 8.38493 11.34 8.40743 11.4275 8.40743H11.54L11.585 8.40493L11.5725 8.38493C11.5475 8.38743 11.52 8.39243 11.4925 8.39243C11.41 8.39243 11.3375 8.36743 11.25 8.36743H11.1375C11.0525 8.36743 10.9775 8.39243 10.8975 8.39243C10.815 8.38993 10.7425 8.36743 10.655 8.36743H10.5425C10.4575 8.36743 10.3825 8.39243 10.3025 8.39243C10.22 8.38993 10.1475 8.36743 10.06 8.36743H9.94754C9.86004 8.36743 9.78754 8.39243 9.70754 8.39243C9.62504 8.38993 9.55254 8.36743 9.46504 8.36743H9.35254C9.26754 8.36743 9.19254 8.39243 9.11254 8.39243C9.03004 8.38993 8.95754 8.36743 8.87004 8.36743H8.75754V8.36993Z" fill="url(#paint25_linear_202_4056)"/>
<path d="M8.75754 8.36993C8.67254 8.36993 8.59754 8.38993 8.51754 8.39243C8.48742 8.39164 8.45737 8.38913 8.42754 8.38493L8.41504 8.40493H8.56504C8.65254 8.40493 8.72504 8.38493 8.80504 8.38243C8.88754 8.38493 8.96004 8.40743 9.04754 8.40743H9.16004C9.24504 8.40743 9.32004 8.38493 9.40004 8.38243C9.48254 8.38493 9.55754 8.40743 9.64254 8.40743H9.75504C9.84254 8.40743 9.91504 8.38493 9.99754 8.38243C10.0775 8.38493 10.15 8.40743 10.2375 8.40743H10.35C10.435 8.40743 10.51 8.38493 10.5925 8.38243C10.6725 8.38493 10.7475 8.40743 10.8325 8.40743H10.945C11.0325 8.40743 11.105 8.38493 11.185 8.38243C11.2675 8.38493 11.34 8.40743 11.4275 8.40743H11.54L11.585 8.40493L11.5725 8.38493C11.5475 8.38743 11.52 8.39243 11.4925 8.39243C11.41 8.39243 11.3375 8.36743 11.25 8.36743H11.1375C11.0525 8.36743 10.9775 8.39243 10.8975 8.39243C10.815 8.38993 10.7425 8.36743 10.655 8.36743H10.5425C10.4575 8.36743 10.3825 8.39243 10.3025 8.39243C10.22 8.38993 10.1475 8.36743 10.06 8.36743H9.94754C9.86004 8.36743 9.78754 8.39243 9.70754 8.39243C9.62504 8.38993 9.55254 8.36743 9.46504 8.36743H9.35254C9.26754 8.36743 9.19254 8.39243 9.11254 8.39243C9.03004 8.38993 8.95754 8.36743 8.87004 8.36743H8.75754V8.36993Z" fill="url(#paint26_linear_202_4056)"/>
<path d="M8.75754 8.36993C8.67254 8.36993 8.59754 8.38993 8.51754 8.39243C8.48742 8.39164 8.45737 8.38913 8.42754 8.38493L8.41504 8.40493H8.56504C8.65254 8.40493 8.72504 8.38493 8.80504 8.38243C8.88754 8.38493 8.96004 8.40743 9.04754 8.40743H9.16004C9.24504 8.40743 9.32004 8.38493 9.40004 8.38243C9.48254 8.38493 9.55754 8.40743 9.64254 8.40743H9.75504C9.84254 8.40743 9.91504 8.38493 9.99754 8.38243C10.0775 8.38493 10.15 8.40743 10.2375 8.40743H10.35C10.435 8.40743 10.51 8.38493 10.5925 8.38243C10.6725 8.38493 10.7475 8.40743 10.8325 8.40743H10.945C11.0325 8.40743 11.105 8.38493 11.185 8.38243C11.2675 8.38493 11.34 8.40743 11.4275 8.40743H11.54L11.585 8.40493L11.5725 8.38493C11.5475 8.38743 11.52 8.39243 11.4925 8.39243C11.41 8.39243 11.3375 8.36743 11.25 8.36743H11.1375C11.0525 8.36743 10.9775 8.39243 10.8975 8.39243C10.815 8.38993 10.7425 8.36743 10.655 8.36743H10.5425C10.4575 8.36743 10.3825 8.39243 10.3025 8.39243C10.22 8.38993 10.1475 8.36743 10.06 8.36743H9.94754C9.86004 8.36743 9.78754 8.39243 9.70754 8.39243C9.62504 8.38993 9.55254 8.36743 9.46504 8.36743H9.35254C9.26754 8.36743 9.19254 8.39243 9.11254 8.39243C9.03004 8.38993 8.95754 8.36743 8.87004 8.36743H8.75754V8.36993Z" fill="url(#paint27_linear_202_4056)"/>
<path d="M8.59766 8.11723L8.53516 8.22223C8.60766 8.20973 8.71266 8.17973 8.80266 8.17973C8.89266 8.17973 9.00266 8.20223 9.11266 8.20473C9.23766 8.20473 9.28766 8.17473 9.38766 8.16473C9.49016 8.15473 9.58766 8.17723 9.68766 8.17973C9.76516 8.17973 9.88516 8.15223 9.98766 8.14223C10.0877 8.12973 10.1802 8.14973 10.3002 8.14973C10.4227 8.15223 10.4427 8.11973 10.5902 8.11723C10.7502 8.11473 10.7652 8.13973 10.9052 8.13973C11.0102 8.14473 11.1027 8.11723 11.1977 8.11223C11.2927 8.10473 11.3352 8.11223 11.4052 8.11223L11.3577 8.03223L8.82516 8.08973L8.59766 8.11723Z" fill="#97C924"/>
<path d="M11.25 8.11475L11.35 8.12225C11.3741 8.12513 11.3983 8.12763 11.4225 8.12975L11.4125 8.11725C11.3975 8.12225 11.3025 8.11225 11.2525 8.11725L11.25 8.11475Z" fill="white"/>
</g>
<path d="M10 5.62183L9.19687 7.01245L8.375 8.43745H11.625L10.8219 7.0437L10 5.62495V5.62183ZM10 5.69683L10.7875 7.06245L11.5594 8.39995H8.44063L9.22812 7.0312L10 5.69683Z" fill="#C8A400"/>
</g>
<defs>
<linearGradient id="paint0_linear_202_4056" x1="9.96691" y1="7.22724" x2="10.0144" y2="7.08474" gradientUnits="userSpaceOnUse">
<stop stop-color="#510000"/>
<stop offset="0.3" stop-color="#8A0000"/>
<stop offset="1" stop-color="#AA0000"/>
</linearGradient>
<linearGradient id="paint1_linear_202_4056" x1="10.0345" y1="7.28476" x2="10.072" y2="7.18476" gradientUnits="userSpaceOnUse">
<stop stop-color="#FF2A2A"/>
<stop offset="1" stop-color="#FF0000"/>
</linearGradient>
<linearGradient id="paint2_linear_202_4056" x1="8.6123" y1="7.93724" x2="13.3598" y2="7.93724" gradientUnits="userSpaceOnUse">
<stop stop-color="#002255"/>
<stop offset="0.5" stop-color="#0044AA"/>
<stop offset="1" stop-color="#002255"/>
</linearGradient>
<linearGradient id="paint3_linear_202_4056" x1="8.6123" y1="7.93724" x2="13.3598" y2="7.93724" gradientUnits="userSpaceOnUse">
<stop stop-color="#002255"/>
<stop offset="0.5" stop-color="#0044AA"/>
<stop offset="1" stop-color="#002255"/>
</linearGradient>
<linearGradient id="paint4_linear_202_4056" x1="8.6123" y1="7.93724" x2="13.3598" y2="7.93724" gradientUnits="userSpaceOnUse">
<stop stop-color="#002255"/>
<stop offset="0.5" stop-color="#0044AA"/>
<stop offset="1" stop-color="#002255"/>
</linearGradient>
<linearGradient id="paint5_linear_202_4056" x1="8.6123" y1="7.93724" x2="13.3598" y2="7.93724" gradientUnits="userSpaceOnUse">
<stop stop-color="#002255"/>
<stop offset="0.5" stop-color="#0044AA"/>
<stop offset="1" stop-color="#002255"/>
</linearGradient>
<linearGradient id="paint6_linear_202_4056" x1="8.6123" y1="7.93724" x2="13.3598" y2="7.93724" gradientUnits="userSpaceOnUse">
<stop stop-color="#002255"/>
<stop offset="0.5" stop-color="#0044AA"/>
<stop offset="1" stop-color="#002255"/>
</linearGradient>
<linearGradient id="paint7_linear_202_4056" x1="8.6123" y1="7.93724" x2="13.3598" y2="7.93724" gradientUnits="userSpaceOnUse">
<stop stop-color="#002255"/>
<stop offset="0.5" stop-color="#0044AA"/>
<stop offset="1" stop-color="#002255"/>
</linearGradient>
<linearGradient id="paint8_linear_202_4056" x1="8.6123" y1="7.93724" x2="13.3598" y2="7.93724" gradientUnits="userSpaceOnUse">
<stop stop-color="#002255"/>
<stop offset="0.5" stop-color="#0044AA"/>
<stop offset="1" stop-color="#002255"/>
</linearGradient>
<linearGradient id="paint9_linear_202_4056" x1="8.6123" y1="7.93724" x2="13.3598" y2="7.93724" gradientUnits="userSpaceOnUse">
<stop stop-color="#002255"/>
<stop offset="0.5" stop-color="#0044AA"/>
<stop offset="1" stop-color="#002255"/>
</linearGradient>
<linearGradient id="paint10_linear_202_4056" x1="8.6123" y1="7.93724" x2="13.3598" y2="7.93724" gradientUnits="userSpaceOnUse">
<stop stop-color="#002255"/>
<stop offset="0.5" stop-color="#0044AA"/>
<stop offset="1" stop-color="#002255"/>
</linearGradient>
<linearGradient id="paint11_linear_202_4056" x1="8.61215" y1="7.93726" x2="13.3596" y2="7.93726" gradientUnits="userSpaceOnUse">
<stop stop-color="#002255"/>
<stop offset="0.5" stop-color="#0044AA"/>
<stop offset="1" stop-color="#002255"/>
</linearGradient>
<linearGradient id="paint12_linear_202_4056" x1="8.61207" y1="7.93737" x2="13.3596" y2="7.93737" gradientUnits="userSpaceOnUse">
<stop stop-color="#002255"/>
<stop offset="0.5" stop-color="#0044AA"/>
<stop offset="1" stop-color="#002255"/>
</linearGradient>
<linearGradient id="paint13_linear_202_4056" x1="9.62031" y1="7.7923" x2="9.62031" y2="7.9398" gradientUnits="userSpaceOnUse">
<stop stop-color="#F5F549"/>
<stop offset="1" stop-color="#97C924"/>
</linearGradient>
<linearGradient id="paint14_linear_202_4056" x1="9.62031" y1="7.7923" x2="9.62031" y2="7.9398" gradientUnits="userSpaceOnUse">
<stop stop-color="#F5F549"/>
<stop offset="1" stop-color="#97C924"/>
</linearGradient>
<linearGradient id="paint15_linear_202_4056" x1="9.62023" y1="7.79225" x2="9.62023" y2="7.93975" gradientUnits="userSpaceOnUse">
<stop stop-color="#F5F549"/>
<stop offset="1" stop-color="#97C924"/>
</linearGradient>
<linearGradient id="paint16_linear_202_4056" x1="9.62027" y1="7.7923" x2="9.62027" y2="7.9398" gradientUnits="userSpaceOnUse">
<stop stop-color="#F5F549"/>
<stop offset="1" stop-color="#97C924"/>
</linearGradient>
<linearGradient id="paint17_linear_202_4056" x1="9.62027" y1="7.7923" x2="9.62027" y2="7.9398" gradientUnits="userSpaceOnUse">
<stop stop-color="#F5F549"/>
<stop offset="1" stop-color="#97C924"/>
</linearGradient>
<linearGradient id="paint18_linear_202_4056" x1="8.51983" y1="8.07797" x2="11.4281" y2="8.07797" gradientUnits="userSpaceOnUse">
<stop stop-color="#002255"/>
<stop offset="0.5" stop-color="#0044AA"/>
<stop offset="1" stop-color="#002255"/>
</linearGradient>
<linearGradient id="paint19_linear_202_4056" x1="8.42609" y1="8.36844" x2="11.5739" y2="8.36844" gradientUnits="userSpaceOnUse">
<stop stop-color="#002255"/>
<stop offset="0.5" stop-color="#0044AA"/>
<stop offset="1" stop-color="#002255"/>
</linearGradient>
<linearGradient id="paint20_linear_202_4056" x1="8.42609" y1="8.36844" x2="11.5739" y2="8.36844" gradientUnits="userSpaceOnUse">
<stop stop-color="#002255"/>
<stop offset="0.5" stop-color="#0044AA"/>
<stop offset="1" stop-color="#002255"/>
</linearGradient>
<linearGradient id="paint21_linear_202_4056" x1="8.42609" y1="8.36844" x2="11.5739" y2="8.36844" gradientUnits="userSpaceOnUse">
<stop stop-color="#002255"/>
<stop offset="0.5" stop-color="#0044AA"/>
<stop offset="1" stop-color="#002255"/>
</linearGradient>
<linearGradient id="paint22_linear_202_4056" x1="8.42609" y1="8.36844" x2="11.5739" y2="8.36844" gradientUnits="userSpaceOnUse">
<stop stop-color="#002255"/>
<stop offset="0.5" stop-color="#0044AA"/>
<stop offset="1" stop-color="#002255"/>
</linearGradient>
<linearGradient id="paint23_linear_202_4056" x1="8.42609" y1="8.36844" x2="11.5739" y2="8.36844" gradientUnits="userSpaceOnUse">
<stop stop-color="#002255"/>
<stop offset="0.5" stop-color="#0044AA"/>
<stop offset="1" stop-color="#002255"/>
</linearGradient>
<linearGradient id="paint24_linear_202_4056" x1="8.42609" y1="8.36844" x2="11.5739" y2="8.36844" gradientUnits="userSpaceOnUse">
<stop stop-color="#002255"/>
<stop offset="0.5" stop-color="#0044AA"/>
<stop offset="1" stop-color="#002255"/>
</linearGradient>
<linearGradient id="paint25_linear_202_4056" x1="8.42609" y1="8.36844" x2="11.5739" y2="8.36844" gradientUnits="userSpaceOnUse">
<stop stop-color="#002255"/>
<stop offset="0.5" stop-color="#0044AA"/>
<stop offset="1" stop-color="#002255"/>
</linearGradient>
<linearGradient id="paint26_linear_202_4056" x1="8.42609" y1="8.36844" x2="11.5739" y2="8.36844" gradientUnits="userSpaceOnUse">
<stop stop-color="#002255"/>
<stop offset="0.5" stop-color="#0044AA"/>
<stop offset="1" stop-color="#002255"/>
</linearGradient>
<linearGradient id="paint27_linear_202_4056" x1="8.42609" y1="8.36844" x2="11.5739" y2="8.36844" gradientUnits="userSpaceOnUse">
<stop stop-color="#002255"/>
<stop offset="0.5" stop-color="#0044AA"/>
<stop offset="1" stop-color="#002255"/>
</linearGradient>
<clipPath id="clip0_202_4056">
<rect width="20" height="15" fill="white"/>
</clipPath>
</defs>
</svg>
