<svg width="20" height="15" viewBox="0 0 20 15" fill="none" xmlns="http://www.w3.org/2000/svg">
<g clip-path="url(#clip0_202_4066)">
<mask id="mask0_202_4066" style="mask-type:luminance" maskUnits="userSpaceOnUse" x="0" y="0" width="20" height="15">
<path d="M0 0H20V15H0V0Z" fill="white"/>
</mask>
<g mask="url(#mask0_202_4066)">
<path fill-rule="evenodd" clip-rule="evenodd" d="M-0.103516 -0.675049H21.8434V16.6062H-0.103516V-0.675049Z" fill="#EF2D29"/>
<path fill-rule="evenodd" clip-rule="evenodd" d="M5.45605 9.91577H22.1967V16.4064H5.45605V9.91577Z" fill="#009025"/>
<path fill-rule="evenodd" clip-rule="evenodd" d="M5.45625 -1.1062H23.1094V4.8313H5.45312L5.45625 -1.1062Z" fill="white"/>
<path d="M4.37499 2.1748H3.65798C3.61927 2.1748 3.58789 2.2041 3.58789 2.24024V2.5807C3.58789 2.61684 3.61927 2.64613 3.65798 2.64613H4.37499C4.4137 2.64613 4.44508 2.61684 4.44508 2.5807V2.24024C4.44508 2.2041 4.4137 2.1748 4.37499 2.1748Z" fill="white" stroke="#EF2D28" stroke-width="0.0328414"/>
<path d="M4.35713 2.19482H3.67672C3.64006 2.19482 3.61035 2.22188 3.61035 2.25526V2.56689C3.61035 2.60027 3.64006 2.62733 3.67672 2.62733H4.35713C4.39379 2.62733 4.4235 2.60027 4.4235 2.56689V2.25526C4.4235 2.22188 4.39379 2.19482 4.35713 2.19482Z" fill="white" stroke="#EF2D28" stroke-width="0.0304956"/>
<path fill-rule="evenodd" clip-rule="evenodd" d="M3.98811 2.31201L4.02909 2.31363L4.03078 2.33245L4.06458 2.34965L4.09077 2.32791L4.12245 2.34511L4.09288 2.36393L4.10006 2.38989L4.13724 2.38827V2.42234L4.10767 2.42104L4.09246 2.44246L4.12625 2.4668L4.10006 2.48691L4.07176 2.4655L4.03078 2.47393L4.03289 2.50541L3.98811 2.50865L3.9822 2.47815L3.94503 2.46258L3.92433 2.48399L3.89264 2.46809L3.91123 2.44376L3.88884 2.42818H3.85716L3.85547 2.38372L3.88715 2.38665L3.90954 2.36069L3.88335 2.34057L3.91714 2.31785L3.94122 2.33635L3.9822 2.33051L3.98811 2.31201Z" fill="white" stroke="#EF2D28" stroke-width="0.03"/>
<path d="M4.00039 2.44404C4.02542 2.44404 4.04571 2.42678 4.04571 2.40549C4.04571 2.3842 4.02542 2.36694 4.00039 2.36694C3.97537 2.36694 3.95508 2.3842 3.95508 2.40549C3.95508 2.42678 3.97537 2.44404 4.00039 2.44404Z" fill="white" stroke="#EF2D28" stroke-width="0.03"/>
<path fill-rule="evenodd" clip-rule="evenodd" d="M3.72031 2.21411L3.65394 2.27289L3.72031 2.21411ZM3.76435 2.21411L3.69798 2.27289L3.76435 2.21411ZM3.80776 2.21411L3.74202 2.27289L3.80776 2.21411ZM3.8518 2.21411L3.78605 2.27289L3.8518 2.21411ZM3.89584 2.21411L3.83009 2.27289L3.89584 2.21411ZM3.93988 2.21411L3.87413 2.27289L3.93988 2.21411ZM3.98391 2.21411L3.91817 2.27289L3.98391 2.21411ZM4.02795 2.21411L3.9622 2.27289L4.02795 2.21411ZM4.07199 2.21411L4.00562 2.27289L4.07199 2.21411ZM4.11603 2.21411L4.04904 2.27289L4.11603 2.21411ZM4.15882 2.21411L4.09308 2.27289L4.15882 2.21411ZM4.20286 2.21411L4.13712 2.27289L4.20286 2.21411ZM4.02733 2.21411L3.9622 2.27289L4.02733 2.21411ZM4.24752 2.21411L4.18177 2.27289L4.24752 2.21411ZM4.29156 2.21411L4.22581 2.27289L4.29156 2.21411ZM4.3356 2.21411L4.26985 2.27289L4.3356 2.21411ZM4.37963 2.21411L4.31389 2.27289L4.37963 2.21411ZM4.31389 2.21411L4.37963 2.27289L4.31389 2.21411ZM4.26985 2.21411L4.3356 2.27289L4.26985 2.21411ZM4.22581 2.21411L4.29156 2.27289L4.22581 2.21411ZM4.18177 2.21411L4.24752 2.27289L4.18177 2.21411ZM4.13774 2.21411L4.20348 2.27289L4.13774 2.21411ZM4.0937 2.21411L4.15944 2.27289L4.0937 2.21411ZM4.04966 2.21411L4.11603 2.27289L4.04966 2.21411ZM4.00562 2.21411L4.07137 2.27289L4.00562 2.21411ZM3.96096 2.21411L4.02733 2.27289L3.96096 2.21411ZM3.91755 2.21411L3.98329 2.27289L3.91755 2.21411ZM3.87351 2.21411L3.93926 2.27289L3.87351 2.21411ZM3.82947 2.21411L3.89522 2.27289L3.82947 2.21411ZM4.00562 2.21411L4.07137 2.27289L4.00562 2.21411ZM3.78605 2.21411L3.85118 2.27289L3.78605 2.21411ZM3.7414 2.21411L3.80776 2.27289L3.7414 2.21411ZM3.69736 2.21411L3.76372 2.27289L3.69736 2.21411ZM3.65332 2.21411L3.72031 2.27289L3.65332 2.21411ZM3.72031 2.54792L3.65456 2.60725L3.72031 2.54792ZM3.76372 2.54792L3.69736 2.60725L3.76372 2.54792ZM3.80838 2.54792L3.74202 2.60725L3.80838 2.54792ZM3.8518 2.54792L3.78605 2.60725L3.8518 2.54792ZM3.89584 2.54792L3.83009 2.60725L3.89584 2.54792ZM3.93988 2.54792L3.87413 2.60725L3.93988 2.54792ZM3.98391 2.54792L3.91879 2.60725L3.98391 2.54792ZM4.02795 2.54792L3.9622 2.60725L4.02795 2.54792ZM4.07199 2.54792L4.00562 2.60725L4.07199 2.54792ZM4.11541 2.54792L4.04904 2.60725L4.11541 2.54792ZM4.16068 2.54792L4.09432 2.60725L4.16068 2.54792ZM4.2041 2.54792L4.13836 2.60725L4.2041 2.54792ZM4.02795 2.54792L3.9622 2.60725L4.02795 2.54792ZM4.24752 2.54792L4.18177 2.60725L4.24752 2.54792ZM4.29156 2.54792L4.22581 2.60725L4.29156 2.54792ZM4.3356 2.54792L4.26985 2.60725L4.3356 2.54792ZM4.37963 2.54792L4.31389 2.60725L4.37963 2.54792ZM4.31389 2.54792L4.37963 2.60725L4.31389 2.54792ZM4.26985 2.54792L4.3356 2.60725L4.26985 2.54792ZM4.22581 2.54792L4.29156 2.60725L4.22581 2.54792ZM4.18177 2.54792L4.24752 2.60725L4.18177 2.54792ZM4.13774 2.54792L4.20348 2.60725L4.13774 2.54792ZM4.0937 2.54792L4.16006 2.60725L4.0937 2.54792ZM4.04904 2.54792L4.11541 2.60725L4.04904 2.54792ZM4.00562 2.54792L4.07137 2.60725L4.00562 2.54792ZM3.9622 2.54792L4.02795 2.60725L3.9622 2.54792ZM3.91817 2.54792L3.98391 2.60725L3.91817 2.54792ZM3.87413 2.54792L3.93988 2.60725L3.87413 2.54792ZM3.83009 2.54792L3.89584 2.60725L3.83009 2.54792ZM4.00624 2.54792L4.07199 2.60725L4.00624 2.54792ZM3.78667 2.54792L3.8518 2.60725L3.78667 2.54792ZM3.74202 2.54792L3.80838 2.60725L3.74202 2.54792ZM3.69798 2.54792L3.76435 2.60725L3.69798 2.54792ZM3.65456 2.54792L3.72031 2.60725L3.65456 2.54792Z" fill="white"/>
<path d="M3.72031 2.21411L3.65394 2.27289M3.76435 2.21411L3.69798 2.27289M3.80776 2.21411L3.74202 2.27289M3.8518 2.21411L3.78605 2.27289M3.89584 2.21411L3.83009 2.27289M3.93988 2.21411L3.87413 2.27289M3.98391 2.21411L3.91817 2.27289M4.02795 2.21411L3.9622 2.27289L4.02733 2.21411M4.07199 2.21411L4.00562 2.27289M4.11603 2.21411L4.04904 2.27289M4.15882 2.21411L4.09308 2.27289M4.20286 2.21411L4.13712 2.27289M4.24752 2.21411L4.18177 2.27289M4.29156 2.21411L4.22581 2.27289M4.3356 2.21411L4.26985 2.27289M4.37963 2.21411L4.31389 2.27289M4.31389 2.21411L4.37963 2.27289M4.26985 2.21411L4.3356 2.27289M4.22581 2.21411L4.29156 2.27289M4.18177 2.21411L4.24752 2.27289M4.13774 2.21411L4.20348 2.27289M4.0937 2.21411L4.15944 2.27289M4.04966 2.21411L4.11603 2.27289M4.00562 2.21411L4.07137 2.27289M3.96096 2.21411L4.02733 2.27289M3.91755 2.21411L3.98329 2.27289M3.87351 2.21411L3.93926 2.27289M3.82947 2.21411L3.89522 2.27289M3.78605 2.21411L3.85118 2.27289M3.7414 2.21411L3.80776 2.27289M3.69736 2.21411L3.76372 2.27289M3.65332 2.21411L3.72031 2.27289M3.72031 2.54792L3.65456 2.60725M3.76372 2.54792L3.69736 2.60725M3.80838 2.54792L3.74202 2.60725M3.8518 2.54792L3.78605 2.60725M3.89584 2.54792L3.83009 2.60725M3.93988 2.54792L3.87413 2.60725M3.98391 2.54792L3.91879 2.60725M4.02795 2.54792L3.9622 2.60725M4.07199 2.54792L4.00562 2.60725M4.11541 2.54792L4.04904 2.60725M4.16068 2.54792L4.09432 2.60725M4.2041 2.54792L4.13836 2.60725M4.24752 2.54792L4.18177 2.60725M4.29156 2.54792L4.22581 2.60725M4.3356 2.54792L4.26985 2.60725M4.37963 2.54792L4.31389 2.60725M4.31389 2.54792L4.37963 2.60725M4.26985 2.54792L4.3356 2.60725M4.22581 2.54792L4.29156 2.60725M4.18177 2.54792L4.24752 2.60725M4.13774 2.54792L4.20348 2.60725M4.0937 2.54792L4.16006 2.60725M4.04904 2.54792L4.11541 2.60725M4.00562 2.54792L4.07137 2.60725M3.9622 2.54792L4.02795 2.60725M3.91817 2.54792L3.98391 2.60725M3.87413 2.54792L3.93988 2.60725M3.83009 2.54792L3.89584 2.60725M4.00624 2.54792L4.07199 2.60725M3.78667 2.54792L3.8518 2.60725M3.74202 2.54792L3.80838 2.60725M3.69798 2.54792L3.76435 2.60725M3.65456 2.54792L3.72031 2.60725" stroke="#EF2D28" stroke-width="0.0304956"/>
<path d="M1.49315 2.15601H0.776143C0.737434 2.15601 0.706055 2.1853 0.706055 2.22144V2.5619C0.706055 2.59804 0.737434 2.62733 0.776143 2.62733H1.49315C1.53186 2.62733 1.56324 2.59804 1.56324 2.5619V2.22144C1.56324 2.1853 1.53186 2.15601 1.49315 2.15601Z" fill="white" stroke="#EF2D28" stroke-width="0.0328414"/>
<path d="M1.4753 2.17603H0.794882C0.758229 2.17603 0.728516 2.20309 0.728516 2.23647V2.5481C0.728516 2.58148 0.758229 2.60854 0.794882 2.60854H1.4753C1.51195 2.60854 1.54166 2.58148 1.54166 2.5481V2.23647C1.54166 2.20309 1.51195 2.17603 1.4753 2.17603Z" fill="white" stroke="#EF2D28" stroke-width="0.0304956"/>
<path fill-rule="evenodd" clip-rule="evenodd" d="M1.10628 2.29321L1.14726 2.29484L1.14895 2.31366L1.18274 2.33085L1.20893 2.30911L1.24061 2.32631L1.21104 2.34513L1.21823 2.37109L1.2554 2.36947V2.40354L1.22583 2.40224L1.21062 2.42366L1.24442 2.448L1.21823 2.46811L1.18992 2.4467L1.14895 2.45514L1.15106 2.48661L1.10628 2.48986L1.10036 2.45935L1.06319 2.44378L1.04249 2.46519L1.01081 2.44929L1.02939 2.42496L1.00701 2.40938H0.975323L0.973633 2.36493L1.00532 2.36785L1.02771 2.34189L1.00151 2.32177L1.03531 2.29905L1.05939 2.31755L1.10036 2.31171L1.10628 2.29321Z" fill="white" stroke="#EF2D28" stroke-width="0.03"/>
<path d="M1.11856 2.42524C1.14358 2.42524 1.16387 2.40798 1.16387 2.38669C1.16387 2.3654 1.14358 2.34814 1.11856 2.34814C1.09353 2.34814 1.07324 2.3654 1.07324 2.38669C1.07324 2.40798 1.09353 2.42524 1.11856 2.42524Z" fill="white" stroke="#EF2D28" stroke-width="0.03"/>
<path fill-rule="evenodd" clip-rule="evenodd" d="M0.838471 2.19531L0.772105 2.25409L0.838471 2.19531ZM0.882509 2.19531L0.816142 2.25409L0.882509 2.19531ZM0.925927 2.19531L0.86018 2.25409L0.925927 2.19531ZM0.969964 2.19531L0.904218 2.25409L0.969964 2.19531ZM1.014 2.19531L0.948256 2.25409L1.014 2.19531ZM1.05804 2.19531L0.992293 2.25409L1.05804 2.19531ZM1.10208 2.19531L1.03633 2.25409L1.10208 2.19531ZM1.14612 2.19531L1.08037 2.25409L1.14612 2.19531ZM1.19015 2.19531L1.12379 2.25409L1.19015 2.19531ZM1.23419 2.19531L1.1672 2.25409L1.23419 2.19531ZM1.27699 2.19531L1.21124 2.25409L1.27699 2.19531ZM1.32103 2.19531L1.25528 2.25409L1.32103 2.19531ZM1.1455 2.19531L1.08037 2.25409L1.1455 2.19531ZM1.36568 2.19531L1.29994 2.25409L1.36568 2.19531ZM1.40972 2.19531L1.34398 2.25409L1.40972 2.19531ZM1.45376 2.19531L1.38801 2.25409L1.45376 2.19531ZM1.4978 2.19531L1.43205 2.25409L1.4978 2.19531ZM1.43205 2.19531L1.4978 2.25409L1.43205 2.19531ZM1.38801 2.19531L1.45376 2.25409L1.38801 2.19531ZM1.34398 2.19531L1.40972 2.25409L1.34398 2.19531ZM1.29994 2.19531L1.36568 2.25409L1.29994 2.19531ZM1.2559 2.19531L1.32165 2.25409L1.2559 2.19531ZM1.21186 2.19531L1.27761 2.25409L1.21186 2.19531ZM1.16782 2.19531L1.23419 2.25409L1.16782 2.19531ZM1.12379 2.19531L1.18953 2.25409L1.12379 2.19531ZM1.07913 2.19531L1.1455 2.25409L1.07913 2.19531ZM1.03571 2.19531L1.10146 2.25409L1.03571 2.19531ZM0.991673 2.19531L1.05742 2.25409L0.991673 2.19531ZM0.947635 2.19531L1.01338 2.25409L0.947635 2.19531ZM1.12379 2.19531L1.18953 2.25409L1.12379 2.19531ZM0.904218 2.19531L0.969344 2.25409L0.904218 2.19531ZM0.85956 2.19531L0.925927 2.25409L0.85956 2.19531ZM0.815522 2.19531L0.881889 2.25409L0.815522 2.19531ZM0.771484 2.19531L0.838471 2.25409L0.771484 2.19531ZM0.838471 2.52912L0.772725 2.58845L0.838471 2.52912ZM0.881889 2.52912L0.815522 2.58845L0.881889 2.52912ZM0.926547 2.52912L0.86018 2.58845L0.926547 2.52912ZM0.969964 2.52912L0.904218 2.58845L0.969964 2.52912ZM1.014 2.52912L0.948256 2.58845L1.014 2.52912ZM1.05804 2.52912L0.992293 2.58845L1.05804 2.52912ZM1.10208 2.52912L1.03695 2.58845L1.10208 2.52912ZM1.14612 2.52912L1.08037 2.58845L1.14612 2.52912ZM1.19015 2.52912L1.12379 2.58845L1.19015 2.52912ZM1.23357 2.52912L1.1672 2.58845L1.23357 2.52912ZM1.27885 2.52912L1.21248 2.58845L1.27885 2.52912ZM1.32227 2.52912L1.25652 2.58845L1.32227 2.52912ZM1.14612 2.52912L1.08037 2.58845L1.14612 2.52912ZM1.36568 2.52912L1.29994 2.58845L1.36568 2.52912ZM1.40972 2.52912L1.34398 2.58845L1.40972 2.52912ZM1.45376 2.52912L1.38801 2.58845L1.45376 2.52912ZM1.4978 2.52912L1.43205 2.58845L1.4978 2.52912ZM1.43205 2.52912L1.4978 2.58845L1.43205 2.52912ZM1.38801 2.52912L1.45376 2.58845L1.38801 2.52912ZM1.34398 2.52912L1.40972 2.58845L1.34398 2.52912ZM1.29994 2.52912L1.36568 2.58845L1.29994 2.52912ZM1.2559 2.52912L1.32165 2.58845L1.2559 2.52912ZM1.21186 2.52912L1.27823 2.58845L1.21186 2.52912ZM1.1672 2.52912L1.23357 2.58845L1.1672 2.52912ZM1.12379 2.52912L1.18953 2.58845L1.12379 2.52912ZM1.08037 2.52912L1.14612 2.58845L1.08037 2.52912ZM1.03633 2.52912L1.10208 2.58845L1.03633 2.52912ZM0.992293 2.52912L1.05804 2.58845L0.992293 2.52912ZM0.948256 2.52912L1.014 2.58845L0.948256 2.52912ZM1.12441 2.52912L1.19015 2.58845L1.12441 2.52912ZM0.904838 2.52912L0.969964 2.58845L0.904838 2.52912ZM0.86018 2.52912L0.926547 2.58845L0.86018 2.52912ZM0.816142 2.52912L0.882509 2.58845L0.816142 2.52912ZM0.772725 2.52912L0.838471 2.58845L0.772725 2.52912Z" fill="white"/>
<path d="M0.838471 2.19531L0.772105 2.25409M0.882509 2.19531L0.816142 2.25409M0.925927 2.19531L0.86018 2.25409M0.969964 2.19531L0.904218 2.25409M1.014 2.19531L0.948256 2.25409M1.05804 2.19531L0.992293 2.25409M1.10208 2.19531L1.03633 2.25409M1.14612 2.19531L1.08037 2.25409L1.1455 2.19531M1.19015 2.19531L1.12379 2.25409M1.23419 2.19531L1.1672 2.25409M1.27699 2.19531L1.21124 2.25409M1.32103 2.19531L1.25528 2.25409M1.36568 2.19531L1.29994 2.25409M1.40972 2.19531L1.34398 2.25409M1.45376 2.19531L1.38801 2.25409M1.4978 2.19531L1.43205 2.25409M1.43205 2.19531L1.4978 2.25409M1.38801 2.19531L1.45376 2.25409M1.34398 2.19531L1.40972 2.25409M1.29994 2.19531L1.36568 2.25409M1.2559 2.19531L1.32165 2.25409M1.21186 2.19531L1.27761 2.25409M1.16782 2.19531L1.23419 2.25409M1.12379 2.19531L1.18953 2.25409M1.07913 2.19531L1.1455 2.25409M1.03571 2.19531L1.10146 2.25409M0.991673 2.19531L1.05742 2.25409M0.947635 2.19531L1.01338 2.25409M0.904218 2.19531L0.969344 2.25409M0.85956 2.19531L0.925927 2.25409M0.815522 2.19531L0.881889 2.25409M0.771484 2.19531L0.838471 2.25409M0.838471 2.52912L0.772725 2.58845M0.881889 2.52912L0.815522 2.58845M0.926547 2.52912L0.86018 2.58845M0.969964 2.52912L0.904218 2.58845M1.014 2.52912L0.948256 2.58845M1.05804 2.52912L0.992293 2.58845M1.10208 2.52912L1.03695 2.58845M1.14612 2.52912L1.08037 2.58845M1.19015 2.52912L1.12379 2.58845M1.23357 2.52912L1.1672 2.58845M1.27885 2.52912L1.21248 2.58845M1.32227 2.52912L1.25652 2.58845M1.36568 2.52912L1.29994 2.58845M1.40972 2.52912L1.34398 2.58845M1.45376 2.52912L1.38801 2.58845M1.4978 2.52912L1.43205 2.58845M1.43205 2.52912L1.4978 2.58845M1.38801 2.52912L1.45376 2.58845M1.34398 2.52912L1.40972 2.58845M1.29994 2.52912L1.36568 2.58845M1.2559 2.52912L1.32165 2.58845M1.21186 2.52912L1.27823 2.58845M1.1672 2.52912L1.23357 2.58845M1.12379 2.52912L1.18953 2.58845M1.08037 2.52912L1.14612 2.58845M1.03633 2.52912L1.10208 2.58845M0.992293 2.52912L1.05804 2.58845M0.948256 2.52912L1.014 2.58845M1.12441 2.52912L1.19015 2.58845M0.904838 2.52912L0.969964 2.58845M0.86018 2.52912L0.926547 2.58845M0.816142 2.52912L0.882509 2.58845M0.772725 2.52912L0.838471 2.58845" stroke="#EF2D28" stroke-width="0.0304956"/>
<path fill-rule="evenodd" clip-rule="evenodd" d="M2.05252 3.14244C0.985973 4.18846 0.530993 4.32059 0.744898 4.40502C0.958804 4.48945 1.64543 3.94948 2.35978 3.23289C3.07412 2.51631 3.51169 1.87804 3.29779 1.79361C3.08388 1.70919 3.18722 2.03086 2.05252 3.14244Z" fill="white" stroke="#EF2D28" stroke-width="0.0510375"/>
<path fill-rule="evenodd" clip-rule="evenodd" d="M1.15529 3.90356L1.5293 4.00171C1.17762 4.33607 0.781896 4.47304 0.672112 4.41426C0.562327 4.35548 0.869971 4.21797 1.15591 3.90412L1.15529 3.90356Z" fill="white" stroke="#EF2D28" stroke-width="0.0281498"/>
<path fill-rule="evenodd" clip-rule="evenodd" d="M1.15573 3.94263L1.46387 4.02101C1.12129 4.34252 0.782344 4.43369 0.694737 4.39424C0.606525 4.35531 0.877805 4.24494 1.15573 3.94263Z" fill="white" stroke="#EF2D28" stroke-width="0.0295141"/>
<path d="M2.30078 3.0979C2.29991 3.10294 2.29729 3.12544 2.2951 3.13437C2.2951 3.14678 2.29379 3.15609 2.29248 3.16579C2.28899 3.17432 2.28942 3.18208 2.27894 3.18519C2.2741 3.19295 2.26638 3.19898 2.2571 3.20226C2.24871 3.20823 2.23945 3.21319 2.22958 3.217C2.21926 3.22098 2.20773 3.2218 2.19682 3.21932C2.18721 3.21351 2.18022 3.2073 2.17236 3.20226C2.17061 3.1945 2.16886 3.18325 2.16668 3.17549C2.17009 3.18583 2.172 3.19652 2.17236 3.2073C2.17148 3.21894 2.16668 3.22437 2.16144 3.23368" stroke="#EF2D28" stroke-width="0.0296388"/>
<path d="M2.20236 3.26033L2.19974 3.25801C2.2063 3.26382 2.20367 3.26111 2.18882 3.25296C2.17834 3.24831 2.16698 3.24598 2.15344 3.24365H2.115C2.10015 3.24365 2.0901 3.24559 2.07962 3.24831C2.07176 3.25529 2.0604 3.25917 2.0521 3.26538C2.04472 3.27033 2.03911 3.27706 2.03594 3.28477C2.02851 3.29137 2.02371 3.30145 2.01672 3.3065C2.01366 3.31775 2.00755 3.31736 2.00318 3.32589C2.01628 3.32667 2.02633 3.32822 2.03332 3.33559C2.04467 3.34064 2.02371 3.33055 2.01934 3.32589C2.0106 3.32357 2.00842 3.32124 1.99488 3.32124C1.98265 3.31736 1.97478 3.32396 1.96212 3.32589C1.95469 3.32977 1.95251 3.33094 1.9429 3.33094" stroke="#EF2D28" stroke-width="0.0296388"/>
<path d="M2.05469 3.38103C2.04901 3.38103 2.02367 3.3853 2.01363 3.38103C2.00227 3.37831 1.99615 3.37327 1.98917 3.36396C1.98567 3.35737 1.98917 3.3756 1.98917 3.38336C1.98786 3.39771 1.98305 3.39771 1.97519 3.40741C1.96733 3.41206 1.95903 3.41827 1.95073 3.42215C1.94345 3.42742 1.93516 3.4315 1.92626 3.43418C1.91753 3.43806 1.90836 3.44116 1.9018 3.4462C1.89263 3.45202 1.89307 3.459 1.88783 3.46832C1.88914 3.47995 1.89132 3.48694 1.89875 3.49237C1.90224 3.50051 1.90923 3.50866 1.91534 3.51409C1.9219 3.52573 1.92976 3.53077 1.91272 3.53349C1.90311 3.53737 1.89787 3.53426 1.88783 3.53349" stroke="#EF2D28" stroke-width="0.0296388"/>
<path d="M1.88184 3.55011C1.87485 3.54856 1.85126 3.54158 1.84078 3.53809H1.80234C1.78792 3.53925 1.78486 3.54313 1.77263 3.54778C1.76433 3.55516 1.75909 3.5602 1.74773 3.56485C1.74206 3.57145 1.73026 3.58309 1.72589 3.59162C1.7223 3.60165 1.72053 3.61213 1.72065 3.62266C1.72065 3.63701 1.72502 3.63973 1.72589 3.65214C1.72895 3.6628 1.73462 3.67274 1.74249 3.68123C1.7438 3.68434 1.74468 3.68511 1.74773 3.68589" stroke="#EF2D28" stroke-width="0.0296388"/>
<path d="M1.75293 3.71755C1.75169 3.71755 1.74921 3.72368 1.74518 3.72888C1.73618 3.73807 1.73525 3.73868 1.72192 3.73868C1.70951 3.73807 1.71106 3.73378 1.70238 3.73102C1.69835 3.7249 1.69339 3.72 1.68873 3.71173C1.68563 3.70683 1.68284 3.69918 1.67943 3.69458C1.67571 3.68877 1.67137 3.68448 1.66765 3.67927C1.66392 3.67774 1.66268 3.67621 1.65772 3.67529C1.66889 3.67713 1.67013 3.68111 1.67726 3.68693C1.68078 3.69247 1.68399 3.69819 1.68687 3.70408C1.68811 3.71235 1.69059 3.71878 1.6909 3.72888C1.6909 3.7396 1.6909 3.74695 1.68687 3.75583C1.68222 3.76042 1.67912 3.76532 1.67323 3.7693C1.66833 3.774 1.66386 3.77912 1.65989 3.78461L1.64222 3.79594C1.63663 3.79931 1.63012 3.80268 1.62113 3.8036C1.60965 3.80268 1.60624 3.79962 1.59787 3.79594C1.59042 3.79074 1.58484 3.78737 1.57833 3.78247C1.57298 3.77812 1.56838 3.77295 1.56468 3.76716C1.55445 3.76471 1.54763 3.76563 1.54142 3.77114C1.53616 3.77477 1.53164 3.77934 1.52809 3.78461C1.52499 3.78614 1.51941 3.79074 1.5163 3.79227" stroke="#EF2D28" stroke-width="0.0283512"/>
<path d="M1.5387 3.79834C1.54178 3.79949 1.55335 3.80751 1.55797 3.81019C1.56106 3.82051 1.56607 3.82586 1.56761 3.83694C1.57031 3.84687 1.57031 3.85834 1.57031 3.87019C1.56761 3.88241 1.5626 3.8912 1.55797 3.90076C1.55026 3.90611 1.54641 3.90993 1.53638 3.91528C1.52674 3.91681 1.5171 3.91795 1.50515 3.91795C1.49744 3.92025 1.48356 3.92139 1.47624 3.91795C1.46544 3.91643 1.45734 3.91222 1.44963 3.9084C1.44076 3.90343 1.43537 3.89846 1.42573 3.89388C1.42071 3.887 1.41339 3.8805 1.40645 3.87248C1.40028 3.86445 1.39604 3.85987 1.3918 3.85108C1.39565 3.86101 1.40067 3.87019 1.40375 3.87974C1.40953 3.88968 1.41262 3.8935 1.41339 3.90573C1.41724 3.91566 1.41609 3.92789 1.41609 3.93936C1.41493 3.947 1.41455 3.96152 1.41108 3.96802V3.97528" stroke="#EF2D28" stroke-width="0.029173"/>
<path d="M1.18259 4.01287V4.01675C1.18259 4.00732 1.18259 4.01176 1.18693 4.03061C1.19376 4.03837 1.21174 4.04059 1.22539 4.03727C1.23779 4.02784 1.23779 4.02063 1.26012 4.01675C1.28245 4.01786 1.29114 4.0234 1.30354 4.03061C1.31673 4.03499 1.32773 4.04345 1.33455 4.05445C1.3389 4.0661 1.34138 4.07442 1.32649 4.07885C1.31352 4.08661 1.29861 4.09138 1.28307 4.09272C1.26571 4.09272 1.25268 4.09105 1.24462 4.09992C1.23221 4.11101 1.23345 4.11767 1.23345 4.13763C1.22911 4.14373 1.22849 4.16203 1.22539 4.16924C1.21471 4.17426 1.2027 4.17656 1.19066 4.17589C1.18631 4.1648 1.18197 4.14595 1.17887 4.1343C1.17577 4.1221 1.17515 4.10436 1.16709 4.09604C1.15997 4.08649 1.15093 4.07822 1.14042 4.07164C1.13414 4.06529 1.12596 4.06067 1.11685 4.05834C1.13235 4.06499 1.13421 4.07275 1.13607 4.08939C1.12305 4.09493 1.11933 4.09937 1.09762 4.09992C1.07591 4.09826 1.07095 4.09327 1.06288 4.08218C1.06102 4.09992 1.05482 4.10547 1.05048 4.12099C1.04304 4.13098 1.03993 4.14151 1.03187 4.15537C1.03497 4.17201 1.04242 4.17256 1.04304 4.19308C1.048 4.20694 1.048 4.2197 1.05854 4.22801C1.0635 4.23356 1.06723 4.23411 1.07839 4.23467C1.05606 4.23467 1.04242 4.23245 1.02753 4.22469C1.01637 4.21803 1.00768 4.21027 0.996517 4.20362C0.982525 4.19419 0.966776 4.18706 0.949998 4.18254C0.932011 4.18254 0.918986 4.18088 0.911543 4.18975C0.900378 4.19696 0.892935 4.20916 0.887973 4.22469C0.884872 4.24243 0.883011 4.25463 0.892315 4.26627C0.898518 4.27958 0.900378 4.28457 0.892315 4.30065C0.883011 4.31174 0.869986 4.31341 0.848898 4.31784C0.834632 4.31729 0.820366 4.31452 0.810442 4.31119" stroke="#EF2D28" stroke-width="0.0281498"/>
<path fill-rule="evenodd" clip-rule="evenodd" d="M3.27071 2.19936C3.7437 1.38065 4.05739 0.683006 3.97186 0.643514C3.88545 0.603615 3.43156 1.23653 2.95857 2.05523L3.27071 2.19936Z" fill="white" stroke="#EF2D28" stroke-width="0.0387692"/>
<path fill-rule="evenodd" clip-rule="evenodd" d="M3.23943 2.18557C3.69573 1.39575 4.00997 0.728094 3.94155 0.6965C3.87242 0.664581 3.44602 1.28045 2.98972 2.07027" fill="white"/>
<path d="M3.23943 2.18557C3.69573 1.39575 4.00997 0.728094 3.94155 0.6965C3.87242 0.664581 3.44602 1.28045 2.98972 2.07027" stroke="#EF2D28" stroke-width="0.0340592"/>
<path fill-rule="evenodd" clip-rule="evenodd" d="M3.16091 1.77366C3.10535 1.86596 3.04649 1.97171 2.98956 2.07025L3.23998 2.18587C3.29691 2.08734 3.35929 1.98322 3.41133 1.88929L3.16091 1.77366Z" fill="white" stroke="#EF2D28" stroke-width="0.0386549"/>
<path fill-rule="evenodd" clip-rule="evenodd" d="M3.1824 1.80542C3.12656 1.89821 3.08819 1.96849 3.03098 2.06752L3.21791 2.15383C3.27484 2.05529 3.3173 1.98566 3.36933 1.89173L3.1824 1.80542Z" fill="white" stroke="#EF2D28" stroke-width="0.0386549"/>
<path fill-rule="evenodd" clip-rule="evenodd" d="M3.31909 1.91251L3.19388 1.8547L3.08288 2.04684L3.20809 2.10465L3.31909 1.91251ZM3.31909 1.91251L3.08288 2.04684L3.31909 1.91251ZM3.20809 2.10465L3.19388 1.8547L3.20809 2.10465ZM3.88379 0.935059L3.75858 0.877246L3.88379 0.935059Z" fill="white"/>
<path d="M3.31909 1.91251L3.19388 1.8547M3.31909 1.91251L3.20809 2.10465M3.31909 1.91251L3.08288 2.04684M3.19388 1.8547L3.08288 2.04684M3.19388 1.8547L3.20809 2.10465M3.08288 2.04684L3.20809 2.10465M3.88379 0.935059L3.75858 0.877246" stroke="#EF2D28" stroke-width="0.0386549"/>
<path d="M3.88226 0.844253C3.86302 0.849117 3.8439 0.839342 3.83956 0.822421C3.83522 0.8055 3.8473 0.78784 3.86653 0.782976C3.88577 0.778113 3.90489 0.787887 3.90923 0.804809C3.91357 0.82173 3.9015 0.83939 3.88226 0.844253Z" fill="#EF0000" stroke="#EF2D28" stroke-width="0.0500864"/>
<path fill-rule="evenodd" clip-rule="evenodd" d="M3.08517 3.12389C4.15172 4.1699 4.6067 4.30203 4.3928 4.38646C4.17889 4.47089 3.49227 3.93092 2.77792 3.21434C2.06357 2.49776 1.626 1.85949 1.83991 1.77506C2.05381 1.69063 1.95047 2.01231 3.08517 3.12389Z" fill="white" stroke="#EF2D28" stroke-width="0.0510375"/>
<path fill-rule="evenodd" clip-rule="evenodd" d="M3.98143 3.88501L3.60742 3.98316C3.9591 4.31752 4.35482 4.45448 4.46461 4.3957C4.57439 4.33693 4.26675 4.19941 3.98081 3.88556L3.98143 3.88501Z" fill="white" stroke="#EF2D28" stroke-width="0.0281498"/>
<path fill-rule="evenodd" clip-rule="evenodd" d="M3.98196 3.92065L3.67383 3.99903C4.0164 4.32054 4.35535 4.41172 4.44296 4.37226C4.53117 4.33334 4.25989 4.22297 3.98196 3.92065Z" fill="white" stroke="#EF2D28" stroke-width="0.0295141"/>
<path d="M2.83594 3.07593C2.83681 3.08097 2.83943 3.10347 2.84162 3.11239C2.84162 3.12481 2.84293 3.13412 2.84424 3.14382C2.84773 3.15235 2.84729 3.16011 2.85778 3.16321C2.86262 3.17097 2.87034 3.177 2.87962 3.18028C2.88801 3.18626 2.89727 3.19122 2.90714 3.19502C2.91746 3.19901 2.92899 3.19983 2.9399 3.19735C2.94951 3.19153 2.9565 3.18533 2.96436 3.18028C2.96611 3.17252 2.96785 3.16127 2.97004 3.15352C2.96663 3.16386 2.96472 3.17455 2.96436 3.18533C2.96523 3.19696 2.97004 3.2024 2.97528 3.21171" stroke="#EF2D28" stroke-width="0.0296388"/>
<path d="M2.93533 3.23836L2.93795 3.23603C2.9314 3.24185 2.93402 3.23914 2.94887 3.23099C2.95936 3.22633 2.97071 3.22401 2.98425 3.22168H3.02269C3.03755 3.22168 3.04759 3.22362 3.05808 3.22633C3.06594 3.23332 3.0773 3.2372 3.08559 3.2434C3.09297 3.24835 3.09858 3.25509 3.10176 3.2628C3.10918 3.2694 3.11399 3.27948 3.12098 3.28453C3.12403 3.29578 3.13015 3.29539 3.13452 3.30392C3.12141 3.3047 3.11137 3.30625 3.10438 3.31362C3.09302 3.31866 3.11399 3.30858 3.11836 3.30392C3.12709 3.30159 3.12928 3.29927 3.14282 3.29927C3.15505 3.29539 3.16291 3.30198 3.17558 3.30392C3.183 3.3078 3.18519 3.30897 3.1948 3.30897" stroke="#EF2D28" stroke-width="0.0296388"/>
<path d="M3.08203 3.36223C3.08771 3.36223 3.11304 3.3665 3.12309 3.36223C3.13445 3.35951 3.14056 3.35447 3.14755 3.34516C3.15105 3.33857 3.14755 3.3568 3.14755 3.36456C3.14886 3.37891 3.15367 3.37891 3.16153 3.38861C3.16939 3.39327 3.17769 3.39947 3.18599 3.40335C3.19327 3.40863 3.20156 3.4127 3.21045 3.41538C3.21919 3.41926 3.22836 3.42236 3.23492 3.4274C3.24409 3.43322 3.24365 3.44021 3.24889 3.44952C3.24758 3.46115 3.2454 3.46814 3.23797 3.47357C3.23448 3.48172 3.22749 3.48986 3.22137 3.49529C3.21482 3.50693 3.20696 3.51197 3.224 3.51469C3.23361 3.51857 3.23885 3.51547 3.24889 3.51469" stroke="#EF2D28" stroke-width="0.0296388"/>
<path d="M3.25488 3.53131C3.26187 3.52976 3.28546 3.52278 3.29594 3.51929H3.33438C3.3488 3.52045 3.35186 3.52433 3.36409 3.52899C3.37239 3.53636 3.37763 3.5414 3.38898 3.54605C3.39466 3.55265 3.40646 3.56429 3.41082 3.57282C3.41442 3.58285 3.41619 3.59333 3.41607 3.60386C3.41607 3.61821 3.4117 3.62093 3.41082 3.63334C3.40777 3.644 3.4021 3.65394 3.39423 3.66244C3.39292 3.66554 3.39204 3.66632 3.38898 3.66709" stroke="#EF2D28" stroke-width="0.0296388"/>
<path d="M3.3877 3.69875C3.38894 3.69875 3.39142 3.70488 3.39545 3.71008C3.40444 3.71927 3.40537 3.71988 3.41871 3.71988C3.43111 3.71927 3.42956 3.71498 3.43825 3.71223C3.44228 3.7061 3.44724 3.7012 3.45189 3.69293C3.45499 3.68803 3.45778 3.68038 3.46119 3.67579C3.46492 3.66997 3.46926 3.66568 3.47298 3.66047C3.4767 3.65894 3.47794 3.65741 3.4829 3.65649C3.47174 3.65833 3.4705 3.66231 3.46337 3.66813C3.45985 3.67367 3.45664 3.67939 3.45375 3.68528C3.45251 3.69355 3.45003 3.69998 3.44972 3.71008C3.44972 3.7208 3.44972 3.72815 3.45375 3.73703C3.4584 3.74162 3.46151 3.74652 3.4674 3.7505C3.4723 3.7552 3.47676 3.76033 3.48073 3.76581L3.49841 3.77714C3.50399 3.78051 3.5105 3.78388 3.5195 3.7848C3.53097 3.78388 3.53438 3.78082 3.54276 3.77714C3.5502 3.77194 3.55578 3.76857 3.5623 3.76367C3.56764 3.75932 3.57225 3.75415 3.57594 3.74836C3.58618 3.74591 3.593 3.74683 3.5992 3.75234C3.60446 3.75597 3.60899 3.76054 3.61254 3.76581C3.61564 3.76735 3.62122 3.77194 3.62432 3.77347" stroke="#EF2D28" stroke-width="0.0283512"/>
<path d="M3.599 3.77661C3.59591 3.77776 3.58435 3.78578 3.57972 3.78846C3.57664 3.79878 3.57162 3.80413 3.57008 3.81521C3.56738 3.82515 3.56738 3.83661 3.56738 3.84846C3.57008 3.86069 3.57509 3.86948 3.57972 3.87903C3.58743 3.88438 3.59129 3.8882 3.60131 3.89355C3.61095 3.89508 3.62059 3.89623 3.63254 3.89623C3.64025 3.89852 3.65413 3.89967 3.66146 3.89623C3.67226 3.8947 3.68035 3.89049 3.68806 3.88667C3.69693 3.8817 3.70233 3.87674 3.71197 3.87215C3.71698 3.86527 3.72431 3.85878 3.73125 3.85075C3.73742 3.84272 3.74166 3.83814 3.7459 3.82935C3.74204 3.83929 3.73703 3.84846 3.73395 3.85801C3.72816 3.86795 3.72508 3.87177 3.72431 3.884C3.72045 3.89393 3.72161 3.90616 3.72161 3.91763C3.72276 3.92527 3.72315 3.93979 3.72662 3.94629V3.95355" stroke="#EF2D28" stroke-width="0.029173"/>
<path d="M3.95413 3.99407V3.99795C3.95413 3.98852 3.95413 3.99296 3.94978 4.01181C3.94296 4.01958 3.92498 4.02179 3.91133 4.01847C3.89892 4.00904 3.89892 4.00183 3.8766 3.99795C3.85427 3.99906 3.84558 4.0046 3.83318 4.01181C3.81999 4.01619 3.80899 4.02465 3.80217 4.03566C3.79782 4.0473 3.79534 4.05562 3.81023 4.06005C3.82319 4.06782 3.83811 4.07258 3.85365 4.07392C3.87101 4.07392 3.88404 4.07225 3.8921 4.08113C3.90451 4.09222 3.90327 4.09887 3.90327 4.11883C3.90761 4.12493 3.90823 4.14323 3.91133 4.15044C3.92201 4.15546 3.93402 4.15776 3.94606 4.15709C3.95041 4.146 3.95475 4.12715 3.95785 4.1155C3.96095 4.1033 3.96157 4.08556 3.96963 4.07724C3.97675 4.0677 3.98579 4.05942 3.9963 4.05285C4.00258 4.04649 4.01076 4.04187 4.01987 4.03954C4.00437 4.04619 4.00251 4.05395 4.00065 4.07059C4.01367 4.07613 4.01739 4.08057 4.0391 4.08113C4.06081 4.07946 4.06577 4.07447 4.07383 4.06338C4.0757 4.08112 4.0819 4.08667 4.08624 4.1022C4.09368 4.11218 4.09678 4.12271 4.10485 4.13658C4.10175 4.15321 4.0943 4.15376 4.09368 4.17428C4.08872 4.18814 4.08872 4.2009 4.07818 4.20921C4.07321 4.21476 4.06949 4.21531 4.05833 4.21587C4.08066 4.21587 4.0943 4.21365 4.10919 4.20589C4.12035 4.19923 4.12904 4.19147 4.1402 4.18482C4.15419 4.17539 4.16994 4.16826 4.18672 4.16375C4.20471 4.16375 4.21773 4.16208 4.22518 4.17095C4.23634 4.17816 4.24378 4.19036 4.24875 4.20589C4.25185 4.22363 4.25371 4.23583 4.2444 4.24748C4.2382 4.26078 4.23634 4.26577 4.2444 4.28185C4.25371 4.29294 4.26673 4.29461 4.28782 4.29904C4.30209 4.29849 4.31635 4.29572 4.32628 4.29239" stroke="#EF2D28" stroke-width="0.0281498"/>
<path fill-rule="evenodd" clip-rule="evenodd" d="M1.86699 2.18056C1.394 1.36185 1.08031 0.664207 1.16584 0.624715C1.25225 0.584816 1.70614 1.21773 2.17913 2.03643L1.86699 2.18056Z" fill="white" stroke="#EF2D28" stroke-width="0.0387692"/>
<path fill-rule="evenodd" clip-rule="evenodd" d="M1.89826 2.16677C1.44196 1.37696 1.12772 0.709295 1.19615 0.677701C1.26528 0.645782 1.69168 1.26165 2.14798 2.05147" fill="white"/>
<path d="M1.89826 2.16677C1.44196 1.37696 1.12772 0.709295 1.19615 0.677701C1.26528 0.645782 1.69168 1.26165 2.14798 2.05147" stroke="#EF2D28" stroke-width="0.0340592"/>
<path fill-rule="evenodd" clip-rule="evenodd" d="M1.97679 1.75486C2.03234 1.84716 2.09121 1.95291 2.14813 2.05145L1.89771 2.16707C1.84079 2.06854 1.7784 1.96442 1.72637 1.87049L1.97679 1.75486Z" fill="white" stroke="#EF2D28" stroke-width="0.0386549"/>
<path fill-rule="evenodd" clip-rule="evenodd" d="M1.95529 1.78662C2.01113 1.87941 2.0495 1.94969 2.10671 2.04872L1.91978 2.13503C1.86286 2.03649 1.82039 1.96686 1.76836 1.87293L1.95529 1.78662Z" fill="white" stroke="#EF2D28" stroke-width="0.0386549"/>
<path fill-rule="evenodd" clip-rule="evenodd" d="M1.81861 1.89371L1.94381 1.8359L2.05482 2.02804L1.92961 2.08585L1.81861 1.89371ZM1.81861 1.89371L2.05482 2.02804L1.81861 1.89371ZM1.92961 2.08585L1.94381 1.8359L1.92961 2.08585ZM1.25391 0.91626L1.37911 0.858447L1.25391 0.91626Z" fill="white"/>
<path d="M1.81861 1.89371L1.94381 1.8359M1.81861 1.89371L1.92961 2.08585M1.81861 1.89371L2.05482 2.02804M1.94381 1.8359L2.05482 2.02804M1.94381 1.8359L1.92961 2.08585M2.05482 2.02804L1.92961 2.08585M1.25391 0.91626L1.37911 0.858447" stroke="#EF2D28" stroke-width="0.0386549"/>
<path d="M1.25544 0.825454C1.27468 0.830318 1.29379 0.820543 1.29813 0.803622C1.30248 0.786701 1.2904 0.769041 1.27116 0.764177C1.25192 0.759314 1.23281 0.769088 1.22847 0.78601C1.22412 0.802931 1.2362 0.820591 1.25544 0.825454Z" fill="#EF0000" stroke="#EF2D28" stroke-width="0.0500864"/>
<path fill-rule="evenodd" clip-rule="evenodd" d="M2.2446 1.76318C2.2446 2.45076 2.24873 2.70972 2.19829 2.7452C2.15032 2.78346 0.816406 2.7452 0.816406 2.9415C0.816406 3.13779 1.91463 3.33519 2.2446 3.33519C2.68455 3.33519 2.9037 3.13834 2.9037 2.7452V1.76374H2.2446V1.76318Z" fill="white" stroke="#EF2D28" stroke-width="0.0352129"/>
<path fill-rule="evenodd" clip-rule="evenodd" d="M2.24512 1.95947V2.05762C2.46316 2.0903 2.68578 2.0903 2.90382 2.05762V1.95947C2.68578 1.99216 2.46316 1.99216 2.24512 1.95947Z" fill="white" stroke="#EF2D28" stroke-width="0.0304956"/>
<path fill-rule="evenodd" clip-rule="evenodd" d="M2.24512 1.76318V1.86133C2.46316 1.89401 2.68578 1.89401 2.90382 1.86133V1.76318C2.68578 1.79587 2.46316 1.79587 2.24512 1.76318Z" fill="white" stroke="#EF2D28" stroke-width="0.0304956"/>
<path fill-rule="evenodd" clip-rule="evenodd" d="M2.24512 1.86133V1.95947C2.46316 1.99216 2.68578 1.99216 2.90382 1.95947V1.86133C2.68578 1.89401 2.46316 1.89401 2.24512 1.86133Z" fill="white" stroke="#EF2D28" stroke-width="0.0304956"/>
<path fill-rule="evenodd" clip-rule="evenodd" d="M2.24512 2.05762V2.15576C2.46316 2.18845 2.68578 2.18845 2.90382 2.15576V2.05762C2.68578 2.0903 2.46316 2.0903 2.24512 2.05762Z" fill="white" stroke="#EF2D28" stroke-width="0.0304956"/>
<path d="M2.27523 1.93818C2.29186 1.93818 2.30534 1.92868 2.30534 1.91697C2.30534 1.90525 2.29186 1.89575 2.27523 1.89575C2.2586 1.89575 2.24512 1.90525 2.24512 1.91697C2.24512 1.92868 2.2586 1.93818 2.27523 1.93818Z" fill="white" stroke="#EF2D28" stroke-width="0.0289101"/>
<path d="M2.39437 1.94868C2.411 1.94868 2.42448 1.93918 2.42448 1.92746C2.42448 1.91575 2.411 1.90625 2.39437 1.90625C2.37774 1.90625 2.36426 1.91575 2.36426 1.92746C2.36426 1.93918 2.37774 1.94868 2.39437 1.94868Z" fill="white" stroke="#EF2D28" stroke-width="0.0289101"/>
<path d="M2.51449 1.95967C2.53111 1.95967 2.5446 1.95017 2.5446 1.93845C2.5446 1.92673 2.53111 1.91724 2.51449 1.91724C2.49786 1.91724 2.48438 1.92673 2.48438 1.93845C2.48438 1.95017 2.49786 1.95967 2.51449 1.95967Z" fill="white" stroke="#EF2D28" stroke-width="0.0289101"/>
<path d="M2.6346 1.95967C2.65123 1.95967 2.66471 1.95017 2.66471 1.93845C2.66471 1.92673 2.65123 1.91724 2.6346 1.91724C2.61797 1.91724 2.60449 1.92673 2.60449 1.93845C2.60449 1.95017 2.61797 1.95967 2.6346 1.95967Z" fill="white" stroke="#EF2D28" stroke-width="0.0289101"/>
<path d="M2.75374 1.94868C2.77037 1.94868 2.78385 1.93918 2.78385 1.92746C2.78385 1.91575 2.77037 1.90625 2.75374 1.90625C2.73711 1.90625 2.72363 1.91575 2.72363 1.92746C2.72363 1.93918 2.73711 1.94868 2.75374 1.94868Z" fill="white" stroke="#EF2D28" stroke-width="0.0289101"/>
<path d="M2.87386 1.93818C2.89049 1.93818 2.90397 1.92868 2.90397 1.91697C2.90397 1.90525 2.89049 1.89575 2.87386 1.89575C2.85723 1.89575 2.84375 1.90525 2.84375 1.91697C2.84375 1.92868 2.85723 1.93818 2.87386 1.93818Z" fill="white" stroke="#EF2D28" stroke-width="0.0289101"/>
<path fill-rule="evenodd" clip-rule="evenodd" d="M2.24472 2.25391L2.90343 2.78456L2.24472 2.25391ZM2.31047 2.25391L2.90405 2.72523L2.31047 2.25391ZM2.39792 2.27387L2.90405 2.66701L2.39792 2.27387ZM2.46367 2.27331L2.90405 2.60768L2.46367 2.27331ZM2.53004 2.27387L2.90343 2.5489L2.53004 2.27387ZM2.59578 2.27387L2.90343 2.49012L2.59578 2.27387ZM2.66153 2.27387L2.90343 2.43079L2.66153 2.27387ZM2.72852 2.27387L2.90467 2.39142L2.72852 2.27387ZM2.79364 2.27387L2.90405 2.35261L2.79364 2.27387ZM2.86001 2.27387L2.90343 2.31268L2.86001 2.27387ZM2.24472 2.31268L2.90343 2.84389L2.24472 2.31268ZM2.90343 2.25446L2.17773 2.84334L2.90343 2.25446ZM2.83706 2.25391L2.20006 2.76516L2.83706 2.25391ZM2.7496 2.27387L2.2441 2.66645L2.7496 2.27387ZM2.68324 2.27387L2.2441 2.60768L2.68324 2.27387ZM2.61811 2.27387L2.24472 2.5489L2.61811 2.27387ZM2.55237 2.27387L2.24472 2.49012L2.55237 2.27387ZM2.48662 2.27387L2.24472 2.43079L2.48662 2.27387ZM2.41963 2.27387L2.2441 2.39142L2.41963 2.27387ZM2.35389 2.27387L2.2441 2.35261L2.35389 2.27387ZM2.28752 2.27387L2.2441 2.31268L2.28752 2.27387ZM2.90343 2.31268L2.17773 2.90323L2.90343 2.31268ZM2.90343 2.37257L2.17773 2.96145L2.90343 2.37257ZM2.90343 2.43079L2.17773 3.02023L2.90343 2.43079ZM2.90343 2.48957L2.17773 3.08011L2.90343 2.48957ZM2.90343 2.54945L2.17773 3.13833L2.90343 2.54945ZM2.90343 2.60768L2.17773 3.19711L2.90343 2.60768ZM2.90343 2.66645L2.17773 3.25589L2.90343 2.66645ZM2.90343 2.72579L2.17773 3.31522L2.90343 2.72579ZM2.90343 2.78456L2.22177 3.33463L2.90343 2.78456ZM2.90343 2.84334L2.28814 3.33463L2.90343 2.84334ZM2.8811 2.92208L2.3973 3.31522L2.8811 2.92208ZM2.86001 3.00026L2.46429 3.31466L2.86001 3.00026ZM2.81597 3.09841L2.61749 3.25533L2.81597 3.09841ZM2.24472 2.37146L2.88172 2.88215L2.24472 2.37146ZM2.24472 2.43024L2.88172 2.94149L2.24472 2.43024ZM2.24472 2.49012L2.86001 2.98086L2.24472 2.49012ZM2.24472 2.54835L2.86001 3.04019L2.24472 2.54835ZM2.24472 2.60768L2.83768 3.079L2.24472 2.60768ZM2.22239 2.64705L2.81597 3.11837L2.22239 2.64705ZM2.22239 2.70638L2.77193 3.13889L2.22239 2.70638ZM2.20068 2.74519L2.75023 3.1777L2.20068 2.74519ZM2.17773 2.78401L2.70495 3.19656L2.17773 2.78401ZM2.17773 2.84279L2.68324 3.23593L2.17773 2.84279ZM2.17773 2.90212L2.61811 3.25533L2.17773 2.90212Z" fill="white"/>
<path d="M2.24472 2.25391L2.90343 2.78456L2.22177 3.33463M2.31047 2.25391L2.90405 2.72523M2.39792 2.27387L2.90405 2.66701M2.46367 2.27331L2.90405 2.60768M2.53004 2.27387L2.90343 2.5489M2.59578 2.27387L2.90343 2.49012M2.66153 2.27387L2.90343 2.43079L2.17773 3.02023M2.72852 2.27387L2.90467 2.39142M2.79364 2.27387L2.90405 2.35261M2.86001 2.27387L2.90343 2.31268L2.17773 2.90323M2.24472 2.31268L2.90343 2.84389M2.90343 2.25446L2.17773 2.84334M2.83706 2.25391L2.20006 2.76516M2.7496 2.27387L2.2441 2.66645M2.68324 2.27387L2.2441 2.60768M2.61811 2.27387L2.24472 2.5489M2.55237 2.27387L2.24472 2.49012L2.86001 2.98086M2.48662 2.27387L2.24472 2.43079M2.41963 2.27387L2.2441 2.39142M2.35389 2.27387L2.2441 2.35261M2.28752 2.27387L2.2441 2.31268M2.90343 2.37257L2.17773 2.96145M2.90343 2.48957L2.17773 3.08011M2.90343 2.54945L2.17773 3.13833M2.90343 2.60768L2.17773 3.19711M2.90343 2.66645L2.17773 3.25589M2.90343 2.72579L2.17773 3.31522M2.90343 2.84334L2.28814 3.33463M2.8811 2.92208L2.3973 3.31522M2.86001 3.00026L2.46429 3.31466M2.81597 3.09841L2.61749 3.25533M2.24472 2.37146L2.88172 2.88215M2.24472 2.43024L2.88172 2.94149M2.24472 2.54835L2.86001 3.04019M2.24472 2.60768L2.83768 3.079M2.22239 2.64705L2.81597 3.11837M2.22239 2.70638L2.77193 3.13889M2.20068 2.74519L2.75023 3.1777M2.17773 2.78401L2.70495 3.19656M2.17773 2.84279L2.68324 3.23593M2.17773 2.90212L2.61811 3.25533" stroke="#EF2D28" stroke-width="0.0304956"/>
<path fill-rule="evenodd" clip-rule="evenodd" d="M2.24512 2.15649V2.25464C2.46316 2.28733 2.68578 2.28733 2.90382 2.25464V2.15649C2.68578 2.18918 2.46316 2.18918 2.24512 2.15649Z" fill="white" stroke="#EF2D28" stroke-width="0.0304956"/>
<path fill-rule="evenodd" clip-rule="evenodd" d="M2.17835 2.96167L2.57407 3.27607L2.17835 2.96167ZM2.17835 3.021L2.53004 3.29548L2.17835 3.021ZM2.17835 3.07922L2.486 3.31544L2.17835 3.07922ZM2.17835 3.138L2.39854 3.31544L2.17835 3.138ZM2.17773 3.19733L2.35389 3.33485L2.17773 3.19733ZM2.17773 3.25611L2.28752 3.33485L2.17773 3.25611Z" fill="white"/>
<path d="M2.17835 2.96167L2.57407 3.27607M2.17835 3.021L2.53004 3.29548M2.17835 3.07922L2.486 3.31544M2.17835 3.138L2.39854 3.31544M2.17773 3.19733L2.35389 3.33485M2.17773 3.25611L2.28752 3.33485" stroke="#EF2D28" stroke-width="0.0304956"/>
<path d="M2.27523 2.2331C2.29186 2.2331 2.30534 2.2236 2.30534 2.21189C2.30534 2.20017 2.29186 2.19067 2.27523 2.19067C2.2586 2.19067 2.24512 2.20017 2.24512 2.21189C2.24512 2.2236 2.2586 2.2331 2.27523 2.2331Z" fill="white" stroke="#EF2D28" stroke-width="0.0289101"/>
<path d="M2.39437 2.24384C2.411 2.24384 2.42448 2.23435 2.42448 2.22263C2.42448 2.21091 2.411 2.20142 2.39437 2.20142C2.37774 2.20142 2.36426 2.21091 2.36426 2.22263C2.36426 2.23435 2.37774 2.24384 2.39437 2.24384Z" fill="white" stroke="#EF2D28" stroke-width="0.0289101"/>
<path d="M2.51449 2.2541C2.53111 2.2541 2.5446 2.2446 2.5446 2.23288C2.5446 2.22117 2.53111 2.21167 2.51449 2.21167C2.49786 2.21167 2.48438 2.22117 2.48438 2.23288C2.48438 2.2446 2.49786 2.2541 2.51449 2.2541Z" fill="white" stroke="#EF2D28" stroke-width="0.0289101"/>
<path d="M2.6346 2.2541C2.65123 2.2541 2.66471 2.2446 2.66471 2.23288C2.66471 2.22117 2.65123 2.21167 2.6346 2.21167C2.61797 2.21167 2.60449 2.22117 2.60449 2.23288C2.60449 2.2446 2.61797 2.2541 2.6346 2.2541Z" fill="white" stroke="#EF2D28" stroke-width="0.0289101"/>
<path d="M2.75374 2.24384C2.77037 2.24384 2.78385 2.23435 2.78385 2.22263C2.78385 2.21091 2.77037 2.20142 2.75374 2.20142C2.73711 2.20142 2.72363 2.21091 2.72363 2.22263C2.72363 2.23435 2.73711 2.24384 2.75374 2.24384Z" fill="white" stroke="#EF2D28" stroke-width="0.0289101"/>
<path d="M2.87386 2.2331C2.89049 2.2331 2.90397 2.2236 2.90397 2.21189C2.90397 2.20017 2.89049 2.19067 2.87386 2.19067C2.85723 2.19067 2.84375 2.20017 2.84375 2.21189C2.84375 2.2236 2.85723 2.2331 2.87386 2.2331Z" fill="white" stroke="#EF2D28" stroke-width="0.0289101"/>
<path fill-rule="evenodd" clip-rule="evenodd" d="M1.29973 3.17793L2.09054 2.76538L1.29973 3.17793ZM1.25569 3.15797L2.00309 2.76538L1.25569 3.15797ZM1.23398 3.1186L1.91501 2.76538L1.23398 3.1186ZM1.21165 3.07978L1.80523 2.76538L1.21165 3.07978ZM1.16699 3.04041L1.71653 2.76538L1.16699 3.04041ZM1.18932 2.98164L1.56271 2.78479L1.18932 2.98164ZM1.16699 2.94171L1.45231 2.78479L1.16699 2.94171ZM1.16699 2.88293L1.36547 2.78479L1.16699 2.88293ZM1.36547 3.19734L2.11225 2.8042L1.36547 3.19734ZM1.43184 3.21674L2.13458 2.84357L1.43184 3.21674ZM1.49759 3.23671L2.15691 2.88293L1.49759 3.23671ZM1.56333 3.25611L2.11287 2.96167L1.56333 3.25611ZM1.65079 3.25611L2.13458 3.00104L1.65079 3.25611ZM1.71653 3.27608L2.13396 3.05982L1.71653 3.27608ZM1.78228 3.29548L2.11225 3.1186L1.78228 3.29548ZM1.87036 3.29604L2.13396 3.15797L1.87036 3.29604ZM1.95843 3.31544L2.13458 3.21674L1.95843 3.31544ZM2.04775 3.31544L2.15753 3.25667L2.04775 3.31544Z" fill="white"/>
<path d="M1.29973 3.17793L2.09054 2.76538M1.25569 3.15797L2.00309 2.76538M1.23398 3.1186L1.91501 2.76538M1.21165 3.07978L1.80523 2.76538M1.16699 3.04041L1.71653 2.76538M1.18932 2.98164L1.56271 2.78479M1.16699 2.94171L1.45231 2.78479M1.16699 2.88293L1.36547 2.78479M1.36547 3.19734L2.11225 2.8042M1.43184 3.21674L2.13458 2.84357M1.49759 3.23671L2.15691 2.88293M1.56333 3.25611L2.11287 2.96167M1.65079 3.25611L2.13458 3.00104M1.71653 3.27608L2.13396 3.05982M1.78228 3.29548L2.11225 3.1186M1.87036 3.29604L2.13396 3.15797M1.95843 3.31544L2.13458 3.21674M2.04775 3.31544L2.15753 3.25667" stroke="#EF2D28" stroke-width="0.0304956"/>
<path fill-rule="evenodd" clip-rule="evenodd" d="M2.2002 2.74585H2.09041C2.05385 2.94078 2.05385 3.1398 2.09041 3.33473H2.2002C2.16363 3.1398 2.16363 2.94078 2.2002 2.74585Z" fill="white" stroke="#EF2D28" stroke-width="0.0304956"/>
<path fill-rule="evenodd" clip-rule="evenodd" d="M0.904297 3.02027L1.1679 2.82397L0.904297 3.02027ZM0.904297 2.88275L1.1679 3.11841L0.904297 2.88275Z" fill="white"/>
<path d="M0.904297 3.02027L1.1679 2.82397M0.904297 2.88275L1.1679 3.11841" stroke="#EF2D28" stroke-width="0.0304956"/>
<path fill-rule="evenodd" clip-rule="evenodd" d="M1.2998 2.78418L1.16782 2.80385C1.13854 2.92852 1.13854 3.03317 1.16782 3.15784L1.2998 3.19682C1.27053 3.0725 1.27053 2.90885 1.2998 2.78418Z" fill="white" stroke="#EF2D28" stroke-width="0.0217069"/>
<path fill-rule="evenodd" clip-rule="evenodd" d="M2.90401 1.80201V1.70276C2.80457 1.70387 2.73859 1.64454 2.73859 1.58521L2.40961 1.58576C2.40961 1.64454 2.34455 1.70387 2.24512 1.70387V1.80201H2.90401Z" fill="white" stroke="#EF2D28" stroke-width="0.0373282"/>
<path fill-rule="evenodd" clip-rule="evenodd" d="M2.43262 1.4684H2.71545V1.58651H2.43262V1.4684ZM2.45681 1.35029H2.69188V1.4684H2.45619L2.45681 1.35029ZM2.45681 1.23274H2.69188V1.35029H2.45619L2.45681 1.23274ZM2.48038 1.07526H2.66831V1.23274H2.48038V1.07526ZM2.47231 0.937744H2.677V1.07526H2.47231V0.937744Z" fill="white"/>
<path d="M2.69188 1.35029H2.45681L2.45619 1.4684H2.69188V1.35029ZM2.69188 1.35029V1.23274H2.45681L2.45619 1.35029H2.69188ZM2.43262 1.4684H2.71545V1.58651H2.43262V1.4684ZM2.48038 1.07526H2.66831V1.23274H2.48038V1.07526ZM2.47231 0.937744H2.677V1.07526H2.47231V0.937744Z" stroke="#EF2D28" stroke-width="0.0328414"/>
<path d="M2.58488 0.997024C2.73532 0.997024 2.85727 0.913361 2.85727 0.810157C2.85727 0.706954 2.73532 0.623291 2.58488 0.623291C2.43445 0.623291 2.3125 0.706954 2.3125 0.810157C2.3125 0.913361 2.43445 0.997024 2.58488 0.997024Z" fill="white" stroke="#EF2D28" stroke-width="0.0309992"/>
<path fill-rule="evenodd" clip-rule="evenodd" d="M2.72084 0.80011C2.72084 0.851679 2.78878 0.937626 2.78878 0.937626C2.73943 0.972005 2.65932 0.996958 2.58433 0.996958C2.50935 0.996958 2.41577 0.982541 2.37988 0.937626C2.37988 0.937626 2.44782 0.852233 2.44782 0.800665C2.44782 0.749096 2.37988 0.682556 2.37988 0.682556C2.43937 0.644739 2.51115 0.624166 2.58497 0.623779C2.65932 0.623779 2.73879 0.648732 2.78878 0.682556C2.78878 0.682556 2.72084 0.749096 2.72084 0.800665V0.80011Z" fill="white" stroke="#EF2D28" stroke-width="0.0309992"/>
<path fill-rule="evenodd" clip-rule="evenodd" d="M2.67573 0.80011C2.67573 0.851679 2.74367 0.957588 2.74367 0.957588C2.69432 0.990858 2.66035 0.996403 2.58473 0.996403C2.5091 0.996403 2.46167 1.0025 2.42578 0.957588C2.42578 0.957588 2.49372 0.852233 2.49372 0.80011C2.49372 0.747987 2.42578 0.662594 2.42578 0.662594C2.47513 0.629324 2.5091 0.623779 2.58473 0.623779C2.65971 0.623779 2.69432 0.629324 2.74367 0.662594C2.74367 0.662594 2.67573 0.748542 2.67573 0.80011Z" fill="white" stroke="#EF2D28" stroke-width="0.0309992"/>
<path d="M2.31208 0.878296C2.3496 0.878296 2.38001 0.851981 2.38001 0.819519C2.38001 0.787058 2.3496 0.760742 2.31208 0.760742C2.27456 0.760742 2.24414 0.787058 2.24414 0.819519C2.24414 0.851981 2.27456 0.878296 2.31208 0.878296Z" fill="white" stroke="#EF2D28" stroke-width="0.0309992"/>
<path d="M2.85797 0.878296C2.89549 0.878296 2.92591 0.851981 2.92591 0.819519C2.92591 0.787058 2.89549 0.760742 2.85797 0.760742C2.82045 0.760742 2.79004 0.787058 2.79004 0.819519C2.79004 0.851981 2.82045 0.878296 2.85797 0.878296Z" fill="white" stroke="#EF2D28" stroke-width="0.0309992"/>
<path d="M2.58551 0.878296C2.62303 0.878296 2.65345 0.851981 2.65345 0.819519C2.65345 0.787058 2.62303 0.760742 2.58551 0.760742C2.54799 0.760742 2.51758 0.787058 2.51758 0.819519C2.51758 0.851981 2.54799 0.878296 2.58551 0.878296Z" fill="white" stroke="#EF2D28" stroke-width="0.0309992"/>
<path d="M2.58551 0.682007C2.62303 0.682007 2.65345 0.655692 2.65345 0.62323C2.65345 0.590769 2.62303 0.564453 2.58551 0.564453C2.54799 0.564453 2.51758 0.590769 2.51758 0.62323C2.51758 0.655692 2.54799 0.682007 2.58551 0.682007Z" fill="white" stroke="#EF2D28" stroke-width="0.0309992"/>
<path d="M2.38579 1.80212C2.42465 1.80212 2.45615 1.77581 2.45615 1.74335C2.45615 1.71089 2.42465 1.68457 2.38579 1.68457C2.34693 1.68457 2.31543 1.71089 2.31543 1.74335C2.31543 1.77581 2.34693 1.80212 2.38579 1.80212Z" fill="white" stroke="#EF2D28" stroke-width="0.0315479"/>
<path d="M2.76177 1.80212C2.80063 1.80212 2.83213 1.77581 2.83213 1.74335C2.83213 1.71089 2.80063 1.68457 2.76177 1.68457C2.72291 1.68457 2.69141 1.71089 2.69141 1.74335C2.69141 1.77581 2.72291 1.80212 2.76177 1.80212Z" fill="white" stroke="#EF2D28" stroke-width="0.0315479"/>
<path fill-rule="evenodd" clip-rule="evenodd" d="M2.40918 1.58594H2.73842L2.5738 1.76282L2.40918 1.58594Z" fill="white" stroke="#EF2D28" stroke-width="0.0315479"/>
<path d="M2.57331 1.80175C2.62513 1.80175 2.66713 1.76667 2.66713 1.72339C2.66713 1.68011 2.62513 1.64502 2.57331 1.64502C2.5215 1.64502 2.47949 1.68011 2.47949 1.72339C2.47949 1.76667 2.5215 1.80175 2.57331 1.80175Z" fill="white" stroke="#EF2D28" stroke-width="0.0420643"/>
<path d="M2.69172 2.31104H2.23956C2.22483 2.31104 2.21289 2.32022 2.21289 2.33155V2.40863C2.21289 2.41996 2.22483 2.42914 2.23956 2.42914H2.69172C2.70645 2.42914 2.71839 2.41996 2.71839 2.40863V2.33155C2.71839 2.32022 2.70645 2.31104 2.69172 2.31104Z" fill="white" stroke="#EF2D28" stroke-width="0.0281498"/>
<path fill-rule="evenodd" clip-rule="evenodd" d="M2.87248 2.21283C2.8117 2.21283 2.7627 2.25886 2.7627 2.31542V2.40469C2.76229 2.41789 2.76481 2.43103 2.77012 2.44335C2.77543 2.45568 2.78342 2.46693 2.79363 2.47648C2.80384 2.48602 2.81607 2.49365 2.82961 2.49894C2.84314 2.50422 2.85772 2.50706 2.87248 2.50727C2.88725 2.50706 2.90183 2.50422 2.91536 2.49894C2.9289 2.49365 2.94113 2.48602 2.95134 2.47648C2.96155 2.46693 2.96954 2.45568 2.97485 2.44335C2.98016 2.43103 2.98268 2.41789 2.98227 2.40469V2.31597C2.98276 2.30272 2.9803 2.28952 2.97503 2.27714C2.96976 2.26475 2.96178 2.25343 2.95156 2.24382C2.94134 2.23422 2.92909 2.22654 2.91551 2.22122C2.90193 2.2159 2.88731 2.21305 2.87248 2.21283ZM2.87248 2.25165C2.83589 2.25165 2.80674 2.2888 2.80674 2.33427V2.38584C2.80674 2.43131 2.83589 2.4679 2.87248 2.4679C2.90908 2.4679 2.93823 2.43131 2.93823 2.38584V2.33427C2.93823 2.2888 2.90908 2.2522 2.87248 2.2522V2.25165ZM2.30123 2.23224C2.26402 2.23224 2.23549 2.26884 2.23549 2.31486V2.4058C2.23549 2.45127 2.26464 2.48787 2.30123 2.48787C2.33783 2.48787 2.36698 2.45127 2.36698 2.4058V2.31431C2.36698 2.26828 2.33783 2.23169 2.30123 2.23169V2.23224ZM2.30123 2.19343C2.28647 2.19364 2.27189 2.19647 2.25836 2.20176C2.24482 2.20705 2.23259 2.21468 2.22238 2.22422C2.21217 2.23376 2.20418 2.24502 2.19887 2.25734C2.19356 2.26967 2.19104 2.28281 2.19145 2.29601V2.42465C2.19104 2.43785 2.19356 2.45099 2.19887 2.46332C2.20418 2.47564 2.21217 2.4869 2.22238 2.49644C2.23259 2.50598 2.24482 2.51361 2.25836 2.5189C2.27189 2.52419 2.28647 2.52702 2.30123 2.52723C2.36202 2.52723 2.41102 2.48121 2.41102 2.42465V2.29601C2.41151 2.28276 2.40905 2.26956 2.40378 2.25717C2.39851 2.24479 2.39053 2.23346 2.38031 2.22386C2.37009 2.21426 2.35784 2.20658 2.34426 2.20126C2.33068 2.19593 2.31606 2.19308 2.30123 2.19287V2.19343Z" fill="white" stroke="#EF2D28" stroke-width="0.0281498"/>
<path fill-rule="evenodd" clip-rule="evenodd" d="M2.12545 2.27155C2.08886 2.27155 2.05971 2.30814 2.05971 2.35361V2.37524C2.05971 2.42071 2.08886 2.4573 2.12545 2.4573C2.16267 2.4573 2.19182 2.42071 2.19182 2.37524V2.35361C2.19182 2.30814 2.16205 2.27155 2.12545 2.27155ZM2.12545 2.23273C2.11068 2.23295 2.09611 2.23578 2.08257 2.24107C2.06904 2.24635 2.05681 2.25399 2.0466 2.26353C2.03639 2.27307 2.0284 2.28433 2.02309 2.29665C2.01778 2.30897 2.01526 2.32211 2.01567 2.33531V2.39409C2.01526 2.40729 2.01778 2.42043 2.02309 2.43276C2.0284 2.44508 2.03639 2.45634 2.0466 2.46588C2.05681 2.47542 2.06904 2.48305 2.08257 2.48834C2.09611 2.49363 2.11068 2.49646 2.12545 2.49667C2.18624 2.49667 2.23586 2.45065 2.23586 2.39409V2.33531C2.23635 2.32202 2.23387 2.30878 2.22856 2.29635C2.22325 2.28393 2.21522 2.27258 2.20493 2.26297C2.19465 2.25337 2.18232 2.24569 2.16867 2.2404C2.15502 2.23511 2.14033 2.23232 2.12545 2.23218V2.23273Z" fill="white" stroke="#EF2D28" stroke-width="0.0281498"/>
<path fill-rule="evenodd" clip-rule="evenodd" d="M1.86193 2.21734C1.79494 2.21734 1.74247 2.25824 1.74247 2.30906V2.41131C1.74247 2.4615 1.79606 2.50303 1.86193 2.50303C1.92668 2.50303 1.98027 2.46212 1.98027 2.41069V2.30906C1.98027 2.25824 1.92668 2.21734 1.86193 2.21734ZM1.86193 2.17396C1.83534 2.17412 1.80908 2.17721 1.78467 2.18304C1.76025 2.18887 1.73816 2.19734 1.71967 2.20794C1.70119 2.21855 1.68668 2.23108 1.67699 2.24482C1.66729 2.25856 1.66261 2.27323 1.6632 2.28799V2.43176C1.66231 2.44656 1.66673 2.46132 1.67622 2.47516C1.68571 2.489 1.70007 2.50166 1.71847 2.51239C1.73686 2.52312 1.75892 2.53171 1.78336 2.53765C1.8078 2.5436 1.83413 2.54679 1.86081 2.54702C1.97134 2.54702 2.05954 2.49559 2.05954 2.43176V2.28799C2.06028 2.27323 2.05574 2.25855 2.04618 2.24478C2.03663 2.231 2.02224 2.21842 2.00386 2.20776C1.98548 2.1971 1.96347 2.18856 1.93911 2.18265C1.91474 2.17675 1.88851 2.17358 1.86193 2.17334V2.17396Z" fill="white" stroke="#EF2D28" stroke-width="0.0299444"/>
<path fill-rule="evenodd" clip-rule="evenodd" d="M3.29064 2.23663C3.22365 2.23663 3.17118 2.27753 3.17118 2.32834V2.4306C3.17118 2.48079 3.22477 2.52231 3.29064 2.52231C3.35539 2.52231 3.40898 2.48141 3.40898 2.42998V2.32834C3.40898 2.27753 3.35539 2.23663 3.29064 2.23663ZM3.29064 2.19325C3.26406 2.19341 3.23779 2.19649 3.21338 2.20233C3.18896 2.20816 3.16687 2.21662 3.14838 2.22723C3.1299 2.23784 3.11539 2.25037 3.1057 2.26411C3.096 2.27785 3.09132 2.29252 3.09191 2.30727V2.45105C3.09102 2.46585 3.09544 2.4806 3.10493 2.49445C3.11442 2.50829 3.12878 2.52095 3.14718 2.53168C3.16557 2.5424 3.18763 2.55099 3.21207 2.55694C3.23651 2.56289 3.26284 2.56607 3.28952 2.56631C3.40005 2.56631 3.48825 2.51488 3.48825 2.45105V2.30727C3.48899 2.29252 3.48445 2.27783 3.47489 2.26406C3.46534 2.25029 3.45095 2.23771 3.43257 2.22705C3.41419 2.21638 3.39218 2.20785 3.36782 2.20194C3.34346 2.19603 3.31722 2.19287 3.29064 2.19263V2.19325Z" fill="white" stroke="#EF2D28" stroke-width="0.0299444"/>
<path d="M3.16633 2.31104H2.93126C2.92338 2.31104 2.91699 2.32022 2.91699 2.33155V2.40863C2.91699 2.41996 2.92338 2.42914 2.93126 2.42914H3.16633C3.17421 2.42914 3.1806 2.41996 3.1806 2.40863V2.33155C3.1806 2.32022 3.17421 2.31104 3.16633 2.31104Z" fill="white" stroke="#EF2D28" stroke-width="0.0281498"/>
<path d="M2.82056 2.2915H2.68287C2.67841 2.2915 2.6748 2.30367 2.6748 2.31867V2.42181C2.6748 2.43682 2.67841 2.44898 2.68287 2.44898H2.82056C2.82502 2.44898 2.82863 2.43682 2.82863 2.42181V2.31867C2.82863 2.30367 2.82502 2.2915 2.82056 2.2915Z" fill="white" stroke="#EF2D28" stroke-width="0.0281498"/>
<path d="M2.09498 2.2915H1.95728C1.95283 2.2915 1.94922 2.30367 1.94922 2.31867V2.42181C1.94922 2.43682 1.95283 2.44898 1.95728 2.44898H2.09498C2.09943 2.44898 2.10304 2.43682 2.10304 2.42181V2.31867C2.10304 2.30367 2.09943 2.2915 2.09498 2.2915Z" fill="white" stroke="#EF2D28" stroke-width="0.0281498"/>
<path d="M1.75734 2.27148H1.48195C1.47304 2.27148 1.46582 2.28663 1.46582 2.30531V2.43395C1.46582 2.45263 1.47304 2.46778 1.48195 2.46778H1.75734C1.76624 2.46778 1.77346 2.45263 1.77346 2.43395V2.30531C1.77346 2.28663 1.76624 2.27148 1.75734 2.27148Z" fill="white" stroke="#EF2D28" stroke-width="0.0281498"/>
<path d="M3.64836 2.2915H3.39344C3.38487 2.2915 3.37793 2.30665 3.37793 2.32533V2.45397C3.37793 2.47265 3.38487 2.4878 3.39344 2.4878H3.64836C3.65692 2.4878 3.66386 2.47265 3.66386 2.45397V2.32533C3.66386 2.30665 3.65692 2.2915 3.64836 2.2915Z" fill="white" stroke="#EF2D28" stroke-width="0.0281498"/>
</g>
</g>
<defs>
<clipPath id="clip0_202_4066">
<rect width="20" height="15" fill="white"/>
</clipPath>
</defs>
</svg>
