<svg width="20" height="15" viewBox="0 0 20 15" fill="none" xmlns="http://www.w3.org/2000/svg">
<g clip-path="url(#clip0_202_4073)">
<mask id="mask0_202_4073" style="mask-type:luminance" maskUnits="userSpaceOnUse" x="-1" y="0" width="21" height="15">
<path d="M-0.000976562 0H19.9971V15H-0.000976562V0Z" fill="white"/>
</mask>
<g mask="url(#mask0_202_4073)">
<path fill-rule="evenodd" clip-rule="evenodd" d="M-1.25195 0H21.248V15H-1.25195V0Z" fill="#0C590B"/>
<path fill-rule="evenodd" clip-rule="evenodd" d="M-1.25195 0H4.3877V15H-1.25195V0Z" fill="white"/>
<path fill-rule="evenodd" clip-rule="evenodd" d="M13.3584 6.60352L12.4443 6.41016L11.9639 7.20996L11.8643 6.28418L10.9561 6.07324L11.8057 5.69238L11.7266 4.76367L12.3535 5.45508L13.2119 5.0918L12.7461 5.90039L13.3613 6.60352H13.3584Z" fill="white"/>
<path fill-rule="evenodd" clip-rule="evenodd" d="M13.7012 8.96484C13.5062 9.39029 13.229 9.773 12.8856 10.091C12.5423 10.4089 12.1394 10.6559 11.7002 10.8176C11.2611 10.9793 10.7943 11.0526 10.3267 11.0333C9.85907 11.014 9.39991 10.9025 8.97557 10.7051C8.11466 10.3065 7.44735 9.5822 7.12044 8.69159C6.79353 7.80097 6.83381 6.81697 7.23241 5.95605C7.43036 5.5135 7.71874 5.11727 8.07899 4.79284C8.43925 4.4684 8.86341 4.22295 9.32421 4.07227C9.20357 4.17271 9.08818 4.2793 8.9785 4.3916C8.40692 5.02461 8.10349 5.85485 8.1322 6.70725C8.16091 7.55965 8.51951 8.3676 9.13239 8.96071C9.74527 9.55383 10.5645 9.88578 11.4174 9.88655C12.2703 9.88732 13.0901 9.55686 13.7041 8.96484H13.7012Z" fill="white"/>
</g>
</g>
<defs>
<clipPath id="clip0_202_4073">
<rect width="20" height="15" fill="white"/>
</clipPath>
</defs>
</svg>
