<svg width="20" height="15" viewBox="0 0 20 15" fill="none" xmlns="http://www.w3.org/2000/svg">
<g clip-path="url(#clip0_202_4117)">
<mask id="mask0_202_4117" style="mask-type:luminance" maskUnits="userSpaceOnUse" x="0" y="0" width="20" height="15">
<path d="M0 0H20V15H0V0Z" fill="white"/>
</mask>
<g mask="url(#mask0_202_4117)">
<path fill-rule="evenodd" clip-rule="evenodd" d="M-3.22168 0H23.2252V15H-3.22168V0Z" fill="#4AADD6"/>
<path fill-rule="evenodd" clip-rule="evenodd" d="M12.5408 7.25305C12.556 7.79604 12.4592 8.33647 12.2563 8.84243C12.0534 9.3484 11.7484 9.80963 11.3593 10.1989C10.9703 10.5882 10.5051 10.8976 9.99121 11.1088C9.47733 11.3201 8.92518 11.4289 8.36738 11.4289C7.80958 11.4289 7.25744 11.3201 6.74356 11.1088C6.22968 10.8976 5.76448 10.5882 5.37544 10.1989C4.9864 9.80963 4.68141 9.3484 4.47848 8.84243C4.27555 8.33647 4.17879 7.79604 4.19392 7.25305C4.17879 6.71006 4.27555 6.16963 4.47848 5.66366C4.68141 5.1577 4.9864 4.69646 5.37544 4.3072C5.76448 3.91793 6.22968 3.60853 6.74356 3.39726C7.25744 3.186 7.80958 3.07715 8.36738 3.07715C8.92518 3.07715 9.47733 3.186 9.99121 3.39726C10.5051 3.60853 10.9703 3.91793 11.3593 4.3072C11.7484 4.69646 12.0534 5.1577 12.2563 5.66366C12.4592 6.16963 12.556 6.71006 12.5408 7.25305Z" fill="#FFDE00"/>
</g>
</g>
<defs>
<clipPath id="clip0_202_4117">
<rect width="20" height="15" fill="white"/>
</clipPath>
</defs>
</svg>
