<svg width="20" height="15" viewBox="0 0 20 15" fill="none" xmlns="http://www.w3.org/2000/svg">
<g clip-path="url(#clip0_202_4124)">
<path fill-rule="evenodd" clip-rule="evenodd" d="M0.0498047 0L0.0341797 15H20.0342L0.0498047 0Z" fill="black"/>
<path fill-rule="evenodd" clip-rule="evenodd" d="M20.0186 15L20.0342 0H0.0341797L20.0186 15Z" fill="#FF0000"/>
<path d="M12.3821 3.73254L12.1185 3.71872C12.0352 3.52517 11.8063 3.45605 11.6606 3.539C11.3923 3.53905 11.1241 3.53444 10.8559 3.52517L11.3485 3.73945C11.4803 4.07816 11.8965 4.14728 11.8965 4.14728C11.8549 4.75556 11.2791 4.07125 10.7935 4.41686C10.4466 4.62423 10.4466 4.86616 10.2593 5.26708C10.1969 5.37767 9.9541 5.66799 9.9541 5.66799L10.3634 5.63343L10.2316 5.80624L10.7172 5.73711L10.6131 5.83389C10.6825 5.84771 11.1681 5.71638 11.1681 5.71638L11.1334 5.87536L11.6884 5.6749C11.6884 5.6749 11.7994 5.76476 11.8965 5.80624L11.9659 5.52974L12.2434 5.59887L12.3127 5.32237C12.729 5.87536 12.8677 6.42834 13.6308 6.56659L13.5614 6.2901C13.7643 6.37859 13.9655 6.47077 14.165 6.56659L14.2274 6.44908C14.5604 6.6841 14.8309 6.67719 15.0182 6.70484L14.8795 6.35922L15.0182 6.42834L14.8101 5.87536L15.0182 5.94448L14.7407 5.52974L14.8448 5.46062L14.8101 5.25325C15.2263 5.3915 15.7813 5.59887 15.8507 6.08273C15.9201 6.84308 15.0876 7.05045 14.5326 6.98133C14.9489 7.32694 15.7119 7.1887 16.0588 6.84308C16.1975 6.70484 16.2669 6.49747 16.3363 6.2901C16.4057 6.49747 16.5444 6.77396 16.5444 7.05045C16.475 7.67256 15.6426 7.87993 15.0876 7.94905C15.7119 8.29467 16.8219 7.87993 16.8913 6.98133C16.8913 6.22097 16.4057 5.87536 16.1975 5.52974L16.1282 5.15648L16.3363 5.25325C16.3363 5.25325 16.2114 5.02514 16.1975 4.97676C16.1975 4.97676 15.9825 4.38921 15.9062 4.25788L16.0588 4.28553L15.49 3.57356L15.6495 3.55973C15.6495 3.55973 14.9905 3.04131 14.8101 2.97219L15.0182 2.90306C14.602 2.69569 14.1164 2.83394 13.7002 3.11043L13.7695 2.90306L13.6447 2.91689V2.67496L13.7695 2.48833L13.5614 2.4192L13.7002 2.07359L13.4921 2.14271L13.5614 1.79709C13.5614 1.79709 13.4088 1.86622 13.3117 1.85931C13.3515 1.78233 13.3886 1.70394 13.4227 1.62429C13.3533 1.5206 13.4227 1.31323 13.4227 1.31323C12.9371 1.38236 12.8677 1.45148 12.5902 1.86622C12.174 2.62657 12.3127 2.97219 12.3821 3.73254Z" fill="#FFCC00" stroke="#FFCC00" stroke-width="0.1"/>
<path fill-rule="evenodd" clip-rule="evenodd" d="M15.0049 4.86621C15.0396 4.92842 15.435 5.11505 15.7263 5.28095C15.65 4.96298 15.0743 4.89386 15.0049 4.86621Z" fill="#FF0000" stroke="#FF0000" stroke-width="0.387784"/>
<path fill-rule="evenodd" clip-rule="evenodd" d="M6.60039 9.9999L6.39414 9.90615L6.19727 10.0187L6.22852 9.79365L6.05977 9.64053L6.28164 9.5999L6.37539 9.39365L6.48477 9.59365L6.70977 9.61865L6.55352 9.78115L6.60039 9.9999ZM7.60039 8.5874L7.14727 8.36865L6.71289 8.6124L6.78477 8.12178L6.41602 7.78428L6.90664 7.69678L7.11289 7.24678L7.35039 7.68428L7.84414 7.74053L7.50039 8.0999L7.60039 8.5874ZM5.54414 6.61865L5.01289 6.35303L4.49727 6.6374L4.58477 6.05615L4.15352 5.6499L4.73789 5.55615L4.98789 5.0249L5.25977 5.54678L5.84727 5.61865L5.43164 6.0374L5.54414 6.61865ZM3.64414 8.6624L3.11289 8.3499L2.58164 8.67178L2.71602 8.06865L2.24414 7.6624L2.85977 7.60615L3.10039 7.03428L3.34727 7.60303L3.96602 7.65303L3.50039 8.05928L3.64414 8.6624Z" fill="white"/>
<path d="M5.45435 11.7708L5.86356 11.4413L5.22198 11.3187L5.03926 10.8274L4.71845 11.4015L4.19849 11.4259L4.64216 11.907L4.50362 12.4111L5.09631 12.1342L5.53228 12.4245L5.45435 11.7708Z" fill="white"/>
</g>
<defs>
<clipPath id="clip0_202_4124">
<rect width="20" height="15" fill="white"/>
</clipPath>
</defs>
</svg>
