<svg width="20" height="15" viewBox="0 0 20 15" fill="none" xmlns="http://www.w3.org/2000/svg">
<g clip-path="url(#clip0_202_4107)">
<path d="M0 0H20V7.5H0V0Z" fill="#0038A8"/>
<path d="M0 7.5H20V15H0V7.5Z" fill="#CE1126"/>
<path d="M12.9906 7.5L0 15V0" fill="white"/>
<path d="M0.834375 1.32495L1.28125 1.7187L1.8 1.4312L1.56875 1.97808L2.00625 2.38433L1.4125 2.33433L1.15937 2.87183L1.025 2.2937L0.4375 2.2187L0.946875 1.9062L0.834375 1.32495ZM10.9531 6.70933L10.9656 7.30308L11.5281 7.49995L10.9656 7.6937L10.9531 8.28745L10.5938 7.81558L10.025 7.98745L10.3625 7.49995L10.025 7.01245L10.5938 7.18433L10.9531 6.70933ZM1.1625 12.1281L1.4125 12.6656L2.00625 12.6156L1.57187 13.0218L1.80313 13.5687L1.28437 13.2843L0.834375 13.6718L0.946875 13.0875L0.4375 12.7812L1.02813 12.7062L1.1625 12.1281ZM4.73125 4.34683L4.5375 4.54058L4.63438 6.00933L4.54063 6.0187L4.3625 4.67808L4.20312 4.83433L4.44063 6.03433C4.24858 6.07212 4.06591 6.14753 3.90313 6.2562L3.225 5.2437H3L3.825 6.31558C3.79933 6.33559 3.77432 6.35643 3.75 6.37808L2.77813 5.2687H2.50312V5.5437L3.60938 6.51245L3.54688 6.59058L2.475 5.7687V5.99058L3.49062 6.6687C3.38437 6.8312 3.30625 7.01245 3.26875 7.2062L2.07188 6.9687L1.9125 7.12495L3.25312 7.30308C3.24688 7.33433 3.24375 7.3687 3.24375 7.39995L1.775 7.3062L1.58125 7.49995L1.775 7.6937L3.24375 7.59683L3.25312 7.6937L1.9125 7.87183L2.06875 8.02808L3.26875 7.79058C3.30655 7.98262 3.38195 8.16529 3.49062 8.32808L2.475 9.0062V9.2312L3.54688 8.40933C3.56689 8.435 3.58773 8.46001 3.60938 8.48433L2.50312 9.45308V9.72808H2.78125L3.75 8.62183L3.82812 8.68433L3 9.7562H3.225L3.90313 8.74058C4.0625 8.84683 4.24688 8.92495 4.44063 8.96245L4.20312 10.1625L4.35938 10.3187L4.5375 8.97808C4.56875 8.98433 4.6 8.98745 4.63438 8.98745L4.54063 10.4562L4.73125 10.65L4.92812 10.4562L4.83125 8.98745L4.925 8.97808L5.10313 10.3218L5.2625 10.1625L5.025 8.96245C5.21704 8.92465 5.39971 8.84925 5.5625 8.74058L6.24062 9.7562H6.46562L5.64062 8.68433C5.6663 8.66431 5.69131 8.64347 5.71562 8.62183L6.6875 9.72808H6.9625V9.45308L5.85625 8.48433L5.91875 8.40933L6.99062 9.2312V9.0062L5.975 8.32808C6.08125 8.1687 6.15938 7.98433 6.19688 7.79058L7.39375 8.02808L7.55312 7.87183L6.2125 7.6937C6.21875 7.66245 6.22188 7.6312 6.22188 7.59683L7.69063 7.69058L7.88438 7.49995L7.69063 7.3062L6.22188 7.39995L6.2125 7.3062L7.55312 7.12808L7.39687 6.97183L6.19688 7.2062C6.15908 7.01416 6.08367 6.83149 5.975 6.6687L6.99062 5.99058V5.7687L5.91875 6.59058C5.89874 6.5649 5.87789 6.53989 5.85625 6.51558L6.9625 5.54683V5.2687H6.6875L5.71875 6.37808C5.69341 6.35638 5.66735 6.33554 5.64062 6.31558L6.46562 5.2437H6.24062L5.5625 6.2562C5.40312 6.14995 5.21875 6.07183 5.025 6.03433L5.2625 4.83745L5.10625 4.6812L4.92812 6.0187L4.83125 6.00933L4.925 4.54058L4.73125 4.34683Z" fill="#FCD116"/>
</g>
<defs>
<clipPath id="clip0_202_4107">
<rect width="20" height="15" fill="white"/>
</clipPath>
</defs>
</svg>
