<svg width="20" height="15" viewBox="0 0 20 15" fill="none" xmlns="http://www.w3.org/2000/svg">
<g clip-path="url(#clip0_202_4141)">
<path d="M20 0H0V15H20V0Z" fill="#FF0000"/>
<path d="M8 0H0V15H8V0Z" fill="#006600"/>
<path fill-rule="evenodd" clip-rule="evenodd" d="M10.926 9.82644C9.78826 9.79232 4.57094 6.54969 4.53516 6.03332L4.82326 5.55493C5.34077 6.30366 10.6744 9.45718 11.1983 9.34543L10.926 9.82629" fill="#FFFF00"/>
<path d="M10.926 9.82644C9.78826 9.79232 4.57094 6.54969 4.53516 6.03332L4.82326 5.55493C5.34077 6.30366 10.6744 9.45718 11.1983 9.34543L10.926 9.82629" stroke="black" stroke-width="0.03" stroke-linecap="round" stroke-linejoin="round"/>
<path fill-rule="evenodd" clip-rule="evenodd" d="M4.76188 5.48992C4.65981 5.76344 6.12333 6.66435 7.88418 7.7307C9.64496 8.79697 11.1632 9.45592 11.2758 9.36142C11.2826 9.34922 11.3311 9.26614 11.3267 9.2668C11.3056 9.29845 11.2542 9.30844 11.1741 9.28546C10.6984 9.14883 9.45768 8.58177 7.92111 7.65398C6.38457 6.72612 5.04771 5.87108 4.83993 5.50778C4.82548 5.48261 4.81519 5.43667 4.81728 5.40095L4.81223 5.40088L4.76799 5.47787L4.76191 5.48995L4.76188 5.48992ZM10.952 9.84142C10.9327 9.87628 10.8968 9.87744 10.8284 9.86996C10.4028 9.82307 9.11145 9.19778 7.58339 8.28698C5.80536 7.22723 4.33692 6.2616 4.49623 6.00923L4.53957 5.93293L4.54811 5.93558C4.40485 6.36326 7.44613 8.09475 7.62518 8.20515C9.3849 9.29066 10.8684 9.92456 10.9997 9.75983L10.952 9.84161V9.84154L10.952 9.84142Z" fill="#FFFF00" stroke="black" stroke-width="0.03" stroke-linecap="round" stroke-linejoin="round"/>
<path fill-rule="evenodd" clip-rule="evenodd" d="M7.98618 6.34623C9.12497 6.33727 10.5303 6.19129 11.339 5.87036L11.1647 5.58848C10.6867 5.8519 9.27372 6.02513 7.97656 6.05104C6.44235 6.03698 5.35942 5.89474 4.81682 5.53223L4.65234 5.8324C5.64979 6.25266 6.67189 6.34188 7.98618 6.34623Z" fill="#FFFF00" stroke="black" stroke-width="0.03" stroke-linecap="round" stroke-linejoin="round"/>
<path fill-rule="evenodd" clip-rule="evenodd" d="M11.3856 5.8766C11.3578 5.92092 10.8304 6.10203 10.0534 6.23568C9.52658 6.31565 8.8394 6.38401 7.98184 6.38484C7.16709 6.3856 6.50153 6.32785 5.99765 6.25985C5.18204 6.13252 4.76109 5.95535 4.60547 5.89274C4.62035 5.86327 4.62991 5.84261 4.64426 5.81509C5.09226 5.99269 5.51516 6.09978 6.01061 6.17568C6.51117 6.24318 7.16872 6.30176 7.97943 6.30099C8.833 6.30014 9.51262 6.22658 10.0364 6.14899C10.8331 6.02103 11.2683 5.85636 11.3295 5.7799L11.3857 5.8766H11.3857H11.3856ZM11.2327 5.59076C11.1463 5.65981 10.7161 5.81175 9.95901 5.93213C9.45377 6.00423 8.81137 6.06876 7.9906 6.06955C7.21084 6.07031 6.57379 6.01799 6.08923 5.94771C5.3204 5.84773 4.9112 5.66738 4.76368 5.6148C4.77836 5.58953 4.7933 5.56446 4.80865 5.53929C4.92344 5.59684 5.31833 5.75645 6.09767 5.86638C6.57673 5.93402 7.21477 5.98442 7.99064 5.98363C8.80753 5.9828 9.44263 5.91702 9.94466 5.84532C10.7056 5.74107 11.1151 5.5473 11.1773 5.49878L11.2327 5.59069L11.2327 5.59076Z" fill="#FFFF00" stroke="black" stroke-width="0.03" stroke-linecap="round" stroke-linejoin="round"/>
<path fill-rule="evenodd" clip-rule="evenodd" d="M4.24614 7.7122C4.94658 8.08731 6.50229 8.27635 7.97446 8.28936C9.3149 8.29148 11.0612 8.08305 11.7142 7.73849L11.6962 7.36304C11.4919 7.68094 9.62056 7.98587 7.95992 7.97339C6.29929 7.96092 4.75721 7.70553 4.24316 7.37492L4.24615 7.7121" fill="#FFFF00"/>
<path d="M4.24614 7.7122C4.94658 8.08731 6.50229 8.27635 7.97446 8.28936C9.3149 8.29148 11.0612 8.08305 11.7142 7.73849L11.6962 7.36304C11.4919 7.68094 9.62056 7.98587 7.95992 7.97339C6.29929 7.96092 4.75721 7.70553 4.24316 7.37492L4.24615 7.7121" stroke="black" stroke-width="0.03" stroke-linecap="round" stroke-linejoin="round"/>
<path fill-rule="evenodd" clip-rule="evenodd" d="M11.7494 7.65809L11.7494 7.74761C11.6513 7.86446 11.0359 8.04107 10.2642 8.16544C9.67683 8.2551 8.91108 8.32273 7.95691 8.32273C7.05042 8.32273 6.32754 8.25837 5.76694 8.17268C4.88079 8.04419 4.31397 7.8192 4.2002 7.75204L4.20069 7.6476C4.54247 7.87385 5.46844 8.03936 5.77937 8.09002C6.33632 8.17515 7.05491 8.23902 7.95688 8.23902C8.90657 8.23902 9.66802 8.17185 10.2517 8.08278C10.8053 8.00314 11.5941 7.79604 11.7494 7.65813L11.7494 7.65809ZM11.7498 7.33963L11.7498 7.42916C11.6517 7.54594 11.0363 7.72254 10.2645 7.84691C9.6772 7.93657 8.91146 8.0042 7.95729 8.0042C7.0508 8.0042 6.32791 7.93991 5.76731 7.85415C4.88116 7.72572 4.31435 7.50073 4.20057 7.43355L4.20107 7.3291C4.54285 7.55532 5.46881 7.72086 5.77975 7.77145C6.3367 7.85665 7.05529 7.92054 7.95726 7.92054C8.90695 7.92054 9.6684 7.85334 10.252 7.76421C10.8057 7.68457 11.5945 7.47746 11.7498 7.33956L11.7498 7.33963Z" fill="#FFFF00" stroke="black" stroke-width="0.03" stroke-linecap="round" stroke-linejoin="round"/>
<path fill-rule="evenodd" clip-rule="evenodd" d="M7.9711 9.76199C6.36022 9.75243 4.97994 9.32478 4.68848 9.25409L4.90101 9.58538C5.41586 9.80101 6.76243 10.1224 7.98656 10.0868C9.21072 10.0512 10.2806 9.95682 11.0345 9.59138L11.2524 9.24805C10.7386 9.48898 8.99013 9.75951 7.9711 9.76199Z" fill="#FFFF00" stroke="black" stroke-width="0.03" stroke-linecap="round" stroke-linejoin="round"/>
<path fill-rule="evenodd" clip-rule="evenodd" d="M11.1169 9.51449C11.0849 9.56321 11.0522 9.61133 11.0191 9.65809C10.6635 9.78294 10.1032 9.91401 9.86677 9.95224C9.38379 10.0513 8.63654 10.1245 7.97335 10.1249C6.54633 10.104 5.37824 9.8259 4.82871 9.58864L4.78437 9.51273L4.79161 9.50132L4.86681 9.53036C5.84406 9.87849 6.94165 10.0174 7.98139 10.0423C8.64191 10.0446 9.30314 9.96694 9.83783 9.87172C10.6578 9.70814 10.9893 9.58485 11.091 9.52895L11.1169 9.51449ZM11.3059 9.20417C11.3067 9.20513 11.3075 9.20605 11.3083 9.20708C11.2844 9.24732 11.2597 9.28827 11.2344 9.32941C11.0448 9.39691 10.5301 9.54687 9.77844 9.65151C9.28322 9.71868 8.97541 9.78374 7.99028 9.80279C6.14427 9.75602 4.94906 9.39662 4.66513 9.30797L4.62305 9.22761C5.69288 9.50568 6.78568 9.69981 7.99034 9.71964C8.89163 9.70053 9.27507 9.63445 9.76618 9.56777C10.6426 9.43208 11.0842 9.28841 11.2167 9.24693C11.2151 9.24455 11.2131 9.24204 11.2109 9.23946L11.3059 9.2041L11.3059 9.20417Z" fill="#FFFF00" stroke="black" stroke-width="0.03" stroke-linecap="round" stroke-linejoin="round"/>
<path fill-rule="evenodd" clip-rule="evenodd" d="M11.3248 7.41605C11.3301 8.47118 10.7878 9.41802 10.351 9.83573C9.73302 10.4267 8.91368 10.8068 7.95684 10.8243C6.88837 10.8439 5.88091 10.1503 5.61068 9.84564C5.08236 9.24995 4.65222 8.4935 4.63844 7.47402C4.70388 6.32244 5.15791 5.52027 5.81605 4.97019C6.4742 4.4201 7.35052 4.1522 8.08034 4.17136C8.92238 4.19349 9.906 4.60479 10.5857 5.42131C11.0309 5.95628 11.2238 6.53686 11.3248 7.41605ZM7.96592 3.80322C10.0179 3.80322 11.7056 5.4659 11.7056 7.50459C11.7056 9.54323 10.0179 11.206 7.96592 11.206C5.9139 11.206 4.24023 9.54327 4.24023 7.50459C4.24023 5.4659 5.9139 3.80322 7.96592 3.80322Z" fill="#FFFF00" stroke="black" stroke-width="0.03" stroke-linecap="round" stroke-linejoin="round"/>
<path fill-rule="evenodd" clip-rule="evenodd" d="M7.97603 3.79053C10.0299 3.79053 11.705 5.45864 11.705 7.50385C11.705 9.54903 10.0299 11.2171 7.97603 11.2171C5.92217 11.2171 4.24707 9.54906 4.24707 7.50385C4.24707 5.45864 5.9222 3.79053 7.97603 3.79053ZM4.32914 7.50387C4.32914 9.50112 5.97632 11.1354 7.97603 11.1354C9.97577 11.1354 11.623 9.50112 11.623 7.50387C11.623 5.50654 9.97574 3.87222 7.97603 3.87222C5.97632 3.87222 4.32914 5.50662 4.32914 7.50387Z" fill="#FFFF00" stroke="black" stroke-width="0.03" stroke-linecap="round" stroke-linejoin="round"/>
<path fill-rule="evenodd" clip-rule="evenodd" d="M7.97819 4.09912C9.85116 4.09912 11.3939 5.62991 11.3939 7.50052C11.3939 9.37117 9.85112 10.9019 7.97819 10.9019C6.10525 10.9019 4.5625 9.37117 4.5625 7.50052C4.5625 5.62991 6.10529 4.09912 7.97819 4.09912ZM4.64453 7.5005C4.64453 9.32619 6.15022 10.8201 7.97819 10.8201C9.80615 10.8201 11.3118 9.32619 11.3118 7.5005C11.3118 5.67477 9.80619 4.18081 7.97819 4.18081C6.15022 4.18081 4.64453 5.67477 4.64453 7.5005Z" fill="#FFFF00" stroke="black" stroke-width="0.03" stroke-linecap="round" stroke-linejoin="round"/>
<path fill-rule="evenodd" clip-rule="evenodd" d="M8.12817 3.77539H7.80859L7.80897 11.2364H8.12965L8.12817 3.77539Z" fill="#FFFF00" stroke="black" stroke-width="0.03" stroke-linecap="round" stroke-linejoin="round"/>
<path fill-rule="evenodd" clip-rule="evenodd" d="M8.09646 3.73291H8.1778L8.1785 11.2798H8.09709L8.09646 3.73291ZM7.7793 3.73298H7.86127L7.86139 11.2799H7.77935V3.73298H7.7793Z" fill="#FFFF00" stroke="black" stroke-width="0.03" stroke-linecap="round" stroke-linejoin="round"/>
<path fill-rule="evenodd" clip-rule="evenodd" d="M11.7072 7.64753V7.3717L11.4816 7.16245L10.2011 6.82495L8.35567 6.63745L6.1336 6.74995L4.5518 7.12495L4.23242 7.36045V7.63635L5.0414 7.27496L6.96217 6.97496H8.80761L10.1634 7.12496L11.105 7.34996L11.7072 7.64753Z" fill="#FFFF00" stroke="black" stroke-width="0.03" stroke-linecap="round" stroke-linejoin="round"/>
<path fill-rule="evenodd" clip-rule="evenodd" d="M7.97717 6.92883C8.85783 6.92721 9.71227 7.01191 10.39 7.14331C11.0893 7.28251 11.5815 7.45664 11.7498 7.65222L11.7496 7.74906C11.5467 7.50567 10.8844 7.32726 10.3743 7.22526C9.70168 7.09498 8.85297 7.01088 7.97717 7.0125C7.05302 7.01422 6.19248 7.10136 5.52974 7.23012C4.99795 7.33519 4.28874 7.54391 4.2002 7.74979V7.64895C4.24882 7.50644 4.77691 7.29348 5.51777 7.14582C6.18548 7.01617 7.0476 6.93051 7.97717 6.92883ZM7.97755 6.61037C8.8582 6.60879 9.71264 6.69352 10.3904 6.82485C11.0897 6.96412 11.5819 7.13819 11.7502 7.33376L11.75 7.4306C11.547 7.18728 10.8848 7.00884 10.3746 6.90687C9.70206 6.77654 8.85335 6.69243 7.97755 6.69411C7.0534 6.69577 6.19704 6.78298 5.53422 6.91167C5.02104 7.00854 4.28286 7.22553 4.20053 7.43142V7.33051C4.24916 7.18956 4.78795 6.96896 5.51814 6.82737C6.18585 6.69773 7.04798 6.61212 7.97755 6.61037Z" fill="#FFFF00" stroke="black" stroke-width="0.03" stroke-linecap="round" stroke-linejoin="round"/>
<path fill-rule="evenodd" clip-rule="evenodd" d="M7.95949 4.98601C9.3473 4.9791 10.5578 5.17922 11.1116 5.4617L11.3136 5.80966C10.8323 5.55136 9.52634 5.28279 7.96152 5.32295C6.6865 5.33076 5.32415 5.46272 4.64062 5.82583L4.88179 5.42424C5.44277 5.13458 6.76573 4.98763 7.95954 4.98609" fill="#FFFF00"/>
<path d="M7.95949 4.98601C9.3473 4.9791 10.5578 5.17922 11.1116 5.4617L11.3136 5.80966C10.8323 5.55136 9.52634 5.28279 7.96152 5.32295C6.6865 5.33076 5.32415 5.46272 4.64062 5.82583L4.88179 5.42424C5.44277 5.13458 6.76573 4.98763 7.95954 4.98609" stroke="black" stroke-width="0.03" stroke-linecap="round" stroke-linejoin="round"/>
<path fill-rule="evenodd" clip-rule="evenodd" d="M7.97773 5.27331C8.76927 5.27122 9.53412 5.31567 10.1424 5.42494C10.7089 5.52992 11.2491 5.68748 11.3263 5.77221L11.3862 5.87758C11.1984 5.75544 10.7309 5.61945 10.1306 5.50611C9.52779 5.3933 8.76348 5.35592 7.97634 5.35797C7.08292 5.35493 6.38881 5.40189 5.79311 5.50532C5.1631 5.62269 4.72599 5.79037 4.61816 5.87004L4.67685 5.75865C4.88637 5.65223 5.21881 5.52393 5.77745 5.42379C6.39349 5.31174 7.09498 5.27814 7.97778 5.27331L7.97773 5.27331ZM7.97739 4.95514C8.73489 4.95316 9.48282 4.9952 10.0658 5.09954C10.5256 5.18867 10.9804 5.32781 11.1469 5.45164L11.2345 5.59022C11.0856 5.42541 10.5251 5.26924 10.0303 5.18176C9.45173 5.08241 8.73487 5.04309 7.97738 5.0368C7.18241 5.03902 6.44773 5.08751 5.87764 5.19086C5.33376 5.29391 4.98279 5.41592 4.83429 5.5112L4.91131 5.39545C5.11625 5.28803 5.44732 5.18937 5.86427 5.1087C6.43858 5.00459 7.17775 4.95736 7.97739 4.95514Z" fill="#FFFF00" stroke="black" stroke-width="0.03" stroke-linecap="round" stroke-linejoin="round"/>
<path fill-rule="evenodd" clip-rule="evenodd" d="M9.83078 9.04724C9.14465 8.91971 8.45728 8.90119 7.97716 8.90682C5.66445 8.9338 4.91735 9.37965 4.82617 9.51465L4.65332 9.2341C5.24213 8.80915 6.50151 8.57083 7.98969 8.59521C8.76244 8.60781 9.42929 8.65891 9.99026 8.76709L9.83073 9.04732" fill="#FFFF00"/>
<path d="M9.83078 9.04724C9.14465 8.91971 8.45728 8.90119 7.97716 8.90682C5.66445 8.9338 4.91735 9.37965 4.82617 9.51465L4.65332 9.2341C5.24213 8.80915 6.50151 8.57083 7.98969 8.59521C8.76244 8.60781 9.42929 8.65891 9.99026 8.76709L9.83073 9.04732" stroke="black" stroke-width="0.03" stroke-linecap="round" stroke-linejoin="round"/>
<path fill-rule="evenodd" clip-rule="evenodd" d="M7.96332 8.86729C8.60666 8.87685 9.23814 8.9033 9.84766 9.01648L9.80352 9.09406C9.23742 8.99002 8.63393 8.9502 7.9655 8.95344C7.11197 8.94679 6.24867 9.02617 5.49709 9.24094C5.25994 9.30666 4.86734 9.45847 4.82731 9.58391L4.7834 9.51181C4.79605 9.43767 5.03333 9.28378 5.47691 9.15969C6.33779 8.91422 7.14304 8.87284 7.96332 8.86722L7.96332 8.86729ZM7.99251 8.54493C8.65906 8.55733 9.3474 8.58802 10.0165 8.71998L9.9705 8.80074C9.36633 8.68132 8.78908 8.6415 7.99644 8.62936C7.1402 8.63091 6.23194 8.6917 5.40612 8.93076C5.13951 9.00808 4.67936 9.17526 4.66403 9.30763L4.62012 9.23017C4.63011 9.10995 5.02845 8.95312 5.38684 8.84932C6.21902 8.60842 7.12964 8.54648 7.99251 8.54493Z" fill="#FFFF00" stroke="black" stroke-width="0.03" stroke-linecap="round" stroke-linejoin="round"/>
<path fill-rule="evenodd" clip-rule="evenodd" d="M11.2772 9.27665L10.9993 9.70599L10.2008 8.9999L8.12942 7.6124L5.79437 6.3374L4.58203 5.92453L4.84039 5.44753L4.92815 5.3999L5.68139 5.5874L8.16708 6.8624L9.59824 7.7624L10.8034 8.6249L11.293 9.1874L11.2772 9.27665Z" fill="#FFFF00" stroke="black" stroke-width="0.03" stroke-linecap="round" stroke-linejoin="round"/>
<path fill-rule="evenodd" clip-rule="evenodd" d="M4.53915 5.93575C4.75179 5.79215 6.3145 6.48532 7.94964 7.46703C9.58044 8.45155 11.1388 9.56406 10.9981 9.77226L10.9518 9.84473L10.9306 9.86139C10.9351 9.85816 10.9586 9.82961 10.9283 9.75242C10.8588 9.52478 9.75343 8.64651 7.91932 7.54386C6.13132 6.48227 4.64118 5.84245 4.49219 6.02533L4.53915 5.93575ZM11.3349 9.27052C11.4693 9.00607 10.0199 7.91887 8.2228 6.86032C6.3844 5.82284 5.05941 5.21215 4.8174 5.39425L4.76362 5.49172C4.76316 5.49708 4.76558 5.48507 4.77694 5.47634C4.82095 5.43811 4.89389 5.44069 4.92681 5.44009C5.34354 5.44631 6.53373 5.99168 8.20363 6.94489C8.93533 7.3692 11.2946 8.8758 11.2856 9.29948C11.2862 9.33589 11.2886 9.3434 11.2749 9.36143L11.3349 9.27052Z" fill="#FFFF00"/>
<path d="M11.3349 9.27052C11.4693 9.00607 10.0199 7.91887 8.2228 6.86032C6.3844 5.82284 5.05941 5.21215 4.8174 5.39425L4.76362 5.49172C4.76316 5.49708 4.76558 5.48507 4.77694 5.47634C4.82095 5.43811 4.89389 5.44069 4.92681 5.44009C5.34354 5.44631 6.53373 5.99168 8.20363 6.94489C8.93533 7.3692 11.2946 8.8758 11.2856 9.29948C11.2862 9.33589 11.2886 9.3434 11.2749 9.36143L11.3349 9.27052ZM11.3349 9.27052L11.3349 9.27047M4.53915 5.93575C4.75179 5.79215 6.3145 6.48532 7.94964 7.46703C9.58044 8.45155 11.1388 9.56407 10.9981 9.77227L10.9518 9.84473L10.9306 9.8614C10.9351 9.85816 10.9586 9.82961 10.9283 9.75242C10.8588 9.52478 9.75343 8.64651 7.91932 7.54386C6.13132 6.48227 4.64118 5.84245 4.49219 6.02533L4.53915 5.93575Z" stroke="black" stroke-width="0.03" stroke-linecap="round" stroke-linejoin="round"/>
<path d="M5.74174 7.91287C5.74174 8.52303 5.99267 9.07488 6.39921 9.4782C6.80652 9.88237 7.36004 10.1374 7.97382 10.1374C8.59076 10.1374 9.15065 9.88794 9.55623 9.48532C9.96181 9.08276 10.2132 8.52712 10.2133 7.91482H10.2132V4.94523L5.74121 4.93994L5.74167 7.91287L5.74174 7.91287Z" fill="white" stroke="black" stroke-width="0.03"/>
<path d="M5.82526 7.91713V7.91882C5.82526 8.50221 6.06786 9.03347 6.45704 9.41916C6.84699 9.80559 7.38406 10.0459 7.97158 10.0459C8.56216 10.0459 9.09813 9.80733 9.48643 9.42238C9.87465 9.03744 10.1153 8.50614 10.1153 7.92073H10.1153V5.03976L5.82782 5.03906L5.8252 7.91711M9.25327 5.9016L9.25342 7.73501L9.25186 7.92895C9.25186 7.97998 9.24881 8.03816 9.24283 8.0877C9.20799 8.37755 9.0741 8.63021 8.87581 8.82675C8.64368 9.05684 8.32327 9.19955 7.97015 9.19955C7.61888 9.19955 7.30583 9.05188 7.0727 8.8208C6.83356 8.5838 6.69495 8.25882 6.69495 7.92279L6.69445 5.89692L9.25321 5.90152L9.25327 5.9016Z" fill="#FF0000"/>
<path d="M5.82526 7.91713V7.91882C5.82526 8.50221 6.06786 9.03347 6.45704 9.41916C6.84699 9.80559 7.38406 10.0459 7.97158 10.0459C8.56216 10.0459 9.09813 9.80733 9.48643 9.42238C9.87465 9.03744 10.1153 8.50614 10.1153 7.92073H10.1153V5.03976L5.82782 5.03906L5.8252 7.91711M9.25327 5.9016L9.25342 7.73501L9.25186 7.92895C9.25186 7.97998 9.24881 8.03816 9.24283 8.0877C9.20799 8.37755 9.0741 8.63021 8.87581 8.82675C8.64368 9.05684 8.32327 9.19955 7.97015 9.19955C7.61888 9.19955 7.30583 9.05188 7.0727 8.8208C6.83356 8.5838 6.69495 8.25882 6.69495 7.92279L6.69445 5.89692L9.25321 5.90152L9.25327 5.9016Z" stroke="black" stroke-width="0.03"/>
<path d="M6.10352 5.79096C6.1086 5.58393 6.25614 5.53491 6.2572 5.53419C6.25826 5.53349 6.41656 5.58697 6.41603 5.79288L6.10352 5.79096Z" fill="#FFFF00"/>
<path d="M5.97587 5.5381L5.9502 5.77603L6.10614 5.77637C6.10763 5.57952 6.2558 5.54677 6.25939 5.5475C6.26275 5.54731 6.40962 5.59102 6.41354 5.77637H6.56988L6.54164 5.53662L5.97588 5.53804L5.97587 5.5381Z" fill="#FFFF00" stroke="black" stroke-width="0.03"/>
<path d="M5.93949 5.7771H6.57771C6.59116 5.7771 6.60215 5.79033 6.60215 5.8065C6.60215 5.82264 6.59116 5.8358 6.57771 5.8358H5.93949C5.92603 5.8358 5.91504 5.82264 5.91504 5.8065C5.91504 5.79033 5.92603 5.7771 5.93949 5.7771Z" fill="#FFFF00" stroke="black" stroke-width="0.03"/>
<path d="M6.17188 5.77601C6.17257 5.65179 6.25707 5.61663 6.2575 5.6167C6.25754 5.6167 6.34572 5.65295 6.34642 5.77601H6.17188Z" fill="#FFFF00" stroke="black" stroke-width="0.03"/>
<path d="M5.95314 5.43921H6.56496C6.57784 5.43921 6.58841 5.45115 6.58841 5.46563C6.58841 5.48015 6.57784 5.49206 6.56496 5.49206H5.95314C5.94025 5.49206 5.92969 5.48022 5.92969 5.46563C5.92969 5.45115 5.94025 5.43921 5.95314 5.43921Z" fill="#FFFF00" stroke="black" stroke-width="0.03"/>
<path d="M5.96578 5.49268H6.55097C6.5633 5.49268 6.57339 5.50455 6.57339 5.51907C6.57339 5.53362 6.5633 5.54549 6.55097 5.54549H5.96578C5.95346 5.54549 5.94336 5.53362 5.94336 5.51907C5.94336 5.50455 5.95346 5.49268 5.96578 5.49268Z" fill="#FFFF00" stroke="black" stroke-width="0.03"/>
<path d="M6.15435 5.09538L6.20055 5.09545V5.12813H6.23427V5.09473L6.2816 5.09488V5.12815H6.31541V5.09474H6.36277L6.3627 5.17018C6.3627 5.18202 6.35313 5.1897 6.34204 5.1897H6.1759C6.16474 5.1897 6.15444 5.1808 6.15441 5.16995L6.1543 5.09541L6.15435 5.09538Z" fill="#FFFF00" stroke="black" stroke-width="0.03"/>
<path d="M6.32936 5.19643L6.33979 5.43836L6.17773 5.43776L6.18846 5.1958L6.32936 5.19643Z" fill="#FFFF00" stroke="black" stroke-width="0.03"/>
<path d="M6.13187 5.30835L6.13682 5.43876L5.98145 5.43883L5.98583 5.30836L6.13187 5.30835Z" fill="#FFFF00" stroke="black" stroke-width="0.03"/>
<path d="M6.53031 5.30835L6.53526 5.43876L6.37988 5.43883L6.38427 5.30836L6.53031 5.30835Z" fill="#FFFF00" stroke="black" stroke-width="0.03"/>
<path d="M5.95709 5.21403L6.00226 5.21414V5.24685H6.03531V5.21338L6.08161 5.21353V5.24687H6.11472V5.2134L6.16106 5.21347L6.16098 5.28891C6.16098 5.30068 6.15161 5.30836 6.14079 5.30836H5.9782C5.96731 5.30836 5.95718 5.29953 5.95714 5.28865L5.95703 5.21407L5.95709 5.21403Z" fill="#FFFF00" stroke="black" stroke-width="0.03"/>
<path d="M6.35552 5.21403L6.4007 5.21414V5.24685H6.43375V5.21338L6.48005 5.21353V5.24687H6.51316V5.2134L6.55949 5.21347L6.55942 5.28891C6.55942 5.30068 6.55005 5.30836 6.53922 5.30836H6.37664C6.36575 5.30836 6.35562 5.29953 6.35558 5.28865L6.35547 5.21407L6.35552 5.21403Z" fill="#FFFF00" stroke="black" stroke-width="0.03"/>
<path d="M6.24221 5.27262C6.24121 5.2491 6.27522 5.24884 6.27483 5.27262V5.33023H6.24221L6.24221 5.27262Z" fill="black"/>
<path d="M6.04199 5.35633C6.04188 5.3336 6.07351 5.33314 6.07311 5.35633V5.40084H6.04201L6.04199 5.35633Z" fill="black"/>
<path d="M6.44238 5.35633C6.44227 5.3336 6.4739 5.33314 6.4735 5.35633V5.40084H6.4424L6.44238 5.35633Z" fill="black"/>
<path d="M6.10352 7.52778C6.1086 7.32074 6.25614 7.27173 6.2572 7.271C6.25826 7.27031 6.41656 7.32379 6.41603 7.5297L6.10352 7.52778Z" fill="#FFFF00"/>
<path d="M5.97587 7.27492L5.9502 7.51285L6.10614 7.51318C6.10763 7.31633 6.2558 7.28359 6.25939 7.28432C6.26275 7.28413 6.40962 7.32784 6.41354 7.51318H6.56988L6.54164 7.27344L5.97588 7.27486L5.97587 7.27492Z" fill="#FFFF00" stroke="black" stroke-width="0.03"/>
<path d="M5.93949 7.51392H6.57771C6.59116 7.51392 6.60215 7.52714 6.60215 7.54332C6.60215 7.55946 6.59116 7.57262 6.57771 7.57262H5.93949C5.92603 7.57262 5.91504 7.55946 5.91504 7.54332C5.91504 7.52714 5.92603 7.51392 5.93949 7.51392Z" fill="#FFFF00" stroke="black" stroke-width="0.03"/>
<path d="M6.17188 7.51283C6.17257 7.3886 6.25707 7.35345 6.2575 7.35352C6.25754 7.35352 6.34572 7.38976 6.34642 7.51283H6.17188Z" fill="#FFFF00" stroke="black" stroke-width="0.03"/>
<path d="M5.95314 7.17603H6.56496C6.57784 7.17603 6.58841 7.18797 6.58841 7.20245C6.58841 7.21697 6.57784 7.22888 6.56496 7.22888H5.95314C5.94025 7.22888 5.92969 7.21704 5.92969 7.20245C5.92969 7.18797 5.94025 7.17603 5.95314 7.17603Z" fill="#FFFF00" stroke="black" stroke-width="0.03"/>
<path d="M5.96578 7.22949H6.55097C6.5633 7.22949 6.57339 7.24137 6.57339 7.25588C6.57339 7.27044 6.5633 7.28231 6.55097 7.28231H5.96578C5.95346 7.28231 5.94336 7.27044 5.94336 7.25588C5.94336 7.24137 5.95346 7.22949 5.96578 7.22949Z" fill="#FFFF00" stroke="black" stroke-width="0.03"/>
<path d="M6.15435 6.8322L6.20055 6.83227V6.86495H6.23427V6.83154L6.2816 6.83169V6.86496H6.31541V6.83156H6.36277L6.3627 6.907C6.3627 6.91884 6.35313 6.92651 6.34204 6.92651H6.1759C6.16474 6.92651 6.15444 6.91762 6.15441 6.90677L6.1543 6.83222L6.15435 6.8322Z" fill="#FFFF00" stroke="black" stroke-width="0.03"/>
<path d="M6.32936 6.93325L6.33979 7.17517L6.17773 7.17458L6.18846 6.93262L6.32936 6.93325Z" fill="#FFFF00" stroke="black" stroke-width="0.03"/>
<path d="M6.13187 7.04517L6.13682 7.17557L5.98145 7.17565L5.98583 7.04517L6.13187 7.04517Z" fill="#FFFF00" stroke="black" stroke-width="0.03"/>
<path d="M6.53031 7.04517L6.53526 7.17557L6.37988 7.17565L6.38427 7.04517L6.53031 7.04517Z" fill="#FFFF00" stroke="black" stroke-width="0.03"/>
<path d="M5.95709 6.95084L6.00226 6.95096V6.98367H6.03531V6.9502L6.08161 6.95035V6.98368H6.11472V6.95021L6.16106 6.95029L6.16098 7.02573C6.16098 7.0375 6.15161 7.04517 6.14079 7.04517H5.9782C5.96731 7.04517 5.95718 7.03634 5.95714 7.02546L5.95703 6.95088L5.95709 6.95084Z" fill="#FFFF00" stroke="black" stroke-width="0.03"/>
<path d="M6.35552 6.95084L6.4007 6.95096V6.98367H6.43375V6.9502L6.48005 6.95035V6.98368H6.51316V6.95021L6.55949 6.95029L6.55942 7.02573C6.55942 7.0375 6.55005 7.04517 6.53922 7.04517H6.37664C6.36575 7.04517 6.35562 7.03634 6.35558 7.02546L6.35547 6.95088L6.35552 6.95084Z" fill="#FFFF00" stroke="black" stroke-width="0.03"/>
<path d="M6.24221 7.00943C6.24121 6.98592 6.27522 6.98566 6.27483 7.00943V7.06705H6.24221L6.24221 7.00943Z" fill="black"/>
<path d="M6.04199 7.09314C6.04188 7.07042 6.07351 7.06996 6.07311 7.09314V7.13766H6.04201L6.04199 7.09314Z" fill="black"/>
<path d="M6.44238 7.09314C6.44227 7.07042 6.4739 7.06996 6.4735 7.09314V7.13766H6.4424L6.44238 7.09314Z" fill="black"/>
<path d="M6.78367 9.33604C6.63963 9.18651 6.70861 9.04775 6.70884 9.04649C6.70909 9.04525 6.85872 8.97114 7.00516 9.11667L6.78367 9.33604Z" fill="#FFFF00"/>
<path d="M6.51328 9.2478L6.66486 9.43368L6.77495 9.32376C6.63564 9.18392 6.71667 9.05617 6.71971 9.05415C6.72194 9.05165 6.85657 8.97872 6.9915 9.10662L7.10163 8.99619L6.91079 8.8471L6.51325 9.24775L6.51328 9.2478Z" fill="#FFFF00" stroke="black" stroke-width="0.03"/>
<path d="M6.65785 9.44171L7.10752 8.99081C7.11699 8.98131 7.13417 8.98287 7.14571 8.99427C7.15722 9.00565 7.15886 9.0227 7.14938 9.03221L6.69972 9.48311C6.69024 9.49261 6.6731 9.4911 6.66159 9.47972C6.65006 9.46831 6.64837 9.45122 6.65785 9.44171Z" fill="#FFFF00" stroke="black" stroke-width="0.03"/>
<path d="M6.82159 9.27709C6.73352 9.18904 6.76797 9.10458 6.76832 9.10432C6.76834 9.10429 6.8563 9.06757 6.94453 9.15382L6.82159 9.27709Z" fill="#FFFF00" stroke="black" stroke-width="0.03"/>
<path d="M6.42668 9.19413L6.85775 8.76188C6.86683 8.75277 6.88278 8.75373 6.89311 8.76394C6.90347 8.77418 6.90452 8.79004 6.89544 8.79914L6.46437 9.23139C6.45529 9.2405 6.4394 9.23961 6.429 9.22933C6.41867 9.21911 6.4176 9.20323 6.42668 9.19413Z" fill="#FFFF00" stroke="black" stroke-width="0.03"/>
<path d="M6.47478 9.22244L6.88709 8.809C6.89577 8.8003 6.91135 8.80154 6.92171 8.81177C6.93208 8.82204 6.93344 8.83754 6.92476 8.84625L6.51245 9.25969C6.50377 9.26839 6.48819 9.26715 6.47781 9.25689C6.46745 9.24665 6.4661 9.23115 6.47478 9.22244Z" fill="#FFFF00" stroke="black" stroke-width="0.03"/>
<path d="M6.32375 8.80901L6.35635 8.77643L6.37965 8.79947L6.40339 8.77566L6.37958 8.75211L6.41302 8.71878L6.43675 8.74224L6.46057 8.71835L6.43675 8.6948L6.47011 8.66135L6.52385 8.71458C6.53229 8.72293 6.53103 8.7351 6.52321 8.74293L6.40618 8.86029C6.39832 8.86817 6.38472 8.86917 6.37696 8.86155L6.32373 8.80907L6.32375 8.80901Z" fill="#FFFF00" stroke="black" stroke-width="0.03"/>
<path d="M6.51837 8.75738L6.69818 8.92054L6.58362 9.03456L6.41869 8.85644L6.51837 8.75738Z" fill="#FFFF00" stroke="black" stroke-width="0.03"/>
<path d="M6.45947 8.97603L6.55593 9.06446L6.44655 9.17425L6.35661 9.07918L6.45947 8.97603Z" fill="#FFFF00" stroke="black" stroke-width="0.03"/>
<path d="M6.74072 8.6938L6.83718 8.78223L6.7278 8.89203L6.63786 8.79696L6.74072 8.6938Z" fill="#FFFF00" stroke="black" stroke-width="0.03"/>
<path d="M6.26906 9.03289L6.30096 9.00106L6.32428 9.02412L6.34756 9.00078L6.32369 8.97718L6.35642 8.94458L6.38019 8.96808L6.40352 8.94469L6.37965 8.9211L6.41234 8.88842L6.46608 8.94166C6.47448 8.94996 6.47335 8.96198 6.46572 8.96963L6.35119 9.08448C6.34352 9.09217 6.33009 9.0931 6.3223 9.08545L6.26904 9.03296L6.26906 9.03289Z" fill="#FFFF00" stroke="black" stroke-width="0.03"/>
<path d="M6.55128 8.75042L6.58318 8.71859L6.60651 8.74165L6.62979 8.7183L6.60592 8.69471L6.63864 8.66211L6.66242 8.68561L6.68574 8.66222L6.66188 8.63862L6.69457 8.60595L6.74831 8.65919C6.7567 8.66749 6.75558 8.67951 6.74795 8.68716L6.63342 8.80201C6.62575 8.8097 6.61231 8.81063 6.60453 8.80298L6.55127 8.75048L6.55128 8.75042Z" fill="#FFFF00" stroke="black" stroke-width="0.03"/>
<path d="M6.51266 8.8721C6.49519 8.85624 6.51896 8.83203 6.53563 8.84907L6.5767 8.88968L6.55373 8.91271L6.51266 8.8721Z" fill="black"/>
<path d="M6.43024 9.07268C6.41396 9.05675 6.43591 9.03408 6.45216 9.0507L6.48389 9.08208L6.46198 9.10405L6.43024 9.07268Z" fill="black"/>
<path d="M6.71247 8.78948C6.69619 8.77354 6.71814 8.75088 6.73438 8.7675L6.76612 8.79887L6.74421 8.82084L6.71247 8.78948Z" fill="black"/>
<path d="M7.82422 5.79096C7.8293 5.58393 7.97684 5.53491 7.9779 5.53419C7.97896 5.53349 8.13727 5.58697 8.13673 5.79288L7.82422 5.79096Z" fill="#FFFF00"/>
<path d="M7.69755 5.5381L7.67188 5.77603L7.82782 5.77637C7.82931 5.57952 7.97748 5.54677 7.98107 5.5475C7.98443 5.54731 8.1313 5.59102 8.13522 5.77637H8.29156L8.26332 5.53662L7.69756 5.53804L7.69755 5.5381Z" fill="#FFFF00" stroke="black" stroke-width="0.03"/>
<path d="M7.66116 5.7771H8.29939C8.31284 5.7771 8.32383 5.79033 8.32383 5.8065C8.32383 5.82264 8.31284 5.8358 8.29939 5.8358H7.66116C7.64771 5.8358 7.63672 5.82264 7.63672 5.8065C7.63672 5.79033 7.64771 5.7771 7.66116 5.7771Z" fill="#FFFF00" stroke="black" stroke-width="0.03"/>
<path d="M7.89355 5.77601C7.89425 5.65179 7.97875 5.61663 7.97918 5.6167C7.97922 5.6167 8.0674 5.65295 8.0681 5.77601H7.89355Z" fill="#FFFF00" stroke="black" stroke-width="0.03"/>
<path d="M7.67482 5.43921H8.28664C8.29952 5.43921 8.31009 5.45115 8.31009 5.46563C8.31009 5.48015 8.29952 5.49206 8.28664 5.49206H7.67482C7.66193 5.49206 7.65137 5.48022 7.65137 5.46563C7.65137 5.45115 7.66193 5.43921 7.67482 5.43921Z" fill="#FFFF00" stroke="black" stroke-width="0.03"/>
<path d="M7.68746 5.49268H8.27265C8.28497 5.49268 8.29507 5.50455 8.29507 5.51907C8.29507 5.53362 8.28497 5.54549 8.27265 5.54549H7.68746C7.67514 5.54549 7.66504 5.53362 7.66504 5.51907C7.66504 5.50455 7.67514 5.49268 7.68746 5.49268Z" fill="#FFFF00" stroke="black" stroke-width="0.03"/>
<path d="M7.87603 5.09538L7.92223 5.09545V5.12813H7.95595V5.09473L8.00328 5.09488V5.12815H8.03709V5.09474H8.08445L8.08438 5.17018C8.08438 5.18202 8.07481 5.1897 8.06372 5.1897H7.89758C7.88642 5.1897 7.87612 5.1808 7.87609 5.16995L7.87598 5.09541L7.87603 5.09538Z" fill="#FFFF00" stroke="black" stroke-width="0.03"/>
<path d="M8.05104 5.19643L8.06147 5.43836L7.89941 5.43776L7.91014 5.1958L8.05104 5.19643Z" fill="#FFFF00" stroke="black" stroke-width="0.03"/>
<path d="M7.85258 5.30835L7.85753 5.43876L7.70215 5.43883L7.70653 5.30836L7.85258 5.30835Z" fill="#FFFF00" stroke="black" stroke-width="0.03"/>
<path d="M8.25199 5.30835L8.25694 5.43876L8.10156 5.43883L8.10595 5.30836L8.25199 5.30835Z" fill="#FFFF00" stroke="black" stroke-width="0.03"/>
<path d="M7.67779 5.21403L7.72296 5.21414V5.24685H7.75601V5.21338L7.80231 5.21353V5.24687H7.83543V5.2134L7.88176 5.21347L7.88168 5.28891C7.88168 5.30068 7.87232 5.30836 7.86149 5.30836H7.69891C7.68801 5.30836 7.67788 5.29953 7.67785 5.28865L7.67773 5.21407L7.67779 5.21403Z" fill="#FFFF00" stroke="black" stroke-width="0.03"/>
<path d="M8.0772 5.21403L8.12238 5.21414V5.24685H8.15542V5.21338L8.20173 5.21353V5.24687H8.23484V5.2134L8.28117 5.21347L8.2811 5.28891C8.2811 5.30068 8.27173 5.30836 8.2609 5.30836H8.09832C8.08743 5.30836 8.0773 5.29953 8.07726 5.28865L8.07715 5.21407L8.0772 5.21403Z" fill="#FFFF00" stroke="black" stroke-width="0.03"/>
<path d="M7.96389 5.27262C7.96289 5.2491 7.9969 5.24884 7.99651 5.27262V5.33023H7.96389L7.96389 5.27262Z" fill="black"/>
<path d="M7.76367 5.35633C7.76356 5.3336 7.79519 5.33314 7.79479 5.35633V5.40084H7.76368L7.76367 5.35633Z" fill="black"/>
<path d="M8.16406 5.35633C8.16395 5.3336 8.19558 5.33314 8.19518 5.35633V5.40084H8.16408L8.16406 5.35633Z" fill="black"/>
<path d="M9.84766 5.79096C9.84257 5.58393 9.69503 5.53491 9.69397 5.53419C9.69291 5.53349 9.53461 5.58697 9.53514 5.79288L9.84766 5.79096Z" fill="#FFFF00"/>
<path d="M9.9753 5.5381L10.001 5.77603L9.84503 5.77637C9.84354 5.57952 9.69537 5.54677 9.69178 5.5475C9.68843 5.54731 9.54155 5.59102 9.53764 5.77637H9.3813L9.40953 5.53662L9.97529 5.53804L9.9753 5.5381Z" fill="#FFFF00" stroke="black" stroke-width="0.03"/>
<path d="M10.0117 5.7771H9.37347C9.36001 5.7771 9.34902 5.79033 9.34902 5.8065C9.34902 5.82264 9.36001 5.8358 9.37347 5.8358H10.0117C10.0251 5.8358 10.0361 5.82264 10.0361 5.8065C10.0361 5.79033 10.0251 5.7771 10.0117 5.7771Z" fill="#FFFF00" stroke="black" stroke-width="0.03"/>
<path d="M9.7793 5.77601C9.7786 5.65179 9.6941 5.61663 9.69367 5.6167C9.69364 5.6167 9.60545 5.65295 9.60475 5.77601H9.7793Z" fill="#FFFF00" stroke="black" stroke-width="0.03"/>
<path d="M9.99803 5.43921H9.38621C9.37333 5.43921 9.36276 5.45115 9.36276 5.46563C9.36276 5.48015 9.37333 5.49206 9.38621 5.49206H9.99803C10.0109 5.49206 10.0215 5.48022 10.0215 5.46563C10.0215 5.45115 10.0109 5.43921 9.99803 5.43921Z" fill="#FFFF00" stroke="black" stroke-width="0.03"/>
<path d="M9.98539 5.49268H9.4002C9.38788 5.49268 9.37778 5.50455 9.37778 5.51907C9.37778 5.53362 9.38788 5.54549 9.4002 5.54549H9.98539C9.99772 5.54549 10.0078 5.53362 10.0078 5.51907C10.0078 5.50455 9.99772 5.49268 9.98539 5.49268Z" fill="#FFFF00" stroke="black" stroke-width="0.03"/>
<path d="M9.79682 5.09538L9.75062 5.09545V5.12813H9.7169V5.09473L9.66957 5.09488V5.12815H9.63576V5.09474H9.5884L9.58847 5.17018C9.58847 5.18202 9.59804 5.1897 9.60913 5.1897H9.77527C9.78643 5.1897 9.79673 5.1808 9.79676 5.16995L9.79688 5.09541L9.79682 5.09538Z" fill="#FFFF00" stroke="black" stroke-width="0.03"/>
<path d="M9.62181 5.19643L9.61139 5.43836L9.77344 5.43776L9.76271 5.1958L9.62181 5.19643Z" fill="#FFFF00" stroke="black" stroke-width="0.03"/>
<path d="M9.8193 5.30835L9.81435 5.43876L9.96973 5.43883L9.96534 5.30836L9.8193 5.30835Z" fill="#FFFF00" stroke="black" stroke-width="0.03"/>
<path d="M9.41988 5.30835L9.41493 5.43876L9.57031 5.43883L9.56593 5.30836L9.41988 5.30835Z" fill="#FFFF00" stroke="black" stroke-width="0.03"/>
<path d="M9.99408 5.21403L9.94891 5.21414V5.24685H9.91586V5.21338L9.86956 5.21353V5.24687H9.83645V5.2134L9.79012 5.21347L9.79019 5.28891C9.79019 5.30068 9.79956 5.30836 9.81039 5.30836H9.97297C9.98386 5.30836 9.99399 5.29953 9.99403 5.28865L9.99414 5.21407L9.99408 5.21403Z" fill="#FFFF00" stroke="black" stroke-width="0.03"/>
<path d="M9.59467 5.21403L9.5495 5.21414V5.24685H9.51645V5.21338L9.47015 5.21353V5.24687H9.43703V5.2134L9.3907 5.21347L9.39078 5.28891C9.39078 5.30068 9.40014 5.30836 9.41097 5.30836H9.57356C9.58445 5.30836 9.59458 5.29953 9.59461 5.28865L9.59473 5.21407L9.59467 5.21403Z" fill="#FFFF00" stroke="black" stroke-width="0.03"/>
<path d="M9.70896 5.27262C9.70996 5.2491 9.67595 5.24884 9.67635 5.27262V5.33023H9.70896L9.70896 5.27262Z" fill="black"/>
<path d="M9.90918 5.35633C9.90929 5.3336 9.87766 5.33314 9.87806 5.35633V5.40084H9.90917L9.90918 5.35633Z" fill="black"/>
<path d="M9.50879 5.35633C9.5089 5.3336 9.47727 5.33314 9.47767 5.35633V5.40084H9.50878L9.50879 5.35633Z" fill="black"/>
<path d="M9.84766 7.52778C9.84257 7.32074 9.69503 7.27173 9.69397 7.271C9.69291 7.27031 9.53461 7.32379 9.53514 7.5297L9.84766 7.52778Z" fill="#FFFF00"/>
<path d="M9.9753 7.27492L10.001 7.51285L9.84503 7.51318C9.84354 7.31633 9.69537 7.28359 9.69178 7.28432C9.68843 7.28413 9.54155 7.32784 9.53764 7.51318H9.3813L9.40953 7.27344L9.97529 7.27486L9.9753 7.27492Z" fill="#FFFF00" stroke="black" stroke-width="0.03"/>
<path d="M10.0117 7.51392H9.37347C9.36001 7.51392 9.34902 7.52714 9.34902 7.54332C9.34902 7.55946 9.36001 7.57262 9.37347 7.57262H10.0117C10.0251 7.57262 10.0361 7.55946 10.0361 7.54332C10.0361 7.52714 10.0251 7.51392 10.0117 7.51392Z" fill="#FFFF00" stroke="black" stroke-width="0.03"/>
<path d="M9.7793 7.51283C9.7786 7.3886 9.6941 7.35345 9.69367 7.35352C9.69364 7.35352 9.60545 7.38976 9.60475 7.51283H9.7793Z" fill="#FFFF00" stroke="black" stroke-width="0.03"/>
<path d="M9.99803 7.17603H9.38621C9.37333 7.17603 9.36276 7.18797 9.36276 7.20245C9.36276 7.21697 9.37333 7.22888 9.38621 7.22888H9.99803C10.0109 7.22888 10.0215 7.21704 10.0215 7.20245C10.0215 7.18797 10.0109 7.17603 9.99803 7.17603Z" fill="#FFFF00" stroke="black" stroke-width="0.03"/>
<path d="M9.98539 7.22949H9.4002C9.38788 7.22949 9.37778 7.24137 9.37778 7.25588C9.37778 7.27044 9.38788 7.28231 9.4002 7.28231H9.98539C9.99772 7.28231 10.0078 7.27044 10.0078 7.25588C10.0078 7.24137 9.99772 7.22949 9.98539 7.22949Z" fill="#FFFF00" stroke="black" stroke-width="0.03"/>
<path d="M9.79682 6.8322L9.75062 6.83227V6.86495H9.7169V6.83154L9.66957 6.83169V6.86496H9.63576V6.83156H9.5884L9.58847 6.907C9.58847 6.91884 9.59804 6.92651 9.60913 6.92651H9.77527C9.78643 6.92651 9.79673 6.91762 9.79676 6.90677L9.79688 6.83222L9.79682 6.8322Z" fill="#FFFF00" stroke="black" stroke-width="0.03"/>
<path d="M9.62181 6.93325L9.61139 7.17517L9.77344 7.17458L9.76271 6.93262L9.62181 6.93325Z" fill="#FFFF00" stroke="black" stroke-width="0.03"/>
<path d="M9.8193 7.04517L9.81435 7.17557L9.96973 7.17565L9.96534 7.04517L9.8193 7.04517Z" fill="#FFFF00" stroke="black" stroke-width="0.03"/>
<path d="M9.41988 7.04517L9.41493 7.17557L9.57031 7.17565L9.56593 7.04517L9.41988 7.04517Z" fill="#FFFF00" stroke="black" stroke-width="0.03"/>
<path d="M9.99408 6.95084L9.94891 6.95096V6.98367H9.91586V6.9502L9.86956 6.95035V6.98368H9.83645V6.95021L9.79012 6.95029L9.79019 7.02573C9.79019 7.0375 9.79956 7.04517 9.81039 7.04517H9.97297C9.98386 7.04517 9.99399 7.03634 9.99403 7.02546L9.99414 6.95088L9.99408 6.95084Z" fill="#FFFF00" stroke="black" stroke-width="0.03"/>
<path d="M9.59467 6.95084L9.5495 6.95096V6.98367H9.51645V6.9502L9.47015 6.95035V6.98368H9.43703V6.95021L9.3907 6.95029L9.39078 7.02573C9.39078 7.0375 9.40014 7.04517 9.41097 7.04517H9.57356C9.58445 7.04517 9.59458 7.03634 9.59461 7.02546L9.59473 6.95088L9.59467 6.95084Z" fill="#FFFF00" stroke="black" stroke-width="0.03"/>
<path d="M9.70896 7.00943C9.70996 6.98592 9.67595 6.98566 9.67635 7.00943V7.06705H9.70896L9.70896 7.00943Z" fill="black"/>
<path d="M9.90918 7.09314C9.90929 7.07042 9.87766 7.06996 9.87806 7.09314V7.13766H9.90917L9.90918 7.09314Z" fill="black"/>
<path d="M9.50879 7.09314C9.5089 7.07042 9.47727 7.06996 9.47767 7.09314V7.13766H9.50878L9.50879 7.09314Z" fill="black"/>
<path d="M9.1675 9.33604C9.31154 9.18651 9.24256 9.04775 9.24233 9.04649C9.24208 9.04525 9.09245 8.97114 8.94602 9.11667L9.1675 9.33604Z" fill="#FFFF00"/>
<path d="M9.43789 9.24804L9.28632 9.43392L9.17622 9.32401C9.31554 9.18417 9.23451 9.05642 9.23146 9.0544C9.22923 9.05189 9.0946 8.97896 8.95967 9.10687L8.84954 8.99643L9.04039 8.84735L9.43792 9.24799L9.43789 9.24804Z" fill="#FFFF00" stroke="black" stroke-width="0.03"/>
<path d="M9.29332 9.44196L8.84366 8.99106C8.83418 8.98155 8.817 8.98311 8.80546 8.99452C8.79395 9.0059 8.79231 9.02295 8.80179 9.03245L9.25146 9.48335C9.26093 9.49286 9.27807 9.49134 9.28958 9.47996C9.30111 9.46856 9.3028 9.45146 9.29332 9.44196Z" fill="#FFFF00" stroke="black" stroke-width="0.03"/>
<path d="M9.12958 9.27709C9.21766 9.18904 9.18321 9.10458 9.18285 9.10432C9.18283 9.10429 9.09488 9.06757 9.00664 9.15382L9.12958 9.27709Z" fill="#FFFF00" stroke="black" stroke-width="0.03"/>
<path d="M9.52449 9.19437L9.09343 8.76212C9.08435 8.75301 9.06839 8.75397 9.05806 8.76419C9.0477 8.77442 9.04665 8.79028 9.05573 8.79939L9.4868 9.23164C9.49588 9.24074 9.51177 9.23986 9.52217 9.22957C9.5325 9.21936 9.53357 9.20348 9.52449 9.19437Z" fill="#FFFF00" stroke="black" stroke-width="0.03"/>
<path d="M9.47639 9.22269L9.06408 8.80925C9.0554 8.80054 9.03982 8.80178 9.02947 8.81202C9.01909 8.82228 9.01773 8.83779 9.02642 8.84649L9.43872 9.25993C9.4474 9.26864 9.46299 9.2674 9.47336 9.25714C9.48372 9.2469 9.48507 9.23139 9.47639 9.22269Z" fill="#FFFF00" stroke="black" stroke-width="0.03"/>
<path d="M9.62742 8.80926L9.59483 8.77668L9.57153 8.79971L9.54778 8.7759L9.5716 8.75235L9.53815 8.71902L9.51442 8.74248L9.49061 8.7186L9.51442 8.69505L9.48106 8.66159L9.42732 8.71483C9.41888 8.72318 9.42014 8.73534 9.42796 8.74318L9.54499 8.86053C9.55285 8.86842 9.56645 8.86942 9.57421 8.86179L9.62745 8.80932L9.62742 8.80926Z" fill="#FFFF00" stroke="black" stroke-width="0.03"/>
<path d="M9.43281 8.75763L9.25299 8.92078L9.36755 9.0348L9.53248 8.85668L9.43281 8.75763Z" fill="#FFFF00" stroke="black" stroke-width="0.03"/>
<path d="M9.4917 8.97627L9.39524 9.0647L9.50463 9.1745L9.59456 9.07943L9.4917 8.97627Z" fill="#FFFF00" stroke="black" stroke-width="0.03"/>
<path d="M9.21045 8.6938L9.11399 8.78223L9.22338 8.89203L9.31331 8.79696L9.21045 8.6938Z" fill="#FFFF00" stroke="black" stroke-width="0.03"/>
<path d="M9.68212 9.03289L9.65021 9.00106L9.62689 9.02412L9.60361 9.00078L9.62748 8.97718L9.59475 8.94458L9.57098 8.96808L9.54766 8.94469L9.57152 8.9211L9.53883 8.88842L9.48509 8.94166C9.4767 8.94996 9.47782 8.96198 9.48545 8.96963L9.59998 9.08448C9.60765 9.09217 9.62109 9.0931 9.62887 9.08545L9.68213 9.03296L9.68212 9.03289Z" fill="#FFFF00" stroke="black" stroke-width="0.03"/>
<path d="M9.39989 8.75066L9.36799 8.71883L9.34467 8.74189L9.32138 8.71855L9.34525 8.69495L9.31253 8.66235L9.28876 8.68586L9.26543 8.66246L9.2893 8.63887L9.2566 8.60619L9.20287 8.65943C9.19447 8.66773 9.1956 8.67976 9.20322 8.68741L9.31775 8.80225C9.32543 8.80994 9.33886 8.81087 9.34664 8.80323L9.3999 8.75073L9.39989 8.75066Z" fill="#FFFF00" stroke="black" stroke-width="0.03"/>
<path d="M9.43851 8.87235C9.45598 8.85648 9.43222 8.83227 9.41555 8.84932L9.37448 8.88992L9.39744 8.91295L9.43851 8.87235Z" fill="black"/>
<path d="M9.52093 9.07317C9.53721 9.05723 9.51526 9.03457 9.49901 9.05119L9.46728 9.08257L9.48919 9.10453L9.52093 9.07317Z" fill="black"/>
<path d="M9.2387 8.78996C9.25498 8.77403 9.23303 8.75137 9.21679 8.76799L9.18505 8.79936L9.20696 8.82133L9.2387 8.78996Z" fill="black"/>
<path d="M7.70119 7.59027V7.59046C7.70119 7.6734 7.73318 7.74898 7.78449 7.80381C7.83591 7.85881 7.90672 7.89297 7.98418 7.89297C8.06203 7.89297 8.13271 7.85904 8.18389 7.80427C8.23504 7.74957 8.26683 7.67406 8.26683 7.59078V7.18698L7.7022 7.18652L7.70119 7.59027Z" fill="#003399"/>
<path d="M7.83038 7.39587C7.86129 7.39587 7.88635 7.37093 7.88635 7.34015C7.88635 7.30937 7.86129 7.28442 7.83038 7.28442C7.79947 7.28442 7.77441 7.30937 7.77441 7.34015C7.77441 7.37093 7.79947 7.39587 7.83038 7.39587Z" fill="white"/>
<path d="M8.14483 7.39612C8.17574 7.39612 8.2008 7.37117 8.2008 7.34039C8.2008 7.30962 8.17574 7.28467 8.14483 7.28467C8.11392 7.28467 8.08887 7.30962 8.08887 7.34039C8.08887 7.37117 8.11392 7.39612 8.14483 7.39612Z" fill="white"/>
<path d="M7.98663 7.54578C8.01754 7.54578 8.0426 7.52083 8.0426 7.49005C8.0426 7.45928 8.01754 7.43433 7.98663 7.43433C7.95572 7.43433 7.93066 7.45928 7.93066 7.49005C7.93066 7.52083 7.95572 7.54578 7.98663 7.54578Z" fill="white"/>
<path d="M7.83038 7.70276C7.86129 7.70276 7.88635 7.67781 7.88635 7.64703C7.88635 7.61626 7.86129 7.59131 7.83038 7.59131C7.79947 7.59131 7.77441 7.61626 7.77441 7.64703C7.77441 7.67781 7.79947 7.70276 7.83038 7.70276Z" fill="white"/>
<path d="M8.14288 7.70227C8.17379 7.70227 8.19885 7.67732 8.19885 7.64655C8.19885 7.61577 8.17379 7.59082 8.14288 7.59082C8.11197 7.59082 8.08691 7.61577 8.08691 7.64655C8.08691 7.67732 8.11197 7.70227 8.14288 7.70227Z" fill="white"/>
<path d="M7.70119 6.61469V6.61487C7.70119 6.69782 7.73318 6.77339 7.78449 6.82822C7.83591 6.88323 7.90672 6.91739 7.98418 6.91739C8.06203 6.91739 8.13271 6.88346 8.18389 6.82869C8.23504 6.77398 8.26683 6.69848 8.26683 6.6152V6.2114L7.7022 6.21094L7.70119 6.61469Z" fill="#003399"/>
<path d="M7.83038 6.42029C7.86129 6.42029 7.88635 6.39534 7.88635 6.36456C7.88635 6.33379 7.86129 6.30884 7.83038 6.30884C7.79947 6.30884 7.77441 6.33379 7.77441 6.36456C7.77441 6.39534 7.79947 6.42029 7.83038 6.42029Z" fill="white"/>
<path d="M8.14483 6.42053C8.17574 6.42053 8.2008 6.39558 8.2008 6.36481C8.2008 6.33403 8.17574 6.30908 8.14483 6.30908C8.11392 6.30908 8.08887 6.33403 8.08887 6.36481C8.08887 6.39558 8.11392 6.42053 8.14483 6.42053Z" fill="white"/>
<path d="M7.98663 6.57043C8.01754 6.57043 8.0426 6.54549 8.0426 6.51471C8.0426 6.48393 8.01754 6.45898 7.98663 6.45898C7.95572 6.45898 7.93066 6.48393 7.93066 6.51471C7.93066 6.54549 7.95572 6.57043 7.98663 6.57043Z" fill="white"/>
<path d="M7.83038 6.72717C7.86129 6.72717 7.88635 6.70222 7.88635 6.67145C7.88635 6.64067 7.86129 6.61572 7.83038 6.61572C7.79947 6.61572 7.77441 6.64067 7.77441 6.67145C7.77441 6.70222 7.79947 6.72717 7.83038 6.72717Z" fill="white"/>
<path d="M8.14288 6.72668C8.17379 6.72668 8.19885 6.70174 8.19885 6.67096C8.19885 6.64018 8.17379 6.61523 8.14288 6.61523C8.11197 6.61523 8.08691 6.64018 8.08691 6.67096C8.08691 6.70174 8.11197 6.72668 8.14288 6.72668Z" fill="white"/>
<path d="M6.91799 7.59027V7.59046C6.91799 7.6734 6.94997 7.74898 7.00129 7.80381C7.0527 7.85881 7.12352 7.89297 7.20097 7.89297C7.27883 7.89297 7.34951 7.85904 7.40069 7.80427C7.45184 7.74957 7.48363 7.67406 7.48363 7.59078V7.18698L6.919 7.18652L6.91799 7.59027Z" fill="#003399"/>
<path d="M7.04718 7.39587C7.07809 7.39587 7.10314 7.37093 7.10314 7.34015C7.10314 7.30937 7.07809 7.28442 7.04718 7.28442C7.01627 7.28442 6.99121 7.30937 6.99121 7.34015C6.99121 7.37093 7.01627 7.39587 7.04718 7.39587Z" fill="white"/>
<path d="M7.36065 7.39612C7.39156 7.39612 7.41662 7.37117 7.41662 7.34039C7.41662 7.30962 7.39156 7.28467 7.36065 7.28467C7.32974 7.28467 7.30469 7.30962 7.30469 7.34039C7.30469 7.37117 7.32974 7.39612 7.36065 7.39612Z" fill="white"/>
<path d="M7.20343 7.54578C7.23434 7.54578 7.25939 7.52083 7.25939 7.49005C7.25939 7.45928 7.23434 7.43433 7.20343 7.43433C7.17252 7.43433 7.14746 7.45928 7.14746 7.49005C7.14746 7.52083 7.17252 7.54578 7.20343 7.54578Z" fill="white"/>
<path d="M7.04718 7.70276C7.07809 7.70276 7.10314 7.67781 7.10314 7.64703C7.10314 7.61626 7.07809 7.59131 7.04718 7.59131C7.01627 7.59131 6.99121 7.61626 6.99121 7.64703C6.99121 7.67781 7.01627 7.70276 7.04718 7.70276Z" fill="white"/>
<path d="M7.35968 7.70227C7.39059 7.70227 7.41564 7.67732 7.41564 7.64655C7.41564 7.61577 7.39059 7.59082 7.35968 7.59082C7.32877 7.59082 7.30371 7.61577 7.30371 7.64655C7.30371 7.67732 7.32877 7.70227 7.35968 7.70227Z" fill="white"/>
<path d="M8.48342 7.59027V7.59046C8.48342 7.6734 8.5154 7.74898 8.56672 7.80381C8.61813 7.85881 8.68895 7.89297 8.7664 7.89297C8.84426 7.89297 8.91494 7.85904 8.96612 7.80427C9.01727 7.74957 9.04906 7.67406 9.04906 7.59078V7.18698L8.48443 7.18652L8.48342 7.59027Z" fill="#003399"/>
<path d="M8.61261 7.39587C8.64352 7.39587 8.66857 7.37093 8.66857 7.34015C8.66857 7.30937 8.64352 7.28442 8.61261 7.28442C8.5817 7.28442 8.55664 7.30937 8.55664 7.34015C8.55664 7.37093 8.5817 7.39587 8.61261 7.39587Z" fill="white"/>
<path d="M8.92608 7.39612C8.95699 7.39612 8.98205 7.37117 8.98205 7.34039C8.98205 7.30962 8.95699 7.28467 8.92608 7.28467C8.89517 7.28467 8.87012 7.30962 8.87012 7.34039C8.87012 7.37117 8.89517 7.39612 8.92608 7.39612Z" fill="white"/>
<path d="M8.76886 7.54578C8.79977 7.54578 8.82482 7.52083 8.82482 7.49005C8.82482 7.45928 8.79977 7.43433 8.76886 7.43433C8.73795 7.43433 8.71289 7.45928 8.71289 7.49005C8.71289 7.52083 8.73795 7.54578 8.76886 7.54578Z" fill="white"/>
<path d="M8.61261 7.70276C8.64352 7.70276 8.66857 7.67781 8.66857 7.64703C8.66857 7.61626 8.64352 7.59131 8.61261 7.59131C8.5817 7.59131 8.55664 7.61626 8.55664 7.64703C8.55664 7.67781 8.5817 7.70276 8.61261 7.70276Z" fill="white"/>
<path d="M8.92511 7.70227C8.95602 7.70227 8.98107 7.67732 8.98107 7.64655C8.98107 7.61577 8.95602 7.59082 8.92511 7.59082C8.8942 7.59082 8.86914 7.61577 8.86914 7.64655C8.86914 7.67732 8.8942 7.70227 8.92511 7.70227Z" fill="white"/>
<path d="M7.70119 8.55707V8.55725C7.70119 8.6402 7.73318 8.71578 7.78449 8.77061C7.83591 8.82561 7.90672 8.85977 7.98418 8.85977C8.06203 8.85977 8.13271 8.82584 8.18389 8.77107C8.23504 8.71637 8.26683 8.64086 8.26683 8.55758V8.15378L7.7022 8.15332L7.70119 8.55707Z" fill="#003399"/>
<path d="M7.83038 8.36267C7.86129 8.36267 7.88635 8.33772 7.88635 8.30695C7.88635 8.27617 7.86129 8.25122 7.83038 8.25122C7.79947 8.25122 7.77441 8.27617 7.77441 8.30695C7.77441 8.33772 7.79947 8.36267 7.83038 8.36267Z" fill="white"/>
<path d="M8.14483 8.36291C8.17574 8.36291 8.2008 8.33797 8.2008 8.30719C8.2008 8.27641 8.17574 8.25146 8.14483 8.25146C8.11392 8.25146 8.08887 8.27641 8.08887 8.30719C8.08887 8.33797 8.11392 8.36291 8.14483 8.36291Z" fill="white"/>
<path d="M7.98663 8.51257C8.01754 8.51257 8.0426 8.48762 8.0426 8.45685C8.0426 8.42607 8.01754 8.40112 7.98663 8.40112C7.95572 8.40112 7.93066 8.42607 7.93066 8.45685C7.93066 8.48762 7.95572 8.51257 7.98663 8.51257Z" fill="white"/>
<path d="M7.83038 8.66956C7.86129 8.66956 7.88635 8.64461 7.88635 8.61383C7.88635 8.58305 7.86129 8.55811 7.83038 8.55811C7.79947 8.55811 7.77441 8.58305 7.77441 8.61383C7.77441 8.64461 7.79947 8.66956 7.83038 8.66956Z" fill="white"/>
<path d="M8.14288 8.66907C8.17379 8.66907 8.19885 8.64412 8.19885 8.61334C8.19885 8.58257 8.17379 8.55762 8.14288 8.55762C8.11197 8.55762 8.08691 8.58257 8.08691 8.61334C8.08691 8.64412 8.11197 8.66907 8.14288 8.66907Z" fill="white"/>
</g>
<defs>
<clipPath id="clip0_202_4141">
<rect width="20" height="15" fill="white"/>
</clipPath>
</defs>
</svg>
