<svg width="20" height="15" viewBox="0 0 20 15" fill="none" xmlns="http://www.w3.org/2000/svg">
<g clip-path="url(#clip0_202_4151)">
<mask id="mask0_202_4151" style="mask-type:luminance" maskUnits="userSpaceOnUse" x="0" y="0" width="21" height="15">
<path d="M0.000976562 0H20.002V15H0.000976562V0Z" fill="white"/>
</mask>
<g mask="url(#mask0_202_4151)">
<path fill-rule="evenodd" clip-rule="evenodd" d="M0.000976562 0H22.501V15H0.000976562V0Z" fill="#ED0000"/>
<path fill-rule="evenodd" clip-rule="evenodd" d="M0.000976562 3H22.501V6H0.000976562V3ZM0.000976562 9H22.501V12H0.000976562V9Z" fill="white"/>
<path fill-rule="evenodd" clip-rule="evenodd" d="M0.000976562 0L12.9121 7.49121L0.000976562 14.9707V0Z" fill="#0050F0"/>
<path fill-rule="evenodd" clip-rule="evenodd" d="M5.67578 9.53613L4.28711 8.49609L2.9043 9.54492L3.41992 7.84277L2.03711 6.78809L3.74512 6.77637L4.27539 5.07715L4.81738 6.77051L6.52539 6.77344L5.15137 7.83691L5.67871 9.53613H5.67578Z" fill="white"/>
</g>
</g>
<defs>
<clipPath id="clip0_202_4151">
<rect width="20" height="15" fill="white"/>
</clipPath>
</defs>
</svg>
