<svg width="20" height="15" viewBox="0 0 20 15" fill="none" xmlns="http://www.w3.org/2000/svg">
<g clip-path="url(#clip0_202_4037)">
<path d="M0 0H20V15H0V0Z" fill="#20603D"/>
<path d="M0 0H20V11.25H0V0Z" fill="#FAD201"/>
<path d="M0 0H20V7.5H0V0Z" fill="#00A1DE"/>
<path d="M18.3869 3.91878L16.7119 4.0167L18.3035 4.54587L16.6619 4.20628L18.0639 5.12712L16.5639 4.37295L17.6764 5.62921L16.4244 4.51462L17.1785 6.01463L16.2556 4.61254L16.5931 6.25213L16.066 4.66254L15.9681 6.33754L15.9473 3.89795L18.3869 3.91878Z" fill="#E5BE01"/>
<path d="M18.3869 3.91886L16.7119 3.82095L18.3035 3.29178L16.6619 3.63136L18.0639 2.71052L16.5639 3.46469L17.6764 2.20844L16.4244 3.32303L17.1785 1.82302L16.2556 3.22511L16.5931 1.58552L16.066 3.17511L15.9681 1.5001L15.9473 3.9397L18.3869 3.91886Z" fill="#E5BE01"/>
<path d="M13.5497 3.91878L15.2247 4.0167L13.633 4.54587L15.2747 4.20628L13.8726 5.12712L15.3726 4.37295L14.2601 5.62921L15.5122 4.51462L14.758 6.01463L15.6809 4.61254L15.3434 6.25213L15.8705 4.66254L15.9684 6.33754L15.9893 3.89795L13.5497 3.91878Z" fill="#E5BE01"/>
<path d="M13.5497 3.91886L15.2247 3.82095L13.633 3.29178L15.2747 3.63136L13.8726 2.71052L15.3726 3.46469L14.2601 2.20844L15.5122 3.32303L14.758 1.82302L15.6809 3.22511L15.3434 1.58552L15.8705 3.17511L15.9684 1.5001L15.9893 3.9397L13.5497 3.91886Z" fill="#E5BE01"/>
<path d="M15.9685 4.63328C16.3631 4.63328 16.6831 4.31334 16.6831 3.91869C16.6831 3.52403 16.3631 3.2041 15.9685 3.2041C15.5738 3.2041 15.2539 3.52403 15.2539 3.91869C15.2539 4.31334 15.5738 4.63328 15.9685 4.63328Z" fill="#E5BE01" stroke="#00A1DE" stroke-width="0.09"/>
</g>
<defs>
<clipPath id="clip0_202_4037">
<rect width="20" height="15" fill="white"/>
</clipPath>
</defs>
</svg>
