<svg width="20" height="15" viewBox="0 0 20 15" fill="none" xmlns="http://www.w3.org/2000/svg">
<g clip-path="url(#clip0_202_4207)">
<path fill-rule="evenodd" clip-rule="evenodd" d="M0 0H20V15H0V0Z" fill="#CE1126"/>
<path fill-rule="evenodd" clip-rule="evenodd" d="M0 0H10V7.5H0V0Z" fill="#002B7F"/>
<path fill-rule="evenodd" clip-rule="evenodd" d="M5.62539 7.16563L4.97852 6.72813L4.35664 7.16875L4.55977 6.39062L3.96602 5.91563L4.73164 5.86875L4.98477 5.13125L5.25977 5.88125L6.00977 5.90312L5.41602 6.4125L5.62539 7.16563ZM5.51289 1.99063L4.99414 1.65625L4.49414 1.98125L4.63164 1.35625L4.17539 0.959375L4.78164 0.909375L5.00664 0.328125L5.23789 0.9125L5.83477 0.965625L5.37539 1.38437L5.51289 1.99063ZM3.23164 3.85L2.73164 3.50625L2.20977 3.85L2.37227 3.24375L1.90039 2.84375L2.50039 2.8125L2.71914 2.21875L2.93164 2.80938L3.54414 2.84375L3.07539 3.23438L3.23164 3.85ZM7.81289 3.4375L7.33164 3.125L6.86289 3.4375L7.00039 2.86562L6.56289 2.49688L7.13477 2.45L7.33164 1.9125L7.55039 2.45625L8.10352 2.4875L7.67539 2.87188L7.81289 3.4375ZM6.46602 4.79375L6.14414 4.59375L5.82227 4.8L5.90664 4.41563L5.61914 4.15625L5.99414 4.125L6.13789 3.7625L6.29102 4.125L6.66289 4.15625L6.37852 4.41563L6.46602 4.79375Z" fill="white"/>
</g>
<defs>
<clipPath id="clip0_202_4207">
<rect width="20" height="15" fill="white"/>
</clipPath>
</defs>
</svg>
