<svg width="20" height="15" viewBox="0 0 20 15" fill="none" xmlns="http://www.w3.org/2000/svg">
<g clip-path="url(#clip0_202_3652)">
<path d="M0 15H20V0H0V15Z" fill="#005430"/>
<path d="M15.6246 6.0083C15.6231 5.7448 15.5208 5.03503 15.4949 4.79692C15.469 4.55881 15.4429 4.3428 15.4492 4.29221C15.4554 4.2434 15.5305 4.36008 15.5702 4.36951C15.5908 4.3654 15.5816 4.2917 15.5443 4.22877C15.519 4.18604 15.4328 4.02624 15.3806 3.93261C15.356 3.88829 15.3505 3.86259 15.3387 3.85714C15.3269 3.8517 15.2318 4.04359 15.2422 4.06486C15.2682 4.10386 15.286 4.12248 15.29 4.19136C15.2941 4.26024 15.3297 4.75203 15.3751 5.1248C15.4093 5.40603 15.4843 6.01191 15.4869 6.3886C15.4877 6.51149 15.4741 6.62861 15.4577 6.67755C15.4157 6.75441 15.3501 6.82374 15.1058 6.96669C14.8311 7.12744 14.4647 7.26121 14.3072 7.35073C14.2093 7.40657 14.2418 7.41404 14.327 7.3896C14.4121 7.36517 14.8518 7.28685 15.0655 7.19657C15.266 7.11161 15.3962 6.96948 15.495 6.76214C15.617 6.50579 15.6264 6.28826 15.6246 6.0083Z" fill="white"/>
<path d="M14.7758 4.00673C14.797 3.9985 14.9728 3.98945 15.0201 3.9992C14.989 4.04364 14.7783 4.14203 14.7774 4.16007C14.7831 4.17223 14.923 4.1376 14.9671 4.11835C14.9959 4.101 15.0151 4.07416 15.0365 4.05187C15.0869 3.99388 15.1467 3.88632 15.1316 3.87283C15.1072 3.85105 14.8676 3.8646 14.836 3.8691C14.8148 3.87214 14.7612 3.96837 14.7513 3.99306C14.7416 4.01775 14.7546 4.01496 14.7758 4.00673Z" fill="white"/>
<path d="M15.1335 5.56832C15.1702 5.44423 15.1792 5.29368 15.1293 5.13521C15.0781 4.97206 14.9509 4.8726 14.8591 4.82164L14.8428 4.97871C14.8428 4.97871 14.9714 5.04265 15.0594 5.20365C15.1152 5.30577 15.1384 5.45018 15.0944 5.61118C15.087 5.65113 15.1156 5.6291 15.1335 5.56832Z" fill="white"/>
<path d="M13.7726 6.35589C13.8056 6.24415 13.8137 6.1086 13.7689 5.9659C13.7227 5.81896 13.6082 5.72937 13.5255 5.68366L13.5107 5.82503C13.5107 5.82503 13.6266 5.88265 13.7058 6.0275C13.7561 6.11936 13.7769 6.24959 13.7374 6.39451C13.7308 6.43034 13.7565 6.41059 13.7726 6.35589Z" fill="white"/>
<path d="M9.04561 4.21729C9.09861 4.31422 9.1206 4.45147 9.07889 4.60437C9.07191 4.64229 9.09889 4.62146 9.11608 4.56372C9.15073 4.44596 9.15935 4.30288 9.11197 4.15227C9.06328 3.99722 8.94242 3.90283 8.85525 3.85452L8.83984 4.00368C8.83984 4.00368 8.96207 4.06439 9.04561 4.21729Z" fill="white"/>
<path d="M5.85706 4.26737C5.90157 4.37171 5.90458 4.51257 5.83268 4.66097C5.81871 4.69826 5.85274 4.6806 5.8813 4.62482C5.93964 4.5108 5.97237 4.3681 5.94279 4.21045C5.91245 4.04838 5.7907 3.9379 5.69956 3.87808L5.6582 4.02616C5.6582 4.02616 5.78687 4.10289 5.85706 4.26737Z" fill="white"/>
<path d="M6.73816 6.59958C6.79472 6.49461 6.81828 6.42395 6.84341 6.29961C6.86539 6.19021 6.86683 6.06384 6.85888 5.9352C7.02816 5.86619 7.22989 5.75166 7.29768 5.74324C7.25132 5.9024 7.36198 6.07416 7.58548 6.05175C7.6026 6.23174 7.61726 6.38983 7.62616 6.48359C7.64437 6.6758 7.64163 6.91803 7.64109 6.96013C7.64033 7.00242 7.67094 6.99444 7.70237 6.90024C7.74428 6.77412 7.75722 6.44478 7.74202 6.227C7.73839 6.17255 7.73223 6.09904 7.72476 6.01529C7.86966 5.94824 7.89376 5.81883 7.94793 5.76369C7.99682 5.93494 8.26593 5.95818 8.34899 5.92152C8.45198 5.876 8.48574 5.79414 8.51224 5.60415C8.53881 5.41422 8.46143 5.33774 8.43376 5.31704C8.43103 5.34002 8.36365 5.56325 8.36365 5.56325C8.36365 5.56325 8.42753 5.63074 8.43075 5.66391C8.37871 5.71102 8.26894 5.71393 8.17677 5.68392C8.08454 5.65391 8.05626 5.5987 8.06173 5.56167C8.06708 5.5245 8.10179 5.4907 8.10296 5.44543C8.10398 5.40016 8.08228 5.41327 8.04537 5.45334C8.00846 5.49348 7.98463 5.52957 7.93355 5.61573C7.89178 5.6862 7.82399 5.77217 7.70443 5.79674C7.6847 5.58984 7.66218 5.36971 7.64711 5.23144C7.63924 5.15844 7.56056 4.52762 7.55494 4.45703C7.55008 4.39555 7.54097 4.32306 7.54248 4.289C7.54399 4.26191 7.56097 4.27267 7.58726 4.30103C7.61363 4.32933 7.65971 4.37871 7.66765 4.37485C7.6945 4.36168 7.66704 4.2797 7.63191 4.20626C7.59685 4.13263 7.47715 3.84216 7.45202 3.83019C7.43908 3.82412 7.35828 4.0029 7.35349 4.0381C7.36602 4.06014 7.39875 4.09477 7.39991 4.19328C7.40032 4.22075 7.41799 4.47982 7.4425 4.72477C7.46394 4.9411 7.49236 5.14635 7.49509 5.17022C7.51461 5.33533 7.5383 5.56806 7.56083 5.79686C7.43107 5.77217 7.39656 5.68658 7.39943 5.63777C7.40272 5.58269 7.42758 5.52052 7.41566 5.50646C7.39067 5.49146 7.24194 5.57458 7.03452 5.66391C6.97618 5.68898 6.91045 5.71589 6.84108 5.74141C6.823 5.58547 6.79917 5.4372 6.78959 5.32381L6.78842 5.31121C6.92483 5.30241 7.03651 5.23353 7.08732 5.16794C7.1508 5.08595 7.19517 4.91723 7.19948 4.78795C7.2038 4.65855 7.09937 4.42195 7.07451 4.34674C7.04945 4.27147 7.03651 4.2193 7.03432 4.19328C7.03206 4.16726 7.09074 4.22341 7.12765 4.23443C7.15265 4.23943 7.14402 4.1853 7.11348 4.14814C7.08314 4.1111 6.91907 3.8621 6.90757 3.87958C6.90052 3.88983 6.83478 4.07299 6.83047 4.10103C6.85635 4.11813 6.88662 4.16523 6.88874 4.21037C6.89093 4.25551 6.92709 4.45399 6.96714 4.56428C7.00734 4.67456 7.09293 4.88615 7.09834 4.94433C7.03719 4.98744 6.89798 5.06044 6.76028 5.05607C6.73672 4.8631 6.70687 4.63898 6.69091 4.48026C6.68475 4.41892 6.68434 4.35345 6.6853 4.31927C6.68605 4.29217 6.70556 4.2959 6.73241 4.32376C6.75939 4.35162 6.80075 4.39214 6.80924 4.38922C6.82773 4.38308 6.8117 4.32161 6.77507 4.24861C6.73843 4.17561 6.59285 3.86685 6.56731 3.85533C6.55437 3.84944 6.48918 4.02285 6.48507 4.05824C6.49808 4.08014 6.53143 4.11401 6.53472 4.21252C6.53732 4.29097 6.57553 4.67539 6.60826 5.01397C6.47199 4.94351 6.4255 4.84278 6.40865 4.67368C6.39687 4.55579 6.39571 4.33864 6.35367 4.157C6.32997 4.05431 6.28005 3.94998 6.22089 3.89458C6.20679 3.9287 6.14379 4.1382 6.14379 4.1382C6.16433 4.19834 6.22822 4.40087 6.22603 4.57637C6.2239 4.75186 6.21007 4.92344 6.01341 5.04164C5.81688 5.1599 5.52209 5.11286 5.4493 4.92837C5.37651 4.74376 5.53832 4.2809 5.5362 4.17163C5.53401 4.06235 5.51449 4.04728 5.46882 4.06533C5.42321 4.08337 5.32988 4.18872 5.24949 4.3601C5.1691 4.53161 5.13335 4.74401 5.08768 4.88843C5.04214 5.03284 4.96922 5.17915 4.85637 5.17104C4.74352 5.16307 4.68278 5.05981 4.64806 4.91046C4.61328 4.76098 4.63457 4.56415 4.64402 4.51369C4.66758 4.38732 4.613 4.41322 4.57959 4.61163C4.55891 4.73401 4.53836 4.92945 4.61115 5.13401C4.68381 5.33856 4.80768 5.41485 4.91622 5.3887C5.02482 5.36268 5.12027 5.10799 5.15396 4.99358C5.18759 4.87937 5.33803 4.37207 5.42321 4.34712C5.43513 4.40429 5.357 4.58859 5.332 4.80416C5.30708 5.01973 5.36521 5.30931 5.63884 5.35939C5.91247 5.40953 6.09811 5.23207 6.16543 5.10887C6.23281 4.98548 6.26424 4.85614 6.27184 4.79099C6.2806 4.95636 6.39345 5.2146 6.61264 5.28823L6.63524 5.29475C6.64873 5.43011 6.67071 5.60681 6.69091 5.79237C6.64825 5.80554 6.60518 5.81744 6.56231 5.8277C6.55683 5.80991 6.55081 5.7925 6.54348 5.77648C6.47658 5.63257 6.36585 5.49994 6.2124 5.50912C6.05566 5.51843 5.88474 5.7276 5.89221 5.88037C5.89714 5.98312 5.9537 6.06745 6.1594 6.08904C6.25335 6.09898 6.35312 6.08854 6.45618 6.06606C6.47069 6.10854 6.47987 6.15077 6.48089 6.18926C6.41571 6.26549 5.87632 6.67232 5.47245 6.71145C5.06858 6.75051 4.94539 6.5388 4.94135 6.32627C4.93833 6.16457 5.03557 6.00319 5.10391 5.89151C5.20169 5.81997 5.28195 5.73052 5.33262 5.66151C5.34638 5.66999 5.35946 5.67784 5.37192 5.68512C5.4202 5.71317 5.43944 5.75508 5.43944 5.75508C5.44834 5.7414 5.48984 5.6667 5.47361 5.63017C5.46615 5.62118 5.42965 5.5987 5.38576 5.57205C5.43184 5.45721 5.43122 5.34255 5.37151 5.31704C5.30475 5.28861 5.21758 5.36762 5.17999 5.4158C5.16047 5.44087 5.15301 5.4693 5.15287 5.49317C5.1526 5.52387 5.16704 5.5516 5.20279 5.57629C5.2384 5.6006 5.27147 5.62263 5.30256 5.64251C5.21429 5.7352 5.00571 5.871 4.87807 5.95077C4.87335 5.93906 4.85466 5.95141 4.82953 5.98103L4.79494 6.00237C4.69312 6.06467 4.44894 6.20148 4.40093 6.23497C4.35286 6.26853 4.38299 6.26245 4.40093 6.25498C4.43483 6.23668 4.47934 6.21452 4.52933 6.19009C4.60013 6.15545 4.68251 6.11627 4.76303 6.07695C4.73921 6.11734 4.71455 6.16457 4.69271 6.21611C4.59664 6.44295 4.44133 6.91309 4.77728 7.19596C5.0987 7.46674 5.65117 7.36373 6.10934 7.08232C6.56759 6.80084 6.66653 6.70189 6.73816 6.59958ZM5.24428 5.48126C5.2284 5.46955 5.22621 5.45391 5.23915 5.44302C5.25565 5.42897 5.27674 5.41567 5.30071 5.41118C5.35152 5.40175 5.37179 5.46012 5.35138 5.55103C5.31276 5.52742 5.27304 5.5026 5.24428 5.48126ZM6.29526 5.86473C6.06196 5.86581 6.05121 5.82346 6.05559 5.79636C6.0599 5.76939 6.13256 5.69538 6.22473 5.74419C6.26369 5.76489 6.30758 5.8082 6.34819 5.86258C6.33025 5.86391 6.31258 5.86461 6.29526 5.86473ZM5.58071 7.09162C5.13993 7.21191 4.70997 7.02553 4.68394 6.65649C4.66402 6.3747 4.7668 6.16236 4.83309 6.0427C4.89629 6.01142 4.956 5.98103 5.00537 5.95381C4.88999 6.13963 4.82247 6.3885 4.8676 6.59932C4.91868 6.83813 5.12644 6.98292 5.4782 6.9362C5.82647 6.89004 6.29738 6.5588 6.43091 6.43389C6.47158 6.38882 6.49842 6.34817 6.53499 6.26536C6.55006 6.23136 6.57121 6.18648 6.57909 6.13576C6.58423 6.10272 6.58696 6.06739 6.58758 6.03143C6.62846 6.01921 6.66955 6.00554 6.71091 5.99085C6.72494 6.14203 6.73528 6.29107 6.7359 6.41996C6.5189 6.67447 6.02149 6.97127 5.58071 7.09162Z" fill="white"/>
<path d="M13.2903 6.12393C13.2754 5.87702 13.2394 5.43011 13.2193 5.2034C13.2015 5.00163 13.1665 4.72509 13.1408 4.48166C13.1344 4.42038 13.1337 4.36169 13.1344 4.32756C13.1352 4.30059 13.1621 4.31098 13.1891 4.33871C13.2161 4.36644 13.2583 4.40126 13.2662 4.39702C13.2926 4.38334 13.261 4.31573 13.224 4.24298C13.1869 4.17011 13.0401 3.86869 13.0145 3.85723C13.0015 3.85141 12.9327 4.03197 12.9287 4.06736C12.9419 4.08914 12.9755 4.12288 12.9791 4.22139C12.9828 4.31997 13.0326 4.77314 13.0685 5.13965C13.0935 5.39441 13.1256 5.8101 13.1491 6.12355C13.1479 6.12406 13.1712 6.42155 13.1737 6.45498C13.1881 6.64745 13.1806 6.88961 13.1792 6.93165C13.1776 6.97387 13.2085 6.96653 13.2416 6.87283C13.2754 6.77717 13.2946 6.56356 13.2972 6.37072L13.2903 6.12393Z" fill="white"/>
<path d="M12.0387 5.25954C11.9935 5.27334 11.9226 5.22555 11.928 5.12533C11.9329 5.03479 11.9717 4.95002 11.9866 4.89652C12.0071 4.8227 12.0073 4.75154 11.9899 4.79187C11.9507 4.88202 11.8778 5.05632 11.8627 5.17458C11.8476 5.29284 11.8859 5.36907 11.938 5.39509C12.0029 5.4277 12.0497 5.37597 12.0814 5.29975C12.1118 5.22675 12.106 5.14153 12.0849 5.1616C12.0672 5.18256 12.0607 5.25277 12.0387 5.25954Z" fill="white"/>
<path d="M11.3892 5.62405C11.4132 5.56036 11.4188 5.49793 11.4004 5.53218C11.3588 5.60892 11.281 5.75719 11.2581 5.86019C11.2354 5.9632 11.263 6.0329 11.3068 6.0593C11.3615 6.09235 11.4065 6.05 11.4405 5.98511C11.473 5.923 11.4747 5.8476 11.4547 5.86393C11.4374 5.88115 11.426 5.94237 11.4063 5.94687C11.3652 5.95592 11.3068 5.90907 11.3194 5.82119C11.3309 5.74206 11.3718 5.67007 11.3892 5.62405Z" fill="white"/>
<path d="M9.49828 6.96736C9.53834 6.90234 9.55827 6.83491 9.53047 6.86898C9.46843 6.94507 9.35099 7.09278 9.3036 7.2011C9.25636 7.30943 9.27142 7.39078 9.31353 7.42782C9.36605 7.47403 9.4246 7.43605 9.47575 7.37153C9.52485 7.30968 9.5432 7.22763 9.51752 7.24162C9.49499 7.25738 9.46925 7.32215 9.44658 7.32335C9.39995 7.32563 9.34613 7.26353 9.37913 7.16995C9.40899 7.0855 9.46932 7.01446 9.49828 6.96736Z" fill="white"/>
<path d="M12.8143 5.07003C12.7683 5.08155 12.7004 5.03008 12.7118 4.93024C12.7221 4.84015 12.766 4.75753 12.784 4.70498C12.8091 4.63224 12.8134 4.56127 12.7936 4.60052C12.7492 4.68865 12.666 4.85883 12.6437 4.97621C12.6215 5.09352 12.6551 5.17158 12.7056 5.20026C12.7686 5.23597 12.8182 5.18684 12.8545 5.11226C12.8892 5.04097 12.8887 4.95563 12.8663 4.97462C12.8474 4.99476 12.8367 5.06446 12.8143 5.07003Z" fill="white"/>
<path d="M12.8003 6.29474C12.8632 6.33045 12.9131 6.28132 12.9492 6.20674C12.9839 6.13545 12.9834 6.05011 12.9611 6.06911C12.9422 6.08911 12.9314 6.15894 12.909 6.16451C12.8631 6.17597 12.795 6.12457 12.8065 6.02472C12.8168 5.93463 12.8607 5.85195 12.8787 5.79947C12.9037 5.72672 12.9081 5.65563 12.8883 5.695C12.8438 5.78313 12.7607 5.95331 12.7384 6.07056C12.7162 6.188 12.7498 6.26606 12.8003 6.29474Z" fill="white"/>
<path d="M13.6032 4.73043C13.6334 4.64243 13.6386 4.55652 13.6147 4.60407C13.5609 4.71068 13.4602 4.91657 13.4332 5.0587C13.4064 5.2007 13.4471 5.2951 13.5083 5.32986C13.5843 5.37303 13.6445 5.31359 13.6884 5.22343C13.7303 5.13714 13.7296 5.03375 13.7027 5.05686C13.6799 5.08111 13.6668 5.16544 13.6397 5.17221C13.5842 5.18614 13.5018 5.12391 13.5157 5.00311C13.5283 4.89409 13.5813 4.79413 13.6032 4.73043Z" fill="white"/>
<path d="M7.18219 6.2523C7.2317 6.14505 7.24964 6.03767 7.21321 6.09484C7.13165 6.22279 6.97806 6.47053 6.92561 6.64602C6.87309 6.82158 6.91198 6.94491 6.98422 6.9955C7.07434 7.0583 7.15781 6.99018 7.22471 6.88185C7.28874 6.77796 7.30147 6.64786 7.26456 6.67388C7.23272 6.70174 7.2052 6.80645 7.17027 6.81196C7.09851 6.82323 7.00319 6.73573 7.03647 6.58537C7.0666 6.4497 7.14644 6.32991 7.18219 6.2523Z" fill="white"/>
<path d="M14.1147 7.31567C14.1526 7.28459 14.4826 7.10688 14.5433 7.07079C14.5433 7.07079 14.6054 6.96949 14.5868 6.95873C14.5681 6.94797 14.4476 7.05749 14.3727 7.06053C14.2977 7.06357 14.1951 7.00849 14.1918 6.96335C14.2015 6.92929 14.2917 6.87814 14.3243 6.87605C14.3569 6.87415 14.3516 6.94835 14.3625 6.9574C14.3734 6.96633 14.4168 6.90618 14.4222 6.88111C14.4276 6.8561 14.4231 6.75139 14.3635 6.76639C14.269 6.79026 14.1266 6.96538 14.1104 7.02046C14.094 7.07566 14.182 7.12372 14.2462 7.14986C14.2408 7.15189 14.1928 7.17494 14.1625 7.20494C14.1625 7.20494 14.1299 7.24147 14.1147 7.31567Z" fill="white"/>
<path d="M12.9917 7.53564C13.0296 7.50456 13.3595 7.32697 13.4202 7.29076C13.4202 7.29076 13.4825 7.18946 13.4637 7.1787C13.445 7.16794 13.3246 7.27747 13.2497 7.2805C13.1747 7.28354 13.072 7.22846 13.0688 7.18332C13.0785 7.14926 13.1687 7.09811 13.2013 7.09614C13.2339 7.09412 13.2286 7.16825 13.2395 7.17724C13.2504 7.1863 13.2937 7.12615 13.2992 7.10108C13.3045 7.07607 13.2999 6.97136 13.2404 6.98636C13.146 7.01036 13.0036 7.18535 12.9873 7.24056C12.971 7.29564 13.059 7.34369 13.1231 7.36983C13.1177 7.37186 13.0698 7.39484 13.0395 7.42491C13.0395 7.42491 13.0069 7.46144 12.9917 7.53564Z" fill="white"/>
<path d="M10.4564 4.35046C10.486 4.38484 10.6798 4.63105 10.8316 4.78584C10.9834 4.94076 11.2435 5.19147 11.4346 5.3633C11.4716 5.3966 11.5108 5.43269 11.5507 5.47023C11.599 5.84034 11.6547 6.31131 11.6781 6.50605C11.7012 6.69782 11.7046 6.93998 11.7051 6.98214C11.7055 7.02437 11.7359 7.01576 11.7648 6.92098C11.8036 6.79379 11.808 6.46445 11.7875 6.24692C11.7747 6.11258 11.7447 5.86092 11.7156 5.62888C11.8284 5.74037 11.935 5.85098 12.0069 5.93379C12.139 6.0858 12.2501 6.20045 12.3178 6.36385C12.3657 6.47946 12.3609 6.57145 12.3805 6.58962C12.3975 6.60532 12.4163 6.46699 12.3953 6.33283C12.3614 6.11498 12.3148 6.02261 12.0351 5.71157C11.9285 5.59267 11.8029 5.46839 11.6801 5.35222C11.6754 5.31638 11.6711 5.28321 11.6672 5.25377C11.6574 5.18103 11.5627 4.5521 11.5552 4.48164C11.5488 4.42029 11.5377 4.34805 11.5386 4.31393C11.5392 4.28677 11.5565 4.29734 11.5836 4.32507C11.6106 4.35274 11.6578 4.40117 11.6659 4.39693C11.6923 4.38325 11.6628 4.30203 11.6258 4.22916C11.5889 4.15641 11.4617 3.8686 11.4362 3.85721C11.4232 3.85138 11.347 4.03188 11.3431 4.06721C11.3563 4.08899 11.3899 4.12292 11.3935 4.22131C11.3946 4.24878 11.4189 4.50747 11.4495 4.75172C11.4767 4.96755 11.5102 5.17223 11.5137 5.19591L11.5138 5.19774C11.3872 5.08226 11.2757 4.9842 11.208 4.92259C11.0498 4.77882 10.7005 4.43764 10.6864 4.38655C10.6833 4.3704 10.7104 4.38034 10.7603 4.38832C10.8103 4.39636 10.8548 4.41339 10.8468 4.38883C10.8432 4.37724 10.824 4.34862 10.7763 4.31912C10.7285 4.28955 10.606 4.21295 10.515 4.15876C10.4237 4.10463 10.3785 4.05923 10.3597 4.07221C10.3504 4.0786 10.3586 4.26404 10.3641 4.28715C10.3869 4.28911 10.427 4.31596 10.4564 4.35046Z" fill="white"/>
<path d="M10.7066 4.01711C10.7441 4.00888 10.9216 4.01338 10.986 4.02692C10.959 4.04566 10.7774 4.1374 10.7415 4.15924C10.7059 4.18115 10.6968 4.19381 10.7148 4.19166C10.7668 4.17722 10.8841 4.15924 10.9403 4.12993C10.9933 4.10511 11.0836 3.98406 11.1188 3.93892C11.1537 3.89378 11.1537 3.87124 11.1448 3.85915C11.1089 3.83965 10.8776 3.82009 10.766 3.84776C10.7352 3.86871 10.6748 3.98033 10.6659 4.00356C10.657 4.02692 10.6692 4.02534 10.7066 4.01711Z" fill="white"/>
<path d="M11.6923 4.00268C11.7225 3.99603 11.8656 3.99964 11.9174 4.01053C11.8957 4.02566 11.7494 4.09961 11.7205 4.11734C11.6916 4.13487 11.6844 4.14513 11.6988 4.14336C11.7408 4.13183 11.8354 4.11734 11.8806 4.09359C11.9233 4.07359 11.9961 3.97603 12.0244 3.93975C12.0525 3.90328 12.0525 3.88518 12.0453 3.87549C12.0166 3.8596 11.8301 3.8439 11.7402 3.86625C11.7153 3.88309 11.6667 3.97305 11.6595 3.99179C11.6522 4.01053 11.6621 4.00933 11.6923 4.00268Z" fill="white"/>
<path d="M12.4961 3.99243C12.5262 3.98578 12.6692 3.98939 12.7211 4.00028C12.6995 4.01541 12.5532 4.08936 12.5242 4.10696C12.4954 4.12462 12.4882 4.13488 12.5026 4.1331C12.5446 4.12158 12.6465 4.10696 12.6918 4.08334C12.7345 4.06334 12.7851 3.96577 12.8134 3.92937C12.8417 3.89303 12.8417 3.8748 12.8343 3.86524C12.8056 3.84935 12.6338 3.83365 12.544 3.85587C12.5191 3.87283 12.4704 3.9628 12.4632 3.98154C12.456 4.00028 12.4658 3.99908 12.4961 3.99243Z" fill="white"/>
<path d="M11.9946 4.38298C11.9471 4.45782 12.0067 4.51822 12.0284 4.57868C11.9991 4.60546 11.954 4.58102 11.9389 4.55753C11.9069 4.50935 11.9176 4.41116 11.8799 4.39603C11.8703 4.42255 11.864 4.45199 11.864 4.45199C11.864 4.45199 11.8927 4.51917 11.8855 4.56361C11.8809 4.59045 11.8572 4.62179 11.8259 4.62242C11.7425 4.62445 11.7836 4.501 11.7514 4.43104C11.7448 4.44813 11.7401 4.46649 11.7324 4.48251C11.7383 4.50074 11.7415 4.52632 11.7425 4.54107C11.7444 4.57038 11.7421 4.60198 11.7471 4.62698C11.754 4.66237 11.7736 4.68586 11.8036 4.68814C11.866 4.69308 11.8944 4.64262 11.9037 4.60122C11.9145 4.64344 11.9969 4.68998 12.0374 4.63813C12.0911 4.56975 12.0482 4.51119 12.0206 4.44686C12.0008 4.39932 12.0065 4.36811 11.9946 4.38298Z" fill="white"/>
<path d="M9.65433 4.18456C9.65864 4.21533 9.67446 4.23635 9.70027 4.23951C9.75355 4.24629 9.78053 4.20393 9.79059 4.16873C9.79765 4.20552 9.86653 4.24882 9.90399 4.2059C9.9535 4.14911 9.91919 4.09694 9.89851 4.0404C9.88372 3.99849 9.89009 3.9719 9.87913 3.98425C9.83462 4.04667 9.88317 4.10131 9.89899 4.1543C9.87242 4.17608 9.83483 4.15322 9.82291 4.13252C9.79758 4.08966 9.81141 4.00552 9.77977 3.99089C9.77019 4.01343 9.76341 4.03844 9.76341 4.03844C9.76341 4.03844 9.78484 4.09751 9.77649 4.13543C9.77135 4.15841 9.74951 4.18443 9.72239 4.18374C9.65056 4.18216 9.69178 4.07744 9.66727 4.01597C9.6609 4.03034 9.6559 4.0461 9.64844 4.0594C9.65275 4.07548 9.65433 4.09751 9.65433 4.11036C9.65487 4.13569 9.65131 4.16266 9.65433 4.18456Z" fill="white"/>
<path d="M11.354 7.08407C11.362 7.07135 11.3796 7.0364 11.3752 7.01253C11.3707 6.98866 11.3415 6.88908 11.2847 6.86413C11.2283 6.83919 11.1856 6.89148 11.1585 6.96423L11.1398 6.96378C11.1353 6.97455 11.1297 6.99063 11.1252 7.01969C11.1189 7.06166 11.107 7.08869 11.0351 7.15403C10.9745 7.20873 10.7784 7.3401 10.6513 7.40183C10.5241 7.46368 10.4325 7.51705 10.3988 7.53326C10.3652 7.54921 10.3749 7.55517 10.4086 7.5451C10.4421 7.5351 10.611 7.48071 10.6783 7.45298C10.7455 7.42506 10.8276 7.37916 10.9267 7.3149C11.0368 7.24349 11.1026 7.17207 11.1247 7.10876C11.1404 7.06362 11.1445 7.04558 11.1445 7.04558C11.1445 7.04558 11.1858 7.07002 11.256 7.08604C11.3259 7.10212 11.3458 7.09693 11.354 7.08407ZM11.259 6.94257C11.2902 6.95441 11.3092 6.98835 11.3148 7.00892C11.279 7.00975 11.2132 6.99158 11.1852 6.97891C11.2021 6.94631 11.2314 6.93219 11.259 6.94257Z" fill="white"/>
<path d="M10.6083 7.15415C10.5106 7.1406 10.2646 7.10318 10.2044 6.96035C10.2549 6.88666 10.4877 6.79334 10.7793 6.70604C11.0708 6.61892 11.3755 6.50585 11.4574 6.45127C11.4753 6.4452 11.51 6.44703 11.51 6.44703C11.5247 6.4048 11.5979 6.25653 11.6025 6.22551C11.521 6.23013 11.0187 6.26704 10.7956 6.27901C10.5724 6.29104 10.1425 6.28812 9.99924 6.28654C10.0871 6.22336 10.2956 6.10003 10.5936 5.99481C10.6322 5.98113 10.668 5.96879 10.7013 5.95764C10.7261 6.00183 10.7445 6.04552 10.7484 6.08357C10.7673 6.06407 10.7816 5.99943 10.7768 5.93308C10.9505 5.87762 11.04 5.85926 11.0786 5.84881C11.103 5.81722 11.1462 5.68946 11.1527 5.59659C11.1267 5.54929 11.0454 5.49041 10.9731 5.43983C10.8735 5.37025 10.766 5.3096 10.6588 5.33613C10.5122 5.37209 10.4828 5.64141 10.517 5.69852C10.5279 5.71656 10.5537 5.74853 10.5842 5.78797C10.4771 5.83007 10.365 5.87958 10.2663 5.93162C10.0464 6.04748 9.8008 6.17423 9.72917 6.2961L9.70863 6.3061C9.70288 6.31763 9.65755 6.50623 9.65097 6.52655C9.69672 6.52497 10.0383 6.5256 10.2762 6.51819C10.5139 6.5106 10.7218 6.50306 10.8032 6.50306C10.6826 6.53162 10.3666 6.64906 10.2758 6.71813C10.1849 6.78739 10.1278 6.89267 10.1263 7.07317C10.0416 7.04 9.88414 6.96421 9.74999 6.78277C9.60044 6.58055 9.63139 6.37258 9.57154 6.09965C9.48458 5.70358 9.29887 5.36917 9.18321 5.26687C9.14425 5.40665 9.13925 5.512 9.13925 5.512C9.13925 5.512 9.28415 5.83235 9.35749 6.03685C9.43082 6.2414 9.49348 6.44292 9.4904 6.48806C9.43 6.6205 9.07249 6.89793 8.77455 7.06032C8.49202 7.21429 8.24311 7.23088 8.15491 7.12122C8.13759 7.09983 8.12581 7.0745 8.11917 7.04582C8.15751 7.02791 8.196 7.00986 8.23544 6.99182C8.48948 6.87609 8.94067 6.63247 9.0464 6.50465C9.16048 6.34973 9.15891 6.13162 9.092 6.00677C9.02538 5.88199 8.92088 5.73751 8.91273 5.68642C8.90637 5.6623 8.98059 5.69624 9.02442 5.69852C9.04565 5.69693 9.03503 5.66838 8.9895 5.62324C8.95307 5.58728 8.81221 5.4706 8.75839 5.42508C8.7449 5.41349 8.73483 5.41818 8.73209 5.4304C8.72162 5.47699 8.70018 5.57677 8.6919 5.62602L8.69765 5.65084C8.71313 5.66002 8.73093 5.67034 8.73956 5.69611C8.75175 5.73264 8.79441 5.83457 8.86432 5.96322C8.93437 6.0918 9.03558 6.23374 9.04551 6.30541C8.9632 6.41038 8.54817 6.63392 8.14388 6.81816C8.16888 6.74067 8.20832 6.65304 8.26064 6.55574C8.2755 6.53928 8.28905 6.51895 8.30165 6.49604C8.34199 6.42234 8.34589 6.33225 8.32144 6.35131C8.30049 6.3715 8.28542 6.44463 8.26146 6.44957C8.21236 6.45963 8.14347 6.40234 8.1608 6.29756C8.17648 6.20303 8.22701 6.11769 8.24886 6.06306C8.27912 5.98746 8.28741 5.91276 8.26447 5.9534C8.21291 6.04419 8.11615 6.22007 8.08643 6.34295C8.05685 6.46565 8.08828 6.54953 8.14012 6.58201C8.1595 6.59436 8.17805 6.59822 8.19572 6.59581C8.16025 6.6633 8.11643 6.74611 8.08445 6.84487C7.92189 6.91762 7.76371 6.98264 7.63278 7.02949C7.16214 7.19796 6.82675 7.29723 6.59215 7.37092L6.58297 7.37504C6.60023 7.31926 6.5979 7.27165 6.57941 7.28596C6.55846 7.30628 6.54346 7.3794 6.51949 7.38422C6.4704 7.39428 6.40151 7.33705 6.41877 7.23221C6.43452 7.13769 6.48505 7.05247 6.5069 6.99777C6.53702 6.92224 6.54538 6.84741 6.52251 6.88812C6.47088 6.9789 6.37419 7.15478 6.34447 7.2776C6.31482 7.40036 6.34625 7.48425 6.39802 7.51679C6.46252 7.55731 6.51751 7.50761 6.55969 7.43075L6.57448 7.39916C6.58913 7.39916 6.61385 7.39574 6.65076 7.38751C6.75827 7.36332 7.02704 7.32432 7.39661 7.27614C7.67024 7.24056 7.85916 7.16542 8.04179 7.08178C8.04097 7.10198 8.04076 7.12255 8.04165 7.14376C8.05158 7.39454 8.21592 7.46532 8.44066 7.4184C8.65746 7.37288 8.95978 7.17409 9.14097 7.04C9.32989 6.90021 9.4389 6.7753 9.46671 6.73174C9.5171 6.62493 9.53094 6.50692 9.53436 6.45127C9.55086 6.60461 9.56422 6.81683 9.70925 6.99885C9.84278 7.16636 10.1164 7.40011 10.6311 7.4065C10.6328 7.34528 10.6083 7.15415 10.6083 7.15415ZM10.5742 5.60026C10.6479 5.51757 10.8051 5.57164 10.9231 5.67648C10.8627 5.69066 10.7806 5.71593 10.69 5.74828C10.6361 5.68338 10.5761 5.62083 10.5742 5.60026Z" fill="white"/>
<path d="M7.6807 4.46659C7.71412 4.45133 7.81635 4.40536 7.92653 4.34117C8.0365 4.27741 8.13983 4.20018 8.19037 4.14883C8.20975 4.12914 8.227 4.11376 8.23803 4.09546C8.27103 4.10914 8.29377 4.12332 8.30794 4.12889C8.32924 4.13712 8.35765 4.14896 8.37614 4.08831C8.39456 4.02772 8.37012 3.98859 8.3341 3.94187C8.30363 3.90268 8.25528 3.8438 8.21605 3.82918C8.18277 3.8167 8.16695 3.89103 8.17202 3.8892H8.19427L8.19858 3.89128C8.15277 3.91439 8.1173 3.98631 8.11374 4.01157C8.11011 4.03905 8.11532 4.05931 8.18105 4.07621L8.20749 4.084C8.15264 4.14896 8.0504 4.21613 7.98076 4.26374C7.88195 4.33148 7.74171 4.41613 7.70179 4.44056C7.66187 4.46488 7.66522 4.47254 7.6807 4.46659ZM8.27452 3.98935L8.27809 3.95687C8.32431 4.00955 8.35861 4.07223 8.35519 4.08109C8.33396 4.0828 8.30753 4.06317 8.26131 4.04342C8.26644 4.02772 8.27076 4.01037 8.27452 3.98935ZM8.14182 3.98942C8.14154 3.97954 8.15935 3.95206 8.19701 3.93706C8.2346 3.92193 8.25124 3.96415 8.25453 4.01556L8.24337 4.03614L8.20947 4.02443C8.17359 4.01392 8.14935 4.00797 8.14182 3.98942Z" fill="white"/>
<path d="M10.1455 5.45834C10.1998 5.42251 10.3488 5.31488 10.4334 5.24435C10.4922 5.19535 10.5613 5.12317 10.6082 5.06214C10.6377 5.0812 10.6651 5.0981 10.6901 5.11279C10.7383 5.14096 10.7577 5.18275 10.7577 5.18275C10.7666 5.16907 10.8081 5.09424 10.7919 5.05784C10.7822 5.04594 10.7229 5.0113 10.6623 4.9742C10.693 4.9052 10.7353 4.78586 10.6747 4.74407C10.6229 4.70862 10.5354 4.76731 10.495 4.84347C10.4616 4.90653 10.4572 4.96002 10.521 5.00383C10.5389 5.01618 10.5561 5.02783 10.573 5.03891C10.5087 5.10925 10.3902 5.21333 10.3059 5.28417C10.2012 5.37179 10.1022 5.45771 10.0849 5.47822L10.0799 5.4862C10.0571 5.42251 10.0633 5.38319 10.0463 5.40434C9.97298 5.51937 10.0649 5.61256 10.0983 5.70563C10.0531 5.74665 9.98386 5.70898 9.96065 5.67309C9.91121 5.59876 9.92771 5.44783 9.86985 5.42447C9.85492 5.46524 9.8452 5.51063 9.8452 5.51063C9.8452 5.51063 9.88923 5.61402 9.87807 5.68227C9.87115 5.72355 9.83459 5.77185 9.78658 5.77267C9.65812 5.77597 9.72146 5.58591 9.67189 5.47828C9.66182 5.50468 9.65463 5.53292 9.64258 5.55736C9.65169 5.58566 9.65668 5.62491 9.65799 5.64764C9.66127 5.69278 9.65757 5.74121 9.66518 5.77996C9.67579 5.8344 9.70606 5.87062 9.75228 5.87397C9.84807 5.88176 9.89183 5.80389 9.90635 5.74039C9.92285 5.80534 10.0497 5.87676 10.1121 5.79711C10.1948 5.69183 10.1286 5.60167 10.0864 5.50266L10.0814 5.4898C10.0873 5.49189 10.1094 5.48221 10.1455 5.45834ZM10.5202 4.8655C10.552 4.80656 10.6189 4.80156 10.639 4.83245C10.6549 4.85702 10.6562 4.90494 10.6323 4.95553C10.5732 4.91849 10.5206 4.88221 10.5202 4.8655Z" fill="white"/>
<path d="M8.05393 5.08342C7.94108 5.07544 7.88034 4.97206 7.84563 4.82271C7.81084 4.67336 7.83214 4.4764 7.84159 4.42594C7.85104 4.37555 7.79783 4.40157 7.77715 4.52395C7.75661 4.6462 7.73593 4.8417 7.80872 5.04638C7.88137 5.25081 8.00524 5.3271 8.11378 5.30095C8.22231 5.27493 8.31784 5.02024 8.35153 4.90596C8.38515 4.79162 8.53559 4.32534 8.62078 4.30027C8.63269 4.35744 8.55456 4.50084 8.52957 4.71641C8.50471 4.93198 8.54799 5.21473 8.82162 5.26487C9.09525 5.31507 9.28089 5.13755 9.3482 5.01416C9.41558 4.89096 9.44701 4.76142 9.45461 4.69634C9.46337 4.86177 9.57622 5.12008 9.79541 5.19371C10.0072 5.26487 10.169 5.19972 10.2405 5.10748C10.304 5.02555 10.3557 4.85683 10.3601 4.72743C10.3645 4.59815 10.2527 4.36156 10.2277 4.28622C10.2026 4.21107 10.1897 4.1589 10.1875 4.13288C10.1854 4.10686 10.2441 4.16302 10.281 4.17403C10.306 4.17903 10.2972 4.1249 10.2668 4.08774C10.2365 4.0507 10.0723 3.8017 10.0608 3.81905C10.0537 3.82943 9.98797 4.01259 9.98366 4.04064C10.0097 4.05773 10.0398 4.10483 10.0421 4.14997C10.0441 4.19511 10.0876 4.39359 10.1278 4.50388C10.168 4.61416 10.2461 4.82575 10.2516 4.88393C10.1735 4.93901 9.99749 5.00909 9.83034 4.93806C9.66319 4.86677 9.60984 4.76351 9.59142 4.57903C9.57965 4.46114 9.57848 4.24399 9.53644 4.06242C9.51275 3.95979 9.46283 3.85545 9.40353 3.80006C9.38956 3.83405 9.32656 4.04368 9.32656 4.04368C9.3471 4.10382 9.41099 4.30635 9.40894 4.48185C9.40668 4.65722 9.39284 4.82885 9.19618 4.94711C8.99965 5.06538 8.71966 5.01827 8.64687 4.83372C8.57408 4.64924 8.73588 4.23418 8.73376 4.1249C8.73157 4.01563 8.71192 4.0005 8.66638 4.0186C8.62078 4.03665 8.52731 4.142 8.44705 4.31338C8.36666 4.48488 8.33098 4.65627 8.28524 4.80068C8.23971 4.94509 8.16678 5.0914 8.05393 5.08342Z" fill="white"/>
<path d="M4.77757 4.44387C4.91644 4.43381 5.03381 4.32852 5.06414 4.30054C5.09454 4.27237 5.11091 4.23039 5.08913 4.24635C4.92849 4.38974 4.71354 4.3938 4.70149 4.36967C4.70697 4.34562 4.76353 4.30649 4.84604 4.25141C4.89617 4.21792 4.94081 4.18652 4.97423 4.14201L4.98334 4.14359C5.04449 4.15701 5.11509 4.18373 5.13666 4.16233C5.17178 4.1277 5.17644 4.07098 5.13837 4.00982C5.10618 3.9579 5.03113 3.9096 4.96595 3.87471C4.90089 3.84002 4.88829 3.89542 4.87994 3.91517C4.87193 3.93359 4.87521 3.94929 4.88898 3.94967C4.86802 3.97823 4.8531 4.01501 4.84762 4.0454C4.84406 4.06503 4.84693 4.08111 4.85495 4.09434C4.85727 4.09807 4.86933 4.11282 4.89213 4.12156L4.92041 4.13036C4.87172 4.17531 4.81564 4.21051 4.7862 4.2283C4.73306 4.2604 4.67006 4.31656 4.65054 4.37461C4.63096 4.43286 4.63856 4.45394 4.77757 4.44387ZM5.02305 4.03426L5.0284 4.00463V3.98563C5.07243 4.01767 5.14282 4.07832 5.13851 4.11466C5.11064 4.10833 5.0575 4.09712 5.00703 4.08414C5.01347 4.06901 5.01874 4.05243 5.02305 4.03426ZM4.89254 4.0435C4.86015 4.01767 4.89172 3.9919 4.92041 3.97531C4.95745 3.95392 4.97916 3.97158 4.99813 4.02774C4.99149 4.04382 4.98217 4.05945 4.97122 4.07446C4.94239 4.06553 4.90178 4.05122 4.89254 4.0435Z" fill="white"/>
<path d="M5.19291 6.01216C5.15299 6.04679 5.13751 6.15949 5.14566 6.16626C5.15374 6.17303 5.2785 6.21513 5.29802 6.22425L5.30692 6.19032C5.36636 6.24369 5.43223 6.50997 5.44688 6.51073C5.46154 6.51143 5.48277 6.48059 5.49667 6.40988C5.50947 6.34429 5.52228 6.24616 5.53563 6.16626C5.54809 6.09314 5.56747 6.05129 5.61143 6.04293C5.65546 6.0347 5.68806 6.09111 5.69942 6.12948C5.69942 6.12948 5.73031 6.05572 5.73688 6.00988C5.72955 5.98576 5.66108 5.89485 5.60493 5.92492C5.54871 5.95506 5.51351 6.08263 5.50215 6.1624C5.49071 6.24204 5.48194 6.34081 5.46811 6.35663C5.4536 6.28864 5.4071 6.16696 5.35095 6.09858C5.28781 6.02198 5.214 5.99387 5.19291 6.01216Z" fill="white"/>
<path d="M4.66299 5.87596C4.7151 5.86165 4.8324 5.84367 4.88855 5.81436C4.94148 5.78954 5.0318 5.66849 5.06686 5.62335C5.10185 5.57821 5.10192 5.55555 5.09302 5.54358C5.0572 5.52395 4.82582 5.50452 4.71421 5.53218C4.68339 5.55301 4.62306 5.66463 4.61416 5.68799C4.60512 5.71123 4.61745 5.70977 4.65484 5.70154C4.69229 5.69318 4.86985 5.69768 4.93408 5.71123C4.90731 5.73009 4.72571 5.82183 4.68983 5.84367C4.65408 5.86545 4.64504 5.87824 4.66299 5.87596Z" fill="white"/>
<path d="M15.4198 6.52223C15.4145 6.38694 15.3482 6.17922 15.0962 5.86051C15.0092 5.75048 14.8868 5.60727 14.7578 5.46058C14.7542 5.41056 14.7506 5.36485 14.7474 5.3256C14.7305 5.12371 14.6732 4.71181 14.6485 4.46832C14.6425 4.40691 14.642 4.34157 14.6429 4.30745C14.6438 4.28035 14.6633 4.28396 14.6902 4.31181C14.717 4.33961 14.7584 4.38019 14.767 4.3774C14.7854 4.37107 14.7694 4.3096 14.7328 4.23673C14.6962 4.16373 14.558 3.86852 14.5326 3.85706C14.5195 3.85123 14.4543 4.02458 14.4502 4.06003C14.4632 4.08181 14.4966 4.11568 14.4998 4.21425C14.5032 4.31276 14.5627 4.89459 14.5968 5.26122L14.5987 5.28166C14.4057 5.06622 14.224 4.86977 14.1492 4.79012C14.1363 4.77632 14.122 4.76062 14.1067 4.74378C14.0945 4.64571 14.0833 4.55227 14.0755 4.47509C14.0692 4.41381 14.0688 4.34834 14.0699 4.31422C14.0705 4.28719 14.0902 4.29086 14.117 4.31871C14.144 4.34651 14.1852 4.38709 14.1939 4.38418C14.2122 4.37797 14.1963 4.3165 14.1596 4.2435C14.1231 4.17051 13.9789 3.86852 13.9534 3.85706C13.9404 3.85123 13.8722 4.03838 13.8682 4.07358C13.8813 4.09548 13.9146 4.12935 13.9179 4.22793C13.9192 4.26978 13.9301 4.39665 13.9446 4.55676C13.8167 4.40475 13.6915 4.24559 13.6826 4.21324C13.6794 4.19729 13.7065 4.2071 13.7565 4.2152C13.8064 4.22318 13.8531 4.23818 13.8451 4.21349C13.8414 4.20203 13.8223 4.17342 13.7746 4.14379C13.7268 4.11422 13.6044 4.03762 13.5133 3.98355C13.422 3.92942 13.3768 3.8839 13.358 3.89688C13.3487 3.90327 13.357 4.08884 13.3623 4.11182C13.3852 4.11391 13.4276 4.13094 13.4546 4.16702C13.4819 4.20311 13.6563 4.44774 13.7943 4.61317C13.834 4.66078 13.8962 4.7346 13.969 4.81982C13.9832 4.9722 13.9982 5.12966 14.0105 5.26122C14.0385 5.56131 14.1392 6.35275 14.1401 6.60998C14.0658 6.67968 13.9139 6.77693 13.7575 6.77895C13.6012 6.78092 13.5155 6.73976 13.4525 6.62353C13.433 6.5875 13.415 6.55129 13.397 6.5185C13.3544 6.44056 13.2594 6.39681 13.1678 6.41827L13.1538 6.42201L13.1289 6.43398C13.0668 6.46645 13.0027 6.5209 12.9399 6.60536C12.8315 6.75186 12.7622 6.91077 12.6819 7.0484C12.5983 7.19174 12.5341 7.28791 12.3875 7.26492C12.2842 7.24872 12.2058 7.16015 12.1575 7.05119C12.2932 6.95724 12.3919 6.83467 12.464 6.66481C12.5578 6.44404 12.5913 6.19517 12.583 5.91534C12.575 5.65197 12.4549 5.03235 12.4232 4.79487C12.3916 4.55727 12.3461 4.36227 12.3514 4.31156C12.3563 4.26262 12.4342 4.37785 12.4742 4.38646C12.4946 4.3819 12.4836 4.3084 12.4449 4.24629C12.4186 4.20406 12.3353 4.01198 12.2808 3.91935C12.2552 3.87554 12.249 3.85016 12.2371 3.84496C12.2253 3.83958 12.1346 4.03338 12.1455 4.05446C12.1724 4.09282 12.1907 4.11112 12.1964 4.17988C12.2021 4.24863 12.2643 4.75334 12.3187 5.12504C12.3596 5.4055 12.4501 5.91496 12.4617 6.29153C12.4655 6.41441 12.448 6.5026 12.4328 6.55186C12.3938 6.62733 12.3302 6.71115 12.1066 6.87025C12.0721 6.64543 12.1097 6.46278 12.0769 6.44588C12.04 6.44987 12.0341 6.55465 12.03 6.68393C12.0279 6.74363 12.0305 6.82631 12.0417 6.91513C11.7672 7.09861 11.4046 7.26568 11.2343 7.35489C11.1344 7.40731 11.1704 7.41953 11.2549 7.39338C11.3395 7.36711 11.8043 7.24523 12.0523 7.11475L12.0791 7.09994C12.0917 7.14368 12.1069 7.18604 12.1257 7.2251C12.2092 7.39857 12.3284 7.50158 12.4577 7.49151C12.5663 7.48315 12.6451 7.36685 12.7139 7.22814C12.7834 7.08772 12.9008 6.82106 13.016 6.72185C13.0602 6.68361 13.106 6.65335 13.1505 6.63518C13.1505 6.63518 13.2292 6.6089 13.3016 6.6562C13.3275 6.67329 13.3469 6.6976 13.3591 6.72482C13.3877 6.78731 13.4215 6.86683 13.4905 6.93343C13.6121 7.05056 13.8077 7.02637 13.9543 6.95825C14.1008 6.89006 14.1756 6.7837 14.2082 6.65733C14.2638 6.44113 14.2549 6.21961 14.2443 6.02284C14.232 5.79828 14.1961 5.56878 14.1757 5.3256C14.1691 5.24741 14.1563 5.13865 14.1416 5.0207C14.2845 5.18556 14.4328 5.35289 14.5228 5.44437C14.5538 5.47596 14.5865 5.51104 14.6201 5.54807C14.647 5.91616 14.6728 6.37674 14.6864 6.57003C14.6999 6.76262 14.6912 7.00472 14.6896 7.04682C14.688 7.08892 14.7114 7.0817 14.745 6.98826C14.7901 6.86284 14.8184 6.53394 14.8085 6.31584C14.8026 6.18624 14.7897 5.94997 14.7757 5.72648C14.8866 5.85823 14.9918 5.99125 15.0603 6.08102C15.182 6.24044 15.2939 6.42999 15.333 6.54825C15.372 6.66664 15.3763 6.70172 15.3839 6.7228C15.3915 6.74388 15.4251 6.65752 15.4198 6.52223Z" fill="white"/>
<path d="M13.364 11.0254C13.353 10.994 13.3193 10.9709 13.2791 10.9709C13.2388 10.9709 13.2052 10.994 13.1941 11.0254H12.8128C12.8089 10.9831 12.8127 10.9406 12.8247 10.8992L13.612 10.8987L13.6339 10.9357C13.6537 10.969 13.6787 10.9991 13.7077 11.0254L13.364 11.0254ZM13.8852 10.6596H12.9391C13.0118 10.6071 13.0499 10.5305 13.0397 10.453C13.0332 10.4042 12.9848 10.3677 12.9258 10.3628H12.8962C12.8245 10.3698 12.7724 10.4215 12.78 10.4783L12.7829 10.5002L12.7864 10.5337C12.7902 10.5759 12.7865 10.6183 12.7746 10.6596H5.78125C5.8851 10.8107 6.07443 10.9033 6.27889 10.9032L12.6605 10.8993C12.5875 10.9518 12.5492 11.0285 12.5595 11.1061C12.5671 11.1629 12.6313 11.2034 12.703 11.1964C12.7747 11.1894 12.8267 11.1376 12.8192 11.0808L12.8163 11.059H13.1914C13.198 11.0956 13.2345 11.1237 13.2791 11.1237C13.3236 11.1237 13.3602 11.0956 13.3668 11.059H13.7483V11.0581C13.828 11.1146 13.9292 11.1471 14.0363 11.1471C14.137 11.1471 14.2187 11.0771 14.2187 10.9907V10.9455C14.2187 10.7877 14.0694 10.6596 13.8852 10.6596" fill="white"/>
</g>
<defs>
<clipPath id="clip0_202_3652">
<rect width="20" height="15" fill="white"/>
</clipPath>
</defs>
</svg>
