<svg width="20" height="15" viewBox="0 0 20 15" fill="none" xmlns="http://www.w3.org/2000/svg">
<g clip-path="url(#clip0_202_4061)">
<mask id="mask0_202_4061" style="mask-type:luminance" maskUnits="userSpaceOnUse" x="0" y="0" width="20" height="15">
<path d="M0 0H20V15H0V0Z" fill="white"/>
</mask>
<g mask="url(#mask0_202_4061)">
<path fill-rule="evenodd" clip-rule="evenodd" d="M-0.625 0H21.875V15H-0.625V0Z" fill="white"/>
<path fill-rule="evenodd" clip-rule="evenodd" d="M-0.625 0H21.875V7.5H-0.625V0Z" fill="#DF0000"/>
<path fill-rule="evenodd" clip-rule="evenodd" d="M4.56248 1.25613C3.97055 1.38334 3.4404 1.71033 3.06105 2.1822C2.6817 2.65407 2.47624 3.24209 2.47917 3.84753C2.4821 4.45297 2.69325 5.03898 3.07715 5.50715C3.46106 5.97532 3.99435 6.29716 4.58749 6.41863C4.24769 6.51696 3.89183 6.54723 3.54032 6.50773C3.1888 6.46822 2.84854 6.35971 2.53905 6.18842C2.22956 6.01712 1.95693 5.78642 1.73679 5.50953C1.51666 5.23264 1.35335 4.91502 1.25623 4.57488C1.06335 3.89116 1.14903 3.15888 1.49453 2.53815C1.84003 1.91742 2.41725 1.45873 3.09998 1.26238C3.59998 1.11863 4.06249 1.11551 4.56561 1.25613H4.56248Z" fill="white"/>
<path fill-rule="evenodd" clip-rule="evenodd" d="M4.15625 3.4376L4.30937 3.90635L3.90313 3.61885L3.50312 3.9126L3.65 3.4376L3.25 3.14697L3.74688 3.14072L3.90313 2.67197L4.05937 3.14072H4.55312L4.15625 3.4376ZM4.70312 5.0626L4.85938 5.53447L4.45312 5.24697L4.05 5.5376L4.2 5.06572L3.8 4.77197L4.29688 4.76885L4.45 4.29697L4.60625 4.76572H5.10625L4.70312 5.0626ZM6.53125 5.0501L6.68437 5.5251L6.27812 5.23447L5.87813 5.5251L6.025 5.05322L5.625 4.7626L6.12187 4.75635L6.27812 4.2876L6.43437 4.75635H6.92812L6.53125 5.0501ZM7.075 3.4376L7.22813 3.90947L6.82188 3.62197L6.42188 3.9126L6.57188 3.44072L6.16875 3.14697L6.66875 3.14385L6.81875 2.67197L6.975 3.14072H7.475L7.075 3.4376ZM5.62813 2.36572L5.78438 2.84072L5.37813 2.5501L4.975 2.84385L5.125 2.36885L4.725 2.0751L5.21875 2.07197L5.375 1.6001L5.53125 2.06885H6.03125L5.62813 2.36572Z" fill="white"/>
</g>
</g>
<defs>
<clipPath id="clip0_202_4061">
<rect width="20" height="15" fill="white"/>
</clipPath>
</defs>
</svg>
