<svg width="20" height="15" viewBox="0 0 20 15" fill="none" xmlns="http://www.w3.org/2000/svg">
<g clip-path="url(#clip0_202_4078)">
<mask id="mask0_202_4078" style="mask-type:luminance" maskUnits="userSpaceOnUse" x="-1" y="0" width="21" height="15">
<path d="M0.000976574 0H19.999V15H-0.00195312L0.000976574 0Z" fill="white"/>
</mask>
<g mask="url(#mask0_202_4078)">
<path fill-rule="evenodd" clip-rule="evenodd" d="M-1.37598 0H28.624V15H-1.37598V0Z" fill="white"/>
<path fill-rule="evenodd" clip-rule="evenodd" d="M-1.37598 9.99902H28.624V15H-1.37598V9.99902Z" fill="#D50000"/>
<path fill-rule="evenodd" clip-rule="evenodd" d="M-1.37598 5.00098H28.624V9.99902H-1.37598V5.00098Z" fill="#0000BF"/>
<path fill-rule="evenodd" clip-rule="evenodd" d="M7.13184 2.72461C7.01465 4.5293 6.94434 5.51953 6.67188 5.97656C6.37305 6.46875 6.08594 6.8291 4.92285 7.26562C3.7627 6.8291 3.47559 6.46875 3.17676 5.97656C2.90137 5.51953 2.83398 4.5293 2.7168 2.72461L2.88672 2.66602C3.23242 2.56055 3.49023 2.47559 3.68066 2.4375C3.95312 2.37891 4.1875 2.31445 4.91992 2.2998C5.65234 2.31152 5.88672 2.38184 6.15918 2.44043C6.34668 2.48145 6.61621 2.55762 6.95898 2.66602L7.13184 2.72461Z" fill="#D50000"/>
<path fill-rule="evenodd" clip-rule="evenodd" d="M6.96191 2.66602C6.85059 4.46777 6.75684 5.29395 6.61035 5.68945C6.3291 6.36914 5.88379 6.74121 4.92285 7.0957C3.96191 6.74121 3.5166 6.36914 3.23242 5.68945C3.08594 5.29102 2.99805 4.46777 2.88672 2.66309C3.22656 2.55762 3.49023 2.47559 3.68066 2.4375C3.95312 2.37891 4.1875 2.31152 4.91992 2.2998C5.65234 2.31152 5.88672 2.37891 6.15918 2.4375C6.43036 2.49923 6.69827 2.57452 6.96191 2.66309V2.66602Z" fill="#0000BF"/>
<path fill-rule="evenodd" clip-rule="evenodd" d="M4.92285 3.2168L4.9668 3.3252L5.17187 3.35449L5.04004 3.43359L5.16602 3.51855L4.98145 3.54785L4.92285 3.64746L4.86426 3.54492L4.68848 3.52148L4.80566 3.43359L4.68262 3.35449L4.87891 3.3252L4.92285 3.2168Z" fill="#FFDF00"/>
<path fill-rule="evenodd" clip-rule="evenodd" d="M6.54297 5.26172L6.42871 5.17383L6.34961 5.03906L6.19141 4.90137L6.10645 4.76367L5.94824 4.62012L5.87207 4.48242L5.78418 4.41504L5.73145 4.35938L5.58496 4.48535L5.50879 4.62305L5.41211 4.71094L5.30371 4.62598L5.22461 4.48535L4.92285 3.94922L4.62109 4.48535L4.54199 4.62598L4.43359 4.71094L4.33691 4.62305L4.25781 4.48535L4.11426 4.35938L4.05859 4.41211L3.97363 4.48242L3.89746 4.62012L3.73926 4.76367L3.6543 4.90137L3.49609 5.03906L3.41699 5.17383L3.30273 5.26172C3.36715 5.66498 3.55796 6.03737 3.84766 6.3252C4.16195 6.59418 4.52637 6.7983 4.91992 6.92578C5.31647 6.80115 5.68336 6.59677 5.99805 6.3252C6.16797 6.14941 6.48438 5.75977 6.54297 5.26172Z" fill="white"/>
<path fill-rule="evenodd" clip-rule="evenodd" d="M5.40332 2.45801L5.4502 2.56641L5.65527 2.5957L5.52051 2.6748L5.64941 2.75977L5.46484 2.78906L5.40625 2.88867L5.34766 2.78613L5.17187 2.7627L5.28906 2.6748L5.16602 2.5957L5.35937 2.56641L5.40625 2.45801H5.40332ZM4.43652 2.45801L4.4834 2.56641L4.68848 2.59277L4.55664 2.67187L4.68262 2.75684L4.49805 2.78613L4.43945 2.88574L4.38086 2.78613L4.20508 2.75977L4.32227 2.67187L4.19922 2.59277L4.39551 2.56348L4.43945 2.45508L4.43652 2.45801Z" fill="#FFDF00"/>
<path fill-rule="evenodd" clip-rule="evenodd" d="M6.29102 5.94727H6.07422L5.86914 5.93262L5.62598 5.81543H5.35059L5.11328 5.93262L4.92285 5.9502L4.73535 5.93262L4.49805 5.81543H4.21973L3.97363 5.93262L3.77148 5.9502L3.54883 5.94727L3.44336 5.76563L3.44629 5.75977L3.77441 5.81543L3.97656 5.80078L4.21973 5.68066H4.49512L4.73535 5.79785L4.92285 5.81543L5.11328 5.79785L5.35059 5.68066H5.62598L5.87207 5.79785L6.07422 5.81543L6.39063 5.75684L6.39648 5.76855L6.28809 5.94727H6.29102ZM3.75977 6.22559L3.97656 6.21094L4.21973 6.09375H4.49512L4.73535 6.21094L4.92285 6.22559L5.11035 6.21094L5.35059 6.09375H5.62598L5.86914 6.21094L6.08887 6.22559L6.22949 6.0498H6.22656L6.07422 6.09082L5.87207 6.07617L5.62891 5.95898H5.35352L5.11328 6.07617L4.92578 6.09375L4.73535 6.07617L4.49805 5.95898H4.21973L3.97363 6.07617L3.77148 6.09375L3.625 6.05566V6.06152L3.75684 6.22559H3.75977Z" fill="#0000BF"/>
</g>
</g>
<defs>
<clipPath id="clip0_202_4078">
<rect width="20" height="15" fill="white"/>
</clipPath>
</defs>
</svg>
