<svg width="20" height="15" viewBox="0 0 20 15" fill="none" xmlns="http://www.w3.org/2000/svg">
<g clip-path="url(#clip0_202_4129)">
<path d="M0 0H20V15H0V0Z" fill="#EE1C25"/>
<path d="M0 0H20V10H0V0Z" fill="#0B4EA2"/>
<path d="M0 0H20V5H0V0Z" fill="white"/>
<path d="M7.28145 11.5876C5.9377 10.9407 4.0127 9.65322 4.0127 7.1126C4.0127 4.56885 4.1377 3.4126 4.1377 3.4126H10.4283C10.4283 3.4126 10.5502 4.56885 10.5502 7.1126C10.5502 9.65635 8.6252 10.9376 7.28145 11.5876Z" fill="white"/>
<path d="M7.28125 11.25C6.04688 10.6562 4.28125 9.475 4.28125 7.14375C4.28125 4.8125 4.39375 3.75 4.39375 3.75H10.1687C10.1687 3.75 10.2781 4.8125 10.2781 7.14375C10.2812 9.47813 8.51562 10.6562 7.28125 11.25Z" fill="#EE1C25"/>
<path d="M7.54375 6.53135C7.87812 6.5376 8.53125 6.5501 9.10938 6.35635C9.10938 6.35635 9.09688 6.56572 9.09688 6.80635C9.09688 7.04697 9.1125 7.25635 9.1125 7.25635C8.58125 7.07822 7.92187 7.0751 7.54375 7.07822V8.36572H7.01875V7.07822C6.64375 7.0751 5.98438 7.07822 5.45312 7.25635C5.45312 7.25635 5.46875 7.04697 5.46875 6.80635C5.46875 6.5626 5.45312 6.35635 5.45312 6.35635C6.03125 6.5501 6.68438 6.5376 7.01562 6.53135V5.72197C6.7125 5.72197 6.275 5.73447 5.77812 5.9001C5.77812 5.9001 5.79375 5.69385 5.79375 5.4501C5.79375 5.20947 5.77812 5.0001 5.77812 5.0001C6.275 5.16572 6.7125 5.18135 7.01562 5.17822C7 4.66572 6.85 4.02197 6.85 4.02197C6.85 4.02197 7.15937 4.04385 7.28125 4.04385C7.40625 4.04385 7.7125 4.02197 7.7125 4.02197C7.7125 4.02197 7.5625 4.66572 7.54688 5.17822C7.85 5.18135 8.2875 5.16572 8.78438 5.0001C8.78438 5.0001 8.76875 5.20947 8.76875 5.4501C8.76875 5.69385 8.78438 5.9001 8.78438 5.9001C8.38389 5.77096 7.96439 5.71073 7.54375 5.72197V6.53447V6.53135Z" fill="white"/>
<path d="M7.28105 8.22803C6.65918 8.22803 6.32793 9.0874 6.32793 9.0874C6.32793 9.0874 6.14043 8.68115 5.63418 8.68115C5.29043 8.68115 5.04043 8.98428 4.87793 9.26865C5.50293 10.2593 6.4998 10.8718 7.28105 11.2499C8.0623 10.8749 9.0623 10.2593 9.68418 9.26865C9.52168 8.9874 9.27168 8.68115 8.92793 8.68115C8.42168 8.68115 8.23418 9.0874 8.23418 9.0874C8.23418 9.0874 7.90605 8.22803 7.28105 8.22803Z" fill="#0B4EA2"/>
</g>
<defs>
<clipPath id="clip0_202_4129">
<rect width="20" height="15" fill="white"/>
</clipPath>
</defs>
</svg>
