<svg width="20" height="15" viewBox="0 0 20 15" fill="none" xmlns="http://www.w3.org/2000/svg">
<g clip-path="url(#clip0_202_3642)">
<rect width="20" height="15" fill="white"/>
<path d="M3.06641 5.04736L4.91541 2.27386L5.37766 2.58203L3.52866 5.35553L3.06641 5.04736ZM3.75978 5.50961L5.60878 2.73611L6.07103 3.04428L4.22203 5.81778L3.75978 5.50961ZM4.45316 5.97186L6.30216 3.19836L6.76441 3.50653L4.91541 6.28003L4.45316 5.97186Z" fill="black"/>
<path d="M13.2363 11.8271L15.0853 9.05365L15.5476 9.36181L13.6986 12.1353L13.2363 11.8271ZM13.9297 12.2894L15.7787 9.5159L16.241 9.82406L14.392 12.5976L13.9297 12.2894ZM14.6231 12.7516L16.4721 9.97815L16.9343 10.2863L15.0853 13.0598L14.6231 12.7516Z" fill="black"/>
<path d="M13.9287 10.2861L16.24 11.827L13.9287 10.2861Z" fill="black"/>
<path d="M13.9287 10.2861L16.24 11.827" stroke="white" stroke-width="0.5"/>
<path d="M7.22656 5.81763C7.71695 5.08205 8.47946 4.5714 9.34634 4.39803C10.2132 4.22465 11.1135 4.40274 11.8491 4.89313C12.5846 5.38351 13.0953 6.14602 13.2687 7.01291C13.442 7.87979 13.2639 8.78005 12.7736 9.51563L7.22656 5.81763Z" fill="#CD2E3A"/>
<path d="M7.22595 5.81781C6.73557 6.55339 6.55748 7.45364 6.73085 8.32053C6.90423 9.18742 7.41488 9.94992 8.15045 10.4403C8.88603 10.9307 9.78629 11.1088 10.6532 10.9354C11.5201 10.762 12.2826 10.2514 12.773 9.51581C13.0181 9.14802 13.1072 8.69789 13.0205 8.26445C12.9338 7.831 12.6785 7.44975 12.3107 7.20456C11.9429 6.95937 11.4928 6.87032 11.0593 6.95701C10.6259 7.0437 10.2446 7.29902 9.99945 7.66681L7.22595 5.81781Z" fill="#0047A0"/>
<path d="M9.99976 7.66684C10.5103 6.90096 10.3034 5.86618 9.53751 5.35559C8.77163 4.845 7.73685 5.05196 7.22626 5.81784C6.71567 6.58372 6.92263 7.6185 7.68851 8.12909C8.45439 8.63968 9.48917 8.43272 9.99976 7.66684Z" fill="#CD2E3A"/>
<path d="M4.91504 13.0596L3.06604 10.2861L3.52829 9.9779L5.37729 12.7514L4.91504 13.0596ZM5.60841 12.5973L3.75941 9.82382L4.22166 9.51565L6.07066 12.2892L5.60841 12.5973ZM6.30179 12.1351L4.45279 9.36157L4.91504 9.0534L6.76404 11.8269L6.30179 12.1351Z" fill="black"/>
<path d="M15.085 6.27979L13.236 3.50628L13.6982 3.19812L15.5472 5.97162L15.085 6.27979ZM15.7783 5.81754L13.9293 3.04403L14.3916 2.73587L16.2406 5.50937L15.7783 5.81754ZM16.4717 5.35528L14.6227 2.58178L15.085 2.27362L16.934 5.04712L16.4717 5.35528Z" fill="black"/>
<path d="M4.56836 11.2876L5.26173 10.8253L4.56836 11.2876ZM13.9289 5.04722L14.7379 4.50793L13.9289 5.04722ZM15.4312 4.04568L16.1246 3.58343L15.4312 4.04568Z" fill="black"/>
<path d="M4.56836 11.2876L5.26173 10.8253M13.9289 5.04722L14.7379 4.50793M15.4312 4.04568L16.1246 3.58343" stroke="white" stroke-width="0.5"/>
</g>
<defs>
<clipPath id="clip0_202_3642">
<rect width="20.0002" height="15" fill="white"/>
</clipPath>
</defs>
</svg>
