<svg width="20" height="15" viewBox="0 0 20 15" fill="none" xmlns="http://www.w3.org/2000/svg">
<g clip-path="url(#clip0_202_3783)">
<path d="M0 0H20V15H0V0Z" fill="#FFB700"/>
<path d="M0.833984 7.5001L3.58398 0.834473H6.33398V14.1657H3.58398L0.833984 7.5001Z" fill="#FF5B00"/>
<path d="M0.833984 0.834473H3.58398V14.1657H0.833984V0.834473Z" fill="#005641"/>
<path d="M7.16602 0.834473H19.2504V14.1657H7.16602V0.834473Z" fill="#8D2029"/>
<path d="M18.1035 12.7688C18.1035 12.7688 18.216 12.9969 18.341 13.0938C18.5285 13.2313 18.9035 13.2188 19.0691 13.3844C19.2598 13.575 19.0535 13.8282 19.0535 13.8532L19.066 13.9844C19.066 13.9844 18.9348 13.9844 18.8785 13.9938C18.7973 14.0063 18.766 14.075 18.6098 14.0657C18.2254 14.0407 18.241 13.6907 18.2191 13.3938C18.2004 13.2813 18.1566 13.1313 18.1285 13.0188C18.1066 12.925 18.1035 12.7688 18.1035 12.7688Z" fill="#FFB700" stroke="black" stroke-width="0.05"/>
<path d="M8.3125 12.7688C8.3125 12.7688 8.2 12.9969 8.075 13.0938C7.8875 13.2313 7.5125 13.2188 7.34687 13.3844C7.15625 13.575 7.3625 13.8282 7.3625 13.8532L7.35 13.9844C7.35 13.9844 7.48125 13.9844 7.5375 13.9938C7.61875 14.0063 7.65 14.075 7.80625 14.0657C8.19062 14.0407 8.175 13.6907 8.19687 13.3938C8.21562 13.2813 8.25938 13.1313 8.2875 13.0188C8.30938 12.925 8.3125 12.7688 8.3125 12.7688Z" fill="#FFB700" stroke="black" stroke-width="0.05"/>
<path d="M18.1035 2.2312C18.1035 2.2312 18.216 2.00308 18.341 1.9062C18.5285 1.7687 18.9035 1.7812 19.0691 1.61558C19.2598 1.42495 19.0535 1.17183 19.0535 1.14683L19.066 1.01558C19.066 1.01558 18.9348 1.01558 18.8785 1.0062C18.7973 0.993702 18.766 0.924951 18.6098 0.934326C18.2254 0.959326 18.241 1.30933 18.2191 1.6062C18.2004 1.7187 18.1566 1.8687 18.1285 1.9812C18.1066 2.07495 18.1035 2.2312 18.1035 2.2312Z" fill="#FFB700" stroke="black" stroke-width="0.05"/>
<path d="M8.31543 2.2312C8.31543 2.2312 8.20293 2.00308 8.07793 1.9062C7.89043 1.7687 7.51543 1.7812 7.3498 1.61558C7.15918 1.42495 7.36543 1.17183 7.36543 1.14683L7.35293 1.01558C7.35293 1.01558 7.48418 1.01558 7.54043 1.0062C7.62168 0.993702 7.65293 0.924951 7.80918 0.934326C8.19355 0.959326 8.17793 1.30933 8.1998 1.6062C8.21855 1.7187 8.26231 1.8687 8.29043 1.9812C8.31231 2.07495 8.31543 2.2312 8.31543 2.2312Z" fill="#FFB700" stroke="black" stroke-width="0.05"/>
<path d="M11.36 10.6188L11.4318 10.575L11.4631 10.6188C11.5037 10.675 11.6193 10.6719 11.6943 10.6188L11.7537 10.5719L11.8037 10.6156C11.8662 10.675 11.985 10.675 12.0631 10.6156C12.1162 10.5781 12.1256 10.575 12.1568 10.6063C12.1787 10.625 12.2412 10.6438 12.2943 10.6531C12.3943 10.6656 12.3943 10.6656 12.4506 10.5781C12.5006 10.5063 12.5068 10.4781 12.4975 10.4063C12.4887 10.3514 12.4825 10.2961 12.4787 10.2406C12.4725 10.1594 12.4756 10.1594 12.5912 10.1156C12.6486 10.098 12.7049 10.0772 12.76 10.0531C12.8068 10.025 12.9381 9.87189 12.9381 9.84064C12.9381 9.83439 12.8881 9.82189 12.8256 9.81564C12.5756 9.78439 12.535 9.65314 12.6975 9.40939C12.9568 9.00314 13.1162 8.61252 13.1162 8.36565C13.1162 8.25315 13.1256 8.21565 13.1381 8.24065C13.1975 8.33752 13.0912 8.75314 12.935 9.05314L12.8725 9.17189L12.9318 9.15939C12.9631 9.15002 13.1631 9.06564 13.3693 8.97189C13.9381 8.71564 14.1318 8.66564 14.5006 8.68127C14.81 8.69377 14.9381 8.75314 15.1568 8.98127C15.2725 9.10627 15.385 9.19064 15.5881 9.31877C16.0193 9.58752 16.0381 9.61252 16.06 9.93127C16.0818 10.2531 16.0693 10.2719 15.8256 10.325C15.6162 10.3719 15.485 10.4688 15.4506 10.6063C15.4318 10.675 15.4725 10.6781 15.5756 10.6094L15.6537 10.5594L15.6881 10.6094C15.735 10.675 15.8287 10.675 15.9068 10.6094L15.9693 10.5625L16.0318 10.6094C16.1256 10.6875 16.2506 10.6688 16.2881 10.5719C16.2943 10.5563 16.3131 10.5594 16.3506 10.5938C16.4225 10.6563 16.6006 10.6813 16.6193 10.6313C16.6256 10.6125 16.6131 10.5688 16.5881 10.5313C16.485 10.375 16.4506 10.3031 16.4506 10.2188C16.4506 10.1 16.4818 10.0406 16.6193 9.94689C16.7818 9.82814 16.8318 9.67814 16.7068 9.67814C16.6318 9.67814 16.5537 9.60939 16.5037 9.50002C16.4037 9.27502 16.4256 9.02502 16.5756 8.60627C16.6906 8.35988 16.7483 8.09065 16.7443 7.81877C16.7443 7.58752 16.7381 7.55002 16.6881 7.42189C16.649 7.33281 16.6008 7.24799 16.5443 7.16877L16.4568 7.05315L16.5662 6.9594C16.9037 6.68127 16.835 6.22502 16.4287 6.05002C16.3037 5.99377 16.2725 5.99065 16.0537 5.99065C15.9287 5.99065 15.7256 6.00939 15.6162 6.03127C15.4694 6.0545 15.3211 6.06703 15.1725 6.06877C14.96 6.06877 14.9225 6.06252 14.8412 6.01877C14.7568 5.97502 14.7412 5.95314 14.7256 5.84689C14.7241 5.83688 14.7202 5.82738 14.7142 5.81922C14.7082 5.81105 14.7003 5.80446 14.6912 5.80002C14.66 5.79064 14.5287 5.90627 14.51 5.95627C14.4975 5.98439 14.4912 5.98127 14.4631 5.94689C14.4366 5.91284 14.4155 5.87489 14.4006 5.8344C14.3693 5.73127 14.41 5.65627 14.5318 5.59689L14.6256 5.55314L14.5693 5.51877C14.4568 5.44689 14.2631 5.49689 14.1943 5.61252C14.1725 5.64377 14.1506 5.67502 14.1443 5.67502C14.1381 5.67502 14.1006 5.64377 14.0631 5.60314C13.9162 5.45939 13.9662 5.24689 14.1631 5.18439C14.2662 5.15002 14.36 5.17502 14.3787 5.24689C14.41 5.35002 14.4975 5.21252 14.4818 5.08439C14.4725 5.00002 14.4725 4.99689 14.5318 4.99689C14.6131 4.99689 14.7818 5.10314 14.8381 5.18439C14.9006 5.28127 14.8943 5.43439 14.8256 5.54689L14.7725 5.63439L14.8443 5.62189C14.9443 5.60002 15.0443 5.53752 15.0943 5.45939C15.1207 5.40964 15.1355 5.35458 15.1377 5.29832C15.1398 5.24206 15.1293 5.18603 15.1068 5.13439C15.06 5.05002 15.0662 5.03752 15.135 5.06564C15.2475 5.11252 15.31 5.16564 15.3537 5.25627C15.3975 5.33752 15.4006 5.35627 15.3787 5.44377C15.3637 5.49705 15.3405 5.54766 15.31 5.59377C15.2725 5.64377 15.2693 5.65314 15.3006 5.65314C15.3568 5.65314 15.4693 5.60002 15.51 5.55939C15.5318 5.53439 15.5631 5.48127 15.5787 5.43439L15.61 5.35627L15.6412 5.41877C15.6881 5.50314 15.7818 5.58127 15.8943 5.63127C16.0162 5.68127 16.0662 5.68439 16.0037 5.63752C15.96 5.60627 15.8787 5.37189 15.9068 5.35002C16.0417 5.42554 16.1649 5.52029 16.2725 5.63127C16.4506 5.79065 16.5631 5.84377 16.7256 5.84377C16.935 5.84377 17.0568 5.66252 16.9631 5.49064C16.91 5.39064 16.7881 5.37502 16.7131 5.45939C16.6818 5.50002 16.6725 5.53127 16.6818 5.57502C16.6943 5.62502 16.6912 5.63127 16.6443 5.63127C16.5818 5.63127 16.4631 5.55314 16.2506 5.37502C15.9548 5.12047 15.6148 4.92239 15.2475 4.79064C14.9986 4.73313 14.7417 4.71938 14.4881 4.75002C14.2881 4.78752 14.0506 4.90314 13.9193 5.02502C13.6912 5.24377 13.6881 5.53439 13.91 5.80002L13.9725 5.87502L13.9318 5.94377C13.9013 5.99301 13.8861 6.05027 13.8884 6.10818C13.8906 6.16609 13.9101 6.22202 13.9443 6.26877C13.9756 6.31252 14.0068 6.34689 14.0162 6.34689C14.0225 6.34689 14.0287 6.31877 14.0318 6.28439C14.0381 6.20002 14.0756 6.14377 14.1381 6.12189C14.1943 6.10002 14.2318 6.11252 14.4881 6.21564C14.76 6.32189 15.2068 6.32814 15.6818 6.23439C15.8877 6.18685 16.102 6.18899 16.3068 6.24065C16.5318 6.3344 16.5818 6.57502 16.4193 6.75627C16.3475 6.83752 16.2818 6.86877 16.0537 6.93127C15.8551 6.98365 15.6486 6.99953 15.4443 6.97814C15.1068 6.97502 14.985 6.98127 14.8506 7.00939C14.6975 7.04064 14.6068 7.04377 14.1693 7.03439L13.66 7.0219L13.7162 7.06564C13.7463 7.0924 13.7788 7.11645 13.8131 7.13752C13.8537 7.15939 13.8506 7.16252 13.7943 7.18439C13.7631 7.19689 13.6881 7.20627 13.6287 7.20627H13.5256L13.5131 7.29377C13.5047 7.33501 13.5047 7.37753 13.5131 7.41877C13.5256 7.45002 13.5193 7.45627 13.4881 7.44377C13.4662 7.4344 13.4068 7.41877 13.3537 7.40939C13.3001 7.3979 13.2478 7.38115 13.1975 7.35939C13.1381 7.32814 13.1318 7.32814 13.11 7.36877C13.0912 7.40002 12.9162 7.53127 12.8912 7.53127C12.8799 7.4502 12.8567 7.37122 12.8225 7.29689C12.7912 7.23127 12.7631 7.15627 12.7537 7.13439C12.7443 7.10002 12.7381 7.09689 12.7225 7.12502C12.7131 7.14064 12.7006 7.18752 12.6912 7.22502C12.6803 7.27564 12.6613 7.32417 12.635 7.36877L12.5881 7.43752L12.5568 7.37814C12.5256 7.31564 12.4756 7.24689 12.4568 7.24689C12.4506 7.24689 12.4412 7.26564 12.435 7.29377C12.4193 7.34377 12.2975 7.49065 12.2662 7.49065C12.2568 7.49065 12.2475 7.45002 12.2475 7.3969C12.2475 7.35002 12.2381 7.30627 12.2256 7.30627C12.2131 7.30627 12.2037 7.32189 12.2037 7.33752C12.2037 7.37502 12.1006 7.49377 12.0631 7.49377C12.0506 7.49377 12.0256 7.50627 12.01 7.52502C11.9725 7.56564 11.9412 7.55939 11.9568 7.51252C11.9612 7.4725 11.957 7.432 11.9443 7.39377L11.9131 7.29377C11.9068 7.27814 11.8693 7.28439 11.7881 7.30939C11.6631 7.35002 11.6193 7.34064 11.685 7.29064C11.71 7.27189 11.7475 7.20627 11.7662 7.1469C11.7881 7.0844 11.8193 7.03127 11.835 7.02502C11.8568 7.01877 11.8568 7.02502 11.8287 7.06252C11.8106 7.08629 11.7988 7.11423 11.7943 7.14377C11.7943 7.15939 11.7787 7.20002 11.7631 7.23439C11.7443 7.26564 11.7318 7.2969 11.735 7.30002C11.7381 7.30314 11.7881 7.28439 11.8443 7.25939L11.9443 7.2094V7.25314C11.9443 7.27815 11.9568 7.34065 11.9725 7.39377L12.0006 7.48752L12.0693 7.45627C12.1381 7.42502 12.2037 7.31252 12.2037 7.22189C12.2037 7.17814 12.2287 7.18439 12.2412 7.23127C12.2412 7.24377 12.26 7.2969 12.2725 7.34689L12.3037 7.43439L12.3506 7.37814C12.3787 7.34689 12.41 7.28439 12.4225 7.24377C12.4475 7.16877 12.485 7.13439 12.485 7.19064C12.485 7.22814 12.5912 7.37189 12.61 7.35939C12.6225 7.35314 12.6412 7.30002 12.6568 7.24065C12.6881 7.11565 12.735 7.0344 12.7662 7.05315C12.7787 7.0594 12.7818 7.0719 12.7756 7.0844C12.7693 7.09065 12.7943 7.17189 12.8318 7.25939C12.859 7.32498 12.8861 7.39061 12.9131 7.45627C12.9256 7.48752 12.9381 7.48752 13.0162 7.41564C13.0631 7.37189 13.11 7.32502 13.1131 7.30939C13.1225 7.28439 13.1318 7.28752 13.1756 7.31564C13.2677 7.36432 13.3687 7.39407 13.4725 7.40314C13.4787 7.39689 13.485 7.34064 13.485 7.27814L13.4881 7.16252L13.5506 7.17502C13.5818 7.1844 13.6537 7.1844 13.7068 7.17502L13.8006 7.16252L13.7162 7.10002C13.6693 7.06877 13.6225 7.02814 13.61 7.00939C13.6006 6.99064 13.5568 6.97189 13.51 6.96877C13.3818 6.95627 13.1537 6.83127 13.1537 6.76877C13.1537 6.75627 13.185 6.77814 13.2225 6.81252C13.31 6.89064 13.4287 6.93752 13.535 6.93752H13.61L13.5631 6.87502C13.5297 6.82656 13.5083 6.77087 13.5006 6.71252C13.4943 6.61877 13.485 6.60627 13.3881 6.54064C13.3319 6.50084 13.2796 6.45585 13.2318 6.40627L13.1787 6.34689L13.1506 6.41877C13.135 6.45939 13.1193 6.49065 13.11 6.49065C13.1037 6.49065 13.0725 6.46564 13.0475 6.43752C13.0299 6.41715 13.0087 6.4002 12.985 6.38752C12.9756 6.38752 12.9537 6.42502 12.9287 6.47189L12.885 6.55627L12.8537 6.50939C12.8259 6.47107 12.7945 6.4355 12.76 6.40314C12.7225 6.37189 12.7068 6.34689 12.7193 6.34689C12.7318 6.34689 12.7725 6.37814 12.8131 6.41877L12.8818 6.49065L12.9131 6.43752C12.9311 6.40071 12.9366 6.359 12.9287 6.31877C12.9162 6.26252 12.9193 6.25939 12.9381 6.29689C12.965 6.33217 12.9966 6.36369 13.0318 6.39064L13.1006 6.44689L13.1475 6.36252C13.1943 6.27502 13.1943 6.27502 13.2131 6.32814C13.2443 6.39377 13.4475 6.56252 13.6193 6.65939C13.6506 6.67502 13.6381 6.62502 13.5881 6.50314C13.5731 6.4631 13.5646 6.42089 13.5631 6.37814C13.5631 6.32189 13.5475 6.2969 13.4756 6.24065C13.4309 6.21207 13.3935 6.17347 13.3664 6.12789C13.3393 6.08232 13.3231 6.03104 13.3193 5.97814C13.31 5.92502 13.2912 5.86877 13.2756 5.85002C13.2568 5.81877 13.2506 5.83752 13.2568 5.93127C13.2631 5.99689 13.2537 6.07814 13.2381 6.11252L13.2131 6.17502L13.1943 6.12189C13.1818 6.09377 13.1318 6.04377 13.085 6.01252C13.0381 5.98127 13.0037 5.95002 13.01 5.94377C13.0162 5.93752 13.0662 5.96565 13.1193 6.00627C13.2037 6.0719 13.2193 6.07814 13.2318 6.05002C13.2443 6.01877 13.2318 5.87502 13.2068 5.77502C13.1943 5.72502 13.1943 5.72502 13.2568 5.78752C13.3006 5.83127 13.3256 5.88752 13.3475 5.98127C13.3725 6.10002 13.385 6.12189 13.4943 6.21877C13.56 6.27814 13.6193 6.3219 13.6225 6.31877C13.6287 6.31252 13.635 6.16252 13.6412 5.98127C13.6537 5.63439 13.6412 5.55002 13.5568 5.44377L13.5131 5.38752L13.5818 5.31564C13.6589 5.24197 13.7103 5.14562 13.7287 5.04064L13.7412 4.95627L13.6662 5.02814C13.6037 5.08752 13.5725 5.10002 13.5006 5.10002C13.4287 5.10002 13.4006 5.08752 13.3537 5.03752C13.2807 4.96723 13.1917 4.91575 13.0943 4.88752C13.0568 4.87502 13.0443 4.88127 13.0443 4.90627C13.0443 4.92502 13.0256 4.97502 13.0006 5.02189L12.9568 5.10314L12.8631 5.00939C12.8037 4.95627 12.7381 4.90939 12.685 4.89689C12.5568 4.86564 12.5506 4.86564 12.5506 4.96252C12.5506 5.10939 12.4881 5.13752 12.3756 5.04064C12.2881 4.96564 12.2193 4.94689 12.0537 4.96877L11.9287 4.98127L11.9506 5.03752C11.9693 5.08439 11.9662 5.10627 11.9256 5.15939C11.86 5.24689 11.7756 5.28439 11.6443 5.28439C11.5818 5.28439 11.5068 5.29689 11.4756 5.31252C11.4443 5.32814 11.3631 5.34377 11.2975 5.35002C11.235 5.35627 11.1631 5.36877 11.1412 5.37502C11.11 5.38752 11.11 5.37502 11.1193 5.30627C11.135 5.20002 11.0568 5.11877 10.9412 5.11877C10.7881 5.11877 10.7193 5.25627 10.7787 5.43752C10.7909 5.47662 10.8013 5.51625 10.81 5.55627C10.851 5.63441 10.9061 5.70433 10.9725 5.76252C11.0537 5.84377 11.1287 5.92814 11.1412 5.95002C11.1664 5.98261 11.1984 6.00928 11.235 6.02814L11.3037 6.06564L11.2943 5.99065C11.285 5.9094 11.3006 5.89689 11.3443 5.95627C11.36 5.97502 11.4006 6.00939 11.4318 6.02814C11.485 6.05939 11.4943 6.05939 11.4943 6.03439C11.4943 6.01564 11.5037 5.97502 11.5162 5.94377L11.5381 5.88752L11.5787 5.96564C11.6006 6.00939 11.6725 6.10627 11.7381 6.18439C11.8662 6.33127 11.9475 6.49689 11.9068 6.53439C11.8881 6.55002 11.8443 6.55002 11.7506 6.53127C11.6818 6.51877 11.5943 6.50939 11.5568 6.51564C11.485 6.52502 11.4787 6.51565 11.5256 6.4594C11.5725 6.3969 11.5631 6.38752 11.4693 6.38752C11.36 6.38752 11.0881 6.33439 10.9818 6.29377C10.8818 6.25314 10.8568 6.26252 10.8256 6.35939L10.7725 6.53439L10.7412 6.62814L10.8537 6.61877C10.9117 6.6127 10.9692 6.60226 11.0256 6.58752C11.0477 6.58014 11.071 6.57697 11.0943 6.57814C11.1006 6.58127 11.085 6.61877 11.0631 6.66252L11.0193 6.73752L11.0881 6.72502C11.1256 6.71565 11.1818 6.69689 11.2131 6.68127C11.2693 6.65627 11.2756 6.65627 11.3193 6.72814C11.3725 6.81252 11.4131 6.80939 11.4225 6.71877C11.4318 6.62502 11.4631 6.63752 11.5225 6.76252C11.5787 6.88127 11.635 6.92502 11.6475 6.85627C11.6506 6.83127 11.6787 6.79377 11.7131 6.76877C11.7818 6.72189 11.8318 6.73752 11.86 6.80939C11.8912 6.88752 11.8225 6.96565 11.6287 7.0844C11.4493 7.18346 11.2949 7.32226 11.1774 7.49017C11.0598 7.65808 10.9823 7.85065 10.9506 8.05315C10.8912 8.4219 11.0756 8.80314 11.4381 9.08127C11.6131 9.21252 11.8912 9.35002 11.8725 9.30002C11.7975 9.07189 11.8006 8.64377 11.8756 8.57189C11.8881 8.55939 11.885 8.60314 11.8662 8.66877C11.8037 8.91564 11.835 9.10939 11.9912 9.56564C12.1287 9.97814 12.11 10.1563 11.91 10.2719C11.8475 10.3094 11.8068 10.3156 11.635 10.3125C11.4475 10.3125 11.4256 10.3125 11.3662 10.3625C11.2944 10.4358 11.2474 10.5298 11.2318 10.6313C11.2318 10.6719 11.2756 10.6656 11.3568 10.6188H11.36Z" fill="#FFB700" stroke="black" stroke-width="0.2"/>
<path d="M14.3911 10.6094L14.4692 10.5594L14.5223 10.6094C14.5911 10.675 14.6754 10.6719 14.7411 10.6063C14.7723 10.575 14.7973 10.5563 14.8004 10.5594L14.8286 10.6094C14.8442 10.6375 14.8786 10.65 14.9411 10.6563C15.0129 10.6594 15.0348 10.6563 15.0661 10.6125L15.0973 10.5594L15.1754 10.6094C15.3879 10.7469 15.5004 10.6032 15.4036 10.3188C15.3567 10.175 15.3848 10.0938 15.5379 9.91253C15.6036 9.8344 15.6567 9.75003 15.6567 9.72503C15.6567 9.69065 15.6442 9.6844 15.5567 9.68753C15.4754 9.68753 15.4504 9.67815 15.4067 9.63128C15.3348 9.55315 15.3411 9.46253 15.4192 9.36253L15.4817 9.2844L15.3692 9.2094C15.2794 9.14307 15.1957 9.06882 15.1192 8.98753C15.051 8.90702 14.9676 8.84074 14.8737 8.79248C14.7799 8.74423 14.6775 8.71493 14.5723 8.70628L14.4254 8.69065V8.80315C14.4254 8.94378 14.4942 9.08128 14.6754 9.31253C14.8817 9.57503 14.8942 9.61565 14.9036 9.9594L14.9129 10.25L14.8504 10.3063C14.7973 10.3563 14.7754 10.3657 14.6004 10.375C14.4348 10.3844 14.3973 10.3938 14.3504 10.4375C14.2956 10.4775 14.2577 10.5366 14.2442 10.6031C14.2348 10.65 14.2379 10.6594 14.2723 10.6594C14.2942 10.6594 14.3473 10.6375 14.3911 10.6094ZM9.94731 9.8594C9.96621 9.83165 9.97703 9.79919 9.97856 9.76565C9.97856 9.7344 9.99731 9.7219 10.0786 9.7094L10.1754 9.6969L10.1129 9.64378C10.0348 9.58128 10.0254 9.5344 10.0942 9.5344C10.1629 9.5344 10.2754 9.46565 10.2942 9.41253C10.3036 9.38753 10.2942 9.35628 10.2817 9.34065C10.2442 9.2969 10.1723 9.30315 10.1598 9.35315C10.1442 9.40315 10.1223 9.40315 10.0661 9.35315C9.98793 9.27502 9.98481 9.11565 10.0661 9.0219C10.1004 8.97815 10.1004 8.97815 10.0536 8.93127C10.0036 8.88127 9.96606 8.78753 9.99106 8.76253C9.99731 8.75628 10.0379 8.76253 10.0786 8.77815C10.1411 8.7969 10.1629 8.7969 10.1879 8.77815C10.2598 8.71878 10.1817 8.64378 10.0629 8.66253C10.0129 8.66878 9.99418 8.66253 9.98793 8.63753C9.98168 8.61878 9.94106 8.59378 9.89418 8.58128C9.80981 8.5594 9.80981 8.5594 9.80981 8.61877C9.80981 8.68127 9.77231 8.69377 9.70356 8.65315C9.64731 8.6219 9.59418 8.6469 9.59418 8.70628C9.59418 8.76253 9.64731 8.78753 9.75043 8.78128C9.82543 8.77815 9.82856 8.8344 9.75668 8.91565L9.70356 8.97815L9.74418 9.03753C9.80668 9.12503 9.80043 9.2719 9.73481 9.3469L9.68168 9.40315L9.64731 9.35628C9.59731 9.29378 9.53168 9.2969 9.51293 9.36565C9.50356 9.4094 9.51293 9.42815 9.56918 9.47815C9.60668 9.5094 9.66293 9.5344 9.69106 9.5344C9.76293 9.5344 9.75981 9.59377 9.68481 9.65002L9.62231 9.6969L9.71606 9.7094C9.76606 9.71878 9.80981 9.73128 9.80981 9.74065C9.80981 9.78128 9.87231 9.90315 9.89106 9.90315C9.90356 9.90315 9.92856 9.88127 9.94731 9.85627V9.8594Z" fill="#FFB700" stroke="black" stroke-width="0.2"/>
<path d="M11.141 9.34067C11.2254 9.30942 11.4066 9.15317 11.4066 9.1188C11.4066 9.1063 11.3566 9.05005 11.2941 8.9938C11.1691 8.8813 11.0285 8.68442 10.991 8.57192C10.9723 8.50942 10.8816 8.40942 10.6254 8.15942L10.2848 7.8313L10.1879 7.8563C10.1316 7.8688 10.066 7.8813 10.041 7.8813C9.99414 7.8813 9.99414 7.8813 10.0566 7.9313L10.1191 7.9813L10.2129 7.9313C10.2973 7.8813 10.3004 7.8813 10.3098 7.92192C10.316 7.9438 10.3035 7.98442 10.2785 8.01255C10.2566 8.04067 10.2441 8.07505 10.2473 8.08442C10.2566 8.0938 10.2348 8.11567 10.2004 8.13442C10.1379 8.16567 10.091 8.2688 10.141 8.2688C10.1879 8.2688 10.2879 8.1438 10.2754 8.10317C10.2691 8.0813 10.2754 8.05942 10.2816 8.05317C10.3223 8.0313 10.3191 8.12817 10.2816 8.17817C10.2566 8.20317 10.2441 8.23442 10.2504 8.24692C10.2566 8.2563 10.2348 8.27817 10.2004 8.29692C10.1379 8.32817 10.091 8.4313 10.141 8.4313C10.191 8.4313 10.2879 8.31255 10.2785 8.2688C10.2723 8.24692 10.2723 8.22192 10.2816 8.21567C10.3098 8.20317 10.3223 8.27817 10.3004 8.31567C10.2946 8.32622 10.2916 8.33804 10.2916 8.35005C10.2916 8.36206 10.2946 8.37388 10.3004 8.38442C10.3223 8.42505 10.3004 8.50005 10.2598 8.52505C10.2441 8.53442 10.2535 8.5563 10.2973 8.58755C10.3598 8.6313 10.3598 8.63755 10.3598 8.83755C10.3598 9.0063 10.366 9.05005 10.3973 9.07817C10.4285 9.10942 10.4348 9.10942 10.4348 9.07817C10.4348 9.04692 10.4973 9.00317 10.5441 9.00317C10.5598 9.00317 10.6504 9.0813 10.7473 9.17505C10.8441 9.2688 10.9473 9.35317 10.9754 9.3563L11.0441 9.3688C11.0535 9.3688 11.0973 9.35942 11.141 9.33755V9.34067ZM10.1004 8.52505C10.1004 8.47192 9.98789 8.41255 9.85352 8.40005C9.74414 8.38442 9.74414 8.38755 9.74414 8.44067C9.74414 8.48442 9.75977 8.50317 9.83789 8.53442C9.95664 8.58755 10.1004 8.5813 10.1004 8.52505Z" fill="#FFB700" stroke="black" stroke-width="0.2"/>
<path d="M10.2223 8.51871C10.2786 8.46871 10.3036 8.41246 10.2692 8.41246C10.2317 8.41246 10.1317 8.49996 10.1317 8.53746C10.1317 8.58746 10.1504 8.58434 10.2254 8.51871H10.2223ZM10.1067 8.35934C10.1098 8.32809 10.0911 8.30934 10.0348 8.28121C9.90982 8.22809 9.76607 8.19996 9.7317 8.22809C9.66607 8.28121 9.70982 8.34996 9.81295 8.36246C9.8567 8.36559 9.91295 8.37809 9.94107 8.39059C10.0223 8.42184 10.0973 8.40621 10.1067 8.35934ZM10.1067 8.19371C10.1129 8.15309 10.0848 8.13746 9.8567 8.05621C9.68482 7.99371 9.60982 8.02496 9.66607 8.12809C9.68482 8.16246 9.71607 8.17809 9.78795 8.19059C9.84107 8.19684 9.91295 8.21246 9.94732 8.22496C10.0411 8.25621 10.0973 8.24371 10.1036 8.19371H10.1067ZM10.2192 8.04059C10.2536 8.00621 10.2817 7.96559 10.2817 7.94684C10.2817 7.89996 10.1473 7.98746 10.1286 8.04996C10.1098 8.12184 10.1442 8.11871 10.2223 8.04059H10.2192ZM10.1067 8.03121C10.1129 7.98121 10.0317 7.93746 9.8692 7.90309C9.74732 7.87496 9.6942 7.89059 9.70357 7.94684C9.70982 7.97809 9.75045 7.99996 9.85982 8.03434C10.0442 8.09059 10.0973 8.09059 10.1067 8.03121ZM10.2629 7.79996C10.4754 7.70621 10.4911 7.47184 10.2942 7.40934C10.2129 7.38434 10.1629 7.39996 10.1317 7.45309C10.1067 7.49684 10.1223 7.57184 10.1536 7.57184C10.1661 7.57184 10.1754 7.58746 10.1754 7.60309C10.1754 7.68746 9.8567 7.72184 9.72545 7.65621C9.67857 7.63434 9.66295 7.57184 9.69732 7.57184C9.72857 7.57184 9.74732 7.50934 9.7317 7.46871C9.71295 7.40621 9.65045 7.38746 9.56607 7.41246C9.3692 7.46246 9.37545 7.69371 9.57545 7.78746C9.79672 7.86867 10.0389 7.87308 10.2629 7.79996Z" fill="#FFB700" stroke="black" stroke-width="0.2"/>
<path d="M10.1346 7.6188C10.1471 7.6063 10.1408 7.58755 10.1221 7.57505C10.0783 7.54067 10.0814 7.48755 10.1283 7.42817C10.1658 7.38442 10.1689 7.31567 10.1814 6.6438C10.2033 5.48442 10.2908 4.61255 10.4033 4.40005C10.4502 4.3188 10.4439 4.3188 10.3252 4.40005C10.1694 4.50859 10.0436 4.6548 9.95957 4.82505C9.76582 5.18442 9.7002 5.6688 9.7002 6.7063C9.7002 7.2938 9.70332 7.37192 9.7377 7.42505C9.76895 7.4813 9.76895 7.50005 9.7502 7.5563C9.73457 7.59067 9.72832 7.62817 9.73457 7.63442C9.77832 7.67505 10.0908 7.66567 10.1346 7.6188ZM11.8877 6.51255C11.8971 6.50317 11.8814 6.45005 11.8564 6.40005C11.8189 6.3188 11.8033 6.3063 11.7502 6.3063C11.5003 6.28458 11.2566 6.21677 11.0314 6.1063C10.8721 6.03442 10.8127 6.0188 10.7971 6.03755C10.7471 6.08442 10.8283 6.1938 10.9533 6.25317C11.1373 6.31946 11.3299 6.35842 11.5252 6.3688C11.6096 6.3688 11.6127 6.3688 11.5627 6.44067L11.5314 6.49067H11.6252L11.7814 6.50942C11.8752 6.5313 11.8752 6.5313 11.8877 6.51255Z" fill="#FFB700" stroke="black" stroke-width="0.2"/>
<path d="M12.8757 7.03447C12.8757 7.00322 12.7851 6.9251 12.6976 6.87197C12.6257 6.83135 12.6132 6.82822 12.6132 6.8626C12.6132 6.9126 12.5695 7.04072 12.5507 7.04072C12.5413 7.04072 12.5257 7.01572 12.5195 6.9876C12.5101 6.95635 12.4757 6.89385 12.4413 6.85322L12.3788 6.7751L12.3351 6.84697C12.2913 6.91572 12.2132 6.98135 12.1788 6.98135C12.1726 6.98135 12.1695 6.94385 12.1788 6.90322C12.182 6.85322 12.1788 6.81572 12.1632 6.80947C12.1507 6.8001 12.1382 6.80322 12.1382 6.81572C12.1382 6.84072 12.032 6.95947 12.0132 6.95947C12.0007 6.95947 11.9882 6.92822 11.982 6.88447L11.957 6.73447C11.9507 6.69697 11.9663 6.72197 11.9882 6.79697L12.0382 6.9251L12.0882 6.84697C12.1109 6.81469 12.1278 6.77874 12.1382 6.74072C12.1382 6.7251 12.1476 6.71885 12.1601 6.7251C12.1726 6.73135 12.1882 6.78447 12.1945 6.84072L12.2101 6.94697L12.2663 6.88447C12.2958 6.85312 12.3229 6.8197 12.3476 6.78447C12.3695 6.74697 12.3726 6.74697 12.4195 6.78447C12.4445 6.80947 12.4851 6.8626 12.5101 6.90635C12.5351 6.9501 12.557 6.98135 12.5601 6.97822L12.5788 6.87822L12.5913 6.78447C12.5945 6.76885 12.7601 6.87822 12.8226 6.93135C12.8601 6.96572 12.8976 6.99072 12.9038 6.98447C12.9101 6.97822 12.9163 6.92822 12.9163 6.86885C12.9163 6.78135 12.907 6.75635 12.8538 6.70947C12.7913 6.65322 12.7913 6.65322 12.7663 6.69385C12.7351 6.74697 12.7007 6.74697 12.7007 6.69385C12.7007 6.65635 12.582 6.50947 12.5538 6.50947C12.5445 6.50947 12.5195 6.54072 12.4976 6.58135C12.4757 6.62197 12.4507 6.65322 12.4445 6.65322C12.4132 6.65322 12.2476 6.46572 12.2476 6.43447C12.2476 6.40947 12.2601 6.41572 12.2882 6.45947C12.3162 6.50052 12.3487 6.53826 12.3851 6.57197C12.4476 6.62822 12.4726 6.61572 12.4976 6.50635C12.507 6.4751 12.5195 6.4501 12.5288 6.4501C12.5538 6.4501 12.6976 6.60322 12.7163 6.65322L12.7382 6.70322L12.7538 6.64697C12.7726 6.57822 12.7945 6.57822 12.8257 6.64072C12.8382 6.66572 12.9007 6.72197 12.9632 6.75947L13.0788 6.83447L13.1007 6.75947C13.1132 6.71885 13.132 6.69697 13.1382 6.70947C13.1507 6.7251 13.1195 6.8501 13.0976 6.8751C13.0976 6.87822 13.057 6.85635 13.0163 6.82822L12.9382 6.77197V6.87197C12.9382 6.9251 12.932 6.99072 12.9257 7.01572C12.9101 7.06572 12.8726 7.07822 12.8726 7.03447H12.8757ZM12.2976 6.24072C12.1601 6.12822 12.1413 6.10322 12.1413 6.04697L12.1445 5.99072L12.1538 6.04385C12.1601 6.0751 12.1976 6.1251 12.2413 6.1626L12.3226 6.2251L12.3695 6.16885C12.3976 6.1376 12.4195 6.1001 12.4195 6.0876C12.4195 6.0501 12.4257 6.05322 12.5195 6.13447C12.6007 6.20635 12.6038 6.20635 12.6132 6.15947C12.6226 6.13447 12.6195 6.08447 12.6132 6.0501C12.582 5.95635 12.5882 5.94385 12.6288 6.0001L12.7038 6.0876C12.7351 6.12197 12.7382 6.12197 12.7507 6.07822C12.7601 6.0501 12.7663 6.00322 12.7663 5.97197V5.9126L12.8382 5.99697C12.9101 6.07822 12.9163 6.08135 12.9351 6.04072C12.9507 6.01885 12.9601 5.96572 12.9601 5.9251C12.9601 5.86885 12.9663 5.85635 12.9788 5.8751C13.0038 5.9126 12.9882 6.00635 12.9445 6.0876L12.9132 6.1501L12.8726 6.08447C12.8195 6.00322 12.8007 6.00322 12.7695 6.09072C12.7382 6.1751 12.7163 6.18135 12.6851 6.11572C12.6663 6.0751 12.6601 6.08135 12.6476 6.16885L12.632 6.2626L12.5382 6.19072L12.4445 6.11885L12.3976 6.16572C12.3757 6.19385 12.357 6.22822 12.357 6.24072C12.357 6.27197 12.332 6.27197 12.2976 6.24072ZM13.5163 5.81572C13.4695 5.77197 13.4351 5.72822 13.4413 5.72197C13.4507 5.7126 13.457 5.70947 13.4601 5.71572C13.4903 5.74795 13.5216 5.77922 13.5538 5.80947C13.6601 5.92197 13.6382 5.9251 13.5195 5.81572H13.5163ZM11.8913 5.64697C11.8476 5.58447 11.8507 5.54697 11.907 5.47822C11.9445 5.43135 11.9632 5.4251 12.032 5.43447C12.0788 5.4376 12.1757 5.47822 12.2476 5.52197C12.3515 5.58403 12.4704 5.61645 12.5913 5.61572L12.5382 5.52822C12.4695 5.4251 12.4695 5.4126 12.5507 5.4751C12.632 5.54072 12.7288 5.55947 12.9476 5.55322L13.0538 5.5501L12.9913 5.4876C12.907 5.40322 12.932 5.39385 13.0288 5.47822C13.1163 5.55635 13.1132 5.5626 12.9226 5.58135C12.8431 5.58937 12.7628 5.58409 12.6851 5.56572C12.5788 5.53447 12.5726 5.5376 12.5945 5.57197C12.607 5.59385 12.6257 5.60947 12.6351 5.60947C12.6476 5.60947 12.657 5.62197 12.657 5.63447C12.657 5.6751 12.4257 5.6376 12.3132 5.58447C12.0632 5.45635 12.032 5.44385 11.9695 5.4626C11.9528 5.469 11.9376 5.47865 11.9247 5.49099C11.9119 5.50333 11.9016 5.51811 11.8945 5.53447C11.8538 5.6376 12.0007 5.71885 12.0601 5.62822C12.0788 5.6001 12.0757 5.58447 12.0445 5.5501C12.0007 5.50635 12.007 5.5001 12.0632 5.51885C12.1038 5.53447 12.107 5.63135 12.0695 5.66885C12.0288 5.70947 11.9288 5.7001 11.8913 5.64697Z" fill="black" stroke="black" stroke-width="0.2"/>
<path d="M12.8879 5.39389C12.8567 5.36264 12.8817 5.35639 13.0223 5.35326C13.1973 5.35014 13.3036 5.32201 13.4286 5.24076C13.5286 5.17826 13.5567 5.19076 13.4598 5.25639C13.3754 5.31889 13.2411 5.36264 13.1067 5.37514L12.9473 5.39701C12.9223 5.40326 12.8942 5.40014 12.8848 5.39389H12.8879Z" fill="black" stroke="black" stroke-width="0.2"/>
<path d="M11.36 10.6188L11.4318 10.575L11.4631 10.6188C11.5037 10.675 11.6193 10.6719 11.6943 10.6188L11.7537 10.5719L11.8037 10.6156C11.8662 10.675 11.985 10.675 12.0631 10.6156C12.1162 10.5781 12.1256 10.575 12.1568 10.6063C12.1787 10.625 12.2412 10.6438 12.2943 10.6531C12.3943 10.6656 12.3943 10.6656 12.4506 10.5781C12.5006 10.5063 12.5068 10.4781 12.4975 10.4063C12.4887 10.3514 12.4825 10.2961 12.4787 10.2406C12.4725 10.1594 12.4756 10.1594 12.5912 10.1156C12.6486 10.098 12.7049 10.0772 12.76 10.0531C12.8068 10.025 12.9381 9.87189 12.9381 9.84064C12.9381 9.83439 12.8881 9.82189 12.8256 9.81564C12.5756 9.78439 12.535 9.65314 12.6975 9.40939C12.9568 9.00314 13.1162 8.61252 13.1162 8.36565C13.1162 8.25315 13.1256 8.21565 13.1381 8.24065C13.1975 8.33752 13.0912 8.75314 12.935 9.05314L12.8725 9.17189L12.9318 9.15939C12.9631 9.15002 13.1631 9.06564 13.3693 8.97189C13.9381 8.71564 14.1318 8.66564 14.5006 8.68127C14.81 8.69377 14.9381 8.75314 15.1568 8.98127C15.2725 9.10627 15.385 9.19064 15.5881 9.31877C16.0193 9.58752 16.0381 9.61252 16.06 9.93127C16.0818 10.2531 16.0693 10.2719 15.8256 10.325C15.6162 10.3719 15.485 10.4688 15.4506 10.6063C15.4318 10.675 15.4725 10.6781 15.5756 10.6094L15.6537 10.5594L15.6881 10.6094C15.735 10.675 15.8287 10.675 15.9068 10.6094L15.9693 10.5625L16.0318 10.6094C16.1256 10.6875 16.2506 10.6688 16.2881 10.5719C16.2943 10.5563 16.3131 10.5594 16.3506 10.5938C16.4225 10.6563 16.6006 10.6813 16.6193 10.6313C16.6256 10.6125 16.6131 10.5688 16.5881 10.5313C16.485 10.375 16.4506 10.3031 16.4506 10.2188C16.4506 10.1 16.4818 10.0406 16.6193 9.94689C16.7818 9.82814 16.8318 9.67814 16.7068 9.67814C16.6318 9.67814 16.5537 9.60939 16.5037 9.50002C16.4037 9.27502 16.4256 9.02502 16.5756 8.60627C16.6906 8.35988 16.7483 8.09065 16.7443 7.81877C16.7443 7.58752 16.7381 7.55002 16.6881 7.42189C16.649 7.33281 16.6008 7.24799 16.5443 7.16877L16.4568 7.05315L16.5662 6.9594C16.9037 6.68127 16.835 6.22502 16.4287 6.05002C16.3037 5.99377 16.2725 5.99065 16.0537 5.99065C15.9287 5.99065 15.7256 6.00939 15.6162 6.03127C15.4694 6.0545 15.3211 6.06703 15.1725 6.06877C14.96 6.06877 14.9225 6.06252 14.8412 6.01877C14.7568 5.97502 14.7412 5.95314 14.7256 5.84689C14.7241 5.83688 14.7202 5.82738 14.7142 5.81922C14.7082 5.81105 14.7003 5.80446 14.6912 5.80002C14.66 5.79064 14.5287 5.90627 14.51 5.95627C14.4975 5.98439 14.4912 5.98127 14.4631 5.94689C14.4366 5.91284 14.4155 5.87489 14.4006 5.8344C14.3693 5.73127 14.41 5.65627 14.5318 5.59689L14.6256 5.55314L14.5693 5.51877C14.4568 5.44689 14.2631 5.49689 14.1943 5.61252C14.1725 5.64377 14.1506 5.67502 14.1443 5.67502C14.1381 5.67502 14.1006 5.64377 14.0631 5.60314C13.9162 5.45939 13.9662 5.24689 14.1631 5.18439C14.2662 5.15002 14.36 5.17502 14.3787 5.24689C14.41 5.35002 14.4975 5.21252 14.4818 5.08439C14.4725 5.00002 14.4725 4.99689 14.5318 4.99689C14.6131 4.99689 14.7818 5.10314 14.8381 5.18439C14.9006 5.28127 14.8943 5.43439 14.8256 5.54689L14.7725 5.63439L14.8443 5.62189C14.9443 5.60002 15.0443 5.53752 15.0943 5.45939C15.1207 5.40964 15.1355 5.35458 15.1377 5.29832C15.1398 5.24206 15.1293 5.18603 15.1068 5.13439C15.06 5.05002 15.0662 5.03752 15.135 5.06564C15.2475 5.11252 15.31 5.16564 15.3537 5.25627C15.3975 5.33752 15.4006 5.35627 15.3787 5.44377C15.3637 5.49705 15.3405 5.54766 15.31 5.59377C15.2725 5.64377 15.2693 5.65314 15.3006 5.65314C15.3568 5.65314 15.4693 5.60002 15.51 5.55939C15.5318 5.53439 15.5631 5.48127 15.5787 5.43439L15.61 5.35627L15.6412 5.41877C15.6881 5.50314 15.7818 5.58127 15.8943 5.63127C16.0162 5.68127 16.0662 5.68439 16.0037 5.63752C15.96 5.60627 15.8787 5.37189 15.9068 5.35002C16.0417 5.42554 16.1649 5.52029 16.2725 5.63127C16.4506 5.79065 16.5631 5.84377 16.7256 5.84377C16.935 5.84377 17.0568 5.66252 16.9631 5.49064C16.91 5.39064 16.7881 5.37502 16.7131 5.45939C16.6818 5.50002 16.6725 5.53127 16.6818 5.57502C16.6943 5.62502 16.6912 5.63127 16.6443 5.63127C16.5818 5.63127 16.4631 5.55314 16.2506 5.37502C15.9548 5.12047 15.6148 4.92239 15.2475 4.79064C14.9986 4.73313 14.7417 4.71938 14.4881 4.75002C14.2881 4.78752 14.0506 4.90314 13.9193 5.02502C13.6912 5.24377 13.6881 5.53439 13.91 5.80002L13.9725 5.87502L13.9318 5.94377C13.9013 5.99301 13.8861 6.05027 13.8884 6.10818C13.8906 6.16609 13.9101 6.22202 13.9443 6.26877C13.9756 6.31252 14.0068 6.34689 14.0162 6.34689C14.0225 6.34689 14.0287 6.31877 14.0318 6.28439C14.0381 6.20002 14.0756 6.14377 14.1381 6.12189C14.1943 6.10002 14.2318 6.11252 14.4881 6.21564C14.76 6.32189 15.2068 6.32814 15.6818 6.23439C15.8877 6.18685 16.102 6.18899 16.3068 6.24065C16.5318 6.3344 16.5818 6.57502 16.4193 6.75627C16.3475 6.83752 16.2818 6.86877 16.0537 6.93127C15.8551 6.98365 15.6486 6.99953 15.4443 6.97814C15.1068 6.97502 14.985 6.98127 14.8506 7.00939C14.6975 7.04064 14.6068 7.04377 14.1693 7.03439L13.66 7.0219L13.7162 7.06564C13.7463 7.0924 13.7788 7.11645 13.8131 7.13752C13.8537 7.15939 13.8506 7.16252 13.7943 7.18439C13.7631 7.19689 13.6881 7.20627 13.6287 7.20627H13.5256L13.5131 7.29377C13.5047 7.33501 13.5047 7.37753 13.5131 7.41877C13.5256 7.45002 13.5193 7.45627 13.4881 7.44377C13.4662 7.4344 13.4068 7.41877 13.3537 7.40939C13.3001 7.3979 13.2478 7.38115 13.1975 7.35939C13.1381 7.32814 13.1318 7.32814 13.11 7.36877C13.0912 7.40002 12.9162 7.53127 12.8912 7.53127C12.8799 7.4502 12.8567 7.37122 12.8225 7.29689C12.7912 7.23127 12.7631 7.15627 12.7537 7.13439C12.7443 7.10002 12.7381 7.09689 12.7225 7.12502C12.7131 7.14064 12.7006 7.18752 12.6912 7.22502C12.6803 7.27564 12.6613 7.32417 12.635 7.36877L12.5881 7.43752L12.5568 7.37814C12.5256 7.31564 12.4756 7.24689 12.4568 7.24689C12.4506 7.24689 12.4412 7.26564 12.435 7.29377C12.4193 7.34377 12.2975 7.49065 12.2662 7.49065C12.2568 7.49065 12.2475 7.45002 12.2475 7.3969C12.2475 7.35002 12.2381 7.30627 12.2256 7.30627C12.2131 7.30627 12.2037 7.32189 12.2037 7.33752C12.2037 7.37502 12.1006 7.49377 12.0631 7.49377C12.0506 7.49377 12.0256 7.50627 12.01 7.52502C11.9725 7.56564 11.9412 7.55939 11.9568 7.51252C11.9612 7.4725 11.957 7.432 11.9443 7.39377L11.9131 7.29377C11.9068 7.27814 11.8693 7.28439 11.7881 7.30939C11.6631 7.35002 11.6193 7.34064 11.685 7.29064C11.71 7.27189 11.7475 7.20627 11.7662 7.1469C11.7881 7.0844 11.8193 7.03127 11.835 7.02502C11.8568 7.01877 11.8568 7.02502 11.8287 7.06252C11.8106 7.08629 11.7988 7.11423 11.7943 7.14377C11.7943 7.15939 11.7787 7.20002 11.7631 7.23439C11.7443 7.26564 11.7318 7.2969 11.735 7.30002C11.7381 7.30314 11.7881 7.28439 11.8443 7.25939L11.9443 7.2094V7.25314C11.9443 7.27815 11.9568 7.34065 11.9725 7.39377L12.0006 7.48752L12.0693 7.45627C12.1381 7.42502 12.2037 7.31252 12.2037 7.22189C12.2037 7.17814 12.2287 7.18439 12.2412 7.23127C12.2412 7.24377 12.26 7.2969 12.2725 7.34689L12.3037 7.43439L12.3506 7.37814C12.3787 7.34689 12.41 7.28439 12.4225 7.24377C12.4475 7.16877 12.485 7.13439 12.485 7.19064C12.485 7.22814 12.5912 7.37189 12.61 7.35939C12.6225 7.35314 12.6412 7.30002 12.6568 7.24065C12.6881 7.11565 12.735 7.0344 12.7662 7.05315C12.7787 7.0594 12.7818 7.0719 12.7756 7.0844C12.7693 7.09065 12.7943 7.17189 12.8318 7.25939C12.859 7.32498 12.8861 7.39061 12.9131 7.45627C12.9256 7.48752 12.9381 7.48752 13.0162 7.41564C13.0631 7.37189 13.11 7.32502 13.1131 7.30939C13.1225 7.28439 13.1318 7.28752 13.1756 7.31564C13.2677 7.36432 13.3687 7.39407 13.4725 7.40314C13.4787 7.39689 13.485 7.34064 13.485 7.27814L13.4881 7.16252L13.5506 7.17502C13.5818 7.1844 13.6537 7.1844 13.7068 7.17502L13.8006 7.16252L13.7162 7.10002C13.6693 7.06877 13.6225 7.02814 13.61 7.00939C13.6006 6.99064 13.5568 6.97189 13.51 6.96877C13.3818 6.95627 13.1537 6.83127 13.1537 6.76877C13.1537 6.75627 13.185 6.77814 13.2225 6.81252C13.31 6.89064 13.4287 6.93752 13.535 6.93752H13.61L13.5631 6.87502C13.5297 6.82656 13.5083 6.77087 13.5006 6.71252C13.4943 6.61877 13.485 6.60627 13.3881 6.54064C13.3319 6.50084 13.2796 6.45585 13.2318 6.40627L13.1787 6.34689L13.1506 6.41877C13.135 6.45939 13.1193 6.49065 13.11 6.49065C13.1037 6.49065 13.0725 6.46564 13.0475 6.43752C13.0299 6.41715 13.0087 6.4002 12.985 6.38752C12.9756 6.38752 12.9537 6.42502 12.9287 6.47189L12.885 6.55627L12.8537 6.50939C12.8259 6.47107 12.7945 6.4355 12.76 6.40314C12.7225 6.37189 12.7068 6.34689 12.7193 6.34689C12.7318 6.34689 12.7725 6.37814 12.8131 6.41877L12.8818 6.49065L12.9131 6.43752C12.9311 6.40071 12.9366 6.359 12.9287 6.31877C12.9162 6.26252 12.9193 6.25939 12.9381 6.29689C12.965 6.33217 12.9966 6.36369 13.0318 6.39064L13.1006 6.44689L13.1475 6.36252C13.1943 6.27502 13.1943 6.27502 13.2131 6.32814C13.2443 6.39377 13.4475 6.56252 13.6193 6.65939C13.6506 6.67502 13.6381 6.62502 13.5881 6.50314C13.5731 6.4631 13.5646 6.42089 13.5631 6.37814C13.5631 6.32189 13.5475 6.2969 13.4756 6.24065C13.4309 6.21207 13.3935 6.17347 13.3664 6.12789C13.3393 6.08232 13.3231 6.03104 13.3193 5.97814C13.31 5.92502 13.2912 5.86877 13.2756 5.85002C13.2568 5.81877 13.2506 5.83752 13.2568 5.93127C13.2631 5.99689 13.2537 6.07814 13.2381 6.11252L13.2131 6.17502L13.1943 6.12189C13.1818 6.09377 13.1318 6.04377 13.085 6.01252C13.0381 5.98127 13.0037 5.95002 13.01 5.94377C13.0162 5.93752 13.0662 5.96565 13.1193 6.00627C13.2037 6.0719 13.2193 6.07814 13.2318 6.05002C13.2443 6.01877 13.2318 5.87502 13.2068 5.77502C13.1943 5.72502 13.1943 5.72502 13.2568 5.78752C13.3006 5.83127 13.3256 5.88752 13.3475 5.98127C13.3725 6.10002 13.385 6.12189 13.4943 6.21877C13.56 6.27814 13.6193 6.3219 13.6225 6.31877C13.6287 6.31252 13.635 6.16252 13.6412 5.98127C13.6537 5.63439 13.6412 5.55002 13.5568 5.44377L13.5131 5.38752L13.5818 5.31564C13.6589 5.24197 13.7103 5.14562 13.7287 5.04064L13.7412 4.95627L13.6662 5.02814C13.6037 5.08752 13.5725 5.10002 13.5006 5.10002C13.4287 5.10002 13.4006 5.08752 13.3537 5.03752C13.2807 4.96723 13.1917 4.91575 13.0943 4.88752C13.0568 4.87502 13.0443 4.88127 13.0443 4.90627C13.0443 4.92502 13.0256 4.97502 13.0006 5.02189L12.9568 5.10314L12.8631 5.00939C12.8037 4.95627 12.7381 4.90939 12.685 4.89689C12.5568 4.86564 12.5506 4.86564 12.5506 4.96252C12.5506 5.10939 12.4881 5.13752 12.3756 5.04064C12.2881 4.96564 12.2193 4.94689 12.0537 4.96877L11.9287 4.98127L11.9506 5.03752C11.9693 5.08439 11.9662 5.10627 11.9256 5.15939C11.86 5.24689 11.7756 5.28439 11.6443 5.28439C11.5818 5.28439 11.5068 5.29689 11.4756 5.31252C11.4443 5.32814 11.3631 5.34377 11.2975 5.35002C11.235 5.35627 11.1631 5.36877 11.1412 5.37502C11.11 5.38752 11.11 5.37502 11.1193 5.30627C11.135 5.20002 11.0568 5.11877 10.9412 5.11877C10.7881 5.11877 10.7193 5.25627 10.7787 5.43752C10.7909 5.47662 10.8013 5.51625 10.81 5.55627C10.851 5.63441 10.9061 5.70433 10.9725 5.76252C11.0537 5.84377 11.1287 5.92814 11.1412 5.95002C11.1664 5.98261 11.1984 6.00928 11.235 6.02814L11.3037 6.06564L11.2943 5.99065C11.285 5.9094 11.3006 5.89689 11.3443 5.95627C11.36 5.97502 11.4006 6.00939 11.4318 6.02814C11.485 6.05939 11.4943 6.05939 11.4943 6.03439C11.4943 6.01564 11.5037 5.97502 11.5162 5.94377L11.5381 5.88752L11.5787 5.96564C11.6006 6.00939 11.6725 6.10627 11.7381 6.18439C11.8662 6.33127 11.9475 6.49689 11.9068 6.53439C11.8881 6.55002 11.8443 6.55002 11.7506 6.53127C11.6818 6.51877 11.5943 6.50939 11.5568 6.51564C11.485 6.52502 11.4787 6.51565 11.5256 6.4594C11.5725 6.3969 11.5631 6.38752 11.4693 6.38752C11.36 6.38752 11.0881 6.33439 10.9818 6.29377C10.8818 6.25314 10.8568 6.26252 10.8256 6.35939L10.7725 6.53439L10.7412 6.62814L10.8537 6.61877C10.9117 6.6127 10.9692 6.60226 11.0256 6.58752C11.0477 6.58014 11.071 6.57697 11.0943 6.57814C11.1006 6.58127 11.085 6.61877 11.0631 6.66252L11.0193 6.73752L11.0881 6.72502C11.1256 6.71565 11.1818 6.69689 11.2131 6.68127C11.2693 6.65627 11.2756 6.65627 11.3193 6.72814C11.3725 6.81252 11.4131 6.80939 11.4225 6.71877C11.4318 6.62502 11.4631 6.63752 11.5225 6.76252C11.5787 6.88127 11.635 6.92502 11.6475 6.85627C11.6506 6.83127 11.6787 6.79377 11.7131 6.76877C11.7818 6.72189 11.8318 6.73752 11.86 6.80939C11.8912 6.88752 11.8225 6.96565 11.6287 7.0844C11.4493 7.18346 11.2949 7.32226 11.1774 7.49017C11.0598 7.65808 10.9823 7.85065 10.9506 8.05315C10.8912 8.4219 11.0756 8.80314 11.4381 9.08127C11.6131 9.21252 11.8912 9.35002 11.8725 9.30002C11.7975 9.07189 11.8006 8.64377 11.8756 8.57189C11.8881 8.55939 11.885 8.60314 11.8662 8.66877C11.8037 8.91564 11.835 9.10939 11.9912 9.56564C12.1287 9.97814 12.11 10.1563 11.91 10.2719C11.8475 10.3094 11.8068 10.3156 11.635 10.3125C11.4475 10.3125 11.4256 10.3125 11.3662 10.3625C11.2944 10.4358 11.2474 10.5298 11.2318 10.6313C11.2318 10.6719 11.2756 10.6656 11.3568 10.6188H11.36Z" fill="#FFB700"/>
<path d="M14.3911 10.6094L14.4692 10.5594L14.5223 10.6094C14.5911 10.675 14.6754 10.6719 14.7411 10.6063C14.7723 10.575 14.7973 10.5563 14.8004 10.5594L14.8286 10.6094C14.8442 10.6375 14.8786 10.65 14.9411 10.6563C15.0129 10.6594 15.0348 10.6563 15.0661 10.6125L15.0973 10.5594L15.1754 10.6094C15.3879 10.7469 15.5004 10.6032 15.4036 10.3188C15.3567 10.175 15.3848 10.0938 15.5379 9.91253C15.6036 9.8344 15.6567 9.75003 15.6567 9.72503C15.6567 9.69065 15.6442 9.6844 15.5567 9.68753C15.4754 9.68753 15.4504 9.67815 15.4067 9.63128C15.3348 9.55315 15.3411 9.46253 15.4192 9.36253L15.4817 9.2844L15.3692 9.2094C15.2794 9.14307 15.1957 9.06882 15.1192 8.98753C15.051 8.90702 14.9676 8.84074 14.8737 8.79248C14.7799 8.74423 14.6775 8.71493 14.5723 8.70628L14.4254 8.69065V8.80315C14.4254 8.94378 14.4942 9.08128 14.6754 9.31253C14.8817 9.57503 14.8942 9.61565 14.9036 9.9594L14.9129 10.25L14.8504 10.3063C14.7973 10.3563 14.7754 10.3657 14.6004 10.375C14.4348 10.3844 14.3973 10.3938 14.3504 10.4375C14.2956 10.4775 14.2577 10.5366 14.2442 10.6031C14.2348 10.65 14.2379 10.6594 14.2723 10.6594C14.2942 10.6594 14.3473 10.6375 14.3911 10.6094ZM9.94731 9.8594C9.96621 9.83165 9.97703 9.79919 9.97856 9.76565C9.97856 9.7344 9.99731 9.7219 10.0786 9.7094L10.1754 9.6969L10.1129 9.64378C10.0348 9.58128 10.0254 9.5344 10.0942 9.5344C10.1629 9.5344 10.2754 9.46565 10.2942 9.41253C10.3036 9.38753 10.2942 9.35628 10.2817 9.34065C10.2442 9.2969 10.1723 9.30315 10.1598 9.35315C10.1442 9.40315 10.1223 9.40315 10.0661 9.35315C9.98793 9.27502 9.98481 9.11565 10.0661 9.0219C10.1004 8.97815 10.1004 8.97815 10.0536 8.93127C10.0036 8.88127 9.96606 8.78753 9.99106 8.76253C9.99731 8.75628 10.0379 8.76253 10.0786 8.77815C10.1411 8.7969 10.1629 8.7969 10.1879 8.77815C10.2598 8.71878 10.1817 8.64378 10.0629 8.66253C10.0129 8.66878 9.99418 8.66253 9.98793 8.63753C9.98168 8.61878 9.94106 8.59378 9.89418 8.58128C9.80981 8.5594 9.80981 8.5594 9.80981 8.61877C9.80981 8.68127 9.77231 8.69377 9.70356 8.65315C9.64731 8.6219 9.59418 8.6469 9.59418 8.70628C9.59418 8.76253 9.64731 8.78753 9.75043 8.78128C9.82543 8.77815 9.82856 8.8344 9.75668 8.91565L9.70356 8.97815L9.74418 9.03753C9.80668 9.12503 9.80043 9.2719 9.73481 9.3469L9.68168 9.40315L9.64731 9.35628C9.59731 9.29378 9.53168 9.2969 9.51293 9.36565C9.50356 9.4094 9.51293 9.42815 9.56918 9.47815C9.60668 9.5094 9.66293 9.5344 9.69106 9.5344C9.76293 9.5344 9.75981 9.59377 9.68481 9.65002L9.62231 9.6969L9.71606 9.7094C9.76606 9.71878 9.80981 9.73128 9.80981 9.74065C9.80981 9.78128 9.87231 9.90315 9.89106 9.90315C9.90356 9.90315 9.92856 9.88127 9.94731 9.85627V9.8594Z" fill="#FFB700"/>
<path d="M11.141 9.34067C11.2254 9.30942 11.4066 9.15317 11.4066 9.1188C11.4066 9.1063 11.3566 9.05005 11.2941 8.9938C11.1691 8.8813 11.0285 8.68442 10.991 8.57192C10.9723 8.50942 10.8816 8.40942 10.6254 8.15942L10.2848 7.8313L10.1879 7.8563C10.1316 7.8688 10.066 7.8813 10.041 7.8813C9.99414 7.8813 9.99414 7.8813 10.0566 7.9313L10.1191 7.9813L10.2129 7.9313C10.2973 7.8813 10.3004 7.8813 10.3098 7.92192C10.316 7.9438 10.3035 7.98442 10.2785 8.01255C10.2566 8.04067 10.2441 8.07505 10.2473 8.08442C10.2566 8.0938 10.2348 8.11567 10.2004 8.13442C10.1379 8.16567 10.091 8.2688 10.141 8.2688C10.1879 8.2688 10.2879 8.1438 10.2754 8.10317C10.2691 8.0813 10.2754 8.05942 10.2816 8.05317C10.3223 8.0313 10.3191 8.12817 10.2816 8.17817C10.2566 8.20317 10.2441 8.23442 10.2504 8.24692C10.2566 8.2563 10.2348 8.27817 10.2004 8.29692C10.1379 8.32817 10.091 8.4313 10.141 8.4313C10.191 8.4313 10.2879 8.31255 10.2785 8.2688C10.2723 8.24692 10.2723 8.22192 10.2816 8.21567C10.3098 8.20317 10.3223 8.27817 10.3004 8.31567C10.2946 8.32622 10.2916 8.33804 10.2916 8.35005C10.2916 8.36206 10.2946 8.37388 10.3004 8.38442C10.3223 8.42505 10.3004 8.50005 10.2598 8.52505C10.2441 8.53442 10.2535 8.5563 10.2973 8.58755C10.3598 8.6313 10.3598 8.63755 10.3598 8.83755C10.3598 9.0063 10.366 9.05005 10.3973 9.07817C10.4285 9.10942 10.4348 9.10942 10.4348 9.07817C10.4348 9.04692 10.4973 9.00317 10.5441 9.00317C10.5598 9.00317 10.6504 9.0813 10.7473 9.17505C10.8441 9.2688 10.9473 9.35317 10.9754 9.3563L11.0441 9.3688C11.0535 9.3688 11.0973 9.35942 11.141 9.33755V9.34067ZM10.1004 8.52505C10.1004 8.47192 9.98789 8.41255 9.85352 8.40005C9.74414 8.38442 9.74414 8.38755 9.74414 8.44067C9.74414 8.48442 9.75977 8.50317 9.83789 8.53442C9.95664 8.58755 10.1004 8.5813 10.1004 8.52505Z" fill="#FFB700"/>
<path d="M10.2223 8.51871C10.2786 8.46871 10.3036 8.41246 10.2692 8.41246C10.2317 8.41246 10.1317 8.49996 10.1317 8.53746C10.1317 8.58746 10.1504 8.58434 10.2254 8.51871H10.2223ZM10.1067 8.35934C10.1098 8.32809 10.0911 8.30934 10.0348 8.28121C9.90982 8.22809 9.76607 8.19996 9.7317 8.22809C9.66607 8.28121 9.70982 8.34996 9.81295 8.36246C9.8567 8.36559 9.91295 8.37809 9.94107 8.39059C10.0223 8.42184 10.0973 8.40621 10.1067 8.35934ZM10.1067 8.19371C10.1129 8.15309 10.0848 8.13746 9.8567 8.05621C9.68482 7.99371 9.60982 8.02496 9.66607 8.12809C9.68482 8.16246 9.71607 8.17809 9.78795 8.19059C9.84107 8.19684 9.91295 8.21246 9.94732 8.22496C10.0411 8.25621 10.0973 8.24371 10.1036 8.19371H10.1067ZM10.2192 8.04059C10.2536 8.00621 10.2817 7.96559 10.2817 7.94684C10.2817 7.89996 10.1473 7.98746 10.1286 8.04996C10.1098 8.12184 10.1442 8.11871 10.2223 8.04059H10.2192ZM10.1067 8.03121C10.1129 7.98121 10.0317 7.93746 9.8692 7.90309C9.74732 7.87496 9.6942 7.89059 9.70357 7.94684C9.70982 7.97809 9.75045 7.99996 9.85982 8.03434C10.0442 8.09059 10.0973 8.09059 10.1067 8.03121ZM10.2629 7.79996C10.4754 7.70621 10.4911 7.47184 10.2942 7.40934C10.2129 7.38434 10.1629 7.39996 10.1317 7.45309C10.1067 7.49684 10.1223 7.57184 10.1536 7.57184C10.1661 7.57184 10.1754 7.58746 10.1754 7.60309C10.1754 7.68746 9.8567 7.72184 9.72545 7.65621C9.67857 7.63434 9.66295 7.57184 9.69732 7.57184C9.72857 7.57184 9.74732 7.50934 9.7317 7.46871C9.71295 7.40621 9.65045 7.38746 9.56607 7.41246C9.3692 7.46246 9.37545 7.69371 9.57545 7.78746C9.79672 7.86867 10.0389 7.87308 10.2629 7.79996Z" fill="#FFB700"/>
<path d="M10.1346 7.6188C10.1471 7.6063 10.1408 7.58755 10.1221 7.57505C10.0783 7.54067 10.0814 7.48755 10.1283 7.42817C10.1658 7.38442 10.1689 7.31567 10.1814 6.6438C10.2033 5.48442 10.2908 4.61255 10.4033 4.40005C10.4502 4.3188 10.4439 4.3188 10.3252 4.40005C10.1694 4.50859 10.0436 4.6548 9.95957 4.82505C9.76582 5.18442 9.7002 5.6688 9.7002 6.7063C9.7002 7.2938 9.70332 7.37192 9.7377 7.42505C9.76895 7.4813 9.76895 7.50005 9.7502 7.5563C9.73457 7.59067 9.72832 7.62817 9.73457 7.63442C9.77832 7.67505 10.0908 7.66567 10.1346 7.6188ZM11.8877 6.51255C11.8971 6.50317 11.8814 6.45005 11.8564 6.40005C11.8189 6.3188 11.8033 6.3063 11.7502 6.3063C11.5003 6.28458 11.2566 6.21677 11.0314 6.1063C10.8721 6.03442 10.8127 6.0188 10.7971 6.03755C10.7471 6.08442 10.8283 6.1938 10.9533 6.25317C11.1373 6.31946 11.3299 6.35842 11.5252 6.3688C11.6096 6.3688 11.6127 6.3688 11.5627 6.44067L11.5314 6.49067H11.6252L11.7814 6.50942C11.8752 6.5313 11.8752 6.5313 11.8877 6.51255Z" fill="#FFB700"/>
<path d="M12.8757 7.03447C12.8757 7.00322 12.7851 6.9251 12.6976 6.87197C12.6257 6.83135 12.6132 6.82822 12.6132 6.8626C12.6132 6.9126 12.5695 7.04072 12.5507 7.04072C12.5413 7.04072 12.5257 7.01572 12.5195 6.9876C12.5101 6.95635 12.4757 6.89385 12.4413 6.85322L12.3788 6.7751L12.3351 6.84697C12.2913 6.91572 12.2132 6.98135 12.1788 6.98135C12.1726 6.98135 12.1695 6.94385 12.1788 6.90322C12.182 6.85322 12.1788 6.81572 12.1632 6.80947C12.1507 6.8001 12.1382 6.80322 12.1382 6.81572C12.1382 6.84072 12.032 6.95947 12.0132 6.95947C12.0007 6.95947 11.9882 6.92822 11.982 6.88447L11.957 6.73447C11.9507 6.69697 11.9663 6.72197 11.9882 6.79697L12.0382 6.9251L12.0882 6.84697C12.1109 6.81469 12.1278 6.77874 12.1382 6.74072C12.1382 6.7251 12.1476 6.71885 12.1601 6.7251C12.1726 6.73135 12.1882 6.78447 12.1945 6.84072L12.2101 6.94697L12.2663 6.88447C12.2958 6.85312 12.3229 6.8197 12.3476 6.78447C12.3695 6.74697 12.3726 6.74697 12.4195 6.78447C12.4445 6.80947 12.4851 6.8626 12.5101 6.90635C12.5351 6.9501 12.557 6.98135 12.5601 6.97822L12.5788 6.87822L12.5913 6.78447C12.5945 6.76885 12.7601 6.87822 12.8226 6.93135C12.8601 6.96572 12.8976 6.99072 12.9038 6.98447C12.9101 6.97822 12.9163 6.92822 12.9163 6.86885C12.9163 6.78135 12.907 6.75635 12.8538 6.70947C12.7913 6.65322 12.7913 6.65322 12.7663 6.69385C12.7351 6.74697 12.7007 6.74697 12.7007 6.69385C12.7007 6.65635 12.582 6.50947 12.5538 6.50947C12.5445 6.50947 12.5195 6.54072 12.4976 6.58135C12.4757 6.62197 12.4507 6.65322 12.4445 6.65322C12.4132 6.65322 12.2476 6.46572 12.2476 6.43447C12.2476 6.40947 12.2601 6.41572 12.2882 6.45947C12.3162 6.50052 12.3487 6.53826 12.3851 6.57197C12.4476 6.62822 12.4726 6.61572 12.4976 6.50635C12.507 6.4751 12.5195 6.4501 12.5288 6.4501C12.5538 6.4501 12.6976 6.60322 12.7163 6.65322L12.7382 6.70322L12.7538 6.64697C12.7726 6.57822 12.7945 6.57822 12.8257 6.64072C12.8382 6.66572 12.9007 6.72197 12.9632 6.75947L13.0788 6.83447L13.1007 6.75947C13.1132 6.71885 13.132 6.69697 13.1382 6.70947C13.1507 6.7251 13.1195 6.8501 13.0976 6.8751C13.0976 6.87822 13.057 6.85635 13.0163 6.82822L12.9382 6.77197V6.87197C12.9382 6.9251 12.932 6.99072 12.9257 7.01572C12.9101 7.06572 12.8726 7.07822 12.8726 7.03447H12.8757ZM12.2976 6.24072C12.1601 6.12822 12.1413 6.10322 12.1413 6.04697L12.1445 5.99072L12.1538 6.04385C12.1601 6.0751 12.1976 6.1251 12.2413 6.1626L12.3226 6.2251L12.3695 6.16885C12.3976 6.1376 12.4195 6.1001 12.4195 6.0876C12.4195 6.0501 12.4257 6.05322 12.5195 6.13447C12.6007 6.20635 12.6038 6.20635 12.6132 6.15947C12.6226 6.13447 12.6195 6.08447 12.6132 6.0501C12.582 5.95635 12.5882 5.94385 12.6288 6.0001L12.7038 6.0876C12.7351 6.12197 12.7382 6.12197 12.7507 6.07822C12.7601 6.0501 12.7663 6.00322 12.7663 5.97197V5.9126L12.8382 5.99697C12.9101 6.07822 12.9163 6.08135 12.9351 6.04072C12.9507 6.01885 12.9601 5.96572 12.9601 5.9251C12.9601 5.86885 12.9663 5.85635 12.9788 5.8751C13.0038 5.9126 12.9882 6.00635 12.9445 6.0876L12.9132 6.1501L12.8726 6.08447C12.8195 6.00322 12.8007 6.00322 12.7695 6.09072C12.7382 6.1751 12.7163 6.18135 12.6851 6.11572C12.6663 6.0751 12.6601 6.08135 12.6476 6.16885L12.632 6.2626L12.5382 6.19072L12.4445 6.11885L12.3976 6.16572C12.3757 6.19385 12.357 6.22822 12.357 6.24072C12.357 6.27197 12.332 6.27197 12.2976 6.24072ZM13.5163 5.81572C13.4695 5.77197 13.4351 5.72822 13.4413 5.72197C13.4507 5.7126 13.457 5.70947 13.4601 5.71572C13.4903 5.74795 13.5216 5.77922 13.5538 5.80947C13.6601 5.92197 13.6382 5.9251 13.5195 5.81572H13.5163ZM11.8913 5.64697C11.8476 5.58447 11.8507 5.54697 11.907 5.47822C11.9445 5.43135 11.9632 5.4251 12.032 5.43447C12.0788 5.4376 12.1757 5.47822 12.2476 5.52197C12.3515 5.58403 12.4704 5.61645 12.5913 5.61572L12.5382 5.52822C12.4695 5.4251 12.4695 5.4126 12.5507 5.4751C12.632 5.54072 12.7288 5.55947 12.9476 5.55322L13.0538 5.5501L12.9913 5.4876C12.907 5.40322 12.932 5.39385 13.0288 5.47822C13.1163 5.55635 13.1132 5.5626 12.9226 5.58135C12.8431 5.58937 12.7628 5.58409 12.6851 5.56572C12.5788 5.53447 12.5726 5.5376 12.5945 5.57197C12.607 5.59385 12.6257 5.60947 12.6351 5.60947C12.6476 5.60947 12.657 5.62197 12.657 5.63447C12.657 5.6751 12.4257 5.6376 12.3132 5.58447C12.0632 5.45635 12.032 5.44385 11.9695 5.4626C11.9528 5.469 11.9376 5.47865 11.9247 5.49099C11.9119 5.50333 11.9016 5.51811 11.8945 5.53447C11.8538 5.6376 12.0007 5.71885 12.0601 5.62822C12.0788 5.6001 12.0757 5.58447 12.0445 5.5501C12.0007 5.50635 12.007 5.5001 12.0632 5.51885C12.1038 5.53447 12.107 5.63135 12.0695 5.66885C12.0288 5.70947 11.9288 5.7001 11.8913 5.64697Z" fill="black"/>
<path d="M12.8879 5.39389C12.8567 5.36264 12.8817 5.35639 13.0223 5.35326C13.1973 5.35014 13.3036 5.32201 13.4286 5.24076C13.5286 5.17826 13.5567 5.19076 13.4598 5.25639C13.3754 5.31889 13.2411 5.36264 13.1067 5.37514L12.9473 5.39701C12.9223 5.40326 12.8942 5.40014 12.8848 5.39389H12.8879Z" fill="black"/>
</g>
<defs>
<clipPath id="clip0_202_3783">
<rect width="20" height="15" fill="white"/>
</clipPath>
</defs>
</svg>
