<svg width="20" height="15" viewBox="0 0 20 15" fill="none" xmlns="http://www.w3.org/2000/svg">
<g clip-path="url(#clip0_202_4173)">
<mask id="mask0_202_4173" style="mask-type:luminance" maskUnits="userSpaceOnUse" x="0" y="0" width="20" height="15">
<path d="M0.000976562 0H19.999V15H0.000976562V0Z" fill="white"/>
</mask>
<g mask="url(#mask0_202_4173)">
<path fill-rule="evenodd" clip-rule="evenodd" d="M-1.25 0H21.25V15H-1.25V0Z" fill="#3E5EB9"/>
<path fill-rule="evenodd" clip-rule="evenodd" d="M-1.25 2.67773H21.25V12.3223H-1.25V2.67773Z" fill="#FFD900"/>
<path fill-rule="evenodd" clip-rule="evenodd" d="M-1.25 3.75H21.25V11.25H-1.25V3.75Z" fill="#B10C0C"/>
<path d="M19.0381 7.33887H1.16406C1.07022 7.33887 0.994141 7.41101 0.994141 7.5C0.994141 7.58899 1.07022 7.66113 1.16406 7.66113H19.0381C19.1319 7.66113 19.208 7.58899 19.208 7.5C19.208 7.41101 19.1319 7.33887 19.0381 7.33887Z" fill="#FFD900" stroke="black" stroke-width="0.07"/>
<path fill-rule="evenodd" clip-rule="evenodd" d="M17.2322 5.7854L16.3213 6.10652L17.2322 6.42764L18.143 6.10652L17.2322 5.7854Z" fill="white" stroke="black" stroke-width="0.06"/>
<path d="M16.6256 5.99878H3.4814C3.41293 5.99878 3.35742 6.04684 3.35742 6.10612C3.35742 6.16541 3.41293 6.21346 3.4814 6.21346H16.6256C16.694 6.21346 16.7495 6.16541 16.7495 6.10612C16.7495 6.04684 16.694 5.99878 16.6256 5.99878Z" fill="#FFD900" stroke="black" stroke-width="0.06"/>
<path d="M16.4283 6.21346C16.4813 6.21346 16.5342 6.15904 16.5342 6.10461C16.5342 6.05018 16.4813 5.99878 16.4283 5.99878" stroke="black" stroke-width="0.06"/>
<path d="M16.3229 6.21346C16.3758 6.21346 16.4287 6.15904 16.4287 6.10461C16.4287 6.05018 16.3758 5.99878 16.3229 5.99878" stroke="black" stroke-width="0.06"/>
<path d="M16.2135 6.21664C16.2664 6.21664 16.3193 6.16221 16.3193 6.10778C16.3193 6.05336 16.2664 6.00195 16.2135 6.00195" stroke="black" stroke-width="0.06"/>
<path fill-rule="evenodd" clip-rule="evenodd" d="M16.3738 6.427L15.4629 6.74812L16.3738 7.06924L17.2846 6.74812L16.3738 6.427Z" fill="white" stroke="black" stroke-width="0.06"/>
<path d="M15.7672 6.64038H2.623C2.55453 6.64038 2.49902 6.68844 2.49902 6.74772C2.49902 6.80701 2.55453 6.85507 2.623 6.85507H15.7672C15.8356 6.85507 15.8911 6.80701 15.8911 6.74772C15.8911 6.68844 15.8356 6.64038 15.7672 6.64038Z" fill="#FFD900" stroke="black" stroke-width="0.06"/>
<path d="M15.5699 6.85507C15.6229 6.85507 15.6758 6.80064 15.6758 6.74621C15.6758 6.69178 15.6229 6.64038 15.5699 6.64038" stroke="black" stroke-width="0.06"/>
<path d="M15.4645 6.85507C15.5174 6.85507 15.5703 6.80064 15.5703 6.74621C15.5703 6.69178 15.5174 6.64038 15.4645 6.64038" stroke="black" stroke-width="0.06"/>
<path d="M15.3551 6.85824C15.408 6.85824 15.4609 6.80381 15.4609 6.74939C15.4609 6.69496 15.408 6.64355 15.3551 6.64355" stroke="black" stroke-width="0.06"/>
<path fill-rule="evenodd" clip-rule="evenodd" d="M17.9248 7.37378C17.7646 7.65393 18.0501 7.28115 18.7522 7.75109C18.8803 7.83694 18.994 8.06739 18.994 8.2278C18.9619 8.20521 18.9357 8.16002 18.9007 8.12613C18.8483 8.1781 18.9503 8.41081 18.9648 8.52151C18.8541 8.46051 18.8658 8.43114 18.8279 8.35432C18.8366 8.4447 18.8104 8.69774 18.8541 8.79263C18.7667 8.77004 18.7725 8.7 18.7288 8.68418C18.758 8.79489 18.6997 8.91237 18.7172 9.03664C18.6648 8.98693 18.6123 8.94626 18.589 8.92593C18.5861 8.98467 18.4929 9.13831 18.49 9.19479C18.4463 9.16768 18.4346 9.12701 18.4288 9.0999C18.3763 9.16768 18.187 9.4162 18.1753 9.4885C18.0297 9.35972 17.6568 9.04793 17.6072 8.88074C17.5635 8.97563 17.5024 9.00727 17.38 9.0773C17.3305 8.81296 17.1469 8.51699 17.246 8.29106C17.1789 8.33286 17.1148 8.37735 17.0537 8.42436C17.0958 8.21166 17.1951 8.0082 17.3451 7.82721C17.4952 7.64621 17.6927 7.49172 17.9248 7.37378Z" fill="#3D5DA7" stroke="black" stroke-width="0.05"/>
<path fill-rule="evenodd" clip-rule="evenodd" d="M17.3213 8.76552C17.3887 8.63075 17.4502 8.58974 17.4941 8.50185C17.5703 8.3495 17.582 8.22646 17.6494 8.24403C17.7168 8.26161 17.7168 8.32607 17.6289 8.47548C17.541 8.62196 17.5 8.65712 17.3213 8.76552ZM17.7754 9.08779C17.7666 8.98232 17.7988 8.9413 17.793 8.87392C17.7842 8.75673 17.7344 8.67763 17.7959 8.67177C17.8574 8.66591 17.8867 8.70693 17.8867 8.82411C17.8867 8.9413 17.8691 8.9706 17.7754 9.08779ZM18.1211 9.287C18.0947 9.14052 18.1152 9.08193 18.0977 8.98818C18.0684 8.82411 18.0098 8.71864 18.0684 8.704C18.124 8.68935 18.1563 8.74208 18.1797 8.90614C18.2002 9.07021 18.1885 9.11708 18.1211 9.287ZM18.4814 8.28212C18.3965 8.2206 18.3467 8.21474 18.2939 8.17372C18.1973 8.10048 18.1475 8.02431 18.1182 8.06239C18.0889 8.10048 18.1094 8.1415 18.209 8.20888C18.3115 8.27626 18.3438 8.28212 18.4814 8.28212ZM18.4229 8.75966C18.3789 8.66591 18.332 8.64247 18.3027 8.58388C18.25 8.47841 18.25 8.38759 18.1973 8.41103C18.1387 8.43446 18.1387 8.48134 18.1973 8.58388C18.2559 8.68349 18.2852 8.70107 18.4229 8.75966Z" fill="#A70000"/>
<path fill-rule="evenodd" clip-rule="evenodd" d="M1.77967 7.64424C1.76967 7.56122 1.78966 7.552 1.73636 7.4905C1.80965 7.52125 1.81299 7.60427 1.90294 7.54585C1.93626 7.5274 1.94958 7.5274 1.9096 7.43823C2.00289 7.43823 2.3094 7.54585 2.35604 7.54892C2.48598 7.55507 2.71919 7.41363 2.87911 7.58582C3.0357 7.74263 2.98239 7.90559 2.98239 8.12389C2.92242 8.09314 2.94908 8.08085 2.88244 8.0009C2.93575 8.19154 2.88244 8.5359 2.88244 8.73883C2.85579 8.68964 2.85912 8.70809 2.8358 8.65889C2.76917 8.84337 2.68921 8.88334 2.68921 9.09857C2.66589 9.01556 2.68921 9.03093 2.66255 8.98788C2.59592 9.12625 2.16281 9.24616 2.32939 9.3876C2.1828 9.3015 2.11617 9.31073 2.0462 9.23079C2.01622 9.24923 1.99289 9.28613 1.96624 9.33533C1.69971 9.21234 1.79966 8.95099 1.58977 8.77573C1.55645 8.84952 1.56978 8.83722 1.5298 8.95714C1.48982 8.7911 1.47649 8.68349 1.42985 8.56358C1.38987 8.63122 1.39653 8.60355 1.3199 8.70809C1.28659 8.50516 1.23994 8.45596 1.25993 8.32375C1.17997 8.37909 1.23328 8.3545 1.15332 8.42521C1.22662 7.90251 1.54979 7.52125 1.77967 7.64424Z" fill="#3D5DA7" stroke="black" stroke-width="0.05"/>
<path fill-rule="evenodd" clip-rule="evenodd" d="M1.4541 8.4903C1.52148 8.32331 1.58301 8.27058 1.62988 8.16218C1.70605 7.97468 1.71777 7.82234 1.78223 7.84577C1.84961 7.86921 1.84668 7.94538 1.75879 8.13288C1.69922 8.28224 1.59215 8.40784 1.4541 8.4903ZM1.71191 8.90925C1.74121 8.75984 1.78223 8.70417 1.7998 8.60749C1.8291 8.43757 1.81445 8.31159 1.87598 8.31745C1.93457 8.32624 1.94922 8.38777 1.9082 8.55769C1.86719 8.72761 1.84082 8.7657 1.71191 8.90925ZM2.01953 9.19929C2.02832 9.0528 2.06348 8.99714 2.06641 8.90632C2.0752 8.73933 2.0459 8.62214 2.10156 8.62214C2.16016 8.62214 2.18066 8.68073 2.16309 8.8448C2.14551 9.00886 2.125 9.04987 2.01953 9.19636V9.19929ZM2.68457 8.25007C2.55566 8.12409 2.47949 8.10066 2.39746 8.0157C2.25391 7.87507 2.18359 7.7403 2.13379 7.79011C2.08105 7.83698 2.11328 7.9073 2.26562 8.04499C2.41797 8.17976 2.4707 8.19734 2.68457 8.25007ZM2.60547 8.7364C2.52344 8.61335 2.46484 8.5782 2.41211 8.49616C2.31836 8.35261 2.28613 8.22956 2.23633 8.26179C2.17773 8.29109 2.19238 8.35554 2.29492 8.49616C2.39453 8.63386 2.43555 8.6573 2.6084 8.7364H2.60547Z" fill="#A70000"/>
<path fill-rule="evenodd" clip-rule="evenodd" d="M15.3567 7.50037C14.2863 8.57077 12.8571 10.7152 9.99864 10.7152C7.49901 10.7152 5.71298 8.57258 4.64258 7.50037C5.71298 6.42997 7.49901 4.28735 9.99864 4.28735C12.8571 4.28735 14.2843 6.42815 15.3567 7.50037Z" fill="white" stroke="black" stroke-width="0.06"/>
<path fill-rule="evenodd" clip-rule="evenodd" d="M9.625 5.40234C9.91211 5.72461 9.67188 5.85352 9.97656 5.87402C10.293 5.89746 10.1113 6.21387 10.3809 6.22559C10.5684 6.23145 10.3604 6.97852 10.542 7.22754C10.7266 7.48242 10.8789 7.30078 10.8818 7.48828C10.8848 7.67871 10.3838 7.66113 10.375 8.25C10.3604 8.59277 9.9502 8.61621 9.92969 8.83594C9.90625 9.04102 10.7354 9.1582 10.7266 9.34277C10.7148 9.52734 9.82715 9.49805 9.78906 9.70605C9.77148 9.89648 11.0078 10.0518 11.1074 10.5967C10.9229 10.6553 10.3955 10.7139 10 10.7139C7.50098 10.7139 5.71387 8.57227 4.6416 7.5C5.71387 6.42773 7.50098 4.28613 10 4.28613C10 4.28613 9.25879 4.96289 9.625 5.40527V5.40234Z" fill="black"/>
<path fill-rule="evenodd" clip-rule="evenodd" d="M6.64258 6.35742H6.90332V7.21289H6.64258V6.35742ZM6.64258 7.78711H6.90332V8.64258H6.64258V7.78711ZM7.16113 6.35742H7.42188V7.21289H7.16113V6.35742ZM7.16113 7.78711H7.42188V8.64258H7.16113V7.78711ZM7.68555 6.35742H7.94336V7.21289H7.68555V6.35742ZM7.68555 7.78711H7.94336V8.64258H7.68555V7.78711ZM8.2041 6.35742H8.46484V7.21289H8.2041V6.35742ZM8.2041 7.78711H8.46484V8.64258H8.2041V7.78711ZM8.72266 6.35742H8.9834V7.21289H8.72266V6.35742ZM8.72266 7.78711H8.9834V8.64258H8.72266V7.78711ZM9.24414 6.35742H9.50195V7.21289H9.24414V6.35742ZM9.24414 7.78711H9.50195V8.64258H9.24414V7.78711Z" fill="white"/>
<path fill-rule="evenodd" clip-rule="evenodd" d="M10.5713 6.35742H10.832V7.21289H10.5713V6.35742ZM10.5713 7.78711H10.832V8.64258H10.5713V7.78711ZM11.0898 6.35742H11.3506V7.21289H11.0898V6.35742ZM11.0898 7.78711H11.3506V8.64258H11.0898V7.78711ZM11.6113 6.35742H11.8691V7.21289H11.6113V6.35742ZM11.6113 7.78711H11.8691V8.64258H11.6113V7.78711ZM12.1299 6.35742H12.3906V7.21289H12.127L12.1299 6.35742ZM12.1299 7.78711H12.3906V8.64258H12.127L12.1299 7.78711ZM12.6484 6.35742H12.9092V7.21289H12.6484V6.35742ZM12.6484 7.78711H12.9092V8.64258H12.6484V7.78711ZM13.1699 6.35742H13.4277V7.21289H13.1699V6.35742ZM13.1699 7.78711H13.4277V8.64258H13.1699V7.78711Z" fill="black"/>
<path fill-rule="evenodd" clip-rule="evenodd" d="M8.26536 4.85693C8.11883 5.14301 8.52646 4.76234 9.16588 5.24222C9.32652 5.41599 9.42719 5.62552 9.45629 5.84668C9.32041 5.81899 9.07796 5.68518 9.07796 5.68518C9.07796 5.68518 9.36037 5.96665 9.36037 6.29426C9.2618 6.23197 9.21117 6.24119 9.1792 6.16506C9.1792 6.26888 9.26712 6.33809 9.26712 6.5019C9.20715 6.45292 9.14204 6.4089 9.07263 6.37039C9.16588 6.5342 8.89946 6.85257 9.03267 6.9587C8.80088 6.92409 8.5611 6.77413 8.46785 6.61264C8.41723 6.64494 8.41456 6.698 8.40923 6.75568C8.41723 6.76029 8.05489 6.48575 8.08952 6.37962C8.0389 6.44883 8.03357 6.48575 8.02292 6.56419C7.88189 6.44394 7.77832 6.29472 7.72185 6.13045L7.5993 6.28503C7.55667 6.0151 7.55667 6.02433 7.64459 5.79362C7.58327 5.83629 7.52457 5.88173 7.46875 5.92973C7.50706 5.71249 7.59779 5.50468 7.73505 5.31983C7.87231 5.13499 8.053 4.97726 8.26536 4.85693Z" fill="#3D5DA7" stroke="black" stroke-width="0.05"/>
<path fill-rule="evenodd" clip-rule="evenodd" d="M7.90234 6.25787C7.92578 6.06158 7.97559 5.98541 7.99023 5.85944C8.01953 5.63385 7.9873 5.47272 8.06641 5.47565C8.14551 5.47858 8.16895 5.56354 8.13086 5.78619C8.08984 6.00885 8.05762 6.06451 7.90234 6.25787ZM8.31543 6.62115C8.30078 6.45416 8.33008 6.38385 8.32129 6.27545C8.30371 6.08795 8.24512 5.95905 8.3125 5.94733C8.38281 5.93561 8.41797 5.99713 8.42383 6.19049C8.43262 6.38092 8.41504 6.43072 8.31543 6.62115ZM8.96289 6.91412C8.89258 6.7735 8.83106 6.72955 8.78711 6.6358C8.70508 6.47174 8.69043 6.3399 8.62891 6.36334C8.56445 6.38678 8.57031 6.45709 8.6582 6.61822C8.74609 6.77643 8.79004 6.80865 8.96289 6.91705V6.91412ZM9.18555 5.62506C9.00977 5.52838 8.91602 5.52838 8.79883 5.46686C8.59668 5.36139 8.47656 5.24127 8.43555 5.30573C8.39453 5.37311 8.4502 5.43756 8.66113 5.53424C8.86914 5.63092 8.93359 5.63678 9.18848 5.62213L9.18555 5.62506ZM9.25293 6.16412C9.12109 6.05572 9.04492 6.03815 8.95996 5.96783C8.81348 5.84772 8.7373 5.7276 8.6875 5.77448C8.64063 5.82428 8.67285 5.88873 8.82813 6.00299C8.9834 6.12018 9.03613 6.13483 9.25293 6.16412Z" fill="#A70000"/>
</g>
</g>
<defs>
<clipPath id="clip0_202_4173">
<rect width="20" height="15" fill="white"/>
</clipPath>
</defs>
</svg>
