<svg width="20" height="15" viewBox="0 0 20 15" fill="none" xmlns="http://www.w3.org/2000/svg">
<g clip-path="url(#clip0_202_4260)">
<mask id="mask0_202_4260" style="mask-type:luminance" maskUnits="userSpaceOnUse" x="0" y="0" width="20" height="15">
<path d="M0 0H20V15H0V0Z" fill="white"/>
</mask>
<g mask="url(#mask0_202_4260)">
<path d="M0 0H22.5V15H0V0Z" fill="#FF0000"/>
<path d="M0 0H11.25V7.5H0V0Z" fill="#000095"/>
<path d="M4.8125 3.96563L4.73438 4.26562L5.02812 4.34688L4.97188 4.125L4.8125 3.96563ZM6.27812 4.125L6.22188 4.34688L6.51562 4.26562L6.4375 3.96563L6.27812 4.125ZM4.97188 3.375L4.8125 3.53437L4.87187 3.75L4.97188 3.375Z" fill="white"/>
<path d="M4.87187 3.75L4.8125 3.96563L4.97188 4.125L4.87187 3.75Z" fill="white"/>
<path d="M4.8123 3.53442L4.59668 3.75005L4.8123 3.96567L4.87168 3.75005L4.8123 3.53442ZM5.2498 4.40317L5.40918 4.56255L5.6248 4.50317L5.2498 4.40317ZM5.84043 4.56255L6.14043 4.64067L6.22168 4.34692L5.9998 4.40317L5.84043 4.56255Z" fill="white"/>
<path d="M6.0002 4.40312L6.22207 4.34688L6.27832 4.125L6.0002 4.40312ZM5.02832 4.34688L5.10957 4.64062L5.40957 4.5625L5.2502 4.40312L5.02832 4.34688ZM5.6252 4.50313L5.84082 4.5625L6.0002 4.40312L5.6252 4.50313Z" fill="white"/>
<path d="M5.40938 4.56245L5.625 4.77808L5.84062 4.56245L5.625 4.50308L5.40938 4.56245ZM5.02812 3.15308L4.73438 3.23433L4.8125 3.53433L4.97188 3.37495L5.02812 3.15308ZM4.97188 4.12495L5.02812 4.34683L5.25 4.40308L4.97188 4.12495ZM6.37813 3.74995L6.4375 3.53433L6.27812 3.37495L6.37813 3.74995Z" fill="white"/>
<path d="M5.2498 3.09692L5.02793 3.15317L4.97168 3.37505L5.2498 3.09692ZM6.27793 3.37505L6.22168 3.15317L5.9998 3.09692L6.27793 3.37505ZM6.4373 3.96567L6.65293 3.75005L6.4373 3.53442L6.37793 3.75005L6.4373 3.96567Z" fill="white"/>
<path d="M6.27832 3.37495L6.0002 3.09683L5.6252 2.99683L5.2502 3.09683L4.97207 3.37495L4.87207 3.74995L4.97207 4.12495L5.2502 4.40308L5.6252 4.50308L6.0002 4.40308L6.27832 4.12495L6.37832 3.74995L6.27832 3.37495Z" fill="white"/>
<path d="M6.27832 4.125L6.4377 3.96563L6.37832 3.75L6.27832 4.125ZM6.4377 3.53437L6.51582 3.23438L6.22207 3.15313L6.27832 3.375L6.4377 3.53437ZM6.22207 3.15313L6.14082 2.85938L5.84082 2.9375L6.0002 3.09687L6.22207 3.15313ZM5.40957 2.9375L5.10957 2.85938L5.02832 3.15313L5.2502 3.09687L5.40957 2.9375ZM5.6252 2.99688L5.40957 2.9375L5.2502 3.09687L5.6252 2.99688Z" fill="white"/>
<path d="M5.84043 2.93755L5.6248 2.72192L5.40918 2.93755L5.6248 2.99692L5.84043 2.93755Z" fill="white"/>
<path d="M5.9998 3.09687L5.84043 2.9375L5.6248 2.99688L5.9998 3.09687ZM5.40918 4.5625L5.10918 4.64062L5.2498 5.15938L5.6248 4.77812L5.40918 4.5625ZM5.2498 5.15938L5.6248 6.5625L5.9998 5.15938L5.6248 4.77812L5.2498 5.15938ZM5.02793 4.34688L4.73418 4.26562L4.59668 4.77812L5.10918 4.64062L5.02793 4.34688Z" fill="white"/>
<path d="M4.59688 4.77812L4.22188 6.1875L5.25 5.15938L5.10938 4.64062L4.59688 4.77812ZM4.22188 4.125L3.1875 5.15938L4.59688 4.77812L4.73438 4.26562L4.22188 4.125Z" fill="white"/>
<path d="M4.8123 3.96563L4.59668 3.75L4.22168 4.125L4.73418 4.26562L4.8123 3.96563ZM4.8123 3.53437L4.73418 3.23438L4.22168 3.375L4.59668 3.75L4.8123 3.53437Z" fill="white"/>
<path d="M4.22188 3.375L2.8125 3.75L4.22188 4.125L4.59688 3.75L4.22188 3.375ZM7.03438 4.125L6.51562 4.26562L6.65312 4.77812L8.0625 5.15938L7.03438 4.125Z" fill="white"/>
<path d="M6.22188 4.34688L6.14062 4.64062L6.65312 4.77812L6.51562 4.26562L6.22188 4.34688ZM5.84062 4.5625L5.625 4.77812L6 5.15938L6.14062 4.64062L5.84062 4.5625ZM6.4375 3.96563L6.51562 4.26562L7.03438 4.125L6.65312 3.75L6.4375 3.96563Z" fill="white"/>
<path d="M6 5.15942L7.03438 6.18755L6.65312 4.77817L6.14062 4.64067L6 5.15942ZM6.22188 3.15317L6.51562 3.23442L6.65312 2.72192L6.14062 2.85942L6.22188 3.15317Z" fill="white"/>
<path d="M7.03438 3.375L8.0625 2.34687L6.65312 2.72187L6.51562 3.23438L7.03438 3.375ZM6.65312 2.72187L7.03438 1.3125L6 2.34687L6.14062 2.85938L6.65312 2.72187ZM7.03438 4.125L8.4375 3.75L7.03438 3.375L6.65312 3.75L7.03438 4.125Z" fill="white"/>
<path d="M6.4373 3.53437L6.65293 3.75L7.03418 3.375L6.51543 3.23438L6.4373 3.53437ZM5.2498 2.34687L4.22168 1.3125L4.59668 2.72187L5.10918 2.85938L5.2498 2.34687Z" fill="white"/>
<path d="M5.02793 3.15317L5.10918 2.85942L4.59668 2.72192L4.73418 3.23442L5.02793 3.15317Z" fill="white"/>
<path d="M4.59688 2.72192L3.1875 2.34692L4.22188 3.37505L4.73438 3.23442L4.59688 2.72192ZM5.84062 2.93755L6.14062 2.85942L6 2.34692L5.625 2.72192L5.84062 2.93755Z" fill="white"/>
<path d="M6 2.34687L5.625 0.9375L5.25 2.34687L5.625 2.72187L6 2.34687Z" fill="white"/>
<path d="M5.40938 2.93755L5.625 2.72192L5.25 2.34692L5.10938 2.85942L5.40938 2.93755Z" fill="white"/>
<path d="M5.6252 5.34683C6.50713 5.34683 7.22207 4.63188 7.22207 3.74995C7.22207 2.86802 6.50713 2.15308 5.6252 2.15308C4.74327 2.15308 4.02832 2.86802 4.02832 3.74995C4.02832 4.63188 4.74327 5.34683 5.6252 5.34683Z" fill="#000095"/>
<path d="M5.6252 5.15933C6.40357 5.15933 7.03457 4.52833 7.03457 3.74995C7.03457 2.97157 6.40357 2.34058 5.6252 2.34058C4.84682 2.34058 4.21582 2.97157 4.21582 3.74995C4.21582 4.52833 4.84682 5.15933 5.6252 5.15933Z" fill="white"/>
</g>
</g>
<defs>
<clipPath id="clip0_202_4260">
<rect width="20" height="15" fill="white"/>
</clipPath>
</defs>
</svg>
