<svg width="20" height="15" viewBox="0 0 20 15" fill="none" xmlns="http://www.w3.org/2000/svg">
<g clip-path="url(#clip0_202_4209)">
<path d="M0 0H20V15H0V0Z" fill="#006600"/>
<path d="M0 0H20V10.7156H0V0Z" fill="white"/>
<path d="M0 0H20V4.28438H0V0Z" fill="#CC0000"/>
<path d="M9.40039 7.30011C9.42983 7.25018 9.47463 7.21111 9.5281 7.18872C9.58156 7.16634 9.64084 7.16184 9.69707 7.1759C9.7533 7.18996 9.80348 7.22182 9.84013 7.26673C9.87677 7.31164 9.89791 7.3672 9.90039 7.42511V8.50011H10.1004V7.42823C10.1029 7.37032 10.124 7.31477 10.1607 7.26986C10.1973 7.22494 10.2475 7.19308 10.3037 7.17902C10.3599 7.16496 10.4192 7.16946 10.4727 7.19185C10.5262 7.21423 10.5709 7.25331 10.6004 7.30323C10.6314 7.20846 10.6395 7.10769 10.624 7.00918C10.6085 6.91067 10.57 6.81723 10.5114 6.7365C10.4529 6.65578 10.3761 6.59007 10.2872 6.54476C10.1984 6.49945 10.1001 6.47583 10.0004 6.47583C9.90068 6.47583 9.80238 6.49945 9.71355 6.54476C9.62473 6.59007 9.5479 6.65578 9.48936 6.7365C9.43082 6.81723 9.39224 6.91067 9.37678 7.00918C9.36131 7.10769 9.3694 7.20846 9.40039 7.30323" fill="#F8C300"/>
<path d="M9.54395 7.02185C9.63169 7.00371 9.72291 7.01355 9.80476 7.04999C9.88661 7.08643 9.95496 7.14763 10.0002 7.22498C10.0454 7.14763 10.1138 7.08643 10.1956 7.04999C10.2775 7.01355 10.3687 7.00371 10.4564 7.02185C10.4433 6.91004 10.3896 6.80694 10.3055 6.73212C10.2214 6.6573 10.1128 6.61597 10.0002 6.61597C9.88762 6.61597 9.77897 6.6573 9.69487 6.73212C9.61076 6.80694 9.55705 6.91004 9.54395 7.02185Z" fill="white"/>
<path d="M9.9 8.07178C9.88672 8.22408 9.83074 8.36954 9.73849 8.49145C9.64625 8.61337 9.52148 8.70678 9.37852 8.76096C9.23556 8.81514 9.08022 8.82789 8.93034 8.79774C8.78047 8.76759 8.64214 8.69577 8.53125 8.59053C8.48423 8.71054 8.41033 8.81818 8.31523 8.9052C8.22014 8.99221 8.10637 9.05628 7.98266 9.09249C7.85895 9.12869 7.7286 9.13608 7.60159 9.11407C7.47459 9.09206 7.35431 9.04125 7.25 8.96553C7.32812 9.74678 8.5 9.5874 8.5875 8.82803C8.95312 9.4749 9.7625 9.2874 10 8.49678L9.9 8.07178Z" fill="#F8C300"/>
<path d="M10.1 8.07178C10.1133 8.22408 10.1693 8.36954 10.2615 8.49145C10.3538 8.61337 10.4785 8.70678 10.6215 8.76096C10.7644 8.81514 10.9198 8.82789 11.0697 8.79774C11.2195 8.76759 11.3579 8.69577 11.4688 8.59053C11.5158 8.71054 11.5897 8.81818 11.6848 8.9052C11.7799 8.99221 11.8936 9.05628 12.0173 9.09249C12.141 9.12869 12.2714 9.13608 12.3984 9.11407C12.5254 9.09206 12.6457 9.04125 12.75 8.96553C12.6719 9.74678 11.5 9.5874 11.4125 8.82803C11.0469 9.4749 10.2375 9.2874 10 8.49678L10.1 8.07178Z" fill="#F8C300"/>
<path d="M9.11875 9.4563C8.95312 9.80942 8.62813 9.8688 8.34375 9.58442C8.34375 9.58442 8.45625 9.50317 8.58125 9.4813C8.55625 9.38442 8.60313 9.24692 8.67188 9.17505C8.76287 9.23474 8.83027 9.32423 8.8625 9.42817C9.03438 9.4063 9.11875 9.45942 9.11875 9.45942V9.4563Z" fill="#F8C300"/>
<path d="M10.4003 9.41675C10.1792 9.73808 9.84889 9.74358 9.61478 9.41657C9.61478 9.41657 9.73904 9.35479 9.86593 9.35362C9.85709 9.25397 9.92579 9.12597 10.0054 9.06629C10.0854 9.14004 10.1373 9.23933 10.1521 9.34715C10.3252 9.35364 10.3998 9.41983 10.3998 9.41983L10.4003 9.41675Z" fill="#F8C300"/>
<path d="M11.6566 9.58397C11.3865 9.86535 11.0596 9.81739 10.8814 9.45686C10.8814 9.45686 11.0141 9.41596 11.1395 9.43532C11.1468 9.33554 11.2353 9.22033 11.3235 9.17429C11.3906 9.26001 11.4257 9.36638 11.4229 9.47517C11.5927 9.50956 11.6556 9.58693 11.6556 9.58693L11.6566 9.58397Z" fill="#F8C300"/>
<path d="M7.92188 10.2436C9.27789 9.84001 10.7221 9.84001 12.0781 10.2436" stroke="#F8C300" stroke-width="0.4"/>
<path d="M10.3235 5.58912L9.47656 4.9738H10.5234L9.67649 5.58912L9.99999 4.59351L10.3235 5.58912Z" fill="#F8C300"/>
<path d="M8.82348 5.99195L7.97656 5.37663H9.02341L8.17649 5.99195L8.49999 4.99634L8.82348 5.99195Z" fill="#F8C300"/>
<path d="M7.7268 7.08912L6.87988 6.4738H7.92673L7.07981 7.08912L7.40331 6.09351L7.7268 7.08912Z" fill="#F8C300"/>
<path d="M7.32348 8.58912L6.47656 7.9738H7.52341L6.67649 8.58912L6.99999 7.59351L7.32348 8.58912Z" fill="#F8C300"/>
<path d="M11.1765 5.99195L12.0234 5.37663H10.9766L11.8235 5.99195L11.5 4.99634L11.1765 5.99195Z" fill="#F8C300"/>
<path d="M12.2732 7.08912L13.1201 6.4738H12.0733L12.9202 7.08912L12.5967 6.09351L12.2732 7.08912Z" fill="#F8C300"/>
<path d="M12.6765 8.58912L13.5234 7.9738H12.4766L13.3235 8.58912L13 7.59351L12.6765 8.58912Z" fill="#F8C300"/>
</g>
<defs>
<clipPath id="clip0_202_4209">
<rect width="20" height="15" fill="white"/>
</clipPath>
</defs>
</svg>
