<svg width="20" height="15" viewBox="0 0 20 15" fill="none" xmlns="http://www.w3.org/2000/svg">
<g clip-path="url(#clip0_202_4243)">
<mask id="mask0_202_4243" style="mask-type:luminance" maskUnits="userSpaceOnUse" x="0" y="0" width="20" height="15">
<path d="M0.000976562 0H19.999V15H0.000976562V0Z" fill="white"/>
</mask>
<g mask="url(#mask0_202_4243)">
<path fill-rule="evenodd" clip-rule="evenodd" d="M-1.25 0H21.25V15H-1.25V0Z" fill="#E70013"/>
<path fill-rule="evenodd" clip-rule="evenodd" d="M13.8027 7.49414C13.8027 8.49725 13.4043 9.45927 12.6949 10.1686C11.9856 10.8779 11.0236 11.2764 10.0205 11.2764C9.0174 11.2764 8.05538 10.8779 7.34607 10.1686C6.63676 9.45927 6.23828 8.49725 6.23828 7.49414C6.23828 6.49103 6.63676 5.52901 7.34607 4.8197C8.05538 4.1104 9.0174 3.71191 10.0205 3.71191C11.0236 3.71191 11.9856 4.1104 12.6949 4.8197C13.4043 5.52901 13.8027 6.49103 13.8027 7.49414Z" fill="white"/>
<path fill-rule="evenodd" clip-rule="evenodd" d="M10.0207 10.002C9.37003 9.97972 8.75345 9.70561 8.30102 9.23746C7.84859 8.7693 7.5957 8.14372 7.5957 7.49268C7.5957 6.84163 7.84859 6.21605 8.30102 5.74789C8.75345 5.27974 9.37003 5.00563 10.0207 4.9834C10.3664 4.9834 10.7619 5.06543 11.0285 5.26172C9.19452 5.3291 8.7287 6.8877 8.7287 7.51465C8.7287 8.1416 9.0246 9.53906 11.0285 9.74707C10.8 9.89355 10.3664 10.002 10.0207 10.002Z" fill="#E70013"/>
<path fill-rule="evenodd" clip-rule="evenodd" d="M12.2295 8.54883L11.0898 8.13281L10.3369 9.08203L10.3809 7.87207L9.24414 7.44727L10.4102 7.11328L10.46 5.90332L11.1396 6.9082L12.3057 6.58594L11.5586 7.53809L12.2295 8.54883Z" fill="#E70013"/>
</g>
</g>
<defs>
<clipPath id="clip0_202_4243">
<rect width="20" height="15" fill="white"/>
</clipPath>
</defs>
</svg>
