<svg width="20" height="15" viewBox="0 0 20 15" fill="none" xmlns="http://www.w3.org/2000/svg">
<g clip-path="url(#clip0_202_4277)">
<path d="M20 0H0V15H20V0Z" fill="#00843D"/>
<path d="M11.2628 1.66357C11.9259 1.94908 12.3906 2.60985 12.3906 3.37927C12.3906 4.40987 11.5571 5.24565 10.5293 5.24565C10.0692 5.24565 9.64813 5.07804 9.32324 4.80052C9.52423 4.88695 9.74384 4.93917 9.9752 4.94929C11.002 4.99425 11.871 4.19574 11.9158 3.16612C11.9419 2.56834 11.6843 2.02393 11.2628 1.66357Z" fill="white"/>
<path d="M9.48771 3.03534L9.69858 2.38452L9.14648 2.78675H9.82891L9.27682 2.38452L9.48771 3.03534Z" fill="white"/>
<path d="M9.48771 2.07538L9.69858 1.42456L9.14648 1.82679H9.82891L9.27682 1.42456L9.48771 2.07538Z" fill="white"/>
<path d="M10.433 2.56732L10.6439 1.9165L10.0918 2.31873H10.7742L10.2221 1.9165L10.433 2.56732Z" fill="white"/>
<path d="M8.54142 3.50336L8.75229 2.85254L8.2002 3.25476H8.88262L8.33053 2.85254L8.54142 3.50336Z" fill="white"/>
<path d="M9.48771 3.9953L9.69858 3.34448L9.14648 3.74671H9.82891L9.27682 3.34448L9.48771 3.9953Z" fill="white"/>
<path d="M6.4503 0H2.40039V15H6.4503V0Z" fill="#D22630"/>
<path d="M2.40039 -0.990479V-0.843495L2.62814 -0.630309L2.55134 -0.558805L2.71421 -0.407851L2.6427 -0.342968V-0.436983H2.50367V-0.32443L2.81749 -0.0304671H2.97638L2.9936 -0.133751H2.90223L3.00154 -0.226442L3.25047 -1.18017e-05L3.00154 0.227742L2.90223 0.135052H2.9936L2.97638 0.0304437H2.81749L2.50367 0.324409V0.436962H2.6427V0.342947L2.71421 0.40783L2.55134 0.558784L2.62814 0.63161L2.40039 0.843475V0.990458L2.78571 0.63161L2.70891 0.558784L2.87045 0.40783L2.73142 0.278063L2.82411 0.193318L3.00154 0.357513L3.39083 -7.33137e-06L3.00154 -0.357527L2.82411 -0.192008L2.73142 -0.278078L2.87045 -0.407845L2.70891 -0.558799L2.78571 -0.630303L2.40039 -0.990479ZM2.40039 -0.276759V0.276736L2.49043 0.18537V0.0781152H2.58577L2.66256 -9.77516e-06L2.58577 -0.0768106H2.49043V-0.185391L2.40039 -0.276759ZM3.05716 -0.0807841L3.04391 -0.00530738L3.05716 0.0714935L3.13925 -0.00530738L3.05716 -0.0807841Z" fill="#383739"/>
<path d="M2.40043 -0.974608V-0.858083L2.64407 -0.630328L2.56726 -0.558824L2.73013 -0.407871L2.63215 -0.316504V-0.426409H2.5143V-0.328422L2.82282 -0.0410816H2.96583L2.98039 -0.123179H2.87446L3.00158 -0.242353L3.2664 -3.29018e-05L3.00158 0.242287L2.87446 0.124438H2.98039L2.96579 0.0410161H2.82278L2.51426 0.328356V0.426343H2.63211V0.316439L2.7301 0.407805L2.56723 0.558759L2.64403 0.631585L2.40039 0.858017V0.974543L2.76982 0.631585L2.69302 0.558759L2.85456 0.407805L2.71553 0.278038L2.82411 0.177403L3.00154 0.342922L3.37362 -3.31998e-05L3.00154 -0.342988L2.82411 -0.177469L2.71553 -0.278105L2.85456 -0.407872L2.69302 -0.558825L2.76982 -0.630329L2.40039 -0.974609L2.40043 -0.974608ZM2.40043 -0.260888V0.260827L2.47987 0.181378V0.0661782H2.58183L2.64804 -2.96235e-05L2.58183 -0.0662374H2.47987V-0.181439L2.40043 -0.260888ZM3.06513 -0.0596169L3.05587 -0.00532663L3.06513 0.0489637L3.12339 -0.00532663L3.06513 -0.0596169Z" fill="#FFC72C"/>
<path d="M2.40039 1.73975V1.88673L2.62814 2.09992L2.55134 2.17142L2.71421 2.32237L2.6427 2.38726V2.29324H2.50367V2.4058L2.81749 2.69976H2.97638L2.9936 2.59647H2.90223L3.00154 2.50378L3.25047 2.73021L3.00154 2.95797L2.90223 2.86528H2.9936L2.97638 2.76067H2.81749L2.50367 3.05463V3.16719H2.6427V3.07317L2.71421 3.13806L2.55134 3.28901L2.62814 3.36183L2.40039 3.5737V3.72068L2.78571 3.36183L2.70891 3.28901L2.87045 3.13806L2.73142 3.00829L2.82411 2.92354L3.00154 3.08774L3.39083 2.73022L3.00154 2.3727L2.82411 2.53822L2.73142 2.45215L2.87045 2.32238L2.70891 2.17143L2.78571 2.09992L2.40039 1.73975ZM2.40039 2.45347V3.00696L2.49043 2.91559V2.80834H2.58577L2.66256 2.73021L2.58577 2.65341H2.49043V2.54483L2.40039 2.45347ZM3.05716 2.64944L3.04391 2.72492L3.05716 2.80172L3.13925 2.72492L3.05716 2.64944Z" fill="#383739"/>
<path d="M2.40043 1.75562V1.87214L2.64407 2.0999L2.56726 2.1714L2.73013 2.32235L2.63215 2.41372V2.30382H2.5143V2.4018L2.82282 2.68914H2.96583L2.98039 2.60705H2.87446L3.00158 2.48787L3.2664 2.73019L3.00158 2.97251L2.87446 2.85466H2.98039L2.96579 2.77124H2.82278L2.51426 3.05858V3.15657H2.63211V3.04666L2.7301 3.13803L2.56723 3.28898L2.64403 3.36181L2.40039 3.58824V3.70477L2.76982 3.36181L2.69302 3.28898L2.85456 3.13803L2.71553 3.00826L2.82411 2.90763L3.00154 3.07315L3.37362 2.73019L3.00154 2.38724L2.82411 2.55276L2.71553 2.45212L2.85456 2.32235L2.69302 2.1714L2.76982 2.0999L2.40039 1.75562L2.40043 1.75562ZM2.40043 2.46934V2.99105L2.47987 2.9116V2.7964H2.58183L2.64804 2.73019L2.58183 2.66399H2.47987V2.54879L2.40043 2.46934ZM3.06513 2.67061L3.05587 2.7249L3.06513 2.77919L3.12339 2.7249L3.06513 2.67061Z" fill="#FFC72C"/>
<path d="M2.40039 4.55957V4.70655L2.62814 4.91974L2.55134 4.99124L2.71421 5.1422L2.6427 5.20708V5.11307H2.50367V5.22562L2.81749 5.51958H2.97638L2.9936 5.4163H2.90223L3.00154 5.32361L3.25047 5.55004L3.00154 5.77779L2.90223 5.6851H2.9936L2.97638 5.58049H2.81749L2.50367 5.87446V5.98701H2.6427V5.893L2.71421 5.95788L2.55134 6.10883L2.62814 6.18166L2.40039 6.39352V6.54051L2.78571 6.18166L2.70891 6.10883L2.87045 5.95788L2.73142 5.82811L2.82411 5.74337L3.00154 5.90756L3.39083 5.55004L3.00154 5.19252L2.82411 5.35804L2.73142 5.27197L2.87045 5.1422L2.70891 4.99125L2.78571 4.91975L2.40039 4.55957ZM2.40039 5.27329V5.82679L2.49043 5.73542V5.62816H2.58577L2.66256 5.55004L2.58577 5.47324H2.49043V5.36466L2.40039 5.27329ZM3.05716 5.46926L3.04391 5.54474L3.05716 5.62154L3.13925 5.54474L3.05716 5.46926Z" fill="#383739"/>
<path d="M2.40043 4.57544V4.69197L2.64407 4.91972L2.56726 4.99122L2.73013 5.14218L2.63215 5.23354V5.12364H2.5143V5.22163L2.82282 5.50897H2.96583L2.98039 5.42687H2.87446L3.00158 5.3077L3.2664 5.55002L3.00158 5.79234L2.87446 5.67449H2.98039L2.96579 5.59106H2.82278L2.51426 5.8784V5.97639H2.63211V5.86649L2.7301 5.95785L2.56723 6.10881L2.64403 6.18163L2.40039 6.40807V6.52459L2.76982 6.18163L2.69302 6.10881L2.85456 5.95785L2.71553 5.82809L2.82411 5.72745L3.00154 5.89297L3.37362 5.55002L3.00154 5.20706L2.82411 5.37258L2.71553 5.27194L2.85456 5.14218L2.69302 4.99122L2.76982 4.91972L2.40039 4.57544L2.40043 4.57544ZM2.40043 5.28916V5.81088L2.47987 5.73143V5.61623H2.58183L2.64804 5.55002L2.58183 5.48381H2.47987V5.36861L2.40043 5.28916ZM3.06513 5.49043L3.05587 5.54472L3.06513 5.59901L3.12339 5.54472L3.06513 5.49043Z" fill="#FFC72C"/>
<path d="M2.40039 7.37964V7.52662L2.62814 7.73981L2.55134 7.81131L2.71421 7.96227L2.6427 8.02715V7.93313H2.50367V8.04569L2.81749 8.33965H2.97638L2.9936 8.23637H2.90223L3.00154 8.14368L3.25047 8.37011L3.00154 8.59786L2.90223 8.50517H2.9936L2.97638 8.40056H2.81749L2.50367 8.69453V8.80708H2.6427V8.71306L2.71421 8.77795L2.55134 8.9289L2.62814 9.00173L2.40039 9.21359V9.36057L2.78571 9.00173L2.70891 8.9289L2.87045 8.77795L2.73142 8.64818L2.82411 8.56343L3.00154 8.72763L3.39083 8.37011L3.00154 8.01259L2.82411 8.17811L2.73142 8.09204L2.87045 7.96227L2.70891 7.81132L2.78571 7.73981L2.40039 7.37964ZM2.40039 8.09336V8.64685L2.49043 8.55549V8.44823H2.58577L2.66256 8.37011L2.58577 8.29331H2.49043V8.18473L2.40039 8.09336ZM3.05716 8.28933L3.04391 8.36481L3.05716 8.44161L3.13925 8.36481L3.05716 8.28933Z" fill="#383739"/>
<path d="M2.40043 7.39551V7.51203L2.64407 7.73979L2.56726 7.81129L2.73013 7.96225L2.63215 8.05361V7.94371H2.5143V8.0417L2.82282 8.32904H2.96583L2.98039 8.24694H2.87446L3.00158 8.12776L3.2664 8.37008L3.00158 8.6124L2.87446 8.49455H2.98039L2.96579 8.41113H2.82278L2.51426 8.69847V8.79646H2.63211V8.68656L2.7301 8.77792L2.56723 8.92888L2.64403 9.0017L2.40039 9.22813V9.34466L2.76982 9.0017L2.69302 8.92888L2.85456 8.77792L2.71553 8.64816L2.82411 8.54752L3.00154 8.71304L3.37362 8.37008L3.00154 8.02713L2.82411 8.19265L2.71553 8.09201L2.85456 7.96225L2.69302 7.81129L2.76982 7.73979L2.40039 7.39551L2.40043 7.39551ZM2.40043 8.10923V8.63094L2.47987 8.55149V8.4363H2.58183L2.64804 8.37009L2.58183 8.30388H2.47987V8.18868L2.40043 8.10923ZM3.06513 8.3105L3.05587 8.36479L3.06513 8.41908L3.12339 8.36479L3.06513 8.3105Z" fill="#FFC72C"/>
<path d="M2.40039 10.1995V10.3464L2.62814 10.5596L2.55134 10.6311L2.71421 10.7821L2.6427 10.847V10.753H2.50367V10.8655L2.81749 11.1595H2.97638L2.9936 11.0562H2.90223L3.00154 10.9635L3.25047 11.1899L3.00154 11.4177L2.90223 11.325H2.9936L2.97638 11.2204H2.81749L2.50367 11.5144V11.6269H2.6427V11.5329L2.71421 11.5978L2.55134 11.7487L2.62814 11.8216L2.40039 12.0334V12.1804L2.78571 11.8216L2.70891 11.7487L2.87045 11.5978L2.73142 11.468L2.82411 11.3833L3.00154 11.5475L3.39083 11.1899L3.00154 10.8324L2.82411 10.9979L2.73142 10.9119L2.87045 10.7821L2.70891 10.6311L2.78571 10.5596L2.40039 10.1995ZM2.40039 10.9132V11.4667L2.49043 11.3753V11.2681H2.58577L2.66256 11.1899L2.58577 11.1131H2.49043V11.0046L2.40039 10.9132ZM3.05716 11.1092L3.04391 11.1846L3.05716 11.2614L3.13925 11.1846L3.05716 11.1092Z" fill="#383739"/>
<path d="M2.40043 10.2153V10.3319L2.64407 10.5596L2.56726 10.6311L2.73013 10.7821L2.63215 10.8734V10.7635H2.5143V10.8615L2.82282 11.1489H2.96583L2.98039 11.0668H2.87446L3.00158 10.9476L3.2664 11.1899L3.00158 11.4322L2.87446 11.3144H2.98039L2.96579 11.231H2.82278L2.51426 11.5183V11.6163H2.63211V11.5064L2.7301 11.5977L2.56723 11.7487L2.64403 11.8215L2.40039 12.048V12.1645L2.76982 11.8215L2.69302 11.7487L2.85456 11.5977L2.71553 11.468L2.82411 11.3673L3.00154 11.5329L3.37362 11.1899L3.00154 10.847L2.82411 11.0125L2.71553 10.9118L2.85456 10.7821L2.69302 10.6311L2.76982 10.5596L2.40039 10.2153L2.40043 10.2153ZM2.40043 10.9291V11.4508L2.47987 11.3713V11.2561H2.58183L2.64804 11.1899L2.58183 11.1237H2.47987V11.0085L2.40043 10.9291ZM3.06513 11.1303L3.05587 11.1846L3.06513 11.2389L3.12339 11.1846L3.06513 11.1303Z" fill="#FFC72C"/>
<path d="M6.4502 -0.990479V-0.843495L6.22245 -0.630309L6.29925 -0.558805L6.13638 -0.407851L6.20788 -0.342968V-0.436983H6.34692V-0.32443L6.0331 -0.0304671H5.8742L5.85699 -0.133751H5.94836L5.84905 -0.226442L5.60011 -1.18017e-05L5.84905 0.227742L5.94836 0.135052H5.85699L5.8742 0.0304437H6.0331L6.34692 0.324409V0.436962H6.20788V0.342947L6.13638 0.40783L6.29925 0.558784L6.22245 0.63161L6.4502 0.843475V0.990458L6.06488 0.63161L6.14168 0.558784L5.98013 0.40783L6.11917 0.278063L6.02648 0.193318L5.84905 0.357513L5.45975 -7.33137e-06L5.84905 -0.357527L6.02648 -0.192008L6.11917 -0.278078L5.98013 -0.407845L6.14168 -0.558799L6.06488 -0.630303L6.4502 -0.990479ZM6.4502 -0.276759V0.276736L6.36015 0.18537V0.0781152H6.26482L6.18802 -9.77516e-06L6.26482 -0.0768106H6.36015V-0.185391L6.4502 -0.276759ZM5.79343 -0.0807841L5.80668 -0.00530738L5.79343 0.0714935L5.71134 -0.00530738L5.79343 -0.0807841Z" fill="#383739"/>
<path d="M6.45016 -0.974608V-0.858083L6.20652 -0.630328L6.28332 -0.558824L6.12045 -0.407871L6.21844 -0.316504V-0.426409H6.33629V-0.328422L6.02777 -0.0410816H5.88476L5.8702 -0.123179H5.97613L5.84901 -0.242353L5.58419 -3.29018e-05L5.84901 0.242287L5.97613 0.124438H5.8702L5.8848 0.0410161H6.0278L6.33632 0.328356V0.426343H6.21848V0.316439L6.12049 0.407805L6.28336 0.558759L6.20656 0.631585L6.4502 0.858017V0.974543L6.08077 0.631585L6.15757 0.558759L5.99602 0.407805L6.13506 0.278038L6.02648 0.177403L5.84905 0.342922L5.47697 -3.31998e-05L5.84905 -0.342988L6.02648 -0.177469L6.13506 -0.278105L5.99602 -0.407872L6.15757 -0.558825L6.08077 -0.630329L6.4502 -0.974609L6.45016 -0.974608ZM6.45016 -0.260888V0.260827L6.37071 0.181378V0.0661782H6.26876L6.20255 -2.96235e-05L6.26876 -0.0662374H6.37071V-0.181439L6.45016 -0.260888ZM5.78545 -0.0596169L5.79472 -0.00532663L5.78545 0.0489637L5.72719 -0.00532663L5.78545 -0.0596169Z" fill="#FFC72C"/>
<path d="M6.4502 1.73975V1.88673L6.22245 2.09992L6.29925 2.17142L6.13638 2.32237L6.20788 2.38726V2.29324H6.34692V2.4058L6.0331 2.69976H5.8742L5.85699 2.59647H5.94836L5.84905 2.50378L5.60011 2.73021L5.84905 2.95797L5.94836 2.86528H5.85699L5.8742 2.76067H6.0331L6.34692 3.05463V3.16719H6.20788V3.07317L6.13638 3.13806L6.29925 3.28901L6.22245 3.36183L6.4502 3.5737V3.72068L6.06488 3.36183L6.14168 3.28901L5.98013 3.13806L6.11917 3.00829L6.02648 2.92354L5.84905 3.08774L5.45975 2.73022L5.84905 2.3727L6.02648 2.53822L6.11917 2.45215L5.98013 2.32238L6.14168 2.17143L6.06488 2.09992L6.4502 1.73975ZM6.4502 2.45347V3.00696L6.36015 2.91559V2.80834H6.26482L6.18802 2.73021L6.26482 2.65341H6.36015V2.54483L6.4502 2.45347ZM5.79343 2.64944L5.80668 2.72492L5.79343 2.80172L5.71134 2.72492L5.79343 2.64944Z" fill="#383739"/>
<path d="M6.45016 1.75562V1.87214L6.20652 2.0999L6.28332 2.1714L6.12045 2.32235L6.21844 2.41372V2.30382H6.33629V2.4018L6.02777 2.68914H5.88476L5.8702 2.60705H5.97613L5.84901 2.48787L5.58419 2.73019L5.84901 2.97251L5.97613 2.85466H5.8702L5.8848 2.77124H6.0278L6.33632 3.05858V3.15657H6.21848V3.04666L6.12049 3.13803L6.28336 3.28898L6.20656 3.36181L6.4502 3.58824V3.70477L6.08077 3.36181L6.15757 3.28898L5.99602 3.13803L6.13506 3.00826L6.02648 2.90763L5.84905 3.07315L5.47697 2.73019L5.84905 2.38724L6.02648 2.55276L6.13506 2.45212L5.99602 2.32235L6.15757 2.1714L6.08077 2.0999L6.4502 1.75562L6.45016 1.75562ZM6.45016 2.46934V2.99105L6.37071 2.9116V2.7964H6.26876L6.20255 2.73019L6.26876 2.66399H6.37071V2.54879L6.45016 2.46934ZM5.78545 2.67061L5.79472 2.7249L5.78545 2.77919L5.72719 2.7249L5.78545 2.67061Z" fill="#FFC72C"/>
<path d="M6.4502 4.55957V4.70655L6.22245 4.91974L6.29925 4.99124L6.13638 5.1422L6.20788 5.20708V5.11307H6.34692V5.22562L6.0331 5.51958H5.8742L5.85699 5.4163H5.94836L5.84905 5.32361L5.60011 5.55004L5.84905 5.77779L5.94836 5.6851H5.85699L5.8742 5.58049H6.0331L6.34692 5.87446V5.98701H6.20788V5.893L6.13638 5.95788L6.29925 6.10883L6.22245 6.18166L6.4502 6.39352V6.54051L6.06488 6.18166L6.14168 6.10883L5.98013 5.95788L6.11917 5.82811L6.02648 5.74337L5.84905 5.90756L5.45975 5.55004L5.84905 5.19252L6.02648 5.35804L6.11917 5.27197L5.98013 5.1422L6.14168 4.99125L6.06488 4.91975L6.4502 4.55957ZM6.4502 5.27329V5.82679L6.36015 5.73542V5.62816H6.26482L6.18802 5.55004L6.26482 5.47324H6.36015V5.36466L6.4502 5.27329ZM5.79343 5.46926L5.80668 5.54474L5.79343 5.62154L5.71134 5.54474L5.79343 5.46926Z" fill="#383739"/>
<path d="M6.45016 4.57544V4.69197L6.20652 4.91972L6.28332 4.99122L6.12045 5.14218L6.21844 5.23354V5.12364H6.33629V5.22163L6.02777 5.50897H5.88476L5.8702 5.42687H5.97613L5.84901 5.3077L5.58419 5.55002L5.84901 5.79234L5.97613 5.67449H5.8702L5.8848 5.59106H6.0278L6.33632 5.8784V5.97639H6.21848V5.86649L6.12049 5.95785L6.28336 6.10881L6.20656 6.18163L6.4502 6.40807V6.52459L6.08077 6.18163L6.15757 6.10881L5.99602 5.95785L6.13506 5.82809L6.02648 5.72745L5.84905 5.89297L5.47697 5.55002L5.84905 5.20706L6.02648 5.37258L6.13506 5.27194L5.99602 5.14218L6.15757 4.99122L6.08077 4.91972L6.4502 4.57544L6.45016 4.57544ZM6.45016 5.28916V5.81088L6.37071 5.73143V5.61623H6.26876L6.20255 5.55002L6.26876 5.48381H6.37071V5.36861L6.45016 5.28916ZM5.78545 5.49043L5.79472 5.54472L5.78545 5.59901L5.72719 5.54472L5.78545 5.49043Z" fill="#FFC72C"/>
<path d="M6.4502 7.37964V7.52662L6.22245 7.73981L6.29925 7.81131L6.13638 7.96227L6.20788 8.02715V7.93313H6.34692V8.04569L6.0331 8.33965H5.8742L5.85699 8.23637H5.94836L5.84905 8.14368L5.60011 8.37011L5.84905 8.59786L5.94836 8.50517H5.85699L5.8742 8.40056H6.0331L6.34692 8.69453V8.80708H6.20788V8.71306L6.13638 8.77795L6.29925 8.9289L6.22245 9.00173L6.4502 9.21359V9.36057L6.06488 9.00173L6.14168 8.9289L5.98013 8.77795L6.11917 8.64818L6.02648 8.56343L5.84905 8.72763L5.45975 8.37011L5.84905 8.01259L6.02648 8.17811L6.11917 8.09204L5.98013 7.96227L6.14168 7.81132L6.06488 7.73981L6.4502 7.37964ZM6.4502 8.09336V8.64685L6.36015 8.55549V8.44823H6.26482L6.18802 8.37011L6.26482 8.29331H6.36015V8.18473L6.4502 8.09336ZM5.79343 8.28933L5.80668 8.36481L5.79343 8.44161L5.71134 8.36481L5.79343 8.28933Z" fill="#383739"/>
<path d="M6.45016 7.39551V7.51203L6.20652 7.73979L6.28332 7.81129L6.12045 7.96225L6.21844 8.05361V7.94371H6.33629V8.0417L6.02777 8.32904H5.88476L5.8702 8.24694H5.97613L5.84901 8.12776L5.58419 8.37008L5.84901 8.6124L5.97613 8.49455H5.8702L5.8848 8.41113H6.0278L6.33632 8.69847V8.79646H6.21848V8.68656L6.12049 8.77792L6.28336 8.92888L6.20656 9.0017L6.4502 9.22813V9.34466L6.08077 9.0017L6.15757 8.92888L5.99602 8.77792L6.13506 8.64816L6.02648 8.54752L5.84905 8.71304L5.47697 8.37008L5.84905 8.02713L6.02648 8.19265L6.13506 8.09201L5.99602 7.96225L6.15757 7.81129L6.08077 7.73979L6.4502 7.39551L6.45016 7.39551ZM6.45016 8.10923V8.63094L6.37071 8.55149V8.4363H6.26876L6.20255 8.37009L6.26876 8.30388H6.37071V8.18868L6.45016 8.10923ZM5.78545 8.3105L5.79472 8.36479L5.78545 8.41908L5.72719 8.36479L5.78545 8.3105Z" fill="#FFC72C"/>
<path d="M6.4502 10.1995V10.3464L6.22245 10.5596L6.29925 10.6311L6.13638 10.7821L6.20788 10.847V10.753H6.34692V10.8655L6.0331 11.1595H5.8742L5.85699 11.0562H5.94836L5.84905 10.9635L5.60011 11.1899L5.84905 11.4177L5.94836 11.325H5.85699L5.8742 11.2204H6.0331L6.34692 11.5144V11.6269H6.20788V11.5329L6.13638 11.5978L6.29925 11.7487L6.22245 11.8216L6.4502 12.0334V12.1804L6.06488 11.8216L6.14168 11.7487L5.98013 11.5978L6.11917 11.468L6.02648 11.3833L5.84905 11.5475L5.45975 11.1899L5.84905 10.8324L6.02648 10.9979L6.11917 10.9119L5.98013 10.7821L6.14168 10.6311L6.06488 10.5596L6.4502 10.1995ZM6.4502 10.9132V11.4667L6.36015 11.3753V11.2681H6.26482L6.18802 11.1899L6.26482 11.1131H6.36015V11.0046L6.4502 10.9132ZM5.79343 11.1092L5.80668 11.1846L5.79343 11.2614L5.71134 11.1846L5.79343 11.1092Z" fill="#383739"/>
<path d="M6.45016 10.2153V10.3319L6.20652 10.5596L6.28332 10.6311L6.12045 10.7821L6.21844 10.8734V10.7635H6.33629V10.8615L6.02777 11.1489H5.88476L5.8702 11.0668H5.97613L5.84901 10.9476L5.58419 11.1899L5.84901 11.4322L5.97613 11.3144H5.8702L5.8848 11.231H6.0278L6.33632 11.5183V11.6163H6.21848V11.5064L6.12049 11.5977L6.28336 11.7487L6.20656 11.8215L6.4502 12.048V12.1645L6.08077 11.8215L6.15757 11.7487L5.99602 11.5977L6.13506 11.468L6.02648 11.3673L5.84905 11.5329L5.47697 11.1899L5.84905 10.847L6.02648 11.0125L6.13506 10.9118L5.99602 10.7821L6.15757 10.6311L6.08077 10.5596L6.4502 10.2153L6.45016 10.2153ZM6.45016 10.9291V11.4508L6.37071 11.3713V11.2561H6.26876L6.20255 11.1899L6.26876 11.1237H6.37071V11.0085L6.45016 10.9291ZM5.78545 11.1303L5.79472 11.1846L5.78545 11.2389L5.72719 11.1846L5.78545 11.1303Z" fill="#FFC72C"/>
<path d="M2.72889 13.2706C2.74887 13.3558 2.81659 13.4201 2.83273 13.5084C2.86504 13.4163 2.89483 13.3391 2.87259 13.2383C2.85667 13.1662 2.79604 13.1148 2.78902 13.0408C2.72292 13.1002 2.70868 13.1845 2.72889 13.2706ZM2.71213 13.6275C2.7682 13.7044 2.84614 13.7634 2.93221 13.8027C2.91526 13.7353 2.94706 13.6846 2.98235 13.6312C3.02488 13.5668 3.04561 13.5036 3.01094 13.4295C2.99479 13.468 2.97308 13.5 2.94761 13.533C2.90995 13.5844 2.88518 13.63 2.87938 13.696C2.83582 13.6637 2.81668 13.6155 2.79339 13.5688C2.75788 13.502 2.70058 13.4461 2.63477 13.4096C2.65226 13.4846 2.66572 13.5638 2.71213 13.6275ZM3.02659 13.8567C3.0146 13.8993 3.00427 13.9417 3.00658 13.9863C2.96953 13.9464 2.92033 13.9163 2.87644 13.8842C2.81667 13.8358 2.74699 13.8017 2.69812 13.7402C2.70541 13.8308 2.74419 13.9046 2.81781 13.9598C2.89562 14.018 2.98948 14.0493 3.06613 14.1105C3.05465 14.0281 3.08492 13.9621 3.11074 13.8863C3.13225 13.814 3.11143 13.7405 3.06235 13.6853C3.06308 13.7465 3.04379 13.799 3.02659 13.8567ZM3.20123 14.135C3.21735 14.1975 3.26214 14.2483 3.29273 14.3041C3.21026 14.2785 3.13749 14.2338 3.06295 14.1917C2.97415 14.1433 2.87773 14.1126 2.79735 14.0487C2.83735 14.1968 2.9365 14.2827 3.08155 14.3265C3.18072 14.3564 3.2643 14.3415 3.38464 14.3901C3.37084 14.3087 3.34653 14.2207 3.30801 14.1473C3.27812 14.0941 3.24497 14.0418 3.2265 13.9832C3.19976 14.0313 3.1871 14.0802 3.20123 14.135ZM3.50469 14.3616C3.53308 14.4103 3.57056 14.4512 3.61705 14.4835C3.49998 14.4909 3.40576 14.4168 3.29163 14.4135C3.22113 14.4115 3.1542 14.4334 3.08231 14.4269C3.16763 14.4844 3.25695 14.5347 3.36082 14.5481C3.49585 14.5656 3.62038 14.5316 3.76934 14.5449C3.69973 14.4958 3.6649 14.43 3.6215 14.3593C3.565 14.271 3.51168 14.2081 3.40177 14.1939C3.44589 14.2435 3.47157 14.3049 3.50469 14.3616ZM3.92046 14.5559C3.71422 14.591 3.51658 14.6364 3.30594 14.6385C3.54172 14.7207 3.76388 14.7355 3.99773 14.6506C4.1241 14.6048 4.221 14.5802 4.31644 14.5871C4.45592 14.5971 4.62543 14.6521 4.81303 14.85L4.88677 14.791C4.61789 14.5514 4.26609 14.4971 3.92047 14.5559L3.92046 14.5559Z" fill="#FFC72C"/>
<path d="M2.90655 1.75854L2.58203 1.55953V1.08115L2.90655 0.882149V0.629024L3.21322 0.444344H3.45822L3.9244 0.182129H4.92521L5.3914 0.444344H5.6364L5.94307 0.629024V0.882149L6.26759 1.08115L6.26757 1.55953L5.94307 1.75854V2.01166L5.6364 2.19634H5.3914L4.92521 2.45856H3.9244L3.45822 2.19634H3.21322L2.90655 2.01166V1.75854Z" fill="#383739"/>
<path d="M3.92714 0.193359L3.46105 0.455542H3.21741L2.91816 0.635626V0.888538L2.59375 1.08716V1.55326L2.91816 1.75189V2.00612L3.21609 2.18621H3.46105L3.92714 2.44839H4.92288L5.38897 2.18621H5.63394L5.93319 2.00612V1.75189L6.2576 1.55326V1.08716L5.93319 0.888538V0.635626L5.63394 0.455542H5.38897L4.92288 0.193359H3.92714ZM3.95495 0.290023H4.8964L5.36249 0.552205H5.60613L5.83256 0.688593V0.941505L6.15829 1.14013V1.5003L5.83256 1.69892V1.95183L5.60613 2.08822H5.36249L4.8964 2.35041H3.95495L3.48886 2.08822H3.24522L3.01747 1.95183V1.69892L2.69306 1.5003V1.14013L3.01747 0.941505V0.688593L3.24522 0.552205H3.48886L3.95495 0.290023Z" fill="#00843D"/>
<path d="M4.42035 1.32551V0.300293H3.95771L3.49151 0.562508H3.24847L3.0286 0.694913V0.947423L2.7041 1.14641V1.3148L4.43108 1.31479V2.34002H4.89372L5.35991 2.07781H5.60296L5.82281 1.9454V1.69291L6.14733 1.4939V1.32551L4.42035 1.32551Z" fill="#FFC72C"/>
<path d="M2.70314 1.32551L2.70312 1.4939L3.02764 1.69291V1.9454L3.24749 2.07781H3.49055L3.95674 2.34002H4.41939V1.31479L6.14637 1.3148V1.14641L5.82185 0.947423V0.694913L5.602 0.562508H5.35894L4.89276 0.300293H4.43012V1.32551L2.70314 1.32551Z" fill="white"/>
<path d="M3.41321 0.65698L3.33332 0.58252L3.25417 0.63133L3.33419 0.70594L3.23145 0.7696H3.45566L3.64889 0.951865L3.7107 0.886585L3.52283 0.70936V0.58906L3.41321 0.65698Z" fill="#383739"/>
<path d="M3.79016 0.624265L3.71028 0.549805L3.63112 0.598615L3.71115 0.673225L3.6084 0.736885H3.83261L4.02584 0.91915L4.08765 0.85387L3.89978 0.676645V0.556345L3.79016 0.624265Z" fill="#383739"/>
<path d="M3.38488 0.870847L3.30499 0.796387L3.22585 0.845197L3.30586 0.919807L3.20312 0.983467H3.42734L3.62055 1.16573L3.68236 1.10045L3.49449 0.923227V0.802927L3.38488 0.870847Z" fill="#383739"/>
<path d="M4.42684 0.289795H4.22452L4.11865 0.391825H3.91227L3.75977 0.47098L3.79533 0.557635L3.93133 0.486205H3.9909L4.19942 0.727375L4.42685 0.58888L4.42684 0.289795Z" fill="#383739"/>
<path d="M3.33053 0.595947L3.40232 0.662862L3.34217 0.700122L3.27028 0.633102L3.33053 0.595947ZM3.51066 0.608322V0.713997L3.69409 0.887037L3.64699 0.936777L3.45846 0.758922H3.26758L3.51066 0.608322Z" fill="#D22630"/>
<path d="M3.70944 0.563232L3.78123 0.630147L3.72108 0.667407L3.6492 0.600387L3.70944 0.563232ZM3.88957 0.575607V0.681282L4.073 0.854322L4.0259 0.904062L3.83737 0.726222H3.64648L3.88957 0.575607Z" fill="#D22630"/>
<path d="M3.30418 0.809814L3.37595 0.876729L3.3158 0.913989L3.24393 0.846969L3.30418 0.809814ZM3.4843 0.822189V0.927864L3.66773 1.1009L3.62064 1.15064L3.43211 0.972804H3.24121L3.4843 0.822189Z" fill="#D22630"/>
<path d="M4.42155 0.300537H4.2289L4.12303 0.402567H3.91494L3.77344 0.476007L3.80081 0.542727L3.92873 0.475557H3.99585L4.20165 0.713577L4.42155 0.579672L4.42155 0.300537Z" fill="#D22630"/>
<path d="M3.41321 1.98365L3.33332 2.05811L3.25417 2.0093L3.33419 1.93469L3.23145 1.87103H3.45566L3.64889 1.68876L3.7107 1.75404L3.52283 1.93127V2.05157L3.41321 1.98365Z" fill="#383739"/>
<path d="M3.79016 2.01636L3.71028 2.09082L3.63112 2.04201L3.71115 1.9674L3.6084 1.90374H3.83261L4.02584 1.72147L4.08765 1.78675L3.89978 1.96398V2.08428L3.79016 2.01636Z" fill="#383739"/>
<path d="M3.38488 1.76978L3.30499 1.84424L3.22585 1.79543L3.30586 1.72082L3.20312 1.65716H3.42734L3.62055 1.47489L3.68236 1.54017L3.49449 1.7174V1.8377L3.38488 1.76978Z" fill="#383739"/>
<path d="M4.42684 2.35083H4.22452L4.11865 2.2488H3.91227L3.75977 2.16965L3.79533 2.08299L3.93133 2.15442H3.9909L4.19942 1.91325L4.42685 2.05175L4.42684 2.35083Z" fill="#383739"/>
<path d="M3.33053 2.04468L3.40232 1.97776L3.34217 1.9405L3.27028 2.00752L3.33053 2.04468ZM3.51066 2.0323V1.92663L3.69409 1.75359L3.64699 1.70385L3.45846 1.8817H3.26758L3.51066 2.0323Z" fill="#D22630"/>
<path d="M3.70944 2.07739L3.78123 2.01048L3.72108 1.97322L3.6492 2.04024L3.70944 2.07739ZM3.88957 2.06502V1.95934L4.073 1.7863L4.0259 1.73656L3.83737 1.9144H3.64648L3.88957 2.06502Z" fill="#D22630"/>
<path d="M3.30418 1.83081L3.37595 1.7639L3.3158 1.72664L3.24393 1.79366L3.30418 1.83081ZM3.4843 1.81844V1.71276L3.66773 1.53972L3.62064 1.48998L3.43211 1.66782H3.24121L3.4843 1.81844Z" fill="#D22630"/>
<path d="M4.42155 2.34009H4.2289L4.12303 2.23806H3.91494L3.77344 2.16462L3.80081 2.0979L3.92873 2.16507H3.99585L4.20165 1.92705L4.42155 2.06095L4.42155 2.34009Z" fill="#D22630"/>
<path d="M3.27732 0.992832L3.18086 0.956787L3.17855 0.958392L3.05399 1.04482V1.06806L2.85449 1.32034L3.05399 1.57263V1.59588L3.18086 1.6839L3.27732 1.64785L3.21844 1.60887V1.53469L3.24184 1.5067H3.34638V1.13398H3.24184L3.21844 1.10599V1.03182L3.27732 0.992832Z" fill="#383739"/>
<path d="M3.06472 1.05038L3.18238 0.96875L3.25393 0.99548L3.20776 1.02605V1.10985L3.23686 1.14465H3.33567V1.49598H3.23686L3.20776 1.53079V1.61459L3.25393 1.64516L3.18238 1.67189L3.06472 1.59026L3.06474 1.56888L2.86816 1.32032L3.06474 1.07174L3.06472 1.05038Z" fill="#D22630"/>
<path d="M5.43835 0.65698L5.51824 0.58252L5.59739 0.63133L5.51737 0.70594L5.62012 0.7696H5.3959L5.20268 0.951865L5.14086 0.886585L5.32873 0.70936V0.58906L5.43835 0.65698Z" fill="#383739"/>
<path d="M5.0614 0.624265L5.14129 0.549805L5.22044 0.598615L5.14042 0.673225L5.24316 0.736885H5.01895L4.82572 0.91915L4.76391 0.85387L4.95178 0.676645V0.556345L5.0614 0.624265Z" fill="#383739"/>
<path d="M5.46669 0.870847L5.54657 0.796387L5.62571 0.845197L5.5457 0.919807L5.64844 0.983467H5.42422L5.23101 1.16573L5.1692 1.10045L5.35707 0.923227V0.802927L5.46669 0.870847Z" fill="#383739"/>
<path d="M4.42472 0.289795H4.62705L4.73291 0.391825H4.9393L5.0918 0.47098L5.05623 0.557635L4.92023 0.486205H4.86067L4.65214 0.727375L4.42472 0.58888L4.42472 0.289795Z" fill="#383739"/>
<path d="M5.52103 0.595947L5.44924 0.662862L5.50939 0.700122L5.58128 0.633102L5.52103 0.595947ZM5.3409 0.608322V0.713997L5.15747 0.887037L5.20457 0.936777L5.3931 0.758922H5.58398L5.3409 0.608322Z" fill="#D22630"/>
<path d="M5.14212 0.563232L5.07034 0.630147L5.13049 0.667407L5.20236 0.600387L5.14212 0.563232ZM4.96199 0.575607V0.681282L4.77856 0.854322L4.82566 0.904062L5.01419 0.726222H5.20508L4.96199 0.575607Z" fill="#D22630"/>
<path d="M5.54738 0.809814L5.47561 0.876729L5.53576 0.913989L5.60764 0.846969L5.54738 0.809814ZM5.36727 0.822189V0.927864L5.18384 1.1009L5.23092 1.15064L5.41945 0.972804H5.61035L5.36727 0.822189Z" fill="#D22630"/>
<path d="M4.43001 0.300537H4.62266L4.72853 0.402567H4.93662L5.07812 0.476007L5.05075 0.542727L4.92283 0.475557H4.85571L4.64991 0.713577L4.43001 0.579672L4.43001 0.300537Z" fill="#D22630"/>
<path d="M5.43835 1.98365L5.51824 2.05811L5.59739 2.0093L5.51737 1.93469L5.62012 1.87103H5.3959L5.20268 1.68876L5.14086 1.75404L5.32873 1.93127V2.05157L5.43835 1.98365Z" fill="#383739"/>
<path d="M5.0614 2.01636L5.14129 2.09082L5.22044 2.04201L5.14042 1.9674L5.24316 1.90374H5.01895L4.82572 1.72147L4.76391 1.78675L4.95178 1.96398V2.08428L5.0614 2.01636Z" fill="#383739"/>
<path d="M5.46669 1.76978L5.54657 1.84424L5.62571 1.79543L5.5457 1.72082L5.64844 1.65716H5.42422L5.23101 1.47489L5.1692 1.54017L5.35707 1.7174V1.8377L5.46669 1.76978Z" fill="#383739"/>
<path d="M4.42472 2.35083H4.62705L4.73291 2.2488H4.9393L5.0918 2.16965L5.05623 2.08299L4.92023 2.15442H4.86067L4.65214 1.91325L4.42472 2.05175L4.42472 2.35083Z" fill="#383739"/>
<path d="M5.52103 2.04468L5.44924 1.97776L5.50939 1.9405L5.58128 2.00752L5.52103 2.04468ZM5.3409 2.0323V1.92663L5.15747 1.75359L5.20457 1.70385L5.3931 1.8817H5.58398L5.3409 2.0323Z" fill="#D22630"/>
<path d="M5.14212 2.07739L5.07034 2.01048L5.13049 1.97322L5.20236 2.04024L5.14212 2.07739ZM4.96199 2.06502V1.95934L4.77856 1.7863L4.82566 1.73656L5.01419 1.9144H5.20508L4.96199 2.06502Z" fill="#D22630"/>
<path d="M5.54738 1.83081L5.47561 1.7639L5.53576 1.72664L5.60764 1.79366L5.54738 1.83081ZM5.36727 1.81844V1.71276L5.18384 1.53972L5.23092 1.48998L5.41945 1.66782H5.61035L5.36727 1.81844Z" fill="#D22630"/>
<path d="M4.43001 2.34009H4.62266L4.72853 2.23806H4.93662L5.07812 2.16462L5.05075 2.0979L4.92283 2.16507H4.85571L4.64991 1.92705L4.43001 2.06095L4.43001 2.34009Z" fill="#D22630"/>
<path d="M5.57327 0.992832L5.66973 0.956787L5.67204 0.958392L5.7966 1.04482V1.06806L5.99609 1.32034L5.7966 1.57263V1.59588L5.66973 1.6839L5.57327 1.64785L5.63214 1.60887V1.53469L5.60874 1.5067H5.50421V1.13398H5.60874L5.63214 1.10599V1.03182L5.57327 0.992832Z" fill="#383739"/>
<path d="M5.78587 1.05038L5.66821 0.96875L5.59666 0.99548L5.64283 1.02605V1.10985L5.61373 1.14465H5.51491V1.49598H5.61373L5.64283 1.53079V1.61459L5.59666 1.64516L5.66821 1.67189L5.78587 1.59026L5.78585 1.56888L5.98242 1.32032L5.78585 1.07174L5.78587 1.05038Z" fill="#D22630"/>
<path d="M3.10638 1.53212L3.05206 1.48513V1.46248L2.93555 1.32035L3.05208 1.17821V1.15558L3.10639 1.10858L3.20395 1.18792L3.14764 1.18748L3.23085 1.27193H3.42097L3.57048 1.15501V0.846655H3.94444L4.37874 0.580135V0.510235L4.31232 0.46597H4.29128L4.21895 0.514375L4.20775 0.55048L4.15117 0.47323L4.26113 0.380845H4.27871L4.4028 0.289795H4.44959L4.57366 0.380845H4.59126L4.70122 0.47323L4.64464 0.55048L4.63344 0.514375L4.56111 0.46597H4.54006L4.47364 0.510235V0.580135L4.90795 0.846655H5.2819V1.15501L5.43142 1.27193H5.62154L5.70474 1.18748L5.64844 1.18792L5.74599 1.10858L5.80031 1.15558V1.17821L5.91684 1.32035L5.80031 1.46248V1.48513L5.74599 1.53212L5.64844 1.45279L5.70474 1.45323L5.62154 1.36876H5.43142L5.2819 1.4857V1.79405H4.90795L4.47364 2.06057V2.13048L4.54006 2.17474H4.56111L4.63344 2.12634L4.64464 2.09023L4.70122 2.16747L4.59126 2.25987H4.57366L4.44959 2.35091H4.4028L4.27871 2.25987H4.26113L4.15115 2.16747L4.20775 2.09023L4.21895 2.12634L4.29126 2.17474H4.31231L4.37874 2.13048V2.06057L3.94444 1.79405H3.57048V1.4857L3.42095 1.36876H3.23085L3.14764 1.45323L3.20395 1.45279L3.10638 1.53212Z" fill="#383739"/>
<path d="M4.43091 2.18285L4.47844 2.2192L4.43091 2.25554V2.18285ZM4.27982 2.24896H4.28157L4.40566 2.34002H4.42015V2.26898L4.35506 2.2192L4.42017 2.16941V2.03597L3.95545 1.75078H3.61191V1.46422L3.43454 1.3255H3.16701L3.09976 1.40153L3.03252 1.3255L2.95312 1.32551L3.06211 1.45844V1.48003L3.10528 1.51753L3.17464 1.46353L3.13393 1.46384V1.45034L3.22465 1.35787H3.424L3.58055 1.4803V1.78316H3.94682L4.38879 2.05439V2.13599L4.3149 2.18524H4.28735L4.20918 2.13292L4.20317 2.11351L4.16506 2.16553L4.26438 2.24896L4.27982 2.24896ZM3.09982 1.25495L3.15277 1.3148H3.04686L3.09982 1.25495ZM4.42018 0.384773L4.37268 0.421118L4.42018 0.457448V0.384773ZM5.69834 1.32551L5.75129 1.38536L5.80423 1.32551H5.69834ZM4.56951 0.391343L4.44541 0.300293H4.43092V0.371303L4.49605 0.421118L4.43091 0.470933V0.604343L4.89563 0.889538H5.23917V1.1761L5.41654 1.31482H5.68403L5.75129 1.2388L5.81854 1.3148H5.89795L5.78897 1.18187V1.16029L5.7458 1.12279L5.67644 1.17679L5.71715 1.17646V1.18997L5.62643 1.28243H5.42708L5.27055 1.16V0.857153H4.90425L4.46229 0.585923V0.504308L4.53618 0.455078H4.56373L4.64189 0.507398L4.64791 0.526808L4.68602 0.474788L4.5867 0.391343L4.56951 0.391343Z" fill="#FFC72C"/>
<path d="M4.42015 2.25553L4.37265 2.2192L4.42015 2.18287V2.25553ZM3.15274 1.32551L3.09979 1.38536L3.04684 1.32551H3.15274ZM4.57123 2.24896H4.56948L4.44538 2.34002H4.43089V2.32142V2.26901L4.49602 2.2192L4.43088 2.16938V2.03597L4.8956 1.75078H5.23914V1.46422L5.41651 1.3255H5.68401L5.75126 1.40153L5.8185 1.3255L5.89792 1.32551L5.78893 1.45844V1.48003L5.74577 1.51753L5.67641 1.46353L5.71712 1.46384V1.45034L5.6264 1.35787H5.42705L5.27051 1.4803V1.78316H4.90422L4.46226 2.05439V2.13599L4.53615 2.18524H4.5637L4.64186 2.13292L4.64788 2.11351L4.68599 2.16553L4.58666 2.24896L4.57123 2.24896ZM5.75125 1.25495L5.69831 1.3148H5.80422L5.75125 1.25495ZM4.28157 0.391343L4.40566 0.300293H4.42017V0.371303L4.35502 0.421118L4.42017 0.470933L4.42018 0.604343L3.95545 0.889538H3.61193V1.1761L3.43454 1.31482H3.16698L3.09973 1.2388L3.03247 1.3148H2.95312L3.06213 1.18187V1.16029L3.1053 1.12279L3.17464 1.17679L3.13393 1.17646V1.18997L3.22466 1.28243H3.42399L3.58055 1.16V0.857153H3.94682L4.3888 0.585923V0.504308L4.31492 0.455078H4.28735L4.20918 0.507398L4.20317 0.526808L4.16507 0.474788L4.2644 0.391343L4.28157 0.391343ZM4.43088 0.457463L4.47841 0.421118L4.43088 0.384773V0.457463Z" fill="white"/>
<path d="M4.41943 1.32557V0.616943L3.95773 0.900293H3.62187V1.18136L3.45117 1.31486L4.43016 1.31485V2.02348L4.89183 1.74014H5.22769V1.45907L5.39839 1.32557L4.41943 1.32557Z" fill="#00843D"/>
<path d="M3.45117 1.32556L3.62188 1.45906V1.74013H3.95773L4.41945 2.02348V1.31483L5.3984 1.31485L5.2277 1.18135V0.900278H4.89185L4.43017 0.616943V1.32555L3.45117 1.32556Z" fill="#D22630"/>
<path d="M3.92882 0.97656L3.84895 0.9021L3.76979 0.950895L3.84982 1.0255L3.74707 1.08916H3.97128L4.16451 1.27145L4.22632 1.20615L4.03845 1.02892V0.90864L3.92882 0.97656Z" fill="#383739"/>
<path d="M4.92249 1.66403L5.00238 1.73849L5.08151 1.68968L5.00151 1.61507L5.10425 1.55142H4.88002L4.68681 1.36914L4.625 1.43442L4.81287 1.61166V1.73195L4.92249 1.66403Z" fill="#383739"/>
<path d="M3.92882 1.66403L3.84893 1.73849L3.76979 1.68968L3.8498 1.61507L3.74707 1.55142H3.97128L4.1645 1.36914L4.22631 1.43442L4.03844 1.61166V1.73195L3.92882 1.66403Z" fill="#383739"/>
<path d="M4.92249 0.97656L5.00238 0.9021L5.08151 0.950895L5.00151 1.0255L5.10425 1.08916H4.88002L4.68681 1.27145L4.625 1.20615L4.81287 1.02892V0.90864L4.92249 0.97656Z" fill="#383739"/>
<path d="M5.00437 1.72506L4.9326 1.65815L4.99275 1.62089L5.06463 1.68791L5.00437 1.72506ZM4.82426 1.71269V1.60703L4.64083 1.43399L4.68793 1.38424L4.87646 1.56209H5.06734L4.82426 1.71269ZM3.84811 0.915527L3.9199 0.982442L3.85973 1.01972L3.78786 0.952697L3.84811 0.915527ZM4.02824 0.927917V1.03358L4.21167 1.20662L4.16457 1.25637L3.97604 1.07852H3.78516L4.02824 0.927917Z" fill="#D22630"/>
<path d="M5.00439 0.915527L4.93262 0.982442L4.99276 1.01972L5.06464 0.952697L5.00439 0.915527ZM4.82427 0.927917V1.03358L4.64084 1.20662L4.68794 1.25637L4.87647 1.07852H5.06736L4.82427 0.927917ZM3.84812 1.72506L3.9199 1.65815L3.85975 1.62089L3.78787 1.68791L3.84812 1.72506ZM4.02824 1.71269V1.60703L4.21167 1.43399L4.16459 1.38424L3.97606 1.56209H3.78516L4.02824 1.71269Z" fill="#00843D"/>
<path d="M4.92164 1.3204L4.42518 1.65128L3.92871 1.3204L4.42518 0.989502L4.92164 1.3204Z" fill="#383739"/>
<path d="M4.42082 1.00586L3.95705 1.31496H4.89532L4.43155 1.00586V1.63478L4.89534 1.32567H3.95703L4.42082 1.63478V1.00586Z" fill="white"/>
<path d="M4.55746 1.43403V1.52501H4.29195V1.43403H4.12012V1.20645H4.29195V1.11548H4.55746V1.20645H4.72928V1.43403H4.55746Z" fill="#383739"/>
<path d="M4.30366 1.12622V1.2172H4.13184V1.31494H4.42034V1.12622L4.30366 1.12622ZM4.43106 1.31494H4.71957V1.2172H4.54775V1.12622H4.43107L4.43106 1.31494ZM4.13184 1.32565V1.42339H4.30366V1.51436H4.42034V1.32565L4.13184 1.32565ZM4.43106 1.51436H4.54775V1.42339H4.71957V1.32565H4.43106V1.51436Z" fill="#D22630"/>
<path d="M5.27263 5.09024V4.94448H5.67233V4.79873H6.07203V3.4817H5.67233V3.33594H5.27263V3.19019H4.87294V3.04443H3.9784V3.19019H3.5787V3.33594H3.17899V3.4817H2.7793V4.79873H3.17899V4.94448H3.5787V5.09024H3.9784V5.23599H4.87294V5.09024H5.27263Z" fill="#383739"/>
<path d="M3.98971 3.05493V3.20058H3.58981V3.34625H3.18993V3.4919H2.79004V4.78825H3.18993V4.93392H3.58981V5.07956H3.98971V5.22519H4.86227V5.07956H5.26218V4.93392H5.66209V4.78825H6.06195V3.4919H5.66209V3.34625H5.26218V3.20058H4.86227V3.05493H3.98971ZM4.09564 3.16086H4.75634V3.30652H5.15625V3.45218H5.55616V3.59783H5.95602V4.68231H5.55616V4.82799H5.15625V4.97363H4.75634V5.11926H4.09564V4.97363H3.69574V4.82799H3.29586V4.68231H2.89597V3.59783H3.29586V3.45218H3.69574V3.30652H4.09564V3.16086Z" fill="#FFC72C"/>
<path d="M3.70566 4.9629V4.81713H3.30596V4.67139H2.90625V3.60888H3.30596V3.46313H3.70566V3.31737H4.10535V3.17163H4.74536V3.31737H5.14507V3.46313H5.54475V3.60888H5.94446V4.67139H5.54475V4.81713H5.14507V4.9629H4.74536V5.10864H4.10535V4.9629H3.70566Z" fill="#D22630"/>
<path d="M3.79877 3.42544L3.69524 3.34718V3.49745L3.59611 3.56045L3.59585 3.46639L3.50077 3.5518L3.40569 3.46639L3.40543 3.56045L3.29558 3.49064V3.62996L3.20679 3.69424L3.20654 3.60881L3.10107 3.68521L2.99559 3.60881L2.99534 3.69424L2.89584 3.62221V4.04425H2.7793V4.23635H2.89584V4.65839L2.99534 4.58635L2.99559 4.67179L3.10107 4.59539L3.20653 4.67179L3.20678 4.58635L3.29557 4.65062V4.78996L3.40542 4.72015L3.40568 4.81421L3.50076 4.7288L3.59584 4.81421L3.5961 4.72015L3.69523 4.78313V4.93342L3.79876 4.85516L3.79898 4.96012L3.90044 4.86938L4.00192 4.96012L4.00214 4.85516L4.09496 4.92532V5.08559L4.23374 4.9591V5.10775L4.42567 4.98434L4.61762 5.10775V4.9591L4.7564 5.08559V4.92532L4.8492 4.85516L4.84943 4.96012L4.9509 4.86938L5.05237 4.96012L5.0526 4.85516L5.1561 4.93342V4.78313L5.25526 4.72015L5.25551 4.81421L5.35061 4.7288L5.44569 4.81421L5.44594 4.72015L5.55581 4.78996V4.65062L5.6446 4.58635L5.64485 4.67179L5.75031 4.59539L5.85579 4.67179L5.85604 4.58635L5.95553 4.65838V4.23635H6.07208V4.04425H5.95553V3.62221L5.85604 3.69424L5.85579 3.60881L5.75031 3.68521L5.64483 3.60881L5.64461 3.69424L5.55582 3.62996V3.49064L5.44595 3.56045L5.4457 3.46639L5.35062 3.5518L5.25552 3.46639L5.25527 3.56045L5.15611 3.49744V3.34718L5.05261 3.42542L5.05238 3.32047L4.95091 3.41122L4.84944 3.32047L4.84921 3.42544L4.75641 3.35525V3.19501L4.61763 3.3215V3.17285L4.42568 3.29626L4.23375 3.17285V3.3215L4.09497 3.19501V3.35527L4.00215 3.42544L4.00193 3.32047L3.90045 3.41122L3.79899 3.32047L3.79877 3.42544Z" fill="#383739"/>
<path d="M3.00603 3.71508L3.00628 3.62964L3.1011 3.69832L3.10429 3.696L3.19591 3.62964L3.19616 3.71508L3.29561 3.64309V4.63729L3.19616 4.56531L3.19591 4.65075L3.1011 4.58206L3.00628 4.65075L3.00603 4.56531L2.90659 4.63729V4.22553H2.79004V4.05486H2.90659V3.64309L3.00603 3.71508Z" fill="#00843D"/>
<path d="M3.80875 3.34424L3.89955 3.42545L3.99036 3.34424L3.99059 3.44679L4.09405 3.36857V4.91175L3.99059 4.83353L3.99036 4.93608L3.89955 4.85487L3.80875 4.93608L3.80855 4.83353L3.70508 4.91175V3.36857L3.80855 3.44679L3.80875 3.34424Z" fill="#00843D"/>
<path d="M5.04213 3.34424L4.95132 3.42545L4.86051 3.34424L4.86029 3.44679L4.75684 3.36857V4.91175L4.86029 4.83353L4.86051 4.93608L4.95132 4.85487L5.04213 4.93608L5.04235 4.83353L5.14582 4.91175V3.36857L5.04235 3.44679L5.04213 3.34424Z" fill="#00843D"/>
<path d="M5.84621 3.71508L5.84596 3.62964L5.75115 3.69832L5.74794 3.696L5.65632 3.62964L5.65607 3.71508L5.55664 3.64309V4.63729L5.65607 4.56531L5.65632 4.65075L5.75115 4.58206L5.84596 4.65075L5.84621 4.56531L5.94565 4.63729V4.22553H6.06219V4.05486H5.94565V3.64309L5.84621 3.71508Z" fill="#00843D"/>
<path d="M3.41573 3.49023L3.50016 3.56609L3.58459 3.49023L3.58484 3.57981L3.69466 3.51002V4.77033L3.58484 4.70055L3.58459 4.79012L3.50016 4.71428L3.41573 4.79012L3.41548 4.70055L3.30566 4.77033V3.51002L3.41548 3.57981L3.41573 3.49023Z" fill="#FFC72C"/>
<path d="M4.24425 3.34567L4.10547 3.21917V5.06123L4.24425 4.93474V5.08802L4.42546 4.97152H4.42549L4.6067 5.08802V4.93474L4.74548 5.06123V3.21917L4.6067 3.34567V3.19238L4.42549 3.30889H4.42546L4.24425 3.19238V3.34567Z" fill="#FFC72C"/>
<path d="M5.43421 3.49023L5.34977 3.56609L5.26533 3.49023L5.2651 3.57981L5.15527 3.51002V4.77033L5.2651 4.70055L5.26533 4.79012L5.34977 4.71428L5.43421 4.79012L5.43446 4.70055L5.54427 4.77033V3.51002L5.43446 3.57981L5.43421 3.49023Z" fill="#FFC72C"/>
<path d="M3.05845 3.95897C3.07059 3.97121 3.08509 3.97741 3.10156 3.97741C3.11802 3.97741 3.13252 3.97121 3.14467 3.95897C3.18264 3.92072 3.18391 3.85154 3.18353 3.80176C3.18353 3.80176 3.13965 3.84814 3.13173 3.85651C3.12621 3.84697 3.10156 3.80441 3.10156 3.80441C3.10156 3.80441 3.07692 3.84697 3.07138 3.85651C3.06346 3.84814 3.01957 3.80176 3.01957 3.80176C3.0192 3.85154 3.02049 3.92072 3.05845 3.95897Z" fill="#383739"/>
<path d="M3.47553 3.85187L3.44356 3.81992V3.75626L3.37012 3.82433L3.50139 3.95561L3.63267 3.82433L3.55923 3.75626V3.81992L3.52727 3.85187V3.73909L3.58389 3.69047L3.50139 3.61963L3.4189 3.69047L3.47553 3.73909V3.85187Z" fill="#383739"/>
<path d="M3.87591 3.72541L3.84395 3.69344V3.62978L3.77051 3.69785L3.90179 3.82913L4.03306 3.69785L3.95962 3.62978V3.69344L3.92764 3.72541V3.61261L3.98428 3.56399L3.90179 3.49316L3.81929 3.56399L3.87591 3.61261V3.72541Z" fill="#383739"/>
<path d="M3.10107 3.82593C3.10763 3.83724 3.12915 3.87442 3.12915 3.87442C3.12915 3.87442 3.15948 3.84235 3.17187 3.82929C3.17039 3.88551 3.15804 3.92992 3.13658 3.95154C3.12651 3.96168 3.11457 3.96682 3.10107 3.96682C3.08756 3.96682 3.07562 3.96168 3.06557 3.95155C3.0441 3.92992 3.03176 3.88551 3.03027 3.82929C3.04265 3.84237 3.07298 3.87442 3.07298 3.87442C3.08234 3.85825 3.09171 3.84208 3.10107 3.82593Z" fill="white"/>
<path d="M3.91615 3.60773V3.75131L3.96955 3.69793V3.65437L4.01683 3.6982L3.901 3.81403L3.78516 3.6982L3.83244 3.65437V3.69793L3.88583 3.75131V3.60773L3.83494 3.56404L3.901 3.50732L3.96704 3.56404L3.91615 3.60773Z" fill="white"/>
<path d="M3.51673 3.7342V3.87778L3.57013 3.82438V3.78083L3.61741 3.82465L3.50157 3.94049L3.38574 3.82465L3.43302 3.78083V3.82438L3.48642 3.87778V3.7342L3.43553 3.6905L3.50157 3.63379L3.56763 3.6905L3.51673 3.7342Z" fill="#D22630"/>
<path d="M5.79506 3.95897C5.78293 3.97121 5.76842 3.97741 5.75195 3.97741C5.7355 3.97741 5.72099 3.97121 5.70884 3.95897C5.67088 3.92072 5.66961 3.85154 5.66998 3.80176C5.66998 3.80176 5.71387 3.84814 5.72179 3.85651C5.72731 3.84697 5.75195 3.80441 5.75195 3.80441C5.75195 3.80441 5.7766 3.84697 5.78213 3.85651C5.79005 3.84814 5.83394 3.80176 5.83394 3.80176C5.83432 3.85154 5.83303 3.92072 5.79506 3.95897Z" fill="#383739"/>
<path d="M5.37798 3.85187L5.40996 3.81992V3.75626L5.4834 3.82433L5.35212 3.95561L5.22084 3.82433L5.29428 3.75626V3.81992L5.32625 3.85187V3.73909L5.26962 3.69047L5.35212 3.61963L5.43462 3.69047L5.37798 3.73909V3.85187Z" fill="#383739"/>
<path d="M4.97761 3.72541L5.00957 3.69344V3.62978L5.08301 3.69785L4.95173 3.82913L4.82045 3.69785L4.89389 3.62978V3.69344L4.92587 3.72541V3.61261L4.86923 3.56399L4.95173 3.49316L5.03423 3.56399L4.97761 3.61261V3.72541Z" fill="#383739"/>
<path d="M5.75244 3.82593C5.74589 3.83724 5.72436 3.87442 5.72436 3.87442C5.72436 3.87442 5.69403 3.84235 5.68165 3.82929C5.68313 3.88551 5.69547 3.92992 5.71694 3.95154C5.727 3.96168 5.73894 3.96682 5.75244 3.96682C5.76596 3.96682 5.7779 3.96168 5.78795 3.95155C5.80941 3.92992 5.82176 3.88551 5.82324 3.82929C5.81087 3.84237 5.78054 3.87442 5.78054 3.87442C5.77118 3.85825 5.7618 3.84208 5.75244 3.82593Z" fill="white"/>
<path d="M4.93737 3.60773V3.75131L4.88397 3.69793V3.65437L4.83669 3.6982L4.95252 3.81403L5.06836 3.6982L5.02108 3.65437V3.69793L4.96768 3.75131V3.60773L5.01858 3.56404L4.95252 3.50732L4.88647 3.56404L4.93737 3.60773Z" fill="white"/>
<path d="M5.33678 3.7342V3.87778L5.28338 3.82438V3.78083L5.2361 3.82465L5.35195 3.94049L5.46777 3.82465L5.42049 3.78083V3.82438L5.3671 3.87778V3.7342L5.41799 3.6905L5.35195 3.63379L5.28589 3.6905L5.33678 3.7342Z" fill="#D22630"/>
<path d="M4.58272 3.77344L4.53972 3.71401L4.64999 3.61221L4.54717 3.52773V3.58758L4.50417 3.62437V3.51582L4.6013 3.44422L4.42558 3.3147L4.24986 3.44422L4.34701 3.51582V3.62437L4.30401 3.58758V3.52773L4.20117 3.61221L4.31146 3.71401L4.26846 3.77344H4.58272Z" fill="#383739"/>
<path d="M4.28973 3.76284L4.326 3.71269L4.21777 3.61279L4.29357 3.55051V3.59262L4.35801 3.64776V3.51051L4.2682 3.44433L4.42586 3.32812L4.58353 3.44433L4.49374 3.51051V3.64776L4.55816 3.59262V3.55051L4.63397 3.61279L4.52575 3.71269L4.56203 3.76284H4.28973Z" fill="#D22630"/>
<path d="M4.34668 3.4442L4.42697 3.50337L4.50728 3.4442L4.42697 3.38501L4.42379 3.38736L4.34668 3.4442Z" fill="#383739"/>
<path d="M4.42551 3.39844C4.43082 3.40234 4.47837 3.43739 4.48776 3.44431C4.47837 3.45122 4.43082 3.48628 4.42551 3.49018C4.42022 3.48628 4.37266 3.45122 4.36328 3.44431C4.37266 3.43739 4.42022 3.40234 4.42551 3.39844Z" fill="#00843D"/>
<path d="M3.05845 4.32155C3.07059 4.30931 3.08509 4.30311 3.10156 4.30311C3.11802 4.30311 3.13252 4.30931 3.14467 4.32155C3.18264 4.3598 3.18391 4.42898 3.18353 4.47876C3.18353 4.47876 3.13965 4.43238 3.13173 4.42401C3.12621 4.43355 3.10156 4.4761 3.10156 4.4761C3.10156 4.4761 3.07692 4.43355 3.07138 4.42401C3.06346 4.43238 3.01957 4.47876 3.01957 4.47876C3.0192 4.42897 3.02049 4.35979 3.05845 4.32155Z" fill="#383739"/>
<path d="M3.47553 4.42864L3.44356 4.46059V4.52425L3.37012 4.45618L3.50139 4.3249L3.63267 4.45618L3.55923 4.52425V4.46059L3.52727 4.42864V4.54143L3.58389 4.59004L3.50139 4.66089L3.4189 4.59004L3.47553 4.54143V4.42864Z" fill="#383739"/>
<path d="M3.87591 4.55511L3.84395 4.58707V4.65073L3.77051 4.58266L3.90179 4.45138L4.03306 4.58266L3.95962 4.65073V4.58707L3.92764 4.55511V4.66791L3.98428 4.71652L3.90179 4.78735L3.81929 4.71652L3.87591 4.66791V4.55511Z" fill="#383739"/>
<path d="M3.10107 4.45459C3.10763 4.44328 3.12915 4.40609 3.12915 4.40609C3.12915 4.40609 3.15948 4.43816 3.17187 4.45123C3.17039 4.39501 3.15804 4.35059 3.13658 4.32898C3.12651 4.31884 3.11457 4.31369 3.10107 4.31369C3.08756 4.31369 3.07562 4.31884 3.06557 4.32896C3.0441 4.35059 3.03176 4.39501 3.03027 4.45123C3.04265 4.43815 3.07298 4.40609 3.07298 4.40609C3.08234 4.42226 3.09171 4.43843 3.10107 4.45459Z" fill="white"/>
<path d="M3.91615 4.67278V4.5292L3.96955 4.58259V4.62615L4.01683 4.58232L3.901 4.46649L3.78516 4.58232L3.83244 4.62615V4.58259L3.88583 4.5292V4.67278L3.83494 4.71648L3.901 4.77319L3.96704 4.71648L3.91615 4.67278Z" fill="white"/>
<path d="M3.51673 4.54632V4.40274L3.57013 4.45614V4.49968L3.61741 4.45587L3.50157 4.34002L3.38574 4.45587L3.43302 4.49968V4.45614L3.48642 4.40274V4.54632L3.43553 4.59001L3.50157 4.64673L3.56763 4.59001L3.51673 4.54632Z" fill="#D22630"/>
<path d="M5.79506 4.32155C5.78293 4.30931 5.76842 4.30311 5.75195 4.30311C5.7355 4.30311 5.72099 4.30931 5.70884 4.32155C5.67088 4.3598 5.66961 4.42898 5.66998 4.47876C5.66998 4.47876 5.71387 4.43238 5.72179 4.42401C5.72731 4.43355 5.75195 4.4761 5.75195 4.4761C5.75195 4.4761 5.7766 4.43355 5.78213 4.42401C5.79005 4.43238 5.83394 4.47876 5.83394 4.47876C5.83432 4.42897 5.83303 4.35979 5.79506 4.32155Z" fill="#383739"/>
<path d="M5.37798 4.42864L5.40996 4.46059V4.52425L5.4834 4.45618L5.35212 4.3249L5.22084 4.45618L5.29428 4.52425V4.46059L5.32625 4.42864V4.54143L5.26962 4.59004L5.35212 4.66089L5.43462 4.59004L5.37798 4.54143V4.42864Z" fill="#383739"/>
<path d="M4.97761 4.55511L5.00957 4.58707V4.65073L5.08301 4.58266L4.95173 4.45138L4.82045 4.58266L4.89389 4.65073V4.58707L4.92587 4.55511V4.66791L4.86923 4.71652L4.95173 4.78735L5.03423 4.71652L4.97761 4.66791V4.55511Z" fill="#383739"/>
<path d="M5.75244 4.45459C5.74589 4.44328 5.72436 4.40609 5.72436 4.40609C5.72436 4.40609 5.69403 4.43816 5.68165 4.45123C5.68313 4.39501 5.69547 4.35059 5.71694 4.32898C5.727 4.31884 5.73894 4.31369 5.75244 4.31369C5.76596 4.31369 5.7779 4.31884 5.78795 4.32896C5.80941 4.35059 5.82176 4.39501 5.82324 4.45123C5.81087 4.43815 5.78054 4.40609 5.78054 4.40609C5.77118 4.42226 5.7618 4.43843 5.75244 4.45459Z" fill="white"/>
<path d="M4.93737 4.67278V4.5292L4.88397 4.58259V4.62615L4.83669 4.58232L4.95252 4.46649L5.06836 4.58232L5.02108 4.62615V4.58259L4.96768 4.5292V4.67278L5.01858 4.71648L4.95252 4.77319L4.88647 4.71648L4.93737 4.67278Z" fill="white"/>
<path d="M5.33678 4.54632V4.40274L5.28338 4.45614V4.49968L5.2361 4.45587L5.35195 4.34002L5.46777 4.45587L5.42049 4.49968V4.45614L5.3671 4.40274V4.54632L5.41799 4.59001L5.35195 4.64673L5.28589 4.59001L5.33678 4.54632Z" fill="#D22630"/>
<path d="M4.58272 4.50708L4.53972 4.56651L4.64999 4.66831L4.54717 4.75279V4.69294L4.50417 4.65615V4.7647L4.6013 4.8363L4.42558 4.96582L4.24986 4.8363L4.34701 4.7647V4.65615L4.30401 4.69294V4.75279L4.20117 4.66831L4.31146 4.56651L4.26846 4.50708H4.58272Z" fill="#383739"/>
<path d="M4.28973 4.51768L4.326 4.56782L4.21777 4.66772L4.29357 4.73V4.6879L4.35801 4.63276V4.77001L4.2682 4.83619L4.42586 4.95239L4.58353 4.83619L4.49374 4.77001V4.63276L4.55816 4.6879V4.73L4.63397 4.66772L4.52575 4.56782L4.56203 4.51768H4.28973Z" fill="#D22630"/>
<path d="M4.34668 4.83632L4.42697 4.77714L4.50728 4.83632L4.42697 4.89551L4.42379 4.89315L4.34668 4.83632Z" fill="#383739"/>
<path d="M4.42551 4.88208C4.43082 4.87818 4.47837 4.84313 4.48776 4.83621C4.47837 4.8293 4.43082 4.79424 4.42551 4.79034C4.42022 4.79424 4.37266 4.8293 4.36328 4.83621C4.37266 4.84313 4.42022 4.87818 4.42551 4.88208Z" fill="#00843D"/>
<path d="M5.84712 4.07871H5.67119V4.00859H5.13344L4.75909 3.7627H4.7575H4.08998L3.71565 4.00859H3.17788V4.07871H3.00195V4.20165H3.17788V4.27178H3.71565L4.08998 4.51769H4.75909L5.13344 4.27178H5.67119V4.20165H5.84712V4.07871Z" fill="#383739"/>
<path d="M4.09416 3.77393L3.71943 4.01889H3.18978V4.08907H3.01367V4.19103H3.18978V4.26121H3.71943L4.09416 4.50751H4.75754L5.13094 4.26121H5.66191V4.19103H5.83802V4.08907H5.66191V4.01889H5.13094L4.75754 3.77393H4.09416ZM4.1021 3.80968H4.74827L5.09122 4.03478V4.06921H5.47389V4.21222H5.09122V4.24665L4.74827 4.47043H4.1021L3.76048 4.24665V4.21222H3.37648V4.06921H3.76048V4.03478L4.1021 3.80968Z" fill="#D22630"/>
<path d="M4.74554 3.82056L5.08 4.04014V4.07911H5.46329V4.20112H5.08V4.24011L4.74554 4.45969H4.10544L3.77098 4.24011V4.20112H3.3877V4.07911H3.77098V4.04014L4.10544 3.82056H4.74554Z" fill="#D22630"/>
<path d="M3.93945 4.26494L4.08428 4.37366L4.17954 4.30212L4.12416 4.26054L4.08428 4.2905L4.05023 4.26494L4.5956 3.85547H4.48484L3.93945 4.26494ZM4.25557 4.42496H4.36633L4.91172 4.01549L4.76691 3.90678L4.67163 3.9783L4.72701 4.01987L4.76691 3.98991L4.80096 4.01549L4.25557 4.42496ZM4.48484 4.42496H4.59558L4.05023 4.01549L4.08427 3.98991L4.12416 4.01987L4.17954 3.9783L4.08427 3.90678L3.93945 4.01549L4.48484 4.42496ZM4.80096 4.26494L4.76691 4.2905L4.72701 4.26054L4.67163 4.30212L4.76691 4.37366L4.91172 4.26494L4.36633 3.85547H4.25557L4.80096 4.26494Z" fill="#383739"/>
<path d="M3.83008 4.14009L3.92741 4.20474L4.02474 4.14009L3.92741 4.07544L3.83008 4.14009Z" fill="#383739"/>
<path d="M4.32812 4.14009L4.42546 4.20474L4.52279 4.14009L4.42546 4.07544L4.32812 4.14009Z" fill="#383739"/>
<path d="M5.02181 4.14009L4.92448 4.20474L4.82715 4.14009L4.92448 4.07544L5.02181 4.14009Z" fill="#383739"/>
<path d="M4.8936 4.26496L4.76664 4.36028L4.6892 4.30214L4.72674 4.27396L4.76664 4.30391L4.81852 4.26496L4.28741 3.86621H4.36249L4.8936 4.26496ZM4.5632 4.41425H4.48814L3.95703 4.01551L4.084 3.92018L4.16142 3.97832L4.12389 4.00649L4.084 3.97654L4.0321 4.01551L4.5632 4.41425ZM4.36249 4.41425H4.28741L4.81852 4.01551L4.76664 3.97654L4.72674 4.00649L4.6892 3.97832L4.76664 3.92018L4.8936 4.01551L4.36249 4.41425ZM4.48814 3.86621H4.5632L4.0321 4.26496L4.084 4.30391L4.12389 4.27396L4.16142 4.30214L4.084 4.36028L3.95703 4.26496L4.48814 3.86621Z" fill="#FFC72C"/>
<path d="M3.92758 4.08838L4.00555 4.14016L3.92758 4.19194L3.84961 4.14016L3.92758 4.08838Z" fill="#00843D"/>
<path d="M4.42561 4.08838L4.50358 4.14016L4.42561 4.19194L4.34766 4.14016L4.42561 4.08838Z" fill="#00843D"/>
<path d="M4.92465 4.08838L4.84668 4.14016L4.92465 4.19194L5.0026 4.14016L4.92465 4.08838Z" fill="#00843D"/>
<path d="M2.71301 6.85394L2.67482 6.90796L2.74328 6.96031L2.6748 7.01267L2.71299 7.06669L2.79254 7.07593L2.86956 7.01641L3.0616 7.1384V7.03709L2.94073 6.96031L3.0616 6.88354V6.78223L2.86956 6.90422L2.79254 6.84472L2.71301 6.85394Z" fill="#383739"/>
<path d="M2.71301 6.50189L2.67482 6.55592L2.74328 6.60827L2.6748 6.66062L2.71299 6.71465L2.79254 6.72388L2.86956 6.66436L3.0616 6.78637V6.68504L2.94073 6.60827L3.0616 6.53149V6.43018L2.86956 6.55217L2.79254 6.49267L2.71301 6.50189Z" fill="#383739"/>
<path d="M2.71301 7.41849L2.67482 7.36448L2.74328 7.31213L2.6748 7.25976L2.71299 7.20575L2.79254 7.19652L2.86956 7.25603L3.0616 7.13403V7.23534L2.94073 7.31213L3.0616 7.3889V7.49021L2.86956 7.36821L2.79254 7.42773L2.71301 7.41849Z" fill="#383739"/>
<path d="M6.13767 6.85394L6.17586 6.90796L6.1074 6.96031L6.17586 7.01267L6.13767 7.06669L6.05814 7.07593L5.98112 7.01641L5.78906 7.1384V7.03709L5.90994 6.96031L5.78906 6.88354V6.78223L5.98112 6.90422L6.05814 6.84472L6.13767 6.85394Z" fill="#383739"/>
<path d="M6.13767 6.50189L6.17586 6.55592L6.1074 6.60827L6.17586 6.66062L6.13767 6.71465L6.05814 6.72388L5.98112 6.66436L5.78906 6.78637V6.68504L5.90994 6.60827L5.78906 6.53149V6.43018L5.98112 6.55217L6.05814 6.49267L6.13767 6.50189Z" fill="#383739"/>
<path d="M6.13767 7.41849L6.17586 7.36448L6.1074 7.31213L6.17586 7.25976L6.13767 7.20575L6.05814 7.19652L5.98112 7.25603L5.78906 7.13403V7.23534L5.90994 7.31213L5.78906 7.3889V7.49021L5.98112 7.36821L6.05814 7.42773L6.13767 7.41849Z" fill="#383739"/>
<path d="M5.36816 5.89331V6.03971H5.47465V6.10441H5.57925V5.9866H5.48596V5.89331H5.36816Z" fill="#383739"/>
<path d="M5.68262 6.12427V6.27065H5.78899V6.33536H5.89371V6.21755H5.80042V6.12427H5.68262Z" fill="#383739"/>
<path d="M3.4816 5.89331V6.03971H3.37509V6.10441H3.27051V5.9866H3.36379V5.89331H3.4816Z" fill="#383739"/>
<path d="M5.36816 8.02726V7.88086H5.47465V7.81616H5.57925V7.93396H5.48596V8.02726H5.36816Z" fill="#383739"/>
<path d="M3.4816 8.02726V7.88086H3.37509V7.81616H3.27051V7.93396H3.36379V8.02726H3.4816Z" fill="#383739"/>
<path d="M5.68262 7.7963V7.64992H5.78899V7.58521H5.89371V7.703H5.80042V7.7963H5.68262Z" fill="#383739"/>
<path d="M3.16812 6.12427V6.27065H3.06171V6.33536H2.95703V6.21755H3.05031V6.12427H3.16812Z" fill="#383739"/>
<path d="M3.16812 7.7963V7.64992H3.06171V7.58521H2.95703V7.703H3.05031V7.7963H3.16812Z" fill="#383739"/>
<path d="M4.81903 5.88993C4.81223 5.88333 4.73776 5.81104 4.73776 5.81104L4.65793 5.885C4.65793 5.885 4.72048 5.94571 4.72751 5.95255L4.6377 6.03974H4.77104L4.81903 5.99315L4.86701 6.03974H5.00034L4.91052 5.95255C4.91756 5.94571 4.98009 5.885 4.98009 5.885L4.90028 5.81104C4.87316 5.8373 4.8461 5.86363 4.81903 5.88993Z" fill="#383739"/>
<path d="M4.42546 5.88993C4.41868 5.88333 4.3442 5.81104 4.3442 5.81104L4.26438 5.885C4.26438 5.885 4.32691 5.94571 4.33396 5.95255L4.24414 6.03974H4.37747L4.42546 5.99315L4.47344 6.03974H4.60677L4.51697 5.95255C4.524 5.94571 4.58654 5.885 4.58654 5.885L4.50672 5.81104C4.47961 5.8373 4.45255 5.86363 4.42546 5.88993Z" fill="#383739"/>
<path d="M4.0319 5.88993C4.0387 5.88333 4.11317 5.81104 4.11317 5.81104L4.193 5.885C4.193 5.885 4.13045 5.94571 4.12342 5.95255L4.21323 6.03974H4.07989L4.0319 5.99315L3.98392 6.03974H3.85059L3.9404 5.95255C3.93337 5.94571 3.87082 5.885 3.87082 5.885L3.95065 5.81104C3.97777 5.8373 4.00483 5.86363 4.0319 5.88993Z" fill="#383739"/>
<path d="M4.81903 8.03066C4.81223 8.03725 4.73776 8.10955 4.73776 8.10955L4.65793 8.03558C4.65793 8.03558 4.72048 7.97489 4.72751 7.96805L4.6377 7.88086H4.77104L4.81903 7.92745L4.86701 7.88086H5.00034L4.91052 7.96805C4.91756 7.97489 4.98009 8.03558 4.98009 8.03558L4.90028 8.10955C4.87316 8.08328 4.8461 8.05696 4.81903 8.03066Z" fill="#383739"/>
<path d="M4.42546 8.03066C4.41868 8.03725 4.3442 8.10955 4.3442 8.10955L4.26438 8.03558C4.26438 8.03558 4.32691 7.97489 4.33396 7.96805L4.24414 7.88086H4.37747L4.42546 7.92745L4.47344 7.88086H4.60677L4.51697 7.96805C4.524 7.97489 4.58654 8.03558 4.58654 8.03558L4.50672 8.10955C4.47961 8.08328 4.45255 8.05696 4.42546 8.03066Z" fill="#383739"/>
<path d="M4.0319 8.03066C4.0387 8.03725 4.11317 8.10955 4.11317 8.10955L4.193 8.03558C4.193 8.03558 4.13045 7.97489 4.12342 7.96805L4.21323 7.88086H4.07989L4.0319 7.92745L3.98392 7.88086H3.85059L3.9404 7.96805C3.93337 7.97489 3.87082 8.03558 3.87082 8.03558L3.95065 8.10955C3.97777 8.08328 4.00483 8.05696 4.0319 8.03066Z" fill="#383739"/>
<path d="M3.0518 7.04277V7.11869L2.86986 7.00311L2.79034 7.06457L2.71989 7.05639L2.69043 7.01471L2.76183 6.96011L2.69043 6.90551L2.7199 6.86382L2.79034 6.85565L2.86986 6.91709L3.0518 6.80151V6.87743L2.92165 6.96011L3.0518 7.04277Z" fill="#00843D"/>
<path d="M3.0518 6.69095V6.76688L2.86986 6.65131L2.79034 6.71275L2.71989 6.70457L2.69043 6.66289L2.76183 6.60829L2.69043 6.5537L2.7199 6.51202L2.79034 6.50383L2.86986 6.56527L3.0518 6.44971V6.52562L2.92165 6.60829L3.0518 6.69095Z" fill="#00843D"/>
<path d="M3.0518 7.22948V7.15356L2.86986 7.26914L2.79034 7.20769L2.71989 7.21586L2.69043 7.25754L2.76183 7.31214L2.69043 7.36674L2.7199 7.40843L2.79034 7.4166L2.86986 7.35517L3.0518 7.47074V7.39482L2.92165 7.31214L3.0518 7.22948Z" fill="#00843D"/>
<path d="M5.80078 7.04277V7.11869L5.98273 7.00311L6.06223 7.06457L6.13268 7.05639L6.16214 7.01471L6.09074 6.96011L6.16214 6.90551L6.13268 6.86382L6.06223 6.85565L5.98273 6.91709L5.80078 6.80151V6.87743L5.93092 6.96011L5.80078 7.04277Z" fill="#00843D"/>
<path d="M5.80078 6.69095V6.76688L5.98273 6.65131L6.06223 6.71275L6.13268 6.70457L6.16214 6.66289L6.09074 6.60829L6.16214 6.5537L6.13268 6.51202L6.06223 6.50383L5.98273 6.56527L5.80078 6.44971V6.52562L5.93092 6.60829L5.80078 6.69095Z" fill="#00843D"/>
<path d="M5.80078 7.22948V7.15356L5.98273 7.26914L6.06223 7.20769L6.13268 7.21586L6.16214 7.25754L6.09074 7.31214L6.16214 7.36674L6.13268 7.40843L6.06223 7.4166L5.98273 7.35517L5.80078 7.47074V7.39482L5.93092 7.31214L5.80078 7.22948Z" fill="#00843D"/>
<path d="M5.47626 5.90405V5.99735H5.56954V6.09373H5.48638V6.02903H5.37988V5.90405H5.47626Z" fill="#00843D"/>
<path d="M5.78973 6.13477V6.22805H5.88302V6.32444H5.79984V6.25975H5.69336V6.13477H5.78973Z" fill="#00843D"/>
<path d="M3.37551 5.90405V5.99735H3.28223V6.09373H3.3654V6.02903H3.47188V5.90405H3.37551Z" fill="#00843D"/>
<path d="M5.47626 8.01632V7.92304H5.56954V7.82666H5.48638V7.89136H5.37988V8.01632H5.47626Z" fill="#00843D"/>
<path d="M3.37552 8.01632V7.92304H3.28223V7.82666H3.3654V7.89136H3.4719V8.01632H3.37552Z" fill="#00843D"/>
<path d="M5.78973 7.78536V7.69208H5.88302V7.5957H5.79984V7.6604H5.69336V7.78536H5.78973Z" fill="#00843D"/>
<path d="M3.06203 6.13477V6.22805H2.96875V6.32444H3.05192V6.25975H3.15841V6.13477H3.06203Z" fill="#00843D"/>
<path d="M3.06205 7.78536V7.69208H2.96875V7.5957H3.05192V7.6604H3.15842V7.78536H3.06205Z" fill="#00843D"/>
<path d="M4.73948 5.82568C4.74613 5.83213 4.82092 5.90473 4.82092 5.90473C4.82092 5.90473 4.89569 5.83213 4.90234 5.82568C4.90864 5.8315 4.95947 5.8786 4.96643 5.88505C4.95923 5.89203 4.89703 5.95242 4.89703 5.95242L4.9758 6.0289H4.87325L4.82092 5.97808L4.76857 6.0289H4.66602L4.74479 5.95242C4.74479 5.95242 4.68259 5.89203 4.67539 5.88505C4.68235 5.8786 4.73318 5.8315 4.73948 5.82568Z" fill="#00843D"/>
<path d="M4.34497 5.82568C4.35161 5.83213 4.42639 5.90473 4.42639 5.90473C4.42639 5.90473 4.50116 5.83213 4.50782 5.82568C4.51412 5.8315 4.56494 5.8786 4.5719 5.88505C4.56471 5.89203 4.50251 5.95242 4.50251 5.95242L4.58129 6.0289H4.47872L4.42639 5.97808L4.37405 6.0289H4.27148L4.35026 5.95242C4.35026 5.95242 4.28806 5.89203 4.28087 5.88505C4.28783 5.8786 4.33867 5.8315 4.34497 5.82568Z" fill="#00843D"/>
<path d="M4.11327 5.82568C4.10661 5.83213 4.03184 5.90473 4.03184 5.90473C4.03184 5.90473 3.95707 5.83213 3.95042 5.82568C3.94412 5.8315 3.89329 5.8786 3.88633 5.88505C3.89353 5.89203 3.95573 5.95242 3.95573 5.95242L3.87695 6.0289H3.97951L4.03184 5.97808L4.08419 6.0289H4.18674L4.10796 5.95242C4.10796 5.95242 4.17017 5.89203 4.17737 5.88505C4.17041 5.8786 4.11957 5.8315 4.11327 5.82568Z" fill="#00843D"/>
<path d="M4.73948 8.09458C4.74613 8.08811 4.82092 8.01551 4.82092 8.01551C4.82092 8.01551 4.89569 8.08811 4.90234 8.09458C4.90864 8.08874 4.95947 8.04164 4.96643 8.03521C4.95923 8.02822 4.89703 7.96784 4.89703 7.96784L4.9758 7.89136H4.87325L4.82092 7.94216L4.76857 7.89136H4.66602L4.74479 7.96784C4.74479 7.96784 4.68259 8.02822 4.67539 8.03521C4.68235 8.04164 4.73318 8.08874 4.73948 8.09458Z" fill="#00843D"/>
<path d="M4.34497 8.09458C4.35161 8.08811 4.42639 8.01551 4.42639 8.01551C4.42639 8.01551 4.50116 8.08811 4.50782 8.09458C4.51412 8.08874 4.56494 8.04164 4.5719 8.03521C4.56471 8.02822 4.50251 7.96784 4.50251 7.96784L4.58129 7.89136H4.47872L4.42639 7.94216L4.37405 7.89136H4.27148L4.35026 7.96784C4.35026 7.96784 4.28806 8.02822 4.28087 8.03521C4.28783 8.04164 4.33867 8.08874 4.34497 8.09458Z" fill="#00843D"/>
<path d="M4.11327 8.09458C4.10661 8.08811 4.03184 8.01551 4.03184 8.01551C4.03184 8.01551 3.95707 8.08811 3.95042 8.09458C3.94412 8.08874 3.89329 8.04164 3.88633 8.03521C3.89353 8.02822 3.95573 7.96784 3.95573 7.96784L3.87695 7.89136H3.97951L4.03184 7.94216L4.08419 7.89136H4.18674L4.10796 7.96784C4.10796 7.96784 4.17017 8.02822 4.17737 8.03521C4.17041 8.04164 4.11957 8.08874 4.11327 8.09458Z" fill="#00843D"/>
<path d="M3.36454 7.66063V7.89148H5.48539V7.66063H5.79916V6.2599H5.48539V6.02905H3.36454V6.2599H3.05078V7.66063H3.36454Z" fill="#383739"/>
<path d="M3.37632 6.03956V6.26999H3.0625V7.64973H3.37632V7.88016H5.47504V7.64973H5.78889V6.26997H5.47504V6.03955L3.37632 6.03956ZM3.51138 6.12829H5.34V6.35075L5.41547 6.40639H5.70016V7.51469H5.41415L5.34 7.56897V7.79274H3.51138V7.57028L3.4359 7.51469H3.14989V6.40639H3.43458L3.51138 6.35075L3.51138 6.12829Z" fill="#FFC72C"/>
<path d="M3.52228 6.13867V6.34261L3.7977 6.13867H3.52228ZM5.05295 6.13867L5.32836 6.34261V6.13867H5.05295ZM3.16212 6.41676V6.60744L3.42165 6.41676H3.16212ZM5.42904 6.41676L5.68988 6.60876V6.41676H5.42904ZM5.68988 7.31053L5.42904 7.50388H5.68988V7.31053ZM3.16211 7.31185V7.50388H3.42164L3.16211 7.31185ZM3.52227 7.57803V7.78062H3.79636L3.52227 7.57803ZM5.32835 7.57803L5.05429 7.78062H5.32835V7.57803Z" fill="#D22630"/>
<path d="M5.03476 6.13892C5.03758 6.14099 5.68513 6.61928 5.68943 6.62246V7.29771C5.68513 7.30091 5.03758 7.77918 5.03476 7.78127H3.81579C3.81299 7.77918 3.16544 7.30091 3.16113 7.29771V6.62246C3.16544 6.61928 3.81299 6.14099 3.81579 6.13892H5.03476Z" fill="#00843D"/>
<path d="M3.31648 7.37561L3.24121 7.28825L3.31187 7.20625L3.24121 7.12424L3.31187 7.04225L3.24121 6.96025L3.31187 6.87824L3.24121 6.79624L3.31186 6.71423L3.24121 6.63223L3.31648 6.54488H5.53297L5.60823 6.63223L5.53757 6.71423L5.60823 6.79624L5.53757 6.87824L5.60823 6.96025L5.53757 7.04225L5.60823 7.12424L5.53757 7.20625L5.60823 7.28825L5.53297 7.37561H3.31648ZM4.84009 6.2447L4.75273 6.16943L4.67071 6.2401L4.58872 6.16943L4.50672 6.2401L4.42472 6.16943L4.34271 6.2401L4.26071 6.16943L4.17872 6.2401L4.09672 6.16943L4.00936 6.2447V7.67578L4.09672 7.75106L4.17872 7.6804L4.26071 7.75105L4.34271 7.68038L4.42472 7.75105L4.50672 7.68038L4.58872 7.75105L4.67071 7.6804L4.75273 7.75106L4.84009 7.67578V6.2447Z" fill="#383739"/>
<path d="M4.66695 6.24964L4.59032 6.18359L4.51367 6.24964V7.67089L4.59032 7.73692L4.66695 7.67089V6.24964Z" fill="#FFC72C"/>
<path d="M4.33883 6.24964L4.26218 6.18359L4.18555 6.24964V7.67089L4.26218 7.73692L4.33883 7.67089V6.24964Z" fill="#FFC72C"/>
<path d="M3.32189 7.36497L3.25586 7.28832L3.32189 7.21167H5.52857L5.59459 7.28832L5.52857 7.36497H3.32189Z" fill="#FFC72C"/>
<path d="M5.52855 6.88354L5.59459 6.9602L5.52855 7.03683H3.3219L3.25586 6.9602L3.3219 6.88354H5.52855Z" fill="#FFC72C"/>
<path d="M5.52857 6.70895L5.59459 6.6323L5.52857 6.55566H3.32189L3.25586 6.6323L3.32189 6.70895H5.52857Z" fill="#FFC72C"/>
<path d="M4.83004 6.24964L4.75341 6.18359L4.67676 6.24964V7.67089L4.75341 7.73692L4.83002 7.6709L4.83004 6.24964Z" fill="#D22630"/>
<path d="M4.1738 6.24964L4.09716 6.18359L4.02051 6.24964V7.67089L4.09716 7.73692L4.1738 7.67089V6.24964Z" fill="#D22630"/>
<path d="M3.3219 7.20091L3.25586 7.12426L3.3219 7.04761H5.52855L5.59459 7.12426L5.52855 7.20091H3.3219Z" fill="#D22630"/>
<path d="M3.3219 6.87278L3.25586 6.79613L3.3219 6.71948H5.52855L5.59459 6.79613L5.52855 6.87278H3.3219Z" fill="#D22630"/>
<path d="M4.50193 7.67089L4.42528 7.73692L4.34863 7.67089V6.24964L4.42528 6.18359L4.50193 6.24964V7.67089Z" fill="#D22630"/>
<path d="M5.16627 6.27734H3.67929V6.39544H3.48926V7.52506H3.67929V7.64314H5.17162V7.52506H5.36165V6.39544H5.17162V6.27734H5.16627Z" fill="#383739"/>
<path d="M3.6897 6.28833V6.40621H3.49902V7.51452H3.6897V7.63236H3.84595L3.53478 7.37151V6.54918L3.84595 6.28833H3.6897ZM5.00458 6.28833L5.3144 6.54918V7.37151L5.00458 7.63236H5.1608V7.51452H5.35016V6.40621H5.1608V6.28833L5.00458 6.28833Z" fill="#D22630"/>
<path d="M3.86271 6.28833C3.85977 6.29081 3.54869 6.55134 3.54492 6.55449V7.36619C3.54869 7.36935 3.85977 7.62987 3.86271 7.63234H4.98689C4.98984 7.62987 5.29959 7.36934 5.30336 7.36619V6.55449C5.29959 6.55134 4.98985 6.29081 4.98689 6.28833H3.86271ZM3.8786 6.33335H4.96968L5.25834 6.57567V7.345L4.96968 7.586H3.8786L3.59127 7.345V6.57567L3.8786 6.33335Z" fill="#00843D"/>
<path d="M4.1681 7.35718L4.21693 7.37828L4.22592 7.43533L4.16443 7.48942L4.25374 7.57577H4.16781L4.10637 7.51663L4.04492 7.57577H3.95898L4.04831 7.48942L3.98681 7.43533L3.99581 7.37828L4.04463 7.35718L4.10637 7.40654L4.10972 7.40387L4.1681 7.35718Z" fill="#00843D"/>
<path d="M4.48647 7.35718L4.53529 7.37828L4.54429 7.43533L4.48281 7.48942L4.57212 7.57577H4.48618L4.42473 7.51663L4.36329 7.57577H4.27734L4.36667 7.48942L4.30518 7.43533L4.31418 7.37828L4.36301 7.35718L4.42473 7.40654L4.42808 7.40387L4.48647 7.35718Z" fill="#00843D"/>
<path d="M4.68135 7.35718L4.63253 7.37828L4.62353 7.43533L4.68501 7.48942L4.5957 7.57577H4.68164L4.74309 7.51663L4.80453 7.57577H4.89046L4.80115 7.48942L4.86264 7.43533L4.85364 7.37828L4.80481 7.35718L4.74309 7.40654L4.73973 7.40387L4.68135 7.35718Z" fill="#00843D"/>
<path d="M4.1681 6.56306L4.21693 6.54196L4.22592 6.48493L4.16443 6.43084L4.25374 6.34448H4.16781L4.10637 6.40361L4.04492 6.34448H3.95898L4.04831 6.43084L3.98681 6.48491L3.99581 6.54196L4.04463 6.56306L4.10637 6.51371L4.10972 6.51638L4.1681 6.56306Z" fill="#00843D"/>
<path d="M4.48647 6.56306L4.53529 6.54196L4.54429 6.48493L4.48281 6.43084L4.57212 6.34448H4.48618L4.42473 6.40361L4.36329 6.34448H4.27734L4.36667 6.43084L4.30518 6.48491L4.31418 6.54196L4.36301 6.56306L4.42473 6.51371L4.42808 6.51638L4.48647 6.56306Z" fill="#00843D"/>
<path d="M4.68135 6.56306L4.63253 6.54196L4.62353 6.48493L4.68501 6.43084L4.5957 6.34448H4.68164L4.74309 6.40361L4.80453 6.34448H4.89046L4.80115 6.43084L4.86264 6.48491L4.85364 6.54196L4.80481 6.56306L4.74309 6.51371L4.73973 6.51638L4.68135 6.56306Z" fill="#00843D"/>
<path d="M5.24682 6.65406L5.19808 6.69442L5.24682 6.73477V6.80169L5.17186 6.7399C5.17186 6.7399 5.12144 6.78558 5.11805 6.78865C5.11373 6.78811 5.06516 6.78201 5.06036 6.78141C5.05822 6.77746 5.04305 6.7495 5.04004 6.74391C5.04506 6.7389 5.08969 6.69442 5.08969 6.69442C5.08969 6.69442 5.04506 6.64993 5.04004 6.64492C5.04305 6.63933 5.05822 6.61135 5.06036 6.60742C5.06516 6.60682 5.11373 6.6007 5.11805 6.60016C5.12144 6.60324 5.17186 6.64893 5.17186 6.64893L5.24682 6.58716V6.65406Z" fill="#00843D"/>
<path d="M5.24682 6.91968L5.19808 6.96005L5.24682 7.00038V7.06731L5.17186 7.00553C5.17186 7.00553 5.12144 7.0512 5.11805 7.05428C5.11373 7.05374 5.06516 7.04762 5.06036 7.04703C5.05822 7.04309 5.04305 7.01511 5.04004 7.00953C5.04506 7.00452 5.08969 6.96005 5.08969 6.96005C5.08969 6.96005 5.04506 6.91554 5.04004 6.91053C5.04305 6.90495 5.05822 6.87698 5.06036 6.87303C5.06516 6.87245 5.11373 6.86633 5.11805 6.86579C5.12144 6.86886 5.17186 6.91454 5.17186 6.91454L5.24682 6.85278V6.91968Z" fill="#00843D"/>
<path d="M5.24682 7.26604L5.19808 7.22567L5.24682 7.18532V7.11841L5.17186 7.18019C5.17186 7.18019 5.12144 7.1345 5.11805 7.13143C5.11373 7.13197 5.06516 7.13809 5.06036 7.13867C5.05822 7.14262 5.04305 7.17059 5.04004 7.17617C5.04506 7.1812 5.08969 7.22567 5.08969 7.22567C5.08969 7.22567 5.04506 7.27016 5.04004 7.27517C5.04305 7.28075 5.05822 7.30873 5.06036 7.31267C5.06516 7.31327 5.11373 7.31938 5.11805 7.31992C5.12144 7.31684 5.17186 7.27117 5.17186 7.27117L5.24682 7.33294V7.26604Z" fill="#00843D"/>
<path d="M3.60254 6.65406L3.65127 6.69442L3.60254 6.73477V6.80169L3.67751 6.7399C3.67751 6.7399 3.72792 6.78558 3.73131 6.78865C3.73562 6.78811 3.7842 6.78201 3.789 6.78141C3.79115 6.77746 3.80629 6.7495 3.80932 6.74391C3.8043 6.7389 3.75968 6.69442 3.75968 6.69442C3.75968 6.69442 3.8043 6.64993 3.80932 6.64492C3.80629 6.63933 3.79115 6.61135 3.789 6.60742C3.7842 6.60682 3.73562 6.6007 3.73131 6.60016C3.72792 6.60324 3.67751 6.64893 3.67751 6.64893L3.60254 6.58716V6.65406Z" fill="#00843D"/>
<path d="M3.60254 6.91968L3.65127 6.96005L3.60254 7.00038V7.06731L3.67751 7.00553C3.67751 7.00553 3.72792 7.0512 3.73131 7.05428C3.73562 7.05374 3.7842 7.04762 3.789 7.04703C3.79115 7.04309 3.80629 7.01511 3.80932 7.00953C3.8043 7.00452 3.75968 6.96005 3.75968 6.96005C3.75968 6.96005 3.8043 6.91554 3.80932 6.91053C3.80629 6.90495 3.79115 6.87698 3.789 6.87303C3.7842 6.87245 3.73562 6.86633 3.73131 6.86579C3.72792 6.86886 3.67751 6.91454 3.67751 6.91454L3.60254 6.85278V6.91968Z" fill="#00843D"/>
<path d="M3.60254 7.26604L3.65127 7.22567L3.60254 7.18532V7.11841L3.67751 7.18019C3.67751 7.18019 3.72792 7.1345 3.73131 7.13143C3.73562 7.13197 3.7842 7.13809 3.789 7.13867C3.79115 7.14262 3.80629 7.17059 3.80932 7.17617C3.8043 7.1812 3.75968 7.22567 3.75968 7.22567C3.75968 7.22567 3.8043 7.27016 3.80932 7.27517C3.80629 7.28075 3.79115 7.30873 3.789 7.31267C3.7842 7.31327 3.73562 7.31938 3.73131 7.31992C3.72792 7.31684 3.67751 7.27117 3.67751 7.27117L3.60254 7.33294V7.26604Z" fill="#00843D"/>
<path d="M3.88326 6.344C3.88036 6.34643 3.61821 6.56591 3.60651 6.57573C3.63014 6.59532 3.653 6.6158 3.67669 6.63532C3.68269 6.62989 3.72833 6.58896 3.72833 6.58896L3.79586 6.59823L3.82234 6.64723C3.82234 6.64723 3.78115 6.68844 3.77468 6.69489C3.78115 6.70133 3.82234 6.74256 3.82234 6.74256L3.79586 6.79156L3.72833 6.7995C3.72833 6.7995 3.68269 6.75991 3.67669 6.75448L3.60254 6.81672V6.8379C3.62749 6.85855 3.65166 6.87951 3.67669 6.90014C3.68269 6.89472 3.72833 6.85512 3.72833 6.85512L3.79586 6.86306L3.82234 6.91206C3.82234 6.91206 3.78115 6.95328 3.77468 6.95973C3.78115 6.96616 3.82234 7.00739 3.82234 7.00739L3.79586 7.05771L3.72833 7.06566C3.72833 7.06566 3.68269 7.02474 3.67669 7.01931L3.60254 7.08155V7.10406L3.67669 7.16629C3.68269 7.16088 3.72833 7.11995 3.72833 7.11995L3.79586 7.12922L3.82234 7.17821C3.82234 7.17821 3.78115 7.21943 3.77468 7.22588C3.78115 7.23233 3.82234 7.27355 3.82234 7.27355L3.79586 7.32254L3.72833 7.33181C3.72833 7.33181 3.68269 7.2909 3.67669 7.28547C3.65309 7.3049 3.63005 7.32431 3.60651 7.34373C3.61821 7.35355 3.88036 7.57302 3.88325 7.57546H3.94416L4.03288 7.48939L3.97594 7.43907L3.98653 7.37021L4.04612 7.34505L4.10703 7.39272L4.16662 7.34505L4.2262 7.37021L4.23812 7.43907L4.17986 7.48939L4.26592 7.57148L4.35199 7.48939L4.29373 7.43907L4.30432 7.37021L4.36523 7.34505L4.42482 7.39272L4.48573 7.34505L4.54531 7.37021L4.55591 7.43907L4.49897 7.48939L4.58371 7.57281L4.66978 7.48939L4.61284 7.43907L4.62344 7.37021L4.68435 7.34505L4.74393 7.39272L4.80352 7.34505L4.86443 7.37021L4.87502 7.43907L4.81808 7.48939L4.9068 7.57546H4.96639C4.96928 7.57302 5.23142 7.35355 5.24313 7.34373C5.21954 7.3243 5.19657 7.30494 5.17295 7.28547C5.16695 7.2909 5.12263 7.33181 5.12263 7.33181L5.0551 7.32254L5.0273 7.27355C5.0273 7.27355 5.0685 7.23233 5.07496 7.22588C5.0685 7.21943 5.0273 7.17821 5.0273 7.17821L5.0551 7.12922L5.12263 7.11995C5.12263 7.11995 5.16695 7.16088 5.17295 7.16629L5.2471 7.10406V7.08155L5.17295 7.01931C5.16695 7.02474 5.12263 7.06566 5.12263 7.06566L5.0551 7.05771L5.0273 7.00739C5.0273 7.00739 5.0685 6.96616 5.07496 6.95973C5.0685 6.95328 5.0273 6.91206 5.0273 6.91206L5.0551 6.86306L5.12263 6.85512C5.12263 6.85512 5.16695 6.89472 5.17295 6.90014C5.19781 6.87966 5.22229 6.85964 5.2471 6.83923V6.81539L5.17295 6.75448C5.16695 6.75991 5.12263 6.7995 5.12263 6.7995L5.0551 6.79156L5.0273 6.74256C5.0273 6.74256 5.0685 6.70133 5.07496 6.69489C5.0685 6.68844 5.0273 6.64723 5.0273 6.64723L5.0551 6.59823L5.12263 6.58896C5.12263 6.58896 5.16695 6.62989 5.17295 6.63531C5.19668 6.61576 5.22073 6.5966 5.24445 6.57705C5.23533 6.5694 4.9693 6.34643 4.96639 6.34399H4.9068L4.81808 6.43006L4.87502 6.48038L4.86443 6.54924L4.80352 6.57572L4.74393 6.52805L4.68435 6.57572L4.62344 6.54924L4.61284 6.48038L4.66978 6.43006L4.58504 6.34797L4.49897 6.43006L4.55591 6.48038L4.54531 6.54924L4.48573 6.57572L4.42482 6.52805L4.36523 6.57572L4.30432 6.54924L4.29373 6.48038L4.35199 6.43006L4.26592 6.34797L4.17986 6.43006L4.23812 6.48038L4.2262 6.54924L4.16661 6.57572L4.10703 6.52805L4.04612 6.57572L3.98653 6.54924L3.97594 6.48038L4.03288 6.43006L3.94284 6.34399L3.88326 6.344ZM3.60254 6.93325V6.98754L3.63432 6.95973L3.60254 6.93325Z" fill="#D22630"/>
<path d="M4.10788 7.53174L4.06152 7.57542H4.15288L4.10788 7.53174Z" fill="white"/>
<path d="M4.42586 7.53174L4.38086 7.57542H4.47221L4.42586 7.53174Z" fill="white"/>
<path d="M4.74455 7.53174L4.69824 7.57542H4.79091L4.74455 7.53174Z" fill="white"/>
<path d="M4.06055 6.34399L4.10822 6.38899L4.15457 6.34399H4.06055Z" fill="white"/>
<path d="M4.37988 6.34399L4.42624 6.38899L4.47391 6.34399H4.37988Z" fill="white"/>
<path d="M4.69824 6.34399L4.74455 6.38899L4.79091 6.34399H4.69824Z" fill="white"/>
<path d="M5.2476 6.66846L5.21582 6.69494L5.2476 6.72011V6.66846Z" fill="white"/>
<path d="M5.2476 6.93335L5.21582 6.95983L5.2476 6.98632V6.93335Z" fill="white"/>
<path d="M5.2476 7.19946L5.21582 7.22595L5.2476 7.25243V7.19946Z" fill="white"/>
<path d="M3.60352 6.66699V6.72127L3.63529 6.69479L3.60352 6.66699Z" fill="white"/>
<path d="M3.60352 6.93335V6.98763L3.63529 6.95983L3.60352 6.93335Z" fill="white"/>
<path d="M3.60352 7.198V7.25228L3.63529 7.22579L3.60352 7.198Z" fill="white"/>
<path d="M4.69812 6.87154V6.77676H4.6022V6.67285H4.24891V6.77676H4.15298V6.87154H4.02051V7.04899H4.15298V7.14376H4.24891V7.24768H4.6022V7.14376H4.69812V7.04899H4.83058V6.87154H4.69812Z" fill="#383739"/>
<path d="M4.42021 6.68359V6.79071L4.26835 6.87703V6.95494H4.03125V6.88228H4.16371V6.78751H4.25964V6.68359H4.42021Z" fill="#FFC72C"/>
<path d="M4.43066 7.23693V7.12981L4.58251 7.04347V6.96558H4.81962V7.03822H4.68716V7.13301H4.59124V7.23693H4.43066Z" fill="#FFC72C"/>
<path d="M4.58251 6.95494V6.87703L4.43066 6.79071V6.68359H4.59124V6.78751H4.68716V6.88228H4.81962V6.95494H4.58251Z" fill="white"/>
<path d="M4.03125 6.96558H4.26835V7.04347L4.42021 7.12981V7.23693H4.25963V7.13301H4.16371V7.03822H4.03125V6.96558Z" fill="white"/>
<path d="M4.2793 6.96558V7.03779L4.42043 7.11804V6.96558H4.2793Z" fill="#D22630"/>
<path d="M4.42043 6.80249L4.2793 6.88273V6.95494H4.42043V6.80249Z" fill="#00843D"/>
<path d="M4.5718 6.95493V6.88272L4.43066 6.80249V6.95493H4.5718Z" fill="#D22630"/>
<path d="M4.43066 7.11804L4.5718 7.03779V6.96558H4.43066V7.11804Z" fill="#00843D"/>
<path d="M3.14212 8.84337V9.13629H2.86299V9.40197H2.58008V10.1584H2.86299V10.4241H3.14212V10.717H4.15704L4.33552 10.8243L4.24975 10.8758H3.88785L3.85664 10.8406H4.18461L4.09221 10.7476H3.62307L3.83563 10.9689H4.27557L4.42585 10.8786L4.57613 10.9689H5.0161L5.22865 10.7476H4.75952L4.6671 10.8406H4.99509L4.96386 10.8758H4.60194L4.51618 10.8243L4.69467 10.717H5.7096V10.4241H5.98872V10.1584H6.27162V9.40197H5.98872V9.13629H5.7096V8.84337H4.69467L4.51618 8.73614L4.60194 8.6846H4.96386L4.99509 8.7198H4.6671L4.75952 8.81285H5.22865L5.0161 8.59155H4.57613L4.42585 8.68185L4.27557 8.59155H3.83563L3.62307 8.81285H4.09221L4.18461 8.7198H3.85664L3.88785 8.6846H4.24975L4.33552 8.73614L4.15704 8.84337H3.14212Z" fill="#D22630"/>
<path d="M4.69123 10.7056H5.69888V10.413H5.97695V10.1468H6.26031V9.41194H5.97695V9.14711H5.69888V8.85447H4.69123L4.2728 8.60156H3.83981L3.64781 8.80151H4.08742L4.15893 8.73H3.83187L3.88219 8.67307H4.25294L4.72698 8.95908H5.59295V9.25172H5.87234V9.51788H6.15571V10.0422H5.87234V10.3084H5.59295V10.601H4.72698L4.25294 10.8857H3.88219L3.83187 10.8301H4.15893L4.08742 10.7586H3.64781L3.83981 10.9586H4.2728L4.69123 10.7056ZM4.12318 10.601H3.2572V10.3084H2.97914V10.0422H2.69577V9.51788H2.97914V9.25172H3.2572V8.95908H4.12318L4.59854 8.67307H4.96797L5.01829 8.73001H4.69255L4.76406 8.80151H5.20366L5.01167 8.60156H4.57868L4.16025 8.85448H3.1526V9.14711H2.87321V9.41194H2.58984V10.1468H2.87321V10.413H3.1526V10.7056H4.16025L4.57868 10.9586H5.01167L5.20366 10.7586H4.76406L4.69255 10.8301H5.01829L4.96797 10.8857H4.59854L4.12318 10.601Z" fill="#FFC72C"/>
<path d="M5.50948 10.2238V10.5167H4.70449L4.42589 10.6841L4.14728 10.5167H3.34231V10.2238H3.06317V9.95812H2.78027V9.60198H3.06317V9.33628H3.34231V9.04338H4.1458H4.14728L4.42589 8.87598L4.70449 9.04338H5.50948V9.33628H5.78861V9.60198H6.0715V9.95812H5.78861V10.2238H5.50948Z" fill="#00843D"/>
<path d="M3.44727 10.1213V10.4048H3.88976L3.44727 10.1113V10.1213Z" fill="#383739"/>
<path d="M3.44727 9.43903V9.15552H3.88976L3.44727 9.44901V9.43903Z" fill="#383739"/>
<path d="M5.40343 10.1213V10.4048H4.96094L5.40343 10.1113V10.1213Z" fill="#383739"/>
<path d="M5.40343 9.43903V9.15552H4.96094L5.40343 9.44901V9.43903Z" fill="#383739"/>
<path d="M3.45801 10.1313L3.85424 10.3942H3.45801V10.1313Z" fill="#D22630"/>
<path d="M3.45801 9.42907C3.47341 9.41884 3.82724 9.18416 3.85424 9.16626H3.45801V9.42907Z" fill="#D22630"/>
<path d="M5.39233 10.1313C5.37691 10.1416 5.02308 10.3763 4.99609 10.3942H5.39233V10.1313Z" fill="#D22630"/>
<path d="M5.39233 9.42907C5.37691 9.41886 5.02308 9.18417 4.99609 9.16626H5.39233V9.42907Z" fill="#D22630"/>
<path d="M4.01205 9.70233V9.55755H3.96267L3.72577 9.40942L3.72293 9.41121L3.48888 9.55755H3.4395V9.70233H3.32812V9.85782H3.4395V10.0026H3.48888L3.72577 10.1507L3.96267 10.0026H4.01205V9.85782H4.18159V9.70233H4.01205Z" fill="#383739"/>
<path d="M3.72546 9.42212L3.94216 9.5576H3.50879L3.72546 9.42212ZM3.94213 10.0026L3.72546 10.1381L3.5088 10.0026H3.94213Z" fill="#D22630"/>
<path d="M3.89034 9.71313V9.8472H3.62012V9.71313H3.89034Z" fill="#D22630"/>
<path d="M4.00166 9.85791V9.99198H3.73145V9.85791H4.00166Z" fill="#FFC72C"/>
<path d="M3.72139 9.85791V9.99198H3.45117V9.85791H3.72139Z" fill="#FFC72C"/>
<path d="M4.17159 9.71313V9.8472H3.90137V9.71313H4.17159Z" fill="#FFC72C"/>
<path d="M3.61006 9.71313V9.8472H3.33984V9.71313H3.61006Z" fill="#FFC72C"/>
<path d="M4.00166 9.56836V9.70241H3.73145V9.56836H4.00166Z" fill="#FFC72C"/>
<path d="M3.72139 9.56836V9.70241H3.45117V9.56836H3.72139Z" fill="#FFC72C"/>
<path d="M3.53446 9.74292V9.81741H3.41309V9.74292H3.53446Z" fill="#383739"/>
<path d="M3.64579 9.59814V9.67263H3.52441V9.59814H3.64579Z" fill="#383739"/>
<path d="M3.92606 9.59814V9.67263H3.80469V9.59814H3.92606Z" fill="#383739"/>
<path d="M3.81571 9.74292V9.81741H3.69434V9.74292H3.81571Z" fill="#383739"/>
<path d="M4.09599 9.74292V9.81741H3.97461V9.74292H4.09599Z" fill="#383739"/>
<path d="M3.92606 9.8877V9.96218H3.80469V9.8877H3.92606Z" fill="#383739"/>
<path d="M3.64579 9.8877V9.96218H3.52441V9.8877H3.64579Z" fill="#383739"/>
<path d="M3.52332 9.75415H3.4248V9.80578H3.52332V9.75415Z" fill="white"/>
<path d="M3.63465 9.60938H3.53613V9.661H3.63465V9.60938Z" fill="white"/>
<path d="M3.91492 9.60938H3.81641V9.661H3.91492V9.60938Z" fill="white"/>
<path d="M3.8036 9.75415H3.70508V9.80578H3.8036V9.75415Z" fill="white"/>
<path d="M4.08485 9.75415H3.98633V9.80578H4.08485V9.75415Z" fill="white"/>
<path d="M3.91492 9.89893H3.81641V9.95056H3.91492V9.89893Z" fill="white"/>
<path d="M3.63465 9.89893H3.53613V9.95056H3.63465V9.89893Z" fill="white"/>
<path d="M4.83854 9.70233V9.55755H4.88791L5.12482 9.40942L5.12765 9.41121L5.36171 9.55755H5.41109V9.70233H5.52246V9.85782H5.41109V10.0026H5.36171L5.12482 10.1507L4.88791 10.0026H4.83854V9.85782H4.66899V9.70233H4.83854Z" fill="#383739"/>
<path d="M5.12513 9.42212L4.90843 9.5576H5.3418L5.12513 9.42212ZM4.90846 10.0026L5.12513 10.1381L5.34178 10.0026H4.90846Z" fill="#D22630"/>
<path d="M4.96025 9.71313V9.8472H5.23047V9.71313H4.96025Z" fill="#D22630"/>
<path d="M4.8499 9.85791V9.99198H5.12012V9.85791H4.8499Z" fill="#FFC72C"/>
<path d="M5.13017 9.85791V9.99198H5.40039V9.85791H5.13017Z" fill="#FFC72C"/>
<path d="M4.67998 9.71313V9.8472H4.9502V9.71313H4.67998Z" fill="#FFC72C"/>
<path d="M5.2415 9.71313V9.8472H5.51172V9.71313H5.2415Z" fill="#FFC72C"/>
<path d="M4.8499 9.56836V9.70241H5.12012V9.56836H4.8499Z" fill="#FFC72C"/>
<path d="M5.13017 9.56836V9.70241H5.40039V9.56836H5.13017Z" fill="#FFC72C"/>
<path d="M5.31515 9.74292V9.81741H5.43652V9.74292H5.31515Z" fill="#383739"/>
<path d="M5.20382 9.59814V9.67263H5.3252V9.59814H5.20382Z" fill="#383739"/>
<path d="M4.92354 9.59814V9.67263H5.04492V9.59814H4.92354Z" fill="#383739"/>
<path d="M5.03487 9.74292V9.81741H5.15625V9.74292H5.03487Z" fill="#383739"/>
<path d="M4.75362 9.74292V9.81741H4.875V9.74292H4.75362Z" fill="#383739"/>
<path d="M4.92354 9.8877V9.96218H5.04492V9.8877H4.92354Z" fill="#383739"/>
<path d="M5.20382 9.8877V9.96218H5.3252V9.8877H5.20382Z" fill="#383739"/>
<path d="M5.32726 9.75415H5.42578V9.80578H5.32726V9.75415Z" fill="white"/>
<path d="M5.21594 9.60938H5.31445V9.661H5.21594V9.60938Z" fill="white"/>
<path d="M4.93566 9.60938H5.03418V9.661H4.93566V9.60938Z" fill="white"/>
<path d="M5.04601 9.75415H5.14453V9.80578H5.04601V9.75415Z" fill="white"/>
<path d="M4.76574 9.75415H4.86426V9.80578H4.76574V9.75415Z" fill="white"/>
<path d="M4.93566 9.89893H5.03418V9.95056H4.93566V9.89893Z" fill="white"/>
<path d="M5.21594 9.89893H5.31445V9.95056H5.21594V9.89893Z" fill="white"/>
<path d="M4.71203 9.4606V9.60537H4.66265L4.42575 9.75349L4.42291 9.75172L4.18886 9.60537H4.13948V9.4606H3.99902V9.30511H4.13948V9.16035H4.18886L4.42575 9.01221L4.66265 9.16035H4.71203V9.30511H4.85249V9.4606H4.71203Z" fill="#383739"/>
<path d="M4.42565 9.74091L4.64234 9.60542H4.20898L4.42565 9.74091ZM4.64233 9.1604L4.42565 9.0249L4.209 9.1604H4.64233Z" fill="#FFC72C"/>
<path d="M4.70088 9.3052V9.17114H4.43066V9.3052H4.70088Z" fill="#D22630"/>
<path d="M4.42061 9.3052V9.17114H4.15039V9.3052H4.42061Z" fill="#D22630"/>
<path d="M4.84151 9.44999V9.31592H4.57129V9.44999H4.84151Z" fill="#D22630"/>
<path d="M4.56123 9.44999V9.31592H4.29102V9.44999H4.56123Z" fill="#D22630"/>
<path d="M4.27997 9.44999V9.31592H4.00977V9.44999H4.27997Z" fill="#D22630"/>
<path d="M4.70088 9.59476V9.46069H4.43066V9.59476H4.70088Z" fill="#D22630"/>
<path d="M4.42061 9.59476V9.46069H4.15039V9.59476H4.42061Z" fill="#D22630"/>
<path d="M4.34696 9.20093V9.27542H4.22559V9.20093H4.34696Z" fill="#383739"/>
<path d="M4.62724 9.20093V9.27542H4.50586V9.20093H4.62724Z" fill="#383739"/>
<path d="M4.20634 9.3457V9.42019H4.08496V9.3457H4.20634Z" fill="#383739"/>
<path d="M4.48661 9.3457V9.42019H4.36523V9.3457H4.48661Z" fill="#383739"/>
<path d="M4.76786 9.3457V9.42019H4.64648V9.3457H4.76786Z" fill="#383739"/>
<path d="M4.34696 9.49048V9.56497H4.22559V9.49048H4.34696Z" fill="#383739"/>
<path d="M4.62724 9.49048V9.56497H4.50586V9.49048H4.62724Z" fill="#383739"/>
<path d="M4.33485 9.21216H4.23633V9.26379H4.33485V9.21216Z" fill="white"/>
<path d="M4.61512 9.21216H4.5166V9.26379H4.61512V9.21216Z" fill="white"/>
<path d="M4.19422 9.35693H4.0957V9.40856H4.19422V9.35693Z" fill="white"/>
<path d="M4.47547 9.35693H4.37695V9.40856H4.47547V9.35693Z" fill="white"/>
<path d="M4.75574 9.35693H4.65723V9.40856H4.75574V9.35693Z" fill="white"/>
<path d="M4.33485 9.50171H4.23633V9.55334H4.33485V9.50171Z" fill="white"/>
<path d="M4.61512 9.50171H4.5166V9.55334H4.61512V9.50171Z" fill="white"/>
<path d="M4.71203 10.2553V10.4H4.66265L4.42575 10.5482L4.42291 10.5464L4.18886 10.4H4.13948V10.2553H3.99902V10.0998H4.13948V9.95502H4.18886L4.42575 9.80688L4.66265 9.95502H4.71203V10.0998H4.85249V10.2553H4.71203Z" fill="#383739"/>
<path d="M4.42565 10.5356L4.64234 10.4001H4.20898L4.42565 10.5356ZM4.64233 9.95508L4.42565 9.81958L4.209 9.95508H4.64233Z" fill="#FFC72C"/>
<path d="M4.70088 10.0999V9.96582H4.43066V10.0999H4.70088Z" fill="#D22630"/>
<path d="M4.42061 10.0999V9.96582H4.15039V10.0999H4.42061Z" fill="#D22630"/>
<path d="M4.84151 10.2447V10.1106H4.57129V10.2447H4.84151Z" fill="#D22630"/>
<path d="M4.56123 10.2447V10.1106H4.29102V10.2447H4.56123Z" fill="#D22630"/>
<path d="M4.27997 10.2447V10.1106H4.00977V10.2447H4.27997Z" fill="#D22630"/>
<path d="M4.70088 10.3894V10.2554H4.43066V10.3894H4.70088Z" fill="#D22630"/>
<path d="M4.42061 10.3894V10.2554H4.15039V10.3894H4.42061Z" fill="#D22630"/>
<path d="M4.34696 9.99561V10.0701H4.22559V9.99561H4.34696Z" fill="#383739"/>
<path d="M4.62724 9.99561V10.0701H4.50586V9.99561H4.62724Z" fill="#383739"/>
<path d="M4.20634 10.1404V10.2149H4.08496V10.1404H4.20634Z" fill="#383739"/>
<path d="M4.48661 10.1404V10.2149H4.36523V10.1404H4.48661Z" fill="#383739"/>
<path d="M4.76786 10.1404V10.2149H4.64648V10.1404H4.76786Z" fill="#383739"/>
<path d="M4.34696 10.2852V10.3596H4.22559V10.2852H4.34696Z" fill="#383739"/>
<path d="M4.62724 10.2852V10.3596H4.50586V10.2852H4.62724Z" fill="#383739"/>
<path d="M4.33485 10.0068H4.23633V10.0585H4.33485V10.0068Z" fill="white"/>
<path d="M4.61512 10.0068H4.5166V10.0585H4.61512V10.0068Z" fill="white"/>
<path d="M4.19422 10.1516H4.0957V10.2032H4.19422V10.1516Z" fill="white"/>
<path d="M4.47547 10.1516H4.37695V10.2032H4.47547V10.1516Z" fill="white"/>
<path d="M4.75574 10.1516H4.65723V10.2032H4.75574V10.1516Z" fill="white"/>
<path d="M4.33485 10.2964H4.23633V10.348H4.33485V10.2964Z" fill="white"/>
<path d="M4.61512 10.2964H4.5166V10.348H4.61512V10.2964Z" fill="white"/>
<path d="M2.89258 11.9838L3.94385 11.418H3.9452H4.9073L5.95857 11.9838V12.916L4.9073 13.4818H3.94385L2.89258 12.916V11.9838Z" fill="#383739"/>
<path d="M3.94674 11.4287L2.90332 11.9902V12.9091L3.94674 13.4705H4.90405L5.9475 12.9091V11.9902L4.90405 11.4287H3.94674ZM3.96525 11.5042H4.88553L5.87335 12.0352V12.8654L4.88553 13.3964H3.9647L2.97692 12.8654V12.0352L3.96525 11.5042Z" fill="#00843D"/>
<path d="M4.42994 12.4447V13.3857H4.88232L5.86187 12.8585V12.4554L4.41923 12.4554V11.5144H3.96687L2.9873 12.0416V12.4447L4.42994 12.4447Z" fill="#FFC72C"/>
<path d="M4.41923 12.4447V13.3857H3.96687L2.9873 12.8585V12.4554L4.42994 12.4554V11.5144H4.88232L5.86187 12.0416V12.4447L4.41923 12.4447Z" fill="white"/>
<path d="M4.51352 13.333V13.061L4.42559 13.1168L4.33765 13.061V13.333H4.06411L4.24868 13.1977V13.0046L3.9672 12.826H3.77051V12.0742H3.9672L4.24868 11.8956V11.7025L4.06411 11.5671H4.08048H4.33765V11.8391L4.42559 11.7833L4.51352 11.8391V11.5671H4.78707L4.60248 11.7025V11.8956L4.88396 12.0742H5.08065V12.826H4.88396L4.60248 13.0046V13.1977L4.78707 13.333H4.51352Z" fill="#383739"/>
<path d="M4.52409 11.5784V11.8591L4.43007 11.7995V11.879L4.8604 12.153H5.00209V12.4444H5.06964V12.0842H4.88028L4.59164 11.9015V11.6975L4.75447 11.5784H4.52409ZM3.78125 12.455V12.8151H3.96928L4.25927 12.9992V13.2031L4.09639 13.3223H4.32681V13.0415L4.41948 13.1012V13.019L3.98915 12.7476H3.84878V12.455L3.78125 12.455Z" fill="#FFC72C"/>
<path d="M4.09639 11.5784L4.25927 11.6975V11.9015L3.96928 12.0842H3.78125V12.4444H3.84878V12.153H3.98915L4.41948 11.8803V11.7995L4.32681 11.8591V11.5784L4.09639 11.5784ZM5.00209 12.455V12.7476H4.8604L4.43007 13.019V13.1012L4.52409 13.0415V13.3223H4.75447L4.59163 13.2031V12.9992L4.88027 12.8151H5.06963V12.455L5.00209 12.455Z" fill="white"/>
<path d="M3.85938 12.7366H3.99281L4.42549 13.0111L4.85816 12.7366H4.99161V12.1637H4.85972H4.85816L4.42549 11.8892L3.99281 12.1637H3.85938V12.7366Z" fill="#D22630"/>
<path d="M4.72453 12.5862H4.81691V12.5425H4.74742V12.463H4.89595V12.6656H4.75355L4.75357 12.8039H4.46046V12.6052H4.58946V12.6847H4.53949V12.7244H4.67454V12.6485L4.12552 12.3139H4.03314V12.3576H4.10264V12.4371H3.9541V12.2344H4.09649V12.0962H4.10185H4.38959V12.2948H4.26059V12.2154H4.31055V12.1756H4.17553V12.2516L4.72453 12.5862ZM4.67454 12.2516V12.1756H4.53949V12.2154H4.58946V12.2948H4.46046V12.0962H4.75357V12.2344H4.89595V12.4371H4.74742V12.3576H4.81693V12.3139H4.72453L4.17553 12.6485V12.7244H4.31055V12.6847H4.26059V12.6052H4.38959V12.8039H4.09649V12.6656H3.9541V12.463H4.10264V12.5425H4.03314V12.5862H4.12552L4.67454 12.2516Z" fill="#383739"/>
<path d="M4.68624 12.6425V12.7352H4.52976V12.674H4.57974V12.616H4.47216V12.7932H4.74384V12.6549H4.88623V12.4738H4.75912V12.5318H4.82862V12.5969H4.72252L4.1658 12.2576V12.165H4.32227V12.2261H4.27231V12.2841H4.37987V12.1069H4.1082V12.2452H3.96582V12.4264H4.09291V12.3683H4.02342V12.3032H4.12951L4.68624 12.6425ZM4.72252 12.3032H4.82863V12.3683H4.75912V12.4264H4.88623V12.2452H4.74385V12.1069H4.47218V12.2841H4.57974V12.2261H4.52978V12.165H4.68624V12.2576L4.12951 12.5969H4.02342V12.5318H4.09291V12.4737H3.96582V12.6549H4.1082V12.7932H4.37987V12.616H4.27231V12.674H4.32227V12.7351H4.1658V12.6425L4.72252 12.3032Z" fill="white"/>
<path d="M5.65178 12.4971V12.7911H5.52665V12.6873H5.40052V12.7911H5.27539V12.4971H5.40052V12.6009H5.52665V12.4971H5.65178Z" fill="#383739"/>
<path d="M5.20354 12.8875V13.1815H5.07841V13.0777H4.95228V13.1815H4.82715V12.8875H4.95228V12.9913H5.07841V12.8875H5.20354Z" fill="#383739"/>
<path d="M5.65178 12.4029V12.1089H5.52665V12.2127H5.40052V12.1089H5.27539V12.4029H5.40052V12.2991H5.52665V12.4029H5.65178Z" fill="#383739"/>
<path d="M3.19922 12.4971V12.7911H3.32435V12.6873H3.45048V12.7911H3.57561V12.4971H3.45048V12.6009H3.32435V12.4971H3.19922Z" fill="#383739"/>
<path d="M3.19922 12.4029V12.1089H3.32435V12.2127H3.45048V12.1089H3.57561V12.4029H3.45048V12.2991H3.32435V12.4029H3.19922Z" fill="#383739"/>
<path d="M5.20354 12.0126V11.7185H5.07841V11.8224H4.95228V11.7185H4.82715V12.0126H4.95228V11.9087H5.07841V12.0126H5.20354Z" fill="#383739"/>
<path d="M3.64648 12.8875V13.1815H3.77161V13.0777H3.89774V13.1815H4.02287V12.8875H3.89774V12.9913H3.77161V12.8875H3.64648Z" fill="#383739"/>
<path d="M3.64648 12.0126V11.7185H3.77161V11.8224H3.89774V11.7185H4.02287V12.0126H3.89774V11.9087H3.77161V12.0126H3.64648Z" fill="#383739"/>
<path d="M5.27734 11.8064V12.0297H5.69226L5.27734 11.8064Z" fill="#383739"/>
<path d="M3.57215 13.0937V12.8704H3.15723L3.57215 13.0937Z" fill="#383739"/>
<path d="M3.57215 11.8064V12.0297H3.15723L3.57215 11.8064Z" fill="#383739"/>
<path d="M5.27734 13.0937V12.8704H5.69226L5.27734 13.0937Z" fill="#383739"/>
<path d="M5.53642 12.6766V12.7804H5.64012V12.5078H5.53642V12.6117H5.38885V12.5078H5.28516V12.7804H5.38885V12.6766H5.53642Z" fill="#D22630"/>
<path d="M5.08915 13.067V13.1708H5.19284V12.8982H5.08915V13.002H4.94158V12.8982H4.83789V13.1708H4.94158V13.067H5.08915Z" fill="#D22630"/>
<path d="M5.53642 12.2235V12.1196H5.64012V12.3922H5.53642V12.2884H5.38885V12.3922H5.28516V12.1196H5.38885V12.2235H5.53642Z" fill="#D22630"/>
<path d="M3.31365 12.6766V12.7804H3.20996V12.5078H3.31365V12.6117H3.46122V12.5078H3.56491V12.7804H3.46122V12.6766H3.31365Z" fill="#D22630"/>
<path d="M3.31365 12.2235V12.1196H3.20996V12.3922H3.31365V12.2884H3.46122V12.3922H3.56491V12.1196H3.46122V12.2235H3.31365Z" fill="#D22630"/>
<path d="M5.08915 11.8331V11.7292H5.19284V12.0019H5.08915V11.898H4.94158V12.0019H4.83789V11.7292H4.94158V11.8331H5.08915Z" fill="#D22630"/>
<path d="M3.7619 13.067V13.1708H3.6582V12.8982H3.7619V13.002H3.90946V12.8982H4.01317V13.1708H3.90946V13.067H3.7619Z" fill="#D22630"/>
<path d="M3.7619 11.8331V11.7292H3.6582V12.0019H3.7619V11.898H3.90946V12.0019H4.01317V11.7292H3.90946V11.8331H3.7619Z" fill="#D22630"/>
<path d="M5.28967 11.8247V12.0194H5.65119L5.28967 11.8247ZM3.20022 12.8814L3.5617 13.0761V12.8814H3.20022Z" fill="#FFC72C"/>
<path d="M3.56168 11.8247L3.2002 12.0194H3.56168V11.8247ZM5.28965 12.8814V13.0761L5.65117 12.8814H5.28965Z" fill="white"/>
<path d="M6.1237 13.2706C6.10372 13.3558 6.036 13.4201 6.01986 13.5084C5.98755 13.4163 5.95776 13.3391 5.98001 13.2383C5.99592 13.1662 6.05655 13.1148 6.06357 13.0408C6.12967 13.1002 6.14391 13.1845 6.1237 13.2706ZM6.14046 13.6275C6.08439 13.7044 6.00645 13.7634 5.92038 13.8027C5.93733 13.7353 5.90553 13.6846 5.87024 13.6312C5.82771 13.5668 5.80698 13.5036 5.84165 13.4295C5.8578 13.468 5.87951 13.5 5.90498 13.533C5.94264 13.5844 5.96741 13.63 5.97321 13.696C6.01677 13.6637 6.03591 13.6155 6.0592 13.5688C6.09471 13.502 6.15201 13.4461 6.21783 13.4096C6.20034 13.4846 6.18687 13.5638 6.14046 13.6275ZM5.826 13.8567C5.83799 13.8993 5.84832 13.9417 5.84601 13.9863C5.88306 13.9464 5.93226 13.9163 5.97615 13.8842C6.03592 13.8358 6.1056 13.8017 6.15447 13.7402C6.14718 13.8308 6.1084 13.9046 6.03478 13.9598C5.95697 14.018 5.86311 14.0493 5.78646 14.1105C5.79794 14.0281 5.76767 13.9621 5.74186 13.8863C5.72035 13.814 5.74117 13.7405 5.79024 13.6853C5.78951 13.7465 5.8088 13.799 5.826 13.8567ZM5.65136 14.135C5.63524 14.1975 5.59045 14.2483 5.55987 14.3041C5.64233 14.2785 5.7151 14.2338 5.78965 14.1917C5.87844 14.1433 5.97486 14.1126 6.05524 14.0487C6.01524 14.1968 5.91609 14.2827 5.77105 14.3265C5.67187 14.3564 5.58829 14.3415 5.46795 14.3901C5.48175 14.3087 5.50606 14.2207 5.54458 14.1473C5.57448 14.0941 5.60762 14.0418 5.62609 13.9832C5.65283 14.0313 5.66549 14.0802 5.65136 14.135ZM5.34791 14.3616C5.31951 14.4103 5.28203 14.4512 5.23554 14.4835C5.35261 14.4909 5.44683 14.4168 5.56096 14.4135C5.63146 14.4115 5.69839 14.4334 5.77028 14.4269C5.68496 14.4844 5.59564 14.5347 5.49177 14.5481C5.35674 14.5656 5.23221 14.5316 5.08325 14.5449C5.15286 14.4958 5.18769 14.43 5.23109 14.3593C5.28759 14.271 5.34092 14.2081 5.45082 14.1939C5.4067 14.2435 5.38102 14.3049 5.34791 14.3616ZM4.93213 14.5559C5.13838 14.591 5.33601 14.6364 5.54665 14.6385C5.31087 14.7207 5.08871 14.7355 4.85487 14.6506C4.72849 14.6048 4.6316 14.5802 4.53615 14.5871C4.39667 14.5971 4.22716 14.6521 4.03956 14.85L3.96582 14.791C4.2347 14.5514 4.5865 14.4971 4.93212 14.5559L4.93213 14.5559Z" fill="#FFC72C"/>
</g>
<defs>
<clipPath id="clip0_202_4277">
<rect width="20" height="15" fill="white"/>
</clipPath>
</defs>
</svg>
