<svg width="20" height="15" viewBox="0 0 20 15" fill="none" xmlns="http://www.w3.org/2000/svg">
<g clip-path="url(#clip0_202_4321)">
<path fill-rule="evenodd" clip-rule="evenodd" d="M0 0H28.5V1.15431H0V0ZM0 2.30859H28.5V3.46291H0V2.30859ZM0 4.61425H28.5V5.77147H0V4.61425ZM0 6.92284H28.5V8.07716H0V6.92284ZM0 9.23144H28.5V10.3857H0V9.23144ZM0 11.5371H28.5V12.6914H0V11.5371ZM0 13.8457H28.5V15H0V13.8457Z" fill="#BD3D44"/>
<path fill-rule="evenodd" clip-rule="evenodd" d="M0 1.1543H28.5V2.30858H0V1.1543ZM0 3.46286H28.5V4.61423H0V3.46286ZM0 5.76855H28.5V6.92283H0V5.76855ZM0 8.07714H28.5V9.23142H0V8.07714ZM0 10.3857H28.5V11.54H0V10.3857ZM0 12.6914H28.5V13.8457H0V12.6914Z" fill="white"/>
<path fill-rule="evenodd" clip-rule="evenodd" d="M0 0H11.3994V8.07716H0V0Z" fill="#192F5D"/>
<path fill-rule="evenodd" clip-rule="evenodd" d="M0.949203 0.345703L1.05467 0.664984H1.38867L1.11911 0.861297L1.22167 1.18355L0.949203 0.984328L0.679672 1.18061L0.782203 0.861297L0.509766 0.664984H0.849609L0.949203 0.345703ZM2.85058 0.345703L2.95311 0.664984H3.29002L3.01755 0.861297L3.12011 1.18355L2.85058 0.984328L2.57811 1.18061L2.68064 0.861297L2.41111 0.664984H2.74511L2.85058 0.345703ZM4.74902 0.345703L4.85448 0.665016H5.18555L4.91602 0.861328L5.01852 1.18358L4.74608 0.984359L4.47655 1.18064L4.57908 0.861328L4.30661 0.665016H4.64355L4.74902 0.345703ZM6.65039 0.345703L6.75289 0.665016H7.08983L6.81736 0.861328L6.92283 1.18358L6.65036 0.984359L6.37792 1.18064L6.48339 0.861328L6.21092 0.665016H6.54492L6.65039 0.345703ZM8.54883 0.345703L8.6543 0.665016H8.98827L8.71873 0.861328L8.82127 1.18358L8.5488 0.984359L8.27927 1.18064L8.38183 0.861328L8.1123 0.665016H8.44627L8.54883 0.345703ZM10.4502 0.345703L10.5527 0.665016H10.8896L10.6172 0.861328L10.7226 1.18358L10.4502 0.984359L10.1777 1.18064L10.2832 0.861328L10.0107 0.665016H10.3476L10.4502 0.345703ZM1.90136 1.15423L2.00389 1.47361H2.3408L2.06833 1.66986L2.16795 1.98923L1.90427 1.79292L1.63183 1.9892L1.72848 1.66989L1.46483 1.47358H1.79883L1.90136 1.15423ZM3.7998 1.15423L3.90527 1.47361H4.23923L3.96677 1.66986L4.07227 1.98923L3.79977 1.79292L3.52733 1.9892L3.6328 1.66989L3.36033 1.47358H3.69723L3.7998 1.15423ZM5.70117 1.15423L5.80367 1.47361H6.14061L5.86814 1.66986L5.97067 1.98923L5.70114 1.79292L5.4287 1.9892L5.53123 1.66992L5.2617 1.47361H5.5957L5.70117 1.15423ZM7.59961 1.15423L7.70508 1.47361H8.03905L7.76658 1.66986L7.87205 1.98923L7.59958 1.79292L7.33005 1.9892L7.43261 1.66989L7.16014 1.47358H7.49998L7.59961 1.15423ZM9.50095 1.15423L9.60349 1.47361H9.94042L9.66795 1.66986L9.77048 1.98923L9.50095 1.79292L9.22849 1.9892L9.33105 1.66989L9.06152 1.47358H9.39548L9.50095 1.15423ZM0.949203 1.95998L1.05467 2.28517H1.38867L1.11911 2.48145L1.22167 2.8008L0.949203 2.60158L0.679672 2.8008L0.782203 2.47852L0.509766 2.28227H0.849609L0.949203 1.95998ZM2.85058 1.95998L2.95311 2.28217H3.29002L3.01755 2.47845L3.12011 2.79783L2.85058 2.59858L2.57811 2.7978L2.68064 2.47555L2.41111 2.27927H2.74511L2.85058 1.95998ZM4.74902 1.95998L4.85448 2.28223H5.18555L4.91602 2.47852L5.01852 2.79789L4.74608 2.59864L4.47655 2.79786L4.57908 2.47561L4.30661 2.27933H4.64355L4.74902 1.95998ZM6.65039 1.95998L6.75289 2.28223H7.08983L6.81736 2.47852L6.92283 2.79789L6.65036 2.59864L6.37792 2.79786L6.48339 2.47561L6.21092 2.27933H6.54492L6.65039 1.95998ZM8.54883 1.95998L8.6543 2.28223H8.98827L8.71873 2.47848L8.82127 2.79786L8.5488 2.59861L8.27927 2.79783L8.38183 2.47558L8.1123 2.2793H8.44627L8.54883 1.95998ZM10.4502 1.95998L10.5527 2.28223H10.8896L10.6172 2.47852L10.7226 2.79789L10.4502 2.59864L10.1777 2.79786L10.2832 2.47561L10.0107 2.27933H10.3476L10.4502 1.95998ZM1.90136 2.76855L2.00389 3.08789H2.3408L2.06833 3.28414L2.17089 3.60642L1.90136 3.4072L1.62889 3.60348L1.73142 3.28417L1.46189 3.08789H1.79592L1.90136 2.76855ZM3.7998 2.76855L3.90527 3.08789H4.23923L3.96677 3.28414L4.07227 3.60642L3.79977 3.4072L3.52733 3.60348L3.6328 3.28417L3.36033 3.08789H3.69723L3.7998 2.76855ZM5.70117 2.76855L5.80367 3.08789H6.14061L5.86814 3.28414L5.97067 3.60642L5.70114 3.4072L5.4287 3.60348L5.53123 3.28417L5.2617 3.08789H5.5957L5.70117 2.76855ZM7.59961 2.76855L7.70508 3.08789H8.03905L7.76952 3.28414L7.87205 3.60642L7.59958 3.4072L7.33005 3.60348L7.43261 3.28417L7.16014 3.08789H7.49998L7.59961 2.76855ZM9.50095 2.76855L9.60349 3.08789H9.94042L9.66795 3.28414L9.77048 3.60642L9.50095 3.4072L9.22849 3.60348L9.33105 3.28417L9.06152 3.08789H9.39548L9.50095 2.76855ZM0.949203 3.57714L1.05467 3.89648H1.38867L1.11911 4.09273L1.22167 4.41502L0.949203 4.2158L0.679672 4.41208L0.782203 4.09277L0.509766 3.89648H0.849609L0.949203 3.57714ZM2.85058 3.57714L2.95311 3.89648H3.29002L3.01755 4.09273L3.12011 4.41211L2.85058 4.2158L2.57811 4.41208L2.68064 4.09277L2.41111 3.89648H2.74511L2.85058 3.57714ZM4.74902 3.57714L4.85448 3.89648H5.18555L4.91602 4.09273L5.01852 4.41502L4.74608 4.2158L4.47655 4.41208L4.57908 4.09277L4.30661 3.89648H4.64355L4.74902 3.57714ZM6.65039 3.57714L6.75289 3.89648H7.08983L6.81736 4.09273L6.92283 4.41502L6.65036 4.2158L6.37792 4.41208L6.48339 4.09277L6.21092 3.89648H6.54492L6.65039 3.57714ZM8.54883 3.57714L8.6543 3.89648H8.98827L8.71873 4.09273L8.82127 4.41502L8.5488 4.2158L8.27927 4.41208L8.38183 4.09277L8.1123 3.89648H8.44627L8.54883 3.57714ZM10.4502 3.57714L10.5527 3.89648H10.8896L10.6172 4.09273L10.7226 4.41502L10.4502 4.2158L10.1777 4.41208L10.2832 4.09277L10.0107 3.89648H10.3476L10.4502 3.57714ZM1.90136 4.38573L2.00389 4.70508H2.3408L2.06833 4.90133L2.17089 5.2207L1.90136 5.02148L1.62889 5.2207L1.73142 4.89842L1.46189 4.70214H1.79592L1.90136 4.38573ZM3.7998 4.38573L3.90527 4.70508H4.23923L3.96677 4.90133L4.07227 5.2207L3.79977 5.02148L3.52733 5.2207L3.6328 4.89842L3.36033 4.70214H3.69723L3.7998 4.38573ZM5.70117 4.38573L5.80367 4.70508H6.14061L5.86814 4.90133L5.97067 5.2207L5.70114 5.02148L5.4287 5.2207L5.53123 4.89842L5.2617 4.70214H5.5957L5.70117 4.38573ZM7.59961 4.38573L7.70508 4.70508H8.03905L7.76952 4.90133L7.87205 5.2207L7.59958 5.02148L7.33005 5.2207L7.43261 4.89842L7.16014 4.70214H7.49998L7.59961 4.38573ZM9.50095 4.38573L9.60349 4.70508H9.94042L9.66795 4.90133L9.77048 5.2207L9.50095 5.02148L9.22849 5.2207L9.33105 4.89842L9.06152 4.70214H9.39548L9.50095 4.38573ZM0.949203 5.19139L1.05467 5.51367H1.38867L1.11911 5.70992L1.22167 6.02636L0.949203 5.83008L0.679672 6.02633L0.782203 5.70702L0.509766 5.51073H0.849609L0.949203 5.19139ZM2.85058 5.19139L2.95311 5.51367H3.29002L3.01755 5.70992L3.12305 6.02636L2.85055 5.83008L2.57811 6.02633L2.68358 5.70702L2.41111 5.51073H2.74511L2.85058 5.19139ZM4.74902 5.19139L4.85448 5.51367H5.18555L4.91602 5.70992L5.01852 6.02636L4.74608 5.83008L4.47655 6.02633L4.57908 5.70702L4.30661 5.51073H4.64355L4.74902 5.19139ZM6.65039 5.19139L6.75289 5.51367H7.08983L6.81736 5.70992L6.92283 6.02636L6.65036 5.83008L6.37792 6.02633L6.48339 5.70702L6.21092 5.51073H6.54492L6.65039 5.19139ZM8.54883 5.19139L8.6543 5.51367H8.98827L8.71873 5.70992L8.82127 6.02636L8.5488 5.83008L8.27927 6.02633L8.38183 5.70702L8.1123 5.51073H8.44627L8.54883 5.19139ZM10.4502 5.19139L10.5527 5.51367H10.8896L10.6172 5.70992L10.7226 6.02636L10.4502 5.83008L10.1777 6.02633L10.2832 5.70702L10.0107 5.51073H10.3476L10.4502 5.19139ZM1.90136 5.99998L2.00389 6.31933H2.3408L2.06833 6.51561L2.17089 6.83789L1.90136 6.63867L1.62889 6.83492L1.73142 6.51561L1.46189 6.31933H1.79592L1.90136 5.99998ZM3.7998 5.99998L3.90527 6.31933H4.23923L3.96677 6.51561L4.07227 6.83789L3.79977 6.63867L3.52733 6.83492L3.6328 6.51561L3.36033 6.31933H3.69723L3.7998 5.99998ZM5.70117 5.99998L5.80367 6.31933H6.14061L5.86814 6.51561L5.97067 6.83789L5.70114 6.63867L5.4287 6.83492L5.53123 6.51561L5.2617 6.31933H5.5957L5.70117 5.99998ZM7.59961 5.99998L7.70508 6.31933H8.03905L7.76952 6.51561L7.87205 6.83789L7.59958 6.63867L7.33005 6.83492L7.43261 6.51561L7.16014 6.31933H7.49998L7.59961 5.99998ZM9.50095 5.99998L9.60349 6.31933H9.94042L9.66795 6.51561L9.77048 6.83789L9.50095 6.63867L9.22849 6.83492L9.33105 6.51561L9.06152 6.31933H9.39548L9.50095 5.99998ZM0.949203 6.80858L1.05467 7.12792H1.38867L1.11911 7.3242L1.22167 7.64355L0.949203 7.44727L0.679672 7.64352L0.782203 7.32127L0.509766 7.12498H0.849609L0.949203 6.80858ZM2.85058 6.80858L2.95311 7.12792H3.29002L3.01755 7.3242L3.12305 7.64355L2.85055 7.44727L2.57811 7.64352L2.68358 7.32127L2.41111 7.12498H2.74511L2.85058 6.80858ZM4.74902 6.80858L4.85448 7.12792H5.18555L4.92186 7.3242L5.02439 7.64355L4.75192 7.44727L4.48239 7.64352L4.58495 7.32127L4.31248 7.12498H4.64939L4.74902 6.80858ZM6.65039 6.80858L6.75289 7.12792H7.08983L6.81736 7.3242L6.92283 7.64355L6.65036 7.44727L6.37792 7.64352L6.48339 7.32127L6.21092 7.12498H6.54492L6.65039 6.80858ZM8.54883 6.80858L8.6543 7.12792H8.98827L8.71873 7.3242L8.82127 7.64355L8.5488 7.44727L8.27927 7.64352L8.38183 7.32127L8.1123 7.12498H8.44627L8.54883 6.80858ZM10.4502 6.80858L10.5527 7.12792H10.8896L10.6172 7.3242L10.7226 7.64355L10.4502 7.44727L10.1777 7.64352L10.2832 7.32127L10.0107 7.12498H10.3476L10.4502 6.80858Z" fill="white"/>
</g>
<defs>
<clipPath id="clip0_202_4321">
<rect width="20" height="15" fill="white"/>
</clipPath>
</defs>
</svg>
