<svg width="20" height="15" viewBox="0 0 20 15" fill="none" xmlns="http://www.w3.org/2000/svg">
<g clip-path="url(#clip0_202_4311)">
<path d="M0 0H20V15H0V0Z" fill="white"/>
<path d="M7.40723 1.66675H19.9998V3.33341H7.40723V1.66675Z" fill="#0038A8"/>
<path d="M7.40723 5H19.9998V6.66667H7.40723V5Z" fill="#0038A8"/>
<path d="M0 8.3335H20V10.0002H0V8.3335Z" fill="#0038A8"/>
<path d="M0 11.6667H20V13.3334H0V11.6667Z" fill="#0038A8"/>
<path d="M3.46224 4.98145L3.73814 5.39337C2.60444 6.21369 3.29658 6.69878 2.49316 6.96136C2.99286 6.47378 2.42712 6.39858 2.84813 5.38231" fill="#FCD116"/>
<path d="M3.46224 4.98145L3.73814 5.39337C2.60444 6.21369 3.29658 6.69878 2.49316 6.96136C2.99286 6.47378 2.42712 6.39858 2.84813 5.38231" stroke="#7B3F00" stroke-width="0.03" stroke-miterlimit="20" stroke-linecap="square"/>
<path d="M2.95162 4.59219L2.84246 5.06568C1.46785 4.89326 1.59179 5.6942 0.848906 5.3471C1.54621 5.33417 1.22772 4.89976 2.25449 4.46164" fill="#FCD116"/>
<path d="M2.95162 4.59219L2.84246 5.06568C1.46785 4.89326 1.59179 5.6942 0.848905 5.3471C1.54621 5.33417 1.22772 4.89976 2.25449 4.46164" stroke="#7B3F00" stroke-width="0.03" stroke-miterlimit="20" stroke-linecap="square"/>
<path d="M2.95249 4.60244L2.73663 4.57126L2.73862 4.57983C2.15606 4.73396 1.83535 4.97473 1.5843 5.15794C1.45872 5.24952 1.35041 5.32746 1.23407 5.3714C1.15701 5.40096 1.07484 5.41293 0.994264 5.40635C1.58597 5.59305 1.56548 4.91288 2.84357 5.07274L2.95249 4.60244Z" fill="#7B3F00" stroke="#7B3F00" stroke-width="0.03" stroke-miterlimit="20" stroke-linecap="square"/>
<path d="M2.72372 4.5504C1.55455 4.85511 1.42584 5.51122 0.855026 5.33355" stroke="#7B3F00" stroke-width="0.03" stroke-miterlimit="20"/>
<path d="M3.65102 4.16674L3.26205 3.77783L1.51172 6.30574L4.03998 4.55565L3.65102 4.16674L1.51172 6.30574L3.65102 4.16674Z" fill="#FCD116"/>
<path d="M3.65102 4.16674L3.26205 3.77783L1.51172 6.30574M3.65102 4.16674L4.03998 4.55565L1.51172 6.30574M3.65102 4.16674L1.51172 6.30574" stroke="#7B3F00" stroke-width="0.03" stroke-miterlimit="20"/>
<path d="M2.84676 3.9954L2.44253 4.24984C1.59246 3.12814 1.12626 3.78306 0.842368 2.99782C1.34297 3.49604 1.40766 2.95202 2.43444 3.39015" fill="#FCD116"/>
<path d="M2.84676 3.9954L2.44253 4.24984C1.59246 3.12814 1.12626 3.78306 0.842368 2.99782C1.34297 3.49604 1.40766 2.95202 2.43444 3.39015" stroke="#7B3F00" stroke-width="0.03" stroke-miterlimit="20" stroke-linecap="square"/>
<path d="M2.84047 3.99795L2.70985 3.81962L2.7053 3.82711C2.18745 3.51393 1.79419 3.45149 1.49 3.39891C1.33788 3.37255 1.2074 3.34908 1.09486 3.29582C1.01999 3.26086 0.953728 3.20981 0.90146 3.1468C1.18929 3.70702 1.64674 3.21242 2.43735 4.25079L2.84047 3.99795Z" fill="#7B3F00" stroke="#7B3F00" stroke-width="0.03" stroke-miterlimit="20" stroke-linecap="square"/>
<path d="M2.72062 3.79015C1.68132 3.16931 1.13051 3.54064 0.851921 3.007" stroke="#7B3F00" stroke-width="0.03" stroke-miterlimit="20"/>
<path d="M3.65039 4.1667V3.6167L0.624965 4.1667L3.65039 4.7167V4.1667H0.624965H3.65039Z" fill="#FCD116"/>
<path d="M3.65039 4.1667V3.6167L0.624965 4.1667M3.65039 4.1667V4.7167L0.624965 4.1667M3.65039 4.1667H0.624965" stroke="#7B3F00" stroke-width="0.03" stroke-miterlimit="20"/>
<path d="M3.65039 4.16675H0.624965L3.65039 4.71675" fill="#7B3F00"/>
<path d="M3.20928 3.45701L2.72287 3.3608C2.94438 1.97921 2.1119 2.12554 2.4943 1.37185C2.48579 2.06991 2.96878 1.7947 3.38979 2.81097" fill="#FCD116"/>
<path d="M3.20928 3.45701L2.72287 3.3608C2.94438 1.97921 2.1119 2.12554 2.4943 1.37185C2.48579 2.06991 2.96878 1.7947 3.38979 2.81097" stroke="#7B3F00" stroke-width="0.03" stroke-miterlimit="20" stroke-linecap="square"/>
<path d="M3.20871 3.45705L3.24794 3.23939L3.23894 3.24163C3.09661 2.66091 2.85583 2.34559 2.67284 2.09862C2.58137 1.97507 2.50358 1.86848 2.46144 1.75288C2.43306 1.67632 2.42315 1.59414 2.43253 1.51303C2.21955 2.11252 2.9287 2.07282 2.72222 3.36088L3.20871 3.45705Z" fill="#7B3F00" stroke="#7B3F00" stroke-width="0.03" stroke-miterlimit="20" stroke-linecap="square"/>
<path d="M3.26646 3.235C2.97976 2.06389 2.28887 1.95315 2.4946 1.37185" stroke="#7B3F00" stroke-width="0.03" stroke-miterlimit="20"/>
<path d="M3.65205 4.1665L4.04102 3.77759L1.51275 2.0275L3.26309 4.55541L3.65205 4.1665L1.51275 2.0275L3.65205 4.1665Z" fill="#FCD116"/>
<path d="M3.65205 4.1665L4.04102 3.77759L1.51275 2.0275M3.65205 4.1665L3.26309 4.55541L1.51275 2.0275M3.65205 4.1665L1.51275 2.0275" stroke="#7B3F00" stroke-width="0.03" stroke-miterlimit="20"/>
<path d="M3.65137 4.1665L1.51207 2.02751L3.2624 4.55541" fill="#7B3F00"/>
<path d="M3.85449 3.33976L3.55905 2.91876C4.70359 2.13308 3.97759 1.6258 4.79749 1.38811C4.29651 1.86055 4.87822 1.95868 4.47285 2.96283" fill="#FCD116"/>
<path d="M3.85449 3.33976L3.55905 2.91876C4.70359 2.13308 3.97759 1.6258 4.79749 1.38811C4.29651 1.86055 4.87822 1.95868 4.47285 2.96283" stroke="#7B3F00" stroke-width="0.03" stroke-miterlimit="20" stroke-linecap="square"/>
<path d="M3.8565 3.34734L4.04128 3.22631L4.03291 3.22127C4.33997 2.71757 4.38362 2.32439 4.42202 2.02054C4.44129 1.86858 4.45875 1.73831 4.50948 1.62793C4.54272 1.55449 4.59388 1.4907 4.6588 1.44177C4.07087 1.69829 4.63303 2.19008 3.55887 2.92507L3.8565 3.34734Z" fill="#7B3F00" stroke="#7B3F00" stroke-width="0.03" stroke-miterlimit="20" stroke-linecap="square"/>
<path d="M4.04546 3.23381C4.67557 2.2124 4.22608 1.62759 4.80577 1.37658" stroke="#7B3F00" stroke-width="0.03" stroke-miterlimit="20"/>
<path d="M3.65109 4.1665H4.20117L3.65109 1.1415L3.10102 4.1665H3.65109V1.1415V4.1665Z" fill="#FCD116"/>
<path d="M3.65109 4.1665H4.20117L3.65109 1.1415M3.65109 4.1665H3.10102L3.65109 1.1415M3.65109 4.1665V1.1415" stroke="#7B3F00" stroke-width="0.03" stroke-miterlimit="20"/>
<path d="M3.65039 4.1665V1.1415L3.10031 4.1665" fill="#7B3F00"/>
<path d="M4.36141 3.72363L4.45764 3.23729C5.83942 3.45877 5.69307 2.62641 6.44686 3.00876C5.7487 3.00025 6.05974 3.46189 5.04333 3.88284" fill="#FCD116"/>
<path d="M4.36141 3.72363L4.45764 3.23729C5.83942 3.45877 5.69307 2.62641 6.44686 3.00876C5.7487 3.00025 6.05974 3.46189 5.04333 3.88284" stroke="#7B3F00" stroke-width="0.03" stroke-miterlimit="20" stroke-linecap="square"/>
<path d="M4.36203 3.72362L4.57973 3.76285L4.57749 3.75385C5.15829 3.61154 5.47365 3.3708 5.72066 3.18783C5.84422 3.09637 5.95082 3.01859 6.06644 2.97646C6.14301 2.94808 6.2252 2.93818 6.30632 2.94756C5.70675 2.7346 5.74646 3.44365 4.45822 3.2372L4.36203 3.72362Z" fill="#7B3F00" stroke="#7B3F00" stroke-width="0.03" stroke-miterlimit="20" stroke-linecap="square"/>
<path d="M4.58287 3.78062C5.75415 3.49397 5.8649 2.80317 6.44629 3.00888" stroke="#7B3F00" stroke-width="0.03" stroke-miterlimit="20"/>
<path d="M3.65108 4.16627L4.04004 4.55518L5.79037 2.02727L3.26211 3.77736L3.65108 4.16627L5.79037 2.02727L3.65108 4.16627Z" fill="#FCD116"/>
<path d="M3.65108 4.16627L4.04004 4.55518L5.79037 2.02727M3.65108 4.16627L3.26211 3.77736L5.79037 2.02727M3.65108 4.16627L5.79037 2.02727" stroke="#7B3F00" stroke-width="0.03" stroke-miterlimit="20"/>
<path d="M3.65137 4.16626L5.79067 2.02726L3.2624 3.77735" fill="#7B3F00"/>
<path d="M4.4557 4.33829L4.85993 4.08386C5.70999 5.20554 6.17618 4.55063 6.46007 5.33585C5.95948 4.83764 5.88299 5.37582 4.85622 4.9377" fill="#FCD116"/>
<path d="M4.4557 4.33829L4.85993 4.08386C5.70999 5.20554 6.17618 4.55063 6.46007 5.33585C5.95948 4.83764 5.88299 5.37582 4.85622 4.9377" stroke="#7B3F00" stroke-width="0.03" stroke-miterlimit="20" stroke-linecap="square"/>
<path d="M4.46226 4.33555L4.59289 4.51387L4.59744 4.50639C5.11528 4.81957 5.50855 4.882 5.81274 4.93459C5.96486 4.96094 6.09533 4.98441 6.20788 5.03767C6.28274 5.07263 6.34901 5.12369 6.40127 5.18669C6.11344 4.62647 5.656 5.12108 4.86539 4.08271L4.46226 4.33555Z" fill="#7B3F00" stroke="#7B3F00" stroke-width="0.03" stroke-miterlimit="20" stroke-linecap="square"/>
<path d="M4.58212 4.54335C5.62141 5.16419 6.17222 4.79285 6.45081 5.3265" stroke="#7B3F00" stroke-width="0.03" stroke-miterlimit="20"/>
<path d="M3.65039 4.1668V4.7168L6.67582 4.1668L3.65039 3.6168V4.1668H6.67582H3.65039Z" fill="#FCD116"/>
<path d="M3.65039 4.1668V4.7168L6.67582 4.1668M3.65039 4.1668V3.6168L6.67582 4.1668M3.65039 4.1668H6.67582" stroke="#7B3F00" stroke-width="0.03" stroke-miterlimit="20"/>
<path d="M3.65039 4.16675H6.67582L3.65039 3.61675" fill="#7B3F00"/>
<path d="M4.09349 4.87623L4.57989 4.97244C4.35838 6.35403 5.19086 6.20769 4.80846 6.96138C4.81697 6.26332 4.3573 6.58662 3.93629 5.57035" fill="#FCD116"/>
<path d="M4.09349 4.87623L4.57989 4.97244C4.35838 6.35403 5.19086 6.20769 4.80846 6.96138C4.81697 6.26332 4.3573 6.58662 3.93629 5.57035" stroke="#7B3F00" stroke-width="0.03" stroke-miterlimit="20" stroke-linecap="square"/>
<path d="M4.09305 4.8762L4.05382 5.09386L4.06281 5.09163C4.20515 5.67234 4.44592 5.98766 4.62891 6.23463C4.72039 6.35818 4.79818 6.46477 4.84032 6.58037C4.8687 6.65693 4.8786 6.73911 4.86922 6.82022C5.08221 6.22073 4.37306 6.26043 4.57954 4.97238L4.09305 4.8762Z" fill="#7B3F00" stroke="#7B3F00" stroke-width="0.03" stroke-miterlimit="20" stroke-linecap="square"/>
<path d="M4.03628 5.09801C4.32297 6.26912 5.01386 6.37986 4.80813 6.96116" stroke="#7B3F00" stroke-width="0.03" stroke-miterlimit="20"/>
<path d="M3.65068 4.16676L3.26172 4.55566L5.78998 6.30575L4.03965 3.77785L3.65068 4.16676L5.78998 6.30575L3.65068 4.16676Z" fill="#FCD116"/>
<path d="M3.65068 4.16676L3.26172 4.55566L5.78998 6.30575M3.65068 4.16676L4.03965 3.77785L5.78998 6.30575M3.65068 4.16676L5.78998 6.30575" stroke="#7B3F00" stroke-width="0.03" stroke-miterlimit="20"/>
<path d="M3.65039 4.16675L5.78969 6.30575L4.03935 3.77784" fill="#7B3F00"/>
<path d="M3.4627 4.98145L3.28103 5.10762L3.28897 5.1124C2.97893 5.62366 2.92619 6.01685 2.88092 6.32086C2.85823 6.47289 2.83786 6.60327 2.7859 6.7148C2.75183 6.789 2.70071 6.85411 2.63672 6.90484C3.21128 6.63152 2.68177 6.15821 3.73869 5.3934L3.4627 4.98145Z" fill="#7B3F00" stroke="#7B3F00" stroke-width="0.03" stroke-miterlimit="20" stroke-linecap="square"/>
<path d="M3.26502 5.09839C2.63952 6.12919 3.04974 6.69596 2.49316 6.96155" stroke="#7B3F00" stroke-width="0.03" stroke-miterlimit="20"/>
<path d="M3.65164 4.16675H3.10156L3.65164 7.19175L4.20172 4.16675H3.65164V7.19175V4.16675Z" fill="#FCD116"/>
<path d="M3.65164 4.16675H3.10156L3.65164 7.19175M3.65164 4.16675H4.20172L3.65164 7.19175M3.65164 4.16675V7.19175" stroke="#7B3F00" stroke-width="0.03" stroke-miterlimit="20"/>
<path d="M3.65039 4.1665V7.1915L4.20047 4.1665" fill="#7B3F00"/>
<path d="M3.65102 4.1665L1.51172 6.3055L4.03998 4.55541" fill="#7B3F00"/>
<path d="M3.65104 5.17509C4.208 5.17509 4.65951 4.72365 4.65951 4.16677C4.65951 3.60989 4.208 3.15845 3.65104 3.15845C3.09408 3.15845 2.64258 3.60989 2.64258 4.16677C2.64258 4.72365 3.09408 5.17509 3.65104 5.17509Z" fill="#FCD116" stroke="#7B3F00" stroke-width="0.03" stroke-miterlimit="20"/>
<path d="M4.39239 3.76317C4.32822 3.8365 4.29155 3.70817 4.06235 3.70817C3.83315 3.70817 3.79648 3.84567 3.7598 3.81817C3.72313 3.79067 3.95233 3.62567 4.02567 3.6165C4.09902 3.60733 4.30988 3.68067 4.39239 3.76317ZM4.12652 3.84567C4.1907 3.90067 4.13569 4.01983 4.07151 4.01983C4.00734 4.01983 3.88816 3.90983 3.94316 3.8365" fill="#7B3F00"/>
<path d="M3.82422 3.92814C3.83339 3.81814 3.92507 3.7998 4.07175 3.7998C4.21844 3.7998 4.28262 3.9098 4.33762 3.9373C4.27345 3.9373 4.21844 3.84564 4.07175 3.84564C3.92507 3.84564 3.92507 3.84564 3.82422 3.9373M3.85172 3.95564C3.88839 3.90064 3.93423 4.01064 4.03508 4.01064C4.13593 4.01064 4.19094 3.98314 4.25511 3.9373C4.31929 3.89147 4.16343 4.0473 4.06259 4.0473C3.96174 4.0473 3.82422 3.9923 3.85172 3.95564Z" fill="#7B3F00"/>
<path d="M3.13696 3.83643C3.09112 3.85476 3.01777 3.94641 3.13696 4.01058C3.04528 3.94641 3.11862 3.85476 3.13696 3.83643Z" fill="#7B3F00"/>
<path d="M4.16406 3.83643C4.1824 3.85476 4.25574 3.94641 4.16406 4.01058C4.28325 3.94641 4.2099 3.85476 4.16406 3.83643Z" fill="#7B3F00"/>
<path d="M3.50304 4.23071C3.42053 4.24905 3.44802 4.36822 3.37468 4.37738C3.30134 4.38655 3.26468 4.46905 3.27385 4.45988C3.31969 4.42321 3.42054 4.39571 3.49388 4.39571C3.56723 4.39571 3.58556 4.44156 3.64974 4.44156C3.71391 4.44156 3.73225 4.39571 3.80559 4.39571C3.87893 4.39571 3.97979 4.42321 4.02563 4.45988C4.03479 4.46905 3.99814 4.38655 3.92479 4.37738C3.85145 4.36822 3.87894 4.24905 3.79643 4.23071C3.79643 4.26738 3.82391 4.25821 3.83308 4.31321C3.83308 4.35904 3.75058 4.35904 3.73224 4.31321C3.75058 4.38654 3.69558 4.38654 3.64974 4.38654C3.6039 4.38654 3.54889 4.38654 3.56723 4.31321C3.54889 4.35904 3.4664 4.35904 3.4664 4.31321C3.47556 4.25821 3.50304 4.26738 3.50304 4.23071Z" fill="#7B3F00"/>
<path d="M3.21997 4.54248C3.14663 4.59748 3.12831 4.62498 3.11914 4.68915C3.14113 4.65067 3.15193 4.63486 3.16863 4.61223C3.16421 4.61034 3.16041 4.60859 3.15584 4.60666C3.16117 4.60729 3.16595 4.60812 3.17109 4.60884C3.18218 4.59387 3.19203 4.5809 3.21997 4.54248Z" fill="#7B3F00"/>
<path d="M3.17011 4.60864C3.16985 4.609 3.1692 4.60987 3.16895 4.61023C3.18041 4.61289 3.19257 4.61413 3.20532 4.61418C3.19412 4.6122 3.18234 4.61035 3.17011 4.60864Z" fill="#7B3F00"/>
<path d="M3.20605 4.61437C3.26323 4.62447 3.30811 4.63762 3.34926 4.65093C3.40057 4.64713 3.47135 4.63414 3.65064 4.63414C3.82992 4.63414 3.90071 4.64713 3.95202 4.65093C3.99317 4.63762 4.03805 4.62447 4.09522 4.61437C3.9942 4.61473 3.85955 4.54248 3.79733 4.54248C3.72399 4.54248 3.70565 4.5608 3.65064 4.5608C3.59563 4.5608 3.57729 4.54248 3.50395 4.54248C3.44173 4.54248 3.30708 4.61474 3.20605 4.61437Z" fill="#7B3F00"/>
<path d="M4.0957 4.61418C4.10845 4.61413 4.12061 4.61289 4.13207 4.61023C4.13181 4.60987 4.13117 4.609 4.13091 4.60864C4.11868 4.61035 4.1069 4.6122 4.0957 4.61418Z" fill="#7B3F00"/>
<path d="M4.12994 4.60884C4.13507 4.60812 4.13985 4.60732 4.14519 4.60666C4.14062 4.60859 4.13682 4.61034 4.1324 4.61223C4.1491 4.63486 4.1599 4.65067 4.18189 4.68915C4.17272 4.62498 4.1544 4.59748 4.08105 4.54248C4.109 4.5809 4.11885 4.59387 4.12994 4.60884Z" fill="#7B3F00"/>
<path d="M4.13249 4.61196C4.13239 4.61178 4.13213 4.61142 4.13202 4.61133C4.03634 4.64819 4.00265 4.65445 3.95161 4.65067C3.86469 4.67878 3.79303 4.70722 3.65023 4.70722C3.50743 4.70722 3.43577 4.67878 3.34885 4.65067C3.2978 4.65445 3.26412 4.64819 3.16844 4.61133C3.16834 4.61151 3.16808 4.61187 3.16797 4.61196C3.45598 4.7359 3.42449 4.78053 3.65023 4.78053C3.87596 4.78053 3.84448 4.7359 4.13249 4.61196Z" fill="#7B3F00"/>
<path d="M3.16853 4.61039C3.16872 4.61017 3.16918 4.60966 3.16937 4.60946C3.16459 4.60858 3.15978 4.60776 3.15527 4.60645C3.16051 4.60809 3.16365 4.60889 3.16853 4.61039Z" fill="#7B3F00"/>
<path d="M4.1317 4.61039C4.13658 4.60889 4.13972 4.60809 4.14495 4.60645C4.14045 4.60776 4.13564 4.60857 4.13086 4.60945C4.13105 4.60967 4.13151 4.61019 4.1317 4.61039Z" fill="#7B3F00"/>
<path d="M2.90741 3.76317C2.97159 3.8365 3.00826 3.70817 3.23746 3.70817C3.46666 3.70817 3.50333 3.84567 3.54 3.81817C3.57667 3.79067 3.34747 3.62567 3.27413 3.6165C3.20079 3.60733 2.98992 3.68067 2.90741 3.76317ZM3.17328 3.84567C3.10911 3.90067 3.16411 4.01983 3.22829 4.01983C3.29247 4.01983 3.41165 3.90983 3.35664 3.8365" fill="#7B3F00"/>
<path d="M3.47559 3.92814C3.46642 3.81814 3.37474 3.7998 3.22805 3.7998C3.08136 3.7998 3.01719 3.9098 2.96218 3.9373C3.02636 3.9373 3.08136 3.84564 3.22805 3.84564C3.37474 3.84564 3.37474 3.84564 3.47559 3.9373M3.44808 3.95564C3.41141 3.90064 3.36557 4.01064 3.26472 4.01064C3.16388 4.01064 3.10887 3.98314 3.04469 3.9373C2.98052 3.89147 3.13637 4.0473 3.23722 4.0473C3.33807 4.0473 3.47559 3.9923 3.44808 3.95564Z" fill="#7B3F00"/>
<path d="M3.65006 4.86328C3.60422 4.86328 3.48504 4.89078 3.65006 4.89078C3.81508 4.89078 3.6959 4.86328 3.65006 4.86328Z" fill="#7B3F00"/>
</g>
<defs>
<clipPath id="clip0_202_4311">
<rect width="20" height="15" fill="white"/>
</clipPath>
</defs>
</svg>
