<svg width="20" height="15" viewBox="0 0 20 15" fill="none" xmlns="http://www.w3.org/2000/svg">
<g clip-path="url(#clip0_202_4328)">
<path d="M0 0H20V15H0V0Z" fill="#1EB53A"/>
<path d="M0 0H20V7.5H0V0Z" fill="#0099B5"/>
<path d="M0 4.80005H20V10.2H0V4.80005Z" fill="#CE1126"/>
<path d="M0 5.1001H20V9.9001H0V5.1001Z" fill="white"/>
<path d="M3.39964 4.2001C4.39376 4.2001 5.19966 3.39421 5.19966 2.4001C5.19966 1.40599 4.39376 0.600098 3.39964 0.600098C2.40551 0.600098 1.59961 1.40599 1.59961 2.4001C1.59961 3.39421 2.40551 4.2001 3.39964 4.2001Z" fill="white"/>
<path d="M4.00022 4.2001C4.99435 4.2001 5.80025 3.39421 5.80025 2.4001C5.80025 1.40599 4.99435 0.600098 4.00022 0.600098C3.00609 0.600098 2.2002 1.40599 2.2002 2.4001C2.2002 3.39421 3.00609 4.2001 4.00022 4.2001Z" fill="#0099B5"/>
<path d="M7.35938 3.47998L7.24813 3.82236L7.41932 3.87798" fill="white"/>
<path d="M7.35938 3.47998L7.47062 3.82236L7.29943 3.87798" fill="white"/>
<path d="M7.70215 3.72852L7.35705 3.76006L7.34214 3.90852" fill="white"/>
<path d="M7.70215 3.71094L7.39663 3.94032L7.3051 3.81247" fill="white"/>
<path d="M7.0166 3.71094L7.32212 3.94032L7.41365 3.81247" fill="white"/>
<path d="M7.0166 3.72876L7.3617 3.76031L7.37661 3.90876" fill="white"/>
<path d="M7.57031 4.12109L7.4737 3.78894L7.28787 3.85478" fill="white"/>
<path d="M7.56055 4.13135L7.27941 3.93135L7.39532 3.77412" fill="white"/>
<path d="M7.14062 4.13135L7.43987 3.91067L7.34207 3.77412" fill="white"/>
<path d="M7.14746 4.1394L7.2697 3.78875L7.4299 3.8361" fill="white"/>
<path d="M7.35938 2.04004L7.24813 2.38242L7.41932 2.43804" fill="white"/>
<path d="M7.35938 2.04004L7.47062 2.38242L7.29943 2.43804" fill="white"/>
<path d="M7.70215 2.28857L7.35705 2.32012L7.34214 2.46857" fill="white"/>
<path d="M7.70215 2.271L7.39663 2.50038L7.3051 2.37253" fill="white"/>
<path d="M7.0166 2.271L7.32212 2.50038L7.41365 2.37253" fill="white"/>
<path d="M7.0166 2.28882L7.3617 2.32036L7.37661 2.46882" fill="white"/>
<path d="M7.57031 2.68115L7.4737 2.349L7.28787 2.41484" fill="white"/>
<path d="M7.56055 2.69141L7.27941 2.49141L7.39532 2.33418" fill="white"/>
<path d="M7.14062 2.69141L7.43987 2.47073L7.34207 2.33418" fill="white"/>
<path d="M7.14746 2.69946L7.2697 2.34881L7.4299 2.39616" fill="white"/>
<path d="M7.35938 0.600098L7.24813 0.942478L7.41932 0.998101" fill="white"/>
<path d="M7.35938 0.600098L7.47062 0.942478L7.29943 0.998101" fill="white"/>
<path d="M7.70215 0.848633L7.35705 0.880178L7.34214 1.02863" fill="white"/>
<path d="M7.70215 0.831055L7.39663 1.06044L7.3051 0.932591" fill="white"/>
<path d="M7.0166 0.831055L7.32212 1.06044L7.41365 0.932591" fill="white"/>
<path d="M7.0166 0.848877L7.3617 0.880422L7.37661 1.02888" fill="white"/>
<path d="M7.57031 1.24121L7.4737 0.909055L7.28787 0.974902" fill="white"/>
<path d="M7.56055 1.25146L7.27941 1.05147L7.39532 0.894239" fill="white"/>
<path d="M7.14062 1.25146L7.43987 1.03078L7.34207 0.894239" fill="white"/>
<path d="M7.14746 1.25952L7.2697 0.908869L7.4299 0.956219" fill="white"/>
<path d="M8.79688 3.47998L8.68563 3.82236L8.85682 3.87798" fill="white"/>
<path d="M8.79688 3.47998L8.90812 3.82236L8.73693 3.87798" fill="white"/>
<path d="M9.14062 3.72876L8.79552 3.76031L8.78062 3.90876" fill="white"/>
<path d="M9.14062 3.71094L8.8351 3.94032L8.74357 3.81247" fill="white"/>
<path d="M8.45703 3.71094L8.76255 3.94032L8.85408 3.81247" fill="white"/>
<path d="M8.45703 3.72876L8.80213 3.76031L8.81704 3.90876" fill="white"/>
<path d="M9.01074 4.12109L8.91413 3.78894L8.7283 3.85478" fill="white"/>
<path d="M9.00098 4.13135L8.71984 3.93135L8.83575 3.77412" fill="white"/>
<path d="M8.5791 4.13135L8.87835 3.91067L8.78054 3.77412" fill="white"/>
<path d="M8.58691 4.13965L8.70915 3.789L8.86935 3.83635" fill="white"/>
<path d="M8.79688 2.04004L8.68563 2.38242L8.85682 2.43804" fill="white"/>
<path d="M8.79688 2.04004L8.90812 2.38242L8.73693 2.43804" fill="white"/>
<path d="M9.14062 2.28882L8.79552 2.32036L8.78062 2.46882" fill="white"/>
<path d="M9.14062 2.271L8.8351 2.50038L8.74357 2.37253" fill="white"/>
<path d="M8.45703 2.271L8.76255 2.50038L8.85408 2.37253" fill="white"/>
<path d="M8.45703 2.28882L8.80213 2.32036L8.81704 2.46882" fill="white"/>
<path d="M9.01074 2.68115L8.91413 2.349L8.7283 2.41484" fill="white"/>
<path d="M9.00098 2.69141L8.71984 2.49141L8.83575 2.33418" fill="white"/>
<path d="M8.5791 2.69141L8.87835 2.47073L8.78054 2.33418" fill="white"/>
<path d="M8.58691 2.69971L8.70915 2.34905L8.86935 2.3964" fill="white"/>
<path d="M8.79688 0.600098L8.68563 0.942478L8.85682 0.998101" fill="white"/>
<path d="M8.79688 0.600098L8.90812 0.942478L8.73693 0.998101" fill="white"/>
<path d="M9.14062 0.848877L8.79552 0.880422L8.78062 1.02888" fill="white"/>
<path d="M9.14062 0.831055L8.8351 1.06044L8.74357 0.932591" fill="white"/>
<path d="M8.45703 0.831055L8.76255 1.06044L8.85408 0.932591" fill="white"/>
<path d="M8.45703 0.848877L8.80213 0.880422L8.81704 1.02888" fill="white"/>
<path d="M9.01074 1.24121L8.91413 0.909055L8.7283 0.974902" fill="white"/>
<path d="M9.00098 1.25146L8.71984 1.05147L8.83575 0.894239" fill="white"/>
<path d="M8.5791 1.25146L8.87835 1.03078L8.78054 0.894239" fill="white"/>
<path d="M8.58691 1.25977L8.70915 0.909113L8.86935 0.956464" fill="white"/>
<path d="M10.2393 3.47998L10.128 3.82236L10.2992 3.87798" fill="white"/>
<path d="M10.2393 3.47998L10.3505 3.82236L10.1793 3.87798" fill="white"/>
<path d="M10.5811 3.72876L10.236 3.76031L10.221 3.90876" fill="white"/>
<path d="M10.5811 3.71118L10.2755 3.94056L10.184 3.81272" fill="white"/>
<path d="M9.89844 3.71094L10.204 3.94032L10.2955 3.81247" fill="white"/>
<path d="M9.89844 3.72876L10.2435 3.76031L10.2584 3.90876" fill="white"/>
<path d="M10.4512 4.12085L10.3546 3.78869L10.1687 3.85454" fill="white"/>
<path d="M10.4414 4.1311L10.1603 3.93111L10.2762 3.77388" fill="white"/>
<path d="M10.0205 4.1311L10.3198 3.91042L10.222 3.77388" fill="white"/>
<path d="M10.0283 4.13965L10.1506 3.789L10.3108 3.83635" fill="white"/>
<path d="M10.2393 2.04004L10.128 2.38242L10.2992 2.43804" fill="white"/>
<path d="M10.2393 2.04004L10.3505 2.38242L10.1793 2.43804" fill="white"/>
<path d="M10.5811 2.28882L10.236 2.32036L10.221 2.46882" fill="white"/>
<path d="M10.5811 2.27124L10.2755 2.50062L10.184 2.37278" fill="white"/>
<path d="M9.89844 2.271L10.204 2.50038L10.2955 2.37253" fill="white"/>
<path d="M9.89844 2.28882L10.2435 2.32036L10.2584 2.46882" fill="white"/>
<path d="M10.4512 2.68091L10.3546 2.34875L10.1687 2.4146" fill="white"/>
<path d="M10.4414 2.69116L10.1603 2.49116L10.2762 2.33394" fill="white"/>
<path d="M10.0205 2.69116L10.3198 2.47048L10.222 2.33394" fill="white"/>
<path d="M10.0283 2.69971L10.1506 2.34905L10.3108 2.3964" fill="white"/>
<path d="M10.2393 0.600098L10.128 0.942478L10.2992 0.998101" fill="white"/>
<path d="M10.2393 0.600098L10.3505 0.942478L10.1793 0.998101" fill="white"/>
<path d="M10.5811 0.848877L10.236 0.880422L10.221 1.02888" fill="white"/>
<path d="M10.5811 0.831299L10.2755 1.06068L10.184 0.932835" fill="white"/>
<path d="M9.89844 0.831055L10.204 1.06044L10.2955 0.932591" fill="white"/>
<path d="M9.89844 0.848877L10.2435 0.880422L10.2584 1.02888" fill="white"/>
<path d="M10.4512 1.24097L10.3546 0.90881L10.1687 0.974657" fill="white"/>
<path d="M10.4414 1.25122L10.1603 1.05122L10.2762 0.893995" fill="white"/>
<path d="M10.0205 1.25122L10.3198 1.03054L10.222 0.893995" fill="white"/>
<path d="M10.0283 1.25977L10.1506 0.909113L10.3108 0.956464" fill="white"/>
<path d="M4.47852 3.47998L4.36727 3.82236L4.53846 3.87798" fill="white"/>
<path d="M4.47852 3.47998L4.58976 3.82236L4.41857 3.87798" fill="white"/>
<path d="M4.82324 3.72876L4.47814 3.76031L4.46324 3.90876" fill="white"/>
<path d="M4.82324 3.71118L4.51772 3.94056L4.42619 3.81272" fill="white"/>
<path d="M4.13867 3.71094L4.44419 3.94032L4.53573 3.81247" fill="white"/>
<path d="M4.13867 3.72876L4.48377 3.76031L4.49868 3.90876" fill="white"/>
<path d="M4.69238 4.12109L4.59577 3.78894L4.40994 3.85478" fill="white"/>
<path d="M4.68262 4.13135L4.40148 3.93135L4.51739 3.77412" fill="white"/>
<path d="M4.26074 4.13135L4.55999 3.91067L4.46219 3.77412" fill="white"/>
<path d="M4.26855 4.13965L4.39079 3.789L4.551 3.83635" fill="white"/>
<path d="M5.91895 3.47998L5.8077 3.82236L5.97889 3.87798" fill="white"/>
<path d="M5.91895 3.47998L6.03019 3.82236L5.859 3.87798" fill="white"/>
<path d="M6.26074 3.72876L5.91564 3.76031L5.90074 3.90876" fill="white"/>
<path d="M6.26074 3.71118L5.95522 3.94056L5.86369 3.81272" fill="white"/>
<path d="M5.5791 3.71094L5.88462 3.94032L5.97615 3.81247" fill="white"/>
<path d="M5.5791 3.72876L5.9242 3.76031L5.93911 3.90876" fill="white"/>
<path d="M6.13086 4.12109L6.03425 3.78894L5.84842 3.85478" fill="white"/>
<path d="M6.12109 4.1311L5.83996 3.93111L5.95587 3.77388" fill="white"/>
<path d="M5.7002 4.1311L5.99944 3.91042L5.90164 3.77388" fill="white"/>
<path d="M5.70801 4.13965L5.83024 3.789L5.99045 3.83635" fill="white"/>
<path d="M5.91895 2.04004L5.8077 2.38242L5.97889 2.43804" fill="white"/>
<path d="M5.91895 2.04004L6.03019 2.38242L5.859 2.43804" fill="white"/>
<path d="M6.26074 2.28882L5.91564 2.32036L5.90074 2.46882" fill="white"/>
<path d="M6.26074 2.27124L5.95522 2.50062L5.86369 2.37278" fill="white"/>
<path d="M5.5791 2.271L5.88462 2.50038L5.97615 2.37253" fill="white"/>
<path d="M5.5791 2.28882L5.9242 2.32036L5.93911 2.46882" fill="white"/>
<path d="M6.13086 2.68115L6.03425 2.349L5.84842 2.41484" fill="white"/>
<path d="M6.12109 2.69116L5.83996 2.49116L5.95587 2.33394" fill="white"/>
<path d="M5.7002 2.69116L5.99944 2.47048L5.90164 2.33394" fill="white"/>
<path d="M5.70801 2.69971L5.83024 2.34905L5.99045 2.3964" fill="white"/>
</g>
<defs>
<clipPath id="clip0_202_4328">
<rect width="20" height="15" fill="white"/>
</clipPath>
</defs>
</svg>
