<svg width="20" height="15" viewBox="0 0 20 15" fill="none" xmlns="http://www.w3.org/2000/svg">
<g clip-path="url(#clip0_202_4231)">
<path d="M20 0H0V7.5H20V0Z" fill="#D21034"/>
<path d="M20 7.5H0V15H20V7.5Z" fill="#009543"/>
<path d="M0 0L11.6382 7.5L0 15V0Z" fill="black"/>
<path d="M20 6.15796H0V8.84217H20V6.15796Z" fill="black"/>
<path d="M0 1.06592L9.98423 7.50006L0 13.9342V1.06592Z" fill="#FDCE12"/>
<path d="M20 7.10522H0V7.8947H20V7.10522Z" fill="#FDCE12"/>
<path d="M0 1.9541L8.60593 7.50003L0 13.0459V1.9541Z" fill="black"/>
<path d="M2.72502 8.93476C2.72502 8.93476 2.72502 9.47674 2.72502 9.7894C3.46931 9.7894 4.93 9.21966 4.93 7.38529C4.93 5.55092 3.37192 5.21045 2.90587 5.21045C2.43985 5.21045 1 5.54398 1 7.04482C1 8.54566 2.41203 8.68463 2.69025 8.68463C2.96846 8.68463 4.01184 8.43448 3.89361 7.30884C3.89361 7.62848 3.53191 8.30248 2.7737 8.30248C2.01553 8.30248 1.54255 7.73963 1.54255 7.18379C1.54255 6.6279 2.00162 5.88442 2.80152 5.88442C3.60143 5.88442 4.18571 6.59313 4.18571 7.30884C4.18571 8.02453 3.62232 8.93476 2.72502 8.93476Z" fill="#FDCE12"/>
<path d="M2.07227 7.82204L2.1166 7.8507C2.1166 7.8507 2.46874 7.04817 3.41559 6.47754C3.29559 6.54267 2.66176 6.85796 2.07227 7.82204Z" fill="#FDCE12" stroke="#FDCE12" stroke-width="0.03"/>
<path d="M2.16314 7.68391C2.16314 7.68391 2.0536 7.45984 2.1501 7.36084C2.24663 7.26181 2.20229 7.62399 2.20229 7.62399L2.24402 7.56407C2.24402 7.56407 2.17879 7.29047 2.25184 7.23315C2.32487 7.17584 2.28835 7.49631 2.28835 7.49631L2.33269 7.43899C2.33269 7.43899 2.28575 7.17323 2.35616 7.1237C2.42661 7.0742 2.38227 7.37386 2.38227 7.37386L2.43443 7.31391C2.43443 7.31391 2.39531 7.06118 2.48138 7.00126C2.56747 6.94131 2.49181 7.24097 2.49181 7.24097L2.54918 7.17844C2.54918 7.17844 2.5231 6.94652 2.59616 6.89441C2.66918 6.84231 2.60659 7.11328 2.60659 7.11328L2.65875 7.05857C2.65875 7.05857 2.6431 6.84231 2.71352 6.79281C2.78396 6.74328 2.71873 6.99865 2.71873 6.99865L2.77353 6.94652C2.77353 6.94652 2.76049 6.73026 2.84916 6.68857C2.93783 6.64689 2.83351 6.89181 2.83351 6.89181L2.8935 6.8397C2.8935 6.8397 2.91175 6.58697 2.98741 6.56349C3.06305 6.54005 2.95351 6.7876 2.95351 6.7876L3.00828 6.74328C3.00828 6.74328 3.03697 6.52702 3.12042 6.50097C3.20391 6.47491 3.06826 6.69899 3.06826 6.69899L3.12303 6.65731C3.12303 6.65731 3.18304 6.44105 3.26128 6.4176C3.33955 6.39415 3.18044 6.62084 3.18044 6.62084L3.2326 6.58436C3.2326 6.58436 3.31866 6.38891 3.3891 6.37589C3.45952 6.36286 3.31084 6.53744 3.31084 6.53744L3.37606 6.49836C3.37606 6.49836 3.48821 6.29513 3.52736 6.35765C3.56648 6.4202 3.37085 6.51139 3.37085 6.51139L3.30562 6.54786C3.30562 6.54786 3.54301 6.43584 3.57169 6.49315C3.60038 6.55047 3.24564 6.58697 3.24564 6.58697L3.18826 6.62605C3.18826 6.62605 3.42562 6.56089 3.39693 6.62084C3.36824 6.68076 3.13349 6.66773 3.13349 6.66773L3.0787 6.70681C3.0787 6.70681 3.31605 6.64949 3.28476 6.7042C3.25346 6.75891 3.02132 6.7537 3.02132 6.7537L2.96394 6.80063C2.96394 6.80063 3.19608 6.74068 3.16218 6.81105C3.12825 6.88139 2.86481 6.87878 2.86481 6.87878L2.79961 6.9387C2.79961 6.9387 3.04479 6.85534 3.02393 6.92047C3.00306 6.98562 2.72395 7.01949 2.72395 7.01949L2.66136 7.08202C2.66136 7.08202 2.92479 6.99344 2.84655 7.0742C2.76831 7.15499 2.5779 7.17584 2.5779 7.17584L2.50224 7.26702C2.50224 7.26702 2.7631 7.11068 2.72656 7.19928C2.69004 7.28786 2.43443 7.34781 2.43443 7.34781L2.38227 7.41034C2.38227 7.41034 2.61702 7.27484 2.59355 7.35041C2.57007 7.42597 2.31965 7.50673 2.31965 7.50673L2.27792 7.56407C2.27792 7.56407 2.5544 7.39991 2.53093 7.48328C2.50746 7.56668 2.24402 7.6266 2.24402 7.6266L2.21011 7.6787C2.21011 7.6787 2.46573 7.53281 2.46833 7.60315C2.47094 7.67349 2.16836 7.74386 2.16836 7.74386L2.16314 7.68391Z" fill="#FDCE12"/>
<path d="M3.57617 7.82204L3.53184 7.8507C3.53184 7.8507 3.1797 7.04817 2.23285 6.47754C2.35284 6.54267 2.98668 6.85796 3.57617 7.82204Z" fill="#FDCE12" stroke="#FDCE12" stroke-width="0.03"/>
<path d="M3.4853 7.68391C3.4853 7.68391 3.59483 7.45984 3.49834 7.36084C3.40181 7.26181 3.44615 7.62399 3.44615 7.62399L3.40442 7.56407C3.40442 7.56407 3.46965 7.29047 3.3966 7.23315C3.32357 7.17584 3.36008 7.49631 3.36008 7.49631L3.31575 7.43899C3.31575 7.43899 3.36269 7.17323 3.29227 7.1237C3.22183 7.0742 3.26617 7.37386 3.26617 7.37386L3.21401 7.31391C3.21401 7.31391 3.25313 7.06118 3.16706 7.00126C3.08097 6.94131 3.15663 7.24097 3.15663 7.24097L3.09925 7.17844C3.09925 7.17844 3.12533 6.94652 3.05228 6.89441C2.97926 6.84231 3.04185 7.11328 3.04185 7.11328L2.98969 7.05857C2.98969 7.05857 3.00534 6.84231 2.93492 6.79281C2.86448 6.74328 2.9297 6.99865 2.9297 6.99865L2.87491 6.94652C2.87491 6.94652 2.88795 6.73026 2.79928 6.68857C2.7106 6.64689 2.81492 6.89181 2.81492 6.89181L2.75494 6.8397C2.75494 6.8397 2.73668 6.58697 2.66102 6.56349C2.58539 6.54005 2.69493 6.7876 2.69493 6.7876L2.64016 6.74328C2.64016 6.74328 2.61147 6.52702 2.52801 6.50097C2.44453 6.47491 2.58017 6.69899 2.58017 6.69899L2.52541 6.65731C2.52541 6.65731 2.46539 6.44105 2.38715 6.4176C2.30889 6.39415 2.468 6.62084 2.468 6.62084L2.41584 6.58436C2.41584 6.58436 2.32978 6.38891 2.25933 6.37589C2.18892 6.36286 2.3376 6.53744 2.3376 6.53744L2.27237 6.49836C2.27237 6.49836 2.16023 6.29513 2.12108 6.35765C2.08196 6.4202 2.27759 6.51139 2.27759 6.51139L2.34282 6.54786C2.34282 6.54786 2.10543 6.43584 2.07674 6.49315C2.04806 6.55047 2.4028 6.58697 2.4028 6.58697L2.46018 6.62605C2.46018 6.62605 2.22282 6.56089 2.25151 6.62084C2.2802 6.68076 2.51495 6.66773 2.51495 6.66773L2.56974 6.70681C2.56974 6.70681 2.33238 6.64949 2.36368 6.7042C2.39498 6.75891 2.62712 6.7537 2.62712 6.7537L2.6845 6.80063C2.6845 6.80063 2.45235 6.74068 2.48626 6.81105C2.52019 6.88139 2.78363 6.87878 2.78363 6.87878L2.84883 6.9387C2.84883 6.9387 2.60365 6.85534 2.62451 6.92047C2.64538 6.98562 2.92449 7.01949 2.92449 7.01949L2.98708 7.08202C2.98708 7.08202 2.72364 6.99344 2.80188 7.0742C2.88013 7.15499 3.07054 7.17584 3.07054 7.17584L3.1462 7.26702C3.1462 7.26702 2.88534 7.11068 2.92188 7.19928C2.95839 7.28786 3.21401 7.34781 3.21401 7.34781L3.26617 7.41034C3.26617 7.41034 3.03142 7.27484 3.05489 7.35041C3.07836 7.42597 3.32879 7.50673 3.32879 7.50673L3.37052 7.56407C3.37052 7.56407 3.09404 7.39991 3.11751 7.48328C3.14098 7.56668 3.40442 7.6266 3.40442 7.6266L3.43832 7.6787C3.43832 7.6787 3.18271 7.53281 3.1801 7.60315C3.17749 7.67349 3.48008 7.74386 3.48008 7.74386L3.4853 7.68391Z" fill="#FDCE12"/>
</g>
<defs>
<clipPath id="clip0_202_4231">
<rect width="20" height="15" fill="white"/>
</clipPath>
</defs>
</svg>
