<svg width="20" height="15" viewBox="0 0 20 15" fill="none" xmlns="http://www.w3.org/2000/svg">
<g clip-path="url(#clip0_202_4190)">
<path d="M0 0H20V15H0V0Z" fill="#CF142B"/>
<path d="M0 0H20V10H0V0Z" fill="#00247D"/>
<path d="M0 0H20V5H0V0Z" fill="#FFCC00"/>
<path d="M10.8897 5.45297L10.6009 6.01129L10.926 6.18286L10.8897 5.45297Z" fill="white"/>
<path d="M10.8896 5.45304L10.97 6.07648L10.6058 6.12649L10.8896 5.45304Z" fill="white"/>
<path d="M11.4001 5.98157L10.7799 5.8794L10.7172 6.24165L11.4001 5.98157Z" fill="white"/>
<path d="M11.3997 5.98156L10.8316 6.25074L10.6715 5.9198L11.3997 5.98156Z" fill="white"/>
<path d="M10.2287 5.77488L10.6704 6.22211L10.934 5.9659L10.2287 5.77488Z" fill="white"/>
<path d="M10.2284 5.77493L10.8462 5.89106L10.7812 6.25291L10.2284 5.77493Z" fill="white"/>
<path d="M11.0551 6.63005L10.9606 6.00858L10.5967 6.06089L11.0551 6.63005Z" fill="white"/>
<path d="M11.0552 6.62996L10.6237 6.17288L10.889 5.91834L11.0552 6.62996Z" fill="white"/>
<path d="M10.3317 6.50257L10.8935 6.22066L10.7313 5.89074L10.3317 6.50257Z" fill="white"/>
<path d="M10.3314 6.50255L10.6328 5.95088L10.9568 6.1245L10.3314 6.50255Z" fill="white"/>
<path d="M12.5618 6.06152L12.0994 6.48739L12.3463 6.75982L12.5618 6.06152Z" fill="white"/>
<path d="M12.5622 6.06152L12.4246 6.67489L12.0653 6.59732L12.5622 6.06152Z" fill="white"/>
<path d="M12.8604 6.73272L12.3125 6.42457L12.1297 6.74353L12.8604 6.73272Z" fill="white"/>
<path d="M12.8603 6.73261L12.2344 6.79127L12.1971 6.42553L12.8603 6.73261Z" fill="white"/>
<path d="M11.8317 6.13821L12.0939 6.70956L12.4292 6.55897L11.8317 6.13821Z" fill="white"/>
<path d="M11.8314 6.13816L12.3722 6.45858L12.1874 6.77638L11.8314 6.13816Z" fill="white"/>
<path d="M12.3145 7.22443L12.4383 6.60812L12.0784 6.53282L12.3145 7.22443Z" fill="white"/>
<path d="M12.3144 7.22454L12.0652 6.64743L12.4015 6.49896L12.3144 7.22454Z" fill="white"/>
<path d="M11.6786 6.85703L12.303 6.78428L12.2634 6.41878L11.6786 6.85703Z" fill="white"/>
<path d="M11.6788 6.85708L12.1507 6.44175L12.3958 6.71573L11.6788 6.85708Z" fill="white"/>
<path d="M13.9252 7.20589L13.3451 7.44793L13.4839 7.78836L13.9252 7.20589Z" fill="white"/>
<path d="M13.9254 7.20598L13.5863 7.73528L13.2751 7.53948L13.9254 7.20598Z" fill="white"/>
<path d="M13.9768 7.93879L13.5673 7.46183L13.2865 7.69903L13.9768 7.93879Z" fill="white"/>
<path d="M13.9773 7.93889L13.3691 7.77995L13.4592 7.42352L13.9773 7.93889Z" fill="white"/>
<path d="M13.2119 7.02815L13.2628 7.6547L13.6295 7.62789L13.2119 7.02815Z" fill="white"/>
<path d="M13.2119 7.02825L13.6105 7.51432L13.3281 7.74974L13.2119 7.02825Z" fill="white"/>
<path d="M13.2956 8.21392L13.6227 7.6771L13.3103 7.48327L13.2956 8.21392Z" fill="white"/>
<path d="M13.2952 8.21382L13.2584 7.58628L13.6253 7.56179L13.2952 8.21382Z" fill="white"/>
<path d="M12.8229 7.65109L13.4345 7.79628L13.5223 7.43929L12.8229 7.65109Z" fill="white"/>
<path d="M12.8226 7.65115L13.4081 7.42226L13.5447 7.76356L12.8226 7.65115Z" fill="white"/>
<path d="M14.8151 8.74724L14.1872 8.77626L14.2012 9.14363L14.8151 8.74724Z" fill="white"/>
<path d="M14.8148 8.74715L14.3151 9.12855L14.0897 8.83814L14.8148 8.74715Z" fill="white"/>
<path d="M14.613 9.45357L14.3913 8.86533L14.0463 8.99216L14.613 9.45357Z" fill="white"/>
<path d="M14.6126 9.45366L14.0954 9.09629L14.302 8.79215L14.6126 9.45366Z" fill="white"/>
<path d="M14.2059 8.33647L14.0395 8.94265L14.3932 9.04287L14.2059 8.33647Z" fill="white"/>
<path d="M14.2062 8.33638L14.4145 8.92947L14.0686 9.05411L14.2062 8.33638Z" fill="white"/>
<path d="M13.8778 9.47914L14.3687 9.08656L14.1415 8.79758L13.8778 9.47914Z" fill="white"/>
<path d="M13.8781 9.47912L14.0582 8.87685L14.4112 8.9793L13.8781 9.47912Z" fill="white"/>
<path d="M13.6269 8.78876L14.152 9.13438L14.3566 8.82894L13.6269 8.78876Z" fill="white"/>
<path d="M13.627 8.78888L14.2555 8.77402L14.2671 9.14148L13.627 8.78888Z" fill="white"/>
<path d="M5.18425 8.74715L5.68393 9.12855L5.90936 8.83814L5.18425 8.74715Z" fill="white"/>
<path d="M5.18392 8.74724L5.81186 8.77626L5.79787 9.14363L5.18392 8.74724Z" fill="white"/>
<path d="M5.79383 8.33638L5.58551 8.92947L5.93137 9.05411L5.79383 8.33638Z" fill="white"/>
<path d="M5.79406 8.33647L5.96051 8.94265L5.60679 9.04287L5.79406 8.33647Z" fill="white"/>
<path d="M5.38643 9.45341L5.90358 9.09604L5.69703 8.79191L5.38643 9.45341Z" fill="white"/>
<path d="M5.38603 9.45333L5.60768 8.86508L5.95274 8.99191L5.38603 9.45333Z" fill="white"/>
<path d="M6.37199 8.78864L5.74356 8.77378L5.73189 9.14123L6.37199 8.78864Z" fill="white"/>
<path d="M6.37215 8.78851L5.84707 9.13413L5.64246 8.8287L6.37215 8.78851Z" fill="white"/>
<path d="M6.12092 9.47912L5.94085 8.87684L5.58778 8.9793L6.12092 9.47912Z" fill="white"/>
<path d="M6.12126 9.47914L5.6303 9.08656L5.85756 8.79758L6.12126 9.47914Z" fill="white"/>
<path d="M6.07365 7.20573L6.41275 7.73504L6.72391 7.53924L6.07365 7.20573Z" fill="white"/>
<path d="M6.07381 7.20565L6.65396 7.44768L6.51517 7.78811L6.07381 7.20565Z" fill="white"/>
<path d="M6.78615 7.028L6.38754 7.51407L6.66991 7.74949L6.78615 7.028Z" fill="white"/>
<path d="M6.78611 7.02791L6.7352 7.65445L6.36854 7.62765L6.78611 7.02791Z" fill="white"/>
<path d="M6.02271 7.93889L6.6309 7.77995L6.54083 7.42352L6.02271 7.93889Z" fill="white"/>
<path d="M6.02319 7.93879L6.43266 7.46183L6.71353 7.69903L6.02319 7.93879Z" fill="white"/>
<path d="M7.1754 7.65115L6.58994 7.42226L6.4533 7.76356L7.1754 7.65115Z" fill="white"/>
<path d="M7.17519 7.65109L6.56357 7.79628L6.47576 7.43929L7.17519 7.65109Z" fill="white"/>
<path d="M6.70284 8.21406L6.73961 7.58652L6.37279 7.56204L6.70284 8.21406Z" fill="white"/>
<path d="M6.70244 8.21416L6.37535 7.67734L6.68774 7.48351L6.70244 8.21416Z" fill="white"/>
<path d="M7.43679 6.06177L7.57441 6.67513L7.93377 6.59756L7.43679 6.06177Z" fill="white"/>
<path d="M7.43723 6.06177L7.89961 6.48763L7.65275 6.76006L7.43723 6.06177Z" fill="white"/>
<path d="M8.16766 6.13865L7.62684 6.45907L7.81167 6.77687L8.16766 6.13865Z" fill="white"/>
<path d="M8.1673 6.1387L7.90516 6.71005L7.56978 6.55946L8.1673 6.1387Z" fill="white"/>
<path d="M7.13777 6.73286L7.76365 6.79151L7.80092 6.42577L7.13777 6.73286Z" fill="white"/>
<path d="M7.13762 6.73296L7.68552 6.42481L7.86833 6.74378L7.13762 6.73296Z" fill="white"/>
<path d="M8.32022 6.85732L7.84836 6.44199L7.60323 6.71598L8.32022 6.85732Z" fill="white"/>
<path d="M8.3204 6.85727L7.69601 6.78452L7.7356 6.41902L8.3204 6.85727Z" fill="white"/>
<path d="M7.68364 7.22479L7.93283 6.64767L7.59651 6.4992L7.68364 7.22479Z" fill="white"/>
<path d="M7.68354 7.22468L7.55979 6.60836L7.91963 6.53307L7.68354 7.22468Z" fill="white"/>
<path d="M9.11043 5.45279L9.02997 6.07624L9.39419 6.12625L9.11043 5.45279Z" fill="white"/>
<path d="M9.11027 5.45273L9.39911 6.01105L9.07396 6.18262L9.11027 5.45273Z" fill="white"/>
<path d="M9.77064 5.77493L9.15285 5.89106L9.21783 6.25291L9.77064 5.77493Z" fill="white"/>
<path d="M9.77037 5.77488L9.32863 6.22211L9.06498 5.9659L9.77037 5.77488Z" fill="white"/>
<path d="M8.60031 5.98132L9.16838 6.2505L9.3285 5.91956L8.60031 5.98132Z" fill="white"/>
<path d="M8.59988 5.98133L9.22014 5.87916L9.28283 6.24141L8.59988 5.98133Z" fill="white"/>
<path d="M9.66858 6.50255L9.36722 5.95088L9.04317 6.1245L9.66858 6.50255Z" fill="white"/>
<path d="M9.66833 6.50257L9.10648 6.22066L9.26869 5.89074L9.66833 6.50257Z" fill="white"/>
<path d="M8.94476 6.63021L9.3763 6.17313L9.11104 5.91858L8.94476 6.63021Z" fill="white"/>
<path d="M8.94489 6.63029L9.03939 6.00882L9.40328 6.06113L8.94489 6.63029Z" fill="white"/>
</g>
<defs>
<clipPath id="clip0_202_4190">
<rect width="20" height="15" fill="white"/>
</clipPath>
</defs>
</svg>
