<svg width="20" height="15" viewBox="0 0 20 15" fill="none" xmlns="http://www.w3.org/2000/svg">
<g clip-path="url(#clip0_202_4258)">
<path d="M0 0H20V15H0V0Z" fill="#006400"/>
<path d="M0.15918 2.14282H20.0005V12.8571H0.15918V2.14282Z" fill="#FFD200"/>
<path d="M0.15918 4.28564H20.0005V10.7142H0.15918V4.28564Z" fill="#D40000"/>
<path d="M0.15918 6.42847H20.0005V8.57132H0.15918V6.42847Z" fill="black"/>
<mask id="mask0_202_4258" style="mask-type:luminance" maskUnits="userSpaceOnUse" x="0" y="0" width="12" height="15">
<path d="M0 0H11.25V15H0V0Z" fill="white"/>
</mask>
<g mask="url(#mask0_202_4258)">
<path d="M11.5 7.5L0 16V-1L11.5 7.5Z" fill="black" stroke="black" stroke-width="0.1"/>
</g>
<path d="M10 7.5L0 15V0L10 7.5Z" fill="white"/>
<path d="M3.59578 3.77319L5.55492 9.80331L0.425781 6.07653H6.76578L1.63664 9.80331L3.59578 3.77319Z" fill="#D40000"/>
<path d="M2.51351 5.4525C2.49208 5.39893 2.49565 5.33941 2.52303 5.28822C2.55041 5.23822 2.60041 5.2025 2.65755 5.19298C2.71826 5.18227 2.77897 5.17869 2.84087 5.17989C2.8992 5.08941 2.99681 5.03108 3.10394 5.02274C3.21108 5.0156 3.31583 5.05846 3.38725 5.13941C3.47177 5.23584 3.52177 5.35727 3.53248 5.48465L3.57653 6.03703L5.25735 7.3525C5.27554 7.36724 5.28814 7.38777 5.29303 7.41067C5.29792 7.43356 5.29482 7.45745 5.28424 7.47833C5.27365 7.49922 5.25623 7.51585 5.23488 7.52544C5.21352 7.53504 5.18952 7.53703 5.16688 7.53108L5.09665 7.51084C4.82643 7.67869 4.62645 7.97155 4.58716 8.28584L4.48598 9.08584H2.70873L2.47304 8.17036C2.38852 8.06798 2.37662 7.92393 2.44328 7.80965C2.53018 7.66084 2.63493 7.52274 2.75516 7.39893C2.83372 7.32036 2.86944 7.20846 2.85396 7.09774C2.8373 6.98822 2.82896 6.8775 2.82777 6.76679C2.82658 6.67512 2.84682 6.58346 2.8861 6.50131L2.86348 5.67512C2.85991 5.5775 2.80635 5.48822 2.72183 5.4406L2.51351 5.4525Z" fill="#FFD200" stroke="black" stroke-width="0.06" stroke-linecap="round" stroke-linejoin="round"/>
<path d="M2.72242 5.44062L2.92122 5.42871M2.8867 6.50133L3.57712 6.03704M3.85329 7.42633C4.12589 7.50252 4.29612 7.4799 4.37587 7.30609M3.36166 6.63228C3.28786 6.84538 3.42118 7.03466 3.59974 7.08585L5.09725 7.51085M2.66886 8.26204C2.61291 8.043 2.69385 7.65133 3.04026 7.48823C3.20096 7.41323 3.25334 7.24895 3.25453 7.10966C3.25453 7.05728 3.25572 6.99657 3.33071 6.96681M2.66886 8.26204C2.60219 8.20609 2.55101 8.13704 2.52601 8.043L2.47363 8.17038M2.66886 8.26204C2.70576 8.18466 2.7379 8.10609 2.76528 8.02633C2.79623 8.08823 2.82123 8.17276 2.84265 8.25728C2.83789 8.06562 2.93907 7.92514 3.0724 7.86562L3.58903 7.63585C3.75687 7.56085 3.91757 7.41204 3.95447 7.18585M4.83774 7.73347H3.3688M2.50339 8.28585H4.58776M2.9855 8.73943H4.52943M2.9855 8.73943L2.82956 8.28585M2.9855 8.73943V9.08585M2.9105 8.4799L3.06287 8.32752L3.21524 8.4799L3.36761 8.32752L3.51998 8.4799L3.67235 8.32752L3.82472 8.4799L3.97709 8.32752L4.12946 8.4799L4.28183 8.32752L4.4342 8.4799L4.58181 8.33228M2.95574 8.65252L3.06287 8.54538L3.21524 8.69776L3.36761 8.54538L3.51998 8.69776L3.67235 8.54538L3.82472 8.69776L3.97709 8.54538L4.12946 8.69776L4.28183 8.54538L4.4342 8.69776L4.54967 8.58228" stroke="black" stroke-width="0.06" stroke-linecap="round" stroke-linejoin="round"/>
<path d="M3.11977 5.39897C3.16973 5.39897 3.21024 5.35846 3.21024 5.30849C3.21024 5.25853 3.16973 5.21802 3.11977 5.21802C3.0698 5.21802 3.0293 5.25853 3.0293 5.30849C3.0293 5.35846 3.0698 5.39897 3.11977 5.39897Z" stroke="black" stroke-width="0.06" stroke-linecap="round" stroke-linejoin="round"/>
<path d="M3.52417 8.18459C3.6195 8.18459 3.69677 8.10731 3.69677 8.01197C3.69677 7.91664 3.6195 7.83936 3.52417 7.83936C3.42884 7.83936 3.35156 7.91664 3.35156 8.01197C3.35156 8.10731 3.42884 8.18459 3.52417 8.18459Z" stroke="black" stroke-width="0.06" stroke-linecap="round" stroke-linejoin="round"/>
<path d="M4.20874 8.18459C4.30407 8.18459 4.38135 8.10731 4.38135 8.01197C4.38135 7.91664 4.30407 7.83936 4.20874 7.83936C4.11341 7.83936 4.03613 7.91664 4.03613 8.01197C4.03613 8.10731 4.11341 8.18459 4.20874 8.18459Z" stroke="black" stroke-width="0.06" stroke-linecap="round" stroke-linejoin="round"/>
</g>
<defs>
<clipPath id="clip0_202_4258">
<rect width="20" height="15" fill="white"/>
</clipPath>
</defs>
</svg>
