<svg width="23" height="24" viewBox="0 0 23 24" fill="none" xmlns="http://www.w3.org/2000/svg">
<path d="M23 12.4017C23 18.753 17.8513 23.9017 11.5 23.9017C5.14873 23.9017 0 18.753 0 12.4017C0 6.05046 5.14873 0.901733 11.5 0.901733C17.8513 0.901733 23 6.05046 23 12.4017Z" fill="#1C1C26"/>
<path d="M10.499 13.5076C10.5285 13.3506 10.5628 13.2034 10.6021 13.066C10.6413 12.9286 10.6953 12.7961 10.764 12.6685C10.8327 12.5311 10.8916 12.4183 10.9406 12.33C10.9897 12.2318 11.0682 12.1239 11.1762 12.0061C11.2841 11.8884 11.3626 11.8001 11.4117 11.7412C11.4607 11.6823 11.554 11.5989 11.6914 11.4909C11.8287 11.3732 11.9171 11.2996 11.9563 11.2701C12.0054 11.2309 12.1084 11.1524 12.2654 11.0346C12.4225 10.9169 12.5157 10.8482 12.5451 10.8285C12.9769 10.4949 13.2909 10.1956 13.4872 9.93061C13.6835 9.66565 13.7816 9.32709 13.7816 8.91493C13.7816 8.50277 13.6491 8.17893 13.3842 7.94341C13.1192 7.70789 12.7365 7.59013 12.236 7.59013C11.7061 7.59013 11.2547 7.75696 10.8818 8.09061C10.5187 8.41445 10.2831 8.88549 10.1752 9.50373H9.01232C9.13008 8.59109 9.49808 7.87472 10.1163 7.35461C10.7444 6.83451 11.4951 6.57445 12.3685 6.57445C13.2419 6.57445 13.9043 6.80016 14.3557 7.25157C14.8071 7.69317 15.0328 8.24272 15.0328 8.90021C15.0328 9.17499 14.9935 9.43504 14.915 9.68037C14.8365 9.91589 14.7531 10.1122 14.6648 10.2692C14.5863 10.4164 14.4391 10.5881 14.2232 10.7844C14.0073 10.9806 13.8454 11.118 13.7374 11.1965C13.6393 11.275 13.443 11.4173 13.1486 11.6234C12.8935 11.8099 12.707 11.9522 12.5893 12.0503C12.4813 12.1386 12.339 12.2711 12.1624 12.4477C11.9858 12.6244 11.8533 12.8059 11.765 12.9924C11.6766 13.1788 11.6129 13.3849 11.5736 13.6106L11.4706 14.2583H10.3813L10.499 13.5076ZM11.3381 17.0404C11.1516 17.217 10.9308 17.3053 10.6757 17.3053C10.4205 17.3053 10.1997 17.217 10.0133 17.0404C9.82683 16.8539 9.7336 16.6282 9.7336 16.3633C9.7336 16.0983 9.82192 15.8775 9.99856 15.7009C10.185 15.5144 10.4058 15.4212 10.661 15.4212C10.9259 15.4212 11.1516 15.5144 11.3381 15.7009C11.5245 15.8775 11.6178 16.0983 11.6178 16.3633C11.6178 16.6282 11.5245 16.8539 11.3381 17.0404Z" fill="white" fill-opacity="0.7"/>
</svg>
