<svg width="40" height="71" viewBox="0 0 40 71" fill="none" xmlns="http://www.w3.org/2000/svg">
<path d="M10.0524 45.7263C10.2446 44.7021 10.4689 43.7419 10.7252 42.8457C10.9816 41.9495 11.334 41.0853 11.7826 40.2531C12.2312 39.3569 12.6157 38.6207 12.9361 38.0446C13.2565 37.4044 13.7692 36.7003 14.4741 35.9321C15.179 35.1639 15.6917 34.5878 16.0121 34.2037C16.3325 33.8196 16.9413 33.2755 17.8385 32.5713C18.7356 31.8032 19.3124 31.323 19.5687 31.131C19.8891 30.8749 20.562 30.3628 21.5873 29.5947C22.6127 28.8265 23.2215 28.3784 23.4137 28.2503C26.2334 26.0738 28.284 24.1214 29.5657 22.393C30.8474 20.6646 31.4882 18.4561 31.4882 15.7675C31.4882 13.0789 30.6231 10.9664 28.8928 9.43004C27.1626 7.89369 24.6633 7.12551 21.3951 7.12551C17.9346 7.12551 14.9868 8.21376 12.5516 10.3903C10.1805 12.5027 8.64253 15.5754 7.93762 19.6084H0.34375C1.11275 13.655 3.51588 8.98194 7.55312 5.58916C11.6544 2.19639 16.5568 0.5 22.2602 0.5C27.9636 0.5 32.2892 1.97234 35.2371 4.91701C38.1849 7.79767 39.6588 11.3825 39.6588 15.6715C39.6588 17.4639 39.4025 19.1603 38.8898 20.7606C38.3771 22.297 37.8324 23.5773 37.2557 24.6015C36.743 25.5617 35.7818 26.682 34.372 27.9623C32.9621 29.2426 31.9047 30.1388 31.1998 30.6509C30.559 31.163 29.2773 32.0912 27.3548 33.4355C25.6887 34.6518 24.4711 35.58 23.7021 36.2202C22.9972 36.7963 22.068 37.6605 20.9145 38.8128C19.761 39.965 18.8958 41.1493 18.3191 42.3656C17.7423 43.5819 17.3258 44.9262 17.0695 46.3985L16.3966 50.6235H9.28337L10.0524 45.7263ZM15.5315 68.7716C14.3139 69.9239 12.872 70.5 11.2059 70.5C9.5397 70.5 8.09782 69.9239 6.88024 68.7716C5.66266 67.5553 5.05387 66.083 5.05387 64.3546C5.05387 62.6262 5.63062 61.1859 6.78412 60.0336C8.0017 58.8173 9.44357 58.2092 11.1097 58.2092C12.84 58.2092 14.3139 58.8173 15.5315 60.0336C16.7491 61.1859 17.3579 62.6262 17.3579 64.3546C17.3579 66.083 16.7491 67.5553 15.5315 68.7716Z" fill="white" fill-opacity="0.7"/>
</svg>
