<svg width="15" height="16" viewBox="0 0 15 16" fill="none" xmlns="http://www.w3.org/2000/svg">
<path fill-rule="evenodd" clip-rule="evenodd" d="M2.5 0H12.5C13.6046 0 14.5 0.895431 14.5 2V10.7396C14.5 11.0426 14.4319 11.3417 14.2652 11.5946C13.8875 12.1675 13.0167 13.2838 11.3889 14.4C9.05559 16 7.50004 16 7.5 16C7.49996 16 5.94441 16 3.61111 14.4C1.98328 13.2838 1.11254 12.1675 0.734814 11.5946C0.568069 11.3417 0.5 11.0426 0.5 10.7396V2C0.5 0.895428 1.39543 0 2.5 0ZM12.5556 7.52132V7.08426C12.5556 6.70482 12.3797 6.34151 12.0854 6.11278C11.9553 6.01173 11.8777 5.85129 11.8777 5.68366C11.8773 3.43198 10.0963 1.6001 7.9071 1.6001H7.09244C4.90341 1.6001 3.12232 3.43198 3.12232 5.6839C3.12232 5.85152 3.04464 6.01206 2.91463 6.11302C2.62029 6.34175 2.44445 6.70477 2.44445 7.08451V9.50694C2.44445 9.69175 2.59071 9.84199 2.7702 9.84199H2.83318L3.01294 9.84189H3.13119C3.27589 9.84189 3.40497 9.74198 3.44455 9.59863L3.86286 8.08715C3.93897 7.8116 4.18677 7.6194 4.46516 7.6194H10.5347C10.8131 7.6194 11.0607 7.81167 11.137 8.08715L11.518 9.46424L11.5785 9.65849C11.6332 9.76898 11.7451 9.84198 11.8687 9.84198H11.9646L12.1443 9.84208H12.2297C12.4094 9.84208 12.5555 9.69164 12.5555 9.50703V8.0389L12.5556 7.52132Z" fill="white"/>
</svg>
