<svg width="13" height="15" viewBox="0 0 13 15" fill="none" xmlns="http://www.w3.org/2000/svg">
<path fill-rule="evenodd" clip-rule="evenodd" d="M10.2633 3.70967H4.1343V5.55913H10.2633V3.70967ZM11.8547 5.21504H12.1773C12.378 5.21504 12.4784 5.3154 12.4784 5.51612V8.37633C12.4784 8.57705 12.378 8.67741 12.1773 8.67741H11.8547V14.3978C11.8547 14.7993 11.654 15 11.2526 15H3.20957C2.80814 15 2.60742 14.7993 2.60742 14.3978V3.08601C2.60742 2.68458 2.80814 2.48386 3.20957 2.48386H6.02678V2.07526C6.02678 2.03225 6.04828 2.01074 6.09129 2.01074H6.37086L6.43538 2.07526V2.48386H11.2526C11.654 2.48386 11.8547 2.68458 11.8547 3.08601V5.21504ZM10.2633 7.32257H5.42463V13.043H10.2633V7.32257Z" fill="white"/>
<path d="M2.54299 10.6344L1.83331 10.5914C1.57525 10.5341 1.34586 10.3835 1.14514 10.1398C0.944423 9.89606 0.786717 9.47312 0.672022 8.87097C0.571664 8.29749 0.521484 7.47312 0.521484 6.39785V5.49462V4.48387L0.629011 3.45161C0.700696 3.06452 0.829728 2.67025 1.01611 2.26882L1.12363 2.05376L1.44622 1.70968L1.83331 1.4086C2.19174 1.16487 2.65769 1.02867 3.23116 1L3.61826 1.02151L4.67202 1.08602L5.53224 1.27957C5.91933 1.4086 6.12722 1.51613 6.15589 1.60215L6.22041 1.90323V2.01075" stroke="white" stroke-width="0.5" stroke-linecap="round" stroke-linejoin="round"/>
<path fill-rule="evenodd" clip-rule="evenodd" d="M6.93012 11.6237L7.01614 11.7098V12.2474L6.93012 12.3119H6.34947C6.27779 12.3119 6.24194 12.2904 6.24194 12.2474V11.7098C6.24194 11.6524 6.27779 11.6237 6.34947 11.6237H6.93012ZM8.30646 11.7098V12.2474L8.19893 12.3119H7.61829L7.53227 12.2474V11.7098L7.61829 11.6237H8.19893L8.30646 11.7098ZM9.48926 12.3119H8.90861L8.80108 12.2474V11.7098L8.90861 11.6237H9.48926L9.59678 11.7098V12.2474L9.48926 12.3119ZM9.59678 11.0216L9.48926 11.0861H8.90861L8.80108 11.0216V10.4839C8.80108 10.4123 8.83693 10.3764 8.90861 10.3764H9.48926L9.59678 10.4839V11.0216ZM8.80108 9.23663L8.90861 9.15061H9.48926L9.59678 9.23663V9.77427L9.48926 9.83878H8.90861L8.80108 9.77427V9.23663ZM7.53227 10.4839C7.53227 10.4123 7.56094 10.3764 7.61829 10.3764H8.19893L8.30646 10.4839V11.0216L8.19893 11.0861H7.61829L7.53227 11.0216V10.4839ZM6.24194 10.4839C6.24194 10.4123 6.27779 10.3764 6.34947 10.3764H6.93012L7.01614 10.4839V11.0216L6.93012 11.0861H6.34947C6.27779 11.0861 6.24194 11.0646 6.24194 11.0216V10.4839ZM7.01614 9.77427L6.93012 9.83878H6.34947C6.27779 9.83878 6.24194 9.81728 6.24194 9.77427V9.23663C6.24194 9.17929 6.27779 9.15061 6.34947 9.15061H6.93012L7.01614 9.23663V9.77427ZM7.53227 9.23663L7.61829 9.15061H8.19893L8.30646 9.23663V9.77427L8.19893 9.83878H7.61829L7.53227 9.77427V9.23663ZM6.34947 8.61298L6.24194 8.52696V8.01083C6.24194 7.95348 6.27779 7.9248 6.34947 7.9248H6.93012L7.01614 8.01083V8.52696L6.93012 8.61298H6.34947ZM9.59678 8.52696L9.48926 8.61298H8.90861L8.80108 8.52696V8.01083L8.90861 7.9248H9.48926L9.59678 8.01083V8.52696ZM8.19893 7.9248L8.30646 8.01083V8.52696L8.19893 8.61298H7.61829L7.53227 8.52696V8.01083L7.61829 7.9248H8.19893Z" fill="white"/>
</svg>
