<svg width="19" height="16" viewBox="0 0 19 16" fill="none" xmlns="http://www.w3.org/2000/svg">
<path fill-rule="evenodd" clip-rule="evenodd" d="M11.8779 6.01709V3.92674H14.0659L13.8706 4.88401C13.8185 5.23565 13.7143 5.61335 13.558 6.01709H11.8779ZM9.57265 6.85714H11.2137V8.77167H9.57265V6.85714ZM9.57265 6.01709V3.92674H11.2137V6.01709H9.57265ZM7.11111 3.92674H8.77167V6.01709H7.11111V3.92674ZM7.11111 6.85714H8.77167V8.77167H7.11111V6.85714ZM6.32967 3.92674V6.01709H4.84493V3.92674H6.32967ZM17.4457 0C17.2243 0 17.0615 0.0911669 16.9573 0.273503L15.9805 1.17216L15.2186 1.91453L14.7692 2.42247H0.781441L0.488401 2.50061C0.410256 2.5527 0.3256 2.59829 0.234432 2.63736L0.0781429 2.96947L0 3.28205V3.34066L1.66056 9.7094C1.69963 9.86569 1.7908 10.0024 1.93407 10.1197C2.06431 10.2238 2.2206 10.2759 2.40293 10.2759H12.718V11.9365H2.40293C1.90802 11.9365 1.66056 12.184 1.66056 12.6789C1.66056 12.9133 1.72568 13.1087 1.85592 13.265C1.98616 13.4212 2.1685 13.4994 2.40293 13.4994H13.4994C13.7078 13.4994 13.8836 13.4212 14.0269 13.265C14.1832 13.1087 14.2613 12.9133 14.2613 12.6789V9.7094L14.4567 8.98657L14.7692 7.81441L15.1209 6.44689L15.453 5.13797L15.6874 4.08303L15.7851 3.57509L16.293 3.1453L17.0745 2.42247L18.0904 1.40659L18.2466 1.11355L18.3443 0.840047L18.2466 0.507938L18.0904 0.273503C17.908 0.0911669 17.6931 0 17.4457 0ZM2.81319 7.97069L2.59829 6.85714H4.06349V8.77167H3.00855C2.9304 8.60236 2.86528 8.33537 2.81319 7.97069ZM2.07082 4.88401L1.85592 3.92674H4.06349V6.01709H2.30525L2.07082 4.88401ZM11.8779 6.85714H13.3626L13.0891 7.97069L12.9328 8.77167H11.8779V6.85714ZM3.92674 14.0464C3.67929 13.812 3.41229 13.6948 3.12576 13.6948C2.77412 13.6948 2.48759 13.812 2.26618 14.0464C2.04477 14.2808 1.93407 14.5478 1.93407 14.8474C1.93407 15.212 2.04477 15.4921 2.26618 15.6874C2.48759 15.8958 2.77412 16 3.12576 16C3.41229 16 3.67929 15.8958 3.92674 15.6874C4.16117 15.4921 4.27839 15.212 4.27839 14.8474C4.27839 14.5478 4.16117 14.2808 3.92674 14.0464ZM2.87179 14.8474L2.94994 14.7106C3.01506 14.6455 3.07367 14.6129 3.12576 14.6129L3.28205 14.7106L3.37973 14.8474L3.28205 15.0427L3.12576 15.1209C3.07367 15.1209 3.01506 15.0948 2.94994 15.0427L2.87179 14.8474ZM14.2027 14.8474C14.2027 14.5478 14.0725 14.2808 13.812 14.0464C13.5515 13.812 13.278 13.6948 12.9915 13.6948C12.6789 13.6948 12.4119 13.812 12.1905 14.0464C11.9821 14.2808 11.8779 14.5478 11.8779 14.8474C11.8779 15.212 11.9821 15.4921 12.1905 15.6874C12.4119 15.8958 12.6789 16 12.9915 16C13.278 16 13.5515 15.8958 13.812 15.6874C14.0725 15.4921 14.2027 15.212 14.2027 14.8474ZM12.8547 15.0427L12.7766 14.8474L12.8547 14.7106C12.9068 14.6455 12.9524 14.6129 12.9915 14.6129C13.0696 14.6129 13.1282 14.6455 13.1673 14.7106L13.2259 14.8474C13.2259 15.0297 13.1477 15.1209 12.9915 15.1209L12.8547 15.0427ZM6.32967 8.77167H4.84493V6.85714H6.32967V8.77167Z" fill="white"/>
</svg>
