<svg width="25" height="25" viewBox="0 0 25 25" fill="none" xmlns="http://www.w3.org/2000/svg">
<path fill-rule="evenodd" clip-rule="evenodd" d="M12.5 2.77778C11.2233 2.77778 9.95902 3.02925 8.77947 3.51784C7.59991 4.00642 6.52814 4.72256 5.62535 5.62535C4.72256 6.52814 4.00642 7.59991 3.51784 8.77947C3.02925 9.95902 2.77778 11.2233 2.77778 12.5C2.77778 13.7767 3.02925 15.041 3.51784 16.2205C4.00642 17.4001 4.72256 18.4719 5.62535 19.3746C6.52814 20.2774 7.59991 20.9936 8.77947 21.4822C9.95902 21.9707 11.2233 22.2222 12.5 22.2222C15.0785 22.2222 17.5514 21.1979 19.3746 19.3746C21.1979 17.5514 22.2222 15.0785 22.2222 12.5C22.2222 9.92151 21.1979 7.44862 19.3746 5.62535C17.5514 3.80208 15.0785 2.77778 12.5 2.77778ZM0 12.5C0 9.18479 1.31696 6.00537 3.66116 3.66116C6.00537 1.31696 9.18479 0 12.5 0C15.8152 0 18.9946 1.31696 21.3388 3.66116C23.683 6.00537 25 9.18479 25 12.5C25 15.8152 23.683 18.9946 21.3388 21.3388C18.9946 23.683 15.8152 25 12.5 25C9.18479 25 6.00537 23.683 3.66116 21.3388C1.31696 18.9946 0 15.8152 0 12.5ZM19.4444 12.5958C19.4444 12.9642 19.2981 13.3175 19.0376 13.5779C18.7772 13.8384 18.4239 13.9847 18.0556 13.9847H13.9847V18.0556C13.9847 18.4239 13.8384 18.7772 13.5779 19.0376C13.3175 19.2981 12.9642 19.4444 12.5958 19.4444C12.2275 19.4444 11.8742 19.2981 11.6137 19.0376C11.3533 18.7772 11.2069 18.4239 11.2069 18.0556V13.9847H6.94444C6.57609 13.9847 6.22282 13.8384 5.96235 13.5779C5.70188 13.3175 5.55556 12.9642 5.55556 12.5958C5.55556 12.2275 5.70188 11.8742 5.96235 11.6137C6.22282 11.3533 6.57609 11.2069 6.94444 11.2069H11.2069V6.94444C11.2069 6.57609 11.3533 6.22282 11.6137 5.96235C11.8742 5.70188 12.2275 5.55556 12.5958 5.55556C12.9642 5.55556 13.3175 5.70188 13.5779 5.96235C13.8384 6.22282 13.9847 6.57609 13.9847 6.94444V11.2069H18.0556C18.4239 11.2069 18.7772 11.3533 19.0376 11.6137C19.2981 11.8742 19.4444 12.2275 19.4444 12.5958Z" fill="#4C4C4C"/>
</svg>
