<svg width="20" height="14" viewBox="0 0 20 14" fill="none" xmlns="http://www.w3.org/2000/svg">
<path d="M13.5703 1.81883L15.244 3.55635C15.4037 3.73183 15.547 4.09862 15.547 4.33736V9.48664C15.547 9.7259 15.3557 9.94882 15.1007 9.94882H12.1194V9.16781H14.6222C14.7017 9.16781 14.7655 9.10404 14.7655 9.02446V4.68833C14.7655 4.60875 14.7017 4.54498 14.6222 4.54498H12.7729C12.6933 4.54498 12.6133 4.48122 12.6133 4.40164V2.42487C12.6133 2.34529 12.5495 2.28152 12.4699 2.28152H9.44074C9.36116 2.28152 9.28107 2.34529 9.28107 2.42487V3.52472C9.1214 3.46095 8.91428 3.42881 8.75512 3.42881H8.51587V1.94637C8.51587 1.6913 8.72298 1.5 8.96223 1.5H12.8204C13.0596 1.5 13.4106 1.64335 13.5703 1.81883ZM13.5386 3.76346H14.2084C14.288 3.76346 14.3043 3.71551 14.2564 3.65174L13.4912 2.87073C13.4432 2.80696 13.3953 2.82278 13.3953 2.90287V3.62011C13.3953 3.69969 13.4591 3.76346 13.5386 3.76346ZM9.52134 4.3695L11.1793 6.12334C11.3548 6.29882 11.4823 6.64928 11.4823 6.88854V12.0378C11.4823 12.2929 11.291 12.5 11.0517 12.5H4.91433C4.65926 12.5 4.45215 12.2929 4.45215 12.0378V4.49754C4.45215 4.25829 4.65926 4.03536 4.91433 4.03536H8.75614C8.99539 4.03536 9.34585 4.19503 9.52134 4.37001V4.3695ZM5.37651 11.7185H10.5574C10.637 11.7185 10.7171 11.6547 10.7171 11.5751V7.239C10.7171 7.15942 10.6375 7.09565 10.5574 7.09565H8.70819C8.62861 7.09565 8.56484 7.03188 8.56484 6.9523V4.97554C8.56484 4.89596 8.50107 4.83219 8.42149 4.83219H5.37651C5.29693 4.83219 5.23316 4.89596 5.23316 4.97554V11.5756C5.23316 11.6552 5.29693 11.7185 5.37651 11.7185ZM10.1906 6.21873L9.44125 5.40558C9.37748 5.34181 9.32953 5.38976 9.32953 5.46935V6.17078C9.32953 6.25036 9.40911 6.31413 9.4892 6.31413H10.1427C10.2223 6.31413 10.2544 6.26668 10.1906 6.21873Z" fill="#00FF90"/>
</svg>
