<svg width="20" height="14" viewBox="0 0 20 14" fill="none" xmlns="http://www.w3.org/2000/svg">
<path fill-rule="evenodd" clip-rule="evenodd" d="M9.99938 10.4909C11.904 10.4909 13.448 8.94696 13.448 7.04235C13.448 5.13774 11.904 3.59375 9.99938 3.59375C8.09477 3.59375 6.55078 5.13774 6.55078 7.04235C6.55078 8.94696 8.09477 10.4909 9.99938 10.4909ZM9.99946 9.31346C11.2537 9.31346 12.2705 8.29668 12.2705 7.04243C12.2705 5.78818 11.2537 4.7714 9.99946 4.7714C8.74521 4.7714 7.72843 5.78818 7.72843 7.04243C7.72843 8.29668 8.74521 9.31346 9.99946 9.31346Z" fill="#00FF90"/>
<path d="M18.1517 6.34231C17.348 5.44231 14.3629 2.5 10.0001 2.5C5.63725 2.5 2.65216 5.44231 1.84848 6.34231C1.68059 6.52786 1.58887 6.76023 1.58887 7C1.58887 7.23977 1.68059 7.47214 1.84848 7.65769C2.65216 8.55769 5.63725 11.5 10.0001 11.5C14.3629 11.5 17.348 8.55769 18.1517 7.65769C18.3196 7.47214 18.4113 7.23977 18.4113 7C18.4113 6.76023 18.3196 6.52786 18.1517 6.34231ZM10.0001 10.1154C6.63228 10.1154 4.14471 7.96923 3.22622 7C4.14471 6.03077 6.63228 3.88462 10.0001 3.88462C13.3679 3.88462 15.8555 6.03077 16.774 7C15.8555 7.96923 13.3679 10.1154 10.0001 10.1154Z" fill="#00FF90"/>
</svg>
