<svg width="40" height="40" viewBox="0 0 40 40" fill="none" xmlns="http://www.w3.org/2000/svg">
<rect x="0.5" y="0.5" width="39" height="39" rx="4.5" stroke="#4F4F4F"/>
<path d="M11.334 17.1663H13.0007M25.5007 14.6663L24.334 12.2497C24.084 11.6663 23.5007 11.333 22.834 11.333H16.584C15.9173 11.333 15.334 11.6663 15.084 12.2497L13.834 14.6663H10.5007C9.58398 14.6663 8.83398 15.4163 8.83398 16.333V27.9997C8.83398 28.9163 9.58398 29.6663 10.5007 29.6663H28.834C29.7507 29.6663 30.5007 28.9163 30.5007 27.9997V16.333C30.5007 15.4163 29.7507 14.6663 28.834 14.6663H25.5007ZM24.6673 21.333C24.6673 24.0944 22.4287 26.333 19.6673 26.333C16.9059 26.333 14.6673 24.0944 14.6673 21.333C14.6673 18.5716 16.9059 16.333 19.6673 16.333C22.4287 16.333 24.6673 18.5716 24.6673 21.333Z" stroke="black" stroke-width="2" stroke-miterlimit="10" stroke-linecap="round" stroke-linejoin="round"/>
</svg>
