<svg width="164" height="164" viewBox="0 0 164 164" fill="none" xmlns="http://www.w3.org/2000/svg">
<rect x="2.5" y="2.5" width="159" height="159" rx="17.5" stroke="#4F4F4F" stroke-width="5"/>
<path d="M46.4687 70.3815H53.3021M104.552 60.1315L99.7688 50.2232C98.7438 47.8315 96.3521 46.4648 93.6187 46.4648H67.9938C65.2604 46.4648 62.8688 47.8315 61.8438 50.2232L56.7187 60.1315H43.0521C39.2937 60.1315 36.2188 63.2065 36.2188 66.9648V114.798C36.2188 118.557 39.2937 121.632 43.0521 121.632H118.219C121.977 121.632 125.052 118.557 125.052 114.798V66.9648C125.052 63.2065 121.977 60.1315 118.219 60.1315H104.552ZM101.135 87.4648C101.135 98.7867 91.9573 107.965 80.6354 107.965C69.3136 107.965 60.1354 98.7867 60.1354 87.4648C60.1354 76.143 69.3136 66.9648 80.6354 66.9648C91.9573 66.9648 101.135 76.143 101.135 87.4648Z" stroke="black" stroke-width="5" stroke-miterlimit="10" stroke-linecap="round" stroke-linejoin="round"/>
</svg>
