<svg width="15" height="20" viewBox="0 0 15 20" fill="none" xmlns="http://www.w3.org/2000/svg">
<path d="M0.243994 5.25642C-0.244881 7.08578 0.00600679 8.9966 0.9506 10.6368C2.21036 12.8243 4.55968 14.1831 7.08169 14.1831C8.03352 14.1831 8.97665 13.987 9.8513 13.6125L13.53 20L15 19.1491L11.3212 12.7614C12.5857 11.8138 13.4929 10.4792 13.9077 8.9266C14.3966 7.09724 14.1457 5.18642 13.2011 3.54618C11.9415 1.35889 9.59215 0 7.07015 0C5.83528 0 4.61445 0.328888 3.53949 0.951041C1.90334 1.898 0.733096 3.42706 0.243994 5.25642ZM7.07015 1.70173C8.98762 1.70173 10.7737 2.73457 11.7312 4.39716C12.4491 5.64374 12.6398 7.09599 12.2682 8.48631C11.8967 9.87662 11.0072 11.0388 9.76371 11.7584C8.94643 12.2314 8.01915 12.4814 7.0818 12.4814C5.16432 12.4814 3.37823 11.4486 2.42074 9.78598C1.70281 8.5394 1.51213 7.08726 1.88376 5.69694C2.2554 4.30652 3.14477 3.14446 4.38823 2.42474C5.20551 1.95177 6.13279 1.70173 7.07015 1.70173Z" fill="#242424"/>
</svg>
