<svg width="11" height="10" viewBox="0 0 11 10" fill="none" xmlns="http://www.w3.org/2000/svg">
<path d="M9.98594 3.7937C9.94874 3.68259 9.85248 3.60164 9.73669 3.58383L6.66229 3.11409L5.28479 0.179707C5.23323 0.0700077 5.1229 0 5.0018 0C4.88069 0 4.77052 0.0700077 4.7188 0.179707L3.3413 3.11409L0.266903 3.58399C0.151109 3.60164 0.0550045 3.68275 0.0176566 3.79385C-0.0195349 3.9048 0.00843687 4.02732 0.0903208 4.11123L2.324 6.40164L1.79613 9.63699C1.77676 9.75513 1.8266 9.87405 1.92458 9.94281C1.97834 9.98078 2.04132 10 2.10445 10C2.15633 10 2.20852 9.98687 2.25571 9.96093L5.00164 8.44217L7.74756 9.96093C7.79476 9.98687 7.84695 10 7.89883 10C7.96196 10 8.02509 9.98078 8.07869 9.94281C8.17667 9.87405 8.22652 9.75513 8.20715 9.63699L7.67928 6.40164L9.91296 4.11123C9.995 4.02716 10.0231 3.90465 9.98594 3.7937Z" fill="white"/>
</svg>
