<svg width="17" height="14" viewBox="0 0 17 14" fill="none" xmlns="http://www.w3.org/2000/svg">
<path fill-rule="evenodd" clip-rule="evenodd" d="M16.1754 5.43821L16.2932 5.5568V6.03116L16.2595 6.11587L16.0912 6.30222L15.8555 6.42081L15.5694 6.4547L15.2328 6.30222C14.5034 5.81657 13.8357 5.45515 13.2298 5.21797C12.6239 4.99208 12.0572 4.8509 11.5298 4.79443L10.2169 4.84526L9.1902 4.99773L8.53377 5.0655L7.89416 5.08244H7.79317L7.42287 4.92997L7.1199 4.82832L6.86743 4.74361L6.71594 4.99773L6.51396 5.16715L6.8001 5.62457L7.22089 6.20057V6.2514L7.28822 6.30222L7.79317 6.72576C7.9166 6.72576 7.9166 6.78788 7.79317 6.91212L7.72584 6.96294L7.62485 6.91212L7.37238 6.72576L7.59119 7.65754L7.72584 8.72485C7.89416 9.54934 8.19713 10.3004 8.63476 10.9781C9.07238 11.6557 9.6671 12.2374 10.4189 12.723L10.6377 12.9602L10.6546 13.1635V13.2652L10.6041 13.5023L10.4694 13.6718L10.4189 13.8581L10.1328 13.9428C10.043 14.0445 9.87469 14.0106 9.62783 13.8412L9.54367 13.7903C8.63476 13.2143 7.91099 12.548 7.37238 11.7913C6.84499 11.0232 6.46908 10.1818 6.24466 9.26698L6.14367 8.30132L6.07634 7.50507L5.97535 6.96294L5.92485 6.55635L5.73971 6.35305L5.40307 5.79398L5.13376 5.47209L4.94862 5.21797L4.84763 5.08244L4.56149 4.96385L4.1407 4.77749L3.55159 4.55725L0.79119 2.2871L0.707031 2.16851C0.707031 2.12333 0.735084 2.10074 0.79119 2.10074V2.01603C0.79119 1.95956 0.847295 1.93133 0.959507 1.93133L3.90505 3.0664L3.97238 3.18499L3.98921 3.32053C3.98921 3.48994 4.01726 3.57465 4.07337 3.57465L4.32584 3.55771L4.42683 3.48994V3.40523L4.74664 2.9817L4.76347 2.79534L4.61198 2.76146L4.51099 2.79534H4.34268L4.24169 2.71063L2.35654 0.203298V0H2.60901L5.11693 1.76191H5.21792L5.68921 2.42263L6.02584 2.89699L6.24466 3.13417L6.58129 3.23582L7.08624 3.38829L7.62485 3.52382L7.89416 3.57465L8.90406 3.48994L11.0922 3.40523L12.4219 3.45606L13.4486 3.72712L14.5763 4.33701L16.1754 5.43821ZM7.69218 5.69233L7.79317 5.67539L8.48327 5.94645L8.56743 6.11587L8.48327 6.14975L8.39911 6.11587L7.72584 5.94645C7.66974 5.94645 7.63608 5.92951 7.62485 5.89563V5.79398C7.62485 5.72621 7.6473 5.69233 7.69218 5.69233ZM7.97832 5.31962L8.66842 5.43821C8.7133 5.43821 8.75819 5.45515 8.80307 5.48903L8.85357 5.59068L8.80307 5.67539H8.66842L7.97832 5.59068C7.92221 5.59068 7.89416 5.53986 7.89416 5.43821L7.92783 5.3535C7.93905 5.33091 7.95588 5.31962 7.97832 5.31962ZM8.24763 6.42081V6.55635L8.09614 6.57329C8.0737 6.59588 8.06248 6.59023 8.06248 6.55635L7.45654 6.20057C7.40043 6.20057 7.37238 6.1441 7.37238 6.03116L7.45654 5.99728L7.55753 6.03116L8.12981 6.35305L8.24763 6.42081Z" fill="white"/>
</svg>
