<svg width="15" height="15" viewBox="0 0 15 15" fill="none" xmlns="http://www.w3.org/2000/svg">
<g clip-path="url(#clip0_1297_57834)">
<mask id="mask0_1297_57834" style="mask-type:luminance" maskUnits="userSpaceOnUse" x="0" y="0" width="15" height="15">
<path d="M15 0H0V15H15V0Z" fill="white"/>
</mask>
<g mask="url(#mask0_1297_57834)">
<path d="M7.51254 0.0795898C3.72947 0.0795898 0.792969 3.12191 0.792969 6.79916C0.792969 11.0584 1.98344 11.5081 3.75593 11.323C3.75593 11.323 4.39085 14.9208 5.50196 14.9208C6.61307 14.9208 7.61836 14.9208 7.61836 14.9208C7.61836 14.9208 8.62366 14.9208 9.6554 14.9208C10.6871 14.9208 11.4014 11.323 11.4014 11.323C13.1475 11.5081 14.3644 11.0584 14.3644 6.79916C14.3644 3.12191 11.3221 0.0795898 7.51254 0.0795898ZM3.78239 9.12721C2.85646 8.8362 2.40672 7.67218 2.77709 6.4817C3.14746 5.29123 4.17921 4.6034 5.10514 4.8944C6.03106 5.18541 6.4808 6.34943 6.11043 7.5399C5.76651 8.67747 4.70831 9.41821 3.78239 9.12721ZM7.61836 10.8468C6.87762 10.8468 6.2427 12.4076 6.2427 10.7674C6.2427 10.688 6.2427 10.5822 6.2427 10.5029C6.42789 9.76213 7.06281 8.57165 7.539 8.57165C8.09455 8.57165 8.91466 9.94731 8.91466 10.6087C8.91466 10.6087 8.91466 10.688 8.99403 10.7939C8.99403 12.3547 8.25328 10.8468 7.61836 10.8468ZM11.4014 9.10075C10.4755 9.39176 9.44376 8.67747 9.07339 7.51345C8.70302 6.32297 9.17921 5.15895 10.0787 4.86795C11.0046 4.57694 12.0363 5.29123 12.4067 6.45525C12.7771 7.64572 12.3273 8.80975 11.4014 9.10075Z" fill="white"/>
</g>
</g>
<defs>
<clipPath id="clip0_1297_57834">
<rect width="15" height="15" fill="white"/>
</clipPath>
</defs>
</svg>
