<svg width="15" height="15" viewBox="0 0 15 15" fill="none" xmlns="http://www.w3.org/2000/svg">
<path d="M7.513 2.83069C10.8728 2.83069 13.5977 5.55556 13.5977 8.91534C13.5977 12.2751 10.8728 15 7.513 15C4.15321 15 1.42835 12.2751 1.42835 8.91534C1.42835 5.55556 4.15321 2.83069 7.513 2.83069ZM7.513 14.0741C10.3437 14.0741 12.6717 11.7725 12.6717 8.91534C12.6717 6.08466 10.3701 3.75661 7.513 3.75661C4.68231 3.75661 2.35427 6.0582 2.35427 8.91534C2.35427 11.746 4.68231 14.0741 7.513 14.0741ZM12.0633 2.8836C12.1955 2.6455 12.1162 2.38095 11.9045 2.24868L11.0844 1.77249C10.8728 1.64021 10.5818 1.71958 10.4495 1.95767L9.94686 2.83069C10.5289 3.06878 11.0844 3.38624 11.5606 3.75661L12.0633 2.8836ZM3.46538 3.75661C3.94157 3.35979 4.49713 3.04233 5.07914 2.83069L4.57649 1.95767C4.44422 1.71958 4.15321 1.66667 3.94157 1.77249L3.12147 2.24868C2.88337 2.38095 2.83046 2.67196 2.93628 2.8836L3.46538 3.75661ZM8.91512 1.42857V0.47619C8.91512 0.21164 8.70348 0 8.43893 0H6.56062C6.29607 0 6.08443 0.21164 6.08443 0.47619V1.40212C6.08443 1.66667 6.29607 1.87831 6.56062 1.87831V2.43386C6.87808 2.38095 7.16909 2.3545 7.48655 2.3545C7.80401 2.3545 8.14792 2.38095 8.43893 2.43386V1.87831C8.70348 1.87831 8.91512 1.69312 8.91512 1.42857Z" fill="#1CBCFF"/>
<path d="M7.5132 10.1323C7.83066 10.1323 8.09521 9.86771 8.09521 9.55025V5.47618C8.09521 5.15872 7.83066 4.89417 7.5132 4.89417C7.19574 4.89417 6.93119 5.15872 6.93119 5.47618V9.55025C6.93119 9.86771 7.19574 10.1323 7.5132 10.1323Z" fill="#1CBCFF"/>
<path d="M7.51304 10.2381C7.00166 10.2381 6.58711 9.82353 6.58711 9.31216C6.58711 8.80078 7.00166 8.38623 7.51304 8.38623C8.02441 8.38623 8.43896 8.80078 8.43896 9.31216C8.43896 9.82353 8.02441 10.2381 7.51304 10.2381Z" fill="#1CBCFF"/>
</svg>
