<svg width="37" height="32" viewBox="0 0 37 32" fill="none" xmlns="http://www.w3.org/2000/svg">
<path d="M32.6298 0.221445C30.8672 2.84095 28.9791 5.49684 27.1505 8.12627C26.805 8.6246 26.4199 8.95865 25.9952 9.12843C21.7328 10.8351 17.477 12.5572 13.2278 14.2947C12.8141 14.4623 12.4686 14.7214 12.1913 15.0719C9.88516 17.9891 7.55481 20.9658 5.20025 24.0021C5.18683 24.0184 5.16766 24.0294 5.14651 24.0329C5.12536 24.0364 5.10375 24.0321 5.08596 24.0209C5.06816 24.0097 5.05545 23.9924 5.05034 23.9724C5.04522 23.9524 5.04806 23.9311 5.05831 23.9128L10.8446 12.5517C10.9282 12.3841 11.0514 12.2551 11.2143 12.1647L32.4944 0.0792243C32.7431 -0.061894 32.7882 -0.014487 32.6298 0.221445Z" fill="#00FF90"/>
<path d="M22.4006 26.2578C22.5568 26.1013 22.5282 25.9943 22.3148 25.937C20.3772 25.4177 17.4131 24.2932 15.4722 24.5479C12.3563 24.958 9.25466 25.377 6.16733 25.8047C6.1552 25.8063 6.14292 25.8034 6.13284 25.7964C6.12275 25.7895 6.11559 25.7791 6.11272 25.7672C6.10985 25.7553 6.11148 25.7427 6.1173 25.7319C6.12311 25.7212 6.13271 25.7129 6.14422 25.7088C9.35259 24.5291 12.5598 23.3627 15.766 22.2095C16.4306 21.9692 17.116 21.8424 17.8224 21.8292C21.011 21.7718 24.1907 21.7156 27.3617 21.6605C27.381 21.6601 27.4001 21.6644 27.4175 21.6729C27.4349 21.6814 27.45 21.6939 27.4616 21.7094C27.4732 21.7249 27.481 21.7429 27.4843 21.762C27.4875 21.7811 27.4863 21.8007 27.4805 21.8192C25.4604 27.9876 20.3772 31.95 13.944 31.9996C3.42767 32.079 -3.25971 20.7046 1.63205 11.3379C4.84371 5.19263 12.2243 2.40444 18.8721 4.80897C19.0085 4.85968 19.0228 4.93355 18.915 5.03057L17.3867 6.39655C17.3379 6.44027 17.2788 6.47103 17.2148 6.48605C17.1508 6.50107 17.084 6.49986 17.0203 6.48254C7.14766 3.80681 -0.836939 13.9905 3.29234 23.0132C6.74167 30.5509 16.6044 32.079 22.4006 26.2578Z" fill="#00FF90"/>
<path d="M30.4644 17.8104C30.0485 18.4455 29.6722 18.3859 29.0055 18.4752C25.258 18.9758 21.5061 19.4664 17.7498 19.9471C16.9686 20.0485 16.2182 20.258 15.4987 20.5755C12.1517 22.0572 8.81787 23.5301 5.49728 24.9942C5.48725 25.0005 5.47548 25.0027 5.46426 25.0002C5.45303 24.9978 5.44317 24.991 5.43657 24.9811C5.42998 24.9712 5.42714 24.9589 5.4286 24.9466C5.43006 24.9344 5.43571 24.9231 5.44447 24.9149C8.23473 21.9734 11.0338 19.043 13.8417 16.1236C14.1651 15.7863 14.5502 15.5437 14.9969 15.396C21.7151 13.1557 28.8448 10.7633 36.386 8.21881C36.5951 8.14604 36.6402 8.20447 36.5214 8.3941C34.5629 11.4965 32.5439 14.6353 30.4644 17.8104Z" fill="#F44E1C"/>
</svg>
