<svg width="250" height="150" viewBox="0 0 250 150" fill="none" xmlns="http://www.w3.org/2000/svg">
<g clip-path="url(#clip0_1284_58357)">
<path d="M0 0H250V150H0V0Z" fill="#007C30"/>
<path d="M0 0H166.667V150H0V0Z" fill="#C00000"/>
<path d="M0 0H83.3333V150H0V0Z" fill="black"/>
<path fill-rule="evenodd" clip-rule="evenodd" d="M132.722 84.6899L135.855 84.6903C135.866 85.8742 136.56 87.1462 137.535 87.8752H131.532C132.472 87.0236 132.728 86.0141 132.722 84.6899Z" fill="white" stroke="#BD6B00" stroke-width="0.3"/>
<path fill-rule="evenodd" clip-rule="evenodd" d="M112.927 66.9488L114.642 68.8388L135.99 68.8737L137.741 66.9837L132.281 66.9139L129.621 65.0588L121.046 65.0239L118.561 66.9488H112.927Z" fill="white"/>
<path fill-rule="evenodd" clip-rule="evenodd" d="M121.668 64.7775L129.039 64.77C130.038 64.242 130.349 62.5567 130.344 61.614C130.33 58.8281 128.382 57.4924 126.427 57.4215C126.134 57.4065 125.794 57.1785 125.716 56.9115C125.523 56.3066 125.573 55.9211 125.362 55.9425C125.175 55.9399 125.23 56.295 125.063 56.8624C124.971 57.1444 124.654 57.4226 124.337 57.4387C121.904 57.5602 120.334 59.337 120.395 61.614C120.437 63.1196 120.612 64.0185 121.668 64.7775Z" fill="white" stroke="#BD6B00" stroke-width="0.3"/>
<path fill-rule="evenodd" clip-rule="evenodd" d="M109.534 91.0612H141.207L138.373 88.7512H112.369L109.534 91.0612Z" fill="white"/>
<path fill-rule="evenodd" clip-rule="evenodd" d="M124.055 82.3837L124.633 84.1162H125.945L124.895 82.3833H124.055V82.3837ZM123.32 84.1162L123.653 85.8311L125.192 85.8483L124.633 84.1162H123.32ZM125.927 84.1334L126.995 85.8311H129.182L127.468 84.1154L125.928 84.1334H125.927ZM113.013 88.0184C114.174 86.9392 114.915 86.0178 114.921 84.6937H117.755C117.761 85.4347 118.029 85.8776 118.438 85.8487L121.308 85.8311L121.291 84.1334H119.208L119.208 74.8754C119.132 71.6032 123.186 69.6956 124.843 69.7128L114.99 69.6956V69.3982H135.709L135.727 69.6956L125.735 69.7128C128.698 69.7188 131.556 72.5253 131.58 74.8934V77.5184H131.194L131.177 74.9287C131.177 72.3382 127.915 69.9176 125.297 69.9933C123.033 70.0582 119.523 72.2159 119.557 74.9114V75.7162L124.93 75.7514L124.877 76.6784L125.721 77.2169L127.403 77.7532L127.379 79.1444L128.583 79.4996L128.594 80.8893L130.039 81.5096V82.9481L130.956 83.5132L130.914 84.9738L132.157 85.8487H129.217L131.054 87.8962H128.342L126.994 85.8487H125.209L126.014 87.8786L124.108 87.8613L123.652 85.8487H121.325L121.342 88.0184H113.013H113.013ZM121.326 82.4009V84.1154H123.321L122.917 82.4006L121.326 82.4009Z" fill="white"/>
<path d="M124.633 84.1162L124.055 82.3837V82.3833H124.895L125.945 84.1162H124.633ZM124.633 84.1162L125.192 85.8483L123.653 85.8311L123.32 84.1162H124.633ZM125.927 84.1334L126.995 85.8311H129.182L127.468 84.1154L125.928 84.1334H125.927ZM113.013 88.0184C114.174 86.9392 114.915 86.0178 114.921 84.6937H117.755C117.761 85.4347 118.029 85.8776 118.438 85.8487L121.308 85.8311L121.291 84.1334H119.208L119.208 74.8754C119.132 71.6032 123.186 69.6956 124.843 69.7128L114.99 69.6956V69.3982H135.709L135.727 69.6956L125.735 69.7128C128.698 69.7188 131.556 72.5253 131.58 74.8934V77.5184H131.194L131.177 74.9287C131.177 72.3382 127.915 69.9176 125.297 69.9933C123.033 70.0582 119.523 72.2159 119.557 74.9114V75.7162L124.93 75.7514L124.877 76.6784L125.721 77.2169L127.403 77.7532L127.379 79.1444L128.583 79.4996L128.594 80.8893L130.039 81.5096V82.9481L130.956 83.5132L130.914 84.9738L132.157 85.8487H129.217L131.054 87.8962H128.342L126.994 85.8487H125.209L126.014 87.8786L124.108 87.8613L123.652 85.8487H121.325L121.342 88.0184H113.013H113.013ZM121.326 82.4009V84.1154H123.321L122.917 82.4006L121.326 82.4009Z" stroke="#BD6B00" stroke-width="0.3"/>
<path fill-rule="evenodd" clip-rule="evenodd" d="M121.433 79.3726H122.675V82.2252H121.433V79.3726Z" stroke="#BD6B00" stroke-width="0.3"/>
<path fill-rule="evenodd" clip-rule="evenodd" d="M119.677 82.425H120.889L120.882 80.3261C120.866 79.4138 121.685 78.4943 122.077 78.4635C122.512 78.447 123.152 79.3249 123.173 80.2545L123.191 82.4318L124.477 82.4291V77.0254L119.677 77.0505V82.425ZM129.272 83.6775H130.777V84.8501H129.272V83.6775ZM128.38 81.6638H129.885V82.8364H128.38V81.6638ZM126.929 79.65H128.434V80.8226H126.929V79.65ZM125.688 77.955H127.193V79.1276H125.688V77.955Z" stroke="#BD6B00" stroke-width="0.3"/>
<path fill-rule="evenodd" clip-rule="evenodd" d="M124.689 82.4325L126.229 82.485L128.976 84.9176V83.4825L128.049 82.8176V81.6799L126.702 80.9104V79.6849L125.389 79.2476V77.5849L124.724 77.0422L124.689 82.4325Z" stroke="#BD6B00" stroke-width="0.3"/>
<path fill-rule="evenodd" clip-rule="evenodd" d="M131.196 78.8811H131.564V81.5237H131.196V78.8811Z" fill="white" stroke="#BD6B00" stroke-width="0.3"/>
<path fill-rule="evenodd" clip-rule="evenodd" d="M109.406 69.9486C108.943 69.2054 108.389 70.9795 106.486 72.2999C105.6 72.9032 104.983 74.5101 104.977 75.5672C104.948 76.2936 105.058 77.0177 104.977 77.7201C104.925 78.1649 104.462 79.1511 104.779 79.4035C105.617 80.026 106.701 81.4397 107.204 81.9276C107.639 82.309 108.016 79.9596 108.342 78.9085C108.692 77.7816 108.535 76.435 109.505 75.394C110.193 74.6909 111.928 73.999 111.733 73.6862L109.406 69.9486Z" fill="white" stroke="#BD6B00" stroke-width="0.3"/>
<path fill-rule="evenodd" clip-rule="evenodd" d="M109.309 75.7049C109.153 75.3508 108.944 75.0228 108.688 74.7322C108.426 74.4352 108.116 74.1858 107.774 74.0643C107.444 73.9424 107.107 73.7827 106.872 73.4902C106.741 73.3293 106.649 73.141 106.602 72.9393C106.556 72.7353 106.556 72.4856 106.591 72.2009C106.55 72.2309 106.528 72.2654 106.485 72.2947C105.599 72.8977 104.979 74.5072 104.974 75.5643C104.962 75.8533 104.962 76.1427 104.974 76.4317C105.039 76.6136 105.102 76.7898 105.196 76.9004C105.318 77.0441 105.464 77.1389 105.618 77.2049C105.927 77.3369 106.283 77.3643 106.614 77.4862C106.956 77.6077 107.308 77.8829 107.61 78.2129C107.878 78.5097 108.099 78.8456 108.266 79.2089C108.291 79.1178 108.324 78.9824 108.348 78.9041C108.665 77.8837 108.61 76.6957 109.309 75.7049Z" fill="#BF0000" stroke="#BD6B00" stroke-width="0.3"/>
<path d="M106.594 72.1462C106.413 73.4047 107.114 73.8236 107.775 74.0674C108.459 74.3104 109.02 75.0446 109.309 75.7091M104.899 76.29C105.188 77.3749 105.949 77.2391 106.61 77.4829C107.294 77.7262 108.014 78.5917 108.303 79.2562" stroke="#BD6B00" stroke-width="0.3"/>
<path fill-rule="evenodd" clip-rule="evenodd" d="M108.765 69.18L109.111 68.9573L115.768 80.169L115.421 80.3918L108.765 69.18Z" fill="white" stroke="#BD6B00" stroke-width="0.3"/>
<path fill-rule="evenodd" clip-rule="evenodd" d="M109.482 68.7337C109.482 68.9372 109.401 69.1323 109.257 69.2762C109.113 69.4201 108.918 69.5009 108.714 69.5009C108.511 69.5009 108.316 69.4201 108.172 69.2762C108.028 69.1323 107.947 68.9372 107.947 68.7337C107.947 68.5302 108.028 68.335 108.172 68.1912C108.316 68.0473 108.511 67.9664 108.714 67.9664C108.918 67.9664 109.113 68.0473 109.257 68.1912C109.401 68.335 109.482 68.5302 109.482 68.7337ZM115.174 59.7262H117.871V60.3449H115.174V59.7262ZM115.174 60.8999H117.871V66.0689H115.174V60.8999ZM115.009 59.0212L118.001 59.0388C118.118 58.0241 117.105 56.9276 116.514 56.9388C115.929 56.9673 114.985 58.0473 115.009 59.0212Z" fill="white" stroke="#BD6B00" stroke-width="0.3"/>
<path fill-rule="evenodd" clip-rule="evenodd" d="M122.643 58.4101C122.073 58.6501 121.635 59.3015 121.366 60.0507C121.096 60.8 120.994 61.6508 121.12 62.336V62.3476C121.168 62.5838 121.232 62.7537 121.307 62.8748C121.382 62.9963 121.466 63.0676 121.565 63.086C121.664 63.1043 121.758 63.0511 121.811 62.9686C121.865 62.8861 121.89 62.7777 121.881 62.6521C121.827 61.9478 121.831 61.2526 121.998 60.6248C122.166 59.9971 122.5 59.4383 123.112 58.9842C123.222 58.9032 123.286 58.8106 123.3 58.7146C123.313 58.619 123.262 58.5368 123.194 58.4802C123.057 58.3673 122.842 58.3276 122.643 58.4101ZM122.702 58.5743C122.84 58.5166 123.017 58.5503 123.088 58.6092C123.124 58.6388 123.128 58.6591 123.123 58.6913C123.119 58.7236 123.094 58.7791 123.006 58.8436C122.364 59.3206 122.01 59.9206 121.835 60.578C121.658 61.2357 121.662 61.9505 121.717 62.6641C121.724 62.7375 121.708 62.8113 121.67 62.8748C121.644 62.9153 121.63 62.9273 121.6 62.9217C121.57 62.9161 121.507 62.8778 121.448 62.7811C121.388 62.6847 121.329 62.5351 121.284 62.3123C121.166 61.6696 121.27 60.8322 121.53 60.1092C121.79 59.3866 122.206 58.7828 122.702 58.5743Z" fill="#BD6B00"/>
<path fill-rule="evenodd" clip-rule="evenodd" d="M123.606 59.1488C123.036 59.3884 122.668 60.0083 122.47 60.7193C122.271 61.4299 122.239 62.2436 122.364 62.922C122.462 63.4035 122.714 63.6578 122.961 63.6956C123.085 63.7144 123.204 63.6656 123.278 63.5666C123.351 63.4676 123.375 63.3345 123.336 63.1684C123.197 62.6066 123.143 61.9061 123.243 61.2698C123.342 60.6338 123.595 60.0656 124.075 59.7229C124.186 59.6423 124.249 59.5493 124.263 59.4533C124.276 59.3576 124.225 59.2639 124.157 59.2073C124.02 59.094 123.806 59.0663 123.606 59.1488ZM123.677 59.313C123.815 59.2553 123.98 59.289 124.052 59.3479C124.087 59.3775 124.103 59.3981 124.098 59.43C124.094 59.4619 124.058 59.5181 123.969 59.5823C123.44 59.9606 123.171 60.5813 123.067 61.2465C122.963 61.9114 123.028 62.6205 123.172 63.2033C123.203 63.336 123.173 63.4253 123.137 63.4733C123.102 63.5209 123.057 63.5426 122.985 63.5314C122.841 63.5093 122.617 63.3236 122.528 62.8871C122.409 62.2376 122.443 61.4366 122.633 60.7541C122.824 60.0716 123.18 59.5215 123.676 59.3126L123.677 59.313Z" fill="#BD6B00"/>
<path fill-rule="evenodd" clip-rule="evenodd" d="M115.027 70.2712H118.037V74.4364H115.027V70.2712ZM115.204 76.8187H118.109V77.6936H115.204V76.8187ZM115.132 78.3562H118.107V81.6112H115.132V78.3562ZM114.923 82.2787H118.177V84.0986H114.923V82.2787ZM115.324 76.035H117.947L118.467 75.1687H114.854L115.324 76.035ZM118.86 72.8437L118.884 70.5671H120.691C119.981 71.1525 119.322 71.8624 118.86 72.8437Z" fill="white" stroke="#BD6B00" stroke-width="0.3"/>
<path fill-rule="evenodd" clip-rule="evenodd" d="M115.495 73.7774C115.513 74.2645 116.064 74.0474 116.064 73.8021C116.064 73.0506 116.075 72.2384 116.045 71.7066C116.041 71.3147 116.978 71.413 116.973 71.6541C116.977 72.2886 116.984 73.1586 116.987 73.9011C116.98 74.2626 117.593 74.2311 117.585 73.9011C117.581 73.0716 117.58 71.8667 117.585 71.2566C117.59 70.4706 115.521 70.4879 115.505 71.239C115.506 71.8559 115.494 72.9602 115.495 73.7774ZM115.499 78.7424H117.634V81.4026H115.499V78.7424Z" stroke="#BD6B00" stroke-width="0.3"/>
<path fill-rule="evenodd" clip-rule="evenodd" d="M116.865 79.845H117.618V80.2826H116.865V79.845ZM115.553 79.845H116.288V80.2826H115.553V79.845Z" fill="white" stroke="#BD6B00" stroke-width="0.3"/>
<path fill-rule="evenodd" clip-rule="evenodd" d="M116.286 78.7762H116.864V79.8611H116.286V78.7762ZM116.286 80.265H116.864V81.42H116.286V80.265ZM104.407 52.1137C104.541 54.2014 103.893 55.3474 102.787 55.173C102.483 54.015 103.176 53.238 104.407 52.1137ZM101.981 56.7412C100.998 56.2414 101.707 52.4239 102.085 50.8237C102.364 52.8851 102.831 55.8146 101.981 56.7412Z" fill="white" stroke="#BD6B00" stroke-width="0.3"/>
<path fill-rule="evenodd" clip-rule="evenodd" d="M102.33 56.9212C103.982 57.496 105.29 55.7167 105.732 53.6557C104.368 55.5378 102.149 55.54 102.33 56.9212ZM101.077 58.8487C99.7856 58.5074 100.564 54.4574 100.798 52.8374C101.082 54.5107 101.973 58.2944 101.077 58.8487ZM101.52 58.7212C101.592 57.3243 102.984 57.7282 103.945 56.9827C103.788 57.6802 103.197 58.9177 101.52 58.7212ZM99.9374 60.5924C98.6573 60.247 99.4267 55.8884 99.3544 54.094C99.7293 55.6447 100.918 60.1724 99.9374 60.5924ZM100.534 60.4049C101.582 60.7462 102.971 60.0644 103.081 58.8153C102.177 59.4284 100.736 58.9597 100.534 60.4049Z" fill="white" stroke="#BD6B00" stroke-width="0.3"/>
<path fill-rule="evenodd" clip-rule="evenodd" d="M98.9821 62.5162C97.7578 62.6137 98.3057 58.9019 98.3064 55.4448C98.7564 58.6762 99.9814 61.6342 98.9821 62.5162Z" fill="white" stroke="#BD6B00" stroke-width="0.3"/>
<path fill-rule="evenodd" clip-rule="evenodd" d="M99.4053 62.3476C100.232 62.7623 101.714 62.0993 102.137 60.7025C100.643 61.3523 99.6438 60.7174 99.4053 62.3476ZM109.016 54.0488C108.798 55.8597 108.058 56.9131 106.952 56.7391C106.648 55.5811 107.544 54.8408 109.016 54.0488ZM106.091 58.6951C107.928 58.9557 108.589 57.5461 109.826 55.7438C108.093 56.9978 106.021 57.2585 106.091 58.6951Z" fill="white" stroke="#BD6B00" stroke-width="0.3"/>
<path fill-rule="evenodd" clip-rule="evenodd" d="M105.57 58.4888C104.569 57.2873 105.536 55.7783 106.301 54.4924C106.137 56.4057 106.789 57.4699 105.57 58.4888ZM105.128 60.4726C105.015 59.2973 107.017 59.0363 107.922 58.3831C107.617 59.0622 107.156 60.8907 105.128 60.4726Z" fill="white" stroke="#BD6B00" stroke-width="0.3"/>
<path fill-rule="evenodd" clip-rule="evenodd" d="M104.707 60.4988C103.323 60.3421 103.898 57.9916 104.89 56.6851C104.472 58.4877 105.621 59.7413 104.707 60.4988Z" fill="white" stroke="#BD6B00" stroke-width="0.3"/>
<path fill-rule="evenodd" clip-rule="evenodd" d="M103.666 62.4562C102.091 61.7594 103.1 59.7836 103.692 58.6169C103.44 60.1492 104.702 61.3154 103.666 62.4562Z" fill="white" stroke="#BD6B00" stroke-width="0.3"/>
<path fill-rule="evenodd" clip-rule="evenodd" d="M103.977 62.2725C104.803 63.3521 106.414 61.9504 106.745 60.3135C105.343 61.4805 104.308 61.2885 103.977 62.2725ZM100.377 69.87C100.215 68.2624 101.424 65.3385 100.566 63.78C100.449 63.5659 100.823 62.9973 101.065 63.3424C101.442 63.8928 101.829 65.4619 101.992 64.8825C102.164 64.2525 102.191 63.1387 102.748 62.922C103.104 62.7952 103.607 62.7124 103.47 63.2722C103.333 63.8107 103.028 64.5547 103.366 64.6024C103.563 64.6316 104.128 63.8696 104.604 63.5175C104.987 63.2032 105.559 63.6949 104.999 64.1647C103.176 65.6786 101.41 66.36 100.377 69.87ZM97.1034 94.0687C96.8897 94.0275 96.5964 93.9551 96.8634 94.2877C98.9925 96.9112 99.6086 97.6342 102.714 97.2652C105.85 96.852 106.597 96.0037 108.793 94.7715C109.967 94.083 111.682 93.9304 112.982 94.3567C113.587 94.5547 113.953 94.5667 113.52 94.1321C113.085 93.6982 112.573 93.1083 112.039 92.7015C110.87 91.8037 108.886 91.4145 107.268 91.7032C104.979 92.0625 103.088 93.5201 100.828 94.0706C99.6401 94.3417 98.3378 94.3009 97.1038 94.0687H97.1034ZM115.023 98.7562C115.419 98.8054 115.67 99.5726 115.865 99.0532C116.195 98.2125 115.964 97.5435 115.592 97.6173C115.154 97.7343 114.412 98.7176 115.023 98.7562Z" fill="white" stroke="#BD6B00" stroke-width="0.3"/>
<path fill-rule="evenodd" clip-rule="evenodd" d="M95.6369 68.595C95.1813 68.1191 95.313 67.9373 95.9868 67.9298C96.5211 67.896 97.5804 68.2571 97.9816 67.9646C98.3502 67.6973 98.2036 66.5629 98.3671 66.0398C98.4383 65.748 98.6427 65.2901 99.102 66.0049C100.46 68.1814 102.157 70.7948 102.882 73.3549C103.278 74.7896 102.905 77.0299 101.587 78.5351C101.633 77.2515 101.155 76.3883 100.572 75.315C99.8512 73.9043 97.1754 70.0834 95.6369 68.595Z" fill="white"/>
<path fill-rule="evenodd" clip-rule="evenodd" d="M101.236 80.04C102.729 80.0475 102.986 78.045 102.986 77.4851C102.251 77.625 100.956 78.8501 101.236 80.04ZM114.142 99.4725C115.204 99.7144 115.19 97.1557 114.105 96.0712C114.582 97.7145 113.307 99.2167 114.142 99.4725ZM113.73 99.45C113.8 100.666 110.745 99.291 109.96 98.3452C111.765 99.1117 113.641 98.4772 113.73 99.45ZM112.391 97.7137C112.5 98.8916 109.742 97.8562 108.927 96.936C110.738 97.521 112.271 96.7444 112.391 97.7137ZM112.897 97.8787C113.959 98.1206 113.787 95.4742 112.755 94.5649C113.25 96.3311 112.062 97.623 112.897 97.8787ZM111.78 96.27C112.842 96.5119 112.232 94.2334 111.445 93.3236C111.573 94.9849 111.049 96.1369 111.78 96.27ZM111.217 96.2625C111.327 97.4756 109.181 96.5441 108.349 95.3966C110.142 95.982 111.097 95.2931 111.217 96.2625ZM110.632 95.34C111.328 94.8397 110.59 93.5164 109.266 93.5981C109.395 94.3976 109.853 95.8031 110.632 95.34ZM115.863 100.826C115.933 102.042 112.878 101.437 111.919 100.142C113.846 100.506 115.774 99.8535 115.863 100.826ZM103.729 98.6512C103.839 99.8644 100.504 98.5305 99.6709 97.3826C101.464 97.968 103.609 97.6819 103.729 98.6512ZM105.773 99.1687C106.469 98.6685 105.048 97.38 103.916 97.077C104.046 97.8761 104.993 99.6319 105.773 99.1687ZM105.987 100.009C106.061 101.099 102.41 100.501 101.455 99.4935C104.596 100.061 105.884 99.0746 105.987 100.009Z" fill="white" stroke="#BD6B00" stroke-width="0.3"/>
<path fill-rule="evenodd" clip-rule="evenodd" d="M107.696 100.736C108.101 101.749 104.597 101.502 103.367 100.913C105.355 100.896 107.418 100.03 107.696 100.736Z" fill="white" stroke="#BD6B00" stroke-width="0.3"/>
<path fill-rule="evenodd" clip-rule="evenodd" d="M109.335 101.475C109.723 102.383 106.481 102.363 104.901 101.861C106.994 101.844 108.951 100.576 109.335 101.475ZM111.694 101.962C112.268 103.037 108.848 103.141 107.739 102.612C109.716 102.34 111.204 101.117 111.694 101.962ZM107.689 100.125C106.601 100.811 106.659 98.7885 105.794 97.3875C107.153 98.6257 108.426 99.4709 107.689 100.125Z" fill="white" stroke="#BD6B00" stroke-width="0.3"/>
<path fill-rule="evenodd" clip-rule="evenodd" d="M109.617 100.853C108.705 101.661 107.975 98.8853 107.145 97.3279C108.487 98.8107 110.46 100.181 109.617 100.853ZM112.167 101.625C111.395 102.521 109.16 98.9933 108.347 97.1554C109.585 98.586 112.782 100.866 112.167 101.625ZM109.992 104.318C109.607 105.68 103.921 103.034 103.286 101.663C106.54 103.387 110.07 103.026 109.992 104.318ZM91.7202 76.6425C91.5871 76.47 91.205 76.647 91.3002 77.0625C91.3891 77.6254 92.2189 80.514 93.6445 81.5078C94.6614 82.2405 100.006 83.421 102.429 83.9224C103.762 84.1905 104.879 84.8562 105.754 85.9174C105.392 84.5292 105.102 83.5005 104.634 82.2424C104.18 81.1373 102.976 79.9275 101.73 79.8627C99.4142 79.7794 96.4174 79.5822 94.24 78.6372C93.1162 78.1677 92.4431 77.5335 91.7202 76.6422V76.6425Z" fill="white" stroke="#BD6B00" stroke-width="0.3"/>
<path fill-rule="evenodd" clip-rule="evenodd" d="M104.989 88.0762C105.719 88.614 106.524 86.6872 105.597 84.8557C105.568 86.6186 104.167 87.2107 104.989 88.0762Z" fill="white" stroke="#BD6B00" stroke-width="0.3"/>
<path fill-rule="evenodd" clip-rule="evenodd" d="M105.691 89.8424C106.701 90.1525 107.017 88.366 106.352 86.9373C106.462 88.4721 104.764 89.3973 105.691 89.8424Z" fill="white" stroke="#BD6B00" stroke-width="0.3"/>
<path fill-rule="evenodd" clip-rule="evenodd" d="M106.459 91.2601C107.433 91.7457 107.803 89.9408 107.102 88.6006C107.178 90.3106 105.707 90.8146 106.459 91.2601Z" fill="white" stroke="#BD6B00" stroke-width="0.3"/>
<path fill-rule="evenodd" clip-rule="evenodd" d="M106.058 91.3687C105.672 92.5237 103.43 90.3731 103.053 89.2031C104.444 90.585 106.336 90.4324 106.058 91.3687Z" fill="white" stroke="#BD6B00" stroke-width="0.3"/>
<path fill-rule="evenodd" clip-rule="evenodd" d="M105.041 89.6026C104.602 90.7576 101.784 87.7838 101.161 86.3521C102.552 87.7339 105.355 88.7888 105.041 89.6026Z" fill="white" stroke="#BD6B00" stroke-width="0.3"/>
<path fill-rule="evenodd" clip-rule="evenodd" d="M104.483 87.87C104.044 89.1825 100.981 85.6841 100.113 84.4444C101.575 85.809 104.814 86.9164 104.483 87.87ZM104.386 86.5725C105.464 86.3625 104.325 85.4644 103.002 84.0042C102.941 85.5417 103.193 86.6164 104.386 86.5725Z" fill="white" stroke="#BD6B00" stroke-width="0.3"/>
<path fill-rule="evenodd" clip-rule="evenodd" d="M102.567 85.6986C103.033 85.1912 102.121 84.9752 100.991 83.7074C100.825 84.5624 102.039 86.1276 102.567 85.6986ZM107.787 91.3986C108.377 91.744 108.781 90.5346 108.046 89.4392C107.877 90.6242 107.246 90.9531 107.787 91.3986ZM94.9666 83.7674C93.7134 84.5189 91.7224 81.5204 91.1914 80.2866C92.2912 81.7026 95.2032 82.9956 94.9666 83.7674Z" fill="white" stroke="#BD6B00" stroke-width="0.3"/>
<path fill-rule="evenodd" clip-rule="evenodd" d="M96.0305 85.5151C95.3368 86.2838 93.1541 84.1955 92.3955 83.1372C93.5654 84.1505 96.3372 84.2708 96.0305 85.5151Z" fill="white" stroke="#BD6B00" stroke-width="0.3"/>
<path fill-rule="evenodd" clip-rule="evenodd" d="M97.2187 87.0826C96.99 88.1329 93.8043 85.7719 93.0596 84.6541C94.4331 85.9486 97.4276 85.8316 97.2187 87.0826Z" fill="white" stroke="#BD6B00" stroke-width="0.3"/>
<path fill-rule="evenodd" clip-rule="evenodd" d="M96.733 88.2188C96.2418 89.1645 93.6508 86.8211 93.0283 85.5986C94.6118 86.9805 97.1342 87.2835 96.733 88.2188ZM95.4019 83.6138C96.2193 82.7516 95.8713 82.3478 95.2751 80.9888C94.9493 82.3841 94.4577 82.941 95.4019 83.6138ZM96.4855 85.2413C97.9682 85.3065 96.4998 83.502 96.1492 81.9863C96.2782 83.7139 95.769 85.0755 96.4855 85.2413Z" fill="white" stroke="#BD6B00" stroke-width="0.3"/>
<path fill-rule="evenodd" clip-rule="evenodd" d="M97.4292 86.6737C98.4566 86.4412 98.1604 84.9873 97.373 83.2263C97.5364 85.1287 96.5027 86.2282 97.4292 86.6737ZM97.0805 89.5499C96.6943 90.7049 93.771 88.0289 93.3057 87.0168C94.7842 88.2588 97.3415 88.6837 97.0805 89.5499Z" fill="white" stroke="#BD6B00" stroke-width="0.3"/>
<path fill-rule="evenodd" clip-rule="evenodd" d="M98.8318 91.3536C98.3931 92.5094 95.3296 90.166 94.3926 88.8906C96.2382 90.3426 99.0583 90.208 98.8318 91.3536Z" fill="white" stroke="#BD6B00" stroke-width="0.3"/>
<path fill-rule="evenodd" clip-rule="evenodd" d="M100.616 93.1726C100.125 94.7828 96.9215 92.2125 95.9668 90.9544C98.0051 92.511 100.877 92.0269 100.616 93.1726ZM97.605 89.0363C98.475 89.4867 98.8267 87.0173 98.3358 85.2739C98.3422 87.1767 96.5907 88.5908 97.605 89.0363Z" fill="white" stroke="#BD6B00" stroke-width="0.3"/>
<path fill-rule="evenodd" clip-rule="evenodd" d="M99.091 90.9976C100.136 91.3081 99.805 88.6463 98.9118 86.9202C98.7959 88.6306 98.0246 90.2547 99.091 90.9976ZM100.947 92.8351C102.115 92.9003 101.311 90.5536 100.348 89.2302C100.512 90.9578 99.9685 92.6348 100.947 92.8351ZM98.8998 93.8363C98.5488 94.4311 97.6902 93.3312 96.2803 92.5279C97.5484 92.8598 99.0558 93.2851 98.8998 93.8363ZM98.2324 74.0588C99.322 73.2526 98.4911 71.7439 98.2324 70.3096C97.8818 71.6701 96.9586 73.4554 98.2324 74.0588ZM98.1949 76.0688C96.5578 75.8723 96.8037 73.7547 96.755 72.4126C97.2469 74.2343 98.589 74.5422 98.1949 76.0688ZM98.4536 75.7951C99.8387 75.7148 99.7652 74.1387 99.8391 72.5446C99.1372 74.0097 98.3055 74.2373 98.4536 75.7951Z" fill="white" stroke="#BD6B00" stroke-width="0.3"/>
<path fill-rule="evenodd" clip-rule="evenodd" d="M98.3971 77.7524C97.3199 77.8387 96.76 76.7797 96.5137 75.13C97.5355 76.6503 98.4646 76.1763 98.3971 77.7524ZM98.7834 77.6212C100.168 77.7993 99.9473 76.1868 99.8914 74.998C99.4669 76.1313 98.3405 76.4883 98.7834 77.6212Z" fill="white" stroke="#BD6B00" stroke-width="0.3"/>
<path fill-rule="evenodd" clip-rule="evenodd" d="M96.623 76.9387C96.7337 77.9913 97.3992 79.8015 98.4701 79.395C98.913 78.102 97.5278 77.8436 96.623 76.9387Z" fill="white" stroke="#BD6B00" stroke-width="0.3"/>
<path fill-rule="evenodd" clip-rule="evenodd" d="M98.8015 79.5074C98.3215 78.5842 99.8908 78.1218 100.223 76.9218C100.414 78.6393 100.254 79.7658 98.8015 79.5074ZM94.3356 68.5649C95.1981 67.636 94.4365 66.1626 94.1781 64.7283C93.8272 66.0888 93.2193 67.8914 94.3356 68.5649ZM94.3094 70.2936C92.7949 70.4474 92.4285 67.3672 92.2744 66.0423C92.7667 67.8644 94.5111 68.6973 94.3094 70.2936ZM94.6206 70.2636C95.6908 69.7109 95.4422 68.5199 95.7785 67.6255C95.0589 68.7235 94.4027 68.8806 94.6206 70.2636Z" fill="white" stroke="#BD6B00" stroke-width="0.3"/>
<path fill-rule="evenodd" clip-rule="evenodd" d="M94.3207 72.2811C92.7365 72.4169 91.7927 69.004 91.7432 67.6619C92.2355 69.484 94.5052 70.4744 94.3207 72.2811ZM94.6244 72.2286C96.1142 71.8859 95.9361 70.9225 95.7126 69.3629C95.2382 70.9334 94.4066 70.6004 94.6244 72.2286Z" fill="white" stroke="#BD6B00" stroke-width="0.3"/>
<path fill-rule="evenodd" clip-rule="evenodd" d="M94.302 74.2499C92.5598 74.5454 92.6821 71.7899 91.2988 69.79C92.4954 71.275 94.6495 73.1463 94.302 74.2499ZM94.6957 74.1562C96.0107 74.1944 96.1393 72.214 96.0666 71.4112C95.764 72.211 94.218 72.9708 94.6957 74.1562Z" fill="white" stroke="#BD6B00" stroke-width="0.3"/>
<path fill-rule="evenodd" clip-rule="evenodd" d="M91.5801 72.1274C92.2333 74.2477 93.1609 76.3724 94.302 76.2112C94.8494 75.0056 93.2194 74.8522 91.5801 72.1274Z" fill="white" stroke="#BD6B00" stroke-width="0.3"/>
<path fill-rule="evenodd" clip-rule="evenodd" d="M94.7151 75.9001C94.2351 74.9768 95.8043 74.5145 96.1369 73.3145C96.3278 75.032 96.1677 76.1584 94.7151 75.9001ZM92.0303 74.5501C92.9628 76.4603 93.3835 78.6556 94.6641 78.3365C95.1421 76.8511 93.25 76.5402 92.0303 74.5501Z" fill="white" stroke="#BD6B00" stroke-width="0.3"/>
<path fill-rule="evenodd" clip-rule="evenodd" d="M94.9288 77.9737C94.3787 76.9631 95.9483 76.6057 96.333 75.213C96.5415 77.0355 96.3465 78.3367 94.9288 77.9737ZM97.6135 65.0437C98.5326 65.2924 99.4966 64.26 99.1625 62.7157C98.1123 62.9771 97.63 63.9307 97.6135 65.0437ZM94.6738 64.2712C94.754 64.7059 95.2824 64.7452 95.129 64.1314C95.0008 63.6334 94.979 63.2587 95.129 62.8537C95.3345 62.3464 95.2659 61.482 95.1114 61.1212C94.9554 60.7406 94.4391 60.9637 94.6562 61.2619C94.8954 61.6069 94.9081 62.3257 94.7435 62.6614C94.5272 63.1564 94.586 63.8145 94.6738 64.2712ZM103.249 70.2412C102.894 70.7636 102.169 70.4441 102.721 69.7267C103.174 69.1459 103.819 68.6715 103.867 68.0715C103.904 67.3106 104.351 66.1564 104.757 65.7671C105.176 65.3524 105.66 65.9359 105.212 66.2126C104.709 66.5396 104.382 67.8836 104.393 68.4011C104.376 69.1515 103.627 69.6937 103.249 70.2412ZM102.132 69.4012C101.777 69.9236 101.211 69.6206 101.532 68.7817C101.802 68.2009 101.832 67.4812 102.133 67.0567C102.555 66.4129 103.269 65.8766 103.675 65.487C104.094 65.0722 104.442 65.472 104.058 65.8275C103.591 66.2944 103.085 66.8756 102.803 67.3162C102.279 68.1712 102.51 68.8537 102.132 69.4012H102.132ZM96.2299 66.6975C96.1879 67.4351 96.7811 67.6136 96.7549 66.5441C96.7279 65.4274 95.9378 64.4059 96.4226 62.706C96.6776 61.8746 96.6817 60.3506 96.5276 59.5406C96.3915 58.7374 95.8201 59.262 96.0372 59.8875C96.2764 60.6131 95.9922 62.0044 95.8096 62.7041C95.261 64.7419 96.2621 65.7337 96.2299 66.6975ZM97.8498 62.6175C97.7628 63.2962 97.1883 63.3577 97.3552 62.3992C97.4943 61.6211 97.5183 61.0361 97.3552 60.4039C97.1317 59.6111 97.2063 58.2611 97.3739 57.6979C97.5434 57.1035 98.1051 57.4519 97.8689 57.9169C97.6087 58.4565 97.5952 59.5789 97.7736 60.1031C98.0088 60.8767 97.945 61.9039 97.8498 62.6175ZM92.0153 76.5C92.2995 76.8382 92.7787 76.6117 92.3419 76.1539C91.9849 75.7837 92.1022 75.6671 91.8844 75.2164C91.6692 74.7127 91.6804 74.4349 91.4206 74.0749C91.1907 73.7336 90.845 74.082 91.0767 74.3692C91.3673 74.709 91.2871 74.9595 91.4648 75.288C91.7936 75.8505 91.7134 76.146 92.0153 76.5ZM99.6646 85.7287C100.58 86.1787 101.274 87.3022 101.319 88.2172C101.397 89.2706 101.549 90.1597 102.022 90.9082C101.269 90.6986 100.908 89.4982 100.801 88.3489C100.692 87.159 100.052 86.643 99.6646 85.7287ZM101.569 87.9337C102.202 89.1022 103.088 89.5477 103.133 90.4151C103.21 91.4126 103.285 91.464 103.556 92.445C102.811 92.2462 102.623 92.1814 102.422 90.6885C102.298 89.6392 101.458 88.899 101.569 87.9337Z" fill="white" stroke="#BD6B00" stroke-width="0.3"/>
<path fill-rule="evenodd" clip-rule="evenodd" d="M121.274 98.7449C121.63 99.4154 122.038 100.436 122.779 100.25C122.79 99.7361 121.98 99.3806 121.274 98.7449ZM122.376 98.9737C123.815 99.5632 125.056 99.4177 125.211 100.322C123.862 100.467 123.369 99.9131 122.376 98.9737ZM116.354 94.2149C117.323 95.0084 117.951 95.9141 118.244 97.0848C118.55 98.1753 118.979 99.0446 119.61 100.025C118.583 99.3247 117.937 98.3722 117.615 97.2247C117.331 96.0963 116.996 95.2533 116.354 94.2149ZM117.547 94.2112C118.586 95.0399 119.564 95.9808 119.857 97.1512C120.162 98.2417 120.347 99.0764 121.047 100.161C119.95 99.4612 119.515 98.4033 119.192 97.2558C118.909 96.1282 118.259 95.2852 117.547 94.2112ZM120.974 96.9262C120.946 96.7214 121.085 96.5426 121.254 96.4889C121.576 96.3706 121.903 96.2655 122.234 96.1739C122.603 96.0866 122.81 96.3502 122.811 96.5238C122.813 96.8126 122.826 97.0574 122.811 97.2761C122.792 97.5483 122.739 97.5686 122.567 97.6091C122.29 97.6556 121.935 97.7028 121.657 97.8888C121.436 98.0242 121.225 97.9173 121.114 97.6792C121.043 97.4973 121.004 97.1418 120.974 96.9262ZM124.96 96.9262C124.986 96.7214 124.878 96.5249 124.727 96.4713C124.434 96.3487 124.142 96.3187 123.835 96.3311C123.493 96.3258 123.407 96.4031 123.406 96.5763C123.404 96.8651 123.392 97.1448 123.406 97.3634C123.424 97.6357 123.418 97.6559 123.572 97.6964C123.82 97.7429 124.241 97.7553 124.49 97.9413C124.687 98.0763 124.911 97.9694 124.922 97.7141C124.917 97.5217 124.934 97.1418 124.96 96.9262Z" fill="white"/>
<path fill-rule="evenodd" clip-rule="evenodd" d="M141.413 69.9486C141.876 69.2054 142.43 70.9795 144.334 72.2999C145.22 72.9032 145.837 74.5101 145.843 75.5672C145.872 76.2936 145.762 77.0177 145.843 77.7201C145.894 78.1649 146.357 79.1511 146.04 79.4035C145.203 80.026 144.118 81.4397 143.615 81.9276C143.18 82.309 142.804 79.9596 142.477 78.9085C142.127 77.7816 142.284 76.435 141.314 75.394C140.626 74.6909 138.892 73.999 139.087 73.6862L141.413 69.9486Z" fill="white" stroke="#BD6B00" stroke-width="0.3"/>
<path fill-rule="evenodd" clip-rule="evenodd" d="M141.51 75.7049C141.666 75.3508 141.876 75.0228 142.131 74.7322C142.393 74.4352 142.703 74.1858 143.045 74.0643C143.376 73.9424 143.712 73.7827 143.948 73.4902C144.078 73.3293 144.17 73.141 144.217 72.9393C144.264 72.7353 144.263 72.4856 144.228 72.2009C144.27 72.2309 144.292 72.2654 144.334 72.2947C145.22 72.8977 145.84 74.5072 145.846 75.5643C145.857 75.8533 145.857 76.1427 145.846 76.4317C145.78 76.6136 145.717 76.7898 145.623 76.9004C145.501 77.0441 145.356 77.1389 145.201 77.2049C144.893 77.3369 144.536 77.3643 144.205 77.4862C143.863 77.6077 143.511 77.8829 143.209 78.2129C142.941 78.5097 142.72 78.8456 142.553 79.2089C142.528 79.1178 142.495 78.9824 142.471 78.9041C142.154 77.8837 142.21 76.6957 141.51 75.7049Z" fill="#BF0000" stroke="#BD6B00" stroke-width="0.3"/>
<path d="M144.225 72.1462C144.407 73.4047 143.706 73.8236 143.045 74.0674C142.36 74.3104 141.799 75.0446 141.51 75.7091M145.92 76.29C145.631 77.3749 144.871 77.2391 144.21 77.4829C143.525 77.7262 142.805 78.5917 142.516 79.2562" stroke="#BD6B00" stroke-width="0.3"/>
<path fill-rule="evenodd" clip-rule="evenodd" d="M142.055 69.18L141.708 68.9573L135.051 80.169L135.398 80.3918L142.055 69.18Z" fill="white" stroke="#BD6B00" stroke-width="0.3"/>
<path fill-rule="evenodd" clip-rule="evenodd" d="M141.338 68.7337C141.338 68.9372 141.419 69.1323 141.562 69.2762C141.706 69.4201 141.901 69.5009 142.105 69.5009C142.308 69.5009 142.503 69.4201 142.647 69.2762C142.791 69.1323 142.872 68.9372 142.872 68.7337C142.872 68.5302 142.791 68.335 142.647 68.1912C142.503 68.0473 142.308 67.9664 142.105 67.9664C141.901 67.9664 141.706 68.0473 141.562 68.1912C141.419 68.335 141.338 68.5302 141.338 68.7337ZM135.646 59.7262H132.948V60.3449H135.646V59.7262ZM135.646 60.8999H132.948V66.0689H135.646V60.8999ZM135.811 59.0212L132.818 59.0388C132.701 58.0241 133.715 56.9276 134.306 56.9388C134.89 56.9673 135.834 58.0473 135.811 59.0212Z" fill="white" stroke="#BD6B00" stroke-width="0.3"/>
<path fill-rule="evenodd" clip-rule="evenodd" d="M128.176 58.4101C128.747 58.6501 129.184 59.3015 129.453 60.0507C129.723 60.8 129.825 61.6508 129.699 62.336V62.3476C129.652 62.5838 129.587 62.7537 129.512 62.8748C129.437 62.9963 129.354 63.0676 129.254 63.086C129.155 63.1043 129.062 63.0511 129.008 62.9686C128.955 62.8861 128.929 62.7777 128.938 62.6521C128.992 61.9478 128.988 61.2526 128.821 60.6248C128.653 59.9971 128.319 59.4383 127.707 58.9842C127.597 58.9032 127.534 58.8106 127.52 58.7146C127.507 58.619 127.557 58.5368 127.625 58.4802C127.762 58.3673 127.977 58.3276 128.176 58.4101ZM128.118 58.5743C127.979 58.5166 127.802 58.5503 127.731 58.6092C127.696 58.6388 127.691 58.6591 127.696 58.6913C127.7 58.7236 127.725 58.7791 127.813 58.8436C128.455 59.3206 128.809 59.9206 128.985 60.578C129.161 61.2357 129.157 61.9505 129.102 62.6641C129.095 62.7375 129.111 62.8113 129.149 62.8748C129.175 62.9153 129.189 62.9273 129.219 62.9217C129.249 62.9161 129.312 62.8778 129.372 62.7811C129.431 62.6847 129.491 62.5351 129.536 62.3123C129.654 61.6696 129.549 60.8322 129.29 60.1092C129.029 59.3866 128.614 58.7828 128.118 58.5743Z" fill="#BD6B00"/>
<path fill-rule="evenodd" clip-rule="evenodd" d="M127.213 59.1488C127.783 59.3884 128.151 60.0083 128.35 60.7193C128.549 61.4299 128.58 62.2436 128.455 62.922C128.358 63.4035 128.105 63.6578 127.858 63.6956C127.734 63.7144 127.615 63.6656 127.541 63.5666C127.468 63.4676 127.444 63.3345 127.483 63.1684C127.622 62.6066 127.676 61.9061 127.577 61.2698C127.477 60.6338 127.224 60.0656 126.744 59.7229C126.634 59.6423 126.571 59.5493 126.557 59.4533C126.544 59.3576 126.594 59.2639 126.662 59.2073C126.799 59.094 127.014 59.0663 127.213 59.1488ZM127.143 59.313C127.004 59.2553 126.839 59.289 126.768 59.3479C126.733 59.3775 126.716 59.3981 126.721 59.43C126.725 59.4619 126.762 59.5181 126.85 59.5823C127.379 59.9606 127.648 60.5813 127.752 61.2465C127.856 61.9114 127.791 62.6205 127.647 63.2033C127.616 63.336 127.647 63.4253 127.682 63.4733C127.717 63.5209 127.762 63.5426 127.834 63.5314C127.978 63.5093 128.203 63.3236 128.291 62.8871C128.411 62.2376 128.376 61.4366 128.186 60.7541C127.995 60.0716 127.64 59.5215 127.143 59.3126L127.143 59.313Z" fill="#BD6B00"/>
<path fill-rule="evenodd" clip-rule="evenodd" d="M135.792 70.2712H132.782V74.4364H135.792V70.2712ZM135.616 76.8187H132.711V77.6936H135.616V76.8187ZM135.687 78.3562H132.712V81.6112H135.687V78.3562ZM135.897 82.2787H132.642V84.0986H135.897V82.2787ZM135.496 76.035H132.873L132.353 75.1687H135.966L135.496 76.035ZM131.96 72.8437L131.935 70.5671H130.128C130.838 71.1525 131.498 71.8624 131.96 72.8437Z" fill="white" stroke="#BD6B00" stroke-width="0.3"/>
<path fill-rule="evenodd" clip-rule="evenodd" d="M135.322 73.7774C135.304 74.2645 134.753 74.0474 134.753 73.8021C134.753 73.0506 134.743 72.2384 134.773 71.7066C134.777 71.3147 133.839 71.413 133.844 71.6541C133.841 72.2886 133.834 73.1586 133.83 73.9011C133.837 74.2626 133.225 74.2311 133.233 73.9011C133.237 73.0716 133.237 71.8667 133.233 71.2566C133.228 70.4706 135.296 70.4879 135.312 71.239C135.311 71.8559 135.323 72.9602 135.322 73.7774ZM135.318 78.7424H133.183V81.4026H135.318V78.7424Z" stroke="#BD6B00" stroke-width="0.3"/>
<path fill-rule="evenodd" clip-rule="evenodd" d="M133.954 79.845H133.202V80.2826H133.954V79.845ZM135.267 79.845H134.532V80.2826H135.267V79.845Z" fill="white" stroke="#BD6B00" stroke-width="0.3"/>
<path fill-rule="evenodd" clip-rule="evenodd" d="M134.533 78.7762H133.956V79.8611H134.533V78.7762ZM134.533 80.265H133.956V81.42H134.533V80.265ZM146.412 52.1137C146.279 54.2014 146.926 55.3474 148.032 55.173C148.337 54.015 147.644 53.238 146.412 52.1137ZM148.838 56.7412C149.821 56.2414 149.112 52.4239 148.735 50.8237C148.456 52.8851 147.989 55.8146 148.838 56.7412Z" fill="white" stroke="#BD6B00" stroke-width="0.3"/>
<path fill-rule="evenodd" clip-rule="evenodd" d="M148.49 56.9212C146.837 57.496 145.53 55.7167 145.088 53.6557C146.451 55.5378 148.67 55.54 148.49 56.9212ZM149.742 58.8487C151.034 58.5074 150.256 54.4574 150.021 52.8374C149.737 54.5107 148.847 58.2944 149.742 58.8487ZM149.3 58.7212C149.228 57.3243 147.835 57.7282 146.874 56.9827C147.031 57.6802 147.622 58.9177 149.3 58.7212ZM150.882 60.5924C152.162 60.247 151.393 55.8884 151.465 54.094C151.09 55.6447 149.901 60.1724 150.882 60.5924ZM150.286 60.4049C149.237 60.7462 147.848 60.0644 147.739 58.8153C148.642 59.4284 150.084 58.9597 150.286 60.4049Z" fill="white" stroke="#BD6B00" stroke-width="0.3"/>
<path fill-rule="evenodd" clip-rule="evenodd" d="M151.837 62.5162C153.061 62.6137 152.514 58.9019 152.513 55.4448C152.063 58.6762 150.838 61.6342 151.837 62.5162Z" fill="white" stroke="#BD6B00" stroke-width="0.3"/>
<path fill-rule="evenodd" clip-rule="evenodd" d="M151.414 62.3476C150.587 62.7623 149.106 62.0993 148.683 60.7025C150.177 61.3523 151.176 60.7174 151.414 62.3476ZM141.804 54.0488C142.021 55.8597 142.761 56.9131 143.867 56.7391C144.172 55.5811 143.275 54.8408 141.804 54.0488ZM144.728 58.6951C142.892 58.9557 142.23 57.5461 140.994 55.7438C142.726 56.9978 144.798 57.2585 144.728 58.6951Z" fill="white" stroke="#BD6B00" stroke-width="0.3"/>
<path fill-rule="evenodd" clip-rule="evenodd" d="M145.249 58.4888C146.25 57.2873 145.283 55.7783 144.518 54.4924C144.682 56.4057 144.031 57.4699 145.249 58.4888ZM145.692 60.4726C145.805 59.2973 143.803 59.0363 142.897 58.3831C143.202 59.0622 143.664 60.8907 145.692 60.4726Z" fill="white" stroke="#BD6B00" stroke-width="0.3"/>
<path fill-rule="evenodd" clip-rule="evenodd" d="M146.112 60.4988C147.496 60.3421 146.922 57.9916 145.929 56.6851C146.347 58.4877 145.198 59.7413 146.112 60.4988Z" fill="white" stroke="#BD6B00" stroke-width="0.3"/>
<path fill-rule="evenodd" clip-rule="evenodd" d="M147.153 62.4562C148.729 61.7594 147.719 59.7836 147.127 58.6169C147.379 60.1492 146.117 61.3154 147.153 62.4562Z" fill="white" stroke="#BD6B00" stroke-width="0.3"/>
<path fill-rule="evenodd" clip-rule="evenodd" d="M146.843 62.2725C146.016 63.3521 144.405 61.9504 144.074 60.3135C145.476 61.4805 146.512 61.2885 146.843 62.2725ZM150.442 69.87C150.604 68.2624 149.395 65.3385 150.253 63.78C150.37 63.5659 149.997 62.9973 149.755 63.3424C149.378 63.8928 148.99 65.4619 148.827 64.8825C148.655 64.2525 148.629 63.1387 148.071 62.922C147.715 62.7952 147.212 62.7124 147.35 63.2722C147.486 63.8107 147.791 64.5547 147.453 64.6024C147.257 64.6316 146.692 63.8696 146.215 63.5175C145.832 63.2032 145.26 63.6949 145.821 64.1647C147.643 65.6786 149.409 66.36 150.442 69.87ZM153.716 94.0687C153.93 94.0275 154.223 93.9551 153.956 94.2877C151.827 96.9112 151.211 97.6342 148.106 97.2652C144.969 96.852 144.222 96.0037 142.026 94.7715C140.853 94.083 139.138 93.9304 137.838 94.3567C137.232 94.5547 136.866 94.5667 137.3 94.1321C137.734 93.6982 138.247 93.1083 138.781 92.7015C139.95 91.8037 141.933 91.4145 143.551 91.7032C145.84 92.0625 147.731 93.5201 149.992 94.0706C151.179 94.3417 152.482 94.3009 153.716 94.0687H153.716ZM135.796 98.7562C135.4 98.8054 135.149 99.5726 134.954 99.0532C134.624 98.2125 134.855 97.5435 135.227 97.6173C135.666 97.7343 136.407 98.7176 135.796 98.7562Z" fill="white" stroke="#BD6B00" stroke-width="0.3"/>
<path fill-rule="evenodd" clip-rule="evenodd" d="M155.182 68.595C155.638 68.1191 155.506 67.9373 154.833 67.9298C154.298 67.896 153.239 68.2571 152.838 67.9646C152.469 67.6973 152.616 66.5629 152.452 66.0398C152.381 65.748 152.177 65.2901 151.717 66.0049C150.359 68.1814 148.663 70.7948 147.938 73.3549C147.541 74.7896 147.914 77.0299 149.233 78.5351C149.186 77.2515 149.665 76.3883 150.248 75.315C150.968 73.9043 153.644 70.0834 155.182 68.595Z" fill="white"/>
<path fill-rule="evenodd" clip-rule="evenodd" d="M149.584 80.04C148.09 80.0475 147.834 78.045 147.834 77.4851C148.569 77.625 149.864 78.8501 149.584 80.04ZM136.677 99.4725C135.615 99.7144 135.63 97.1557 136.715 96.0712C136.237 97.7145 137.513 99.2167 136.677 99.4725ZM137.09 99.45C137.02 100.666 140.074 99.291 140.859 98.3452C139.054 99.1117 137.179 98.4772 137.09 99.45ZM138.428 97.7137C138.319 98.8916 141.077 97.8562 141.892 96.936C140.081 97.521 138.549 96.7444 138.428 97.7137ZM137.922 97.8787C136.86 98.1206 137.032 95.4742 138.065 94.5649C137.569 96.3311 138.758 97.623 137.922 97.8787ZM139.04 96.27C137.977 96.5119 138.587 94.2334 139.374 93.3236C139.247 94.9849 139.77 96.1369 139.04 96.27ZM139.602 96.2625C139.493 97.4756 141.638 96.5441 142.471 95.3966C140.677 95.982 139.722 95.2931 139.602 96.2625ZM140.187 95.34C139.491 94.8397 140.229 93.5164 141.554 93.5981C141.424 94.3976 140.967 95.8031 140.187 95.34ZM134.956 100.826C134.886 102.042 137.941 101.437 138.9 100.142C136.973 100.506 135.045 99.8535 134.956 100.826ZM147.09 98.6512C146.981 99.8644 150.316 98.5305 151.148 97.3826C149.355 97.968 147.211 97.6819 147.09 98.6512ZM145.047 99.1687C144.351 98.6685 145.771 97.38 146.903 97.077C146.773 97.8761 145.826 99.6319 145.047 99.1687ZM144.833 100.009C144.758 101.099 148.409 100.501 149.364 99.4935C146.223 100.061 144.936 99.0746 144.833 100.009Z" fill="white" stroke="#BD6B00" stroke-width="0.3"/>
<path fill-rule="evenodd" clip-rule="evenodd" d="M143.123 100.736C142.718 101.749 146.222 101.502 147.452 100.913C145.464 100.896 143.402 100.03 143.123 100.736Z" fill="white" stroke="#BD6B00" stroke-width="0.3"/>
<path fill-rule="evenodd" clip-rule="evenodd" d="M141.484 101.475C141.097 102.383 144.338 102.363 145.918 101.861C143.825 101.844 141.868 100.576 141.484 101.475ZM139.126 101.962C138.552 103.037 141.971 103.141 143.081 102.612C141.103 102.34 139.615 101.117 139.126 101.962ZM143.13 100.125C144.218 100.811 144.16 98.7885 145.025 97.3875C143.666 98.6257 142.393 99.4709 143.13 100.125Z" fill="white" stroke="#BD6B00" stroke-width="0.3"/>
<path fill-rule="evenodd" clip-rule="evenodd" d="M141.202 100.853C142.114 101.661 142.844 98.8853 143.674 97.3279C142.332 98.8107 140.36 100.181 141.202 100.853ZM138.652 101.625C139.425 102.521 141.659 98.9933 142.472 97.1554C141.234 98.586 138.038 100.866 138.652 101.625ZM140.827 104.318C141.212 105.68 146.898 103.034 147.533 101.663C144.28 103.387 140.749 103.026 140.827 104.318ZM159.099 76.6425C159.232 76.47 159.614 76.647 159.519 77.0625C159.43 77.6254 158.6 80.514 157.175 81.5078C156.158 82.2405 150.813 83.421 148.39 83.9224C147.057 84.1905 145.94 84.8562 145.065 85.9174C145.427 84.5292 145.718 83.5005 146.185 82.2424C146.639 81.1373 147.843 79.9275 149.09 79.8627C151.405 79.7794 154.402 79.5822 156.579 78.6372C157.703 78.1677 158.376 77.5335 159.099 76.6422V76.6425Z" fill="white" stroke="#BD6B00" stroke-width="0.3"/>
<path fill-rule="evenodd" clip-rule="evenodd" d="M145.831 88.0762C145.101 88.614 144.295 86.6872 145.222 84.8557C145.251 86.6186 146.653 87.2107 145.831 88.0762Z" fill="white" stroke="#BD6B00" stroke-width="0.3"/>
<path fill-rule="evenodd" clip-rule="evenodd" d="M145.129 89.8424C144.119 90.1525 143.803 88.366 144.467 86.9373C144.357 88.4721 146.055 89.3973 145.129 89.8424Z" fill="white" stroke="#BD6B00" stroke-width="0.3"/>
<path fill-rule="evenodd" clip-rule="evenodd" d="M144.361 91.2601C143.386 91.7457 143.017 89.9408 143.717 88.6006C143.641 90.3106 145.112 90.8146 144.361 91.2601Z" fill="white" stroke="#BD6B00" stroke-width="0.3"/>
<path fill-rule="evenodd" clip-rule="evenodd" d="M144.762 91.3687C145.148 92.5237 147.389 90.3731 147.767 89.2031C146.375 90.585 144.483 90.4324 144.762 91.3687Z" fill="white" stroke="#BD6B00" stroke-width="0.3"/>
<path fill-rule="evenodd" clip-rule="evenodd" d="M145.778 89.6026C146.217 90.7576 149.035 87.7838 149.658 86.3521C148.267 87.7339 145.465 88.7888 145.778 89.6026Z" fill="white" stroke="#BD6B00" stroke-width="0.3"/>
<path fill-rule="evenodd" clip-rule="evenodd" d="M146.336 87.87C146.775 89.1825 149.838 85.6841 150.706 84.4444C149.245 85.809 146.005 86.9164 146.336 87.87ZM146.434 86.5725C145.355 86.3625 146.495 85.4644 147.817 84.0042C147.879 85.5417 147.626 86.6164 146.434 86.5725Z" fill="white" stroke="#BD6B00" stroke-width="0.3"/>
<path fill-rule="evenodd" clip-rule="evenodd" d="M148.252 85.6986C147.786 85.1912 148.698 84.9752 149.828 83.7074C149.995 84.5624 148.78 86.1276 148.252 85.6986ZM143.033 91.3986C142.442 91.744 142.038 90.5346 142.774 89.4392C142.943 90.6242 143.574 90.9531 143.033 91.3986ZM155.853 83.7674C157.106 84.5189 159.097 81.5204 159.628 80.2866C158.528 81.7026 155.616 82.9956 155.853 83.7674Z" fill="white" stroke="#BD6B00" stroke-width="0.3"/>
<path fill-rule="evenodd" clip-rule="evenodd" d="M154.789 85.5151C155.483 86.2838 157.665 84.1955 158.424 83.1372C157.254 84.1505 154.482 84.2708 154.789 85.5151Z" fill="white" stroke="#BD6B00" stroke-width="0.3"/>
<path fill-rule="evenodd" clip-rule="evenodd" d="M153.601 87.0826C153.829 88.1329 157.015 85.7719 157.76 84.6541C156.386 85.9486 153.392 85.8316 153.601 87.0826Z" fill="white" stroke="#BD6B00" stroke-width="0.3"/>
<path fill-rule="evenodd" clip-rule="evenodd" d="M154.086 88.2188C154.578 89.1645 157.169 86.8211 157.791 85.5986C156.208 86.9805 153.685 87.2835 154.086 88.2188ZM155.417 83.6138C154.6 82.7516 154.948 82.3478 155.544 80.9888C155.87 82.3841 156.362 82.941 155.417 83.6138ZM154.334 85.2413C152.851 85.3065 154.32 83.502 154.67 81.9863C154.541 83.7139 155.05 85.0755 154.334 85.2413Z" fill="white" stroke="#BD6B00" stroke-width="0.3"/>
<path fill-rule="evenodd" clip-rule="evenodd" d="M153.39 86.6737C152.363 86.4412 152.659 84.9873 153.446 83.2263C153.283 85.1287 154.317 86.2282 153.39 86.6737ZM153.739 89.5499C154.125 90.7049 157.048 88.0289 157.514 87.0168C156.035 88.2588 153.478 88.6837 153.739 89.5499Z" fill="white" stroke="#BD6B00" stroke-width="0.3"/>
<path fill-rule="evenodd" clip-rule="evenodd" d="M151.988 91.3536C152.426 92.5094 155.49 90.166 156.427 88.8906C154.581 90.3426 151.761 90.208 151.988 91.3536Z" fill="white" stroke="#BD6B00" stroke-width="0.3"/>
<path fill-rule="evenodd" clip-rule="evenodd" d="M150.203 93.1726C150.695 94.7828 153.898 92.2125 154.853 90.9544C152.814 92.511 149.942 92.0269 150.203 93.1726ZM153.214 89.0363C152.344 89.4867 151.993 87.0173 152.483 85.2739C152.477 87.1767 154.229 88.5908 153.214 89.0363Z" fill="white" stroke="#BD6B00" stroke-width="0.3"/>
<path fill-rule="evenodd" clip-rule="evenodd" d="M151.728 90.9976C150.683 91.3081 151.014 88.6463 151.908 86.9202C152.023 88.6306 152.795 90.2547 151.728 90.9976ZM149.872 92.8351C148.705 92.9003 149.508 90.5536 150.471 89.2302C150.307 90.9578 150.851 92.6348 149.872 92.8351ZM151.92 93.8363C152.27 94.4311 153.129 93.3312 154.539 92.5279C153.271 92.8598 151.764 93.2851 151.92 93.8363ZM152.587 74.0588C151.497 73.2526 152.328 71.7439 152.587 70.3096C152.938 71.6701 153.861 73.4554 152.587 74.0588ZM152.624 76.0688C154.262 75.8723 154.016 73.7547 154.064 72.4126C153.572 74.2343 152.23 74.5422 152.624 76.0688ZM152.366 75.7951C150.981 75.7148 151.054 74.1387 150.98 72.5446C151.682 74.0097 152.514 74.2373 152.366 75.7951Z" fill="white" stroke="#BD6B00" stroke-width="0.3"/>
<path fill-rule="evenodd" clip-rule="evenodd" d="M152.422 77.7524C153.499 77.8387 154.059 76.7797 154.306 75.13C153.284 76.6503 152.355 76.1763 152.422 77.7524ZM152.036 77.6212C150.651 77.7993 150.872 76.1868 150.928 74.998C151.352 76.1313 152.479 76.4883 152.036 77.6212Z" fill="white" stroke="#BD6B00" stroke-width="0.3"/>
<path fill-rule="evenodd" clip-rule="evenodd" d="M154.196 76.9387C154.086 77.9913 153.42 79.8015 152.349 79.395C151.906 78.102 153.291 77.8436 154.196 76.9387Z" fill="white" stroke="#BD6B00" stroke-width="0.3"/>
<path fill-rule="evenodd" clip-rule="evenodd" d="M152.018 79.5074C152.498 78.5842 150.929 78.1218 150.596 76.9218C150.405 78.6393 150.565 79.7658 152.018 79.5074ZM156.484 68.5649C155.621 67.636 156.383 66.1626 156.641 64.7283C156.992 66.0888 157.6 67.8914 156.484 68.5649ZM156.51 70.2936C158.024 70.4474 158.391 67.3672 158.545 66.0423C158.053 67.8644 156.308 68.6973 156.51 70.2936ZM156.199 70.2636C155.129 69.7109 155.377 68.5199 155.041 67.6255C155.76 68.7235 156.417 68.8806 156.199 70.2636Z" fill="white" stroke="#BD6B00" stroke-width="0.3"/>
<path fill-rule="evenodd" clip-rule="evenodd" d="M156.499 72.2811C158.083 72.4169 159.027 69.004 159.076 67.6619C158.584 69.484 156.314 70.4744 156.499 72.2811ZM156.195 72.2286C154.705 71.8859 154.883 70.9225 155.107 69.3629C155.581 70.9334 156.413 70.6004 156.195 72.2286Z" fill="white" stroke="#BD6B00" stroke-width="0.3"/>
<path fill-rule="evenodd" clip-rule="evenodd" d="M156.517 74.2499C158.259 74.5454 158.137 71.7899 159.521 69.79C158.324 71.275 156.17 73.1463 156.517 74.2499ZM156.124 74.1562C154.809 74.1944 154.68 72.214 154.753 71.4112C155.055 72.211 156.601 72.9708 156.124 74.1562Z" fill="white" stroke="#BD6B00" stroke-width="0.3"/>
<path fill-rule="evenodd" clip-rule="evenodd" d="M159.239 72.1274C158.586 74.2477 157.658 76.3724 156.517 76.2112C155.97 75.0056 157.6 74.8522 159.239 72.1274Z" fill="white" stroke="#BD6B00" stroke-width="0.3"/>
<path fill-rule="evenodd" clip-rule="evenodd" d="M156.104 75.9001C156.584 74.9768 155.015 74.5145 154.682 73.3145C154.492 75.032 154.652 76.1584 156.104 75.9001ZM158.789 74.5501C157.857 76.4603 157.436 78.6556 156.155 78.3365C155.677 76.8511 157.569 76.5402 158.789 74.5501Z" fill="white" stroke="#BD6B00" stroke-width="0.3"/>
<path fill-rule="evenodd" clip-rule="evenodd" d="M155.891 77.9737C156.441 76.9631 154.871 76.6057 154.486 75.213C154.278 77.0355 154.473 78.3367 155.891 77.9737ZM153.206 65.0437C152.287 65.2923 151.323 64.26 151.657 62.7157C152.707 62.9771 153.189 63.9307 153.206 65.0437ZM156.146 64.2712C156.065 64.7058 155.537 64.7452 155.69 64.1313C155.819 63.6333 155.84 63.2587 155.69 62.8537C155.485 62.3463 155.553 61.482 155.708 61.1212C155.864 60.7406 156.38 60.9637 156.163 61.2618C155.924 61.6068 155.911 62.3257 156.076 62.6613C156.292 63.1563 156.233 63.8145 156.146 64.2712ZM147.57 70.2412C147.925 70.7636 148.65 70.4441 148.098 69.7267C147.645 69.1458 147 68.6715 146.952 68.0715C146.915 67.3106 146.468 66.1563 146.063 65.7671C145.643 65.3523 145.159 65.9358 145.607 66.2126C146.111 66.5396 146.438 67.8836 146.427 68.4011C146.444 69.1515 147.192 69.6937 147.57 70.2412ZM148.687 69.4012C149.043 69.9236 149.609 69.6206 149.288 68.7817C149.017 68.2008 148.988 67.4812 148.686 67.0567C148.264 66.4128 147.55 65.8766 147.144 65.487C146.725 65.0722 146.377 65.472 146.762 65.8275C147.228 66.2943 147.735 66.8756 148.016 67.3162C148.541 68.1712 148.309 68.8537 148.687 69.4012H148.687ZM154.589 66.6975C154.631 67.4351 154.038 67.6136 154.064 66.5441C154.091 65.4273 154.882 64.4058 154.397 62.706C154.142 61.8746 154.138 60.3506 154.292 59.5406C154.428 58.7373 154.999 59.262 154.782 59.8875C154.543 60.6131 154.827 62.0043 155.01 62.7041C155.558 64.7418 154.557 65.7337 154.589 66.6975ZM152.97 62.6175C153.057 63.2962 153.631 63.3577 153.464 62.3992C153.325 61.6211 153.301 61.0361 153.464 60.4038C153.688 59.6111 153.613 58.2611 153.445 57.6978C153.276 57.1035 152.714 57.4518 152.95 57.9168C153.211 58.4565 153.224 59.5788 153.046 60.1031C152.811 60.8767 152.874 61.9038 152.97 62.6175ZM158.804 76.5C158.52 76.8382 158.041 76.6117 158.477 76.1538C158.834 75.7837 158.717 75.6671 158.935 75.2163C159.15 74.7127 159.139 74.4348 159.399 74.0748C159.629 73.7336 159.974 74.082 159.743 74.3692C159.452 74.709 159.532 74.9595 159.355 75.288C159.026 75.8505 159.106 76.146 158.804 76.5ZM151.155 85.7287C150.24 86.1787 149.546 87.3022 149.5 88.2172C149.422 89.2706 149.27 90.1597 148.798 90.9082C149.551 90.6986 149.911 89.4982 150.018 88.3488C150.127 87.159 150.768 86.643 151.155 85.7287ZM149.25 87.9337C148.617 89.1022 147.732 89.5477 147.686 90.4151C147.61 91.4126 147.534 91.464 147.264 92.445C148.009 92.2462 148.196 92.1813 148.398 90.6885C148.521 89.6392 149.361 88.899 149.25 87.9337Z" fill="white" stroke="#BD6B00" stroke-width="0.3"/>
<path fill-rule="evenodd" clip-rule="evenodd" d="M129.545 98.7449C129.189 99.4154 128.781 100.436 128.041 100.25C128.029 99.7361 128.84 99.3806 129.545 98.7449ZM128.443 98.9737C127.005 99.5632 125.763 99.4177 125.608 100.322C126.957 100.467 127.451 99.9131 128.443 98.9737ZM134.465 94.2149C133.496 95.0084 132.868 95.9141 132.575 97.0848C132.269 98.1753 131.84 99.0446 131.21 100.025C132.236 99.3247 132.882 98.3722 133.205 97.2247C133.488 96.0963 133.823 95.2533 134.465 94.2149ZM133.272 94.2112C132.234 95.0399 131.255 95.9808 130.963 97.1512C130.657 98.2417 130.472 99.0764 129.772 100.161C130.869 99.4612 131.304 98.4033 131.627 97.2558C131.911 96.1282 132.561 95.2852 133.272 94.2112ZM129.845 96.9262C129.874 96.7214 129.734 96.5426 129.565 96.4889C129.243 96.3706 128.916 96.2655 128.586 96.1739C128.216 96.0866 128.009 96.3502 128.008 96.5238C128.006 96.8126 127.993 97.0574 128.008 97.2761C128.028 97.5483 128.08 97.5686 128.253 97.6091C128.529 97.6556 128.885 97.7028 129.162 97.8888C129.383 98.0242 129.595 97.9173 129.705 97.6792C129.776 97.4973 129.815 97.1418 129.845 96.9262ZM125.859 96.9262C125.834 96.7214 125.942 96.5249 126.092 96.4713C126.385 96.3487 126.677 96.3187 126.985 96.3311C127.327 96.3258 127.412 96.4031 127.414 96.5763C127.415 96.8651 127.427 97.1448 127.414 97.3634C127.396 97.6357 127.402 97.6559 127.247 97.6964C127 97.7429 126.578 97.7553 126.33 97.9413C126.133 98.0763 125.908 97.9694 125.897 97.7141C125.902 97.5217 125.886 97.1418 125.859 96.9262Z" fill="white"/>
<path fill-rule="evenodd" clip-rule="evenodd" d="M136.111 107.494C136.129 107.937 136.182 108.293 136.444 108.649C134.916 108.036 132.758 108.364 131.282 109.051C130.623 109.366 129.827 108.692 130.599 108.054C131.698 107.164 134.238 107.668 136.111 107.494ZM114.548 107.471C114.57 107.888 114.521 108.27 114.368 108.635C116.029 107.947 117.813 108.519 119.492 109.195C120.645 109.673 120.738 108.847 120.535 108.561C120.185 108.054 119.507 107.497 118.65 107.485C118.079 107.477 115.882 107.457 114.548 107.471ZM115.951 99.3548C115.487 99.1549 114.949 99.3473 114.466 99.8554C112.844 101.445 110.94 102.994 109.403 104.199C108.83 104.698 108.244 105.591 110.69 106.485C110.779 106.518 112.561 107.179 113.691 107.221C114.152 107.208 114.151 107.897 114.066 108.081C113.871 108.448 114.012 108.588 113.618 108.941C113.208 109.287 113.662 109.736 113.985 109.431C115.361 108.236 117.594 109 119.746 109.7C120.255 109.841 121.185 109.801 121.177 109.1C121.186 108.336 121.739 107.795 122.078 107.776C122.957 107.928 127.297 107.976 128.635 107.814C129.414 107.713 129.461 108.882 129.878 109.343C130.166 109.648 131.273 109.729 132.031 109.394C133.531 108.697 135.817 108.697 136.749 109.363C137.132 109.655 137.435 109.419 137.217 109.122C136.936 108.717 136.943 108.53 136.803 108.21C136.453 107.498 136.733 107.324 137.1 107.273C141.244 106.738 142.567 105.324 141.3 104.17C139.664 102.735 137.842 101.292 136.272 99.5962C135.847 99.1462 135.566 98.9662 134.68 99.3341C131.972 100.567 128.535 101.467 125.171 101.532C122.041 101.559 117.738 100.111 115.951 99.3548H115.951Z" fill="white"/>
<path fill-rule="evenodd" clip-rule="evenodd" d="M135.391 99.5774C135.174 99.5991 134.942 99.6666 134.77 99.7296C131.425 100.905 128.352 101.728 125.15 101.722C122.025 101.716 118.751 100.856 115.811 99.6479C115.644 99.5762 115.451 99.5875 115.26 99.6359C115.069 99.6846 114.881 99.7731 114.756 99.8939C113.391 101.254 111.913 102.574 110.327 103.773C110.087 103.956 110.126 104.422 110.515 104.581H110.526C113.64 105.699 116.68 107.781 125.384 107.699C134.171 107.615 137.288 105.584 140.079 104.652C140.275 104.577 140.478 104.464 140.571 104.288C140.617 104.2 140.63 104.091 140.594 103.984C140.559 103.876 140.488 103.776 140.36 103.667H140.349C138.765 102.373 137.068 101.34 135.954 99.7652C135.829 99.5852 135.609 99.556 135.392 99.5777L135.391 99.5774ZM135.403 99.7416C135.593 99.7225 135.738 99.7517 135.813 99.8586C136.953 101.471 138.671 102.511 140.242 103.796C140.355 103.891 140.408 103.976 140.43 104.042C140.44 104.069 140.445 104.097 140.443 104.126C140.441 104.154 140.432 104.182 140.418 104.206C140.362 104.313 140.197 104.42 140.019 104.488C137.194 105.431 134.144 107.452 125.384 107.534C116.717 107.616 113.725 105.546 110.584 104.417C110.302 104.301 110.327 103.982 110.432 103.902C112.023 102.699 113.517 101.374 114.885 100.011C114.979 99.9198 115.13 99.8421 115.295 99.8001C115.46 99.7577 115.637 99.751 115.752 99.8001C118.707 101.014 121.981 101.892 125.138 101.898C128.369 101.903 131.476 101.071 134.829 99.8939C134.996 99.8327 135.213 99.7604 135.402 99.7416H135.403Z" fill="#BD6B00"/>
<path fill-rule="evenodd" clip-rule="evenodd" d="M114.052 42.96C114.026 42.4428 114.828 42.4035 114.735 43.1145C114.618 44.0002 116.407 46.2427 116.556 47.6253C116.655 48.5527 116.011 49.3642 115.373 49.8693C114.591 50.4753 113.388 50.3921 112.825 50.0445C112.485 49.7703 112.175 48.8317 112.429 48.4605C112.519 48.3352 112.927 49.8378 113.825 49.8318C115.047 49.8243 116.036 48.9063 116.072 48.0881C116.135 46.6623 114.074 44.4097 114.052 42.96ZM117.625 46.4812C117.827 46.3368 118.15 46.9672 117.922 47.1247C117.733 47.2511 117.363 46.656 117.625 46.4812ZM118.169 45.2025C118.067 45.252 117.863 45.1815 117.924 45.0948C118.21 44.6865 118.819 44.0718 119.261 43.8573C119.397 43.7913 119.634 44.031 119.552 44.1483C119.288 44.526 118.645 44.9715 118.169 45.2025ZM122.89 41.4562C123.003 41.22 123.683 40.9522 123.857 40.7925C124.017 40.6278 124.094 40.9312 124.025 41.0741C123.912 41.3103 123.325 41.7101 123.067 41.7206C122.928 41.7266 122.821 41.5991 122.89 41.4562ZM124.506 41.5312C124.653 41.1161 125.128 40.4865 125.455 40.2791C125.623 40.173 125.925 40.2566 125.868 40.4156C125.743 40.7681 125.162 41.3835 124.771 41.6737C124.652 41.7795 124.472 41.6276 124.506 41.5312ZM123.122 42.57C123.023 42.6195 123.077 42.8291 123.172 42.861C123.374 42.9285 123.742 42.9412 123.908 42.8497C124.15 42.7005 124.04 41.7828 123.716 42.273C123.499 42.5752 123.34 42.4781 123.122 42.57ZM120.389 44.6775C119.894 44.2927 120.522 43.7535 121.038 44.13C122.044 44.889 119.537 47.7967 118.173 49.1561C117.923 49.4223 117.704 48.7518 118.024 48.4631C119.002 47.6336 119.918 46.6425 120.554 45.6183C120.677 45.4215 120.794 44.9966 120.389 44.6775ZM126.114 42.1762C126.176 41.808 125.518 42.1837 125.506 41.6958C125.5 41.4371 126.225 41.256 126.527 41.5533C127.039 42.0723 126.656 42.9476 125.806 43.0027C125.097 43.0342 123.914 44.0096 124.094 44.2147C124.298 44.4678 126.137 44.6351 127.207 44.4678C127.868 44.3748 127.73 44.967 127.051 45.0472C126.396 45.1226 125.862 45.0528 125.25 45.2452C124.529 45.4511 124.215 46.419 123.814 46.7797C123.725 46.8423 123.484 46.4625 123.576 46.3196C123.864 45.8685 124.324 45.1777 124.83 44.9801C125.15 44.8507 123.95 44.8098 123.567 44.7007C123.263 44.6092 123.352 44.223 123.468 44.0077C123.622 43.6721 124.754 42.5392 125.209 42.5576C125.638 42.576 126.072 42.4511 126.114 42.1762ZM128.019 42.2737C128.232 42.0862 128.341 41.772 128.564 41.5807C128.686 41.4581 128.882 41.6051 128.849 41.9006C128.822 42.1335 128.509 42.3341 128.298 42.5092C128.127 42.6375 127.929 42.3607 128.019 42.2737ZM130.445 41.4112C130.762 41.3763 130.841 41.9876 130.494 42.0866C130.284 42.1567 130.101 41.4472 130.445 41.4112ZM129.646 43.3012C129.642 43.8277 129.901 43.7793 130.397 43.7613C130.878 43.743 131.302 43.7737 131.3 43.2982C131.297 42.8055 131.027 42.3742 130.948 42.7095C130.878 43.0245 130.822 43.5405 130.639 43.3158C130.467 43.1227 130.535 43.0803 130.237 43.3972C130.072 43.572 130.054 43.3125 129.955 43.1497C129.886 43.0533 129.647 43.2277 129.646 43.3012ZM126.189 45.9862C126.071 46.683 126.18 47.6583 126.536 47.6692C126.977 47.6835 127.889 46.1463 128.321 45.3487C128.579 44.9036 129.024 44.826 128.839 45.2902C128.558 46.0065 128.583 47.5395 128.83 47.9898C128.963 48.2325 129.941 47.7675 130.099 47.4217C130.387 46.7936 130.153 45.636 130.254 44.9291C130.303 44.4652 130.728 44.3681 130.705 44.7982C130.663 45.5677 130.59 46.9788 130.644 47.6197C130.677 47.988 131.729 48.5317 131.899 47.4161C131.988 46.7141 132.35 46.0215 131.881 45.2437C131.591 44.7573 132.307 44.8185 132.693 45.4826C132.963 45.9348 132.466 46.6833 132.484 47.2616C132.529 48.1515 131.836 48.6573 131.334 48.6678C130.885 48.6768 130.593 48.1256 130.225 48.1177C129.817 48.0915 129.398 48.7526 129.06 48.729C127.753 48.6397 128.445 46.7291 128.047 46.7058C127.604 46.6796 127.082 48.5786 126.536 48.5107C125.998 48.4462 125.441 46.9631 125.665 46.3357C125.868 45.7518 126.249 45.615 126.189 45.9862Z" fill="white"/>
<path fill-rule="evenodd" clip-rule="evenodd" d="M132.52 42.975C131.882 42.5857 132.56 41.574 132.872 41.9295C133.474 42.6506 134.081 44.3621 134.505 44.5035C134.774 44.5935 134.762 43.2382 134.951 42.6225C135.073 42.1676 135.623 42.3161 135.518 42.8988C135.482 43.0938 134.799 45.3071 134.852 45.3945C135.325 46.3402 135.793 47.2998 136.089 48.315C136.212 48.7526 135.686 48.4578 135.623 48.3671C135.288 47.8653 134.701 45.9476 134.701 46.035C134.431 47.3842 134.367 47.7825 134.08 48.9288C133.993 49.2963 133.452 49.2296 133.574 48.5823C133.691 48.0506 134.465 45.4353 134.421 45.3596C133.813 44.2863 133.257 43.4377 132.52 42.975Z" fill="white"/>
<path fill-rule="evenodd" clip-rule="evenodd" d="M133.671 49.2C133.494 49.1798 133.218 49.5956 134.103 49.7588C135.287 49.9733 136.582 49.5746 136.979 48.414C137.434 47.0314 137.734 45.7226 137.971 45.2291C138.268 44.6535 138.648 44.7 138.367 43.86C138.17 43.2555 137.801 43.4378 137.724 43.761C137.517 44.6423 136.732 47.493 136.487 48.018C136.024 48.9761 135.092 49.3549 133.671 49.2Z" fill="white"/>
<path fill-rule="evenodd" clip-rule="evenodd" d="M136.04 44.6512C135.913 44.3793 135.617 44.5897 135.67 44.8874C135.681 45.0026 135.736 45.1093 135.823 45.1852C135.91 45.2611 136.023 45.3003 136.139 45.2947C136.399 45.2857 136.947 45.3033 136.949 44.8728C136.949 44.5702 136.712 44.3174 136.535 44.6512C136.366 44.9534 136.149 44.9219 136.04 44.6512ZM136.336 43.5112C136.245 43.5742 136.327 43.9109 136.435 43.9072C136.822 43.8941 137.37 43.7711 137.663 43.5667C137.749 43.5067 137.713 43.3034 137.591 43.3079C137.218 43.3199 136.625 43.3102 136.336 43.5112ZM139.621 44.3587C139.901 43.9211 140.673 43.8764 140.396 44.5012C140.199 44.9317 138.276 48.6468 138.014 49.1193C137.727 49.6507 137.493 49.3874 137.697 48.9738C137.97 48.4413 139.533 44.4881 139.621 44.3587Z" fill="white"/>
<path fill-rule="evenodd" clip-rule="evenodd" d="M136.726 49.89C136.644 49.5945 136.186 49.1573 136.237 49.9482C136.329 51.3837 138.301 50.9299 138.898 50.4195C139.44 49.9395 138.969 52.0407 139.69 52.2653C140.087 52.3928 140.834 51.8509 141.201 51.3743C142.22 50.0524 142.868 48.1575 143.848 46.8525C144.218 46.3425 143.645 45.978 143.414 46.3838C142.562 47.8125 141.504 50.7285 140.348 51.4857C139.406 52.0887 139.685 50.7094 139.652 50.2947C139.611 49.9909 139.241 49.5435 138.747 49.9542C138.401 50.2242 137.865 50.4435 137.379 50.3997C137.097 50.3839 136.859 50.3888 136.726 49.89Z" fill="white"/>
<path fill-rule="evenodd" clip-rule="evenodd" d="M140.248 47.2237C140.258 47.1427 139.831 47.106 139.852 47.5207C139.867 47.8278 140.234 47.9111 140.297 47.8672C140.875 47.4472 140.174 47.6565 140.248 47.2237ZM139.408 48.9075C139.294 48.9341 139.189 49.2975 139.458 49.3181C139.702 49.3353 140.662 49.2322 140.927 49.248C141.099 49.2416 141.164 48.9135 140.797 48.9311C140.351 48.9536 139.764 48.8415 139.408 48.9075ZM116.175 42.66C116.327 42.6675 116.745 43.2082 116.717 43.3773C116.698 43.4572 116.271 43.3657 116.14 43.2551C116.043 43.173 116.082 42.6555 116.175 42.66ZM114.161 46.5795C113.78 46.7876 114.222 47.1986 114.508 47.025C115.58 46.3301 117.19 45.6003 117.527 44.2245C117.635 43.7583 118.068 43.044 118.48 42.8846C118.877 42.7305 119.454 43.6035 119.83 42.9165C120.051 42.5238 120.825 43.1741 121.012 42.7541C121.24 42.2463 121.131 41.967 121.141 41.481C121.124 41.1622 120.881 41.0673 120.704 41.583C120.612 41.8166 120.72 42.0521 120.646 42.174C120.589 42.2666 120.411 42.3562 120.308 42.279C120.213 42.2077 120.279 42.009 120.051 41.9208C119.963 41.8766 119.822 41.8398 119.76 41.9531C119.49 42.4346 119.34 42.8838 118.963 42.372C118.626 41.931 118.455 41.1686 118.208 42.2118C118.12 42.5801 117.56 43.1145 117.23 43.1145C116.818 43.1145 116.921 42.0292 116.016 42.1946C115.551 42.2936 115.583 43.1846 115.652 43.5135C115.767 43.971 117.126 43.6425 117.059 43.9413C116.826 44.9805 115.384 45.9686 114.161 46.5795ZM105.649 51.5325C105.591 51.7065 105.822 52.1786 106.062 52.2134C106.298 52.2307 106.418 51.7035 106.342 51.5325C106.286 51.4065 105.69 51.4091 105.649 51.5325ZM106.898 53.3625C106.747 53.1997 106.302 53.6362 106.662 53.9448C106.864 54.1083 107.604 54.3461 107.806 54.0003C108.08 53.556 107.536 51.9423 107.777 51.729C107.965 51.5625 108.838 52.8071 109.268 52.8967C110.279 53.0366 110.037 51.1646 111.126 51.2917C111.869 51.3907 111.951 50.4626 111.847 49.8832C111.765 49.3271 110.864 48.5242 110.45 48.165C109.906 47.7112 109.663 48.4995 110.005 48.759C110.444 49.1115 111.218 49.8228 111.341 50.2938C111.399 50.5158 110.804 50.9576 110.584 50.8379C110.078 50.5616 109.606 49.3762 109.163 49.1055C109.012 49.0132 108.641 49.2217 108.82 49.5915C109.021 49.9878 109.909 50.6013 109.961 51.0243C110.008 51.4102 109.565 52.2442 109.274 52.2442C108.955 52.2442 108.139 51.2362 107.885 50.7618C107.757 50.5346 107.317 50.5567 107.271 50.8706C107.197 51.3412 107.339 52.3376 107.451 52.9548C107.54 53.5395 107.122 53.5691 106.898 53.3625ZM105.372 50.1487C105.244 50.2927 105.669 50.574 105.753 50.5012C105.917 50.3595 106.551 49.6357 106.429 49.3826C106.32 49.1572 105.447 48.6633 105.305 48.9078C105.042 49.3308 106.128 49.5206 105.957 49.6447C105.874 49.6927 105.575 49.8993 105.372 50.1487ZM106.935 46.9762C106.935 46.9762 107.208 47.91 107.43 47.5207C107.61 47.2511 106.935 46.9762 106.935 46.9762ZM107.382 48.4612C107.282 48.516 107 48.7387 107.184 48.8572C107.473 49.0286 108.262 49.1647 108.091 48.6037C107.988 48.2737 109.28 48.6131 108.965 47.7187C108.883 47.4712 108.493 47.1142 108.302 47.0636C108.18 47.0317 107.766 47.2586 108.025 47.3838C108.214 47.4813 108.784 47.8166 108.572 48.0363C108.332 48.2658 108.164 47.9332 107.865 47.9868C107.715 48.0153 107.812 48.4436 107.728 48.5606C107.68 48.6251 107.463 48.417 107.382 48.4612ZM109.436 44.9137C109.273 44.9951 108.981 45.4372 108.971 45.6416C108.965 45.7507 109.084 45.9007 109.178 45.8542C109.349 45.7687 109.613 45.3502 109.623 45.1582C109.629 45.0367 109.538 44.8631 109.436 44.9137ZM110.501 44.7975C110.186 44.4123 110.835 43.8412 111.128 44.6115C111.304 45.0952 113.185 47.5709 113.57 48.4109C113.843 48.9794 113.56 49.2142 113.224 48.8069C112.271 47.5912 111.489 46.0758 110.501 44.7975ZM112.432 44.85C112.768 44.4862 113.453 43.7437 113.269 43.3301C113.127 42.9738 112.711 43.0091 112.639 43.0916C112.232 43.5776 112.929 43.4553 112.828 43.6215C112.621 44.0107 112.414 44.2252 112.307 44.5995C112.282 44.6872 112.372 44.9156 112.432 44.85ZM141.598 46.065C141.356 45.87 141.835 44.9235 142.158 45.2951C143.046 46.3226 143.458 49.6586 143.715 52.1553C143.715 52.1553 143.316 52.488 143.313 52.4351C143.313 51.105 142.778 47.0362 141.598 46.065ZM121.687 42.8175C121.399 42.1575 122.118 41.913 122.225 42.3836C122.724 44.5522 123.919 46.1936 124.828 47.6685C125.102 48.1297 124.883 48.4042 124.217 47.9797C123.756 47.664 123.288 46.5112 123.061 46.4658C122.651 46.3893 121.669 48.3382 119.66 47.7821C119.141 47.6366 119.175 46.0916 119.165 45.4087C119.143 45.0888 119.497 45.0045 119.509 45.441C119.527 46.0702 119.508 47.3775 120.313 47.4213C120.969 47.4581 122.423 46.5303 122.729 45.8051C123.002 45.0588 121.997 43.5768 121.687 42.8175Z" fill="white"/>
<path fill-rule="evenodd" clip-rule="evenodd" d="M142.138 51.8925C142.298 51.4459 144.43 47.8669 144.71 47.0794C144.853 46.6995 145.465 47.7307 144.868 48.2869C144.343 48.7594 142.794 51.2996 142.505 52.1899C142.372 52.5919 141.968 52.4006 142.138 51.8925Z" fill="white"/>
<path fill-rule="evenodd" clip-rule="evenodd" d="M145.764 48.4801C146.157 47.0044 147.111 48.7077 146.271 49.5477C144.974 50.8178 144.584 53.2429 142.526 53.6078C141.972 53.7271 140.996 53.3581 140.706 53.1526C140.594 53.0723 140.779 52.5458 141.126 52.8027C141.627 53.1942 142.663 53.2827 143.209 52.8376C144.378 51.6901 145.33 50.1702 145.764 48.4801ZM124.387 53.2576C124.294 53.3641 124.01 53.3468 123.985 53.4964C123.873 54.0514 123.985 54.3327 123.862 54.8671C123.745 55.3789 123.39 55.3981 123.415 54.9811C123.447 54.4403 123.892 53.6768 123.578 53.6243C123.368 53.5756 123.207 53.2947 123.423 53.1563C123.832 52.8724 124.053 52.9159 124.334 53.0014C124.432 53.0314 124.457 53.1754 124.387 53.2576Z" fill="white"/>
<path fill-rule="evenodd" clip-rule="evenodd" d="M124.097 52.5337C123.554 53.0085 123.051 53.2027 122.551 53.8027C122.347 54.0487 122.352 54.3915 122.231 54.705C122.108 55.038 121.715 55.1032 121.593 55.0338C121.39 54.9 121.419 54.2827 121.192 54.615C120.998 54.921 120.874 55.3425 120.589 55.3372C120.33 55.332 119.844 54.804 120.09 54.7785C120.935 54.6922 120.925 54.0161 121.241 53.9718C121.595 53.9242 121.619 54.5298 121.838 54.4087C122.01 54.3202 122.091 53.6148 122.277 53.4243C122.85 52.8393 123.303 52.53 123.887 52.1002C124.183 51.8643 124.393 52.2896 124.097 52.5337ZM126.077 54.3525C125.642 54.4402 125.716 54.999 125.844 55.0683C126.054 55.1666 126.38 55.2078 126.502 54.5651C126.558 54.3015 126.61 55.8768 127.188 55.2701C127.521 54.9022 128.346 55.3368 128.691 54.8741C128.939 54.5658 129.015 54.3506 128.822 53.8953C128.766 53.757 128.427 53.8252 128.447 54.1612C128.464 54.4443 128.246 54.7938 127.963 54.7342C127.826 54.7091 128.04 54.0416 127.902 53.8605C127.826 53.7611 127.711 53.772 127.635 53.8751C127.529 54.0191 127.742 54.6588 127.393 54.7432C126.953 54.8445 127.183 54.3153 126.997 54.2182C126.397 53.916 126.34 54.297 126.077 54.3525ZM129.47 53.28C129.789 53.1903 129.689 53.19 130.19 52.7797C130.385 52.6316 130.424 53.0647 130.404 53.2357C130.367 53.5263 130.022 53.3212 129.915 53.577C129.758 53.9092 129.822 54.6825 129.769 54.9975C129.733 55.1591 129.474 55.1452 129.449 55.0177C129.375 54.6337 129.502 54.258 129.49 53.7776C129.486 53.6145 129.252 53.3587 129.47 53.28ZM127.595 52.2975C127.518 52.6451 127.524 52.9312 127.524 53.1693C127.542 53.3621 127.894 53.238 127.892 53.2136C127.875 52.9083 127.944 52.4861 127.854 52.3687C127.805 52.305 127.613 52.2318 127.595 52.2975Z" fill="white"/>
<path fill-rule="evenodd" clip-rule="evenodd" d="M125.237 48.8213L124.69 50.919L123.929 49.5128V50.9543L122.289 49.0088L122.859 51.0949L121.386 49.8409L122.17 51.2588L119.555 49.5713L121.219 51.5168L119.127 50.4855L120.625 51.7512L117.201 50.4619L120.506 52.0909C121.714 51.4954 123.371 51.1298 125.213 51.1298C127.049 51.1298 128.713 51.4992 129.92 52.0909C129.925 52.0932 129.94 52.0887 129.944 52.0909L133.225 50.4619L129.849 51.7628L131.323 50.4855L129.255 51.5048L130.895 49.5713L128.28 51.2588L129.065 49.8409L127.59 51.0949L128.161 49.0088L126.521 50.9663L126.544 49.5128L125.783 50.919L125.237 48.8213H125.237Z" fill="white"/>
<path d="M122.342 94.3613C122.342 94.5838 122.308 94.9045 122.242 95.3243H122.086C122.086 95.0383 122.073 94.8185 122.046 94.6648C122.021 94.5108 121.971 94.3278 121.895 94.1155C121.843 93.9571 121.775 93.8042 121.692 93.659C121.619 93.532 121.501 93.3633 121.339 93.1525L121.65 92.385C121.794 92.569 121.895 92.7103 121.956 92.809C122.024 92.9228 122.089 93.0655 122.149 93.2378C122.277 93.5984 122.342 93.9785 122.342 94.3613ZM124.779 92.8763C124.779 93.1103 124.735 93.2858 124.646 93.4028C124.558 93.52 124.406 93.6035 124.192 93.6538C124.254 93.871 124.295 94.0408 124.315 94.1628C124.338 94.2978 124.349 94.4346 124.348 94.5715C124.348 94.6685 124.342 94.772 124.33 94.8825C124.32 94.9928 124.301 95.1415 124.273 95.3288H124.132C124.132 95.1615 124.123 95.0178 124.105 94.8975C124.089 94.7809 124.063 94.6659 124.027 94.554C123.984 94.4354 123.94 94.3175 123.894 94.2003C123.815 93.9898 123.737 93.815 123.658 93.6763C123.581 93.5358 123.455 93.3428 123.279 93.097L123.52 92.3745C123.647 92.557 123.758 92.6833 123.854 92.7533C123.949 92.822 124.062 92.8563 124.192 92.8563C124.476 92.8563 124.619 92.7023 124.619 92.3948H124.764C124.764 92.495 124.767 92.5788 124.772 92.6455C124.777 92.7108 124.779 92.7878 124.779 92.8763ZM127.018 94.5713L126.837 95.3238C126.723 95.2918 126.631 95.2023 126.559 95.0553C126.499 94.9333 126.455 94.7785 126.428 94.5913C126.403 94.404 126.391 94.21 126.391 94.0095C126.238 94.0495 126.118 94.0695 126.03 94.0695C125.854 94.0695 125.709 94.0238 125.593 93.932C125.48 93.8383 125.423 93.7203 125.423 93.5783C125.423 93.2723 125.502 92.9973 125.659 92.7533C125.817 92.5075 125.996 92.3845 126.195 92.3845C126.349 92.3845 126.456 92.428 126.516 92.515C126.583 92.61 126.624 92.719 126.639 92.841C126.654 92.963 126.661 93.1985 126.661 93.548C126.661 93.8608 126.687 94.0815 126.737 94.2103C126.777 94.3103 126.871 94.4308 127.018 94.5713ZM126.341 93.3225C126.311 93.1318 126.21 93.0365 126.04 93.0365C125.966 93.0365 125.898 93.0565 125.836 93.0965C125.775 93.1368 125.744 93.172 125.744 93.202C125.744 93.3023 125.864 93.3525 126.105 93.3525C126.182 93.3525 126.26 93.3425 126.341 93.3225ZM129.387 94.3838L129.297 95.2965C129.118 95.1713 128.953 94.9448 128.801 94.617C128.642 94.2745 128.481 93.7888 128.319 93.16C128.181 93.765 128.066 94.209 127.976 94.4915C127.887 94.7725 127.799 94.9715 127.712 95.0885C127.654 95.167 127.56 95.2465 127.432 95.3268L127.452 94.454C127.617 94.2283 127.733 94.056 127.8 93.9375C127.899 93.7618 127.98 93.557 128.043 93.323C128.109 93.0873 128.167 92.772 128.219 92.3775H128.384C128.486 92.7738 128.585 93.089 128.68 93.323C128.769 93.5438 128.873 93.7385 128.991 93.9073C129.075 94.026 129.207 94.1848 129.387 94.3838Z" fill="white"/>
<path d="M136.276 102.994C136.398 103.136 136.483 103.277 136.533 103.414C136.581 103.55 136.615 103.744 136.637 103.996L136.365 104.019C136.249 103.792 136.136 103.614 136.027 103.486C135.943 103.388 135.808 103.248 135.622 103.068C135.436 102.888 135.245 102.712 135.051 102.54C134.855 102.367 134.605 102.168 134.302 101.941C134.195 101.862 134.128 101.805 134.099 101.772C134.057 101.722 134.023 101.624 133.999 101.478C133.973 101.33 133.956 101.146 133.95 100.926L134.899 101.698C135.258 101.993 135.554 102.254 135.789 102.48C135.959 102.643 136.122 102.815 136.276 102.994ZM132.908 100.964L132.851 101.662L131.733 101.632L131.817 100.919L132.908 100.964M135.849 104.09L133.185 104.902L132.695 104.224L134.998 103.522C134.894 103.378 134.813 103.277 134.755 103.219C134.668 103.132 134.564 103.061 134.45 103.011C134.443 103.139 134.39 103.252 134.291 103.349C134.193 103.446 134.065 103.518 133.909 103.565C133.711 103.628 133.499 103.637 133.296 103.591C133.091 103.546 132.941 103.457 132.845 103.324C132.703 103.128 132.627 102.868 132.616 102.543C132.605 102.185 132.703 101.975 132.91 101.912C133.179 101.83 133.542 101.905 134 102.136C134.458 102.368 134.809 102.653 135.055 102.991L135.85 104.09M133.803 102.668C133.678 102.61 133.577 102.575 133.502 102.562C133.435 102.546 133.365 102.547 133.299 102.566C133.222 102.589 133.169 102.633 133.14 102.696C133.111 102.76 133.118 102.821 133.161 102.881C133.189 102.919 133.236 102.945 133.301 102.957C133.367 102.967 133.438 102.961 133.512 102.939C133.571 102.921 133.622 102.892 133.665 102.852C133.71 102.81 133.756 102.749 133.803 102.667M130.949 102.122L130.786 102.813L129.678 102.711L129.846 102.013L130.949 102.122M133.576 104.821L132.984 104.957C132.787 105.004 132.584 105.019 132.383 105.001C132.194 104.983 132.011 104.922 131.849 104.823C131.751 105.001 131.579 105.15 131.333 105.271C131.17 105.351 130.98 105.416 130.764 105.466L130.345 105.562L129.96 104.856L130.38 104.76C130.601 104.709 130.752 104.667 130.832 104.633C130.915 104.596 131.017 104.535 131.141 104.448C131.006 104.364 130.896 104.307 130.813 104.275C130.712 104.238 130.623 104.228 130.546 104.246C130.518 104.252 130.492 104.266 130.473 104.286C130.455 104.304 130.441 104.334 130.428 104.378L130.244 104.403C130.073 104.09 130.034 103.848 130.127 103.677C130.222 103.503 130.449 103.375 130.808 103.293C131.179 103.208 131.495 103.188 131.758 103.235C132.022 103.28 132.199 103.384 132.288 103.549C132.337 103.637 132.355 103.728 132.343 103.822C132.331 103.915 132.284 104.048 132.205 104.221C132.26 104.246 132.325 104.26 132.4 104.264C132.474 104.269 132.54 104.264 132.599 104.251L133.191 104.115L133.576 104.821ZM130.747 105.479L130.17 105.569C129.848 105.62 129.584 105.571 129.377 105.422C129.147 105.258 128.949 104.952 128.782 104.504L128.498 103.742C128.434 103.569 128.347 103.44 128.237 103.356C128.184 103.315 128.076 103.261 127.914 103.194L128.111 102.455C128.323 102.573 128.487 102.696 128.602 102.825C128.737 102.976 128.851 103.177 128.944 103.429L129.141 103.956C129.28 104.328 129.414 104.581 129.545 104.713C129.649 104.82 129.767 104.862 129.899 104.842L130.476 104.751L130.747 105.479ZM128.28 102.829L127.908 103.486L126.853 103.242L127.229 102.58L128.28 102.829ZM128.894 105.8L126.264 106.038L126.105 105.297L128.314 105.097C128.26 104.98 128.18 104.878 128.079 104.798C128.027 104.755 127.911 104.682 127.732 104.58L127.928 103.901C128.172 104.036 128.349 104.185 128.461 104.347C128.576 104.509 128.669 104.756 128.741 105.089L128.894 105.8M126.783 106.137C126.467 106.126 126.205 106.103 125.998 106.066C125.792 106.03 125.588 105.976 125.391 105.906C125.221 105.975 125.071 106.02 124.939 106.039C124.81 106.059 124.617 106.064 124.36 106.056L123.67 106.033C123.481 106.027 123.333 105.99 123.228 105.922C123.123 105.854 123.033 105.744 122.957 105.593C122.79 105.742 122.607 105.846 122.41 105.906C122.242 105.957 122.043 105.979 121.814 105.971L121.209 105.951L121.268 105.204L121.874 105.224C122.17 105.234 122.421 105.188 122.628 105.086C122.896 104.954 123.041 104.744 123.064 104.456L123.341 104.493C123.331 104.551 123.32 104.618 123.308 104.693C123.297 104.768 123.287 104.851 123.28 104.943C123.273 105.036 123.316 105.116 123.41 105.181C123.504 105.247 123.614 105.282 123.742 105.286L124.263 105.303C124.607 105.315 124.855 105.292 125.007 105.234C125.191 105.165 125.291 105.028 125.307 104.823C125.31 104.779 125.335 104.74 125.38 104.707C125.407 104.687 125.461 104.659 125.544 104.621L125.711 104.544C125.714 104.579 125.714 104.627 125.713 104.687C125.711 104.746 125.709 104.785 125.708 104.803C125.7 104.904 125.667 105.037 125.608 105.202C125.71 105.238 125.825 105.271 125.953 105.299C126.081 105.327 126.217 105.35 126.36 105.367C126.365 105.305 126.336 105.223 126.273 105.122C126.21 105.021 126.18 104.953 126.183 104.918C126.187 104.87 126.199 104.834 126.221 104.809C126.227 104.8 126.261 104.773 126.321 104.727L126.706 104.423C126.773 104.541 126.819 104.648 126.842 104.744C126.869 104.839 126.876 104.957 126.865 105.098L126.783 106.137ZM122.791 103.065L122.127 103.535L121.626 103.226L121.133 103.594L120.475 103.196L121.104 102.749L121.635 103.046L122.149 102.67L122.791 103.065ZM121.747 105.928L119.173 105.506L119.455 104.781L121.618 105.135C121.635 105.009 121.62 104.898 121.573 104.801C121.55 104.748 121.485 104.652 121.379 104.514L121.955 103.933C122.102 104.118 122.18 104.299 122.19 104.476C122.202 104.654 122.145 104.906 122.018 105.232L121.747 105.928M119.58 105.592L119.023 105.458C118.713 105.384 118.537 105.247 118.493 105.049C118.444 104.829 118.542 104.504 118.789 104.072L119.209 103.337C119.304 103.17 119.343 103.031 119.324 102.921C119.315 102.868 119.273 102.785 119.196 102.67L119.994 102.128C120.069 102.303 120.099 102.465 120.083 102.614C120.066 102.787 119.987 102.996 119.849 103.238L119.558 103.747C119.353 104.106 119.247 104.364 119.242 104.522C119.236 104.648 119.297 104.726 119.424 104.756L119.981 104.89L119.58 105.592ZM118.262 102.806L117.358 103.187L116.738 102.583L117.649 102.198L118.262 102.806ZM117.878 105.14C117.69 105.362 117.505 105.529 117.324 105.64C117.139 105.751 116.933 105.821 116.719 105.845C116.499 105.873 116.219 105.86 115.881 105.807C115.549 105.757 115.223 105.675 114.907 105.563C114.304 105.348 113.9 105.111 113.694 104.851C113.489 104.594 113.498 104.335 113.72 104.072C113.91 103.848 114.139 103.66 114.395 103.515C114.682 103.352 115.129 103.166 115.738 102.958L115.875 103.139C115.4 103.323 115.072 103.463 114.892 103.557C114.714 103.653 114.57 103.766 114.459 103.896C114.316 104.065 114.338 104.253 114.524 104.46C114.715 104.666 115.036 104.85 115.49 105.011C115.936 105.17 116.358 105.249 116.757 105.246C117.156 105.244 117.423 105.162 117.56 105.002C117.644 104.902 117.7 104.793 117.729 104.676C117.76 104.559 117.779 104.362 117.785 104.083L118.663 103.549C118.664 103.815 118.651 103.994 118.626 104.085C118.582 104.251 118.469 104.442 118.286 104.658L117.878 105.14Z" fill="#BF0000"/>
</g>
<defs>
<clipPath id="clip0_1284_58357">
<rect width="250" height="150" fill="white"/>
</clipPath>
</defs>
</svg>
