<svg width="250" height="150" viewBox="0 0 250 150" fill="none" xmlns="http://www.w3.org/2000/svg">
<g clip-path="url(#clip0_1284_58479)">
<path d="M0 0H250V150H0V0Z" fill="#E41E20"/>
<path d="M109.875 29.1562C108.438 29.1562 106.031 29.625 106.062 30.7188C102 30.0625 101.594 31.7188 101.844 33.2188C102.219 32.625 102.687 32.2812 103.062 32.25C103.594 32.1562 104.156 32.3437 104.75 32.6875C105.31 33.0388 105.815 33.4705 106.25 33.9687C104.812 34.3125 103.688 34.0937 102.562 33.9062C101.927 33.7708 101.322 33.5163 100.781 33.1562C100.312 32.8437 100.156 32.5312 99.4375 31.8125C98.5938 30.9375 97.6875 31.1875 97.9687 32.5312C98.625 33.7812 99.7187 34.3437 101.094 34.5937C101.75 34.6875 102.75 34.9062 103.875 34.9062C105 34.9062 106.25 34.75 106.938 34.9062C106.531 35.1562 106.062 35.625 105.125 35.7812C104.187 35.9687 102.781 35.2187 101.906 35.0312C102 35.75 102.938 36.4375 104.75 36.8125C107.75 37.4375 110.219 37.9375 111.875 38.8438C113.185 39.574 114.341 40.5502 115.281 41.7187C116.75 43.4375 116.844 44.7812 116.906 45.0938C117.219 47.8438 116.25 49.4062 114.438 49.9062C113.563 50.125 111.937 49.6875 111.375 49C110.75 48.3125 110.219 47.125 110.375 45.25C110.531 44.5625 111.344 42.6562 110.656 42.2812C107.398 40.4906 104.026 38.9144 100.562 37.5625C99.7812 37.25 99.1562 38.3125 98.9062 38.75C96.5988 38.4283 94.3919 37.5968 92.4459 36.3157C90.5 35.0346 88.8638 33.3362 87.6562 31.3438C86.3437 28.9688 84.125 31.3437 84.5 33.625C85.0938 36.125 87 37.9375 89.3125 39.25C91.6562 40.5312 94.625 41.8125 97.5937 41.75C99.2187 42.0625 99.1875 44.125 97.2812 44.5312C93.5 44.5312 90.4688 44.4687 87.625 41.7187C85.4688 39.75 84.2812 42.0937 84.875 43.4062C85.9375 47.5 91.7812 48.6562 97.6875 47.3438C100 46.9687 98.625 49.4062 98 49.4375C95.5 51.2187 91.0937 52.9375 87.1875 49.4375C85.4062 48.0625 84.1875 49.1875 84.875 51.1562C86.5937 56.3125 93.2187 55.2187 97.75 52.7187C98.9062 52.0625 99.9688 53.5625 98.5625 54.7188C92.9062 58.6563 90.0937 58.7188 87.5312 57.2188C84.3437 55.9375 84.0937 59.4688 85.9687 60.6562C88.0625 61.9062 93.4062 60.9688 97.3437 58.4688C99.0312 57.2188 99.0938 59.1875 98.0312 59.9687C93.375 64 91.5312 65.0625 86.6875 64.4062C84.2812 64.2188 84.3125 67.1875 86.1875 68.3438C88.7812 69.9375 93.8437 67.3125 97.75 64.0312C99.4062 63.1562 99.6875 64.5938 98.875 66.3125C97.1451 68.7602 94.7934 70.702 92.0625 71.9375C89.875 72.7812 87.8125 72.6562 86.3437 72.1562C84.5312 71.5312 84.3125 73.4062 85.3125 75.0938C85.9062 76.125 88.375 76.4375 91.0625 75.5C93.75 74.5625 96.625 72.3125 98.5937 69.7188C100.312 68.1875 100.125 70.2188 99.3125 71.6562C95.375 77.9062 91.75 80.2188 86.9687 79.8438C84.875 79.4688 84.375 81.0938 85.7187 82.6562C88.0937 84.5938 91.0313 84.5312 93.6563 82.5937C95.9375 80.4062 100.344 75.5937 102.656 73.0312C104.281 71.75 104.812 73.0312 104.312 75.6562C103.875 77.1562 102.812 78.7812 99.8437 79.9062C97.8125 81.0625 99.3438 82.6563 100.844 82.7188C101.688 82.7188 103.375 81.7187 104.687 80.2812C106.375 78.3437 106.5 77.0625 107.438 74.0625C108.313 72.625 109.906 73.3125 109.906 74.8125C109.125 77.8125 108.5 78.3438 106.938 79.5625C105.469 80.9688 107.969 81.4375 108.812 80.8438C111.25 79.2188 112.125 77.0938 112.937 75.1562C113.562 73.7812 115.25 74.4375 114.438 76.7188C112.562 82.1562 109.438 84.2812 104.031 85.4062C103.5 85.5 103.156 85.8125 103.344 86.4375L105.531 88.625C102.188 89.625 99.4687 90.1875 96.0937 91.125L91.4688 88.0625C91.0625 87.0625 90.8438 85.5 88.4062 86.5938C86.7812 85.8438 86 86.125 85.0937 86.9062C86.4062 86.9062 86.9687 87.2813 87.5 87.875C88.1875 89.6563 89.75 89.8437 91.3437 89.3437C92.375 90.1875 92.9063 90.875 93.9688 91.75L88.75 91.5938C86.875 89.625 85.4375 89.7188 84.125 91.2812C83.0938 91.4375 82.6875 91.4375 82 92.6562C83.0625 92.2188 83.75 92.0938 84.2187 92.5625C86.1875 93.7188 87.4687 93.4688 88.4375 92.5625L93.9062 92.9062C93.2187 93.5312 92.2812 93.8438 91.5625 94.4062C88.75 93.5938 87.25 94.7188 86.75 97C86.355 97.9144 86.2251 98.9215 86.375 99.9062C86.625 98.9688 87.0937 98.1875 87.9062 97.7188C90.4062 98.3438 91.3437 97.3125 91.5 95.8125C92.75 94.8125 94.5625 94.5938 95.7812 93.5938C97.2187 94.0312 97.9062 94.3125 99.3438 94.7812C99.8438 96.3437 101 96.9375 102.875 96.5312C105.062 96.5938 104.687 97.5312 104.875 98.25C105.5 97.2188 105.469 96.1875 104.094 95.25C103.594 93.9062 102.469 93.2812 101.031 94.0625C99.6562 93.6875 99.3125 93.125 97.9375 92.7188C101.375 91.625 103.812 91.375 107.25 90.2812L109.656 92.4063C110.125 92.6875 110.563 92.75 110.844 92.4063C113 89.2813 113.969 86.5625 115.937 84.5C116.719 83.625 117.687 82.5 118.75 82.2188C119.281 82.0625 119.938 82.1562 120.375 82.625C120.781 83.0625 121.125 83.9062 121 85.1875C120.781 86.9688 120.344 87.5625 119.844 88.625C119.312 89.7188 118.719 90.375 118.063 91.2187C116.813 92.875 115.125 93.8438 114.125 94.5C112.125 95.7812 111.312 95.2188 109.75 95.125C107.75 95.3438 107.25 96.3125 108.875 97.6562C110.375 98.4688 111.75 98.5625 112.875 98.3438C113.812 98.1562 114.937 96.9375 115.75 96.2812C116.625 95.25 118.125 96.4688 117.094 97.6875C115.25 99.875 113.438 101.312 111.156 101.281C108.75 101.594 109.219 102.938 110.781 103.594C113.656 104.75 116.219 102.562 117.531 101.094C118.531 100 119.25 99.9688 119.094 101.688C118.062 104.781 116.719 105.969 114.469 106.125C112.656 105.938 112.625 107.375 113.969 108.312C116.969 110.375 119.156 106.812 120.188 104.688C120.906 102.75 122.031 103.656 122.156 105.25C122.156 107.406 121.219 109.125 118.625 111.313C120.594 114.469 122.906 117.688 124.875 120.844L130.875 53.9687L124.875 43.4375C124.25 42.875 122.125 40.375 121.594 40C121.375 39.8125 121.281 39.6875 121.562 39.5625C121.844 39.4375 122.5 39.3125 122.969 39.25C121.719 37.9687 120.594 37.5625 118.188 36.875C118.781 36.625 119.344 36.75 121.094 36.6875C120.02 35.2447 118.556 34.1388 116.875 33.5C118.187 32.5625 118.438 32.5 119.75 31.4062C117.68 31.2463 115.635 30.8478 113.656 30.2187C112.475 29.6572 111.207 29.298 109.906 29.1562H109.875ZM110.125 31.7812C111.312 31.7812 112.031 32.1875 112.031 32.6875C112.031 33.1875 111.312 33.5937 110.125 33.5937C108.937 33.5937 108.188 33.125 108.188 32.6562C108.188 32.1562 108.937 31.7812 110.125 31.7812Z" fill="black"/>
<path d="M139.875 29.1562C141.312 29.1562 143.719 29.625 143.688 30.7188C147.75 30.0625 148.156 31.7188 147.906 33.2188C147.531 32.625 147.063 32.2812 146.688 32.25C146.156 32.1562 145.594 32.3437 145 32.6875C144.44 33.0388 143.935 33.4705 143.5 33.9687C144.938 34.3125 146.062 34.0937 147.188 33.9062C147.823 33.7708 148.428 33.5163 148.969 33.1562C149.438 32.8437 149.594 32.5312 150.312 31.8125C151.156 30.9375 152.063 31.1875 151.781 32.5312C151.125 33.7812 150.031 34.3437 148.656 34.5937C148 34.6875 147 34.9062 145.875 34.9062C144.75 34.9062 143.5 34.75 142.812 34.9062C143.219 35.1562 143.688 35.625 144.625 35.7812C145.563 35.9687 146.969 35.2187 147.844 35.0312C147.75 35.75 146.812 36.4375 145 36.8125C142 37.4375 139.531 37.9375 137.875 38.8438C136.565 39.574 135.409 40.5502 134.469 41.7187C133 43.4375 132.906 44.7812 132.844 45.0938C132.531 47.8438 133.5 49.4062 135.312 49.9062C136.187 50.125 137.813 49.6875 138.375 49C139 48.3125 139.531 47.125 139.375 45.25C139.219 44.5625 138.406 42.6562 139.094 42.2812C142.352 40.4906 145.724 38.9144 149.188 37.5625C149.969 37.25 150.594 38.3125 150.844 38.75C153.151 38.4283 155.358 37.5968 157.304 36.3157C159.25 35.0346 160.886 33.3362 162.094 31.3438C163.406 28.9688 165.625 31.3437 165.25 33.625C164.656 36.125 162.75 37.9375 160.438 39.25C158.094 40.5312 155.125 41.8125 152.156 41.75C150.531 42.0625 150.563 44.125 152.469 44.5312C156.25 44.5312 159.281 44.4687 162.125 41.7187C164.281 39.75 165.469 42.0937 164.875 43.4062C163.813 47.5 157.969 48.6562 152.063 47.3438C149.75 46.9687 151.125 49.4062 151.75 49.4375C154.25 51.2187 158.656 52.9375 162.563 49.4375C164.344 48.0625 165.563 49.1875 164.875 51.1562C163.156 56.3125 156.531 55.2187 152 52.7187C150.844 52.0625 149.781 53.5625 151.188 54.7188C156.844 58.6563 159.656 58.7188 162.219 57.2188C165.406 55.9375 165.656 59.4688 163.781 60.6562C161.688 61.9062 156.344 60.9688 152.406 58.4688C150.719 57.2188 150.656 59.1875 151.719 59.9687C156.375 64 158.219 65.0625 163.062 64.4062C165.469 64.2188 165.438 67.1875 163.563 68.3438C160.969 69.9375 155.906 67.3125 152 64.0312C150.344 63.1562 150.062 64.5938 150.875 66.3125C152.605 68.7602 154.957 70.702 157.688 71.9375C159.875 72.7812 161.938 72.6562 163.406 72.1562C165.219 71.5312 165.438 73.4062 164.438 75.0938C163.844 76.125 161.375 76.4375 158.688 75.5C156 74.5625 153.125 72.3125 151.156 69.7188C149.438 68.1875 149.625 70.2188 150.438 71.6562C154.375 77.9062 158 80.2188 162.781 79.8438C164.875 79.4688 165.375 81.0938 164.031 82.6562C161.656 84.5938 158.719 84.5312 156.094 82.5937C153.812 80.4062 149.406 75.5937 147.094 73.0312C145.469 71.75 144.938 73.0312 145.438 75.6562C145.875 77.1562 146.938 78.7812 149.906 79.9062C151.938 81.0625 150.406 82.6563 148.906 82.7188C148.062 82.7188 146.375 81.7187 145.063 80.2812C143.375 78.3437 143.25 77.0625 142.312 74.0625C141.437 72.625 139.844 73.3125 139.844 74.8125C140.625 77.8125 141.25 78.3438 142.812 79.5625C144.281 80.9688 141.781 81.4375 140.938 80.8438C138.5 79.2188 137.625 77.0938 136.813 75.1562C136.188 73.7812 134.5 74.4375 135.312 76.7188C137.188 82.1562 140.312 84.2812 145.719 85.4062C146.25 85.5 146.594 85.8125 146.406 86.4375L144.219 88.625C147.562 89.625 150.281 90.1875 153.656 91.125L158.281 88.0625C158.687 87.0625 158.906 85.5 161.344 86.5938C162.969 85.8438 163.75 86.125 164.656 86.9062C163.344 86.9062 162.781 87.2813 162.25 87.875C161.563 89.6563 160 89.8437 158.406 89.3437C157.375 90.1875 156.844 90.875 155.781 91.75L161 91.5938C162.875 89.625 164.312 89.7188 165.625 91.2812C166.656 91.4375 167.062 91.4375 167.75 92.6562C166.688 92.2188 166 92.0938 165.531 92.5625C163.563 93.7188 162.281 93.4688 161.313 92.5625L155.844 92.9062C156.531 93.5312 157.469 93.8438 158.188 94.4062C161 93.5938 162.5 94.7188 163 97C163.395 97.9144 163.525 98.9215 163.375 99.9062C163.125 98.9688 162.656 98.1875 161.844 97.7188C159.344 98.3438 158.406 97.3125 158.25 95.8125C157 94.8125 155.188 94.5938 153.969 93.5938C152.531 94.0312 151.844 94.3125 150.406 94.7812C149.906 96.3437 148.75 96.9375 146.875 96.5312C144.688 96.5938 145.063 97.5312 144.875 98.25C144.25 97.2188 144.281 96.1875 145.656 95.25C146.156 93.9062 147.281 93.2812 148.719 94.0625C150.094 93.6875 150.438 93.125 151.812 92.7188C148.375 91.625 145.938 91.375 142.5 90.2812L140.094 92.4063C139.625 92.6875 139.187 92.75 138.906 92.4063C136.75 89.2813 135.781 86.5625 133.813 84.5C133.031 83.625 132.063 82.5 131 82.2188C130.469 82.0625 129.812 82.1562 129.375 82.625C128.969 83.0625 128.625 83.9062 128.75 85.1875C128.969 86.9688 129.406 87.5625 129.906 88.625C130.438 89.7188 131.031 90.375 131.687 91.2187C132.937 92.875 134.625 93.8438 135.625 94.5C137.625 95.7812 138.438 95.2188 140 95.125C142 95.3438 142.5 96.3125 140.875 97.6562C139.375 98.4688 138 98.5625 136.875 98.3438C135.938 98.1562 134.813 96.9375 134 96.2812C133.125 95.25 131.625 96.4688 132.656 97.6875C134.5 99.875 136.312 101.312 138.594 101.281C141 101.594 140.531 102.938 138.969 103.594C136.094 104.75 133.531 102.562 132.219 101.094C131.219 100 130.5 99.9688 130.656 101.688C131.688 104.781 133.031 105.969 135.281 106.125C137.094 105.938 137.125 107.375 135.781 108.312C132.781 110.375 130.594 106.812 129.562 104.688C128.844 102.75 127.719 103.656 127.594 105.25C127.594 107.406 128.531 109.125 131.125 111.313C129.156 114.469 126.844 117.688 124.875 120.844L118.875 53.9687L124.875 43.4375C125.5 42.875 127.625 40.375 128.156 40C128.375 39.8125 128.469 39.6875 128.188 39.5625C127.906 39.4375 127.25 39.3125 126.781 39.25C128.031 37.9687 129.156 37.5625 131.562 36.875C130.969 36.625 130.406 36.75 128.656 36.6875C129.73 35.2447 131.194 34.1388 132.875 33.5C131.563 32.5625 131.312 32.5 130 31.4062C132.07 31.2463 134.115 30.8478 136.094 30.2187C137.275 29.6572 138.543 29.298 139.844 29.1562H139.875ZM139.625 31.7812C138.438 31.7812 137.719 32.1875 137.719 32.6875C137.719 33.1875 138.438 33.5937 139.625 33.5937C140.813 33.5937 141.562 33.125 141.562 32.6562C141.562 32.1562 140.813 31.7812 139.625 31.7812Z" fill="black"/>
</g>
<defs>
<clipPath id="clip0_1284_58479">
<rect width="250" height="150" fill="white"/>
</clipPath>
</defs>
</svg>
