<svg width="250" height="150" viewBox="0 0 250 150" fill="none" xmlns="http://www.w3.org/2000/svg">
<g clip-path="url(#clip0_1284_60829)">
<path d="M125 0H250V150H125V0Z" fill="white"/>
<path d="M0 0H125V150H0V0Z" fill="#006233"/>
<path d="M157 56.25C152.871 49.1009 146.497 43.5136 138.868 40.3545C131.239 37.1955 122.78 36.6412 114.804 38.7778C106.827 40.9144 99.7789 45.6223 94.7519 52.1715C89.7248 58.7206 87 66.745 87 75C87 83.255 89.7248 91.2794 94.7519 97.8286C99.7789 104.378 106.827 109.086 114.804 111.222C122.78 113.359 131.239 112.805 138.868 109.645C146.497 106.486 152.871 100.899 157 93.75C153.114 98.602 147.816 102.128 141.839 103.84C135.862 105.552 129.5 105.365 123.634 103.307C117.767 101.248 112.685 97.4192 109.089 92.3483C105.494 87.2775 103.563 81.2155 103.563 75C103.563 68.7845 105.494 62.7225 109.089 57.6517C112.685 52.5809 117.767 48.7516 123.634 46.6931C129.5 44.6346 135.862 44.4485 141.839 46.1605C147.816 47.8725 153.114 51.3981 157 56.25ZM158.25 75L124.489 64L145.496 92.75V57.25L124.489 86L158.25 75Z" fill="#D21034"/>
</g>
<defs>
<clipPath id="clip0_1284_60829">
<rect width="250" height="150" fill="white"/>
</clipPath>
</defs>
</svg>
