<svg width="250" height="150" viewBox="0 0 250 150" fill="none" xmlns="http://www.w3.org/2000/svg">
<g clip-path="url(#clip0_1284_58637)">
<path d="M0 0H250V150H0V0Z" fill="black"/>
<path d="M0 0H250V75H0V0Z" fill="#CC092F"/>
<path fill-rule="evenodd" clip-rule="evenodd" d="M110.569 51.4493H119.731L122.509 42.8151L125.361 51.4493H134.522L127.163 56.9308L130.015 65.7146L122.509 60.3836L115.076 65.7146L117.928 56.9308L110.569 51.4493Z" fill="#FFCB00"/>
<path fill-rule="evenodd" clip-rule="evenodd" d="M144.056 98.6766L136.849 93.0441C144.131 87.1131 148.863 78.0281 148.863 67.8928C148.863 52.4263 137.826 39.4368 123.259 36.3586L124.385 31.1023C126.413 31.5531 128.791 32.4066 130.743 33.0813L132.621 29.9293C134.646 30.9043 136.901 31.8801 138.776 33.0813L137.351 36.4608C139.228 37.6628 141.494 39.5236 142.755 40.9888L145.574 38.7866C147.076 40.4376 148.879 42.1633 150.155 43.9668L147.602 46.5948C149.251 49.0148 149.888 50.1286 151.103 52.9166L154.685 52.0766C155.362 54.1786 156.389 56.7521 156.765 58.9286L153.374 60.2616C153.779 61.9531 154.303 64.9076 154.269 67.3928C154.267 67.5423 154.255 67.7118 154.255 67.8623L157.797 68.3676C157.647 70.5456 157.573 73.0238 157.121 75.2008H153.443C152.918 77.4521 152.24 80.2058 151.415 82.3071L154.492 84.1103C153.517 86.0616 152.542 88.3896 151.265 90.2668L147.886 88.8411C146.609 90.7173 145.184 92.5186 143.607 94.1713L145.783 97.0238C145.184 97.5488 144.658 98.0751 144.056 98.6763M128.215 98.0003L133.659 101.28C133.151 101.745 131.63 102.532 131.227 102.691L132.117 106.108C130.016 106.785 127.762 107.76 125.436 108.211L124.085 104.833C121.907 105.283 119.731 105.583 117.478 105.583L117.026 109.111C114.925 108.962 112.372 109.111 110.044 108.586V105.058C107.941 104.682 105.914 104.157 103.963 103.48L102.235 106.561C100.433 105.808 98.0312 104.907 96.0781 103.707L97.3551 100.328C95.7776 99.5013 94.3513 98.4508 93 97.3981L96.3789 93.1186C101.936 97.5491 108.917 100.176 116.576 100.176C120.632 100.176 124.609 99.5013 128.215 98.0006" fill="#FFCB00"/>
<path fill-rule="evenodd" clip-rule="evenodd" d="M150.904 106.703L114.97 79.3576L114.643 79.8241L150.484 107.217L148.356 109.879L113.417 87.4691C103.957 81.5376 104.333 76.8831 106.285 71.8526L107.937 67.7983C108.838 73.0541 114.243 77.0343 119.874 81.4628L151.604 105.837L150.904 106.703ZM159.925 114.853C159.852 114.853 159.779 114.838 159.711 114.81C159.644 114.782 159.582 114.741 159.53 114.689C159.478 114.637 159.437 114.575 159.409 114.507C159.382 114.439 159.367 114.367 159.368 114.293C159.368 114.22 159.382 114.148 159.41 114.08C159.438 114.012 159.479 113.951 159.531 113.899C159.582 113.847 159.644 113.806 159.712 113.778C159.779 113.75 159.852 113.735 159.925 113.735C160.234 113.735 160.485 113.985 160.485 114.293C160.485 114.367 160.471 114.44 160.443 114.508C160.414 114.576 160.373 114.637 160.321 114.689C160.269 114.741 160.207 114.783 160.139 114.811C160.071 114.839 159.999 114.853 159.925 114.853ZM157.778 113.276C157.629 113.276 157.487 113.217 157.382 113.112C157.278 113.008 157.219 112.866 157.218 112.717C157.218 112.607 157.251 112.499 157.312 112.407C157.374 112.315 157.461 112.243 157.563 112.201C157.665 112.158 157.778 112.147 157.886 112.169C157.995 112.19 158.094 112.243 158.172 112.322C158.251 112.4 158.304 112.499 158.326 112.608C158.347 112.716 158.336 112.829 158.294 112.931C158.252 113.033 158.18 113.12 158.088 113.182C157.996 113.243 157.888 113.276 157.778 113.276ZM155.58 111.525C155.272 111.525 155.021 111.275 155.021 110.967C155.025 110.822 155.086 110.684 155.19 110.582C155.295 110.481 155.434 110.425 155.58 110.425C155.725 110.425 155.865 110.481 155.969 110.582C156.073 110.684 156.134 110.822 156.138 110.967C156.138 111.275 155.888 111.525 155.58 111.525ZM162.969 114.625L152.202 106.283L149.074 110.315L158.426 116.874C159.178 117.399 159.251 119.803 162.028 120.179C163.156 120.328 163.905 119.502 163.905 119.502C165.115 118.029 164.786 116.001 162.969 114.625Z" fill="#FFCB00"/>
</g>
<defs>
<clipPath id="clip0_1284_58637">
<rect width="250" height="150" fill="white"/>
</clipPath>
</defs>
</svg>
