<svg width="250" height="150" viewBox="0 0 250 150" fill="none" xmlns="http://www.w3.org/2000/svg">
<g clip-path="url(#clip0_1284_58660)">
<path d="M250 0H0V150H250V0Z" fill="#74ACDF"/>
<path d="M250 50.001H0V100.002H250V50.001Z" fill="white"/>
<path d="M124.017 75.393L132.553 93.9906C132.553 93.9906 132.7 94.3461 132.937 94.2482C133.174 94.1502 133.027 93.7947 133.027 93.7947L125.912 74.6079M125.708 81.8439C125.604 84.6722 127.344 86.2278 127.116 88.7535C126.889 91.2795 128.277 92.7075 128.598 93.6897C128.92 94.672 128.25 95.2594 128.539 95.3992C128.828 95.539 129.46 94.763 129.254 93.3665C129.048 91.97 127.988 91.5555 128.237 88.4705C128.486 85.3856 126.975 84.6671 127.343 81.8531" fill="#F6B40E"/>
<path d="M124.017 75.393L132.553 93.9906C132.553 93.9906 132.7 94.3461 132.937 94.2482C133.174 94.1502 133.027 93.7947 133.027 93.7947L125.912 74.6079M125.708 81.8439C125.604 84.6722 127.344 86.2278 127.116 88.7535C126.889 91.2795 128.277 92.7075 128.598 93.6897C128.92 94.672 128.25 95.2594 128.539 95.3992C128.828 95.539 129.46 94.763 129.254 93.3665C129.048 91.97 127.988 91.5555 128.237 88.4705C128.486 85.3856 126.975 84.6671 127.343 81.8531" stroke="#85340A" stroke-width="0.4"/>
<path d="M123.94 75.0003L124.709 95.4489C124.709 95.4489 124.709 95.8336 124.965 95.8338C125.222 95.834 125.222 95.4492 125.222 95.4492L125.991 75.0003M123.034 81.6074C121.855 84.1807 122.867 86.2836 121.691 88.53C120.514 90.7768 121.249 92.627 121.171 93.6575C121.092 94.6883 120.248 94.9745 120.461 95.2141C120.675 95.4539 121.556 94.9788 121.9 93.6098C122.244 92.2408 121.423 91.4521 122.834 88.6973C124.245 85.9425 123.124 84.7005 124.541 82.2415" fill="#F6B40E"/>
<path d="M123.94 75.0003L124.709 95.4489C124.709 95.4489 124.709 95.8336 124.965 95.8338C125.222 95.834 125.222 95.4492 125.222 95.4492L125.991 75.0003M123.034 81.6074C121.855 84.1807 122.867 86.2836 121.691 88.53C120.514 90.7768 121.249 92.627 121.171 93.6575C121.092 94.6883 120.248 94.9745 120.461 95.2141C120.675 95.4539 121.556 94.9788 121.9 93.6098C122.244 92.2408 121.423 91.4521 122.834 88.6973C124.245 85.9425 123.124 84.7005 124.541 82.2415" stroke="#85340A" stroke-width="0.4"/>
<path d="M124.017 74.6076L116.902 93.7941C116.902 93.7941 116.755 94.1493 116.992 94.2477C117.229 94.3461 117.376 93.9905 117.376 93.9905L125.913 75.3926M120.651 80.365C118.578 82.2914 118.708 84.6216 116.761 86.2466C114.814 87.8722 114.786 89.8629 114.319 90.7849C113.852 91.7072 112.962 91.6488 113.068 91.9517C113.173 92.2549 114.169 92.1531 115.011 91.0199C115.853 89.8868 115.396 88.8441 117.754 86.8389C120.111 84.8336 119.551 83.2572 121.801 81.5275" fill="#F6B40E"/>
<path d="M124.017 74.6076L116.902 93.7941C116.902 93.7941 116.755 94.1493 116.992 94.2477C117.229 94.3461 117.376 93.9905 117.376 93.9905L125.913 75.3926M120.651 80.365C118.578 82.2914 118.708 84.6216 116.761 86.2466C114.814 87.8722 114.786 89.8629 114.319 90.7849C113.852 91.7072 112.962 91.6488 113.068 91.9517C113.173 92.2549 114.169 92.1531 115.011 91.0199C115.853 89.8868 115.396 88.8441 117.754 86.8389C120.111 84.8336 119.551 83.2572 121.801 81.5275" stroke="#85340A" stroke-width="0.4"/>
<path d="M124.239 74.2746L110.324 89.278C110.324 89.278 110.051 89.5497 110.233 89.7313C110.414 89.9128 110.686 89.6406 110.686 89.6406L125.69 75.7252M118.927 78.3058C116.274 79.2921 115.502 81.4947 113.082 82.2511C110.661 83.008 109.872 84.8361 109.088 85.5092C108.304 86.1826 107.505 85.7884 107.486 86.1085C107.467 86.429 108.426 86.7159 109.638 85.9912C110.849 85.2664 110.826 84.1284 113.772 83.178C116.717 82.2275 116.803 80.5568 119.544 79.8197" fill="#F6B40E"/>
<path d="M124.239 74.2746L110.324 89.278C110.324 89.278 110.051 89.5497 110.233 89.7313C110.414 89.9128 110.686 89.6406 110.686 89.6406L125.69 75.7252M118.927 78.3058C116.274 79.2921 115.502 81.4947 113.082 82.2511C110.661 83.008 109.872 84.8361 109.088 85.5092C108.304 86.1826 107.505 85.7884 107.486 86.1085C107.467 86.429 108.426 86.7159 109.638 85.9912C110.849 85.2664 110.826 84.1284 113.772 83.178C116.717 82.2275 116.803 80.5568 119.544 79.8197" stroke="#85340A" stroke-width="0.4"/>
<path d="M126.258 82.323C126.394 85.0392 127.934 86.2419 127.632 88.7172C128.296 86.7597 126.695 85.2423 126.786 82.3512M124.491 75.2241L130.338 87.9972L125.439 74.8311" fill="#85340A"/>
<path d="M123.358 82.2604C122.444 84.8218 123.407 86.5224 122.18 88.6935C123.543 87.1392 122.644 85.1246 123.835 82.4884M124.442 75.0257L124.955 89.0637L125.468 75.0252" fill="#85340A"/>
<path d="M120.702 81.0924C118.877 83.1092 119.116 85.0486 117.151 86.5851C119.005 85.6705 118.946 83.4654 121.055 81.4855M124.472 74.8233L119.574 87.9891L125.42 75.2153" fill="#85340A"/>
<path d="M118.695 78.997C116.237 80.162 115.715 82.0451 113.313 82.713C115.375 82.5773 116.165 80.5175 118.871 79.4952M124.577 74.6478L115.013 84.937L125.303 75.3727" fill="#85340A"/>
<path d="M124.571 74.0519L105.973 82.5881C105.973 82.5881 105.617 82.735 105.715 82.9721C105.813 83.2092 106.169 83.0618 106.169 83.0618L125.356 75.9473M118.12 75.7433C115.292 75.6393 113.736 77.3791 111.21 77.1516C108.684 76.9245 107.256 78.3118 106.274 78.6335C105.291 78.9554 104.704 78.2855 104.564 78.5741C104.424 78.8631 105.2 79.4951 106.597 79.289C107.994 79.083 108.408 78.0229 111.493 78.2721C114.578 78.5211 115.297 77.0103 118.111 77.3781" fill="#F6B40E"/>
<path d="M124.571 74.0519L105.973 82.5881C105.973 82.5881 105.617 82.735 105.715 82.9721C105.813 83.2092 106.169 83.0618 106.169 83.0618L125.356 75.9473M118.12 75.7433C115.292 75.6393 113.736 77.3791 111.21 77.1516C108.684 76.9245 107.256 78.3118 106.274 78.6335C105.291 78.9554 104.704 78.2855 104.564 78.5741C104.424 78.8631 105.2 79.4951 106.597 79.289C107.994 79.083 108.408 78.0229 111.493 78.2721C114.578 78.5211 115.297 77.0103 118.111 77.3781" stroke="#85340A" stroke-width="0.4"/>
<path d="M124.964 73.9737L104.515 74.7432C104.515 74.7432 104.13 74.7428 104.13 74.9994C104.129 75.2559 104.514 75.2557 104.514 75.2557L124.964 76.0252M118.357 73.0677C115.783 71.8893 113.68 72.9013 111.434 71.7246C109.187 70.5481 107.337 71.2833 106.306 71.2046C105.275 71.1262 104.989 70.2824 104.749 70.4956C104.51 70.7091 104.985 71.5899 106.354 71.934C107.723 72.2781 108.512 71.4573 111.266 72.8681C114.021 74.2787 115.263 73.1579 117.723 74.5745" fill="#F6B40E"/>
<path d="M124.964 73.9737L104.515 74.7432C104.515 74.7432 104.13 74.7428 104.13 74.9994C104.129 75.2559 104.514 75.2557 104.514 75.2557L124.964 76.0252M118.357 73.0677C115.783 71.8893 113.68 72.9013 111.434 71.7246C109.187 70.5481 107.337 71.2833 106.306 71.2046C105.275 71.1262 104.989 70.2824 104.749 70.4956C104.51 70.7091 104.985 71.5899 106.354 71.934C107.723 72.2781 108.512 71.4573 111.266 72.8681C114.021 74.2787 115.263 73.1579 117.723 74.5745" stroke="#85340A" stroke-width="0.4"/>
<path d="M125.357 74.0517L106.17 66.9372C106.17 66.9372 105.814 66.7897 105.716 67.0266C105.618 67.2636 105.973 67.4107 105.973 67.4107L124.572 75.9471M119.599 70.6862C117.673 68.6128 115.342 68.743 113.717 66.7962C112.092 64.8495 110.101 64.8207 109.179 64.3536C108.257 63.8867 108.315 62.9976 108.012 63.1028C107.709 63.2083 107.811 64.204 108.944 65.0457C110.077 65.8875 111.12 65.4311 113.125 67.7886C115.13 70.1461 116.707 69.5858 118.437 71.8357" fill="#F6B40E"/>
<path d="M125.357 74.0517L106.17 66.9372C106.17 66.9372 105.814 66.7897 105.716 67.0266C105.618 67.2636 105.973 67.4107 105.973 67.4107L124.572 75.9471M119.599 70.6862C117.673 68.6128 115.342 68.743 113.717 66.7962C112.092 64.8495 110.101 64.8207 109.179 64.3536C108.257 63.8867 108.315 62.9976 108.012 63.1028C107.709 63.2083 107.811 64.204 108.944 65.0457C110.077 65.8875 111.12 65.4311 113.125 67.7886C115.13 70.1461 116.707 69.5858 118.437 71.8357" stroke="#85340A" stroke-width="0.4"/>
<path d="M125.69 74.2741L110.686 60.3588C110.686 60.3588 110.414 60.0865 110.232 60.2677C110.051 60.449 110.323 60.721 110.323 60.721L124.239 75.7247M121.658 68.9614C120.672 66.3086 118.469 65.5372 117.713 63.1167C116.956 60.6961 115.128 59.9077 114.455 59.1234C113.781 58.339 114.175 57.54 113.855 57.5213C113.535 57.5027 113.248 58.4615 113.973 59.6729C114.697 60.8842 115.836 60.8615 116.786 63.807C117.736 66.7524 119.407 66.838 120.144 69.5786" fill="#F6B40E"/>
<path d="M125.69 74.2741L110.686 60.3588C110.686 60.3588 110.414 60.0865 110.232 60.2677C110.051 60.449 110.323 60.721 110.323 60.721L124.239 75.7247M121.658 68.9614C120.672 66.3086 118.469 65.5372 117.713 63.1167C116.956 60.6961 115.128 59.9077 114.455 59.1234C113.781 58.339 114.175 57.54 113.855 57.5213C113.535 57.5027 113.248 58.4615 113.973 59.6729C114.697 60.8842 115.836 60.8615 116.786 63.807C117.736 66.7524 119.407 66.838 120.144 69.5786" stroke="#85340A" stroke-width="0.4"/>
<path d="M117.642 76.2929C114.925 76.4289 113.722 77.9689 111.247 77.6665C113.205 78.3305 114.722 76.7296 117.613 76.8205M124.741 74.5259L111.967 80.372L125.134 75.4733" fill="#85340A"/>
<path d="M117.704 73.3921C115.142 72.4783 113.441 73.4408 111.27 72.2142C112.825 73.5767 114.839 72.6783 117.476 73.8688M124.939 74.4763L110.9 74.9893L124.939 75.5019" fill="#85340A"/>
<path d="M118.873 70.7361C116.856 68.9117 114.916 69.1502 113.38 67.186C114.294 69.0397 116.5 68.9806 118.48 71.0893M125.142 74.5063L111.976 69.6082L124.75 75.4542" fill="#85340A"/>
<path d="M120.967 68.7292C119.802 66.2719 117.919 65.75 117.251 63.3474C117.387 65.4099 119.446 66.1992 120.469 68.9051M125.316 74.6115L115.027 65.0479L124.591 75.3372" fill="#85340A"/>
<path d="M125.913 74.6069L117.377 56.0093C117.377 56.0093 117.23 55.6538 116.992 55.7517C116.755 55.8498 116.903 56.2052 116.903 56.2052L124.018 75.392M124.222 68.156C124.326 65.3277 122.586 63.7721 122.813 61.2464C123.04 58.7204 121.653 57.2924 121.331 56.3102C121.009 55.3279 121.679 54.7405 121.391 54.6008C121.102 54.4609 120.47 55.237 120.676 56.6335C120.882 58.0299 121.942 58.4445 121.693 61.5294C121.444 64.6143 122.955 65.3328 122.587 68.1468" fill="#F6B40E"/>
<path d="M125.913 74.6069L117.377 56.0093C117.377 56.0093 117.23 55.6538 116.992 55.7517C116.755 55.8498 116.903 56.2052 116.903 56.2052L124.018 75.392M124.222 68.156C124.326 65.3277 122.586 63.7721 122.813 61.2464C123.04 58.7204 121.653 57.2924 121.331 56.3102C121.009 55.3279 121.679 54.7405 121.391 54.6008C121.102 54.4609 120.47 55.237 120.676 56.6335C120.882 58.0299 121.942 58.4445 121.693 61.5294C121.444 64.6143 122.955 65.3328 122.587 68.1468" stroke="#85340A" stroke-width="0.4"/>
<path d="M125.99 74.9996L125.22 54.551C125.22 54.551 125.221 54.1664 124.964 54.1661C124.708 54.1659 124.708 54.5508 124.708 54.5508L123.938 74.9997M126.896 68.3925C128.074 65.8193 127.062 63.7164 128.239 61.47C129.416 59.2231 128.68 57.373 128.759 56.3424C128.838 55.3117 129.681 55.0254 129.468 54.7858C129.255 54.546 128.374 55.0212 128.03 56.3902C127.686 57.7592 128.506 58.5479 127.096 61.3026C125.685 64.0574 126.806 65.2994 125.389 67.7584" fill="#F6B40E"/>
<path d="M125.99 74.9996L125.22 54.551C125.22 54.551 125.221 54.1664 124.964 54.1661C124.708 54.1659 124.708 54.5508 124.708 54.5508L123.938 74.9997M126.896 68.3925C128.074 65.8193 127.062 63.7164 128.239 61.47C129.416 59.2231 128.68 57.373 128.759 56.3424C128.838 55.3117 129.681 55.0254 129.468 54.7858C129.255 54.546 128.374 55.0212 128.03 56.3902C127.686 57.7592 128.506 58.5479 127.096 61.3026C125.685 64.0574 126.806 65.2994 125.389 67.7584" stroke="#85340A" stroke-width="0.4"/>
<path d="M125.913 75.3924L133.027 56.2059C133.027 56.2059 133.175 55.8506 132.938 55.7522C132.701 55.6539 132.554 56.0095 132.554 56.0095L124.017 74.6073M129.278 69.6349C131.352 67.7085 131.222 65.3784 133.168 63.7533C135.115 62.1277 135.144 60.137 135.611 59.215C136.078 58.2927 136.967 58.3512 136.862 58.0483C136.756 57.745 135.761 57.8469 134.919 58.98C134.077 60.1131 134.534 61.1559 132.176 63.1611C129.818 65.1664 130.379 66.7427 128.129 68.4724" fill="#F6B40E"/>
<path d="M125.913 75.3924L133.027 56.2059C133.027 56.2059 133.175 55.8506 132.938 55.7522C132.701 55.6539 132.554 56.0095 132.554 56.0095L124.017 74.6073M129.278 69.6349C131.352 67.7085 131.222 65.3784 133.168 63.7533C135.115 62.1277 135.144 60.137 135.611 59.215C136.078 58.2927 136.967 58.3512 136.862 58.0483C136.756 57.745 135.761 57.8469 134.919 58.98C134.077 60.1131 134.534 61.1559 132.176 63.1611C129.818 65.1664 130.379 66.7427 128.129 68.4724" stroke="#85340A" stroke-width="0.4"/>
<path d="M125.69 75.7254L139.606 60.722C139.606 60.722 139.878 60.4502 139.697 60.2686C139.516 60.0871 139.244 60.3593 139.244 60.3593L124.239 74.2747M131.003 71.6941C133.656 70.7078 134.427 68.5052 136.848 67.7488C139.269 66.992 140.057 65.1638 140.842 64.4908C141.626 63.8174 142.425 64.2116 142.444 63.8915C142.462 63.5709 141.503 63.284 140.292 64.0088C139.081 64.7335 139.103 65.8716 136.158 66.8219C133.212 67.7724 133.127 69.4432 130.386 70.1802" fill="#F6B40E"/>
<path d="M125.69 75.7254L139.606 60.722C139.606 60.722 139.878 60.4502 139.697 60.2686C139.516 60.0871 139.244 60.3593 139.244 60.3593L124.239 74.2747M131.003 71.6941C133.656 70.7078 134.427 68.5052 136.848 67.7488C139.269 66.992 140.057 65.1638 140.842 64.4908C141.626 63.8174 142.425 64.2116 142.444 63.8915C142.462 63.5709 141.503 63.284 140.292 64.0088C139.081 64.7335 139.103 65.8716 136.158 66.8219C133.212 67.7724 133.127 69.4432 130.386 70.1802" stroke="#85340A" stroke-width="0.4"/>
<path d="M123.671 67.6769C123.535 64.9608 121.995 63.758 122.298 61.2827C121.634 63.2402 123.235 64.7576 123.144 67.6487M125.438 74.7758L119.592 62.0027L124.491 75.1688" fill="#85340A"/>
<path d="M126.572 67.7395C127.485 65.1781 126.523 63.4776 127.749 61.3064C126.387 62.8608 127.285 64.8754 126.095 67.5116M125.487 74.9743L124.974 60.9362L124.462 74.9748" fill="#85340A"/>
<path d="M129.228 68.9075C131.053 66.8907 130.814 64.9513 132.778 63.4148C130.925 64.3295 130.984 66.5345 128.875 68.5145M125.458 75.1766L130.356 62.0109L124.51 74.7846" fill="#85340A"/>
<path d="M131.235 71.003C133.692 69.8379 134.214 67.9549 136.617 67.287C134.554 67.4226 133.765 69.4824 131.059 70.5047M125.352 75.3521L134.916 65.063L124.627 74.6272" fill="#85340A"/>
<path d="M125.357 75.948L143.956 67.4118C143.956 67.4118 144.311 67.2649 144.213 67.0278C144.115 66.7907 143.76 66.9382 143.76 66.9382L124.572 74.0527M131.809 74.2567C134.637 74.3606 136.193 72.6209 138.718 72.8484C141.245 73.0754 142.673 71.6882 143.655 71.3665C144.637 71.0445 145.225 71.7145 145.364 71.4259C145.504 71.1369 144.728 70.5049 143.332 70.7109C141.935 70.9169 141.521 71.977 138.435 71.7278C135.35 71.4788 134.632 72.9896 131.818 72.6218" fill="#F6B40E"/>
<path d="M125.357 75.948L143.956 67.4118C143.956 67.4118 144.311 67.2649 144.213 67.0278C144.115 66.7907 143.76 66.9382 143.76 66.9382L124.572 74.0527M131.809 74.2567C134.637 74.3606 136.193 72.6209 138.718 72.8484C141.245 73.0754 142.673 71.6882 143.655 71.3665C144.637 71.0445 145.225 71.7145 145.364 71.4259C145.504 71.1369 144.728 70.5049 143.332 70.7109C141.935 70.9169 141.521 71.977 138.435 71.7278C135.35 71.4788 134.632 72.9896 131.818 72.6218" stroke="#85340A" stroke-width="0.4"/>
<path d="M124.965 76.0262L145.414 75.2568C145.414 75.2568 145.799 75.2571 145.799 75.0006C145.799 74.7441 145.414 74.7442 145.414 74.7442L124.965 73.9747M131.572 76.9323C134.145 78.1107 136.248 77.0987 138.495 78.2754C140.742 79.4518 142.592 78.7166 143.623 78.7953C144.653 78.8737 144.94 79.7175 145.179 79.5044C145.419 79.2909 144.944 78.41 143.575 78.0659C142.206 77.7219 141.417 78.5426 138.662 77.1318C135.907 75.7212 134.665 76.8421 132.206 75.4254" fill="#F6B40E"/>
<path d="M124.965 76.0262L145.414 75.2568C145.414 75.2568 145.799 75.2571 145.799 75.0006C145.799 74.7441 145.414 74.7442 145.414 74.7442L124.965 73.9747M131.572 76.9323C134.145 78.1107 136.248 77.0987 138.495 78.2754C140.742 79.4518 142.592 78.7166 143.623 78.7953C144.653 78.8737 144.94 79.7175 145.179 79.5044C145.419 79.2909 144.944 78.41 143.575 78.0659C142.206 77.7219 141.417 78.5426 138.662 77.1318C135.907 75.7212 134.665 76.8421 132.206 75.4254" stroke="#85340A" stroke-width="0.4"/>
<path d="M124.573 75.9482L143.76 83.0627C143.76 83.0627 144.115 83.2102 144.214 82.9733C144.312 82.7364 143.957 82.5893 143.957 82.5893L125.358 74.0529M130.33 79.3137C132.257 81.3872 134.587 81.2569 136.212 83.2037C137.838 85.1505 139.829 85.1793 140.751 85.6463C141.673 86.1132 141.615 87.0023 141.918 86.8971C142.221 86.7916 142.119 85.796 140.986 84.9542C139.853 84.1124 138.81 84.5689 136.805 82.2113C134.799 79.8539 133.223 80.4141 131.493 78.1642" fill="#F6B40E"/>
<path d="M124.573 75.9482L143.76 83.0627C143.76 83.0627 144.115 83.2102 144.214 82.9733C144.312 82.7364 143.957 82.5893 143.957 82.5893L125.358 74.0529M130.33 79.3137C132.257 81.3872 134.587 81.2569 136.212 83.2037C137.838 85.1505 139.829 85.1793 140.751 85.6463C141.673 86.1132 141.615 87.0023 141.918 86.8971C142.221 86.7916 142.119 85.796 140.986 84.9542C139.853 84.1124 138.81 84.5689 136.805 82.2113C134.799 79.8539 133.223 80.4141 131.493 78.1642" stroke="#85340A" stroke-width="0.4"/>
<path d="M124.239 75.7259L139.243 89.6412C139.243 89.6412 139.515 89.9134 139.696 89.7322C139.878 89.5509 139.606 89.2789 139.606 89.2789L125.69 74.2752M128.27 81.0385C129.257 83.6913 131.459 84.4627 132.216 86.8832C132.973 89.3038 134.801 90.0922 135.474 90.8766C136.147 91.6609 135.753 92.4599 136.073 92.4786C136.394 92.4972 136.681 91.5384 135.956 90.3271C135.231 89.1157 134.093 89.1384 133.143 86.1929C132.192 83.2476 130.521 83.1619 129.784 80.4214" fill="#F6B40E"/>
<path d="M124.239 75.7259L139.243 89.6412C139.243 89.6412 139.515 89.9134 139.696 89.7322C139.878 89.5509 139.606 89.2789 139.606 89.2789L125.69 74.2752M128.27 81.0385C129.257 83.6913 131.459 84.4627 132.216 86.8832C132.973 89.3038 134.801 90.0922 135.474 90.8766C136.147 91.6609 135.753 92.4599 136.073 92.4786C136.394 92.4972 136.681 91.5384 135.956 90.3271C135.231 89.1157 134.093 89.1384 133.143 86.1929C132.192 83.2476 130.521 83.1619 129.784 80.4214" stroke="#85340A" stroke-width="0.4"/>
<path d="M132.287 73.707C135.003 73.571 136.206 72.031 138.682 72.3334C136.724 71.6694 135.207 73.2704 132.315 73.1794M125.188 75.474L137.962 69.6279L124.795 74.5266" fill="#85340A"/>
<path d="M132.225 76.6078C134.787 77.5216 136.487 76.5591 138.659 77.7857C137.104 76.4232 135.089 77.3216 132.453 76.1312M124.99 75.5237L139.029 75.0106L124.99 74.498" fill="#85340A"/>
<path d="M131.057 79.2638C133.074 81.0883 135.013 80.8498 136.55 82.8139C135.635 80.9603 133.43 81.0193 131.45 78.9107M124.788 75.4936L137.954 80.3917L125.18 74.5458" fill="#85340A"/>
<path d="M128.962 81.2707C130.127 83.7281 132.01 84.25 132.678 86.6526C132.542 84.59 130.482 83.8007 129.46 81.0949M124.612 75.3884L134.902 84.952L125.337 74.6628" fill="#85340A"/>
<path d="M124.965 83.3334C129.567 83.3334 133.298 79.6024 133.298 75C133.298 70.3976 129.567 66.6666 124.965 66.6666C120.362 66.6666 116.631 70.3976 116.631 75C116.631 79.6024 120.362 83.3334 124.965 83.3334Z" fill="#F6B40E" stroke="#85340A" stroke-width="0.7"/>
<path d="M127.806 73.218C127.236 73.218 126.692 73.4645 126.371 73.9773C127.012 74.5541 128.428 74.6169 129.39 73.9117C128.973 73.4631 128.375 73.218 127.806 73.218ZM127.796 73.3492C128.35 73.3392 128.868 73.5936 128.94 73.8461C128.299 74.5512 127.275 74.49 126.634 73.9773C126.914 73.5286 127.365 73.3571 127.796 73.3492Z" fill="#843511"/>
<path d="M127.914 72.822C127.081 72.822 126.889 73.0145 126.504 73.335C126.119 73.6555 125.927 73.5912 125.863 73.6555C125.799 73.7197 125.863 73.9117 125.991 73.8474C126.119 73.7832 126.376 73.6555 126.76 73.3349C127.145 73.014 127.529 73.0144 127.914 73.0144C129.068 73.0144 129.709 73.9758 129.837 73.9116C129.965 73.8473 129.196 72.8218 127.914 72.8218L127.914 72.822Z" fill="#85340A"/>
<path d="M130.221 73.2059C128.746 71.9241 126.888 71.7315 125.862 72.6934C125.61 73.0296 125.45 73.3891 125.383 73.7642C125.254 74.4941 125.483 75.2828 126.055 76.091C125.99 76.0907 125.861 76.1547 125.797 76.219C125.288 75.2458 125.108 74.2462 125.275 73.2954C125.319 73.047 125.387 72.8025 125.476 72.5647C126.887 71.4111 128.809 71.2828 130.22 73.206L130.221 73.2059Z" fill="#85340A"/>
<path d="M127.786 74.4219C128.105 74.4219 128.363 74.1636 128.363 73.845C128.363 73.5263 128.105 73.2681 127.786 73.2681C127.467 73.2681 127.209 73.5263 127.209 73.845C127.209 74.1636 127.467 74.4219 127.786 74.4219Z" fill="#85340A"/>
<path d="M129.453 74.232C128.363 75.0655 127.274 75.0013 126.632 74.6166C125.991 74.232 125.991 74.104 126.119 74.104C126.247 74.104 126.375 74.232 126.888 74.4883C127.402 74.7451 128.17 74.7451 129.452 74.2321L129.453 74.232Z" fill="#85340A"/>
<path d="M123.689 76.152C123.415 76.202 123.221 76.4452 123.221 76.7238C123.221 77.0423 123.484 77.2957 123.802 77.2957C123.99 77.2957 124.163 77.2067 124.271 77.052C124.493 77.2188 124.8 77.2365 124.965 77.2395C124.99 77.2401 125.022 77.2395 125.04 77.2395C125.204 77.2365 125.511 77.2188 125.733 77.052C125.841 77.2067 126.014 77.2957 126.202 77.2957C126.52 77.2957 126.783 77.0422 126.783 76.7238C126.783 76.4451 126.589 76.202 126.315 76.152C126.468 76.2062 126.568 76.3549 126.568 76.5176C126.568 76.7298 126.396 76.902 126.183 76.902C125.979 76.902 125.811 76.7399 125.799 76.5363C125.736 76.6612 125.489 77.0329 125.002 77.052C124.515 77.0329 124.268 76.6613 124.205 76.5363C124.193 76.7399 124.025 76.902 123.821 76.902C123.608 76.902 123.436 76.7298 123.436 76.5176C123.436 76.3549 123.536 76.2063 123.689 76.152Z" fill="#85340A"/>
<path d="M124.318 77.859C123.676 77.859 123.423 78.4401 122.846 78.8247C123.166 78.6968 123.419 78.4439 123.868 78.1872C124.316 77.9308 124.699 78.2434 124.955 78.2434H124.965C125.22 78.2434 125.603 77.9309 126.052 78.1872C126.501 78.4439 126.763 78.6968 127.083 78.8247C126.506 78.4401 126.243 77.859 125.602 77.859C125.474 77.859 125.221 77.9282 124.965 78.0559H124.955C124.699 77.928 124.446 77.859 124.318 77.859Z" fill="#85340A"/>
<path d="M124.101 78.618C123.848 78.6292 123.513 78.68 123.032 78.8242C124.186 78.5679 124.441 78.9555 124.954 78.9555H124.964C125.477 78.9555 125.731 78.5679 126.885 78.8242C125.603 78.4396 125.348 78.693 124.964 78.693H124.954C124.714 78.693 124.523 78.5992 124.101 78.618Z" fill="#85340A"/>
<path d="M123.089 78.816C123.015 78.8169 122.934 78.8175 122.846 78.8253C124.192 78.9536 123.545 79.7253 124.955 79.7253H124.965C126.375 79.7253 125.737 78.9536 127.083 78.8253C125.673 78.6974 126.119 79.5285 124.965 79.5285H124.955C123.873 79.5285 124.206 78.802 123.089 78.816Z" fill="#85340A"/>
<path d="M126.119 80.898C126.119 80.2609 125.602 79.744 124.965 79.744C124.328 79.744 123.812 80.2609 123.812 80.898C123.938 80.3637 124.417 79.9862 124.965 79.9862C125.515 79.9862 125.993 80.3638 126.119 80.898Z" fill="#85340A"/>
<path d="M119.784 73.2059C121.259 71.9241 123.117 71.7315 124.143 72.6934C124.394 73.0296 124.555 73.3891 124.621 73.7642C124.75 74.4941 124.522 75.2828 123.95 76.091C124.015 76.0907 124.143 76.1547 124.207 76.219C124.716 75.2458 124.896 74.2462 124.729 73.2954C124.686 73.047 124.617 72.8025 124.529 72.5647C123.118 71.4111 121.195 71.2828 119.785 73.206L119.784 73.2059Z" fill="#85340A"/>
<path d="M122.091 72.822C122.924 72.822 123.116 73.0145 123.501 73.335C123.886 73.6555 124.078 73.5912 124.142 73.6555C124.206 73.7197 124.142 73.9117 124.014 73.8474C123.886 73.7832 123.629 73.6555 123.245 73.3349C122.86 73.014 122.476 73.0144 122.091 73.0144C120.937 73.0144 120.296 73.9758 120.168 73.9116C120.04 73.8473 120.809 72.8218 122.091 72.8218L122.091 72.822Z" fill="#85340A"/>
<path d="M122.051 73.218C121.482 73.218 120.937 73.4645 120.616 73.9773C121.257 74.5541 122.673 74.6169 123.635 73.9117C123.218 73.4631 122.62 73.218 122.051 73.218ZM122.041 73.3492C122.595 73.3392 123.113 73.5936 123.185 73.8461C122.544 74.5512 121.52 74.49 120.879 73.9773C121.159 73.5286 121.61 73.3571 122.041 73.3492Z" fill="#843511"/>
<path d="M122.127 74.4219C122.445 74.4219 122.704 74.1636 122.704 73.845C122.704 73.5263 122.445 73.2681 122.127 73.2681C121.808 73.2681 121.55 73.5263 121.55 73.845C121.55 74.1636 121.808 74.4219 122.127 74.4219Z" fill="#85340A"/>
<path d="M120.552 74.232C121.642 75.0655 122.731 75.0013 123.372 74.6166C124.013 74.232 124.013 74.104 123.885 74.104C123.757 74.104 123.629 74.232 123.116 74.4883C122.603 74.7451 121.834 74.7451 120.552 74.2321L120.552 74.232Z" fill="#85340A"/>
</g>
<defs>
<clipPath id="clip0_1284_58660">
<rect width="250" height="150" fill="white"/>
</clipPath>
</defs>
</svg>
