<svg width="250" height="150" viewBox="0 0 250 150" fill="none" xmlns="http://www.w3.org/2000/svg">
<g clip-path="url(#clip0_1284_60479)">
<rect width="250" height="150" fill="#418FE0"/>
<path d="M40.2129 27.1998L59.1721 33.0493C59.1821 33.0518 59.191 33.0576 59.1974 33.0658C59.2037 33.0739 59.2072 33.084 59.2072 33.0943C59.2072 33.1046 59.2037 33.1147 59.1974 33.1228C59.191 33.131 59.1821 33.1368 59.1721 33.1393L40.2129 38.9888C40.2056 38.991 40.1989 38.995 40.1935 39.0004C40.1881 39.0058 40.1842 39.0124 40.1819 39.0197L34.3322 57.978C34.3297 57.988 34.3239 57.9969 34.3157 58.0033C34.3076 58.0096 34.2975 58.0131 34.2872 58.0131C34.2768 58.0131 34.2668 58.0096 34.2586 58.0033C34.2505 57.9969 34.2447 57.988 34.2422 57.978L28.3924 39.0197C28.3902 39.0124 28.3862 39.0058 28.3808 39.0004C28.3754 38.995 28.3688 38.991 28.3615 38.9888L9.40228 33.1393C9.39225 33.1368 9.38335 33.131 9.377 33.1228C9.37064 33.1147 9.36719 33.1046 9.36719 33.0943C9.36719 33.084 9.37064 33.0739 9.377 33.0658C9.38335 33.0576 9.39225 33.0518 9.40228 33.0493L28.3615 27.1998C28.3688 27.1976 28.3754 27.1936 28.3808 27.1882C28.3862 27.1828 28.3902 27.1762 28.3924 27.1689L34.2422 8.21063C34.2447 8.2006 34.2505 8.1917 34.2586 8.18535C34.2668 8.17899 34.2768 8.17554 34.2872 8.17554C34.2975 8.17554 34.3076 8.17899 34.3157 8.18535C34.3239 8.1917 34.3297 8.2006 34.3322 8.21063L40.1819 27.1689C40.1842 27.1762 40.1881 27.1828 40.1935 27.1882C40.1989 27.1936 40.2056 27.1976 40.2129 27.1998ZM39.3081 28.1046C39.3015 28.1025 39.2955 28.0988 39.2906 28.094C39.2857 28.0891 39.2821 28.0831 39.2799 28.0765L34.3294 12.0254C34.327 12.016 34.3215 12.0077 34.3139 12.0018C34.3062 11.9959 34.2968 11.9927 34.2872 11.9927C34.2775 11.9927 34.2682 11.9959 34.2605 12.0018C34.2529 12.0077 34.2474 12.016 34.245 12.0254L29.2944 28.0765C29.2923 28.0831 29.2887 28.0891 29.2838 28.094C29.2789 28.0988 29.2729 28.1025 29.2663 28.1046L13.2144 33.0549C13.205 33.0573 13.1968 33.0628 13.1909 33.0704C13.185 33.0781 13.1818 33.0875 13.1818 33.0971C13.1818 33.1068 13.185 33.1162 13.1909 33.1238C13.1968 33.1314 13.205 33.1369 13.2144 33.1393L29.2663 38.0896C29.2729 38.0917 29.2789 38.0954 29.2838 38.1003C29.2887 38.1052 29.2923 38.1112 29.2944 38.1178L34.245 54.1689C34.2474 54.1782 34.2529 54.1865 34.2605 54.1924C34.2682 54.1983 34.2775 54.2015 34.2872 54.2015C34.2968 54.2015 34.3062 54.1983 34.3139 54.1924C34.3215 54.1865 34.327 54.1782 34.3294 54.1689L39.2799 38.1178C39.2821 38.1112 39.2857 38.1052 39.2906 38.1003C39.2955 38.0954 39.3015 38.0917 39.3081 38.0896L55.36 33.1393C55.3693 33.1369 55.3776 33.1314 55.3835 33.1238C55.3894 33.1162 55.3926 33.1068 55.3926 33.0971C55.3926 33.0875 55.3894 33.0781 55.3835 33.0704C55.3776 33.0628 55.3693 33.0573 55.36 33.0549L39.3081 28.1046Z" fill="white"/>
<path d="M39.3081 28.1046L55.36 33.0549C55.3693 33.0573 55.3776 33.0628 55.3835 33.0704C55.3894 33.0781 55.3926 33.0875 55.3926 33.0971C55.3926 33.1068 55.3894 33.1162 55.3835 33.1238C55.3776 33.1314 55.3693 33.1369 55.36 33.1393L39.3081 38.0896C39.3015 38.0917 39.2955 38.0954 39.2906 38.1003C39.2857 38.1052 39.2821 38.1112 39.2799 38.1178L34.3294 54.1689C34.327 54.1782 34.3215 54.1865 34.3139 54.1924C34.3062 54.1983 34.2968 54.2015 34.2872 54.2015C34.2775 54.2015 34.2682 54.1983 34.2605 54.1924C34.2529 54.1865 34.2474 54.1782 34.245 54.1689L29.2944 38.1178C29.2923 38.1112 29.2887 38.1052 29.2838 38.1003C29.2789 38.0954 29.2729 38.0917 29.2663 38.0896L13.2144 33.1393C13.205 33.1369 13.1968 33.1314 13.1909 33.1238C13.185 33.1162 13.1818 33.1068 13.1818 33.0971C13.1818 33.0875 13.185 33.0781 13.1909 33.0704C13.1968 33.0628 13.205 33.0573 13.2144 33.0549L29.2663 28.1046C29.2729 28.1025 29.2789 28.0988 29.2838 28.094C29.2887 28.0891 29.2923 28.0831 29.2944 28.0765L34.245 12.0254C34.2474 12.016 34.2529 12.0077 34.2605 12.0018C34.2682 11.9959 34.2775 11.9927 34.2872 11.9927C34.2968 11.9927 34.3062 11.9959 34.3139 12.0018C34.3215 12.0077 34.327 12.016 34.3294 12.0254L39.2799 28.0765C39.2821 28.0831 39.2857 28.0891 39.2906 28.094C39.2955 28.0988 39.3015 28.1025 39.3081 28.1046Z" fill="#CC0000"/>
<path d="M250 99.9062V108.324L0 108.349V99.9062H250Z" fill="#FFFF00"/>
<path d="M250 108.324V116.51H0V108.349L250 108.324Z" fill="#418FE0"/>
<path d="M250 116.51V124.942L0 124.953V116.51H250Z" fill="#FFFF00"/>
<path d="M250 124.942V150H0V124.953L250 124.942Z" fill="#418FE0"/>
</g>
<defs>
<clipPath id="clip0_1284_60479">
<rect width="250" height="150" fill="white"/>
</clipPath>
</defs>
</svg>
