<svg width="250" height="150" viewBox="0 0 250 150" fill="none" xmlns="http://www.w3.org/2000/svg">
<g clip-path="url(#clip0_1284_58813)">
<path d="M0 0H250V150H0V0Z" fill="#000066"/>
<path fill-rule="evenodd" clip-rule="evenodd" d="M143.573 122.656L129.918 123.844L131.793 137.406L122.387 127.5L112.981 137.406L114.856 123.844L101.2 122.656L112.981 115.688L105.388 104.281L118.199 109.125L122.387 96.0937L126.605 109.125L139.417 104.281L131.824 115.688M201.946 135.156L198.633 130.219L204.196 132.312L206.008 126.656L207.821 132.312L213.383 130.219L210.102 135.156L215.226 138.187L209.289 138.719L210.102 144.625L206.039 140.281L201.915 144.625L202.727 138.719L196.79 138.219M201.915 47L198.633 42.0625L204.196 44.1563L206.008 38.5L207.821 44.1563L213.383 42.0625L210.102 47L215.226 50.0625L209.289 50.5625L210.102 56.4687L206.039 52.1562L201.915 56.4375L202.727 50.5625L196.79 50.0625M168.885 82.8125L165.604 77.875L171.166 79.9687L172.978 74.3125L174.822 79.9687L180.384 77.875L177.072 82.8125L182.197 85.8438L176.259 86.375L177.103 92.2812L172.978 87.9375L168.916 92.2812L169.697 86.375L163.76 85.875M231.351 74L228.007 69.0625L233.569 71.1562L235.382 65.5L237.226 71.1562L242.788 69.0625L239.507 74L244.6 77.0312L238.663 77.5625L239.475 83.4375L235.413 79.125L231.288 83.4375L232.101 77.5625L226.163 77.0312M219.258 100L216.039 102.031L216.945 98.3125L214.039 95.875L217.82 95.5625L219.258 92.0625L220.726 95.5937L224.507 95.875L221.601 98.3125L222.507 102.031" fill="white"/>
<path d="M0 0H100V75H0V0Z" fill="#000066"/>
<path d="M11.7188 0L49.8438 28.2812L87.8125 0H100V9.6875L62.5 37.6562L100 65.4688V75H87.5L50 47.0312L12.6562 75H0V65.625L37.3438 37.8125L0 10V0H11.7188Z" fill="white"/>
<path d="M66.25 43.9062L100 68.75V75L57.6562 43.9062H66.25ZM37.5 47.0312L38.4375 52.5L8.4375 75H0L37.5 47.0312ZM100 0V0.46875L61.0938 29.8438L61.4062 22.9688L92.1875 0H100ZM0 0L37.3438 27.5H27.9688L0 6.5625V0Z" fill="#C8102E"/>
<path d="M37.6562 0V75H62.6562V0H37.6562ZM0 25V50H100V25H0Z" fill="white"/>
<path d="M0 30.1562V45.1562H100V30.1562H0ZM42.6562 0V75H57.6562V0H42.6562Z" fill="#C8102E"/>
</g>
<defs>
<clipPath id="clip0_1284_58813">
<rect width="250" height="150" fill="white"/>
</clipPath>
</defs>
</svg>
