<svg width="250" height="150" viewBox="0 0 250 150" fill="none" xmlns="http://www.w3.org/2000/svg">
<g clip-path="url(#clip0_1284_58957)">
<path d="M0.0390625 0H250.039V150H0.0390625V0Z" fill="#3F9C35"/>
<path d="M0.0390625 0H250.039V100H0.0390625V0Z" fill="#ED2939"/>
<path d="M0.0390625 0H250.039V50H0.0390625V0Z" fill="#00B9E4"/>
<path d="M117.5 97.5C129.926 97.5 140 87.4264 140 75C140 62.5736 129.926 52.5 117.5 52.5C105.074 52.5 95 62.5736 95 75C95 87.4264 105.074 97.5 117.5 97.5Z" fill="white"/>
<path d="M122.5 93.75C132.855 93.75 141.25 85.3553 141.25 75C141.25 64.6447 132.855 56.25 122.5 56.25C112.145 56.25 103.75 64.6447 103.75 75C103.75 85.3553 112.145 93.75 122.5 93.75Z" fill="#ED2939"/>
<path d="M142.5 62.5L144.906 69.2188L151.344 66.1562L148.281 72.625L155 75L148.281 77.4062L151.344 83.8437L144.906 80.7812L142.5 87.5L140.094 80.7812L133.656 83.8437L136.719 77.4062L130 75L136.719 72.5938L133.656 66.1562L140.094 69.2188L142.5 62.5Z" fill="white"/>
</g>
<defs>
<clipPath id="clip0_1284_58957">
<rect width="250" height="150" fill="white"/>
</clipPath>
</defs>
</svg>
