<svg width="250" height="150" viewBox="0 0 250 150" fill="none" xmlns="http://www.w3.org/2000/svg">
<g clip-path="url(#clip0_1284_60540)">
<path d="M0 0H250V150H0V0Z" fill="#00267F"/>
<path d="M83.3203 0H166.68V150H83.3203V0Z" fill="#FFC726"/>
<path d="M124.594 42.3438C122.406 48.2813 120.219 54.4062 115.469 59.125C116.937 58.625 119.531 58.1875 121.156 58.25V83.0938L114.156 84.125C113.906 84.125 113.843 83.7188 113.843 83.1875C113.156 75.4688 111.343 68.9688 109.218 62.25C109.062 61.3438 106.406 57.875 108.468 58.5C108.718 58.5 111.437 59.625 111.031 59.0938C107.105 55.1337 102.031 52.5097 96.5305 51.5938C96.0618 51.5 95.7805 51.75 96.218 52.2813C103.218 63.0938 109.125 75.875 109.062 91.0312C111.812 91.0312 118.437 89.4063 121.156 89.4063V106.938H124.656L125.438 57.9688L124.594 42.3438Z" fill="black"/>
<path d="M124.557 42.3438C126.744 48.2813 128.932 54.4062 133.682 59.125C132.213 58.625 129.619 58.1875 127.994 58.25V83.0938L134.994 84.125C135.244 84.125 135.307 83.7188 135.307 83.1875C135.994 75.4688 137.807 68.9688 139.932 62.25C140.088 61.3438 142.745 57.875 140.682 58.5C140.432 58.5 137.713 59.625 138.119 59.0938C142.046 55.1337 147.119 52.5097 152.62 51.5938C153.089 51.5 153.37 51.75 152.932 52.2813C145.932 63.0938 140.026 75.875 140.088 91.0312C137.338 91.0312 130.713 89.4063 127.994 89.4063V106.938H124.494L123.713 57.9688L124.557 42.3438Z" fill="black"/>
</g>
<defs>
<clipPath id="clip0_1284_60540">
<rect width="250" height="150" fill="white"/>
</clipPath>
</defs>
</svg>
