<svg width="250" height="150" viewBox="0 0 250 150" fill="none" xmlns="http://www.w3.org/2000/svg">
<g clip-path="url(#clip0_1284_58965)">
<mask id="mask0_1284_58965" style="mask-type:luminance" maskUnits="userSpaceOnUse" x="0" y="0" width="251" height="150">
<path d="M0 0H250.002V150H0V0Z" fill="white"/>
</mask>
<g mask="url(#mask0_1284_58965)">
<path fill-rule="evenodd" clip-rule="evenodd" d="M0 0H375.04V99.6387H0V0Z" fill="#B20000"/>
<path fill-rule="evenodd" clip-rule="evenodd" d="M0 99.6387H375.04V150H0V99.6387Z" fill="#429F00"/>
<path fill-rule="evenodd" clip-rule="evenodd" d="M0 0H41.5328V150H0V0Z" fill="white"/>
<path fill-rule="evenodd" clip-rule="evenodd" d="M1.97754 2.54883H3.95529V5.09766H1.97754V2.54883ZM7.91079 2.54883H13.844V5.09766H7.91079V2.54883ZM9.88854 0H11.8663V2.54883H9.88854V0ZM19.7773 0H21.755V2.54883H19.7773V0ZM27.6883 2.54883H33.6215V5.09766H27.6883V2.54883ZM29.666 0H31.6438V2.54883H29.666V0ZM5.93304 5.09766H9.88854V7.61719H5.93304V5.09766ZM11.8663 5.09766H15.8218V7.61719H11.8663V5.09766ZM25.7105 5.09766H29.666V7.61719H25.7105V5.09766ZM31.6438 5.09766H35.5993V7.61719H31.6438V5.09766ZM3.95529 7.61719H7.91079V10.166H3.95529V7.61719ZM13.844 7.61719H17.7995V10.166H13.844V7.61719ZM23.7328 7.61719H27.6883V10.166H23.7328V7.61719ZM33.6215 7.61719H37.577V10.166H33.6215V7.61719ZM37.577 2.54883H39.5548V5.09766H37.577V2.54883ZM1.97754 10.166H5.93304V12.7148H1.97754V10.166ZM15.8218 10.166H19.7773V12.7148H15.8218V10.166ZM35.5993 10.166H39.5548V12.7148H35.5993V10.166ZM3.95529 17.7832H7.91079V20.332H3.95529V17.7832ZM5.93304 20.332H9.88854V22.8809H5.93304V20.332ZM13.844 17.8125H17.7995V20.332H13.844V17.8125ZM11.8663 20.332H15.8218V22.8809H11.8663V20.332ZM7.91079 22.8809H13.844V25.4297H7.91079V22.8809Z" fill="#B20000"/>
<path fill-rule="evenodd" clip-rule="evenodd" d="M9.88875 25.4297H11.8665V27.9785H9.88875V25.4297ZM23.733 17.8125H27.6885V20.332H23.733V17.8125ZM25.7107 20.332H29.6663V22.8809H25.7107V20.332ZM33.6218 17.8125H37.5773V20.332H33.6218V17.8125ZM31.644 20.332H35.5995V22.8809H31.644V20.332ZM27.6885 22.8809H33.6218V25.4297H27.6885V22.8809ZM29.6663 25.4297H31.644V27.9785H29.6663V25.4297ZM19.7775 22.8516H21.7553V25.4004H19.7775V22.8516ZM0 22.8516H1.97775V25.4004H0V22.8516ZM39.555 22.8516H41.5328V25.4004H39.555V22.8516ZM9.88875 35.5664H11.8665V38.1152H9.88875V35.5664ZM7.911 38.1445H13.8442V40.6641H7.911V38.1445ZM5.93325 40.6641H15.822V43.2129H5.93325V40.6641ZM29.6663 35.5957H31.644V38.1445H29.6663V35.5957ZM27.6885 38.1445H33.6218V40.6641H27.6885V38.1445ZM25.7107 40.6641H35.5995V43.2129H25.7107V40.6641ZM27.6885 53.3789H37.5773V55.9277H27.6885V53.3789ZM23.733 43.2129H37.5773V45.7617H23.733V43.2129ZM3.9555 43.2129H17.7997V45.7617H3.9555V43.2129ZM5.93325 55.9277H11.8665V58.4766H5.93325V55.9277ZM3.9555 53.3789H13.8442V55.9277H3.9555V53.3789ZM31.644 48.3398H41.5328V50.8887H31.644V48.3398ZM29.6663 55.957H35.5995V58.5059H29.6663V55.957Z" fill="#B20000"/>
<path fill-rule="evenodd" clip-rule="evenodd" d="M7.911 58.4766H9.88875V61.0254H7.911V58.4766ZM31.644 58.4766H33.6218V61.0254H31.644V58.4766ZM0 48.3105H9.88875V50.8594H0V48.3105ZM17.7997 53.3789H23.733V55.9277H17.7997V53.3789ZM19.7775 55.957H21.7553V58.5059H19.7775V55.957ZM13.8442 48.3398H27.6885V50.8887H13.8442V48.3398ZM21.7553 10.166H25.7107V12.7148H21.7553V10.166ZM17.7997 12.7148H23.733V15.2637H17.7997V12.7148ZM15.822 15.2637H19.7775V17.7832H15.822V15.2637ZM21.7553 15.2637H25.7107V17.7832H21.7553V15.2637ZM0 12.7148H3.9555V15.2637H0V12.7148ZM1.97775 15.2637H5.93325V17.7832H1.97775V15.2637ZM37.5773 12.7148H41.5328V15.2344H37.5773V12.7148ZM35.5995 15.2344H39.555V17.7539H35.5995V15.2344ZM0 38.0859H1.97775V40.6348H0V38.0859ZM39.555 38.0859H41.5328V40.6348H39.555V38.0859ZM17.7997 58.4473H23.733V60.9961H17.7997V58.4473ZM15.822 60.9961H19.7775V63.5156H15.822V60.9961ZM21.7553 60.9961H25.7107V63.5156H21.7553V60.9961ZM13.8442 63.5156H17.7997V66.0645H13.8442V63.5156ZM23.733 63.5156H27.6885V66.0645H23.733V63.5156ZM11.8665 66.0645H15.822V68.6133H11.8665V66.0645ZM25.7107 66.0645H29.6663V68.6133H25.7107V66.0645ZM9.88875 68.6426H13.8442V71.1914H9.88875V68.6426ZM27.6885 68.6426H31.644V71.1914H27.6885V68.6426ZM5.93325 71.1914H11.8665V73.7402H5.93325V71.1914ZM29.6663 71.1914H35.5995V73.7402H29.6663V71.1914ZM33.6218 68.6426H37.5773V71.1914H33.6218V68.6426ZM35.5995 66.0938H39.555V68.6426H35.5995V66.0938ZM37.5773 63.5449H41.5328V66.0938H37.5773V63.5449ZM3.9555 68.6426H7.911V71.1914H3.9555V68.6426ZM1.97775 66.0938H5.93325V68.6426H1.97775V66.0938ZM0 63.5742H3.9555V66.123H0V63.5742ZM7.911 73.7695H9.88875V76.2891H7.911V73.7695ZM31.644 73.7695H33.6218V76.2891H31.644V73.7695ZM19.7775 66.1523H21.7553V68.6719H19.7775V66.1523ZM13.8442 73.7695H15.822V76.2891H13.8442V73.7695ZM25.7107 73.7695H27.6885V76.2891H25.7107V73.7695ZM19.7775 73.7695H21.7553V76.2891H19.7775V73.7695ZM0 73.7695H1.97775V76.2891H0L0 73.7695ZM39.555 73.7695H41.5328V76.2891H39.555V73.7695ZM19.7775 38.1445H21.7553V40.6641H19.7775V38.1445ZM9.88875 12.7148H11.8665V15.2637H9.88875V12.7148ZM29.6663 12.7148H31.644V15.2637H29.6663V12.7148ZM17.7997 30.498H23.733V33.0469H17.7997V30.498ZM13.8442 33.0469H19.7775V35.5957H13.8442V33.0469ZM15.822 35.5957H17.7997V38.1445H15.822V35.5957ZM11.8665 30.498H15.822V33.0469H11.8665V30.498ZM13.8442 27.9785H19.7775V30.498H13.8442V27.9785ZM15.822 25.4297H17.7997V27.9785H15.822V25.4297ZM21.7553 27.9785H27.6885V30.498H21.7553V27.9785ZM23.733 25.4297H25.7107V27.9785H23.733V25.4297ZM25.7107 30.498H29.6663V33.0469H25.7107V30.498ZM21.7553 33.0469H27.6885V35.5957H21.7553V33.0469ZM23.733 35.5957H25.7107V38.1445H23.733V35.5957ZM31.644 30.498H35.5995V33.0469H31.644V30.498ZM33.6218 27.9785H39.555V30.498H33.6218V27.9785ZM37.5773 30.498H41.5328V33.0469H37.5773V30.498ZM33.6218 33.0469H39.555V35.5957H33.6218V33.0469ZM35.5995 35.5957H37.5773V38.1445H35.5995V35.5957ZM35.5995 25.4297H37.5773V27.9785H35.5995V25.4297ZM0 30.4688H3.9555V33.0176H0V30.4688ZM1.97775 27.9492H7.911V30.4688H1.97775V27.9492ZM5.93325 30.4688H9.88875V33.0176H5.93325V30.4688ZM1.97775 33.0176H7.911V35.5664H1.97775V33.0176Z" fill="#B20000"/>
<path fill-rule="evenodd" clip-rule="evenodd" d="M3.9555 35.5957H5.93325V38.1445H3.9555V35.5957ZM3.9555 25.4297H5.93325V27.9785H3.9555V25.4297ZM1.97775 45.7617H9.88875V48.3105H1.97775V45.7617ZM11.8665 45.7617H19.7775V48.3105H11.8665V45.7617ZM21.7553 45.7617H29.6663V48.3105H21.7553V45.7617ZM31.644 45.7617H39.555V48.3105H31.644V45.7617ZM15.822 50.8594H25.7107V53.3789H15.822V50.8594ZM1.97775 50.8594H11.8665V53.3789H1.97775V50.8594ZM29.6663 50.8594H39.555V53.3789H29.6663V50.8594ZM39.555 61.0254H41.5328V63.5449H39.555V61.0254ZM0 61.0254H1.97775V63.5449H0V61.0254ZM1.97775 147.451H3.9555V144.932H1.97775V147.451ZM7.911 147.451H13.8442V144.932H7.911V147.451ZM9.88875 150H11.8665V147.451H9.88875V150ZM19.7775 150H21.7553V147.451H19.7775V150ZM27.6885 147.451H33.6218V144.902H27.6885V147.451ZM29.6663 150H31.644V147.451H29.6663V150ZM5.93325 144.902H9.88875V142.383H5.93325V144.902ZM11.8665 144.902H15.822V142.383H11.8665V144.902ZM25.7107 144.902H29.6663V142.383H25.7107V144.902ZM31.644 144.902H35.5995V142.383H31.644V144.902ZM13.8442 142.383H17.7997V139.834H13.8442V142.383ZM23.733 142.383H27.6885V139.834H23.733V142.383ZM33.6218 142.383H37.5773V139.834H33.6218V142.383ZM37.5773 147.451H39.555V144.902H37.5773V147.451ZM1.97775 139.834H5.93325V137.285H1.97775V139.834ZM15.822 139.834H19.7775V137.285H15.822V139.834ZM35.5995 139.834H39.555V137.285H35.5995V139.834ZM3.9555 132.217H7.911V129.668H3.9555V132.217ZM5.93325 129.668H9.88875V127.119H5.93325V129.668ZM13.8442 132.217H17.7997V129.668H13.8442V132.217ZM11.8665 129.668H15.822V127.119H11.8665V129.668ZM7.911 127.119H13.8442V124.57H7.911V127.119ZM9.88875 124.57H11.8665V122.051H9.88875V124.57ZM23.733 132.188H27.6885V129.668H23.733V132.188ZM25.7107 129.668H29.6663V127.119H25.7107V129.668ZM33.6218 132.217H37.5773V129.668H33.6218V132.217ZM31.644 129.668H35.5995V127.119H31.644V129.668ZM27.6885 127.119H33.6218V124.57H27.6885V127.119ZM29.6663 124.57H31.644V122.051H29.6663V124.57ZM19.7775 127.148H21.7553V124.6H19.7775V127.148ZM0 127.148H1.97775V124.6H0V127.148ZM39.555 127.148H41.5328V124.6H39.555V127.148ZM9.88875 114.434H11.8665V111.885H9.88875V114.434ZM7.911 111.855H13.8442V109.336H7.911V111.855ZM5.93325 109.336H15.822V106.787H5.93325V109.336ZM29.6663 114.404H31.644V111.855H29.6663V114.404Z" fill="#B20000"/>
<path fill-rule="evenodd" clip-rule="evenodd" d="M27.6885 111.855H33.6218V109.336H27.6885V111.855ZM25.7107 109.336H35.5995V106.787H25.7107V109.336ZM27.6885 96.6211H37.5773V94.043H27.6885V96.6211ZM23.733 106.787H37.5773V104.238H23.733V106.787ZM3.9555 106.787H17.7997V104.238H3.9555V106.787ZM5.93325 94.0723H11.8665V91.5234H5.93325V94.0723ZM3.9555 96.6211H13.8442V94.043H3.9555V96.6211ZM31.644 101.66H41.5328V99.1113H31.644V101.66ZM29.6663 94.043H35.5995V91.4941H29.6663V94.043ZM0 101.66H9.88875V99.1113H0V101.66ZM17.7997 96.5918H23.733V94.043H17.7997V96.5918ZM19.7775 94.043H21.7553V91.4941H19.7775V94.043ZM13.8442 101.66H27.6885V99.1113H13.8442V101.66ZM21.7553 139.805H25.7107V137.256H21.7553V139.805ZM17.7997 137.256H23.733V134.766H17.7997V137.256ZM15.822 134.707H19.7775V132.158H15.822V134.707ZM21.7553 134.707H25.7107V132.158H21.7553V134.707ZM0 137.285H3.9555V134.766H0V137.285ZM1.97775 134.736H5.93325V132.217H1.97775V134.736ZM37.5773 137.285H41.5328V134.766H37.5773V137.285ZM35.5995 134.736H39.555V132.217H35.5995V134.736ZM0 111.914H1.97775V109.365H0V111.914ZM39.555 111.914H41.5328V109.365H39.555V111.914ZM15.822 89.0039H19.7775V86.4844H15.822V89.0039ZM21.7553 89.0039H25.7107V86.4844H21.7553V89.0039ZM13.8442 86.4844H17.7997V83.9355H13.8442V86.4844ZM23.733 86.4844H27.6885V83.9355H23.733V86.4844ZM11.8665 83.9355H15.822V81.3867H11.8665V83.9355ZM25.7107 83.9355H29.6663V81.3867H25.7107V83.9355ZM9.88875 81.3574H13.8442V78.8086H9.88875V81.3574ZM27.6885 81.3574H31.644V78.8086H27.6885V81.3574ZM5.93325 78.8086H11.8665V76.2598H5.93325V78.8086ZM29.6663 78.8086H35.5995V76.2598H29.6663V78.8086ZM33.6218 81.3574H37.5773V78.8086H33.6218V81.3574ZM35.5995 83.9062H39.555V81.3574H35.5995V83.9062ZM37.5773 86.4551H41.5328V83.9062H37.5773V86.4551ZM3.9555 81.3574H7.911V78.8086H3.9555V81.3574ZM1.97775 83.9062H5.93325V81.3574H1.97775V83.9062ZM0 86.4258H3.9555V83.8769H0V86.4258ZM7.911 76.2305H9.88875V73.7109H7.911V76.2305ZM19.7775 83.8477H21.7553V81.3281H19.7775V83.8477ZM19.7775 111.826H21.7553V109.307H19.7775V111.826ZM9.88875 137.256H11.8665V134.766H9.88875V137.256ZM29.6663 137.256H31.644V134.766H29.6663V137.256ZM17.7997 119.531H23.733V116.982H17.7997V119.531ZM13.8442 116.982H19.7775V114.434H13.8442V116.982ZM15.822 114.434H17.7997V111.885H15.822V114.434ZM11.8665 119.531H15.822V116.982H11.8665V119.531ZM13.8442 122.021H19.7775V119.531H13.8442V122.021ZM15.822 124.57H17.7997V122.051H15.822V124.57ZM21.7553 122.021H27.6885V119.531H21.7553V122.021ZM23.733 124.57H25.7107V122.051H23.733V124.57ZM25.7107 119.502H29.6663V116.953H25.7107V119.502ZM21.7553 116.953H27.6885V114.404H21.7553V116.953ZM23.733 114.404H25.7107V111.855H23.733V114.404ZM31.644 119.531H35.5995V116.982H31.644V119.531ZM33.6218 122.021H39.555V119.531H33.6218V122.021ZM37.5773 119.502H41.5328V116.953H37.5773V119.502ZM33.6218 116.953H39.555V114.404H33.6218V116.953ZM35.5995 114.404H37.5773V111.855H35.5995V114.404ZM35.5995 124.57H37.5773V122.051H35.5995V124.57ZM0 119.531H3.9555V116.982H0V119.531ZM1.97775 122.021H7.911V119.531H1.97775V122.021Z" fill="#B20000"/>
<path fill-rule="evenodd" clip-rule="evenodd" d="M5.93325 119.502H9.88875V116.953H5.93325V119.502ZM1.97775 116.953H7.911V114.404H1.97775V116.953ZM3.9555 114.404H5.93325V111.855H3.9555V114.404ZM3.9555 124.57H5.93325V122.051H3.9555V124.57ZM1.97775 104.238H9.88875V101.689H1.97775V104.238ZM11.8665 104.238H19.7775V101.689H11.8665V104.238ZM21.7553 104.238H29.6663V101.689H21.7553V104.238ZM31.644 104.238H39.555V101.689H31.644V104.238ZM15.822 99.1406H25.7107V96.6211H15.822V99.1406ZM1.97775 99.1406H11.8665V96.6211H1.97775V99.1406ZM29.6663 99.1406H39.555V96.6211H29.6663V99.1406ZM39.555 89.0039H41.5328V86.4258H39.555V89.0039ZM0 89.0039H1.97775V86.4258H0V89.0039ZM17.7997 76.2598H19.7775V78.8086H17.7997V76.2598ZM21.7553 76.2598H23.733V78.8086H21.7553V76.2598ZM21.7553 71.1914H23.733V73.7402H21.7553V71.1914ZM17.7997 71.1914H19.7775V73.7402H17.7997V71.1914ZM3.9555 139.834H7.911V142.383H3.9555V139.834ZM31.644 91.5234H33.6218V88.9746H31.644V91.5234ZM7.911 91.5234H9.88875V88.9746H7.911V91.5234ZM17.7997 88.9746H23.733V91.5234H17.7997V88.9746Z" fill="#B20000"/>
</g>
</g>
<defs>
<clipPath id="clip0_1284_58965">
<rect width="250" height="150" fill="white"/>
</clipPath>
</defs>
</svg>
