<svg width="250" height="150" viewBox="0 0 250 150" fill="none" xmlns="http://www.w3.org/2000/svg">
<g clip-path="url(#clip0_1284_60564)">
<path d="M0 0H250V150H0V0Z" fill="#CF142B"/>
<path d="M205.146 40.8125V91.3125C205.146 104.781 178.21 109.187 178.21 109.187C178.21 109.187 151.211 104.812 151.211 91.25V40.8125H205.115H205.146Z" fill="white"/>
<path d="M205.146 91.3125C205.146 104.781 178.21 109.187 178.21 109.187C178.21 109.187 151.211 104.812 151.211 91.25C151.211 91.25 151.211 90.1563 151.773 89.5625C151.773 89.5625 151.461 91.7813 153.18 93.5C153.18 93.5 151.836 91.0625 153.18 88.7187C153.18 88.7187 152.648 91.7813 154.555 93.5C154.555 93.5 153.523 91.0312 154.68 88.2812C154.68 88.2812 154.117 92.75 156.148 93.6875C156.148 93.6875 156.711 91.0625 155.898 89.4375C155.898 89.4375 157.304 90 157.242 93.75C157.242 93.75 157.679 93.1875 157.804 90.4688C157.804 90.4688 157.867 93.5937 158.898 94.3125C158.898 94.3125 159.273 94 158.804 92.5937C158.304 91.2187 158.992 90.7187 159.117 90.7187C159.117 90.7187 158.867 92.2813 160.179 93.4688C160.179 93.4688 159.617 91 160.398 90.6563C160.398 90.6563 160.211 92.75 161.898 93.1875C161.898 93.1875 161.992 92.5938 161.648 91.9375C161.648 91.9375 161.335 91.1563 161.554 90.5313C161.554 90.5313 162.085 92.4063 162.804 92.7188C162.804 92.7188 162.367 91.5938 162.804 90.5313C162.804 90.5313 162.867 92.0937 164.273 92.75C164.273 92.75 163.335 91.5 163.679 90.1875L172.647 90.625L177.335 90.8438L191.303 89.9063L193.678 87.8125C193.678 87.8125 194.646 89.0937 193.115 91.1875C193.115 91.1875 194.615 90.9375 195.084 88.5938C195.084 88.5938 195.709 89.875 194.865 91.3437C194.865 91.3437 196.521 89.6562 196.74 87.8125C196.74 87.8125 197.396 89.625 195.834 91.5625C195.834 91.5625 197.209 91.0625 197.803 89.0312C197.803 89.0312 198.303 90.2812 196.959 92C196.959 92 199.49 90.7187 199.427 87.9375C199.427 87.9375 200.459 89.4375 199.271 91.5625C199.271 91.5625 200.521 90.4063 200.677 88.6563C200.677 88.6563 201.396 89.4375 200.615 91.5938C200.615 91.5938 202.177 90.0938 202.427 88.5C202.427 88.5 202.74 90 201.427 91.875C201.427 91.875 202.334 91.625 203.209 89.8125C203.209 89.8125 203.427 90.5625 202.646 91.875C202.646 91.875 203.521 91.7188 204.083 90.0313C204.083 90.0313 204.177 91.0313 203.927 91.9063C203.927 91.9063 204.583 91.5 204.74 89.625C204.745 90.1079 204.874 90.5815 205.115 91V91.25L205.146 91.3125Z" fill="#2F8F22"/>
<path d="M191.302 62.0937C191.302 62.0937 190.365 62.2812 189.115 61.9062C187.928 61.5312 187.459 61.6875 187.084 61.9062C187.084 61.9062 187.553 60.9375 186.365 60.1562C186.365 60.1562 186.74 61.1562 186.209 61.5938C186.209 61.5938 185.99 61.8125 185.709 61.5C185.709 61.5 185.303 61.0312 184.834 60.75C184.834 60.75 185.865 60.375 185.678 59.3437C185.49 58.3125 184.928 58.2187 184.647 58.0625C184.596 58.3099 184.596 58.565 184.647 58.8125C184.647 58.8125 183.553 58.1875 185.022 57.3437C186.521 56.5 186.271 55.9687 185.99 55.5312C185.702 55.0892 185.33 54.7072 184.897 54.4062C184.897 54.4062 185.209 54.9062 185.115 55.3125C185.084 55.6875 184.365 55.9375 184.49 55.2812C184.647 54.5312 184.49 54.6562 184.49 53.9375C184.49 53.9375 185.803 54.375 186.365 53.0625C186.365 53.0625 186.865 51.7187 185.178 51.0625C185.178 51.0625 185.584 51.625 185.397 52C185.397 52 185.022 52.6875 184.615 52.1875C184.209 51.6562 183.928 51.5 183.959 50.875C183.959 50.875 185.49 51.0938 185.084 49.4062C185.084 49.4062 184.803 50.5312 182.834 49.0312C182.834 49.0312 184.147 47.7187 183.615 46.6562C183.615 46.6562 183.459 46.1875 182.084 46.4375C182.084 46.4375 183.272 45.6875 182.803 45.0312C182.803 45.0312 182.522 44.625 181.365 45.1562C181.365 45.1562 181.834 44.4375 180.709 43.5937C180.709 43.5937 179.959 43.9687 179.584 44.3437C179.584 44.3437 178.834 43.4062 178.334 43C178.334 43 177.459 43.3437 177.241 44.3437C177.241 44.3437 176.834 43.875 175.897 43.5937C175.897 43.5937 175.459 44.4687 176.053 45.1562C176.053 45.1562 175.616 45.1562 174.803 44.8125C174.803 44.8125 173.928 44.4375 174.085 45.1562C174.178 45.9062 174.272 46.0937 174.46 46.4687C174.46 46.4687 172.428 46 172.522 47.0937C172.54 47.4631 172.632 47.8251 172.793 48.158C172.954 48.4909 173.181 48.7879 173.46 49.0312C173.46 49.0312 172.366 50.5312 171.397 49.4062C171.397 49.4062 171.022 49.7812 171.772 50.7187C171.772 50.7187 172.522 51.5 171.866 52.0312C171.866 52.0312 171.085 52.6562 170.71 51.4062C170.71 51.4062 169.428 52.6875 170.96 53.6562C170.96 53.6562 171.897 54.2187 172.928 53.3437C172.928 53.3437 172.616 55.8438 171.678 55.3438C171.678 55.3438 171.085 54.9687 172.116 54.4375C172.116 54.4375 170.616 54.25 170.397 55.6875C170.397 55.6875 170.21 56.7812 171.491 57.25C171.491 57.25 172.46 57.625 171.491 58.375C171.491 58.375 170.71 58.9062 171.21 59.75C171.21 59.75 171.772 60.625 170.303 60.75C170.303 60.75 169.553 60.75 169.272 60.625C169.272 60.625 168.96 61.25 169.147 61.875C169.147 61.875 168.429 61.3437 166.804 61.9375C165.179 62.5625 165.272 62.125 165.179 62.3125L164.679 63.0625C164.679 63.0625 165.554 64.1875 165.585 64.0938L165.397 65.3438L165.835 65.5312L169.21 64.0312L172.647 62.25L175.428 62.375L177.178 62.7812L179.428 62.9687L181.115 62.0937H183.49L186.115 63.4062L189.084 65.1875L190.646 65.5L191.865 65.4062V62.9687L191.302 62.0937Z" fill="#D40000" stroke="black" stroke-width="0.3" stroke-linejoin="round"/>
<path d="M164.054 64.9063C164.054 64.9063 165.367 65.5938 165.929 64.8125C165.929 64.8125 166.617 63.4375 165.054 62.9375C165.054 62.9375 165.929 61.9375 164.992 61C164.992 61 164.492 60.5 163.679 60.8438C163.679 60.8438 163.304 60.125 162.523 60.1563C162.523 60.1563 161.773 60.1563 161.586 60.9375C161.586 60.9375 160.586 60.5625 160.054 61.125C160.054 61.125 159.117 62.125 160.398 62.9375L161.304 63.0313L162.179 62.5938L163.211 62.875C163.211 62.875 162.929 63.875 164.054 64.9063Z" fill="#D40000" stroke="black" stroke-width="0.3" stroke-linejoin="round"/>
<path d="M193.24 62.5313C193.679 62.4761 194.124 62.5613 194.511 62.7747C194.899 62.988 195.208 63.3185 195.396 63.7188C196.209 65.6563 194.459 66.7188 194.459 66.7188C194.584 67.125 194.615 67.7188 194.615 67.7188C197.052 68.0313 196.615 70.7813 196.615 70.7813L195.803 70.0938C194.396 69.5313 192.896 70.7813 191.865 72.7813C190.803 74.8438 191.303 75.75 191.49 78.1875C191.678 80.5938 195.553 82.0625 195.553 82.0625L192.521 89.875C191.334 93 188.772 91.7188 188.053 91.0313C187.334 90.4063 187.147 90.7813 186.803 91.0313C186.459 91.3438 188.459 92.9063 184.772 94.4063C181.116 95.875 180.491 97 179.866 97.375C179.241 97.75 176.741 97.5313 176.491 97.1875C176.178 96.875 176.366 96.875 175.397 96.2813C174.46 95.75 172.835 95.1875 171.085 94.3438C169.335 93.5 169.398 92.4063 169.429 92.1875C169.429 91.9688 170.022 90.1563 167.96 91.5938C165.929 93.0625 164.179 90.9063 164.179 90.9063C163.804 90.375 162.054 85.7813 162.054 85.7813C161.693 84.5018 161.244 83.2488 160.71 82.0313C160.71 82.0313 160.585 82.2813 162.117 81.4063C163.617 80.5625 164.304 79.125 164.835 77.6875C165.366 76.25 164.835 73.7813 164.648 73.3125C164.46 72.8125 163.335 70.5313 161.929 70.0625C160.554 69.5625 159.585 70.8125 159.585 70.8125C159.585 70.8125 159.179 68 161.648 67.6875C161.648 67.6875 161.648 67.125 161.773 66.7188C161.773 66.7188 160.023 65.6563 160.835 63.7188C160.835 63.7188 161.398 62.375 162.96 62.5313L162.617 63.2813C162.617 63.2813 162.242 67.2188 167.991 64.5938C173.772 61.9063 173.616 61.4063 176.96 63.0938L179.335 63.0625C179.335 63.0625 182.772 61.4063 183.928 62.125C185.022 62.8438 189.022 65.0625 189.022 65.0625C189.022 65.0625 192.896 66.5313 193.678 63.8125L193.24 62.5313Z" fill="#64B4D1" stroke="black" stroke-width="0.3"/>
<path d="M175.804 79.6875C175.804 79.6875 175.616 78.4688 175.429 77.6875C175.429 77.6875 174.96 76.4688 175.741 75.5625L176.616 74.5313C176.616 74.5313 177.179 73.7813 177.866 73.6875C177.866 73.6875 178.585 73.6875 178.616 73.5313C178.71 73.375 179.491 72.125 181.303 73.5313C181.303 73.5313 181.866 72.5938 182.803 72.4063C182.803 72.4063 183.741 72.1563 184.209 72.8438C184.209 72.8438 185.303 72.0313 186.209 73.375C186.209 73.375 187.491 72.625 188.459 74.0938C188.459 74.0938 189.709 73.4688 190.459 74.75C191.24 76.0938 191.084 76.625 191.084 76.625L191.709 78.75L193.74 81.25L188.99 83.0625H186.803L182.522 84.1875L174.929 84.7813L172.835 82.2813L175.835 79.6875H175.804Z" fill="white" stroke="#00247D" stroke-width="0.3" stroke-miterlimit="10"/>
<path d="M169.398 92.3437C169.398 92.3437 168.273 92.3749 167.679 92.7187C167.117 92.9687 166.648 93.2812 165.992 93.7187C165.992 93.7187 165.679 94.1249 164.367 93.8749C164.367 93.8749 162.117 93.3437 162.117 95.1249C162.117 95.1249 159.367 95.3124 160.492 97.7187C160.492 97.7187 161.211 99.5937 162.773 98.2812C162.773 98.2812 161.773 99.6874 163.711 100.25C163.711 100.25 165.085 100.625 165.523 99.1562C165.523 99.1562 165.742 98.5937 165.21 97.9062C165.21 97.9062 165.867 97.7812 166.335 97.0624C166.335 97.0624 164.898 98.8749 166.492 99.5624C166.492 99.5624 168.46 100.031 168.554 97.9999C168.554 97.9999 168.367 96.9999 169.179 96.6562C169.179 96.6562 170.741 96.2812 171.366 94.5937C171.366 94.5937 169.179 93.3749 169.398 92.3437ZM164.804 74.3749C164.804 74.3749 163.054 73.5937 162.179 74.3749C162.179 74.3749 161.086 73.6874 159.836 74.3749C159.836 74.3749 158.679 75.1249 157.867 75.9999C157.867 75.9999 157.305 76.4687 157.492 77.9999C157.492 77.9999 157.805 79.0937 157.648 79.5937C157.648 79.5937 157.273 79.5312 156.492 80.4687C156.492 80.4687 155.523 81.5624 154.617 80.5624C154.617 80.5624 154.93 81.9999 156.523 81.7499C156.523 81.7499 155.742 82.3749 156.43 83.9374C156.43 83.9374 156.93 85.0624 156.117 86.4999C156.117 86.4999 157.523 85.9374 157.492 84.2499C157.492 84.2499 157.336 83.1249 157.805 82.3749C157.805 82.3749 157.336 83.0624 158.305 84.5937C158.305 84.5937 159.054 85.7187 158.461 86.8437C158.461 86.8437 159.836 86.3437 159.711 84.6562C159.586 82.9687 158.773 83.6562 159.273 82.0937C159.273 82.0937 159.429 82.9062 159.836 83.3437C160.147 83.6063 160.381 83.9485 160.513 84.3337C160.645 84.719 160.67 85.1328 160.586 85.5312C160.586 85.5312 161.398 84.4687 161.211 83.4062C161.157 82.9275 161.02 82.462 160.804 82.0312L163.429 80.5312L164.773 78.1874L164.804 74.3749Z" fill="#D40000" stroke="black" stroke-width="0.3" stroke-linejoin="round"/>
<path d="M160.805 81.0938C160.805 81.0938 159.711 81.0313 159.555 80.1563M157.648 79.5938C157.648 79.5938 158.023 79.5937 158.398 79.9687C158.398 79.9687 158.617 80.3437 158.992 80.2812" stroke="black" stroke-width="0.3" stroke-miterlimit="10"/>
<path d="M162.43 77.875C162.43 77.875 161.867 77.875 161.492 77.625C161.492 77.625 161.211 77.4062 161.023 77.75C161.023 77.75 160.711 78.25 161.273 78.4687C161.273 78.4687 161.961 78.8437 160.898 79.5312C160.898 79.5312 162.148 79.0312 161.648 78.4062C161.648 78.4062 161.086 78.0312 161.273 77.875C161.273 77.875 161.336 77.75 161.586 77.875C161.773 78.0625 162.211 78 162.43 77.875Z" fill="black"/>
<path d="M179.491 80.9375L180.147 80.75L175.772 65.75H175.647L179.491 80.9375Z" fill="#784421" stroke="black" stroke-width="0.2"/>
<path d="M164.991 97.5936C164.991 97.5936 163.991 96.9999 163.116 97.6874C163.116 97.6874 163.241 97.3124 163.866 97.1561C163.866 97.1561 164.241 96.1561 165.21 96.2499C165.21 96.2499 164.804 96.7499 164.272 97.1249C164.272 97.1249 164.835 97.1874 165.022 97.5936H164.991Z" fill="black"/>
<path d="M161.398 99.9374C161.398 99.9374 159.773 98.9374 160.679 97.2187C160.679 97.2187 160.929 96.7499 161.398 96.8437C161.398 96.8437 162.429 97.1562 161.648 98.5624C161.648 98.5624 161.21 99.4687 161.398 99.9687V99.9374ZM164.679 101.594C164.679 101.594 162.367 100.531 163.085 98.7187C163.085 98.7187 163.304 98.0937 163.835 98.1562C163.835 98.1562 164.71 98.2187 164.554 99.4062C164.554 99.4062 164.273 100.531 164.679 101.594Z" fill="#64B4D1" stroke="#00247D" stroke-width="0.3" stroke-miterlimit="2.6"/>
<path d="M164.21 94.875C164.21 94.875 163.491 95.4062 163.241 95.75C163.241 95.75 162.929 95.375 162.554 95.1875C162.554 95.1875 163.022 95.0937 163.241 95.2812C163.241 95.2812 163.616 94.9688 164.179 94.875H164.21Z" fill="black"/>
<path d="M166.241 101.125C166.241 101.125 168.116 100.687 167.741 98.7811C167.741 98.7811 167.554 97.9686 166.804 98.0936C166.804 98.0936 165.866 98.3436 166.491 99.5311C166.491 99.5311 166.835 100.344 166.241 101.125Z" fill="#64B4D1" stroke="#00247D" stroke-width="0.3" stroke-miterlimit="2.6"/>
<path d="M174.491 61.4687L176.272 62.0625C176.272 62.0625 177.96 62.7813 180.116 62.0625L181.741 61.4375L180.647 63.125V64.0312L181.303 65.0313C181.303 65.0313 180.897 65.2188 179.616 64.4063C179.616 64.4063 178.241 63.3438 176.616 64.4063C176.616 64.4063 175.679 65.0313 174.929 65.0313L176.022 63.8438L175.616 62.75L174.491 61.4062V61.4687Z" fill="#F5CE00" stroke="black" stroke-width="0.3" stroke-miterlimit="2.6"/>
<path d="M166.96 98.9062C166.96 98.9062 167.023 98.7812 166.96 98.75L166.804 98.8125C166.804 98.8125 166.617 99.125 166.804 99.5625C166.804 99.5625 166.96 99.8437 166.898 100.125V100.25C166.898 100.25 166.992 100.219 166.992 100.125C166.992 100.125 167.117 99.875 166.929 99.5625C166.929 99.5625 166.742 99.125 166.96 98.9062Z" fill="white"/>
<path d="M192.115 64.9063C192.115 64.9063 190.803 65.5938 190.24 64.8125C190.24 64.8125 189.584 63.4375 191.146 62.9375C191.146 62.9375 190.272 61.9375 191.178 61C191.178 61 191.678 60.5 192.49 60.8438C192.49 60.8438 192.865 60.125 193.646 60.1563C193.646 60.1563 194.396 60.1563 194.584 60.9375C194.584 60.9375 195.615 60.5625 196.146 61.125C196.146 61.125 197.021 62.125 195.771 62.9375L194.865 63.0313L193.959 62.5938L193.021 62.875C193.021 62.875 193.271 63.875 192.084 64.9063H192.115Z" fill="#D40000" stroke="black" stroke-width="0.3" stroke-linejoin="round"/>
<path d="M181.741 63.875C181.741 63.875 181.741 64.125 181.491 64.1875C181.491 64.1875 181.179 64.2812 181.022 63.9062V63.8125C181.022 63.6562 180.929 63.1875 181.46 62.7812C181.46 62.7812 182.272 62.125 183.835 62.9375C185.342 63.785 186.885 64.567 188.46 65.2812C188.46 65.2812 189.428 65.7812 190.928 65.8437C190.928 65.8437 192.959 66 193.834 64.5625C193.834 64.5625 194.491 63.4687 193.834 62.75C193.834 62.75 193.553 62.4375 193.116 62.5C192.888 62.5507 192.687 62.6844 192.553 62.875C192.553 62.875 192.241 63.3125 192.584 63.6562C192.584 63.6562 193.084 63.9687 193.272 63.3437C193.272 63.4062 193.428 63.875 193.147 64.25C193.147 64.25 191.897 66.125 188.491 64.2187L184.022 61.6875C184.022 61.6875 181.804 60.5312 180.397 62.3437C180.397 62.3437 179.335 63.8437 180.741 64.8125C180.741 64.8125 181.804 65.4375 182.429 64.4375C182.429 64.4375 182.991 63.4687 182.116 63.0625C182.116 63.0625 181.366 62.6875 181.085 63.4375C180.772 64.1875 181.647 64.375 181.71 63.8437C181.71 63.8437 181.71 63.7187 181.804 63.8437L181.741 63.875Z" fill="#F5CE00" stroke="black" stroke-width="0.3" stroke-miterlimit="2.6"/>
<path d="M163.992 71.625V68.8125C163.992 68.5625 163.992 68.4375 164.367 68.125C164.68 67.875 165.023 67.4063 165.523 68.6563C165.523 68.6563 166.523 67.5625 166.836 67.4063C166.836 67.4063 167.461 66.9375 167.867 67.625C167.867 67.625 168.367 66.8125 168.804 66.625C168.804 66.625 169.804 66 169.836 67.9375L170.617 67.1875C170.617 67.1875 171.242 66.7188 171.929 67.4063C171.929 67.4063 173.023 68.5313 173.179 68.8438C173.179 68.8438 173.429 69.1563 173.492 69.6875C173.492 69.6875 173.492 70.3125 173.804 70.625C173.804 70.625 174.148 70.9375 174.492 71C174.492 71 175.273 71.0313 175.617 71.8125C175.617 71.8125 175.71 71.6563 176.116 75.3125V82.0313L171.617 87.375L164.398 85.3125L161.523 84.0938L160.836 82.0313L163.648 80.1876L165.148 76.1251L164.68 73.2188L163.992 71.5938V71.625Z" fill="#E4CB5E" stroke="black" stroke-width="0.3" stroke-miterlimit="2.6"/>
<path d="M183.865 75.125L184.24 74.6562L185.021 74.0312C185.021 74.0312 186.271 77.2813 186.334 78V79C186.334 79 188.209 79.5 188.584 82.3438L187.021 85.2188L184.584 83.8437L183.865 83.375V75.1563V75.125Z" fill="#784421" stroke="black" stroke-width="0.2"/>
<path d="M160.961 97.625C160.961 97.625 161.023 97.5312 160.961 97.4375L160.804 97.5625C160.804 97.5625 160.336 98.0938 160.742 98.9375C160.742 98.9375 160.742 99.0625 160.836 99C160.836 99 160.929 99 160.836 98.9063C160.836 98.9063 160.492 98.1563 160.961 97.6563V97.625Z" fill="white"/>
<path d="M168.273 97.0625C168.273 97.0625 168.304 96.8125 168.148 96.5625C168.148 96.5625 168.054 96.375 168.085 96.0938M169.835 67.9375C169.835 67.9375 169.835 68.6562 170.054 69.1875C170.242 69.6875 170.96 70.5938 170.992 71.0313" stroke="black" stroke-width="0.3" stroke-miterlimit="10"/>
<path d="M186.803 92.3438C186.803 92.3438 187.928 92.375 188.521 92.7188C189.146 92.9688 189.584 93.2812 190.24 93.7187C190.24 93.7187 190.552 94.125 191.865 93.875C191.865 93.875 194.115 93.3437 194.115 95.125C194.115 95.125 196.833 95.3125 195.74 97.7188C195.74 97.7188 194.99 99.5938 193.427 98.2813C193.427 98.2813 194.427 99.6875 192.49 100.25C192.49 100.25 191.115 100.625 190.709 99.1562C190.709 99.1562 190.459 98.5937 191.021 97.9062C191.021 97.9062 190.365 97.7813 189.927 97.0625C189.927 97.0625 191.334 98.875 189.771 99.5625C189.771 99.5625 187.803 100.031 187.678 98C187.678 98 187.834 97 187.053 96.6562C187.053 96.6562 185.49 96.2813 184.803 94.5938C184.803 94.5938 187.053 93.375 186.834 92.3438H186.803Z" fill="#D40000" stroke="black" stroke-width="0.3" stroke-linejoin="round"/>
<path d="M168.929 71.0625L170.804 86M169.397 71.0312L171.46 84.9687M169.741 70.9688L172.179 84.7812" stroke="black" stroke-width="0.2" stroke-miterlimit="10"/>
<path d="M173.554 83.5937L174.241 83.375L169.866 68.375H169.71L173.554 83.5937Z" fill="#784421" stroke="black" stroke-width="0.2"/>
<path d="M171.085 70.4062L175.491 81.5M170.804 70.5625L175.054 82.125" stroke="black" stroke-width="0.2" stroke-miterlimit="10"/>
<path d="M163.867 100.5C163.867 100.5 163.336 100.031 163.429 99.1563C163.429 99.1563 163.429 98.9688 163.336 98.9376C163.336 98.9376 163.242 98.9063 163.242 99.1251C163.242 99.1251 163.086 100.031 163.711 100.531C163.711 100.531 163.742 100.625 163.836 100.594C163.836 100.594 163.898 100.594 163.836 100.5H163.867Z" fill="white"/>
<path d="M171.335 70.25L175.803 80.375M170.085 70.875L172.897 84.5312" stroke="black" stroke-width="0.2" stroke-miterlimit="10"/>
<path d="M192.74 80.9375C190.771 79.8125 190.334 77.375 190.334 77.375C190.051 75.8689 190.226 74.3127 190.834 72.9063C192.084 70.2188 194.302 69.6875 194.302 69.6875C194.302 69.6875 192.146 71.1875 191.553 73.1875C191.553 73.1875 191.115 74.9062 191.365 76.5312C191.615 78.25 191.521 77.8125 191.928 79.125L192.74 81V80.9375Z" fill="#F5CE00" stroke="black" stroke-width="0.3" stroke-miterlimit="2.6"/>
<path d="M184.209 74.5938L175.897 77.25L175.46 81C173.491 83.8438 169.46 84.3437 169.46 84.3437L172.585 87.6875L178.522 88.9375L181.709 86.5L184.584 83.875C184.272 82.4687 184.428 80.375 184.428 80.375C184.428 80 184.584 79.1875 184.584 79.1875C184.584 79.1875 184.116 75.8437 184.209 74.6562V74.5938Z" fill="#784421" stroke="black" stroke-width="0.2"/>
<path d="M175.554 80.0625C175.554 80.0625 181.053 78.3438 184.303 76.9375M172.929 83.1875C172.929 83.1875 179.803 81.9375 184.584 79.1875L186.334 78" stroke="black" stroke-width="0.2" stroke-miterlimit="10"/>
<path d="M186.334 79L184.459 80.375C184.459 80.375 176.803 83.875 170.96 84M184.428 82.875C184.428 82.875 178.553 85.9375 175.241 85.9375" stroke="black" stroke-width="0.2" stroke-miterlimit="10"/>
<path d="M191.428 74.3749C191.428 74.3749 193.178 73.5937 194.053 74.3749C194.053 74.3749 195.178 73.6874 196.428 74.3749C196.428 74.3749 197.552 75.1249 198.365 75.9999C198.365 75.9999 198.927 76.4687 198.74 77.9999C198.74 77.9999 198.427 79.0937 198.646 79.5937C198.646 79.5937 198.99 79.5312 199.74 80.4687C199.74 80.4687 200.771 81.5624 201.615 80.5624C201.615 80.5624 201.365 81.9999 199.74 81.7499C199.74 81.7499 200.49 82.3749 199.834 83.9374C199.834 83.9374 199.334 85.0624 200.146 86.4999C200.146 86.4999 198.709 85.9374 198.771 84.2499C198.771 84.2499 198.896 83.1249 198.459 82.3749C198.459 82.3749 198.896 83.0624 197.927 84.5937C197.927 84.5937 197.177 85.7187 197.802 86.8437C197.802 86.8437 196.396 86.3437 196.553 84.6562C196.646 82.9687 197.49 83.6562 196.959 82.0937C196.959 82.0937 196.834 82.9062 196.428 83.3437C196.116 83.6063 195.882 83.9485 195.75 84.3337C195.618 84.7189 195.593 85.1328 195.678 85.5312C195.678 85.5312 194.865 84.4687 195.053 83.4062C195.24 82.3124 195.428 82.0312 195.428 82.0312L192.834 80.5312L191.521 78.1874L191.428 74.3749Z" fill="#D40000" stroke="black" stroke-width="0.3" stroke-linejoin="round"/>
<path d="M161.68 83.875C161.68 83.875 161.93 82.7188 163.023 83.125C163.023 83.125 163.398 81.25 165.43 81.1875C167.461 81.125 167.554 83.1875 167.554 83.3125C167.554 83.3125 168.179 82.4375 169.148 82.5313C169.148 82.5313 170.867 82.4375 170.273 85.1875L170.586 85.5625C170.586 85.5625 171.867 82.4688 174.554 83.25C174.554 83.25 177.179 84.0625 175.492 86.5938C175.492 86.5938 176.804 88.3125 177.866 88.1563C178.991 88 179.96 87.6562 181.054 85.7188C182.179 83.7813 184.71 83.4688 185.335 83.5938C185.96 83.6875 186.491 84.1563 186.585 84.5938C186.585 84.5938 187.928 80.125 192.772 80.7813L194.709 81.8125L195.459 82.125L194.334 85.25L191.71 91.25L189.647 91.875L187.522 90.6563L186.772 91.0312V92.875L183.96 94.875L182.023 95.6563L179.898 97.1563L179.366 98.4688C179.366 98.4688 178.21 97.9375 176.866 98.4688L176.429 97.3438L175.179 96.1875L170.304 93.875L169.461 91.0625L168.554 90.6563L167.554 91.7813L166.148 91.9688L163.961 90.4688L161.648 83.9063L161.68 83.875Z" fill="white" stroke="#00247D" stroke-width="0.3" stroke-miterlimit="10"/>
<path d="M182.803 61.875C182.803 61.875 180.928 61.8125 181.022 63.75" stroke="black" stroke-width="0.3" stroke-miterlimit="2.6"/>
<path d="M194.928 82.2812C191.74 81.2812 190.865 77.8124 190.865 77.8124C190.483 76.1982 190.614 74.5049 191.24 72.9687C192.74 69.5312 195.209 69.5312 195.209 69.5312C195.527 69.4852 195.85 69.5634 196.112 69.7496C196.374 69.9358 196.554 70.2157 196.615 70.5312C196.74 71.2812 196.209 71.5624 196.209 71.5624C195.365 72.0312 194.803 71.4062 194.803 71.4062C194.428 70.9062 194.709 70.4999 194.709 70.4999C194.928 70.1874 195.334 70.3749 195.334 70.3749C195.74 70.4374 195.646 70.8749 195.646 70.8749C195.646 70.8749 195.771 70.3749 195.271 70.3124C195.271 70.3124 194.271 70.0937 193.146 71.4999C193.146 71.4999 191.678 73.4062 191.678 75.9062C191.678 75.9062 191.49 80.5312 196.271 81.7187C196.271 81.7187 195.771 82.4687 194.834 85.1874C194.834 85.1874 193.803 88.6874 192.834 90.5937C192.834 90.5937 191.49 93.2812 188.49 92.1874C188.49 92.1874 186.741 91.4062 186.741 90.1562C186.741 90.1562 186.647 88.9687 187.678 88.9062C187.678 88.9062 188.709 88.8124 188.709 89.6874C188.709 89.6874 188.709 90.6249 187.615 90.4374C187.615 90.4374 187.24 90.3437 187.272 89.9687C187.272 89.9687 187.334 89.5937 187.834 89.7812C188.303 89.9687 187.834 89.7812 187.834 89.7499C187.834 89.7499 187.647 89.6562 187.459 89.7499C187.459 89.7499 187.272 89.7499 187.272 90.0624C187.272 90.0624 187.272 90.2499 187.49 90.4062L188.022 90.4687C188.022 90.4687 188.334 91.0937 188.959 91.3124C189.333 91.4277 189.728 91.4538 190.113 91.3887C190.498 91.3236 190.863 91.169 191.178 90.9374C191.597 90.5742 191.919 90.1124 192.115 89.5937C192.746 88.2235 193.289 86.8144 193.74 85.3749C193.74 85.3749 194.303 83.5937 194.803 82.6562L194.928 82.2812Z" fill="#F5CE00" stroke="black" stroke-width="0.3" stroke-miterlimit="2.6"/>
<path d="M185.866 91.0626C185.866 91.0626 186.491 91.0001 186.491 91.5314C186.491 91.5314 186.46 92.2814 185.491 92.1251C185.491 92.1251 184.554 91.9376 184.866 90.8751C184.866 90.8751 185.116 90.1564 185.991 90.2501C185.991 90.2501 186.866 90.2501 187.241 91.4376C187.241 91.4376 187.554 92.4689 187.022 93.3126C186.46 94.2501 185.085 94.8751 184.398 95.1876C184.398 95.1876 181.679 96.2189 180.866 96.8439C180.866 96.8439 179.616 97.7501 180.179 98.5939C180.179 98.5939 180.398 98.9376 180.71 98.9376C180.71 98.9376 181.085 98.9376 181.116 98.5626C181.116 98.5626 181.116 98.7814 180.898 98.8751C180.898 98.8751 180.648 99.0001 180.366 98.7814C180.366 98.7814 180.054 98.4689 180.304 98.0314C180.304 98.0314 180.616 97.5314 181.429 97.8439C181.429 97.8439 182.054 98.1876 181.804 98.8751C181.804 98.8751 181.523 99.5314 180.741 99.5001C180.741 99.5001 180.148 99.5001 179.741 99.1251C179.117 98.4689 179.117 97.2501 179.679 96.6251C179.679 96.6251 180.148 95.9689 181.148 95.5001L183.96 94.4064C184.773 94.0626 185.491 93.6876 185.96 93.1251C185.96 93.1251 186.366 92.6876 186.522 91.8751C186.522 91.8751 186.647 91.2501 186.272 91.1251L185.897 91.0314L185.866 91.0626Z" fill="#F5CE00" stroke="black" stroke-width="0.3" stroke-miterlimit="2.6"/>
<path d="M185.928 91.0625C185.928 91.0625 186.584 90.9375 187.021 91.75C187.021 91.75 187.24 92.2188 187.271 92.5312M187.49 89.7188C187.49 89.7188 186.834 89.8125 187.178 90.7812C187.521 91.6875 188.115 91.9375 188.271 92.0938" stroke="black" stroke-width="0.3" stroke-miterlimit="2.6"/>
<path d="M174.491 63.8751C174.491 63.8751 174.491 64.1251 174.803 64.1876C174.803 64.1876 175.053 64.2501 175.209 63.9063V63.8126C175.209 63.6563 175.303 63.1876 174.834 62.7813C174.834 62.7813 173.959 62.1251 172.397 62.9376C172.397 62.9376 171.147 63.5626 170.303 64.0626C170.303 64.0626 168.085 65.2501 167.803 65.3126C167.803 65.3126 166.803 65.8126 165.304 65.8751C165.304 65.8751 163.272 66.0313 162.429 64.5938C162.429 64.5938 161.741 63.5001 162.429 62.7813C162.429 62.7813 162.679 62.4688 163.116 62.5313C163.304 62.5626 163.491 62.6563 163.679 62.9063C163.679 62.9063 163.991 63.3438 163.647 63.6876C163.647 63.6876 163.147 64.0001 162.96 63.3751C162.96 63.4376 162.866 63.8751 163.116 64.3126C163.116 64.3126 164.366 66.1563 167.741 64.2188L172.209 61.7188C172.209 61.7188 174.459 60.5626 175.834 62.3438C175.834 62.3438 176.897 63.8438 175.522 64.8438C175.522 64.8438 174.491 65.4688 173.803 64.4688C173.803 64.4688 173.303 63.5313 174.116 63.0938C174.116 63.0938 174.866 62.7188 175.209 63.4688C175.522 64.2188 174.584 64.4063 174.522 63.8751C174.522 63.8751 174.522 63.7501 174.491 63.8751ZM163.491 80.9688C165.46 79.8751 165.929 77.3751 165.929 77.3751C166.366 74.8751 165.397 72.9063 165.397 72.9063C164.147 70.2188 161.96 69.6876 161.96 69.6876C161.96 69.6876 164.085 71.1876 164.679 73.1876C164.679 73.1876 165.179 74.9063 164.866 76.5313C164.616 78.2501 164.71 77.8126 164.304 79.1251L163.491 80.9688Z" fill="#F5CE00" stroke="black" stroke-width="0.3" stroke-miterlimit="2.6"/>
<path d="M173.491 61.875C173.491 61.875 175.366 61.8125 175.241 63.75" stroke="black" stroke-width="0.3" stroke-miterlimit="2.6"/>
<path d="M161.273 82.2812C164.492 81.2812 165.336 77.8124 165.336 77.8124C165.728 76.2014 165.608 74.5082 164.992 72.9687C163.492 69.5312 161.023 69.5312 161.023 69.5312C160.705 69.4852 160.382 69.5634 160.12 69.7496C159.858 69.9358 159.678 70.2157 159.617 70.5312C159.523 71.2812 160.023 71.5624 160.023 71.5624C160.898 72.0312 161.461 71.4062 161.461 71.4062C161.805 70.9062 161.523 70.4999 161.523 70.4999C161.305 70.1874 160.898 70.3749 160.898 70.3749C160.523 70.4374 160.586 70.8749 160.586 70.8749C160.586 70.8749 160.492 70.3749 160.961 70.3124C160.961 70.3124 161.961 70.0937 163.086 71.4999C163.086 71.4999 164.586 73.4062 164.586 75.9062C164.586 75.9062 164.773 80.5312 159.961 81.7187C159.961 81.7187 160.492 82.4687 161.398 85.1874C161.398 85.1874 162.461 88.6874 163.461 90.5937C163.461 90.5937 164.773 93.2812 167.742 92.1874C167.742 92.1874 169.492 91.4062 169.492 90.1562C169.492 90.1562 169.617 88.9687 168.554 88.9062C168.554 88.9062 167.523 88.8124 167.523 89.6874C167.523 89.6874 167.523 90.6249 168.648 90.4374C168.648 90.4374 169.023 90.3437 168.96 89.9687C168.96 89.9687 168.898 89.5937 168.429 89.7812C167.929 89.9687 168.429 89.7812 168.429 89.7499C168.429 89.7499 168.586 89.6562 168.773 89.7499C168.773 89.7499 168.96 89.7499 168.96 90.0624C168.96 90.0624 168.961 90.2499 168.742 90.4062L168.273 90.4687C168.273 90.4687 167.961 91.0937 167.273 91.3124C166.906 91.4355 166.514 91.4657 166.132 91.4003C165.75 91.3348 165.391 91.1758 165.086 90.9374C164.667 90.5742 164.344 90.1124 164.148 89.5937C163.507 88.2242 162.954 86.8151 162.492 85.3749C162.492 85.3749 161.93 83.5937 161.492 82.6562L161.305 82.2812H161.273Z" fill="#F5CE00" stroke="black" stroke-width="0.3" stroke-miterlimit="2.6"/>
<path d="M170.398 91.0626C170.398 91.0626 169.773 91.0001 169.773 91.5314C169.773 91.5314 169.773 92.2814 170.773 92.1251C170.773 92.1251 171.71 91.9376 171.366 90.8751C171.366 90.8751 171.148 90.1564 170.241 90.2501C170.241 90.2501 169.398 90.2501 168.991 91.4376C168.991 91.4376 168.71 92.4689 169.241 93.3126C169.804 94.2501 171.179 94.8751 171.835 95.1876C171.835 95.1876 174.554 96.2189 175.397 96.8439C175.397 96.8439 176.616 97.7501 176.054 98.5939C176.054 98.5939 175.866 98.9376 175.522 98.9376C175.522 98.9376 175.147 98.9376 175.116 98.5626C175.116 98.5626 175.116 98.7814 175.335 98.8751C175.335 98.8751 175.616 99.0001 175.866 98.7814C175.866 98.7814 176.179 98.4689 175.929 98.0314C175.929 98.0314 175.616 97.5314 174.866 97.8439C174.866 97.8439 174.179 98.1876 174.491 98.8751C174.491 98.8751 174.71 99.5314 175.491 99.5001C175.491 99.5001 176.116 99.5001 176.491 99.1251C177.116 98.4689 177.116 97.2501 176.616 96.6251C176.616 96.6251 176.085 95.9689 175.116 95.5001C174.522 95.3126 173.397 94.8439 172.304 94.4064C171.46 94.0626 170.741 93.6876 170.273 93.1251C170.273 93.1251 169.866 92.6876 169.71 91.8751C169.71 91.8751 169.616 91.2501 169.991 91.1251L170.366 91.0314L170.398 91.0626Z" fill="#F5CE00" stroke="black" stroke-width="0.3" stroke-miterlimit="2.6"/>
<path d="M170.303 91.0625C170.303 91.0625 169.647 90.9375 169.241 91.75C169.241 91.75 169.022 92.2188 168.96 92.5313M168.741 89.7188C168.741 89.7188 169.429 89.8125 169.085 90.7813C168.71 91.6875 168.147 91.9375 167.96 92.0938M176.522 63.625C176.522 63.625 178.147 62.5938 179.772 63.7188M167.366 73.5C167.366 73.5 167.585 72.5625 166.554 71C166.554 71 165.866 69.5313 165.554 68.6563M167.866 67.625L168.585 69.6875L169.522 71.8125" stroke="black" stroke-width="0.3" stroke-miterlimit="2.6"/>
<path d="M168.116 74.4688C168.116 74.4688 168.741 75.125 168.679 76.2187M166.147 73.75C166.147 73.75 166.804 74.0625 166.741 75.875C166.741 75.875 166.71 77.125 167.679 77.8125M166.022 78.25C166.022 78.25 168.116 78.0312 168.272 79.3437C168.272 79.3437 168.272 80.5938 169.022 80.6875C169.022 80.6875 170.054 80.7812 170.272 81.8125M166.71 79.6875C166.71 79.6875 167.085 80.2188 167.46 80.5M169.397 78.3125C169.397 78.3125 169.897 79.1563 170.022 79.5938M171.678 68.6562C171.678 68.6562 172.178 69.3125 172.647 69.5938M173.616 72.5938C173.616 72.5938 174.678 73.0938 174.553 75.7188C174.553 75.7188 174.366 77.2813 174.835 78.125" stroke="black" stroke-width="0.3" stroke-miterlimit="10"/>
<path d="M168.71 70.8124L168.835 71.0624C168.835 71.0624 170.71 71.1562 171.679 69.8749L171.585 69.6249C171.585 69.6249 169.929 69.5312 168.772 70.8124H168.71Z" fill="#784421" stroke="black" stroke-width="0.2"/>
<path d="M175.46 80.7813C175.46 80.7813 181.897 78.9062 184.397 77.7812" stroke="black" stroke-width="0.2" stroke-miterlimit="10"/>
<path d="M174.772 68.9063L174.71 68.7188L177.866 67.4688L177.96 67.7188L174.772 68.9063Z" fill="#784421" stroke="black" stroke-width="0.2"/>
<path d="M175.054 68.7813L177.179 79.1875M175.429 68.6875L177.835 79M175.835 68.5L178.46 78.7813M176.897 68.125L180.491 75.8125M177.366 68L181.21 75.5625M177.679 67.8125L181.866 75.4063M177.022 79.2812L178.647 78.7813M175.804 78.2812C175.804 78.2812 180.553 76.875 184.241 75.4063M175.679 78.75C175.679 78.75 181.772 77.1875 184.178 76M177.554 83.6875L177.866 84.7188L178.741 84.4063L178.429 83.4375M179.991 83.0313L180.303 83.9688L181.178 83.6875L180.866 82.75M175.866 77.25L175.804 75.9375L183.772 73.5313L184.178 74.6562M179.179 74.9062L179.585 76.0938M181.96 74.0938L182.46 75.2187M182.616 73.875L183.116 74.9062M183.241 73.6562L183.741 74.7813M183.741 73.5313L184.616 73.0312L184.991 74M184.178 73.2812L184.616 74.3125" stroke="black" stroke-width="0.2" stroke-miterlimit="10"/>
<path d="M164.46 88.4688C164.46 88.4688 162.897 86.875 164.46 85.3438C164.46 85.3438 162.741 84.5313 163.022 83.1562M167.272 89.7188C167.272 89.7188 165.616 89.9375 166.116 86.7813C166.116 86.7813 165.428 88.0313 165.21 88.6563C165.112 88.967 165.12 89.3014 165.234 89.6069C165.347 89.9124 165.558 90.1716 165.835 90.3438C166.116 90.5313 167.553 90.9062 168.022 89.9687M165.428 84.9063C165.428 84.9063 164.772 85.5 165.241 86.5938M166.116 85.0313C166.116 85.0313 166.178 86.125 166.741 86.7187M166.585 84.625C166.585 84.625 166.585 85.875 167.491 86.6875M167.022 84.1875C167.022 84.1875 167.022 85.5937 168.085 86.5M172.303 86.2813C172.303 86.2813 172.803 85.0625 173.928 85.1562C173.928 85.1562 173.397 85.4062 173.397 85.9375C173.397 85.9375 173.334 86.875 174.303 86.9375C174.303 86.9375 175.084 87.0625 175.49 86.625" stroke="#00247D" stroke-width="0.3" stroke-miterlimit="10"/>
<path d="M174.96 91.5937C174.96 91.5937 172.179 90.2812 172.46 88.4375C172.46 88.4375 172.585 87.3125 173.71 86.75M173.085 87.9375C173.085 87.9375 172.835 88.7188 173.397 89.2812M173.741 87.4062C173.741 87.4062 173.366 88.2812 173.96 88.9062M174.429 86.9375C174.429 86.9375 173.991 87.6875 174.491 88.3438M171.866 91.7812C171.866 91.7812 173.366 93.125 174.554 93.125M171.397 92.2187C171.397 92.2187 172.804 93.3437 173.71 93.5312M170.897 92.5312C170.897 92.5312 172.616 94.0625 173.71 94.1562M177.991 95.5937C177.991 95.5937 176.272 96.5312 177.616 97.5312M176.866 94.5938L179.678 93.1562M177.585 95.0937C177.585 95.0937 180.397 93.375 181.241 93M179.053 95.25C179.053 95.25 181.459 93.625 182.772 92.9062M180.647 95.125C180.647 95.125 182.303 93.875 183.928 92.9062M184.459 91.3125C184.459 91.3125 183.647 90.0937 180.959 91.3125C180.959 91.3125 181.991 90.4062 183.928 89.6875M186.584 84.5938C186.584 84.5938 186.834 85.5625 186.584 86.1562" stroke="#00247D" stroke-width="0.3" stroke-miterlimit="10"/>
<path d="M182.272 89.2813C182.272 89.2813 182.835 88.4688 184.241 88.0313C184.241 88.0313 184.616 88.9688 185.741 88.8126C185.741 88.8126 187.366 88.4688 186.866 86.6251C186.866 86.6251 186.522 85.3126 184.616 85.1563M190.272 82.8751C190.272 82.8751 192.178 83.2501 192.147 84.7813C192.147 84.7813 192.334 87.1563 189.835 87.5938M191.897 83.8438C191.897 83.8438 192.397 82.6876 193.616 82.2188M192.178 81.5313C192.178 81.5313 192.709 82.4063 193.053 82.5001M191.928 82.1876C191.928 82.1876 192.397 82.8438 192.553 82.9688M191.741 82.8126C191.873 83 192.031 83.1682 192.209 83.3126M181.804 73.6876C181.804 73.6876 182.179 73.0626 183.147 73.3126M186.928 78.2501C186.928 78.2501 187.553 75.8126 189.585 76.6876M188.772 76.5001C188.772 76.5001 188.96 75.3751 188.46 74.7813M187.335 76.4063C187.335 76.4063 187.616 76.8751 187.366 77.2501" stroke="#00247D" stroke-width="0.3" stroke-miterlimit="10"/>
<path d="M191.553 101.562C191.553 101.562 193.865 100.531 193.146 98.7187C193.146 98.7187 192.928 98.0937 192.396 98.1562C192.396 98.1562 191.521 98.1875 191.678 99.4062C191.678 99.4062 191.99 100.594 191.521 101.594L191.553 101.562Z" fill="#64B4D1" stroke="#00247D" stroke-width="0.3" stroke-miterlimit="2.6"/>
<path d="M192.365 100.5C192.365 100.5 192.896 100.031 192.834 99.1563C192.834 99.1563 192.771 98.9688 192.834 98.9376C192.834 98.9376 192.959 98.9063 192.959 99.1251C192.959 99.1251 193.115 100.031 192.521 100.531C192.521 100.531 192.49 100.625 192.396 100.594C192.396 100.594 192.334 100.594 192.396 100.5H192.365Z" fill="white"/>
<path d="M194.833 99.9374C194.833 99.9374 196.458 98.9374 195.583 97.2187C195.583 97.2187 195.302 96.7499 194.833 96.8437C194.833 96.8437 193.834 97.1562 194.615 98.5624C194.615 98.5624 194.99 99.4687 194.833 99.9687V99.9374Z" fill="#64B4D1" stroke="#00247D" stroke-width="0.3" stroke-miterlimit="2.6"/>
<path d="M195.24 97.625C195.24 97.625 195.177 97.5312 195.24 97.4375L195.365 97.5625C195.365 97.5625 195.833 98.0938 195.458 98.9375C195.458 98.9375 195.427 99.0625 195.302 99V98.9063C195.302 98.9063 195.677 98.1563 195.24 97.6563V97.625Z" fill="white"/>
<path d="M189.927 101.125C189.927 101.125 188.115 100.687 188.458 98.7811C188.458 98.7811 188.646 97.9686 189.427 98.0936C189.427 98.0936 190.365 98.3436 189.74 99.5311C189.74 99.5311 189.396 100.344 189.958 101.125H189.927Z" fill="#64B4D1" stroke="#00247D" stroke-width="0.3" stroke-miterlimit="2.6"/>
<path d="M189.24 98.9062V98.75C189.24 98.75 189.365 98.75 189.396 98.8125C189.396 98.8125 189.584 99.125 189.427 99.5625C189.427 99.5625 189.271 99.8437 189.365 100.125C189.365 100.125 189.365 100.219 189.271 100.25L189.209 100.125C189.209 100.125 189.115 99.875 189.271 99.5625C189.271 99.5625 189.459 99.125 189.271 98.9062H189.24Z" fill="white"/>
<path d="M191.24 97.5937C191.24 97.5937 192.303 97 193.115 97.6875C193.115 97.6875 193.053 97.3125 192.365 97.1562C192.365 97.1562 192.053 96.1562 191.053 96.25C191.053 96.25 191.428 96.75 191.99 97.125C191.99 97.125 191.428 97.1875 191.24 97.5937ZM191.99 94.875C191.99 94.875 192.74 95.4062 192.99 95.75C192.99 95.75 193.271 95.375 193.615 95.1875C193.615 95.1875 193.24 95.0937 192.99 95.2812C192.99 95.2812 192.646 94.9688 192.053 94.875H191.99Z" fill="black"/>
<path d="M187.99 97.0625C187.99 97.0625 187.896 96.8125 188.084 96.5625C188.084 96.5625 188.209 96.375 188.146 96.0938M195.459 81.0938C195.459 81.0938 196.552 81.0313 196.709 80.1563M198.583 79.5938C198.583 79.5938 198.209 79.5937 197.896 79.9687C197.896 79.9687 197.615 80.3437 197.271 80.2812" stroke="black" stroke-width="0.3" stroke-miterlimit="10"/>
<path d="M193.865 77.875C193.865 77.875 194.428 77.875 194.709 77.625C194.709 77.625 195.053 77.4062 195.24 77.75C195.24 77.75 195.553 78.25 194.99 78.4687C194.99 78.4687 194.303 78.8437 195.396 79.5312C195.396 79.5312 194.084 79.0312 194.646 78.4062C194.646 78.4062 195.209 78.0312 194.959 77.875C194.959 77.875 194.896 77.75 194.678 77.875C194.459 78.0625 194.021 78 193.865 77.875Z" fill="black"/>
<path d="M194.615 64.2501C194.615 64.2501 194.865 63.8751 194.771 62.8751C194.646 61.8751 195.584 61.7188 195.896 62.0001C195.896 62.0001 196.271 62.3126 195.896 62.9688C195.637 63.536 195.182 63.9909 194.615 64.2501Z" fill="#64B4D1" stroke="#00247D" stroke-width="0.3" stroke-miterlimit="2.6"/>
<path d="M194.928 63.4375C194.928 63.4375 195.303 63.0937 195.115 62.3125L195.178 62.25H195.271C195.271 62.25 195.459 63.125 195.084 63.5625C195.084 63.5625 195.021 63.6562 194.928 63.5625V63.4375Z" fill="white"/>
<path d="M194.333 63.875C194.333 63.875 194.333 63.4375 193.615 62.75C192.865 62 193.458 61.375 193.927 61.375C193.927 61.375 194.333 61.375 194.552 62.0938C194.693 62.6946 194.616 63.3262 194.333 63.875Z" fill="#64B4D1" stroke="#00247D" stroke-width="0.3" stroke-miterlimit="2.6"/>
<path d="M194.24 62.9375C194.24 62.9375 194.24 62.4375 193.553 61.9063V61.7812H193.678C193.678 61.7812 194.396 62.3438 194.396 62.9688C194.396 62.9688 194.396 63.0625 194.303 63.0625C194.303 63.0625 194.24 63.0625 194.24 62.9375Z" fill="white"/>
<path d="M193.365 63.5312C193.365 63.5312 193.146 63.2187 192.271 62.8749C191.365 62.5624 191.584 61.7812 191.959 61.6249C191.959 61.6249 192.365 61.4687 192.771 61.9687C193.14 62.4048 193.34 62.9596 193.334 63.5312H193.365Z" fill="#64B4D1" stroke="#00247D" stroke-width="0.3" stroke-miterlimit="2.6"/>
<path d="M192.928 62.9062C192.928 62.9062 192.74 62.4687 191.928 62.25C191.928 62.25 191.865 62.25 191.865 62.1562C191.865 62.1562 191.865 62.0937 191.959 62.125C191.959 62.125 192.865 62.3125 193.115 62.875L193.084 62.9687C193.084 62.9687 192.99 62.9687 192.959 62.9062H192.928Z" fill="white"/>
<path d="M193.897 63.8749C193.897 63.8749 193.491 64.0312 192.522 63.5624C191.553 63.0937 191.147 63.9062 191.335 64.2812C191.335 64.2812 191.491 64.7812 192.21 64.6562C192.845 64.6216 193.446 64.3547 193.897 63.9062V63.8749Z" fill="#64B4D1" stroke="#00247D" stroke-width="0.3" stroke-miterlimit="2.6"/>
<path d="M191.677 64.1875C191.677 64.1875 192.115 64.5 192.896 64.1875H192.99C192.99 64.1875 192.99 64.25 192.927 64.2813C192.927 64.2813 192.115 64.6563 191.552 64.3125C191.552 64.3125 191.49 64.3125 191.552 64.2188H191.677V64.1875Z" fill="white"/>
<path d="M192.521 60.8438C192.521 60.8438 192.959 61.0937 192.896 61.625" stroke="black" stroke-width="0.3" stroke-miterlimit="2.6"/>
<path d="M194.615 60.9375C194.615 60.9375 194.803 61.5312 194.615 61.875" stroke="black" stroke-width="0.3" stroke-miterlimit="10"/>
<path d="M161.554 64.25C161.554 64.25 161.304 63.875 161.398 62.875C161.523 61.8125 160.617 61.7187 160.304 62C160.304 62 159.929 62.3125 160.242 62.9687C160.508 63.5414 160.975 63.997 161.554 64.25Z" fill="#64B4D1" stroke="#00247D" stroke-width="0.3" stroke-miterlimit="2.6"/>
<path d="M161.211 63.4375C161.211 63.4375 160.898 63.0937 161.023 62.3125V62.25H160.898C160.898 62.25 160.742 63.125 161.117 63.5625C161.117 63.5625 161.18 63.6562 161.211 63.5625V63.4375Z" fill="white"/>
<path d="M161.867 63.875C161.867 63.875 161.867 63.4375 162.617 62.75C163.336 62 162.742 61.375 162.305 61.375C162.305 61.375 161.805 61.375 161.68 62.0938C161.529 62.6909 161.595 63.3224 161.867 63.875Z" fill="#64B4D1" stroke="#00247D" stroke-width="0.3" stroke-miterlimit="2.6"/>
<path d="M161.961 62.9375C161.961 62.9375 161.961 62.4375 162.586 61.9063C162.586 61.9063 162.68 61.8125 162.586 61.7812H162.523C162.523 61.7812 161.773 62.3438 161.773 62.9688C161.773 62.9688 161.773 63.0625 161.898 63.0625C161.898 63.0625 161.961 63.0625 161.961 62.9375Z" fill="white"/>
<path d="M162.835 63.5312C162.835 63.5312 163.023 63.2187 163.929 62.8749C164.804 62.5624 164.554 61.7812 164.21 61.6249C164.21 61.6249 163.835 61.4687 163.398 61.9687C163.028 62.4048 162.828 62.9596 162.835 63.5312Z" fill="#64B4D1" stroke="#00247D" stroke-width="0.3" stroke-miterlimit="2.6"/>
<path d="M163.241 62.9062C163.241 62.9062 163.429 62.4687 164.241 62.25C164.241 62.25 164.304 62.25 164.304 62.1562C164.304 62.1562 164.304 62.0937 164.241 62.125C164.241 62.125 163.335 62.3125 163.085 62.875V62.9687C163.085 62.9687 163.21 62.9687 163.241 62.9062Z" fill="white"/>
<path d="M162.272 63.8749C162.272 63.8749 162.71 64.0312 163.647 63.5624C164.585 63.0937 165.022 63.9062 164.897 64.2812C164.897 64.2812 164.679 64.7812 163.96 64.6562C163.324 64.6216 162.724 64.3547 162.272 63.9062V63.8749Z" fill="#64B4D1" stroke="#00247D" stroke-width="0.3" stroke-miterlimit="2.6"/>
<path d="M164.491 64.1875C164.491 64.1875 164.085 64.5 163.272 64.1875H163.21V64.2813C163.21 64.2813 164.085 64.6563 164.616 64.3125C164.616 64.3125 164.679 64.3125 164.616 64.2188H164.491V64.1875Z" fill="white"/>
<path d="M163.679 60.8438C163.679 60.8438 163.211 61.0937 163.304 61.625" stroke="black" stroke-width="0.3" stroke-miterlimit="2.6"/>
<path d="M161.554 60.9375C161.554 60.9375 161.367 61.5312 161.554 61.875" stroke="black" stroke-width="0.3" stroke-miterlimit="10"/>
<path d="M182.335 55.5C182.335 55.5 182.647 56.3438 182.522 57.125C182.428 57.875 182.585 58.0313 182.835 58.1875C183.053 58.2813 183.584 58.0625 183.616 57.5C183.616 57.5 184.241 58.6875 183.053 59.4688C183.053 59.4688 182.21 60 181.491 59.3438C181.241 59.0625 181.116 58.4063 181.272 57.7813C181.272 57.7813 181.46 56.9375 181.116 56.0625C181.116 56.0625 181.616 56.5625 181.491 57.5938C181.491 57.5938 181.241 59.4688 182.616 59.3438C182.616 59.3438 183.553 59.3438 183.553 58.2188C183.553 58.2188 183.209 58.5938 182.803 58.4688C182.615 58.424 182.451 58.3078 182.346 58.1446C182.241 57.9815 182.203 57.784 182.241 57.5938C182.272 57.0938 182.428 56.25 182.335 55.5ZM180.866 58.4375C180.866 58.4375 180.741 59.9375 179.428 60.2813C179.428 60.2813 179.616 60 179.335 59.25C179.335 59.25 179.022 58.875 179.022 58.2188C179.022 58.2188 178.647 58.5313 179.116 59.4063C179.428 59.9375 179.116 60.5313 179.085 60.5625C178.96 60.5938 181.241 60.25 180.835 58.4688L180.866 58.4375ZM179.116 57.0313C179.116 57.0313 178.772 56.6563 178.741 55.8438C178.741 55 178.585 54.7813 178.46 54.7188C178.46 54.7188 178.616 55.4375 178.585 55.8438C178.558 56.1616 178.6 56.4816 178.71 56.7813C178.71 56.7813 177.96 56.875 177.491 55.8438C177.085 54.8125 176.647 54.9063 176.429 54.9063C176.429 54.9063 176.679 54.9375 177.179 55.8438C177.679 56.7813 177.835 57 179.116 57V57.0313ZM175.741 54.8438C175.741 54.8438 176.116 55.8438 176.179 56.3438C176.179 56.3438 175.21 56.0313 174.929 55.25C174.929 55.25 173.929 55.5625 174.304 56.7188C174.304 56.7188 173.397 56.4063 172.991 55.7188C172.991 55.7188 173.491 56.0938 173.96 56.25C173.96 56.25 173.897 55.2813 175.085 54.9375C175.085 54.9375 175.272 55.7813 175.897 55.9688L175.741 54.8438ZM177.304 53.1563C177.304 53.1563 177.678 53.625 178.366 53.625C178.559 53.6395 178.752 53.6039 178.927 53.5218C179.103 53.4397 179.254 53.3138 179.366 53.1563C179.366 53.1563 179.335 53.9688 178.366 54C178.366 54 177.335 54 177.335 53.1563H177.304ZM173.116 58.9375L173.741 59.5313C173.741 59.5313 174.116 59.9063 174.366 59.4375C174.366 59.4375 174.772 58.6875 175.272 58.75C175.272 58.75 174.897 58.9688 174.522 59.6875C174.522 59.6875 174.46 59.9063 174.147 59.9375C173.991 59.9375 173.835 60 173.585 59.7188C173.585 59.7188 173.366 59.4375 173.116 58.9688V58.9375ZM178.335 49.75C177.335 49.75 178.178 50.5 178.178 50.5C178.178 51.75 177.21 52.1875 176.522 51.8125C175.835 51.4375 176.397 50.5625 176.397 50.5625C176.397 50.5625 175.647 51.0313 176.085 51.7813C176.585 52.5313 177.866 52.1563 178.335 51.5C178.803 52.1875 180.116 52.5313 180.553 51.7813C181.085 51.0313 180.303 50.5313 180.303 50.5313C180.303 50.5313 180.866 51.4375 180.147 51.7813C179.491 52.1875 178.46 51.7813 178.522 50.5313C178.522 50.5313 179.366 49.75 178.366 49.75H178.335ZM178.96 48.375C178.96 48.375 179.335 49 179.272 49.9375C179.272 49.9375 179.553 49 178.96 48.4063V48.375ZM175.835 49.8438C175.835 49.8438 175.741 49.1563 175.085 49.0938C175.085 49.0938 175.679 49.5 175.835 49.8438ZM180.835 49.8438C180.835 49.8438 180.928 49.1563 181.616 49.0938C181.616 49.0938 181.053 49.5 180.866 49.8438H180.835ZM174.835 50.8438C174.835 50.8438 175.335 51 175.647 50.625L174.835 50.8438ZM173.147 46.75C173.147 46.75 173.741 46.7188 174.335 47.5938C174.335 47.5938 173.741 47.9063 173.585 48.0938C173.585 48.0938 173.585 47.7813 173.897 47.5625C173.897 47.5625 173.772 47.125 173.147 46.7813V46.75ZM183.147 46.75C183.147 46.75 182.522 46.7188 181.928 47.5938C181.928 47.5938 182.553 47.9063 182.678 48.0938C182.678 48.0938 182.678 47.7813 182.366 47.5625C182.366 47.5625 182.491 47.125 183.147 46.7813V46.75ZM178.553 47.4375C178.553 47.4375 179.085 47.5938 179.741 47.2188C179.741 47.2188 180.553 46.7813 181.085 47.2188C181.085 47.2188 180.647 47 179.741 47.4375C179.741 47.4375 178.897 47.9375 178.553 47.4375Z" fill="black"/>
<path d="M179.116 47.9999C179.116 47.9999 179.554 47.2187 180.991 47.3749C180.991 47.3749 180.585 48.4999 179.116 47.9999Z" fill="white"/>
<path d="M180.054 48.0937C180.192 48.0937 180.304 47.9398 180.304 47.75C180.304 47.5602 180.192 47.4062 180.054 47.4062C179.916 47.4062 179.804 47.5602 179.804 47.75C179.804 47.9398 179.916 48.0937 180.054 48.0937Z" fill="#784421"/>
<path d="M180.054 47.9687C180.14 47.9687 180.21 47.8708 180.21 47.75C180.21 47.6292 180.14 47.5312 180.054 47.5312C179.967 47.5312 179.897 47.6292 179.897 47.75C179.897 47.8708 179.967 47.9687 180.054 47.9687Z" fill="black"/>
<path d="M176.116 46.2812C176.116 46.2812 176.991 46.375 177.554 46.6562C177.554 46.6562 178.116 47.0312 178.741 46.5625C178.741 46.5625 179.429 46.125 179.897 45.5937C179.897 45.5937 178.804 46.3125 178.397 46.4375C178.397 46.4375 178.022 46.125 177.929 45.7187C177.929 45.7187 177.929 45.4062 178.554 44.875C178.554 44.875 177.772 45.125 177.616 45.7812C177.715 46.0462 177.864 46.2901 178.054 46.5C178.054 46.5 177.929 46.5937 177.554 46.3125C177.554 46.3125 176.679 46.0625 176.116 46.3125V46.2812ZM178.366 51.5938C177.616 52.25 178.366 52.1875 178.366 52.1875C178.366 52.1875 179.116 52.25 178.366 51.5625V51.5938ZM177.929 47.4687C177.929 47.4687 177.366 47.625 176.679 47.25C176.679 47.25 175.866 46.8125 175.335 47.25C175.335 47.25 175.804 47.0312 176.679 47.4687C176.679 47.4687 177.585 47.9687 177.929 47.4687Z" fill="black"/>
<path d="M177.366 47.9999C177.366 47.9999 176.897 47.2187 175.491 47.3749C175.491 47.3749 175.866 48.4999 177.366 47.9999Z" fill="white"/>
<path d="M176.397 48.0937C176.536 48.0937 176.647 47.9398 176.647 47.75C176.647 47.5602 176.536 47.4062 176.397 47.4062C176.259 47.4062 176.147 47.5602 176.147 47.75C176.147 47.9398 176.259 48.0937 176.397 48.0937Z" fill="#784421"/>
<path d="M176.397 47.9687C176.484 47.9687 176.554 47.8708 176.554 47.75C176.554 47.6292 176.484 47.5312 176.397 47.5312C176.311 47.5312 176.241 47.6292 176.241 47.75C176.241 47.8708 176.311 47.9687 176.397 47.9687Z" fill="black"/>
<path d="M205.24 40.8125V91.3125C205.24 104.781 178.303 109.187 178.303 109.187C178.303 109.187 151.305 104.812 151.305 91.3125V40.8125H205.271H205.24Z" stroke="black" stroke-width="0.3"/>
<path d="M0 0H100V75H0V0Z" fill="#000066"/>
<path d="M11.7188 0L49.8438 28.2812L87.8125 0H100V9.6875L62.5 37.6562L100 65.4688V75H87.5L50 47.0312L12.6562 75H0V65.625L37.3438 37.8125L0 10V0H11.7188Z" fill="white"/>
<path d="M66.25 43.9062L100 68.75V75L57.6562 43.9062H66.25ZM37.5 47.0312L38.4375 52.5L8.4375 75H0L37.5 47.0312ZM100 0V0.46875L61.0938 29.8438L61.4062 22.9688L92.1875 0H100ZM0 0L37.3438 27.5H27.9688L0 6.5625V0Z" fill="#C8102E"/>
<path d="M37.6562 0V75H62.6562V0H37.6562ZM0 25V50H100V25H0Z" fill="white"/>
<path d="M0 30.1562V45.1562H100V30.1562H0ZM42.6562 0V75H57.6562V0H42.6562Z" fill="#C8102E"/>
</g>
<defs>
<clipPath id="clip0_1284_60564">
<rect width="250" height="150" fill="white"/>
</clipPath>
</defs>
</svg>
