<svg width="250" height="150" viewBox="0 0 250 150" fill="none" xmlns="http://www.w3.org/2000/svg">
<g clip-path="url(#clip0_1284_58729)">
<path d="M0.0390625 0H250.078V150H0.0390625V0Z" fill="#FFD520"/>
<path d="M0.0390625 150H250.078V0L0.0390625 150Z" fill="#FF4E12"/>
<path d="M133.313 45.2812C132.063 44.875 131.25 45.5 131.313 47.125C131.313 48.7187 132.188 49.625 133.438 49.0312L133.313 45.2812Z" fill="white" stroke="black" stroke-width="0.4"/>
<path d="M134.407 42.2813C133.376 41.4688 132.407 41.8125 131.907 43.3438C131.438 44.9063 131.938 46.0313 133.313 45.8438L134.407 42.2813Z" fill="white" stroke="black" stroke-width="0.4"/>
<path d="M136.125 39.3437C135.25 38.4062 134.25 38.5937 133.5 40.0312C132.781 41.4687 133.094 42.6875 134.5 42.75L136.125 39.375V39.3437ZM135 53.5625C133.469 54.125 133.313 56.2187 134.281 57.5C135.219 58.7812 137 59.0312 137.969 57.5L135 53.5625Z" fill="white" stroke="black" stroke-width="0.4"/>
<path d="M133.219 49.125C131.782 48.6562 130.469 50.5937 130.25 52.3437C129.969 54.5312 126.813 55.2812 128.563 58.625C128.938 56.5 130.344 55.3125 131.469 55.25C132.594 55.1562 134.282 54.9375 135 53.5625L133.219 49.125ZM137.813 57.75C136.125 58.1562 135.875 60.4062 137.094 62C138.125 63.375 141.375 63.0625 141.282 61.6875L137.844 57.75H137.813ZM142.594 71.3125C142.688 69.8437 140.344 69.2812 139.219 69.5625C138.094 69.875 135.938 69.5312 135.469 68.3125C135.032 69.2812 135.625 70.3437 137.25 70.875C138.5 71.25 138.469 72.125 138.094 72.5625C139.032 72.7187 141.75 72.7187 142.594 71.3125Z" fill="white" stroke="black" stroke-width="0.4"/>
<path d="M141.281 62.0625C139.625 61.3125 138.656 62.4375 138.031 63.5C137.094 65.0625 134.25 63.0625 133.281 65.1562C134.594 64.5937 135.906 65.7812 136.531 66.1875C138.313 67.3437 141.719 67 142.219 64.25L141.281 62.0625Z" fill="white" stroke="black" stroke-width="0.4"/>
<path d="M142.25 63.9687C140.594 65.2187 139.938 66.7187 140 67.7187C140.032 68.7187 141.438 70.9374 142.969 71.0624C143.844 69.2499 144.313 65.4374 142.25 63.9687ZM135.375 71.7499C135.375 71.1249 136.25 70.9062 136.875 71.1249C137.469 71.3124 138.407 71.9062 138.063 72.5624L135.375 71.7499ZM126.313 68.4062C126.157 67.6874 127.313 66.4374 128.875 67.1249C130.438 67.8124 130.657 69.1249 130 69.6562L126.313 68.4062Z" fill="white" stroke="black" stroke-width="0.4"/>
<path d="M130.125 69.7812C130 69.3749 131.156 68.5624 133.063 69.0312C135 69.5312 135.469 70.7812 135.406 71.7499L130.125 69.7812ZM126.094 68.4374C127.125 67.6874 126.719 66.2499 125.813 65.7812C124.188 64.9687 124.781 62.9062 123.719 62.4999C122.688 62.0937 121.688 61.3749 121.625 60.6249C121.125 61.6562 121.438 62.5624 122.156 63.2187C122.875 63.8437 121.594 66.4687 122.531 67.1562L126.094 68.4374ZM104.531 67.8749C103.688 66.5624 101.688 66.7812 100.844 67.7187C100 68.6562 100.125 69.9999 100.906 70.6249L104.531 67.8749ZM109.375 65.9062C109.063 64.1249 106.906 63.9374 105.75 64.3749C104.563 64.8124 103.781 66.5937 104.531 67.8749L109.375 65.9062Z" fill="white"/>
<path d="M104.531 67.8749C103.688 66.5624 101.688 66.7812 100.844 67.7187C100 68.6562 100.125 69.9999 100.906 70.6249L104.531 67.8749ZM104.531 67.8749C103.781 66.5937 104.563 64.8124 105.75 64.3749C106.906 63.9374 109.063 64.1249 109.375 65.9062L104.531 67.8749ZM130.125 69.7812C130 69.3749 131.156 68.5624 133.063 69.0312C135 69.5312 135.469 70.7812 135.406 71.7499L130.125 69.7812ZM126.094 68.4374C127.125 67.6874 126.719 66.2499 125.813 65.7812C124.188 64.9687 124.781 62.9062 123.719 62.4999C122.688 62.0937 121.688 61.3749 121.625 60.6249C121.125 61.6562 121.438 62.5624 122.156 63.2187C122.875 63.8437 121.594 66.4687 122.531 67.1562L126.094 68.4374Z" stroke="black" stroke-width="0.4"/>
<path d="M112.562 65.6562C113.343 64.1874 111.843 61.9687 110.156 61.6562C108.75 61.3437 107.093 61.3749 106.531 59.9999C106.218 61.1874 107.093 61.9687 108.156 62.6562C109.187 63.3437 107.968 65.0937 109.656 66.0937L112.593 65.6562H112.562Z" fill="white" stroke="black" stroke-width="0.4"/>
<path d="M112.437 65.7187C112.062 64.6562 112.781 63.2187 114.219 63.3437C115.687 63.4375 116.5 64.4687 115.875 65.8125L112.437 65.7187Z" fill="white" stroke="black" stroke-width="0.4"/>
<path d="M115.656 65.8125C115.437 64.6875 116.343 63.375 117.781 63.6875C119.187 64 119.843 65.1563 119.031 66.3438L115.656 65.7813V65.8125Z" fill="white" stroke="black" stroke-width="0.4"/>
<path d="M118.813 66.3124C118.688 65.1874 119.656 63.9374 121.063 64.3124C122.469 64.6874 123.063 65.875 122.188 67.0312L118.844 66.3124H118.813ZM94.5626 84.7499C91.8438 84.7499 91.1876 85.3749 90.8126 88.1874C90.3126 91.6249 95.0313 92.0312 94.5626 84.7499Z" fill="white" stroke="black" stroke-width="0.4"/>
<path d="M95.75 81.125C91.625 79.5625 89.375 86.125 85.25 84.9375C86.7187 87.2812 90.2812 84.9375 91.625 85.1875C93.875 85.5938 98.75 84.75 95.75 81.125ZM93.0625 90.0937C91 89.1562 88.8125 92.2812 89.1875 93.6875C89.7187 95.4062 94.4062 94 93.0625 90.0937ZM83.5 103.625C84.625 103.938 86 104.563 85.75 106.75C85.5 108.938 81.375 113.344 77.6875 113.625C74 113.844 72.6875 118.312 69.4687 117.062C72.4687 116.5 72.4687 113.125 74.7812 112.063C73.0937 111.438 72.2187 115.281 70.0312 115.281C67.8437 115.281 66.8125 118.75 64.1562 118.5C61.5 118.281 61.25 122.719 55.9062 122.781C51.8437 122.812 46.8437 127.562 45 125.5C48.9687 124.938 50.5625 122.75 52.9062 120.344C56.6562 116.5 60.9375 118.219 62.4062 114.812C60.7194 115.951 58.7221 116.54 56.6875 116.5C54.1875 116.437 51.5 120.437 48.7187 118.687C50.3125 118.469 51.375 117.781 53.0625 116C54.7812 114.187 57.3437 115.375 59.3437 113.5C62.4687 110.625 65.1875 113.031 68.1875 109.437C67.3437 109 65.5312 109.281 63.8437 110.188C62.1562 111.063 60 109.562 58.0625 110.625C58.2812 108.25 62.8125 109.594 65.625 107.969C68.8125 106.094 71.4375 106.656 73.9375 106.875C70.4375 106.875 69.0937 103.531 64.25 104.5C62.1562 104.937 60.4687 101.594 58.375 103.281C58.4375 102.031 60.625 101.031 62.875 102.25C65.125 103.469 66.0312 101.187 70.5312 104.031C72.4062 105.187 75.5625 103.281 77.5625 104.531C77.3125 103.781 76.1562 103.281 74.8125 103.406C75.6562 101.656 81.125 101.875 83.5 103.625Z" fill="white" stroke="black" stroke-width="0.4"/>
<path d="M87.0625 101C85.3125 99.6249 82.8438 101.281 81.125 100.625C81.125 101.75 81.7188 103.437 83.5625 104.094C84.125 103.687 86.6875 101.469 87.0625 101Z" fill="white" stroke="black" stroke-width="0.4"/>
<path d="M89.8438 97.0938C87.0625 95.6875 86.5938 99.1875 84.4062 98.4688C84.5 99.4688 85.3125 100.719 87.0625 101L89.875 97.0938H89.8438Z" fill="white" stroke="black" stroke-width="0.4"/>
<path d="M91.5 93.9062C87.4062 92.3124 86.875 96.2499 84.4688 95.4687C85.0312 96.8437 88.4688 97.5937 90.25 97.0937L91.5 93.9062ZM97.125 76.6562C96.0312 75.0937 93.75 76.3437 93.375 78.1874C93.0312 79.9999 93.9062 82.5312 95.4375 81.9374L97.125 76.6249V76.6562Z" fill="white" stroke="black" stroke-width="0.4"/>
<path d="M99.9062 71.8437C98.0312 71.3749 95.8437 71.5937 96.0937 73.4062C95.3437 73.7499 95.1562 76.1249 97.125 76.6562L99.9062 71.8124V71.8437Z" fill="white" stroke="black" stroke-width="0.4"/>
<path d="M101.156 70.5937C99.2812 68.4062 97.25 68.4374 96.0937 69.3437C93.9375 71.0624 91.875 70.0937 91.8125 71.7812C93.0938 70.7812 94.25 71.9687 95.25 71.6249C96.3125 71.2499 97.0937 73.2812 100 72.4374L101.156 70.5624V70.5937ZM96.6875 103.062C96.9687 103.594 98.6875 103.812 99.5312 102.937C100.656 101.75 99.4375 98.4999 97.6562 98.2499C95.875 98.0312 95.7187 101.937 96.6875 103.062Z" fill="white" stroke="black" stroke-width="0.4"/>
<path d="M94.6875 103.125C97.1875 104.062 98.2812 101.969 96.9375 100.625C96.2445 101.508 95.4928 102.343 94.6875 103.125Z" fill="white" stroke="black" stroke-width="0.4"/>
<path d="M85.1875 106.594C84.6875 108.062 82.1875 108.281 79.375 112.781C76.5625 117.312 73.875 115.406 73.1875 118.5C76.5625 115.781 79.2188 117.562 81.25 114.875C84.2813 110.781 86.8125 111.375 88 108.625C89.6875 104.656 97.0625 104.75 97.5 98.5312C95 98.0624 87.0937 104.75 85.1875 106.594ZM148.688 45.7499C151.906 46.8124 151.969 50.9687 155.688 52.3437C159.375 53.7187 159.75 57.0312 162.781 56.2187C159.969 55.4374 160.156 52.1874 157.219 51.3749C153.781 50.4374 152.469 45.1874 149.719 44.3749M163.469 67.5937C164.031 68.9062 163.938 71.1874 161.906 71.7812C163 72.4687 164.625 71.8437 165.5 70.3437C164.188 73.2812 165.063 75.9374 167.156 76.4687C166.156 74.4062 168.406 73.4374 167.688 72.0937C169 72.6874 170.188 74.4999 170.125 75.6249C171.875 73.6874 168.875 71.0937 169.406 69.2812L163.469 67.5937ZM142.562 88.2812C140.594 86.5624 139.75 88.7499 138.812 87.9687C137.875 87.2812 136.688 87.1874 136.219 87.8749C137.906 87.9374 137.094 89.2499 140.375 89.5624C137.094 89.7812 137.688 93.4687 135.5 93.2812C137.812 95.4687 139.031 91.3124 140.938 91.9999C140.375 92.1562 141.812 93.4687 140.812 95.2499C142.438 95.2187 143.094 92.9687 143.312 91.8124L142.562 88.2812ZM99.125 107.094C98.4375 106.469 96.3125 106.187 95.5312 106.687C94.7188 107.156 95 107.312 95.9687 107.375C96.9375 107.437 98.1562 109 96.0938 109.094C95.125 109.125 95.4688 111.469 93.4375 111.625C94.25 112.625 96.625 111.969 97.4688 110.875C97.3125 111.781 98.5 112.594 98.0312 113.687C99.5 113.844 98.6562 110.656 101 110.812C100.062 110.937 100.438 113.125 102.125 112.562C101.125 113.031 101.656 114.219 102.75 113.937C102.063 114.156 101.812 115.094 102.812 115.625C103.781 114.281 102.688 109.531 99.1563 107.094H99.125ZM186.812 62.6874C187.58 62.7449 188.351 62.6434 189.078 62.3891C189.805 62.1348 190.471 61.7333 191.035 61.2097C191.599 60.6861 192.05 60.0517 192.357 59.3462C192.665 58.6406 192.824 57.8791 192.824 57.1093C192.824 56.3395 192.665 55.578 192.357 54.8725C192.05 54.1669 191.599 53.5325 191.035 53.0089C190.471 52.4853 189.805 52.0838 189.078 51.8295C188.351 51.5753 187.58 51.4737 186.812 51.5312C185.405 51.6366 184.09 52.27 183.13 53.3045C182.17 54.339 181.637 55.6981 181.637 57.1093C181.637 58.5205 182.17 59.8796 183.13 60.9141C184.09 61.9486 185.405 62.582 186.812 62.6874Z" fill="white"/>
<path d="M148.688 45.7499C151.906 46.8124 151.969 50.9687 155.688 52.3437C159.375 53.7187 159.75 57.0312 162.781 56.2187C159.969 55.4374 160.156 52.1874 157.219 51.3749C153.781 50.4374 152.469 45.1874 149.719 44.3749M85.1875 106.594C84.6875 108.062 82.1875 108.281 79.375 112.781C76.5625 117.312 73.875 115.406 73.1875 118.5C76.5625 115.781 79.2188 117.562 81.25 114.875C84.2813 110.781 86.8125 111.375 88 108.625C89.6875 104.656 97.0625 104.75 97.5 98.5312C95 98.0624 87.0937 104.75 85.1875 106.594ZM163.469 67.5937C164.031 68.9062 163.937 71.1874 161.906 71.7812C163 72.4687 164.625 71.8437 165.5 70.3437C164.187 73.2812 165.063 75.9374 167.156 76.4687C166.156 74.4062 168.406 73.4374 167.687 72.0937C169 72.6874 170.188 74.4999 170.125 75.6249C171.875 73.6874 168.875 71.0937 169.406 69.2812L163.469 67.5937ZM142.562 88.2812C140.594 86.5624 139.75 88.7499 138.812 87.9687C137.875 87.2812 136.688 87.1874 136.219 87.8749C137.906 87.9374 137.094 89.2499 140.375 89.5624C137.094 89.7812 137.687 93.4687 135.5 93.2812C137.812 95.4687 139.031 91.3124 140.937 91.9999C140.375 92.1562 141.812 93.4687 140.812 95.2499C142.437 95.2187 143.094 92.9687 143.312 91.8124L142.562 88.2812ZM99.125 107.094C98.4375 106.469 96.3125 106.187 95.5312 106.687C94.7188 107.156 95 107.312 95.9687 107.375C96.9375 107.437 98.1563 109 96.0938 109.094C95.125 109.125 95.4688 111.469 93.4375 111.625C94.25 112.625 96.625 111.969 97.4687 110.875C97.3125 111.781 98.5 112.594 98.0312 113.687C99.5 113.844 98.6562 110.656 101 110.812C100.062 110.937 100.438 113.125 102.125 112.562C101.125 113.031 101.656 114.219 102.75 113.937C102.063 114.156 101.813 115.094 102.813 115.625C103.781 114.281 102.688 109.531 99.1563 107.094H99.125ZM186.812 62.6874C187.58 62.7449 188.351 62.6434 189.078 62.3891C189.805 62.1348 190.471 61.7333 191.035 61.2097C191.599 60.6861 192.05 60.0517 192.357 59.3462C192.665 58.6406 192.824 57.8791 192.824 57.1093C192.824 56.3395 192.665 55.578 192.357 54.8725C192.05 54.1669 191.599 53.5325 191.035 53.0089C190.471 52.4853 189.805 52.0838 189.078 51.8295C188.351 51.5753 187.58 51.4737 186.812 51.5312C185.405 51.6366 184.09 52.27 183.13 53.3045C182.17 54.339 181.637 55.6981 181.637 57.1093C181.637 58.5205 182.17 59.8796 183.13 60.9141C184.09 61.9486 185.405 62.582 186.812 62.6874Z" stroke="black" stroke-width="0.4"/>
<path d="M157.688 69.4062C159.406 67.8124 161.969 66.9999 163.75 68.2187C165.5 69.4062 171.375 70.8437 174.281 68.8437C177.188 66.8437 178.562 65.7812 179.844 66.0312C180.781 67.4687 181.969 68.1562 183.406 68.2812C183.844 68.7812 185.438 69.1562 186.312 69.0624C187.594 69.3749 189.156 68.9687 190.406 67.5937C192.344 67.9062 194.156 66.4374 194.844 64.2499C196.906 64.0312 197.031 61.7499 195.719 60.1874C194.531 59.9687 195.438 55.8749 191.063 56.6874C192.938 57.8124 191.5 60.0624 193.031 61.1249C192 61.1249 190.625 61.5624 190.312 63.1249C190.719 62.0624 190.25 61.3124 190 61.0937C190 60.1562 187.969 57.8749 186.031 58.7187C187.406 59.0312 186.656 61.2187 187.656 62.0937C187.277 62.1091 186.905 62.2099 186.57 62.3884C186.235 62.5669 185.944 62.8187 185.719 63.1249C185.187 62.1874 183.344 61.2499 182.219 61.1562C182.219 60.8437 182.156 60.2187 182 59.8749C181.5 58.9062 181.062 57.7499 181.281 56.2812C180.367 57.3569 179.61 58.5562 179.031 59.8437C177.5 58.7812 173.719 60.3124 171.938 60.7187C170.188 61.1249 164.219 60.1562 162.875 58.7187C160.963 57.1899 158.713 56.1399 156.312 55.6562C152.875 54.6562 152.875 50.9062 149.094 48.3124C149 52.9999 156.094 67.8124 157.688 69.4062ZM118.25 105C119.684 105 121.059 104.43 122.073 103.416C123.087 102.403 123.656 101.028 123.656 99.5937C123.656 98.1599 123.087 96.7848 122.073 95.7709C121.059 94.757 119.684 94.1874 118.25 94.1874C116.816 94.1874 115.441 94.757 114.427 95.7709C113.413 96.7848 112.844 98.1599 112.844 99.5937C112.844 101.028 113.413 102.403 114.427 103.416C115.441 104.43 116.816 105 118.25 105Z" fill="white" stroke="black" stroke-width="0.4"/>
<path d="M105.375 100.844C106.469 102.25 108.312 102.156 109.094 102.062C109.719 103.75 111.781 103.687 112.656 104.625C113.562 105.562 116.563 105.469 117.438 104.937C116.656 104.875 115.594 104.375 114.625 103.531C113.375 102.531 113.938 100.469 113 99.7812C113.295 99.4056 113.509 98.9726 113.627 98.5099C113.745 98.0472 113.766 97.5649 113.688 97.0937C114.438 96.6562 115 95.9375 115.063 95.5625C116.184 95.5084 117.248 95.0537 118.063 94.2812C118.75 94.9062 120.469 94.0937 121.406 95.1562C121.594 92.5 119.062 91.0937 117.344 92C116.687 91.625 114.875 91.875 114.531 92.3437C114 92.0937 112.406 92.9062 111.719 93.4375C112.5 93 112.625 91.6562 112.313 91.1875C113 90.875 113.75 89.9687 113.844 89.3125C114.781 89.4687 116.25 88.8125 116.875 88.9687C115.844 87.5937 114.125 87.0937 112.344 87.25C110.5 87.3437 109.719 88.625 109.469 90C108.406 90.6562 108.031 92.8125 108.437 93.5937C107.812 93.5937 107.219 94.1875 107 94.5312C106.067 94.1469 105.071 93.9352 104.063 93.9062M104.469 91.7187C104.094 90.6562 104.563 89.7187 104.813 88.9062C105.438 86.7812 105.062 86.2187 103.156 86.5C103.269 88.3055 103.714 90.0748 104.469 91.7187Z" fill="white"/>
<path d="M105.375 100.844C106.469 102.25 108.312 102.156 109.094 102.062C109.719 103.75 111.781 103.687 112.656 104.625C113.562 105.562 116.563 105.469 117.438 104.937C116.656 104.875 115.594 104.375 114.625 103.531C113.375 102.531 113.938 100.469 113 99.7812C113.295 99.4056 113.509 98.9726 113.627 98.5099C113.745 98.0472 113.766 97.5649 113.688 97.0937C114.438 96.6562 115 95.9375 115.063 95.5625C116.184 95.5084 117.248 95.0537 118.063 94.2812C118.75 94.9062 120.469 94.0937 121.406 95.1562C121.594 92.5 119.062 91.0937 117.344 92C116.687 91.625 114.875 91.875 114.531 92.3437C114 92.0937 112.406 92.9062 111.719 93.4375C112.5 93 112.625 91.6562 112.313 91.1875C113 90.875 113.75 89.9687 113.844 89.3125C114.781 89.4687 116.25 88.8125 116.875 88.9687C115.844 87.5937 114.125 87.0937 112.344 87.25C110.5 87.3437 109.719 88.625 109.469 90C108.406 90.6562 108.031 92.8125 108.437 93.5937C107.812 93.5937 107.219 94.1875 107 94.5312C106.067 94.1469 105.071 93.9352 104.063 93.9062M104.469 91.7187C104.094 90.6562 104.563 89.7187 104.813 88.9062C105.438 86.7812 105.062 86.2187 103.156 86.5C103.269 88.3055 103.714 90.0748 104.469 91.7187Z" stroke="black" stroke-width="0.4"/>
<path d="M103.062 86.625C103.562 87.125 105.25 87.3438 105.438 85.8125C105.656 84.0625 104.937 83.375 103.406 84.0625C103.281 84.4688 103.156 86.0938 103.094 86.625H103.062Z" fill="white" stroke="black" stroke-width="0.4"/>
<path d="M103.438 84C104.063 84.25 105.469 84.7812 106.25 83.2812C106.875 82.0312 106.031 81.0937 104.688 81.1562C104.375 81.5312 103.75 82.8125 103.438 84Z" fill="white" stroke="black" stroke-width="0.4"/>
<path d="M104.625 81.0312C104.781 81.5312 106.438 83.1249 107.625 81.9687C108.844 80.8124 108.844 79.0624 107.031 78.4374C106.562 78.4999 105.094 80.1874 104.625 81.0312Z" fill="white" stroke="black" stroke-width="0.4"/>
<path d="M107.031 78.4062C107.375 79.4374 108.531 81.1562 110.625 80.3749C112.719 79.5624 111.813 76.9374 110.844 76.4062C109.444 76.8065 108.144 77.4988 107.031 78.4374V78.4062Z" fill="white" stroke="black" stroke-width="0.4"/>
<path d="M110.844 76.4062C110.688 77.3124 110.844 79.7187 113.719 79.6874C116.563 79.6249 115.781 76.2812 115.031 75.8124C113.875 75.8124 111.906 75.8437 110.844 76.4374V76.4062Z" fill="white" stroke="black" stroke-width="0.4"/>
<path d="M115.156 75.9062C114.843 76.6249 114.125 81.1249 119.718 79.8749C120.437 79.7187 122.312 75.5624 115.156 75.9374V75.9062Z" fill="white" stroke="black" stroke-width="0.4"/>
<path d="M118.218 76.3437C117.656 76.9062 119.093 81.4374 122.906 80.6874C126.656 79.9062 123.499 75.5937 118.218 76.3124V76.3437Z" fill="white" stroke="black" stroke-width="0.4"/>
<path d="M121.437 77.0312C120.812 78.2812 121.749 81.9687 126.405 81.9687C130.624 81.9687 126.187 77.0937 121.437 77.0312Z" fill="white" stroke="black" stroke-width="0.4"/>
<path d="M125.094 78.0938C124.781 78.8125 124.437 82.7188 129.937 83.0625C133.906 83.3125 132.937 77.6563 125.094 78.0938Z" fill="white" stroke="black" stroke-width="0.4"/>
<path d="M131 79.7499C130.344 80.9687 129.625 83.9687 135.656 84.2187C139.5 84.3749 137.125 79.8437 131.031 79.7499H131Z" fill="white" stroke="black" stroke-width="0.4"/>
<path d="M136.032 80.6874C135.157 81.8749 135.813 84.2499 138.063 84.6874C140.876 85.2499 141.282 82.5937 139.344 81.3124C137.407 80.0624 136.032 80.6874 136.032 80.6874Z" fill="white" stroke="black" stroke-width="0.4"/>
<path d="M138.812 81.2187C138.156 82.3749 138.531 85.0937 142.812 85.0937C143.687 85.0937 147.062 81.6562 138.781 81.2499L138.812 81.2187ZM105.719 133.719C107.376 133.719 108.966 133.06 110.138 131.888C111.31 130.716 111.969 129.126 111.969 127.469C111.969 125.811 111.31 124.221 110.138 123.049C108.966 121.877 107.376 121.219 105.719 121.219C104.061 121.219 102.471 121.877 101.299 123.049C100.127 124.221 99.4688 125.811 99.4688 127.469C99.4688 129.126 100.127 130.716 101.299 131.888C102.471 133.06 104.061 133.719 105.719 133.719Z" fill="white" stroke="black" stroke-width="0.4"/>
<path d="M151.656 42.6875C150.982 43.4394 150.414 44.2807 149.969 45.1875C147.875 51.4375 153.469 56.125 156.719 62.9063C158.056 65.9578 158.597 69.2988 158.291 72.6164C157.985 75.934 156.842 79.1196 154.969 81.875C153.594 83.6875 154 84.2188 152.219 86.0625C151.531 86.7813 150.781 87.6875 151.031 90.25C152.156 89.8438 153.75 90.875 154.063 91.8125C154.875 91.375 156 91.5313 156.406 92.0313C157.781 91.4063 158.906 91.7188 160.125 92.9688C161.156 92.8438 162.313 92.9688 163.344 94.125C163.906 93 165.031 92.5625 165.844 92.8438C165.75 91.375 167.188 90.3438 168.469 90.9063C168.369 90.4937 168.381 90.0618 168.504 89.6556C168.628 89.2494 168.858 88.8836 169.17 88.5965C169.483 88.3093 169.867 88.1112 170.282 88.0228C170.697 87.9344 171.129 87.9589 171.531 88.0938C173 86.9688 175.906 86.875 177.344 88.5625C174.75 87.8438 174.844 90.5938 172.656 90.3438C173.219 91.9375 171.781 92.875 170.344 93.4063C171.281 92.9688 172.281 92.4375 172.594 93C173.406 92.2813 175 92.5625 175.406 92.9063C176.469 92.5938 177.5 92.8438 177.969 94.125C179.438 95 180.406 97.25 179.344 98.9375C179.031 97.1875 177.813 97.25 177.344 96.5313C176.219 96.9375 175.094 96.9375 174.75 96.2188C174.125 96.8438 171.938 97.4375 171 96.4688C170.625 97.9063 169.375 99.125 167.906 99.125C168.313 100.25 167.188 102.156 166.313 103.125C167.688 103.844 167.25 105.469 166.938 106.438C169.063 106.75 167.25 108.625 170.906 109.813C169.125 110.375 165.656 109.813 165.188 107.625C163.406 107.563 162.219 105.781 162.281 103.938C160.906 102.656 160.719 100.813 162.594 99.5C161 100 160.094 97.4063 157.781 98.4688C156.625 99 153.563 98.0938 153.594 97.0313C153.125 97.8125 150.156 97.5 149.781 96.125C148.813 96.6563 146.563 95.7813 146.594 94.4375C145.344 95 143.656 94 143.75 92.7188C142.563 92.5625 142.438 91.5 142.5 90.625C141.469 90.125 141.75 89.125 142.188 87.9375C141.438 87.125 141.75 86 142.313 84.9375C141.531 84.125 141.688 83.1875 141.906 82.0313C138.063 81.7188 133.219 80.7813 122.125 77.375C105.375 72.2188 100.875 84.3125 104.563 91.875C108.844 100.625 104.094 102.5 105.531 109C107.094 109.313 107.875 110.625 107.781 112C108.719 112.031 109.344 112.875 109.031 114.5C109.456 114.43 109.891 114.459 110.302 114.583C110.714 114.708 111.092 114.925 111.406 115.219C111.969 114.156 113.844 113.906 114.781 115.125C116.875 114.969 117.938 116.688 117.844 118.75C118.348 119.696 118.572 120.766 118.489 121.834C118.406 122.903 118.02 123.925 117.375 124.781C117.5 123.938 117.375 122.75 117.344 122C117.25 120.688 115.406 120.406 115.594 119.313C114.656 119.406 113.719 118.875 113.406 118.156C113.127 118.397 112.79 118.561 112.429 118.632C112.067 118.704 111.693 118.679 111.344 118.563C112.406 119.031 113.281 120.969 112.938 122.25C113.5 123.219 113.375 125 112.719 125.75C112.406 127.313 111.156 127.875 109.594 127.188C110.5 126.625 110.813 125.625 110.781 124.781C110.254 124.254 109.933 123.556 109.875 122.813C108.313 123.063 106.125 121.719 105.75 121.188C104.927 121.188 104.111 121.35 103.351 121.666C102.591 121.982 101.9 122.445 101.32 123.029C100.739 123.613 100.279 124.306 99.9668 125.067C99.6545 125.829 99.4959 126.645 99.5 127.469C99.3125 126.188 97.6875 124.906 97.9063 123.813C96.9375 120.844 98.3125 118.063 102.25 117.5C101.75 116.375 103.438 115.219 102.813 113.938C101.558 111.655 100.014 109.544 98.2188 107.656C99.5938 105.313 99.1563 102.188 98.375 100.25C97.2188 97.4688 96.125 98.1563 92.0313 102.656C85.3438 110 76.4063 107.969 68.5313 112.813C66.4375 114.063 64.3438 114.563 66.5938 112.313C68.8438 110.063 74.7813 107.813 78.6563 105.875C85.9063 102.25 92.0313 96.2188 94.4375 84.4688C100.094 56.8438 121 65.9688 134.188 71.0938C146.594 75.9375 144.344 65 138.063 58.375C130.5 50.4688 132.031 44.2188 135.563 39.2188C141.906 38.3438 154.125 40.5625 151.656 42.6875Z" fill="white" stroke="black" stroke-width="0.4"/>
<path d="M174.094 110.531C174.999 110.531 175.895 110.353 176.731 110.007C177.567 109.66 178.326 109.153 178.966 108.513C179.606 107.873 180.114 107.113 180.46 106.277C180.806 105.441 180.984 104.545 180.984 103.641C180.984 102.736 180.806 101.84 180.46 101.004C180.114 100.168 179.606 99.408 178.966 98.7682C178.326 98.1283 177.567 97.6207 176.731 97.2745C175.895 96.9282 174.999 96.7499 174.094 96.7499C172.27 96.7499 170.522 97.4743 169.232 98.7636C167.943 100.053 167.219 101.802 167.219 103.625C167.219 105.448 167.943 107.197 169.232 108.486C170.522 109.776 172.27 110.5 174.094 110.5V110.531Z" fill="white" stroke="black" stroke-width="0.4"/>
<path d="M147.813 43C146.251 49.7813 147.563 52.8438 149.813 55.8125C154.469 61.9688 158.188 76 152.876 85.1875" stroke="black" stroke-width="0.4"/>
<path d="M155.844 77.25C156.469 77.0313 157.719 76.25 157.969 74.9375M156.344 74.3125C156.531 73.1562 158.344 72.6563 158.375 71.4063M156.375 69.7812C156.25 68.5625 158.188 67.4687 157.906 66.2812M155.312 65.4375C155.156 64.75 156.937 63.4687 156.437 62.375M154 61.1875C153.625 60.4375 154.844 59.5625 154.313 58.75M152.062 57.8125C151.937 57.3125 152.688 56.1563 152.281 55.4688M150.125 53.8437C150.281 53.625 150.938 53.1563 150.688 52.5625M148.812 50.9062C149.063 50.7812 149.844 50.5312 149.75 49.9688" stroke="black" stroke-width="0.4" stroke-linecap="round"/>
<path d="M108.5 126.812C106.938 126.25 104.906 127.031 104.5 128.406M105.719 129.656C105.906 128.281 108 127.688 108.625 128.313C107.312 127.594 106.656 130.187 107.844 130.25M118.656 97.8125C117.719 98.3125 117.406 100.063 118.656 101.406M120.094 98.2187C119.438 98.7812 119.469 100.469 120.469 100.875C119.625 100.25 120.469 99.2187 121.094 99.1875C121.687 99.1562 122.094 99.875 121.344 100.594M176.656 102.219C174.406 101.594 172.594 104.219 174.656 106.563C174.594 104.313 176.219 102.812 178.188 103.219M177.25 104.781C177.026 104.781 176.812 104.87 176.653 105.028C176.495 105.187 176.406 105.401 176.406 105.625C176.406 106.063 176.781 106.5 177.406 106.5C177.813 106.5 178.156 106.031 178.156 105.656M185.219 55.3437C185.594 56.7187 187.469 57.3125 188.969 56.9687M188.969 56.0938C187.812 56.125 186.844 55.0313 186.906 54.125C186.906 54.8125 188.469 55.125 188.969 54.6875" stroke="black" stroke-width="0.4" stroke-linecap="round" stroke-linejoin="round"/>
<path d="M109.094 102.063C108.781 101.25 110.031 100.438 110.094 99.6875C110.125 98.9063 111.531 98.3125 113 99.75M112.313 91.1875L111.531 91.5625M115.094 95.5625C114.75 95.5625 114.031 95.5625 113.656 95.2813M113.656 97.0937C113.406 97.25 112.781 97.4687 112.406 97.5625M99.875 121.406C99.8125 122.125 100.562 123.187 100.937 123.5M103 119.688C102.778 120.037 102.629 120.427 102.559 120.834C102.489 121.242 102.501 121.659 102.594 122.063M109 122.063C108.281 121.594 108.75 120.375 108.688 119.563C108.594 118.75 109.531 117.469 111.344 118.563M102.25 117.469C102.969 117.344 103.719 117.375 104.219 117.594M111.406 115.188C111.155 115.559 111.004 115.99 110.969 116.438M114.813 115.094C114.25 115.094 113.75 115.5 113.5 115.906M107 94.5C107.625 94.7188 109.312 95.75 109.375 96.8125M113.844 89.25C111.875 89.2188 111.094 87.2188 112.594 87.2188M117.375 91.9687C116.625 92.2812 116.969 93.5938 118.063 94.25M112.656 104.594C112.281 104.094 112.781 102.719 114.031 103.125M115.594 119.281C115.688 118.031 117.219 117.344 117.844 118.719M109.875 122.781C109.781 121.438 110.5 121 111.063 120.906C111.688 120.844 112.531 121.344 112.938 122.219M97.9062 123.781C97.9688 122.969 98.6562 122.125 99.375 122.25M171.563 88.0625C171.031 88.4375 170.688 90.1563 172.656 90.3125M168.5 90.9063C168.5 91.0938 168.75 91.375 168.906 91.5313M177.969 94.125C177.469 93.7187 176.094 95.375 177.344 96.5313M165.156 107.656C164.875 106.5 165.938 106.188 166.969 106.438M162.594 99.5C163.219 99.125 163.844 98.6563 164.594 98.4688M162.281 103.938C162.281 103 162.781 102.156 163.219 101.937M165.844 92.8438C165.797 93.8559 166.058 94.8586 166.594 95.7187M175.406 92.9062C174.813 93.0937 174.313 93.3125 174.094 93.8125M174.75 96.2188C175.063 95.9688 175.375 95.6875 175.5 95.5M189.969 61.0625C189.969 62.1875 188.563 62.8125 187.625 62.0938M193.031 61.125C193.656 61.5938 195.813 61.125 195.313 59.875M190.375 67.5937C189.791 67.4224 189.262 67.0989 188.844 66.6562M194.813 64.25C194.094 64.4062 193.594 64.25 193.25 64.0938M183.375 68.2813C184.079 68.2509 184.769 68.0809 185.406 67.7813M182.25 61.1563C181.719 61.0938 181.313 61.1875 181.031 61.4063M190.344 63.125C190.188 63.7431 189.863 64.3057 189.406 64.75" stroke="black" stroke-width="0.4" stroke-linecap="round"/>
<path d="M180.844 64.9062C181.844 64.4687 183.094 67.875 185.531 66.6875M185.719 63.125C185.38 63.6484 185.186 64.2522 185.156 64.875" stroke="black" stroke-width="0.4" stroke-linecap="round" stroke-linejoin="round"/>
<path d="M137.562 57.9063C137.875 57.8438 138.469 57.75 138.594 57.3438M96.1562 95.375C97.375 96.0625 98.2188 97.2188 97.7188 98.9375M151.5 54.1875C151.875 54.4375 153.219 54.4375 154 54.1875M154.938 55C154.938 55.5625 155.094 57.6875 154 58.125M154.406 57.875C155.406 58.1875 157.406 58.0625 158.063 56.2188M156.656 57.7813C157.188 58.5938 157.344 60.1563 155.781 61M157.031 59.125C158.219 59.5 160.906 59.5625 160.625 57.25M159.687 59.125C160.531 60.2188 164.062 61.5625 163.5 59.2188M156.469 62.3438C157.813 62.6875 159.75 61.75 158.969 59.3438M162.812 60.5625C163 61.5 167.5 62.4375 166.906 60.3438M166.063 61.5625C166.906 63.5 171.375 63.3438 169.969 60.75M169.25 62.7813C170.125 63.8438 174.094 63.2188 172.5 60.5938M172.469 62.7188C174.938 64.5938 177.781 61.9375 174.656 60M176.094 62.125C178.281 63.8438 180.938 60.7188 179.031 59.8438M158.906 61.4063C159.594 61.5938 161.031 61.5313 161.375 60.2813M160.812 61.125C160.75 62.9375 163.812 63.625 164.594 61.5313M163.563 62.6875C164.125 63.9063 166.844 64.375 167.281 62.6563M166.844 63.4688C167.281 64.6563 169.625 64.5313 170.281 63.2813M169.406 64.0938C170.125 65.6563 173.125 65.6563 173.781 63.375M173.281 64.375C174.437 65.0938 176.937 64.8125 176.719 62.5625M176.25 64.1875C178 65.5938 180.437 64.2188 179.219 61.8438M179.125 66.0313C180.062 65.875 180.531 64.0313 179.562 63.5313M157.687 66.3438C159.562 65.3125 159.969 63.5313 158.625 61.8125M159.313 64.5938C160.531 65.3125 162.813 64.5313 163.219 62.7813M160.969 64.7813C161.656 65.6563 161.781 66.75 160.875 67.75M161.5 65.9063C163.656 64.5938 166.313 67.0313 164.313 68.5313M164 65.7813C164.469 65.6563 165.312 64.7813 165.375 63.7813M164.938 66.7188C165.844 65.7813 171.875 67.6563 168.063 69.625M167.75 64.1875C168.938 64.625 169.531 66.2813 167.75 66.8438M169.313 68.2188C170.563 66.875 174.625 67.7188 173.156 69.4063M172.187 67.6875C172.906 65.2188 177.219 66.75 175.812 67.75M171.312 65.25C171.438 65.7188 171.469 66.9063 170.688 67.5625M174.938 64.75C175.025 65.0269 175.047 65.32 175.004 65.6071C174.961 65.8941 174.853 66.1674 174.687 66.4063M177.656 64.7813C177.906 65.2188 178.281 66.0625 177.406 66.75M143.219 46.2812C143.25 48.5625 144.063 50.0938 147.156 48.6563M144.188 49C142.625 51.0625 144.375 53.2813 147.406 51.0625M139.438 49.9688C141.531 52.2188 145.281 50.5938 142.875 47.1563M145.375 51.9063C145 54.125 146.812 54.5625 148.281 53.5625M137.594 50.3438C137.969 52.5625 140.25 54.3125 142.469 52.9688M140.312 53.4063C140.312 56.5938 144.688 56.9375 145.719 53.6563M144.156 55.6563C145.563 58.5625 148.625 57.375 149.625 55.625M141.063 51.0312C141.625 52.4375 142.75 54 145.344 52.8438M133 50.3438C133.375 51.5 135.469 52.9063 137.875 51.2813M134.5 51.8438C133.188 53.7188 135.75 55.5 138.875 52.6875M136.031 54.1562C136.531 56.8125 137.594 58.9688 141.344 55.5313M139.469 56.9063C140.844 58.5938 142.937 59.625 144.906 56.7813" stroke="black" stroke-width="0.4"/>
<path d="M146.407 57.4062C146.282 59.4375 146.657 60.4375 148.25 60.3437C149.5 60.2812 150.657 59.3125 151.344 58.25M147.969 60.3437C147.907 62.6562 149.719 64.4687 153.125 62.125M149.375 63.0625C148.75 64.7812 150.657 67.5937 154.438 66.1562M141.344 58.4687C141.125 60.6562 143.157 62.1562 146.469 59.3125M142.969 60.9062C143.094 62.7187 145.157 64.9062 148.157 61.75M144.407 63.2187C144.188 66.3125 147.032 67.1875 149.438 64.8125M140.125 60.9062C140.75 60.9687 141.282 60.4062 141.594 59.9687M141.469 63.1562C142.032 63.2812 143.032 62.7812 143.344 62.125M142.907 66.8125C143.532 67.5312 145.719 67.0313 146 66.0938M145.313 66.7812C146.5 69.5938 149.719 69.5 151.063 66.3125M150.438 67.4375C151.063 69.0937 152.594 70.125 155.094 69.5625M151.657 69.125C150.25 71.4063 152.094 74.125 155.25 71.4688M152.438 72.5625C152.282 74 153.594 75.6562 155.407 75.8438M146.469 68.3438C146 71.5937 148.344 73.1563 151.25 71.4063M143.063 69.9062C143.813 70.5 145.188 70.5625 146.5 70.0937M148.063 71.9687C147.313 74.7187 150.125 76.6875 152.532 73.625M144.125 70.3437C144.188 71.75 145.532 73.2812 147.907 72.8437M154.563 75.6562C152.938 76.7187 152.625 78.6562 154.875 79.9062M150.625 75.0937C150.688 76.7187 151.469 77.6563 153.282 77.8125M148.25 74.25C145.813 76.4375 148.188 79.0312 151.063 76.8437M149.938 77.5312C149.125 80.0625 152.125 81.5937 153.75 79.0312M144.938 72.1562C144.063 74.6562 145.188 76.2812 147.25 76.125M141.75 71.6562C141.875 73.1562 143.157 73.6875 144.625 73.3438M142.688 73.2187C141.594 75.3125 143.25 76.4375 145.438 75.6562M152 80.3438C151.688 81.6563 151.875 82.5937 153.844 83.0625M152.157 82.2188C149.782 83.2813 149.563 85.5938 151.407 87.0625M150.219 79.6562C149.935 79.9048 149.714 80.2176 149.575 80.5686C149.436 80.9196 149.382 81.2987 149.419 81.6745C149.456 82.0503 149.581 82.4119 149.786 82.7294C149.99 83.0468 150.267 83.311 150.594 83.5M139.657 72.3125C138.313 73.6562 139.594 77.375 142.625 75.3437M147.532 77C145.657 78.5625 146.5 81.3125 149.563 80.5625M144.469 75.875C143.5 78.5937 144.407 79.5625 146.594 79.5937" stroke="black" stroke-width="0.4"/>
<path d="M137.656 72.1875C137.357 72.3929 137.104 72.6597 136.916 72.9701C136.727 73.2806 136.607 73.6275 136.562 73.9881C136.518 74.3486 136.551 74.7144 136.659 75.0613C136.766 75.4081 136.947 75.7281 137.187 76C137.906 76.8125 139.281 76.4375 139.687 75.4062M134.188 71.0938C132.344 73.4687 134.188 76.2812 136.813 75.4688M144.094 78.1562C142.219 78.8125 140.75 80.5313 141.906 82.0625C142.625 82.9375 145.594 83.0625 146.438 79.625M140.688 75.9375C139.594 77.5 139.938 79 141.938 79.75M140.563 78.875C139.375 79.5 138.625 80.2812 138.906 81.6875M137.938 76.4062C137.5 78.2812 138.031 79.4688 139.188 80.0313M137.906 78.6562C136.094 78.5312 135.156 79.2812 135.781 81.0938M135.937 79.0938C134.156 78.4688 133.875 76.9062 134.656 75.3437M134.406 77.7187C132.469 77.7812 131.594 78.75 131.594 80.0625" stroke="black" stroke-width="0.4"/>
<path d="M131.781 70.1875C130.375 70.7812 129.906 72.6875 130.438 73.7187C130.969 74.75 132.625 74.8437 133.625 74.1562M127.875 68.6875C126.594 70.125 128.063 72.9687 130.375 72.2812M124.563 67.5625C123.375 69.25 124.688 72.0625 127.781 71.25M127.938 79.0938C127.625 77.0938 129.719 75.7812 132.313 78.375M131.063 74.3125C130.695 74.6434 130.409 75.0562 130.23 75.5176C130.051 75.9791 129.983 76.4761 130.031 76.9687M121.281 66.5937C119.938 68.8437 121.563 70.9062 124.406 70.0937M128.719 72.1875C126.844 74.0625 127.469 75.9687 128.875 77.0625M127.5 74.4062C124.656 74.4375 124.5 77.75 126.813 78.7813M125.344 71.0938C124.156 71.9063 123.781 74.125 125.813 75M125.25 76.0625C124.031 75.5 122.594 76.1875 122.719 77.5937M123.438 76.0938C122.344 73.5313 119.188 73.9688 119.469 76.625M124.313 72.9062C123.656 73.0312 122.281 73.4375 121.75 74.4687M121.938 70C121.686 70.2594 121.503 70.5769 121.404 70.9243C121.306 71.2718 121.294 71.6382 121.372 71.991C121.449 72.3438 121.613 72.672 121.848 72.9462C122.083 73.2204 122.382 73.4321 122.719 73.5625M118.094 65.9062C117.844 67.6562 118.531 68.5 120.719 68.3438M118.844 68.125C118.031 70.2188 119.156 71.1562 121.344 71.0312M119.344 70.7187C118.063 72.25 118.938 73.875 120.188 74.5625M118.75 72.6563C116.438 72.3438 116.094 75.0313 116.875 76.25" stroke="black" stroke-width="0.4"/>
<path d="M116.906 65.75C115.5 66.375 114.688 68.125 115.438 69.1875C116.219 70.2812 117.75 69.9375 118.563 69.375M115.937 69.6875C114.75 71.4688 115.812 72.8125 117.062 73.3125" stroke="black" stroke-width="0.4"/>
<path d="M111.406 65.5312C110.469 66.5 111.063 68.4687 113.281 68.5312C115.125 68.5312 116.031 66.8438 115.469 65.625M112.969 68.5312C112.25 70.125 112.719 71.875 115.469 71.5937M116.594 74.0937C114.938 73.3437 112.656 74.0937 113.625 76.125M113.406 71.25C112.719 72.2188 112.938 73.5938 113.719 74.4375M113.281 73.8125C112.156 74.0313 111.063 74.625 111.719 76.4063M111.563 74.9687C110.125 74.5312 108.281 75.5937 109.375 77.0625M109.156 75.6562C107.906 75.4375 106.438 76.7813 107.625 78.0938M107.156 77C106.031 77.3125 104.688 78.5625 105.875 79.5937M112.844 70.6875C111.219 71.4063 111.063 73.2187 111.813 74.5625M111.125 67.375C108.719 68.3125 108.75 71.5 111.438 72.5M110.281 71.7813C108.844 72.625 108.563 74.25 109.531 75.2812M107.75 66.1563C106.813 66.4688 106.875 69.4375 109.438 69.375M105.094 67.1562C103.156 68.4375 105.5 71.6875 108.625 69.3437M106.906 70.1875C106.625 71.5 107 72.9375 109.125 73.125M107.031 71.9375C105.5 72.5 105.219 75.6563 107.969 75.9063M102.156 69.0937C100.188 70.9062 103.781 72.4688 105.094 69.8438M99.4375 72.0938C98.4688 73.2813 101.844 76.3437 103.344 71.2187M103.688 71.125C103.781 72.375 104.5 73.0625 105.969 73.1562M105.969 74.3125C103.563 74.6875 102.813 77.6562 105.469 78.3125M101.563 73.9375C101.469 75.0312 102.656 75.9688 103.969 75.7813M105.188 78.2187C103 78.7187 102.719 81.5312 104.656 81.3437M103.656 83.9687C101.844 83.4375 101.781 81.2813 103.406 80.4688" stroke="black" stroke-width="0.4"/>
<path d="M102.156 82.0937C100.625 83.0312 101.219 85.2187 102.031 85.5312C102.844 85.8437 103.5 85.4687 103.594 84.7812M103.438 87.9062C103.625 88.9375 99.7188 88.5312 101.719 85.2812M101.719 88.0625C100.406 90.125 102.531 91.8125 103.875 90.0313M101.875 90.5312C101.344 92.1875 103.344 93.375 104.625 92.0937M97.5625 75.0937C96.8438 76.5625 100.469 77.125 100.688 74.0625M96.5625 77.2812C95.8438 80.1875 101.312 79.5937 99.9062 75.8437M100.031 77.7812C100.395 77.9515 100.793 78.0339 101.194 78.022C101.596 78.01 101.988 77.904 102.341 77.7124C102.694 77.5209 102.996 77.2492 103.225 76.9191C103.453 76.5891 103.601 76.2101 103.656 75.8125M102 77.875C102.099 78.2853 102.28 78.6714 102.533 79.0097C102.785 79.3481 103.104 79.6318 103.469 79.8438M99.375 78.625C99.125 80.1875 100.719 81.5 102.5 81.375M99.6562 80.1562C98.7812 81.375 98.5 83.6875 101.281 83.8437M95.375 80.5937C94.9375 81.8437 97.5625 83.125 99.0625 81.0625M94.5625 83.7813C94.3437 84.7188 96.6875 85.9687 98 81.9687M96.9688 84C97.5313 85 99.4375 85.8125 100.594 83.8437M98.7187 85.0625C98.2187 86.4687 99.5625 87.7812 101.156 87.4062M95.6875 84.75C95.375 86.75 97.7188 87.9062 99.125 86.875M94.1563 85.625C93.4688 88.1875 96.7812 89.1563 98.0312 87.2188M97.1875 88C97.3125 89.4375 99.5625 90.6875 101.312 89.5M93.1562 89.1875C93 89.8437 95.6875 90.5 96.0938 88.25M94.7187 89.7812C95.3437 91.4062 97.5312 91.8125 98.7812 89.7812M98.0625 90.5937C98.375 92.1562 100.312 93 102.062 91.9375M102.781 92.5625C102.344 94.5937 104.469 96.25 105.781 95.125M99.3437 92.1875C98.7187 94.4375 101.531 95.7187 103.094 94.4687M95.9687 91.0312C95.8125 93.1562 97.4687 94.4063 99.3437 93.4688M92.375 91.2813C91.8125 92.625 94.8125 93.75 96.2187 92.5937M90.5312 95C91.3125 95.875 93.9687 95 94.1875 93.0312M93.4687 94.4687C94.4375 95.5937 96.75 96.2188 97.6563 93.7813M96.8437 95.0313C96.8437 96.7813 99.9062 98.0312 100.906 94.8438M104.562 95.4688C104.25 96.3125 104.938 97.6562 106.344 97.8125M102 94.9375C101.812 95.875 103.219 97.25 104.719 96.7188M105 97.125C104.594 98.1562 104.938 99.6562 106.344 99.625M105.125 99.0625C104.062 99.9375 104.5 101.531 106.031 101.562M104.594 100.562C103.094 101.562 103.625 103.781 105.594 103.656M100.062 96.2187C100.062 98.4062 102.781 98.7188 103.281 96.7188M102.25 97.9688C101.844 99.2812 102.875 100.531 104.531 100.156M102.562 113.531C102.938 114.062 104.437 113.156 104.031 112.281C103.625 111.406 102.031 111.875 102.219 112.812M103.656 111.906C103.844 110.156 101.781 109.875 101.25 111.406M102 110.5C102.531 109.625 100.75 108.406 100.031 109.719M100.656 109.187C101.156 107.906 99.1563 107.312 99 108.5M98.5313 106.812C98.7813 106.187 101.031 106.562 100.094 107.906M101.813 109.5C102.688 108.687 101.188 107.062 100.25 107.625M107.75 111.969C107.063 112.031 106.344 112.5 106.844 114C107.219 115.031 108.75 115.062 109 114.469" stroke="black" stroke-width="0.4"/>
<path d="M106.781 112.75C106.093 112.281 104.593 113.063 105.281 114.5M105.281 114.5C105.781 115.594 107.093 115.125 107.281 114.563M105.281 114.5C104.968 115.125 103.281 115.438 102.906 114.812M104.093 112.813C104.468 112.563 105.124 112.875 105.249 113.187M103.999 102.875C102.812 103.656 103.531 106 105.343 105.375M103.593 104.781C102.656 105.5 103.531 107.781 105.249 106.906M103.906 106.906C103.249 107.563 103.874 109.344 105.531 109M103.656 107.813C103.281 107.656 102.343 107.75 101.937 108.375M102.593 99.625C101.718 100.5 102.156 102.219 103.781 102.375M102.281 101.438C101.031 102.063 101.031 104.562 103.531 104.656M102.187 104.25C101.468 104.813 101.812 107 103.624 106.719M102.749 106.625C102.499 106.906 102.437 107.563 102.687 107.844M101.968 105.813C101.343 105.813 100.468 106.281 100.249 106.969M99.0931 104.625C99.3119 104 101.312 104 101.468 105.906M101.656 103.656C101.374 103.719 100.843 103.969 100.718 104.531M100.781 97.75C99.9369 98.5625 99.5306 101.031 102.124 101.5M99.0306 102.875C99.0306 102.219 100.843 101.625 101.468 102.625M97.8744 99.2812C98.1244 99.7812 99.3744 100.469 100.124 99.9062M91.3744 95.3438C91.3622 95.6329 91.4139 95.9213 91.5259 96.1882C91.6378 96.4551 91.8073 96.6941 92.0221 96.888C92.237 97.082 92.4919 97.2262 92.7689 97.3104C93.0458 97.3945 93.3379 97.4166 93.6244 97.375C94.9681 97.2188 95.2494 96.0625 94.8431 95.2812M93.8431 97.4375C92.9369 98.5 94.0306 100.031 95.0306 99.5937M94.8431 96.6562C95.3744 96.4687 97.0931 96.2188 97.6244 97.0313M89.2494 96.9687C88.8431 97.5937 91.3431 98.1875 92.1869 97.0313M91.3431 97.625C91.2494 98.4375 91.6556 99.8125 93.7181 99.2188" stroke="black" stroke-width="0.4"/>
<path d="M94.0629 100.469C94.3754 99.7813 92.8754 98.6562 91.6879 99.9062C90.5316 101.156 91.8754 102.562 92.5941 102.094M88.7191 97.7812C88.0941 98.8438 90.4379 100.75 91.7816 98.9687" stroke="black" stroke-width="0.4"/>
<path d="M87.1558 99.5937C86.312 100.469 87.3745 102.062 88.6245 101.562C89.9058 101.094 89.7808 99.75 89.4683 99.4062" stroke="black" stroke-width="0.4"/>
<path d="M85.5314 101.219C84.8439 101.844 85.5314 103.281 86.4689 103.281C87.4064 103.281 88.0002 102.563 87.8127 101.594M89.3752 101.094C89.2502 102.031 90.6252 102.656 91.5314 101.781M91.5314 100.094C91.6877 99.9062 91.5939 99.5625 91.3752 99.375M84.0627 102.437C83.2814 103.062 85.0002 104.812 86.0314 103.219M90.1252 102.125C89.6252 102.594 90.4377 103.844 91.2502 103.469M87.3752 103C87.5002 103.844 89.1877 104.5 90.2502 103.187M88.2814 103.844C88.0314 104.406 88.5627 105.25 89.2189 105.156M104.313 108.844C103.688 110.062 105.688 111.5 107.125 110M105.75 110.656C105.438 111.313 105.813 112.25 106.375 112.594M103.875 112.063C104 111.438 104.875 110.875 105.656 111.156M102.844 110.469C102.938 109.906 103.656 109.375 104.219 109.531M151.031 89.0625C148.563 89.9688 147.344 85.375 150.219 85.3438C148.5 85.7188 147.156 85 147.031 84.0625M149.281 88.75C148.719 89.6563 149.813 91.125 151.031 90.25M150.719 90.4375C149.844 91.8438 152.875 94 154.094 91.7812M153.125 92.625C153.125 93.9688 157.031 94.8125 156.469 92.1563M156.094 93.5938C157.031 95.1563 160.469 95.3125 160.125 92.9688M159.344 94.5937C160.063 95.6562 163.469 96.2812 163.344 94.125M145.625 81.375C146.094 82.625 147.75 83.0625 149.563 82.3125M144.563 82.25C145.719 82.9687 144.063 86.2812 142.344 84.9375M144.594 84.3125C145.844 84.9062 147.375 84.4688 147.813 82.6875M143.938 85.0313C145.563 86.4063 143.219 89.2188 142.156 87.9375M144.531 86.0625C145.313 86.625 147.281 86.3125 147.469 84.8125M146.594 86.0625C146.75 87.0313 147.531 87.4062 148.594 87.4375M144.094 87.4062C144.906 88.5312 146.906 88.8438 147.813 87.375M146.906 88.2187C146.844 89.2812 148.031 90.1875 149.281 89.9375M142.563 90.5938C143.594 91.125 144.75 89.125 143.844 87.7813M143.781 92.6875C145.031 92.75 145.188 90.875 144 89.8125M146.625 94.4063C147.688 94.1563 147.344 91.875 144.813 91.6875M149.813 96.0938C150.813 95.8125 150 93.2813 147.219 93.4375M153.625 97C154.313 95.9375 152.063 94.1875 150.188 95.125M155.5 98.4375C156.75 98.8125 157.625 95.5 153.656 96.0312M157.813 98.4375C158.906 98.125 159.688 96.1875 156.5 96.8125M160.25 98.5938C161.188 99.0938 161.625 96.25 158.688 97.0313M144 89.8438C145.219 90.5 147.125 89.7187 146.938 88.1875M146.469 89.5C146.875 90.2188 146.719 91.625 145.938 92M146.563 91.1875C147.375 91.5 148.469 91.2187 149.125 89.9375M148 91.1875C148.219 91.75 148.313 92.875 147.781 93.4375M148.188 92.1563C149.094 92.6563 150.125 92 150.563 91.0625M150 91.875C150.625 92.2813 151.219 94.1562 150.125 94.9375M150.75 94.0625C151.5 94.0625 152.625 94.0625 153.344 93.125M152.813 93.6562C153.5 93.8437 154.313 94.9688 154.031 95.9688M154.063 95.625C154.844 95.5313 156.156 95 156.531 94.0625M156.156 94.6875C156.503 94.8917 156.782 95.1927 156.96 95.5536C157.138 95.9146 157.206 96.3195 157.156 96.7188M157.156 96.0625C157.938 96.0313 158.625 95.625 158.813 94.7812M158.625 95.3438C159.188 95.5313 159.875 96.1875 159.906 96.9375M159.813 96.4687C160.375 96.375 160.781 96.0313 161.156 95.4688M162.688 95.375C163.406 96.0937 162.438 98.5 160.938 98.0625M147.219 46.5938C145.75 47.5 141.5 47.2188 143.594 43.7188M147.656 44.2188C144.688 45.4063 141.094 43.125 144.844 40.6875M143.844 39.875C141.406 39.875 139.75 43.8125 143.031 45.1875M134.313 41.5313C133.688 42.7813 135.969 44.1562 137.531 42.9062C138.75 41.9375 138.656 39.3125 137.938 38.3125M133.063 44.5C132.25 47.1563 138.188 47.3125 137.25 43.0938M132.75 48.4688C132.938 50.4688 138.406 49.8125 136.656 45.75M137.281 44.625C137.719 45.25 138.938 46.2813 141 46.0625M138.188 41.8438C138.375 42.5625 139.594 43.0938 141.156 42.5625M83.3127 103.031C81.9064 104 84.0627 105.562 84.8439 103.844M82.2189 103.781C80.8439 104.781 82.9689 106.344 83.7502 104.625M81.0627 104.531C79.6877 105.531 81.8127 107.062 82.6252 105.375M79.8752 105.219C78.5314 105.937 80.0939 107.656 81.4377 106.156M78.5627 105.875C77.2189 106.594 78.7814 108.312 80.1252 106.812M85.3127 103.812C85.2814 104.844 87.2189 105.25 87.9377 103.719M86.5314 104.75C85.9064 105.531 87.0314 106.469 87.6252 106.125M83.9377 104.625C83.8752 105.5 85.5627 106 86.3752 105.031M84.8439 105.531C84.3127 106.219 85.3752 107.188 86.0939 106.906M82.8127 105.406C82.8752 106.094 83.8439 106.875 84.8752 106.438M83.4377 106.344C83.0314 106.687 83.2189 107.531 83.7814 107.813M81.3439 106.25C81.1877 106.875 82.2502 108 83.3439 107.281M81.5627 106.969C80.9377 107.5 81.0002 108.25 81.8127 108.375M80.0002 106.906C79.9377 107.344 80.4689 108.031 81.1564 107.938M76.5627 106.875C75.9377 107.219 77.5627 108.969 78.5939 107.344M74.9689 107.594C74.1564 107.969 76.1564 109.906 77.0627 107.938M80.1877 107.531C79.5627 107.656 79.1564 108.563 79.6877 108.938M78.1252 107.844C78.0627 108.219 78.8439 108.781 79.4689 108.594M77.6252 108C77.0002 108.375 77.3439 109.437 78.0627 109.281M75.4689 108.719C74.9064 109.125 75.3127 109.969 76.0939 109.781M76.5002 108.656C76.5002 108.875 77.0314 109.219 77.4377 109.063M73.5314 108.281C72.8127 108.594 72.8752 110.344 75.2502 109.406M71.9377 109C70.9377 109.469 71.2814 110.813 73.4377 109.531M73.5939 109.625C73.3439 109.844 73.0627 110.719 74.0627 110.375M71.8127 110.062C71.4064 110.406 71.6564 111.156 72.5314 110.875M69.7189 110.188C69.0002 110.594 70.5939 111.156 71.6564 110.031M70.2189 110.687C69.9064 111 69.9064 111.969 70.7189 111.625M68.1564 111.094C67.6877 111.438 68.4689 111.938 70.0314 111.25M68.7814 111.594C68.1877 112.063 68.2502 112.656 69.0939 112.469M67.0939 111.844C66.4689 112.438 67.3752 112.813 68.4689 112.344M67.0939 112.5C66.0314 112.969 66.5002 113.875 67.1564 113.531M102.719 115.562C102.469 116.094 103.281 116.531 104.063 116.406C104.781 116.313 105.5 115.688 104.938 114.844M104.969 115.906C105.719 116.469 107 115.813 107 114.969" stroke="black" stroke-width="0.4"/>
<path d="M149.375 30.5937C146.156 29.0312 139.469 26.0312 137.562 28.4375C139.312 27.7187 144.375 28.4687 148.563 32.3437L149.375 30.625V30.5937Z" fill="white" stroke="black" stroke-width="0.4"/>
<path d="M151.312 30.4375C147.594 26.0937 145.375 27.0625 142.719 25.5937C140.219 24.1875 136.219 23.9062 135.438 26.1249C139.094 24.3437 142.469 27.0625 144.562 27.4375C147.375 27.875 149 30.0937 149.844 31.0937L151.312 30.4687V30.4375ZM165.344 29.875C163.406 25.4687 159.281 26.625 157.469 24.75C154.812 22 148.094 19.4375 145.281 21.3437C151.406 21.0312 154.031 25.5625 157.281 27.1562C159.625 28.2812 162.125 30.6875 165.344 29.875Z" fill="white" stroke="black" stroke-width="0.4"/>
<path d="M158.094 29.4063C154.812 25.3126 149.719 21.6876 147.406 23.0313C150.469 23.2188 151.437 25.3438 153.594 26.7188C155.781 28.0626 154.812 30.0626 158.094 29.4063ZM142.406 36.6563C138.969 35.3751 132.188 34.7188 129.031 38.6563C134.281 39.5626 142.156 39.0626 142.406 36.6563Z" fill="white" stroke="black" stroke-width="0.4"/>
<path d="M141.75 38.1875C138.312 36.5625 135.594 38.8125 132.344 38.5C126.156 37.875 121.719 38.25 121.156 41.25C124.688 38.0625 130.656 40.6875 133.063 40.0313C135.469 39.4063 144.406 39.9375 147.219 41.1563C145.781 39.375 143.531 38.9063 141.75 38.1875ZM152.625 28.9688C151.813 26.3125 151.875 23.5 155.844 23.6875C154.844 22.4375 151.156 21.8125 150.531 26.4688C146.156 23.25 141.344 22.6875 140.469 25.4688C142.719 23.5313 146.219 24.9375 150.406 29.6875C151.103 29.3328 151.852 29.0902 152.625 28.9688Z" fill="white" stroke="black" stroke-width="0.4"/>
<path d="M146.594 32.625C144.094 31 140.719 28.4062 146.625 27.3437C144.125 26 140.375 26.5937 140.782 31.25C134.032 28.5312 129.188 29.4375 128.157 32.1562C127.032 35.125 131.219 36.7812 131.938 34.875C131.188 35.1875 128.563 34.3125 129.938 32.625C131.313 30.9375 138.313 32.2187 144.969 35.6875C146.844 36.625 153.188 36.5 146.594 32.625Z" fill="white" stroke="black" stroke-width="0.4"/>
<path d="M144.813 37.0625C142.906 33.125 136.656 36.6875 135.406 32.875C133.656 38.4688 144.281 35.375 144.813 37.0625ZM184.531 41.3125C185.844 41.9688 186.969 40.9375 184.969 40.1563C186.281 40.7813 187.438 39.8125 185.438 39C186.75 39.625 187.875 38.6562 185.875 37.8438C185.344 38.375 184.594 40.3438 184.531 41.3125ZM185.219 33.75C188.125 30.6875 185 29.6563 188.531 26.5C191.438 23.9375 189.094 22.2188 191.813 20.25C192.719 19.5938 194.625 18.3125 194.813 17C195.969 19.9062 191.188 20.3125 191.5 24.9688C191.719 27.9375 189.688 27.6875 188.938 32.7188C188.781 33.75 188.031 36.0938 185.219 33.75Z" fill="white" stroke="black" stroke-width="0.4"/>
<path d="M186.5 35.125C188.125 31.6875 189.969 31.7188 190.875 30.375C192.562 27.7812 196.125 30.8125 199.156 28.5C198.625 31.7812 194.563 30.625 192.781 32.7188C191.031 34.8125 189.563 35.75 186.531 35.125H186.5Z" fill="white" stroke="black" stroke-width="0.4"/>
<path d="M186.937 36.2501C189.75 34.0001 191.812 35.5001 193.75 34.3126C198.656 31.3438 200.625 34.9376 205 33.5001C203.875 36.3126 197.375 33.9063 194.562 36.0001C191.75 38.0938 181.843 40.1251 186.906 36.2501H186.937ZM178.718 52.3126C178.656 51.0313 177.468 49.3751 175.781 49.1876C174.093 48.9688 173.343 47.1876 172.062 47.1251C170.781 47.0313 169.937 44.4688 168.156 44.5001C166.406 44.5313 165.656 46.8438 169.812 48.9376C173.968 51.0313 178.562 53.4376 178.718 52.3126ZM173.468 53.4063C171.718 53.4688 171.468 56.0626 169.781 56.1251C172.093 57.3751 173.812 55.5626 175 53.9376L173.5 53.4063H173.468Z" fill="white" stroke="black" stroke-width="0.4"/>
<path d="M174.937 53.7188C173.374 55 172.937 57.6875 175.155 58.4687C173.843 56.625 177.499 55.8125 176.374 54.0937L174.937 53.7188Z" fill="white" stroke="black" stroke-width="0.4"/>
<path d="M176.437 53.8125C175.25 56.125 178.343 56.4063 177.531 58.1875C179.312 57.7813 179.593 54.4375 177.968 53.5625L176.437 53.7812V53.8125Z" fill="white" stroke="black" stroke-width="0.4"/>
<path d="M164.625 48.8125C167.531 48.6563 170.156 50.2188 171.937 52.75C173.062 54.3438 176.844 55 178.156 53.6875C179.406 52.4375 178.719 49.6875 175.5 50.5625C174.687 49.2188 172.375 49.6875 171.219 48.5625C170.094 47.4375 165.75 44.2188 164.625 48.8125Z" fill="white" stroke="black" stroke-width="0.4"/>
<path d="M175.5 50.5938C174.719 50.75 174.469 52.0625 174.969 52.75L175.5 50.5938ZM177.156 51.375C177.375 51.7813 177.219 52.3438 177.094 52.625L177.156 51.375ZM169.219 48.9375C170.688 49 170.969 50.0938 172.594 50.5L169.219 48.9375Z" fill="white"/>
<path d="M175.5 50.5938C174.719 50.75 174.469 52.0625 174.969 52.75M177.156 51.375C177.375 51.7813 177.219 52.3438 177.094 52.625M169.219 48.9375C170.687 49 170.969 50.0938 172.594 50.5" stroke="black" stroke-width="0.4" stroke-linecap="round"/>
<path d="M168.219 45.2812C172.279 46.0746 176.225 47.3656 179.969 49.125C182.5 50.5625 186.438 51 189.844 50C193.281 49.0625 199.906 48.1562 199.563 52.4375C201.375 50.2812 199.094 48 194.5 47.5937C194.594 45.5 192.344 43.625 190.75 44.875C192.219 44.6562 193.5 47.4375 190.563 48.5625C190.695 48.0782 190.685 47.5662 190.535 47.0872C190.385 46.6082 190.1 46.1823 189.716 45.86C189.331 45.5377 188.862 45.3325 188.364 45.2687C187.866 45.2049 187.36 45.2851 186.906 45.5C188.281 45.9062 189.719 48.25 186.594 49.125C184.625 49.6875 181.781 48.9687 179.656 47.6875C177.531 46.4062 165.594 41.75 168.219 45.25V45.2812Z" fill="white" stroke="black" stroke-width="0.4"/>
<path d="M181.188 43.1875C179.594 43.9063 180.625 45.5938 178.156 46.5625C175.656 47.5 173.906 49.7188 174.469 51.625C176.156 47.9063 179.156 48.0938 180.188 46.625C181.25 45.1875 182.781 43.0625 181.188 43.1875Z" fill="white" stroke="black" stroke-width="0.4"/>
<path d="M181.625 43.4063C181.563 46.3438 179.25 45.2813 180.156 49.4063C180.438 50.6875 180.969 52.7813 180.063 54.875C182.656 53 181 49.0313 182.156 47.5313C182.719 46.7813 183.469 45.6563 183.719 44.7188C183.125 46.375 183.188 49.5313 184.813 50.3438C183.5 47.2188 188.406 44.625 185.031 40.9688C184.531 41.9063 183 43.4688 181.656 43.4063H181.625ZM173.438 40.4688C173.844 41.0938 174.25 42.5938 173.875 43.4688C174.688 42.9688 175.844 41.7188 176.219 40.875C177.875 41.125 178.5 43.1563 176.938 44.0625C177.875 44.0625 179.562 44.0625 180.469 42.9688C179.344 41.7188 175.844 39.7813 173.438 40.4688Z" fill="white" stroke="black" stroke-width="0.4"/>
<path d="M148.406 34.6875C147.97 34.3506 147.453 34.1349 146.906 34.0625C144.469 33.5625 145.75 31.375 147.812 31.4063C152.25 26.5625 154.719 30.2813 160.125 28.7813C162 28.2188 163.312 28.375 164.312 28.8438C166.75 27.2188 169.562 27.6563 171.625 29.5625C171.833 29.2041 172.167 28.9365 172.562 28.8125C174.469 28.2813 176 29.875 176.531 31.9688C178 31.7188 179.688 32.4375 180.812 33.4375C182.344 32.6563 183.375 32.625 183.781 33.4375C185.156 32.8125 186.906 32.375 187.812 34.5625C188.719 36.75 185.719 36.0938 185.219 40.6875C184.906 43.5 181.781 44.625 179.281 42.9375C175.281 40.2188 171.375 39.8125 169.438 43.875C167.531 48 166 50.375 161.312 49.0313C160.339 48.8103 159.322 48.8857 158.392 49.2477C157.462 49.6097 156.662 50.2418 156.094 51.0625C154.719 52.9375 152.656 51.1875 150.156 51.375C153.281 50.9063 152.063 50.125 154.813 49.9375C157.313 49.7813 156.656 47.4375 158.25 47.125C152 48.7188 152.219 46.375 147.062 48C149.312 45.0938 152.875 46.7188 154.625 45.0313C149.969 44.9375 147.875 41.9063 145.781 43.1563C142.5 45.1875 143.906 50.9063 135.312 50.4063C131.125 50.1875 128.469 50.7188 126 53.2188C130.344 44.2188 136.25 49.1563 139.125 46.3125C140.617 44.9704 141.911 43.4238 142.969 41.7188C143.092 41.4714 143.268 41.2539 143.484 41.0812C143.7 40.9085 143.95 40.7849 144.219 40.7188C137.062 38.4688 141.406 34.9375 148.406 34.6875Z" fill="white" stroke="black" stroke-width="0.4"/>
<path d="M183.781 33.4062C183.875 33.6562 183.938 33.9688 183.938 34.3438C183.938 36.0938 181.281 36.1562 181.125 38.7812C181.031 40.1562 180.875 40.9062 179.969 40.75C179.031 40.5938 178.219 39.1562 179.094 37.4688" fill="white"/>
<path d="M183.781 33.4062C183.875 33.6563 183.938 33.9687 183.938 34.3438C183.938 36.0937 181.281 36.1562 181.125 38.7812C181.031 40.1562 180.875 40.9062 179.969 40.75C179.031 40.5938 178.219 39.1563 179.094 37.4688" stroke="black" stroke-width="0.4" stroke-linecap="round"/>
<path d="M149.75 32.0625C149.187 31.6504 148.51 31.4213 147.812 31.4062L149.75 32.0625ZM164.313 28.8125C166.438 29.75 167.469 31.9375 170.563 32.0625C173.563 32.1562 175.406 36.5 180.406 33.6563C180.53 33.5915 180.655 33.529 180.781 33.4687M171.625 29.5625C171.196 30.3433 171.042 31.2459 171.188 32.125L171.625 29.5625ZM161.875 38.6875C158.125 38.6875 157.125 40.5937 157.125 42.4375C157.125 44.3125 158.906 46.7188 162.031 46.7188C165.156 46.7188 166.875 44.7812 166.875 42.6875C166.875 40.5937 164.938 38.6563 161.875 38.6563V38.6875Z" fill="white"/>
<path d="M149.75 32.0625C149.187 31.6504 148.51 31.4213 147.812 31.4062M164.313 28.8125C166.438 29.75 167.469 31.9375 170.563 32.0625C173.563 32.1562 175.406 36.5 180.406 33.6563C180.53 33.5915 180.655 33.529 180.781 33.4687M171.625 29.5625C171.196 30.3433 171.042 31.2459 171.188 32.125M161.875 38.6875C158.125 38.6875 157.125 40.5937 157.125 42.4375C157.125 44.3125 158.906 46.7188 162.031 46.7188C165.156 46.7188 166.875 44.7812 166.875 42.6875C166.875 40.5937 164.938 38.6563 161.875 38.6563V38.6875Z" stroke="black" stroke-width="0.4"/>
<path d="M162.563 46.6251C162.5 45.5938 160.594 45.7501 160.688 44.9376C160.75 44.1251 161.719 43.8126 161.719 42.6876C161.719 41.5626 163.407 41.4688 163.969 42.3751C164.532 43.2501 166.219 44.9688 166.594 44.0938M163.969 42.3751C163.453 42.9249 163.155 43.6444 163.132 44.3983C163.109 45.1522 163.362 45.8885 163.844 46.4688M165.188 43.7188C164.875 44.3438 164.813 45.2813 165.157 45.8438L165.188 43.7188Z" fill="white"/>
<path d="M162.563 46.6251C162.5 45.5938 160.594 45.7501 160.688 44.9376C160.75 44.1251 161.719 43.8126 161.719 42.6876C161.719 41.5626 163.407 41.4688 163.969 42.3751M163.969 42.3751C164.532 43.2501 166.219 44.9688 166.594 44.0938M163.969 42.3751C163.453 42.9249 163.155 43.6444 163.132 44.3983C163.109 45.1522 163.362 45.8885 163.844 46.4688M165.188 43.7188C164.875 44.3438 164.813 45.2813 165.157 45.8438" stroke="black" stroke-width="0.4"/>
<path d="M180.219 40.7812C183.188 41.0312 183.656 37.75 181.469 37.5625M176.562 32C175.562 30.6875 173.188 30.25 173.125 33" stroke="black" stroke-width="0.4"/>
<path d="M172.875 36.1563C171.875 33.6563 169.281 33.3125 167.938 34.5625C166.781 35.5938 166.75 38.3125 169.188 38.875C170.062 37.8438 171.687 36.5313 172.875 36.1563ZM171.781 34.5938C170.312 33.3125 168.188 35.75 170.125 37.9688L171.781 34.5938ZM144.188 40.6875C145.188 40.4688 146.594 40.9375 148.781 41.9375C150.125 42.5938 154.25 43.9688 156.812 42.5938C154.156 43.5625 152.125 39.5625 150.125 40.0313C148.125 40.5313 144.437 41.2813 142.906 39.7813C146.656 40.0313 148.687 37.0313 153.031 39.625C154.259 40.3865 155.681 40.7771 157.125 40.75C153.594 36.5 148.937 39.2188 148.437 35.75C150.562 38.0625 155.781 35.25 158.437 39.5313M149.219 36.4063C148.719 35.7813 148.906 35.1563 148.406 34.6875L149.219 36.4063Z" fill="white"/>
<path d="M171.781 34.5938C170.312 33.3125 168.187 35.75 170.125 37.9688M144.188 40.6875C145.188 40.4688 146.594 40.9375 148.781 41.9375C150.125 42.5938 154.25 43.9688 156.812 42.5938C154.156 43.5625 152.125 39.5625 150.125 40.0313C148.125 40.5313 144.437 41.2813 142.906 39.7813C146.656 40.0313 148.687 37.0313 153.031 39.625C154.259 40.3865 155.681 40.7771 157.125 40.75C153.594 36.5 148.937 39.2188 148.437 35.75C150.562 38.0625 155.781 35.25 158.437 39.5313M149.219 36.4063C148.719 35.7813 148.906 35.1563 148.406 34.6875M172.875 36.1563C171.875 33.6563 169.281 33.3125 167.937 34.5625C166.781 35.5938 166.75 38.3125 169.187 38.875C170.062 37.8438 171.687 36.5313 172.875 36.1563Z" stroke="black" stroke-width="0.4"/>
<path d="M176.562 32C175.687 31.0625 173.75 31.7813 174.312 33.6875C174.517 33.2379 174.829 32.8458 175.222 32.546C175.614 32.2462 176.075 32.0479 176.562 31.9688V32ZM171.093 37.1563C171.632 36.7324 172.233 36.395 172.875 36.1563C172.629 35.5195 172.219 34.9589 171.687 34.5313C171.218 34.2188 169.906 36 171.093 37.125V37.1563Z" fill="black"/>
<path d="M168.719 33.8751C167.281 32.9063 165.938 33.0001 165.5 33.7813C164.469 33.7813 163.594 34.5313 163.563 36.0313M165.781 36.6876C164.063 35.5001 161.688 35.9376 161.844 38.5938M160.781 40.1251C161.625 39.4376 162.844 38.9376 163.781 40.1251M173.719 37.5001C173.406 37.9376 173.156 38.6251 173.688 39.6876C173.063 38.8126 171.438 38.8126 169.688 41.0626M177.531 37.3751C175.438 37.6251 175.5 39.0001 177.188 39.5626M162.656 32.2501C160.875 31.9063 159.594 32.9376 162.031 33.8126M166.031 31.0626C163.531 30.4376 162.531 31.0938 163.656 31.6876M158.813 41.0626C158.75 41.9688 159.219 43.1251 160.688 41.8126M159.313 43.7188C159.313 43.9688 159.281 44.2501 159.094 44.4688M153.5 31.9688C151.969 31.5001 151.688 30.0938 153.5 30.2188M153 35.2188C151.313 34.6251 151.313 33.0001 152.688 33.1563M156.125 34.3438C154.156 33.8751 154.094 32.5001 155.563 32.7188M156.375 30.1563C155.313 30.0938 153.719 31.2501 156.406 31.9376M159.313 32.5001C156.844 32.1563 156.906 33.1251 158.344 33.7813M161.156 30.1563C159.281 29.8126 158.625 30.9376 159.906 31.4063M155.219 37.1251C154.75 36.7501 154.375 34.9376 156.563 35.4688M159.781 36.5626C158.313 36.1563 156.906 37.6251 158.25 38.4376M161.75 34.8438C160.188 34.5313 158.875 35.0001 159.719 35.5626" stroke="black" stroke-width="0.4" stroke-linecap="round"/>
<path d="M176.5 32C176.027 32.0854 175.581 32.2833 175.2 32.577C174.82 32.8706 174.515 33.2515 174.312 33.6875" fill="white"/>
<path d="M176.5 32C176.027 32.0854 175.581 32.2833 175.2 32.577C174.82 32.8706 174.515 33.2515 174.312 33.6875" stroke="black" stroke-width="0.4"/>
</g>
<defs>
<clipPath id="clip0_1284_58729">
<rect width="250" height="150" fill="white"/>
</clipPath>
</defs>
</svg>
