<svg width="250" height="150" viewBox="0 0 250 150" fill="none" xmlns="http://www.w3.org/2000/svg">
<mask id="mask0_1284_58822" style="mask-type:luminance" maskUnits="userSpaceOnUse" x="0" y="0" width="250" height="150">
<path d="M0 0H250V150H0V0Z" fill="white"/>
</mask>
<g mask="url(#mask0_1284_58822)">
<path fill-rule="evenodd" clip-rule="evenodd" d="M0 6.10352e-05H250V150H0V6.10352e-05Z" fill="#000099"/>
<path fill-rule="evenodd" clip-rule="evenodd" d="M51.9336 6.10352e-05L239.086 150.088V0.0879517L51.9336 6.10352e-05Z" fill="#FFCC00"/>
<path fill-rule="evenodd" clip-rule="evenodd" d="M195.71 139.839L185.971 134.27L177.445 141.816L179.755 130.701L169.912 125.078L181.224 123.834L183.534 112.719L188.177 123.101L199.489 121.857L191.175 129.543L195.71 139.839ZM222.357 140.309L211.041 141.521L206.399 131.139L204.088 142.254L192.776 143.498L202.62 149.121L200.31 160.236L208.835 152.69L218.607 158.255L214.04 147.963L222.357 140.309ZM168.254 111.194L176.567 103.508L165.252 104.721L160.613 94.3707L158.303 105.485L146.987 106.697L156.83 112.32L154.524 123.467L163.046 115.889L172.821 121.487L168.254 111.194ZM145.178 92.6341L153.495 84.9804L142.179 86.1926L137.537 75.8103L135.194 86.9284L123.914 88.1694L133.758 93.7924L131.448 104.907L139.973 97.3611L149.713 102.93L145.178 92.6341ZM122.328 74.3432L130.642 66.6572L119.329 67.9018L114.716 57.4836L112.406 68.5981L101.093 69.8427L110.933 75.4333L108.627 86.5801L117.149 79.0021L126.924 84.5998L122.357 74.3074L122.328 74.3432ZM99.2268 55.8511L107.544 48.1973L96.2283 49.4096L91.5858 39.0273L89.2434 50.1453L77.9634 51.3863L87.8392 57.0058L85.5291 68.1203L94.0546 60.5745L103.794 66.1435L99.2591 55.8475L99.2268 55.8511ZM76.3985 37.4597L84.68 29.7772L73.3677 31.0218L68.754 20.6036L66.4151 31.754L55.1028 32.9985L65.0073 38.5821L62.6649 49.7001L71.1904 42.1544L80.901 47.7593L76.3985 37.4597ZM53.4374 19.0502L61.7189 11.3678L50.4065 12.6123L45.7929 2.19414L43.454 13.3445L32.1417 14.5891L42.0462 20.1726L39.675 31.3266L48.2293 23.7449L57.9399 29.3498L53.4374 19.0502ZM30.4763 0.640772L38.7254 -7.03815L27.4131 -5.79358L22.7706 -16.1759L20.4929 -5.06494L9.18055 -3.82038L19.0528 1.76672L16.7427 12.8812L25.2681 5.33546L34.9787 10.9403L30.4763 0.640772Z" fill="white"/>
</g>
</svg>
