<svg width="250" height="150" viewBox="0 0 250 150" fill="none" xmlns="http://www.w3.org/2000/svg">
<g clip-path="url(#clip0_1284_60443)">
<path fill-rule="evenodd" clip-rule="evenodd" d="M0 0H250V150H0V0Z" fill="#229E45"/>
<path fill-rule="evenodd" clip-rule="evenodd" d="M125.087 136.25L219.3 75.0938L124.525 13.75L30 75.2188L125.087 136.25Z" fill="#F8E509"/>
<path fill-rule="evenodd" clip-rule="evenodd" d="M166.147 75C166.147 96.9687 148.305 114.781 126.275 114.781C118.402 114.769 110.711 112.423 104.171 108.039C97.6322 103.656 92.5394 97.4315 89.5368 90.1538C86.5342 82.8761 85.7566 74.8715 87.3022 67.1519C88.8479 59.4323 92.6474 52.3443 98.2205 46.784C103.794 41.2236 110.89 37.4405 118.613 35.9129C126.336 34.3853 134.338 35.1818 141.608 38.2018C148.878 41.2217 155.09 46.3295 159.457 52.8793C163.825 59.4292 166.153 67.1271 166.147 75Z" fill="#2B49A3"/>
<path fill-rule="evenodd" clip-rule="evenodd" d="M113.182 98.8438L111.932 98.125L110.682 98.75L110.964 97.3438L109.964 96.2813L111.37 96.125L112.057 94.875L112.651 96.1875L114.026 96.4375L112.995 97.375M139.868 105.594L138.649 104.875L137.399 105.5L137.649 104.094L136.681 103.062L138.087 102.906L138.743 101.625L139.368 102.938L140.743 103.188L139.68 104.156M128.369 94.7812L127.306 94.1562L126.213 94.7188L126.463 93.5L125.588 92.5937L126.837 92.4688L127.4 91.3437L127.9 92.5L129.119 92.7188L128.181 93.5625M155.367 90.9062L154.304 90.2812L153.211 90.8438L153.461 89.625L152.617 88.75L153.836 88.625L154.398 87.5313L154.898 88.6563L156.086 88.875L155.179 89.6875M127.9 82.8125L126.65 82.125L125.4 82.75L125.65 81.3125L124.681 80.2812L126.088 80.125L126.744 78.8438L127.369 80.1563L128.744 80.4062L127.681 81.4063M94.9958 70.4688L93.7459 69.7813L92.496 70.4063L92.8085 68.9688L91.7773 67.9375L93.2147 67.7812L93.8397 66.5L94.4646 67.8125L95.8395 68.0625L94.8083 69.0312M98.9643 86.9063L97.7144 86.1875L96.4645 86.8125L96.7457 85.4062L95.7458 84.375L97.1519 84.1875L97.8081 82.9375L98.4331 84.25L99.808 84.5L98.7768 85.4688M140.024 64.4375L138.899 63.8125L137.774 64.375L138.024 63.125L137.149 62.1875L138.399 62.0313L138.993 60.9062L139.524 62.0938L140.774 62.3125L139.837 63.1563M137.743 75.125L136.899 74.625L135.993 75.0625L136.181 74.0625L135.493 73.3438L136.493 73.2188L136.962 72.3438L137.368 73.2813L138.305 73.4375L137.618 74.125M93.1835 89.875L92.3398 89.4063L91.4961 89.8125L91.6836 88.875L91.0273 88.1875L91.9648 88.0625L92.4023 87.2188L92.8085 88.0938L93.7459 88.2813L93.0272 88.9063M155.586 93.6875L154.898 93.3438L154.211 93.6563L154.367 92.9375L153.836 92.4375L154.586 92.3438L154.961 91.7188L155.273 92.3438L156.054 92.5L155.461 92.9688" fill="#FFFFEF"/>
<path fill-rule="evenodd" clip-rule="evenodd" d="M93.1835 89.875L92.3398 89.4063L91.4961 89.8125L91.6836 88.875L91.0273 88.1875L91.9648 88.0625L92.4023 87.2188L92.8085 88.0938L93.7459 88.2813L93.0272 88.9063M106.245 89.8438L105.433 89.4063L104.589 89.8125L104.776 88.875L104.12 88.1875L105.058 88.0625L105.495 87.2188L105.901 88.0938L106.839 88.25L106.12 88.9063M104.62 94.2188L103.808 93.75L102.964 94.1875L103.152 93.25L102.495 92.5313L103.433 92.4063L103.87 91.5625L104.276 92.4375L105.214 92.625L104.495 93.25M131.806 86.3125L130.993 85.8125L130.119 86.25L130.306 85.3125L129.681 84.5938L130.618 84.5L131.056 83.6563L131.431 84.5313L132.368 84.6875L131.681 85.3438M123.838 86.2813L122.994 85.8125L122.15 86.25L122.338 85.3125L121.713 84.5938L122.65 84.5L123.088 83.625L123.463 84.5313L124.4 84.6875L123.713 85.3438M102.214 83.5312L101.683 83.2187L101.152 83.4688L101.277 82.875L100.87 82.4375L101.464 82.375L101.714 81.8438L101.964 82.4063L102.558 82.5L102.12 82.9062M154.554 97.0938L153.742 96.625L152.898 97.0625L153.086 96.125L152.43 95.4062L153.367 95.2812L153.804 94.4375L154.211 95.3125L155.148 95.5L154.429 96.125M147.93 98L147.242 97.5625L146.524 97.9375L146.68 97.125L146.149 96.5625L146.93 96.4688L147.305 95.75L147.617 96.5L148.399 96.625L147.805 97.1875M151.055 97.9062L150.43 97.5313L149.773 97.8438L149.898 97.125L149.398 96.5938L150.117 96.5L150.461 95.875L150.773 96.5L151.492 96.6562L150.961 97.1562M160.054 90.0313L159.429 89.7188L158.804 90.0313L158.96 89.3125L158.46 88.7813L159.179 88.6875L159.492 88.0625L159.804 88.7188L160.46 88.8437L159.96 89.3438M147.836 102.406L147.055 101.969L146.211 102.344L146.399 101.469L145.774 100.844L146.711 100.75L147.117 99.9688L147.492 100.781L148.43 100.938L147.711 101.531M147.899 105.969L147.149 105.531L146.399 105.938L146.586 105.063L145.992 104.438L146.836 104.312L147.211 103.531L147.555 104.344L148.399 104.5L147.774 105.125M141.836 97.9062L141.243 97.5313L140.618 97.8438L140.743 97.1562L140.274 96.625L140.962 96.5625L141.274 95.9375L141.587 96.5625L142.274 96.6875L141.774 97.1875M136.212 97.9062L135.587 97.5313L134.962 97.8438L135.118 97.1562L134.618 96.625L135.337 96.5625L135.649 95.9375L135.962 96.5625L136.618 96.6875L136.118 97.1875M126.619 89.5L125.994 89.1562L125.369 89.4687L125.525 88.75L125.025 88.25L125.713 88.1563L126.025 87.5313L126.338 88.1563L127.025 88.3125L126.525 88.7813M127.681 106.594L127.181 106.313L126.619 106.594L126.744 105.969L126.338 105.531L126.931 105.469L127.212 104.937L127.462 105.5L128.056 105.594L127.619 106M113.182 78.9375L111.932 78.2188L110.682 78.8438L110.964 77.4375L109.964 76.4063L111.37 76.2188L112.057 74.9688L112.651 76.2813L114.026 76.5312L112.995 77.5" fill="#FFFFEF"/>
<path fill-rule="evenodd" clip-rule="evenodd" d="M163.522 89.3126C164.296 87.3037 164.903 85.2341 165.335 83.1251C144.149 64.5313 120.556 55.0001 90.7459 56.9688C89.6647 59.061 88.7757 61.2471 88.0898 63.5001C123.4 60.1251 149.336 75.7501 163.522 89.3126Z" fill="white"/>
<path d="M154.023 78.875L154.742 79.2812C154.635 79.4935 154.602 79.7355 154.648 79.9687C154.721 80.1949 154.878 80.3848 155.086 80.5C155.304 80.6563 155.523 80.75 155.711 80.7187C155.898 80.7187 156.023 80.625 156.117 80.5C156.171 80.417 156.194 80.317 156.179 80.2188C156.154 80.1033 156.1 79.996 156.023 79.9062C155.961 79.8125 155.804 79.5937 155.554 79.3437C155.297 79.0785 155.105 78.7578 154.992 78.4062C154.914 78.1402 154.934 77.855 155.049 77.6026C155.164 77.3502 155.365 77.1474 155.617 77.0312C155.844 76.9364 156.095 76.9145 156.336 76.9688C156.629 77.0364 156.906 77.1641 157.148 77.3438C157.586 77.6562 157.867 77.9687 157.96 78.3438C158.004 78.5191 158.009 78.7017 157.977 78.8794C157.945 79.0572 157.875 79.226 157.773 79.375L157.023 78.9062C157.117 78.7188 157.148 78.5312 157.086 78.375C157.054 78.2188 156.929 78.0625 156.711 77.9375C156.55 77.8084 156.354 77.732 156.148 77.7188C156.091 77.7168 156.035 77.7304 155.986 77.7579C155.936 77.7854 155.895 77.8259 155.867 77.875C155.804 77.9688 155.804 78.0625 155.836 78.1875C155.867 78.3125 156.023 78.5625 156.336 78.875C156.648 79.1875 156.836 79.4687 156.961 79.6562C157.072 79.8611 157.123 80.0936 157.106 80.3262C157.089 80.5589 157.006 80.7819 156.867 80.9688C156.721 81.1812 156.514 81.3446 156.273 81.4375C156.039 81.5454 155.777 81.5781 155.523 81.5312C155.242 81.4687 154.961 81.3438 154.648 81.125C154.179 80.8125 153.898 80.4687 153.805 80.0937C153.703 79.6685 153.77 79.2204 153.992 78.8438L154.023 78.875ZM150.398 76.5L151.18 76.9063C151.083 77.1221 151.061 77.364 151.117 77.5938C151.197 77.8082 151.353 77.9861 151.555 78.0937C151.805 78.25 151.992 78.3125 152.18 78.2812C152.367 78.2812 152.492 78.1875 152.586 78.0312C152.633 77.9569 152.655 77.8692 152.648 77.7812C152.648 77.6875 152.586 77.5625 152.492 77.4687C152.332 77.2755 152.165 77.0879 151.992 76.9063C151.648 76.5625 151.43 76.2813 151.367 76.0312C151.316 75.8704 151.301 75.7004 151.322 75.533C151.344 75.3657 151.402 75.2051 151.492 75.0625C151.611 74.8697 151.785 74.7172 151.992 74.625C152.207 74.526 152.446 74.4934 152.68 74.5312C152.969 74.5799 153.245 74.6862 153.492 74.8438C153.961 75.1562 154.242 75.4688 154.336 75.8125C154.393 75.9881 154.411 76.174 154.389 76.3574C154.368 76.5408 154.307 76.7174 154.211 76.875L153.43 76.4375C153.523 76.2188 153.555 76.0625 153.492 75.9062C153.43 75.75 153.305 75.5938 153.086 75.4688C152.913 75.3447 152.705 75.279 152.492 75.2812C152.441 75.2847 152.391 75.3008 152.348 75.328C152.304 75.3553 152.268 75.3929 152.242 75.4375C152.18 75.5312 152.18 75.625 152.211 75.75C152.242 75.875 152.43 76.125 152.742 76.4375C153.055 76.75 153.273 77 153.367 77.1875C153.492 77.3835 153.559 77.6112 153.559 77.8438C153.559 78.0763 153.492 78.304 153.367 78.5C153.232 78.718 153.037 78.8918 152.805 79C152.57 79.1079 152.308 79.1406 152.055 79.0938C151.733 79.0394 151.425 78.9226 151.148 78.75C150.745 78.5347 150.433 78.179 150.273 77.75C150.153 77.3328 150.198 76.8851 150.398 76.5ZM145.961 75.3125L148.242 71.5625L150.992 73.2812L150.617 73.9062L148.617 72.6562L148.117 73.5L149.992 74.6562L149.586 75.2812L147.711 74.125L147.086 75.1562L149.18 76.4062L148.805 77.0312L145.993 75.3125H145.961ZM139.493 70L139.837 69.375L141.524 70.2187L140.743 71.7812C140.493 71.8437 140.18 71.875 139.805 71.8437C139.445 71.8041 139.096 71.6981 138.774 71.5312C138.396 71.347 138.073 71.0669 137.837 70.7188C137.622 70.3953 137.513 70.0131 137.524 69.625C137.54 69.221 137.647 68.8258 137.837 68.4688C138.025 68.0929 138.304 67.7705 138.649 67.5313C138.98 67.3028 139.373 67.1827 139.774 67.1875C140.087 67.1875 140.399 67.2812 140.774 67.5C141.274 67.7188 141.587 68.0313 141.743 68.375C141.905 68.7162 141.939 69.1048 141.837 69.4688L140.993 69.2188C141.045 69.0094 141.022 68.7887 140.93 68.5938C140.837 68.4062 140.68 68.2813 140.43 68.1563C140.285 68.0731 140.123 68.0217 139.956 68.0056C139.789 67.9894 139.621 68.0088 139.462 68.0625C139.149 68.1563 138.868 68.4375 138.649 68.875C138.431 69.3125 138.337 69.7187 138.431 70.0625C138.474 70.2255 138.552 70.3771 138.66 70.5067C138.768 70.6363 138.903 70.7406 139.055 70.8125C139.212 70.9063 139.399 70.9688 139.587 70.9688C139.773 70.997 139.963 70.997 140.149 70.9688L140.399 70.4688L139.493 70ZM111.307 63.0312L111.932 58.6562L113.245 58.875L113.588 61.9375L114.807 59.125L116.12 59.3125L115.495 63.625L114.651 63.5L115.182 60.0938L113.807 63.375L112.963 63.25L112.62 59.7188L112.12 63.1563L111.307 63.0312ZM106.901 62.5L107.308 58.125L110.526 58.4375L110.464 59.1875L108.12 58.9687L108.026 59.9062L110.214 60.125L110.12 60.875L107.933 60.6563L107.839 61.8437L110.276 62.0625L110.214 62.8125L106.901 62.5Z" fill="#309E3A"/>
<path d="M92.3082 59.7812C92.3082 59.3125 92.402 58.9687 92.527 58.6562C92.6365 58.434 92.7846 58.233 92.9644 58.0625C93.1247 57.9008 93.316 57.7733 93.5269 57.6875C93.8394 57.5937 94.1518 57.5312 94.4643 57.5312C95.1205 57.5312 95.6205 57.7812 96.0267 58.1562C96.2201 58.3951 96.3639 58.6702 96.4497 58.9653C96.5356 59.2604 96.5617 59.5697 96.5267 59.875C96.5267 60.5625 96.308 61.125 95.9017 61.5312C95.693 61.7242 95.446 61.8712 95.1769 61.9627C94.9078 62.0542 94.6224 62.0882 94.3393 62.0625C94.06 62.0653 93.7831 62.0114 93.5252 61.904C93.2674 61.7965 93.0341 61.6378 92.8394 61.4375C92.4506 60.9772 92.2596 60.3818 92.3082 59.7812Z" fill="#309E3A"/>
<path d="M93.2148 59.7812C93.2148 60.25 93.3086 60.625 93.5273 60.9062C93.7461 61.1562 94.0273 61.3125 94.4023 61.3125C94.5645 61.3238 94.7272 61.2989 94.8786 61.2394C95.0299 61.1799 95.1661 61.0875 95.2772 60.9687C95.4959 60.7187 95.5897 60.3437 95.6209 59.8125C95.6209 59.3125 95.5584 58.9375 95.3085 58.6875C95.2067 58.5615 95.0782 58.4597 94.9323 58.3895C94.7864 58.3192 94.6267 58.2822 94.4648 58.2812C94.3004 58.276 94.1368 58.3068 93.9857 58.3716C93.8345 58.4364 93.6994 58.5335 93.5898 58.6562C93.3398 58.9062 93.2461 59.2812 93.2148 59.7812Z" fill="#F7FFFF"/>
<path d="M97.4648 62.0312L97.5273 57.6562H99.4022C99.8709 57.6562 100.183 57.7187 100.402 57.8125C100.621 57.875 100.777 58.0313 100.902 58.2188C101.027 58.4063 101.09 58.6563 101.09 58.9375C101.092 59.2381 100.98 59.5285 100.777 59.75C100.546 59.9664 100.249 60.0985 99.9334 60.125L100.402 60.5C100.527 60.625 100.683 60.875 100.871 61.2187L101.402 62.0937H100.34L99.7147 61.0938L99.2772 60.4688C99.2015 60.3828 99.1045 60.3181 98.996 60.2812C98.8539 60.2398 98.7066 60.2187 98.5585 60.2187H98.371V62.0312H97.4648Z" fill="#309E3A"/>
<path d="M98.4023 59.5313H99.0273C99.4648 59.5313 99.746 59.5313 99.8398 59.4688C99.9335 59.4688 100.027 59.375 100.09 59.3125C100.152 59.25 100.183 59.0938 100.183 59C100.183 58.8125 100.152 58.6875 100.058 58.625C99.996 58.5313 99.871 58.4688 99.746 58.4375H99.121L98.4023 58.4062V59.5V59.5313Z" fill="white"/>
<path d="M102.464 57.875L104.089 57.9688C104.432 57.9688 104.714 58 104.901 58.0625C105.144 58.1507 105.36 58.3017 105.526 58.5C105.706 58.7185 105.834 58.9749 105.901 59.25C105.995 59.5313 106.026 59.875 105.995 60.2812C105.995 60.6002 105.942 60.9169 105.839 61.2187C105.714 61.5312 105.526 61.7813 105.307 61.9688C105.125 62.1188 104.912 62.2256 104.682 62.2813C104.495 62.3438 104.214 62.3438 103.901 62.3438L102.245 62.25L102.464 57.875Z" fill="#309E3A"/>
<path d="M103.308 58.6562L103.151 61.5625H104.339C104.495 61.5625 104.62 61.5 104.714 61.4063C104.808 61.3125 104.901 61.1875 104.964 61C105.026 60.8125 105.089 60.5313 105.089 60.1875L105.057 59.4063C105.013 59.2415 104.927 59.0909 104.808 58.9688C104.704 58.8644 104.574 58.789 104.433 58.75C104.196 58.6974 103.956 58.666 103.714 58.6562H103.308Z" fill="white"/>
<path d="M123.899 65.6875L124.931 61.4375L126.305 61.75L127.305 62.0625C127.524 62.1875 127.712 62.375 127.805 62.6562C127.93 62.9062 127.93 63.1875 127.868 63.5312C127.805 63.7812 127.712 64 127.555 64.1562C127.441 64.2935 127.297 64.4038 127.135 64.4794C126.973 64.555 126.797 64.5941 126.618 64.5937C126.399 64.5937 126.087 64.5312 125.681 64.4375L125.149 64.2812L124.774 65.9062L123.899 65.6875Z" fill="#309E3A"/>
<path d="M125.587 62.375L125.337 63.5625L125.806 63.6875C126.118 63.75 126.368 63.8125 126.493 63.7812C126.615 63.7644 126.728 63.7102 126.818 63.6263C126.907 63.5424 126.968 63.4327 126.993 63.3125C126.993 63.1562 126.993 63.0312 126.931 62.9062C126.862 62.7792 126.752 62.6798 126.618 62.625L126.024 62.4687L125.618 62.375H125.587Z" fill="white"/>
<path d="M127.963 66.9063L129.432 62.7812L131.15 63.4062C131.619 63.5625 131.9 63.7188 132.088 63.8438C132.244 64 132.369 64.1563 132.4 64.4063C132.431 64.6563 132.463 64.875 132.4 65.125C132.275 65.4375 132.088 65.6563 131.838 65.8125C131.588 65.9375 131.275 65.9688 130.9 65.9062C131.025 66.0625 131.15 66.2188 131.213 66.4063L131.463 67.25L131.65 68.2188L130.681 67.875L130.369 66.75C130.312 66.4956 130.239 66.2451 130.15 66C130.109 65.9028 130.044 65.817 129.963 65.75C129.9 65.6562 129.775 65.5938 129.557 65.5313L129.4 65.4688L128.775 67.2188L127.963 66.9063Z" fill="#309E3A"/>
<path d="M129.65 64.8125L130.244 65.0312C130.65 65.1875 130.9 65.25 131.025 65.25C131.119 65.25 131.213 65.25 131.307 65.1562C131.4 65.0937 131.463 65 131.494 64.875C131.557 64.75 131.557 64.625 131.494 64.5C131.448 64.3789 131.359 64.2789 131.244 64.2187L130.619 64L129.994 63.7812L129.619 64.8125H129.65Z" fill="white"/>
<path d="M133.087 66.75C133.195 66.3841 133.375 66.0439 133.618 65.75C133.776 65.5615 133.967 65.4027 134.181 65.2812C134.375 65.1718 134.586 65.0978 134.806 65.0625C135.118 65.0625 135.431 65.0625 135.774 65.1875C136.054 65.2566 136.315 65.3843 136.542 65.5621C136.768 65.7399 136.954 65.9637 137.087 66.2187C137.337 66.7187 137.337 67.3125 137.149 68C136.995 68.5906 136.613 69.0961 136.087 69.4063C135.618 69.6875 135.056 69.7188 134.462 69.5313C134.184 69.4603 133.923 69.3319 133.697 69.1543C133.471 68.9767 133.284 68.7539 133.15 68.5C133.025 68.2268 132.955 67.9316 132.944 67.6312C132.933 67.3309 132.982 67.0314 133.087 66.75Z" fill="#309E3A"/>
<path d="M133.962 67.0001C133.837 67.4688 133.806 67.8751 133.962 68.1876C134.118 68.5001 134.337 68.6876 134.681 68.8126C134.993 68.9063 135.306 68.8751 135.618 68.6876C135.931 68.5313 136.118 68.1876 136.275 67.6876C136.431 67.2188 136.431 66.8438 136.275 66.5313C136.213 66.383 136.119 66.2502 136.001 66.1422C135.882 66.0342 135.741 65.9536 135.587 65.9063C135.433 65.8532 135.27 65.8341 135.108 65.8503C134.946 65.8665 134.79 65.9176 134.65 66.0001C134.337 66.1876 134.118 66.5001 133.962 67.0001Z" fill="white"/>
<path d="M141.618 72.8438L143.618 68.9688L145.274 69.8125C145.586 69.9623 145.871 70.163 146.118 70.4063C146.274 70.5625 146.368 70.75 146.368 71C146.368 71.25 146.368 71.4687 146.243 71.6875C146.123 71.9685 145.899 72.1923 145.618 72.3125C145.305 72.375 144.993 72.375 144.649 72.25C144.774 72.4375 144.837 72.625 144.899 72.7812C144.962 72.9687 144.993 73.25 145.024 73.6562L145.087 74.6562L144.149 74.1875L144.024 73.0312C144.009 72.7691 143.978 72.5082 143.931 72.25C143.909 72.1331 143.855 72.0247 143.774 71.9375L143.399 71.7188L143.243 71.625L142.399 73.25L141.618 72.8438Z" fill="#309E3A"/>
<path d="M143.556 71L144.149 71.3125C144.524 71.5 144.774 71.625 144.868 71.625C144.962 71.625 145.087 71.625 145.181 71.5625C145.274 71.5312 145.337 71.4375 145.399 71.3125C145.462 71.1875 145.493 71.0625 145.462 70.9375C145.423 70.8131 145.347 70.7038 145.243 70.625C145.06 70.5127 144.873 70.4085 144.681 70.3125L144.056 70L143.556 71Z" fill="white"/>
<path d="M157.804 80.8438C158.006 80.5225 158.272 80.246 158.585 80.0313C158.795 79.8967 159.028 79.8014 159.273 79.7501C159.499 79.7038 159.733 79.7038 159.96 79.7501C160.272 79.8126 160.554 79.9376 160.835 80.1251C161.078 80.2766 161.287 80.4771 161.448 80.7138C161.61 80.9505 161.72 81.2183 161.772 81.5001C161.866 82.0313 161.71 82.6251 161.335 83.2188C161.021 83.7352 160.516 84.1061 159.929 84.2501C159.649 84.3105 159.36 84.3111 159.08 84.2519C158.8 84.1926 158.535 84.0749 158.304 83.9063C158.061 83.7548 157.852 83.5543 157.69 83.3176C157.529 83.0808 157.419 82.813 157.366 82.5313C157.273 81.9688 157.429 81.4063 157.804 80.8438Z" fill="#309E3A"/>
<path d="M158.586 81.3438C158.273 81.75 158.179 82.125 158.242 82.4688C158.265 82.6271 158.321 82.7786 158.408 82.9133C158.494 83.048 158.608 83.1628 158.742 83.25C159.054 83.4688 159.367 83.5313 159.679 83.4375C159.992 83.3438 160.304 83.125 160.586 82.6875C160.867 82.25 160.992 81.875 160.929 81.5625C160.898 81.25 160.71 80.9688 160.429 80.75C160.148 80.5313 159.804 80.5 159.492 80.5938C159.179 80.6563 158.867 80.9063 158.554 81.3438H158.586Z" fill="white"/>
<path d="M118.963 63.9063L119.682 60.8438L121.931 61.375L121.838 61.875L120.182 61.5L120.025 62.1875L121.556 62.5313L121.431 63.0625L119.9 62.6875L119.713 63.5313L121.431 63.9375L121.306 64.4375L118.963 63.9063Z" fill="#309E3A"/>
<path fill-rule="evenodd" clip-rule="evenodd" d="M93.1835 89.875L92.3398 89.4062L91.4961 89.8125L91.6836 88.875L91.0273 88.1875L91.9648 88.0625L92.4023 87.2188L92.8085 88.0937L93.7459 88.2812L93.0272 88.9062" fill="#FFFFEF"/>
</g>
<defs>
<clipPath id="clip0_1284_60443">
<rect width="250" height="150" fill="white"/>
</clipPath>
</defs>
</svg>
