<svg width="250" height="150" viewBox="0 0 250 150" fill="none" xmlns="http://www.w3.org/2000/svg">
<g clip-path="url(#clip0_1284_60494)">
<path d="M0 0H250V150H0V0Z" fill="#F7E017"/>
<path d="M0 10.4062V77.0938L250 108.344V72.9062L0 10.4062Z" fill="white"/>
<path d="M0 45.8438V77.0938L250 139.594V108.344L0 45.8438Z" fill="black"/>
<path d="M119.941 118.625C116.286 118.222 112.77 116.997 109.655 115.042C109.156 114.709 108.698 114.417 108.614 114.417C108.531 114.417 108.489 114.813 108.489 115.271C108.489 116.605 107.948 117.271 106.616 117.625C105.325 117.959 103.368 117.292 101.785 115.959C100.285 114.674 98.5333 113.716 96.6425 113.146C94.6729 112.677 92.5998 112.944 90.8128 113.896C90.6362 114.021 90.4387 114.112 90.2298 114.167C90.0008 114.167 90.0216 112.73 90.2715 112.292C90.5838 111.667 91.3333 111.084 92.2286 110.771C92.6866 110.605 93.0614 110.396 93.0614 110.292C93.0614 110.209 92.8949 109.875 92.7075 109.542C92.1037 108.48 92.3535 107.459 93.4154 106.646C94.498 105.813 96.3302 105.688 97.9334 106.292C98.2043 106.408 98.4825 106.505 98.7662 106.584C98.9744 106.584 98.8495 106.271 98.2665 105.417C97.6003 104.438 97.4545 103.959 97.5378 102.771C97.595 102.044 97.9096 101.362 98.4248 100.846C98.94 100.331 99.6222 100.016 100.349 99.9587C101.556 99.8754 102.306 100.292 104.096 101.98C108.905 106.823 115.222 109.88 122.002 110.646C123.73 110.855 127.165 110.75 129.185 110.438C135.583 109.37 141.515 106.409 146.216 101.938C147.549 100.688 148.173 100.355 149.277 100.355C150.214 100.355 150.88 100.646 151.567 101.396C152.192 102.084 152.4 102.73 152.317 103.792C152.275 104.459 152.171 104.771 151.775 105.438C151.192 106.375 151.296 106.48 152.441 106.021C154.024 105.396 155.96 105.688 157.001 106.688C157.917 107.563 158.001 108.438 157.293 109.605C157.022 110.042 156.814 110.438 156.814 110.521C156.814 110.646 157.022 110.688 157.959 110.855C159.208 111.063 159.937 111.98 159.937 113.396C159.937 113.813 159.874 114.167 159.812 114.167C159.749 114.167 159.271 113.98 158.771 113.771C157.313 113.167 156.481 113.021 154.773 113.042C153.482 113.042 153.045 113.105 152.15 113.396C150.651 113.918 149.271 114.732 148.09 115.792C146.757 116.98 145.925 117.355 144.634 117.334C143.426 117.334 142.614 116.98 142.177 116.292C141.948 115.917 141.906 115.709 141.969 114.875C142.01 114.334 141.99 113.896 141.969 113.896C141.906 113.896 141.448 114.188 140.928 114.542C139.739 115.395 138.444 116.088 137.076 116.605C131.596 118.591 125.732 119.282 119.941 118.625Z" fill="#CF1126"/>
<path d="M122.148 109.355C118.12 108.984 114.218 107.757 110.703 105.756C107.188 103.755 104.14 101.025 101.765 97.7504C96.6843 90.8337 95.102 81.6878 96.6427 73.3336C97.4755 69.5211 99.1411 65.7086 101.952 63.0002C99.6347 67.812 98.9969 73.2622 100.141 78.4794C102.014 88.8545 110.759 97.6254 121.232 99.1462C125.396 100.334 129.664 99.0629 133.62 97.792C142.364 94.7087 149.027 86.417 149.818 77.1461C150.505 72.1461 149.756 66.9169 147.486 62.3544C148.777 63.0419 150.401 65.7294 151.359 67.5211C154.69 73.9794 154.836 81.7086 152.879 88.6045C150.214 97.3754 143.51 105.063 134.661 107.855C130.624 109.117 126.389 109.625 122.169 109.355H122.148Z" fill="#CF1126"/>
<path d="M81.6934 97.8338C81.1729 97.7504 80.59 98.2713 80.7982 98.8129C81.1729 99.3546 81.8392 99.6463 82.4222 99.8963C83.9582 100.496 85.607 100.752 87.2525 100.646C88.4598 100.647 89.6578 100.435 90.792 100.021C91.4166 99.813 92.2078 99.6046 92.4576 98.8963C92.7283 98.4588 92.2494 98.0004 91.8122 98.0838C91.1876 98.2296 90.563 98.5004 89.9384 98.6879C88.5654 99.0769 87.1342 99.218 85.7118 99.1046C84.6766 98.9539 83.6675 98.6594 82.7137 98.2296C82.3805 98.0838 82.0682 97.8754 81.6934 97.8338Z" fill="#CF1126"/>
<path d="M82.2758 95.667C81.7553 95.5836 81.2973 96.2086 81.5055 96.7086C81.9219 97.292 82.609 97.6045 83.2544 97.8753C84.3804 98.3172 85.5852 98.5228 86.7939 98.4795H87.1062C88.1342 98.4839 89.1529 98.2857 90.1044 97.8961C90.6665 97.667 91.3744 97.4378 91.6243 96.8128C91.8116 96.4586 91.6659 95.9586 91.2078 95.917C90.8331 95.917 90.4791 96.167 90.1044 96.2711C88.748 96.8316 87.2776 97.0601 85.8153 96.9378C84.8992 96.8336 84.0456 96.5003 83.2128 96.1045C82.9005 95.9586 82.6298 95.7295 82.2758 95.6878V95.667Z" fill="#CF1126"/>
<path d="M83.0052 93.6045C82.5472 93.542 82.2349 94.0628 82.3181 94.4587C82.3806 94.8337 82.6929 95.0837 82.9636 95.292C84.0972 96.0778 85.4589 96.466 86.8362 96.3962H87.1693C88.0351 96.3898 88.8886 96.1905 89.6678 95.8128C90.1883 95.6045 90.7921 95.3337 90.9795 94.7295C91.0627 94.4587 91.1044 94.0628 90.7921 93.8962C90.459 93.7295 90.1467 94.0003 89.8552 94.1045C88.8592 94.6281 87.753 94.9066 86.628 94.917C85.6624 94.8784 84.723 94.5914 83.9005 94.0837C83.5882 93.9378 83.3383 93.667 83.0052 93.6045Z" fill="#CF1126"/>
<path d="M75.3431 63.0002C74.6769 63.6877 75.1974 64.9377 75.1349 65.8127C75.5097 68.5627 75.9469 71.3336 76.9671 73.9377C78.2163 76.4377 80.8814 77.7919 82.4845 80.0211C83.0675 81.0836 82.8593 82.3753 82.9842 83.5628C83.0675 86.7503 83.0467 89.9586 82.9842 93.1462C84.4417 93.8962 86.0032 94.6045 87.6689 94.3337C88.6474 94.1045 90.4796 93.9587 90.6878 92.9795L90.4796 76.4169C89.9175 74.7294 88.1894 73.8544 86.9193 72.7711C85.8578 71.7225 84.8699 70.6018 83.9628 69.4169C83.4215 68.4794 81.277 68.1669 82.0473 69.7502C82.5054 71.1461 83.6505 72.1669 83.942 73.6252C84.0044 74.4377 84.983 75.9169 84.1502 76.3752C83.6372 75.4698 82.8599 74.7428 81.9224 74.2919C81.0063 73.6044 79.4864 73.3127 79.1533 72.1044C78.8533 70.3857 78.0572 68.7924 76.863 67.521C77.1753 65.9794 76.863 64.0419 75.5305 63.0418L75.3431 63.0002Z" fill="#CF1126"/>
<path d="M77.4041 63.3127C76.7794 63.4169 76.8211 64.1877 77.0917 64.6044C77.4004 65.5011 77.4791 66.461 77.3208 67.396C78.4625 68.6681 79.2268 70.2338 79.5277 71.9169C79.5277 72.5419 80.194 72.7502 80.6312 73.0627C81.6514 73.7086 82.7757 74.1877 83.6918 75.0002C83.8792 75.2086 84.025 75.4169 83.9 75.0002C83.7543 74.4586 83.6918 73.8752 83.2754 73.4794C82.6925 72.8544 81.9846 72.3127 81.1517 72.1461C81.0893 71.2711 80.6729 70.4794 80.2981 69.7294C79.8817 69.0002 79.4445 68.2294 78.7366 67.771C78.7366 66.5002 78.7366 65.1669 78.1952 63.9793C78.0287 63.6877 77.7788 63.3335 77.4041 63.3127Z" fill="#CF1126"/>
<path d="M79.1322 63.8127C78.7158 63.9377 78.799 64.4793 78.924 64.7919C79.1058 65.6965 79.1757 66.6201 79.1322 67.5419C79.9442 68.1669 80.423 69.0835 80.8811 69.9585C81.1726 70.5419 81.4224 71.1669 81.5265 71.8127C82.172 72.0211 82.7341 72.4377 83.2338 72.8544C83.0256 72.2711 82.6092 71.8127 82.2969 71.2502C81.9846 70.6877 81.6723 70.0835 81.5265 69.4377C80.9019 68.7919 80.5688 67.8544 80.6937 66.9377C80.7353 65.9585 80.423 64.9377 79.7568 64.1877C79.5902 64.021 79.382 63.8335 79.1322 63.8127Z" fill="#CF1126"/>
<path d="M81.11 64.1044C80.8602 64.146 80.7353 64.3544 80.6103 64.5419C80.5479 64.7294 80.7769 64.9169 80.8185 65.1252C81.0906 65.8129 81.1906 66.5567 81.11 67.2919C81.0892 67.8127 81.2766 68.3335 81.5264 68.7502C81.5732 68.5898 81.6683 68.4477 81.7987 68.3433C81.9291 68.2389 82.0885 68.1773 82.2552 68.1669C82.3593 68.1669 82.5466 68.2085 82.4634 68.021C82.3801 67.021 82.2343 66.021 81.8804 65.1044C81.7778 64.7433 81.5758 64.4184 81.2974 64.1669C81.2558 64.1252 81.1725 64.0835 81.0892 64.1044H81.11Z" fill="#CF1126"/>
<path d="M168.308 97.8337C168.828 97.7503 169.411 98.2712 169.203 98.8128C168.828 99.3545 168.162 99.6462 167.579 99.8962C166.043 100.496 164.394 100.752 162.748 100.646C161.541 100.646 160.343 100.435 159.209 100.021C158.584 99.8128 157.793 99.6045 157.543 98.8962C157.273 98.4587 157.752 98.0003 158.189 98.0837C158.813 98.2295 159.438 98.5003 160.063 98.6878C161.436 99.0768 162.867 99.2179 164.289 99.1045C165.324 98.9538 166.333 98.6593 167.287 98.2295C167.62 98.0837 167.933 97.8753 168.308 97.8337Z" fill="#CF1126"/>
<path d="M167.725 95.667C168.246 95.5836 168.704 96.2086 168.495 96.7086C168.079 97.292 167.392 97.6045 166.747 97.8753C165.621 98.3172 164.416 98.5228 163.207 98.4795H162.895C161.867 98.4839 160.848 98.2857 159.897 97.8961C159.334 97.667 158.627 97.4378 158.377 96.8128C158.189 96.4586 158.335 95.9586 158.793 95.917C159.168 95.917 159.522 96.167 159.897 96.2711C161.253 96.8316 162.723 97.0601 164.186 96.9378C165.102 96.8336 165.955 96.5003 166.788 96.1045C167.101 95.9586 167.371 95.7295 167.725 95.6878V95.667Z" fill="#CF1126"/>
<path d="M166.996 93.6044C167.454 93.5419 167.766 94.0627 167.683 94.4586C167.62 94.8336 167.308 95.0836 167.037 95.2919C165.904 96.0776 164.542 96.4659 163.165 96.3961H162.832C161.966 96.3897 161.112 96.1904 160.333 95.8127C159.813 95.6044 159.209 95.3336 159.022 94.7294C158.938 94.4585 158.897 94.0627 159.209 93.896C159.542 93.7294 159.854 94.0002 160.146 94.1044C161.142 94.628 162.248 94.9065 163.373 94.9169C164.339 94.8783 165.278 94.5913 166.1 94.0835C166.413 93.9377 166.663 93.6669 166.996 93.6044Z" fill="#CF1126"/>
<path d="M174.658 63.0001C175.324 63.6876 174.804 64.9376 174.866 65.8126C174.491 68.5626 174.054 71.3335 173.034 73.9377C171.785 76.4377 169.12 77.7919 167.516 80.021C166.933 81.0835 167.142 82.3752 167.017 83.5627C166.933 86.7502 166.954 89.9586 167.017 93.1461C165.559 93.8961 163.998 94.6044 162.332 94.3336C161.354 94.1044 159.521 93.9586 159.313 92.9794L159.521 76.4169C160.084 74.7293 161.812 73.8543 163.082 72.771C164.143 71.7224 165.131 70.6017 166.038 69.4168C166.579 68.4793 168.724 68.1668 167.954 69.7502C167.496 71.146 166.35 72.1668 166.059 73.6252C165.997 74.4377 165.018 75.9168 165.851 76.3752C166.364 75.4697 167.141 74.7428 168.079 74.2918C168.995 73.6043 170.515 73.3127 170.848 72.1043C171.148 70.3856 171.944 68.7923 173.138 67.521C172.826 65.9793 173.138 64.0418 174.47 63.0418L174.658 63.0001Z" fill="#CF1126"/>
<path d="M172.597 63.3126C173.222 63.4168 173.18 64.1876 172.909 64.6043C172.601 65.501 172.522 66.4609 172.68 67.396C171.538 68.6681 170.774 70.2337 170.473 71.9168C170.473 72.5418 169.807 72.7502 169.37 73.0627C168.35 73.7085 167.225 74.1877 166.309 75.0002C166.122 75.2085 165.976 75.4168 166.101 75.0002C166.247 74.4585 166.309 73.8752 166.726 73.4793C167.309 72.8543 168.016 72.3127 168.849 72.146C168.912 71.271 169.328 70.4793 169.703 69.7293C170.119 69.0001 170.557 68.2293 171.264 67.771C171.264 66.5001 171.264 65.1668 171.806 63.9793C171.972 63.6876 172.222 63.3335 172.597 63.3126Z" fill="#CF1126"/>
<path d="M170.869 63.8126C171.285 63.9376 171.202 64.4793 171.077 64.7918C170.895 65.6964 170.825 66.6201 170.869 67.5418C170.057 68.1668 169.578 69.0835 169.12 69.9585C168.828 70.5418 168.579 71.1668 168.474 71.8127C167.829 72.021 167.267 72.4377 166.767 72.8543C166.975 72.271 167.392 71.8127 167.704 71.2502C168.016 70.6877 168.329 70.0835 168.474 69.4377C169.099 68.7918 169.432 67.8543 169.307 66.9376C169.266 65.9585 169.578 64.9376 170.244 64.1876C170.411 64.021 170.619 63.8335 170.869 63.8126Z" fill="#CF1126"/>
<path d="M168.891 64.1043C169.141 64.146 169.266 64.3543 169.391 64.5418C169.453 64.7293 169.224 64.9168 169.182 65.1251C168.91 65.8128 168.81 66.5566 168.891 67.2918C168.912 67.8126 168.724 68.3335 168.475 68.7502C168.428 68.5897 168.333 68.4477 168.202 68.3433C168.072 68.2389 167.912 68.1773 167.746 68.1668C167.642 68.1668 167.454 68.2085 167.538 68.021C167.621 67.021 167.767 66.021 168.121 65.1043C168.223 64.7433 168.425 64.4184 168.704 64.1668C168.745 64.1251 168.828 64.0835 168.912 64.1043H168.891Z" fill="#CF1126"/>
<path d="M124.105 99.1045C122.699 98.9523 121.365 98.4006 120.262 97.5147C119.159 96.6287 118.333 95.4454 117.88 94.1044C117.942 93.6461 118.504 94.3544 118.775 94.4169C119.283 94.7198 119.852 94.9048 120.441 94.9586C121.17 95.2711 121.628 96.0003 122.335 96.3961C122.669 96.6461 123.835 97.1461 123.606 96.3336C123.335 95.917 123.147 95.3753 123.397 94.8753C123.772 94.0211 124.376 93.2711 125 92.5419C125.438 92.3961 125.75 93.2919 126.062 93.5836C126.5 94.2711 127.041 95.1044 126.77 95.9378C126.52 96.2503 126.354 97.1878 127.041 96.8961C127.874 96.5211 128.561 95.8961 129.248 95.3128C129.872 94.8961 130.643 94.8753 131.267 94.4794C131.58 94.4169 132.184 93.8336 132.308 94.1461C131.936 95.0774 131.415 95.9427 130.768 96.7086C129.767 97.8979 128.382 98.7009 126.854 98.9795C125.937 99.1461 125.021 99.1878 124.105 99.1045Z" fill="#CF1126"/>
<path d="M127.394 95.8128C127.456 95.2503 127.331 94.6878 127.04 94.1462C126.602 93.2712 125.999 92.4795 125.374 91.667C124.791 91.3336 124.479 92.4378 124.104 92.7503C123.5 93.6462 122.751 94.5628 122.709 95.667C122.376 96.1878 121.751 95.2503 121.481 94.9378C120.926 94.2241 120.632 93.3419 120.648 92.4378C120.598 90.9707 120.853 89.5092 121.397 88.1461C121.814 86.9795 122.459 85.8545 122.397 84.6044C122.438 83.6253 122.251 82.5836 121.481 81.9378C120.731 81.3544 121.96 81.2294 122.334 81.5211C123.001 81.5836 123.354 82.6669 123.958 82.3961C124.187 81.8336 124.25 81.1461 124.749 80.7086C125.228 80.0419 125.728 80.9794 125.895 81.4378C126.249 81.8128 125.895 82.7919 126.436 82.8128C127.102 82.3336 127.581 81.5628 128.435 81.3753C128.789 81.1669 129.372 81.3753 128.914 81.7503C128.289 82.3544 127.748 83.0836 127.623 83.9794C127.435 85.0836 127.706 86.2086 128.185 87.1878C129.122 89.1461 129.85 91.3545 129.372 93.542C129.163 94.5003 128.497 95.3337 127.706 95.8962C127.602 95.9587 127.435 95.9587 127.394 95.8128Z" fill="#CF1126"/>
<path d="M126.396 81.1044C126.115 80.5407 125.718 80.0434 125.23 79.646C124.73 79.646 124.418 80.271 124.085 80.6044C123.856 81.0419 123.564 81.771 122.981 81.2085C122.044 80.6669 121.898 79.4794 121.898 78.5002C121.836 76.9169 122.481 75.4377 123.044 74.0002C123.397 73.1043 123.314 72.0835 123.085 71.1668C122.815 70.1252 121.961 69.3751 121.315 68.5418C121.357 68.2293 122.19 68.396 122.502 68.4585C123.21 68.646 123.627 69.2501 124.147 69.7085C124.522 69.5835 124.355 68.8335 124.543 68.4793C124.543 67.9793 125.209 67.3335 125.48 68.0418C125.896 68.5001 125.48 69.396 126 69.6668C126.5 69.4793 126.75 68.9376 127.208 68.6876C127.447 68.5328 127.722 68.4418 128.006 68.4236C128.29 68.4054 128.575 68.4604 128.832 68.5835C129.019 69.0418 128.29 69.4168 128.082 69.8335C127.666 70.3529 127.377 70.9628 127.24 71.6142C127.103 72.2656 127.12 72.9401 127.291 73.5835C127.582 74.6252 128.082 75.5627 128.269 76.6044C128.494 77.7923 128.459 79.0149 128.165 80.1877C127.978 80.896 127.374 81.3544 126.75 81.646C126.583 81.5002 126.5 81.2919 126.396 81.1044Z" fill="#CF1126"/>
<path d="M123.251 68.0419C122.543 67.5211 122.314 67.0419 122.314 66.0627C122.314 65.5835 122.419 65.3127 122.731 64.8544C123.231 64.1877 123.147 63.9794 122.46 64.1669C121.357 64.4794 120.836 64.2085 120.795 63.271C120.795 62.8127 120.878 62.6252 121.482 61.8752C121.981 61.2919 122.169 60.9794 122.065 60.8752C121.961 60.7919 121.378 61.2919 120.191 62.5002C119.447 63.2853 118.654 64.0229 117.817 64.7085C115.777 66.0836 113.82 66.2919 112.924 65.2294C112.466 64.6877 112.487 64.396 113.008 64.0627C113.339 63.8386 113.646 63.5803 113.924 63.2919C114.944 62.3596 116.069 61.5486 117.276 60.8752C118.025 60.5002 118.192 60.2502 117.713 60.2502C117.089 60.2502 115.111 61.5419 113.591 62.9169C113.153 63.3335 112.508 63.7919 112.175 63.9585C111.248 64.2966 110.246 64.3688 109.281 64.1669C108.823 64.021 107.969 63.2294 107.969 62.9377C107.969 62.8752 108.177 62.7085 108.386 62.5627C108.725 62.3709 109.046 62.1477 109.343 61.896C110.551 60.8544 112.841 59.7502 114.653 59.3544C115.235 59.2502 115.006 58.9377 114.361 58.9793C112.45 59.3446 110.661 60.1825 109.156 61.4169C107.428 62.8544 104.825 62.7085 103.992 61.146C103.847 60.8752 103.743 60.6252 103.784 60.5835C105.259 60.211 106.685 59.6656 108.032 58.9585C109.192 58.2744 110.47 57.815 111.8 57.6043C112.383 57.5002 112.425 57.2085 111.863 57.146C111.113 57.0627 109.989 57.4377 108.011 58.396C105.45 59.6669 104.721 59.896 103.389 59.8127C102.139 59.7294 101.452 59.4169 100.474 58.4793C99.8075 57.8543 98.8914 56.2918 99.058 56.1043C100.139 56.3318 101.244 56.4227 102.348 56.3752C104.076 56.3752 104.555 56.3335 105.471 56.0627C107.26 55.4952 108.947 54.6441 110.468 53.5418C112.611 51.7278 115.323 50.7249 118.13 50.7085C120.711 50.7085 122.335 51.2918 123.793 52.771C124.292 53.271 124.709 53.5835 124.771 53.521C124.834 53.4585 124.896 52.5835 124.917 51.5835C124.917 51.5835 125.687 51.5001 125.854 51.7293C125.854 53.3335 125.854 53.4793 126.104 53.4793C126.25 53.4793 126.416 53.3127 126.52 53.0627C126.728 52.5418 127.561 51.8126 128.436 51.3543C130.31 50.4168 133.578 50.3751 136.202 51.2918C137.456 51.768 138.629 52.4356 139.679 53.271C141.21 54.349 142.895 55.1916 144.676 55.771C146.091 56.1877 148.632 56.2918 149.902 55.9793C150.273 55.8933 150.648 55.8238 151.026 55.771C151.505 55.771 150.693 57.3543 149.735 58.2918C147.986 60.0002 145.717 59.9794 142.531 58.271C140.532 57.1877 138.159 56.6043 138.159 57.1877C138.159 57.3127 138.284 57.396 138.471 57.396C139.158 57.396 140.491 57.8543 142.365 58.7502C143.542 59.4295 144.833 59.8884 146.175 60.1044C146.654 60.1044 146.674 60.4169 146.216 61.0835C145.738 61.7919 144.925 62.1252 143.78 62.1252C142.677 62.1252 142.052 61.896 141.074 61.0835C139.408 59.7085 135.327 58.1668 135.473 59.0002C135.515 59.146 135.702 59.2502 136.139 59.3127C137.898 59.695 139.544 60.4793 140.949 61.6044L142.177 62.5002C142.406 62.6252 142.406 62.6669 142.219 63.021C141.927 63.6044 141.136 64.0419 140.303 64.1252C139.221 64.2502 138.263 63.9169 137.284 63.0835C135.202 61.3544 133.266 60.1044 132.641 60.1044C132.121 60.1044 132.35 60.396 133.266 60.8752C134.451 61.5033 135.556 62.2728 136.556 63.1669C136.972 63.5627 137.451 63.9377 137.597 64.021C137.992 64.2294 137.971 64.521 137.555 65.0627C137.139 65.6044 136.431 65.8544 135.535 65.7502C133.745 65.5627 132.329 64.7085 130.122 62.4169C129.597 61.8304 129.026 61.287 128.415 60.7919C128.123 60.7919 128.311 61.1877 128.873 61.8335C129.581 62.6044 129.706 63.0419 129.435 63.7085C129.206 64.2502 128.81 64.396 128.019 64.1669C127.186 63.9585 127.062 64.1669 127.603 64.8127C128.394 65.8336 128.29 67.0419 127.291 67.8961C127.084 68.0953 126.844 68.2574 126.583 68.3752C126.499 68.3752 126.291 68.1669 126.104 67.8752C125.479 66.9169 124.917 66.9169 124.292 67.8752C124.161 68.0882 124.022 68.2966 123.876 68.5002C123.665 68.3509 123.457 68.1981 123.251 68.0419Z" fill="#CF1126"/>
<path d="M126.395 48.4792L125.312 49.3126L124.354 48.6042V54.3959H126.395V48.4792Z" fill="#CF1126"/>
<path d="M119.773 42.5C119.584 44.8423 118.948 47.1265 117.899 49.2292L120.21 47.0834L121.814 49.0001L123.563 47.0417L125.332 48.7084L127.04 46.9792L128.809 49.0626L130.35 47.3542L132.973 49.2292C132.016 47.1459 130.746 45.3542 130.891 42.3959C128.372 44.2709 122.355 44.6042 119.773 42.4792V42.5Z" fill="#CF1126"/>
<path d="M124.375 41.1042C123.438 41.1042 122.459 41.125 121.585 41.3125C121.006 41.4047 120.453 41.6177 119.961 41.9375C120.023 43.7292 128.497 44.4584 130.767 41.9792C130.256 41.6255 129.673 41.3906 129.059 41.2917C128.227 41.125 127.269 41.125 126.374 41.0834V42.5625H124.375V41.1042Z" fill="#CF1126"/>
<path d="M126.02 32.0209H124.708V42.3126H126.041L126.02 32.0209Z" fill="#CF1126"/>
<path d="M126.021 32.2708L125.521 37.2084L130.58 39.6875L128.019 36.25L131.517 35.1042L126.021 32.2708ZM125.458 31C124.688 31 124.126 31.2917 124.126 31.625C124.126 31.9583 124.688 32.25 125.458 32.25C126.229 32.25 126.791 31.9583 126.791 31.625C126.791 31.2917 126.229 31 125.458 31Z" fill="#CF1126"/>
<path d="M123.125 117.406C123.969 117.125 124.437 116.625 124.781 115.656C124.937 115.156 125.062 114.656 125.03 114.531C124.968 114.218 124.593 114.218 124.218 114.562C123.937 114.781 123.906 114.906 123.969 115.375C124.187 116.531 123.75 116.843 121.564 117.062C121.345 117.062 120.689 117.062 120.158 116.968C119.097 116.843 118.722 116.968 119.097 117.281C119.298 117.41 119.52 117.505 119.752 117.562C120.346 117.718 122.501 117.625 123.125 117.406ZM127.716 117.218C127.841 117.093 128.247 116.906 128.653 116.75C129.184 116.593 129.465 116.437 129.684 116.062C130.34 115.125 130.215 114.281 129.278 113.156C128.747 112.531 128.528 112.562 128.122 113.25C127.747 113.812 127.779 113.875 128.278 114C128.559 114.062 128.809 114.25 128.934 114.5C129.496 115.468 129.34 116.062 128.497 116.062C127.747 116.062 127.56 116.187 127.341 116.687L127.154 117.281C127.154 117.468 127.466 117.437 127.716 117.218ZM126.217 116.125C126.342 115.718 126.405 115.031 126.373 113.625C126.407 112.957 126.376 112.287 126.28 111.625C126.155 111.5 125.561 111.875 125.468 112.156C125.437 112.387 125.492 112.62 125.624 112.812C125.811 113.187 125.842 113.562 125.78 115C125.686 116.875 125.811 117.187 126.217 116.125Z" fill="#F7E017"/>
<path d="M122.689 115.25L122.908 113.687C122.939 113.156 123.064 112.5 123.126 112.219C123.345 111.5 123.126 111.312 122.564 111.719L122.158 112.031L122.22 113.062C122.314 114 122.158 115.719 121.939 116.406C121.877 116.594 121.971 116.531 122.22 116.25C122.408 116.031 122.626 115.562 122.689 115.219V115.25ZM119.566 115.75C120.315 115.125 120.222 114 120.409 113.125C120.409 112.531 120.784 111.844 120.534 111.312C119.816 111.437 119.378 112.125 119.753 112.781C119.753 113.562 119.753 114.406 119.347 115.094C119.035 115.562 117.973 115.437 118.036 114.781C118.285 113.844 117.13 114.312 116.693 114.562C116.349 114.812 115.6 114.844 115.881 114.25C115.693 113.406 114.663 113.937 114.101 113.937C113.57 113.937 114.069 112.844 113.289 113C111.883 112.906 110.322 113.031 109.072 112.187C108.354 111.844 108.448 110.969 108.854 110.406C109.291 109.656 109.416 108.687 110.103 108.094C110.821 107.437 109.478 107.719 109.166 107.937C108.479 108.312 109.104 109.281 108.541 109.812C108.229 110.375 107.792 111.125 107.042 111.031C105.949 110.812 105.325 109.781 104.544 109.156C103.857 109 104.232 110.219 104.606 110.469C105.299 110.986 106.083 111.368 106.917 111.594C107.729 111.437 107.761 112.531 108.479 112.687C109.728 113.312 111.165 113.469 112.57 113.562C113.132 113.594 112.82 114.594 113.538 114.375C113.944 114.5 114.881 114.219 114.913 114.687C114.288 115.437 115.506 115.406 115.943 115.312C116.537 115.187 117.255 115 117.411 115.75C117.879 116.281 118.754 116.187 119.347 115.906L119.566 115.75Z" fill="#F7E017"/>
<path d="M107.135 109.437C107.429 109.026 107.68 108.586 107.885 108.125C108.044 107.724 108.254 107.346 108.509 107C108.884 106.625 108.666 106.375 108.072 106.5C107.76 106.562 107.635 106.687 107.604 106.969C107.464 107.735 107.2 108.474 106.823 109.156C106.292 109.937 106.292 109.969 106.511 109.969C106.604 109.969 106.885 109.719 107.135 109.437ZM99.3276 104.531C98.7342 104.531 98.703 104.906 99.2651 105.094C99.5774 105.187 99.796 105.406 99.9834 105.812C100.514 106.906 100.858 107.125 102.326 107.25L103.263 107.312L103.325 107.906C103.325 108.219 103.419 108.469 103.481 108.469L104.293 108.156C104.98 107.781 105.636 106.969 105.636 106.437C105.636 106.125 105.074 105.75 104.574 105.75C104.356 105.75 103.95 105.937 103.606 106.187C102.544 106.937 101.42 106.812 100.795 105.812C100.327 105 99.796 104.562 99.3276 104.562V104.531ZM104.418 106.562C104.699 106.562 104.73 106.781 104.606 107.187C104.586 107.242 104.55 107.29 104.503 107.324C104.455 107.358 104.398 107.376 104.34 107.376C104.282 107.376 104.225 107.358 104.177 107.324C104.13 107.29 104.094 107.242 104.075 107.187C103.95 106.875 104.106 106.562 104.387 106.562H104.418ZM143.925 105.312C143.519 105.312 143.425 105.375 143.175 105.75C142.769 106.344 142.738 107.625 143.113 108.062C143.331 108.344 143.363 108.344 143.831 108.125C144.518 107.844 144.643 107.875 144.612 108.219C144.612 109.156 143.3 110.937 141.926 111.875C141.644 112.041 141.391 112.252 141.177 112.5C141.083 112.75 141.583 112.719 142.207 112.375C143.241 111.781 144.094 110.917 144.674 109.875C145.018 109.156 145.08 108.937 145.143 107.687C145.143 106.5 145.143 106.125 144.955 105.75C144.706 105.312 144.643 105.281 144.081 105.281H143.925V105.312ZM143.956 106.094C144.268 106.094 144.268 106.156 144.331 106.594C144.331 106.906 144.3 107.125 144.112 107.312C143.862 107.531 143.8 107.531 143.613 107.187C143.3 106.687 143.488 106.094 143.956 106.094ZM137.647 115C138.865 114.375 139.584 113.719 140.021 112.75C140.183 112.439 140.319 112.115 140.427 111.781C140.427 111.594 139.834 111.312 139.49 111.312C139.147 111.312 139.053 111.062 139.178 110.375C139.334 109.719 139.178 108.875 138.865 108.875C138.772 108.875 138.553 109.031 138.459 109.219C138.272 109.531 138.241 109.656 138.397 110.062C138.616 110.687 138.428 111.187 137.866 111.594C137.585 111.781 137.46 112 137.46 112.219L137.491 112.531L138.147 112.219L138.772 111.844L139.115 112.156C139.334 112.281 139.49 112.531 139.49 112.687C139.49 113.437 137.366 114.687 135.93 114.812C135.149 114.875 134.993 114.812 134.743 114.562C134.524 114.344 134.462 114.156 134.524 113.937L134.681 113.125C134.806 112.469 134.556 112.562 134.056 113.312C133.681 113.937 133.556 114.594 133.775 114.937C133.962 115.25 135.149 115.5 136.024 115.437C136.554 115.437 137.085 115.281 137.647 115ZM145.767 110.469C146.517 109.687 146.861 108.75 146.861 107.344V106.25L147.485 105.937C148.328 105.562 149.109 104.781 149.109 104.344C149.109 103.906 148.891 103.906 148.547 104.406C148.266 104.75 147.922 104.969 146.673 105.562C146.361 105.687 146.33 105.781 146.236 107.125C146.173 108.687 145.924 109.25 145.08 110.312C144.549 110.937 144.518 111.062 144.893 111.062C145.049 111.062 145.455 110.781 145.767 110.437V110.469ZM137.429 109.594C137.491 109.375 137.054 109.219 136.898 109.406C136.804 109.469 136.773 109.594 136.835 109.687C136.96 109.875 137.335 109.812 137.429 109.594ZM148.922 106.625C149.015 106.375 148.578 106.219 148.391 106.406C148.328 106.5 148.297 106.625 148.36 106.719C148.485 106.906 148.859 106.844 148.922 106.625ZM135.087 98.531C134.774 98.6873 134.618 98.9998 134.431 99.2498C134.275 99.3435 134.4 99.4373 134.462 99.5623C134.993 100.094 135.212 100.875 135.461 101.594C135.711 102.437 136.024 103.344 135.774 104.219C135.68 104.531 135.399 104.875 135.024 104.781C134.4 104.75 133.775 104.562 133.15 104.562C132.557 104.594 132.12 105.125 131.558 105.062C131.183 105.062 131.183 104.312 130.87 104.531C130.683 104.937 130.777 105.375 130.746 105.781C130.808 105.875 130.995 105.812 131.089 105.844H132.245C132.307 106.219 132.307 106.687 132.557 107C132.963 107.125 133.431 107 133.806 106.844C134.181 106.656 134.243 106.187 134.368 105.812C134.493 105.406 134.993 105.5 135.305 105.344C135.681 105.226 136.007 104.988 136.233 104.666C136.459 104.344 136.572 103.956 136.554 103.562C136.492 102.344 136.055 101.25 135.68 100.125C135.524 99.6248 135.399 99.0935 135.212 98.5935L135.087 98.531ZM133.213 105.344C133.619 105.344 133.806 105.844 133.712 106.187C133.556 106.656 132.963 106.375 132.869 106.031C132.651 105.719 132.776 105.312 133.182 105.344H133.213Z" fill="#F7E017"/>
<path d="M117.504 101.437C117.317 101.437 117.098 101.5 116.879 101.656C115.786 102.437 115.474 103.344 116.255 103.719C116.786 103.969 116.661 104.281 115.786 104.719C114.537 105.344 113.444 105.25 111.352 104.406C110.852 104.187 110.727 104.281 110.821 104.719C110.946 105.187 111.383 105.437 112.413 105.656C113.538 105.969 114.912 105.875 115.786 105.5C116.3 105.238 116.756 104.877 117.129 104.437L117.816 103.719L118.597 103.812C119.565 103.937 119.597 103.937 119.597 104.406C119.597 104.781 119.597 104.781 120.502 104.875L121.97 104.937C122.376 104.937 122.595 105.031 122.72 105.219C122.907 105.437 123.001 105.469 124.468 105.344C125.843 105.219 126.092 105.219 126.717 105.437C127.154 105.562 127.654 105.625 127.998 105.594C129.059 105.469 130.496 104.625 130.715 104C130.715 103.906 131.121 103.781 131.558 103.687C132.62 103.469 132.651 103.25 131.683 103.125C131.193 103.06 130.712 102.945 130.246 102.781C129.898 102.633 129.529 102.539 129.153 102.5C128.622 102.5 128.122 102.812 128.122 103.187C128.122 103.406 128.185 103.437 128.841 103.375C129.403 103.312 129.59 103.344 129.903 103.594C130.121 103.75 130.246 103.937 130.215 104C130.059 104.25 128.81 104.812 128.279 104.906C127.958 104.959 127.628 104.904 127.342 104.75C126.842 104.5 126.155 104.469 125.999 104.687C125.936 104.781 125.811 104.719 125.593 104.531L125.28 104.219L124.531 104.531C123.781 104.844 123.5 104.844 123.5 104.469C123.5 104.312 123.282 104.281 122.189 104.375C120.971 104.437 120.846 104.406 120.627 104.156C120.409 103.937 120.409 103.844 120.565 103.625C120.69 103.375 120.69 103.312 120.565 103.156C120.44 103.031 120.252 103.031 119.784 103.156C118.566 103.469 118.222 103.312 118.222 102.375C118.222 101.781 117.91 101.437 117.504 101.437ZM117.192 102.312C117.254 102.312 117.317 102.344 117.41 102.437C117.504 102.531 117.567 102.75 117.504 102.844C117.41 103.125 116.879 103.125 116.786 102.844C116.723 102.687 116.786 102.531 116.942 102.437L117.192 102.312Z" fill="#F7E017"/>
<path d="M115.005 103.187C115.755 102.719 115.755 102.75 115.849 101.469C115.911 100.531 115.911 100.469 115.661 100.469C115.286 100.469 115.099 100.875 115.099 101.625C115.099 102.125 115.037 102.344 114.787 102.562C114.162 103.187 112.663 102.906 112.444 102.156C112.382 101.906 112.476 101.656 112.788 101.219C113.444 100.281 113.319 100.031 112.476 100.75C111.945 101.25 111.851 101.25 111.945 100.844C112.038 100.437 111.851 100.281 111.383 100.406C111.164 100.469 111.008 100.594 110.977 100.906C110.914 101.156 110.789 101.312 110.571 101.375C110.196 101.469 109.571 101.125 109.571 100.812C109.571 100.594 110.508 99.4373 111.726 98.1873C112.163 97.7185 112.538 97.2498 112.538 97.2185C112.538 97.156 112.288 97.0935 112.007 97.0935C111.57 97.0935 111.445 97.156 111.445 97.3435C111.445 97.4685 110.852 98.281 110.102 99.1248C108.541 100.875 108.416 101.219 109.165 101.687C109.477 101.88 109.839 101.976 110.205 101.965C110.572 101.954 110.927 101.836 111.226 101.625L111.726 101.281V101.906C111.726 102.687 111.882 103 112.507 103.312C112.898 103.513 113.334 103.607 113.773 103.585C114.212 103.563 114.637 103.426 115.005 103.187ZM147.61 92.3748C147.048 92.7185 147.485 93.4373 147.61 93.9373C147.36 94.5623 146.517 94.7498 145.892 94.8748C145.018 95.031 144.393 95.7498 144.081 96.531C143.894 97.031 143.456 97.781 142.988 97.031C142.582 96.6248 141.832 96.281 141.364 96.781C140.989 97.1248 140.896 97.6248 140.739 98.0935C140.521 97.7498 140.427 97.2185 139.99 97.0935C139.24 97.1873 139.521 98.1248 139.865 98.4998C140.177 98.9685 140.49 99.531 140.177 100.062C139.865 100.687 138.928 101.125 138.397 100.594C137.897 100.312 138.241 99.3435 137.71 99.281C137.46 99.4685 137.46 100.5 137.054 99.9373C136.742 99.4685 136.929 98.8123 136.554 98.406C136.148 98.4685 135.805 99.1873 135.93 99.5623C136.492 100.312 136.742 101.25 136.96 102.156C137.085 102.531 136.929 103.25 137.273 103.406C137.491 102.812 137.273 102.156 137.46 101.562C138.022 101.5 138.616 101.75 139.178 101.625C140.021 101.531 140.646 100.812 140.927 100.094C141.02 99.531 140.927 98.9685 140.896 98.406C141.52 98.531 142.207 98.531 142.832 98.7185C143.144 99.1873 142.738 99.8748 142.644 100.375C142.332 101.437 141.489 102.187 140.708 102.875C140.365 103.094 140.333 103.625 140.802 103.344C141.87 102.836 142.707 101.943 143.144 100.844C143.488 100.031 143.207 99.1248 143.456 98.3123C143.769 97.6873 144.55 97.8123 145.143 97.8123C145.736 97.8123 146.236 97.0935 146.049 96.4998C145.861 95.8123 146.58 95.4998 147.048 95.2498C147.704 94.9373 148.203 94.281 148.141 93.531C148.141 93.1248 148.141 92.406 147.61 92.3748ZM145.33 96.281C146.017 96.4685 145.205 97.781 144.831 96.9373C144.706 96.6248 144.987 96.281 145.33 96.281ZM142.114 97.2185C143.019 97.1873 142.676 98.4685 141.926 97.906C141.52 97.6873 141.645 97.2185 142.114 97.2185ZM109.384 102.312C109.384 102.187 109.321 102.094 109.196 102.094C108.978 102.094 108.822 102.312 108.915 102.5C109.04 102.719 109.321 102.594 109.384 102.312ZM120.002 101.187C120.002 100.969 119.909 100.906 119.752 100.937C119.409 101 119.346 101.469 119.721 101.469C119.909 101.469 120.002 101.375 120.002 101.156V101.187ZM106.885 94.8123C106.479 94.7185 106.198 95.0935 106.042 95.4373C105.73 95.9685 105.355 96.4998 104.793 96.781C104.387 96.906 103.95 96.7498 103.575 96.531C103.169 96.3123 103.263 95.8123 103.075 95.4685C102.763 95.2185 102.232 95.5623 102.263 95.9373C102.232 96.4373 102.669 96.7185 103.075 96.906C103.388 97.1248 103.887 97.2185 104.012 97.6248C104.012 97.9685 104.137 98.3748 104.543 98.2498C105.012 98.2498 105.168 98.8123 104.949 99.156C104.74 99.5371 104.664 99.9766 104.731 100.406C104.949 100.625 105.168 100.094 105.355 99.9685L105.667 99.531C106.511 99.5623 107.323 99.6873 108.166 99.656C108.79 99.656 109.259 99.281 109.634 98.8435C110.196 98.281 110.633 97.6248 111.226 97.156C111.664 97.031 111.445 96.2185 110.977 96.4685C110.571 96.6248 110.446 97.0935 110.165 97.3748C109.709 97.9754 109.185 98.5207 108.603 98.9998C108.135 99.1873 107.635 99.0935 107.167 98.9998C106.979 98.8435 107.541 98.6873 107.635 98.4998C107.885 98.2498 108.197 97.9998 108.353 97.656C108.197 97.3435 107.76 97.3435 107.448 97.3435C106.698 97.406 106.105 98.0623 105.324 98.1248C104.731 98.1248 105.043 97.4998 105.324 97.281C105.824 96.656 106.386 96.0935 106.917 95.4998C107.073 95.3123 107.635 95.1248 107.291 94.8748C107.166 94.8123 107.01 94.8123 106.885 94.8123ZM107.26 97.9373C107.666 98.156 107.01 98.4998 106.761 98.4685C106.417 98.5623 106.386 98.2185 106.698 98.156C106.885 98.031 107.073 97.9373 107.26 97.9373ZM106.073 98.7498C106.292 98.7498 106.761 98.9685 106.323 99.0935C106.011 99.3435 105.699 98.8435 106.073 98.7498Z" fill="#F7E017"/>
<path d="M115.443 99.2498C115.443 98.9373 114.943 98.9998 114.881 99.3123C114.818 99.4998 114.881 99.531 115.13 99.4998C115.318 99.4998 115.443 99.3748 115.443 99.2498ZM138.772 97.1873C138.834 96.906 138.46 96.7185 138.241 96.9373C138.022 97.1248 138.241 97.531 138.491 97.4685C138.616 97.4685 138.741 97.3123 138.803 97.1873H138.772ZM102.513 94.3435C102.857 94.031 102.888 93.9998 102.732 93.3123C102.482 92.3435 102.513 92.2185 102.888 92.1248C103.357 92.031 104.543 92.656 104.762 93.156C105.012 93.5623 104.981 93.5935 104.637 93.906C104.262 94.2498 104.262 94.656 104.637 94.656C104.949 94.656 105.793 93.8435 105.793 93.5623C105.793 93.156 104.856 92.1873 104.106 91.8435C103.656 91.6339 103.166 91.5272 102.669 91.531C101.701 91.531 101.576 91.7498 101.826 92.8435C102.139 94.156 101.733 94.3435 100.671 93.3435C100.293 93.0109 99.9975 92.595 99.8078 92.1286C99.6181 91.6622 99.5393 91.1581 99.5776 90.656C99.5776 89.406 100.077 88.7498 101.17 88.5935C101.92 88.4998 101.889 88.3123 101.17 88.2185C100.046 88.031 99.1092 88.781 98.7656 90.0935C98.3597 91.5623 99.2653 93.3435 100.858 94.2498C101.701 94.7185 102.014 94.7498 102.513 94.3435ZM145.986 92.7185C146.08 92.656 146.142 92.4373 146.142 92.281C146.142 92.1248 146.299 91.781 146.486 91.531C146.673 91.281 146.798 91.031 146.798 90.9685C146.798 90.7185 146.392 90.7185 146.08 90.9685C145.736 91.2498 145.455 91.281 145.455 90.9685L145.83 90.6873C146.33 90.4685 146.361 90.2185 145.955 90.031C145.424 89.781 144.862 90.2185 144.831 90.9685C144.8 91.4685 144.831 91.531 145.206 91.7498C145.549 91.9685 145.612 92.0623 145.549 92.3748C145.455 92.8748 145.674 93.0623 145.986 92.7185ZM150.046 92.281C150.359 91.9685 150.608 91.6873 150.608 91.5935C150.608 91.4998 150.889 91.2185 151.202 90.9685C152.076 90.3435 152.295 89.7185 151.889 88.6873C151.733 88.281 151.264 87.7498 150.171 86.8123C149.673 86.2803 149.106 85.8178 148.485 85.4373C148.204 85.4373 148.266 86.4998 148.547 86.5935C149.078 86.781 149.422 86.9998 150.234 87.7498C151.233 88.6248 151.67 89.4685 151.42 89.9373C151.202 90.3748 150.889 90.2498 150.015 89.3123C149.732 88.9596 149.394 88.6537 149.016 88.406C148.922 88.406 148.86 88.5935 148.86 88.8435C148.86 89.156 149.016 89.4685 149.484 89.9373C150.202 90.7498 150.265 91.2185 149.703 91.656C149.576 91.7847 149.428 91.8904 149.266 91.9685C148.552 90.7458 147.595 89.6823 146.455 88.8435C146.361 88.8435 146.299 88.9685 146.299 89.281C146.299 89.6873 146.361 89.8123 146.673 89.9685C147.494 90.5992 148.229 91.3346 148.86 92.156L149.422 92.781C149.655 92.6354 149.865 92.4564 150.046 92.2498V92.281ZM151.92 87.031C151.764 86.656 149.297 84.0935 149.016 84.0935C148.891 84.0935 148.86 84.2498 148.891 84.656C148.891 85.156 148.984 85.2185 149.328 85.3123C149.861 85.6245 150.345 86.0141 150.765 86.4685C151.104 86.8337 151.493 87.1493 151.92 87.406V87.031ZM136.992 115.969C137.009 116.015 137.012 116.064 137.002 116.112C136.992 116.16 136.968 116.206 136.933 116.245C136.898 116.284 136.853 116.315 136.801 116.337C136.749 116.359 136.691 116.37 136.633 116.37C136.574 116.37 136.517 116.359 136.465 116.337C136.412 116.315 136.367 116.284 136.332 116.245C136.297 116.206 136.274 116.16 136.264 116.112C136.254 116.064 136.257 116.015 136.274 115.969C136.257 115.922 136.254 115.873 136.264 115.825C136.274 115.777 136.297 115.732 136.332 115.692C136.367 115.653 136.412 115.622 136.465 115.6C136.517 115.578 136.574 115.567 136.633 115.567C136.691 115.567 136.749 115.578 136.801 115.6C136.853 115.622 136.898 115.653 136.933 115.692C136.968 115.732 136.992 115.777 137.002 115.825C137.012 115.873 137.009 115.922 136.992 115.969ZM138.304 115.531C138.304 115.572 138.294 115.613 138.275 115.651C138.256 115.689 138.229 115.723 138.194 115.752C138.159 115.781 138.118 115.804 138.072 115.82C138.027 115.835 137.978 115.844 137.929 115.844C137.88 115.844 137.831 115.835 137.785 115.82C137.74 115.804 137.699 115.781 137.664 115.752C137.629 115.723 137.601 115.689 137.583 115.651C137.564 115.613 137.554 115.572 137.554 115.531C137.554 115.49 137.564 115.449 137.583 115.411C137.601 115.373 137.629 115.339 137.664 115.31C137.699 115.281 137.74 115.258 137.785 115.242C137.831 115.227 137.88 115.219 137.929 115.219C137.978 115.219 138.027 115.227 138.072 115.242C138.118 115.258 138.159 115.281 138.194 115.31C138.229 115.339 138.256 115.373 138.275 115.411C138.294 115.449 138.304 115.49 138.304 115.531Z" fill="#F7E017"/>
</g>
<defs>
<clipPath id="clip0_1284_60494">
<rect width="250" height="150" fill="white"/>
</clipPath>
</defs>
</svg>
