<svg width="250" height="150" viewBox="0 0 250 150" fill="none" xmlns="http://www.w3.org/2000/svg">
<g clip-path="url(#clip0_1284_60552)">
<mask id="mask0_1284_60552" style="mask-type:luminance" maskUnits="userSpaceOnUse" x="0" y="0" width="251" height="150">
<path d="M0.0214844 0H250.021V150H0.0214844V0Z" fill="white"/>
</mask>
<g mask="url(#mask0_1284_60552)">
<path fill-rule="evenodd" clip-rule="evenodd" d="M-32.0293 0L125.04 75L-32.0293 150V0ZM282.11 0L125.04 75L282.11 150V0Z" fill="#18B637"/>
<path fill-rule="evenodd" clip-rule="evenodd" d="M-32.0293 0L125.04 75L282.11 0H-32.0293ZM-32.0293 150L125.04 75L282.11 150H-32.0293Z" fill="#CF0921"/>
<path fill-rule="evenodd" clip-rule="evenodd" d="M282.11 0H252.842L-32.0293 136.025V150H-2.7619L282.11 13.9746V0Z" fill="white"/>
<path fill-rule="evenodd" clip-rule="evenodd" d="M168.73 75C168.73 86.5035 164.161 97.5359 156.029 105.67C147.896 113.804 136.866 118.374 125.365 118.374C113.864 118.374 102.834 113.804 94.7013 105.67C86.5688 97.5359 82 86.5035 82 75C82 63.5004 86.5673 52.4718 94.697 44.3403C102.827 36.2088 113.853 31.6406 125.35 31.6406C136.848 31.6406 147.874 36.2088 156.004 44.3403C164.133 52.4718 168.701 63.5004 168.701 75H168.73Z" fill="white"/>
<path fill-rule="evenodd" clip-rule="evenodd" d="M-32.0293 0V13.9746L252.842 150H282.11V136.025L-2.7619 0H-32.0293Z" fill="white"/>
<path fill-rule="evenodd" clip-rule="evenodd" d="M133.012 58.6523L127.356 58.7402L124.426 63.5449L121.525 58.7402L115.9 58.623L118.625 53.6719L115.929 48.75L121.555 48.6328L124.485 43.8281L127.386 48.6621L133.012 48.7793L130.287 53.7012L133.012 58.6523ZM114.083 91.3477L108.457 91.4356L105.527 96.2402L102.626 91.4356L97 91.3184L99.725 86.3672L97.0293 81.4453L102.655 81.3281L105.585 76.5234L108.486 81.3574L114.112 81.4746L111.387 86.3965L114.083 91.3477ZM152.351 91.3477L146.725 91.4356L143.795 96.2402L140.864 91.4356L135.268 91.3184L137.993 86.3672L135.268 81.4453L140.894 81.3281L143.824 76.5234L146.754 81.3574L152.38 81.4746L149.626 86.3965L152.351 91.3477Z" fill="#CF0921" stroke="#18B637" stroke-width="1.2"/>
</g>
</g>
<defs>
<clipPath id="clip0_1284_60552">
<rect width="250" height="150" fill="white"/>
</clipPath>
</defs>
</svg>
