<svg width="250" height="150" viewBox="0 0 250 150" fill="none" xmlns="http://www.w3.org/2000/svg">
<g clip-path="url(#clip0_1284_63474)">
<path d="M0 0H250V150H0V0Z" fill="#032EA1"/>
<path d="M0 37.5H250V112.5H0V37.5Z" fill="#E00025"/>
<path d="M104.299 70.6875H146.973V87.1125H104.299V70.6875Z" fill="white" stroke="black" stroke-width="0.3" stroke-linejoin="bevel"/>
<path d="M144.798 79.725H146.11V85.9125H144.798V79.725ZM104.299 76.6875H146.973V78.5625H104.299V76.6875ZM104.299 74.0625H146.973V75.7875H104.299V74.0625Z" fill="white" stroke="black" stroke-width="0.3" stroke-linejoin="bevel"/>
<path d="M104.299 71.5125H146.973V73.1249H104.299V71.5125Z" fill="white" stroke="black" stroke-width="0.3" stroke-linejoin="bevel"/>
<path d="M115.549 79.7251H116.899V85.9126H115.549V79.7251ZM133.923 79.7251H135.273V85.9126H133.923V79.7251ZM104.674 79.7251H105.986V85.9126H104.674V79.7251ZM107.299 79.7251H108.611V85.9126H107.299V79.7251ZM110.111 79.7251H111.424V85.9126H110.111V79.7251ZM112.924 79.7251H114.236V85.9126H112.924V79.7251ZM136.473 79.7251H137.823V85.9126H136.473V79.7251ZM139.285 79.7251H140.635V85.9126H139.285V79.7251ZM142.098 79.7251H143.448V85.9126H142.098V79.7251Z" fill="white" stroke="black" stroke-width="0.3" stroke-linejoin="bevel"/>
<path d="M87.6123 87.9374C88.3964 87.5106 88.9869 86.7992 89.2623 85.95H161.673C161.948 86.7992 162.539 87.5106 163.323 87.9374H87.6123Z" fill="white" stroke="black" stroke-width="0.3"/>
<path d="M124.549 45.6751C124.549 45.6751 124.511 44.1376 125.411 44.1001C126.274 44.1001 126.236 45.6751 126.236 45.6751H124.549ZM119.861 66.1126V64.0501C119.861 63.0001 118.811 62.9251 118.811 62.1751C118.811 62.1751 118.661 61.0501 118.961 60.5251C119.374 62.0251 120.086 61.7626 120.086 61.1251C120.086 60.6001 119.711 60.0751 118.849 58.7626C118.549 58.3501 118.736 57.0376 119.111 56.5501C119.261 57.6751 119.449 58.2376 119.936 58.2376C120.236 58.2376 120.461 58.0501 120.461 57.4876C120.461 56.7376 119.974 56.3626 119.711 55.6876C119.582 55.3517 119.552 54.9856 119.625 54.6332C119.698 54.2808 119.871 53.9569 120.124 53.7001C120.311 54.8251 120.274 55.2751 120.761 55.2751C121.774 54.9376 120.761 53.4751 120.536 53.1001C120.311 52.6876 120.911 51.8251 120.911 51.8251C121.211 52.8376 121.286 52.9126 121.661 52.8001C122.111 52.6876 122.036 52.0501 121.511 51.5251C121.174 51.1501 121.211 50.6626 121.586 50.2876C121.961 51.0001 122.411 50.9626 122.449 50.5126L122.149 48.8626H128.673L128.336 50.4751C128.261 50.9251 128.861 51.0376 129.236 50.2876C129.611 50.6626 129.648 51.1876 129.311 51.5251C128.786 52.0501 128.711 52.6876 129.161 52.8001C129.536 52.9126 129.611 52.8001 129.911 51.8251C129.911 51.8251 130.473 52.3876 130.286 53.1001C130.061 53.4751 129.048 54.9751 130.061 55.2751C130.548 55.2751 130.511 54.8251 130.698 53.7001C130.944 53.9609 131.11 54.2867 131.177 54.639C131.243 54.9912 131.207 55.3551 131.073 55.6876C130.848 56.3626 130.323 56.7376 130.323 57.4876C130.323 58.0501 130.586 58.2376 130.886 58.2376C131.373 58.2376 131.561 57.7126 131.711 56.5501C132.086 57.0376 132.273 58.3501 131.973 58.8001C131.111 60.0751 130.698 60.6001 130.698 61.1251C130.698 61.7626 131.448 62.0251 131.823 60.5251C132.161 61.0501 132.011 62.1751 132.011 62.1751C132.011 62.9251 130.998 63.0001 130.961 64.0501V66.1126H119.861ZM122.561 48.8626L122.411 47.7001H128.373L128.223 48.8626H122.561ZM122.936 47.6626L122.861 46.7251H127.923L127.811 47.6626H122.936ZM123.799 46.6876L123.686 45.7126H127.061L127.024 46.6876H123.799ZM136.173 87.9376C135.423 87.6751 134.298 86.8501 134.298 86.0626V76.9501L135.273 75.6751H115.549L116.486 76.9501V86.0626C116.486 86.8501 115.736 87.6751 114.986 87.9376H136.173Z" fill="white" stroke="black" stroke-width="0.3"/>
<path d="M118.999 79.7251H120.349V85.9126H118.999V79.7251ZM130.399 79.7251H131.749V85.9126H130.399V79.7251Z" fill="white" stroke="black" stroke-width="0.3" stroke-linejoin="bevel"/>
<path d="M115.174 65.3252V75.6752H135.424V65.3252C135.19 65.4106 134.979 65.5504 134.81 65.7329C134.64 65.9154 134.517 66.1355 134.449 66.3752V70.8002H116.187V66.3752C116.187 66.3752 115.962 65.6252 115.137 65.3252H115.174Z" fill="white" stroke="black" stroke-width="0.3"/>
<path d="M132.648 87.9376C131.973 87.6751 130.549 86.8501 130.549 86.0626V75.8626C130.699 75.3001 131.448 74.9626 131.936 74.5876H118.549C119.186 74.9626 119.899 75.2251 120.161 75.8626V86.0626C120.161 86.8501 119.036 87.6751 118.361 87.9376H132.648Z" fill="white" stroke="black" stroke-width="0.3"/>
<path d="M134.449 74.7002V67.3502H132.611V66.6377H118.061V67.3877H116.187V74.7002H134.449ZM129.799 87.9377C129.124 87.6752 128.186 86.8502 128.186 86.0627V77.3627L128.711 76.5752H122.074L122.636 77.3252V86.0627C122.636 86.8502 121.661 87.6752 121.024 87.9377H129.799Z" fill="white" stroke="black" stroke-width="0.3"/>
<path d="M123.687 76.5752H127.061V87.9377H123.687V76.5752Z" fill="white" stroke="black" stroke-width="0.3"/>
<path d="M128.824 74.0627C128.824 73.3127 130.999 73.2752 132.124 72.6377H118.624C119.749 73.2752 121.886 73.3127 121.886 74.0627L122.336 75.5252L127.961 75.7502L128.824 74.0627Z" fill="white" stroke="black" stroke-width="0.3" stroke-linejoin="bevel"/>
<path d="M131.448 66.1126C131.448 64.2751 131.523 63.6001 132.086 63.6001V69.3751C130.698 69.9001 129.723 71.6251 129.723 71.6251H121.024C121.024 71.6251 120.049 69.9001 118.661 69.3751V63.5626C119.336 63.5626 119.336 64.3126 119.336 66.0751L131.448 66.1126ZM132.086 65.3626C132.086 63.2626 133.923 63.0376 133.923 63.0376V64.9126C133.211 64.8751 132.873 65.5126 132.873 66.4126C132.873 67.3501 133.436 67.3501 133.436 67.3501V72.6751H132.086V65.3626Z" fill="white" stroke="black" stroke-width="0.3"/>
<path d="M118.662 65.3626C118.662 63.2626 116.824 63.0376 116.824 63.0376V64.9126C117.537 64.8751 117.874 65.5126 117.874 66.4126C117.874 67.3501 117.312 67.3501 117.312 67.3501V72.6751H118.662V65.3626Z" fill="white" stroke="black" stroke-width="0.3"/>
<path d="M122.225 50.8501H128.675M121.475 52.8751H129.35M120.725 55.3126H130.062M119.937 58.2751H131M119.675 61.6501H131.075" stroke="black" stroke-width="0.3"/>
<path d="M116.225 72.75H134.449M121.999 72.75H128.749V75.225H121.999V72.75Z" stroke="black" stroke-width="0.3"/>
<path d="M121.174 67.2001C122.299 68.5501 122.149 70.8376 122.149 72.1876H128.674C128.674 70.8376 128.524 68.5501 129.649 67.2001H121.174ZM124.811 51.8251L123.911 51.3376V50.0251C124.286 50.1376 124.661 50.1751 124.736 50.7751C124.849 49.9126 125.111 49.9876 125.449 49.6501C125.824 49.9876 126.011 49.9126 126.161 50.7751C126.161 50.1751 126.611 50.1376 126.949 50.0251V51.3376L126.086 51.7876L124.811 51.8251Z" fill="white" stroke="black" stroke-width="0.3"/>
<path d="M124.736 53.9625L123.236 52.9125V51.75C123.799 51.8625 124.361 51.9375 124.436 52.575C124.586 51.6375 124.924 51.1875 125.449 50.8125C125.936 51.1875 126.274 51.6375 126.461 52.575C126.499 51.9375 127.099 51.8625 127.586 51.75V52.95L126.124 53.9625H124.736Z" fill="white" stroke="black" stroke-width="0.3"/>
<path d="M124.624 57.3001L122.937 55.8001V54.0376C123.537 54.1876 124.212 54.2626 124.287 55.2001C124.474 53.8876 124.849 53.1751 125.412 52.6501C126.012 53.1751 126.387 53.8876 126.612 55.2001C126.687 54.2626 127.362 54.1876 127.962 54.0376V55.8001L126.237 57.3001H124.624ZM127.774 59.2876L126.274 61.4251H124.512L122.974 59.2876H127.774ZM122.074 62.8501C122.824 63.2626 123.124 64.1251 123.199 65.7001H127.549C127.624 64.1251 127.924 63.2626 128.674 62.8501H122.074Z" fill="white" stroke="black" stroke-width="0.3"/>
<path d="M128.749 59.2502V57.1502C128.426 57.219 128.126 57.3686 127.877 57.5851C127.627 57.8015 127.437 58.0777 127.324 58.3877C127.324 57.6377 126.386 56.0252 125.374 55.2002C124.361 56.1002 123.386 57.6002 123.424 58.3502C123.236 57.7877 122.749 57.3377 121.999 57.1502V59.2877L128.749 59.2502Z" fill="white" stroke="black" stroke-width="0.3" stroke-linejoin="bevel"/>
<path d="M129.049 62.85V60.7501C128.262 60.9751 127.737 61.3875 127.512 61.9875C127.512 61.2375 126.499 59.625 125.374 58.8C124.249 59.7375 123.199 61.2 123.237 61.9875C123.049 61.425 122.487 60.9751 121.699 60.7501V62.8876L129.049 62.85Z" fill="white" stroke="black" stroke-width="0.3" stroke-linejoin="bevel"/>
<path d="M129.949 67.2375V64.7626C129.168 65.0065 128.494 65.509 128.037 66.1876C128.037 64.8751 126.537 62.8125 125.374 62.175C124.174 62.85 122.712 64.9501 122.712 66.1876C122.243 65.5043 121.555 65.0016 120.762 64.7626V67.2375H129.949Z" fill="white" stroke="black" stroke-width="0.3" stroke-linejoin="bevel"/>
<path d="M129.424 72.7501V70.2001C128.524 70.5376 128.299 71.3626 127.999 71.9626C128.112 69.3751 126.574 66.6375 125.374 65.925C124.174 66.6375 122.599 69.45 122.749 71.925C122.449 71.4 122.187 70.5376 121.324 70.2001V72.7126L129.424 72.7501Z" fill="white" stroke="black" stroke-width="0.3" stroke-linejoin="bevel"/>
<path d="M128.824 76.5751V74.0251C127.886 74.2501 127.849 74.5876 127.549 75.1501C127.661 73.6126 126.574 71.85 125.374 71.175C124.174 71.85 123.124 73.6126 123.199 75.1501C122.899 74.5876 122.861 74.2501 121.924 74.0251V76.5751H128.824Z" fill="white" stroke="black" stroke-width="0.3"/>
<path d="M89.2992 85.9501V78.3001C89.0367 77.3251 88.1742 76.4251 87.5742 76.2751V69.5251L88.9617 70.2751L90.5741 77.3626V85.9876L89.2992 85.9501Z" fill="white" stroke="black" stroke-width="0.3"/>
<path d="M89.2992 85.9877V78.3002C89.0367 77.3252 88.1742 76.4252 87.5742 76.2752V69.0752C88.5117 69.0752 88.9617 70.2752 88.9617 70.2752L90.5741 77.3627V85.9502L89.2992 85.9877Z" fill="white" stroke="black" stroke-width="0.3"/>
<path d="M88.2871 87.9376C88.9246 87.6751 89.8621 86.8501 89.8621 86.0626V76.4626L89.4121 75.7126H105.799L105.162 76.4626V86.0626C105.189 86.4601 105.322 86.8431 105.546 87.1725C105.77 87.5019 106.077 87.766 106.437 87.9376H88.2871Z" fill="white" stroke="black" stroke-width="0.3"/>
<path d="M103.099 87.9376C102.461 87.6751 101.524 86.8501 101.524 86.0626V76.9501L102.874 75.675H91.7738L93.1238 76.9501V86.0626C93.1238 86.8501 92.1863 87.6751 91.5488 87.9376H103.099Z" fill="white" stroke="black" stroke-width="0.3"/>
<path d="M101.562 87.9377C100.924 87.6752 99.9492 86.8502 99.9492 86.0627V77.8127L100.849 76.5752H93.7994L94.6994 77.8127V86.0627C94.6994 86.8502 93.7619 87.6752 93.0869 87.9377H101.562Z" fill="white" stroke="black" stroke-width="0.3"/>
<path d="M95.6742 76.5752H99.0116V87.9752H95.6367L95.6742 76.5752Z" fill="white" stroke="black" stroke-width="0.3"/>
<path d="M91.0619 79.7251H92.4119V85.9126H91.0619V79.7251ZM102.612 79.7251H103.924V85.9126H102.574L102.612 79.7251ZM89.8994 69.3001H91.5494V75.6751H89.8994V69.3001ZM89.8994 68.1001H91.5119V69.3001H89.8994V68.1001ZM103.249 70.6876H105.537V75.5626H103.249V70.6876Z" fill="white"/>
<path d="M89.8994 69.3001H91.5494V75.6751H89.8994V69.3001ZM89.8994 69.3001H91.5119V68.1001H89.8994V69.3001ZM91.0619 79.7251H92.4119V85.9126H91.0619V79.7251ZM102.612 79.7251H103.924V85.9126H102.574L102.612 79.7251ZM103.249 70.6876H105.537V75.5626H103.249V70.6876Z" stroke="black" stroke-width="0.3" stroke-linejoin="bevel"/>
<path d="M91.5113 75.6001V64.7251C91.9613 64.7251 92.0362 66.3376 93.0862 66.3376C93.6487 66.3376 93.6112 65.6626 93.2737 65.1376C93.0112 64.6501 92.6737 64.0126 93.1237 62.7751C93.4612 63.7126 94.2862 64.0126 94.1362 63.4501C93.8737 62.4376 93.0862 62.2501 93.6862 60.7126C93.8737 61.9876 94.6987 61.9501 94.5112 61.2001C94.2862 60.3376 93.7987 59.9626 94.3987 58.7626C94.7362 60.1501 95.1487 60.0751 95.1487 59.2126C95.1487 57.9376 95.1487 56.5876 96.7236 56.1001C96.7236 56.1001 96.8361 54.9751 97.4361 54.9751C97.9986 54.9751 98.1111 56.1001 98.1111 56.1001C99.7235 56.5876 99.686 57.9751 99.686 59.2126C99.686 60.0751 100.099 60.1501 100.436 58.7626C101.036 59.9626 100.549 60.3376 100.324 61.2001C100.136 61.9501 100.961 61.9876 101.149 60.7126C101.748 62.2501 100.961 62.4376 100.699 63.4501C100.549 64.0126 101.374 63.7126 101.711 62.7751C102.161 64.0126 101.823 64.6501 101.561 65.1376C101.261 65.6626 101.186 66.3376 101.748 66.3376C102.798 66.3376 102.873 64.7626 103.323 64.7626V75.6001H91.5113ZM88.9238 67.3876V75.6751H89.8613V67.3876C89.5238 67.2001 89.2238 67.2001 88.9238 67.3876Z" fill="white" stroke="black" stroke-width="0.3"/>
<path d="M88.999 72.7502C90.1615 73.3502 91.324 74.0627 91.624 75.6752H88.999V72.7502ZM105.199 70.2752V75.6752H105.949V70.2752C105.724 70.1627 105.386 70.1252 105.199 70.2752Z" fill="white" stroke="black" stroke-width="0.3"/>
<path d="M105.949 72.7501C104.786 73.3126 103.624 73.9876 103.324 75.6376H105.949V72.7501ZM98.2238 60.1125L98.8987 59.55V58.8C98.6738 58.8 98.5238 58.9125 98.3363 59.175C98.2635 58.9342 98.143 58.7105 97.9819 58.5172C97.8208 58.324 97.6225 58.1651 97.3988 58.05C97.1718 58.1569 96.9685 58.3082 96.8011 58.495C96.6336 58.6818 96.5053 58.9003 96.4238 59.1376C96.2363 58.8751 96.1238 58.8376 95.8613 58.7626V59.5126L96.5363 60.1125H98.2238Z" fill="white" stroke="black" stroke-width="0.3"/>
<path d="M98.5988 61.9501L98.8987 61.2375V60.3C98.6738 60.3 98.5238 60.4125 98.3363 60.675C98.2635 60.4342 98.143 60.2105 97.9819 60.0172C97.8208 59.824 97.6225 59.6651 97.3988 59.55C97.1718 59.6569 96.9685 59.8082 96.8011 59.995C96.6336 60.1818 96.5053 60.4003 96.4238 60.6376C96.2363 60.3751 96.1238 60.3375 95.8613 60.3V61.2375L96.1613 61.9501H98.5988Z" fill="white" stroke="black" stroke-width="0.3"/>
<path d="M98.6737 64.4251L99.6487 63.1876V61.9876C99.2737 61.9876 99.0862 62.1751 98.8237 62.5876C98.5612 61.7251 98.0738 61.5751 97.3988 61.1626C96.6863 61.5376 96.1988 61.7251 95.9738 62.5501C95.6738 62.1376 95.4863 62.0251 95.1113 61.9876V63.1876L96.1238 64.4251H98.6737Z" fill="white" stroke="black" stroke-width="0.3"/>
<path d="M98.9368 66.8625C98.9368 66.8625 100.137 65.85 100.174 65.2875V63.975C99.7243 64.0125 99.3118 64.125 98.9743 64.6875C98.6743 63.6 98.2243 63.3 97.3993 62.8125C96.5369 63.3 96.0869 63.6 95.8244 64.6875C95.4494 64.125 95.0744 64.0125 94.5869 63.9375V65.2875C94.9019 65.8823 95.321 66.4158 95.8244 66.8625H98.9368Z" fill="white" stroke="black" stroke-width="0.3"/>
<path d="M99.4239 71.3626C99.4239 71.3626 101.074 69.6001 101.111 68.8876V66.8626C100.511 66.9376 99.9114 67.3501 99.4614 68.2126C99.0864 66.5251 98.4864 65.3626 97.3989 64.5376C96.274 65.3626 95.674 66.5251 95.299 68.2126C94.849 67.3501 94.2865 66.9376 93.6865 66.8626V68.8876C93.799 69.6001 95.3365 71.3626 95.3365 71.3626H99.4239Z" fill="white" stroke="black" stroke-width="0.3"/>
<path d="M99.4239 74.025C99.4239 74.025 100.811 72.6375 101.111 72.0375V70.0125C100.511 70.0875 99.9114 70.5 99.4614 71.325C99.3611 70.6427 99.1273 69.9868 98.7734 69.3948C98.4195 68.8028 97.9525 68.2864 97.3989 67.875C96.274 68.7 95.674 69.6375 95.299 71.325C94.849 70.5 94.2865 70.0875 93.6865 70.0125V72.0375C94.0615 72.6375 95.3365 74.025 95.3365 74.025H99.4239Z" fill="white" stroke="black" stroke-width="0.3"/>
<path d="M99.9864 75.6001C99.6114 73.8376 99.2364 72.5251 97.324 71.2126C95.374 72.5251 95.0365 73.8376 94.624 75.6001H99.9864Z" fill="white" stroke="black" stroke-width="0.3"/>
<path d="M100.999 76.575V74.025C100.099 74.4 99.3114 74.8875 99.0114 75.45C98.7114 74.025 98.0739 73.425 97.2864 72.5625C96.499 73.425 95.974 74.0625 95.6365 75.45C95.3365 74.8875 94.549 74.3625 93.6865 74.025V76.575H100.999Z" fill="white" stroke="black" stroke-width="0.3"/>
<path d="M161.56 85.9501V78.3001C161.823 77.3251 162.685 76.4251 163.285 76.2751V69.5251L161.898 70.2751L160.285 77.3626V85.9876L161.56 85.9501Z" fill="white" stroke="black" stroke-width="0.3"/>
<path d="M161.56 85.9877V78.3002C161.823 77.3252 162.685 76.4252 163.285 76.2752V69.0752C162.348 69.0752 161.898 70.2752 161.898 70.2752L160.285 77.3627V85.9502L161.56 85.9877Z" fill="white" stroke="black" stroke-width="0.3"/>
<path d="M162.573 87.9376C161.936 87.6751 160.998 86.8501 160.998 86.0626V76.4626L161.448 75.7126H145.061L145.699 76.4626V86.0626C145.671 86.4601 145.539 86.8431 145.315 87.1725C145.091 87.5019 144.783 87.766 144.424 87.9376H162.573Z" fill="white" stroke="black" stroke-width="0.3"/>
<path d="M147.761 87.9376C148.398 87.6751 149.336 86.8501 149.336 86.0626V76.9501L147.986 75.675H159.086L157.736 76.9501V86.0626C157.736 86.8501 158.673 87.6751 159.311 87.9376H147.761Z" fill="white" stroke="black" stroke-width="0.3"/>
<path d="M149.298 87.9377C149.935 87.6752 150.91 86.8502 150.91 86.0627V77.8127L150.01 76.5752H157.06L156.16 77.8127V86.0627C156.16 86.8502 157.097 87.6752 157.772 87.9377H149.298Z" fill="white" stroke="black" stroke-width="0.3"/>
<path d="M155.185 76.5752H151.848V87.9752H155.223L155.185 76.5752Z" fill="white" stroke="black" stroke-width="0.3"/>
<path d="M159.797 79.7251H158.448V85.9126H159.797V79.7251ZM148.248 79.7251H146.935V85.9126H148.285L148.248 79.7251ZM160.96 69.3001H159.31V75.6751H160.96V69.3001ZM160.96 68.1001H159.348V69.3001H160.96V68.1001ZM147.61 70.6876H145.323V75.5626H147.61V70.6876Z" fill="white"/>
<path d="M160.96 69.3001H159.31V75.6751H160.96V69.3001ZM160.96 69.3001H159.348V68.1001H160.96V69.3001ZM159.797 79.7251H158.448V85.9126H159.797V79.7251ZM148.248 79.7251H146.935V85.9126H148.285L148.248 79.7251ZM147.61 70.6876H145.323V75.5626H147.61V70.6876Z" stroke="black" stroke-width="0.3" stroke-linejoin="bevel"/>
<path d="M159.348 75.6001V64.7251C158.898 64.7251 158.823 66.3376 157.773 66.3376C157.211 66.3376 157.248 65.6626 157.586 65.1376C157.848 64.6501 158.186 64.0126 157.736 62.7751C157.398 63.7126 156.573 64.0126 156.723 63.4501C156.986 62.4376 157.773 62.2501 157.173 60.7126C156.986 61.9876 156.161 61.9501 156.348 61.2001C156.573 60.3376 157.061 59.9626 156.461 58.7626C156.123 60.1501 155.711 60.0751 155.711 59.2126C155.711 57.9376 155.711 56.5876 154.136 56.1001C154.136 56.1001 154.023 54.9751 153.423 54.9751C152.861 54.9751 152.748 56.1001 152.748 56.1001C151.136 56.5876 151.173 57.9751 151.173 59.2126C151.173 60.0751 150.761 60.1501 150.423 58.7626C149.823 59.9626 150.311 60.3376 150.536 61.2001C150.723 61.9501 149.898 61.9876 149.711 60.7126C149.111 62.2501 149.898 62.4376 150.161 63.4501C150.311 64.0126 149.486 63.7126 149.148 62.7751C148.698 64.0126 149.036 64.6501 149.298 65.1376C149.598 65.6626 149.673 66.3376 149.111 66.3376C148.061 66.3376 147.986 64.7626 147.536 64.7626V75.6001H159.348ZM161.936 67.3876V75.6751H160.998V67.3876C161.336 67.2001 161.636 67.2001 161.936 67.3876Z" fill="white" stroke="black" stroke-width="0.3"/>
<path d="M161.86 72.7502C160.698 73.3502 159.535 74.0627 159.235 75.6752H161.86V72.7502ZM145.661 70.2752V75.6752H144.911V70.2752C145.136 70.1627 145.473 70.1252 145.661 70.2752Z" fill="white" stroke="black" stroke-width="0.3"/>
<path d="M144.911 72.7501C146.073 73.3126 147.236 73.9876 147.536 75.6376H144.911V72.7501ZM152.636 60.1125L151.961 59.55V58.8C152.186 58.8 152.336 58.9125 152.523 59.175C152.596 58.9342 152.716 58.7105 152.877 58.5172C153.039 58.324 153.237 58.1651 153.461 58.05C153.688 58.1569 153.891 58.3082 154.058 58.495C154.226 58.6818 154.354 58.9003 154.436 59.1376C154.623 58.8751 154.736 58.8376 154.998 58.7626V59.5126L154.323 60.1125H152.636Z" fill="white" stroke="black" stroke-width="0.3"/>
<path d="M152.261 61.9501L151.961 61.2375V60.3C152.186 60.3 152.336 60.4125 152.523 60.675C152.596 60.4342 152.716 60.2105 152.877 60.0172C153.039 59.824 153.237 59.6651 153.461 59.55C153.688 59.6569 153.891 59.8082 154.058 59.995C154.226 60.1818 154.354 60.4003 154.436 60.6376C154.623 60.3751 154.736 60.3375 154.998 60.3V61.2375L154.698 61.9501H152.261Z" fill="white" stroke="black" stroke-width="0.3"/>
<path d="M152.186 64.4251L151.211 63.1876V61.9876C151.586 61.9876 151.773 62.1751 152.036 62.5876C152.298 61.7251 152.786 61.5751 153.461 61.1626C154.173 61.5376 154.661 61.7251 154.886 62.5501C155.186 62.1376 155.373 62.0251 155.748 61.9876V63.1876L154.736 64.4251H152.186Z" fill="white" stroke="black" stroke-width="0.3"/>
<path d="M151.924 66.8625C151.924 66.8625 150.724 65.85 150.686 65.2875V63.975C151.136 64.0125 151.549 64.125 151.886 64.6875C152.186 63.6 152.636 63.3 153.461 62.8125C154.323 63.3 154.773 63.6 155.036 64.6875C155.411 64.125 155.786 64.0125 156.273 63.9375V65.2875C155.958 65.8823 155.539 66.4158 155.036 66.8625H151.924Z" fill="white" stroke="black" stroke-width="0.3"/>
<path d="M151.435 71.3626C151.435 71.3626 149.786 69.6001 149.748 68.8876V66.8626C150.348 66.9376 150.948 67.3501 151.398 68.2126C151.773 66.5251 152.373 65.3626 153.46 64.5376C154.585 65.3626 155.185 66.5251 155.56 68.2126C156.01 67.3501 156.573 66.9376 157.173 66.8626V68.8876C157.06 69.6001 155.523 71.3626 155.523 71.3626H151.435Z" fill="white" stroke="black" stroke-width="0.3"/>
<path d="M151.435 74.025C151.435 74.025 150.048 72.6375 149.748 72.0375V70.0125C150.348 70.0875 150.948 70.5 151.398 71.325C151.498 70.6427 151.732 69.9868 152.086 69.3948C152.44 68.8028 152.907 68.2864 153.46 67.875C154.585 68.7 155.185 69.6375 155.56 71.325C156.01 70.5 156.573 70.0875 157.173 70.0125V72.0375C156.798 72.6375 155.523 74.025 155.523 74.025H151.435Z" fill="white" stroke="black" stroke-width="0.3"/>
<path d="M150.873 75.6001C151.248 73.8376 151.623 72.5251 153.535 71.2126C155.485 72.5251 155.823 73.8376 156.235 75.6001H150.873Z" fill="white" stroke="black" stroke-width="0.3"/>
<path d="M149.861 76.575V74.025C150.761 74.4 151.548 74.8875 151.848 75.45C152.148 74.025 152.785 73.425 153.573 72.5625C154.36 73.425 154.885 74.0625 155.223 75.45C155.523 74.8875 156.31 74.3625 157.173 74.025V76.575H149.861Z" fill="white" stroke="black" stroke-width="0.3"/>
<path d="M79.4374 97.2375H171.423V101.925H79.4374V97.2375ZM77 101.925H173.86V106.612H77V101.925ZM84.2748 90.1875H166.548V93.225H84.2748V90.1875Z" fill="white" stroke="black" stroke-width="0.3"/>
<path d="M81.875 93.225H169.023V97.2001H81.875V93.225ZM85.6999 87.8625H165.198V90.1876H85.6999V87.8625Z" fill="white" stroke="black" stroke-width="0.3"/>
<path d="M94.3242 87.8625H100.324V106.613H94.3242V87.8625Z" fill="white" stroke="black" stroke-width="0.3"/>
<path d="M95.6742 87.8625H99.0116V106.613H95.6367L95.6742 87.8625ZM122.299 87.8625H128.298V106.613H122.299V87.8625Z" fill="white" stroke="black" stroke-width="0.3"/>
<path d="M123.687 87.8625H127.061V106.613H123.687V87.8625ZM150.498 87.8625H156.498V106.613H150.498V87.8625Z" fill="white" stroke="black" stroke-width="0.3"/>
<path d="M151.811 87.8625H155.185V106.613H151.811V87.8625Z" fill="white" stroke="black" stroke-width="0.3"/>
<path d="M89.2998 85.9502H161.673M95.5996 104.25H99.0496M95.5996 101.888H99.0496M95.5996 99.5627H99.0496M95.5996 97.2002H99.0496M95.5996 94.8752H99.0496M95.5996 92.5127H99.0496M95.5996 90.1877H99.0496M123.724 104.25H126.949M123.724 101.888H126.949M123.724 99.5627H126.949M123.724 97.2002H126.949M123.724 94.8752H126.949M123.724 92.5127H126.949M123.724 90.1877H126.949M151.773 104.25H155.223M151.773 101.888H155.223M151.773 99.5627H155.223M151.773 97.2002H155.223M151.773 94.8752H155.223M151.773 92.5127H155.223M151.773 90.1877H155.223" stroke="black" stroke-width="0.3"/>
</g>
<defs>
<clipPath id="clip0_1284_63474">
<rect width="250" height="150" fill="white"/>
</clipPath>
</defs>
</svg>
