<svg width="250" height="150" viewBox="0 0 250 150" fill="none" xmlns="http://www.w3.org/2000/svg">
<g clip-path="url(#clip0_1284_61043)">
<path d="M0 0H83.3203V150H0V0Z" fill="#007A5E"/>
<path d="M83.3203 0H166.68V150H83.3203V0Z" fill="#CE1126"/>
<path d="M166.68 0H250V150H166.68V0Z" fill="#FCD116"/>
<path d="M124.65 57.2222L119.087 74.111L127.543 76.9999L124.65 57.2222Z" fill="#FCD116"/>
<path d="M124.65 57.2222L130.213 74.111L121.757 76.9999L124.65 57.2222Z" fill="#FCD116"/>
<path d="M141.431 69.9101L123.714 68.9174L124.081 78.3654L141.431 69.9101Z" fill="#FCD116"/>
<path d="M141.292 69.7163L127.593 80.0986L121.852 72.2567L141.292 69.7163Z" fill="#FCD116"/>
<path d="M135.304 89.4688L129.426 72.4904L121.132 74.8271L135.304 89.4688Z" fill="#FCD116"/>
<path d="M135.213 89.5485L120.715 78.7685L125.523 71.6837L135.213 89.5485Z" fill="#FCD116"/>
<path d="M114.087 89.5488L128.585 78.7687L123.777 71.6839L114.087 89.5488Z" fill="#FCD116"/>
<path d="M113.995 89.4691L119.874 72.4907L128.168 74.8273L113.995 89.4691Z" fill="#FCD116"/>
<path d="M108.009 69.7163L121.708 80.0986L127.449 72.2567L108.009 69.7163Z" fill="#FCD116"/>
<path d="M107.87 69.9101L125.587 68.9174L125.22 78.3654L107.87 69.9101Z" fill="#FCD116"/>
</g>
<defs>
<clipPath id="clip0_1284_61043">
<rect width="250" height="150" fill="white"/>
</clipPath>
</defs>
</svg>
