<svg width="250" height="150" viewBox="0 0 250 150" fill="none" xmlns="http://www.w3.org/2000/svg">
<g clip-path="url(#clip0_1284_60679)">
<path d="M58.6445 0H191.323V150H58.6449L58.6445 0Z" fill="white"/>
<path d="M-7.67578 0H58.6449V150H-7.67578V0ZM191.323 0H257.644V150H191.36L191.323 0Z" fill="#D52B1E"/>
<path d="M85 75.18L89.1607 73.7738V73.8028C91.7096 71.2541 87.6662 63.5197 86.377 58.8616C90.1567 59.6819 95.8115 61.7912 97.4816 61.0881C99.1809 60.3262 100.031 57.0159 101.29 54.965L111.047 66.01C111.985 66.5078 112.805 66.2734 113.157 65.3359L108.879 42.1625L115.969 46.1469C116.438 46.4981 116.995 46.4397 117.551 45.9125L124.935 31L132.113 45.3556C132.523 46.0881 133.139 46.3225 133.754 46.0294L141.196 41.84L136.508 65.2188C136.772 66.1562 137.241 66.5959 138.354 66.3322L148.521 55.1409L151.392 60.6194C152.125 62.6406 163.288 58.8028 163.288 58.8028C162.702 63.9006 158.775 71.9572 161.53 74.0666L164.87 75.2969L145.708 91.2638C144.536 95.5997 145.679 97.0353 146.968 99.76L126.107 97.2697L127.074 118.07L122.737 118.188L123.236 97.2403L102.433 99.8772C103.693 97.5919 105.656 96.3322 104.191 92.0256L85 75.18Z" fill="#D52B1E"/>
</g>
<defs>
<clipPath id="clip0_1284_60679">
<rect width="250" height="150" fill="white"/>
</clipPath>
</defs>
</svg>
