<svg width="250" height="150" viewBox="0 0 250 150" fill="none" xmlns="http://www.w3.org/2000/svg">
<rect width="250" height="150" fill="#003893"/>
<rect y="75.4004" width="250" height="36.0963" fill="white"/>
<rect y="87.4316" width="250" height="12.0321" fill="#CF2027"/>
<path d="M95.6093 62.7816L99.5126 65.7762L98.0576 60.9081L101.975 57.8544H97.0783L95.5814 52.942L94.0704 57.8397H89.1738L93.1191 60.8638L91.6081 65.7615L95.6093 62.7816Z" fill="#F7D116"/>
<path d="M115.063 69.2784L118.967 72.2731L117.512 67.4049L121.429 64.3513H116.532L115.035 59.4388L113.525 64.3365H108.628L112.573 67.3607L111.062 72.2583L115.063 69.2784Z" fill="#F7D116"/>
<path d="M128.024 85.9896L131.928 88.9843L130.473 84.1161L134.39 81.0624H129.493L127.996 76.15L126.485 81.0477H121.589L125.534 84.0718L124.023 88.9695L128.024 85.9896Z" fill="#F7D116"/>
<path d="M128.024 107.34L131.928 110.334L130.473 105.466L134.39 102.413H129.493L127.996 97.5001L126.485 102.398H121.589L125.534 105.422L124.023 110.32L128.024 107.34Z" fill="#F7D116"/>
<path d="M115.063 124.051L118.967 127.046L117.512 122.178L121.429 119.124H116.532L115.035 114.212L113.525 119.109H108.628L112.573 122.133L111.062 127.031L115.063 124.051Z" fill="#F7D116"/>
<path d="M95.6093 131.476L99.5126 134.47L98.0576 129.602L101.975 126.549H97.0783L95.5814 121.636L94.0704 126.534H89.1738L93.1191 129.558L91.6081 134.456L95.6093 131.476Z" fill="#F7D116"/>
<path d="M75.336 69.2784L71.4327 72.2731L72.8877 67.4049L68.9704 64.3513H73.867L75.364 59.4388L76.8749 64.3365H81.7715L77.8262 67.3607L79.3372 72.2583L75.336 69.2784Z" fill="#F7D116"/>
<path d="M62.375 85.9896L58.4718 88.9843L59.9267 84.1161L56.0095 81.0624H60.9061L62.403 76.15L63.914 81.0477H68.8105L64.8653 84.0718L66.3762 88.9695L62.375 85.9896Z" fill="#F7D116"/>
<path d="M62.375 107.34L58.4718 110.334L59.9267 105.466L56.0095 102.413H60.9061L62.403 97.5001L63.914 102.398H68.8105L64.8653 105.422L66.3762 110.32L62.375 107.34Z" fill="#F7D116"/>
<path d="M75.336 124.051L71.4327 127.046L72.8877 122.178L68.9704 119.124H73.867L75.364 114.212L76.8749 119.109H81.7715L77.8262 122.133L79.3372 127.031L75.336 124.051Z" fill="#F7D116"/>
</svg>
