<svg width="250" height="150" viewBox="0 0 250 150" fill="none" xmlns="http://www.w3.org/2000/svg">
<g clip-path="url(#clip0_1284_60985)">
<path d="M0 0H250V150H0V0Z" fill="#DE2910"/>
<path d="M27.7492 55.5L41.2479 15L54.7467 55.5L18.75 30.75H63.7459L27.7492 55.5Z" fill="#FFDE00"/>
<path d="M86.302 15.776L72.4101 18.8547L81.6765 8.05579L80.7677 22.5898L73.0585 9.72282L86.302 15.776Z" fill="#FFDE00"/>
<path d="M100.318 33.546L86.319 30.9955L99.048 24.636L92.574 37.6799L90.4581 22.8299L100.318 33.546Z" fill="#FFDE00"/>
<path d="M98.271 58.4767L86.5298 50.4381L100.745 49.8236L89.5149 59.0926L93.6391 44.6708L98.271 58.4767Z" fill="#FFDE00"/>
<path d="M80.6117 74.7623L72.8861 62.8122L86.236 67.7364L72.2972 71.9482L81.6709 60.2385L80.6117 74.7623Z" fill="#FFDE00"/>
</g>
<defs>
<clipPath id="clip0_1284_60985">
<rect width="250" height="150" fill="white"/>
</clipPath>
</defs>
</svg>
