<svg width="250" height="150" viewBox="0 0 250 150" fill="none" xmlns="http://www.w3.org/2000/svg">
<g clip-path="url(#clip0_1284_62179)">
<path d="M0 0H250V150H0V0Z" fill="white"/>
<path d="M120.875 124.562C120.851 124.545 120.83 124.524 120.813 124.5H120.782L120.375 124.062L119.188 122.656L117.657 120.687L117.469 120.406L115.532 119.812L114.094 119.156L114.844 118.312L117.469 119.406L119.407 119.812L123 122.469L121.969 123.375C121.602 123.717 121.258 124.082 120.938 124.469L121.157 124.312L121.407 124.5L120.907 124.562H120.875ZM107.563 120.562C105.801 120.547 104.075 120.061 102.563 119.156C102.563 119.156 102.781 118.75 103.281 118.406C103.781 118.031 104.656 117.625 106.094 117.594C107.781 117.594 109.844 118.187 112.188 119.281C110.787 120.108 109.189 120.54 107.563 120.531V120.562ZM100.219 118.937C99.9063 118.937 99.5938 118.812 99.4063 118.625C99.2291 118.409 99.1107 118.15 99.0625 117.875C98.9795 117.527 98.9479 117.169 98.9688 116.812C99.099 116.766 99.2369 116.745 99.375 116.75C100 116.75 100.5 117.281 100.719 117.812C100.844 118.125 100.875 118.375 100.781 118.594C100.719 118.781 100.469 118.906 100.219 118.906V118.937ZM113.125 117.437C108.781 116.812 106.938 115.25 106.156 114.031C105.344 112.75 105.531 111.531 105.531 111.531C105.531 111.531 105.781 111.469 106.156 111.469C107.344 111.469 110.281 112.062 113.125 117.406V117.437ZM104.219 116.562C102.375 116.562 100.969 116.25 100.031 115.625C99.6305 115.373 99.3063 115.017 99.0938 114.594C99.0267 114.434 98.9846 114.266 98.9688 114.094C99.6813 113.797 100.447 113.648 101.219 113.656C102.334 113.696 103.431 113.957 104.444 114.424C105.458 114.89 106.369 115.554 107.125 116.375C106.063 116.5 105.094 116.562 104.219 116.562ZM95.2499 116.25C93.3124 116.25 90.6248 115.625 88.9373 113.969C88.9373 113.969 90.7811 113.5 92.8124 113.437H93.1874C95.0312 113.437 96.4375 113.781 97.375 114.5C97.6875 114.75 97.875 114.969 97.9062 115.187C97.9375 115.375 97.8437 115.562 97.6562 115.719C97.2187 116.031 96.4687 116.219 95.4062 116.219H95.2499V116.25ZM88.906 112.969C88.7852 112.966 88.6664 112.937 88.5582 112.883C88.4501 112.829 88.3554 112.751 88.281 112.656C88.1504 112.47 88.0649 112.256 88.031 112.031C87.9373 111.594 87.9685 111.156 87.9685 111.125C88.067 111.082 88.1736 111.061 88.281 111.062C88.5623 111.062 88.781 111.219 88.906 111.375C89.0961 111.549 89.2455 111.762 89.3436 112C89.4061 112.281 89.4373 112.5 89.3436 112.687C89.3436 112.812 89.1561 113 88.9373 113L88.906 112.969ZM103.563 112.656C103.25 112.656 102.938 112.531 102.75 112.344C102.573 112.127 102.454 111.869 102.406 111.594C102.323 111.246 102.292 110.888 102.313 110.531C102.443 110.485 102.581 110.464 102.719 110.469C103.344 110.469 103.875 111 104.063 111.531C104.188 111.844 104.219 112.094 104.156 112.312C104.063 112.5 103.844 112.625 103.531 112.625L103.563 112.656ZM96.4375 112.344C92.4999 112.219 90.4373 111.094 89.4373 110.156C89.0015 109.779 88.6409 109.323 88.3748 108.812C88.2185 108.5 88.156 108.25 88.156 108.187C88.156 108.125 88.531 108.062 89.0936 108.062H89.2186C90.5311 108.062 93.2499 108.625 96.4062 112.344H96.4375ZM100.688 111.969C98.4384 111.724 96.3472 110.695 94.7812 109.062C94.2047 108.432 93.768 107.686 93.4999 106.875C93.4999 106.875 93.8749 106.781 94.4374 106.75C94.5415 106.746 94.6458 106.746 94.7499 106.75C96.3124 106.781 99.2188 107.5 100.688 111.969ZM84.4372 110.406C83.4389 110.415 82.4429 110.31 81.4684 110.094C79.8121 109.656 79.0934 109.031 78.7808 108.562C78.6531 108.375 78.5678 108.161 78.5308 107.937C78.521 107.854 78.521 107.77 78.5308 107.687C78.5308 107.687 79.6246 107.375 81.1559 107.344C81.9312 107.324 82.7064 107.387 83.4684 107.531C85.0626 107.867 86.4825 108.766 87.4685 110.062C87.4685 110.062 86.2185 110.437 84.4372 110.437V110.406ZM91.7811 107.781C91.6365 107.785 91.4926 107.759 91.3582 107.706C91.2239 107.652 91.1019 107.571 90.9998 107.469C90.8226 107.252 90.7042 106.994 90.6561 106.719C90.5311 106.219 90.5623 105.719 90.5623 105.656C90.6808 105.603 90.8078 105.571 90.9373 105.562H90.9686C91.5936 105.562 92.0936 106.125 92.3124 106.656C92.4374 106.969 92.4374 107.219 92.3749 107.406C92.2811 107.625 92.0624 107.75 91.7811 107.75V107.781ZM86.281 107C85.226 106.701 84.2166 106.259 83.2809 105.687C81.9059 104.844 80.1871 103.344 79.9996 101L80.3121 100.969H80.4059C80.8121 100.969 81.6559 101.062 82.6872 101.844C83.9997 102.844 85.1872 104.594 86.281 107ZM89.8748 106.875C89.013 106.483 88.2129 105.967 87.4998 105.344C85.6709 103.765 84.2458 101.772 83.3434 99.5312C83.3434 99.5312 83.6247 99.3749 84.0622 99.3437C84.083 99.343 84.1039 99.343 84.1247 99.3437H84.2497C84.8747 99.3437 85.781 99.6249 86.781 100.719C87.9685 101.969 88.9998 104.031 89.9061 106.875H89.8748ZM80.5309 106.594C79.3121 106.594 78.9058 105.969 78.7808 105.656C78.6598 105.359 78.6167 105.037 78.6558 104.719C78.861 104.673 79.0708 104.652 79.2809 104.656C79.669 104.644 80.0546 104.722 80.4072 104.885C80.7598 105.048 81.0696 105.29 81.3121 105.594C81.3746 105.719 81.5622 106.031 81.4059 106.312C81.2809 106.5 80.9996 106.625 80.5309 106.625V106.594ZM77.8746 103.219C76.9324 103.229 75.9912 103.156 75.062 103C73.9995 102.812 73.4057 101.906 73.062 101.156C72.7495 100.375 72.6245 99.5937 72.6245 99.5937C75.937 99.6874 77.5308 100.656 78.2496 101.469C78.7035 101.936 78.9893 102.54 79.0621 103.187C79.0621 103.187 78.5621 103.25 77.8746 103.25V103.219ZM81.3121 99.7812C81.045 99.4394 80.7947 99.0848 80.5621 98.7187C80.1559 98.0937 79.8121 97.4687 79.8121 96.9687C79.8121 96.4374 79.6871 95.4062 79.6246 94.7812L79.4371 93.3749C79.5309 93.3749 81.4997 94.1249 81.4997 95.9999C81.4997 97.8749 81.3121 99.7499 81.3121 99.7499V99.7812ZM78.7496 99.5937H78.6871C76.5433 98.9517 74.5902 97.7927 72.9995 96.2187C72.4682 95.5937 72.1245 94.5937 72.0307 93.2812C71.9682 92.3437 72.0307 91.5624 72.0307 91.4687C72.1427 91.439 72.2589 91.4285 72.3745 91.4374C72.812 91.4374 73.312 91.6249 73.937 92.0624C74.5172 92.4732 75.0609 92.9333 75.562 93.4374C76.5621 94.4374 77.3433 95.4374 77.3433 95.4374C77.4371 95.5624 77.9683 96.5937 78.4371 97.5937C78.6564 98.0528 78.8241 98.535 78.9371 99.0312C78.9683 99.2187 78.9996 99.3437 78.9371 99.4687C78.9223 99.5205 78.8889 99.565 78.8433 99.5937C78.8022 99.603 78.7595 99.603 78.7183 99.5937H78.7496Z" fill="#435125"/>
<path d="M114.033 124.562C114.057 124.545 114.078 124.524 114.095 124.5H114.127L114.533 124.062L115.72 122.656L117.252 120.687L117.439 120.406L119.377 119.812L120.814 119.156L120.064 118.312L117.439 119.406L115.502 119.812L111.908 122.469L112.939 123.375C113.306 123.717 113.65 124.082 113.97 124.469L113.751 124.312L113.501 124.5L114.002 124.562H114.033ZM127.346 120.562C129.108 120.547 130.834 120.061 132.346 119.156C132.346 119.156 132.127 118.75 131.627 118.406C131.127 118.031 130.252 117.625 128.814 117.594C127.127 117.594 125.064 118.187 122.72 119.281C124.121 120.108 125.719 120.54 127.346 120.531V120.562ZM134.689 118.937C135.002 118.937 135.314 118.812 135.502 118.625C135.679 118.409 135.798 118.15 135.846 117.875C135.929 117.527 135.96 117.169 135.939 116.812C135.809 116.766 135.671 116.745 135.533 116.75C134.908 116.75 134.408 117.281 134.189 117.812C134.064 118.125 134.033 118.375 134.127 118.594C134.189 118.781 134.439 118.906 134.689 118.906V118.937ZM121.783 117.437C126.127 116.812 127.971 115.25 128.752 114.031C129.564 112.75 129.377 111.531 129.377 111.531C129.377 111.531 129.127 111.469 128.752 111.469C127.564 111.469 124.627 112.062 121.783 117.406V117.437ZM130.689 116.562C132.533 116.562 133.939 116.25 134.877 115.625C135.278 115.373 135.602 115.017 135.814 114.594C135.881 114.434 135.924 114.266 135.939 114.094C135.227 113.797 134.461 113.648 133.689 113.656C132.574 113.696 131.478 113.957 130.464 114.424C129.45 114.89 128.539 115.554 127.783 116.375C128.846 116.5 129.814 116.562 130.689 116.562ZM139.658 116.25C141.596 116.25 144.283 115.625 145.971 113.969C145.971 113.969 144.127 113.5 142.096 113.437H141.721C139.877 113.437 138.471 113.781 137.533 114.5C137.221 114.75 137.033 114.969 137.002 115.187C136.971 115.375 137.064 115.562 137.252 115.719C137.689 116.031 138.439 116.219 139.502 116.219H139.658V116.25ZM146.002 112.969C146.123 112.966 146.242 112.937 146.35 112.883C146.458 112.829 146.553 112.751 146.627 112.656C146.758 112.47 146.843 112.256 146.877 112.031C146.971 111.594 146.94 111.156 146.94 111.125C146.841 111.082 146.735 111.061 146.627 111.062C146.346 111.062 146.127 111.219 146.002 111.375C145.812 111.549 145.663 111.762 145.565 112C145.502 112.281 145.471 112.5 145.565 112.687C145.565 112.812 145.752 113 145.971 113L146.002 112.969ZM131.346 112.656C131.658 112.656 131.971 112.531 132.158 112.344C132.335 112.127 132.454 111.869 132.502 111.594C132.585 111.246 132.616 110.888 132.596 110.531C132.465 110.485 132.328 110.464 132.189 110.469C131.564 110.469 131.033 111 130.846 111.531C130.721 111.844 130.689 112.094 130.752 112.312C130.846 112.5 131.064 112.625 131.377 112.625L131.346 112.656ZM138.471 112.344C142.408 112.219 144.471 111.094 145.471 110.156C145.907 109.779 146.267 109.323 146.533 108.812C146.69 108.5 146.752 108.25 146.752 108.187C146.752 108.125 146.377 108.062 145.815 108.062H145.69C144.377 108.062 141.658 108.625 138.502 112.344H138.471ZM134.221 111.969C136.47 111.724 138.561 110.695 140.127 109.062C140.704 108.432 141.14 107.686 141.408 106.875C141.408 106.875 141.033 106.781 140.471 106.75C140.367 106.746 140.262 106.746 140.158 106.75C138.596 106.781 135.689 107.5 134.221 111.969ZM150.471 110.406C151.469 110.415 152.465 110.31 153.44 110.094C155.096 109.656 155.815 109.031 156.127 108.562C156.255 108.375 156.34 108.161 156.377 107.937C156.387 107.854 156.387 107.77 156.377 107.687C156.377 107.687 155.284 107.375 153.752 107.344C152.977 107.324 152.202 107.387 151.44 107.531C149.846 107.867 148.426 108.766 147.44 110.062C147.44 110.062 148.69 110.437 150.471 110.437V110.406ZM143.127 107.781C143.272 107.785 143.416 107.759 143.55 107.706C143.684 107.652 143.806 107.571 143.908 107.469C144.086 107.252 144.204 106.994 144.252 106.719C144.377 106.219 144.346 105.719 144.346 105.656C144.227 105.603 144.1 105.571 143.971 105.562H143.94C143.315 105.562 142.815 106.125 142.596 106.656C142.471 106.969 142.471 107.219 142.533 107.406C142.627 107.625 142.846 107.75 143.127 107.75V107.781ZM148.627 107C149.682 106.701 150.692 106.259 151.627 105.687C153.002 104.844 154.721 103.344 154.909 101L154.596 100.969H154.502C154.096 100.969 153.252 101.062 152.221 101.844C150.909 102.844 149.721 104.594 148.627 107ZM145.033 106.875C145.895 106.483 146.695 105.967 147.408 105.344C149.237 103.765 150.662 101.772 151.565 99.5312C151.565 99.5312 151.284 99.3749 150.846 99.3437C150.825 99.343 150.804 99.343 150.784 99.3437H150.658C150.033 99.3437 149.127 99.6249 148.127 100.719C146.94 101.969 145.908 104.031 145.002 106.875H145.033ZM154.377 106.594C155.596 106.594 156.002 105.969 156.127 105.656C156.248 105.359 156.291 105.037 156.252 104.719C156.047 104.673 155.837 104.652 155.627 104.656C155.239 104.644 154.854 104.722 154.501 104.885C154.148 105.048 153.839 105.29 153.596 105.594C153.534 105.719 153.346 106.031 153.502 106.312C153.627 106.5 153.909 106.625 154.377 106.625V106.594ZM157.034 103.219C157.976 103.229 158.917 103.156 159.846 103C160.909 102.812 161.502 101.906 161.846 101.156C162.159 100.375 162.284 99.5937 162.284 99.5937C158.971 99.6874 157.377 100.656 156.659 101.469C156.205 101.936 155.919 102.54 155.846 103.187C155.846 103.187 156.346 103.25 157.034 103.25V103.219ZM153.596 99.7812C153.863 99.4394 154.113 99.0848 154.346 98.7187C154.752 98.0937 155.096 97.4687 155.096 96.9687C155.096 96.4374 155.221 95.4062 155.284 94.7812L155.471 93.3749C155.377 93.3749 153.409 94.1249 153.409 95.9999C153.409 97.8749 153.596 99.7499 153.596 99.7499V99.7812ZM156.159 99.5937H156.221C158.365 98.9517 160.318 97.7927 161.909 96.2187C162.44 95.5937 162.784 94.5937 162.877 93.2812C162.94 92.3437 162.877 91.5624 162.877 91.4687C162.765 91.439 162.649 91.4285 162.534 91.4374C162.096 91.4374 161.596 91.6249 160.971 92.0624C160.391 92.4732 159.847 92.9333 159.346 93.4374C158.346 94.4374 157.565 95.4374 157.565 95.4374C157.471 95.5624 156.94 96.5937 156.471 97.5937C156.252 98.0528 156.084 98.535 155.971 99.0312C155.94 99.2187 155.909 99.3437 155.971 99.4687C155.986 99.5205 156.019 99.565 156.065 99.5937C156.106 99.603 156.149 99.603 156.19 99.5937H156.159Z" fill="#435125"/>
<path d="M186.878 23.875L186.315 24.0937L186.065 24.1875L185.377 24.1563L184.69 24.4688L183.502 25.2812L183.471 25.3125L183.002 25.4375L182.596 25.25L182.377 25.375L182.284 25.8437L182.065 26.1875L181.784 26.375L180.846 26.4687L180.065 26.9062L179.002 26.5937L178.534 26.8125L177.502 27.75L176.971 27.9687H176.815L176.096 27.9375L175.815 28.0312L175.377 28.4375L174.565 28.5L174.284 28.6875L173.877 29.5L173.44 30L173.19 30.0312L172.94 29.9375L172.721 29.9688L172.627 30.5L172.44 30.7188L171.877 30.9062L171.44 31.2812L171.033 31.4687H170.408L169.877 31.7812L168.908 31.8438L168.502 32.2187L168.408 32.3125L168.221 32.4062L167.908 32.5938L167.846 32.6562L167.471 32.5938L167.033 32.75L166.846 32.5L166.533 32.6562L166.158 32.6875L165.658 32.4688L165.252 32.2812L164.971 32.3438L164.877 32.8125V32.875L164.565 33.25L164.033 33.5938L163.971 33.6875L163.346 34.5L162.158 35.75L161.158 36.25L160.127 36.5625L159.408 37.1562L157.533 38.0938L154.502 39.5937L153.877 39.7812L153.002 39.9062L151.439 40.5L150.064 40.9062L149.97 40.9375L149.72 41.0312L147.752 41.625L146.845 41.5L146.314 41.7188L144.908 41.5625H143.939L143.314 41.6875L142.158 42.25L140.189 43.1875L139.564 43.8125L138.564 44.3125L137.376 44.6875V44.1875L136.97 44.3125L136.658 44.4063L135.72 44.5312H135.189L134.845 44.4375H134.783L132.845 45.0938L130.658 45.3125L129.564 45.6563H128.751L128.251 45.8125L127.251 45.9375L126.876 45.8437L126.814 45.8125L123.876 45.9375L122.532 45.7812L121.907 45.9375L120.814 45.5625L119.251 45.375L118.876 45.2812L118.064 45.0313L117.689 45.25L117.376 45.2812L116.751 45.0313H116.501L115.939 45.2187L115.626 45.1562L115.314 44.9062L114.657 44.8125L114.22 44.4688L111.876 44.7812L111.251 44.5937L109.095 43.9687H108.782L108.345 44.2812L107.72 44.5312L107.126 44.6562L106.376 44.6875L105.501 44.4688L104.626 44.0312L104.282 43.9375L103.532 44.0312H103.313L101.938 43.3125L100.188 42.2188L99.0007 41.625L98.532 41.5625L98.4695 41.7812L98.6882 42.4687L98.782 43.1875V43.8125L98.7507 44.2188L98.8445 44.5625L99.282 45.0625L99.4695 45.5312L99.5945 46.8437V48.1875L99.3757 50.3125L99.3132 50.625L99.0632 51.75L98.8445 52.7812L97.9382 55.5L97.7194 55.8125L97.0944 56.2187L95.7506 57.1562L94.7506 57.7188L94.4381 57.8438L93.6256 57.9062H93.1256L92.5006 57.5625L91.8756 57.4062L91.063 56.8125L90.188 56.625L89.188 56.0625L88.938 55.75L88.4067 55.6875L87.6567 55.4688L87.3755 55.375L87.188 55.3438L86.2505 55.3125L85.3442 54.9062L84.8754 54.7812H84.2504L83.5941 55.0938L83.2504 55.2187L82.8129 55.0625H82.5004L82.1879 55.5937L82.1254 55.6875L81.8754 55.8125H81.3441L81.0941 55.9062L80.7503 56.0625L80.4378 56.1875L80.2816 56.25H80.1878L80.0316 56.3125H79.8441L79.4691 56.125L79.2816 56.0312L78.9691 55.9688L78.8128 56.0625L78.7816 56.6562L78.6253 57L78.1253 57.4375L77.6253 57.875L77.3128 58.375L76.3752 60.4688L75.7815 61.3125L75.6252 61.5312L75.0002 62.1875L74.469 62.5938L73.2502 63.5312L72.0939 64L71.0939 64.1875H70.5939L69.6564 64.0625L68.8438 63.8125L67.9063 63.25L66.9376 62.4375L65.4688 61.0312L65.2813 60.9062L65.2188 60.875L64.7813 60.5625H64.4375L64.3125 60.8125L64.2188 61.125L64.1563 61.4062L64 62.9688V63.0625L64.0938 63.7187L65.2188 65.2812L65.5313 66.0938L65.5938 66.1875L65.8125 66.5625L66 66.875L66.4063 68L66.125 68.625L66.25 69.0625L65.9375 69.3125L65.875 69.6875L66.8438 70.9375L67.0626 71.4687L66.8438 72.2188L66.4376 72.6562L66.3438 72.75L66.4063 73.0625L66.8438 73.5L67.6251 74.1875L68.0313 75.1875L68.3438 75.5L68.7188 75.4062L68.9063 75.5625H69.2189L69.5314 75.875L69.7189 75.9375L70.0314 76.0938L70.2814 76.4062L70.3126 77.4062L70.7814 78.5938V79.375L71.0939 79.8438L71.1564 80.2188L71.0001 81.25L71.3751 81.5625L71.7502 81.5L72.0002 81.5312L72.4064 81.875L72.9064 82.625L73.4064 82.5625L73.7189 82.6875L75.1877 84.0312L75.5002 84.2188L75.7815 84.3438L76.094 84.6562L76.5315 84.3438H76.594L77.094 84.2813L77.3128 84.4375L77.7503 84.7188H78.2815L79.5316 85.0938L80.0316 85.2188L81.0941 85.875L81.5629 86.1563L81.8129 86.375L82.1879 86.6875L82.8754 87L83.5004 87.125L83.8129 87.1875L84.0942 87.2812L85.4067 87.8125L86.1255 87.9688L86.7505 88.2188L87.2505 88.375H87.6255L88.1255 87.9688H88.5942L89.0005 88.0313L89.4068 87.9688L90.0318 87.5938L90.1255 87.4063L90.563 87.2188L92.0631 87.0312L92.5006 87.1562L93.6256 86.6875L94.3756 86.875L95.0006 86.6562L96.4694 86.9688L96.8444 87.25L97.2819 87.7188H97.8132L97.5944 88.0625L98.2194 88.75L98.8132 89.5938L98.8445 89.7188L99.2507 90.9375L99.5632 91.375L99.782 91.9688V92.3438L99.4695 92.625L99.407 92.75V92.8125L99.4695 92.9688L99.5945 92.9062L99.8132 92.7812L100.126 92.7188L100.626 92.7812L100.97 92.8125L101.501 92.5625L101.876 92.375L102.438 92.625H103.063L103.345 92.7188L104.095 93.0625L104.47 93.0938L104.595 93L104.688 92.8125L104.657 92.5625L104.345 92.2188L103.72 91.4688L103.47 91.0938L103.282 90.5625L103.22 89.875L103.157 89.4062L103.251 88.7812L103.407 88.5625L103.532 88.0625L103.563 87.9375L103.938 87.4688L104.876 86.8438L105.876 85.9688L106.657 85.4375L107.47 85.0938V85L107.595 85.0313L109.657 84.3125L110.595 84.1562L116.845 84.5938L117.064 84.5312L117.282 83.9375L117.376 83.8438L117.47 83.7813L118.157 83.4688L118.47 83.4062L119.345 83.625L119.72 83.7188L120.314 83.4062H120.72L121.564 82.9375H122.095L122.314 82.875L123.345 82.125L124.314 81.8438L124.564 81.7188L124.657 81.6562L125.689 81.125L126.314 80.625L126.876 80.3125L127.501 80.1875L129.064 80.0625L129.408 79.5312L130.095 79.4375L130.501 78.9687L130.97 78.7813L131.314 78.2812L131.626 77.875L132.001 77.6562L133.283 77.5625L134.783 77.75L135.001 77.625L135.314 76.4062L135.689 76.1875L136.626 74.7812V74.2812L136.658 73.8438L136.814 73.2188L136.72 72.1562L136.845 71.0312L137.439 69.625L137.97 69.0625L138.814 68.4688L139.252 68.2812L139.877 68.1875H139.939L140.095 68.125H142.97L143.689 68.0938L145.47 68.4062H145.595L146.189 68.625L146.877 69.1562L147.627 69.875L147.752 70L148.22 70.2187L148.377 70.2812L148.752 70.2187L149.314 69.9062L149.752 69.5937L150.314 69.2812V69.2188L150.658 68.75L150.783 68.5312L151.908 68.0938L153.221 68.0312L153.377 67.9375H153.439L153.783 67.5H154.096L154.908 67.8125L155.439 67.6875L155.877 67.8438L156.221 67.8125L156.846 67.7187L157.564 68.2188L157.971 68.2812L159.377 69.0938H159.502L159.564 69.125L159.721 69.0625L159.971 69H160.002L160.033 69.0312L160.221 69.25L160.439 69.2812L160.689 68.9687L160.596 68.7813L160.564 68.7188L160.033 68.625L159.596 67.8438L160.033 67.375L159.346 66.5625L159.221 66.4062V66.375L158.971 66L157.783 64.1875L156.221 62.9375L155.689 62.5312L155.502 62.375L154.658 61.5312L154.064 60.75L154.002 60.5937L153.877 60.3125L153.533 59.5625L152.908 59.0938L152.408 58.5312L151.346 57.0938L151.189 56.875L150.939 56.7188H150.408L150.377 56.6562H150.345V56.625L150.596 56.375L150.908 56.3125L151.002 56.0312L150.471 54.5V54.4375L150.439 53.9687L150.846 51.75L150.908 51.4687L151.658 50L152.096 49.625L152.596 48.6562L153.033 48.0312L153.439 47.625L153.502 47.5938L154.221 47.1562L154.846 47.0625L155.439 46.9688L156.471 47.2812H157.408L157.627 47.25L158.064 47.1875L158.783 46.9688L159.127 46.75L159.314 46.5L159.689 45.25L159.814 44.8438L160.033 44.4063L161.377 42.875L162.377 41.9375L164.627 40.3125L165.721 39.6562L166.283 39.3125L171.315 37.0625L172.627 35.75L173.315 35.0625L174.502 34.25L175.909 33.6562L177.159 32.7187L177.409 32.375L177.721 31.2812L178.034 31.2188L178.252 30.6875L178.346 30.5312L179.315 29.8437L179.44 29.7813L183.284 27.8437L183.846 27.9375L184.159 27.4688L185.252 27.2813H185.471L185.752 27.125L185.971 26.7187V26.625L186.002 25.5625L186.252 25.2812L186.377 24.5937L186.502 24.4062L186.627 24.25L186.94 24.0312L186.878 23.9062V23.875Z" fill="#D47600"/>
</g>
<defs>
<clipPath id="clip0_1284_62179">
<rect width="250" height="150" fill="white"/>
</clipPath>
</defs>
</svg>
