<svg width="250" height="150" viewBox="0 0 250 150" fill="none" xmlns="http://www.w3.org/2000/svg">
<g clip-path="url(#clip0_1284_62300)">
<path d="M0 0H250V150H0V0Z" fill="#046A38"/>
<path d="M250 81.5H0V94.5H250V81.5Z" fill="white"/>
<path d="M250 55.5H0V68.5H250V55.5Z" fill="#FFCD00"/>
<path d="M250 68.5H0V81.5H250V68.5Z" fill="black"/>
<path d="M145 0L145 150H132L132 0H145Z" fill="white"/>
<path d="M119 0L119 150H106L106 0H119Z" fill="#FFCD00"/>
<path d="M132 0L132 150H119L119 0H132Z" fill="black"/>
<path d="M125.5 112.5C146.211 112.5 163 95.7107 163 75C163 54.2893 146.211 37.5 125.5 37.5C104.789 37.5 88 54.2893 88 75C88 95.7107 104.789 112.5 125.5 112.5Z" fill="#D50032"/>
<path d="M125.5 41.6543L126.673 45.2626H130.465L127.396 47.4918L128.569 51.098L125.5 48.8689L122.431 51.098L123.604 47.4918L120.536 45.2626H124.327L125.5 41.6543Z" fill="#046A38" stroke="black" stroke-width="0.7"/>
<path d="M145.101 48.0228L143.929 51.6315L146.996 53.8602L143.203 53.8598L142.033 57.4668L140.86 53.8596L137.067 53.8592L140.136 51.6311L138.964 48.0239L142.031 50.2526L145.101 48.0228Z" fill="#046A38" stroke="black" stroke-width="0.7"/>
<path d="M157.214 64.6957L154.145 66.9263L155.317 70.5324L152.248 68.3027L149.181 70.5326L150.353 66.9251L147.284 64.6954L151.077 64.6966L152.248 61.0892L153.42 64.6952L157.214 64.6957Z" fill="#046A38" stroke="black" stroke-width="0.7"/>
<path d="M157.376 85.4746L153.497 85.3049L152.449 88.7811L151.1 85.1986L147.223 85.0296L150.267 82.9853L148.919 79.4028L152.148 81.7224L155.193 79.6781L154.145 83.1543L157.376 85.4746Z" fill="#046A38" stroke="black" stroke-width="0.7"/>
<path d="M145.241 102.138L142.097 99.7476L139.137 101.853L140.157 98.2697L137.014 95.8809L140.787 96.0558L141.807 92.4721L143.117 96.1638L146.89 96.3388L143.929 98.4447L145.241 102.138Z" fill="#046A38" stroke="black" stroke-width="0.7"/>
<path d="M125.499 108.346L124.326 104.737H120.535L123.603 102.508L122.431 98.902L125.499 101.131L128.568 98.902L127.395 102.508L130.464 104.737H126.672L125.499 108.346Z" fill="#046A38" stroke="black" stroke-width="0.7"/>
<path d="M105.899 101.977L107.071 98.3685L104.003 96.1398L107.796 96.1402L108.967 92.5332L110.139 96.1404L113.932 96.1408L110.864 98.3689L112.036 101.976L108.968 99.7474L105.899 101.977Z" fill="#046A38" stroke="black" stroke-width="0.7"/>
<path d="M93.7852 85.3043L96.8545 83.0737L95.6828 79.4676L98.7511 81.6973L101.818 79.4674L100.647 83.0749L103.715 85.3046L99.9228 85.3034L98.7511 88.9108L97.5794 85.3048L93.7852 85.3043Z" fill="#046A38" stroke="black" stroke-width="0.7"/>
<path d="M93.6232 64.5254L97.5029 64.6951L98.5509 61.2189L99.8992 64.8014L103.777 64.9704L100.732 67.0147L102.08 70.5972L98.8511 68.2776L95.8064 70.3219L96.8545 66.8457L93.6232 64.5254Z" fill="#046A38" stroke="black" stroke-width="0.7"/>
<path d="M105.759 47.8618L108.902 50.2524L111.863 48.1466L110.843 51.7303L113.985 54.1191L110.213 53.9442L109.193 57.5279L107.882 53.8362L104.11 53.6612L107.07 51.5553L105.759 47.8618Z" fill="#046A38" stroke="black" stroke-width="0.7"/>
<path d="M128.298 85.1031C128.668 91.1695 130.018 96.0034 131.312 95.8999C132.607 95.7963 133.355 90.7946 132.984 84.7281C132.614 78.6617 131.264 73.8278 129.97 73.9314C128.675 74.0349 127.927 79.0367 128.298 85.1031Z" fill="#046A38" stroke="black" stroke-width="0.5"/>
<path d="M130.363 85.0856C130.733 91.1511 132.138 95.9796 133.502 95.8703C134.866 95.761 135.671 90.7554 135.301 84.6899C134.931 78.6243 133.525 73.7959 132.162 73.9051C130.798 74.0144 129.992 79.0201 130.363 85.0856Z" fill="#046A38" stroke="black" stroke-width="0.5"/>
<path d="M129.815 85.6393C130.229 92.3511 131.457 97.7213 132.558 97.634C133.659 97.5467 134.216 92.035 133.802 85.3232C133.388 78.6114 132.16 73.2412 131.059 73.3285C129.958 73.4158 129.401 78.9275 129.815 85.6393Z" fill="#046A38" stroke="black" stroke-width="0.5"/>
<path d="M134.646 93.0832C131.292 93.4373 116.625 93.604 116 93.1457C115.375 92.6873 114.438 90.7498 114.438 90.6457C116.354 90.5623 115.521 89.5415 116.5 88.9998C117.458 88.4373 118.833 88.8123 119.25 89.479C119.667 90.1665 119.333 90.8332 119.854 90.854C120.396 90.854 130.812 90.354 134.646 90.6248C135.271 90.6665 135.75 91.229 135.75 91.854C135.75 92.479 135.271 93.0207 134.646 93.0832Z" fill="#9C4A00" stroke="black" stroke-width="0.5"/>
<path d="M124.646 92.0415C124.625 93.4999 126.75 93.0832 126.792 94.2915C126.729 95.5624 123.209 94.3749 123.167 92.0207C123.313 89.6874 126.75 88.5415 126.792 89.8749C126.834 90.979 124.688 90.604 124.646 92.0415Z" fill="#FFCD00" stroke="black" stroke-width="0.5"/>
<path d="M125.896 92.0415C125.875 93.4999 128 93.0832 128.042 94.2915C127.979 95.5624 124.459 94.3749 124.417 92.0207C124.563 89.6874 128 88.5415 128.042 89.8749C128.084 90.979 125.938 90.604 125.896 92.0415Z" fill="#FFCD00" stroke="black" stroke-width="0.5"/>
<path d="M127.25 92.0415C127.229 93.4999 129.354 93.0832 129.396 94.2915C129.333 95.5624 125.812 94.3749 125.771 92.0207C125.916 89.6874 129.354 88.5415 129.396 89.8749C129.437 90.979 127.291 90.604 127.25 92.0415Z" fill="#FFCD00" stroke="black" stroke-width="0.5"/>
<path d="M128.521 92.0415C128.5 93.4999 130.625 93.0832 130.667 94.2915C130.604 95.5624 127.084 94.3749 127.042 92.0207C127.188 89.6874 130.625 88.5415 130.667 89.8749C130.709 90.979 128.563 90.604 128.521 92.0415Z" fill="#FFCD00" stroke="black" stroke-width="0.5"/>
<path d="M126.45 89.1657C126.892 90.2092 127.595 90.4009 128.019 89.5939C128.444 88.7869 128.429 87.2868 127.988 86.2434C127.546 85.1999 126.843 85.0082 126.419 85.8152C125.994 86.6221 126.009 88.1222 126.45 89.1657Z" fill="#046A38" stroke="black" stroke-width="0.5"/>
<path d="M124.611 89.0343C125.052 90.0778 125.755 90.2695 126.179 89.4626C126.604 88.6556 126.59 87.1555 126.148 86.112C125.706 85.0686 125.004 84.8768 124.579 85.6838C124.155 86.4908 124.169 87.9909 124.611 89.0343Z" fill="#046A38" stroke="black" stroke-width="0.5"/>
<path d="M123.292 86.6525C123.734 87.696 124.436 87.8877 124.861 87.0807C125.285 86.2737 125.271 84.7737 124.829 83.7302C124.388 82.6867 123.685 82.495 123.261 83.302C122.836 84.109 122.85 85.609 123.292 86.6525Z" fill="#046A38" stroke="black" stroke-width="0.5"/>
<path d="M125.023 86.056C125.345 87.4055 126.009 88.068 126.506 87.5357C127.004 87.0035 127.146 85.478 126.825 84.1285C126.503 82.779 125.838 82.1165 125.341 82.6488C124.843 83.1811 124.701 84.7065 125.023 86.056Z" fill="#046A38" stroke="black" stroke-width="0.5"/>
<path d="M124.431 84.2081C124.782 85.3971 125.456 85.8343 125.937 85.1846C126.417 84.5349 126.522 83.0443 126.17 81.8553C125.819 80.6663 125.145 80.2291 124.664 80.8788C124.184 81.5285 124.079 83.0191 124.431 84.2081Z" fill="#046A38" stroke="black" stroke-width="0.5"/>
<path d="M122.788 83.4786C123.139 84.6676 123.814 85.1048 124.294 84.4551C124.775 83.8054 124.879 82.3148 124.528 81.1258C124.176 79.9368 123.502 79.4996 123.022 80.1493C122.541 80.799 122.437 82.2896 122.788 83.4786Z" fill="#046A38" stroke="black" stroke-width="0.5"/>
<path d="M121.813 61.8335C121.813 61.8335 118.146 65.0002 118.563 73.6043C119.021 82.271 126.667 86.3335 126.667 86.3335H127.875V61.8335H121.813Z" fill="#9063CD" stroke="black" stroke-width="0.5"/>
<path d="M129.289 89.9029C129.723 90.6914 130.423 90.4692 130.852 89.4067C131.282 88.3441 131.278 86.8436 130.844 86.0551C130.41 85.2666 129.71 85.4888 129.281 86.5514C128.851 87.6139 128.855 89.1145 129.289 89.9029Z" fill="#046A38" stroke="black" stroke-width="0.5"/>
<path d="M127.513 89.4476C127.947 90.2361 128.647 90.0139 129.077 88.9513C129.506 87.8888 129.503 86.3882 129.069 85.5998C128.635 84.8113 127.935 85.0335 127.505 86.096C127.076 87.1586 127.079 88.6592 127.513 89.4476Z" fill="#046A38" stroke="black" stroke-width="0.5"/>
<path d="M126.629 86.9054C127.063 87.6939 127.763 87.4717 128.193 86.4091C128.623 85.3466 128.619 83.846 128.185 83.0575C127.751 82.2691 127.051 82.4913 126.622 83.5538C126.192 84.6164 126.196 86.1169 126.629 86.9054Z" fill="#046A38" stroke="black" stroke-width="0.5"/>
<path d="M128.738 87.6806C129.256 88.1711 129.912 87.4499 130.204 86.0698C130.495 84.6897 130.312 83.1733 129.794 82.6828C129.276 82.1923 128.62 82.9135 128.329 84.2936C128.037 85.6737 128.22 87.1901 128.738 87.6806Z" fill="#046A38" stroke="black" stroke-width="0.5"/>
<path d="M131.201 87.8905C131.695 88.5011 132.359 88.0098 132.685 86.7932C133.01 85.5765 132.874 84.0952 132.38 83.4846C131.885 82.8739 131.221 83.3652 130.895 84.5818C130.57 85.7985 130.707 87.2798 131.201 87.8905Z" fill="#046A38" stroke="black" stroke-width="0.5"/>
<path d="M129.969 86.7811C130.463 87.3917 131.128 86.9005 131.453 85.6838C131.779 84.4672 131.642 82.9859 131.148 82.3752C130.654 81.7646 129.99 82.2558 129.664 83.4725C129.338 84.6891 129.475 86.1704 129.969 86.7811Z" fill="#046A38" stroke="black" stroke-width="0.5"/>
<path d="M128.426 85.2467C128.92 85.8573 129.584 85.366 129.91 84.1494C130.235 82.9327 130.099 81.4514 129.605 80.8408C129.111 80.2301 128.446 80.7214 128.121 81.938C127.795 83.1547 127.932 84.636 128.426 85.2467Z" fill="#046A38" stroke="black" stroke-width="0.5"/>
<path d="M126.922 84.2381C127.417 84.8488 128.081 84.3575 128.407 83.1409C128.732 81.9242 128.595 80.4429 128.101 79.8322C127.607 79.2216 126.943 79.7129 126.617 80.9295C126.292 82.1461 126.428 83.6275 126.922 84.2381Z" fill="#046A38" stroke="black" stroke-width="0.5"/>
<path d="M126.757 77.8385C128.849 82.65 131.811 86.0001 133.373 85.3211C134.934 84.6421 134.504 80.1911 132.412 75.3796C130.32 70.568 127.358 67.2179 125.796 67.897C124.235 68.576 124.665 73.027 126.757 77.8385Z" fill="#D50032" stroke="black" stroke-width="0.5"/>
<path d="M126.959 65.8624C127.663 65.8624 128.235 65.3629 128.235 64.7467C128.235 64.1306 127.663 63.6311 126.959 63.6311C126.254 63.6311 125.683 64.1306 125.683 64.7467C125.683 65.3629 126.254 65.8624 126.959 65.8624Z" fill="#046A38" stroke="black" stroke-width="0.5"/>
<path d="M126.802 64.4634C127.507 64.4634 128.078 63.9639 128.078 63.3478C128.078 62.7317 127.507 62.2322 126.802 62.2322C126.097 62.2322 125.526 62.7317 125.526 63.3478C125.526 63.9639 126.097 64.4634 126.802 64.4634Z" fill="#046A38" stroke="black" stroke-width="0.5"/>
<path d="M125.031 66.2167C125.693 66.2167 126.229 65.6855 126.229 65.0302C126.229 64.3749 125.693 63.8438 125.031 63.8438C124.37 63.8438 123.833 64.3749 123.833 65.0302C123.833 65.6855 124.37 66.2167 125.031 66.2167Z" fill="#046A38" stroke="black" stroke-width="0.5"/>
<path d="M125.396 64.6761C126.058 64.6761 126.594 64.1529 126.594 63.5074C126.594 62.8619 126.058 62.3386 125.396 62.3386C124.735 62.3386 124.198 62.8619 124.198 63.5074C124.198 64.1529 124.735 64.6761 125.396 64.6761Z" fill="#046A38" stroke="black" stroke-width="0.5"/>
<path d="M123.417 64.7291C124.165 64.7291 124.771 64.1979 124.771 63.5427C124.771 62.8874 124.165 62.3562 123.417 62.3562C122.669 62.3562 122.063 62.8874 122.063 63.5427C122.063 64.1979 122.669 64.7291 123.417 64.7291Z" fill="#046A38" stroke="black" stroke-width="0.5"/>
<path d="M125.891 62.6927C126.596 62.6927 127.167 62.1932 127.167 61.5771C127.167 60.9609 126.596 60.4614 125.891 60.4614C125.187 60.4614 124.615 60.9609 124.615 61.5771C124.615 62.1932 125.187 62.6927 125.891 62.6927Z" fill="#046A38" stroke="black" stroke-width="0.5"/>
<path d="M124.198 62.9583C124.86 62.9583 125.396 62.4351 125.396 61.7896C125.396 61.1441 124.86 60.6208 124.198 60.6208C123.537 60.6208 123 61.1441 123 61.7896C123 62.4351 123.537 62.9583 124.198 62.9583Z" fill="#046A38" stroke="black" stroke-width="0.5"/>
<path d="M121.646 64.7999C122.308 64.7999 122.844 64.2687 122.844 63.6135C122.844 62.9582 122.308 62.427 121.646 62.427C120.985 62.427 120.448 62.9582 120.448 63.6135C120.448 64.2687 120.985 64.7999 121.646 64.7999Z" fill="#046A38" stroke="black" stroke-width="0.5"/>
<path d="M122.063 63.8968C122.725 63.8968 123.261 63.3736 123.261 62.7281C123.261 62.0826 122.725 61.5593 122.063 61.5593C121.402 61.5593 120.865 62.0826 120.865 62.7281C120.865 63.3736 121.402 63.8968 122.063 63.8968Z" fill="#046A38" stroke="black" stroke-width="0.5"/>
<path d="M122.558 62.9051C123.219 62.9051 123.756 62.3819 123.756 61.7364C123.756 61.0909 123.219 60.5676 122.558 60.5676C121.896 60.5676 121.36 61.0909 121.36 61.7364C121.36 62.3819 121.896 62.9051 122.558 62.9051Z" fill="#046A38" stroke="black" stroke-width="0.5"/>
<path d="M126.653 76.9033C129.037 82.523 132.686 86.2925 134.801 85.3229C136.917 84.3532 136.698 79.0115 134.313 73.3918C131.928 67.7722 128.28 64.0026 126.165 64.9723C124.049 65.942 124.268 71.2837 126.653 76.9033Z" fill="#046A38" stroke="black" stroke-width="0.5"/>
<path d="M132.981 77.2913C133.483 78.4727 134.219 79.2797 134.625 79.0937C135.031 78.9078 134.954 77.7994 134.452 76.618C133.95 75.4367 133.213 74.6297 132.807 74.8157C132.401 75.0016 132.478 76.11 132.981 77.2913Z" fill="#046A38" stroke="black" stroke-width="0.5"/>
<path d="M133.375 76.9583C136.562 80.8542 136.167 83.3333 135.833 85.4167L131.312 80.5625V75.6875L133.375 76.9583Z" fill="#046A38" stroke="black" stroke-width="0.5"/>
<path d="M133.646 80.1041C136.854 83.9999 136.458 86.4791 136.125 88.5624L129.979 79.0416V72.6458C130.458 73.8958 130.458 76.2083 133.646 80.1041Z" fill="#046A38" stroke="black" stroke-width="0.5"/>
<path d="M133.75 82.6458C137.021 86.4583 136.667 88.9583 136.375 91.0624C135.333 88.6666 134.75 87.1458 131.458 83.3124C128.188 79.4791 129.729 76.7083 129.917 75.2708C130.438 76.4999 130.479 78.8124 133.75 82.6458Z" fill="#046A38" stroke="black" stroke-width="0.5"/>
<path d="M130.229 73.8522C131.211 75.9587 132.565 77.4061 133.253 77.0852C133.941 76.7642 133.703 74.7965 132.721 72.69C131.739 70.5836 130.384 69.1361 129.696 69.4571C129.008 69.778 129.246 71.7458 130.229 73.8522Z" fill="#046A38" stroke="black" stroke-width="0.5"/>
<path d="M129.1 75.935C129.886 77.6758 131.016 78.8643 131.624 78.5897C132.233 78.3151 132.089 76.6813 131.303 74.9405C130.517 73.1997 129.386 72.0112 128.778 72.2858C128.17 72.5604 128.314 74.1942 129.1 75.935Z" fill="#046A38" stroke="black" stroke-width="0.5"/>
<path d="M127.571 77.399C128.323 79.1545 129.43 80.3646 130.044 80.1017C130.657 79.8388 130.544 78.2025 129.792 76.447C129.04 74.6915 127.932 73.4814 127.319 73.7443C126.706 74.0072 126.818 75.6435 127.571 77.399Z" fill="#046A38" stroke="black" stroke-width="0.5"/>
<path d="M129.088 72.0304C129.774 73.3206 130.709 74.1651 131.176 73.9166C131.644 73.6681 131.466 72.4208 130.78 71.1306C130.094 69.8404 129.159 68.9959 128.692 69.2443C128.225 69.4928 128.402 70.7402 129.088 72.0304Z" fill="#046A38" stroke="black" stroke-width="0.5"/>
<path d="M127.777 72.9603C128.381 74.2911 129.261 75.1926 129.743 74.974C130.225 74.7553 130.126 73.4993 129.523 72.1686C128.919 70.8378 128.039 69.9363 127.557 70.1549C127.075 70.3736 127.174 71.6296 127.777 72.9603Z" fill="#046A38" stroke="black" stroke-width="0.5"/>
<path d="M134.647 90.625C134.321 90.625 134.008 90.7545 133.778 90.985C133.547 91.2155 133.418 91.5282 133.418 91.8542C133.418 92.1802 133.547 92.4928 133.778 92.7233C134.008 92.9538 134.321 93.0833 134.647 93.0833" stroke="black" stroke-width="0.5" stroke-linecap="round"/>
<path d="M125.939 71.9583C126.164 72.5086 126.409 73.0419 126.66 73.5278C126.911 74.0137 127.163 74.4426 127.402 74.7901C127.64 75.1377 127.861 75.3969 128.051 75.5532C128.24 75.7094 128.396 75.7596 128.508 75.7007C128.62 75.6419 128.687 75.4753 128.704 75.2104C128.722 74.9454 128.69 74.5874 128.61 74.1567C128.53 73.726 128.404 73.2311 128.239 72.7002C128.073 72.1693 127.872 71.6128 127.647 71.0625" fill="#046A38"/>
<path d="M125.939 71.9583C126.164 72.5086 126.409 73.0419 126.66 73.5278C126.911 74.0137 127.163 74.4426 127.402 74.7901C127.64 75.1377 127.861 75.3969 128.051 75.5532C128.24 75.7094 128.396 75.7596 128.508 75.7007C128.62 75.6419 128.687 75.4753 128.704 75.2104C128.722 74.9454 128.69 74.5874 128.61 74.1567C128.53 73.726 128.404 73.2311 128.239 72.7002C128.073 72.1693 127.872 71.6128 127.647 71.0625" stroke="black" stroke-width="0.5" stroke-linecap="round"/>
<path d="M127.621 70.2413C128.225 71.5721 129.105 72.4736 129.587 72.255C130.069 72.0363 129.97 70.7803 129.366 69.4496C128.763 68.1188 127.883 67.2173 127.401 67.4359C126.919 67.6546 127.017 68.9106 127.621 70.2413Z" fill="#046A38" stroke="black" stroke-width="0.5" stroke-linecap="round"/>
<path d="M126.026 70.9897C126.601 72.3328 127.462 73.2525 127.949 73.044C128.435 72.8355 128.363 71.5777 127.787 70.2346C127.212 68.8915 126.351 67.9718 125.864 68.1803C125.378 68.3888 125.45 69.6466 126.026 70.9897Z" fill="#046A38" stroke="black" stroke-width="0.5" stroke-linecap="round"/>
<path d="M124.876 68.7709C125.096 69.1431 125.329 69.5006 125.561 69.823C125.792 70.1454 126.019 70.4264 126.227 70.6499C126.435 70.8734 126.62 71.0351 126.773 71.1257C126.925 71.2164 127.042 71.2341 127.116 71.1781C127.189 71.122 127.219 70.9931 127.203 70.7989C127.187 70.6046 127.126 70.3488 127.022 70.0459C126.919 69.7431 126.775 69.3992 126.6 69.0339C126.425 68.6685 126.221 68.2889 126.001 67.9167" fill="#046A38"/>
<path d="M124.876 68.7709C125.096 69.1431 125.329 69.5006 125.561 69.823C125.792 70.1454 126.019 70.4264 126.227 70.6499C126.435 70.8734 126.62 71.0351 126.773 71.1257C126.925 71.2164 127.042 71.2341 127.116 71.1781C127.189 71.122 127.219 70.9931 127.203 70.7989C127.187 70.6046 127.126 70.3488 127.022 70.0459C126.919 69.7431 126.775 69.3992 126.6 69.0339C126.425 68.6685 126.221 68.2889 126.001 67.9167" stroke="black" stroke-width="0.5" stroke-linecap="round"/>
<path d="M125.521 67.7292C125.919 68.4311 126.372 69.0811 126.78 69.5363C127.189 69.9916 127.519 70.2147 127.699 70.1567C127.878 70.0987 127.892 69.7642 127.738 69.227C127.584 68.6897 127.273 67.9936 126.876 67.2917" fill="#046A38"/>
<path d="M125.521 67.7292C125.919 68.4311 126.372 69.0811 126.78 69.5363C127.189 69.9916 127.519 70.2147 127.699 70.1567C127.878 70.0987 127.892 69.7642 127.738 69.227C127.584 68.6897 127.273 67.9936 126.876 67.2917" stroke="black" stroke-width="0.5" stroke-linecap="round"/>
<path d="M127.938 68.2709C128.243 68.7788 128.565 69.2666 128.886 69.7064C129.207 70.1463 129.52 70.5297 129.809 70.8346C130.097 71.1395 130.354 71.3601 130.565 71.4836C130.777 71.6072 130.939 71.6314 131.041 71.5548C131.144 71.4782 131.185 71.3023 131.163 71.0372C131.141 70.7721 131.057 70.4229 130.913 70.0096C130.77 69.5964 130.572 69.1271 130.33 68.6286C130.087 68.1301 129.805 67.6121 129.5 67.1042" fill="#046A38"/>
<path d="M127.938 68.2709C128.243 68.7788 128.565 69.2666 128.886 69.7064C129.207 70.1463 129.52 70.5297 129.809 70.8346C130.097 71.1395 130.354 71.3601 130.565 71.4836C130.777 71.6072 130.939 71.6314 131.041 71.5548C131.144 71.4782 131.185 71.3023 131.163 71.0372C131.141 70.7721 131.057 70.4229 130.913 70.0096C130.77 69.5964 130.572 69.1271 130.33 68.6286C130.087 68.1301 129.805 67.6121 129.5 67.1042" stroke="black" stroke-width="0.5" stroke-linecap="round"/>
<path d="M126.501 66.9167C126.712 67.3214 126.938 67.7134 127.166 68.0687C127.394 68.4239 127.619 68.7351 127.827 68.9831C128.035 69.2311 128.222 69.4107 128.376 69.5109C128.53 69.6112 128.649 69.6299 128.724 69.5661C128.799 69.5022 128.83 69.3571 128.814 69.1395C128.798 68.922 128.735 68.6366 128.631 68.3009C128.526 67.9651 128.381 67.5861 128.205 67.1869C128.029 66.7877 127.825 66.3768 127.606 65.9792" fill="#046A38"/>
<path d="M126.501 66.9167C126.712 67.3214 126.938 67.7134 127.166 68.0687C127.394 68.4239 127.619 68.7351 127.827 68.9831C128.035 69.2311 128.222 69.4107 128.376 69.5109C128.53 69.6112 128.649 69.6299 128.724 69.5661C128.799 69.5022 128.83 69.3571 128.814 69.1395C128.798 68.922 128.735 68.6366 128.631 68.3009C128.526 67.9651 128.381 67.5861 128.205 67.1869C128.029 66.7877 127.825 66.3768 127.606 65.9792" stroke="black" stroke-width="0.5" stroke-linecap="round"/>
<path d="M127.521 63.4791C126.917 64.1041 127.542 65.2291 128.083 65.6874C128.729 66.2291 132.271 69.9999 134.771 66.8541C132.771 66.8124 129.021 62.1041 127.521 63.4791Z" fill="#9063CD" stroke="black" stroke-width="0.5"/>
<path d="M127.084 61.6248C126.48 62.2498 127.105 63.3748 127.646 63.8332C128.292 64.3748 131.834 68.1457 134.334 64.9998C132.334 64.9582 128.584 60.2498 127.084 61.6248Z" fill="#9063CD" stroke="black" stroke-width="0.5"/>
<path d="M126.521 59.8541C125.917 60.4791 126.542 61.6041 127.084 62.0624C127.73 62.6041 131.271 66.3749 133.771 63.2291C131.771 63.1874 128.021 58.4791 126.521 59.8541Z" fill="#9063CD" stroke="black" stroke-width="0.5"/>
<path d="M125.292 57.8331C124.688 58.4581 125.313 59.5831 125.855 60.0414C126.501 60.5831 130.042 64.3539 132.542 61.2081C130.542 61.1664 126.792 56.4581 125.292 57.8331Z" fill="#9063CD" stroke="black" stroke-width="0.5"/>
<path d="M120.938 55.8957C122.209 54.9374 124.542 54.6665 126.355 55.5832C127.876 56.3332 130.396 59.354 132.292 60.0832C130.959 60.3124 130.146 60.104 129.292 59.7082C127.605 60.9165 127.001 61.104 125.292 61.354C122.896 61.6874 120.917 61.0624 120.209 59.8332C119.501 58.6457 119.813 56.7707 120.938 55.8957Z" fill="#9063CD" stroke="black" stroke-width="0.5"/>
<path d="M123.633 58.4186C124.245 58.4186 124.741 58.1313 124.741 57.7769C124.741 57.4225 124.245 57.1353 123.633 57.1353C123.021 57.1353 122.524 57.4225 122.524 57.7769C122.524 58.1313 123.021 58.4186 123.633 58.4186Z" fill="#D50032" stroke="black" stroke-width="0.5"/>
<path d="M123.574 58.0685C123.783 58.0685 123.953 57.9184 123.953 57.7331C123.953 57.5479 123.783 57.3977 123.574 57.3977C123.365 57.3977 123.195 57.5479 123.195 57.7331C123.195 57.9184 123.365 58.0685 123.574 58.0685Z" fill="black"/>
<path d="M118.865 60.864C119.046 61.3493 119.83 61.5053 120.617 61.2126C121.405 60.9198 121.896 60.289 121.716 59.8038C121.535 59.3185 120.751 59.1624 119.964 59.4552C119.176 59.7479 118.685 60.3787 118.865 60.864Z" fill="#FFCD00" stroke="black" stroke-width="0.5"/>
<path d="M121.208 58.6251C121.312 59.1043 120.958 59.771 120.166 60.0001C119.375 60.3335 118.771 61.0835 118.416 62.3126C117.208 59.521 117.979 58.3335 119.271 58.0418C120.375 57.6876 121.041 57.7293 121.208 58.6251Z" fill="#FFCD00" stroke="black" stroke-width="0.5"/>
<path d="M120.041 59.5209C120.191 59.5209 120.312 59.3997 120.312 59.2501C120.312 59.1005 120.191 58.9792 120.041 58.9792C119.892 58.9792 119.771 59.1005 119.771 59.2501C119.771 59.3997 119.892 59.5209 120.041 59.5209Z" fill="black"/>
</g>
<defs>
<clipPath id="clip0_1284_62300">
<rect width="250" height="150" fill="white"/>
</clipPath>
</defs>
</svg>
