<svg width="250" height="150" viewBox="0 0 250 150" fill="none" xmlns="http://www.w3.org/2000/svg">
<g clip-path="url(#clip0_1284_60993)">
<path d="M0 100H250V150H0V100Z" fill="black"/>
<path d="M0 50H250V100H0V50Z" fill="white"/>
<path d="M0 0H250V50H0V0Z" fill="#CE1126"/>
<path d="M125.435 75.5999L143.45 91.4999L142.161 62.6249C141.977 58.2499 137.98 59.2499 135.061 60.8249C132.142 62.6249 128.749 62.6249 125.225 61.4499C121.675 62.6249 118.308 62.6249 115.389 60.8249C112.496 59.2499 108.473 58.2499 108.289 62.6249L107 91.4999L125.435 75.5999Z" fill="white" stroke="#C09300" stroke-width="0.4" stroke-linejoin="round"/>
<path d="M110.366 61.6249L109.104 89.6999L107 91.4999L108.289 62.6249C108.91 62.1719 109.614 61.8328 110.366 61.6249ZM112.891 63.6249L111.839 87.1249L109.735 89.1749L110.997 62.0499C111.418 62.4499 112.654 63.4249 112.891 63.6249ZM115.179 65.4249L114.364 85.0249L112.654 86.5999L113.706 64.2499C114.127 64.6249 114.969 65.1999 115.179 65.4249ZM117.677 66.4249L116.862 83.1249L115.205 84.3999L116.02 65.8249C116.441 65.9999 117.256 66.4249 117.677 66.4249ZM119.992 66.4249L119.387 80.3499L117.677 81.9249L118.335 66.5999C118.729 66.5999 119.807 66.5999 119.992 66.4249Z" fill="#C09300"/>
<path d="M140.084 61.6248L141.346 89.6998L143.45 91.4998L142.162 62.6248C141.54 62.1718 140.836 61.8327 140.084 61.6248ZM137.559 63.6248L138.611 87.1248L140.715 89.1748L139.453 62.0498C139.032 62.4498 137.796 63.4248 137.559 63.6248ZM135.271 65.4248L136.087 85.0248L137.796 86.5998L136.744 64.2498C136.323 64.6248 135.482 65.1998 135.271 65.4248ZM132.773 66.4248L133.588 83.1248L135.245 84.3998L134.43 65.8248C134.009 65.9998 133.194 66.4248 132.773 66.4248ZM130.459 66.4248L131.064 80.3498L132.773 81.9248L132.115 66.5998C131.721 66.5998 130.643 66.5998 130.459 66.4248Z" fill="#C09300"/>
<path d="M126.066 78.75L128.591 89.7L127.749 90.5L126.881 89.875L125.461 80.125L126.066 89.875L125.225 90.875L124.409 89.875L125.014 80.125L123.568 89.875L122.7 90.5L121.858 89.7L124.383 78.775H126.066V78.75Z" fill="#C09300" stroke="#C09300" stroke-width="0.4"/>
<path d="M119.571 73.95L114.548 90.875L121.464 91.875L124.384 79.15L119.571 73.95Z" fill="white" stroke="#C09300" stroke-width="0.4" stroke-linejoin="round"/>
<path d="M117.914 79.75L118.519 81.125L121.78 78.175" stroke="#C09300" stroke-width="0.4" stroke-linejoin="round"/>
<path d="M120.176 76.25L120.859 82.325L122.937 79.725M122.095 80.725L123.226 84.475M123.673 83.1L121.385 86.4M122.095 89.7L121.359 86.4M121.359 86.4L120.728 83.05L119.176 85.025L118.519 82.75L116.362 84.85L117.441 88.65L118.966 86.3L119.781 88.7L121.359 86.4Z" stroke="#C09300" stroke-width="0.4" stroke-linejoin="round"/>
<path d="M116.021 90.5L117.414 88.625L118.308 91.5L119.571 89.5L120.386 91.9" stroke="#C09300" stroke-width="0.4" stroke-linejoin="round"/>
<path d="M130.879 73.95L135.902 90.875L128.986 91.875L126.067 79.15L130.879 73.95Z" fill="white" stroke="#C09300" stroke-width="0.4" stroke-linejoin="round"/>
<path d="M132.536 79.75L131.931 81.125L128.67 78.175" stroke="#C09300" stroke-width="0.4" stroke-linejoin="round"/>
<path d="M130.275 76.25L129.591 82.325L127.513 79.725M128.355 80.725L127.224 84.475M126.777 83.1L129.065 86.4M128.355 89.7L129.091 86.4M129.091 86.4L129.722 83.05L131.274 85.025L131.931 82.75L134.088 84.85L133.01 88.65L131.484 86.3L130.669 88.7L129.091 86.4Z" stroke="#C09300" stroke-width="0.4" stroke-linejoin="round"/>
<path d="M134.43 90.5L133.036 88.625L132.142 91.5L130.879 89.5L130.064 91.9" stroke="#C09300" stroke-width="0.4" stroke-linejoin="round"/>
<path d="M125.225 98.45C130.485 98.45 135.482 98.05 138.427 97.275C139.663 97.05 139.663 96.45 139.663 95.65C140.925 95.25 140.294 93.85 141.162 93.85C140.268 94.1 140.11 92.475 139.058 92.675C139.058 91.275 137.559 91.1 136.323 91.5C133.825 92.275 129.407 92.475 125.225 92.475C121.017 92.275 116.652 92.275 114.127 91.475C112.891 91.1 111.418 91.275 111.418 92.675C110.366 92.475 110.182 94.075 109.314 93.85C110.182 93.85 109.525 95.275 110.787 95.65C110.787 96.45 110.787 97.05 112.05 97.275C114.942 98.05 119.992 98.45 125.225 98.45Z" fill="white" stroke="#C09300" stroke-width="0.4" stroke-linecap="round" stroke-linejoin="round"/>
<path d="M118.099 90.8749C119.782 91.0999 121.675 91.2749 123.148 91.0999C123.989 91.0999 124.594 92.4749 122.911 92.6749C121.465 92.8499 119.15 92.6749 117.914 92.4749C116.288 92.2043 114.673 91.8706 113.075 91.4749C111.603 90.8749 112.655 89.7249 113.496 89.8749C114.998 90.3322 116.537 90.6667 118.099 90.8749ZM132.352 90.8749C130.669 91.0999 128.776 91.2749 127.356 91.0999C126.462 91.0999 125.857 92.4749 127.54 92.6749C129.012 92.8499 131.3 92.6749 132.537 92.4749C133.588 92.2749 135.903 91.8999 137.375 91.4749C138.848 90.8749 137.796 89.7249 136.955 89.8749C135.453 90.3323 133.914 90.6669 132.352 90.8749Z" fill="white" stroke="#C09300" stroke-width="0.4" stroke-linecap="round" stroke-linejoin="round"/>
<path d="M112.865 90.0998C111.602 89.8748 111.024 91.2748 111.418 92.0748C111.602 91.6748 112.47 91.6748 112.654 91.2748C112.891 90.6748 112.47 90.6748 112.891 90.0998H112.865ZM117.914 93.7748C117.914 92.9748 118.729 93.0748 118.729 92.2748C118.729 91.8998 118.519 91.2748 118.098 91.2748C117.879 91.2868 117.672 91.3749 117.517 91.5224C117.362 91.6699 117.269 91.8666 117.257 92.0748C117.073 92.8498 117.914 92.9748 117.914 93.7748ZM123.884 91.4998C125.12 91.4998 124.988 93.0748 124.41 93.8748C124.41 93.2998 123.358 93.0749 123.358 92.6748C123.358 92.0748 124.305 92.0748 123.884 91.4998ZM137.559 90.0998C138.848 89.8748 139.453 91.2748 139.032 92.0748C138.848 91.6748 137.98 91.6748 137.796 91.2748C137.559 90.6748 137.98 90.6748 137.559 90.0998ZM132.589 93.7498C132.589 92.9498 131.747 93.0498 131.747 92.2498C131.747 91.8748 131.958 91.2498 132.378 91.2498C132.598 91.2618 132.804 91.3499 132.96 91.4974C133.115 91.6449 133.207 91.8416 133.22 92.0498C133.404 92.8249 132.563 92.9498 132.563 93.7498H132.589ZM126.54 91.4998C125.304 91.4998 125.436 93.0748 126.014 93.8748C126.014 93.2998 127.066 93.0749 127.066 92.6748C127.066 92.0748 126.119 92.0748 126.54 91.4998Z" fill="white" stroke="#C09300" stroke-width="0.4" stroke-linecap="round" stroke-linejoin="round"/>
<path d="M113.312 90.5C113.732 90.5 114.363 90.675 114.548 90.9L113.312 90.5ZM115.389 91.1C115.6 91.1 116.441 91.275 116.836 91.5L115.389 91.1ZM122.911 91.9C122.516 91.9 121.675 91.9 121.464 92.075L122.911 91.875V91.9ZM120.623 91.9C120.386 91.675 119.571 91.675 119.15 91.9H120.623ZM137.138 90.5C136.692 90.5053 136.259 90.6454 135.902 90.9L137.138 90.5ZM135.087 91.1C134.824 91.1 134.035 91.275 133.614 91.5L135.087 91.1ZM127.539 91.9C127.934 91.9 128.775 91.9 129.012 92.075L127.539 91.875V91.9ZM129.827 91.9C130.064 91.675 130.879 91.675 131.3 91.9H129.827Z" fill="white" stroke="#C09300" stroke-width="0.4" stroke-linecap="round" stroke-linejoin="round"/>
<path d="M112.943 93.65C112.811 93.625 112.732 93.5 112.785 93.4C112.811 93.225 112.943 93.15 113.048 93.2C113.153 93.2 113.285 93.35 113.285 93.4L113.18 93.575L113.127 93.6C113.127 93.65 113.022 93.65 112.943 93.65ZM127.407 94.625C127.355 94.625 127.249 94.5 127.249 94.45C127.249 94.35 127.407 94.2 127.512 94.2L127.723 94.3C127.802 94.375 127.802 94.525 127.696 94.6C127.644 94.65 127.486 94.65 127.407 94.6V94.625ZM127.486 95.25C127.381 95.2 127.355 95.15 127.328 95.05C127.328 94.925 127.328 94.9 127.46 94.825L127.565 94.775L127.67 94.825C127.775 94.875 127.854 94.925 127.854 95.025C127.854 95.1 127.775 95.175 127.67 95.225C127.591 95.275 127.565 95.275 127.486 95.225V95.25Z" fill="#C09300"/>
<path d="M114.126 92.5C114.021 92.5 113.89 92.6 113.811 92.65C113.653 92.675 113.443 92.775 113.285 92.65C113.127 92.625 112.917 92.65 112.89 92.85C112.917 93.025 113.153 93.1 113.311 93C113.416 92.875 113.706 92.775 113.758 93C113.627 93.2 113.653 93.425 113.548 93.6C113.548 93.725 113.469 93.825 113.416 93.925C113.285 93.925 113.153 93.925 113.048 94C112.966 94 112.886 94.0181 112.813 94.0528C112.74 94.0875 112.676 94.1379 112.627 94.2C112.522 94.35 112.417 94.5 112.391 94.7C112.417 94.85 112.654 94.9 112.811 94.925L113.337 95.075L114.179 95.3C114.6 95.425 115.02 95.475 115.441 95.575L115.573 95.6C115.757 95.65 115.836 95.475 115.836 95.35L116.099 94.45C116.151 94.325 116.23 94.075 115.994 94.125C115.862 94.2 115.731 94.325 115.573 94.325C115.336 94.325 115.468 94.575 115.573 94.65C115.573 94.8 115.52 94.975 115.441 95.1C115.283 95.175 115.126 95.1 114.968 95.05C114.836 95.05 114.521 94.975 114.652 94.8L114.784 94.35C114.863 94.2 114.863 94.025 114.915 93.85C114.81 93.675 114.652 93.925 114.521 93.95C114.416 94 114.1 94.025 114.258 94.2C114.416 94.3 114.31 94.475 114.258 94.625C114.258 94.8 114.047 94.875 113.89 94.8C113.732 94.8 113.495 94.675 113.627 94.525L113.758 94.075L113.942 93.575C113.942 93.4 114.021 93.275 114.1 93.125C114.1 92.95 114.232 92.8 114.232 92.625C114.232 92.55 114.179 92.525 114.126 92.525V92.5ZM113.153 94.325C113.165 94.3184 113.179 94.3149 113.193 94.3149C113.207 94.3149 113.22 94.3184 113.232 94.325C113.285 94.375 113.285 94.425 113.232 94.475L113.153 94.525C113.022 94.525 112.995 94.5 112.995 94.45C112.995 94.425 112.995 94.4 113.074 94.375C113.106 94.3531 113.142 94.3362 113.18 94.325H113.153ZM112.89 95.575C112.759 95.475 112.785 95.4 112.969 95.25C113.074 95.2 113.101 95.2 113.206 95.275C113.364 95.4 113.364 95.475 113.206 95.6C113.153 95.65 113.127 95.65 113.074 95.65C112.995 95.65 112.969 95.65 112.89 95.6V95.575ZM113.679 95.825C113.621 95.8076 113.571 95.7692 113.542 95.7179C113.512 95.6666 113.505 95.6063 113.521 95.55C113.574 95.45 113.6 95.425 113.758 95.425C113.942 95.425 113.969 95.45 113.995 95.6C113.995 95.7 113.995 95.725 113.916 95.775C113.887 95.7971 113.853 95.8129 113.816 95.8216C113.78 95.8302 113.742 95.8314 113.706 95.825H113.679ZM137.138 95.825C137.085 95.8 137.059 95.775 137.059 95.7C137.059 95.6 137.111 95.525 137.269 95.475C137.427 95.4 137.532 95.4 137.585 95.525C137.664 95.675 137.664 95.725 137.558 95.825C137.506 95.9 137.48 95.9 137.348 95.9C137.217 95.9 137.19 95.9 137.138 95.85V95.825ZM114.784 96.125C114.679 96.125 114.626 96.025 114.626 95.925C114.626 95.85 114.626 95.825 114.679 95.775L114.836 95.725L114.994 95.75C115.126 95.85 115.152 95.95 115.073 96.05C114.994 96.15 114.915 96.15 114.758 96.125H114.784ZM120.517 96.375L120.464 96.3C120.464 96.15 120.464 96.025 120.517 95.875C120.543 95.75 120.517 95.625 120.57 95.5L120.675 94.8C120.675 94.675 120.675 94.55 120.727 94.45C120.754 94.25 120.727 94.075 120.78 93.9C120.78 93.825 120.859 93.65 120.938 93.75C121.043 93.9 121.174 94 121.306 94.125C121.411 94.2 121.306 94.3 121.227 94.325C121.122 94.35 121.095 94.475 121.095 94.575L121.043 94.875C121.043 95.05 121.043 95.2 120.99 95.375L120.964 95.825L120.911 96.125C120.911 96.225 120.911 96.35 120.806 96.4C120.727 96.45 120.596 96.45 120.543 96.375H120.517ZM128.328 93.925L127.986 94.225C127.828 94.35 128.117 94.4 128.144 94.5C128.196 94.65 128.196 94.8 128.196 94.95C128.249 95.1 128.275 95.225 128.249 95.375C128.249 95.55 128.038 95.5 127.933 95.6C127.802 95.65 127.749 95.775 127.67 95.85C127.608 95.9754 127.572 96.1114 127.565 96.25C127.565 96.375 127.486 96.5 127.565 96.6L127.591 96.65H127.723L128.117 96.625C128.433 96.575 128.775 96.575 129.09 96.55L129.669 96.5C129.827 96.525 129.906 96.375 129.906 96.25C129.8 96.075 129.879 95.9 129.8 95.75C129.748 95.55 129.774 95.375 129.748 95.2C129.748 95.05 129.564 95 129.485 95.1C129.38 95.2 129.222 95.225 129.169 95.325C129.09 95.475 129.327 95.475 129.38 95.575L129.406 95.95C129.432 96.1 129.274 96.1 129.143 96.125C129.011 96.175 128.827 96.2 128.748 96.05C128.696 95.925 128.696 95.8 128.696 95.675C128.696 95.425 128.617 95.225 128.617 95C128.617 94.75 128.538 94.475 128.538 94.2C128.538 94.075 128.512 93.9 128.328 93.925ZM128.17 95.975H128.249V96.175L128.17 96.2C128.135 96.2104 128.1 96.2188 128.065 96.225C128.047 96.2257 128.03 96.2257 128.012 96.225C127.959 96.175 127.959 96.1 128.038 96.025L128.17 95.975ZM120.28 93.675C120.201 93.675 120.07 93.85 119.965 93.825C119.728 93.85 119.754 94.075 119.938 94.15V94.35C119.965 94.55 119.833 94.725 119.859 94.925C119.859 95.125 119.781 95.35 119.781 95.575C119.702 95.8 119.702 96.025 119.675 96.25C119.649 96.45 119.491 96.375 119.36 96.325V96.075C119.386 95.85 119.228 95.8 119.044 95.775C118.86 95.775 118.781 95.65 118.834 95.5C118.913 95.4 119.097 95.425 119.228 95.425C119.491 95.475 119.465 95.15 119.333 95.025C119.228 94.875 119.018 94.775 118.965 94.625C118.965 94.425 118.834 94.2 118.65 94.1C118.36 94.075 118.124 94.3 118.045 94.55C117.913 94.55 117.782 94.6 117.677 94.65C117.493 94.7 117.23 95 117.493 95.125C117.624 95.15 118.071 95.25 117.861 95.425C117.756 95.625 117.545 95.625 117.361 95.575C117.177 95.575 116.967 95.475 116.967 95.275C116.94 95.075 116.94 94.875 116.861 94.7C116.809 94.5 116.572 94.55 116.546 94.75C116.362 94.875 116.388 95.1 116.52 95.25C116.598 95.425 116.52 95.65 116.441 95.8C116.388 96.05 116.125 96.05 115.941 96.1C115.862 96.15 115.52 96.1 115.652 96.275C115.849 96.3613 116.069 96.3875 116.283 96.35C116.493 96.35 116.677 96.175 116.809 96C116.94 95.875 117.177 95.95 117.387 95.95C117.571 95.95 117.782 96.075 117.992 95.975C118.045 95.85 118.308 95.6 118.387 95.85C118.387 96.075 118.571 96.175 118.781 96.15C119.018 96.15 118.913 96.3 118.913 96.45C118.913 96.675 119.097 96.8 119.307 96.9H119.518C119.702 96.825 119.912 96.75 119.991 96.55C120.07 96.375 120.07 96.175 120.122 96C120.175 95.725 120.228 95.425 120.228 95.15C120.307 94.9 120.28 94.625 120.333 94.35L120.412 93.775C120.412 93.65 120.359 93.65 120.28 93.675ZM118.518 94.7C118.545 94.7 118.571 94.75 118.571 94.825C118.571 94.925 118.623 95 118.702 95.025V95.1L118.492 95.15C118.36 95.15 118.255 95.1 118.176 95.025L118.124 94.975L118.203 94.925L118.334 94.8C118.413 94.725 118.466 94.7 118.518 94.7ZM135.875 92.725C135.724 92.7353 135.574 92.7605 135.428 92.8C135.165 92.8 135.034 93.05 135.297 93.2C135.455 93.575 135.691 93.1 135.954 93.15C136.322 93.2 136.349 93.6 136.428 93.9C136.428 94.175 136.533 94.45 136.612 94.725C136.875 95 136.428 95.175 136.244 94.975C136.086 94.8 135.718 94.6 135.533 94.825C135.297 94.925 135.27 95.225 135.086 95.325C134.771 95.4 134.745 95.025 134.56 94.875C134.403 94.65 134.113 94.625 133.877 94.575C133.771 94.35 133.824 93.975 133.614 93.825C133.403 93.9 133.035 94.25 133.351 94.425C133.614 94.675 133.219 94.775 133.088 94.925C132.877 95.15 132.825 95.425 132.825 95.675C132.483 95.85 132.43 95.475 132.378 95.25C132.378 94.975 132.115 95.05 131.931 95.15C131.668 95.25 131.562 95.475 131.405 95.65V96.15C131.457 96.375 131.72 96.275 131.878 96.25C132.141 96.15 132.246 96.425 132.036 96.575C131.878 96.725 131.457 96.65 131.51 96.925H131.931C132.194 96.85 132.509 96.65 132.535 96.35C132.588 96.1 132.983 96.125 133.193 96.075C133.456 96 133.798 95.975 133.877 96.325C134.061 96.5 134.455 96.7 134.666 96.45C134.766 96.3897 134.846 96.3037 134.897 96.202C134.948 96.1003 134.968 95.987 134.955 95.875C134.929 95.675 135.297 95.675 135.402 95.8C135.533 96 135.954 95.95 136.165 95.8C136.375 95.675 136.428 95.4 136.743 95.4L138.163 95.025C138.532 94.95 138.111 94.725 138.006 94.575C137.743 94.45 137.48 95 137.164 94.725C136.901 94.55 136.927 94.225 136.848 93.95C136.77 93.6 136.796 93.2 136.533 92.95C136.375 92.775 136.112 92.725 135.875 92.725ZM134.087 95.1C134.113 95.1 134.166 95.1 134.219 95.15C134.324 95.2 134.403 95.3 134.403 95.4C134.403 95.45 134.403 95.45 134.324 95.475L134.192 95.525C134.14 95.525 134.008 95.45 134.008 95.4V95.3C133.956 95.2 133.956 95.2 134.008 95.15L134.087 95.1ZM135.796 95.2C135.902 95.2 135.954 95.2 136.007 95.275C136.033 95.375 136.007 95.425 135.902 95.475L135.77 95.525L135.665 95.45C135.612 95.425 135.586 95.4 135.586 95.35C135.586 95.275 135.691 95.2 135.796 95.175V95.2ZM133.43 95.2C133.482 95.2 133.508 95.2 133.535 95.25C133.587 95.3 133.614 95.325 133.614 95.4V95.55C133.614 95.625 133.614 95.6 133.456 95.6C133.298 95.6 133.272 95.6 133.272 95.45C133.272 95.35 133.272 95.325 133.351 95.275C133.377 95.225 133.43 95.225 133.456 95.225L133.43 95.2ZM132.009 95.575C132.034 95.5822 132.057 95.595 132.075 95.6125C132.094 95.6299 132.107 95.6514 132.115 95.675C132.115 95.75 132.115 95.8 132.062 95.825C131.983 95.85 131.852 95.875 131.799 95.825C131.798 95.8167 131.798 95.8083 131.799 95.8C131.746 95.775 131.746 95.75 131.799 95.725V95.7L131.852 95.625C131.868 95.6007 131.892 95.5824 131.921 95.5733C131.95 95.5642 131.981 95.5648 132.009 95.575ZM134.429 95.875L134.56 95.9V96.05H134.245L134.219 96C134.219 95.95 134.219 95.925 134.271 95.9L134.429 95.875ZM129.932 97.075C129.906 97.075 129.853 97.05 129.906 97.025C129.932 96.95 130.037 96.925 130.116 96.875C130.259 96.8231 130.386 96.737 130.484 96.625C130.484 96.525 130.589 96.475 130.589 96.375L130.563 96.025C130.528 95.92 130.453 95.831 130.353 95.775C130.274 95.75 130.169 95.725 130.142 95.625C130.142 95.55 130.221 95.475 130.247 95.4L130.405 95.1C130.484 95.025 130.589 95.1 130.616 95.15L130.747 95.4C130.826 95.475 130.879 95.55 130.905 95.65C130.958 95.75 131.01 95.825 131.01 95.9L131.063 96.225C131.063 96.35 131.063 96.5 131.01 96.625L130.852 96.825C130.773 96.9 130.695 96.975 130.589 97C130.51 97.025 130.458 97.1 130.353 97.1H129.958L129.932 97.075ZM128.117 97.175C128.065 97.125 128.038 97.1 128.038 97.025C128.038 96.95 128.038 96.95 128.117 96.875C128.222 96.775 128.275 96.775 128.485 96.875C128.67 96.975 128.748 96.975 128.748 96.9C128.775 96.85 128.88 96.775 129.011 96.775C129.06 96.7767 129.106 96.7944 129.143 96.825C129.195 96.875 129.222 96.9 129.222 97C129.222 97.125 129.222 97.125 129.143 97.2C129.064 97.25 129.064 97.25 128.959 97.25C128.912 97.2476 128.867 97.232 128.83 97.2053C128.792 97.1786 128.764 97.142 128.748 97.1C128.748 97.05 128.748 97.025 128.696 97.075L128.643 97.1C128.591 97.1 128.485 97.175 128.433 97.225L128.301 97.25C128.196 97.25 128.196 97.25 128.117 97.175ZM122.91 94.95C122.726 94.95 122.542 95.1 122.516 95.275C122.568 95.45 122.726 95.65 122.621 95.825C122.7 96.075 122.41 96.175 122.226 96.05C122.121 95.8 122.069 95.55 121.884 95.3C121.674 95.25 121.595 95.575 121.437 95.7C121.516 95.875 121.727 96.05 121.753 96.275C121.806 96.525 121.648 96.775 121.464 96.875C121.28 97.05 121.017 97 120.806 97.025C120.543 97.175 120.99 97.225 121.122 97.225C121.385 97.25 121.674 97.225 121.911 97.025C122.095 96.95 122.069 96.6 122.305 96.575L123.568 96.65C123.778 96.7 124.12 96.625 124.278 96.775C124.278 97.025 124.541 97.225 124.777 97.325C124.909 97.375 125.04 97.2 125.172 97.175C125.435 97.1 125.356 96.8 125.514 96.675H126.829C126.881 96.675 126.908 96.55 126.986 96.5L126.934 96.025C126.855 95.825 126.934 95.575 126.802 95.4C126.566 95.35 126.382 95.525 126.171 95.55C125.908 95.65 125.724 95.875 125.698 96.125C125.566 96.35 125.33 96.075 125.435 95.875L125.408 95.625C125.277 95.5 125.04 95.55 124.856 95.525L124.067 95.475C123.804 95.475 123.568 95.5 123.357 95.45C123.094 95.45 123.094 95.2 123.094 95C123.042 94.9619 122.976 94.9441 122.91 94.95ZM123.436 95.875L123.699 95.9H124.041C124.304 95.95 124.567 95.95 124.83 95.95C124.883 95.95 124.935 96 124.988 96.05V96.55C124.988 96.625 124.988 96.725 124.935 96.75C124.921 96.7699 124.903 96.7869 124.883 96.8C124.844 96.7935 124.807 96.7789 124.776 96.7573C124.744 96.7357 124.717 96.7075 124.698 96.675V96.325C124.646 96.2831 124.582 96.257 124.514 96.25L123.831 96.225L123.305 96.2C123.226 96.175 123.12 96.2 123.068 96.1C123.015 96.05 123.094 95.95 123.173 95.925C123.256 95.8898 123.346 95.8727 123.436 95.875ZM126.408 95.95C126.434 95.95 126.46 95.95 126.46 96.025L126.513 96.15C126.513 96.175 126.513 96.2 126.46 96.2C126.329 96.25 126.197 96.25 126.145 96.2C126.145 96.175 126.145 96.075 126.197 96.05L126.408 95.95Z" fill="#C09300"/>
<path d="M125.225 81.7998C133.799 75.5498 133.062 66.3498 133.062 66.3498L132.405 66.3998C130.59 66.3998 126.304 65.3998 125.304 64.1748C124.252 65.2998 119.834 66.4248 118.046 66.4248L117.388 66.3498C117.388 66.3498 116.626 75.5248 125.225 81.7998Z" fill="white" stroke="#C09300" stroke-width="0.4"/>
<path d="M132.378 66.9999H132.167C130.537 66.9999 126.75 66.2249 125.277 65.0249C123.752 66.1249 119.886 67.0249 118.282 67.0249C118.211 67.0223 118.141 67.0139 118.071 66.9999C118.086 68.5798 118.316 70.1512 118.755 71.6749C119.81 75.3459 122.078 78.5974 125.225 80.9499C128.373 78.5885 130.641 75.3285 131.694 71.6499C132.131 70.1343 132.361 68.5714 132.378 66.9999Z" fill="white" stroke="#C09300" stroke-width="0.4"/>
<path d="M122.437 66.2499C121.024 66.6871 119.556 66.9395 118.071 66.9999L118.098 68.0249C118.187 69.2512 118.408 70.4657 118.755 71.6499C119.462 74.1086 120.718 76.3937 122.437 78.3499V66.2499ZM127.854 66.2499V78.5499C129.656 76.5487 130.968 74.1919 131.694 71.6499C132.041 70.4657 132.261 69.2512 132.351 68.0249L132.378 67.0249H132.167C131.168 67.0249 129.432 66.7249 127.854 66.2249V66.2499Z" fill="#C09300"/>
<path d="M128.46 63.2499C128.644 63.2749 128.224 62.3749 128.224 62.3749C128.697 62.8249 130.433 62.9499 130.433 62.9499C129.381 62.4999 128.329 59.1749 128.46 56.4999C128.566 53.8499 128.066 52.7999 127.671 52.3999C127.145 51.8999 125.436 51.4499 124.331 51.3999C123.674 51.3749 123.805 51.8499 123.805 51.8499C122.622 51.5749 121.439 51.4499 120.913 51.7999C120.439 52.0999 120.334 53.6749 120.702 53.3999C121.57 52.7249 122.333 53.3499 122.859 54.0749C123.332 54.6999 123.306 56.4999 122.622 58.6249C122.017 60.2313 121.127 61.7278 119.992 63.0499C121.044 63.0499 122.517 62.1749 122.517 62.1749L122.175 63.5499C123.28 63.0499 124.147 62.2749 124.147 62.2749L125.199 63.3249C125.541 62.8749 126.251 62.2749 126.251 62.2749C126.251 62.2749 127.119 63.1499 128.46 63.2749V63.2499Z" fill="white" stroke="#C09300" stroke-width="0.4"/>
<path d="M124.2 56.8999C124.2 56.8999 123.621 60.9999 122.517 62.1499M125.146 56.7749C125.146 56.7749 124.883 60.9499 124.147 62.2749M125.962 56.9499C125.962 56.9499 125.962 61.4999 126.225 62.2749M127.014 57.1749C127.014 57.1749 127.224 60.9999 128.223 62.3749" stroke="#C09300" stroke-width="0.4"/>
<path d="M123.122 54.8999C123.098 54.61 123.008 54.3285 122.859 54.0749C122.333 53.3249 121.57 52.7249 120.702 53.3999C120.702 53.3999 120.991 52.5249 121.649 52.4999C122.122 52.4749 123.253 52.8499 124.252 54.4499C124.252 54.4499 123.516 54.2999 123.332 54.4499C123.016 54.6999 123.148 54.8999 123.148 54.8999H123.122Z" fill="#C09300" stroke="#C09300" stroke-width="0.2"/>
<path d="M120.597 52.3249C120.676 52.0749 120.781 51.8749 120.939 51.7999C121.465 51.4499 122.622 51.5499 123.805 51.8499C123.805 51.8499 123.7 51.3749 124.331 51.3999C125.436 51.4499 127.119 51.8999 127.645 52.3999C127.813 52.5757 127.947 52.7789 128.039 52.9999C127.776 52.6499 127.04 52.6749 126.856 52.6999C126.593 52.7249 126.409 52.6999 126.041 52.7999C125.856 52.8499 125.593 52.8999 125.436 52.9999C125.33 53.0999 125.225 53.3999 125.067 53.3999C124.804 53.3999 124.804 53.3499 124.726 53.2749C124.647 53.1499 124.594 52.9999 124.489 53.0249C124.226 53.0499 123.753 52.8499 123.174 52.3999C122.569 51.9499 122.332 51.8499 121.596 51.8999C120.807 51.9499 120.597 52.3749 120.597 52.3749V52.3249Z" fill="#C09300" stroke="#C09300" stroke-width="0.2"/>
<path d="M124.91 52.9748C125.085 52.9748 125.226 52.8404 125.226 52.6748C125.226 52.5091 125.085 52.3748 124.91 52.3748C124.736 52.3748 124.595 52.5091 124.595 52.6748C124.595 52.8404 124.736 52.9748 124.91 52.9748Z" fill="white"/>
</g>
<defs>
<clipPath id="clip0_1284_60993">
<rect width="250" height="150" fill="white"/>
</clipPath>
</defs>
</svg>
