<svg width="250" height="150" viewBox="0 0 250 150" fill="none" xmlns="http://www.w3.org/2000/svg">
<g clip-path="url(#clip0_1284_62460)">
<path d="M0 0H250V150H0V0Z" fill="#E32118"/>
<path d="M0 0H250V100H0V0Z" fill="white"/>
<path d="M0 0H250V50H0V0Z" fill="#3E9A00"/>
<path d="M0 0V150L56.248 75L0 0Z" fill="#0073CE"/>
<path d="M112.512 59.9375H136.451V85C136.451 93.4375 125.45 86.9375 124.513 91.4375C122.888 86.8125 112.574 93.5 112.574 84.5L112.512 59.9375Z" fill="white" stroke="black" stroke-width="0.3"/>
<path d="M126.2 87.4375C126.2 87.4375 125.888 87.75 125.325 87.5C124.763 87.25 124.7 71.4375 124.7 71.4375C125.95 70.0625 126.95 69.625 126.95 69.625L127.7 70.25C124.888 71.6875 125.138 73.75 125.388 77.3125C125.45 78.625 125.45 80.3125 125.763 81.9375C126.2 84 127.075 85.75 127.138 87.0625C127.2 87.875 126.2 87.4375 126.2 87.4375Z" fill="#73452B" stroke="black" stroke-width="0.2"/>
<path d="M124.263 69.25H125.388C124.45 78.3125 125.263 83.6875 125.263 86.3125C125.263 87.1875 125.763 87.5 125.7 87.5C124.575 88.75 124.013 87.4375 124.013 87.4375L124.263 69.25Z" fill="#73452B" stroke="black" stroke-width="0.2"/>
<path d="M122.512 87.4375C121.45 87.9375 121.325 86.9375 121.387 86.8125C123.7 82.125 124.7 71.8125 122.575 70.6875L122.7 69.6875C123.512 69.9375 124.263 71 124.263 71C124.575 82.5625 124.263 87.3125 124.075 87.5C122.95 88.6875 122.512 87.3125 122.45 87.1875" fill="#A36629"/>
<path d="M122.512 87.4375C121.45 87.9375 121.325 86.9375 121.387 86.8125C123.7 82.125 124.7 71.8125 122.575 70.6875L122.7 69.6875C123.512 69.9375 124.263 71 124.263 71C124.575 82.5625 124.263 87.3125 124.075 87.5C122.95 88.6875 122.512 87.3125 122.45 87.1875" stroke="black" stroke-width="0.2"/>
<path d="M122.449 87.25C122.262 86.25 124.074 83.6875 123.949 81M125.512 83.1875C126.075 84.75 126.325 86.125 126.2 87.4375" stroke="black" stroke-width="0.2"/>
<path d="M127.951 65C128.326 64.5625 128.326 64.5625 129.013 64.5625C129.138 63.625 130.701 63.625 130.826 64.8125C132.076 64.5625 132.326 65.3125 131.826 66.0625C133.014 65.75 134.076 66.0625 133.764 67.4375C135.889 68 135.076 69.5 134.139 69.8125C134.014 70.75 133.139 71.0625 131.951 70.6875C130.451 71.75 129.576 71.375 128.888 70.3125C127.201 70.5625 127.076 70.1875 126.325 69.25C125.013 69.8125 124.763 69.8125 123.638 69.125C123.575 70 123.263 69.75 122.7 69.6875C122.763 70.8125 122.325 71.3125 121.325 70.9375C122.075 72.5 120.137 73.1875 119.2 71.875C118.325 71.9375 118.262 71.6875 117.825 71.375C117.45 72.625 116.074 72.4375 115.824 71.75C114.074 71.5 114.262 70.5625 115.699 70.5C115.824 69.5 116.7 69.6875 117.262 69.8125C117.325 69.1875 117.7 69.3125 118.012 69.4375C117.825 69 117.95 68.75 118.512 68.625C117.7 67.5625 118.2 67.1875 119.012 66.8125C118.575 65.8125 119.325 65.875 119.887 65.8125C119.825 64.75 120.137 64.5625 121.262 64.4375C121.137 64.0625 121.325 63.75 121.95 63.75C121.575 62.6875 122.075 62.4375 123.2 62.625C123.388 61.0625 126.7 61.8125 126.45 63.9375C127.388 64.0625 127.701 64.25 127.951 65Z" fill="#009A3B" stroke="black" stroke-width="0.3"/>
<path d="M121.262 64.4375C121.512 64.5625 121.825 64.4375 121.887 65.125C122.387 64.25 123.012 64.75 123.012 65.75M126.45 63.9375C126.2 64.3125 125.262 64.3125 125.387 65.3125C125.075 64.875 124.45 64.75 124.2 65.1875M127.95 65C127.95 65.25 127.888 66 127.638 66.375M131.825 66.0625C131.888 66.125 130.95 66.0625 130.513 66.375M134.138 69.8125C133.888 69.6875 133.388 69.375 133.013 69.875C133.013 69.625 133.013 68.9375 132.326 68.9375M131.951 70.6875C131.951 70.0625 131.825 69.875 131.7 69.6875M129.888 69.8125C129.388 69.4375 128.888 70 128.888 70.3125M126.262 69.25C126.262 69 126.075 68.5 126.512 68.3125M119.137 71.875C119.262 71.25 119.699 71.25 119.637 70.9375M119.637 70.9375C119.574 70.4375 119.012 70 118.324 70.6875M119.637 70.9375C120.012 70.8125 120.387 70.875 120.512 71.0625M118.574 68.625C118.824 68.375 119.449 68.4375 119.824 68.625M119.824 67.125C120.137 67.125 120.699 67 120.887 67.5625C121.575 66.5 122.075 66.625 122.2 66.875M123.45 66.75C123.95 66.5625 124.825 67.0625 125.325 67.9375C125.575 67.25 125.95 67.375 126.325 67.3125M128.7 67.9375C129.513 67.5625 130.013 68.3125 130.263 68.625C130.638 68.125 130.95 68.125 131.325 68.125M121.137 69.4375C121.325 69.125 121.762 69.0625 122.075 69.25C122.012 68.6875 122.387 68.4375 122.637 68.5625" stroke="black" stroke-width="0.3"/>
<path d="M123.7 56.4063L122.325 56.4688L121.637 57.7188L120.887 56.5312L119.512 56.5938L120.137 55.3438L119.387 54.1875L120.825 54.125L121.45 52.875L122.2 54.0625L123.575 54L122.95 55.25L123.7 56.4063ZM117.824 56.875L116.449 57.1875L116.074 58.5313L115.074 57.5313L113.761 57.8438L114.136 56.5312L113.199 55.5312L114.511 55.1875L114.886 53.8438L115.887 54.8438L117.262 54.5313L116.824 55.875L117.824 56.875ZM112.136 58.0312L110.886 58.6562L110.824 60.0313L109.636 59.2812L108.386 59.9062L108.511 58.5L107.323 57.75L108.573 57.125L108.698 55.7188L109.823 56.5L111.074 55.875L111.011 57.25L112.136 58.0312ZM125.512 56.4063L126.888 56.4688L127.513 57.7188L128.263 56.5312L129.638 56.5938L129.013 55.3438L129.763 54.1875L128.388 54.125L127.7 52.875L126.95 54.0625L125.575 54L126.2 55.25L125.512 56.4063ZM131.388 56.875L132.701 57.1875L133.076 58.5313L134.076 57.5313L135.388 57.8438L135.013 56.5312L136.013 55.5312L134.638 55.1875L134.263 53.8438L133.263 54.8438L131.951 54.5313L132.326 55.875L131.388 56.875ZM137.014 58.0312L138.264 58.6562L138.326 60.0313L139.514 59.2812L140.764 59.9062L140.701 58.5L141.827 57.75L140.576 57.125L140.514 55.7188L139.326 56.5L138.076 55.875L138.201 57.25L137.014 58.0312Z" fill="#FFD700" stroke="black" stroke-width="0.3"/>
<path d="M138.701 84.5L140.264 86.75L141.702 84.625L140.701 82.8125L138.701 84.5ZM128.763 91.0625L128.888 93.3125C128.888 93.3125 129.513 93.3125 130.075 93.125C130.575 92.9375 131.013 92.5625 131.013 92.5625L130.951 91.375L128.763 91.0625ZM120.387 91.0625L120.262 93.25C120.262 93.25 119.699 93.25 119.137 93.125C118.637 93 118.199 92.6875 118.199 92.6875L117.574 91.1875L120.387 91.0625ZM110.324 84.5L108.698 86.75L106.948 83.875L108.261 82.5L110.324 84.5Z" fill="white" stroke="black" stroke-width="0.3"/>
<path d="M118.137 95.5625C118.137 97.6875 131.013 97.6875 131.013 95.5625V92.5625C131.013 94.125 118.137 93.8125 118.137 92.5625V95.5625Z" fill="white" stroke="black" stroke-width="0.3"/>
<path d="M106.636 88.625C107.761 94.375 118.137 94.5 118.137 94.5V92.5625C117.887 91.8125 118.324 91.5625 120.012 91.3125C120.7 91.25 120.387 90.25 120.387 90.25C120.387 90.25 115.887 91.0625 112.699 89.8125C108.386 88.0625 107.761 84.6875 107.761 84.6875C107.761 84.6875 107.448 87.3125 106.636 88.625ZM142.452 88.625C141.389 94.375 131.013 94.5 131.013 94.5V92.5625C131.201 91.8125 130.763 91.5625 129.075 91.3125C128.388 91.25 128.763 90.25 128.763 90.25C128.763 90.25 133.263 91.0625 136.451 89.8125C140.701 88.0625 141.202 84.6875 141.202 84.6875C141.202 84.6875 141.639 87.3125 142.452 88.625Z" fill="white" stroke="black" stroke-width="0.3"/>
<path d="M107.448 86.4375C104.573 84.875 106.823 83.25 107.073 78.625C107.511 81.4375 110.699 82.625 110.324 84.4375C109.011 84.5 108.386 82.5 107.761 84.6875L107.448 86.4375ZM141.639 86.4375C144.514 84.8125 142.139 83.25 141.889 78.625C141.452 81.4375 138.326 82.625 138.701 84.4375C139.952 84.5 140.577 82.5 141.202 84.6875L141.639 86.375V86.4375Z" fill="white" stroke="black" stroke-width="0.3"/>
<path d="M109.199 88.5625L109.512 88.8125L108.824 89.5625C108.511 89.875 108.48 90.0625 108.668 90.25C108.887 90.4687 109.074 90.375 109.293 90.125L110.074 89.3125L110.324 89.5625L109.574 90.4375C109.168 90.9062 108.793 90.8125 108.449 90.5C108.199 90.25 108.011 89.875 108.449 89.4063L109.199 88.5625ZM110.449 89.625L110.762 89.8125L110.699 91.3125L111.387 90.25L111.699 90.4375L110.699 92.0625L110.324 91.875L110.387 90.375L109.699 91.4375L109.387 91.25L110.449 89.625ZM111.012 92.25L111.887 90.5L112.199 90.6875L111.387 92.375L111.012 92.25ZM112.387 90.75L111.699 92.5625L112.387 92.8125C113.012 93.0312 113.324 92.75 113.512 92.2188C113.731 91.6563 113.637 91.2813 113.012 91L112.387 90.75ZM112.637 91.1875C113.262 91.4062 113.324 91.6562 113.137 92.125C112.949 92.5312 112.824 92.6875 112.199 92.375L112.637 91.1875ZM114.45 91.4375L113.324 93.125L113.762 93.25L114.012 92.8125L114.762 93L114.825 93.4375L115.262 93.5L114.825 91.5L114.45 91.4375ZM114.575 91.875L114.7 92.625L114.2 92.5625L114.575 91.875ZM115.512 91.5938L115.45 93.5312H116.168C116.856 93.5625 117.044 93.2187 117.075 92.5937C117.075 92.0312 116.856 91.6562 116.168 91.6562L115.512 91.5938ZM115.887 91.9063C116.575 91.9375 116.669 92.1562 116.669 92.625C116.637 93.0937 116.544 93.2813 115.856 93.1875V91.9375L115.887 91.9063ZM122.075 94.3125V96.3125H122.513V95.5625C122.513 95.5625 122.888 95.5625 123.2 95.5C123.419 95.4375 123.607 95.2813 123.607 94.875C123.607 94.5 123.388 94.3125 123.013 94.3125H122.075ZM122.513 94.625H122.95C123.294 94.625 123.263 95.1875 122.95 95.1875H122.513V94.625ZM124.325 94.3125L123.513 96.3125H123.95L124.138 95.8125H124.951L125.138 96.3125H125.576L124.763 94.3125H124.325ZM124.513 94.75L124.826 95.5H124.263L124.513 94.75ZM125.576 95.9375L126.638 94.625H125.701V94.3125H127.201V94.625L126.076 95.9375H127.201V96.3125H125.576V95.9375ZM131.889 92.0625L132.264 92L132.451 93.125C132.514 93.5312 132.326 93.7812 132.045 93.9062C131.732 94.0312 131.295 93.9062 131.264 93.375L131.576 93.3125C131.639 93.625 131.764 93.6563 131.889 93.625C132.045 93.5625 132.107 93.375 132.076 93.1875L131.889 92.0625ZM132.514 91.9375L132.858 91.875L133.045 92.8125C133.108 93.2188 133.233 93.375 133.514 93.3438C133.826 93.2813 133.858 93.0938 133.795 92.7188L133.576 91.75L133.951 91.6875L134.201 92.7188C134.326 93.3438 134.014 93.5625 133.576 93.6563C133.233 93.7188 132.826 93.6563 132.701 93.0313L132.514 91.9375ZM134.451 92.8125L134.764 92.6875C134.92 92.9688 135.139 92.9375 135.327 92.875C135.577 92.75 135.639 92.5312 135.483 92.4375C135.295 92.3437 134.858 92.5 134.639 92.4375C134.358 92.3125 134.233 92.125 134.264 91.9063C134.264 91.5938 134.514 91.4687 134.795 91.375C135.108 91.2812 135.42 91.3125 135.639 91.6875L135.264 91.8125C135.139 91.5937 134.952 91.625 134.826 91.6875C134.701 91.75 134.514 91.8437 134.639 92C134.701 92.1562 135.17 92.0625 135.42 92.0625C135.67 92.0625 135.858 92.25 135.889 92.4687C135.952 92.8125 135.827 93 135.42 93.1563C134.952 93.3438 134.514 93.1562 134.451 92.8125ZM136.139 91.25L135.639 91.5L135.514 91.1875L136.889 90.625L137.014 90.875L136.514 91.125L137.077 92.5L136.764 92.6875L136.139 91.25ZM136.952 90.5625L137.264 90.375L138.139 92L137.827 92.1875L136.952 90.5625ZM139.077 90.6875L139.452 90.5625C139.5 90.6807 139.517 90.8093 139.502 90.9361C139.487 91.0629 139.439 91.1837 139.364 91.2869C139.289 91.3902 139.189 91.4726 139.073 91.5263C138.957 91.58 138.829 91.6032 138.702 91.5938C137.764 91.5938 137.639 90.5313 137.796 90.1875C138.046 89.5938 138.733 89.625 139.046 89.9375L138.733 90.1875C138.546 89.9375 138.108 90.0938 138.108 90.3125C138.067 90.4952 138.087 90.6864 138.166 90.8562C138.245 91.0259 138.379 91.1645 138.546 91.25C138.858 91.375 139.296 91 139.077 90.6875ZM138.889 89.375L139.202 89.125L140.327 90.625L140.014 90.875L138.889 89.375ZM140.077 88.4375L139.764 88.6875L140.452 90.5625L140.765 90.25L140.577 89.875L141.14 89.375L141.515 89.5625L141.827 89.3125L140.077 88.4375ZM140.202 88.875L140.827 89.1875L140.452 89.5625L140.202 88.875Z" fill="black"/>
</g>
<defs>
<clipPath id="clip0_1284_62460">
<rect width="250" height="150" fill="white"/>
</clipPath>
</defs>
</svg>
