<svg width="250" height="150" viewBox="0 0 250 150" fill="none" xmlns="http://www.w3.org/2000/svg">
<g clip-path="url(#clip0_1284_61036)">
<path d="M0 0H250V150H0V0Z" fill="#E4002B"/>
<path d="M0 0H250V75L0 0Z" fill="#43B02A"/>
<path d="M250 75V150H0L250 75Z" fill="#418FDE"/>
<path d="M58.5 41.9167C58.7917 42.1042 60.2084 40.1458 61.8959 39.375C63.3334 38.7083 64.9375 38.7292 66.4375 38.9792C65.9792 41.5417 58.375 42.0208 58.3334 43.0417C59.0625 43.1875 61.1459 42.4375 64.3333 41.9167C59.8125 48.0417 54.4375 45.1458 52.6667 45.6042C51.6667 45.8542 50.4375 46.7708 50.4375 47.25C52.8959 46.2708 53.9584 48.375 56.3542 47.1042C55.5625 51.7292 47.3959 53.7292 45.6876 51.0208C44.3542 52.375 44.4584 52.8958 44.3126 53.2083C46.9584 51.9583 48.4792 54.875 50.3334 52.5417C50.0625 57.1667 43.9376 60.2708 40.6251 59.9375C40.3959 60.3542 39.2917 62.7292 39.3751 63.1667C39.7501 63.0208 39.5209 62.375 41.7292 62.125C45.1042 61.75 45.1459 61.0625 46.2084 58.9583C47.5001 61.3333 42.4584 69.0833 38.2709 71.3333C38.2084 71.8958 38.2917 73.4167 38.8334 74.0417C39.1459 72.8125 39.8959 72.5 40.8542 71.8958C42.3751 70.9583 43.5417 70.4792 44.0834 67.3542C45.9167 70.25 43.8959 79.7708 40.7084 83.4583C41.0417 84.1667 41.8751 85.9792 42.1459 86.3958C41.7292 84.7292 43.0626 84.2917 44.2292 82.3542C45.3959 80.3958 45.3751 76.9583 45.3334 76.4583C48.5001 80.6667 48.6876 93.25 48.1876 94.6042C48.4167 95.0417 50.5417 96.8542 51.4584 97.4583C51.5625 97.1875 51.5 97.2292 51.0417 96.25C50.2084 94.6042 50.8125 89.7083 48.9167 86.3542C52.0209 86.6875 57.2709 94.75 59.0209 97.875C60.9584 101 63.1667 103.417 67.1458 104.875C70.7917 106.208 75.0625 109.5 76.9166 111.5L75.1667 113C74.0208 112.021 68.375 106.417 66.8125 106.521C56.2084 107.354 51.2292 105.854 45.8751 103.667C38.8334 100.771 35.3126 94.1042 35.6043 93.6875C37.7084 95.6458 45.6459 97.1875 48.1459 97L46.9376 95.8333C44.2292 96.625 36.9376 92.8333 34.6668 89.2083C30.7918 82.8125 31.2709 77.9167 31.5001 77.5833C33.9793 82.3958 37.3959 83.875 39.6459 85.0417L39.4792 83.875C30.8751 80.1042 31.0001 70.7917 31.0001 69.6667C31.0001 65.6875 32.3543 63.5417 32.8334 63.4375C32.5001 66.375 35.6876 70.6667 37.1251 71.75L37.3959 70.8542C34.4793 68.3958 33.4793 63.8542 33.1459 61.2917C32.6459 56.7083 37.3543 51.5417 38.0001 51.2083C36.9793 56.2917 37.9376 58.5417 38.8334 60.3958L39.2501 59.4167C35.6876 53.0417 41.2709 43.75 45.4167 43.9375C43.2084 45.9792 43.7084 49.8542 44.0417 50.7917C44.2709 50.4167 44.3334 50.3542 44.6251 50.0417C43.7501 43.5625 49.8542 39.8958 52.1042 39.125C53.4792 38.7083 55.3959 38.6667 55.4167 38.9375C54.7917 39.6458 50.7292 41.0833 50.7709 45C51 44.7292 52.1459 44.0625 52.7917 43.875C53.5625 40.4167 57.8334 38 61.3125 38C61.75 38 62.0209 38.0625 62.1042 38.1042C61.9167 38.2292 58.1667 41.4375 58.5 41.9167Z" fill="#FFC72C"/>
<path d="M69.9788 107.375C69.6455 110.854 70.4788 111.667 69.9996 112.333C69.3746 111.687 66.6663 112.229 66.3538 111.917C67.3955 109.917 67.8121 95.5625 65.5205 87.7083C64.458 86.7708 61.3538 83.1041 60.458 82.2916C58.5205 83.875 51.1038 83.9166 49.5622 77.9166C50.7288 78.7083 53.8955 79.875 55.583 79.5625C53.0205 78.6458 49.0413 75.6458 49.458 71.7916C50.0622 72.1875 50.9788 73.5208 51.7913 73.8333C52.708 74.1458 54.8747 73.75 55.5622 74.1666C56.333 74.6041 57.0622 75.9583 57.2288 76.3125C57.4788 75.6458 57.3955 72.3958 55.0622 71.5833C55.7497 71 58.1038 71.4791 59.6871 73.5416C61.9996 76.6875 61.0413 79.7083 61.458 80.9583C61.7913 81.9791 64.2288 84.3125 64.8538 84.7916C64.8746 83.0208 63.5205 80.2916 65.2496 74.2083C65.8538 72.0833 67.8538 68.9166 68.2913 67.5208C67.3746 66.5416 64.9788 64.2083 64.4996 63.9166C63.9788 63.8958 59.3746 64.7291 57.4372 63.5416C56.3955 62.9375 55.4788 62.2083 55.083 61.1875C55.7497 61.2708 59.2913 61.7291 59.333 61.375C59.3746 61 59.1455 61.1875 57.708 60.2083C56.6455 59.2291 55.3747 58 55.4788 54.5416C56.1872 55.5625 56.7497 57 58.7288 56.6041C60.0413 56.4166 61.458 58 61.7913 58.7708C61.833 57.9791 61.458 55.625 60.1663 54.1666C60.5621 53.6041 64.833 56.9583 65.0205 59.8541C65.0621 60.8125 64.958 61.5416 64.8746 62.3125C64.833 62.875 68.2288 66.1666 69.208 65.9166C69.6038 65.8541 70.5829 61.6041 70.9579 59.625C71.4163 57.2083 72.3538 52.5208 70.5413 49.7916C70.1038 50.0625 67.958 50.8958 65.2496 48C64.1246 46.7083 64.0205 45.375 64.458 44.9791C64.8538 45.6875 66.9371 47.4583 67.4371 47.125C67.6038 46.4166 64.833 46.1041 65.8746 42.0416C66.0413 41.5208 66.4371 41.3125 66.7496 41.2708C67.0621 43.0833 68.6038 43.3541 69.7496 45.8541C70.1871 45.0416 69.6663 43.9166 69.8121 43.1458C69.9788 42.3125 69.958 41.3541 69.4996 41C69.958 40.8541 70.7913 41 72.1038 44.1041C72.8329 45.9375 72.0413 48.5833 71.6454 49.1458C71.6246 49.8541 72.6663 50.625 72.9996 53.5208C73.3746 56.0208 72.4579 59.7291 72.2704 60.5C73.0621 60 74.0413 59.5416 74.3538 58.5416C74.6871 57.375 74.4163 55.0625 75.5204 53.2916C76.2913 51.9583 77.6038 51 79.7496 51.6666C79.4996 52.375 78.8954 51.9791 78.1038 52.875C77.4788 53.875 77.1871 54.6041 77.4579 55.3541C77.9579 55.2708 77.8121 54.3958 78.7704 53.8125C80.2288 53.0625 80.8538 53.875 81.7288 53.6666C82.5413 53.4166 83.0412 52.8541 83.2704 52.5416C83.5204 53.1875 83.1662 55.2083 80.6454 56.7708C80.5829 56.8125 80.4996 56.8541 80.4371 56.8958C79.5621 57.375 79.5413 57.0625 79.3746 57.2083C79.1246 57.4791 79.7913 57.7916 80.8746 57.6458C81.9579 57.5 82.9371 57.1458 83.1662 56.4375C83.4162 56.6041 83.7287 57.8958 81.1246 59.625C79.3954 60.6666 76.4996 60.2916 75.6246 59.8333C75.2079 60.0625 72.4163 61.7916 72.1454 62.375C71.6246 64.7291 69.3121 70.2916 67.1871 74.1041C67.2288 74.4583 68.8955 73.9583 70.6871 72.3541C71.4788 71.6875 72.6663 66.8541 74.2496 65.5625C75.6038 64.5208 77.1871 64.6875 78.4371 64.7708C77.8329 64.9791 75.9371 66.0208 75.9371 67.8125C76.1871 68.0416 76.6246 67.0625 77.7704 66.8541C78.8746 66.7291 79.8121 67.4166 80.6454 67.4166C81.4788 67.4583 82.8537 66.6875 83.0412 66.4375C82.2704 70.125 78.8329 71.1041 76.5413 71.2708C76.9996 72 79.6038 72.6041 81.9579 70.9583C82.0621 71.3125 81.1663 73.5833 77.9579 74.5625C74.4996 75.6041 74.0413 73.6458 72.5829 73.7291C71.1663 73.7916 69.9163 75.125 69.3121 75.4375C68.3955 75.9375 67.0413 75.8958 66.7705 76.25C66.3955 76.7291 66.458 80.8958 67.083 83.8125C67.5205 85.8125 68.4788 88.8958 69.0205 90.8333C69.8538 90 72.1663 89.6458 73.6246 86.2083C73.1038 84.6458 72.1663 78.4166 79.7079 76.9166C79.8538 77.2291 78.4371 77.8541 77.9579 78.7708C77.2913 79.7708 77.2288 81.6666 77.4579 82.3333C78.1871 81.4166 78.9579 80.125 81.4788 80.2708C83.0621 80.375 84.1454 79.8125 85.0412 78.7291C85.3121 78.8333 84.7704 81.5625 83.3121 83.2083C82.0621 84.6666 80.3954 85.3333 80.1871 85.9375C81.2079 85.875 82.8537 85.7291 85.4162 83.375C85.5204 83.9375 84.0621 87.2083 81.1038 88.7291C79.2288 89.5833 75.9163 89.5833 73.9788 88.5C73.4788 89.3333 71.7496 91.6666 69.5413 92.7916C70.3955 100.687 70.2913 103.937 69.9788 107.375Z" fill="#FFC72C"/>
<path d="M78.5 41.9167C78.2083 42.1042 76.7916 40.1458 75.1041 39.375C73.6666 38.7083 72.0625 38.7292 70.5625 38.9792C71.0208 41.5417 78.625 42.0208 78.6666 43.0417C77.9375 43.1875 75.8541 42.4375 72.6667 41.9167C77.1875 48.0417 82.5625 45.1458 84.3333 45.6042C85.3333 45.8542 86.5625 46.7708 86.5625 47.25C84.1041 46.2708 83.0416 48.375 80.6458 47.1042C81.4375 51.7292 89.6041 53.7292 91.3124 51.0208C92.6458 52.375 92.5416 52.8958 92.6874 53.2083C90.0416 51.9583 88.5208 54.875 86.6666 52.5417C86.9375 57.1667 93.0624 60.2708 96.3749 59.9375C96.6041 60.3542 97.7083 62.7292 97.6249 63.1667C97.2499 63.0208 97.4791 62.375 95.2708 62.125C91.8958 61.75 91.8541 61.0625 90.7916 58.9583C89.4999 61.3333 94.5416 69.0833 98.7291 71.3333C98.7916 71.8958 98.7083 73.4167 98.1666 74.0417C97.8541 72.8125 97.1041 72.5 96.1458 71.8958C94.6249 70.9583 93.4583 70.4792 92.9166 67.3542C91.0833 70.25 93.1041 79.7708 96.2916 83.4583C95.9583 84.1667 95.1249 85.9792 94.8541 86.3958C95.2708 84.7292 93.9374 84.2917 92.7708 82.3542C91.6041 80.3958 91.6249 76.9583 91.6666 76.4583C88.4999 80.6667 88.3124 93.25 88.8124 94.6042C88.5833 95.0417 86.4583 96.8542 85.5416 97.4583C85.4375 97.1875 85.5 97.2292 85.9583 96.25C86.7916 94.6042 86.1875 89.7083 88.0833 86.3542C84.9791 86.6875 79.7291 94.75 77.9791 97.875C76.0416 101 73.8333 103.417 69.8542 104.875C66.2083 106.208 61.9375 109.5 60.0834 111.5L61.8333 113C62.9792 112.021 68.625 106.417 70.1875 106.521C80.7916 107.354 85.7708 105.854 91.1249 103.667C98.1666 100.771 101.687 94.1042 101.396 93.6875C99.2916 95.6458 91.3541 97.1875 88.8541 97L90.0624 95.8333C92.7708 96.625 100.062 92.8333 102.333 89.2083C106.208 82.8125 105.729 77.9167 105.5 77.5833C103.021 82.3958 99.6041 83.875 97.3541 85.0417L97.5208 83.875C106.125 80.1042 106 70.7917 106 69.6667C106 65.6875 104.646 63.5417 104.167 63.4375C104.5 66.375 101.312 70.6667 99.8749 71.75L99.6041 70.8542C102.521 68.3958 103.521 63.8542 103.854 61.2917C104.354 56.7083 99.6457 51.5417 98.9999 51.2083C100.021 56.2917 99.0624 58.5417 98.1666 60.3958L97.7499 59.4167C101.312 53.0417 95.7291 43.75 91.5833 43.9375C93.7916 45.9792 93.2916 49.8542 92.9583 50.7917C92.7291 50.4167 92.6666 50.3542 92.3749 50.0417C93.2499 43.5625 87.1458 39.8958 84.8958 39.125C83.5208 38.7083 81.6041 38.6667 81.5833 38.9375C82.2083 39.6458 86.2708 41.0833 86.2291 45C86 44.7292 84.8541 44.0625 84.2083 43.875C83.4375 40.4167 79.1666 38 75.6875 38C75.25 38 74.9791 38.0625 74.8958 38.1042C75.0833 38.2292 78.8333 41.4375 78.5 41.9167Z" fill="#FFC72C"/>
</g>
<defs>
<clipPath id="clip0_1284_61036">
<rect width="250" height="150" fill="white"/>
</clipPath>
</defs>
</svg>
