<svg width="250" height="150" viewBox="0 0 250 150" fill="none" xmlns="http://www.w3.org/2000/svg">
<g clip-path="url(#clip0_1284_61995)">
<mask id="mask0_1284_61995" style="mask-type:luminance" maskUnits="userSpaceOnUse" x="-1" y="0" width="252" height="151">
<path d="M-0.0478516 0H250.631V150.4H-0.0478516V0Z" fill="white"/>
</mask>
<g mask="url(#mask0_1284_61995)">
<path fill-rule="evenodd" clip-rule="evenodd" d="M-64.9297 1.02808H316.211V147.316H-64.9297V1.02808Z" fill="#FFC621"/>
<path fill-rule="evenodd" clip-rule="evenodd" d="M-65.6641 100.609H315.954V150.4H-65.6641V100.609Z" fill="#EF2118"/>
<path fill-rule="evenodd" clip-rule="evenodd" d="M-64.9297 0H316.211V52.875H-64.9297V0Z" fill="#298C08"/>
<path d="M110.987 106.355C128.481 106.355 142.662 92.1724 142.662 74.6774C142.662 57.1825 128.481 43 110.987 43C93.4939 43 79.3125 57.1825 79.3125 74.6774C79.3125 92.1724 93.4939 106.355 110.987 106.355Z" fill="#006BC6"/>
<path fill-rule="evenodd" clip-rule="evenodd" d="M96.7802 52.229L94.8709 53.5509L101.774 63.2446L103.624 62.0696L96.7508 52.229H96.7802ZM105.416 75.1415L102.567 73.144L103.742 69.4134L89.6132 69.619L85.501 66.4759L104.799 66.2703L108.382 55.4309L110.321 59.8371L105.416 75.1121V75.1415ZM127.886 54.3734L126.035 52.9634L118.898 62.4809L120.543 63.8615L127.886 54.3734ZM108.676 69.5015L109.704 66.2115H113.611L109.146 52.7578L110.908 47.9109L116.93 66.2409L128.327 66.3878L124.743 69.5309L108.676 69.4721V69.5015ZM135.288 84.5415L136.081 82.3678L124.831 78.4609L124.009 80.5171L135.288 84.5415ZM114.991 70.9115L118.428 70.8821L119.632 74.5834L131.029 66.2115L136.198 66.3878L120.601 77.7559L123.979 88.6834L119.867 86.2159L114.991 70.9115ZM109.175 100.874L111.496 100.933L111.584 89.0359L109.41 88.889L109.175 100.903V100.874ZM115.637 77.2859L116.754 80.5465L113.611 82.8965L125.184 91.0334L126.652 95.9684L110.908 84.8059L101.656 91.474L102.684 86.774L115.608 77.2859H115.637ZM85.2954 81.1046L85.971 83.3078L97.3382 79.724L96.7508 77.609L85.2954 81.1046ZM109.734 79.9296L106.973 82.0153L103.8 79.7534L99.6293 93.2659L95.3996 96.2034L101.127 77.7853L91.9043 71.029L96.692 70.559L109.734 79.9296Z" fill="#FFC621"/>
</g>
</g>
<defs>
<clipPath id="clip0_1284_61995">
<rect width="250" height="150" fill="white"/>
</clipPath>
</defs>
</svg>
