<svg width="250" height="150" viewBox="0 0 250 150" fill="none" xmlns="http://www.w3.org/2000/svg">
<g clip-path="url(#clip0_1284_62052)">
<mask id="mask0_1284_62052" style="mask-type:luminance" maskUnits="userSpaceOnUse" x="-1" y="0" width="252" height="151">
<path d="M-0.0478516 0H250.594V150.4H-0.0478516V0Z" fill="white"/>
</mask>
<g mask="url(#mask0_1284_62052)">
<path fill-rule="evenodd" clip-rule="evenodd" d="M-62.7266 0H313.273V150.4H-62.7266V0Z" fill="#6797D6"/>
<path fill-rule="evenodd" clip-rule="evenodd" d="M124.62 36.1313L115.103 42.6525L118.745 32.1069L109.199 25.5857H120.978L124.62 15.04L128.262 25.615H140.011L130.494 32.1069L134.136 42.6525M124.62 114.563L115.103 108.041L118.745 118.616L109.199 125.108H120.978L124.62 135.654L128.262 125.079L140.011 125.108L130.494 118.587L134.136 108.041M78.7994 80.8988L71.6033 89.8875L72.0145 78.725L61 75.2882L72.2788 71.8513L72.6607 60.6888L79.2106 69.7363L90.4895 66.27L83.264 75.2882L89.8433 84.3063M170.381 80.8694L177.607 89.8875L177.196 78.725L188.21 75.2882L176.931 71.8513L176.549 60.6888L169.999 69.7363L158.721 66.27L165.946 75.2882L159.367 84.3063" fill="white"/>
</g>
</g>
<defs>
<clipPath id="clip0_1284_62052">
<rect width="250" height="150" fill="white"/>
</clipPath>
</defs>
</svg>
