<svg width="250" height="150" viewBox="0 0 250 150" fill="none" xmlns="http://www.w3.org/2000/svg">
<g clip-path="url(#clip0_1284_62070)">
<path d="M0 0V150H250V0H0Z" fill="#68BFE5"/>
<path d="M164.406 60.375V103C164.406 116.938 189.594 125.188 189.594 125.188C189.594 125.188 214.751 116.938 214.751 103V60.375H164.406Z" fill="white"/>
<path d="M186.094 75.375V94.5625H164.406V101.531H186.094V123.875L189.594 125.219L193.063 123.875V101.563H214.751V94.5625H193.063V75.375H186.094Z" fill="#D21034"/>
<path d="M164.406 60.375H214.751V76.875H164.375L164.406 60.375Z" fill="#D21034"/>
<path d="M168.435 72.6874C169.996 72.6874 171.261 71.6641 171.261 70.4019C171.261 69.1397 169.996 68.1165 168.435 68.1165C166.874 68.1165 165.609 69.1397 165.609 70.4019C165.609 71.6641 166.874 72.6874 168.435 72.6874Z" fill="white" stroke="black" stroke-width="0.3" stroke-miterlimit="3"/>
<path d="M168.435 70.485C169.823 70.485 170.949 69.9175 170.949 69.2176C170.949 68.5176 169.823 67.9502 168.435 67.9502C167.046 67.9502 165.921 68.5176 165.921 69.2176C165.921 69.9175 167.046 70.485 168.435 70.485Z" fill="white" stroke="black" stroke-width="0.3" stroke-miterlimit="3"/>
<path d="M168.435 73.0406C169.823 73.0406 170.949 72.4732 170.949 71.7732C170.949 71.0733 169.823 70.5059 168.435 70.5059C167.046 70.5059 165.921 71.0733 165.921 71.7732C165.921 72.4732 167.046 73.0406 168.435 73.0406Z" fill="white" stroke="black" stroke-width="0.3" stroke-miterlimit="3"/>
<path d="M168.435 71.6693C169.823 71.6693 170.949 71.1019 170.949 70.4019C170.949 69.7019 169.823 69.1345 168.435 69.1345C167.046 69.1345 165.921 69.7019 165.921 70.4019C165.921 71.1019 167.046 71.6693 168.435 71.6693Z" fill="white" stroke="black" stroke-width="0.3" stroke-miterlimit="3"/>
<path d="M213.501 73.5625L213.094 72.4375C213.094 72.4375 211.969 71.9688 211.876 71.375C211.688 69.7812 211.126 69.1875 210.251 68.9375C209.779 68.8039 209.275 68.86 208.844 69.0938C208.594 69.4688 207.282 69.4688 206.594 69.5C205.875 69.5 205.844 69.1875 205.844 69.1875C205.313 69.1875 205.063 68.7813 205.063 68.7813C204.719 68.0625 204.438 67.7813 204.25 67.6875C205.188 67.6875 205.875 67.2813 206.938 66.1875C208.063 65 208.876 65.4375 208.876 65.4375C208.313 66.5625 209.063 66.4688 209.063 66.4688C210.563 65.6875 209.251 63.75 208.813 63.8438C208.344 63.9375 208.219 63.625 208.219 63.625C208.219 63.9688 207.719 64.125 207.719 64.125C208.094 61.9063 206.782 61.3125 206.782 61.3125C206.594 61.5 206.469 61.9063 206.469 61.9063C206.094 63.25 204.875 63.0313 203.5 62.375C202.125 61.75 198.5 63.0625 197.344 63.5313C196.188 64 194.094 64.6875 192.219 63.6563C190.344 62.5938 189.875 62.7813 189.125 63C188.406 63.1875 187.094 63.5 186.625 63.25C186.294 63.0832 185.932 62.9874 185.563 62.9688C185.688 62.9063 185.5 62.5938 185.5 62.5938C184.906 61.8125 185.563 61.3438 185.563 61.3438C185.563 61.3438 184.5 61.6563 184.938 63.4688L185.125 63.7188C185.125 63.7188 185.25 64.3125 185.563 64.4688V64.5938C185.563 64.5938 185.844 64.4688 185.906 64.8438C186 65.2188 186.406 64.8438 186.563 64.5313C186.563 64.5313 186.281 66.2188 188.344 66.625C188.344 66.625 188.125 66.3438 188.188 66.1875C188.281 66 187.938 65.875 187.969 65.625C188 65.3438 187.469 65.25 187.875 65.0313C188.313 64.8438 188.5 64.4375 189.438 65C190.344 65.5313 191.063 65.4063 191.063 65.4063C191.063 65.4063 190.5 64.2813 190.813 64.2813C191.125 64.2813 192.5 65.9688 193.156 65.9062C193.844 65.8125 195.157 65.0313 195.813 65.3125C195.813 65.3125 195.875 65 198.375 64.5625C200.875 64.125 204 62.875 205.157 63.9688C205.157 63.9688 205.282 64.8438 205.782 65.0625C205.782 65.0625 205.688 66.875 202.594 65.875L201.469 65.5625C201.469 65.5625 201.282 65.0313 195.375 66.5625C195.375 66.5625 195.031 66.6875 194.781 66.8438C194.563 67 194.25 66.75 193.063 67.1562C191.906 67.625 187.531 69.0313 184.844 68.5313C184.25 68.3438 183.719 68.4375 183.688 68.3438C183.688 68.25 184 68.375 184 68.375C183.813 68.1563 183.719 68.125 183.719 68.125C181.469 67.875 181.844 66.875 181.844 66.875L181.969 67.1875C182.344 66.6875 181.844 65.5625 181.844 65.5625H181.812C181.814 65.5313 181.814 65.5 181.812 65.4688L181.969 65.3438C183.063 64.4063 184.313 64.25 184.313 64.25C183.563 63.3125 182 63.8125 182 63.8125C182.031 62.7188 181.562 61.4063 181.562 61.4063C180.6 61.5642 179.737 62.0911 179.156 62.875C179.094 61.7188 177.625 61.0625 177.625 61.0625C178.187 61.7188 177.844 63.3125 177.844 63.3125H177.906H177.75L177.719 63.6563H177.656C177.656 63.6563 177.125 63.8438 176.5 65.2812C176.5 65.2812 176.437 65.5938 176.187 65.9062V65.7813C176.187 65.7813 175.469 66.7188 173.875 65.7813C173.875 65.7813 171.687 64.5 170.875 64.5313C170.125 64.5938 169.625 64.9375 169.656 65.1563C169.656 65.1563 167.875 65.0313 167.281 66.0313C167.281 66.0313 165.937 66.5313 167.093 67.5938C167.093 67.5938 167.25 68.0938 167.562 68.3438C167.562 68.3438 167.531 67.3438 167.781 67.625L167.937 67.8125C167.968 67.9375 168.093 68.3125 168.312 68.5313L168.5 68.4688C168.5 68.2188 168.562 67.9062 168.625 67.7812H168.687L169 68.2813L169.312 68.0938C169.5 68.0938 169.718 68.25 169.718 68.25L170.125 67.9063C170.531 67.9688 170.656 67.1562 170.656 67.1562C170.82 67.1969 170.99 67.204 171.156 67.1772C171.323 67.1503 171.482 67.09 171.625 67C171.812 67.625 173.25 68.3438 173.25 68.3438H173.312L173.125 68.4688C173.781 68.9375 175 68.8125 175 68.8125C174.5 69 174.562 69.9688 174.562 69.9688C174.25 70.0938 174.25 70.375 174.25 70.375C175.25 70.7813 175.906 70.4375 175.906 70.4375C175.969 70.75 175.906 70.8125 175.906 70.8125C175.5 71.6563 175.312 72.5 175.312 72.5H175.344V72.5625C175.344 72.5625 173.562 73.1875 172.812 74.0312C172.812 74.0312 172.719 73.7813 172.5 73.7813C172.281 73.7813 171.625 73.2188 171.312 73.125C171 73.0313 170.531 73.2188 170.375 73.0625C170.281 72.9375 170.344 71.9375 170.125 71.8125L169.906 71.1875C169.781 71.5 169.156 71.4375 169.156 71.4375L168.906 71.625L168.656 71.5938C168.593 71.5938 168.531 71.75 168.5 71.9063L168.406 72V71.8125C168.312 71.9063 168.062 71.7813 167.968 71.7813C167.906 71.7813 167.843 71.9063 167.812 72.0625L167.218 72.0938C167.125 72.1563 167.218 72.9063 167.218 72.9063C166.5 73.2813 166.843 73.875 166.843 73.875C167.218 75.75 170.437 74.9063 170.687 75.1563C170.937 75.4063 171.5 75.4688 171.781 75.4688C172.094 75.4688 172.437 76.1562 172.844 76.2188C173.25 76.2812 172.844 75.6563 174.75 75.2188C176.656 74.75 177.312 73.9688 177.312 73.9688C177.906 73.8438 178.062 73.125 178.094 72.8438L178.156 73.2813C178.25 73.9375 177.781 74.2188 177.781 74.2188L179.437 73.6875C180.094 73.5313 180 72.9375 180 72.9375C180.625 74.75 181.781 74.875 181.781 74.875C182 74.1875 181.969 73.9688 181.969 73.9688H182.5C182.5 73.5625 182.187 73.2813 181.969 73.1563L182.781 73.625L183.094 73.5938C183.094 73.875 183.5 74.125 183.5 74.125L183.563 73.75C183.938 74.25 184.625 74.0625 184.625 74.0625C184.609 73.9781 184.588 73.8946 184.563 73.8125C186.031 74.7188 188.375 73.5625 188.375 73.5625C189 73.6875 189.094 73.3125 189.094 73.3125C189.781 73.4063 189.969 72.9063 189.969 72.9063C191.625 72.7813 192.813 71.5938 192.813 71.5938C193.656 71.5313 193.688 70.9375 193.688 70.9375C193.688 70.9375 194.5 71.0938 195.313 70.0938C197.188 67.4375 199.938 68.8438 199.938 68.8438L198.344 68.9375C194.125 68.9063 195.875 71.75 195.875 71.75H196.125C196.532 71.8125 197.907 72.9063 197.375 73.6875V73.75C196.5 74.9063 194.938 73.8125 194.469 72.8125C194.031 71.8125 193.094 72.0313 193.094 72.0313C193.094 72.0313 190.75 72.4375 191.719 74.3125C191.75 74.7813 192.031 75.3125 192.906 75.8125C193.375 76.5 194.938 76.5625 196.063 76.3125C196.625 76.25 199.438 75 199.438 75C199.657 74.375 200.375 74.5313 201 73.625C201.625 72.75 200.094 72.4375 199.75 71.9375C199.438 71.4688 199.844 71.5625 199.844 71.5625C201.219 72.2813 201.344 69.9375 201.344 69.9375C201.385 70.321 201.533 70.6853 201.77 70.9891C202.008 71.2929 202.326 71.524 202.688 71.6563C203.407 70.9375 202.875 69.4063 202.875 69.4063C204.657 72.5938 205.719 72.0625 205.719 72.0625C204.782 71.5 205.25 70.6875 205.25 70.6875C206.094 74.0625 209.626 71.125 209.626 71.125C209.438 71.625 209.626 71.9063 209.938 72.2188C210.251 72.5313 210.626 72.6562 210.438 73.25C210.282 73.8125 208.626 73.6875 208.626 73.6875C208.626 73.6875 207.063 73.625 207.188 74.9375C207.282 75.25 208.313 75.375 208.751 75.2812C208.751 75.2812 208.563 75.3438 209.157 75.4063H209.844C210.501 75.4063 211.251 75.2812 211.251 75.2812C212.157 75.0938 212.001 74.7813 212.001 74.7813C213.407 74.5313 213.563 73.5938 213.563 73.5938L213.501 73.5625Z" fill="#FFD100" stroke="black" stroke-width="0.3" stroke-miterlimit="3"/>
<path d="M167.125 67.7187C167.125 67.7187 167.219 67.5625 167.344 67.5313C167.469 67.5313 167.594 67.5937 167.719 67.7812L167.813 67.7187C167.813 67.7187 167.438 67.1562 167.563 66.7812C167.656 66.5937 167.813 66.4688 168.063 66.4375V66.3438C167.75 66.4062 167.563 66.5313 167.5 66.75C167.466 66.8185 167.445 66.8926 167.438 66.9688C167.438 67.1562 167.5 67.3437 167.594 67.5C167.522 67.4475 167.432 67.4251 167.344 67.4375C167.289 67.4441 167.238 67.4648 167.194 67.4978C167.15 67.5307 167.115 67.5746 167.094 67.625L167.125 67.7187ZM211.188 75.2187C210.251 75.375 208.845 75.4375 208.72 75.1562C208.72 75.0937 208.72 74.9063 209.47 74.4063L209.407 74.25C208.751 74.6875 208.47 74.9688 208.563 75.1875C208.782 75.75 210.813 75.4375 211.22 75.375L211.188 75.2187ZM192.938 75.75C192.719 75.4375 192.844 74.9688 193.251 74.4063L193.094 74.3125C192.657 74.9375 192.563 75.4375 192.782 75.875L192.938 75.75Z" fill="black"/>
<path d="M191.657 74.3125C191.657 74.9063 192.094 75.4375 192.875 75.9062L192.969 75.75C192.219 75.3125 191.844 74.8125 191.844 74.3125C191.782 73.5313 192.625 72.9063 192.657 72.9063L192.563 72.7812C192.5 72.7812 191.625 73.4375 191.657 74.3438V74.3125ZM207.907 74.5313C207.657 74.9375 207.751 75.4063 207.751 75.4063H207.907C207.907 75.375 207.845 74.9688 208.063 74.625C208.137 74.5239 208.231 74.4387 208.338 74.3743C208.445 74.3099 208.564 74.2676 208.688 74.25V74.0938C208.345 74.1563 208.063 74.3125 207.938 74.5313H207.907ZM170.688 67.2188H170.625V67.2813C170.625 67.2813 170.563 67.7813 170.313 67.9063C170.252 67.9306 170.185 67.9306 170.125 67.9063L169.719 67.6875C169.656 67.625 169.594 67.5938 169.469 67.625C169.419 67.5648 169.382 67.4948 169.36 67.4195C169.339 67.3441 169.333 67.2651 169.344 67.1875C169.375 66.9688 169.531 66.75 169.844 66.5625L169.781 66.4688C169.469 66.6875 169.281 66.9375 169.25 67.1875C169.25 67.5 169.406 67.6875 169.406 67.6875V67.7188H169.469C169.563 67.6875 169.563 67.7188 169.656 67.7812L170.094 68.0313H170.406C170.625 67.875 170.719 67.4375 170.719 67.3438C171.719 67.5625 172.531 66.3125 172.594 66.2813L172.5 66.2188C172.5 66.2188 171.656 67.4688 170.688 67.2188Z" fill="black"/>
<path d="M168.219 67.0312C168.186 67.2478 168.23 67.4689 168.344 67.6562C168.438 67.8125 168.563 67.9062 168.656 67.9375C168.813 67.9375 168.906 67.8438 169.031 67.75C169.094 67.6875 169.156 67.625 169.219 67.625L169.313 67.6875L169.375 67.625L169.219 67.5313C169.125 67.5313 169.031 67.5938 168.969 67.6875C168.906 67.7813 168.781 67.8438 168.656 67.8438C168.594 67.8438 168.5 67.75 168.406 67.5938C168.356 67.5161 168.321 67.429 168.305 67.3377C168.289 67.2464 168.292 67.1528 168.313 67.0625C168.438 66.625 168.969 66.2813 168.969 66.2813L168.938 66.1875C168.906 66.1875 168.344 66.5625 168.219 67.0312ZM166.844 73.5C166.875 73.3125 167.031 73.1875 167.25 73.0625C167.188 73.0625 167.438 73.25 167.656 73.25L167.813 73.1563C167.875 73.2188 168.25 73.5625 168.25 74C168.25 74.0938 168.25 74.1875 168.188 74.2812L168.281 74.3125C168.563 73.6562 167.844 73.0625 167.844 73.0625H167.781L167.656 73.1563C167.469 73.1563 167.25 72.9687 167.25 72.9687C166.938 73.0937 166.813 73.2813 166.75 73.4688L166.844 73.5ZM170.063 71.8125C169.844 71.8438 169.281 71.9375 169.094 72.25C169.031 72.375 169 72.5 169.063 72.625L169.125 72.8125C169.313 73.3125 169.5 73.8125 169.719 73.9375L169.75 73.8438C169.563 73.75 169.375 73.2187 169.219 72.7812L169.156 72.5938C169.129 72.5462 169.114 72.4924 169.114 72.4375C169.114 72.3826 169.129 72.3288 169.156 72.2812C169.313 72.0625 169.844 71.9687 170.094 71.9375C170.219 71.9375 170.25 72.4063 170.281 72.6875H170.375C170.344 72.25 170.281 71.8125 170.063 71.8125Z" fill="black"/>
<path d="M168.469 72.3126C168.344 72.4063 168.376 72.5626 168.376 72.5938C168.376 72.6251 168.438 73.8438 169.001 74.0938L169.032 74.0001C168.532 73.7813 168.469 72.5938 168.469 72.5626C168.469 72.5626 168.469 72.4376 168.532 72.3751C168.626 72.3126 168.782 72.2813 169.032 72.3751L169.063 72.2813C168.782 72.1876 168.594 72.2188 168.469 72.2813V72.3126Z" fill="black"/>
<path d="M168 72.4062C167.75 72.5937 167.782 73.0937 167.782 73.125H167.875C167.875 73.125 167.875 72.625 168.063 72.5C168.157 72.4375 168.25 72.4375 168.375 72.5L168.407 72.375C168.25 72.3125 168.094 72.3125 168 72.375V72.4062Z" fill="black"/>
<path d="M181.753 65.6855C181.753 65.6855 182.023 66.3088 182.023 66.7867C182.023 66.8698 181.982 66.9321 181.961 66.9944L181.857 66.7243L181.795 66.9321C181.795 66.9321 181.67 67.223 181.857 67.5346C182.107 67.9502 182.73 68.1995 183.727 68.3034V68.3242C183.698 68.3237 183.67 68.3309 183.644 68.3449L183.603 68.3865V68.4696C183.644 68.5735 183.748 68.5735 183.977 68.5735L184.122 68.5943L184.247 68.6358L184.226 68.615C184.434 68.615 184.704 68.6774 184.974 68.7813L184.766 68.8228L184.995 68.9267C185.015 68.9267 186.802 69.6539 187.529 70.2356C187.322 70.4226 186.428 71.0667 184.891 70.6927L184.641 70.6304L184.808 70.8382C184.808 70.8382 185.826 72.0017 186.033 72.7081C185.68 72.7081 184.33 72.7081 183.852 72.2925L183.748 72.3964C183.748 72.3964 184.371 73.3522 184.538 74.0794C184.33 74.1209 183.914 74.1417 183.644 73.7885L183.519 73.643L183.457 74.0586C183.332 73.9547 183.166 73.83 183.166 73.6638V73.5807L182.792 73.643L182.003 73.1652C181.962 73.1356 181.921 73.1079 181.878 73.0821L181.795 73.2275L181.92 73.2898C182.086 73.4145 182.377 73.643 182.397 73.9755H181.899V74.0794C181.899 74.1417 181.899 74.3702 181.712 74.8481C181.483 74.8065 180.611 74.4949 180.091 73.0197L179.925 73.0613V73.1028C179.925 73.2483 179.883 73.5807 179.426 73.7054L178.076 74.1209C178.194 73.9508 178.253 73.7461 178.242 73.5392V73.3729C178.217 73.194 178.203 73.0135 178.2 72.8327C178.2 72.5211 178.263 72.3341 178.491 72.2094L178.408 72.0432C178.387 72.0432 176.414 72.8535 175.437 72.5211C175.479 72.3133 175.645 71.6485 175.977 70.942L175.936 70.9836C175.998 70.942 176.06 70.8589 175.998 70.5265V70.4226L175.894 70.4642C175.894 70.4642 175.271 70.7551 174.357 70.4226C174.357 70.3395 174.419 70.2149 174.606 70.1318L174.668 70.111V69.9448C174.668 69.6954 174.689 69.1137 175.042 68.989L175.001 68.8228C175.001 68.8228 173.941 68.9059 173.297 68.5527C173.575 68.3527 173.895 68.2178 174.232 68.1579H174.294V68.0748C174.292 67.9103 174.256 67.7478 174.19 67.597C174.44 67.6801 174.731 67.7424 174.835 67.6593L174.876 67.6385L174.835 66.9944H174.668L174.689 67.5346L174.066 67.3892L173.816 67.3061L173.983 67.5139C174.083 67.6603 174.134 67.835 174.128 68.0125C173.751 68.094 173.396 68.2571 173.089 68.4904L172.985 68.5735L173.089 68.6358C173.588 68.9682 174.357 69.0098 174.751 68.989C174.575 69.2688 174.481 69.593 174.481 69.924V70.0071C174.399 70.0553 174.328 70.1214 174.274 70.2005C174.22 70.2795 174.184 70.3696 174.17 70.4642V70.5265L174.211 70.5473C174.727 70.7844 175.312 70.8214 175.853 70.6512V70.8382C175.437 71.7108 175.229 72.5626 175.229 72.5626V72.6458H175.292C176.102 72.9782 177.515 72.5419 178.159 72.3133C178.076 72.4588 178.013 72.625 178.013 72.8327C178.016 73.0695 178.037 73.3056 178.076 73.5392C178.076 74.017 177.764 74.204 177.743 74.204L177.806 74.3702L179.468 73.8716C179.842 73.7677 179.987 73.5392 180.05 73.3522C180.694 74.8897 181.712 75.0143 181.774 75.0351H181.836L181.857 74.9728C181.967 74.7075 182.037 74.4274 182.065 74.1417C182.231 74.1352 182.397 74.1283 182.564 74.1209V74.017C182.564 73.8716 182.543 73.7469 182.481 73.643L182.771 73.8093L183.042 73.7677C183.104 74.0378 183.436 74.2663 183.478 74.2871L183.582 74.3495L183.644 73.9963C184.06 74.3495 184.621 74.2456 184.662 74.2456L184.725 74.2248V74.1417C184.641 73.5807 184.267 72.9159 184.039 72.5626C184.766 72.8951 186.096 72.8743 186.158 72.8743H186.241V72.7704C185.967 72.083 185.573 71.4498 185.078 70.9005C186.781 71.2122 187.696 70.3187 187.737 70.2772L187.8 70.2149L187.716 70.1733C186.97 69.6397 186.16 69.2001 185.306 68.8644L185.493 68.8228L185.286 68.7189C184.912 68.5284 184.499 68.4287 184.08 68.428C183.873 68.1787 183.769 68.1579 183.748 68.1372C182.584 68.0125 182.169 67.7009 182.003 67.4515V67.3892L182.044 67.3269C182.148 67.1814 182.19 66.9944 182.19 66.7867C182.19 66.2465 181.92 65.6439 181.92 65.6232L181.753 65.6855Z" fill="black"/>
<path d="M176.455 65.3531C176.455 65.3531 176.33 65.9764 175.79 66.288C175.375 66.4958 174.855 66.4958 174.211 66.2257L174.128 66.2049V66.288C174.174 66.5554 174.323 66.7941 174.543 66.9529C174.814 67.1607 175.229 67.2438 175.769 67.2022C175.582 67.41 175.021 68.1164 175.021 68.8228V68.9267C175.104 68.9682 175.977 69.2176 176.393 68.6981C176.393 68.9059 176.476 69.6331 176.746 69.9032C176.912 70.0694 176.954 70.2772 176.954 70.4642C176.954 70.6304 176.912 70.7551 176.912 70.7551L176.871 70.8797L176.974 70.7966C177.016 70.7758 177.826 70.1733 178.076 69.4046C178.076 69.4046 178.221 69.1968 178.47 69.1345V69.2383C178.47 69.55 178.595 70.0902 179.468 70.4226L179.53 70.4434V70.3811C179.528 70.3326 179.528 70.2841 179.53 70.2356C179.53 70.0071 179.53 69.6123 179.759 69.4046C179.851 69.3191 179.912 69.2061 179.935 69.0825C179.957 68.9589 179.939 68.8313 179.883 68.7189C180.07 68.7605 180.486 68.9059 180.652 69.2176C180.901 69.6747 181.753 69.3007 181.795 69.3007L181.774 69.1968C181.774 69.1968 181.4 69.2799 181.171 69.1345C181.124 69.097 181.084 69.0499 181.055 68.9962C181.027 68.9425 181.01 68.8835 181.005 68.8228L180.964 68.3242C180.964 68.1164 180.922 67.971 180.818 67.8671C180.922 67.8671 181.151 67.8671 181.234 68.0748C181.4 68.4073 181.919 68.428 181.94 68.428L182.127 68.4488L181.982 68.3449C181.982 68.3449 181.525 68.0541 181.608 67.6593L181.67 67.3684C181.795 66.849 182.003 65.9972 181.816 65.457L181.732 65.4985C181.774 65.6232 181.795 65.7894 181.795 65.9556C181.795 66.4127 181.649 66.9944 181.587 67.3476L181.504 67.6385C181.501 67.6731 181.501 67.7079 181.504 67.7424C181.504 68.0125 181.649 68.1995 181.774 68.3034C181.629 68.2826 181.421 68.1995 181.358 68.0333C181.213 67.7424 180.881 67.7424 180.735 67.7632L180.61 67.784L180.694 67.8671C180.839 67.9502 180.86 68.0748 180.86 68.3449L180.901 68.8228C180.922 68.989 181.005 69.1137 181.109 69.1968C181.234 69.2799 181.358 69.2799 181.462 69.3007C181.213 69.363 180.86 69.4046 180.735 69.176C180.507 68.7189 179.842 68.615 179.821 68.5943H179.717L179.759 68.6774C179.759 68.6774 179.842 68.802 179.842 68.9682C179.842 69.0721 179.8 69.2176 179.696 69.3215C179.468 69.55 179.426 69.9863 179.426 70.2149V70.298C178.678 69.9863 178.554 69.5292 178.554 69.2591V69.0514L178.595 68.989H178.512C178.403 69.0076 178.299 69.051 178.209 69.1158C178.119 69.1806 178.045 69.2652 177.993 69.363C177.786 69.8708 177.449 70.3151 177.016 70.6512C177.028 70.5825 177.035 70.5131 177.037 70.4434C177.037 70.2564 176.995 70.0279 176.829 69.8409C176.517 69.55 176.476 68.5943 176.476 68.5943V68.428L176.393 68.5735C176.06 69.1552 175.104 68.8644 175.084 68.8644C175.042 68.1372 175.915 67.1814 175.915 67.1607L175.998 67.0775H175.873C175.312 67.1607 174.876 67.0775 174.585 66.8698C174.42 66.7381 174.303 66.5555 174.253 66.3504C174.876 66.5789 175.416 66.5997 175.832 66.3711C176.011 66.262 176.167 66.1172 176.288 65.9457C176.41 65.7742 176.495 65.5795 176.538 65.3738C177.161 64.0026 177.681 63.774 177.681 63.774L177.66 63.6909C177.619 63.6909 177.078 63.8987 176.455 65.3531Z" fill="black"/>
<path d="M177.848 63.2962H177.806L177.308 63.9818H177.453C179.003 64.104 180.457 64.7829 181.546 65.8933L181.609 65.9556L182.086 65.4362L182.045 65.3739C180.694 63.2546 177.869 63.2962 177.827 63.2962H177.848ZM177.889 63.4832C178.222 63.4832 180.632 63.5455 181.879 65.4154L181.609 65.7063C180.512 64.6646 179.103 64.0145 177.598 63.8572C177.695 63.7323 177.792 63.6077 177.889 63.4832Z" fill="black"/>
<path d="M177.452 64.7091C177.229 65.0015 177.079 65.3436 177.016 65.7064L177.037 65.7895C176.892 65.941 176.781 66.1207 176.709 66.3174C176.638 66.514 176.608 66.7234 176.621 66.9322C176.621 67.2023 176.663 67.4724 176.746 67.7217L176.808 67.8672C177.058 68.5736 177.286 69.1969 178.429 68.8229C179.509 68.4905 179.551 68.4074 179.821 67.9503L179.904 67.8464C180.049 67.5971 180.216 67.5555 180.382 67.4932C180.59 67.4308 180.797 67.3685 181.005 66.9945L181.171 66.7244C181.379 66.4543 181.629 66.1011 181.649 65.6856H181.566C181.504 66.0463 181.346 66.3836 181.109 66.6621L180.901 66.953C180.856 67.0678 180.783 67.1697 180.689 67.2494C180.594 67.3292 180.482 67.3844 180.361 67.4101C180.25 67.4312 180.144 67.4754 180.051 67.5399C179.958 67.6043 179.88 67.6875 179.821 67.7841L179.738 67.9087C179.489 68.345 179.447 68.4074 178.387 68.7398C177.348 69.0722 177.141 68.5528 176.891 67.8256L176.829 67.6802C176.538 66.8906 176.767 66.1011 177.161 65.8102L177.286 65.7064L177.099 65.7271V65.7064C177.099 65.5609 177.245 65.1662 177.515 64.7714C177.764 64.439 178.346 64.1273 178.346 64.1065L178.304 64.0234C178.263 64.0442 177.702 64.3766 177.452 64.7091Z" fill="black"/>
<path d="M176.954 67.597C177.141 67.7217 177.39 67.7009 177.723 67.597C177.723 67.7009 177.723 67.9502 177.93 68.1164C178.18 68.3242 178.554 68.3657 179.073 68.2411V68.1372C178.575 68.2619 178.201 68.2203 177.993 68.0333C177.927 67.9692 177.876 67.8912 177.843 67.805C177.811 67.7187 177.798 67.6264 177.806 67.5347V67.4516L177.743 67.4931C177.432 67.6178 177.182 67.6385 176.995 67.4931C176.684 67.2853 176.705 66.7244 176.705 66.7244H176.621C176.621 66.7244 176.58 67.3477 176.954 67.597Z" fill="black"/>
<path d="M177.535 66.8283C177.411 66.8699 177.369 66.9738 177.369 67.0569V67.1192C177.411 67.3685 177.681 67.5347 177.909 67.5971C178.159 67.6594 178.449 67.6802 178.553 67.5347C178.595 67.4724 178.636 67.3685 178.553 67.1815C178.464 67.0062 178.311 66.8718 178.125 66.8061C177.94 66.7404 177.736 66.7483 177.556 66.8283H177.535ZM177.951 67.514C177.743 67.4516 177.494 67.3062 177.473 67.0984C177.473 67.0984 177.452 66.953 177.577 66.9114C177.737 66.8463 177.917 66.8444 178.078 66.9061C178.24 66.9678 178.373 67.0885 178.449 67.2439C178.512 67.327 178.512 67.4101 178.47 67.4516C178.408 67.5555 178.179 67.5763 177.951 67.514ZM177.868 68.0749C177.805 68.5943 177.868 68.6151 177.888 68.6151H177.93L177.972 68.5943L178.262 68.1788L177.888 68.0126V68.0749H177.868ZM177.972 68.158L178.117 68.2204L177.951 68.4489V68.158H177.972ZM177.099 67.6594L177.078 68.1373L177.494 67.6386L177.078 67.5971V67.6594H177.099ZM177.182 67.7009H177.307L177.182 67.8672V67.7009Z" fill="black"/>
<path d="M176.809 67.4932C176.809 67.4932 177.12 68.0957 177.183 68.3243C177.203 68.4489 177.39 68.6151 177.598 68.6775C177.806 68.7606 178.014 68.7606 178.159 68.6567L178.429 68.4281C178.512 68.3243 178.554 68.3035 178.637 68.3243V68.2204C178.512 68.2204 178.45 68.2619 178.367 68.345L178.097 68.5528C177.931 68.6775 177.744 68.6359 177.64 68.5944C177.432 68.532 177.287 68.3866 177.266 68.2827C177.203 68.0749 176.913 67.4724 176.892 67.4516L176.809 67.4932ZM177.224 65.7064C176.99 65.8297 176.812 66.0378 176.726 66.2881L176.809 66.3089C176.809 66.3089 176.954 65.9349 177.245 65.7895C177.323 65.7539 177.408 65.7355 177.494 65.7355C177.58 65.7355 177.665 65.7539 177.744 65.7895L177.764 65.7064C177.557 65.6233 177.39 65.6233 177.203 65.7064H177.224ZM179.468 66.7868C179.51 66.7868 180.133 67.2854 179.78 67.8672L179.842 67.9295C180.258 67.2439 179.531 66.7037 179.531 66.6829L179.468 66.7868ZM177.557 66.8699C177.557 66.8699 177.453 67.2231 177.972 67.3477C177.972 67.3477 177.494 67.3477 177.453 67.2231C177.432 67.0984 177.453 66.8283 177.557 66.8699ZM179.115 67.2854C179.115 67.327 179.073 67.3477 179.053 67.3477C179.039 67.3485 179.026 67.3449 179.015 67.3374C179.003 67.3299 178.995 67.3189 178.99 67.3062C178.99 67.2646 179.011 67.2439 179.053 67.2439C179.073 67.2439 179.115 67.2646 179.115 67.3062V67.2854ZM179.157 67.5347C179.157 67.5555 179.157 67.5763 179.115 67.5763C179.101 67.5771 179.088 67.5734 179.077 67.5659C179.066 67.5584 179.057 67.5475 179.053 67.5347C179.053 67.5182 179.059 67.5024 179.071 67.4907C179.083 67.479 179.098 67.4724 179.115 67.4724C179.136 67.4724 179.157 67.4932 179.157 67.5347Z" fill="black"/>
<path d="M178.782 67.4723C178.816 67.4723 178.844 67.4444 178.844 67.41C178.844 67.3756 178.816 67.3477 178.782 67.3477C178.748 67.3477 178.72 67.3756 178.72 67.41C178.72 67.4444 178.748 67.4723 178.782 67.4723Z" fill="black"/>
<path d="M178.948 67.7423C178.948 67.7589 178.942 67.7747 178.93 67.7864C178.919 67.7981 178.903 67.8047 178.886 67.8047C178.87 67.8047 178.854 67.7981 178.842 67.7864C178.83 67.7747 178.824 67.7589 178.824 67.7423C178.824 67.7216 178.845 67.7008 178.886 67.7008L178.948 67.7423ZM177.473 66.2256C177.473 66.2422 177.467 66.258 177.455 66.2697C177.443 66.2814 177.428 66.288 177.411 66.288C177.394 66.288 177.379 66.2814 177.367 66.2697C177.355 66.258 177.349 66.2422 177.349 66.2256C177.354 66.2171 177.362 66.21 177.371 66.2052C177.38 66.2003 177.39 66.1978 177.401 66.1978C177.411 66.1978 177.421 66.2003 177.43 66.2052C177.439 66.21 177.447 66.2171 177.453 66.2256H177.473Z" fill="black"/>
<path d="M177.452 66.5165C177.486 66.5165 177.514 66.4886 177.514 66.4542C177.514 66.4198 177.486 66.3918 177.452 66.3918C177.418 66.3918 177.39 66.4198 177.39 66.4542C177.39 66.4886 177.418 66.5165 177.452 66.5165Z" fill="black"/>
<path d="M177.14 66.4127C177.175 66.4127 177.203 66.3848 177.203 66.3504C177.203 66.316 177.175 66.2881 177.14 66.2881C177.106 66.2881 177.078 66.316 177.078 66.3504C177.078 66.3848 177.106 66.4127 177.14 66.4127Z" fill="black"/>
<path d="M177.287 66.6828C177.287 66.6963 177.284 66.7096 177.276 66.7209C177.269 66.7321 177.258 66.7406 177.245 66.7451C177.228 66.7451 177.213 66.7385 177.201 66.7268C177.189 66.7152 177.183 66.6993 177.183 66.6828C177.183 66.6662 177.189 66.6504 177.201 66.6387C177.213 66.627 177.228 66.6204 177.245 66.6204C177.258 66.6249 177.269 66.6334 177.276 66.6447C177.284 66.6559 177.287 66.6693 177.287 66.6828ZM178.284 64.6882C178.284 64.6882 179.011 65.1453 178.305 65.9971C178.305 65.9971 178.658 65.727 178.679 65.2907C178.72 64.8544 178.429 64.5012 178.263 64.6882H178.284ZM181.089 65.914C180.839 66.0387 180.507 65.8101 180.341 65.6024C180.175 65.3946 179.821 65.3323 179.593 65.727C179.385 66.101 179.073 66.2465 179.073 66.2465C179.073 66.2465 179.385 66.0802 179.697 65.727C180.008 65.3946 180.195 65.6647 180.507 65.8309C180.798 65.9971 180.86 66.0387 181.068 65.9348V65.914H181.089Z" fill="black"/>
<path d="M181.026 65.9763C180.96 66.0277 180.878 66.0538 180.794 66.05C180.71 66.0462 180.631 66.0127 180.569 65.9556C180.361 65.7893 180.216 65.5816 179.987 65.7062C179.738 65.8309 179.302 66.1633 179.302 66.1633C179.302 66.1633 180.029 65.6647 180.174 65.7893C180.299 65.8932 180.632 66.1633 180.818 66.0802L181.026 65.9763Z" fill="black"/>
<path d="M180.465 66.2673C180.237 66.1011 180.008 66.4751 179.821 66.4336C179.613 66.392 179.468 66.0596 179.468 66.0596C179.468 66.0596 179.634 66.392 179.883 66.3297C180.153 66.2466 180.32 66.0803 180.486 66.205C180.631 66.3297 180.465 66.2673 180.465 66.2673Z" fill="black"/>
<path d="M180.112 66.3296C180.053 66.3417 179.991 66.3407 179.932 66.3267C179.873 66.3126 179.818 66.2859 179.771 66.2483C179.723 66.2107 179.684 66.1631 179.657 66.109C179.63 66.0548 179.615 65.9954 179.613 65.9348C179.613 65.9348 179.759 66.3088 180.153 66.2465L180.112 66.3296Z" fill="black"/>
<path d="M180.092 66.0388C180.112 66.1426 180.112 66.205 179.988 66.205C179.863 66.205 179.78 66.1634 179.78 66.0388C179.78 65.9349 180.071 65.9557 180.092 66.0388ZM178.471 65.4155C178.466 65.4503 178.448 65.4822 178.422 65.5051C178.395 65.528 178.361 65.5405 178.326 65.5401C178.242 65.5401 178.222 65.4986 178.222 65.4155C178.222 65.3323 178.222 65.27 178.326 65.27C178.429 65.27 178.471 65.3323 178.471 65.4155Z" fill="black"/>
<path d="M177.951 64.8961C177.951 64.8961 178.741 64.8961 178.367 65.8726C178.367 65.8726 178.658 65.3947 178.471 65.0415C178.263 64.7091 177.993 64.7922 177.993 64.7922C177.993 64.7922 177.91 64.8545 177.951 64.8961Z" fill="black"/>
<path d="M177.95 65.2907C177.95 65.4985 178.075 65.6854 178.324 65.8932L178.387 65.8101C178.158 65.6231 178.034 65.4569 178.034 65.2907C178.034 65.1245 178.158 65.0206 178.158 65.0206L178.096 64.9583C178.096 64.9583 177.95 65.0829 177.93 65.2907H177.95Z" fill="black"/>
<path d="M178.117 65.4571C178.138 65.561 178.242 65.6649 178.366 65.7064L178.408 65.6233C178.304 65.5818 178.221 65.4986 178.2 65.4155C178.159 65.2493 178.283 65.0623 178.283 65.0623L178.2 65C178.2 65 178.055 65.2493 178.117 65.4571ZM179.177 65.9973C179.177 65.9973 179.322 66.3089 179.114 66.6414L178.907 66.9738C178.907 66.9738 179.156 66.4959 179.052 66.3089C178.969 66.1012 179.177 65.9973 179.177 65.9973ZM182.21 69.28C183 69.4255 184.807 70.8383 184.807 70.8383L184.911 70.7136C184.849 70.6513 183.062 69.2593 182.231 69.1138L182.189 69.28H182.21ZM182.917 71.2538C182.958 71.981 183.748 72.4173 183.748 72.4381L183.852 72.2927C183.852 72.2927 183.124 71.8771 183.083 71.2538H182.917ZM180.984 71.4201C180.984 72.2096 181.732 73.1653 181.774 73.2069L181.899 73.103C181.899 73.103 181.151 72.1472 181.151 71.4201H180.984ZM178.47 71.5032C178.595 71.7733 178.595 71.8979 178.553 71.9603C178.512 72.0434 178.429 72.0434 178.429 72.0434L178.45 72.2096C178.512 72.2096 178.637 72.168 178.699 72.0434C178.782 71.8979 178.761 71.6902 178.616 71.4201L178.47 71.5032Z" fill="black"/>
<path d="M167.125 67.5936C167.125 67.5936 167.156 68.1249 167.563 68.4374C167.563 68.4374 167.531 67.8749 167.656 67.6249C167.656 67.6249 167.438 67.3749 167.125 67.5936ZM167.938 67.9061C167.938 67.9061 168.031 68.4061 168.313 68.6249L168.5 68.5936C168.5 68.5936 168.563 67.9686 168.656 67.9061C168.75 67.8436 168.25 68.1249 167.938 67.9061Z" fill="white" stroke="black" stroke-width="0.3" stroke-miterlimit="3"/>
<path d="M168.656 67.9061L168.968 68.4061L169.343 68.1874L169.281 67.6249C169.281 67.6249 169.062 67.5624 168.656 67.9061ZM170.125 67.9999L169.718 68.3436C169.718 68.3436 169.5 68.1874 169.343 68.1874L169.406 67.6561C169.406 67.6561 169.718 67.4374 170.125 67.9999ZM167.218 72.9999C167.218 72.9999 167.156 72.2499 167.218 72.2186C167.218 72.2186 167.531 72.3124 167.656 72.2186C167.656 72.2186 167.812 72.7811 167.781 73.0311C167.718 73.2811 167.437 73.1874 167.218 73.0311V72.9999ZM169.093 72.2499C169.093 72.2499 169.062 71.6249 169.156 71.5311C169.156 71.5311 169.781 71.6249 169.906 71.2811L170.125 71.9061C170.125 71.9061 169.468 71.8124 169.062 72.2186L169.093 72.2499Z" fill="white"/>
<path d="M169.343 68.1874L168.968 68.4061L168.656 67.9061C169.062 67.5624 169.281 67.6249 169.281 67.6249L169.343 68.1874ZM169.343 68.1874C169.5 68.1874 169.718 68.3436 169.718 68.3436L170.125 67.9999C169.718 67.4374 169.406 67.6561 169.406 67.6561L169.343 68.1874ZM167.218 72.9999C167.218 72.9999 167.156 72.2499 167.218 72.2186C167.218 72.2186 167.531 72.3124 167.656 72.2186C167.656 72.2186 167.812 72.7811 167.781 73.0311C167.718 73.2811 167.437 73.1874 167.218 73.0311V72.9999ZM169.093 72.2499C169.093 72.2499 169.062 71.6249 169.156 71.5311C169.156 71.5311 169.781 71.6249 169.906 71.2811L170.125 71.9061C170.125 71.9061 169.468 71.8124 169.062 72.2186L169.093 72.2499Z" stroke="black" stroke-width="0.3" stroke-miterlimit="3"/>
<path d="M168.438 72.375C168.438 72.375 168.531 71.7187 168.656 71.6875C168.656 71.6875 168.969 71.7812 169.063 71.6562V72.4687C169.063 72.4687 169.063 72.125 168.438 72.375ZM167.719 72.4687C167.719 72.4687 167.875 71.875 167.969 71.875C168.063 71.875 168.281 72.0312 168.406 71.9375V72.375C168.406 72.375 167.906 72.25 167.812 72.9687L167.719 72.4687Z" fill="white" stroke="black" stroke-width="0.3" stroke-miterlimit="3"/>
<path d="M177.156 84.5C177.156 84.5 178.781 86.0313 178.375 87.375C178.375 87.375 179.406 85.0938 178.281 84.4063C177.156 83.7813 177.125 84.25 177.156 84.5Z" fill="#00A651" stroke="black" stroke-width="0.3" stroke-miterlimit="4.8"/>
<path d="M175.062 85.9688C175.062 85.9688 174.656 86.5938 175.125 87C175.125 87 174.593 87.75 175 88.375C175 88.375 174.687 89.0313 174.75 89.75C174.75 89.75 174.5 90.8438 175.062 91.3438C175.062 91.3438 175.687 91.6563 176 91.375C176 91.375 176.531 90.5625 176.187 89.7188C176.187 89.7188 176.562 89 176.125 88.0938C176.125 88.0938 176.25 87.5938 175.906 87C175.906 87 176.125 86.625 175.937 86.3125C175.937 86.3125 175.156 85.4688 175.062 86V85.9688Z" fill="#964B36" stroke="black" stroke-width="0.3" stroke-miterlimit="4.8"/>
<path d="M175.531 84.0625C175.531 84.0625 173.594 80.3125 172.219 80.1563C170.844 80 170.781 78.6562 170.781 78.6562C170.781 78.6562 170.938 79.2812 172.031 79.2812C173.125 79.2812 175.219 80.8437 175.469 82C175.688 83.1562 175.938 83 175.938 83L175.531 84.0625Z" fill="#00A651" stroke="black" stroke-width="0.3" stroke-miterlimit="4.8"/>
<path d="M175.531 83.7813C175.531 83.7813 176.25 79.0625 179.344 78.9688C182.438 78.9063 181.406 79.2188 182.156 78.7188C182.156 78.7188 180.094 79.7812 178.812 79.9688C177.5 80.0938 176.437 82.625 176.5 83.0938C176.5 83.5625 175.781 84.4687 175.437 84.1562C175.062 83.8437 175.531 83.7813 175.531 83.7813Z" fill="#00A651" stroke="black" stroke-width="0.3" stroke-miterlimit="4.8"/>
<path d="M176.25 85.5626C176.25 85.5626 176.968 83.6876 178.156 84.3126C178.156 84.3126 177.218 82.5001 175.531 84.0626C175.531 84.0626 176.281 85.0938 176.25 85.5626ZM173.906 83.6876C173.906 83.6876 174.906 87.8751 173.343 89.1563C173.343 89.1563 173.406 87.0001 172.437 85.7188C171.5 84.4063 173.375 83.0001 173.906 83.6876Z" fill="#00A651" stroke="black" stroke-width="0.3" stroke-miterlimit="4.8"/>
<path d="M174.031 84.4063C174.031 84.4063 175.875 86.1875 175.969 86.7813C176.094 87.3438 176.531 85 175.656 84.3437C174.781 83.6875 173.875 83.5625 173.875 83.5625L174.031 84.4375V84.4063Z" fill="#00A651" stroke="black" stroke-width="0.3" stroke-miterlimit="4.8"/>
<path d="M170.625 89.0625C170.625 89.0625 170.781 89.7812 171.25 89.9375C171.25 89.9375 171.25 90.4688 171.688 90.625C171.688 90.625 171.469 91.0937 171.813 91.375C171.813 91.375 171.75 92.3125 172.063 92.4687C172.063 92.4687 172.906 92.4375 173.188 92.1875C173.188 92.1875 173.344 91.5938 172.875 91C172.875 91 172.969 90.4375 172.5 90.125C172.5 90.125 172.656 89.3438 172.063 89.0625C172.063 89.0625 171.969 88.4375 171.625 88.125C171.625 88.125 170.938 89.0938 170.625 89.0625Z" fill="#964B36" stroke="black" stroke-width="0.3" stroke-miterlimit="4.8"/>
<path d="M171.531 88.1249C171.531 88.1249 169.125 87.2499 167.781 88.4999C167.781 88.4999 169.844 88.8124 170.094 89.2186C170.344 89.6249 171.625 88.5311 171.531 88.1249Z" fill="#00A651" stroke="black" stroke-width="0.3" stroke-miterlimit="4.8"/>
<path d="M170.781 89.6249L170.344 89.3124C170.125 89.1249 168.093 88.5937 167.812 90.5624C167.812 90.5624 167.062 88.5937 168.125 88.3749C169.219 88.0624 170.062 88.6874 170.781 89.6249ZM169.219 85.6249C169.219 85.6249 169.937 87.2499 170.219 87.3124C170.5 87.4062 170.687 87.1249 170.687 87.1249C170.687 87.1249 169.719 85.6874 169.187 85.6249H169.219ZM168.656 83.1562C168.656 83.1562 168.031 81.0937 167.281 81.6562C166.531 82.1874 166.718 83.6874 166.718 83.6874C166.718 83.6874 165.25 82.1249 166.093 80.9374C166.968 79.7187 168.656 81.0624 168.656 83.1562Z" fill="#00A651" stroke="black" stroke-width="0.3" stroke-miterlimit="4.8"/>
<path d="M170.344 87.4374C170.344 87.4374 170.344 87.8437 170.625 87.9374C170.875 88.0624 171.406 88.25 171.406 88.0312C171.406 87.8125 171 86.8749 170.844 86.9999C170.688 87.1249 170.406 87.1249 170.344 87.4374Z" fill="#964B36" stroke="black" stroke-width="0.3" stroke-miterlimit="4.8"/>
<path d="M169.875 85C169.875 85 169.781 83.2188 170.969 82.5312C170.969 82.5312 171.187 82.5938 171.312 82.2188C171.312 82.2188 170.375 84.5 170.656 85.6562L170.625 85.7812" fill="#00A651"/>
<path d="M169.875 85C169.875 85 169.781 83.2188 170.969 82.5312C170.969 82.5312 171.187 82.5938 171.312 82.2188C171.312 82.2188 170.375 84.5 170.656 85.6562L170.625 85.7812" stroke="black" stroke-width="0.3" stroke-miterlimit="4.8"/>
<path d="M170.094 82.8124C170.094 82.8124 172.219 78.4374 174.781 79.9687C174.781 79.9687 172.094 80.4999 171.125 82.4374L170.156 83.8749L170.094 82.8124Z" fill="#00A651" stroke="black" stroke-width="0.3" stroke-miterlimit="4.8"/>
<path d="M168.969 84.4063C168.969 84.4063 168.344 81.4688 167.938 81.0938C167.563 80.6875 166.906 80.2813 166.094 80.9375C166.094 80.9375 167.469 79.7188 168.906 80.75C170.375 81.75 170.063 83.375 170.063 83.375L169.906 85.4062L168.938 84.5" fill="#00A651"/>
<path d="M168.969 84.4063C168.969 84.4063 168.344 81.4688 167.938 81.0938C167.563 80.6875 166.906 80.2813 166.094 80.9375C166.094 80.9375 167.469 79.7188 168.906 80.75C170.375 81.75 170.063 83.375 170.063 83.375L169.906 85.4062L168.938 84.5" stroke="black" stroke-width="0.3" stroke-miterlimit="4.8"/>
<path d="M171.25 87.9062C171.25 87.9062 168.656 83 166.969 86.5C166.969 86.5 166.656 87.4062 167 87.75C167 87.75 166.063 87.0312 166.5 85.3125C166.938 83.5937 169.781 84.375 170.625 85.7812C171.438 87.1875 171.656 87.9062 171.563 87.9687C171.438 88.0625 171.25 87.9062 171.25 87.9062ZM178.532 89.3125C178.532 89.3125 180.407 85.4375 181.5 87.1875C181.5 87.1875 181.813 88.0625 181.344 88.4375C181.344 88.4375 180.594 87.5 179.938 88.625C179.25 89.7187 179.532 89.625 179.532 89.625C179.532 89.625 178.844 89.8125 178.532 89.3125Z" fill="#00A651" stroke="black" stroke-width="0.3" stroke-miterlimit="4.8"/>
<path d="M181.312 88.4375C181.312 88.4375 182.344 88.9688 182 90.0625C182 90.0625 183.375 87.4375 181.5 87.1875C181.5 87.1875 181.844 88.0312 181.344 88.4375H181.312ZM181.469 85.75C181.469 85.75 183.938 86.4688 184 87.5313C184 87.5313 184.438 85.4688 183.031 84.8438C183.031 84.8438 181.344 85.1562 181.469 85.7812V85.75Z" fill="#00A651" stroke="black" stroke-width="0.3" stroke-miterlimit="4.8"/>
<path d="M182.563 82.5C183.625 80.4375 184.938 83.1563 184.938 83.1563C184.938 83.1563 185.406 81 184.094 80.625C182.75 80.2188 181.906 85.2188 181.906 85.2188L180.344 85.5313C180.344 85.5313 180.75 81.2188 183.094 80.8438H183.406" fill="#00A651"/>
<path d="M182.563 82.5C183.625 80.4375 184.938 83.1563 184.938 83.1563C184.938 83.1563 185.406 81 184.094 80.625C182.75 80.2188 181.906 85.2188 181.906 85.2188L180.344 85.5313C180.344 85.5313 180.75 81.2188 183.094 80.8438H183.406" stroke="black" stroke-width="0.3" stroke-miterlimit="4.8"/>
<path d="M180.688 83.7501C180.688 83.7501 179.188 80.6876 178.188 80.3751C177.188 80.0626 178.719 79.5938 179.344 80.1876C179.969 80.7813 181.156 81.5313 181.031 83.0938L180.688 83.7501ZM179.125 87.9376C179.125 87.9376 179.563 85.8751 180.75 85.2501C181.938 84.6251 183.032 84.8438 183.032 84.8438C183.032 84.8438 181.625 85.1563 181.375 85.8751C181.156 86.5626 180.75 86.6251 180.75 86.6251L179.156 87.9376H179.125Z" fill="#00A651" stroke="black" stroke-width="0.3" stroke-miterlimit="4.8"/>
<path d="M178.5 89.3125C178.5 89.3125 177.875 90.5625 178 90.75C178 90.75 177.313 91.7813 177.594 92.3125C177.594 92.3125 178.281 92.8438 178.594 92.625C178.594 92.625 179.406 91.4688 179.188 90.8438C179.188 90.8438 179.75 90.0937 179.531 89.625C179.531 89.625 178.719 89.6562 178.531 89.3125H178.5Z" fill="#964B36" stroke="black" stroke-width="0.3" stroke-miterlimit="4.8"/>
<path d="M175.063 87.0625C175.125 87.0937 175.531 87.2812 175.781 87.1875L175.969 87.0312L175.813 86.9687C175.719 87.1562 175.281 87 175.156 86.9375L175.094 87.0625H175.063ZM175.031 88.3125L174.969 88.4687C175 88.4687 175.813 88.625 176.188 88.2812L176.063 88.1562C175.75 88.4375 175.031 88.2812 175 88.2812L175.031 88.3125ZM174.813 89.6875L174.719 89.8125C174.719 89.8125 175.656 90.4688 176.25 89.75L176.094 89.6562C175.625 90.25 174.844 89.7187 174.813 89.6562V89.6875ZM171.219 89.875L171.25 89.9687C171.281 89.9687 172.063 89.6562 172.125 89.0625H172.031C172 89.5625 171.25 89.875 171.219 89.875ZM171.656 90.5937V90.6875C171.719 90.6875 172.438 90.625 172.563 90.125H172.469C172.344 90.5312 171.688 90.5937 171.656 90.5937ZM171.813 91.3437V91.4375C171.844 91.4375 172.656 91.4687 172.938 91.0312L172.844 90.9687C172.594 91.375 171.813 91.3437 171.813 91.3437ZM177.969 90.8125C177.969 90.8125 178.313 91.1875 178.719 91.1562C178.82 91.1543 178.92 91.131 179.011 91.088C179.103 91.0449 179.184 90.983 179.25 90.9062L179.125 90.7812C179 90.9375 178.875 91 178.719 91C178.406 91 178.094 90.6875 178.094 90.6875L177.969 90.8125Z" fill="black"/>
<path d="M202.251 93.6875C202.214 93.7124 202.182 93.7442 202.157 93.7813L202.282 93.6875H202.251ZM205.157 92.9688C205.126 92.9063 205.095 92.9375 205.064 92.9062L204.939 92.6563H204.845L204.626 92.2188C204.638 92.1887 204.638 92.1551 204.626 92.125C204.627 92.0833 204.627 92.0417 204.626 92C204.626 92 204.564 92 204.532 91.9375V91.4375L204.501 91.2813C204.437 91.1782 204.405 91.0588 204.407 90.9375V90.625C204.439 90.5 204.376 90.4375 204.376 90.3125L204.407 90.0313V88.3438L204.376 88.0313L204.345 87.9062V87.4063V88.2187L204.282 86.875L203.22 86.375C203.22 86.375 203.126 88.3125 203.157 88.5625C203.157 88.8438 203.282 90.6562 203.22 90.875L203.063 92.2188C203.063 92.2188 202.563 92.5938 202.376 92.9688C202.157 93.375 202.22 93.5 202.157 93.5L202.626 93.4375L202.282 93.6875C202.318 93.6728 202.357 93.668 202.396 93.6735C202.434 93.679 202.471 93.6946 202.501 93.7188L202.563 93.7813L202.626 93.7188C202.72 93.7188 202.782 93.8438 202.845 93.8125L202.97 93.75L203.032 93.625C203.063 93.5938 203.126 93.625 203.157 93.625H203.376C203.47 93.625 203.564 93.4688 203.657 93.4062C203.72 93.3438 203.782 93.3125 203.876 93.3125C203.97 93.3125 204.064 93.4062 204.189 93.4062C204.251 93.4062 204.282 93.4063 204.345 93.3438L204.47 93.1563L204.72 93.125L204.845 93.1563H205.032L205.126 93.2187L205.189 93.0938L205.157 92.9688Z" fill="#964B36"/>
<path d="M202.282 93.6875L202.157 93.7813C202.182 93.7442 202.214 93.7124 202.251 93.6875H202.282ZM202.282 93.6875L202.626 93.4375L202.157 93.5C202.22 93.5 202.157 93.375 202.376 92.9688C202.563 92.5938 203.063 92.2188 203.063 92.2188L203.22 90.875C203.282 90.6562 203.157 88.8437 203.157 88.5625C203.126 88.3125 203.22 86.375 203.22 86.375L204.282 86.875L204.345 88.2187V87.4063V87.9062L204.376 88.0313L204.407 88.3438V90.0313L204.376 90.3125C204.376 90.4375 204.439 90.5 204.407 90.625V90.9375C204.405 91.0588 204.437 91.1782 204.501 91.2813L204.532 91.4375V91.9375C204.564 92 204.626 92 204.626 92C204.627 92.0417 204.627 92.0833 204.626 92.125C204.638 92.1551 204.638 92.1887 204.626 92.2188L204.845 92.6563H204.939L205.064 92.9062C205.095 92.9375 205.126 92.9063 205.157 92.9688L205.189 93.0938L205.126 93.2187L205.032 93.1563H204.845L204.72 93.125L204.47 93.1563L204.345 93.3438C204.282 93.4063 204.251 93.4062 204.189 93.4062C204.064 93.4062 203.97 93.3125 203.876 93.3125C203.782 93.3125 203.72 93.3437 203.657 93.4062C203.564 93.4688 203.47 93.625 203.376 93.625H203.157C203.126 93.625 203.063 93.5938 203.032 93.625L202.97 93.75L202.845 93.8125C202.782 93.8438 202.72 93.7188 202.626 93.7188L202.563 93.7813L202.501 93.7188C202.471 93.6946 202.434 93.679 202.396 93.6735C202.357 93.668 202.318 93.6728 202.282 93.6875Z" stroke="black" stroke-width="0.3" stroke-miterlimit="4.8"/>
<path d="M203.033 93.6563H203.22V93.7188C203.23 93.7243 203.24 93.7272 203.251 93.7272C203.262 93.7272 203.273 93.7243 203.283 93.7188L203.376 93.7813H203.47L203.595 93.8126C203.658 93.8438 203.72 93.8126 203.783 93.7813C203.845 93.7188 203.876 93.7813 203.97 93.8438C204.001 93.8751 204.001 93.8751 204.033 93.8438L204.064 93.8126L204.158 93.7813L204.251 93.7501L204.376 93.6876L204.501 93.7501C204.522 93.7475 204.543 93.7475 204.564 93.7501L204.783 93.5938C204.876 93.5313 204.939 93.5938 205.001 93.5938H205.095C205.126 93.5626 205.158 93.5938 205.22 93.5938C205.22 93.5626 205.22 93.5313 205.283 93.5001L205.501 93.6251C205.533 93.6563 205.72 93.6876 205.689 93.5626C205.689 93.4376 205.564 93.5313 205.533 93.4376V93.2501C205.518 93.1983 205.484 93.1538 205.439 93.1251C205.376 93.1251 205.376 93.1563 205.314 93.1251L205.251 92.9376L205.158 93.0001C205.095 93.0001 205.095 92.9688 205.064 92.9063C204.97 92.8126 204.939 92.9688 204.845 92.9376C204.783 92.9376 204.72 92.7813 204.689 92.7188C204.658 92.6876 204.595 92.5626 204.533 92.5938C204.47 92.6251 204.533 92.7501 204.533 92.8126H204.376C204.314 92.8126 204.314 92.8126 204.283 92.8751C204.22 93.0001 204.189 93.0938 204.064 93.0626C204.033 93.0626 203.97 93.0313 203.939 93.0626L203.783 93.1251C203.741 93.1335 203.699 93.1335 203.658 93.1251L203.533 93.0001C203.533 92.9918 203.529 92.9839 203.523 92.978C203.518 92.9721 203.51 92.9688 203.501 92.9688C203.493 92.9688 203.485 92.9721 203.479 92.978C203.473 92.9839 203.47 92.9918 203.47 93.0001C203.46 92.9791 203.45 92.9583 203.439 92.9376C203.376 92.9376 203.376 92.9376 203.345 93.0313L203.314 93.1876L203.22 93.3126L203.095 93.3438C203.033 93.3438 202.97 93.4376 202.97 93.3438C202.908 93.2188 203.064 93.0001 202.908 93.0313C202.876 93.0313 202.845 93.0313 202.814 93.0938V93.3126C202.783 93.4063 202.595 93.5626 202.626 93.6251C202.626 93.7188 202.751 93.6251 202.751 93.6251L202.814 93.7501C202.876 93.8438 203.033 93.6251 203.033 93.7501M202.376 92.9063V92.8438L202.251 92.8126C202.189 92.8126 202.126 92.9063 202.095 92.9376C202.033 93.0626 202.033 93.2501 201.908 93.2501H201.751V93.5626C201.751 93.5626 201.689 93.5626 201.689 93.6251C201.658 93.7501 201.751 93.6876 201.814 93.6876H202.126L202.283 93.6563C202.345 93.6563 202.408 93.6563 202.439 93.5938C202.464 93.5544 202.485 93.5125 202.501 93.4688V93.3438C202.501 93.2813 202.595 93.3126 202.595 93.2188C202.626 93.0001 202.408 93.1563 202.439 92.9376" fill="#964B36"/>
<path d="M203.033 93.6563H203.22V93.7188C203.23 93.7243 203.24 93.7272 203.251 93.7272C203.262 93.7272 203.273 93.7243 203.283 93.7188L203.376 93.7813H203.47L203.595 93.8126C203.658 93.8438 203.72 93.8126 203.783 93.7813C203.845 93.7188 203.876 93.7813 203.97 93.8438C204.001 93.8751 204.001 93.8751 204.033 93.8438L204.064 93.8126L204.158 93.7813L204.251 93.7501L204.376 93.6876L204.501 93.7501C204.522 93.7475 204.543 93.7475 204.564 93.7501L204.783 93.5938C204.876 93.5313 204.939 93.5938 205.001 93.5938H205.095C205.126 93.5626 205.158 93.5938 205.22 93.5938C205.22 93.5626 205.22 93.5313 205.283 93.5001L205.501 93.6251C205.533 93.6563 205.72 93.6876 205.689 93.5626C205.689 93.4376 205.564 93.5313 205.533 93.4376V93.2501C205.518 93.1983 205.484 93.1538 205.439 93.1251C205.376 93.1251 205.376 93.1563 205.314 93.1251L205.251 92.9376L205.158 93.0001C205.095 93.0001 205.095 92.9688 205.064 92.9063C204.97 92.8126 204.939 92.9688 204.845 92.9376C204.783 92.9376 204.72 92.7813 204.689 92.7188C204.658 92.6876 204.595 92.5626 204.533 92.5938C204.47 92.6251 204.533 92.7501 204.533 92.8126H204.376C204.314 92.8126 204.314 92.8126 204.283 92.8751C204.22 93.0001 204.189 93.0938 204.064 93.0626C204.033 93.0626 203.97 93.0313 203.939 93.0626L203.783 93.1251C203.741 93.1335 203.699 93.1335 203.658 93.1251L203.533 93.0001C203.533 92.9918 203.529 92.9839 203.523 92.978C203.518 92.9721 203.51 92.9688 203.501 92.9688C203.493 92.9688 203.485 92.9721 203.479 92.978C203.473 92.9839 203.47 92.9918 203.47 93.0001C203.46 92.9791 203.45 92.9583 203.439 92.9376C203.376 92.9376 203.376 92.9376 203.345 93.0313L203.314 93.1876L203.22 93.3126L203.095 93.3438C203.033 93.3438 202.97 93.4376 202.97 93.3438C202.908 93.2188 203.064 93.0001 202.908 93.0313C202.876 93.0313 202.845 93.0313 202.814 93.0938V93.3126C202.783 93.4063 202.595 93.5626 202.626 93.6251C202.626 93.7188 202.751 93.6251 202.751 93.6251L202.814 93.7501C202.876 93.8438 203.033 93.6251 203.033 93.7501M202.376 92.9063V92.8438L202.251 92.8126C202.189 92.8126 202.126 92.9063 202.095 92.9376C202.033 93.0626 202.033 93.2501 201.908 93.2501H201.751V93.5626C201.751 93.5626 201.689 93.5626 201.689 93.6251C201.658 93.7501 201.751 93.6876 201.814 93.6876H202.126L202.283 93.6563C202.345 93.6563 202.408 93.6563 202.439 93.5938C202.464 93.5544 202.485 93.5125 202.501 93.4688V93.3438C202.501 93.2813 202.595 93.3126 202.595 93.2188C202.626 93.0001 202.408 93.1563 202.439 92.9376" stroke="black" stroke-width="0.3" stroke-miterlimit="4.8"/>
<path d="M205.001 86.8438C205.001 87.125 204.814 87.3438 204.564 87.3438C204.345 87.3438 204.126 87.125 204.126 86.8438C204.126 86.5625 204.345 86.3438 204.564 86.3438C204.814 86.3438 205.001 86.5625 205.001 86.8438ZM203.595 86.2188C203.595 86.5 203.407 86.7188 203.157 86.7188C202.907 86.7188 202.72 86.5 202.72 86.2188C202.72 85.9063 202.938 85.7188 203.157 85.7188C203.376 85.7188 203.595 85.9375 203.595 86.2188Z" fill="black" stroke="black" stroke-width="0.3" stroke-miterlimit="4.8"/>
<path d="M204.345 86.4063C204.345 86.7188 204.157 86.9063 203.907 86.9063C203.657 86.9063 203.47 86.6875 203.47 86.4063C203.47 86.125 203.657 85.9062 203.907 85.9062C204.157 85.9062 204.345 86.125 204.345 86.4063Z" fill="black" stroke="black" stroke-width="0.3" stroke-miterlimit="4.8"/>
<path d="M203.626 86.875C203.626 87.1563 203.438 87.375 203.188 87.375C202.938 87.375 202.751 87.1563 202.751 86.875C202.751 86.5938 202.938 86.375 203.188 86.375C203.438 86.375 203.626 86.5938 203.626 86.875Z" fill="black" stroke="black" stroke-width="0.3" stroke-miterlimit="4.8"/>
<path d="M204.282 87.2812C204.282 87.5312 204.095 87.7812 203.845 87.7812C203.626 87.7812 203.407 87.5625 203.407 87.2812C203.407 86.9687 203.626 86.75 203.845 86.75C204.095 86.75 204.282 86.9688 204.282 87.25V87.2812Z" fill="black" stroke="black" stroke-width="0.3" stroke-miterlimit="4.8"/>
<path d="M204.501 81.7188C204.501 81.7188 208.845 75.6563 213.501 81.9375C213.501 81.9375 213.533 82.5625 213.095 83.25L213.001 82.7188L212.689 82.8125L212.626 82.5L212.126 82.4688L212.283 81.7813L211.751 82.2188L211.814 81.75L211.189 82.375L211.283 81.0312L210.595 82.1875L210.689 81.4063L210.439 81.75L210.314 81.2813L210.095 81.75L209.783 81.5312V81.8438L209.22 81.375L209.033 82L208.751 81.3125L208.689 81.7813L208.408 81.25L208.376 81.8438L207.47 81.4375L207.657 82L207.251 81.6875L207.314 82L206.72 81.875L206.782 82.2188L206.157 82.0938L206.251 82.4063L205.407 82.3125L205.72 82.625L205.626 82.8125C205.626 82.8125 210.314 81.25 210.626 87.125L209.783 87.5313L210.033 87.0625L209.783 86.9063L209.064 86.375L209.283 85.625L209.033 85.7187L209.001 85.2812L208.876 85.3438L208.595 84.9375L208.533 85.0937L208.345 84.5625L208.126 84.9375L208.033 84.0625L207.72 84.625L207.657 84.3125L207.564 84.5L207.157 84.0312L207.032 84.3438L206.876 84.0938L206.782 84.4063L206.345 83.9688V84.2813L206.032 84.0625L205.939 84.2188L205.282 83.875L205.251 84.1875L204.876 83.875L204.782 84.1875C204.782 84.1875 209.033 86.625 207.72 90.5625L207.47 91.0625L207.407 89.75L207.001 90.4375L207.282 88.9063L207.001 89.2188L206.97 88.5938L206.626 89.2188L206.501 88.5312L206.345 88.7188L206.095 87.7188L205.907 88.125L205.595 87L205.345 87.4688L205.189 86.5L205.032 87.0938L204.564 86.2188L204.501 86.5625L204.22 85.875L204.064 86.0938C204.064 86.0938 203.282 86.0625 203.032 85.875C202.814 85.6562 202.157 87.0313 202.157 87.0313L202.22 86.2188L201.939 86.7813V86.2188L201.439 87.875L201.314 86.6875L201.064 87.7188L200.939 87.4063L200.845 87.8125L200.689 87.6563L200.564 88.125L200.314 87.9375V88.5625L200.064 88.25L199.876 89.1875L199.751 88.8125V89.2188L199.564 89L199.376 89.9375L199.064 89.5313V90.2188L199.157 90.7187L198.845 90.5625L198.97 91.375C198.97 91.375 197.751 89.125 199.22 86.9375C200.657 84.75 202.626 84.125 202.626 84.125L202.407 83.9375V83.75L201.22 84.3438V84L200.907 84.25L200.845 83.875L200.657 84.2188L200.626 84.0625L200.314 84.5L200.189 83.875L200.001 84.625L199.814 84.0938L199.407 85.1875V84.375L199.095 85.25L198.97 84.3125L198.751 85.375V84.4375L198.376 85.375L198.157 84.4375L198.001 85.375L197.751 84.6562L197.532 85.7187L197.157 84.7812L196.97 86.1875L196.751 85.625L196.689 86.6562L196.439 86.0312L196.689 87.3438L196.376 86.8438L196.47 87.6563L195.97 86.75V87.8125L195.72 87.4688L195.595 87.875C195.595 87.875 195.501 83.8125 198.282 83C201.064 82.2188 202.845 83.25 202.845 83.25L201.782 82.375L201.907 82.0938H201.532L201.689 81.7813L200.845 81.8125L201.095 81.5L200.47 81.5938V81.4063L200.064 81.7188L200.22 81.3437L199.689 81.7188L199.657 81.1875L199.345 81.625L199.22 81.1563L197.97 82.4063L198.282 81.125L198.064 81.4063L198.032 81.0938L197.689 81.6562L197.595 81.2813L197.439 81.75L197.314 81.1875L197.064 81.75L196.751 81.25L196.657 81.9063L196.47 81.5625L196.22 82.0625L195.907 81.75V82.0625L195.282 81.7813L195.407 82.25L194.938 81.875L194.813 82.5L194.563 82.1875L194.345 82.9688L194.157 82.2188L193.97 82.8125C193.97 82.8125 196.407 76.5 202.595 80.625C202.595 80.625 203.282 81.2813 203.439 81.75C203.595 82.2188 203.47 81.8125 203.47 81.8125L203.345 77.4688L203.595 79.3438L203.751 78.7188L203.72 79.6562L204.345 78.3125C204.345 78.3125 203.595 80.5625 203.876 81.4063C203.876 81.4063 204.157 78.7813 205.095 78.4688L204.22 80.3438L204.501 80.3125L204.314 80.6875H204.532L204.251 81.3125L204.095 81.625L204.251 81.9375L204.501 81.7188Z" fill="#00A651" stroke="black" stroke-width="0.3" stroke-miterlimit="4.8"/>
<path d="M203.845 84.25L203.97 84.375C203.97 84.375 204.376 83.9375 205.032 84.5L205.126 84.375C204.345 83.7188 203.876 84.25 203.876 84.25H203.845ZM203.657 82.125V82.2812L203.938 82.1562L203.72 82.5313L204.188 82.375L203.626 83.0937L203.751 83.1875L204.657 82.0312L204.095 82.2188L204.345 81.8125L203.845 82L203.938 81.4062H203.782L203.657 82.125Z" fill="black"/>
<path d="M202.845 82.1875L203.032 82.5937L202.72 82.4687L203.626 84.0937L203.751 83.9375L203.564 84.4062L203.72 84.4687L204.095 83.4687L203.97 83.375L203.657 83.7812L203.095 82.8125L203.345 82.9062L203.095 82.375L203.438 82.5625V81.9687H203.282V82.2812L202.72 81.9375L202.845 82.1875ZM202.251 84.1875L202.313 84.3437C202.563 84.25 202.782 84.2188 202.938 84.2812C203.095 84.375 203.157 84.5625 203.157 84.5938L203.314 84.5312C203.314 84.5312 203.251 84.25 203.001 84.1562C202.813 84.0625 202.563 84.0625 202.251 84.1875ZM202.97 85.875L202.813 85H203.001L203.126 85.8438L202.97 85.875ZM204.157 85.75L203.939 85.0625L204.095 85.0312L204.314 85.6562L204.157 85.75ZM204.595 86.2187L204.439 85.5625L204.595 85.5312L204.782 86.1875L204.595 86.2187Z" fill="black"/>
<path d="M171.188 106.313C171.188 106.313 170.438 106 170.094 106.25C169.781 106.469 169.813 106.844 169.531 106.812C169.531 106.812 170.656 107.063 170.875 106.781L171.188 106.406M171.313 106.625C171.313 106.625 170.813 107.25 171 107.656C171.156 108.031 171.531 108.063 171.438 108.344C171.438 108.344 171.906 107.312 171.688 107C171.469 106.687 171.375 106.656 171.375 106.656M170.5 104.844C170.5 104.844 169.719 105.094 169.625 105.469C169.563 105.906 169.813 106.125 169.594 106.313C169.594 106.313 170.594 105.75 170.563 105.375V104.906M170.938 105.125C170.938 105.125 171.313 104.406 171.094 104.062C170.844 103.687 170.469 103.75 170.531 103.438C170.531 103.438 170.219 104.531 170.531 104.812L170.875 105.125M170.188 104.844C170.188 104.844 170.188 104.031 169.875 103.844C169.5 103.625 169.188 103.812 169.094 103.531C169.094 103.531 169.313 104.656 169.656 104.781L170.125 104.875M171.5 106.187C171.5 106.187 172.344 105.875 172.438 106.812C172.5 107.75 172.375 107.437 172.375 107.437C172.375 107.437 171.938 106.438 171.438 106.281L171.5 106.187Z" fill="#00A651"/>
<path d="M171.188 106.313C171.188 106.313 170.438 106 170.094 106.25C169.781 106.469 169.813 106.844 169.531 106.812C169.531 106.812 170.656 107.063 170.875 106.781L171.188 106.406M171.313 106.625C171.313 106.625 170.813 107.25 171 107.656C171.156 108.031 171.531 108.063 171.438 108.344C171.438 108.344 171.906 107.312 171.688 107C171.469 106.687 171.375 106.656 171.375 106.656M170.5 104.844C170.5 104.844 169.719 105.094 169.625 105.469C169.563 105.906 169.813 106.125 169.594 106.313C169.594 106.313 170.594 105.75 170.563 105.375V104.906M170.938 105.125C170.938 105.125 171.313 104.406 171.094 104.062C170.844 103.687 170.469 103.75 170.531 103.438C170.531 103.438 170.219 104.531 170.531 104.812L170.875 105.125M170.188 104.844C170.188 104.844 170.188 104.031 169.875 103.844C169.5 103.625 169.188 103.812 169.094 103.531C169.094 103.531 169.313 104.656 169.656 104.781L170.125 104.875M171.5 106.187C171.5 106.187 172.344 105.875 172.438 106.812C172.5 107.75 172.375 107.437 172.375 107.437C172.375 107.437 171.938 106.438 171.438 106.281L171.5 106.187Z" stroke="black" stroke-width="0.3" stroke-miterlimit="4.8"/>
<path d="M171.313 106.656L171.375 107.344H171.5L171.406 106.656L171.719 105.125H171.594L171.281 106.656H171.313Z" fill="black"/>
<path d="M170.531 106.437L170.5 106.531C170.906 106.687 171.438 106.219 171.469 106.219L171.406 106.125C171.406 106.125 170.875 106.531 170.531 106.437ZM171.594 105.531L169.719 104.594L169.781 104.438L171.656 105.375L171.594 105.531Z" fill="black"/>
<path d="M170.219 105.313L170.094 105.188L170.469 104.812L170.594 104.937L170.219 105.313ZM170.875 105.125L170.469 104.25L170.625 104.188L171.031 105.063L170.875 105.125ZM171.438 106.187V106.375C171.969 106.344 172.063 106.688 172.063 106.688L172.25 106.625C172.25 106.531 172.031 106.156 171.438 106.187Z" fill="black"/>
<path d="M180.125 106.562C180.75 106.25 180.875 105 180.875 105C180.719 105.438 179.563 105.906 179.563 105.906C180.406 105.375 181.438 102.969 181.438 102.969C181.188 103.812 178.938 104.531 177.5 105.344C176.063 106.156 176.813 108.469 176.813 108.469C176.406 108.188 175.625 106.969 175.469 105.875C175.313 104.781 174.906 104.344 173.906 104.219C172.938 104.094 172.344 105.219 172.344 105.219L170.875 105.969L172.375 106.031C172.375 106.031 173.438 106.375 173.438 107.219C173.438 108.031 172.5 111.375 174.063 113.25C175.094 114.531 179.063 115.281 179.063 115.281" fill="white"/>
<path d="M180.125 106.562C180.75 106.25 180.875 105 180.875 105C180.719 105.437 179.563 105.906 179.563 105.906C180.406 105.375 181.438 102.969 181.438 102.969C181.188 103.813 178.938 104.531 177.5 105.344C176.063 106.156 176.813 108.469 176.813 108.469C176.406 108.188 175.625 106.969 175.469 105.875C175.313 104.781 174.906 104.344 173.906 104.219C172.938 104.094 172.344 105.219 172.344 105.219L170.875 105.969L172.375 106.031C172.375 106.031 173.438 106.375 173.438 107.219C173.438 108.031 172.5 111.375 174.063 113.25C175.094 114.531 179.063 115.281 179.063 115.281" stroke="black" stroke-width="0.3" stroke-miterlimit="4.8"/>
<path d="M177.219 109.156C177.219 109.156 177.531 107.656 178.5 107.719C179.469 107.781 179.75 106.594 180.344 106.438C180.938 106.25 183.938 105.437 184.25 104C184.25 104 183.969 106.375 181.219 107.563C181.219 107.563 183.438 106.844 183.719 106.344C183.719 106.344 182.719 108.469 180.313 108.813C180.313 108.813 182.563 108.625 182.875 108.031C182.875 108.031 181.875 109.344 180.219 109.531C180.219 109.531 181.781 110.156 182.156 109.625C182.156 109.625 181.313 110.625 180.281 110.688L180.594 110.75C180.594 110.75 179.594 111.938 178.5 111.156C177.406 110.375 177.375 111.344 177.375 111.344" fill="white"/>
<path d="M177.219 109.156C177.219 109.156 177.531 107.656 178.5 107.719C179.469 107.781 179.75 106.594 180.344 106.438C180.938 106.25 183.938 105.437 184.25 104C184.25 104 183.969 106.375 181.219 107.563C181.219 107.563 183.438 106.844 183.719 106.344C183.719 106.344 182.719 108.469 180.313 108.813C180.313 108.813 182.563 108.625 182.875 108.031C182.875 108.031 181.875 109.344 180.219 109.531C180.219 109.531 181.781 110.156 182.156 109.625C182.156 109.625 181.313 110.625 180.281 110.688L180.594 110.75C180.594 110.75 179.594 111.938 178.5 111.156C177.406 110.375 177.375 111.344 177.375 111.344" stroke="black" stroke-width="0.3" stroke-miterlimit="4.8"/>
<path d="M179.438 111.406C179.438 111.406 180.719 113.531 180.844 114.656C180.844 114.656 183.281 117.312 184.188 117.469C184.188 117.469 183.75 117.656 182.938 117C182.938 117 183.625 117.688 183.75 117.719C183.875 117.719 183.219 117.656 183.125 117.469C183.243 117.649 183.391 117.808 183.563 117.937L183.406 117.875C183.406 117.875 183.094 117.844 182.906 117.719C182.75 117.594 182.875 118.031 182.875 118.031C182.875 118.031 182.5 117.938 182.375 117.813C182.25 117.688 182.406 118.094 182.406 118.094L182.094 118L181.844 118.156C181.844 118.156 181.844 118.313 181.688 118.156C181.531 118.063 181.25 118.156 181.25 118.156C181.25 118.156 181.063 118.344 180.938 118.219C180.844 118.094 180.469 118.719 180.469 118.719L178.906 114.875" fill="white"/>
<path d="M179.438 111.406C179.438 111.406 180.719 113.531 180.844 114.656C180.844 114.656 183.281 117.312 184.188 117.469C184.188 117.469 183.75 117.656 182.938 117C182.938 117 183.625 117.688 183.75 117.719C183.875 117.719 183.219 117.656 183.125 117.469C183.243 117.649 183.391 117.808 183.563 117.937L183.406 117.875C183.406 117.875 183.094 117.844 182.906 117.719C182.75 117.594 182.875 118.031 182.875 118.031C182.875 118.031 182.5 117.938 182.375 117.813C182.25 117.688 182.406 118.094 182.406 118.094L182.094 118L181.844 118.156C181.844 118.156 181.844 118.313 181.688 118.156C181.531 118.063 181.25 118.156 181.25 118.156C181.25 118.156 181.063 118.344 180.938 118.219C180.844 118.094 180.469 118.719 180.469 118.719L178.906 114.875" stroke="black" stroke-width="0.3" stroke-miterlimit="4.8"/>
<path d="M180.969 118.344L178.969 114.531L179.156 114.406L181.156 118.25L180.969 118.344ZM182.719 118.094L179.281 114.25L179.469 114.094L182.906 117.937L182.719 118.094ZM183.5 117.781L179.594 114.062L179.75 113.906L183.656 117.563L183.5 117.781Z" fill="black"/>
<path d="M173.67 105.432C173.67 105.432 173.421 104.975 173.193 105.162C172.985 105.328 172.86 105.369 172.819 105.349C172.819 105.349 173.026 105.349 173.172 105.245C173.296 105.12 173.504 105.182 173.67 105.453V105.432ZM172.299 105.224L172.445 105.515L172.278 105.993L172.403 106.034L172.548 105.515L172.403 105.182L172.299 105.224Z" fill="black"/>
<path d="M173.629 105.369C173.629 105.369 173.421 105.577 173.171 105.536L172.901 105.473H173.275C173.421 105.473 173.608 105.411 173.629 105.369Z" fill="black"/>
<path d="M173.567 105.411C173.567 105.411 173.318 105.162 173.151 105.245C173.151 105.245 173.442 105.141 173.608 105.39L173.567 105.411Z" fill="black"/>
<path d="M173.525 105.369C173.525 105.369 173.255 105.556 172.964 105.369L172.943 105.328H172.985C172.985 105.328 173.338 105.473 173.525 105.369Z" fill="black"/>
<path d="M173.297 105.411C173.343 105.411 173.38 105.374 173.38 105.328C173.38 105.282 173.343 105.245 173.297 105.245C173.251 105.245 173.214 105.282 173.214 105.328C173.214 105.374 173.251 105.411 173.297 105.411Z" fill="black"/>
<path d="M204.564 104.625C204.564 104.625 206.314 102.313 207.876 102.906C209.439 103.531 210.407 103.844 210.407 103.844C210.407 103.844 210.439 105.375 209.626 105.375C208.814 105.375 208.001 103.813 207.251 104.281C206.684 104.6 206.202 105.05 205.845 105.594C205.814 105.813 203.876 105.844 204.564 104.625Z" fill="#964B36" stroke="black" stroke-width="0.3" stroke-miterlimit="4.8"/>
<path d="M197.938 115.75C197.938 115.75 197.438 116.25 197.657 116.375C197.876 116.5 198.313 116.375 198.313 116.188C198.313 116 198.001 115.688 197.938 115.75Z" fill="#964B36" stroke="black" stroke-width="0.3" stroke-miterlimit="4.8"/>
<path d="M197.564 116.25C197.564 116.25 196.626 115.719 195.939 116.938C195.22 118.125 194.657 120.094 194.251 120.375C193.845 120.625 198.251 118.438 198.314 117.5C198.314 117.5 198.595 116.313 198.126 116.344C197.657 116.344 197.626 116.406 197.532 116.219L197.564 116.25Z" fill="#964B36" stroke="black" stroke-width="0.3" stroke-miterlimit="4.8"/>
<path d="M197.657 116.375C197.657 116.375 196.72 116.594 196.532 117.906C196.345 119.219 195.063 119.875 194.97 119.937M210.408 103.812C210.408 103.812 209.033 104.312 209.251 105.281L210.408 103.812Z" fill="#964B36"/>
<path d="M197.657 116.375C197.657 116.375 196.72 116.594 196.532 117.906C196.345 119.219 195.063 119.875 194.97 119.937M210.408 103.812C210.408 103.812 209.033 104.312 209.251 105.281" stroke="black" stroke-width="0.3" stroke-miterlimit="4.8"/>
<path d="M199.657 106.656C199.657 106.656 199.72 103.344 202.439 103.469C202.939 103.531 202.689 104.125 202.689 104.125C202.689 104.125 203.314 103.719 203.564 104.375C203.564 104.375 204.407 104 204.501 104.844C204.501 104.844 205.439 104.719 205.314 105.469C205.314 105.469 205.939 105.313 205.939 105.844C205.939 105.844 206.657 105.563 206.564 106.313C206.564 106.313 207.376 105.781 207.282 106.75C207.282 106.75 208.095 106.156 208.376 107.125C208.689 108.125 207.564 110.188 206.47 110.719" fill="#FFF200"/>
<path d="M199.657 106.656C199.657 106.656 199.72 103.344 202.439 103.469C202.939 103.531 202.689 104.125 202.689 104.125C202.689 104.125 203.314 103.719 203.564 104.375C203.564 104.375 204.407 104 204.501 104.844C204.501 104.844 205.439 104.719 205.314 105.469C205.314 105.469 205.939 105.313 205.939 105.844C205.939 105.844 206.657 105.563 206.564 106.313C206.564 106.313 207.376 105.781 207.282 106.75C207.282 106.75 208.095 106.156 208.376 107.125C208.689 108.125 207.564 110.188 206.47 110.719" stroke="black" stroke-width="0.3" stroke-miterlimit="4.8"/>
<path d="M207.22 106.875C207.22 106.875 207.564 109.437 206.126 110.406L206.157 110.469C207.689 109.531 207.314 106.875 207.314 106.844H207.22V106.875ZM205.439 109.687L205.501 109.75C206.439 108.844 206.657 106.438 206.657 106.313H206.564C206.564 106.313 206.345 108.812 205.439 109.687ZM204.595 109.094H204.689C204.879 107.941 205.316 106.843 205.97 105.875L205.907 105.844C205.907 105.844 204.72 107.562 204.595 109.094ZM203.907 108.656H204.001C204.157 106.875 205.376 105.531 205.376 105.5L205.314 105.437C205.314 105.437 204.064 106.844 203.907 108.656ZM202.97 108.031H203.064C203.157 105.938 204.564 104.906 204.564 104.906L204.501 104.812C204.501 104.812 203.064 105.875 202.939 108.062L202.97 108.031ZM202.095 107.531H202.189C202.126 105.594 203.595 104.406 203.626 104.406L203.564 104.344C203.564 104.344 202.001 105.531 202.095 107.531ZM200.532 106.812H200.626C200.699 106.22 200.937 105.66 201.312 105.195C201.688 104.731 202.186 104.382 202.751 104.187V104.094C202.162 104.29 201.64 104.65 201.248 105.132C200.855 105.613 200.607 106.196 200.532 106.812Z" fill="black"/>
<path d="M198.063 110.687C198.063 110.687 197.594 107.594 199.438 106.625C199.438 106.625 199.782 106.562 199.969 107C199.969 107 200.938 106.594 200.969 107.406C200.969 107.406 201.469 107.031 201.594 107.562C201.594 107.562 202.626 107.344 202.438 108.125C202.438 108.125 203.313 107.875 203.219 108.625C203.219 108.625 204.094 108.312 203.969 108.937C203.969 108.937 204.907 108.75 204.657 109.5C204.657 109.5 205.813 109.375 205.469 110.156C205.469 110.156 206.313 109.937 206.094 110.594C206.094 110.594 207.219 110.812 206.719 111.531C205.9 112.508 204.846 113.26 203.657 113.719" fill="#00A651"/>
<path d="M198.063 110.687C198.063 110.687 197.594 107.594 199.438 106.625C199.438 106.625 199.782 106.562 199.969 107C199.969 107 200.938 106.594 200.969 107.406C200.969 107.406 201.469 107.031 201.594 107.562C201.594 107.562 202.626 107.344 202.438 108.125C202.438 108.125 203.313 107.875 203.219 108.625C203.219 108.625 204.094 108.312 203.969 108.937C203.969 108.937 204.907 108.75 204.657 109.5C204.657 109.5 205.813 109.375 205.469 110.156C205.469 110.156 206.313 109.937 206.094 110.594C206.094 110.594 207.219 110.812 206.719 111.531C205.9 112.508 204.846 113.26 203.657 113.719" stroke="black" stroke-width="0.3" stroke-miterlimit="4.8"/>
<path d="M197.064 113.781C197.064 113.781 196.314 111.219 197.751 110.563C197.751 110.563 198.032 110.5 198.064 110.75C198.064 110.75 198.376 110.344 198.626 110.719C198.626 110.719 199.345 110.375 199.533 110.906C199.533 110.906 200.001 110.5 200.251 111.094C200.251 111.094 200.72 110.906 200.72 111.406C200.72 111.406 201.345 111.094 201.345 111.719C201.345 111.719 201.97 111.469 201.814 112.094C201.814 112.094 202.751 112.25 202.47 112.688C202.47 112.688 203.314 112.906 203.001 113.25C203.001 113.25 203.876 113.156 203.408 113.75C203.408 113.75 204.095 113.531 203.72 114.281C203.314 115.031 202.095 115.844 201.22 115.969" fill="#00A651"/>
<path d="M197.064 113.781C197.064 113.781 196.314 111.219 197.751 110.563C197.751 110.563 198.032 110.5 198.064 110.75C198.064 110.75 198.376 110.344 198.626 110.719C198.626 110.719 199.345 110.375 199.533 110.906C199.533 110.906 200.001 110.5 200.251 111.094C200.251 111.094 200.72 110.906 200.72 111.406C200.72 111.406 201.345 111.094 201.345 111.719C201.345 111.719 201.97 111.469 201.814 112.094C201.814 112.094 202.751 112.25 202.47 112.688C202.47 112.688 203.314 112.906 203.001 113.25C203.001 113.25 203.876 113.156 203.408 113.75C203.408 113.75 204.095 113.531 203.72 114.281C203.314 115.031 202.095 115.844 201.22 115.969" stroke="black" stroke-width="0.3" stroke-miterlimit="4.8"/>
<path d="M197.969 115.812C197.969 115.812 196.375 114.25 197.125 113.812C197.125 113.812 197.438 113.906 197.594 114.25C197.594 114.25 197.969 113.687 198.219 114.25C198.219 114.25 198.782 114.062 198.782 114.469L199.219 114.781C199.219 114.781 199.751 114.75 199.657 115.094C199.657 115.094 200.251 115 200.219 115.312C200.219 115.312 200.719 115.344 200.688 115.688C200.688 115.688 201.563 115.844 201.157 116.281C201.157 116.281 199.657 116.594 198.563 116.156C198.563 116.156 198.032 115.969 197.969 115.812Z" fill="#00A651" stroke="black" stroke-width="0.3" stroke-miterlimit="4.8"/>
<path d="M203.47 113.25V113.344C204.514 112.597 205.423 111.678 206.157 110.625L206.063 110.562C206.063 110.594 204.376 112.906 203.47 113.25ZM202.907 112.844L202.97 112.938C203.782 112.469 205.438 110.281 205.47 110.188L205.438 110.125C205.407 110.156 203.72 112.375 202.938 112.844H202.907ZM202.438 112.656L202.501 112.719C203.367 111.745 204.102 110.663 204.688 109.5L204.626 109.469C204.626 109.469 203.313 111.938 202.438 112.656ZM202.032 112.094H202.126C202.282 110.906 204.001 109 204.001 108.969L203.907 108.938C203.845 109 202.188 110.875 202.032 112.094ZM198.626 110.625H198.72C198.595 108.906 200.001 107.031 200.032 107.031L199.938 106.969C199.938 106.969 198.47 108.906 198.626 110.625ZM199.532 110.781H199.626C199.376 109.406 201.001 107.469 201.001 107.438L200.938 107.375C200.876 107.469 199.282 109.375 199.532 110.781ZM200.907 111.281H201.001C200.938 109.719 202.438 108.156 202.47 108.156L202.407 108.062C202.407 108.094 200.845 109.688 200.907 111.281ZM197.626 114.094H197.72C197.157 112.625 198.095 110.781 198.126 110.781L198.032 110.719C198.032 110.719 197.063 112.625 197.626 114.125V114.094ZM198.251 114.219L198.345 114.188C197.845 112.719 198.657 110.75 198.657 110.75L198.595 110.688C198.595 110.688 197.751 112.719 198.251 114.219ZM200.845 115.688V115.75C202.407 115.219 203.438 113.781 203.438 113.781L203.345 113.719C203.345 113.719 202.345 115.125 200.845 115.688ZM200.532 115.344V115.438C201.782 114.875 202.938 113.313 202.938 113.313L202.876 113.25C202.876 113.25 201.72 114.813 200.532 115.344ZM200.22 115.219L200.282 115.313C201.22 114.594 202.47 112.813 202.47 112.813L202.407 112.75C202.407 112.75 201.157 114.531 200.22 115.219ZM198.657 114.312H198.782C198.73 113.127 199 111.95 199.563 110.906L199.47 110.875C199.47 110.875 198.47 112.75 198.688 114.312H198.657ZM199.345 114.75L199.407 114.813C200.407 113.906 200.751 111.5 200.751 111.375H200.657C200.657 111.375 200.345 113.875 199.345 114.75ZM200.032 115L200.095 115.094C201.003 114.331 201.63 113.286 201.876 112.125H201.782C201.782 112.125 201.407 114 200.032 115.031V115ZM200.188 110.813V111.094L199.126 114.531L199.22 114.563L200.282 111.125C200.126 109.438 201.595 107.594 201.626 107.594L201.532 107.531C201.532 107.531 200.188 109.188 200.188 110.813Z" fill="black"/>
<path d="M201.314 111.656C201.314 111.719 200.97 114.062 199.689 114.937L199.751 115.031C201.064 114.125 201.376 111.812 201.376 111.687C201.939 111.031 203.251 108.656 203.251 108.656L203.189 108.594C203.189 108.594 201.876 110.969 201.314 111.656ZM197.563 114.25C197.563 114.281 197.751 115.5 198.001 115.875L198.095 115.844C197.845 115.438 197.626 114.25 197.626 114.219L197.532 114.25H197.563ZM198.157 114.25L198.126 115.906H198.22V114.25H198.157Z" fill="black"/>
<path d="M198.188 115.938L198.282 115.969C198.688 115.094 198.813 114.469 198.813 114.469H198.72C198.72 114.469 198.595 115.063 198.188 115.938ZM198.282 115.969L198.345 116.063C198.809 115.785 199.146 115.336 199.282 114.813H199.189C199.189 114.813 199.001 115.563 198.282 115.969ZM198.438 116.031V116.125C199.188 116.063 199.689 115.156 199.689 115.094H199.626C199.626 115.094 199.126 115.969 198.438 116.031Z" fill="black"/>
<path d="M198.501 116.094V116.187C199.72 116.094 200.251 115.375 200.251 115.344L200.189 115.312C200.189 115.312 199.657 116 198.501 116.094Z" fill="black"/>
<path d="M198.595 116.094V116.187C198.626 116.187 200.157 116.531 200.689 115.75L200.595 115.688C200.126 116.438 198.595 116.125 198.595 116.094Z" fill="black"/>
<path d="M164.406 60.375V103C164.406 116.938 189.594 125.188 189.594 125.188C189.594 125.188 214.751 116.938 214.751 103V60.375H164.406Z" stroke="black" stroke-width="0.7" stroke-miterlimit="4.8"/>
<path d="M0 0H100V75H0V0Z" fill="#012169"/>
<path d="M11.7188 0L49.8438 28.2812L87.8125 0H100V9.6875L62.5 37.6562L100 65.4688V75H87.5L50 47.0312L12.6562 75H0V65.625L37.3438 37.8125L0 10V0H11.7188Z" fill="white"/>
<path d="M66.25 43.9062L100 68.75V75L57.6562 43.9062H66.25ZM37.5 47.0312L38.4375 52.5L8.4375 75H0L37.5 47.0312ZM100 0V0.46875L61.0938 29.8438L61.4062 22.9688L92.1875 0H100ZM0 0L37.3438 27.5H27.9688L0 6.5625V0Z" fill="#C8102E"/>
<path d="M37.6562 0V75H62.6562V0H37.6562ZM0 25V50H100V25H0Z" fill="white"/>
<path d="M0 30.1562V45.1562H100V30.1562H0ZM42.6562 0V75H57.6562V0H42.6562Z" fill="#C8102E"/>
</g>
<defs>
<clipPath id="clip0_1284_62070">
<rect width="250" height="150" fill="white"/>
</clipPath>
</defs>
</svg>
