<svg width="250" height="150" viewBox="0 0 250 150" fill="none" xmlns="http://www.w3.org/2000/svg">
<g clip-path="url(#clip0_1284_62448)">
<path d="M0 0H250V150H0V0Z" fill="white"/>
<path d="M106.25 0H143.75V150H106.25V0Z" fill="#FF0000"/>
<path d="M0 60H250V90H0V60Z" fill="#FF0000"/>
<g style="mix-blend-mode:multiply">
<path d="M57.75 17C57.75 17 56.8125 21.4687 56.5 26.7187L56.5312 26.75C61.7812 26.4375 66.25 25.5 66.25 25.5C66.25 25.5 65.9375 28.5938 65.9375 30.125C65.9375 31.6875 66.25 34.75 66.25 34.75C66.25 34.75 61.7813 33.8125 56.5 33.5C56.8125 38.7813 57.75 43.25 57.75 43.25C57.75 43.25 55.4375 42.9375 53.125 42.9375C50.8125 42.9375 48.5 43.25 48.5 43.25C48.5 43.25 49.4375 38.7813 49.75 33.5C44.4687 33.8125 40 34.75 40 34.75C40 34.75 40.3125 32.4375 40.3125 30.125C40.3125 27.8125 40 25.5 40 25.5C40 25.5 44.4687 26.4375 49.75 26.75C49.4375 21.4687 48.5 17 48.5 17C48.5 17 51.5938 17.3125 53.125 17.3125C54.6875 17.3125 57.75 17 57.75 17Z" fill="#FF0000"/>
</g>
<g style="mix-blend-mode:multiply">
<path d="M57.75 17C57.75 17 56.8125 21.4687 56.5 26.7187L56.5312 26.75C61.7812 26.4375 66.25 25.5 66.25 25.5C66.25 25.5 65.9375 28.5938 65.9375 30.125C65.9375 31.6875 66.25 34.75 66.25 34.75C66.25 34.75 61.7813 33.8125 56.5 33.5C56.8125 38.7813 57.75 43.25 57.75 43.25C57.75 43.25 55.4375 42.9375 53.125 42.9375C50.8125 42.9375 48.5 43.25 48.5 43.25C48.5 43.25 49.4375 38.7813 49.75 33.5C44.4687 33.8125 40 34.75 40 34.75C40 34.75 40.3125 32.4375 40.3125 30.125C40.3125 27.8125 40 25.5 40 25.5C40 25.5 44.4687 26.4375 49.75 26.75C49.4375 21.4687 48.5 17 48.5 17C48.5 17 51.5938 17.3125 53.125 17.3125C54.6875 17.3125 57.75 17 57.75 17Z" fill="#FF0000"/>
</g>
<g style="mix-blend-mode:multiply">
<path d="M201.75 17C201.75 17 200.813 21.4687 200.5 26.7187L200.531 26.75C205.781 26.4375 210.25 25.5 210.25 25.5C210.25 25.5 209.938 28.5938 209.938 30.125C209.938 31.6875 210.25 34.75 210.25 34.75C210.25 34.75 205.781 33.8125 200.5 33.5C200.813 38.7813 201.75 43.25 201.75 43.25C201.75 43.25 199.438 42.9375 197.125 42.9375C194.812 42.9375 192.5 43.25 192.5 43.25C192.5 43.25 193.437 38.7813 193.75 33.5C188.469 33.8125 184 34.75 184 34.75C184 34.75 184.312 32.4375 184.312 30.125C184.312 27.8125 184 25.5 184 25.5C184 25.5 188.469 26.4375 193.75 26.75C193.437 21.4687 192.5 17 192.5 17C192.5 17 195.594 17.3125 197.125 17.3125C198.688 17.3125 201.75 17 201.75 17Z" fill="#FF0000"/>
</g>
<g style="mix-blend-mode:multiply">
<path d="M201.75 107C201.75 107 200.813 111.469 200.5 116.719L200.531 116.75C205.781 116.437 210.25 115.5 210.25 115.5C210.25 115.5 209.938 118.594 209.938 120.125C209.938 121.688 210.25 124.75 210.25 124.75C210.25 124.75 205.781 123.813 200.5 123.5C200.813 128.781 201.75 133.25 201.75 133.25C201.75 133.25 199.438 132.938 197.125 132.938C194.812 132.938 192.5 133.25 192.5 133.25C192.5 133.25 193.437 128.781 193.75 123.5C188.469 123.813 184 124.75 184 124.75C184 124.75 184.312 122.438 184.312 120.125C184.312 117.812 184 115.5 184 115.5C184 115.5 188.469 116.437 193.75 116.75C193.437 111.469 192.5 107 192.5 107C192.5 107 195.594 107.312 197.125 107.312C198.688 107.312 201.75 107 201.75 107Z" fill="#FF0000"/>
</g>
<g style="mix-blend-mode:multiply">
<path d="M57.75 107C57.75 107 56.8125 111.469 56.5 116.719L56.5312 116.75C61.7812 116.437 66.25 115.5 66.25 115.5C66.25 115.5 65.9375 118.594 65.9375 120.125C65.9375 121.688 66.25 124.75 66.25 124.75C66.25 124.75 61.7813 123.813 56.5 123.5C56.8125 128.781 57.75 133.25 57.75 133.25C57.75 133.25 55.4375 132.938 53.125 132.938C50.8125 132.938 48.5 133.25 48.5 133.25C48.5 133.25 49.4375 128.781 49.75 123.5C44.4687 123.813 40 124.75 40 124.75C40 124.75 40.3125 122.438 40.3125 120.125C40.3125 117.812 40 115.5 40 115.5C40 115.5 44.4687 116.437 49.75 116.75C49.4375 111.469 48.5 107 48.5 107C48.5 107 51.5938 107.312 53.125 107.312C54.6875 107.312 57.75 107 57.75 107Z" fill="#FF0000"/>
</g>
</g>
<defs>
<clipPath id="clip0_1284_62448">
<rect width="250" height="150" fill="white"/>
</clipPath>
</defs>
</svg>
