<svg width="250" height="150" viewBox="0 0 250 150" fill="none" xmlns="http://www.w3.org/2000/svg">
<g clip-path="url(#clip0_1284_62293)">
<path d="M0 0H250V150H0V0Z" fill="#012169"/>
<path d="M29.2969 0L124.609 56.5625L219.531 0H250V19.375L156.25 75.3125L250 130.938V150H218.75L125 94.0625L31.6406 150H0V131.25L93.3594 75.625L0 20V0H29.2969Z" fill="white"/>
<path d="M165.625 87.8125L250 137.5V150L144.141 87.8125H165.625ZM93.75 94.0625L96.0938 105L21.0938 150H0L93.75 94.0625ZM250 0V0.9375L152.734 59.6875L153.516 45.9375L230.469 0H250ZM0 0L93.3594 55H69.9219L0 13.125V0Z" fill="#C8102E"/>
<path d="M94.1406 0V150H156.641V0H94.1406ZM0 50V100H250V50H0Z" fill="white"/>
<path d="M0 60.3125V90.3125H250V60.3125H0ZM106.641 0V150H144.141V0H106.641Z" fill="#C8102E"/>
</g>
<defs>
<clipPath id="clip0_1284_62293">
<rect width="250" height="150" fill="white"/>
</clipPath>
</defs>
</svg>
