<svg width="250" height="150" viewBox="0 0 250 150" fill="none" xmlns="http://www.w3.org/2000/svg">
<g clip-path="url(#clip0_1284_62505)">
<path fill-rule="evenodd" clip-rule="evenodd" d="M0 0H250V16.6562H0V0Z" fill="#005BAE"/>
<path fill-rule="evenodd" clip-rule="evenodd" d="M0 16.6562H250V33.3263H0V16.6562Z" fill="white"/>
<path fill-rule="evenodd" clip-rule="evenodd" d="M0 33.3438H250V50H0V33.3438Z" fill="#005BAE"/>
<path fill-rule="evenodd" clip-rule="evenodd" d="M0 50H250V66.67H0V50Z" fill="white"/>
<path d="M0 0H83V83H0V0Z" fill="#005BAE"/>
<path fill-rule="evenodd" clip-rule="evenodd" d="M0 66.6562H250V83.3438H0V66.6562Z" fill="#005BAE"/>
<path fill-rule="evenodd" clip-rule="evenodd" d="M0 83.3438H250V100.014H0V83.3438Z" fill="white"/>
<path fill-rule="evenodd" clip-rule="evenodd" d="M0 100H250V116.656H0V100Z" fill="#005BAE"/>
<path fill-rule="evenodd" clip-rule="evenodd" d="M0 116.656H250V133.326H0V116.656Z" fill="white"/>
<path fill-rule="evenodd" clip-rule="evenodd" d="M33.332 0H49.998V83.3331H33.332V0Z" fill="white"/>
<path fill-rule="evenodd" clip-rule="evenodd" d="M0 33.3335H83.33V50.0001H0V33.3335Z" fill="white"/>
<path d="M0 133.344H250V150H0V133.344Z" fill="#005BAE"/>
</g>
<defs>
<clipPath id="clip0_1284_62505">
<rect width="250" height="150" fill="white"/>
</clipPath>
</defs>
</svg>
