<svg width="250" height="150" viewBox="0 0 250 150" fill="none" xmlns="http://www.w3.org/2000/svg">
<g clip-path="url(#clip0_1284_62744)">
<path d="M0 0H250V150H0V0Z" fill="#CE1126"/>
<path d="M74.9996 129.75L69.2686 147.388L84.2721 136.487H65.7266L80.7301 147.388L74.9996 129.75Z" fill="#FCD116"/>
<path d="M125 129.75L119.269 147.388L134.272 136.487H115.727L130.73 147.388L125 129.75Z" fill="#FCD116"/>
<path d="M175 129.75L169.269 147.388L184.272 136.487H165.727L180.73 147.388L175 129.75Z" fill="#FCD116"/>
<path d="M175 0.75L169.269 18.388L184.272 7.487H165.727L180.73 18.388L175 0.75Z" fill="#FCD116"/>
<path d="M125 0.75L119.269 18.388L134.272 7.487H115.727L130.73 18.388L125 0.75Z" fill="#FCD116"/>
<path d="M74.9996 0.75L69.2686 18.388L84.2721 7.487H65.7266L80.7301 18.388L74.9996 0.75Z" fill="#FCD116"/>
<path d="M21 21H229V129H21V21Z" fill="#007A5E"/>
<path d="M21 21H229L21 129H229L21 21Z" fill="#FCD116"/>
<path d="M125 93C134.941 93 143 84.9411 143 75C143 65.0589 134.941 57 125 57C115.059 57 107 65.0589 107 75C107 84.9411 115.059 93 125 93Z" fill="#CE1126"/>
<path d="M33.9717 75.0565C36.1027 79.314 40.3502 84.003 44.1282 85.717C44.3117 81.4605 42.9577 75.9595 41.0162 71.552L33.9717 75.0565Z" fill="#CE1126"/>
<path d="M30.1421 60.7435C33.3171 67.591 21.3756 83.6715 40.8686 87.7315C38.5006 84.41 37.2036 78.8555 37.8486 74.5035C41.8961 76.2275 45.9546 80.2355 47.5496 83.9895C54.2716 65.2475 34.3216 67.0285 30.1421 60.7435Z" fill="#FCD116"/>
<path d="M125 58.5L115.301 88.3485L140.692 69.901H109.308L134.699 88.3485L125 58.5Z" fill="#FCD116"/>
</g>
<defs>
<clipPath id="clip0_1284_62744">
<rect width="250" height="150" fill="white"/>
</clipPath>
</defs>
</svg>
