<svg width="250" height="150" viewBox="0 0 250 150" fill="none" xmlns="http://www.w3.org/2000/svg">
<g clip-path="url(#clip0_1284_62915)">
<path d="M0 0H250V150H0V0Z" fill="#D21034"/>
<path d="M0 0H250V75H0V0Z" fill="#00209F"/>
<path d="M101.406 56.1562H148.725V93.8125H101.406V56.1562Z" fill="white"/>
<path d="M134.598 83.375L124.909 83.6875L115.314 83.7813C115.314 83.7813 110.376 85.5938 108.345 86C106.344 86.4063 106.594 87.0625 105.063 87.4375C103.813 87.7188 103.657 87.7813 102.938 87.8438C102.469 87.8438 101.938 88.2188 101.375 88.5938V93.8125H148.725V88.8438C148.225 88.5625 147.725 88.375 147.225 88.2188C146.537 87.9688 146.068 87.7188 144.818 87.4375C143.256 87.0938 143.506 86.4063 141.505 86C139.474 85.5938 134.598 83.375 134.598 83.375Z" fill="#016A16" stroke="#016A16" stroke-width="0.1"/>
<path d="M122.315 71.75H123.016L124.316 77.1L124.016 78.8L122.315 71.8V71.75Z" fill="#F1B517" stroke="black" stroke-width="0.1"/>
<path d="M121.565 68.1501L122.065 72.3001H122.566L121.565 68.2001V68.1501Z" fill="white" stroke="black" stroke-width="0.1"/>
<path d="M122.915 77.3L120.765 71.55L121.565 71.5L124.065 78.5L122.915 77.3Z" fill="#F1B517" stroke="black" stroke-width="0.1"/>
<path d="M119.765 68.25L120.665 72.25H121.365L119.765 68.25Z" fill="white" stroke="black" stroke-width="0.1"/>
<path d="M121.015 75.3L119.765 72.55L120.265 72.45L122.615 76.95L121.015 75.3Z" fill="#F1B517" stroke="black" stroke-width="0.1"/>
<path d="M118.064 69.4001L119.515 73.2001H120.215L118.114 69.4001H118.064Z" fill="white" stroke="black" stroke-width="0.1"/>
<path d="M121.216 75.7L115.465 69.45C113.665 70.85 114.015 73.45 114.015 73.45L120.516 78.55L121.166 75.7H121.216Z" fill="#0A328C" stroke="black" stroke-width="0.1"/>
<path d="M124.516 79.1L120.266 74.8C118.465 74.9 119.865 77.55 119.965 77.9L124.466 81.75V79.1H124.516Z" fill="#D20014" stroke="black" stroke-width="0.1"/>
<path d="M124.116 78.4L115.365 69L115.015 69.25L124.316 79.55L124.116 78.4ZM114.865 68.4L114.664 68.15V67.7L112.864 66.55L113.664 68.4L114.314 68.5L114.464 68.7L114.865 68.4Z" fill="#F1B517" stroke="black" stroke-width="0.1"/>
<path d="M113.914 69.05C114.282 68.593 114.742 68.2183 115.264 67.95L115.764 68.7L114.664 69.6L113.914 69.1V69.05Z" fill="#F1B517" stroke="black" stroke-width="0.1"/>
<path d="M112.964 70.6501L113.264 71.1501C113.464 71.1001 115.264 69.4001 115.264 69.4001H116.614L116.964 68.9501C115.964 67.9501 115.114 69.1001 115.114 69.1001L112.964 70.6001V70.6501Z" fill="#0A328C" stroke="black" stroke-width="0.1"/>
<path d="M114.064 71.5C114.064 71 114.964 69.9 115.064 69.85C115.714 70.05 116.314 70.45 117.014 68.95C116.414 69.65 115.264 68.95 115.264 68.95L114.764 69.35V69.55L113.264 70.95L114.014 71.5H114.064Z" fill="#D20014" stroke="black" stroke-width="0.1"/>
<path d="M118.715 77.3501L111.514 71.6501C110.264 72.9001 111.314 76.7501 111.314 76.7501L118.315 80.5501L118.665 77.3501H118.715Z" fill="#0A328C" stroke="black" stroke-width="0.1"/>
<path d="M124.666 82L118.715 77.2C116.715 77.5 118.315 80.45 118.415 80.8L124.666 84.2V81.95V82Z" fill="#D20014" stroke="black" stroke-width="0.1"/>
<path d="M124.416 81L111.614 71.4L111.364 71.7L124.766 82.2L124.416 81ZM111.014 70.9L110.814 70.7L110.714 70.3L108.714 69.45L109.864 71.1H110.514L110.714 71.3L111.014 70.9Z" fill="#F1B517" stroke="black" stroke-width="0.1"/>
<path d="M110.214 71.7001C110.5 71.1897 110.892 70.7464 111.364 70.4001L111.964 71.0501L111.064 72.1001L110.214 71.7001Z" fill="#F1B517" stroke="black" stroke-width="0.1"/>
<path d="M109.564 73.3V73.85C109.764 73.75 111.414 72 111.414 72L112.664 71.75L112.964 71.35C112.064 70.3 111.114 71.7 111.114 71.7L109.514 73.3H109.564Z" fill="#0A328C" stroke="black" stroke-width="0.1"/>
<path d="M110.563 74.25C110.463 73.75 111.163 72.35 111.263 72.25C112.064 72.5 112.764 72.85 113.014 71.25C112.514 72.05 111.263 71.45 111.263 71.45L110.863 71.95V72.2L109.613 73.85L110.563 74.25Z" fill="#D20014" stroke="black" stroke-width="0.1"/>
<path d="M118.165 80.8501C115.075 79.1119 111.991 77.3619 108.914 75.6001C108.264 76.7501 108.864 78.3501 109.164 78.6001C109.164 79.3501 108.864 79.7501 109.514 81.3501C109.714 82.3501 110.164 83.3001 110.864 83.8501C111.664 87.0501 114.965 87.3001 116.215 84.6501L118.215 80.8501H118.165Z" fill="#0A328C" stroke="black" stroke-width="0.1"/>
<path d="M124.215 84.2501L117.965 80.6001C115.964 80.8501 117.965 84.6001 118.115 84.9501L124.215 87.1001V84.2501Z" fill="#D20014" stroke="black" stroke-width="0.1"/>
<path d="M123.166 82.9L109.014 75.4L108.764 75.7L123.766 84.05L123.166 82.9ZM108.314 75L108.064 74.85L107.914 74.45L105.863 73.95L107.213 75.4L107.814 75.3L108.114 75.45L108.314 75Z" fill="#F1B517" stroke="black" stroke-width="0.1"/>
<path d="M107.663 75.9001C107.863 75.4001 108.063 74.9501 108.563 74.4001L109.263 74.9501L108.563 76.1501L107.663 75.9001Z" fill="#F1B517" stroke="black" stroke-width="0.1"/>
<path d="M107.113 77.6L107.413 78.1999L108.914 75.9L110.164 75.45L110.414 74.95C109.414 74.05 108.663 75.65 108.663 75.65L107.113 77.6Z" fill="#0A328C" stroke="black" stroke-width="0.1"/>
<path d="M108.463 78.4C108.363 77.9 108.713 76.3 108.813 76.25C109.563 76.5 110.213 76.55 110.413 74.95C109.913 75.7 108.763 75.45 108.763 75.45L108.413 75.95L108.463 76.15L107.463 78.15L108.463 78.4Z" fill="#D20014" stroke="black" stroke-width="0.1"/>
<path d="M127.767 71.75H127.067L125.766 77.1L126.066 78.8L127.767 71.8V71.75Z" fill="#F1B517" stroke="black" stroke-width="0.1"/>
<path d="M128.517 68.1501L128.017 72.3001H127.516L128.517 68.2001V68.1501Z" fill="white" stroke="black" stroke-width="0.1"/>
<path d="M127.166 77.3L129.316 71.55L128.516 71.5L126.016 78.5L127.166 77.3Z" fill="#F1B517" stroke="black" stroke-width="0.1"/>
<path d="M130.317 68.25L129.417 72.25H128.717L130.317 68.25Z" fill="white" stroke="black" stroke-width="0.1"/>
<path d="M129.067 75.3L130.317 72.55L129.817 72.45L127.467 76.95L129.067 75.3Z" fill="#F1B517" stroke="black" stroke-width="0.1"/>
<path d="M132.018 69.4001L130.567 73.2001H129.867L131.968 69.4001H132.018Z" fill="white" stroke="black" stroke-width="0.1"/>
<path d="M128.866 75.7L134.617 69.45C136.417 70.85 136.067 73.45 136.067 73.45L129.566 78.55L128.916 75.7H128.866Z" fill="#0A328C" stroke="black" stroke-width="0.1"/>
<path d="M125.566 79.1L129.817 74.8C131.617 74.9 130.217 77.55 130.117 77.9L125.616 81.75V79.1H125.566Z" fill="#D20014" stroke="black" stroke-width="0.1"/>
<path d="M125.966 78.4L134.717 69L135.067 69.25L125.766 79.55L125.966 78.4ZM135.218 68.4L135.418 68.15V67.7L137.218 66.55L136.418 68.4L135.768 68.5L135.618 68.7L135.218 68.4Z" fill="#F1B517" stroke="black" stroke-width="0.1"/>
<path d="M136.168 69.05C135.8 68.593 135.34 68.2183 134.818 67.95L134.318 68.7L135.418 69.6L136.168 69.1V69.05Z" fill="#F1B517" stroke="black" stroke-width="0.1"/>
<path d="M137.118 70.6501L136.818 71.1501C136.618 71.1001 134.818 69.4001 134.818 69.4001H133.468L133.118 68.9501C134.118 67.9501 134.968 69.1001 134.968 69.1001L137.118 70.6001V70.6501Z" fill="#0A328C" stroke="black" stroke-width="0.1"/>
<path d="M136.017 71.5C136.017 71 135.117 69.9 135.017 69.85C134.367 70.05 133.767 70.45 133.067 68.95C133.667 69.65 134.817 68.95 134.817 68.95L135.317 69.35V69.55L136.817 70.95L136.067 71.5H136.017Z" fill="#D20014" stroke="black" stroke-width="0.1"/>
<path d="M131.367 77.3501L138.568 71.6501C139.818 72.9001 138.768 76.7501 138.768 76.7501L131.767 80.5501L131.417 77.3501H131.367Z" fill="#0A328C" stroke="black" stroke-width="0.1"/>
<path d="M125.416 82L131.367 77.2C133.367 77.5 131.767 80.45 131.667 80.8L125.416 84.2V81.95V82Z" fill="#D20014" stroke="black" stroke-width="0.1"/>
<path d="M125.666 81L138.468 71.4L138.718 71.7L125.316 82.2L125.666 81ZM139.068 70.9L139.268 70.7L139.368 70.3L141.368 69.45L140.218 71.1H139.568L139.368 71.3L139.068 70.9Z" fill="#F1B517" stroke="black" stroke-width="0.1"/>
<path d="M139.868 71.7001C139.582 71.1897 139.19 70.7464 138.718 70.4001L138.118 71.0501L139.018 72.1001L139.868 71.7001Z" fill="#F1B517" stroke="black" stroke-width="0.1"/>
<path d="M140.518 73.3V73.85C140.318 73.75 138.668 72 138.668 72L137.418 71.75L137.118 71.35C138.018 70.3 138.968 71.7 138.968 71.7L140.568 73.3H140.518Z" fill="#0A328C" stroke="black" stroke-width="0.1"/>
<path d="M139.518 74.25C139.618 73.75 138.918 72.35 138.818 72.25C138.017 72.5 137.317 72.85 137.067 71.25C137.567 72.05 138.818 71.45 138.818 71.45L139.218 71.95V72.2L140.468 73.85L139.518 74.25Z" fill="#D20014" stroke="black" stroke-width="0.1"/>
<path d="M131.917 80.8501C135.007 79.1119 138.091 77.3619 141.168 75.6001C141.818 76.7501 141.218 78.3501 140.918 78.6001C140.918 79.3501 141.218 79.7501 140.568 81.3501C140.368 82.3501 139.918 83.3001 139.218 83.8501C138.418 87.0501 135.117 87.3001 133.867 84.6501L131.867 80.8501H131.917Z" fill="#0A328C" stroke="black" stroke-width="0.1"/>
<path d="M125.867 84.2501L132.117 80.6001C134.118 80.8501 132.117 84.6001 131.967 84.9501L125.867 87.1001V84.2501Z" fill="#D20014" stroke="black" stroke-width="0.1"/>
<path d="M126.916 82.9L141.068 75.4L141.318 75.7L126.316 84.05L126.916 82.9ZM141.768 75L142.018 74.85L142.168 74.45L144.219 73.95L142.869 75.4L142.268 75.3L141.968 75.45L141.768 75Z" fill="#F1B517" stroke="black" stroke-width="0.1"/>
<path d="M142.419 75.9001C142.219 75.4001 142.019 74.9501 141.519 74.4001L140.819 74.9501L141.519 76.1501L142.419 75.9001Z" fill="#F1B517" stroke="black" stroke-width="0.1"/>
<path d="M142.969 77.6L142.669 78.1999L141.169 75.9L139.918 75.45L139.668 74.95C140.668 74.05 141.419 75.65 141.419 75.65L142.969 77.6Z" fill="#0A328C" stroke="black" stroke-width="0.1"/>
<path d="M141.618 78.4C141.718 77.9 141.368 76.3 141.268 76.25C140.518 76.5 139.868 76.55 139.668 74.95C140.168 75.7 141.318 75.45 141.318 75.45L141.668 75.95L141.618 76.15L142.618 78.15L141.618 78.4Z" fill="#D20014" stroke="black" stroke-width="0.1"/>
<path d="M124.466 62.8001L124.216 67.3001H125.666L125.466 62.8001L126.966 62.6501L126.816 60.8501L123.065 61.0001V62.6001L124.466 62.8001Z" fill="#016A16" stroke="#016A16" stroke-width="0.1"/>
<path d="M124.966 60.9499C121.066 57.0499 118.016 58.9499 117.315 59.4999C117.815 59.5999 118.216 59.2999 118.466 59.2499L117.966 59.8499C117.966 59.8499 119.216 59.3499 119.366 59.3499C119.166 59.4999 118.966 59.8499 118.966 59.8499C119.066 59.8499 119.766 59.2999 119.866 59.2999C119.666 59.4999 119.616 60.0499 119.616 60.0499L120.216 59.7999C120.366 59.8999 120.166 60.0999 120.266 60.0999C121.266 59.9999 122.616 60.9499 122.766 61.2499" fill="#016A16"/>
<path d="M124.966 60.9499C121.066 57.0499 118.016 58.9499 117.315 59.4999C117.815 59.5999 118.216 59.2999 118.466 59.2499L117.966 59.8499C117.966 59.8499 119.216 59.3499 119.366 59.3499C119.166 59.4999 118.966 59.8499 118.966 59.8499C119.066 59.8499 119.766 59.2999 119.866 59.2999C119.666 59.4999 119.616 60.0499 119.616 60.0499L120.216 59.7999C120.366 59.8999 120.166 60.0999 120.266 60.0999C121.266 59.9999 122.616 60.9499 122.766 61.2499" stroke="black" stroke-width="0.1"/>
<path d="M124.016 61.6499C123.616 60.7499 116.215 59.1499 114.715 61.7999C115.315 61.9499 115.865 61.2999 115.865 61.2999V61.8999L116.815 61.0999L116.465 61.8999L117.215 61.2499V61.8999L118.215 60.8999L118.065 61.4499L118.915 61.0999L118.815 61.5999" fill="#016A16"/>
<path d="M124.016 61.6499C123.616 60.7499 116.215 59.1499 114.715 61.7999C115.315 61.9499 115.865 61.2999 115.865 61.2999V61.8999L116.815 61.0999L116.465 61.8999L117.215 61.2499V61.8999L118.215 60.8999L118.065 61.4499L118.915 61.0999L118.815 61.5999" stroke="black" stroke-width="0.1"/>
<path d="M123.666 61.8C121.765 60.55 118.865 61.4 118.865 61.4C116.965 62.4 115.965 62.2499 115.765 64.1999C115.915 64.1499 116.415 63.5 116.415 63.5L116.815 64.25L116.915 63.2L117.215 64.05L117.715 62.65L117.815 63.5999L118.515 62.65L118.815 62.95L119.115 62.2L119.415 62.7C119.415 62.7 119.915 62.4 120.165 62.55L120.665 61.95L120.815 62.4L121.315 61.9L121.465 62.25L121.915 61.8499V62.15H123.416" fill="#016A16"/>
<path d="M123.666 61.8C121.765 60.55 118.865 61.4 118.865 61.4C116.965 62.4 115.965 62.2499 115.765 64.1999C115.915 64.1499 116.415 63.5 116.415 63.5L116.815 64.25L116.915 63.2L117.215 64.05L117.715 62.65L117.815 63.5999L118.515 62.65L118.815 62.95L119.115 62.2L119.415 62.7C119.415 62.7 119.915 62.4 120.165 62.55L120.665 61.95L120.815 62.4L121.315 61.9L121.465 62.25L121.915 61.8499V62.15H123.416" stroke="black" stroke-width="0.1"/>
<path d="M123.266 62C121.916 62 118.115 63.45 117.165 64.9C117.376 64.7884 117.593 64.6883 117.815 64.6L117.965 65.2L118.215 64.6L118.265 65.1C118.415 64.7 118.565 64.7 118.865 65.05L118.965 64.5L119.115 65L119.365 64.45C119.365 64.45 119.515 65.05 119.615 65.05C119.615 65.05 120.015 63.95 120.215 63.9L120.265 64.6L120.515 63.9L120.766 64.4V63.7L121.066 64.2C121.066 64.2 121.166 63.7 121.366 63.6L121.766 63.95L123.466 62.7" fill="#016A16"/>
<path d="M123.266 62C121.916 62 118.115 63.45 117.165 64.9C117.376 64.7884 117.593 64.6883 117.815 64.6L117.965 65.2L118.215 64.6L118.265 65.1C118.415 64.7 118.565 64.7 118.865 65.05L118.965 64.5L119.115 65L119.365 64.45C119.365 64.45 119.515 65.05 119.615 65.05C119.615 65.05 120.015 63.95 120.215 63.9L120.265 64.6L120.515 63.9L120.766 64.4V63.7L121.066 64.2C121.066 64.2 121.166 63.7 121.366 63.6L121.766 63.95L123.466 62.7" stroke="black" stroke-width="0.1"/>
<path d="M123.516 62.3499C121.766 62.9999 120.165 65.4499 120.315 66.4499C121.066 65.4499 120.916 65.5999 121.266 66.7499C121.266 66.7499 121.366 65.7499 121.516 65.6499L121.766 66.3499L121.816 65.3999H122.066L122.016 64.8499L122.366 65.0999C122.266 64.7499 122.216 64.6499 122.566 64.3499C122.566 64.3499 122.066 64.3999 122.466 63.5999L122.816 63.8999C122.816 63.8999 122.716 63.5499 122.816 63.3999L124.116 62.9999" fill="#016A16"/>
<path d="M123.516 62.3499C121.766 62.9999 120.165 65.4499 120.315 66.4499C121.066 65.4499 120.916 65.5999 121.266 66.7499C121.266 66.7499 121.366 65.7499 121.516 65.6499L121.766 66.3499L121.816 65.3999H122.066L122.016 64.8499L122.366 65.0999C122.266 64.7499 122.216 64.6499 122.566 64.3499C122.566 64.3499 122.066 64.3999 122.466 63.5999L122.816 63.8999C122.816 63.8999 122.716 63.5499 122.816 63.3999L124.116 62.9999" stroke="black" stroke-width="0.1"/>
<path d="M123.666 62.5L123.016 63.8L123.366 63.9L122.566 64.45L123.216 64.4C123.216 64.4 122.216 64.75 122.116 65.75L123.116 65.25C123.116 65.25 122.266 66.15 122.116 66.7L122.766 66.2C122.766 66.2 122.166 66.8 122.266 67.7L122.716 67.2C122.616 68.35 122.616 68.45 123.116 69.3C123.116 69.3 123.016 68 123.116 67.8L124.266 69L123.666 67.35C123.666 67.35 124.367 68.35 124.767 68.3L123.866 66.95L124.767 67.65L123.766 66.15L124.667 66.45C124.667 66.45 124.016 65.6 124.066 65.05L124.717 65.75C124.717 65.75 124.467 65 124.517 64.75L124.867 64.8L124.216 64.1L124.667 64L124.617 63.5L124.917 63.45V62.9M124.367 62.9C123.266 64.4 123.816 66.65 123.166 67.85L124.367 62.9Z" fill="#016A16"/>
<path d="M123.666 62.5L123.016 63.8L123.366 63.9L122.566 64.45L123.216 64.4C123.216 64.4 122.216 64.75 122.116 65.75L123.116 65.25C123.116 65.25 122.266 66.15 122.116 66.7L122.766 66.2C122.766 66.2 122.166 66.8 122.266 67.7L122.716 67.2C122.616 68.35 122.616 68.45 123.116 69.3C123.116 69.3 123.016 68 123.116 67.8L124.266 69L123.666 67.35C123.666 67.35 124.367 68.35 124.767 68.3L123.866 66.95L124.767 67.65L123.766 66.15L124.667 66.45C124.667 66.45 124.016 65.6 124.066 65.05L124.717 65.75C124.717 65.75 124.467 65 124.517 64.75L124.867 64.8L124.216 64.1L124.667 64L124.617 63.5L124.917 63.45V62.9M124.367 62.9C123.266 64.4 123.816 66.65 123.166 67.85" stroke="black" stroke-width="0.1"/>
<path d="M125.116 60.9499C129.016 57.0499 132.067 58.9499 132.767 59.4999C132.267 59.5999 131.866 59.2999 131.616 59.2499L132.117 59.8499C132.117 59.8499 130.866 59.3499 130.716 59.3499C130.916 59.4999 131.116 59.8499 131.116 59.8499C131.016 59.8499 130.316 59.2999 130.216 59.2999C130.416 59.4999 130.466 60.0499 130.466 60.0499L129.866 59.7999C129.716 59.8999 129.916 60.0999 129.816 60.0999C128.816 59.9999 127.466 60.9499 127.316 61.2499" fill="#016A16"/>
<path d="M125.116 60.9499C129.016 57.0499 132.067 58.9499 132.767 59.4999C132.267 59.5999 131.866 59.2999 131.616 59.2499L132.117 59.8499C132.117 59.8499 130.866 59.3499 130.716 59.3499C130.916 59.4999 131.116 59.8499 131.116 59.8499C131.016 59.8499 130.316 59.2999 130.216 59.2999C130.416 59.4999 130.466 60.0499 130.466 60.0499L129.866 59.7999C129.716 59.8999 129.916 60.0999 129.816 60.0999C128.816 59.9999 127.466 60.9499 127.316 61.2499" stroke="black" stroke-width="0.1"/>
<path d="M126.066 61.6499C126.466 60.7499 133.867 59.1499 135.367 61.7999C134.767 61.9499 134.217 61.2999 134.217 61.2999V61.8999L133.267 61.0999L133.617 61.8999L132.867 61.2499V61.8999L131.867 60.8999L132.017 61.4499L131.167 61.0999L131.267 61.5999" fill="#016A16"/>
<path d="M126.066 61.6499C126.466 60.7499 133.867 59.1499 135.367 61.7999C134.767 61.9499 134.217 61.2999 134.217 61.2999V61.8999L133.267 61.0999L133.617 61.8999L132.867 61.2499V61.8999L131.867 60.8999L132.017 61.4499L131.167 61.0999L131.267 61.5999" stroke="black" stroke-width="0.1"/>
<path d="M126.415 61.8C128.316 60.55 131.216 61.4 131.216 61.4C133.116 62.4 134.116 62.2499 134.316 64.1999C134.166 64.1499 133.666 63.5 133.666 63.5L133.266 64.25L133.166 63.2L132.866 64.05L132.366 62.65L132.266 63.5999L131.566 62.65L131.266 62.95L130.966 62.2L130.666 62.7C130.666 62.7 130.166 62.4 129.916 62.55L129.416 61.95L129.266 62.4L128.766 61.9L128.616 62.25L128.166 61.8499V62.15H126.665" fill="#016A16"/>
<path d="M126.415 61.8C128.316 60.55 131.216 61.4 131.216 61.4C133.116 62.4 134.116 62.2499 134.316 64.1999C134.166 64.1499 133.666 63.5 133.666 63.5L133.266 64.25L133.166 63.2L132.866 64.05L132.366 62.65L132.266 63.5999L131.566 62.65L131.266 62.95L130.966 62.2L130.666 62.7C130.666 62.7 130.166 62.4 129.916 62.55L129.416 61.95L129.266 62.4L128.766 61.9L128.616 62.25L128.166 61.8499V62.15H126.665" stroke="black" stroke-width="0.1"/>
<path d="M126.816 62C128.166 62 131.967 63.45 132.917 64.9C132.706 64.7884 132.489 64.6883 132.267 64.6L132.117 65.2L131.867 64.6L131.817 65.1C131.667 64.7 131.517 64.7 131.217 65.05L131.117 64.5L130.967 65L130.717 64.45C130.717 64.45 130.567 65.05 130.467 65.05C130.467 65.05 130.067 63.95 129.867 63.9L129.817 64.6L129.567 63.9L129.317 64.4V63.7L129.016 64.2C129.016 64.2 128.916 63.7 128.716 63.6L128.316 63.95L126.616 62.7" fill="#016A16"/>
<path d="M126.816 62C128.166 62 131.967 63.45 132.917 64.9C132.706 64.7884 132.489 64.6883 132.267 64.6L132.117 65.2L131.867 64.6L131.817 65.1C131.667 64.7 131.517 64.7 131.217 65.05L131.117 64.5L130.967 65L130.717 64.45C130.717 64.45 130.567 65.05 130.467 65.05C130.467 65.05 130.067 63.95 129.867 63.9L129.817 64.6L129.567 63.9L129.317 64.4V63.7L129.016 64.2C129.016 64.2 128.916 63.7 128.716 63.6L128.316 63.95L126.616 62.7" stroke="black" stroke-width="0.1"/>
<path d="M126.566 62.3499C128.316 62.9999 129.917 65.4499 129.767 66.4499C129.016 65.4499 129.167 65.5999 128.816 66.7499C128.816 66.7499 128.716 65.7499 128.566 65.6499L128.316 66.3499L128.266 65.3999H128.016L128.066 64.8499L127.716 65.0999C127.816 64.7499 127.866 64.6499 127.516 64.3499C127.516 64.3499 128.016 64.3999 127.616 63.5999L127.266 63.8999C127.266 63.8999 127.366 63.5499 127.266 63.3999L125.966 62.9999" fill="#016A16"/>
<path d="M126.566 62.3499C128.316 62.9999 129.917 65.4499 129.767 66.4499C129.016 65.4499 129.167 65.5999 128.816 66.7499C128.816 66.7499 128.716 65.7499 128.566 65.6499L128.316 66.3499L128.266 65.3999H128.016L128.066 64.8499L127.716 65.0999C127.816 64.7499 127.866 64.6499 127.516 64.3499C127.516 64.3499 128.016 64.3999 127.616 63.5999L127.266 63.8999C127.266 63.8999 127.366 63.5499 127.266 63.3999L125.966 62.9999" stroke="black" stroke-width="0.1"/>
<path d="M126.416 62.5L127.066 63.8L126.716 63.9L127.516 64.45L126.866 64.4C126.866 64.4 127.866 64.75 127.966 65.75L126.966 65.25C126.966 65.25 127.816 66.15 127.966 66.7L127.316 66.2C127.316 66.2 127.916 66.8 127.816 67.7L127.366 67.2C127.466 68.35 127.466 68.45 126.966 69.3C126.966 69.3 127.066 68 126.966 67.8L125.816 69L126.416 67.35C126.416 67.35 125.716 68.35 125.315 68.3L126.216 66.95L125.315 67.65L126.316 66.15L125.415 66.45C125.415 66.45 126.066 65.6 126.016 65.05L125.365 65.75C125.365 65.75 125.616 65 125.566 64.75L125.215 64.8L125.866 64.1L125.415 64L125.465 63.5L125.165 63.45V62.9M125.716 62.9C126.816 64.4 126.266 66.65 126.916 67.85L125.716 62.9Z" fill="#016A16"/>
<path d="M126.416 62.5L127.066 63.8L126.716 63.9L127.516 64.45L126.866 64.4C126.866 64.4 127.866 64.75 127.966 65.75L126.966 65.25C126.966 65.25 127.816 66.15 127.966 66.7L127.316 66.2C127.316 66.2 127.916 66.8 127.816 67.7L127.366 67.2C127.466 68.35 127.466 68.45 126.966 69.3C126.966 69.3 127.066 68 126.966 67.8L125.816 69L126.416 67.35C126.416 67.35 125.716 68.35 125.315 68.3L126.216 66.95L125.315 67.65L126.316 66.15L125.415 66.45C125.415 66.45 126.066 65.6 126.016 65.05L125.365 65.75C125.365 65.75 125.616 65 125.566 64.75L125.215 64.8L125.866 64.1L125.415 64L125.465 63.5L125.165 63.45V62.9M125.716 62.9C126.816 64.4 126.266 66.65 126.916 67.85" stroke="black" stroke-width="0.1"/>
<path d="M125.566 83.25C125.566 83.25 126.116 78.25 126.116 76.15C126.116 74.45 125.716 70.75 125.716 70.75H124.066C124.066 70.75 123.816 74.45 123.866 76.15C123.866 78.25 124.416 83.25 124.416 83.25H125.566Z" fill="#F1B517" stroke="black" stroke-width="0.1"/>
<path d="M123.916 70.9999H125.916L125.666 69.6499H124.216L123.916 70.9499V70.9999Z" fill="#F1B517" stroke="black" stroke-width="0.1"/>
<path d="M124.066 69.9H125.816L125.466 68.55H124.366L124.016 69.9H124.066Z" fill="#F1B517" stroke="black" stroke-width="0.1"/>
<path d="M124.166 68.85H125.666L125.366 67.5H124.416L124.166 68.85Z" fill="#F1B517" stroke="black" stroke-width="0.1"/>
<path d="M125.416 67.3499H124.416L124.266 67.8499H125.516L125.416 67.3499ZM125.616 82.1999H124.316H125.616ZM125.716 81.1999H124.216H125.716ZM125.916 80.1999H124.016H125.916ZM126.016 79.1499H124.016H126.016ZM126.016 78.0499H123.966H126.016ZM126.066 77.0499H123.866H126.066ZM126.066 76.1999H123.766H126.066ZM126.066 75.0999H123.766H126.066ZM126.016 74.0499H123.766H126.016ZM125.916 72.9499H123.866H125.916ZM125.816 71.9499H123.966H125.816Z" fill="#F1B517"/>
<path d="M125.616 82.1999H124.316M125.716 81.1999H124.216M125.916 80.1999H124.016M126.016 79.1499H124.016M126.016 78.0499H123.966M126.066 77.0499H123.866M126.066 76.1999H123.766M126.066 75.0999H123.766M126.016 74.0499H123.766M125.916 72.9499H123.866M125.816 71.9499H123.966M125.416 67.3499H124.416L124.266 67.8499H125.516L125.416 67.3499Z" stroke="black" stroke-width="0.1"/>
<path d="M125.065 59.5C124.665 59.35 123.915 58.85 124.115 58.55L124.465 57.95C124.965 56.85 124.465 57.25 124.465 56.95C124.365 56.55 126.366 56.85 126.366 57.6C126.366 57.85 126.216 57.7 126.266 58.9L125.866 59.65C125.578 59.6875 125.286 59.6531 125.015 59.55L125.065 59.5Z" fill="#0A328C" stroke="#0A328C" stroke-width="0.1"/>
<path d="M125.266 62.5L124.766 62.05L124.916 58.5L125.416 58.65L125.266 62.45V62.5Z" fill="#F1B517" stroke="black" stroke-width="0.1"/>
<path d="M125.916 59.6499C126.216 59.4499 126.416 58.8999 126.216 58.5999C125.716 57.9499 125.366 58.1999 124.515 57.8999C124.365 58.0999 124.015 58.3999 124.065 58.6999C125.216 59.1999 124.765 58.7999 125.166 58.8499C125.366 58.8499 125.466 59.0999 125.916 59.5999V59.6499Z" fill="#D20014" stroke="#D20014" stroke-width="0.1"/>
<path d="M119.315 80.1499C119.215 79.8999 118.815 79.6999 118.315 79.6999C117.815 79.6999 117.464 79.8999 117.314 80.1499C117.298 80.0843 117.298 80.0155 117.314 79.9499C117.314 79.5999 117.765 79.3499 118.315 79.3499C118.915 79.3499 119.365 79.5999 119.365 79.9499C119.382 80.0155 119.382 80.0843 119.365 80.1499H119.315Z" fill="#016A16" stroke="white" stroke-width="0.1" stroke-linecap="round"/>
<path d="M119.265 80.9C119.265 81.5 118.815 82.05 118.315 82.05C117.815 82.05 117.415 81.55 117.415 80.85V80.25H119.265V80.85V80.9Z" fill="#016A16" stroke="white" stroke-width="0.1" stroke-linecap="round"/>
<path d="M118.315 80.4999C118.812 80.4999 119.215 80.2984 119.215 80.0499C119.215 79.8013 118.812 79.5999 118.315 79.5999C117.818 79.5999 117.415 79.8013 117.415 80.0499C117.415 80.2984 117.818 80.4999 118.315 80.4999Z" fill="white"/>
<path d="M118.115 80.4999L117.965 78.8999H118.665L118.565 80.5499H118.115V80.4999Z" fill="#016A16" stroke="#F1B517" stroke-width="0.1"/>
<path d="M119.315 80.05C119.215 80.3 118.815 80.5 118.315 80.5C117.815 80.5 117.464 80.3 117.314 80.05C117.298 80.1156 117.298 80.1845 117.314 80.25C117.314 80.6 117.765 80.85 118.315 80.85C118.915 80.85 119.365 80.6 119.365 80.25C119.382 80.1845 119.382 80.1156 119.365 80.05H119.315Z" fill="#016A16" stroke="white" stroke-width="0.1" stroke-linecap="round"/>
<path d="M123.066 86.3999L119.565 85.2999L118.015 82.6499L112.564 82.3999L112.764 84.3999L117.415 85.2499L117.815 86.0499L123.166 87.5499L123.066 86.3999Z" fill="#F1B517" stroke="black" stroke-width="0.1"/>
<path d="M119.415 87.1499L113.814 78.8999L113.564 79.1499L119.065 87.3499L119.415 87.1499Z" fill="#503200" stroke="black" stroke-width="0.1"/>
<path d="M114.364 79.25L113.764 78.25C113.614 78.05 113.464 78 113.214 78.15C112.964 78.25 113.014 78.5 113.114 78.7L113.614 79.65L114.364 79.25Z" fill="white" stroke="black" stroke-width="0.1"/>
<path d="M120.065 82.0499L108.814 80.8999L108.514 82.5499L119.715 83.6999L120.065 82.0499Z" fill="#F1B517" stroke="black" stroke-width="0.1"/>
<path d="M108.564 80.5L108.313 82.75H108.814L109.114 80.7L108.614 80.5H108.564ZM110.464 80.85L110.364 82.9H110.664L110.914 81.15L110.514 80.85H110.464ZM118.115 81.75L117.815 83.65H118.365L118.615 81.75H118.115ZM119.765 81.8L119.415 84L120.015 84.1L120.215 82.95C120.215 83.2 120.465 83.35 120.715 83.35C121.015 83.35 121.215 83.1 121.215 82.85C121.215 82.55 121.015 82.35 120.715 82.35C120.611 82.3414 120.507 82.3658 120.417 82.4196C120.327 82.4734 120.257 82.554 120.215 82.65L120.365 81.85L119.765 81.8ZM115.764 82.15L114.164 83.9L114.364 84.1L116.365 82.75L115.714 82.15H115.764ZM112.064 86.5L113.614 84.75L113.464 84.55L111.464 85.9L112.064 86.5ZM116.115 86.05L114.264 84.6L114.064 84.75L115.564 86.65L116.115 86.05ZM111.464 82.7L113.414 84.1L113.614 83.95L112.114 82.05L111.464 82.7ZM113.564 81.55L113.764 83.85H114.014L114.614 81.6L113.564 81.55ZM114.164 87.05L114.014 84.8H113.714L113.364 87.1H114.164V87.05ZM116.715 84.05L114.314 84.25V84.5L116.715 84.8V84V84.05ZM111.014 84.8L113.364 84.45V84.25L110.964 84V84.8H111.014Z" fill="#F1B517" stroke="black" stroke-width="0.1"/>
<path d="M113.914 84.9C114.273 84.9 114.564 84.6313 114.564 84.3C114.564 83.9686 114.273 83.7 113.914 83.7C113.555 83.7 113.264 83.9686 113.264 84.3C113.264 84.6313 113.555 84.9 113.914 84.9Z" fill="#F1B517" stroke="black" stroke-width="0.1"/>
<path fill-rule="evenodd" clip-rule="evenodd" d="M117.264 84.2999C117.264 86.0499 115.764 87.5499 113.914 87.5499C113.48 87.5566 113.05 87.4777 112.647 87.318C112.244 87.1582 111.877 86.9207 111.565 86.6189C111.254 86.3171 111.006 85.9569 110.834 85.5591C110.662 85.1612 110.57 84.7333 110.563 84.2999C110.563 82.4999 112.064 81.0499 113.914 81.0499C114.347 81.0433 114.778 81.1221 115.181 81.2819C115.584 81.4417 115.951 81.6792 116.262 81.981C116.574 82.2828 116.822 82.643 116.994 83.0408C117.166 83.4387 117.258 83.8666 117.264 84.2999ZM116.614 84.2999C116.608 84.648 116.533 84.9913 116.394 85.3103C116.254 85.6293 116.054 85.9178 115.803 86.1593C115.552 86.4007 115.256 86.5904 114.932 86.7175C114.608 86.8446 114.262 86.9066 113.914 86.8999C113.562 86.9066 113.212 86.843 112.884 86.7128C112.557 86.5826 112.259 86.3884 112.007 86.1417C111.756 85.8949 111.556 85.6006 111.42 85.2757C111.284 84.9509 111.214 84.6022 111.214 84.2499C111.24 83.5559 111.537 82.8998 112.042 82.4228C112.547 81.9459 113.219 81.6863 113.914 81.6999C114.262 81.6933 114.608 81.7553 114.932 81.8824C115.256 82.0095 115.552 82.1992 115.803 82.4406C116.054 82.6821 116.254 82.9705 116.394 83.2896C116.533 83.6086 116.608 83.9519 116.614 84.2999Z" fill="#F1B517" stroke="black" stroke-width="0.1" stroke-linecap="round"/>
<path d="M111.814 82.65L111.313 82.25L111.814 82.65ZM115.564 82.25L116.064 81.75L115.564 82.25ZM116.564 86.35L116.014 85.9L116.564 86.35ZM111.814 86.85L112.314 86.35L111.814 86.85ZM123.165 81.05L123.715 84.05L123.265 84.25L122.765 81.1H123.165V81.05Z" fill="#F1B517"/>
<path d="M111.814 82.65L111.313 82.25M115.564 82.25L116.064 81.75M116.564 86.35L116.014 85.9M111.814 86.85L112.314 86.35M123.165 81.05L123.715 84.05L123.265 84.25L122.765 81.1H123.165V81.05Z" stroke="black" stroke-width="0.1"/>
<path d="M122.865 80.7C122.615 80.55 122.265 80.75 121.665 80.05C120.715 80.9 121.665 81.05 121.765 81.9C122.015 82 122.215 81.2 122.915 81.15L124.065 81.05L123.815 80.7H122.815H122.865Z" fill="white" stroke="black" stroke-width="0.1"/>
<path d="M123.265 81.2501L123.165 80.4001C123.015 80.0501 122.665 80.3501 122.665 80.5001L122.765 81.3501L123.265 81.2501Z" fill="white" stroke="black" stroke-width="0.1"/>
<path fill-rule="evenodd" clip-rule="evenodd" d="M120.464 83.7V84.5C120.164 84.6 120.214 84.8 120.214 85.1V87.45C120.164 87.65 119.864 87.65 119.714 87.75C119.564 87.9 119.614 88.15 120.214 88.25L120.714 88.3C121.464 88.15 121.614 87.9 121.214 87.8C121.064 87.7 120.764 87.6 120.714 87.5V86.9H121.214C121.314 86.9 121.564 86.6 121.564 86.35V85.1C121.564 84.4 121.064 84.3 120.864 84.35V83.7H120.464ZM121.264 85.05C121.264 84.85 120.964 84.65 120.864 84.65C120.764 84.65 120.514 84.9 120.514 85.1V85.6C120.514 85.8 120.664 86.4 120.964 86.45C121.064 86.45 121.264 86.25 121.264 86.05V85.05Z" fill="#F1B517" stroke="black" stroke-width="0.1"/>
<path d="M117.215 86.1499C116.865 86.0499 116.865 86.7499 116.865 86.7499H117.365C117.615 86.8499 117.765 87.1499 117.665 87.3499C117.515 87.4499 116.565 87.0999 116.515 87.3499C116.665 88.2999 117.965 88.6499 118.415 88.2499C118.865 87.7999 118.965 86.7499 117.515 86.3999L117.215 86.1499ZM117.515 86.4499L117.365 86.7499L117.515 86.4499Z" fill="white"/>
<path d="M117.365 86.7499H116.865C116.865 86.7499 116.865 86.0499 117.215 86.1499L117.515 86.3999C118.965 86.7499 118.865 87.7999 118.415 88.2499C117.965 88.6499 116.665 88.2999 116.515 87.3499C116.565 87.0999 117.515 87.4499 117.665 87.3499C117.765 87.1499 117.615 86.8499 117.365 86.7499ZM117.365 86.7499L117.515 86.4499" stroke="black" stroke-width="0.1"/>
<path d="M107.564 86.5L107.064 84.5L107.564 86.5ZM108.114 86.4L107.364 84.85L108.114 86.4ZM109.364 86L107.714 85.1L109.364 86ZM110.114 85.8L107.014 84.45L110.114 85.8Z" fill="#F1B517"/>
<path d="M107.564 86.5L107.064 84.5M108.114 86.4L107.364 84.85M109.364 86L107.714 85.1M110.114 85.8L107.014 84.45" stroke="black" stroke-width="0.1"/>
<path d="M105.163 82.9999L103.862 83.0499C103.762 83.0999 104.112 83.4999 104.062 83.5999C103.762 84.1499 101.862 84.0999 101.712 83.9999C101.462 83.7499 103.462 83.5999 103.512 83.4999C103.512 83.2999 103.212 82.8999 103.262 82.6499C103.262 82.2999 104.112 82.1499 104.112 82.1499L105.163 82.9999Z" fill="#D20014" stroke="#D20014" stroke-width="0.1"/>
<path d="M106.663 83.9999L104.163 81.8999C104.163 81.8999 104.013 81.7999 103.913 81.8999C103.813 81.9999 103.913 82.0999 103.913 82.0999L106.613 84.2999L106.663 84.0499V83.9999Z" fill="#503200" stroke="black" stroke-width="0.1"/>
<path d="M109.163 86.1L107.063 84.3L106.913 83.8L106.513 84.1C106.363 84.2 106.213 84.5 106.213 84.5H106.763L108.563 86.2L109.113 86.1H109.163Z" fill="#F1B517" stroke="black" stroke-width="0.1"/>
<path d="M116.315 88.9C116.508 88.9 116.665 88.7433 116.665 88.55C116.665 88.3567 116.508 88.2 116.315 88.2C116.122 88.2 115.965 88.3567 115.965 88.55C115.965 88.7433 116.122 88.9 116.315 88.9Z" fill="#F1B517" stroke="black" stroke-width="0.1"/>
<path d="M115.365 88.2C115.558 88.2 115.715 88.0433 115.715 87.85C115.715 87.6567 115.558 87.5 115.365 87.5C115.171 87.5 115.015 87.6567 115.015 87.85C115.015 88.0433 115.171 88.2 115.365 88.2Z" fill="#F1B517" stroke="black" stroke-width="0.1"/>
<path d="M114.114 88.65C114.307 88.65 114.464 88.4933 114.464 88.3C114.464 88.1067 114.307 87.95 114.114 87.95C113.92 87.95 113.764 88.1067 113.764 88.3C113.764 88.4933 113.92 88.65 114.114 88.65Z" fill="#F1B517" stroke="black" stroke-width="0.1"/>
<path d="M112.164 89.0499C112.357 89.0499 112.514 88.8932 112.514 88.6999C112.514 88.5066 112.357 88.3499 112.164 88.3499C111.97 88.3499 111.813 88.5066 111.813 88.6999C111.813 88.8932 111.97 89.0499 112.164 89.0499Z" fill="#F1B517" stroke="black" stroke-width="0.1"/>
<path d="M111.314 89.15C111.507 89.15 111.664 88.9933 111.664 88.8C111.664 88.6067 111.507 88.45 111.314 88.45C111.121 88.45 110.964 88.6067 110.964 88.8C110.964 88.9933 111.121 89.15 111.314 89.15Z" fill="#F1B517" stroke="black" stroke-width="0.1"/>
<path d="M110.463 89.15C110.657 89.15 110.813 88.9933 110.813 88.8C110.813 88.6067 110.657 88.45 110.463 88.45C110.27 88.45 110.113 88.6067 110.113 88.8C110.113 88.9933 110.27 89.15 110.463 89.15Z" fill="#F1B517" stroke="black" stroke-width="0.1"/>
<path d="M109.664 89.15C109.857 89.15 110.014 88.9933 110.014 88.8C110.014 88.6067 109.857 88.45 109.664 88.45C109.47 88.45 109.313 88.6067 109.313 88.8C109.313 88.9933 109.47 89.15 109.664 89.15Z" fill="#F1B517" stroke="black" stroke-width="0.1"/>
<path d="M110.064 88.5C110.257 88.5 110.414 88.3433 110.414 88.15C110.414 87.9567 110.257 87.8 110.064 87.8C109.871 87.8 109.714 87.9567 109.714 88.15C109.714 88.3433 109.871 88.5 110.064 88.5Z" fill="#F1B517" stroke="black" stroke-width="0.1"/>
<path d="M110.864 88.5499C111.057 88.5499 111.214 88.3932 111.214 88.1999C111.214 88.0066 111.057 87.8499 110.864 87.8499C110.67 87.8499 110.514 88.0066 110.514 88.1999C110.514 88.3932 110.67 88.5499 110.864 88.5499Z" fill="#F1B517" stroke="black" stroke-width="0.1"/>
<path d="M111.614 88.45C111.807 88.45 111.964 88.2933 111.964 88.1C111.964 87.9067 111.807 87.75 111.614 87.75C111.42 87.75 111.264 87.9067 111.264 88.1C111.264 88.2933 111.42 88.45 111.614 88.45Z" fill="#F1B517" stroke="black" stroke-width="0.1"/>
<path d="M111.264 87.8499C111.457 87.8499 111.614 87.6932 111.614 87.4999C111.614 87.3066 111.457 87.1499 111.264 87.1499C111.071 87.1499 110.914 87.3066 110.914 87.4999C110.914 87.6932 111.071 87.8499 111.264 87.8499Z" fill="#F1B517" stroke="black" stroke-width="0.1"/>
<path d="M110.463 87.7999C110.657 87.7999 110.813 87.6432 110.813 87.4499C110.813 87.2566 110.657 87.0999 110.463 87.0999C110.27 87.0999 110.113 87.2566 110.113 87.4499C110.113 87.6432 110.27 87.7999 110.463 87.7999Z" fill="#F1B517" stroke="black" stroke-width="0.1"/>
<path d="M119.982 89C119.974 89.0057 119.964 89.0113 119.951 89.0168C119.903 89.0381 119.836 89.05 119.765 89.05C119.695 89.05 119.642 89.038 119.609 89.0191C119.578 89.0017 119.565 88.9796 119.565 88.95C119.565 88.9504 119.565 88.9505 119.565 88.9505C119.565 88.9506 119.566 88.9451 119.574 88.9345C119.582 88.9232 119.595 88.9098 119.613 88.8969C119.649 88.8712 119.701 88.85 119.765 88.85C119.829 88.85 119.882 88.8712 119.917 88.8969C119.936 88.9098 119.949 88.9232 119.957 88.9345C119.964 88.9451 119.965 88.9506 119.965 88.9505C119.965 88.9505 119.965 88.9505 119.965 88.9505V89H119.982ZM122.83 89.0146L122.816 89.0293V89.05C122.816 89.0618 122.808 89.0886 122.789 89.1125C122.771 89.1348 122.747 89.15 122.716 89.15C122.586 89.15 122.516 89.0654 122.516 89C122.516 88.9704 122.529 88.9483 122.559 88.9309C122.592 88.912 122.645 88.9 122.716 88.9C122.758 88.9 122.798 88.9108 122.825 88.9291C122.846 88.9427 122.859 88.9597 122.864 88.9812L122.83 89.0146ZM117.865 88.7C117.865 88.7707 117.902 88.8189 117.949 88.8513C117.994 88.882 118.051 88.901 118.1 88.9165C118.108 88.9188 118.115 88.9211 118.123 88.9234C118.166 88.9367 118.202 88.9478 118.229 88.9623C118.261 88.9788 118.265 88.9907 118.265 89C118.265 89.0126 118.26 89.0237 118.236 89.0366C118.211 89.0506 118.174 89.0604 118.13 89.0698C118.122 89.0715 118.114 89.0732 118.105 89.0749C118.071 89.0821 118.033 89.0899 118.003 89.1005C117.984 89.1073 117.963 89.1167 117.947 89.1314C117.929 89.1475 117.915 89.1705 117.915 89.2C117.915 89.2709 117.953 89.3212 118.008 89.3498C118.059 89.3767 118.126 89.3845 118.193 89.3812C118.303 89.3757 118.43 89.3389 118.533 89.2807C118.554 89.3447 118.59 89.3968 118.636 89.4354C118.7 89.4877 118.78 89.5125 118.865 89.5125C119.021 89.5125 119.194 89.4294 119.324 89.2704C119.44 89.3576 119.563 89.425 119.711 89.4373C119.868 89.4504 120.044 89.4007 120.258 89.2645C120.303 89.3085 120.356 89.3444 120.414 89.3705C120.485 89.4027 120.562 89.4193 120.64 89.4193C120.718 89.4193 120.796 89.4027 120.867 89.3705C120.931 89.3416 120.989 89.3006 121.037 89.25H121.136C121.223 89.4007 121.381 89.4867 121.547 89.5059C121.706 89.5243 121.878 89.4819 122.01 89.3724C122.054 89.4102 122.118 89.425 122.178 89.425C122.251 89.425 122.333 89.4043 122.407 89.3634C122.444 89.3973 122.485 89.4251 122.531 89.4456C122.589 89.4718 122.652 89.4854 122.716 89.4854C122.78 89.4854 122.843 89.4718 122.901 89.4456C122.936 89.4296 122.969 89.4092 122.999 89.3849C123.02 89.4173 123.048 89.4453 123.08 89.4684C123.133 89.5076 123.2 89.5353 123.268 89.549C123.379 89.5711 123.507 89.5587 123.6 89.4867C123.65 89.5603 123.737 89.5869 123.813 89.5811C123.862 89.5773 123.911 89.5603 123.949 89.5307C123.987 89.5007 124.016 89.4559 124.016 89.4C124.016 89.3416 124.001 89.2967 123.971 89.2645C123.943 89.2333 123.906 89.2209 123.878 89.214C123.868 89.2116 123.858 89.2094 123.849 89.2076C123.846 89.2069 123.842 89.2062 123.84 89.2056C123.828 89.2031 123.821 89.2012 123.816 89.1991C123.816 89.1991 123.816 89.199 123.816 89.1989C123.816 89.1832 123.822 89.172 123.841 89.159C123.86 89.1457 123.886 89.1353 123.918 89.122C123.923 89.1197 123.929 89.1173 123.935 89.1149C123.972 89.0994 124.017 89.0794 124.053 89.047C124.091 89.0123 124.116 88.9648 124.116 88.9C124.116 88.8492 124.082 88.8163 124.046 88.7987C124.011 88.7817 123.967 88.775 123.922 88.775C123.841 88.775 123.744 88.7971 123.664 88.8427C123.647 88.8343 123.631 88.8256 123.614 88.8168L123.609 88.8139C123.586 88.8016 123.563 88.7891 123.539 88.7773C123.489 88.7519 123.437 88.728 123.385 88.7142C123.333 88.7002 123.277 88.6955 123.223 88.7113C123.184 88.7226 123.148 88.7435 123.116 88.7746C123.007 88.663 122.852 88.5872 122.701 88.5751C122.615 88.5683 122.528 88.5818 122.452 88.6232C122.395 88.654 122.345 88.6995 122.306 88.7605C122.258 88.714 122.202 88.6875 122.141 88.6875C122.075 88.6875 122.014 88.7183 121.964 88.7717C121.864 88.6657 121.741 88.5999 121.599 88.5938C121.451 88.5873 121.291 88.6465 121.125 88.7773C121.031 88.6631 120.871 88.5989 120.715 88.5815C120.555 88.5638 120.381 88.593 120.264 88.6842C120.094 88.5474 119.918 88.4746 119.743 88.4876C119.566 88.5007 119.4 88.6006 119.252 88.786C119.232 88.7748 119.213 88.763 119.193 88.7507C119.178 88.7415 119.162 88.7321 119.146 88.7225C119.097 88.6937 119.044 88.6656 118.983 88.6513C118.866 88.6239 118.738 88.6506 118.577 88.7758C118.57 88.7686 118.564 88.7618 118.557 88.7554C118.532 88.7328 118.501 88.7114 118.468 88.6919C118.4 88.6528 118.316 88.6184 118.235 88.5956C118.154 88.573 118.07 88.5601 118.003 88.5683C117.97 88.5724 117.936 88.5824 117.909 88.604C117.881 88.6273 117.865 88.6606 117.865 88.7ZM119.065 89.05C119.065 89.0806 119.051 89.1036 119.025 89.1209C118.997 89.1392 118.958 89.15 118.915 89.15C118.873 89.15 118.833 89.1392 118.805 89.1209C118.779 89.1036 118.765 89.0806 118.765 89.05C118.765 89.0281 118.768 89.0184 118.77 89.0145L118.77 89.0145C118.771 89.0128 118.772 89.0112 118.777 89.0089C118.785 89.0057 118.799 89.0029 118.824 89.0014C118.848 89 118.877 89 118.915 89C118.986 89 119.025 89.0119 119.046 89.0241C119.064 89.0348 119.065 89.0444 119.065 89.05ZM121.766 89.05C121.766 89.0796 121.752 89.1017 121.722 89.1191C121.689 89.138 121.636 89.15 121.566 89.15C121.494 89.15 121.458 89.1376 121.44 89.1234C121.426 89.1117 121.415 89.092 121.415 89.05C121.415 89.0503 121.415 89.0504 121.416 89.0504C121.416 89.0504 121.417 89.0447 121.424 89.0332C121.432 89.0213 121.444 89.0077 121.46 88.9946C121.492 88.9679 121.531 88.95 121.566 88.95C121.609 88.95 121.663 88.9611 121.706 88.9822C121.75 89.0042 121.766 89.0287 121.766 89.05ZM120.815 89.05C120.815 89.0796 120.802 89.1017 120.772 89.1191C120.739 89.138 120.686 89.15 120.615 89.15C120.543 89.15 120.511 89.1373 120.494 89.1209C120.478 89.1044 120.465 89.0722 120.465 89C120.465 88.9662 120.483 88.9283 120.513 88.8978C120.544 88.8674 120.582 88.85 120.615 88.85C120.651 88.85 120.704 88.8692 120.748 88.9025C120.794 88.9368 120.815 88.9738 120.815 89V89.05ZM122.216 89.0707C122.215 89.0866 122.215 89.0999 122.214 89.1115C122.213 89.1279 122.21 89.136 122.208 89.1401C122.207 89.1424 122.206 89.1434 122.203 89.1449C122.198 89.1472 122.187 89.15 122.166 89.15C122.123 89.15 122.101 89.1394 122.088 89.1271C122.076 89.1148 122.066 89.0923 122.066 89.05C122.066 89.0284 122.068 89.0175 122.071 89.0125C122.072 89.0092 122.073 89.0083 122.075 89.0072C122.08 89.0052 122.088 89.0027 122.104 89.0014C122.116 89.0004 122.129 89.0001 122.145 89L122.216 89.0707ZM123.416 89.1C123.416 89.1538 123.415 89.1904 123.402 89.2151C123.397 89.2252 123.39 89.2327 123.379 89.2384C123.368 89.2446 123.348 89.25 123.316 89.25C123.316 89.25 123.316 89.25 123.316 89.25C123.316 89.2498 123.31 89.2488 123.299 89.2412C123.287 89.2333 123.273 89.2211 123.26 89.2055C123.234 89.1733 123.216 89.1343 123.216 89.1C123.216 89.0686 123.231 89.0444 123.253 89.0265C123.277 89.0074 123.304 89 123.316 89C123.358 89 123.381 89.0105 123.393 89.0228C123.405 89.0351 123.416 89.0577 123.416 89.1Z" fill="#F1B517" stroke="black" stroke-width="0.1"/>
<path d="M127.015 86.3999L130.516 85.2999L132.066 82.6499L137.517 82.3999L137.317 84.3999L132.666 85.2499L132.266 86.0499L126.915 87.5499L127.015 86.3999Z" fill="#F1B517" stroke="black" stroke-width="0.1"/>
<path d="M130.666 87.1499L136.267 78.8999L136.517 79.1499L131.016 87.3499L130.666 87.1499Z" fill="#503200" stroke="black" stroke-width="0.1"/>
<path d="M135.717 79.25L136.317 78.25C136.467 78.05 136.617 78 136.867 78.15C137.117 78.25 137.067 78.5 136.967 78.7L136.467 79.65L135.717 79.25Z" fill="white" stroke="black" stroke-width="0.1"/>
<path d="M130.016 82.0499L141.267 80.8999L141.567 82.5499L130.366 83.6999L130.016 82.0499Z" fill="#F1B517" stroke="black" stroke-width="0.1"/>
<path d="M141.517 80.5L141.767 82.75H141.267L140.966 80.7L141.467 80.5H141.517ZM139.616 80.85L139.716 82.9H139.416L139.166 81.15L139.566 80.85H139.616ZM131.965 81.75L132.265 83.65H131.715L131.465 81.75H131.965ZM130.315 81.8L130.665 84L130.065 84.1L129.865 82.95C129.865 83.2 129.615 83.35 129.365 83.35C129.065 83.35 128.865 83.1 128.865 82.85C128.865 82.55 129.065 82.35 129.365 82.35C129.469 82.3414 129.574 82.3658 129.663 82.4196C129.753 82.4734 129.824 82.554 129.865 82.65L129.715 81.85L130.315 81.8ZM134.316 82.15L135.916 83.9L135.716 84.1L133.716 82.75L134.366 82.15H134.316ZM138.016 86.5L136.466 84.75L136.616 84.55L138.616 85.9L138.016 86.5ZM133.966 86.05L135.816 84.6L136.016 84.75L134.516 86.65L133.966 86.05ZM138.616 82.7L136.666 84.1L136.466 83.95L137.966 82.05L138.616 82.7ZM136.516 81.55L136.316 83.85H136.066L135.466 81.6L136.516 81.55ZM135.916 87.05L136.066 84.8H136.366L136.716 87.1H135.916V87.05ZM133.365 84.05L135.766 84.25V84.5L133.365 84.8V84V84.05ZM139.066 84.8L136.716 84.45V84.25L139.116 84V84.8H139.066Z" fill="#F1B517" stroke="black" stroke-width="0.1"/>
<path d="M136.166 84.9C135.807 84.9 135.516 84.6313 135.516 84.3C135.516 83.9686 135.807 83.7 136.166 83.7C136.525 83.7 136.816 83.9686 136.816 84.3C136.816 84.6313 136.525 84.9 136.166 84.9Z" fill="#F1B517" stroke="black" stroke-width="0.1"/>
<path fill-rule="evenodd" clip-rule="evenodd" d="M132.816 84.2999C132.816 86.0499 134.316 87.5499 136.166 87.5499C136.6 87.5566 137.03 87.4777 137.433 87.318C137.836 87.1582 138.204 86.9207 138.515 86.6189C138.826 86.3171 139.074 85.9569 139.246 85.5591C139.418 85.1612 139.51 84.7333 139.517 84.2999C139.517 82.4999 138.016 81.0499 136.166 81.0499C135.733 81.0433 135.302 81.1221 134.899 81.2819C134.496 81.4417 134.129 81.6792 133.818 81.981C133.507 82.2828 133.258 82.643 133.086 83.0408C132.914 83.4387 132.822 83.8666 132.816 84.2999ZM133.466 84.2999C133.472 84.648 133.547 84.9913 133.687 85.3103C133.826 85.6293 134.027 85.9178 134.277 86.1593C134.528 86.4007 134.824 86.5904 135.148 86.7175C135.472 86.8446 135.818 86.9066 136.166 86.8999C136.518 86.9066 136.868 86.843 137.196 86.7128C137.523 86.5826 137.821 86.3884 138.073 86.1417C138.324 85.8949 138.524 85.6006 138.66 85.2757C138.796 84.9509 138.867 84.6022 138.867 84.2499C138.84 83.5559 138.543 82.8998 138.038 82.4228C137.533 81.9459 136.861 81.6863 136.166 81.6999C135.818 81.6933 135.472 81.7553 135.148 81.8824C134.824 82.0095 134.528 82.1992 134.277 82.4406C134.027 82.6821 133.826 82.9705 133.687 83.2896C133.547 83.6086 133.472 83.9519 133.466 84.2999Z" fill="#F1B517" stroke="black" stroke-width="0.1" stroke-linecap="round"/>
<path d="M138.267 82.65L138.767 82.25L138.267 82.65ZM134.516 82.25L134.016 81.75L134.516 82.25ZM133.516 86.35L134.066 85.9L133.516 86.35ZM138.267 86.85L137.766 86.35L138.267 86.85ZM126.915 81.05L126.365 84.05L126.815 84.25L127.315 81.1H126.915V81.05Z" fill="#F1B517"/>
<path d="M138.267 82.65L138.767 82.25M134.516 82.25L134.016 81.75M133.516 86.35L134.066 85.9M138.267 86.85L137.766 86.35M126.915 81.05L126.365 84.05L126.815 84.25L127.315 81.1H126.915V81.05Z" stroke="black" stroke-width="0.1"/>
<path d="M127.215 80.7C127.465 80.55 127.815 80.75 128.415 80.05C129.365 80.9 128.415 81.05 128.315 81.9C128.065 82 127.865 81.2 127.165 81.15L126.015 81.05L126.265 80.7H127.265H127.215Z" fill="white" stroke="black" stroke-width="0.1"/>
<path d="M126.815 81.2501L126.915 80.4001C127.065 80.0501 127.415 80.3501 127.415 80.5001L127.315 81.3501L126.815 81.2501Z" fill="white" stroke="black" stroke-width="0.1"/>
<path fill-rule="evenodd" clip-rule="evenodd" d="M129.616 83.7V84.5C129.916 84.6 129.866 84.8 129.866 85.1V87.45C129.916 87.65 130.216 87.65 130.366 87.75C130.516 87.9 130.466 88.15 129.866 88.25L129.366 88.3C128.616 88.15 128.466 87.9 128.866 87.8C129.016 87.7 129.316 87.6 129.366 87.5V86.9H128.866C128.766 86.9 128.516 86.6 128.516 86.35V85.1C128.516 84.4 129.016 84.3 129.216 84.35V83.7H129.616ZM128.816 85.05C128.816 84.85 129.116 84.65 129.216 84.65C129.316 84.65 129.566 84.9 129.566 85.1V85.6C129.566 85.8 129.416 86.4 129.116 86.45C129.016 86.45 128.816 86.25 128.816 86.05V85.05Z" fill="#F1B517" stroke="black" stroke-width="0.1"/>
<path d="M132.866 86.1499C133.216 86.0499 133.216 86.7499 133.216 86.7499H132.716C132.466 86.8499 132.316 87.1499 132.416 87.3499C132.566 87.4499 133.516 87.0999 133.566 87.3499C133.416 88.2999 132.116 88.6499 131.666 88.2499C131.216 87.7999 131.116 86.7499 132.566 86.3999L132.866 86.1499ZM132.566 86.4499L132.716 86.7499L132.566 86.4499Z" fill="white"/>
<path d="M132.716 86.7499H133.216C133.216 86.7499 133.216 86.0499 132.866 86.1499L132.566 86.3999C131.116 86.7499 131.216 87.7999 131.666 88.2499C132.116 88.6499 133.416 88.2999 133.566 87.3499C133.516 87.0999 132.566 87.4499 132.416 87.3499C132.316 87.1499 132.466 86.8499 132.716 86.7499ZM132.716 86.7499L132.566 86.4499" stroke="black" stroke-width="0.1"/>
<path d="M142.517 86.5L143.017 84.5L142.517 86.5ZM141.967 86.4L142.717 84.85L141.967 86.4ZM140.717 86L142.367 85.1L140.717 86ZM139.967 85.8L143.067 84.45L139.967 85.8Z" fill="#F1B517"/>
<path d="M142.517 86.5L143.017 84.5M141.967 86.4L142.717 84.85M140.717 86L142.367 85.1M139.967 85.8L143.067 84.45" stroke="black" stroke-width="0.1"/>
<path d="M144.918 82.9999L146.218 83.0499C146.318 83.0999 145.968 83.4999 146.018 83.5999C146.318 84.1499 148.218 84.0999 148.368 83.9999C148.618 83.7499 146.618 83.5999 146.568 83.4999C146.568 83.2999 146.868 82.8999 146.818 82.6499C146.818 82.2999 145.968 82.1499 145.968 82.1499L144.918 82.9999Z" fill="#D20014" stroke="#D20014" stroke-width="0.1"/>
<path d="M143.417 83.9999L145.917 81.8999C145.917 81.8999 146.067 81.7999 146.167 81.8999C146.267 81.9999 146.167 82.0999 146.167 82.0999L143.467 84.2999L143.417 84.0499V83.9999Z" fill="#503200" stroke="black" stroke-width="0.1"/>
<path d="M140.917 86.1L143.017 84.3L143.167 83.8L143.567 84.1C143.717 84.2 143.867 84.5 143.867 84.5H143.317L141.517 86.2L140.967 86.1H140.917Z" fill="#F1B517" stroke="black" stroke-width="0.1"/>
<path d="M133.766 88.9C133.573 88.9 133.416 88.7433 133.416 88.55C133.416 88.3567 133.573 88.2 133.766 88.2C133.959 88.2 134.116 88.3567 134.116 88.55C134.116 88.7433 133.959 88.9 133.766 88.9Z" fill="#F1B517" stroke="black" stroke-width="0.1"/>
<path d="M134.716 88.2C134.523 88.2 134.366 88.0433 134.366 87.85C134.366 87.6567 134.523 87.5 134.716 87.5C134.91 87.5 135.066 87.6567 135.066 87.85C135.066 88.0433 134.91 88.2 134.716 88.2Z" fill="#F1B517" stroke="black" stroke-width="0.1"/>
<path d="M135.966 88.65C135.773 88.65 135.616 88.4933 135.616 88.3C135.616 88.1067 135.773 87.95 135.966 87.95C136.16 87.95 136.316 88.1067 136.316 88.3C136.316 88.4933 136.16 88.65 135.966 88.65Z" fill="#F1B517" stroke="black" stroke-width="0.1"/>
<path d="M137.917 89.0499C137.723 89.0499 137.567 88.8932 137.567 88.6999C137.567 88.5066 137.723 88.3499 137.917 88.3499C138.11 88.3499 138.267 88.5066 138.267 88.6999C138.267 88.8932 138.11 89.0499 137.917 89.0499Z" fill="#F1B517" stroke="black" stroke-width="0.1"/>
<path d="M138.766 89.15C138.573 89.15 138.416 88.9933 138.416 88.8C138.416 88.6067 138.573 88.45 138.766 88.45C138.959 88.45 139.116 88.6067 139.116 88.8C139.116 88.9933 138.959 89.15 138.766 89.15Z" fill="#F1B517" stroke="black" stroke-width="0.1"/>
<path d="M139.617 89.15C139.423 89.15 139.267 88.9933 139.267 88.8C139.267 88.6067 139.423 88.45 139.617 88.45C139.81 88.45 139.967 88.6067 139.967 88.8C139.967 88.9933 139.81 89.15 139.617 89.15Z" fill="#F1B517" stroke="black" stroke-width="0.1"/>
<path d="M140.417 89.15C140.223 89.15 140.067 88.9933 140.067 88.8C140.067 88.6067 140.223 88.45 140.417 88.45C140.61 88.45 140.767 88.6067 140.767 88.8C140.767 88.9933 140.61 89.15 140.417 89.15Z" fill="#F1B517" stroke="black" stroke-width="0.1"/>
<path d="M140.017 88.5C139.824 88.5 139.667 88.3433 139.667 88.15C139.667 87.9567 139.824 87.8 140.017 87.8C140.21 87.8 140.367 87.9567 140.367 88.15C140.367 88.3433 140.21 88.5 140.017 88.5Z" fill="#F1B517" stroke="black" stroke-width="0.1"/>
<path d="M139.216 88.5499C139.023 88.5499 138.866 88.3932 138.866 88.1999C138.866 88.0066 139.023 87.8499 139.216 87.8499C139.41 87.8499 139.566 88.0066 139.566 88.1999C139.566 88.3932 139.41 88.5499 139.216 88.5499Z" fill="#F1B517" stroke="black" stroke-width="0.1"/>
<path d="M138.466 88.45C138.273 88.45 138.116 88.2933 138.116 88.1C138.116 87.9067 138.273 87.75 138.466 87.75C138.66 87.75 138.816 87.9067 138.816 88.1C138.816 88.2933 138.66 88.45 138.466 88.45Z" fill="#F1B517" stroke="black" stroke-width="0.1"/>
<path d="M138.817 87.8499C138.624 87.8499 138.467 87.6932 138.467 87.4999C138.467 87.3066 138.624 87.1499 138.817 87.1499C139.01 87.1499 139.167 87.3066 139.167 87.4999C139.167 87.6932 139.01 87.8499 138.817 87.8499Z" fill="#F1B517" stroke="black" stroke-width="0.1"/>
<path d="M139.617 87.7999C139.423 87.7999 139.267 87.6432 139.267 87.4499C139.267 87.2566 139.423 87.0999 139.617 87.0999C139.81 87.0999 139.967 87.2566 139.967 87.4499C139.967 87.6432 139.81 87.7999 139.617 87.7999Z" fill="#F1B517" stroke="black" stroke-width="0.1"/>
<path d="M130.099 89C130.107 89.0057 130.117 89.0113 130.13 89.0168C130.178 89.0381 130.245 89.05 130.316 89.05C130.386 89.05 130.439 89.038 130.472 89.0191C130.503 89.0017 130.516 88.9796 130.516 88.95C130.516 88.9504 130.516 88.9505 130.516 88.9505C130.516 88.9506 130.515 88.9451 130.507 88.9345C130.499 88.9232 130.486 88.9098 130.468 88.8969C130.432 88.8712 130.38 88.85 130.316 88.85C130.252 88.85 130.2 88.8712 130.164 88.8969C130.146 88.9098 130.132 88.9232 130.124 88.9345C130.117 88.9451 130.116 88.9506 130.116 88.9505C130.116 88.9505 130.116 88.9505 130.116 88.9505V89H130.099ZM127.251 89.0146L127.265 89.0293V89.05C127.265 89.0618 127.273 89.0886 127.292 89.1125C127.31 89.1348 127.334 89.15 127.365 89.15C127.495 89.15 127.565 89.0654 127.565 89C127.565 88.9704 127.552 88.9483 127.522 88.9309C127.489 88.912 127.436 88.9 127.365 88.9C127.323 88.9 127.283 88.9108 127.256 88.9291C127.235 88.9427 127.222 88.9597 127.217 88.9812L127.251 89.0146ZM132.216 88.7C132.216 88.7707 132.179 88.8189 132.132 88.8513C132.087 88.882 132.03 88.901 131.981 88.9165C131.973 88.9188 131.966 88.9211 131.959 88.9234C131.915 88.9367 131.879 88.9478 131.852 88.9623C131.82 88.9788 131.816 88.9907 131.816 89C131.816 89.0126 131.821 89.0237 131.845 89.0366C131.87 89.0506 131.907 89.0604 131.951 89.0698C131.959 89.0715 131.967 89.0732 131.976 89.0749C132.01 89.0821 132.048 89.0899 132.078 89.1005C132.097 89.1073 132.118 89.1167 132.134 89.1314C132.152 89.1475 132.166 89.1705 132.166 89.2C132.166 89.2709 132.129 89.3212 132.073 89.3498C132.022 89.3767 131.955 89.3845 131.888 89.3812C131.778 89.3757 131.651 89.3389 131.548 89.2807C131.527 89.3447 131.492 89.3968 131.445 89.4354C131.381 89.4877 131.301 89.5125 131.216 89.5125C131.06 89.5125 130.887 89.4294 130.757 89.2704C130.641 89.3576 130.518 89.425 130.37 89.4373C130.213 89.4504 130.037 89.4007 129.823 89.2645C129.778 89.3085 129.725 89.3444 129.667 89.3705C129.596 89.4027 129.519 89.4193 129.441 89.4193C129.363 89.4193 129.285 89.4027 129.214 89.3705C129.15 89.3416 129.092 89.3006 129.044 89.25H128.945C128.858 89.4007 128.7 89.4867 128.534 89.5059C128.375 89.5243 128.203 89.4819 128.071 89.3724C128.027 89.4102 127.963 89.425 127.903 89.425C127.83 89.425 127.748 89.4043 127.674 89.3634C127.637 89.3973 127.596 89.4251 127.551 89.4456C127.492 89.4718 127.429 89.4854 127.365 89.4854C127.302 89.4854 127.238 89.4718 127.18 89.4456C127.145 89.4296 127.112 89.4092 127.082 89.3849C127.061 89.4173 127.033 89.4453 127.001 89.4684C126.948 89.5076 126.881 89.5353 126.813 89.549C126.702 89.5711 126.574 89.5587 126.481 89.4867C126.431 89.5603 126.344 89.5869 126.268 89.5811C126.219 89.5773 126.17 89.5603 126.132 89.5307C126.094 89.5007 126.065 89.4559 126.065 89.4C126.065 89.3416 126.08 89.2967 126.11 89.2645C126.139 89.2333 126.175 89.2209 126.203 89.214C126.213 89.2116 126.223 89.2094 126.232 89.2076C126.235 89.2069 126.239 89.2062 126.241 89.2056C126.253 89.2031 126.26 89.2012 126.265 89.1991C126.265 89.1991 126.265 89.199 126.265 89.1989C126.265 89.1832 126.259 89.172 126.24 89.159C126.221 89.1457 126.196 89.1353 126.163 89.122C126.158 89.1197 126.152 89.1173 126.146 89.1149C126.109 89.0994 126.064 89.0794 126.028 89.047C125.99 89.0123 125.965 88.9648 125.965 88.9C125.965 88.8492 125.999 88.8163 126.035 88.7987C126.07 88.7817 126.114 88.775 126.159 88.775C126.24 88.775 126.337 88.7971 126.418 88.8427C126.434 88.8343 126.45 88.8256 126.467 88.8168L126.472 88.8139C126.495 88.8016 126.519 88.7891 126.542 88.7773C126.592 88.7519 126.644 88.728 126.696 88.7142C126.749 88.7002 126.804 88.6955 126.858 88.7113C126.897 88.7226 126.933 88.7435 126.965 88.7746C127.074 88.663 127.229 88.5872 127.38 88.5751C127.466 88.5683 127.553 88.5818 127.629 88.6232C127.686 88.654 127.736 88.6995 127.775 88.7605C127.823 88.714 127.879 88.6875 127.94 88.6875C128.006 88.6875 128.067 88.7183 128.117 88.7717C128.217 88.6657 128.34 88.5999 128.482 88.5938C128.63 88.5873 128.79 88.6465 128.956 88.7773C129.05 88.6631 129.21 88.5989 129.366 88.5815C129.526 88.5638 129.7 88.593 129.817 88.6842C129.987 88.5474 130.163 88.4746 130.338 88.4876C130.516 88.5007 130.681 88.6006 130.829 88.786C130.849 88.7748 130.868 88.763 130.888 88.7507C130.903 88.7415 130.919 88.7321 130.935 88.7225C130.984 88.6937 131.037 88.6656 131.098 88.6513C131.215 88.6239 131.343 88.6506 131.504 88.7758C131.511 88.7686 131.517 88.7618 131.524 88.7554C131.549 88.7328 131.58 88.7114 131.614 88.6919C131.681 88.6528 131.765 88.6184 131.846 88.5956C131.927 88.573 132.011 88.5601 132.078 88.5683C132.111 88.5724 132.145 88.5824 132.172 88.604C132.2 88.6273 132.216 88.6606 132.216 88.7ZM131.016 89.05C131.016 89.0806 131.03 89.1036 131.056 89.1209C131.084 89.1392 131.123 89.15 131.166 89.15C131.208 89.15 131.248 89.1392 131.276 89.1209C131.302 89.1036 131.316 89.0806 131.316 89.05C131.316 89.0281 131.313 89.0184 131.311 89.0145L131.311 89.0145C131.31 89.0128 131.309 89.0112 131.304 89.0089C131.296 89.0057 131.282 89.0029 131.257 89.0014C131.233 89 131.204 89 131.166 89C131.095 89 131.056 89.0119 131.035 89.0241C131.017 89.0348 131.016 89.0444 131.016 89.05ZM128.315 89.05C128.315 89.0796 128.329 89.1017 128.359 89.1191C128.392 89.138 128.445 89.15 128.516 89.15C128.587 89.15 128.623 89.1376 128.641 89.1234C128.655 89.1117 128.666 89.092 128.666 89.05C128.666 89.0503 128.666 89.0504 128.666 89.0504C128.665 89.0504 128.664 89.0447 128.657 89.0332C128.649 89.0213 128.637 89.0077 128.621 88.9946C128.589 88.9679 128.55 88.95 128.516 88.95C128.472 88.95 128.418 88.9611 128.375 88.9822C128.331 89.0042 128.315 89.0287 128.315 89.05ZM129.266 89.05C129.266 89.0796 129.279 89.1017 129.309 89.1191C129.342 89.138 129.395 89.15 129.466 89.15C129.538 89.15 129.57 89.1373 129.587 89.1209C129.603 89.1044 129.616 89.0722 129.616 89C129.616 88.9662 129.598 88.9283 129.568 88.8978C129.537 88.8674 129.499 88.85 129.466 88.85C129.43 88.85 129.377 88.8692 129.333 88.9025C129.287 88.9368 129.266 88.9738 129.266 89V89.05ZM127.865 89.0707C127.866 89.0866 127.866 89.0999 127.867 89.1115C127.868 89.1279 127.871 89.136 127.873 89.1401C127.874 89.1424 127.875 89.1434 127.878 89.1449C127.883 89.1472 127.894 89.15 127.915 89.15C127.958 89.15 127.98 89.1394 127.993 89.1271C128.005 89.1148 128.015 89.0923 128.015 89.05C128.015 89.0284 128.013 89.0175 128.01 89.0125C128.009 89.0092 128.008 89.0083 128.006 89.0072C128.002 89.0052 127.993 89.0027 127.977 89.0014C127.965 89.0004 127.952 89.0001 127.936 89L127.865 89.0707ZM126.665 89.1C126.665 89.1538 126.666 89.1904 126.679 89.2151C126.684 89.2252 126.691 89.2327 126.702 89.2384C126.713 89.2446 126.733 89.25 126.765 89.25C126.765 89.25 126.765 89.25 126.765 89.25C126.765 89.2498 126.771 89.2488 126.782 89.2412C126.794 89.2333 126.808 89.2211 126.821 89.2055C126.847 89.1733 126.865 89.1343 126.865 89.1C126.865 89.0686 126.85 89.0444 126.828 89.0265C126.804 89.0074 126.777 89 126.765 89C126.723 89 126.7 89.0105 126.688 89.0228C126.676 89.0351 126.665 89.0577 126.665 89.1Z" fill="#F1B517" stroke="black" stroke-width="0.1"/>
<path d="M124.965 82.8499C123.715 82.8499 122.715 83.3499 122.715 83.8999C122.715 83.9999 122.715 84.0999 122.815 84.1999C123.065 84.4999 123.965 84.6999 125.015 84.6999C126.015 84.6999 126.815 84.5499 127.115 84.2499C127.215 84.1499 127.265 84.0499 127.265 83.8999C127.265 83.3499 126.265 82.8999 124.965 82.8999V82.8499Z" fill="#0A328C" stroke="#0A328C" stroke-width="0.1"/>
<path d="M127.265 84V87.5C127.265 87.95 126.265 88.25 125.015 88.25C123.765 88.25 122.715 87.95 122.715 87.5V84C122.715 84.4 123.715 84.75 124.965 84.75C126.265 84.75 127.265 84.4 127.265 84Z" fill="#F1B517" stroke="black" stroke-width="0.1"/>
<path d="M122.715 84V84.5L123.815 88L124.715 85.3L125.715 88.05L126.365 85.45L127.265 87.2V86.25L126.465 84.55C126.367 84.5871 126.267 84.6205 126.165 84.65L125.665 86.55L124.915 84.75C124.798 84.7528 124.682 84.7528 124.565 84.75L123.815 86.55L123.015 84.35C122.815 84.25 122.715 84.1 122.715 84Z" fill="#D20014" stroke="#D20014" stroke-width="0.1"/>
<path d="M127.265 86.8499V87.4999C127.265 87.9499 126.265 88.2499 125.015 88.2499C123.765 88.2499 122.715 87.9499 122.715 87.4999V86.8499C122.715 87.2999 123.715 87.5999 124.965 87.5999C126.265 87.5999 127.265 87.2999 127.265 86.8499Z" fill="#0A328C" stroke="#0A328C" stroke-width="0.1"/>
<path d="M125.915 87.4999L125.365 87.5999V88.2499L125.965 88.1999V87.5499L125.915 87.4999ZM123.515 87.4499V88.0999L124.065 88.1999V87.5499C123.88 87.5281 123.696 87.4947 123.515 87.4499ZM122.715 86.8499V87.4999C122.715 87.6499 122.815 87.7499 122.965 87.8499V87.1999C122.815 87.0999 122.715 86.9999 122.715 86.8499ZM127.265 86.9499C127.265 87.0499 127.065 87.1999 126.865 87.2999V87.9499C127.115 87.8499 127.265 87.6999 127.265 87.4999V86.9999V86.9499Z" fill="#F1B517" stroke="black" stroke-width="0.1"/>
<path d="M127.265 84V87.5C127.265 87.95 126.265 88.25 125.015 88.25C123.765 88.25 122.715 87.95 122.715 87.5V84" stroke="black" stroke-width="0.1"/>
<path d="M126.766 83.75C126.766 84 125.966 84.25 125.016 84.25C124.016 84.25 123.216 84 123.216 83.75C123.216 83.5 124.016 83.3 124.966 83.3C125.966 83.3 126.766 83.5 126.766 83.8V83.75Z" fill="white" stroke="white" stroke-width="0.1"/>
<path d="M124.415 84.1L124.515 84.7H125.015L125.065 84.1H124.415ZM126.466 83.95L125.965 84.05L126.015 84.65L126.516 84.55V84L126.466 83.95ZM123.765 82.95L123.415 83.1L123.465 83.6L123.765 83.5V83V82.95ZM124.965 82.8H124.815L124.915 83.4H125.215L125.315 82.8C125.199 82.7958 125.082 82.7958 124.965 82.8ZM126.316 83L126.266 83.5L126.616 83.65V83.15C126.519 83.0937 126.419 83.0436 126.316 83ZM123.065 84.4L123.165 83.75L122.665 83.5V84.25L123.065 84.4ZM127.266 84.25V83.6L126.866 83.75L127.266 84.25ZM131.916 80C132.316 80 132.916 80.5 132.966 81.25C132.966 81.75 132.116 81.75 132.116 81.75C132.116 82 131.616 82.2 131.216 82.25C130.816 82.25 131.316 81.5 131.316 81.5C131.066 80.85 131.416 80.15 131.416 80.15L131.916 80Z" fill="#F1B517" stroke="black" stroke-width="0.1"/>
<path d="M131.316 81.5H131.716C131.716 81.5 131.716 81.65 131.816 81.65C131.916 81.65 131.966 81.45 131.966 81.45H132.567" fill="#F1B517"/>
<path d="M131.316 81.5H131.716C131.716 81.5 131.716 81.65 131.816 81.65C131.916 81.65 131.966 81.45 131.966 81.45H132.567" stroke="black" stroke-width="0.1"/>
<path d="M132.116 80.45C132.466 80.2 132.166 79.7 131.916 79.7H131.416C131.116 79.7 130.716 80 130.766 80.2C130.766 80.45 130.966 80.55 131.166 80.5C131.266 80.5 131.466 80.2 131.566 80.2C131.716 80.2 132.066 80.5 132.116 80.45Z" fill="#D20014" stroke="#F1B517" stroke-width="0.1"/>
<path fill-rule="evenodd" clip-rule="evenodd" d="M107.163 87.3999C106.863 87.4499 106.813 87.7999 106.913 88.1499C105.613 88.4999 104.413 88.9999 103.212 89.3499C103.162 89.0999 103.812 88.4499 103.812 88.4499C103.963 88.4999 104.113 88.8999 104.113 88.8999C104.113 88.0999 104.913 87.5999 104.913 87.5999C104.413 87.4999 103.062 88.0999 102.912 88.2999C102.912 88.2999 103.412 88.1999 103.512 88.2999C103.512 88.2999 102.412 89.4499 102.362 89.7999C102.562 90.1499 104.363 90.4499 104.363 90.4499C104.363 90.5499 103.863 90.9499 103.863 90.9499C104.613 91.0499 105.713 90.5499 106.013 90.2499C106.013 90.2499 105.163 90.1499 104.513 89.5999C104.513 89.5999 104.613 89.9499 104.513 90.0999C104.513 90.0999 103.512 89.7999 103.362 89.5999C103.362 89.5999 105.863 88.9999 107.063 88.5999C107.113 88.8499 107.363 89.2499 107.663 89.1499C107.813 89.0999 107.763 88.7499 107.663 88.4499C107.704 88.4861 107.751 88.5136 107.803 88.5308C107.854 88.548 107.909 88.5545 107.963 88.5499C108.163 88.5499 108.313 88.3999 108.313 88.1999C108.313 87.9999 108.163 87.8499 107.963 87.8499C107.887 87.8539 107.814 87.8796 107.752 87.9239C107.69 87.9681 107.641 88.0292 107.613 88.0999C107.563 87.8499 107.413 87.3999 107.213 87.4499L107.163 87.3999ZM108.163 88.1999C108.163 88.2999 108.063 88.3499 107.963 88.3499C107.94 88.3582 107.915 88.3606 107.89 88.3569C107.866 88.3531 107.843 88.3434 107.823 88.3286C107.803 88.3137 107.787 88.2942 107.777 88.2717C107.766 88.2493 107.762 88.2246 107.763 88.1999C107.763 88.0999 107.863 87.9999 107.963 87.9999C108.063 87.9999 108.113 88.0999 108.113 88.1999H108.163Z" fill="#F1B517" stroke="black" stroke-width="0.1"/>
<path d="M146.568 88.95C146.668 88.75 146.568 87.85 146.568 87.85C146.318 87.85 146.068 88.2 146.068 88.2C146.318 87.4 145.668 86.2 145.668 86.2C146.118 86.25 147.618 87.7 147.668 88C147.668 88 147.018 87.75 146.918 87.8C147.068 88.55 147.568 88.9 147.768 89.3C147.768 89.3 146.918 89.45 146.968 90.2H146.418C146.218 89.95 146.468 89.55 146.468 89.55L142.617 87.95C142.367 87.85 141.817 87.55 141.917 87.25C141.967 87 142.917 87.4 143.117 87.5L146.618 88.95H146.568Z" fill="#F1B517" stroke="black" stroke-width="0.1"/>
<path d="M142.868 88.2499L143.368 87.4499C143.518 87.1999 143.168 86.9499 142.918 87.2499L142.418 87.9999C142.218 88.4499 142.668 88.5499 142.918 88.2499H142.868Z" fill="#F1B517" stroke="black" stroke-width="0.1"/>
<path d="M115.751 90.1875L115.72 89.25L114.626 89.3437L114.563 90.3125L115.751 90.1875Z" fill="white" stroke="black" stroke-width="0.1"/>
<path d="M107.688 91.4689L106.219 90.6251C112.282 91.1876 113.532 89.0626 115.001 88.9689C115.939 88.8751 116.033 89.9689 114.282 89.4376L114.751 90.5626C114.751 90.5626 110.438 93.0001 106.188 92.0001L107.688 91.4689ZM134.191 90.1876L134.222 89.2501L135.566 89.3126L135.629 90.2814L134.191 90.1876Z" fill="white" stroke="black" stroke-width="0.1"/>
<path d="M142.536 91.25L143.943 90.4688C136.942 90.6875 138.536 89.3438 135.067 88.9688C134.129 88.8438 133.504 90.0313 135.754 89.4375L135.317 90.5625H136.411C138.786 92.125 141.974 92.2813 144.099 91.7813L142.536 91.25Z" fill="white" stroke="black" stroke-width="0.1"/>
<path d="M114.282 89.4688V91.0312C114.282 91.0312 118.126 92.4688 125.034 92.4688C131.972 92.4688 135.785 91.0312 135.785 91.0312V89.4688C135.785 89.4688 132.878 90.8125 125.034 90.8125C117.22 90.8125 114.282 89.4688 114.282 89.4688Z" fill="white" stroke="black" stroke-width="0.1"/>
<path d="M114.846 91.0312L115.19 89.875L115.346 89.9375L115.033 90.9375L115.658 91.0937L115.596 91.25L114.846 91.0312ZM115.971 90.5313V90.3125L116.033 90.0937L116.221 90.1562L116.158 90.3438L116.065 90.5625L115.971 90.5313ZM117.627 90.4375L117.784 90.5L117.659 91.1563L117.534 91.4688C117.494 91.5238 117.44 91.567 117.377 91.5938H117.065C116.962 91.5762 116.865 91.5332 116.783 91.4688C116.72 91.424 116.675 91.3571 116.658 91.2812L116.69 90.9688L116.846 90.2812L117.002 90.3125L116.846 91C116.83 91.0826 116.83 91.1674 116.846 91.25C116.853 91.2974 116.875 91.3413 116.908 91.375L117.065 91.4375H117.377L117.502 91.125L117.627 90.4375ZM117.815 91.6875L118.002 90.5313H118.19L118.659 91.5938L118.815 90.6562H118.971L118.784 91.875L118.627 91.8437L118.127 90.8125L117.971 91.75L117.815 91.7187V91.6875ZM119.065 91.9062L119.253 90.7187H119.409L119.253 91.9062H119.096H119.065ZM119.565 91.375C119.565 91.1875 119.659 91.0312 119.784 90.9375C119.909 90.8423 120.065 90.7977 120.221 90.8125C120.346 90.8125 120.44 90.8437 120.534 90.9062L120.69 91.1563C120.753 91.25 120.753 91.375 120.721 91.4688C120.716 91.5789 120.684 91.6861 120.628 91.7813C120.57 91.879 120.482 91.9557 120.378 92C120.278 92.0368 120.17 92.0476 120.065 92.0312C119.955 92.0282 119.847 91.9959 119.753 91.9375C119.678 91.8706 119.624 91.7839 119.596 91.6875C119.561 91.5874 119.55 91.4802 119.565 91.375ZM119.721 91.375C119.721 91.5312 119.721 91.6875 119.815 91.75C119.878 91.8438 119.971 91.9062 120.096 91.9062C120.221 91.9062 120.315 91.9062 120.409 91.8125C120.503 91.75 120.534 91.625 120.565 91.5C120.593 91.3977 120.593 91.2898 120.565 91.1875C120.53 91.1209 120.476 91.0665 120.409 91.0312C120.347 90.9789 120.271 90.9462 120.19 90.9375C120.096 90.9375 119.971 90.9375 119.878 91.0312C119.815 91.0937 119.753 91.2187 119.721 91.4062V91.375ZM120.878 92.0938L120.972 90.9062H121.159L121.722 91.9062L121.784 90.9688H121.94L121.847 92.1875H121.69L121.097 91.1875L121.034 92.125H120.878V92.0938ZM122.628 92.2188L122.659 91.0312L123.503 91.0625V91.2187L122.847 91.1875L122.816 91.5312L123.409 91.5625V91.7187L122.784 91.6875V92.25H122.628V92.2188ZM123.566 92.25L124.034 91.0625H124.222L124.691 92.3125H124.503L124.378 91.9062H123.847L123.722 92.2812H123.534L123.566 92.25ZM123.878 91.7813H124.316L124.191 91.4688C124.165 91.376 124.145 91.2822 124.128 91.1875L124.066 91.4375L123.909 91.7813H123.878ZM124.847 92.2812V91.0937H125.035V92.2812H124.847ZM125.628 92.2812V91.25H125.222V91.125H126.191V91.25H125.785V92.3125H125.628V92.2812ZM126.879 92.2812L126.785 91.0312H126.972L127.004 92.0938H127.629V92.2188L126.847 92.25L126.879 92.2812ZM127.691 92.2188L128.066 90.9688H128.254L128.879 92.125H128.66L128.504 91.8125H127.972L127.879 92.2188H127.691ZM128.004 91.6875H128.441L128.285 91.375L128.16 91.0937C128.157 91.1778 128.146 91.2614 128.129 91.3437L128.004 91.6875ZM129.473 92.0625L129.348 90.875L130.16 90.7812L130.191 90.9375L129.535 91V91.375L130.16 91.3125V91.4688L129.566 91.5312L129.629 92.0625H129.473ZM130.41 91.4062C130.385 91.3231 130.378 91.2358 130.389 91.1497C130.4 91.0636 130.428 90.9807 130.473 90.9062C130.575 90.7842 130.721 90.7059 130.879 90.6875L131.192 90.7187C131.317 90.75 131.379 90.8125 131.442 90.9062L131.567 91.2187L131.535 91.5312C131.501 91.6325 131.436 91.7201 131.348 91.7813C131.266 91.8457 131.169 91.8887 131.067 91.9062C130.961 91.9226 130.854 91.9118 130.754 91.875C130.654 91.839 130.567 91.7736 130.504 91.6875C130.436 91.596 130.393 91.4883 130.379 91.375L130.41 91.4062ZM130.567 91.375C130.567 91.5 130.629 91.625 130.723 91.6875C130.817 91.7812 130.91 91.7813 131.035 91.7813C131.16 91.7813 131.254 91.7188 131.348 91.625C131.41 91.5313 131.41 91.4062 131.41 91.25C131.398 91.1609 131.366 91.0756 131.317 91C131.272 90.9299 131.206 90.8754 131.129 90.8438C131.057 90.8252 130.982 90.8252 130.91 90.8438C130.785 90.8438 130.692 90.875 130.598 90.9688C130.567 91.0625 130.535 91.1875 130.567 91.375ZM131.848 91.7813L131.66 90.5937L132.192 90.5H132.442C132.504 90.5 132.567 90.5 132.598 90.5625L132.692 90.75C132.692 90.8437 132.692 90.9062 132.629 90.9688C132.598 91.0312 132.504 91.0938 132.411 91.125C132.443 91.1318 132.474 91.1423 132.504 91.1563L132.661 91.3125L132.973 91.5938H132.754L132.536 91.4062C132.486 91.3517 132.434 91.2996 132.379 91.25C132.351 91.2246 132.32 91.2035 132.286 91.1875C132.255 91.1816 132.223 91.1816 132.192 91.1875H132.098L131.91 91.2187L132.035 91.75H131.848V91.7813ZM131.91 91.0937L132.223 91.0312C132.289 91.0223 132.352 91.0011 132.411 90.9688C132.443 90.9504 132.469 90.9227 132.486 90.8893C132.503 90.8559 132.509 90.8183 132.504 90.7812C132.5 90.7331 132.478 90.6883 132.442 90.6562H132.223L131.817 90.6875L131.91 91.0937ZM133.879 90.9688H134.036C134.036 91.0938 134.004 91.2188 133.942 91.2812C133.859 91.3734 133.75 91.4387 133.629 91.4688C133.527 91.4952 133.419 91.4952 133.317 91.4688C133.216 91.4346 133.128 91.3689 133.067 91.2812C132.993 91.1896 132.939 91.083 132.911 90.9688C132.887 90.866 132.887 90.759 132.911 90.6562C132.911 90.5312 133.004 90.4375 133.067 90.375L133.348 90.25H133.661C133.786 90.3125 133.848 90.375 133.911 90.5L133.754 90.5625C133.719 90.4959 133.665 90.4415 133.598 90.4062C133.527 90.3824 133.45 90.3824 133.379 90.4062C133.297 90.4074 133.218 90.4411 133.161 90.5C133.104 90.5594 133.071 90.637 133.067 90.7187V90.9375C133.092 91.0282 133.134 91.1131 133.192 91.1875C133.223 91.25 133.286 91.3125 133.379 91.3125H133.598C133.669 91.3015 133.734 91.2688 133.786 91.2187C133.848 91.1562 133.879 91.0625 133.879 90.9688ZM134.317 91.2812L134.004 90.125L134.848 89.9063L134.911 90.0312L134.192 90.2188L134.286 90.5625L134.942 90.4062L135.005 90.5313L134.317 90.7187L134.442 91.0937L135.192 90.9062V91.0312L134.317 91.2812Z" fill="black"/>
</g>
<defs>
<clipPath id="clip0_1284_62915">
<rect width="250" height="150" fill="white"/>
</clipPath>
</defs>
</svg>
