<svg width="250" height="150" viewBox="0 0 250 150" fill="none" xmlns="http://www.w3.org/2000/svg">
<g clip-path="url(#clip0_1284_63148)">
<path d="M0 0H250V150H0V0Z" fill="#18C3DF"/>
<path d="M0 50H250V100H0V50Z" fill="white"/>
<path d="M122.896 74.9998L127.067 75.8332L125.399 66.6665L122.896 74.9998Z" fill="#18C3DF"/>
<path d="M127.901 74.9998L123.731 75.8332L125.399 66.6665L127.901 74.9998Z" fill="#18C3DF"/>
<path d="M124.607 72.3574L125.337 76.8425L133.246 72.5996L124.607 72.3574Z" fill="#18C3DF"/>
<path d="M126.369 77.404L124.091 73.3809L133.203 72.5413L126.369 77.404Z" fill="#18C3DF"/>
<path d="M124.43 77.404L126.708 73.3809L117.596 72.5413L124.43 77.404Z" fill="#18C3DF"/>
<path d="M126.192 72.3574L125.462 76.8425L117.553 72.5996L126.192 72.3574Z" fill="#18C3DF"/>
<path d="M127.296 73.5415L123.559 75.1823L130.386 81.7907L127.296 73.5415Z" fill="#18C3DF"/>
<path d="M123.387 76.3574L126.118 73.3458L130.357 81.8152L123.387 76.3574Z" fill="#18C3DF"/>
<path d="M127.413 76.3574L124.681 73.3458L120.442 81.8152L127.413 76.3574Z" fill="#18C3DF"/>
<path d="M123.503 73.5415L127.241 75.1823L120.414 81.7907L123.503 73.5415Z" fill="#18C3DF"/>
<path d="M164.591 61.6561L168.761 62.4894L167.093 53.3228L164.591 61.6561Z" fill="#18C3DF"/>
<path d="M169.596 61.6561L165.425 62.4894L167.093 53.3228L169.596 61.6561Z" fill="#18C3DF"/>
<path d="M166.301 59.0136L167.032 63.4988L174.941 59.2558L166.301 59.0136Z" fill="#18C3DF"/>
<path d="M168.063 64.0603L165.785 60.0372L174.897 59.1975L168.063 64.0603Z" fill="#18C3DF"/>
<path d="M166.126 64.0603L168.403 60.0372L159.291 59.1975L166.126 64.0603Z" fill="#18C3DF"/>
<path d="M167.887 59.0136L167.157 63.4988L159.248 59.2558L167.887 59.0136Z" fill="#18C3DF"/>
<path d="M168.991 60.1977L165.254 61.8385L172.08 68.447L168.991 60.1977Z" fill="#18C3DF"/>
<path d="M165.082 63.0136L167.813 60.0021L172.052 68.4715L165.082 63.0136Z" fill="#18C3DF"/>
<path d="M169.107 63.0136L166.376 60.0021L162.137 68.4715L169.107 63.0136Z" fill="#18C3DF"/>
<path d="M165.198 60.1977L168.935 61.8385L162.108 68.447L165.198 60.1977Z" fill="#18C3DF"/>
<path d="M164.591 86.6561L168.761 87.4894L167.093 78.3228L164.591 86.6561Z" fill="#18C3DF"/>
<path d="M169.596 86.6561L165.425 87.4894L167.093 78.3228L169.596 86.6561Z" fill="#18C3DF"/>
<path d="M166.301 84.0136L167.032 88.4988L174.941 84.2558L166.301 84.0136Z" fill="#18C3DF"/>
<path d="M168.063 89.0603L165.785 85.0372L174.897 84.1975L168.063 89.0603Z" fill="#18C3DF"/>
<path d="M166.126 89.0603L168.403 85.0372L159.291 84.1975L166.126 89.0603Z" fill="#18C3DF"/>
<path d="M167.887 84.0136L167.157 88.4988L159.248 84.2558L167.887 84.0136Z" fill="#18C3DF"/>
<path d="M168.991 85.1977L165.254 86.8385L172.08 93.447L168.991 85.1977Z" fill="#18C3DF"/>
<path d="M165.082 88.0136L167.813 85.0021L172.052 93.4715L165.082 88.0136Z" fill="#18C3DF"/>
<path d="M169.107 88.0136L166.376 85.0021L162.137 93.4715L169.107 88.0136Z" fill="#18C3DF"/>
<path d="M165.198 85.1977L168.935 86.8385L162.108 93.447L165.198 85.1977Z" fill="#18C3DF"/>
<path d="M81.2031 61.6561L85.3736 62.4894L83.7054 53.3228L81.2031 61.6561Z" fill="#18C3DF"/>
<path d="M86.208 61.6561L82.0376 62.4894L83.7057 53.3228L86.208 61.6561Z" fill="#18C3DF"/>
<path d="M82.9125 59.0136L83.6429 63.4988L91.5519 59.2558L82.9125 59.0136Z" fill="#18C3DF"/>
<path d="M84.6742 64.0603L82.3965 60.0372L91.5087 59.1975L84.6742 64.0603Z" fill="#18C3DF"/>
<path d="M82.7369 64.0603L85.0147 60.0372L75.9024 59.1975L82.7369 64.0603Z" fill="#18C3DF"/>
<path d="M84.4986 59.0136L83.7683 63.4988L75.8593 59.2558L84.4986 59.0136Z" fill="#18C3DF"/>
<path d="M85.603 60.1977L81.8659 61.8385L88.6923 68.447L85.603 60.1977Z" fill="#18C3DF"/>
<path d="M81.6938 63.0136L84.425 60.0021L88.6641 68.4715L81.6938 63.0136Z" fill="#18C3DF"/>
<path d="M85.7173 63.0136L82.9862 60.0021L78.747 68.4715L85.7173 63.0136Z" fill="#18C3DF"/>
<path d="M81.8091 60.1977L85.5462 61.8385L78.7198 68.447L81.8091 60.1977Z" fill="#18C3DF"/>
<path d="M81.2031 86.6561L85.3736 87.4894L83.7054 78.3228L81.2031 86.6561Z" fill="#18C3DF"/>
<path d="M86.208 86.6561L82.0376 87.4894L83.7057 78.3228L86.208 86.6561Z" fill="#18C3DF"/>
<path d="M82.9125 84.0136L83.6429 88.4988L91.5519 84.2558L82.9125 84.0136Z" fill="#18C3DF"/>
<path d="M84.6742 89.0603L82.3965 85.0372L91.5087 84.1975L84.6742 89.0603Z" fill="#18C3DF"/>
<path d="M82.7369 89.0603L85.0147 85.0372L75.9024 84.1975L82.7369 89.0603Z" fill="#18C3DF"/>
<path d="M84.4986 84.0136L83.7683 88.4988L75.8593 84.2558L84.4986 84.0136Z" fill="#18C3DF"/>
<path d="M85.603 85.1977L81.8659 86.8385L88.6923 93.447L85.603 85.1977Z" fill="#18C3DF"/>
<path d="M81.6938 88.0136L84.425 85.0021L88.6641 93.4715L81.6938 88.0136Z" fill="#18C3DF"/>
<path d="M85.7173 88.0136L82.9862 85.0021L78.747 93.4715L85.7173 88.0136Z" fill="#18C3DF"/>
<path d="M81.8091 85.1977L85.5462 86.8385L78.7198 93.447L81.8091 85.1977Z" fill="#18C3DF"/>
</g>
<defs>
<clipPath id="clip0_1284_63148">
<rect width="250" height="150" fill="white"/>
</clipPath>
</defs>
</svg>
