<svg width="250" height="150" viewBox="0 0 250 150" fill="none" xmlns="http://www.w3.org/2000/svg">
<g clip-path="url(#clip0_1284_63372)">
<path d="M0 0H250V50H0V0Z" fill="#FF9933"/>
<path d="M0 50H250V100H0V50Z" fill="white"/>
<path d="M0 100H250V150H0V100Z" fill="#128807"/>
<path d="M117.213 95C128.49 95 137.632 86.0457 137.632 75C137.632 63.9543 128.49 55 117.213 55C105.937 55 96.7949 63.9543 96.7949 75C96.7949 86.0457 105.937 95 117.213 95Z" fill="#000088"/>
<path d="M117.214 92.5C127.081 92.5 135.08 84.665 135.08 75C135.08 65.335 127.081 57.5 117.214 57.5C107.347 57.5 99.3477 65.335 99.3477 75C99.3477 84.665 107.347 92.5 117.214 92.5Z" fill="white"/>
<path d="M117.214 78.5C119.187 78.5 120.787 76.933 120.787 75C120.787 73.067 119.187 71.5 117.214 71.5C115.24 71.5 113.641 73.067 113.641 75C113.641 76.933 115.24 78.5 117.214 78.5Z" fill="#000088"/>
<path d="M134.806 78.1831C135.309 78.248 135.771 77.9011 135.837 77.4083C135.903 76.9154 135.549 76.4634 135.046 76.3985C134.543 76.3336 134.081 76.6805 134.015 77.1733C133.949 77.6661 134.303 78.1182 134.806 78.1831Z" fill="#000088"/>
<path d="M117.213 92.5L117.826 82L117.213 77L116.601 82L117.213 92.5Z" fill="#000088"/>
<path d="M133.33 82.5658C133.779 82.7389 134.316 82.493 134.53 82.0166C134.744 81.5402 134.554 81.0137 134.105 80.8407C133.656 80.6676 133.118 80.9135 132.904 81.3899C132.69 81.8663 132.881 82.3928 133.33 82.5658Z" fill="#000088"/>
<path d="M112.506 91.9305L115.902 81.8806L116.769 76.9052L114.886 81.6235L112.506 91.9305Z" fill="#000088"/>
<path d="M130.789 86.4067C131.171 86.6906 131.748 86.5859 132.077 86.1729C132.406 85.7599 132.362 85.1949 131.98 84.911C131.597 84.6271 131.02 84.7318 130.691 85.1448C130.363 85.5579 130.406 86.1229 130.789 86.4067Z" fill="#000088"/>
<path d="M108.226 90.1894L114.136 81.3163L116.249 76.6982L113.186 80.7841L108.226 90.1894Z" fill="#000088"/>
<path d="M127.324 89.4653C127.615 89.8433 128.192 89.8913 128.612 89.5724C129.033 89.2535 129.138 88.6885 128.846 88.3105C128.555 87.9324 127.979 87.8845 127.558 88.2034C127.138 88.5223 127.033 89.0872 127.324 89.4653Z" fill="#000088"/>
<path d="M104.543 87.4092L112.569 80.3263L115.808 76.379L111.778 79.5479L104.543 87.4092Z" fill="#000088"/>
<path d="M123.234 91.478C123.45 91.9579 123.987 92.2095 124.435 92.0399C124.882 91.8704 125.07 91.3439 124.854 90.864C124.639 90.3841 124.101 90.1326 123.654 90.3021C123.206 90.4717 123.019 90.9982 123.234 91.478Z" fill="#000088"/>
<path d="M101.78 83.6892L111.356 79.1022L115.405 76.061L110.664 77.9412L101.78 83.6892Z" fill="#000088"/>
<path d="M118.665 92.4299C118.752 92.9443 119.214 93.3263 119.696 93.283C120.178 93.2397 120.498 92.7876 120.411 92.2732C120.324 91.7588 119.862 91.3769 119.38 91.4202C118.898 91.4634 118.578 91.9155 118.665 92.4299Z" fill="#000088"/>
<path d="M99.9854 79.4317L110.488 77.5233L115.21 75.6151L110.11 76.1692L99.9854 79.4317Z" fill="#000088"/>
<path d="M113.919 92.1992C113.878 92.6736 114.273 93.1257 114.801 93.209C115.329 93.2923 115.79 92.9753 115.831 92.501C115.873 92.0266 115.478 91.5745 114.95 91.4912C114.422 91.4079 113.961 91.7249 113.919 92.1992Z" fill="#000088"/>
<path d="M99.3789 74.7857L110.087 75.4617L115.139 75.2143L110.023 74.6903L99.3789 74.7857Z" fill="#000088"/>
<path d="M109.5 90.8097C109.317 91.2623 109.559 91.7888 110.04 91.9856C110.52 92.1824 111.058 91.9751 111.24 91.5224C111.422 91.0698 111.181 90.5433 110.7 90.3465C110.219 90.1497 109.682 90.3571 109.5 90.8097Z" fill="#000088"/>
<path d="M99.9382 70.4407L110.178 73.7485L115.26 74.5123L110.458 72.6492L99.9382 70.4407Z" fill="#000088"/>
<path d="M105.64 88.3669C105.31 88.7803 105.353 89.3453 105.736 89.6288C106.118 89.9124 106.695 89.8073 107.024 89.3939C107.353 88.9806 107.31 88.4156 106.928 88.132C106.546 87.8484 105.969 87.9536 105.64 88.3669Z" fill="#000088"/>
<path d="M101.781 66.3114L110.665 72.0593L115.406 73.9393L111.357 70.898L101.781 66.3114Z" fill="#000088"/>
<path d="M102.513 84.9686C102.09 85.2899 101.98 85.8548 102.269 86.2305C102.557 86.6062 103.134 86.6503 103.557 86.329C103.98 86.0077 104.09 85.4428 103.801 85.0671C103.513 84.6914 102.936 84.6473 102.513 84.9686Z" fill="#000088"/>
<path d="M104.628 62.6696L111.663 70.503L115.722 73.5422L112.624 69.5669L104.628 62.6696Z" fill="#000088"/>
<path d="M100.383 80.8847C99.8975 81.0884 99.6485 81.6149 99.8264 82.0606C100.004 82.5062 100.542 82.7023 101.027 82.4986C101.512 82.2948 101.761 81.7683 101.583 81.3227C101.405 80.877 100.868 80.6809 100.383 80.8847Z" fill="#000088"/>
<path d="M108.327 59.8692L113.045 69.2538L116.145 73.2438L114.201 68.605L108.327 59.8692Z" fill="#000088"/>
<path d="M99.4103 76.4096C98.8901 76.4874 98.5084 76.9395 98.5575 77.4193C98.6067 77.8992 99.0683 78.2251 99.5884 78.1473C100.109 78.0694 100.49 77.6173 100.441 77.1375C100.392 76.6576 99.9305 76.3317 99.4103 76.4096Z" fill="#000088"/>
<path d="M112.665 58.115L114.671 68.4061L116.611 73.0503L116.005 68.0589L112.665 58.115Z" fill="#000088"/>
<path d="M99.6661 71.7851C99.1884 71.7379 98.7268 72.1135 98.6352 72.624C98.5436 73.1345 98.8565 73.5866 99.3342 73.6338C99.812 73.681 100.274 73.3054 100.365 72.7949C100.457 72.2844 100.144 71.8323 99.6661 71.7851Z" fill="#000088"/>
<path d="M117.479 57.5234L116.772 68.0152L116.95 72.977L117.469 67.9688L117.479 57.5234Z" fill="#000088"/>
<path d="M101.099 67.4367C100.651 67.2624 100.114 67.5063 99.8986 67.9814C99.6833 68.4566 99.8716 68.983 100.319 69.1573C100.767 69.3316 101.304 69.0877 101.52 68.6126C101.735 68.1374 101.547 67.6109 101.099 67.4367Z" fill="#000088"/>
<path d="M121.926 58.0714L118.529 68.1169L117.654 73.093L119.535 68.3777L121.926 58.0714Z" fill="#000088"/>
<path d="M103.642 63.5946C103.261 63.3099 102.684 63.4135 102.353 63.8258C102.023 64.2381 102.064 64.8031 102.445 65.0877C102.826 65.3723 103.403 65.2688 103.733 64.8565C104.064 64.4441 104.023 63.8792 103.642 63.5946Z" fill="#000088"/>
<path d="M126.207 59.8119L120.296 68.6819L118.176 73.3005L121.237 69.2167L126.207 59.8119Z" fill="#000088"/>
<path d="M107.111 60.5325C106.824 60.1556 106.247 60.1094 105.823 60.4293C105.399 60.7493 105.288 61.3143 105.575 61.6913C105.863 62.0682 106.439 62.1144 106.864 61.7944C107.288 61.4744 107.398 60.9094 107.111 60.5325Z" fill="#000088"/>
<path d="M129.893 62.5883L121.864 69.6765L118.613 73.6231L122.64 70.4504L129.893 62.5883Z" fill="#000088"/>
<path d="M111.193 58.5223C110.977 58.0424 110.44 57.7907 109.993 57.9603C109.545 58.1298 109.358 58.6562 109.573 59.1362C109.789 59.6161 110.326 59.8677 110.774 59.6982C111.221 59.5287 111.409 59.0022 111.193 58.5223Z" fill="#000088"/>
<path d="M132.647 66.3112L123.071 70.8978L119.021 73.9391L123.762 72.0592L132.647 66.3112Z" fill="#000088"/>
<path d="M115.761 57.5701C115.674 57.0557 115.212 56.6737 114.73 56.7169C114.248 56.7602 113.928 57.2123 114.015 57.7267C114.102 58.2412 114.564 58.6232 115.046 58.5799C115.528 58.5367 115.848 58.0846 115.761 57.5701Z" fill="#000088"/>
<path d="M134.441 70.5685L123.938 72.4764L119.216 74.3847L124.316 73.831L134.441 70.5685Z" fill="#000088"/>
<path d="M120.512 57.8069C120.552 57.3358 120.153 56.8837 119.623 56.7971C119.093 56.7105 118.631 57.0223 118.592 57.4934C118.553 57.9645 118.951 58.4166 119.482 58.5032C120.012 58.5897 120.473 58.278 120.512 57.8069Z" fill="#000088"/>
<path d="M135.046 75.238L124.338 74.5536L119.291 74.7622L124.408 75.2778L135.046 75.238Z" fill="#000088"/>
<path d="M124.935 59.1972C125.113 58.7483 124.866 58.2218 124.382 58.0213C123.898 57.8208 123.36 58.0222 123.181 58.4711C123.002 58.92 123.25 59.4465 123.734 59.647C124.218 59.8475 124.756 59.6461 124.935 59.1972Z" fill="#000088"/>
<path d="M134.495 79.5751L124.243 76.2617L119.162 75.472L123.974 77.3294L134.495 79.5751Z" fill="#000088"/>
<path d="M128.845 61.6841C129.143 61.2986 129.05 60.7336 128.637 60.4222C128.224 60.1108 127.647 60.1709 127.349 60.5564C127.05 60.9419 127.144 61.5069 127.557 61.8183C127.97 62.1297 128.547 62.0696 128.845 61.6841Z" fill="#000088"/>
<path d="M132.707 83.7759L123.683 77.9973L118.963 75.9749L123.11 78.9855L132.707 83.7759Z" fill="#000088"/>
<path d="M131.97 65.0823C132.361 64.7887 132.42 64.2237 132.1 63.8204C131.781 63.417 131.204 63.328 130.812 63.6215C130.42 63.9151 130.362 64.4801 130.681 64.8834C131.001 65.2868 131.578 65.3758 131.97 65.0823Z" fill="#000088"/>
<path d="M129.87 87.3942L122.668 79.5383L118.633 76.3949L121.848 80.3477L129.87 87.3942Z" fill="#000088"/>
<path d="M134.093 69.1563C134.552 68.9748 134.758 68.4484 134.553 67.9804C134.349 67.5124 133.811 67.2801 133.353 67.4615C132.894 67.643 132.688 68.1694 132.893 68.6374C133.097 69.1054 133.635 69.3377 134.093 69.1563Z" fill="#000088"/>
<path d="M126.175 90.1706L121.28 80.772L118.207 76.7172L120.274 81.342L126.175 90.1706Z" fill="#000088"/>
<path d="M135.068 73.6306C135.561 73.5746 135.898 73.1225 135.822 72.6208C135.745 72.1191 135.284 71.7579 134.791 71.8139C134.298 71.8699 133.96 72.322 134.037 72.8236C134.113 73.3253 134.575 73.6866 135.068 73.6306Z" fill="#000088"/>
<path d="M121.878 91.9156L119.602 81.6139L117.703 76.9199L118.498 81.9006L121.878 91.9156Z" fill="#000088"/>
</g>
<defs>
<clipPath id="clip0_1284_63372">
<rect width="250" height="150" fill="white"/>
</clipPath>
</defs>
</svg>
