<svg width="250" height="150" viewBox="0 0 250 150" fill="none" xmlns="http://www.w3.org/2000/svg">
<g clip-path="url(#clip0_1284_63548)">
<mask id="mask0_1284_63548" style="mask-type:luminance" maskUnits="userSpaceOnUse" x="0" y="0" width="251" height="150">
<path d="M0.012207 0H250.024V150H0.012207V0Z" fill="white"/>
</mask>
<g mask="url(#mask0_1284_63548)">
<path fill-rule="evenodd" clip-rule="evenodd" d="M-39.0625 0H289.062V150H-39.0625V0Z" fill="white"/>
<path fill-rule="evenodd" clip-rule="evenodd" d="M-39.0625 100.723H289.062V150H-39.0625V100.723Z" fill="#DA0000"/>
<path fill-rule="evenodd" clip-rule="evenodd" d="M23.3398 102.832H41.2842V103.799H23.3398V102.832ZM26.0132 107.754H27.2583V108.721H26.0132V107.754ZM41.3574 107.754V108.721H37.7686V107.725L41.3574 107.754ZM43.2617 102.832H44.5068V108.691H43.2617V102.832Z" fill="white"/>
<path fill-rule="evenodd" clip-rule="evenodd" d="M50.4395 107.725V108.721H43.6279V107.725H50.4395ZM37.7686 105.41H38.9404V108.721H37.7319L37.7686 105.41Z" fill="white"/>
<path fill-rule="evenodd" clip-rule="evenodd" d="M49.4141 102.832H50.6592V108.691H49.4141V102.832ZM46.3379 102.832H47.5464V108.691H46.3379V102.832ZM29.9316 105.176V106.172H23.3398V105.176H29.9316ZM44.3237 105.176V106.172H37.7319V105.176H44.3237Z" fill="white"/>
<path fill-rule="evenodd" clip-rule="evenodd" d="M37.7686 105.439H38.9404V108.691H37.7319L37.7686 105.439Z" fill="white"/>
<path fill-rule="evenodd" clip-rule="evenodd" d="M37.7686 105.439H38.9404V108.691H37.7319L37.7686 105.439Z" fill="white"/>
<path fill-rule="evenodd" clip-rule="evenodd" d="M37.7686 105.439H38.9404V108.691H37.7319L37.7686 105.439ZM23.3765 105.439H24.585V108.691H23.3765V105.439ZM33.9233 105.439H35.1685V108.691H33.9233V105.439ZM28.6865 105.439H29.9316V108.691H28.6865V105.439Z" fill="white"/>
<path fill-rule="evenodd" clip-rule="evenodd" d="M34.7656 107.725V108.721H29.2358V107.725H34.7656ZM35.1318 105.176V106.172H31.6162V105.176H35.1318Z" fill="white"/>
<path fill-rule="evenodd" clip-rule="evenodd" d="M-6.17676 102.832H11.7676V103.799H-6.17676V102.832ZM-3.50342 107.754H-2.2583V108.721H-3.54004L-3.50342 107.754ZM11.8408 107.754V108.721H8.25195V107.725L11.8408 107.754ZM13.7451 102.832H14.9902V108.691H13.7451V102.832Z" fill="white"/>
<path fill-rule="evenodd" clip-rule="evenodd" d="M20.9229 107.725V108.721H14.1113V107.725H20.9229ZM8.25195 105.41H9.46045V108.721H8.25195V105.41Z" fill="white"/>
<path fill-rule="evenodd" clip-rule="evenodd" d="M19.8975 102.832H21.1426V108.691H19.8975V102.832ZM16.8213 102.832H18.0298V108.691H16.8213V102.832ZM0.415039 105.176V106.172H-6.17676V105.176H0.415039ZM14.8071 105.176V106.172H8.21533V105.176H14.8071Z" fill="white"/>
<path fill-rule="evenodd" clip-rule="evenodd" d="M8.25195 105.439H9.46045V108.691H8.25195V105.439Z" fill="white"/>
<path fill-rule="evenodd" clip-rule="evenodd" d="M8.25195 105.439H9.46045V108.691H8.25195V105.439Z" fill="white"/>
<path fill-rule="evenodd" clip-rule="evenodd" d="M8.25195 105.439H9.46045V108.691H8.25195V105.439ZM-6.14014 105.439H-4.93164V108.691H-6.14014V105.439ZM4.40674 105.439H5.61523V108.691H4.40674V105.439ZM-0.830078 105.439H0.41504V108.691H-0.830078V105.439Z" fill="white"/>
<path fill-rule="evenodd" clip-rule="evenodd" d="M5.24902 107.725V108.721H-0.244141V107.725H5.24902ZM5.61523 105.176V106.172H2.09961V105.176H5.61523Z" fill="white"/>
<path fill-rule="evenodd" clip-rule="evenodd" d="M52.6001 102.832H70.5444V103.799H52.6001V102.832ZM55.2734 107.754H56.5186V108.721H55.2734V107.754ZM70.6177 107.754V108.721H67.0288V107.725L70.6177 107.754ZM72.5586 102.832H73.8037V108.691H72.5586V102.832Z" fill="white"/>
<path fill-rule="evenodd" clip-rule="evenodd" d="M79.6997 107.725V108.721H72.8882V107.725H79.6997ZM67.0288 105.41H68.2739V108.721H67.0288V105.41Z" fill="white"/>
<path fill-rule="evenodd" clip-rule="evenodd" d="M78.6743 102.832H79.9194V108.691H78.6743V102.832ZM75.5981 102.832H76.8433V108.691H75.5615L75.5981 102.832ZM59.1919 105.176V106.172H52.6001V105.176H59.1919ZM73.584 105.176V106.172H66.9922V105.176H73.584Z" fill="white"/>
<path fill-rule="evenodd" clip-rule="evenodd" d="M67.0288 105.439H68.2739V108.691H67.0288V105.439Z" fill="white"/>
<path fill-rule="evenodd" clip-rule="evenodd" d="M67.0288 105.439H68.2739V108.691H67.0288V105.439Z" fill="white"/>
<path fill-rule="evenodd" clip-rule="evenodd" d="M67.0288 105.439H68.2739V108.691H67.0288V105.439ZM52.6367 105.439H53.8818V108.691H52.6367V105.439ZM63.1836 105.439H64.4287V108.691H63.1836V105.439ZM57.9468 105.439H59.1919V108.691H57.9468V105.439Z" fill="white"/>
<path fill-rule="evenodd" clip-rule="evenodd" d="M64.0625 107.725V108.721H58.4961V107.725H64.0625ZM64.4287 105.176V106.172H60.9131V105.176H64.4287Z" fill="white"/>
<path fill-rule="evenodd" clip-rule="evenodd" d="M82.0435 102.832H100.024V103.799H82.0801L82.0435 102.832ZM84.7534 107.754H85.9619V108.721H84.7534V107.754ZM100.061 107.754V108.721H96.4722V107.725L100.061 107.754ZM102.002 102.832H103.247V108.691H102.002V102.832Z" fill="white"/>
<path fill-rule="evenodd" clip-rule="evenodd" d="M109.18 107.725V108.721H102.368V107.725H109.18ZM96.4722 105.41H97.7173V108.721H96.4722V105.41Z" fill="white"/>
<path fill-rule="evenodd" clip-rule="evenodd" d="M108.154 102.832H109.399V108.691H108.154V102.832ZM105.042 102.832H106.287V108.691H105.042V102.832ZM88.6353 105.176V106.172H82.0801V105.176H88.6353ZM103.027 105.176V106.172H96.4722V105.176H103.027Z" fill="white"/>
<path fill-rule="evenodd" clip-rule="evenodd" d="M96.4722 105.439H97.7173V108.691H96.4722V105.439Z" fill="white"/>
<path fill-rule="evenodd" clip-rule="evenodd" d="M96.4722 105.439H97.7173V108.691H96.4722V105.439Z" fill="white"/>
<path fill-rule="evenodd" clip-rule="evenodd" d="M96.4722 105.439H97.7173V108.691H96.4722V105.439ZM82.0801 105.439H83.3252V108.691H82.0801V105.439ZM92.627 105.439H93.8721V108.691H92.627V105.439ZM87.4268 105.439H88.6353V108.691H87.4268V105.439Z" fill="white"/>
<path fill-rule="evenodd" clip-rule="evenodd" d="M93.5059 107.725V108.721H87.9761V107.725H93.5059ZM93.8721 105.176V106.172H90.3564V105.176H93.8721Z" fill="white"/>
<path fill-rule="evenodd" clip-rule="evenodd" d="M111.633 102.832H129.578V103.799H111.633V102.832ZM114.307 107.754H115.552V108.721H114.307V107.754ZM129.651 107.754V108.721H126.062V107.725L129.651 107.754ZM131.592 102.832H132.8V108.691H131.592V102.832Z" fill="white"/>
<path fill-rule="evenodd" clip-rule="evenodd" d="M138.733 107.725V108.721H131.921V107.725H138.733ZM126.062 105.41H127.307V108.721H126.062V105.41Z" fill="white"/>
<path fill-rule="evenodd" clip-rule="evenodd" d="M137.708 102.832H138.953V108.691H137.708V102.832ZM134.631 102.832H135.876V108.691H134.631V102.832ZM118.225 105.176V106.172H111.633V105.176H118.225ZM132.617 105.176V106.172H126.025V105.176H132.617Z" fill="white"/>
<path fill-rule="evenodd" clip-rule="evenodd" d="M126.062 105.439H127.307V108.691H126.062V105.439Z" fill="white"/>
<path fill-rule="evenodd" clip-rule="evenodd" d="M126.062 105.439H127.307V108.691H126.062V105.439Z" fill="white"/>
<path fill-rule="evenodd" clip-rule="evenodd" d="M126.062 105.439H127.307V108.691H126.062V105.439ZM111.67 105.439H112.878V108.691H111.67V105.439ZM122.217 105.439H123.462V108.691H122.217V105.439ZM116.98 105.439H118.225V108.691H116.943L116.98 105.439Z" fill="white"/>
<path fill-rule="evenodd" clip-rule="evenodd" d="M123.096 107.725V108.721H117.529V107.725H123.096ZM123.462 105.176V106.172H119.873V105.176H123.462Z" fill="white"/>
<path fill-rule="evenodd" clip-rule="evenodd" d="M-39.0625 0H289.062V49.2773H-39.0625V0Z" fill="#239F40"/>
<path fill-rule="evenodd" clip-rule="evenodd" d="M141.37 102.832H159.314V103.799H141.37V102.832ZM144.043 107.754H145.288V108.721H144.043V107.754ZM159.387 107.754V108.721H155.762V107.725L159.387 107.754ZM161.328 102.832H162.537V108.691H161.328V102.832Z" fill="white"/>
<path fill-rule="evenodd" clip-rule="evenodd" d="M168.469 107.725V108.721H161.658V107.725H168.469ZM155.798 105.41H157.043V108.721H155.762L155.798 105.41Z" fill="white"/>
<path fill-rule="evenodd" clip-rule="evenodd" d="M167.48 102.832H168.689V108.691H167.48V102.832ZM164.368 102.832H165.613V108.691H164.368V102.832ZM147.961 105.176V106.172H141.37V105.176H147.961ZM162.354 105.176V106.172H155.762V105.176H162.354Z" fill="white"/>
<path fill-rule="evenodd" clip-rule="evenodd" d="M155.762 105.439H157.043V108.691H155.762V105.439Z" fill="white"/>
<path fill-rule="evenodd" clip-rule="evenodd" d="M155.762 105.439H157.043V108.691H155.762V105.439Z" fill="white"/>
<path fill-rule="evenodd" clip-rule="evenodd" d="M155.762 105.439H157.043V108.691H155.762V105.439ZM141.406 105.439H142.651V108.691H141.406V105.439ZM151.953 105.439H153.198V108.691H151.953V105.439ZM146.716 105.439H147.961V108.691H146.716V105.439Z" fill="white"/>
<path fill-rule="evenodd" clip-rule="evenodd" d="M152.832 107.725V108.721H147.266V107.725H152.832ZM153.198 105.176V106.172H149.683V105.176H153.198Z" fill="white"/>
<path fill-rule="evenodd" clip-rule="evenodd" d="M170.923 102.832H188.867V103.799H170.923V102.832ZM173.596 107.754H174.841V108.721H173.596V107.754ZM188.977 107.754V108.721H185.352V107.725L188.977 107.754ZM190.881 102.832H192.126V108.691H190.881V102.832Z" fill="white"/>
<path fill-rule="evenodd" clip-rule="evenodd" d="M198.022 107.725V108.721H191.211V107.725H198.022ZM185.352 105.41H186.597V108.721H185.352V105.41Z" fill="white"/>
<path fill-rule="evenodd" clip-rule="evenodd" d="M197.034 102.832H198.242V108.691H197.034V102.832ZM193.921 102.832H195.166V108.691H193.921V102.832ZM177.515 105.176V106.172H170.959V105.176H177.515ZM191.907 105.176V106.172H185.352V105.176H191.907Z" fill="white"/>
<path fill-rule="evenodd" clip-rule="evenodd" d="M185.352 105.439H186.597V108.691H185.352V105.439Z" fill="white"/>
<path fill-rule="evenodd" clip-rule="evenodd" d="M185.352 105.439H186.597V108.691H185.352V105.439Z" fill="white"/>
<path fill-rule="evenodd" clip-rule="evenodd" d="M185.352 105.439H186.597V108.691H185.352V105.439ZM170.959 105.439H172.205V108.691H170.959V105.439ZM181.506 105.439H182.751V108.691H181.506V105.439ZM176.27 105.439H177.515V108.691H176.306L176.27 105.439Z" fill="white"/>
<path fill-rule="evenodd" clip-rule="evenodd" d="M182.385 107.725V108.721H176.855V107.725H182.385ZM182.751 105.176V106.172H179.199V105.176H182.751Z" fill="white"/>
<path fill-rule="evenodd" clip-rule="evenodd" d="M200.513 102.832H218.457V103.799H200.513V102.832ZM203.186 107.754H204.431V108.721H203.186V107.754ZM218.53 107.754V108.721H214.941V107.725L218.53 107.754ZM220.435 102.832H221.68V108.691H220.435V102.832Z" fill="white"/>
<path fill-rule="evenodd" clip-rule="evenodd" d="M227.612 107.725V108.721H220.801V107.725H227.612ZM214.905 105.41H216.15V108.721H214.905V105.41Z" fill="white"/>
<path fill-rule="evenodd" clip-rule="evenodd" d="M226.587 102.832H227.832V108.691H226.587V102.832ZM223.511 102.832H224.719V108.691H223.511V102.832ZM207.104 105.176V106.172H200.513V105.176H207.104ZM221.497 105.176V106.172H214.905V105.176H221.497Z" fill="white"/>
<path fill-rule="evenodd" clip-rule="evenodd" d="M214.941 105.439H216.15V108.691H214.941V105.439Z" fill="white"/>
<path fill-rule="evenodd" clip-rule="evenodd" d="M214.941 105.439H216.15V108.691H214.941V105.439Z" fill="white"/>
<path fill-rule="evenodd" clip-rule="evenodd" d="M214.941 105.439H216.15V108.691H214.941V105.439ZM200.513 105.439H201.758V108.691H200.513V105.439ZM211.096 105.439H212.305V108.691H211.096V105.439ZM205.859 105.439H207.104V108.691H205.859V105.439Z" fill="white"/>
<path fill-rule="evenodd" clip-rule="evenodd" d="M211.938 107.725V108.721H206.409V107.725H211.938ZM212.305 105.176V106.172H208.789V105.176H212.305Z" fill="white"/>
<path fill-rule="evenodd" clip-rule="evenodd" d="M230.249 102.832H248.193V103.799H230.249V102.832ZM232.922 107.754H234.167V108.721H232.922V107.754ZM248.267 107.754V108.721H244.678V107.725L248.267 107.754ZM250.171 102.832H251.416V108.691H250.171V102.832Z" fill="white"/>
<path fill-rule="evenodd" clip-rule="evenodd" d="M257.349 107.725V108.721H250.537V107.725H257.349ZM244.678 105.41H245.886V108.721H244.678V105.41Z" fill="white"/>
<path fill-rule="evenodd" clip-rule="evenodd" d="M256.323 102.832H257.568V108.691H256.323V102.832ZM253.247 102.832H254.456V108.691H253.247V102.832ZM236.841 105.176V106.172H230.249V105.176H236.841ZM251.233 105.176V106.172H244.641V105.176H251.233Z" fill="white"/>
<path fill-rule="evenodd" clip-rule="evenodd" d="M244.678 105.439H245.886V108.691H244.678V105.439Z" fill="white"/>
<path fill-rule="evenodd" clip-rule="evenodd" d="M244.678 105.439H245.886V108.691H244.678V105.439Z" fill="white"/>
<path fill-rule="evenodd" clip-rule="evenodd" d="M244.678 105.439H245.886V108.691H244.678V105.439ZM230.286 105.439H231.494V108.691H230.286V105.439ZM240.833 105.439H242.078V108.691H240.833V105.439ZM235.596 105.439H236.841V108.691H235.596V105.439Z" fill="white"/>
<path fill-rule="evenodd" clip-rule="evenodd" d="M241.675 107.725V108.721H236.145V107.725H241.675ZM242.041 105.176V106.172H238.525V105.176H242.041Z" fill="white"/>
<path fill-rule="evenodd" clip-rule="evenodd" d="M23.3398 42.0117H41.2842V43.0078H23.3398V42.0117ZM26.0132 46.9922H27.2583V47.9297H26.0132V46.9922ZM41.3574 46.9336V47.9297H37.7686V46.9336H41.3574ZM43.2617 42.0117H44.5068V47.9297H43.2617V42.0117Z" fill="white"/>
<path fill-rule="evenodd" clip-rule="evenodd" d="M50.4395 46.9336V47.9297H43.6279V46.9336H50.4395ZM37.7686 44.6191H38.9404V47.9297H37.7319L37.7686 44.6191Z" fill="white"/>
<path fill-rule="evenodd" clip-rule="evenodd" d="M49.4141 42.0117H50.6592V47.9297H49.4141V42.0117ZM46.3379 42.0117H47.5464V47.9297H46.3379V42.0117ZM29.9316 44.3555V45.3516H23.3398V44.3848L29.9316 44.3555ZM44.3237 44.3555V45.3516H37.7319V44.3848L44.3237 44.3555Z" fill="white"/>
<path fill-rule="evenodd" clip-rule="evenodd" d="M37.7686 44.6191H38.9404V47.9297H37.7319L37.7686 44.6191Z" fill="white"/>
<path fill-rule="evenodd" clip-rule="evenodd" d="M37.7686 44.6191H38.9404V47.9297H37.7319L37.7686 44.6191Z" fill="white"/>
<path fill-rule="evenodd" clip-rule="evenodd" d="M37.7686 44.6191H38.9404V47.9297H37.7319L37.7686 44.6191ZM23.3765 44.6191H24.585V47.9297H23.3765V44.6191ZM33.9233 44.6191H35.1685V47.9297H33.9233V44.6191ZM28.6865 44.6191H29.9316V47.9297H28.6865V44.6191Z" fill="white"/>
<path fill-rule="evenodd" clip-rule="evenodd" d="M34.7656 46.9336V47.9297H29.2358V46.9336H34.7656ZM35.1318 44.3848V45.3516H31.6162V44.3848H35.1318Z" fill="white"/>
<path fill-rule="evenodd" clip-rule="evenodd" d="M-6.17676 42.0117H11.7676V43.0078H-6.17676V42.0117ZM-3.50342 46.9922H-2.2583V47.9297H-3.54004L-3.50342 46.9922ZM11.8408 46.9336V47.9297H8.25195V46.9336H11.8408ZM13.7451 42.0117H14.9902V47.9297H13.7451V42.0117Z" fill="white"/>
<path fill-rule="evenodd" clip-rule="evenodd" d="M20.9229 46.9336V47.9297H14.1113V46.9336H20.9229ZM8.25195 44.6191H9.46045V47.9297H8.25195V44.6191Z" fill="white"/>
<path fill-rule="evenodd" clip-rule="evenodd" d="M19.8975 42.0117H21.1426V47.9297H19.8975V42.0117ZM16.8213 42.0117H18.0298V47.9297H16.8213V42.0117ZM0.415039 44.3555V45.3516H-6.17676V44.3848L0.415039 44.3555ZM14.8071 44.3555V45.3516H8.21533V44.3848L14.8071 44.3555Z" fill="white"/>
<path fill-rule="evenodd" clip-rule="evenodd" d="M8.25195 44.6191H9.46045V47.9297H8.25195V44.6191Z" fill="white"/>
<path fill-rule="evenodd" clip-rule="evenodd" d="M8.25195 44.6191H9.46045V47.9297H8.25195V44.6191Z" fill="white"/>
<path fill-rule="evenodd" clip-rule="evenodd" d="M8.25195 44.6191H9.46045V47.9297H8.25195V44.6191ZM-6.14014 44.6191H-4.93164V47.9297H-6.14014V44.6191ZM4.40674 44.6191H5.61523V47.9297H4.40674V44.6191ZM-0.830078 44.6191H0.41504V47.9297H-0.830078V44.6191Z" fill="white"/>
<path fill-rule="evenodd" clip-rule="evenodd" d="M5.24902 46.9336V47.9297H-0.244141V46.9336H5.24902ZM5.61523 44.3848V45.3516H2.09961V44.3848H5.61523Z" fill="white"/>
<path fill-rule="evenodd" clip-rule="evenodd" d="M52.6001 42.0117H70.5444V43.0078H52.6001V42.0117ZM55.2734 46.9922H56.5186V47.9297H55.2734V46.9922ZM70.6177 46.9336V47.9297H67.0288V46.9336H70.6177ZM72.5586 42.0117H73.8037V47.9297H72.5586V42.0117Z" fill="white"/>
<path fill-rule="evenodd" clip-rule="evenodd" d="M79.6997 46.9336V47.9297H72.8882V46.9336H79.6997ZM67.0288 44.6191H68.2739V47.9297H67.0288V44.6191Z" fill="white"/>
<path fill-rule="evenodd" clip-rule="evenodd" d="M78.6743 42.0117H79.9194V47.9297H78.6743V42.0117ZM75.5981 42.0117H76.8433V47.9297H75.5615L75.5981 42.0117ZM59.1919 44.3555V45.3516H52.6001V44.3848L59.1919 44.3555ZM73.584 44.3555V45.3516H66.9922V44.3848L73.584 44.3555Z" fill="white"/>
<path fill-rule="evenodd" clip-rule="evenodd" d="M67.0288 44.6191H68.2739V47.9297H67.0288V44.6191Z" fill="white"/>
<path fill-rule="evenodd" clip-rule="evenodd" d="M67.0288 44.6191H68.2739V47.9297H67.0288V44.6191Z" fill="white"/>
<path fill-rule="evenodd" clip-rule="evenodd" d="M67.0288 44.6191H68.2739V47.9297H67.0288V44.6191ZM52.6367 44.6191H53.8818V47.9297H52.6367V44.6191ZM63.1836 44.6191H64.4287V47.9297H63.1836V44.6191ZM57.9468 44.6191H59.1919V47.9297H57.9468V44.6191Z" fill="white"/>
<path fill-rule="evenodd" clip-rule="evenodd" d="M64.0625 46.9336V47.9297H58.4961V46.9336H64.0625ZM64.4287 44.3848V45.3516H60.9131V44.3848H64.4287Z" fill="white"/>
<path fill-rule="evenodd" clip-rule="evenodd" d="M82.0435 42.0117H100.024V43.0078H82.0801L82.0435 42.0117ZM84.7534 46.9922H85.9619V47.9297H84.7534V46.9922ZM100.061 46.9336V47.9297H96.4722V46.9336H100.061ZM102.002 42.0117H103.247V47.9297H102.002V42.0117Z" fill="white"/>
<path fill-rule="evenodd" clip-rule="evenodd" d="M109.18 46.9336V47.9297H102.368V46.9336H109.18ZM96.4722 44.6191H97.7173V47.9297H96.4722V44.6191Z" fill="white"/>
<path fill-rule="evenodd" clip-rule="evenodd" d="M108.154 42.0117H109.399V47.9297H108.154V42.0117ZM105.042 42.0117H106.287V47.9297H105.042V42.0117ZM88.6353 44.3555V45.3516H82.0801V44.3848L88.6353 44.3555ZM103.027 44.3555V45.3516H96.4722V44.3848L103.027 44.3555Z" fill="white"/>
<path fill-rule="evenodd" clip-rule="evenodd" d="M96.4722 44.6191H97.7173V47.9297H96.4722V44.6191Z" fill="white"/>
<path fill-rule="evenodd" clip-rule="evenodd" d="M96.4722 44.6191H97.7173V47.9297H96.4722V44.6191Z" fill="white"/>
<path fill-rule="evenodd" clip-rule="evenodd" d="M96.4722 44.6191H97.7173V47.9297H96.4722V44.6191ZM82.0801 44.6191H83.3252V47.9297H82.0801V44.6191ZM92.627 44.6191H93.8721V47.9297H92.627V44.6191ZM87.4268 44.6191H88.6353V47.9297H87.4268V44.6191Z" fill="white"/>
<path fill-rule="evenodd" clip-rule="evenodd" d="M93.5059 46.9336V47.9297H87.9761V46.9336H93.5059ZM93.8721 44.3848V45.3516H90.3564V44.3848H93.8721Z" fill="white"/>
<path fill-rule="evenodd" clip-rule="evenodd" d="M111.633 42.0117H129.578V43.0078H111.633V42.0117ZM114.307 46.9922H115.552V47.9297H114.307V46.9922ZM129.651 46.9336V47.9297H126.062V46.9336H129.651ZM131.592 42.0117H132.8V47.9297H131.592V42.0117Z" fill="white"/>
<path fill-rule="evenodd" clip-rule="evenodd" d="M138.733 46.9336V47.9297H131.921V46.9336H138.733ZM126.062 44.6191H127.307V47.9297H126.062V44.6191Z" fill="white"/>
<path fill-rule="evenodd" clip-rule="evenodd" d="M137.708 42.0117H138.953V47.9297H137.708V42.0117ZM134.631 42.0117H135.876V47.9297H134.631V42.0117ZM118.225 44.3555V45.3516H111.633V44.3848L118.225 44.3555ZM132.617 44.3555V45.3516H126.025V44.3848L132.617 44.3555Z" fill="white"/>
<path fill-rule="evenodd" clip-rule="evenodd" d="M126.062 44.6191H127.307V47.9297H126.062V44.6191Z" fill="white"/>
<path fill-rule="evenodd" clip-rule="evenodd" d="M126.062 44.6191H127.307V47.9297H126.062V44.6191Z" fill="white"/>
<path fill-rule="evenodd" clip-rule="evenodd" d="M126.062 44.6191H127.307V47.9297H126.062V44.6191ZM111.67 44.6191H112.878V47.9297H111.67V44.6191ZM122.217 44.6191H123.462V47.9297H122.217V44.6191ZM116.98 44.6191H118.225V47.9297H116.943L116.98 44.6191Z" fill="white"/>
<path fill-rule="evenodd" clip-rule="evenodd" d="M123.096 46.9336V47.9297H117.529V46.9336H123.096ZM123.462 44.3848V45.3516H119.873V44.3848H123.462Z" fill="white"/>
<path fill-rule="evenodd" clip-rule="evenodd" d="M141.37 42.0117H159.314V43.0078H141.37V42.0117ZM144.043 46.9922H145.288V47.9297H144.043V46.9922ZM159.387 46.9336V47.9297H155.762V46.9336H159.387ZM161.328 42.0117H162.537V47.9297H161.328V42.0117Z" fill="white"/>
<path fill-rule="evenodd" clip-rule="evenodd" d="M168.469 46.9336V47.9297H161.658V46.9336H168.469ZM155.798 44.6191H157.043V47.9297H155.762L155.798 44.6191Z" fill="white"/>
<path fill-rule="evenodd" clip-rule="evenodd" d="M167.48 42.0117H168.689V47.9297H167.48V42.0117ZM164.368 42.0117H165.613V47.9297H164.368V42.0117ZM147.961 44.3555V45.3516H141.37V44.3848L147.961 44.3555ZM162.354 44.3555V45.3516H155.762V44.3848L162.354 44.3555Z" fill="white"/>
<path fill-rule="evenodd" clip-rule="evenodd" d="M155.762 44.6191H157.043V47.9297H155.762V44.6191Z" fill="white"/>
<path fill-rule="evenodd" clip-rule="evenodd" d="M155.762 44.6191H157.043V47.9297H155.762V44.6191Z" fill="white"/>
<path fill-rule="evenodd" clip-rule="evenodd" d="M155.762 44.6191H157.043V47.9297H155.762V44.6191ZM141.406 44.6191H142.651V47.9297H141.406V44.6191ZM151.953 44.6191H153.198V47.9297H151.953V44.6191ZM146.716 44.6191H147.961V47.9297H146.716V44.6191Z" fill="white"/>
<path fill-rule="evenodd" clip-rule="evenodd" d="M152.832 46.9336V47.9297H147.266V46.9336H152.832ZM153.198 44.3848V45.3516H149.683V44.3848H153.198Z" fill="white"/>
<path fill-rule="evenodd" clip-rule="evenodd" d="M170.923 42.0117H188.867V43.0078H170.923V42.0117ZM173.596 46.9922H174.841V47.9297H173.596V46.9922ZM188.977 46.9336V47.9297H185.352V46.9336H188.977ZM190.881 42.0117H192.126V47.9297H190.881V42.0117Z" fill="white"/>
<path fill-rule="evenodd" clip-rule="evenodd" d="M198.022 46.9336V47.9297H191.211V46.9336H198.022ZM185.352 44.6191H186.597V47.9297H185.352V44.6191Z" fill="white"/>
<path fill-rule="evenodd" clip-rule="evenodd" d="M197.034 42.0117H198.242V47.9297H197.034V42.0117ZM193.921 42.0117H195.166V47.9297H193.921V42.0117ZM177.515 44.3555V45.3516H170.959V44.3848L177.515 44.3555ZM191.907 44.3555V45.3516H185.352V44.3848L191.907 44.3555Z" fill="white"/>
<path fill-rule="evenodd" clip-rule="evenodd" d="M185.352 44.6191H186.597V47.9297H185.352V44.6191Z" fill="white"/>
<path fill-rule="evenodd" clip-rule="evenodd" d="M185.352 44.6191H186.597V47.9297H185.352V44.6191Z" fill="white"/>
<path fill-rule="evenodd" clip-rule="evenodd" d="M185.352 44.6191H186.597V47.9297H185.352V44.6191ZM170.959 44.6191H172.205V47.9297H170.959V44.6191ZM181.506 44.6191H182.751V47.9297H181.506V44.6191ZM176.27 44.6191H177.515V47.9297H176.306L176.27 44.6191Z" fill="white"/>
<path fill-rule="evenodd" clip-rule="evenodd" d="M182.385 46.9336V47.9297H176.855V46.9336H182.385ZM182.751 44.3848V45.3516H179.199V44.3848H182.751Z" fill="white"/>
<path fill-rule="evenodd" clip-rule="evenodd" d="M200.513 42.0117H218.457V43.0078H200.513V42.0117ZM203.186 46.9922H204.431V47.9297H203.186V46.9922ZM218.53 46.9336V47.9297H214.941V46.9336H218.53ZM220.435 42.0117H221.68V47.9297H220.435V42.0117Z" fill="white"/>
<path fill-rule="evenodd" clip-rule="evenodd" d="M227.612 46.9336V47.9297H220.801V46.9336H227.612ZM214.905 44.6191H216.15V47.9297H214.905V44.6191Z" fill="white"/>
<path fill-rule="evenodd" clip-rule="evenodd" d="M226.587 42.0117H227.832V47.9297H226.587V42.0117ZM223.511 42.0117H224.719V47.9297H223.511V42.0117ZM207.104 44.3555V45.3516H200.513V44.3848L207.104 44.3555ZM221.497 44.3555V45.3516H214.905V44.3848L221.497 44.3555Z" fill="white"/>
<path fill-rule="evenodd" clip-rule="evenodd" d="M214.941 44.6191H216.15V47.9297H214.941V44.6191Z" fill="white"/>
<path fill-rule="evenodd" clip-rule="evenodd" d="M214.941 44.6191H216.15V47.9297H214.941V44.6191Z" fill="white"/>
<path fill-rule="evenodd" clip-rule="evenodd" d="M214.941 44.6191H216.15V47.9297H214.941V44.6191ZM200.513 44.6191H201.758V47.9297H200.513V44.6191ZM211.096 44.6191H212.305V47.9297H211.096V44.6191ZM205.859 44.6191H207.104V47.9297H205.859V44.6191Z" fill="white"/>
<path fill-rule="evenodd" clip-rule="evenodd" d="M211.938 46.9336V47.9297H206.409V46.9336H211.938ZM212.305 44.3848V45.3516H208.789V44.3848H212.305Z" fill="white"/>
<path fill-rule="evenodd" clip-rule="evenodd" d="M230.249 42.0117H248.193V43.0078H230.249V42.0117ZM232.922 46.9922H234.167V47.9297H232.922V46.9922ZM248.267 46.9336V47.9297H244.678V46.9336H248.267ZM250.171 42.0117H251.416V47.9297H250.171V42.0117Z" fill="white"/>
<path fill-rule="evenodd" clip-rule="evenodd" d="M257.349 46.9336V47.9297H250.537V46.9336H257.349ZM244.678 44.6191H245.886V47.9297H244.678V44.6191Z" fill="white"/>
<path fill-rule="evenodd" clip-rule="evenodd" d="M256.323 42.0117H257.568V47.9297H256.323V42.0117ZM253.247 42.0117H254.456V47.9297H253.247V42.0117ZM236.841 44.3555V45.3516H230.249V44.3848L236.841 44.3555ZM251.233 44.3555V45.3516H244.641V44.3848L251.233 44.3555Z" fill="white"/>
<path fill-rule="evenodd" clip-rule="evenodd" d="M244.678 44.6191H245.886V47.9297H244.678V44.6191Z" fill="white"/>
<path fill-rule="evenodd" clip-rule="evenodd" d="M244.678 44.6191H245.886V47.9297H244.678V44.6191Z" fill="white"/>
<path fill-rule="evenodd" clip-rule="evenodd" d="M244.678 44.6191H245.886V47.9297H244.678V44.6191ZM230.286 44.6191H231.494V47.9297H230.286V44.6191ZM240.833 44.6191H242.078V47.9297H240.833V44.6191ZM235.596 44.6191H236.841V47.9297H235.596V44.6191Z" fill="white"/>
<path fill-rule="evenodd" clip-rule="evenodd" d="M241.675 46.9336V47.9297H236.145V46.9336H241.675ZM242.041 44.3848V45.3516H238.525V44.3848H242.041Z" fill="white"/>
<path fill-rule="evenodd" clip-rule="evenodd" d="M6.05469 99.4629H8.25195V102.539H6.05469V99.4629ZM64.8316 99.4629H67.0288V102.539H64.8316V99.4629ZM-39.0625 99.4629H-36.8652V102.539H-39.0625V99.4629ZM-9.21631 99.4629H-7.01904V102.539H-9.21631V99.4629ZM20.4102 99.4629H22.6074V102.539H20.4102V99.4629ZM35.0586 99.4629H37.2559V102.539H35.0586V99.4629ZM50.0366 99.4629H52.2339V102.539H50.0366V99.4629ZM79.48 99.4629H81.6773V102.539H79.48V99.4629ZM153.821 99.4629H156.055V102.539H153.857L153.821 99.4629ZM94.458 99.4629H96.6553V102.539H94.458V99.4629ZM109.106 99.4629H111.304V102.539H109.106V99.4629ZM123.938 99.4629H126.135V102.539H123.938V99.4629ZM138.733 99.4629H140.93V102.539H138.733V99.4629ZM257.092 99.4629H259.29V102.539H257.092V99.4629ZM168.213 99.4629H170.41V102.539H168.213V99.4629ZM183.154 99.4629H185.352V102.539H183.154V99.4629ZM198.279 99.4629H200.476V102.539H198.279V99.4629ZM212.488 99.4629H214.685V102.539H212.488V99.4629ZM227.612 99.4629H229.81V102.539H227.612V99.4629ZM242.407 99.4629H244.604V102.539H242.407V99.4629ZM286.243 99.4629H288.44V102.539H286.243V99.4629ZM272.034 99.4629H274.231V102.539H272.034V99.4629ZM-24.1943 99.4629H-21.9971V102.539H-24.1943V99.4629Z" fill="#D90000"/>
<path fill-rule="evenodd" clip-rule="evenodd" d="M6.05469 47.6367H8.25195V50.7129H6.05469V47.6367ZM64.8316 47.6367H67.0288V50.7129H64.8316V47.6367ZM-39.0625 47.6367H-36.8652V50.7129H-39.0625V47.6367ZM-9.21631 47.6367H-7.01904V50.7129H-9.21631V47.6367ZM20.4102 47.6367H22.6074V50.7129H20.4102V47.6367ZM35.0586 47.6367H37.2559V50.7129H35.0586V47.6367ZM50.0366 47.6367H52.2339V50.7129H50.0366V47.6367ZM79.48 47.6367H81.6773V50.7129H79.48V47.6367ZM153.821 47.6367H156.055V50.7129H153.857L153.821 47.6367ZM94.458 47.6367H96.6553V50.7129H94.458V47.6367ZM109.106 47.6367H111.304V50.7129H109.106V47.6367ZM123.938 47.6367H126.135V50.7129H123.938V47.6367ZM138.733 47.6367H140.93V50.7129H138.733V47.6367ZM257.092 47.6367H259.29V50.7129H257.092V47.6367ZM168.213 47.6367H170.41V50.7129H168.213V47.6367ZM183.154 47.6367H185.352V50.7129H183.154V47.6367ZM198.279 47.6367H200.476V50.7129H198.279V47.6367ZM212.488 47.6367H214.685V50.7129H212.488V47.6367ZM227.612 47.6367H229.81V50.7129H227.612V47.6367ZM242.407 47.6367H244.604V50.7129H242.407V47.6367ZM286.243 47.6367H288.44V50.7129H286.243V47.6367ZM272.034 47.6367H274.231V50.7129H272.034V47.6367ZM-24.1943 47.6367H-21.9971V50.7129H-24.1943V47.6367Z" fill="#239E3F"/>
<path fill-rule="evenodd" clip-rule="evenodd" d="M132.316 57.8613C134.777 60.9082 142.425 77.666 127.716 88.6816C120.772 93.8965 125.079 94.1309 125.284 95.0098C136.418 89.1211 140.022 81.0937 139.934 73.916C139.876 66.7676 136.067 60.4395 132.316 57.8613Z" fill="#DA0000"/>
<path fill-rule="evenodd" clip-rule="evenodd" d="M133.781 57.0703C136.5 58.7243 138.817 60.9616 140.565 63.6206C142.313 66.2795 143.448 69.2936 143.888 72.4449C144.328 75.5962 144.062 78.8059 143.11 81.8419C142.158 84.878 140.543 87.6645 138.381 90C146.351 88.2422 156.548 64.6875 133.781 57.0703ZM116.904 57.0703C114.188 58.7268 111.873 60.966 110.128 63.6262C108.383 66.2863 107.251 69.3009 106.814 72.452C106.376 75.6032 106.644 78.8121 107.599 81.8469C108.554 84.8816 110.171 87.6665 112.333 90C104.334 88.2422 94.1667 64.6875 116.904 57.0703Z" fill="#DA0000"/>
<path fill-rule="evenodd" clip-rule="evenodd" d="M118.369 57.8613C115.908 60.9082 108.261 77.666 122.969 88.6816C129.884 93.8965 125.607 94.1309 125.401 95.0098C114.267 89.1211 110.663 81.0937 110.751 73.916C110.81 66.7676 114.619 60.4395 118.369 57.8613Z" fill="#DA0000"/>
<path fill-rule="evenodd" clip-rule="evenodd" d="M139.466 93.4863C135.1 93.5449 129.621 92.9004 125.548 90.7617C126.222 92.0801 126.778 92.9004 127.452 94.1894C131.32 94.5703 136.682 95.0098 139.466 93.4863ZM111.63 93.4863C115.996 93.5449 121.475 92.9004 125.548 90.7617C124.874 92.0801 124.317 92.9004 123.643 94.1894C119.775 94.5703 114.413 95.0098 111.63 93.4863ZM119.629 52.8516C120.508 55.1953 122.823 55.5469 125.284 54.1699C127.101 55.2246 129.884 55.3125 130.851 52.9688C131.584 58.7695 125.489 57.3633 125.284 56.25C122.999 58.4473 118.779 57.1875 119.629 52.8516Z" fill="#DA0000"/>
<path fill-rule="evenodd" clip-rule="evenodd" d="M125.459 97.1484L127.745 94.5117L128.067 59.3262L125.342 56.9238L122.617 59.209L123.174 94.6582L125.459 97.1484Z" fill="#DA0000"/>
</g>
</g>
<defs>
<clipPath id="clip0_1284_63548">
<rect width="250" height="150" fill="white"/>
</clipPath>
</defs>
</svg>
