<svg width="250" height="150" viewBox="0 0 250 150" fill="none" xmlns="http://www.w3.org/2000/svg">
<g clip-path="url(#clip0_1284_62481)">
<path d="M0 50H250V100H0V50Z" fill="white"/>
<path d="M0 0H250V50H0V0Z" fill="#CE1126"/>
<path d="M0 100H250V150H0V100Z" fill="black"/>
<path d="M146.658 65.8172C146.373 65.6804 146.114 65.4951 145.892 65.2698C145.728 64.996 145.837 64.996 146.549 65.1603C147.808 65.5435 148.628 65.3792 149.449 64.7223L150.161 64.1201L150.982 64.5033C151.474 64.7771 151.967 64.9413 152.076 64.8865C152.459 64.7771 153.226 63.7917 153.171 63.4632C153.171 63.08 153.499 63.1895 153.718 63.6274C154.046 64.5033 153.554 65.5435 152.624 65.7625C152.24 65.8719 151.857 65.8172 151.201 65.5982C150.434 65.3245 150.27 65.3245 149.887 65.5982C149.429 65.9449 148.879 66.1502 148.305 66.1891C147.732 66.228 147.159 66.0988 146.658 65.8172ZM149.832 62.9157C149.462 62.2462 149.273 61.4912 149.285 60.726C149.34 60.3975 149.449 60.288 149.723 60.3975C150.27 60.5617 150.38 60.9449 150.27 62.0398C150.27 63.0252 150.106 63.299 149.832 62.9157ZM112.837 61.8756C112.782 62.5873 114.15 64.3938 114.752 64.7223C114.314 64.8865 113.822 64.8318 113.439 64.996C111.249 67.1858 103.369 74.85 101.946 76.7113C106.215 76.8208 110.921 76.6566 114.916 76.4923C114.916 73.5909 117.653 73.4267 119.513 72.3865C120.444 73.8646 122.797 73.7551 123.125 75.9997V85.6347H86.7315C86.5938 86.3652 86.3044 87.0587 85.8818 87.6703C85.4592 88.2819 84.913 88.7979 84.2785 89.1849C83.6439 89.5719 82.9352 89.8214 82.1982 89.9171C81.4612 90.0128 80.7123 89.9526 80 89.7405C81.0946 88.6456 82.9553 88.2076 83.612 86.6201C84.1593 83.1164 82.5175 80.9814 81.4229 78.9558C82.7996 78.5143 84.094 77.8484 85.2539 76.9851C83.9951 80.8172 88.647 80.4339 92.0401 80.3245C92.1495 79.0106 92.0948 77.4778 91.1097 77.2588C92.3684 76.7661 92.5874 76.6018 94.7217 74.85V80.1055L119.951 80.0507C119.951 78.4084 120.389 75.7259 119.076 75.7259C117.872 75.7259 119.076 79.1201 118.09 79.1201H98.5527V75.8354C99.3736 74.9595 99.2641 75.0142 104.901 69.3756C105.448 68.8281 109.443 65.215 112.891 61.8756H112.837ZM161.599 61.7114C162.967 62.4778 164.062 63.4632 165.703 63.9011C165.539 64.6128 164.883 64.8865 164.718 65.5982V80.3792C166.579 80.7624 167.017 79.6675 167.893 79.1201C168.111 81.4741 169.644 83.7733 169.534 85.6894H161.599V61.7661V61.7114ZM150.982 69.6493C150.982 69.6493 153.882 67.1858 153.882 67.0763V79.9412H155.962L155.907 65.5435C156.728 64.6676 158.425 63.4632 158.808 62.5873V85.5799H140.529C140.255 80.8172 140.2 75.8902 145.783 76.9303V75.0143C145.618 74.6858 145.29 75.069 145.235 74.631C146.111 73.7551 146.385 73.5362 148.793 71.4559L148.847 79.9412H150.982V69.6493ZM144.086 79.8318C144.469 80.3792 145.837 80.3792 145.728 79.3938C145.564 78.5726 143.812 78.8464 144.086 79.8318Z" fill="#007A3D"/>
<path d="M91.1092 89.4669C91.7137 89.4669 92.2038 88.9767 92.2038 88.372C92.2038 87.7673 91.7137 87.2771 91.1092 87.2771C90.5047 87.2771 90.0146 87.7673 90.0146 88.372C90.0146 88.9767 90.5047 89.4669 91.1092 89.4669Z" fill="#007A3D"/>
<path d="M125.589 61.7661C126.957 62.4778 128.052 63.5179 129.748 63.9559C129.529 64.6128 128.927 64.8865 128.763 65.5982V80.3792C130.624 80.7624 131.007 79.7223 131.883 79.1201C132.156 81.4741 133.634 83.8281 133.579 85.6894H125.589V61.7661Z" fill="#007A3D"/>
</g>
<defs>
<clipPath id="clip0_1284_62481">
<rect width="250" height="150" fill="white"/>
</clipPath>
</defs>
</svg>
