<svg width="250" height="150" viewBox="0 0 250 150" fill="none" xmlns="http://www.w3.org/2000/svg">
<g clip-path="url(#clip0_1284_63082)">
<path d="M0 0H250V150H0V0Z" fill="#00ABC2"/>
<path d="M138.995 106.72C138.455 106.75 137.931 106.82 137.416 106.985C136.712 107.08 136.038 107.325 135.339 107.44L135.059 107.485L134.59 107.53C134.62 107.66 134.64 107.79 134.64 107.92C134.64 108.055 134.625 108.185 134.59 108.295C134.56 108.4 134.465 108.53 134.39 108.61C134.29 108.72 134.186 108.815 134.061 108.875C133.941 108.935 133.806 108.96 133.671 108.97C133.536 108.975 133.396 108.97 133.267 108.92C133.132 108.875 133.007 108.79 132.892 108.69C132.754 108.724 132.614 108.749 132.473 108.765C132.333 108.78 132.203 108.78 132.078 108.765C131.938 108.725 131.793 108.68 131.659 108.625C131.523 108.569 131.392 108.5 131.269 108.42C130.76 108.72 130.19 109.005 129.881 109.53C129.706 109.77 129.671 110.045 129.631 110.33C129.606 110.68 129.696 111.05 129.846 111.375C129.901 111.47 129.946 111.03 130.115 110.97C130.4 110.735 130.755 110.565 131.114 110.47C131.419 110.315 131.379 110.48 131.254 110.72C131.224 110.845 131.054 111.32 131.284 111.08C132.298 110.63 133.421 110.54 134.515 110.455C136.103 110.29 137.696 110.255 139.289 110.235L143.784 110.33C144.498 110.35 145.217 110.51 145.921 110.39C146.091 110.345 146.356 110.335 146.456 110.235C146.136 110.05 145.761 110.045 145.407 110H142.55C141.756 109.92 140.927 109.91 140.178 109.61C139.978 109.53 139.794 109.34 139.604 109.545C139.319 109.645 139.015 109.715 138.715 109.735C138.191 109.775 137.666 109.665 137.182 109.47C137.531 108.985 137.951 108.56 138.335 108.11C138.026 108.06 137.726 107.995 137.416 107.92C137.961 107.545 138.465 107.12 138.995 106.72Z" fill="#FFEC2D"/>
<path d="M162.326 111.902C161.241 112.554 160.413 111.398 159.505 111.051C158.857 111.403 158.797 112.582 158.191 113.14C157.467 113.965 156.579 112.91 156.645 112.095C155.779 112.826 155.341 114.484 153.94 114.262C153.277 113.72 152.783 112.582 152.276 113.878C151.863 114.511 150.762 115.412 150.191 114.456C150.015 113.611 149.592 112.618 149.133 113.96C148.818 114.908 147.807 115.606 146.829 115.191C146.294 114.753 147.259 113.132 146.577 113.247C145.558 113.921 144.966 115.596 143.544 115.462C142.992 114.841 143.879 113.79 143.274 113.102C142.559 114.02 141.766 115.365 140.53 115.462C139.932 114.977 140.553 113.587 140.172 113.381C138.903 114.143 137.565 115.5 135.97 115.075C136.591 112.694 139.189 111.859 141.374 111.673C145.133 111.21 149.087 112.061 152.704 110.702C153.288 110.346 154.704 109.842 154.2 109.016C153.753 108.364 155.361 108.619 155.516 107.857C155.42 106.893 156.254 107.026 157.068 106.941C160.72 106.783 164.328 107.553 167.969 107.684C168.244 109.461 166.276 110.708 164.691 110.159C163.934 110.282 162.8 108.417 163.022 109.774C162.87 110.486 162.976 111.426 162.326 111.902M131.254 108.265C132.1 109.04 132.693 108.119 133.483 107.783C136.134 106.87 138.446 105.275 140.726 103.681C142.107 102.536 143.305 101.052 145.16 100.681C148.779 99.5855 152.626 99.7184 156.259 98.7074C159.025 94.9154 163.723 93.5625 167.659 91.3829C168.543 91.1079 168.884 90.3797 169.167 89.5757C170.669 87.2012 172.716 85.0971 175.136 83.6598C176.281 83.0333 177.648 82.6725 178.944 82.959C178.851 84.5051 177.965 85.8753 176.896 86.9445C177.771 86.9253 178.523 86.3717 179.408 86.4029C179.711 87.9896 178 88.82 177.089 89.8079C177.596 89.9259 179.539 90.0731 178.48 90.5817C177.131 91.5192 175.59 92.1629 174.345 93.2516C175.494 93.4583 175.625 93.7028 174.457 94.1189C173.824 94.5482 172.608 94.6982 172.49 95.5344C173.358 96.0686 172.09 96.599 171.601 96.7727C170.666 96.9908 169.684 97.3974 170.926 98.1087C170.456 98.8194 169.448 98.9711 168.625 98.9007C168.875 99.7062 169.236 100.608 168.192 100.963C165.851 102.734 163.104 104.023 160.162 104.318C163.838 104.601 167.624 103.918 170.765 101.916C171.179 101.425 173.354 100.898 172.138 100.485C171.565 100.247 170.338 99.9815 170.255 99.5444C171.956 98.4935 174.099 98.8673 175.93 98.243C175.977 97.6497 174.537 97.8147 174.001 97.6797C172.721 97.5747 172.796 97.2477 174.03 97.1265C175.591 96.7125 177.36 96.6311 178.673 95.6118C177.604 95.1158 176.259 95.5524 175.118 95.1474C177.052 94.2999 179.334 94.2149 181.069 92.9418C181.86 92.0613 180.057 92.3364 179.531 92.3579C178.46 92.5446 177.965 92.0312 179.182 91.5855C181.26 90.0515 183.891 89.055 185.351 86.831C185.697 86.3331 186.165 84.8331 185.062 85.3727C183.612 85.8555 182.336 87.4878 180.683 86.9829C183.939 84.4563 187.037 81.5799 189.263 78.0834C189.378 77.075 187.797 76.9659 187.385 77.7576C185.293 79.7757 183.4 82.1579 180.722 83.4231C183.287 80.9444 185.407 78.0093 187.258 74.9673C187.654 74.0625 188.72 72.9744 188.142 71.9699C187.209 71.1969 186.043 71.9045 185.558 72.8294C183.932 74.9549 182.697 77.4357 180.606 79.1669C182.437 75.6687 184.332 71.9448 184.378 67.91C184.373 67.0793 184.206 65.8559 183.079 66.011C182.186 66.1713 182.398 67.5098 182.03 68.1867C181.219 70.9433 180.839 73.9286 179.176 76.3422C179.55 74.1023 180.205 71.7672 179.702 69.5052C179.467 68.4944 177.837 68.9292 178.047 69.9297C176.099 79.8087 169.478 88.4487 160.819 93.4467C156.855 95.6927 152.426 97.1406 147.921 97.797C146.709 98.0627 145.398 97.9068 144.24 98.3205C141.433 100.476 139.733 104.082 136.179 105.211C134.586 106.003 132.509 106.164 131.37 107.646C131.272 107.835 131.251 108.055 131.254 108.265Z" fill="#FFEC2D"/>
<path d="M141.891 98.2426C141.367 99.1957 141.058 100.291 140.384 101.145C138.356 99.2965 135.415 99.3575 132.841 99.2345C130.718 99.121 128.408 98.9248 126.764 97.4082C125.036 95.9904 123.625 94.1496 121.693 92.9992C119.93 92.5192 118.152 91.9186 116.735 90.7086C113.705 88.2363 111.97 84.568 109.01 82.0186C108.446 81.4624 107.781 81.0314 107.148 80.5595C106.548 80.7061 106.819 82.0042 106.084 81.3426C105.684 81.0576 104.684 81.0298 104.594 81.4279C105.499 82.6219 106.405 83.9852 106.53 85.5124C105.913 85.5757 104.815 85.3819 104.509 85.612C105.329 86.842 106.38 87.9329 107.574 88.8014C107.001 88.8935 105.873 88.8434 105.653 89.0744C106.838 90.0413 108.109 91.0295 109.66 91.2779C109.978 91.697 109.196 92.5064 109.854 92.8643C110.235 93.0203 111.493 93.2814 110.626 93.7156C110.032 94.1169 110.252 95.0521 111.013 95.0311C111.494 95.2771 112.574 95.3372 112.658 95.7631C112.232 96.1973 110.906 96.7123 112.034 97.1191C113.089 97.7047 114.292 98.0849 115.496 98.1266C114.892 98.6357 114.147 98.9246 113.525 99.4036C116.304 101.035 119.385 102.108 122.429 103.141C123.641 103.547 124.867 103.925 126.124 104.163C122.473 103.952 118.944 102.87 115.619 101.389C113.896 100.632 112.161 99.9007 110.395 99.2489C111.169 98.8454 112.065 98.7469 112.868 98.3977C111.201 98.0632 109.379 97.9537 107.914 97.0361C108.139 96.6347 108.99 96.6158 109.461 96.4115C110.346 96.1991 110.896 95.9414 109.647 95.8643C108.388 95.5222 106.944 95.6758 105.834 94.9152C105.905 94.4592 107.067 94.6181 107.54 94.4212C108.135 94.3187 108.798 94.2329 109.274 93.8317C107.327 93.0236 104.781 93.5962 103.256 91.875C102.904 91.2192 104.348 91.7474 104.759 91.6381C105.804 91.6381 106.926 91.9705 107.921 91.5488C105.084 90.3019 102.046 89.1346 99.8827 86.8282C99.6425 86.4574 98.9228 85.4444 99.5035 85.3192C101.187 85.5422 102.406 87.3821 104.207 87.0958C104.446 86.7728 103.161 86.2436 102.84 85.7821C100.214 83.5259 97.6652 81.0775 95.8247 78.1222C95.6981 77.1352 97.2475 76.9874 97.6555 77.7496C99.6638 79.6862 101.478 81.9461 103.979 83.2682C104.867 83.6992 103.47 82.7582 103.283 82.417C100.972 79.7299 98.7721 76.8919 97.1567 73.7272C96.8676 73.1569 96.3885 72.1243 97.2535 71.8207C98.1184 71.3869 98.9766 71.9779 99.4151 72.7217C101.114 74.8675 102.365 77.4178 104.481 79.2055C102.678 75.7016 100.753 72.0133 100.706 67.9813C100.748 67.1998 100.799 66.0175 101.857 66.0496C102.746 65.9146 102.606 67.054 102.897 67.5973C103.773 70.5593 104.155 73.7654 105.912 76.3807C105.524 74.1833 104.952 71.9204 105.332 69.6866C105.419 68.9531 106.244 68.7311 106.782 69.1745C107.218 70.241 107.308 71.558 107.705 72.6982C109.961 80.4262 115.027 87.223 121.629 91.7842C127.066 95.5178 133.519 97.7467 140.104 98.1353C140.699 98.1872 141.296 98.2052 141.892 98.2418" fill="#FFEC2D"/>
<path d="M133.531 108.488C133.727 108.488 133.886 108.329 133.886 108.133C133.886 107.937 133.727 107.778 133.531 107.778C133.336 107.778 133.177 107.937 133.177 108.133C133.177 108.329 133.336 108.488 133.531 108.488Z" fill="#FFEC2D"/>
<path d="M133.501 108.221C133.581 108.221 133.646 108.156 133.646 108.076C133.646 107.996 133.581 107.932 133.501 107.932C133.421 107.932 133.356 107.996 133.356 108.076C133.356 108.156 133.421 108.221 133.501 108.221Z" fill="#FFEC2D" stroke="#FFEC2D" stroke-width="0.1905"/>
<path d="M142.591 83.1826C153.724 83.1826 162.749 74.1466 162.749 63.0001C162.749 51.8536 153.724 42.8176 142.591 42.8176C131.459 42.8176 122.434 51.8536 122.434 63.0001C122.434 74.1466 131.459 83.1826 142.591 83.1826Z" fill="#FFEC2D"/>
<path d="M142.591 40.0651C143.79 40.0501 144.239 39.3001 144.239 38.4001C144.239 37.2001 142.591 31.4851 142.591 31.4851C142.591 31.4851 140.943 37.2001 140.943 38.4001C140.943 39.3001 141.393 40.0651 142.591 40.0651Z" fill="#FFEC2D"/>
<path d="M165.498 63.0001C165.513 64.2001 166.262 64.6501 167.161 64.6501C168.359 64.6501 174.067 63.0001 174.067 63.0001C174.067 63.0001 168.359 61.3501 167.161 61.3501C166.262 61.3501 165.498 61.8001 165.498 63.0001Z" fill="#FFEC2D"/>
<path d="M142.591 85.9351C141.393 85.9501 140.943 86.7001 140.943 87.6001C140.943 88.8001 142.591 94.5151 142.591 94.5151C142.591 94.5151 144.239 88.8001 144.239 87.6001C144.239 86.7001 143.79 85.9351 142.591 85.9351Z" fill="#FFEC2D"/>
<path d="M119.684 63.0001C119.669 61.8001 118.92 61.3501 118.021 61.3501C116.822 61.3501 111.114 63.0001 111.114 63.0001C111.114 63.0001 116.822 64.6501 118.021 64.6501C118.92 64.6501 119.684 64.2001 119.684 63.0001Z" fill="#FFEC2D"/>
<path d="M151.459 41.7379C152.646 42.2367 153.357 41.7487 153.68 40.9326C154.11 39.8444 154.536 33.9572 154.536 33.9572C154.536 33.9572 150.863 38.4352 150.432 39.5234C150.11 40.3396 150.278 41.2255 151.459 41.7379Z" fill="#FFEC2D"/>
<path d="M163.688 71.6761C163.292 72.7174 163.842 73.4103 164.686 73.7759C165.812 74.2634 171.739 75.1615 171.739 75.1615C171.739 75.1615 166.941 71.4165 165.815 70.929C164.97 70.5634 164.099 70.6409 163.688 71.6761Z" fill="#FFEC2D"/>
<path d="M133.723 84.2624C132.537 83.7636 131.825 84.2515 131.502 85.0677C131.072 86.1559 130.647 92.043 130.647 92.043C130.647 92.043 134.32 87.565 134.75 86.4768C135.073 85.6607 134.904 84.7748 133.723 84.2624Z" fill="#FFEC2D"/>
<path d="M121.494 54.3244C121.89 53.283 121.341 52.5902 120.496 52.2246C119.37 51.7371 113.444 50.839 113.444 50.839C113.444 50.839 118.242 54.584 119.368 55.0714C120.212 55.437 121.084 55.3596 121.494 54.3244Z" fill="#FFEC2D"/>
<path d="M158.788 46.7825C159.646 47.6205 160.494 47.4083 161.13 46.7719C161.977 45.9234 164.848 40.7156 164.848 40.7156C164.848 40.7156 159.646 43.5899 158.799 44.4385C158.163 45.0749 157.941 45.934 158.788 46.7825Z" fill="#FFEC2D"/>
<path d="M158.79 79.2174C157.953 80.0766 158.165 80.9251 158.8 81.5615C159.648 82.41 164.849 85.2844 164.849 85.2844C164.849 85.2844 161.978 80.0766 161.131 79.228C160.495 78.5916 159.637 78.3689 158.79 79.2174Z" fill="#FFEC2D"/>
<path d="M126.394 79.2175C125.536 78.3795 124.689 78.5917 124.053 79.2281C123.206 80.0766 120.335 85.2844 120.335 85.2844C120.335 85.2844 125.536 82.4101 126.384 81.5615C127.019 80.9251 127.242 80.066 126.394 79.2175Z" fill="#FFEC2D"/>
<path d="M126.393 46.7826C127.23 45.9234 127.018 45.0749 126.382 44.4385C125.535 43.59 120.333 40.7156 120.333 40.7156C120.333 40.7156 123.204 45.9234 124.052 46.772C124.687 47.4084 125.545 47.6311 126.393 46.7826Z" fill="#FFEC2D"/>
<path d="M163.689 54.3243C164.113 55.3535 164.97 55.437 165.815 55.0714C166.941 54.5839 171.739 50.839 171.739 50.839C171.739 50.839 165.813 51.7371 164.687 52.2245C163.842 52.5901 163.278 53.2891 163.689 54.3243Z" fill="#FFEC2D"/>
<path d="M151.46 84.2626C150.284 84.7886 150.11 85.6608 150.433 86.477C150.863 87.5652 154.536 92.0432 154.536 92.0432C154.536 92.0432 154.111 86.1561 153.68 85.0679C153.358 84.2517 152.641 83.7501 151.46 84.2626Z" fill="#FFEC2D"/>
<path d="M121.496 71.6762C121.072 70.647 120.214 70.5635 119.37 70.9291C118.244 71.4165 113.446 75.1615 113.446 75.1615C113.446 75.1615 119.372 74.2634 120.498 73.776C121.342 73.4104 121.906 72.7114 121.496 71.6762Z" fill="#FFEC2D"/>
<path d="M133.724 41.7379C134.9 41.2119 135.074 40.3397 134.751 39.5235C134.321 38.4353 130.647 33.9573 130.647 33.9573C130.647 33.9573 131.073 39.8444 131.503 40.9326C131.826 41.7488 132.543 42.2503 133.724 41.7379Z" fill="#FFEC2D"/>
<path d="M147.202 40.4145C148.484 40.7007 149.085 40.0937 149.23 39.2302C149.424 38.0788 148.589 32.182 148.589 32.182C148.589 32.182 145.906 37.2524 145.713 38.4038C145.567 39.2673 145.923 40.114 147.202 40.4145Z" fill="#FFEC2D"/>
<path d="M164.986 67.3189C164.819 68.3861 165.499 68.9586 166.395 69.1668C167.591 69.4444 173.535 69.304 173.535 69.304C173.535 69.304 168.09 66.5191 166.894 66.2414C165.997 66.0332 165.167 66.2551 164.986 67.3189Z" fill="#FFEC2D"/>
<path d="M137.978 85.5857C136.697 85.2996 136.096 85.9065 135.95 86.7701C135.756 87.9215 136.592 93.8182 136.592 93.8182C136.592 93.8182 139.274 88.7479 139.468 87.5965C139.614 86.7329 139.257 85.8862 137.978 85.5857Z" fill="#FFEC2D"/>
<path d="M120.197 58.6813C120.363 57.6141 119.684 57.0417 118.787 56.8334C117.592 56.5558 111.648 56.6962 111.648 56.6962C111.648 56.6962 117.093 59.4812 118.289 59.7588C119.186 59.967 120.016 59.7451 120.197 58.6813Z" fill="#FFEC2D"/>
<path d="M155.423 43.8337C156.503 44.5584 157.303 44.2279 157.781 43.4998C158.417 42.529 159.975 36.8925 159.975 36.8925C159.975 36.8925 155.468 40.5029 154.831 41.4737C154.354 42.2018 154.35 43.097 155.423 43.8337Z" fill="#FFEC2D"/>
<path d="M161.555 75.633C160.962 76.5603 161.372 77.3405 162.137 77.8633C163.157 78.5605 168.846 80.6175 168.846 80.6175C168.846 80.6175 164.822 76.0344 163.802 75.3372C163.037 74.8144 162.16 74.7144 161.555 75.633Z" fill="#FFEC2D"/>
<path d="M129.761 82.166C128.68 81.4414 127.88 81.7719 127.403 82.5C126.766 83.4708 125.209 89.1073 125.209 89.1073C125.209 89.1073 129.716 85.4969 130.352 84.5261C130.83 83.798 130.833 82.9028 129.761 82.166Z" fill="#FFEC2D"/>
<path d="M123.627 50.3668C124.22 49.4395 123.809 48.6593 123.044 48.1364C122.025 47.4393 116.335 45.3822 116.335 45.3822C116.335 45.3822 120.36 49.9654 121.38 50.6625C122.145 51.1854 123.022 51.2853 123.627 50.3668Z" fill="#FFEC2D"/>
<path d="M161.636 50.2486C162.313 51.245 163.186 51.2067 163.933 50.7087C164.93 50.0447 168.764 45.5008 168.764 45.5008C168.764 45.5008 163.102 47.2818 162.105 47.9459C161.357 48.4439 160.971 49.2439 161.636 50.2486Z" fill="#FFEC2D"/>
<path d="M155.32 82.0619C154.33 82.7353 154.372 83.6082 154.871 84.3582C155.536 85.3581 160.077 89.2118 160.077 89.2118C160.077 89.2118 158.28 83.5406 157.615 82.5406C157.116 81.7906 156.317 81.401 155.32 82.0619Z" fill="#FFEC2D"/>
<path d="M123.546 75.7514C122.868 74.755 121.996 74.7933 121.248 75.2913C120.251 75.9553 116.418 80.4992 116.418 80.4992C116.418 80.4992 122.08 78.7182 123.077 78.0541C123.824 77.5561 124.211 76.7561 123.546 75.7514Z" fill="#FFEC2D"/>
<path d="M129.863 43.9383C130.852 43.2649 130.811 42.3921 130.312 41.6421C129.646 40.6421 125.105 36.7885 125.105 36.7885C125.105 36.7885 126.902 42.4597 127.568 43.4596C128.067 44.2096 128.865 44.5993 129.863 43.9383Z" fill="#FFEC2D"/>
<path d="M165.047 58.5174C165.288 59.6974 166.109 59.9961 166.993 59.8222C168.172 59.5904 173.475 56.8599 173.475 56.8599C173.475 56.8599 167.552 56.3374 166.373 56.5693C165.489 56.7431 164.822 57.3345 165.047 58.5174Z" fill="#FFEC2D"/>
<path d="M147.082 85.4899C145.894 85.7356 145.589 86.5585 145.76 87.4421C145.988 88.6203 148.711 93.9139 148.711 93.9139C148.711 93.9139 149.263 87.9854 149.035 86.8072C148.865 85.9235 148.273 85.259 147.082 85.4899Z" fill="#FFEC2D"/>
<path d="M120.136 67.4826C119.896 66.3026 119.075 66.0039 118.191 66.1778C117.012 66.4096 111.708 69.1401 111.708 69.1401C111.708 69.1401 117.632 69.6626 118.811 69.4307C119.695 69.2569 120.362 68.6655 120.136 67.4826Z" fill="#FFEC2D"/>
<path d="M138.101 40.5101C139.289 40.2644 139.593 39.4415 139.422 38.5579C139.194 37.3797 136.472 32.0861 136.472 32.0861C136.472 32.0861 135.919 38.0146 136.147 39.1928C136.318 40.0765 136.91 40.741 138.101 40.5101Z" fill="#FFEC2D"/>
<path d="M16.4889 10.9384C16.4889 10.9384 15.0491 9.72705 14.5601 10.3347C13.7736 11.312 16.9782 16.1799 16.9782 17.8941C16.9782 20.708 15.1029 21.4731 12.7873 21.875C11.2336 22.1447 8.70348 21.7622 8.70348 21.7622C9.1799 21.1212 9.48972 20.9324 10.2924 20.8812C9.39878 20.4167 8.48879 19.4082 8.48879 17.8386C8.48879 15.4179 9.48403 14.4201 9.48403 11.6912C9.48403 10.1772 8.24414 8.25 8.24414 8.25C10.4358 8.4696 11.522 10.5014 10.904 12.1251C11.2528 12.1754 11.5695 12.0966 11.8415 11.8386C12.0018 12.2886 11.7487 12.811 11.4096 13.2612C11.6827 13.4073 11.8833 13.3197 12.3184 13.2297C12.2771 13.6935 11.9996 14.1861 11.3206 14.6499C13.2909 14.1377 14.5032 15.5126 14.5032 16.952C14.5032 18.0392 13.7423 18.8184 12.9984 18.8184C12.7581 18.8184 12.405 18.7193 12.2059 18.5703C12.0654 18.8696 12.1377 19.2701 12.2823 19.5693C11.7373 19.425 11.3912 19.1009 11.6375 18.4261C11.2188 18.3876 10.8857 18.246 10.6592 17.9761C10.8887 17.6817 11.237 17.5122 11.6375 17.526C11.3326 16.896 11.6724 16.5435 12.1675 16.2576C12.1675 16.2576 11.8526 17.526 12.6567 17.526C13.0182 17.526 13.3477 17.4081 13.3477 16.8746C13.3477 16.41 12.9421 15.7665 12.0044 15.8075C11.0667 15.8484 10.3067 16.4547 10.3067 17.9534C10.3067 19.3358 11.4204 20.0233 12.888 20.0677C14.2113 20.1087 15.2102 19.391 15.2102 18.024C15.2102 16.2048 12.5872 12.0581 12.5872 10.437C12.5872 9.2205 13.6796 8.5416 14.7486 8.5416C16.1347 8.5416 17.3042 9.91575 17.3042 9.91575L16.4899 10.938L16.4889 10.9384Z" fill="#FFEC2D"/>
<path d="M16.7919 43.8211C16.7919 46.8616 14.0656 48.4243 11.9232 48.4243C9.03682 48.4243 7.5 46.6965 7.5 44.4346C7.5 43.1524 7.73461 42.348 8.32504 41.1208L14.9399 27.3729C15.1711 26.8947 15.2457 26.3502 15.2457 25.5522C15.2457 24.3196 14.0516 23.3122 12.7996 23.2813C11.6583 23.2528 10.4148 24.3466 10.4148 25.5931C10.4148 27.1071 11.1993 27.7821 12.0047 27.7821C12.9959 27.7821 13.3908 27.3741 13.3908 26.6773C13.3908 26.1918 13.1566 25.9818 12.82 25.9818C11.9699 25.9818 12.2086 27.1275 12.2086 27.1275C11.7864 27.0349 11.4394 26.6029 11.6378 26.0635C11.3172 25.9926 11.0278 25.8205 10.8123 25.5726C11.0402 25.3513 11.3016 25.1806 11.6378 25.1226C11.4387 24.4644 11.7048 24.1429 12.2799 24.0076C12.1638 24.2607 12.1599 24.4936 12.1984 24.7134C13.1038 24.4555 14.4915 24.8658 14.4915 26.4318C14.4915 27.9865 13.4137 29.2957 11.3931 28.9686C11.8738 29.1987 12.1183 29.6695 12.1677 30.196C11.8006 30.0529 11.3931 30.0325 11.3931 30.0325C11.6294 30.4495 11.9575 30.8091 11.9434 31.6281C11.5689 31.4575 11.2209 31.1418 10.7408 31.3416C11.4944 32.8263 10.5685 34.8684 8.21328 35.3515C9.07532 34.3398 9.49736 33.2475 9.49736 32.16C9.49736 28.6356 8.51905 28.0432 8.51905 25.593C8.51905 24.5677 9.04536 23.4607 10.0885 22.7083V22.7493C9.39908 22.5643 8.95742 22.2244 8.70348 21.7626C10.2788 21.3153 12.5688 21.3235 13.7982 21.8079C15.2115 21.9718 16.1982 23.0574 16.4889 23.6085C16.7795 24.1596 17.3442 26.1514 16.4889 27.9453L9.76238 42.225C9.47054 42.8497 9.29346 43.5124 9.29346 44.2299C9.29346 46.0344 10.9444 46.6644 11.8823 46.6644C13.0034 46.6644 14.1448 45.8094 14.1448 44.7414C14.1448 44.0647 13.7778 43.6572 13.2479 43.6572C11.9807 43.6572 12.0577 44.7364 12.3103 45.4165C11.5217 45.0615 11.0632 44.4277 11.1892 43.7595C10.7428 43.6981 10.3178 43.4862 9.92554 43.0434C10.2342 42.6534 10.6105 42.3583 11.1892 42.3478C10.9365 41.311 11.6297 40.8726 12.3103 40.6294C12.095 41.3904 11.9538 42.2661 13.2479 42.2661C14.1917 42.2661 14.9345 42.4297 15.3678 43.0435L15.4697 38.9928C15.5242 37.7781 13.8459 37.8127 12.7792 38.1744C13.1818 36.7753 14.0074 36.0189 15.9182 36.2104C15.4544 36.0162 14.9601 35.5792 14.9601 34.7374C14.9604 33.5985 15.8833 32.3367 16.4892 31.9636L16.7921 43.8213L16.7919 43.8211Z" fill="#FFEC2D"/>
<path d="M16.7919 52.9411C16.7919 49.9006 14.0656 48.3379 11.9232 48.3379C9.03682 48.3379 7.5 50.0657 7.5 52.3276C7.5 53.6098 7.73461 54.4142 8.32504 55.6414L14.9399 69.3894C15.1711 69.8676 15.2457 70.4121 15.2457 71.2101C15.2457 72.4426 14.0516 73.45 12.7996 73.4809C11.6583 73.5094 10.4148 72.4156 10.4148 71.1691C10.4148 69.6552 11.1993 68.9802 12.0047 68.9802C12.9959 68.9802 13.3908 69.3882 13.3908 70.0849C13.3908 70.5705 13.1566 70.7805 12.82 70.7805C11.9699 70.7805 12.2086 69.6348 12.2086 69.6348C11.7864 69.7273 11.4394 70.1593 11.6378 70.6987C11.3172 70.7696 11.0278 70.9417 10.8123 71.1897C11.0402 71.4109 11.3016 71.5816 11.6378 71.6397C11.4387 72.2979 11.7048 72.6193 12.2799 72.7546C12.1638 72.5016 12.1599 72.2686 12.1984 72.0489C13.1038 72.3067 14.4915 71.8965 14.4915 70.3305C14.4915 68.7757 13.4137 67.4665 11.3931 67.7937C11.8738 67.5636 12.1183 67.0927 12.1677 66.5662C11.8006 66.7093 11.3931 66.7297 11.3931 66.7297C11.6294 66.3127 11.9575 65.9532 11.9434 65.1342C11.5689 65.3047 11.2209 65.6205 10.7408 65.4207C11.4944 63.936 10.5685 61.8939 8.21328 61.4107C9.07532 62.4225 9.49736 63.5148 9.49736 64.6023C9.49736 68.1267 8.51905 68.719 8.51905 71.1693C8.51905 72.1945 9.04536 73.3015 10.0885 74.0539V74.013C9.39908 74.1979 8.95742 74.5378 8.70348 74.9997C10.2788 75.447 12.5688 75.4387 13.7982 74.9544C15.2115 74.7904 16.1982 73.7049 16.4889 73.1538C16.7795 72.6027 17.3442 70.6108 16.4889 68.817L9.76238 54.5373C9.47054 53.9125 9.29346 53.2498 9.29346 52.5324C9.29346 50.7279 10.9444 50.0978 11.8823 50.0978C13.0034 50.0978 14.1448 50.9529 14.1448 52.0209C14.1448 52.6975 13.7778 53.1051 13.2479 53.1051C11.9807 53.1051 12.0577 52.0258 12.3103 51.3457C11.5217 51.7008 11.0632 52.3345 11.1892 53.0028C10.7428 53.0641 10.3178 53.2761 9.92554 53.7189C10.2342 54.1089 10.6105 54.4039 11.1892 54.4144C10.9365 55.4512 11.6297 55.8897 12.3103 56.1328C12.095 55.3719 11.9538 54.4961 13.2479 54.4961C14.1917 54.4961 14.9345 54.3325 15.3678 53.7187L15.4697 57.7695C15.5242 58.9842 13.8459 58.9495 12.7792 58.5879C13.1818 59.9869 14.0074 60.7434 15.9182 60.5518C15.4544 60.7461 14.9601 61.183 14.9601 62.0248C14.9604 63.1638 15.8833 64.4256 16.4892 64.7986L16.7921 52.941L16.7919 52.9411Z" fill="#FFEC2D"/>
<path d="M16.4897 10.9384C16.4897 10.9384 17.9294 9.72705 18.4184 10.3347C19.2049 11.312 16.0004 16.1799 16.0004 17.8941C16.0004 20.708 17.8756 21.4731 20.1912 21.875C21.7449 22.1447 24.275 21.7622 24.275 21.7622C23.7986 21.1212 23.4888 20.9324 22.6861 20.8812C23.5797 20.4167 24.4897 19.4082 24.4897 17.8386C24.4897 15.4179 23.4945 14.4201 23.4945 11.6912C23.4945 10.1772 24.7344 8.25 24.7344 8.25C22.5427 8.4696 21.4565 10.5014 22.0745 12.1251C21.7258 12.1754 21.409 12.0966 21.137 11.8386C20.9767 12.2886 21.2299 12.811 21.5689 13.2612C21.2958 13.4073 21.0952 13.3197 20.6601 13.2297C20.7015 13.6935 20.9789 14.1861 21.6579 14.6499C19.6876 14.1377 18.4753 15.5126 18.4753 16.952C18.4753 18.0392 19.2362 18.8184 19.9801 18.8184C20.2204 18.8184 20.5735 18.7193 20.7726 18.5703C20.9131 18.8696 20.8408 19.2701 20.6962 19.5693C21.2412 19.425 21.5873 19.1009 21.341 18.4261C21.7598 18.3876 22.0928 18.246 22.3193 17.9761C22.0898 17.6817 21.7415 17.5122 21.341 17.526C21.6459 16.896 21.3061 16.5435 20.811 16.2576C20.811 16.2576 21.1259 17.526 20.3218 17.526C19.9603 17.526 19.6309 17.4081 19.6309 16.8746C19.6309 16.41 20.0364 15.7665 20.9741 15.8075C21.9118 15.8484 22.6718 16.4547 22.6718 17.9534C22.6718 19.3358 21.5581 20.0233 20.0905 20.0677C18.7672 20.1087 17.7683 19.391 17.7683 18.024C17.7683 16.2048 20.3913 12.0581 20.3913 10.437C20.3913 9.2205 19.2989 8.5416 18.2299 8.5416C16.8438 8.5416 15.6743 9.91575 15.6743 9.91575L16.4886 10.938L16.4897 10.9384Z" fill="#FFEC2D"/>
<path d="M16.1866 43.8211C16.1866 46.8616 18.9129 48.4243 21.0553 48.4243C23.9417 48.4243 25.4785 46.6965 25.4785 44.4346C25.4785 43.1524 25.2439 42.348 24.6535 41.1208L18.0386 27.3729C17.8074 26.8947 17.7328 26.3502 17.7328 25.5522C17.7328 24.3196 18.9269 23.3122 20.1789 23.2813C21.3202 23.2528 22.5637 24.3466 22.5637 25.5931C22.5637 27.1071 21.7792 27.7821 20.9738 27.7821C19.9826 27.7821 19.5877 27.3741 19.5877 26.6773C19.5877 26.1918 19.8219 25.9818 20.1585 25.9818C21.0086 25.9818 20.7699 27.1275 20.7699 27.1275C21.1921 27.0349 21.5391 26.6029 21.3407 26.0635C21.6613 25.9926 21.9507 25.8205 22.1662 25.5726C21.9383 25.3513 21.6769 25.1806 21.3407 25.1226C21.5398 24.4644 21.2738 24.1429 20.6986 24.0076C20.8147 24.2607 20.8186 24.4936 20.7801 24.7134C19.8748 24.4555 18.487 24.8658 18.487 26.4318C18.487 27.9865 19.5648 29.2957 21.5854 28.9686C21.1048 29.1987 20.8603 29.6695 20.8108 30.196C21.1779 30.0529 21.5854 30.0325 21.5854 30.0325C21.3491 30.4495 21.021 30.8091 21.0351 31.6281C21.4096 31.4575 21.7577 31.1418 22.2377 31.3416C21.4841 32.8263 22.41 34.8684 24.7652 35.3515C23.9032 34.3398 23.4812 33.2475 23.4812 32.16C23.4812 28.6356 24.4595 28.0432 24.4595 25.593C24.4595 24.5677 23.9332 23.4607 22.89 22.7083V22.7493C23.5794 22.5643 24.0211 22.2244 24.275 21.7626C22.6997 21.3153 20.4098 21.3235 19.1804 21.8079C17.767 21.9718 16.7803 23.0574 16.4897 23.6085C16.199 24.1596 15.6343 26.1514 16.4897 27.9453L23.2161 42.225C23.508 42.8497 23.6851 43.5124 23.6851 44.2299C23.6851 46.0344 22.0341 46.6644 21.0962 46.6644C19.9751 46.6644 18.8337 45.8094 18.8337 44.7414C18.8337 44.0647 19.2007 43.6572 19.7306 43.6572C20.9978 43.6572 20.9208 44.7364 20.6682 45.4165C21.4568 45.0615 21.9153 44.4277 21.7893 43.7595C22.2357 43.6981 22.6608 43.4862 23.053 43.0434C22.7444 42.6534 22.368 42.3583 21.7893 42.3478C22.042 41.311 21.3488 40.8726 20.6682 40.6294C20.8835 41.3904 21.0248 42.2661 19.7306 42.2661C18.7868 42.2661 18.044 42.4297 17.6107 43.0435L17.5089 38.9928C17.4543 37.7781 19.1326 37.8127 20.1993 38.1744C19.7967 36.7753 18.9711 36.0189 17.0603 36.2104C17.5241 36.0162 18.0184 35.5792 18.0184 34.7374C18.0181 33.5985 17.0952 32.3367 16.4894 31.9636L16.1864 43.8213L16.1866 43.8211Z" fill="#FFEC2D"/>
<path d="M16.1866 52.9411C16.1866 49.9006 18.9129 48.3379 21.0553 48.3379C23.9417 48.3379 25.4785 50.0657 25.4785 52.3276C25.4785 53.6098 25.2439 54.4142 24.6535 55.6414L18.0386 69.3894C17.8074 69.8676 17.7328 70.4121 17.7328 71.2101C17.7328 72.4426 18.9269 73.45 20.1789 73.4809C21.3202 73.5094 22.5637 72.4156 22.5637 71.1691C22.5637 69.6552 21.7792 68.9802 20.9738 68.9802C19.9826 68.9802 19.5877 69.3882 19.5877 70.0849C19.5877 70.5705 19.8219 70.7805 20.1585 70.7805C21.0086 70.7805 20.7699 69.6348 20.7699 69.6348C21.1921 69.7273 21.5391 70.1593 21.3407 70.6987C21.6613 70.7696 21.9507 70.9417 22.1662 71.1897C21.9383 71.4109 21.6769 71.5816 21.3407 71.6397C21.5398 72.2979 21.2738 72.6193 20.6986 72.7546C20.8147 72.5016 20.8186 72.2686 20.7801 72.0489C19.8748 72.3067 18.487 71.8965 18.487 70.3305C18.487 68.7757 19.5648 67.4665 21.5854 67.7937C21.1048 67.5636 20.8603 67.0927 20.8108 66.5662C21.1779 66.7093 21.5854 66.7297 21.5854 66.7297C21.3491 66.3127 21.021 65.9532 21.0351 65.1342C21.4096 65.3047 21.7577 65.6205 22.2377 65.4207C21.4841 63.936 22.41 61.8939 24.7652 61.4107C23.9032 62.4225 23.4812 63.5148 23.4812 64.6023C23.4812 68.1267 24.4595 68.719 24.4595 71.1693C24.4595 72.1945 23.9332 73.3015 22.89 74.0539V74.013C23.5794 74.1979 24.0211 74.5378 24.275 74.9997C22.6997 75.447 20.4098 75.4387 19.1804 74.9544C17.767 74.7904 16.7803 73.7049 16.4897 73.1538C16.199 72.6027 15.6343 70.6108 16.4897 68.817L23.2161 54.5373C23.508 53.9125 23.6851 53.2498 23.6851 52.5324C23.6851 50.7279 22.0341 50.0978 21.0962 50.0978C19.9751 50.0978 18.8337 50.9529 18.8337 52.0209C18.8337 52.6975 19.2007 53.1051 19.7306 53.1051C20.9978 53.1051 20.9208 52.0258 20.6682 51.3457C21.4568 51.7008 21.9153 52.3345 21.7893 53.0028C22.2357 53.0641 22.6608 53.2761 23.053 53.7189C22.7444 54.1089 22.368 54.4039 21.7893 54.4144C22.042 55.4512 21.3488 55.8897 20.6682 56.1328C20.8835 55.3719 21.0248 54.4961 19.7306 54.4961C18.7868 54.4961 18.044 54.3325 17.6107 53.7187L17.5089 57.7695C17.4543 58.9842 19.1326 58.9495 20.1993 58.5879C19.7967 59.9869 18.9711 60.7434 17.0603 60.5518C17.5241 60.7461 18.0184 61.183 18.0184 62.0248C18.0181 63.1638 17.0952 64.4256 16.4894 64.7986L16.1864 52.941L16.1866 52.9411Z" fill="#FFEC2D"/>
<path d="M16.4889 139.062C16.4889 139.062 15.0491 140.273 14.5601 139.666C13.7736 138.688 16.9782 133.82 16.9782 132.106C16.9782 129.292 15.1029 128.527 12.7873 128.125C11.2336 127.856 8.70348 128.238 8.70348 128.238C9.1799 128.879 9.48972 129.068 10.2924 129.119C9.39878 129.584 8.48879 130.592 8.48879 132.162C8.48879 134.582 9.48403 135.58 9.48403 138.309C9.48403 139.823 8.24414 141.75 8.24414 141.75C10.4358 141.531 11.522 139.499 10.904 137.875C11.2528 137.825 11.5695 137.904 11.8415 138.162C12.0018 137.712 11.7487 137.189 11.4096 136.739C11.6827 136.593 11.8833 136.681 12.3184 136.771C12.2771 136.307 11.9996 135.814 11.3206 135.35C13.2909 135.863 14.5032 134.488 14.5032 133.048C14.5032 131.961 13.7423 131.182 12.9984 131.182C12.7581 131.182 12.405 131.281 12.2059 131.43C12.0654 131.131 12.1377 130.73 12.2823 130.431C11.7373 130.575 11.3912 130.899 11.6375 131.574C11.2188 131.613 10.8857 131.754 10.6592 132.024C10.8887 132.319 11.237 132.488 11.6375 132.474C11.3326 133.104 11.6724 133.457 12.1675 133.743C12.1675 133.743 11.8526 132.474 12.6567 132.474C13.0182 132.474 13.3477 132.592 13.3477 133.126C13.3477 133.59 12.9421 134.234 12.0044 134.193C11.0667 134.152 10.3067 133.546 10.3067 132.047C10.3067 130.664 11.4204 129.977 12.888 129.932C14.2113 129.892 15.2102 130.609 15.2102 131.976C15.2102 133.795 12.5872 137.942 12.5872 139.563C12.5872 140.78 13.6796 141.459 14.7486 141.459C16.1347 141.459 17.3042 140.084 17.3042 140.084L16.4899 139.062L16.4889 139.062Z" fill="#FFEC2D"/>
<path d="M16.7919 106.179C16.7919 103.139 14.0656 101.576 11.9232 101.576C9.03682 101.576 7.5 103.304 7.5 105.566C7.5 106.848 7.73461 107.652 8.32504 108.879L14.9399 122.627C15.1711 123.106 15.2457 123.65 15.2457 124.448C15.2457 125.681 14.0516 126.688 12.7996 126.719C11.6583 126.747 10.4148 125.654 10.4148 124.407C10.4148 122.893 11.1993 122.218 12.0047 122.218C12.9959 122.218 13.3908 122.626 13.3908 123.323C13.3908 123.808 13.1566 124.018 12.82 124.018C11.9699 124.018 12.2086 122.873 12.2086 122.873C11.7864 122.965 11.4394 123.397 11.6378 123.937C11.3172 124.008 11.0278 124.18 10.8123 124.428C11.0402 124.649 11.3016 124.82 11.6378 124.878C11.4387 125.536 11.7048 125.857 12.2799 125.993C12.1638 125.74 12.1599 125.507 12.1984 125.287C13.1038 125.545 14.4915 125.134 14.4915 123.568C14.4915 122.014 13.4137 120.705 11.3931 121.032C11.8738 120.802 12.1183 120.331 12.1677 119.804C11.8006 119.947 11.3931 119.968 11.3931 119.968C11.6294 119.551 11.9575 119.191 11.9434 118.372C11.5689 118.543 11.2209 118.858 10.7408 118.659C11.4944 117.174 10.5685 115.132 8.21328 114.649C9.07532 115.66 9.49736 116.753 9.49736 117.84C9.49736 121.365 8.51905 121.957 8.51905 124.407C8.51905 125.433 9.04536 126.54 10.0885 127.292V127.251C9.39908 127.436 8.95742 127.776 8.70348 128.238C10.2788 128.685 12.5688 128.677 13.7982 128.192C15.2115 128.028 16.1982 126.943 16.4889 126.392C16.7795 125.841 17.3442 123.849 16.4889 122.055L9.76238 107.775C9.47054 107.151 9.29346 106.488 9.29346 105.77C9.29346 103.966 10.9444 103.336 11.8823 103.336C13.0034 103.336 14.1448 104.191 14.1448 105.259C14.1448 105.936 13.7778 106.343 13.2479 106.343C11.9807 106.343 12.0577 105.264 12.3103 104.584C11.5217 104.939 11.0632 105.573 11.1892 106.241C10.7428 106.302 10.3178 106.514 9.92554 106.957C10.2342 107.347 10.6105 107.642 11.1892 107.652C10.9365 108.689 11.6297 109.128 12.3103 109.371C12.095 108.61 11.9538 107.734 13.2479 107.734C14.1917 107.734 14.9345 107.571 15.3678 106.957L15.4697 111.007C15.5242 112.222 13.8459 112.188 12.7792 111.826C13.1818 113.225 14.0074 113.981 15.9182 113.79C15.4544 113.984 14.9601 114.421 14.9601 115.263C14.9604 116.402 15.8833 117.664 16.4892 118.037L16.7921 106.179L16.7919 106.179Z" fill="#FFEC2D"/>
<path d="M16.7919 97.0591C16.7919 100.1 14.0656 101.662 11.9232 101.662C9.03682 101.662 7.5 99.9345 7.5 97.6726C7.5 96.3904 7.73461 95.586 8.32504 94.3588L14.9399 80.6109C15.1711 80.1327 15.2457 79.5882 15.2457 78.7902C15.2457 77.5576 14.0516 76.5502 12.7996 76.5193C11.6583 76.4908 10.4148 77.5846 10.4148 78.8311C10.4148 80.3451 11.1993 81.0201 12.0047 81.0201C12.9959 81.0201 13.3908 80.6121 13.3908 79.9153C13.3908 79.4298 13.1566 79.2198 12.82 79.2198C11.9699 79.2198 12.2086 80.3655 12.2086 80.3655C11.7864 80.2729 11.4394 79.8409 11.6378 79.3015C11.3172 79.2306 11.0278 79.0585 10.8123 78.8106C11.0402 78.5893 11.3016 78.4186 11.6378 78.3606C11.4387 77.7024 11.7048 77.3809 12.2799 77.2456C12.1638 77.4987 12.1599 77.7316 12.1984 77.9514C13.1038 77.6935 14.4915 78.1038 14.4915 79.6698C14.4915 81.2245 13.4137 82.5337 11.3931 82.2066C11.8738 82.4367 12.1183 82.9075 12.1677 83.434C11.8006 83.2909 11.3931 83.2705 11.3931 83.2705C11.6294 83.6875 11.9575 84.0471 11.9434 84.8661C11.5689 84.6955 11.2209 84.3798 10.7408 84.5796C11.4944 86.0643 10.5685 88.1064 8.21328 88.5895C9.07532 87.5778 9.49736 86.4855 9.49736 85.398C9.49736 81.8736 8.51905 81.2812 8.51905 78.831C8.51905 77.8057 9.04536 76.6987 10.0885 75.9463V75.9873C9.39908 75.8023 8.95742 75.4624 8.70348 75.0006C10.2788 74.5533 12.5688 74.5615 13.7982 75.0459C15.2115 75.2098 16.1982 76.2954 16.4889 76.8465C16.7795 77.3976 17.3442 79.3894 16.4889 81.1833L9.76238 95.463C9.47054 96.0877 9.29346 96.7504 9.29346 97.4679C9.29346 99.2724 10.9444 99.9024 11.8823 99.9024C13.0034 99.9024 14.1448 99.0474 14.1448 97.9794C14.1448 97.3027 13.7778 96.8952 13.2479 96.8952C11.9807 96.8952 12.0577 97.9744 12.3103 98.6545C11.5217 98.2995 11.0632 97.6657 11.1892 96.9975C10.7428 96.9361 10.3178 96.7242 9.92554 96.2814C10.2342 95.8914 10.6105 95.5963 11.1892 95.5858C10.9365 94.549 11.6297 94.1106 12.3103 93.8674C12.095 94.6284 11.9538 95.5041 13.2479 95.5041C14.1917 95.5041 14.9345 95.6677 15.3678 96.2815L15.4697 92.2308C15.5242 91.0161 13.8459 91.0507 12.7792 91.4124C13.1818 90.0133 14.0074 89.2569 15.9182 89.4484C15.4544 89.2542 14.9601 88.8172 14.9601 87.9754C14.9604 86.8365 15.8833 85.5747 16.4892 85.2016L16.7921 97.0593L16.7919 97.0591Z" fill="#FFEC2D"/>
<path d="M16.4897 139.062C16.4897 139.062 17.9294 140.273 18.4184 139.666C19.2049 138.688 16.0004 133.82 16.0004 132.106C16.0004 129.292 17.8756 128.527 20.1912 128.125C21.7449 127.856 24.275 128.238 24.275 128.238C23.7986 128.879 23.4888 129.068 22.6861 129.119C23.5797 129.584 24.4897 130.592 24.4897 132.162C24.4897 134.582 23.4945 135.58 23.4945 138.309C23.4945 139.823 24.7344 141.75 24.7344 141.75C22.5427 141.531 21.4565 139.499 22.0745 137.875C21.7258 137.825 21.409 137.904 21.137 138.162C20.9767 137.712 21.2299 137.189 21.5689 136.739C21.2958 136.593 21.0952 136.681 20.6601 136.771C20.7015 136.307 20.9789 135.814 21.6579 135.35C19.6876 135.863 18.4753 134.488 18.4753 133.048C18.4753 131.961 19.2362 131.182 19.9801 131.182C20.2204 131.182 20.5735 131.281 20.7726 131.43C20.9131 131.131 20.8408 130.73 20.6962 130.431C21.2412 130.575 21.5873 130.899 21.341 131.574C21.7598 131.613 22.0928 131.754 22.3193 132.024C22.0898 132.319 21.7415 132.488 21.341 132.474C21.6459 133.104 21.3061 133.457 20.811 133.743C20.811 133.743 21.1259 132.474 20.3218 132.474C19.9603 132.474 19.6309 132.592 19.6309 133.126C19.6309 133.59 20.0364 134.234 20.9741 134.193C21.9118 134.152 22.6718 133.546 22.6718 132.047C22.6718 130.664 21.5581 129.977 20.0905 129.932C18.7672 129.892 17.7683 130.609 17.7683 131.976C17.7683 133.795 20.3913 137.942 20.3913 139.563C20.3913 140.78 19.2989 141.459 18.2299 141.459C16.8438 141.459 15.6743 140.084 15.6743 140.084L16.4886 139.062L16.4897 139.062Z" fill="#FFEC2D"/>
<path d="M16.1866 106.179C16.1866 103.139 18.9129 101.576 21.0553 101.576C23.9417 101.576 25.4785 103.304 25.4785 105.566C25.4785 106.848 25.2439 107.652 24.6535 108.879L18.0386 122.627C17.8074 123.106 17.7328 123.65 17.7328 124.448C17.7328 125.681 18.9269 126.688 20.1789 126.719C21.3202 126.747 22.5637 125.654 22.5637 124.407C22.5637 122.893 21.7792 122.218 20.9738 122.218C19.9826 122.218 19.5877 122.626 19.5877 123.323C19.5877 123.808 19.8219 124.018 20.1585 124.018C21.0086 124.018 20.7699 122.873 20.7699 122.873C21.1921 122.965 21.5391 123.397 21.3407 123.937C21.6613 124.008 21.9507 124.18 22.1662 124.428C21.9383 124.649 21.6769 124.82 21.3407 124.878C21.5398 125.536 21.2738 125.857 20.6986 125.993C20.8147 125.74 20.8186 125.507 20.7801 125.287C19.8748 125.545 18.487 125.134 18.487 123.568C18.487 122.014 19.5648 120.705 21.5854 121.032C21.1048 120.802 20.8603 120.331 20.8108 119.804C21.1779 119.947 21.5854 119.968 21.5854 119.968C21.3491 119.551 21.021 119.191 21.0351 118.372C21.4096 118.543 21.7577 118.858 22.2377 118.659C21.4841 117.174 22.41 115.132 24.7652 114.649C23.9032 115.66 23.4812 116.753 23.4812 117.84C23.4812 121.365 24.4595 121.957 24.4595 124.407C24.4595 125.433 23.9332 126.54 22.89 127.292V127.251C23.5794 127.436 24.0211 127.776 24.275 128.238C22.6997 128.685 20.4098 128.677 19.1804 128.192C17.767 128.028 16.7803 126.943 16.4897 126.392C16.199 125.841 15.6343 123.849 16.4897 122.055L23.2161 107.775C23.508 107.151 23.6851 106.488 23.6851 105.77C23.6851 103.966 22.0341 103.336 21.0962 103.336C19.9751 103.336 18.8337 104.191 18.8337 105.259C18.8337 105.936 19.2007 106.343 19.7306 106.343C20.9978 106.343 20.9208 105.264 20.6682 104.584C21.4568 104.939 21.9153 105.573 21.7893 106.241C22.2357 106.302 22.6608 106.514 23.053 106.957C22.7444 107.347 22.368 107.642 21.7893 107.652C22.042 108.689 21.3488 109.128 20.6682 109.371C20.8835 108.61 21.0248 107.734 19.7306 107.734C18.7868 107.734 18.044 107.571 17.6107 106.957L17.5089 111.007C17.4543 112.222 19.1326 112.188 20.1993 111.826C19.7967 113.225 18.9711 113.981 17.0603 113.79C17.5241 113.984 18.0184 114.421 18.0184 115.263C18.0181 116.402 17.0952 117.664 16.4894 118.037L16.1864 106.179L16.1866 106.179Z" fill="#FFEC2D"/>
<path d="M16.1866 97.0591C16.1866 100.1 18.9129 101.662 21.0553 101.662C23.9417 101.662 25.4785 99.9345 25.4785 97.6726C25.4785 96.3904 25.2439 95.586 24.6535 94.3588L18.0386 80.6109C17.8074 80.1327 17.7328 79.5882 17.7328 78.7902C17.7328 77.5576 18.9269 76.5502 20.1789 76.5193C21.3202 76.4908 22.5637 77.5846 22.5637 78.8311C22.5637 80.3451 21.7792 81.0201 20.9738 81.0201C19.9826 81.0201 19.5877 80.6121 19.5877 79.9153C19.5877 79.4298 19.8219 79.2198 20.1585 79.2198C21.0086 79.2198 20.7699 80.3655 20.7699 80.3655C21.1921 80.2729 21.5391 79.8409 21.3407 79.3015C21.6613 79.2306 21.9507 79.0585 22.1662 78.8106C21.9383 78.5893 21.6769 78.4186 21.3407 78.3606C21.5398 77.7024 21.2738 77.3809 20.6986 77.2456C20.8147 77.4987 20.8186 77.7316 20.7801 77.9514C19.8748 77.6935 18.487 78.1038 18.487 79.6698C18.487 81.2245 19.5648 82.5337 21.5854 82.2066C21.1048 82.4367 20.8603 82.9075 20.8108 83.434C21.1779 83.2909 21.5854 83.2705 21.5854 83.2705C21.3491 83.6875 21.021 84.0471 21.0351 84.8661C21.4096 84.6955 21.7577 84.3798 22.2377 84.5796C21.4841 86.0643 22.41 88.1064 24.7652 88.5895C23.9032 87.5778 23.4812 86.4855 23.4812 85.398C23.4812 81.8736 24.4595 81.2812 24.4595 78.831C24.4595 77.8057 23.9332 76.6987 22.89 75.9463V75.9873C23.5794 75.8023 24.0211 75.4624 24.275 75.0006C22.6997 74.5533 20.4098 74.5615 19.1804 75.0459C17.767 75.2098 16.7803 76.2954 16.4897 76.8465C16.199 77.3976 15.6343 79.3894 16.4897 81.1833L23.2161 95.463C23.508 96.0877 23.6851 96.7504 23.6851 97.4679C23.6851 99.2724 22.0341 99.9024 21.0962 99.9024C19.9751 99.9024 18.8337 99.0474 18.8337 97.9794C18.8337 97.3027 19.2007 96.8952 19.7306 96.8952C20.9978 96.8952 20.9208 97.9744 20.6682 98.6545C21.4568 98.2995 21.9153 97.6657 21.7893 96.9975C22.2357 96.9361 22.6608 96.7242 23.053 96.2814C22.7444 95.8914 22.368 95.5963 21.7893 95.5858C22.042 94.549 21.3488 94.1106 20.6682 93.8674C20.8835 94.6284 21.0248 95.5041 19.7306 95.5041C18.7868 95.5041 18.044 95.6677 17.6107 96.2815L17.5089 92.2308C17.4543 91.0161 19.1326 91.0507 20.1993 91.4124C19.7967 90.0133 18.9711 89.2569 17.0603 89.4484C17.5241 89.2542 18.0184 88.8172 18.0184 87.9754C18.0181 86.8365 17.0952 85.5747 16.4894 85.2016L16.1864 97.0593L16.1866 97.0591Z" fill="#FFEC2D"/>
</g>
<defs>
<clipPath id="clip0_1284_63082">
<rect width="250" height="150" fill="white"/>
</clipPath>
</defs>
</svg>
