<svg width="250" height="150" viewBox="0 0 250 150" fill="none" xmlns="http://www.w3.org/2000/svg">
<g clip-path="url(#clip0_1284_63128)">
<path d="M0 0H250V150H0V0Z" fill="white"/>
<path d="M0 0H250V45H0V0Z" fill="black"/>
<path d="M0 105H250V150H0V105Z" fill="#006600"/>
<path d="M250.195 52.5H147.266H125H102.734H-0.078125V97.5H102.734H125H147.266H250.195V52.5Z" fill="#BB0000"/>
<path d="M98.4688 119.531L100.156 120.469L143.936 44.5312C146.467 43.9688 147.873 41.5312 149.279 39.0938C150.217 37.4063 153.966 30.9375 155.56 22.5C151.113 26.4524 147.344 31.108 144.404 36.2813C142.998 38.7188 141.592 41.1562 142.248 43.6875L98.4688 119.531Z" fill="black" stroke="black" stroke-width="0.2" stroke-miterlimit="10"/>
<path d="M98.4688 119.531L100.156 120.469L143.936 44.5312C146.467 43.9688 147.873 41.5312 149.279 39.0938C150.217 37.4063 153.966 30.9375 155.56 22.5C151.113 26.4524 147.344 31.108 144.404 36.2813C142.998 38.7188 141.592 41.1562 142.248 43.6875L98.4688 119.531Z" fill="white"/>
<path d="M152.092 119.531L150.404 120.469L106.625 44.5312C104.094 43.9688 102.688 41.5312 101.281 39.0938C100.344 37.4063 96.5941 30.9375 95.0004 22.5C99.4479 26.4524 103.217 31.108 106.156 36.2813C107.562 38.7188 108.969 41.1562 108.312 43.6875L152.092 119.531Z" fill="black" stroke="black" stroke-width="0.2" stroke-miterlimit="10"/>
<path d="M152.092 119.531L150.404 120.469L106.625 44.5312C104.094 43.9688 102.688 41.5312 101.281 39.0938C100.344 37.4063 96.5941 30.9375 95.0004 22.5C99.4479 26.4524 103.217 31.108 106.156 36.2813C107.562 38.7188 108.969 41.1562 108.312 43.6875L152.092 119.531Z" fill="white"/>
<path d="M143.092 52.5C140.28 45 130.905 30 125.281 30C119.656 30 110.281 45 107.469 52.5L107.469 97.5C110.281 105 119.656 120 125.281 120C130.905 120 140.28 105 143.092 97.5V52.5Z" fill="#BB0000"/>
<path d="M143.093 97.5C145.905 90 147.78 82.5 147.78 75C147.78 67.5 145.905 60 143.093 52.5C140.28 60 138.405 67.5 138.405 75C138.405 82.5 140.28 90 143.093 97.5Z" fill="black"/>
<path d="M107.469 97.5C104.657 90 102.782 82.5 102.782 75C102.782 67.5 104.657 60 107.469 52.5C110.281 60 112.156 67.5 112.156 75C112.156 82.5 110.281 90 107.469 97.5Z" fill="black"/>
<path d="M125.28 80.625C127.351 80.625 129.03 78.1066 129.03 75C129.03 71.8934 127.351 69.375 125.28 69.375C123.209 69.375 121.53 71.8934 121.53 75C121.53 78.1066 123.209 80.625 125.28 80.625Z" fill="white"/>
<path d="M126.218 80.4375C126.218 80.4375 129.968 87.9375 129.968 100.125C129.968 112.312 126.218 119.812 126.218 119.812V80.4375Z" fill="white"/>
<path d="M124.343 69.5625C124.343 69.5625 120.593 62.0625 120.593 49.875C120.593 37.6875 124.343 30.1875 124.343 30.1875V69.5625Z" fill="white"/>
<path d="M124.343 80.4375C124.343 80.4375 120.593 87.9375 120.593 100.125C120.593 112.312 124.343 119.812 124.343 119.812V80.4375Z" fill="white"/>
<path d="M126.218 69.5625C126.218 69.5625 129.968 62.0625 129.968 49.875C129.968 37.6875 126.218 30.1875 126.218 30.1875V69.5625Z" fill="white"/>
</g>
<defs>
<clipPath id="clip0_1284_63128">
<rect width="250" height="150" fill="white"/>
</clipPath>
</defs>
</svg>
