<svg width="250" height="150" viewBox="0 0 250 150" fill="none" xmlns="http://www.w3.org/2000/svg">
<g clip-path="url(#clip0_1284_68147)">
<path d="M0 0H250V150H0V0Z" fill="#244AA5"/>
<path d="M102.081 70.25C102.081 70.25 102.456 70 102.581 69.9687C102.737 69.9687 103.206 69.7812 103.206 69.7812C103.206 69.7812 103.518 69.625 103.674 69.625C103.862 69.625 104.174 69.8125 104.299 69.9687C104.393 70.125 104.924 70.4062 104.924 70.4062C104.924 70.4062 105.299 70.5312 105.393 70.4062C105.456 70.2812 105.612 70.1875 105.799 70.1875C105.956 70.1875 105.987 70.0312 105.987 69.9062C105.987 69.7812 106.049 69.625 106.174 69.4687C106.331 69.3125 106.58 69.2187 106.58 69.2187C106.58 69.2187 106.955 69.0625 106.987 68.8437C107.049 68.625 107.393 68.4687 107.612 68.4375C107.83 68.4375 107.612 68.3125 108.174 68.375C108.705 68.4375 108.799 68.25 108.799 68.0937C108.83 67.9375 108.799 67.7812 109.143 67.7812C109.487 67.8437 109.643 67.8437 109.643 67.6562C109.643 67.4687 109.955 67.3438 109.424 67.2188C108.862 67.0625 108.924 67.1875 108.862 66.9062C108.862 66.6875 108.862 66.7187 108.518 66.6875C108.143 66.6562 108.33 66.4688 108.299 66.2812C108.268 66.0938 108.174 65.9687 108.112 65.875C108.018 65.75 107.83 65.75 107.83 65.5625C107.83 65.375 107.799 65.25 107.612 65.25C107.393 65.25 107.299 65.25 107.299 65.0937C107.299 64.9062 107.362 64.7812 107.549 64.7812C107.768 64.7812 107.862 64.5938 107.862 64.4062C107.799 64.2188 107.799 63.8125 107.799 63.8125L108.08 63.5C108.08 63.5 108.893 62.8437 108.955 62.7187C109.018 62.5937 109.299 62.5 109.424 62.75C109.549 63 109.612 63.0625 109.737 63.1875C109.83 63.3125 110.143 63.2187 110.205 63.0937C110.268 62.9687 110.299 62.5 110.486 62.25C110.674 62.0312 110.799 61.9062 110.83 61.6875C110.861 61.4687 110.986 61.3125 111.205 61.3125C111.393 61.3125 111.518 61.0312 111.518 60.875C111.518 60.7187 111.643 60.5625 111.893 60.5C112.143 60.4687 112.299 60.3125 112.393 60.5625C112.486 60.8125 112.58 60.7812 112.736 60.875C112.924 60.9687 113.174 61.0625 113.299 60.9687C113.455 60.8437 113.517 60.6562 113.705 60.75C113.892 60.875 114.017 60.75 114.08 60.5312L114.174 59.9375C114.174 59.9375 114.205 59.7812 114.517 59.7812C114.83 59.7812 114.611 59.5937 114.767 59.4687C114.955 59.3437 114.955 59.2187 115.174 59.2812C115.392 59.375 115.736 59.1875 115.58 58.9687C115.392 58.7812 115.017 58.4687 115.236 58.2187C115.455 57.9687 115.549 57.5937 115.33 57.5312C115.111 57.5 114.767 57.5625 114.736 57.3437C114.705 57.0937 114.611 56.9062 114.892 56.875C115.142 56.8437 115.58 56.8437 115.736 56.7187C115.861 56.5937 116.299 56.5 116.299 56.1562C116.299 55.7812 116.424 55.75 116.486 55.5312C116.517 55.3437 116.517 54.9062 116.33 54.7188C116.142 54.5 115.892 54.2188 115.861 54.0938C115.799 53.9688 115.642 53.7812 115.361 53.6875C115.111 53.625 114.861 53.5625 114.861 53.375C114.861 53.1562 115.049 53.4062 115.049 52.875C115.049 52.3437 114.705 52.25 114.705 52.25L114.174 51.9375C114.174 51.9375 113.236 51.6875 112.986 51.6875C112.736 51.6875 112.424 51.4375 112.705 51.25C113.018 51.0937 113.08 50.7812 112.986 50.5625C112.861 50.3437 112.799 50.1562 112.393 50.0625C111.986 49.9687 111.893 49.875 112.08 49.625C112.236 49.4062 112.299 49.2188 112.518 49.4062C112.705 49.5625 113.08 49.625 113.361 49.5C113.674 49.375 113.767 49.25 113.924 49.4062C114.049 49.5312 114.236 49.6562 114.455 49.4687C114.674 49.25 115.08 49.2187 115.267 49.3125C115.424 49.4375 115.892 49.4062 116.017 49.3125C116.142 49.25 116.455 49 116.455 48.9062C116.455 48.8125 116.642 48.5312 116.799 48.4375C116.986 48.3125 117.205 48 117.392 48C117.58 48 117.642 47.7812 117.642 47.6875C117.642 47.5312 117.798 47.25 117.83 47.1562C117.83 47.0625 118.205 46.9062 118.455 47.1562C118.736 47.3125 119.08 47.4062 119.08 47.4062C119.08 47.4062 119.392 47.4687 119.611 47.4062C119.709 47.3454 119.823 47.3132 119.939 47.3132C120.055 47.3132 120.168 47.3454 120.267 47.4062C120.548 47.5937 120.892 47.5937 120.892 47.5937L120.986 47.1875C120.986 47.0625 121.048 46.8125 120.892 46.7187C120.767 46.625 120.579 46.5 120.861 46.2812C121.173 46.0938 121.173 46.125 121.454 46.125L122.142 46.1562C122.361 46.1562 122.704 46.375 122.704 46.5625C122.704 46.75 122.861 46.875 123.017 47C123.204 47.0937 123.423 47.1875 123.329 47.375C123.298 47.5312 123.298 47.6875 123.517 47.625C123.736 47.5937 123.798 47.7187 123.798 47.9062C123.798 48.0625 123.86 48.1562 124.11 48.2187C124.298 48.2812 124.423 48.4375 124.423 48.5937C124.423 48.75 124.36 48.875 124.423 49.0312L124.735 49.4687C124.735 49.4687 125.142 49.9375 124.61 49.6875C124.11 49.4687 123.985 49.375 123.829 49.375L123.517 49.5312L123.111 49.5937C122.923 49.5937 122.736 49.9688 123.048 50.0312C123.329 50.0938 123.423 50.1562 123.423 50.4062C123.423 50.6562 123.329 50.5625 123.173 50.7187C123.048 50.9062 122.923 50.7812 122.673 50.7812C122.423 50.7812 122.361 51 122.361 51.1875C122.361 51.375 122.454 51.375 122.548 51.5C122.673 51.6875 122.861 51.7187 123.048 51.5625C123.204 51.4062 123.361 51.2812 123.454 51.5938C123.579 51.9062 123.735 51.9062 123.923 51.9062C124.142 51.9062 124.235 51.9062 124.423 51.7812C124.579 51.6875 124.798 51.7812 124.829 52.0625C124.892 52.3125 125.048 52.375 125.235 52.4687C125.423 52.5625 125.548 52.625 125.548 52.7812C125.61 52.9687 125.704 53.0312 125.892 52.9375C126.079 52.8125 126.36 52.75 126.485 52.9062L126.767 53.2812V53.625L127.485 53.875L127.548 54.1875C127.548 54.2812 127.673 54.375 127.86 54.3125H128.36C128.36 54.3125 128.61 54.2187 128.61 54C128.61 53.8125 128.704 53.75 128.923 53.75C129.079 53.75 129.485 53.9062 129.579 53.6875C129.704 53.5 130.016 53.4375 130.266 53.5312L131.204 53.9062C131.204 53.9062 131.11 53.9062 131.329 54.25C131.547 54.5938 131.954 54.5937 131.954 54.5937C131.954 54.5937 131.954 54.9062 132.047 55.0312C132.11 55.1562 132.454 55.2187 132.61 55.0937C132.797 54.9687 133.047 54.7812 133.266 54.7812C133.485 54.7812 133.641 54.7812 133.641 54.6562C133.641 54.5312 133.422 54.4375 133.422 54.2187C133.422 54 133.641 54.0312 133.672 53.8125C133.704 53.625 133.922 53.8125 134.078 53.9375C134.235 54.0625 134.391 54.1875 134.391 54.3125C134.391 54.4687 134.703 54.9375 134.86 55C135.047 55.0625 135.516 55.0937 135.672 54.9375C135.797 54.75 136.172 54.6875 136.141 55.0937C136.11 55.5 136.016 55.5312 136.266 55.6562C136.516 55.7812 136.578 56.2812 136.36 56.4062C136.141 56.5312 136.047 56.5625 136.047 56.7812C136.047 57 135.985 57.2812 136.172 57.4062C136.36 57.5625 136.485 57.6562 136.485 57.7812C136.485 57.9375 136.672 58.5312 136.672 58.5312C136.672 58.5312 136.797 59.125 136.735 59.25C136.735 59.4062 136.641 59.625 136.953 59.5937C137.266 59.5625 137.36 59.5625 137.36 59.8125C137.36 60.0625 137.485 60.1875 137.297 60.2812C137.11 60.4062 136.985 60.7187 137.172 60.7812C137.36 60.8437 137.485 60.9687 137.547 61.0937C137.578 61.2187 137.859 61.4687 138.047 61.3125C138.234 61.1875 138.266 61.125 138.422 61.0937C138.547 61.0625 138.672 60.9687 138.516 60.7812C138.391 60.625 138.328 60.4687 138.484 60.3437C138.641 60.25 138.703 59.9375 138.703 59.9375C138.703 59.9375 138.922 59.625 139.172 59.9375C139.422 60.25 139.484 60.125 139.641 60.125C139.797 60.125 139.891 60.2812 139.891 60.4375C139.891 60.625 140.266 60.5937 140.266 60.8437L140.328 61.7812C140.328 61.7812 140.328 62.125 140.547 62.25C140.766 62.4062 140.734 62.4375 140.609 62.5625C140.516 62.75 140.547 63.0312 140.547 63.1875C140.547 63.3437 140.609 63.3437 140.453 63.5C140.266 63.625 140.172 63.8125 140.297 64C140.391 64.1875 140.359 64.3125 140.641 64.5625C140.953 64.7812 140.922 64.875 140.922 65.0625C140.922 65.2187 141.203 65.4687 141.203 65.625C141.203 65.7812 141.422 66 141.609 66.0312C141.797 66.0625 141.984 66.3437 141.984 66.5312L142.015 67.125C142.015 67.125 142.015 67.2188 142.203 67.2188C142.422 67.2188 142.578 67.4688 142.64 67.2188C142.703 66.9062 142.953 66.9062 143.078 66.8125C143.203 66.7187 143.515 66.625 143.672 66.7187C143.828 66.8125 143.984 66.8125 144.14 66.8125L144.953 66.8437C144.953 66.8437 145.14 66.8437 145.265 67.0937C145.359 67.3437 145.671 67.6562 145.515 67.7812C145.328 67.9375 145.328 68.1875 145.515 68.1875C145.703 68.1875 145.984 68.1875 145.984 68.3437C145.984 68.5312 145.984 68.6562 146.203 68.5625C146.359 68.4687 146.484 68.4375 146.546 68.5625C146.64 68.6875 146.765 68.6875 146.953 68.7812C147.14 68.9062 147.203 68.8125 147.328 68.6875C147.421 68.5625 147.859 68.4375 147.859 68.4375C147.859 68.4375 148.421 68.2812 148.64 68.3437L149.171 68.5625C149.171 68.5625 149.296 68.875 149.234 69.0938C149.171 69.2812 149.077 69.25 149.171 69.5625C149.234 69.875 149.077 69.875 148.952 69.875C148.796 69.8125 148.64 69.8125 148.64 70.0937C148.64 70.3437 148.515 70.4062 148.515 70.6562C148.515 70.9062 148.515 70.8438 148.359 70.9688C148.234 71.0625 148.171 71.2188 148.39 71.2812C148.609 71.2812 148.546 71.5312 148.546 71.6562L148.515 72.0937C148.515 72.0937 148.515 72.25 148.296 72.25C148.077 72.25 147.828 72.25 147.796 72.4062C147.734 72.5625 147.484 72.8125 147.703 73C147.952 73.1562 147.89 73.25 147.734 73.3125C147.609 73.4062 147.484 73.7187 147.796 73.8125C148.077 73.9375 148.046 74.0312 147.859 74.1562C147.671 74.2812 147.328 74.4062 147.328 74.5937C147.328 74.7812 147.234 74.7812 147.015 74.8125C146.796 74.8437 146.703 75.125 146.953 75.4375C147.203 75.7812 147.265 75.75 147.453 75.75C147.64 75.75 147.64 75.4375 147.64 75.4375L148.421 75.5C148.609 75.5 148.859 75.5 149.015 75.4062C149.171 75.2812 149.546 75.125 149.546 75.4062C149.546 75.7187 149.64 75.7188 149.796 75.8125C149.984 75.9688 150.015 75.8437 150.171 76.0625C150.327 76.25 150.359 76.0625 150.484 75.8437C150.577 75.625 150.796 75.4062 150.984 75.6562C151.14 75.9375 151.14 75.8437 151.359 75.8437C151.577 75.8437 151.671 75.9688 151.671 76.125C151.671 76.2812 151.858 76.2812 152.14 76.25C152.39 76.25 152.421 76.4062 152.515 76.5625C152.608 76.7187 152.671 76.6875 152.827 76.6875C152.952 76.6875 153.108 76.6875 153.202 76.5625C153.327 76.4375 153.452 76.25 153.608 76.4687C153.765 76.6562 154.046 76.625 154.108 76.4062C154.202 76.1562 154.515 75.9687 154.702 76.2187C154.889 76.5 155.014 76.5 155.202 76.5312C155.389 76.5312 155.639 76.5312 155.733 76.7187C155.858 76.9062 156.202 77.1562 155.952 77.3437C155.702 77.5625 155.421 77.8125 155.639 77.9062C155.835 77.9539 156.011 78.0635 156.139 78.2188C156.296 78.3438 156.764 78.4375 156.983 78.4688C157.202 78.4688 157.358 78.5312 157.608 78.3125C157.889 78.125 158.139 78.125 158.108 78.4062C158.077 78.6562 158.202 78.9687 158.202 78.9687C158.202 78.9687 158.389 79.4062 158.389 79.5625C158.389 79.7188 158.358 79.75 158.702 79.9687C159.014 80.1562 158.952 80.2812 159.233 80.0937C159.483 79.9062 159.545 79.7812 159.545 79.625V79.0938C159.545 79.0938 159.92 79.0312 160.045 78.9375C160.202 78.8125 160.764 78.5312 160.92 78.6562C161.077 78.7812 161.233 78.75 161.389 78.6875C161.545 78.625 161.826 78.625 161.983 78.625C162.108 78.625 162.358 78.6562 162.67 78.4375C162.951 78.1875 162.951 78.25 163.139 78.4375C163.295 78.5937 163.295 78.7812 163.201 78.9375C163.076 79.0625 163.201 79.3437 163.451 79.3437C163.701 79.3437 163.764 79.5 163.764 79.6562L163.858 80.1875C163.858 80.3125 163.858 80.4062 164.295 80.5C164.67 80.5938 164.608 80.8125 164.67 81C164.764 81.1562 164.764 81.3125 164.545 81.3125C164.326 81.3125 164.233 81.4062 164.233 81.5625C164.17 81.7187 163.858 81.7812 163.858 81.7812L163.545 81.7187C163.545 81.7187 163.295 81.7187 163.201 81.8437C163.076 82 162.889 82.25 163.014 82.4687C163.17 82.7187 163.17 82.8437 163.014 82.9687C162.889 83.0625 162.795 83.5625 162.67 83.4688C162.514 83.3438 162.358 83.4687 162.201 83.5625C162.045 83.625 162.076 84.0938 162.358 84.25C162.67 84.4375 162.733 84.6562 162.733 84.6562L163.045 85.1562C163.045 85.1562 162.951 85.25 162.889 85.4375C162.795 85.5937 162.576 85.9375 162.795 86C163.014 86.0625 162.92 86.4375 162.701 86.4375C162.483 86.4375 162.233 86.3125 162.201 86.5938C162.17 86.875 162.045 86.7812 161.826 86.75C161.608 86.75 161.077 86.5937 160.92 86.8437C160.764 87.125 160.733 87.2188 160.483 87.1875C160.233 87.1875 160.327 87.5937 160.42 87.75L160.733 88.1562C160.733 88.1562 160.952 88.3125 160.952 88.6563C160.952 88.9688 160.795 88.9687 160.639 88.7187C160.514 88.5 160.233 88.5312 160.202 88.7812C160.17 89.0625 160.108 89.4687 159.889 89.4687C159.608 89.4687 159.514 89.5312 159.389 89.6562C159.295 89.7812 159.108 90.0312 159.108 90.1562C159.108 90.2812 159.077 90.4375 158.889 90.4688C158.702 90.5 158.67 90.8438 158.67 90.8438C158.67 90.8438 158.233 90.9375 158.202 91.0938C158.171 91.25 158.233 91.5312 157.889 91.5625C157.749 91.579 157.615 91.6269 157.496 91.7026C157.377 91.7784 157.276 91.88 157.202 92C157.077 92.1562 157.046 92.3125 157.202 92.4687C157.358 92.625 157.452 93.1562 157.639 93.25C157.796 93.3437 157.952 93.4063 157.921 93.6563C157.889 93.9375 157.671 94.125 157.952 94.125C158.264 94.125 158.42 94.1875 158.327 94.4375C158.202 94.6563 158.202 94.6875 158.014 94.7812C157.764 94.9062 157.671 94.9062 157.671 95.1562C157.671 95.4062 157.733 95.4375 157.546 95.5313C157.358 95.625 157.358 95.75 157.358 95.9688C157.358 96.1875 157.296 96.0938 157.077 96.3125C156.858 96.5625 156.577 96.5625 156.389 96.5C156.202 96.4375 156.171 96.4375 156.139 96.2187C156.108 96.0312 155.796 96.0312 155.608 96.0625C155.421 96.0625 155.171 96.2812 155.171 96.2812C155.171 96.2812 154.858 96.5 154.983 96.6562C155.139 96.8125 155.046 97.0938 154.796 97.0625C154.546 97.0312 153.983 97.3125 153.796 97.0312C153.608 96.7188 153.108 96.5313 153.015 96.9375C152.952 97.3125 153.233 97.2812 153.202 97.6875C153.202 98.0938 153.108 98.0937 152.952 98.2187C152.827 98.3437 152.827 98.4688 152.765 98.625C152.765 98.7812 152.702 99.1563 152.952 99.2813C153.202 99.4375 153.327 99.7812 153.327 100C153.327 100.188 153.327 100.406 153.577 100.406C153.827 100.406 154.046 100.344 154.077 100.125C154.108 99.9062 154.608 99.75 154.671 100.219C154.671 100.688 154.671 100.938 154.889 101.125C155.046 101.312 155.202 101.594 155.358 101.687C155.483 101.781 155.733 102.625 155.733 102.625C155.389 102.719 155.296 103.187 155.077 103.25C154.952 103.312 154.796 103.25 154.671 103.344C154.608 103.438 154.608 103.562 154.483 103.594C154.202 103.719 154.265 103.312 153.921 103.469C153.64 103.594 153.608 103.938 153.202 103.781C152.983 103.719 152.858 102.844 152.796 102.656L152.452 102.094C152.202 101.719 151.733 102.094 151.577 101.969C151.327 101.812 151.421 101.531 151.046 101.5C150.296 101.437 150.827 101.969 150.515 102.062C149.89 102.281 149.89 101.5 149.452 101.875C149.296 102 149.765 102.094 149.64 102.312C149.546 102.5 149.109 102.813 149.109 103.031C149.171 103.344 149.484 103.438 149.577 103.656C149.89 104.375 149.421 104.844 148.734 104.281C148.359 104 148.265 103.438 147.703 103.5C147.546 103.5 147.515 103.625 147.39 103.656C147.234 103.656 147.14 103.531 146.984 103.562C146.765 103.656 146.984 103.812 146.921 103.938C146.921 103.938 146.609 104.156 146.609 104.25C146.421 104.438 146.484 104.625 146.234 104.812C146.046 104.969 145.89 104.875 145.671 105.125C145.453 105.344 145.421 105.719 145.14 105.938C144.984 106.062 144.89 105.594 144.703 105.906L144.64 106.031C144.578 106.125 144.578 106.156 144.64 106.25C145.015 107 144.203 107.25 143.953 107.781C143.859 108 144.14 108.187 144.047 108.375L143.578 108.906C143.578 108.969 143.515 109.156 143.453 109.219C143.39 109.281 143.14 109.219 143.14 109.344C143.14 109.469 143.39 109.562 143.453 109.625C143.515 109.719 143.39 109.844 143.453 109.875C143.828 110.281 143.609 110.156 143.797 110.5C143.828 110.562 143.953 110.469 144.015 110.594C144.047 110.719 143.89 110.719 143.953 110.844C143.953 110.906 144.265 111.281 144.265 111.281C144.265 111.406 143.703 111.656 143.578 111.656C143.234 111.656 143.89 110.969 143.328 110.969C143.078 110.969 143.047 111.5 143.015 111.594H142.703C142.328 111.594 142.078 112.031 141.953 112.062C141.859 112.094 141.64 112 141.484 112.062C141.359 112.062 141.172 112.219 141.047 112.219C140.953 112.219 140.922 112.156 140.828 112.094C140.672 112 140.359 111.969 140.203 111.906C140.078 111.906 139.891 112.031 139.828 112C139.734 111.938 139.922 111.688 139.641 111.562L139.422 111.031C139.516 110.719 139.609 110.406 139.578 110.063C139.516 109.719 138.953 109.438 138.828 109.125C138.734 108.938 138.641 108.375 138.422 108.25C138.184 108.067 137.991 107.832 137.859 107.563C137.859 107.5 137.953 107.375 137.859 107.25C137.766 107.156 137.609 107.094 137.547 106.938C137.516 106.813 137.547 106.375 137.391 106.281C137.235 106.188 136.141 106.031 135.828 106C135.703 106 135.61 106 135.516 105.906L135.328 105.688L135.016 105.75C134.922 105.75 134.766 105.687 134.703 105.75C134.36 105.969 134.266 106.281 133.922 106.562C133.579 106.812 133.204 106.813 132.86 107.094C132.641 107.281 132.485 107.75 132.266 107.969C132.172 108.062 132.047 107.969 132.016 108C131.829 108.219 131.579 108.375 131.391 108.562C131.36 108.625 131.391 108.687 131.329 108.719L130.922 108.844H130.548C130.391 108.906 130.391 109.094 129.766 109.219L129.61 109.312L129.423 109.469H129.141C128.985 109.469 128.891 109.625 128.766 109.625C128.454 109.687 127.891 109.469 127.641 109.594C127.485 109.625 127.079 110.125 126.923 110.156C126.829 110.188 126.735 110.156 126.61 110.125L126.423 110.812L125.673 111.469C125.579 111.562 125.548 111.688 125.423 111.781C125.36 111.875 125.235 111.938 125.11 111.938C124.985 111.938 124.767 111.812 124.61 111.812C124.36 111.75 123.579 111.719 123.361 111.781C123.079 111.812 123.173 112.531 122.548 112.594L121.517 112.719C121.486 112.719 121.267 112.594 121.048 112.625C120.954 112.656 120.704 112.938 120.704 113V113.156L120.767 113.281C120.642 113.438 120.329 113.688 120.236 113.906L120.111 114.031C120.048 114.094 119.611 114.25 119.58 114.312C119.486 114.562 119.892 114.812 119.83 114.906C119.736 115.219 119.298 115.531 119.142 115.844C119.111 115.969 119.298 116.375 119.298 116.5C119.236 116.906 119.111 117.406 119.142 117.781L119.205 118.312L119.423 118.469L119.986 119.594C120.08 120.281 119.048 120.031 119.673 120.719C119.736 120.844 119.798 120.937 119.923 121.031L120.798 121.75C120.798 121.875 120.173 121.969 120.08 122.062C119.767 122.375 119.548 122.875 119.267 123.188C119.08 123.344 118.955 123.156 118.705 123.594C118.642 123.75 118.705 124.094 118.611 124.219C118.455 124.344 118.361 124.156 118.205 124.219C118.142 124.219 118.111 124.437 118.048 124.469C117.892 124.625 116.424 125.406 116.299 125.312C116.236 125.281 116.142 125.031 116.142 124.969C116.142 124.875 116.017 124.688 115.955 124.656C115.58 124.344 115.017 124.25 114.642 124.656C114.549 124.75 114.549 124.906 114.424 124.969L113.799 125.469L113.642 125.625C113.486 125.625 113.143 125.219 113.018 125.094C112.893 124.906 112.393 124.469 112.361 124.25C112.361 123.5 111.768 122.719 111.549 122H111.893C112.299 121.719 112.205 121.062 112.924 121.312C113.018 121.188 113.018 121.062 113.174 121C113.236 120.938 113.361 120.906 113.393 120.844C113.642 120.469 113.924 119.031 113.674 118.656C113.455 118.344 113.205 118.344 113.049 117.812C112.986 117.656 113.049 117.5 113.049 117.312L112.736 116.344C112.674 116.25 112.518 116.188 112.518 116.125L112.455 115.156C112.236 114.469 111.393 114.062 111.361 113.969L111.049 113.438C110.924 113.219 110.924 113.125 110.861 112.938C110.83 112.844 110.674 112.75 110.674 112.656C110.674 112.469 111.174 112.125 111.143 111.812C111.143 111.719 110.83 111.406 110.893 111.25C110.955 111.062 111.268 110.688 111.268 110.469C111.268 110.219 110.768 109.656 110.705 109.406C110.674 109.25 110.893 109.156 110.83 109.062C110.768 108.938 110.268 108.469 110.205 108.344C110.111 108.25 110.361 108.125 110.205 107.937C110.018 107.781 110.174 107.812 110.111 107.688C110.049 107.531 109.893 107.375 109.799 107.219C109.737 107.062 109.299 105.5 109.33 105.406C109.237 105.312 109.112 105.219 109.049 105.094L108.924 104.719C108.924 104.719 108.424 104.562 108.33 104.406C108.268 104.312 108.237 103.906 108.112 103.719C108.049 103.625 107.955 103.656 107.893 103.594C107.83 103.531 107.83 103.437 107.799 103.375C107.643 103.187 107.362 103.375 107.174 102.625C106.862 102.437 106.643 102.312 106.424 102.062L106.299 101.938C106.112 101.875 105.831 101.844 105.674 101.719C105.581 101.719 105.112 101.719 105.049 101.656L104.924 101.406C104.674 101.375 104.237 101.406 104.018 101.219C103.862 101.062 103.831 100.344 103.518 100.437C103.477 100.425 103.434 100.425 103.393 100.437C103.174 100.125 102.487 100.125 102.206 99.9375C102.143 99.9062 101.893 99.9375 101.893 99.875L101.925 99.4687L101.581 99.0312C101.3 98.9687 101.393 98.9375 101.268 98.8437C100.8 98.8437 100.737 98.9062 100.456 99.1562C100.393 99.2187 100.237 99.25 100.143 99.2813C99.9872 99.375 99.956 99.6562 99.7372 99.5312L99.5497 99.375C99.4248 99.25 99.3623 99.3125 99.2998 99.125C98.9248 98.9063 97.8936 99.5938 97.6749 99.125C97.4874 99.0313 97.3624 99.125 97.2062 99C97.1437 98.9375 97.4249 98.0625 96.675 97.75L97.1749 97.4063C97.2374 97.3125 97.1749 97.1563 97.1749 97.0938C97.1749 96.9375 97.2687 96.6562 97.2374 96.5625C97.2374 96.4688 97.1124 96.375 97.0812 96.25C97.0187 96.1562 97.0812 96 97.0187 95.875L96.7687 95.75C96.5812 95.5937 96.3937 95.5 96.2375 95.3125L96.1125 95.1562C95.9875 95.0625 95.55 94.9062 95.55 94.7188C95.55 94.6562 95.675 94.625 95.675 94.5625C95.7063 94.4688 95.675 94.375 95.7688 94.3125C95.9563 94 96.425 94.1562 96.3625 93.625C96.3312 93.375 96.1437 93.1875 96.1125 92.9375C96.0188 92.875 96.0188 92.7813 95.9563 92.7188C95.4875 92.6875 95.55 92.2188 95.3938 92.0938C94.9251 91.7813 94.5501 91.9687 95.0813 91.3437C95.1438 91.125 94.6126 90.7813 94.5189 90.6875C94.3314 90.5 94.4251 90.0938 94.3314 89.9063C94.3314 89.8125 93.9877 89.625 93.8939 89.5L93.7377 89.1875V89.1562C93.8314 89.0625 93.8002 88.9062 93.7377 88.8437C93.7064 88.75 93.5502 88.7812 93.5189 88.7187C93.0815 88.3437 92.5815 88.1562 91.9878 87.9375C91.8316 87.875 91.8941 87.75 91.7378 87.6875L90.8004 87.3125C90.7379 87.3125 90.6754 86.9687 90.6129 86.8437L90.3317 86.5312C90.3317 86.2187 90.1442 86.2187 89.8942 86.0312V85.8438L90.0817 85.1875C90.1129 85.0625 90.2692 84.9375 90.2379 84.8125L90.1129 84.0938C89.8629 83.4688 89.5817 83.5312 89.738 82.6875C89.738 82.5 89.7067 82.4062 89.8317 82.25L89.8942 82.1562L90.2692 81.875C90.3942 81.6875 90.4879 81.2812 90.6441 81.1562L91.2066 80.7812C91.2691 80.7187 91.3316 80.5 91.3003 80.4062C91.1754 80.3437 91.0504 80.375 90.9254 80.3438C90.8629 80.3438 90.7066 80.2188 90.5816 80.2188C90.5504 80.1562 90.4879 80.125 90.4879 80.0625L90.4254 80C90.2692 80 90.1129 79.9062 89.9879 79.8437C89.8317 79.7812 89.613 79.7812 89.4567 79.6875C89.1443 79.5312 88.8318 79.0625 88.5505 79C88.1756 78.9062 87.9256 79.0312 87.5506 79.0625C87.3319 79.0625 87.3319 78.9375 87.1444 78.875C86.8944 78.7812 87.0819 79 86.5194 78.8125C86.4257 78.75 86.5194 78.5625 86.5194 78.5H86.207C85.7695 78.375 85.9257 77.9375 85.8007 77.6562C85.7695 77.5937 85.5508 77.5937 85.4883 77.5937C85.4258 77.5937 85.4258 77.5312 85.4258 77.5312L85.4883 77.5C85.5508 77.375 85.2695 77.0625 85.2695 77C85.3008 76.9062 85.8945 76.8125 85.957 76.8125C85.9882 76.7187 85.9257 76.6562 85.8945 76.5938C85.8945 76.4375 85.9882 76.2187 86.0507 76.0625V76C85.8632 75.9062 85.832 75.7812 85.6758 75.6875C85.6758 75.5937 85.7695 75.5625 85.8007 75.4687C86.082 74.6875 86.5194 75.3125 86.8944 74.5937C86.9257 74.5312 87.0507 74.375 87.0819 74.25H87.1444C87.2069 74.25 87.3319 74.3125 87.3944 74.25C87.4569 74.1875 87.5506 74.1875 87.6444 74.1562H87.8006C88.4881 74.0312 88.3318 73.7812 88.738 73.5C88.863 73.4062 89.1755 73.375 89.3005 73.3125C89.4567 73.4062 89.6755 73.625 89.9567 73.75C90.1754 73.8125 90.8941 73.9687 91.0191 74.0625C91.1754 74.125 91.2066 74.3125 91.3316 74.375C91.7378 74.625 91.4878 74.25 91.8941 74.3125C92.3003 74.4062 92.6127 74.75 92.9877 74.9062L93.3002 74.875C93.3939 74.8438 94.0189 74.7187 94.0814 74.75L94.3314 74.8437C94.4251 74.875 94.4876 74.6875 94.5814 74.6875C94.8313 74.75 94.8313 74.8437 95.2063 74.8125C95.2063 74.8125 95.3938 73.7812 95.5813 73.75C95.675 73.7187 95.9563 73.9687 96.0188 74C96.1437 74.0312 96.0188 73.7812 96.0188 73.7812C95.9563 73.6875 95.7688 73.0625 95.8 73C95.8 73 95.9563 73.0625 96.05 73.0312C96.2375 72.9687 96.5187 72.9062 96.675 72.75L96.9874 72.2812C97.0187 72.2187 96.9249 72.0312 96.9874 71.9687L97.2687 71.7812C97.3937 71.6562 97.3937 71.4687 97.5811 71.375C98.2061 71.3125 98.4248 70.8125 99.0185 70.75H99.206L99.331 70.9375C99.331 70.9687 99.7372 71.2187 99.7997 71.1875C99.8622 71.1875 99.8935 71.0937 99.956 71.0625C100.05 71.0937 100.393 70.9062 100.425 70.7812C100.425 70.7812 100.362 70.6875 100.393 70.5937C100.549 70.4551 100.717 70.3296 100.893 70.2187H101.331C101.393 70.2812 101.393 70.4062 101.487 70.4062H101.862C101.925 70.4062 101.956 70.25 102.081 70.25Z" fill="#D0A650"/>
<path d="M134.901 22.9375L139.931 38.4375L126.746 28.8438H143.056L129.871 38.4375L134.87 22.9375H134.901ZM154.522 26.4062L159.521 41.9063L146.367 32.3125H162.646L149.461 41.9063L154.522 26.4062ZM173.237 33.2188L178.236 48.7187L165.083 39.125H181.361L168.176 48.75L173.237 33.25V33.2188Z" fill="white"/>
<path d="M114.967 22.9375L109.937 38.4375L123.122 28.8438H106.812L119.997 38.4375L114.998 22.9375H114.967ZM95.3455 26.4062L90.3465 41.9062L103.5 32.3125H87.2221L100.407 41.9062L95.3455 26.4062ZM76.7241 33.2187L81.7856 48.7187L68.6006 39.125H84.8788L71.6938 48.7187L76.7241 33.2187Z" fill="white"/>
</g>
<defs>
<clipPath id="clip0_1284_68147">
<rect width="250" height="150" fill="white"/>
</clipPath>
</defs>
</svg>
