<svg width="250" height="150" viewBox="0 0 250 150" fill="none" xmlns="http://www.w3.org/2000/svg">
<g clip-path="url(#clip0_1284_63232)">
<path d="M0 0H250V150H0V0Z" fill="#FF0000"/>
<path d="M113.717 64.8181C110.923 63.0824 107.959 61.6429 104.911 60.4574C102.286 64.3524 100.762 69.0094 100.762 74.0474C100.762 76.5454 101.143 78.9586 101.862 81.2449C103.132 78.3236 104.741 75.4871 106.689 72.7774C108.724 69.8676 111.081 67.1975 113.717 64.8181ZM106.265 58.6791C109.568 59.8224 112.743 61.3041 115.791 63.0399C116.469 62.4474 117.188 61.9391 117.866 61.4311C114.648 59.6529 111.219 58.2136 107.705 57.1126C107.197 57.6209 106.689 58.1289 106.265 58.6791ZM109.229 55.6734C113.039 56.6894 116.68 58.0864 120.11 59.9069C120.914 59.3989 121.719 58.9331 122.481 58.4676C118.84 56.6046 114.987 55.2501 111.007 54.2761C110.379 54.6944 109.784 55.1616 109.229 55.6734ZM112.828 53.1331C117.019 53.9799 121.083 55.3346 124.894 57.1974C128.746 55.3346 132.811 53.9799 136.96 53.1331C133.446 51.0586 129.297 49.8731 124.894 49.8731C120.491 49.8731 116.384 51.0586 112.828 53.1331ZM138.78 54.3186C134.807 55.2496 130.956 56.6421 127.307 58.4676C128.107 58.9318 128.897 59.4117 129.678 59.9069C133.149 58.0864 136.79 56.6894 140.558 55.6734C140.008 55.1651 139.415 54.6996 138.78 54.3184L138.78 54.3186ZM142.083 57.1551C138.569 58.2136 135.182 59.6529 131.922 61.4311C132.645 61.9436 133.351 62.4801 134.039 63.0399C137.044 61.3041 140.22 59.8224 143.522 58.6791C143.099 58.1289 142.633 57.6209 142.083 57.1551ZM144.877 60.4996C141.82 61.6468 138.885 63.0933 136.113 64.8181C138.696 67.1466 141.024 69.8139 143.141 72.7774C145.015 75.44 146.632 78.2753 147.967 81.2449C148.645 78.9164 149.026 76.5454 149.026 74.0474C149.026 69.0094 147.502 64.3521 144.877 60.4996ZM142.802 77.0959C140.262 72.9891 137.214 69.3481 133.827 66.2576L131.541 67.9086C137.256 73.2431 141.871 79.9324 144.792 87.7224C145.47 86.7064 146.105 85.6479 146.613 84.5894C145.554 82.0494 144.284 79.5514 142.802 77.0959ZM129.381 66.0884C130.144 65.5379 130.906 64.9874 131.71 64.4794C131.033 63.8869 130.313 63.3364 129.593 62.7859L127.18 64.3524H127.222C127.942 64.9029 128.662 65.4954 129.381 66.0881V66.0884ZM124.894 62.7011L127.307 61.2194L124.894 59.7376C124.089 60.2034 123.327 60.7114 122.523 61.2194C123.327 61.6851 124.089 62.1931 124.894 62.7011ZM122.608 64.3524C121.803 63.8019 121.041 63.2939 120.237 62.7859L118.078 64.4371L120.406 66.0459C121.122 65.458 121.856 64.8932 122.608 64.3524ZM124.894 66.0459C124.174 66.5961 123.454 67.1889 122.692 67.8241C123.454 68.4166 124.174 69.0516 124.894 69.6866C125.614 69.0516 126.333 68.4166 127.095 67.8241C126.375 67.2314 125.656 66.5961 124.894 66.0459ZM124.894 73.9629C121.585 77.5306 118.779 81.5331 116.553 85.8596C114.987 88.8231 113.759 91.9139 112.828 95.0044C116.384 96.9944 120.491 98.1796 124.894 98.1796C129.297 98.1796 133.404 96.9941 136.96 95.0044C136.028 91.9139 134.801 88.8231 133.234 85.8594C130.948 81.4144 128.154 77.4344 124.894 73.9629ZM110.923 90.0086C113.674 82.9806 117.739 76.8419 122.735 71.7611C122.015 71.0839 121.295 70.4489 120.533 69.7716C114.733 75.4024 110.076 82.3879 107.239 90.4741C108.037 91.3566 108.9 92.1775 109.822 92.9299C110.161 91.9561 110.542 90.9824 110.923 90.0086ZM127.053 71.7611C132.049 76.8419 136.113 82.9806 138.907 90.0086C139.288 90.9824 139.627 91.9561 139.966 92.9299C140.897 92.1679 141.786 91.3634 142.591 90.4744C139.712 82.3879 135.055 75.4024 129.254 69.7716L127.053 71.7614V71.7611ZM104.995 87.7224C107.917 79.9324 112.531 73.2854 118.289 67.9511C117.531 67.3628 116.754 66.7981 115.961 66.2576C112.574 69.3904 109.526 73.0314 106.985 77.1381C105.523 79.5191 104.25 82.0104 103.175 84.5894C103.683 85.6901 104.318 86.7064 104.995 87.7224ZM125.021 47.9256C139.923 47.9256 152.074 60.0764 152.074 74.9789C152.074 89.8814 139.923 102.032 125.021 102.032C110.118 102.032 97.9674 89.8816 97.9674 74.9789C97.9674 60.0761 110.118 47.9256 125.021 47.9256ZM136.96 41.9984C136.198 42.8876 135.351 44.0306 134.504 45.8509C134.293 45.3854 134.293 44.8351 134.419 44.2424C134.631 42.2949 135.182 41.1094 136.198 39.4581C136.536 38.8656 136.875 38.3574 137.044 37.7224C137.679 35.8174 137.553 33.2771 136.155 31.2874C136.367 33.5311 135.69 35.3939 134.928 36.5369C134.801 36.7486 134.674 36.8756 134.504 37.0451C133.7 37.8494 132.811 38.6539 131.668 40.5166C131.033 41.5326 130.398 42.7604 129.805 44.7079C129.551 44.2846 129.466 43.7766 129.509 43.1839C129.424 41.1939 129.763 39.9664 130.482 38.1459C130.736 37.5109 130.99 36.9604 131.075 36.2829C131.371 34.3354 130.863 31.8376 129.17 30.1016C129.72 32.2609 129.381 34.2084 128.789 35.4786C128.662 35.6901 128.577 35.8596 128.45 36.0289C127.773 36.9604 127.053 37.8916 126.164 39.8814C125.741 41.0246 125.275 42.3371 125.021 44.3269C124.682 43.9459 124.513 43.4379 124.47 42.8451C124.089 40.8976 124.216 39.6276 124.64 37.7226C124.809 37.0874 124.978 36.4946 124.936 35.8171C124.936 33.8274 124.047 31.4566 122.1 29.9746C122.989 32.0491 122.946 34.0391 122.565 35.3939C122.481 35.5631 122.396 35.7749 122.311 35.9441C121.803 37.0026 121.21 38.0189 120.66 40.1356C120.406 41.3211 120.152 42.7181 120.194 44.7081C119.856 44.3694 119.602 43.9036 119.432 43.3531C118.755 41.4481 118.67 40.2204 118.84 38.2306C118.882 37.5531 118.924 36.9604 118.84 36.3254C118.501 34.3354 117.231 32.1339 115.114 30.9909C116.299 32.8959 116.553 34.8859 116.384 36.2406L116.257 36.8756C115.918 37.9764 115.495 39.0771 115.283 41.2786C115.198 42.4641 115.156 43.8611 115.537 45.8511C115.114 45.5546 114.817 45.1314 114.564 44.6234C113.59 42.8451 113.336 41.6174 113.166 39.6699C113.124 38.9924 113.082 38.3999 112.828 37.7649C112.235 35.8596 110.626 33.8699 108.34 33.1076C109.822 34.7589 110.415 36.6639 110.415 38.0611C110.415 38.2729 110.415 38.4844 110.372 38.6961C110.203 39.8391 109.991 41.0246 110.118 43.1839C110.245 44.3694 110.415 45.7664 111.092 47.6714C110.626 47.4599 110.245 47.0789 109.906 46.6131C108.679 45.0466 108.255 43.8614 107.79 41.9561C107.62 41.2786 107.493 40.7284 107.155 40.0934C106.265 38.3574 104.36 36.6216 101.99 36.1984C103.683 37.6376 104.572 39.4584 104.826 40.8129C104.868 41.0246 104.868 41.2364 104.868 41.4479C104.911 42.5911 104.868 43.7766 105.334 45.9359C105.63 47.0789 106.012 48.4336 106.985 50.1694C106.52 50.0424 106.096 49.7461 105.673 49.3226C104.191 47.9679 103.556 46.8671 102.836 45.0466C102.582 44.4116 102.328 43.8614 101.947 43.3109C100.762 41.7444 98.6446 40.3474 96.1894 40.3049C98.1369 41.4481 99.2799 43.0569 99.7456 44.3694L99.8726 45.0044C100.084 46.1474 100.211 47.3329 101.016 49.3651C101.481 50.4659 102.116 51.7359 103.344 53.3026C102.836 53.2601 102.37 53.0061 101.905 52.6674C100.254 51.5666 99.4491 50.5506 98.3909 48.8994C98.0521 48.3069 97.7559 47.7986 97.2476 47.3329C95.8506 45.9359 93.5221 44.8774 91.1089 45.2161C93.1834 46.0629 94.5804 47.5021 95.2579 48.7301C95.3426 48.8994 95.4271 49.1111 95.5119 49.3226C95.8929 50.3811 96.1894 51.5244 97.2901 53.4294C97.9251 54.4456 98.7296 55.5886 100.211 56.9856C99.7034 56.9856 99.1951 56.8164 98.6871 56.5624C96.8666 55.7156 95.9354 54.8689 94.6651 53.3871C94.1994 52.8791 93.8184 52.4134 93.2681 51.9899C91.6591 50.8469 89.2036 50.1694 86.8751 50.8891C89.0766 51.3971 90.6854 52.5826 91.4899 53.6834C91.6591 53.8529 91.7439 54.0221 91.8286 54.2339C92.3789 55.2499 92.8871 56.3506 94.2841 58.0019C95.0461 58.9331 96.0199 59.9494 97.6711 61.0924C97.2054 61.1771 96.6974 61.0924 96.1046 60.8806C94.1996 60.3726 93.1411 59.6531 91.6591 58.3829C91.1511 57.9594 90.6853 57.5784 90.0928 57.2399C88.3146 56.3506 85.7744 56.0966 83.5729 57.1549C85.8166 57.2821 87.5949 58.2559 88.6109 59.1874C88.7379 59.3566 88.8649 59.4836 88.9919 59.6954C89.7119 60.5844 90.3469 61.6004 91.9979 63.0399C92.8871 63.8019 94.0301 64.6486 95.8504 65.5379C95.3849 65.7071 94.8346 65.7071 94.2841 65.5804C92.2941 65.3684 91.1511 64.8179 89.4576 63.8019C88.8651 63.4634 88.3569 63.1244 87.7219 62.9551C85.8169 62.3201 83.3188 62.4471 81.3288 63.8444C83.5306 63.6326 85.4356 64.3101 86.5788 65.0719C86.7481 65.1991 86.9173 65.3261 87.0443 65.4954C87.8911 66.2999 88.6956 67.1889 90.5161 68.3321C91.5321 68.9671 92.8024 69.6446 94.7074 70.1949C94.2841 70.4489 93.7761 70.5336 93.1833 70.5336C91.1933 70.5761 89.9659 70.2371 88.1454 69.5174C87.5104 69.2634 86.9599 69.0094 86.2824 68.9249C84.3349 68.6284 81.8371 69.1364 80.1011 70.8299C82.2604 70.2796 84.2504 70.6181 85.4781 71.2109C85.6896 71.3379 85.8591 71.4226 86.0284 71.5496C86.9599 72.2271 87.8911 72.9469 89.9234 73.8359C91.0241 74.2591 92.3366 74.7249 94.3264 74.9789C93.9454 75.3176 93.4374 75.4869 92.8871 75.5294C90.8971 75.9526 89.6696 75.7834 87.7221 75.3599C87.0869 75.1906 86.4941 75.0636 85.8166 75.0636C83.8269 75.0636 81.4561 75.9526 80.0166 77.9001C82.0486 77.0111 84.0386 77.0534 85.3934 77.4346C85.6051 77.5191 85.7744 77.6039 85.9859 77.6886C87.0021 78.1966 88.0606 78.7894 90.1774 79.3396C91.3206 79.5936 92.7176 79.8476 94.7074 79.8054C94.3689 80.1441 93.9031 80.3979 93.3526 80.5674C91.4899 81.2449 90.2199 81.3296 88.2724 81.1601C87.5949 81.1176 87.0024 81.0754 86.3249 81.1601C84.3774 81.4989 82.1756 82.7689 81.0326 84.9281C82.8954 83.7004 84.8851 83.4464 86.2826 83.6156L86.8751 83.7426C87.9759 84.1239 89.0766 84.5049 91.2781 84.7164C92.4636 84.8014 93.8606 84.8434 95.8506 84.4624C95.5541 84.8859 95.1309 85.1824 94.6229 85.4361C92.8871 86.4099 91.6168 86.6639 89.6693 86.8334C88.9918 86.9179 88.3994 86.9604 87.7644 87.1721C85.8591 87.7646 83.9116 89.3736 83.1071 91.6596C84.8006 90.1779 86.7059 89.6276 88.1029 89.5851C88.3146 89.5851 88.5264 89.5851 88.7379 89.6276C89.8386 89.7969 91.0241 90.0086 93.2256 89.8816C94.4111 89.7969 95.8081 89.5851 97.6711 88.9079C97.5016 89.3736 97.1206 89.7546 96.6126 90.0934C95.0461 91.3209 93.8609 91.7444 91.9556 92.2101C91.3206 92.3794 90.7279 92.5064 90.1351 92.8451C88.3569 93.7344 86.6634 95.6394 86.2401 98.0101C87.6371 96.3169 89.4576 95.4276 90.8126 95.1736C91.0241 95.1314 91.2359 95.1314 91.4476 95.1314C92.5906 95.0889 93.8184 95.1314 95.9351 94.6656C97.0784 94.3694 98.4331 93.9881 100.211 93.0146C100.084 93.4801 99.7456 93.9459 99.3221 94.3271C97.9674 95.8089 96.8666 96.4439 95.0461 97.1636C94.4536 97.4599 93.9031 97.6716 93.3526 98.0526C91.7438 99.2381 90.3469 101.355 90.3044 103.81C91.4476 101.863 93.0986 100.72 94.4111 100.254L95.0036 100.127C96.1469 99.9154 97.3324 99.7884 99.3646 98.9841C100.465 98.5184 101.735 97.8834 103.344 96.6979C103.26 97.1636 103.048 97.6294 102.667 98.0949C101.566 99.7461 100.592 100.551 98.8988 101.609C98.3483 101.948 97.8404 102.244 97.3324 102.752C95.9354 104.149 94.9191 106.478 95.2579 108.891C96.0624 106.816 97.5016 105.419 98.7296 104.742C98.9411 104.657 99.1106 104.573 99.3221 104.488C100.423 104.149 101.566 103.81 103.429 102.71C104.445 102.075 105.588 101.27 106.985 99.7884C107.028 100.296 106.858 100.805 106.562 101.313C105.715 103.133 104.868 104.064 103.387 105.335C102.879 105.8 102.413 106.181 102.032 106.732C100.889 108.341 100.211 110.796 100.931 113.125C101.397 110.923 102.582 109.314 103.725 108.51C103.895 108.383 104.064 108.256 104.233 108.171C105.249 107.621 106.35 107.113 108.044 105.716C108.933 104.954 109.949 103.98 111.092 102.329C111.177 102.794 111.092 103.345 110.923 103.895C110.372 105.8 109.695 106.859 108.382 108.341C107.959 108.849 107.578 109.314 107.282 109.949C106.393 111.727 106.096 114.225 107.155 116.427C107.324 114.183 108.255 112.405 109.229 111.431C109.356 111.262 109.525 111.135 109.695 111.008C110.626 110.288 111.6 109.653 113.039 108.002C113.801 107.113 114.648 105.97 115.537 104.149C115.707 104.615 115.707 105.165 115.622 105.716C115.368 107.706 114.86 108.849 113.844 110.542C113.463 111.135 113.166 111.643 112.955 112.278C112.362 114.183 112.489 116.723 113.886 118.713C113.674 116.469 114.31 114.564 115.114 113.421C115.241 113.252 115.368 113.082 115.495 112.955C116.299 112.109 117.188 111.304 118.374 109.484C118.966 108.468 119.644 107.197 120.194 105.292C120.448 105.716 120.533 106.224 120.533 106.816C120.618 108.806 120.279 110.034 119.517 111.854C119.263 112.489 119.051 113.04 118.924 113.717C118.628 115.665 119.136 118.163 120.829 119.899C120.279 117.739 120.618 115.749 121.253 114.522C121.337 114.31 121.422 114.141 121.549 113.971C122.227 113.04 122.989 112.109 123.835 110.076C124.301 108.976 124.767 107.663 125.021 105.673C125.317 106.054 125.486 106.562 125.571 107.113C125.952 109.103 125.825 110.33 125.359 112.278C125.19 112.913 125.063 113.506 125.063 114.183C125.063 116.173 125.995 118.544 127.942 119.983C127.053 117.951 127.053 115.961 127.476 114.606C127.519 114.395 127.603 114.225 127.688 114.014C128.196 112.998 128.789 111.939 129.339 109.822C129.593 108.679 129.847 107.282 129.805 105.292C130.186 105.631 130.397 106.097 130.567 106.647C131.287 108.51 131.329 109.78 131.202 111.77C131.117 112.405 131.075 112.998 131.202 113.675C131.498 115.665 132.768 117.866 134.928 119.009C133.742 117.104 133.446 115.114 133.658 113.76C133.658 113.548 133.7 113.336 133.785 113.125C134.123 112.024 134.547 110.923 134.758 108.722C134.801 107.536 134.843 106.139 134.504 104.149C134.885 104.446 135.224 104.869 135.478 105.377C136.452 107.113 136.706 108.383 136.875 110.33C136.918 111.008 136.96 111.6 137.172 112.235C137.807 114.141 139.373 116.088 141.702 116.893C140.22 115.199 139.627 113.294 139.585 111.897C139.585 111.685 139.585 111.473 139.627 111.262C139.796 110.161 140.05 108.976 139.881 106.774C139.796 105.589 139.585 104.192 138.95 102.329C139.373 102.54 139.754 102.879 140.093 103.387C141.32 104.954 141.786 106.139 142.252 108.044C142.379 108.679 142.548 109.272 142.845 109.865C143.776 111.643 145.639 113.336 148.052 113.76C146.316 112.363 145.427 110.542 145.173 109.187C145.131 108.976 145.131 108.764 145.131 108.552C145.131 107.409 145.173 106.224 144.707 104.065C144.411 102.921 143.988 101.567 143.014 99.7884C143.522 99.9154 143.945 100.254 144.327 100.678C145.808 102.032 146.443 103.133 147.205 104.954C147.459 105.546 147.671 106.097 148.094 106.647C149.28 108.256 151.397 109.653 153.81 109.695C151.905 108.552 150.762 106.901 150.296 105.589C150.211 105.377 150.169 105.208 150.127 104.996C149.957 103.853 149.788 102.667 148.984 100.635C148.518 99.5344 147.925 98.2644 146.697 96.6976C147.205 96.7401 147.671 96.9519 148.137 97.3329C149.788 98.4336 150.592 99.4074 151.608 101.101C151.947 101.651 152.286 102.202 152.752 102.667C154.149 104.064 156.477 105.081 158.89 104.742C156.816 103.937 155.419 102.498 154.784 101.27C154.657 101.059 154.572 100.889 154.53 100.678C154.149 99.5769 153.81 98.4336 152.709 96.5709C152.074 95.5546 151.27 94.4116 149.83 93.0146C150.296 93.0146 150.804 93.1416 151.354 93.4379C153.133 94.2846 154.106 95.1314 155.376 96.6131C155.8 97.1211 156.181 97.5869 156.731 97.9681C158.34 99.1534 160.796 99.7884 163.124 99.1111C160.965 98.6031 159.356 97.4176 158.509 96.2744C158.382 96.1051 158.255 95.9359 158.171 95.7664C157.62 94.7504 157.155 93.6496 155.757 91.9561C154.953 91.0671 153.979 90.0511 152.328 88.9079C152.836 88.8231 153.344 88.9079 153.895 89.0771C155.8 89.6276 156.858 90.3471 158.382 91.6174C158.89 92.0409 159.356 92.4219 159.949 92.7181C161.727 93.6071 164.225 93.9036 166.426 92.8451C164.183 92.6759 162.447 91.7444 161.431 90.7706C161.261 90.6436 161.134 90.4744 161.007 90.3049C160.33 89.3736 159.652 88.3999 158.044 86.9604C157.112 86.1984 155.969 85.3516 154.191 84.4624C154.657 84.2931 155.165 84.2931 155.757 84.3779C157.705 84.6319 158.89 85.1399 160.542 86.1984C161.134 86.5369 161.642 86.8334 162.277 87.0451C164.182 87.6376 166.723 87.5106 168.712 86.1136C166.469 86.3254 164.606 85.6901 163.463 84.8859L162.955 84.5049C162.15 83.7004 161.346 82.8114 159.483 81.6259C158.467 81.0334 157.239 80.3559 155.292 79.8054C155.715 79.5514 156.265 79.4666 156.816 79.4666C158.848 79.3821 160.076 79.7206 161.854 80.4829C162.489 80.7369 163.039 80.9484 163.717 81.0754C165.664 81.3719 168.162 80.8639 169.898 79.1704C167.739 79.7206 165.791 79.3821 164.521 78.7469C164.352 78.6624 164.14 78.5776 163.971 78.4506C163.039 77.7731 162.108 77.0534 160.118 76.1644C159.017 75.7411 157.663 75.2754 155.673 74.9789C156.054 74.6826 156.562 74.5134 157.155 74.4286C159.102 74.0476 160.372 74.1746 162.277 74.6404C162.912 74.8096 163.505 74.9366 164.183 74.9366C166.172 74.9366 168.543 74.0051 170.025 72.1001C167.951 72.9469 165.961 72.9469 164.648 72.5234C164.437 72.4809 164.225 72.3964 164.056 72.3116C162.997 71.8036 161.981 71.2109 159.864 70.6606C158.679 70.4066 157.324 70.1526 155.292 70.1949C155.63 69.8139 156.096 69.6024 156.647 69.4329C158.552 68.7129 159.822 68.6706 161.769 68.7979C162.447 68.8824 163.039 68.9249 163.717 68.7979C165.664 68.5014 167.866 67.2314 169.009 65.0721C167.104 66.2576 165.156 66.5539 163.759 66.3846C163.547 66.3421 163.336 66.2999 163.124 66.2151C162.023 65.8766 160.923 65.4531 158.763 65.2414C157.578 65.1989 156.138 65.1569 154.191 65.5379C154.445 65.1144 154.868 64.7756 155.419 64.5216C157.155 63.5479 158.382 63.2941 160.33 63.1246C161.007 63.0821 161.6 63.0399 162.235 62.8281C164.14 62.1931 166.13 60.6266 166.892 58.2981C165.241 59.7799 163.336 60.3726 161.939 60.4151C161.727 60.4151 161.515 60.4151 161.304 60.3726C160.16 60.2034 158.975 59.9494 156.816 60.1186C155.63 60.2034 154.233 60.4151 152.328 61.0924C152.54 60.6266 152.921 60.2456 153.387 59.9069C154.953 58.6794 156.138 58.2136 158.044 57.7479C158.688 57.6342 159.315 57.4348 159.906 57.1551C161.642 56.2236 163.378 54.3609 163.801 51.9476C162.362 53.6834 160.584 54.5726 159.187 54.8266C158.975 54.8689 158.763 54.8689 158.552 54.8689C157.409 54.8689 156.223 54.8264 154.106 55.2924C152.921 55.5886 151.566 56.0119 149.83 56.9856C149.957 56.4776 150.254 56.0544 150.677 55.6731C152.032 54.1914 153.133 53.5564 154.953 52.7944C155.588 52.5404 156.138 52.3286 156.689 51.9054C158.255 50.7199 159.652 48.6029 159.695 46.1899C158.552 48.0949 156.943 49.2381 155.63 49.7039C155.419 49.7884 155.207 49.8309 154.995 49.8731C153.852 50.0849 152.667 50.2119 150.635 51.0161C149.576 51.4819 148.306 52.0746 146.697 53.3024C146.74 52.8366 146.994 52.3286 147.332 51.8629C148.433 50.2119 149.449 49.4074 151.1 48.3914C151.693 48.0526 152.201 47.7139 152.667 47.2481C154.064 45.8511 155.122 43.5226 154.784 41.1094C153.937 43.1839 152.498 44.5809 151.27 45.2584C151.1 45.3431 150.889 45.4276 150.719 45.4701C149.619 45.8511 148.475 46.1899 146.57 47.2906C145.554 47.9256 144.411 48.7301 143.014 50.1694C143.014 49.7039 143.183 49.1956 143.437 48.6876C144.284 46.8671 145.131 45.9359 146.613 44.6234C147.121 44.1999 147.586 43.8189 148.01 43.2684C149.153 41.6596 149.83 39.2041 149.111 36.8759C148.602 39.0349 147.417 40.6436 146.316 41.4904C146.147 41.6174 145.978 41.7444 145.766 41.8291C144.75 42.3794 143.649 42.8451 141.998 44.2424C141.067 45.0466 140.05 46.0204 138.95 47.6716C138.823 47.2059 138.907 46.6556 139.119 46.1051C139.669 44.2001 140.347 43.1416 141.617 41.6176C142.04 41.1094 142.464 40.6859 142.76 40.0509C143.649 38.2729 143.903 35.7749 142.845 33.5734C142.718 35.8171 141.786 37.5531 140.812 38.5691C140.643 38.7384 140.516 38.8654 140.347 38.9926C139.415 39.6701 138.399 40.3474 136.96 41.9984Z" fill="#FFFF00"/>
</g>
<defs>
<clipPath id="clip0_1284_63232">
<rect width="250" height="150" fill="white"/>
</clipPath>
</defs>
</svg>
