<svg width="250" height="150" viewBox="0 0 250 150" fill="none" xmlns="http://www.w3.org/2000/svg">
<g clip-path="url(#clip0_1284_64509)">
<path d="M0 0H250V150H0V0Z" fill="#ED1C24"/>
<path d="M0 37.5H250V112.5H0V37.5Z" fill="white"/>
<path d="M123.403 37.5C121.793 40.89 118.762 43.2592 115.864 45.5015C115.387 45.9177 114.202 46.724 115.062 47.3377C115.799 46.5145 117.82 47.6047 116.645 48.4902C115.593 49.4752 114.144 49.836 112.975 50.649C111.94 51.2115 110.89 51.7985 110.07 52.6592C110.014 54.0042 111.738 53.2597 112.438 53.82C113.349 54.794 112.051 56.4365 110.856 56.0607C109.327 56.1077 108.271 57.4533 107.692 58.7368C106.496 60.5863 104.23 61.1342 102.425 62.1867C101.393 62.7885 100.391 63.4545 99.4304 64.1568C98.1913 65.0043 99.2692 66.6817 100.588 66.27C102.011 66.128 103.291 65.0098 104.765 65.332C106.101 65.8015 106.476 67.548 106.021 68.7675C105.683 69.7438 104.866 70.4315 104.211 71.194C103.148 72.2713 101.758 72.9705 100.292 73.304C98.875 73.7798 97.6013 74.6477 96.6719 75.8197C95.5935 76.9057 94.5191 78.0093 93.2792 78.9147C92.8874 79.9142 93.9928 80.7655 94.914 80.739C96.8559 80.6165 98.2013 79.0275 99.8549 78.2107C101.227 77.594 102.842 79.0732 102.506 80.5027C102.4 81.8937 101.098 82.5995 99.9404 83.0275C96.5369 84.7385 93.5816 87.22 90.9578 89.9575C90.4151 91.0647 88.923 90.7387 88.1198 91.5105C87.5966 92.487 88.9097 93.002 89.6934 92.9017C93.0607 92.4967 96.2029 91.0732 99.1794 89.5072C100.286 88.978 101.326 88.2815 102.477 87.8597C103.558 87.5925 105.065 88.0622 105.258 89.2927C105.257 90.5917 103.97 91.311 102.951 91.8185C99.8089 93.4695 96.3604 94.3822 93.0019 95.4737C91.7445 95.1222 90.7971 97.3595 92.1765 97.7617C93.6349 98.2617 95.1855 97.8607 96.6774 97.7952C101.291 97.0885 105.325 94.592 109.638 92.9782C111.43 92.3937 113.547 93.2093 114.431 94.8893C115.32 96.3868 115.239 98.356 114.301 99.811C112.819 102.981 110.567 105.896 107.542 107.718C105.644 108.659 103.428 109.018 101.801 110.457C100.296 110.953 102.555 112.986 102.882 111.372C103.786 110.139 105.381 109.771 106.827 109.719C109.001 109.483 111.31 109.082 112.999 107.577C114.514 106.401 116.006 104.778 118.062 104.753C119.199 104.888 120.323 105.801 121.477 105.244C122.487 104.781 124.071 105.052 124.335 106.294C124.817 107.747 126.314 108.408 127.502 109.185C127.931 109.788 129.359 111.345 129.689 109.973C129.423 108.994 129.803 107.496 131.086 107.823C132.208 107.873 133.276 108.287 134.396 108.355C135.886 108.663 137.13 109.684 137.976 110.916C138.558 111.721 139.834 113.102 140.781 112.036C141.369 110.933 140.247 110.013 139.333 109.619C138.001 108.794 136.861 107.694 135.696 106.653C133.979 105.049 132.496 103.009 132.223 100.613C131.854 98.224 132.048 95.7872 132.36 93.4047C132.753 91.871 134.714 91.0335 136.085 91.8485C138.015 92.729 139.931 93.989 142.144 93.8525C145.34 93.9212 148.625 93.3092 151.749 94.2355C154.79 95.1932 156.963 97.759 159.924 98.8692C160.587 99.2722 161.436 98.8887 161.678 98.1805C161.972 97.5442 161.765 96.7303 161.152 96.3675C157.72 92.9028 153.029 91.2197 149.058 88.5125C147.808 88.195 147.58 86.1833 148.736 85.6025C150.255 84.4983 152.405 85.0125 153.753 86.151C154.892 86.8178 156.174 87.3175 157.51 87.3185C158.878 86.8902 158.215 84.9105 156.99 84.7615C154.77 83.5082 153.181 81.4515 151.258 79.8215C150.15 78.884 148.939 77.9347 147.451 77.753C146.637 77.6047 145.806 77.5725 144.982 77.6277C144.209 76.7877 145.239 75.5015 146.238 75.6068C147.263 75.6758 148.283 75.752 149.307 75.6093C150.452 75.5255 151.595 75.407 152.743 75.3992C153.671 76.0305 155.523 74.94 154.687 73.8512C153.772 73.0503 152.451 73.1197 151.359 72.7087C149.441 72.0817 147.488 71.5683 145.51 71.1712C144.126 71.0887 144.297 69.2683 145.513 69.0673C146.308 68.7705 147 69.3818 147.764 69.4765C149.068 69.757 150.415 69.7533 151.719 70.0375C152.824 69.4917 151.97 67.8768 150.97 67.7825C148.61 66.9388 146.571 65.416 144.578 63.9345C142.377 62.2793 140.38 60.365 138.152 58.7477C137.344 58.247 136.019 58.1028 135.807 56.9925C135.732 55.971 136.933 55.506 137.786 55.7448C138.995 56.1018 140.121 56.7235 141.354 57.0288C142.32 57.1933 143.317 57.4792 144.249 57.3575C145.432 56.614 143.741 56.139 143.13 55.8812C141.553 55.0305 140.151 53.8972 138.732 52.8162C137.533 51.7925 139.749 51.3403 140.512 51.7345C141.787 52.2678 141.932 50.41 140.979 49.9425C139.856 49.465 138.891 48.6725 137.873 47.981C136.033 46.6715 133.949 45.6347 131.688 45.3467C129.153 45.092 126.786 43.634 125.441 41.4655C124.607 40.2297 123.994 38.863 123.403 37.5ZM115.077 51.7253C116.383 51.764 116.182 54.1195 114.896 53.9622C113.647 53.8818 113.723 51.4722 115.077 51.7253ZM127.403 52.9938C128.674 52.7663 128.944 55.0868 127.673 55.1958C126.349 55.4328 125.859 52.8468 127.403 52.9938ZM123.792 53.2962C125.082 53.5497 124.852 55.7957 123.551 55.8153C122.599 56.0273 121.573 56.677 120.61 56.1903C119.827 55.3617 120.959 54.137 121.833 53.8677C122.504 53.7325 123.121 53.428 123.792 53.2962ZM132.101 53.306C133.344 53.759 132.906 55.9523 131.595 55.9243C130.356 56.0905 129.779 54.023 130.934 53.5327C131.308 53.4002 131.7 53.2885 132.101 53.306ZM118.085 55.7938C118.999 56.6632 118.459 58.3412 117.332 58.7422C116.521 59.1937 115.414 60.2622 114.53 59.383C114.05 58.3092 115.254 57.5008 115.963 56.9048C116.595 56.4132 117.293 55.967 118.085 55.7938ZM128.518 60.643C129.826 61.2605 129.162 63.6177 127.726 63.4712C126.547 63.1725 126.701 61.1502 127.889 60.989C128.113 60.903 128.319 60.7765 128.518 60.643ZM124.368 60.877C125.591 61.4497 124.657 63.4912 123.425 63.197C122.147 63.047 122.171 60.801 123.58 61.0037C123.845 60.9907 124.119 60.9837 124.368 60.877ZM133.313 62.048C134.654 61.632 136.268 63.013 135.833 64.414C135.236 65.5 133.758 65.6372 132.7 65.2315C131.485 65.1715 130.667 63.3442 131.75 62.5705C132.198 62.2323 132.763 62.093 133.313 62.048ZM113.51 62.3993C114.619 61.796 115.796 63.6087 114.853 64.4082C114.229 65.3265 112.625 65.7015 111.918 64.6807C111.331 63.6832 112.28 62.008 113.51 62.3993ZM108.396 63.2578C109.653 63.4298 110.473 64.572 110.938 65.6598C111.051 66.985 109.095 67.7123 108.242 66.748C107.283 66.1463 106.443 64.9085 106.946 63.7598C107.256 63.3035 107.873 63.1153 108.396 63.2578H108.396ZM138.994 68.0482C140.359 67.6887 141.35 69.8698 140.178 70.6588C139.107 71.632 137.023 70.3428 137.582 68.954C137.86 68.439 138.415 68.097 138.994 68.0482ZM121.624 70.5362C122.769 70.682 122.398 72.6655 121.34 72.5987C120.205 72.3882 120.465 70.4245 121.624 70.5362ZM115.82 71.59C116.753 70.9295 117.957 72.5415 117.181 73.2925C116.25 73.948 115.043 72.3617 115.82 71.59ZM125.049 71.785C126.131 72.4425 126.773 73.6682 126.907 74.905C126.389 76.0607 124.387 75.7822 124.161 74.5515C123.765 73.5782 124.13 72.3265 125.049 71.7852L125.049 71.785ZM128.27 73.6975C129.664 73.3473 129.164 76.2615 128 75.2507C127.613 74.7912 127.82 74.0353 128.27 73.6975H128.27ZM108.042 75.7268C108.965 75.4565 110.311 75.7407 110.566 76.8002C110.673 77.796 109.578 78.314 108.776 78.5608C107.49 78.9578 106.232 79.6093 104.849 79.5218C103.813 78.9293 103.441 77.7167 103.071 76.6592C104.072 75.7212 105.545 75.9965 106.785 75.7617C107.203 75.7402 107.623 75.73 108.042 75.7268ZM139.419 80.293C140.596 79.7155 141.863 81.585 140.877 82.458C139.644 83.8775 137.27 84.1413 135.795 82.9488C135.618 81.6928 136.873 80.7802 137.988 80.6C138.456 80.4675 138.922 80.2697 139.419 80.293ZM146.038 81.7272C147.376 81.497 148.43 83.4058 147.474 84.3938C146.57 85.7575 144.413 86.115 143.18 84.9973C142.7 83.8668 143.675 82.6887 144.713 82.326C145.159 82.136 145.581 81.8927 146.038 81.7272ZM112.758 83.7568C113.997 83.6343 115.132 84.8638 114.97 86.0855C115.867 86.9683 114.278 88.613 113.385 87.6988C112.597 86.7445 112.601 85.45 112.296 84.3077C112.283 84.054 112.471 83.7255 112.758 83.7568ZM122.27 84.469C123.552 83.915 125.209 85.4477 124.511 86.7452C124.013 87.802 122.071 87.4477 122.135 86.2237C122.132 85.638 122.085 85.0375 122.27 84.4688V84.469ZM117.643 85.2982C118.927 85.0037 120.106 86.669 119.392 87.78C118.111 87.894 117.446 86.374 117.643 85.2982Z" fill="#00A651"/>
</g>
<defs>
<clipPath id="clip0_1284_64509">
<rect width="250" height="150" fill="white"/>
</clipPath>
</defs>
</svg>
