<svg width="250" height="150" viewBox="0 0 250 150" fill="none" xmlns="http://www.w3.org/2000/svg">
<g clip-path="url(#clip0_1284_64496)">
<path d="M0 0H250V150H0V0Z" fill="white"/>
<path d="M0 105H250V150H0V105Z" fill="#009543"/>
<path d="M0 0H250V45H0V0Z" fill="#00209F"/>
<path d="M124.75 47.8125C123.906 47.8125 123.063 48.75 123.063 48.75L123.156 58.875L119.938 62.2188H122.531V68L107.219 88.625L104.969 87.8125L101 96.25C101 96.25 110.781 102.375 124.969 102.188C140.531 102.031 149 95.9688 149 95.9688L144.938 87.6563L142.906 88.5313L127.406 68.0313V62.0625H129.969L126.469 58.75V48.6875C126.469 48.6875 125.625 47.75 124.75 47.7813V47.8125Z" fill="black" stroke="black" stroke-width="0.1"/>
<path d="M130.094 72H119.5C119.5 72 115.688 63.9063 116.282 58.25C116.907 52.5 120.219 49.7813 124.594 49.7188C129.782 49.6875 132.469 52.25 133.282 58.0313C134.094 63.75 130.094 72 130.094 72Z" stroke="black" stroke-width="1.5"/>
<path d="M106.281 91.2813C106.094 91.5 104.812 94.0625 104.812 94.0625L107 93.5938L106.281 91.2813ZM107.531 94.5625L105.219 95.3125L108 96.4063L107.531 94.5625ZM108.562 91.3437L109.719 94.75L112.531 93.9375L111.813 92.3125L108.562 91.3437ZM110.375 95.9688L110.75 97.3438L114.5 98.2813L113 95.0937L110.375 95.9688ZM114.5 93.0625L115.844 96.25L118.656 95.1563L117.719 93.75L114.5 93.0625ZM116.375 97.4063L116.813 98.5938L121.188 99.2188L119.344 96.3437L116.344 97.4063H116.375ZM120.563 93.9688L122.187 96.8125L126.25 95.3125L125.812 94.2188L120.563 94V93.9688ZM122.937 97.8438L123.781 99.3438L128.844 99.1875L126.969 96.375L122.906 97.8438H122.937ZM128.281 94.0938L129.656 96.4688L132.906 94.9063L132.031 93.6563L128.281 94.0938ZM133.594 95.9062L130.375 97.5L131.219 98.9063L135.531 98.2187L133.594 95.9062ZM134.625 93.4062L136.281 95.5L139 93.3438L138.063 92.4063L134.625 93.4062ZM139.594 94.5L137 96.4688L137.688 97.6875L141.25 96.75L139.594 94.5ZM143.156 90.4375L143.781 91.3437L142 94L140.156 91.625L143.156 90.4375ZM144.375 92.7188L145.469 94.9063L143.281 95.6563L143.094 94.625L144.344 92.75L144.375 92.7188Z" fill="white"/>
</g>
<defs>
<clipPath id="clip0_1284_64496">
<rect width="250" height="150" fill="white"/>
</clipPath>
</defs>
</svg>
