<svg width="250" height="150" viewBox="0 0 250 150" fill="none" xmlns="http://www.w3.org/2000/svg">
<g clip-path="url(#clip0_1284_64303)">
<mask id="mask0_1284_64303" style="mask-type:luminance" maskUnits="userSpaceOnUse" x="0" y="0" width="250" height="150">
<path d="M0.0126953 0H249.988V150H0.0126953V0Z" fill="white"/>
</mask>
<g mask="url(#mask0_1284_64303)">
<path d="M-62.5 0H312.5V150H-62.5V0Z" fill="#239E46"/>
<path d="M-62.5 0H312.5V112.5H-62.5V0Z" fill="black"/>
<path d="M-62.5 0H312.5V37.5H-62.5V0Z" fill="#E70013"/>
<path d="M130.003 61.49C127.567 59.7518 124.7 58.7181 121.716 58.5024C118.731 58.2867 115.745 58.8973 113.085 60.2672C110.425 61.637 108.193 63.7133 106.635 66.2681C105.078 68.8229 104.253 71.7576 104.253 74.75C104.253 77.7425 105.078 80.6771 106.635 83.2319C108.193 85.7867 110.425 87.863 113.085 89.2329C115.745 90.6028 118.731 91.2133 121.716 90.9976C124.7 90.7819 127.567 89.7482 130.003 88.01C127.38 90.6318 124.04 92.417 120.403 93.1401C116.767 93.8632 112.998 93.4916 109.572 92.0723C106.147 90.653 103.219 88.2498 101.159 85.1664C99.0994 82.0831 98 78.4582 98 74.75C98 71.0418 99.0994 67.4169 101.159 64.3336C103.219 61.2503 106.147 58.847 109.572 57.4277C112.998 56.0085 116.767 55.6368 120.403 56.3599C124.04 57.083 127.38 58.8683 130.003 61.49ZM125.863 74.75L151.09 66.56L135.492 88.01V61.49L151.09 82.94L125.863 74.75Z" fill="white"/>
</g>
</g>
<defs>
<clipPath id="clip0_1284_64303">
<rect width="250" height="150" fill="white"/>
</clipPath>
</defs>
</svg>
