<svg width="250" height="150" viewBox="0 0 250 150" fill="none" xmlns="http://www.w3.org/2000/svg">
<g clip-path="url(#clip0_1284_64538)">
<path d="M0 0H250V75H0V0Z" fill="#002B7F"/>
<path d="M0 75H250V150H0V75Z" fill="#CE1126"/>
<path d="M61.5869 30.5749L61.1121 46.1999H45.2667C43.3173 42.3999 41.7178 39.1999 41.7178 34.8249C41.7178 31.1749 44.5919 28.2749 48.7157 28.2749C53.0894 28.2749 57.913 29.7499 61.5869 30.5749Z" fill="#FFD83D"/>
<path d="M43.6172 31.2999V40.2999V31.2999ZM44.8668 30.3749V42.3749V30.3749ZM46.1664 29.7499V44.0499V29.7499ZM47.4161 29.4499V40.6749V29.4499ZM48.6907 29.3999V40.7249V29.3999ZM49.9653 28.9749V40.7249V28.9749ZM51.2399 28.9749V40.7249V28.9749ZM52.5146 29.0999V40.8499V29.0999ZM53.7892 29.2249V40.9499V29.2249ZM55.0638 29.9499V41.6999V29.9499ZM56.3135 30.0749V43.2999V30.0749ZM57.6131 30.0749V41.8249V30.0749ZM58.8627 30.0749V41.8249V30.0749Z" fill="#FFD83D"/>
<path d="M43.6172 31.2999V40.2999M44.8668 30.3749V42.3749M46.1664 29.7499V44.0499M47.4161 29.4499V40.6749M48.6907 29.3999V40.7249M49.9653 28.9749V40.7249M51.2399 28.9749V40.7249M52.5146 29.0999V40.8499M53.7892 29.2249V40.9499M55.0638 29.9499V41.6999M56.3135 30.0749V43.2999M57.6131 30.0749V41.8249M58.8627 30.0749V41.8249" stroke="black" stroke-width="0.3" stroke-linecap="round" stroke-linejoin="round"/>
<path d="M51.5897 29.4998C54.2889 29.9248 60.1872 32.6998 59.5124 36.4248C58.5627 41.7248 55.4636 39.5998 51.3648 38.8498L48.2657 39.8748C47.141 40.9998 45.5165 42.0498 44.4168 40.6748H42.5674V47.8748H62.9114V30.4998L51.5897 29.4998Z" fill="black" stroke="black" stroke-width="0.3" stroke-linecap="round" stroke-linejoin="round"/>
<path d="M60.6875 29.4749C61.3639 29.4749 61.9122 28.9265 61.9122 28.2499C61.9122 27.5734 61.3639 27.0249 60.6875 27.0249C60.0112 27.0249 59.4629 27.5734 59.4629 28.2499C59.4629 28.9265 60.0112 29.4749 60.6875 29.4749Z" fill="#FFD83D" stroke="black" stroke-width="0.3" stroke-linecap="round" stroke-linejoin="round"/>
<path d="M57.9131 28.7999C58.5895 28.7999 59.1378 28.2514 59.1378 27.5749C59.1378 26.8983 58.5895 26.3499 57.9131 26.3499C57.2368 26.3499 56.6885 26.8983 56.6885 27.5749C56.6885 28.2514 57.2368 28.7999 57.9131 28.7999Z" fill="#FFD83D" stroke="black" stroke-width="0.3" stroke-linecap="round" stroke-linejoin="round"/>
<path d="M55.0889 28.0999C55.7652 28.0999 56.3135 27.5515 56.3135 26.8749C56.3135 26.1984 55.7652 25.6499 55.0889 25.6499C54.4125 25.6499 53.8643 26.1984 53.8643 26.8749C53.8643 27.5515 54.4125 28.0999 55.0889 28.0999Z" fill="#FFD83D" stroke="black" stroke-width="0.3" stroke-linecap="round" stroke-linejoin="round"/>
<path d="M52.2647 27.6248C52.941 27.6248 53.4893 27.0764 53.4893 26.3998C53.4893 25.7233 52.941 25.1748 52.2647 25.1748C51.5883 25.1748 51.04 25.7233 51.04 26.3998C51.04 27.0764 51.5883 27.6248 52.2647 27.6248Z" fill="#FFD83D" stroke="black" stroke-width="0.3" stroke-linecap="round" stroke-linejoin="round"/>
<path d="M49.4405 27.3499C50.1168 27.3499 50.6651 26.8015 50.6651 26.1249C50.6651 25.4484 50.1168 24.8999 49.4405 24.8999C48.7641 24.8999 48.2158 25.4484 48.2158 26.1249C48.2158 26.8015 48.7641 27.3499 49.4405 27.3499Z" fill="#FFD83D" stroke="black" stroke-width="0.3" stroke-linecap="round" stroke-linejoin="round"/>
<path d="M46.6914 27.4998C47.3678 27.4998 47.9161 26.9514 47.9161 26.2748C47.9161 25.5983 47.3678 25.0498 46.6914 25.0498C46.0151 25.0498 45.4668 25.5983 45.4668 26.2748C45.4668 26.9514 46.0151 27.4998 46.6914 27.4998Z" fill="#FFD83D" stroke="black" stroke-width="0.3" stroke-linecap="round" stroke-linejoin="round"/>
<path d="M44.042 28.4C44.7184 28.4 45.2667 27.8515 45.2667 27.1749C45.2667 26.4984 44.7184 25.95 44.042 25.95C43.3657 25.95 42.8174 26.4984 42.8174 27.1749C42.8174 27.8515 43.3657 28.4 44.042 28.4Z" fill="#FFD83D" stroke="black" stroke-width="0.3" stroke-linecap="round" stroke-linejoin="round"/>
<path d="M41.8184 30.0499C42.4947 30.0499 43.043 29.5014 43.043 28.8249C43.043 28.1483 42.4947 27.5999 41.8184 27.5999C41.142 27.5999 40.5938 28.1483 40.5938 28.8249C40.5938 29.5014 41.142 30.0499 41.8184 30.0499Z" fill="#FFD83D" stroke="black" stroke-width="0.3" stroke-linecap="round" stroke-linejoin="round"/>
<path d="M40.2432 32.325C40.9195 32.325 41.4678 31.7765 41.4678 31.1C41.4678 30.4235 40.9195 29.875 40.2432 29.875C39.5668 29.875 39.0186 30.4235 39.0186 31.1C39.0186 31.7765 39.5668 32.325 40.2432 32.325Z" fill="#FFD83D" stroke="black" stroke-width="0.3" stroke-linecap="round" stroke-linejoin="round"/>
<path d="M39.4688 35.025C40.1451 35.025 40.6934 34.4765 40.6934 33.7999C40.6934 33.1234 40.1451 32.575 39.4688 32.575C38.7924 32.575 38.2441 33.1234 38.2441 33.7999C38.2441 34.4765 38.7924 35.025 39.4688 35.025Z" fill="#FFD83D" stroke="black" stroke-width="0.3" stroke-linecap="round" stroke-linejoin="round"/>
<path d="M39.4942 37.7999C40.1705 37.7999 40.7188 37.2514 40.7188 36.5749C40.7188 35.8983 40.1705 35.3499 39.4942 35.3499C38.8178 35.3499 38.2695 35.8983 38.2695 36.5749C38.2695 37.2514 38.8178 37.7999 39.4942 37.7999Z" fill="#FFD83D" stroke="black" stroke-width="0.3" stroke-linecap="round" stroke-linejoin="round"/>
<path d="M40.044 40.525C40.7203 40.525 41.2686 39.9765 41.2686 39.2999C41.2686 38.6234 40.7203 38.075 40.044 38.075C39.3676 38.075 38.8193 38.6234 38.8193 39.2999C38.8193 39.9765 39.3676 40.525 40.044 40.525Z" fill="#FFD83D" stroke="black" stroke-width="0.3" stroke-linecap="round" stroke-linejoin="round"/>
<path d="M61.2376 29.875L61.1126 31.5C58.0385 31 53.6898 29.2999 49.616 29.2999C45.8671 29.2999 42.9679 30.7999 42.9679 34.5999C42.9679 38.3249 44.5425 41.7249 46.6419 45.1749L44.4675 46.1749C42.5181 42.4249 40.8936 39.175 40.8936 34.825C40.8936 31.175 43.7677 27.575 48.7163 27.575C53.09 27.575 57.5637 29.075 61.2376 29.875Z" fill="#FFD83D" stroke="black" stroke-width="0.3" stroke-linecap="round" stroke-linejoin="round"/>
<path d="M64.3867 30.5749L64.8616 46.1999H80.7069C82.6563 42.3999 84.2559 39.1999 84.2559 34.8249C84.2559 31.1749 81.3817 28.2749 77.2579 28.2749C72.8842 28.2749 68.0606 29.7499 64.3867 30.5749Z" fill="#FFD83D"/>
<path d="M82.3564 31.2999V40.2999V31.2999ZM81.1068 30.3749V42.3749V30.3749ZM79.8072 29.7499V44.0499V29.7499ZM78.5576 29.4499V40.6749V29.4499ZM77.2829 29.3999V40.7249V29.3999ZM76.0083 28.9749V40.7249V28.9749ZM74.7337 28.9749V40.7249V28.9749ZM73.4591 29.0999V40.8499V29.0999ZM72.1844 29.2249V40.9499V29.2249ZM70.9098 29.9499V41.6999V29.9499ZM69.6602 30.0749V43.2999V30.0749ZM68.3606 30.0749V41.8249V30.0749ZM67.1109 30.0749V41.8249V30.0749Z" fill="#FFD83D"/>
<path d="M82.3564 31.2999V40.2999M81.1068 30.3749V42.3749M79.8072 29.7499V44.0499M78.5576 29.4499V40.6749M77.2829 29.3999V40.7249M76.0083 28.9749V40.7249M74.7337 28.9749V40.7249M73.4591 29.0999V40.8499M72.1844 29.2249V40.9499M70.9098 29.9499V41.6999M69.6602 30.0749V43.2999M68.3606 30.0749V41.8249M67.1109 30.0749V41.8249" stroke="black" stroke-width="0.3" stroke-linecap="round" stroke-linejoin="round"/>
<path d="M74.3839 29.4998C71.6847 29.9248 65.7864 32.6998 66.4612 36.4248C67.411 41.7248 70.51 39.5998 74.6088 38.8498L77.7079 39.8748C78.8326 40.9998 80.4571 42.0498 81.5568 40.6748H83.4062V47.8748H63.0622V30.4998L74.3839 29.4998Z" fill="black" stroke="black" stroke-width="0.3" stroke-linecap="round" stroke-linejoin="round"/>
<path d="M65.2861 29.4749C64.6098 29.4749 64.0615 28.9265 64.0615 28.2499C64.0615 27.5734 64.6098 27.0249 65.2861 27.0249C65.9624 27.0249 66.5107 27.5734 66.5107 28.2499C66.5107 28.9265 65.9624 29.4749 65.2861 29.4749Z" fill="#FFD83D" stroke="black" stroke-width="0.3" stroke-linecap="round" stroke-linejoin="round"/>
<path d="M68.0605 28.7999C67.3842 28.7999 66.8359 28.2514 66.8359 27.5749C66.8359 26.8983 67.3842 26.3499 68.0605 26.3499C68.7369 26.3499 69.2852 26.8983 69.2852 27.5749C69.2852 28.2514 68.7369 28.7999 68.0605 28.7999Z" fill="#FFD83D" stroke="black" stroke-width="0.3" stroke-linecap="round" stroke-linejoin="round"/>
<path d="M70.8847 28.0999C70.2084 28.0999 69.6601 27.5515 69.6601 26.8749C69.6601 26.1984 70.2084 25.6499 70.8847 25.6499C71.5611 25.6499 72.1094 26.1984 72.1094 26.8749C72.1094 27.5515 71.5611 28.0999 70.8847 28.0999Z" fill="#FFD83D" stroke="black" stroke-width="0.3" stroke-linecap="round" stroke-linejoin="round"/>
<path d="M73.709 27.6248C73.0326 27.6248 72.4843 27.0764 72.4843 26.3998C72.4843 25.7233 73.0326 25.1748 73.709 25.1748C74.3853 25.1748 74.9336 25.7233 74.9336 26.3998C74.9336 27.0764 74.3853 27.6248 73.709 27.6248Z" fill="#FFD83D" stroke="black" stroke-width="0.3" stroke-linecap="round" stroke-linejoin="round"/>
<path d="M76.5332 27.3499C75.8568 27.3499 75.3085 26.8015 75.3085 26.1249C75.3085 25.4484 75.8568 24.8999 76.5332 24.8999C77.2095 24.8999 77.7578 25.4484 77.7578 26.1249C77.7578 26.8015 77.2095 27.3499 76.5332 27.3499Z" fill="#FFD83D" stroke="black" stroke-width="0.3" stroke-linecap="round" stroke-linejoin="round"/>
<path d="M79.2822 27.4998C78.6058 27.4998 78.0576 26.9514 78.0576 26.2748C78.0576 25.5983 78.6058 25.0498 79.2822 25.0498C79.9585 25.0498 80.5068 25.5983 80.5068 26.2748C80.5068 26.9514 79.9585 27.4998 79.2822 27.4998Z" fill="#FFD83D" stroke="black" stroke-width="0.3" stroke-linecap="round" stroke-linejoin="round"/>
<path d="M81.9316 28.4C81.2553 28.4 80.707 27.8515 80.707 27.1749C80.707 26.4984 81.2553 25.95 81.9316 25.95C82.608 25.95 83.1562 26.4984 83.1562 27.1749C83.1562 27.8515 82.608 28.4 81.9316 28.4Z" fill="#FFD83D" stroke="black" stroke-width="0.3" stroke-linecap="round" stroke-linejoin="round"/>
<path d="M84.1552 30.0499C83.4789 30.0499 82.9306 29.5014 82.9306 28.8249C82.9306 28.1483 83.4789 27.5999 84.1552 27.5999C84.8316 27.5999 85.3799 28.1483 85.3799 28.8249C85.3799 29.5014 84.8316 30.0499 84.1552 30.0499Z" fill="#FFD83D" stroke="black" stroke-width="0.3" stroke-linecap="round" stroke-linejoin="round"/>
<path d="M85.7304 32.325C85.0541 32.325 84.5058 31.7765 84.5058 31.1C84.5058 30.4235 85.0541 29.875 85.7304 29.875C86.4068 29.875 86.9551 30.4235 86.9551 31.1C86.9551 31.7765 86.4068 32.325 85.7304 32.325Z" fill="#FFD83D" stroke="black" stroke-width="0.3" stroke-linecap="round" stroke-linejoin="round"/>
<path d="M86.5049 35.025C85.8285 35.025 85.2802 34.4765 85.2802 33.7999C85.2802 33.1234 85.8285 32.575 86.5049 32.575C87.1812 32.575 87.7295 33.1234 87.7295 33.7999C87.7295 34.4765 87.1812 35.025 86.5049 35.025Z" fill="#FFD83D" stroke="black" stroke-width="0.3" stroke-linecap="round" stroke-linejoin="round"/>
<path d="M86.4795 37.7999C85.8031 37.7999 85.2548 37.2514 85.2548 36.5749C85.2548 35.8983 85.8031 35.3499 86.4795 35.3499C87.1558 35.3499 87.7041 35.8983 87.7041 36.5749C87.7041 37.2514 87.1558 37.7999 86.4795 37.7999Z" fill="#FFD83D" stroke="black" stroke-width="0.3" stroke-linecap="round" stroke-linejoin="round"/>
<path d="M85.9297 40.525C85.2533 40.525 84.705 39.9765 84.705 39.2999C84.705 38.6234 85.2533 38.075 85.9297 38.075C86.606 38.075 87.1543 38.6234 87.1543 39.2999C87.1543 39.9765 86.606 40.525 85.9297 40.525Z" fill="#FFD83D" stroke="black" stroke-width="0.3" stroke-linecap="round" stroke-linejoin="round"/>
<path d="M64.7361 29.875L64.861 31.5C67.9351 31 72.2838 29.2999 76.3576 29.2999C80.1065 29.2999 83.0057 30.7999 83.0057 34.5999C83.0057 38.3249 81.4312 41.7249 79.3318 45.1749L81.5061 46.1749C83.4556 42.4249 85.0801 39.175 85.0801 34.825C85.0801 31.175 82.2059 27.575 77.2574 27.575C72.8837 27.575 68.41 29.075 64.7361 29.875Z" fill="#FFD83D" stroke="black" stroke-width="0.3" stroke-linecap="round" stroke-linejoin="round"/>
<path d="M62.9863 13.275L61.6867 15.7L62.9863 18.1L64.261 15.7L62.9863 13.25V13.275ZM62.9863 19.375L61.6867 21.775L62.9863 24.2L64.236 21.75L62.9613 19.35L62.9863 19.375ZM58.3877 18.75L60.4121 20.025L62.4365 18.75L60.4371 17.45L58.3877 18.75ZM63.5112 18.75L65.5356 20.025L67.585 18.75L65.5356 17.45L63.5362 18.75H63.5112Z" fill="#FFD83D" stroke="black" stroke-width="0.3" stroke-linecap="round" stroke-linejoin="round"/>
<path d="M62.9864 19.75C63.5247 19.75 63.9611 19.3135 63.9611 18.775C63.9611 18.2366 63.5247 17.8 62.9864 17.8C62.4481 17.8 62.0117 18.2366 62.0117 18.775C62.0117 19.3135 62.4481 19.75 62.9864 19.75Z" fill="#FFD83D" stroke="black" stroke-width="0.3" stroke-linecap="round" stroke-linejoin="round"/>
<path d="M62.9865 27.625C64.4359 27.625 65.6108 26.4497 65.6108 25C65.6108 23.5503 64.4359 22.375 62.9865 22.375C61.5372 22.375 60.3623 23.5503 60.3623 25C60.3623 26.4497 61.5372 27.625 62.9865 27.625Z" fill="#FFD83D" stroke="black" stroke-width="0.3" stroke-linecap="round" stroke-linejoin="round"/>
<path d="M62.311 22.4751V24.1251C61.6911 24.155 61.0735 24.2217 60.4615 24.3251M65.51 24.3251C64.8898 24.2205 64.2639 24.1537 63.6356 24.1251V22.4751M60.4365 25.6501C61.2785 25.5042 62.1312 25.429 62.9858 25.4251C63.8355 25.4251 64.6853 25.5001 65.485 25.6501" stroke="black" stroke-width="0.3" stroke-linecap="round" stroke-linejoin="round"/>
<path d="M60.437 29.425C60.1871 33.675 59.6872 38.0501 58.0127 41.2001L60.7119 40.1C61.6616 36.525 61.8616 31.9001 62.1365 29.7001L60.437 29.425ZM65.5355 29.425L63.811 29.7001C64.1109 31.9001 64.3108 36.525 65.2356 40.1L67.9348 41.2001C66.2853 38.0501 65.7854 33.7 65.5355 29.425Z" fill="#FFD83D" stroke="black" stroke-width="0.2" stroke-linecap="round" stroke-linejoin="round"/>
<path d="M62.9862 38.675C59.7372 38.675 57.3629 40.1751 57.2379 44.0751C56.4382 42.6751 53.1141 38.3251 49.9901 38.9001C48.1406 39.2501 46.4911 41.825 46.791 44.75C45.2415 40.35 40.7678 39.625 37.4688 42.25C40.3929 44.625 41.6925 51.7 44.1418 54.75H81.8057C84.255 51.7 85.5546 44.625 88.4787 42.25C85.2047 39.625 80.706 40.35 79.1815 44.75C79.4314 41.825 77.8069 39.2501 75.9324 38.9001C72.8333 38.3251 69.5093 42.6751 68.7096 44.0751C68.5846 40.2001 66.2103 38.675 62.9613 38.675H62.9862Z" fill="#FFD83D" stroke="black" stroke-width="0.5" stroke-linecap="round" stroke-linejoin="round"/>
<path d="M81.7554 54.75C81.7554 56.15 73.3578 57.675 62.9859 57.675C52.6139 57.675 44.1914 56.175 44.1914 54.75C44.1914 53.375 52.6139 52.625 62.9859 52.625C73.3328 52.625 81.7554 53.375 81.7554 54.75Z" fill="black" stroke="black" stroke-width="0.2" stroke-linecap="round" stroke-linejoin="round"/>
<path d="M62.9861 29.4751C63.4692 29.4751 63.8608 29.0833 63.8608 28.6001C63.8608 28.1168 63.4692 27.7251 62.9861 27.7251C62.503 27.7251 62.1113 28.1168 62.1113 28.6001C62.1113 29.0833 62.503 29.4751 62.9861 29.4751Z" fill="#FFD83D" stroke="black" stroke-width="0.2" stroke-linecap="round" stroke-linejoin="round"/>
<path d="M62.9863 31.4252C63.497 31.4252 63.911 31.0111 63.911 30.5002C63.911 29.9893 63.497 29.5752 62.9863 29.5752C62.4755 29.5752 62.0615 29.9893 62.0615 30.5002C62.0615 31.0111 62.4755 31.4252 62.9863 31.4252Z" fill="#FFD83D" stroke="black" stroke-width="0.2" stroke-linecap="round" stroke-linejoin="round"/>
<path d="M62.9866 33.5751C63.5525 33.5751 64.0113 33.1162 64.0113 32.5501C64.0113 31.9841 63.5525 31.5251 62.9866 31.5251C62.4207 31.5251 61.9619 31.9841 61.9619 32.5501C61.9619 33.1162 62.4207 33.5751 62.9866 33.5751Z" fill="#FFD83D" stroke="black" stroke-width="0.2" stroke-linecap="round" stroke-linejoin="round"/>
<path d="M62.9862 36.0001C63.6349 36.0001 64.1608 35.4741 64.1608 34.8251C64.1608 34.1762 63.6349 33.6501 62.9862 33.6501C62.3374 33.6501 61.8115 34.1762 61.8115 34.8251C61.8115 35.4741 62.3374 36.0001 62.9862 36.0001Z" fill="#FFD83D" stroke="black" stroke-width="0.2" stroke-linecap="round" stroke-linejoin="round"/>
<path d="M62.9865 38.6252C63.6905 38.6252 64.2612 38.0544 64.2612 37.3502C64.2612 36.646 63.6905 36.0752 62.9865 36.0752C62.2826 36.0752 61.7119 36.646 61.7119 37.3502C61.7119 38.0544 62.2826 38.6252 62.9865 38.6252Z" fill="#FFD83D" stroke="black" stroke-width="0.2" stroke-linecap="round" stroke-linejoin="round"/>
<path d="M62.4866 39.8C62.3367 39.8 62.2117 39.9251 62.2367 40.1501L62.3866 41.225C62.4366 41.6 62.6366 41.475 62.7115 41.225C62.7615 40.925 62.7365 40.7251 62.7615 40.2001C62.7615 39.9251 62.6116 39.8 62.4616 39.8H62.4866ZM63.4863 39.8C63.3364 39.8 63.2114 39.9251 63.2114 40.2001C63.2114 40.7251 63.2114 40.9251 63.2614 41.2001C63.3114 41.5001 63.5113 41.6001 63.5863 41.2001L63.7112 40.1501C63.7612 39.9001 63.6113 39.8 63.4863 39.8ZM61.5619 39.9501C61.4956 39.9501 61.432 39.9764 61.3852 40.0233C61.3383 40.0702 61.312 40.1337 61.312 40.2001C61.312 40.4501 61.3869 40.7751 61.4119 41.1501C61.4619 41.5251 61.7368 41.4001 61.7618 41.1501C61.7618 40.9501 61.8118 40.6 61.7618 40.175C61.7618 40.025 61.7118 39.95 61.6119 39.925C61.5953 39.923 61.5785 39.923 61.5619 39.925V39.9501ZM64.3361 39.9501C64.2611 39.9501 64.1861 40.0251 64.1611 40.2001C64.1477 40.5176 64.1644 40.8357 64.2111 41.1501C64.2111 41.4001 64.511 41.5251 64.536 41.1501C64.536 40.7751 64.636 40.475 64.636 40.225C64.636 40.075 64.511 39.9751 64.3861 39.9501C64.3695 39.948 64.3527 39.948 64.3361 39.9501ZM60.4872 40.375C60.3622 40.4 60.2373 40.5501 60.2873 40.7001C60.3622 41.0251 60.4372 41.3751 60.4372 41.7001C60.4372 41.9751 60.6621 41.8751 60.6871 41.7001C60.7066 41.3671 60.715 41.0336 60.7121 40.7001C60.7121 40.4501 60.5872 40.35 60.4622 40.375H60.4872ZM65.3858 40.375C65.3108 40.4 65.2358 40.5001 65.2358 40.7001L65.2858 41.7001C65.2858 41.8751 65.5357 41.9751 65.5357 41.7001C65.5357 41.3751 65.5857 41.0251 65.6607 40.7001C65.7107 40.5501 65.5857 40.4 65.4857 40.375C65.4611 40.3687 65.4353 40.3687 65.4107 40.375H65.3858ZM50.6401 40.425C50.4901 40.425 50.3902 40.6 50.4901 40.8C50.6401 41.15 50.815 41.3501 50.965 41.7001C51.09 42.0251 51.3149 41.825 51.2399 41.6L50.89 40.675C50.815 40.5 50.7151 40.425 50.6401 40.425ZM75.3328 40.425C75.2329 40.425 75.1579 40.5 75.0829 40.675C74.858 41.15 74.783 41.375 74.708 41.6C74.658 41.85 74.858 42.0251 75.0079 41.7001L75.4578 40.8C75.5578 40.6 75.4578 40.425 75.3328 40.425ZM51.6398 40.425C51.5148 40.475 51.4649 40.6 51.5148 40.75C51.6648 41.05 51.8397 41.3751 51.9647 41.7001C52.0647 41.9751 52.3146 41.9001 52.2146 41.6501L51.9647 40.725C51.8647 40.475 51.7148 40.4 51.6398 40.425ZM74.2581 40.425C74.1582 40.45 74.0582 40.55 74.0082 40.725C73.8333 41.225 73.8083 41.3751 73.7333 41.6501C73.6333 41.9001 73.8833 41.9751 73.9832 41.7001L74.4331 40.75C74.4831 40.6 74.4331 40.475 74.3331 40.425C74.3085 40.4187 74.2827 40.4187 74.2581 40.425ZM52.8894 40.675C52.7395 40.7 52.6395 40.9001 52.7395 41.1501C52.8394 41.4501 52.9894 41.7251 53.1394 42.0751C53.2893 42.4251 53.5142 42.35 53.4643 42.125C53.3893 41.9 53.3393 41.55 53.1643 41C53.0894 40.75 52.9894 40.65 52.8894 40.675ZM73.0835 40.675C72.9835 40.675 72.8586 40.75 72.7836 41C72.6336 41.55 72.5337 41.9 72.5087 42.125C72.4337 42.375 72.6836 42.4251 72.8086 42.0751C72.9585 41.7251 73.1085 41.4501 73.2085 41.1501C73.3084 40.9001 73.2085 40.7 73.0835 40.675ZM49.7903 40.85C49.6404 40.85 49.5404 41.1001 49.6154 41.2751C49.7404 41.5251 49.8403 41.625 49.9653 41.925C50.1152 42.225 50.2652 42 50.2152 41.8C50.1402 41.6 50.0653 41.375 50.0153 41.1C49.9653 40.9 49.8653 40.85 49.7654 40.85H49.7903ZM76.1826 40.85C76.0826 40.85 76.0076 40.9 75.9327 41.1L75.7577 41.8C75.7077 42 75.8577 42.225 76.0076 41.925C76.1326 41.625 76.2076 41.5501 76.3575 41.2751C76.4325 41.1001 76.3075 40.875 76.1826 40.85ZM59.4375 41.55C59.2626 41.55 59.1126 41.75 59.1876 41.925C59.2376 42.225 59.3875 42.475 59.4625 42.85C59.5625 43.175 59.7874 43.025 59.7624 42.8C59.7442 42.4642 59.7025 42.13 59.6374 41.8C59.5875 41.625 59.5125 41.55 59.4125 41.55H59.4375ZM66.5354 41.55C66.4604 41.55 66.3605 41.625 66.3355 41.8C66.262 42.1294 66.2119 42.4636 66.1855 42.8C66.1855 43.025 66.4105 43.175 66.4854 42.85L66.7853 41.925C66.8353 41.75 66.6854 41.55 66.5354 41.55ZM62.9865 41.85C62.7865 41.85 62.7615 42.1001 62.7615 42.2751C62.7463 42.8444 62.5732 43.3983 62.2617 43.875C62.0117 44.175 61.6868 44.1 61.3869 43.925C61.0962 43.7666 60.8202 43.5825 60.5622 43.375C60.2123 43.125 59.9624 43.275 60.3622 43.85C61.5119 45.5 62.7615 46.9 62.7615 49.6C62.7615 49.925 62.8365 50.0251 62.9865 50.0251C63.1364 50.0251 63.1864 49.9251 63.1864 49.5751C63.1864 46.9001 64.436 45.5001 65.5857 43.8251C65.9856 43.2751 65.7357 43.125 65.4107 43.375C65.1538 43.584 64.8776 43.7682 64.586 43.925C64.2611 44.1 63.9362 44.175 63.7112 43.875C63.3997 43.3983 63.2267 42.8444 63.2114 42.2751C63.1864 42.1001 63.1614 41.85 62.9615 41.85H62.9865ZM54.1641 41.4501C54.1475 41.4473 54.1306 41.4473 54.1141 41.4501C54.0391 41.4751 54.0141 41.5501 54.0391 41.7001L54.314 42.675C54.389 42.925 54.6639 42.85 54.6139 42.55L54.464 41.7751C54.414 41.5751 54.264 41.4501 54.1641 41.4501ZM71.8089 41.4501C71.6839 41.4501 71.5589 41.5751 71.509 41.7751C71.409 42.1251 71.409 42.2251 71.359 42.5251C71.284 42.8501 71.5839 42.9 71.6339 42.675L71.9338 41.675C71.9338 41.55 71.9088 41.4751 71.8339 41.4501C71.8173 41.4473 71.8004 41.4473 71.7839 41.4501H71.8089ZM48.9156 41.55C48.7656 41.55 48.6657 41.75 48.8156 42C48.9656 42.3 49.2405 42.65 49.3655 42.875C49.4904 43.075 49.7154 42.925 49.5654 42.675C49.4155 42.425 49.3655 42.1 49.1655 41.725C49.149 41.6724 49.1156 41.6266 49.0704 41.595C49.0251 41.5633 48.9707 41.5475 48.9156 41.55ZM77.0323 41.55C76.9574 41.55 76.8574 41.6 76.7824 41.725C76.6075 42.1 76.5325 42.4 76.4075 42.675C76.2576 42.925 76.4575 43.075 76.5825 42.875C76.7074 42.65 76.9823 42.3 77.1323 42C77.2823 41.75 77.1823 41.55 77.0323 41.55ZM40.9929 42.375C40.843 42.375 40.793 42.675 40.9429 42.875C41.137 43.1207 41.3547 43.3468 41.5928 43.55C41.7927 43.75 41.8427 43.5 41.7427 43.3L41.2928 42.625C41.1679 42.45 41.0679 42.375 40.9929 42.375ZM84.955 42.375C84.88 42.375 84.78 42.45 84.6801 42.625L84.2052 43.3C84.1052 43.5 84.1552 43.75 84.3802 43.55C84.6185 43.347 84.8362 43.1209 85.03 42.875C85.1799 42.675 85.1299 42.375 84.955 42.375ZM42.2676 42.625C42.1176 42.625 42.0176 42.7251 42.1426 42.9501L42.6175 43.9001C42.7424 44.1501 43.1173 44.225 42.9673 43.85L42.6424 42.9001C42.5675 42.7251 42.3925 42.6501 42.2676 42.6501V42.625ZM83.7054 42.625C83.5554 42.625 83.3805 42.7251 83.3055 42.9001L83.0056 43.85C82.8556 44.225 83.2305 44.1501 83.3555 43.9001C83.4804 43.6501 83.6804 43.2751 83.8053 42.9501C83.9303 42.7251 83.8303 42.625 83.7054 42.625ZM39.8183 42.725C39.6183 42.725 39.6183 42.9001 39.7933 43.0251C40.0182 43.2001 40.2931 43.375 40.5431 43.6C40.868 43.85 40.9679 43.6001 40.793 43.4001C40.643 43.2001 40.4931 43.0001 40.0682 42.7751C39.9682 42.7251 39.8933 42.725 39.8183 42.725ZM86.1297 42.725C86.0797 42.725 85.9797 42.7251 85.8797 42.7751C85.4798 43.0001 85.3049 43.2001 85.13 43.4001C84.98 43.6251 85.105 43.85 85.4049 43.6C85.6548 43.375 85.9547 43.2001 86.1547 43.0251C86.3546 42.9001 86.3296 42.725 86.1547 42.725H86.1297ZM58.7377 42.9001C58.6127 42.9001 58.5378 43.0251 58.5628 43.2001L58.8127 44.1C58.8627 44.375 59.1876 44.375 59.1376 44.1C59.0876 43.85 59.0626 43.525 58.9626 43.125C58.9377 42.975 58.8627 42.9 58.7627 42.875C58.7544 42.8744 58.746 42.8744 58.7377 42.875V42.9001ZM67.1852 42.9001C67.1102 42.9001 67.0353 42.9751 66.9853 43.1501C66.8853 43.5251 66.8603 43.85 66.8103 44.125C66.7604 44.375 67.0853 44.375 67.1352 44.1L67.3852 43.2001C67.4352 43.0251 67.3352 42.9001 67.2352 42.9001C67.2187 42.8973 67.2018 42.8973 67.1852 42.9001ZM51.1899 42.4001C51.115 42.4001 51.065 42.5751 51.1399 42.8251C51.405 43.5455 51.5404 44.3073 51.5398 45.0751C51.4648 45.3751 51.2899 45.4001 51.065 45.3251C50.8198 45.204 50.5856 45.0618 50.3652 44.9001C50.1652 44.7751 49.9403 44.925 50.2402 45.175C51.7398 46.425 52.8145 47.85 53.2393 49.5751C53.2893 49.9251 53.5142 49.975 53.4643 49.5751C53.1144 47.4001 53.0394 45.6 53.5642 44.5C53.7642 44.075 53.5642 43.675 53.2643 44.35C53.0394 44.8 52.7145 44.975 52.4396 44.6C52.0488 43.99 51.7142 43.3456 51.4399 42.675C51.3899 42.5 51.3149 42.4251 51.2399 42.4001C51.2316 42.3987 51.2232 42.3987 51.2149 42.4001H51.1899ZM74.708 42.4001C74.633 42.4001 74.5581 42.5001 74.5081 42.6501C74.3331 43.1501 73.7833 44.2 73.5084 44.6C73.2334 45 72.9085 44.8 72.7086 44.35C72.3837 43.675 72.2088 44.075 72.3837 44.5C72.9085 45.6 72.8336 47.4001 72.5087 49.5751C72.4337 49.975 72.6586 49.9251 72.7586 49.5751C73.2208 47.8192 74.2594 46.2696 75.7077 45.175C76.0076 44.925 75.7827 44.775 75.5828 44.925C75.361 45.0704 75.1268 45.1959 74.883 45.3C74.633 45.4 74.4831 45.375 74.4081 45.05C74.3581 44.75 74.4581 44.075 74.833 42.8C74.883 42.6 74.833 42.4251 74.758 42.4001C74.7418 42.3943 74.7242 42.3943 74.708 42.4001ZM43.5922 43C43.4672 43 43.3422 43.1 43.4172 43.3C43.5172 43.65 43.7171 44.0001 43.7921 44.2001C43.8671 44.4251 44.092 44.3251 44.042 44.0251L43.9171 43.25C43.9171 43.1 43.7421 43 43.5922 43ZM82.3558 43C82.2058 43 82.0559 43.1 82.0309 43.25L81.9309 44.0251C81.8809 44.3251 82.1058 44.4251 82.1808 44.2001C82.2308 44.0001 82.4307 43.65 82.5307 43.3C82.6057 43.1 82.5057 43 82.3558 43ZM48.2908 42.5751C48.1408 42.5501 48.1158 42.95 48.2408 43.125L48.9406 43.9001C49.1405 44.1501 49.2655 43.925 49.1405 43.725L48.4907 42.7751C48.4157 42.6501 48.3408 42.5751 48.2908 42.5751ZM77.6572 42.5751C77.6072 42.5751 77.5322 42.6501 77.4572 42.7751L76.8074 43.725C76.6824 43.925 76.8074 44.1501 77.0323 43.9001L77.7071 43.125C77.8321 42.95 77.8321 42.5501 77.6572 42.5751ZM44.6668 43.5751C44.5669 43.5751 44.4919 43.6251 44.5419 43.8251C44.5919 44.1251 44.6668 44.325 44.7418 44.6C44.8168 44.85 44.9918 44.8251 44.9918 44.5751L44.9168 43.7751C44.9059 43.7152 44.8754 43.6606 44.8302 43.6199C44.785 43.5792 44.7275 43.5546 44.6668 43.55V43.5751ZM81.2811 43.5751C81.2226 43.5739 81.1656 43.5932 81.1199 43.6298C81.0742 43.6663 81.0428 43.7177 81.0312 43.7751L80.9562 44.5751C80.9562 44.8251 81.1561 44.875 81.2061 44.6L81.431 43.85C81.481 43.625 81.3811 43.55 81.2811 43.55V43.5751ZM47.9409 43.925C47.7909 43.925 47.666 44.1001 47.8409 44.3251C48.1158 44.7001 48.4407 44.9501 48.5657 45.0751C48.6657 45.2251 48.9406 45.1751 48.7656 44.9001L48.1908 44.0251C48.1408 43.9251 48.0409 43.9 47.9409 43.925ZM77.9321 43.925C77.8821 43.925 77.8071 43.9501 77.7821 44.0251L77.1823 44.9001C77.0073 45.1751 77.2823 45.225 77.4072 45.1C77.5072 44.95 77.8321 44.7001 78.132 44.3251C78.307 44.0751 78.157 43.925 78.007 43.925C77.9904 43.9232 77.9737 43.9232 77.9571 43.925H77.9321ZM42.7674 44.9501C42.6674 44.9501 42.6175 45.0501 42.7674 45.2751C43.1534 45.7434 43.4346 46.2889 43.5922 46.875C43.6172 47.225 43.4672 47.225 43.3172 47.225C42.8424 47.225 42.6175 46.8751 42.2176 46.7751C41.7927 46.7001 41.7177 46.9 42.0176 47.125C43.4502 48.0313 44.697 49.2021 45.6915 50.5751C45.9415 51.0501 46.2664 51.2001 46.0914 50.7751C45.6058 49.8002 45.3983 48.7102 45.4916 47.625C45.6166 46.925 45.7915 46.4751 45.7665 46.0751C45.7665 45.7001 45.5166 45.7251 45.4416 46.0751L45.1917 46.7751C45.0917 46.9001 44.7418 46.975 44.4419 46.55C44.0169 46.0283 43.5487 45.5433 43.0423 45.1C42.9673 45.025 42.8674 44.9751 42.7924 44.9501H42.7674ZM83.1805 44.9501C83.1055 44.9501 83.0056 45 82.9056 45.1C82.4081 45.5445 81.9483 46.0295 81.531 46.55C81.2061 46.975 80.8562 46.9 80.7812 46.8C80.6673 46.5701 80.5833 46.3264 80.5313 46.0751C80.4313 45.7251 80.2064 45.7001 80.1814 46.0751C80.1814 46.4751 80.3314 46.925 80.4563 47.625C80.5813 48.325 80.4563 49.4251 79.8815 50.7751C79.6816 51.2001 80.0315 51.0251 80.2814 50.5751C81.2667 49.2029 82.5052 48.0318 83.9303 47.125C84.2302 46.9 84.1802 46.7001 83.7554 46.7751C83.3305 46.8751 83.1055 47.225 82.6557 47.225C82.5057 47.225 82.3308 47.225 82.3558 46.875C82.3808 46.55 82.8056 45.7751 83.1805 45.2751C83.3305 45.0251 83.3055 44.9501 83.1805 44.9501Z" fill="black"/>
<path d="M45.0166 53.175L45.5165 54.7L45.0166 53.175ZM46.0163 52.875L46.4662 54.425L46.0163 52.875ZM47.116 52.675L47.4159 54.275L47.116 52.675ZM48.1157 52.5L48.4406 54.075L48.1157 52.5ZM49.3903 52.375L49.6402 53.975L49.3903 52.375ZM50.7649 52.375L51.0398 53.95L50.7649 52.375ZM52.1145 51.925L52.3145 53.525L52.1145 51.925ZM53.3641 52L53.5641 53.6L53.3641 52ZM54.5888 51.85L54.7887 53.45L54.5888 51.85ZM55.7884 51.7L55.9134 53.325L55.7884 51.7ZM57.113 51.7L57.213 53.325L57.113 51.7ZM58.3127 51.625L58.3877 53.25L58.3127 51.625ZM59.6123 51.55L59.6873 53.15L59.6123 51.55ZM61.1119 51.5L61.1868 53.125L61.1119 51.5ZM80.931 53.175L80.4312 54.7L80.931 53.175ZM79.9313 52.875L79.5065 54.425L79.9313 52.875ZM78.8566 52.675L78.5567 54.275L78.8566 52.675ZM77.8569 52.5L77.532 54.075L77.8569 52.5ZM76.5323 52.375L76.2824 53.975L76.5323 52.375ZM75.1827 52.375L74.9078 53.975L75.1827 52.375ZM73.8581 51.925L73.6582 53.525L73.8581 51.925ZM72.5835 52L72.3836 53.6L72.5835 52ZM71.3838 51.85L71.1589 53.45L71.3838 51.85ZM70.1592 51.7L70.0342 53.325L70.1592 51.7ZM68.8346 51.7L68.7346 53.325L68.8346 51.7ZM67.6599 51.625L67.585 53.25L67.6599 51.625ZM66.3353 51.55L66.2853 53.15L66.3353 51.55ZM64.8358 51.5L64.7858 53.125L64.8358 51.5ZM62.9863 51.375V53.175V51.375Z" fill="#FFD83D"/>
<path d="M45.0166 53.175L45.5165 54.7M46.0163 52.875L46.4662 54.425M47.116 52.675L47.4159 54.275M48.1157 52.5L48.4406 54.075M49.3903 52.375L49.6402 53.975M50.7649 52.375L51.0398 53.95M52.1145 51.925L52.3145 53.525M53.3641 52L53.5641 53.6M54.5888 51.85L54.7887 53.45M55.7884 51.7L55.9134 53.325M57.113 51.7L57.213 53.325M58.3127 51.625L58.3877 53.25M59.6123 51.55L59.6873 53.15M61.1119 51.5L61.1868 53.125M80.931 53.175L80.4312 54.7M79.9313 52.875L79.5065 54.425M78.8566 52.675L78.5567 54.275M77.8569 52.5L77.532 54.075M76.5323 52.375L76.2824 53.975M75.1827 52.375L74.9078 53.975M73.8581 51.925L73.6582 53.525M72.5835 52L72.3836 53.6M71.3838 51.85L71.1589 53.45M70.1592 51.7L70.0342 53.325M68.8346 51.7L68.7346 53.325M67.6599 51.625L67.585 53.25M66.3353 51.55L66.2853 53.15M64.8358 51.5L64.7858 53.125M62.9863 51.375V53.175" stroke="black" stroke-width="0.2" stroke-linecap="round" stroke-linejoin="round"/>
</g>
<defs>
<clipPath id="clip0_1284_64538">
<rect width="250" height="150" fill="white"/>
</clipPath>
</defs>
</svg>
