<svg width="250" height="150" viewBox="0 0 250 150" fill="none" xmlns="http://www.w3.org/2000/svg">
<g clip-path="url(#clip0_1284_64725)">
<path fill-rule="evenodd" clip-rule="evenodd" d="M0 0H250V150H0V0Z" fill="#F41408"/>
<path fill-rule="evenodd" clip-rule="evenodd" d="M0 100H250V150H0V100Z" fill="#21873B"/>
<path fill-rule="evenodd" clip-rule="evenodd" d="M0 0H250V50H0V0Z" fill="black"/>
<path fill-rule="evenodd" clip-rule="evenodd" d="M94.748 44.0625C101.717 28.6875 121.154 21.3125 138.122 27.6562C142.105 29.0063 145.768 31.1588 148.885 33.9807C152.003 36.8026 154.508 40.2339 156.247 44.0625H94.748ZM86.6232 46.0625C81.1087 45.6871 75.6331 44.872 70.2484 43.625C68.9672 43.2188 68.9047 42.5 69.0609 41.9688C69.2172 41.4375 70.0297 40.8438 70.9984 41.0312C72.7484 41.4688 79.9983 43.2187 86.6232 46.0625ZM125.56 19.2188C124.248 12.6562 123.935 5.46875 124.06 4.21875C124.185 3 124.904 2.8125 125.529 2.8125C126.154 2.8125 126.998 3.375 126.998 4.28125C126.998 5.9375 126.966 12.7188 125.56 19.2812V19.2188ZM129.185 19.375C128.667 14.369 128.635 9.32455 129.091 4.3125C129.341 3.09375 130.091 2.9375 130.685 3C131.31 3.03125 132.091 3.65625 131.997 4.5625C131.841 6.21875 131.185 12.9688 129.185 19.375ZM132.435 19.7812C132.372 13.125 133.372 5.9375 133.716 4.78125C134.06 3.5625 134.841 3.46875 135.435 3.5625C136.06 3.65625 136.779 4.34375 136.622 5.21875C136.31 6.875 134.997 13.5312 132.435 19.7812ZM135.872 20.4688C136.435 13.8438 138.154 6.78125 138.622 5.625C139.091 4.46875 139.872 4.4375 140.435 4.5625C141.06 4.71875 141.685 5.4375 141.466 6.3125C140.966 7.90625 139.06 14.4375 135.904 20.4688H135.872ZM139.279 21.4688C140.497 14.9062 142.872 8 143.435 6.875C144.028 5.78125 144.778 5.78125 145.372 5.96875C145.935 6.15625 146.528 6.96875 146.216 7.78125C144.334 12.5494 142.011 17.1317 139.279 21.4688ZM142.435 22.6562C144.247 16.1875 147.278 9.53125 147.966 8.4375C148.653 7.375 149.403 7.46875 149.966 7.71875C150.528 7.9375 151.028 8.78125 150.622 9.59375C149.841 11.0938 146.716 17.2188 142.435 22.6562ZM145.56 24.125C147.418 19.3476 149.72 14.7547 152.435 10.4062C153.185 9.40625 153.966 9.5625 154.497 9.84375C154.654 9.93689 154.791 10.0605 154.9 10.2072C155.009 10.354 155.088 10.521 155.132 10.6985C155.175 10.876 155.183 11.0604 155.155 11.2409C155.126 11.4215 155.062 11.5945 154.966 11.75C154.028 13.1875 150.31 19.0625 145.56 24.125ZM148.497 25.8438C151.528 19.7812 155.778 13.6562 156.653 12.7188C157.528 11.7812 158.278 12 158.778 12.3125C158.927 12.4181 159.054 12.5524 159.151 12.7074C159.247 12.8625 159.312 13.0353 159.341 13.2157C159.37 13.3961 159.363 13.5804 159.32 13.758C159.277 13.9356 159.199 14.1029 159.091 14.25C157.997 15.625 153.716 21.1562 148.466 25.8125L148.497 25.8438ZM151.247 27.7812C154.872 21.9688 159.684 16.2188 160.653 15.375C161.591 14.5 162.341 14.75 162.809 15.125C162.946 15.244 163.057 15.3893 163.136 15.5524C163.215 15.7154 163.261 15.8928 163.27 16.0738C163.278 16.2547 163.25 16.4356 163.187 16.6056C163.124 16.7755 163.028 16.9309 162.903 17.0625C161.716 18.3437 156.935 23.5312 151.247 27.7812ZM153.841 29.9375C157.011 25.7579 160.546 21.8677 164.403 18.3125C165.434 17.5312 166.122 17.8438 166.559 18.2188C166.689 18.3509 166.79 18.5083 166.856 18.6812C166.922 18.8541 166.951 19.0388 166.942 19.2236C166.933 19.4084 166.887 19.5894 166.805 19.7553C166.723 19.9212 166.607 20.0683 166.466 20.1875C165.184 21.375 159.903 26.1562 153.841 29.9375ZM156.216 32.2812C159.757 28.3629 163.648 24.7751 167.841 21.5625C168.966 20.8438 169.622 21.2188 170.028 21.6562C170.403 22.0625 170.497 23.0312 169.716 23.5938C165.467 26.8629 160.951 29.7689 156.216 32.2812ZM158.247 34.7188C162.154 31.0816 166.368 27.7881 170.841 24.875C171.997 24.25 172.622 24.6875 172.966 25.1562C173.341 25.5938 173.309 26.5625 172.528 27.0625C171.028 28 164.934 31.9375 158.247 34.7188ZM160.091 37.3125C164.317 34.0152 168.811 31.0778 173.528 28.5312C174.778 28 175.372 28.4688 175.684 28.9375C175.997 29.4375 175.872 30.375 175.059 30.8125C170.245 33.3839 165.228 35.5578 160.059 37.3125H160.091ZM161.778 40.3125C166.33 37.3795 171.117 34.8291 176.09 32.6875C177.372 32.25 177.903 32.7812 178.153 33.2812C178.434 33.7812 178.247 34.7188 177.34 35.0938C175.684 35.7812 168.903 38.6562 161.778 40.3125ZM163.091 43.1875C167.905 40.6151 172.922 38.4412 178.09 36.6875C179.403 36.375 179.872 36.9375 180.09 37.4688C180.278 37.9688 179.997 38.9062 179.09 39.1875C177.372 39.7812 170.341 42.0938 163.091 43.1875ZM164.153 46.25C169.189 44.0714 174.394 42.3052 179.715 40.9688C181.028 40.7812 181.465 41.3438 181.622 41.9062C181.778 42.4375 181.403 43.3125 180.465 43.5625C178.684 43.9687 171.466 45.75 164.153 46.25ZM122.029 19.375C120.546 14.546 119.531 9.58568 118.998 4.5625C118.998 3.34375 119.716 3.0625 120.31 3C120.935 2.96875 121.873 3.46875 121.935 4.34375C122.091 6 122.748 12.75 122.06 19.375H122.029ZM118.591 19.7812C116.637 15.1037 115.14 10.2476 114.123 5.28125C113.998 4.03125 114.685 3.71875 115.279 3.625C115.904 3.53125 116.841 3.9375 117.029 4.8125C118.006 9.74379 118.529 14.7544 118.591 19.7812ZM115.154 20.4688C112.754 15.9565 110.787 11.227 109.279 6.34375C109.029 5.125 109.685 4.75 110.279 4.59375C110.873 4.46875 111.842 4.78125 112.123 5.65625C112.591 7.25 114.529 13.7813 115.123 20.4375L115.154 20.4688ZM111.873 21.4062C109.081 17.1062 106.695 12.5553 104.748 7.8125C104.404 6.625 104.998 6.1875 105.56 6C106.154 5.8125 107.154 6.0625 107.498 6.875C108.123 8.4375 110.685 14.8125 111.873 21.375V21.4062ZM108.717 22.5C105.513 18.4442 102.689 14.1031 100.279 9.53125C99.8417 8.375 100.404 7.875 100.967 7.65625C101.529 7.40625 102.529 7.59375 102.967 8.40625C103.748 9.90625 106.873 16.0625 108.717 22.5ZM105.498 24.0625C101.904 20.281 98.662 16.1808 95.8105 11.8125C95.2793 10.7188 95.7793 10.1875 96.3105 9.90625C96.8417 9.625 97.873 9.71875 98.373 10.5C99.3105 11.9375 103.06 17.7812 105.498 24.0625ZM102.56 25.75C98.6355 22.2525 95.0277 18.4147 91.7793 14.2812C91.1231 13.2188 91.5606 12.6563 92.0918 12.3125C92.5606 12 93.6543 12 94.1855 12.75C95.248 14.0938 99.5292 19.625 102.56 25.7188V25.75ZM99.8417 27.625C95.5935 24.4446 91.6307 20.9 87.9981 17.0312C87.2481 16.0312 87.6544 15.4688 88.1231 15.0938C88.4534 14.8891 88.8433 14.8024 89.2293 14.8478C89.6152 14.8932 89.9743 15.068 90.2481 15.3438C91.4356 16.5938 96.248 21.8125 99.8417 27.625ZM97.1855 29.8125C92.6482 26.9869 88.3617 23.7773 84.3732 20.2188C83.4982 19.2812 83.842 18.6562 84.2794 18.25C84.5955 18.017 84.9818 17.8992 85.3741 17.9162C85.7664 17.9333 86.141 18.0842 86.4357 18.3438C87.7481 19.5 92.9981 24.2812 97.1855 29.7812V29.8125ZM94.873 32C90.0886 29.5345 85.5204 26.6702 81.217 23.4375C80.2795 22.5625 80.5608 21.9375 80.967 21.5C81.342 21.0625 82.3732 20.8438 83.1232 21.4062C87.3404 24.6006 91.2718 28.1557 94.873 32.0312V32ZM92.6856 34.5625C87.6753 32.4878 82.8462 30.0001 78.2483 27.125C77.2171 26.3438 77.4358 25.6562 77.7795 25.2188C78.1233 24.75 79.1233 24.4375 79.9358 24.9375C81.4357 25.9062 87.5294 29.7812 92.6856 34.5625ZM90.7168 37.3125C83.7795 35.125 76.6858 31.8125 75.5921 31.0938C74.4671 30.4062 74.6546 29.7188 74.9358 29.2188C75.2171 28.7188 76.1858 28.3438 77.0608 28.7812C78.6233 29.625 85.1232 33 90.7168 37.3125ZM89.0606 40.125C81.9357 38.4687 74.5921 35.75 73.4046 35.125C72.2484 34.5 72.3109 33.8125 72.5921 33.3125C72.8421 32.8125 73.7484 32.3438 74.6546 32.6875C76.3108 33.4062 83.092 36.25 89.0606 40.125ZM87.7481 42.9375C82.3004 42.0999 76.9289 40.825 71.6859 39.125C70.4359 38.625 70.4984 37.9062 70.6859 37.4062C70.9047 36.875 71.7796 36.3438 72.6859 36.625C74.4359 37.2188 81.4357 39.5312 87.7481 42.9375Z" fill="#F31509"/>
<path fill-rule="evenodd" clip-rule="evenodd" d="M86.6232 46.0625C81.1088 45.6869 75.6331 44.8718 70.2484 43.625C68.9672 43.2187 68.9047 42.5 69.0609 41.9687C69.2172 41.4375 70.0297 40.8437 70.9984 41.0312C72.7484 41.4687 79.9983 43.2187 86.6232 46.0625Z" fill="#F31509"/>
<path fill-rule="evenodd" clip-rule="evenodd" d="M69 44H182V48H69V44Z" fill="black"/>
</g>
<defs>
<clipPath id="clip0_1284_64725">
<rect width="250" height="150" fill="white"/>
</clipPath>
</defs>
</svg>
