<svg width="250" height="150" viewBox="0 0 250 150" fill="none" xmlns="http://www.w3.org/2000/svg">
<g clip-path="url(#clip0_1284_64713)">
<path d="M0 0H250V150H0V0Z" fill="#CC0000"/>
<path d="M0.195312 12.4688H249.805V24.4688H0.195312V12.4688ZM0.195312 37.0625H249.805V49.0625H0.195312V37.0625ZM0.195312 61.6875H249.805V73.6875H0.195312V61.6875Z" fill="white"/>
<path d="M0 0.15625H99.95V87.6562H0V0.15625Z" fill="#000066"/>
<path d="M64.9826 23.0625L66.8577 35.7813L74.0455 25.1563L70.1703 37.4063L81.2646 30.9063L72.4829 40.2813L85.296 39.2813L73.3267 43.9063L85.296 48.5313L72.4829 47.5313L81.2646 56.9063L70.1703 50.4063L74.0142 62.6875L66.8264 52.0313L64.9513 64.75L63.1075 52.0313L55.9197 62.6563L59.7948 50.4063L48.7006 56.9063L57.451 47.5313L44.6379 48.5313L56.6384 43.9063L44.6691 39.2813L57.4822 40.2813L48.7006 30.9063L59.7948 37.4063L55.9197 25.125L63.1075 35.7813L64.9826 23.0625ZM54.5758 23.5938C51.1931 22.0943 47.4894 21.4633 43.8009 21.7581C40.1124 22.0529 36.556 23.2642 33.4544 25.2819C30.3527 27.2996 27.8041 30.0599 26.0398 33.3123C24.2756 36.5647 23.3515 40.2062 23.3515 43.9063C23.3515 47.6063 24.2756 51.2478 26.0398 54.5002C27.8041 57.7526 30.3527 60.5129 33.4544 62.5306C36.556 64.5484 40.1124 65.7596 43.8009 66.0544C47.4894 66.3492 51.1931 65.7182 54.5758 64.2188C50.8399 66.8992 46.437 68.4974 41.8515 68.8377C37.2659 69.178 32.6754 68.2472 28.5846 66.1476C24.4939 64.048 21.0614 60.861 18.6648 56.937C16.2681 53.0131 15 48.5042 15 43.9063C15 39.3083 16.2681 34.7995 18.6648 30.8755C21.0614 26.9516 24.4939 23.7646 28.5846 21.665C32.6754 19.5654 37.2659 18.6345 41.8515 18.9748C46.437 19.3151 50.8399 20.9133 54.5758 23.5938Z" fill="#FFCC00"/>
<path d="M0.195312 86.3125H249.805V98.3125H0.195312V86.3125ZM0.195312 110.75H249.805V122.75H0.195312V110.75ZM0 138H249.609V150H0V138Z" fill="white"/>
</g>
<defs>
<clipPath id="clip0_1284_64713">
<rect width="250" height="150" fill="white"/>
</clipPath>
</defs>
</svg>
