<svg width="250" height="150" viewBox="0 0 250 150" fill="none" xmlns="http://www.w3.org/2000/svg">
<g clip-path="url(#clip0_1284_63764)">
<path d="M0 0H250V150H0V0Z" fill="#D21034"/>
<path d="M46.875 37.5H203.125V112.5H46.875V37.5Z" fill="#007E3A"/>
<path d="M130.469 100C144.276 100 155.469 88.8071 155.469 75C155.469 61.1929 144.276 50 130.469 50C116.662 50 105.469 61.1929 105.469 75C105.469 88.8071 116.662 100 130.469 100Z" fill="white"/>
<path d="M148.438 100C165.696 100 179.688 88.8071 179.688 75C179.688 61.1929 165.696 50 148.438 50C131.179 50 117.188 61.1929 117.188 75C117.188 88.8071 131.179 100 148.438 100Z" fill="#007E3A"/>
</g>
<defs>
<clipPath id="clip0_1284_63764">
<rect width="250" height="150" fill="white"/>
</clipPath>
</defs>
</svg>
