<svg width="250" height="150" viewBox="0 0 250 150" fill="none" xmlns="http://www.w3.org/2000/svg">
<g clip-path="url(#clip0_1284_64330)">
<path d="M0 0H250V150H0V0Z" fill="white"/>
<path d="M125 0H250V150H125V0Z" fill="#CF142B"/>
<path d="M23.5348 8.68066H34.6462V19.2351C35.0679 19.2052 35.5032 19.2745 35.9183 19.4377C36.3334 19.6009 36.7171 19.8536 37.0397 20.1762C37.3622 20.4987 37.6149 20.8824 37.7781 21.2975C37.9413 21.7126 38.0107 22.1479 37.9807 22.5696H48.5355V33.6807H37.9807C38.0107 34.1023 37.9413 34.5376 37.7781 34.9527C37.6149 35.3678 37.3622 35.7515 37.0397 36.0741C36.7171 36.3966 36.3334 36.6493 35.9183 36.8125C35.5032 36.9757 35.0679 37.045 34.6462 37.0151V47.5695H23.5348V37.0151C23.1131 37.045 22.6778 36.9757 22.2627 36.8125C21.8476 36.6493 21.4639 36.3966 21.1413 36.0741C20.8188 35.7515 20.5661 35.3678 20.4029 34.9527C20.2397 34.5376 20.1703 34.1023 20.2003 33.6807H9.64551V22.5696H20.2003C20.1703 22.1479 20.2397 21.7126 20.4029 21.2975C20.5661 20.8824 20.8188 20.4987 21.1413 20.1762C21.4639 19.8536 21.8476 19.6009 22.2627 19.4377C22.6778 19.2745 23.1131 19.2052 23.5348 19.2351V8.68066Z" stroke="#CF142B" stroke-width="1.56"/>
<path d="M34.581 19.2405C35.0115 19.1993 35.4587 19.2626 35.886 19.4252C36.3133 19.5878 36.7086 19.8451 37.0396 20.1761C37.3705 20.5071 37.6278 20.9023 37.7904 21.3296C37.9531 21.7569 38.0164 22.204 37.9752 22.6346V33.6155C38.0164 34.046 37.9531 34.4932 37.7904 34.9205C37.6278 35.3477 37.3705 35.743 37.0396 36.074C36.7086 36.405 36.3133 36.6623 35.886 36.8249C35.4587 36.9875 35.0115 37.0508 34.581 37.0096H23.5998C23.1692 37.0508 22.722 36.9875 22.2947 36.8249C21.8675 36.6623 21.4722 36.405 21.1412 36.074C20.8102 35.743 20.5529 35.3477 20.3903 34.9205C20.2277 34.4932 20.1644 34.046 20.2056 33.6155V22.6346C20.1644 22.204 20.2277 21.7569 20.3903 21.3296C20.5529 20.9023 20.8102 20.5071 21.1412 20.1761C21.4722 19.8451 21.8675 19.5878 22.2947 19.4252C22.722 19.2626 23.1692 19.1993 23.5998 19.2405H34.581Z" fill="white"/>
<path d="M23.6002 8.74585H34.5814V47.5045H23.6002V8.74585ZM9.71094 22.6347H48.4707V33.6156H9.71094V22.6347Z" fill="white" stroke="black" stroke-width="0.1"/>
<path d="M24.2291 9.375H33.9516V46.875H24.2291V9.375ZM10.3398 23.2639H47.8409V32.9861H10.3398V23.2639Z" fill="white" stroke="black" stroke-width="0.3"/>
<path d="M29.091 36.8057C33.8852 36.8057 37.7718 32.9193 37.7718 28.1251C37.7718 23.331 33.8852 19.4446 29.091 19.4446C24.2967 19.4446 20.4102 23.331 20.4102 28.1251C20.4102 32.9193 24.2967 36.8057 29.091 36.8057Z" fill="white" stroke="black" stroke-width="0.3"/>
<path d="M29.0908 34.5486C32.6386 34.5486 35.5146 31.6727 35.5146 28.125C35.5146 24.5774 32.6386 21.7014 29.0908 21.7014C25.543 21.7014 22.667 24.5774 22.667 28.125C22.667 31.6727 25.543 34.5486 29.0908 34.5486Z" fill="white" stroke="black" stroke-width="0.3"/>
<path d="M37.4572 21.1672C37.1561 21.3978 36.5837 21.9864 36.2365 22.4177L35.9137 22.217C36.3558 21.8345 36.9689 21.2676 37.308 20.8634L37.4572 21.1672ZM37.1832 20.6653C36.638 20.8254 35.5963 21.1319 35.1514 21.414L35.0537 21.273C35.2409 21.0044 35.4525 19.9004 35.4443 19.5857L35.7834 19.6616C35.6722 19.9329 35.5637 20.5134 35.5339 20.8905C35.8838 20.8281 36.7139 20.5568 36.9499 20.3859L37.1832 20.6653Z" fill="white" stroke="black" stroke-width="0.15" stroke-linejoin="round"/>
<path d="M37.8822 21.908H37.452C37.4905 21.6809 37.4287 21.3963 37.2768 21.1005C37.1249 20.8047 36.8917 20.515 36.615 20.2783C36.3382 20.0416 36.0342 19.8718 35.7522 19.7963C35.4702 19.7209 35.2266 19.7443 35.061 19.8627C34.8954 19.9812 34.8175 20.1877 34.8399 20.4488C34.8622 20.71 34.9835 21.0105 35.1842 21.3016C35.3848 21.5927 35.653 21.8574 35.9453 22.0528C36.2376 22.2482 36.5369 22.3628 36.7947 22.3781L37.0988 22.0155L37.4734 22.3901L37.0543 22.8089C36.6634 22.7508 36.2788 22.6104 35.9263 22.3972C35.5739 22.184 35.2619 21.9029 35.0114 21.573C34.7609 21.2431 34.5778 20.872 34.4743 20.4848C34.3709 20.0976 34.3496 19.7033 34.4118 19.3286C34.7815 19.2672 35.1702 19.287 35.5525 19.3869C35.9347 19.4868 36.3018 19.6644 36.6296 19.9081C36.9575 20.1518 37.2386 20.4559 37.4545 20.8006C37.6703 21.1453 37.8161 21.5228 37.8822 21.908Z" fill="white" stroke="black" stroke-width="0.15" stroke-linejoin="round"/>
<path d="M36.0483 36.4911C35.8178 36.19 35.2291 35.6176 34.7978 35.2704L34.9985 34.9476C35.381 35.3897 35.948 36.0028 36.3522 36.3419L36.0483 36.4911ZM36.5502 36.2171C36.3902 35.6718 36.0836 34.6302 35.8015 34.1853L35.9426 34.0876C36.2111 34.2748 37.3152 34.4864 37.6299 34.4783L37.5539 34.8174C37.2827 34.7061 36.7021 34.5976 36.325 34.5678C36.3874 34.9177 36.6587 35.7478 36.8296 35.9838L36.5502 36.2171Z" fill="white" stroke="black" stroke-width="0.15" stroke-linejoin="round"/>
<path d="M35.3075 36.9163V36.4861C35.5346 36.5245 35.8192 36.4628 36.115 36.3109C36.4108 36.159 36.7005 35.9258 36.9373 35.6491C37.174 35.3724 37.3438 35.0684 37.4192 34.7863C37.4947 34.5043 37.4713 34.2608 37.3528 34.0952C37.2344 33.9296 37.0279 33.8517 36.7667 33.874C36.5055 33.8964 36.2051 34.0177 35.9139 34.2183C35.6228 34.419 35.3581 34.6872 35.1627 34.9795C34.9673 35.2718 34.8527 35.571 34.8373 35.8288L35.2 36.1329L34.8254 36.5075L34.4066 36.0884C34.4647 35.6975 34.6051 35.3129 34.8183 34.9605C35.0315 34.6081 35.3126 34.2961 35.6425 34.0456C35.9725 33.7951 36.3436 33.6119 36.7308 33.5085C37.118 33.4051 37.5123 33.3837 37.887 33.446C37.9484 33.8156 37.9285 34.2044 37.8286 34.5866C37.7288 34.9688 37.5511 35.3359 37.3075 35.6638C37.0638 35.9916 36.7596 36.2727 36.4149 36.4885C36.0702 36.7044 35.6928 36.8502 35.3075 36.9163Z" fill="white" stroke="black" stroke-width="0.15" stroke-linejoin="round"/>
<path d="M20.7235 35.0831C21.0246 34.8525 21.597 34.2638 21.9442 33.8325L22.267 34.0333C21.8248 34.4157 21.2118 34.9827 20.8727 35.3869L20.7235 35.0831ZM20.9974 35.5849C21.5427 35.4249 22.5844 35.1183 23.0293 34.8362L23.127 34.9773C22.9398 35.2458 22.7282 36.3499 22.7363 36.6646L22.3972 36.5886C22.5084 36.3173 22.617 35.7368 22.6468 35.3598C22.2969 35.4221 21.4667 35.6934 21.2307 35.8643L20.9974 35.5849Z" fill="white" stroke="black" stroke-width="0.15" stroke-linejoin="round"/>
<path d="M20.2984 34.3422H20.7287C20.6902 34.5694 20.7519 34.8539 20.9039 35.1497C21.0558 35.4455 21.289 35.7352 21.5657 35.972C21.8424 36.2087 22.1464 36.3785 22.4285 36.4539C22.7105 36.5293 22.9541 36.5059 23.1196 36.3875C23.2852 36.2691 23.3632 36.0625 23.3408 35.8014C23.3185 35.5402 23.1971 35.2398 22.9965 34.9486C22.7958 34.6575 22.5276 34.3928 22.2353 34.1974C21.943 34.002 21.6437 33.8874 21.386 33.8721L21.0819 34.2348L20.7072 33.8602L21.1264 33.4413C21.5172 33.4994 21.9019 33.6398 22.2543 33.8531C22.6068 34.0663 22.9188 34.3473 23.1693 34.6773C23.4198 35.0072 23.6029 35.3783 23.7063 35.7655C23.8098 36.1527 23.8311 36.547 23.7689 36.9217C23.3992 36.9831 23.0105 36.9632 22.6282 36.8633C22.246 36.7634 21.8788 36.5858 21.551 36.3421C21.2232 36.0985 20.9421 35.7943 20.7262 35.4496C20.5103 35.1049 20.3645 34.7275 20.2984 34.3422Z" fill="white" stroke="black" stroke-width="0.15" stroke-linejoin="round"/>
<path d="M22.1323 19.7592C22.3629 20.0603 22.9516 20.6326 23.3829 20.9799L23.1821 21.3027C22.7997 20.8605 22.2327 20.2475 21.8285 19.9084L22.1323 19.7592ZM21.6305 20.0331C21.7905 20.5784 22.097 21.6201 22.3792 22.0649L22.2381 22.1626C21.9696 21.9754 20.8655 21.7638 20.5508 21.772L20.6267 21.4329C20.898 21.5441 21.4785 21.6526 21.8556 21.6825C21.7932 21.3325 21.5219 20.5024 21.351 20.2664L21.6305 20.0331Z" fill="white" stroke="black" stroke-width="0.15" stroke-linejoin="round"/>
<path d="M22.8732 19.3339V19.7642C22.646 19.7257 22.3615 19.7874 22.0657 19.9393C21.7699 20.0913 21.4801 20.3245 21.2434 20.6012C21.0067 20.8779 20.8369 21.1819 20.7614 21.4639C20.686 21.7459 20.7094 21.9895 20.8278 22.1551C20.9463 22.3206 21.1528 22.3986 21.414 22.3762C21.6751 22.3539 21.9756 22.2325 22.2667 22.0319C22.5579 21.8313 22.8226 21.5631 23.018 21.2708C23.2134 20.9785 23.328 20.6792 23.3433 20.4214L22.9806 20.1174L23.3553 19.7427L23.7741 20.1618C23.716 20.5527 23.5756 20.9374 23.3624 21.2898C23.1491 21.6422 22.8681 21.9542 22.5381 22.2047C22.2082 22.4552 21.8371 22.6383 21.4499 22.7418C21.0627 22.8452 20.6684 22.8665 20.2936 22.8043C20.2322 22.4346 20.2521 22.0459 20.352 21.6636C20.4519 21.2814 20.6295 20.9143 20.8732 20.5865C21.1169 20.2587 21.4211 19.9776 21.7658 19.7617C22.1105 19.5458 22.4879 19.4 22.8732 19.3339Z" fill="white" stroke="black" stroke-width="0.15" stroke-linejoin="round"/>
<path d="M22.1985 32.9808C22.0032 32.639 21.7455 32.2023 21.6044 32.0884C21.6912 32.0287 21.8079 31.9419 21.8675 31.9256C21.8648 32.1426 22.1931 32.5929 22.1931 32.5929L22.6759 32.2755C22.5403 32.0667 22.4209 31.9066 22.3233 31.8442C22.4426 31.7574 22.5701 31.6842 22.6054 31.676C22.6081 31.7818 22.6705 31.9581 22.855 32.1752C22.855 32.1752 23.3053 31.9364 23.4518 31.752L23.6417 32.0612C23.4301 32.1019 22.4806 32.6933 22.1985 32.9808ZM21.5285 28.8657C21.0212 28.9579 20.7635 29.3892 20.8503 29.8748C20.9371 30.3658 21.3765 30.7022 21.8594 30.6208C22.3423 30.5367 22.6163 30.0918 22.524 29.5764C22.4318 29.061 22.0357 28.7735 21.5285 28.8657ZM21.6017 29.1587C22.0086 29.0854 22.3504 29.2834 22.4074 29.5981C22.4644 29.9128 22.2121 30.2247 21.8024 30.298C21.3928 30.3712 21.0673 30.1108 21.0212 29.8477C20.9723 29.5791 21.1921 29.2319 21.6017 29.1587ZM22.5946 26.1747C22.4264 26.4406 22.0547 26.6847 21.7265 26.9099C21.6804 26.6766 21.5068 26.5274 21.306 26.5138C21.0917 26.503 20.872 26.6739 20.834 26.7878C20.7797 26.9451 20.7119 27.6206 20.7119 27.6206C21.1351 27.588 22.0602 27.6613 22.3775 27.7779L22.4155 27.4198C22.2066 27.4741 21.7346 27.3764 21.7346 27.3764L21.7455 27.2191L22.2338 26.8339C22.2962 26.7851 22.6624 26.4433 22.6732 26.1991C22.6759 26.1232 22.6108 26.1422 22.5946 26.1747ZM21.6153 27.371C21.4227 27.3764 21.0212 27.3547 20.9099 27.3059C20.9533 26.918 21.0727 26.7796 21.2789 26.7986C21.4688 26.8176 21.6695 26.9261 21.6153 27.371ZM23.4654 22.5642C23.0964 22.594 22.6353 22.9412 22.6461 23.2396C22.6488 23.3969 22.7031 23.614 22.912 23.7713C23.1181 23.9286 23.3324 23.9747 23.5033 23.9422C23.6688 23.9124 23.9428 23.6818 23.9401 23.5543C23.9401 23.4295 23.6471 23.0823 23.4626 23.0823L23.7692 22.754C23.8479 22.9439 24.1625 23.2206 24.2792 23.2559C24.1463 23.5733 23.9808 23.9042 23.6335 24.0643C23.2863 24.227 22.9255 24.2189 22.5973 23.9096C22.288 23.6167 22.4074 23.0524 22.6027 22.8327C22.817 22.5913 23.2158 22.4882 23.2239 22.301L23.4654 22.5642ZM25.1961 20.7385L25.2612 21.9701C25.2612 21.9701 25.2856 22.4068 25.1852 22.6781L25.5677 22.4095C25.4185 22.2902 25.4484 21.924 25.4484 21.924L26.0669 21.593C26.0669 21.593 26.3599 21.7802 26.33 22.0081L26.8563 21.7938C26.5498 21.6771 26.17 21.4086 26.17 21.4086L25.1961 20.7385ZM25.3941 21.121L25.9584 21.4954L25.4077 21.791L25.3941 21.121ZM28.1557 19.8352C28.0852 20.1363 28.1611 20.7304 28.2724 21.2241C28.6548 21.1888 28.9478 21.1509 29.078 20.9881L29.1133 21.395C28.7362 21.395 28.3212 21.4384 27.9414 21.4981C27.9468 20.942 27.8899 20.2123 27.7325 19.8976L28.1557 19.8352ZM31.0285 20.017C30.8522 20.2719 30.7057 20.8525 30.6297 21.3516C30.9987 21.4601 31.2862 21.5306 31.468 21.4248L31.3513 21.8182C31.0014 21.6825 30.5972 21.5686 30.2228 21.4845C30.429 20.9718 30.6433 20.2692 30.6135 19.922L31.0285 20.017ZM33.9339 21.3326L32.8596 21.943C32.8596 21.943 32.4798 22.1627 32.1923 22.1952L32.6019 22.4122C32.6426 22.2278 32.9844 22.0894 32.9844 22.0894L33.5595 22.4936C33.5595 22.4936 33.5215 22.8436 33.3045 22.9168L33.7304 23.2912C33.7006 22.9656 33.7684 22.5018 33.7684 22.5018L33.9339 21.3326ZM33.6789 21.6798L33.5948 22.3553L33.0821 21.9945L33.6789 21.6798ZM34.5035 24.208L34.3354 23.8907C34.6121 23.869 35.4449 23.3807 35.8274 23.1311L35.887 23.2396L35.529 24.8754C35.8491 24.7479 36.3563 24.482 36.4947 24.3355L36.6846 24.6963C36.3292 24.6448 35.67 24.9703 35.1709 25.2741L35.122 25.1873L35.4286 23.595C35.4286 23.595 34.6012 23.9693 34.5035 24.208ZM37.0264 26.5735C36.9938 26.3321 36.9884 26.1666 36.8718 26.1123L36.8582 26.012L37.1539 25.9631C37.276 26.2805 37.4143 27.1648 37.3953 27.3927L37.0915 27.4415L37.0779 27.3574C37.1783 27.2435 37.0779 26.8258 37.0779 26.8258C36.6276 26.8719 35.8436 26.9994 35.7324 27.154L35.6619 26.7362C35.8219 26.7905 36.6113 26.7064 37.0264 26.5735ZM35.5697 30.1651C35.7378 29.8992 36.1149 29.6578 36.4432 29.4354C36.4893 29.6686 36.6602 29.8206 36.8636 29.8314C37.0779 29.845 37.2977 29.6795 37.3357 29.5629C37.3926 29.4055 37.4632 28.7328 37.4632 28.7328C37.04 28.7599 36.1176 28.6812 35.8002 28.5619L35.7595 28.9199C35.9684 28.8684 36.4404 28.9661 36.4404 28.9661L36.4296 29.1234L35.9386 29.5059C35.8735 29.5547 35.5045 29.8938 35.491 30.1379C35.4883 30.2139 35.5534 30.1922 35.5697 30.1651ZM36.5598 28.9742C36.7524 28.9715 37.1539 28.9959 37.2651 29.0447C37.219 29.4326 37.0969 29.571 36.8908 29.5493C36.7009 29.5276 36.5028 29.4191 36.5598 28.9742ZM35.0244 31.242L34.7721 31.676C34.9674 31.6462 35.2387 31.8008 35.4584 31.9446C35.5317 32.1399 35.8192 32.639 35.7975 33.1273L36.1231 32.5685C35.9793 32.5034 35.8111 32.4329 35.7026 31.9093C36.1312 31.7493 36.4513 31.6977 36.5869 31.7737L36.8745 31.2854C36.5408 31.4861 35.7568 31.6923 35.6266 31.6489C35.491 31.5702 35.1058 31.4509 35.0244 31.242Z" fill="black"/>
<path d="M33.093 34.8688C33.2803 34.8688 33.4321 34.717 33.4321 34.5298C33.4321 34.3425 33.2803 34.1907 33.093 34.1907C32.9057 34.1907 32.7539 34.3425 32.7539 34.5298C32.7539 34.717 32.9057 34.8688 33.093 34.8688Z" fill="black"/>
<path d="M25.091 34.8688C25.2783 34.8688 25.4301 34.717 25.4301 34.5298C25.4301 34.3425 25.2783 34.1907 25.091 34.1907C24.9038 34.1907 24.752 34.3425 24.752 34.5298C24.752 34.717 24.9038 34.8688 25.091 34.8688Z" fill="black"/>
<path d="M29.6195 36.4042C29.5842 36.4286 29.4893 36.3798 29.4676 36.3038C29.4676 36.3282 29.4622 36.4042 29.416 36.4476C29.3048 36.5534 29.1855 36.5018 29.0905 36.5018C28.9956 36.5018 28.8762 36.5534 28.765 36.4476C28.7189 36.4042 28.7134 36.3282 28.7134 36.3038C28.6917 36.3798 28.5968 36.4286 28.5615 36.4042C28.529 36.3798 28.5453 36.274 28.6104 36.2306C28.5887 36.236 28.5127 36.255 28.4584 36.2252C28.3228 36.1519 28.3364 36.0217 28.3065 35.9322C28.2767 35.8427 28.1899 35.745 28.2577 35.6067C28.2848 35.5497 28.3554 35.5199 28.3771 35.5117C28.2984 35.5144 28.2252 35.4385 28.236 35.4005C28.2496 35.3598 28.3554 35.3435 28.4178 35.3924C28.4015 35.3734 28.3635 35.3083 28.3744 35.2459C28.4015 35.094 28.529 35.0668 28.6049 35.0099C28.6836 34.9529 28.7487 34.8417 28.9006 34.8634C28.963 34.8715 29.0118 34.9285 29.0281 34.9475C29.001 34.8742 29.0498 34.7793 29.0905 34.7793C29.1312 34.7793 29.18 34.8742 29.1529 34.9475C29.1692 34.9285 29.218 34.8715 29.2804 34.8634C29.4323 34.8417 29.4974 34.9529 29.5761 35.0099C29.6521 35.0668 29.7796 35.094 29.8067 35.2459C29.8175 35.3083 29.7796 35.3734 29.7633 35.3924C29.8257 35.3435 29.9315 35.3598 29.945 35.4005C29.9559 35.4385 29.8826 35.5144 29.804 35.5117C29.8257 35.5199 29.8962 35.5497 29.9233 35.6067C29.9912 35.745 29.9043 35.8427 29.8745 35.9322C29.8447 36.0217 29.8582 36.1519 29.7226 36.2252C29.6683 36.255 29.5924 36.236 29.5707 36.2306C29.6358 36.274 29.6521 36.3798 29.6195 36.4042ZM28.8382 36.0244C28.8816 36.057 28.765 36.1546 28.8111 36.2767C28.8626 36.4205 29.0064 36.3771 29.0905 36.3771C29.1746 36.3771 29.3184 36.4205 29.3699 36.2767C29.416 36.1546 29.2994 36.057 29.3428 36.0244C29.3862 35.9919 29.4459 36.1329 29.5734 36.1302C29.728 36.1221 29.7307 35.9756 29.7551 35.8942C29.7823 35.8128 29.8691 35.6908 29.747 35.5958C29.6466 35.5144 29.5137 35.5958 29.4974 35.5443C29.4812 35.4927 29.6331 35.4819 29.671 35.3571C29.7117 35.2079 29.5707 35.1618 29.5029 35.1102C29.4323 35.0614 29.3428 34.9421 29.2153 35.0262C29.1095 35.0994 29.1448 35.2486 29.0905 35.2486C29.0363 35.2486 29.0715 35.0994 28.9657 35.0262C28.8382 34.9421 28.7487 35.0614 28.6782 35.1102C28.6104 35.1618 28.4693 35.2079 28.51 35.3571C28.548 35.4819 28.6999 35.4927 28.6836 35.5443C28.6673 35.5958 28.5344 35.5144 28.434 35.5958C28.312 35.6908 28.3988 35.8128 28.4259 35.8942C28.4503 35.9756 28.453 36.1221 28.6076 36.1302C28.7351 36.1329 28.7948 35.9919 28.8382 36.0244Z" fill="black"/>
<path d="M29.0906 36.217C29.0661 36.217 29.0363 36.16 29.0526 36.1139C29.0444 36.1274 29.0146 36.16 28.9766 36.1654C28.8844 36.179 28.8464 36.1112 28.8003 36.0786C28.7542 36.0433 28.6782 36.0271 28.6619 35.9376C28.6538 35.8996 28.6782 35.8589 28.6864 35.848C28.6484 35.8779 28.586 35.867 28.5779 35.8426C28.5697 35.8209 28.6158 35.7748 28.6619 35.7748C28.6484 35.7721 28.6077 35.7531 28.5914 35.7205C28.5507 35.6364 28.6023 35.5795 28.6213 35.5252C28.6375 35.471 28.6294 35.3923 28.7108 35.3489C28.7433 35.3299 28.7894 35.3408 28.803 35.3462C28.7623 35.3191 28.7542 35.2567 28.7732 35.2404C28.7949 35.2268 28.8518 35.2567 28.8654 35.3001C28.8654 35.2865 28.8681 35.2404 28.8952 35.216C28.9631 35.1509 29.0336 35.1834 29.0906 35.1834C29.1475 35.1834 29.2181 35.1509 29.2859 35.216C29.313 35.2404 29.3157 35.2865 29.3157 35.3001C29.3293 35.2567 29.3863 35.2268 29.408 35.2404C29.4269 35.2567 29.4188 35.3191 29.3781 35.3462C29.3917 35.3408 29.4378 35.3299 29.4703 35.3489C29.5517 35.3923 29.5436 35.471 29.5599 35.5252C29.5789 35.5795 29.6304 35.6364 29.5897 35.7205C29.5734 35.7531 29.5327 35.7721 29.5192 35.7748C29.5653 35.7748 29.6114 35.8209 29.6033 35.8426C29.5951 35.867 29.5327 35.8779 29.4948 35.848C29.5029 35.8589 29.5273 35.8996 29.5192 35.9376C29.5029 36.0271 29.4269 36.0433 29.3808 36.0786C29.3347 36.1112 29.2967 36.179 29.2045 36.1654C29.1665 36.16 29.1367 36.1274 29.1285 36.1139C29.1448 36.16 29.115 36.217 29.0906 36.217ZM29.0906 35.9077C29.1204 35.9077 29.1014 35.9891 29.1584 36.0271C29.2262 36.0732 29.275 36.0108 29.313 35.9837C29.351 35.9565 29.4269 35.9294 29.4025 35.8507C29.3835 35.7829 29.3022 35.7775 29.3103 35.7477C29.3184 35.7205 29.389 35.7639 29.4459 35.7205C29.511 35.669 29.4649 35.6039 29.4514 35.5605C29.4351 35.5171 29.4351 35.4357 29.351 35.433C29.2805 35.4303 29.2506 35.5062 29.2262 35.49C29.2018 35.4737 29.2669 35.4194 29.2425 35.3543C29.2126 35.2757 29.1367 35.3001 29.0906 35.3001C29.0444 35.3001 28.9685 35.2757 28.9386 35.3543C28.9142 35.4194 28.9793 35.4737 28.9549 35.49C28.9305 35.5062 28.9007 35.4303 28.8301 35.433C28.746 35.4357 28.746 35.5171 28.7298 35.5605C28.7162 35.6039 28.6701 35.669 28.7352 35.7205C28.7922 35.7639 28.8627 35.7205 28.8708 35.7477C28.879 35.7775 28.7976 35.7829 28.7786 35.8507C28.7542 35.9294 28.8301 35.9565 28.8681 35.9837C28.9061 36.0108 28.9549 36.0732 29.0227 36.0271C29.0797 35.9891 29.0607 35.9077 29.0906 35.9077Z" fill="black"/>
<path d="M29.0902 35.8073C29.1621 35.8073 29.2204 35.749 29.2204 35.6771C29.2204 35.6052 29.1621 35.5469 29.0902 35.5469C29.0183 35.5469 28.96 35.6052 28.96 35.6771C28.96 35.749 29.0183 35.8073 29.0902 35.8073Z" fill="black"/>
<path d="M24.668 32.7854C27.6146 32.6653 30.5649 32.6653 33.5115 32.7854" stroke="black" stroke-width="0.07" stroke-linecap="round" stroke-linejoin="round"/>
<path d="M28.7588 24.9404C28.9595 25.1629 28.9812 25.2198 28.9812 25.2198M29.3529 28.7544C29.3393 28.985 29.3502 29.2237 29.3881 29.3458M28.7968 28.7924C28.8836 28.8874 29.0002 29.2156 28.9839 29.3377" stroke="black" stroke-width="0.07" stroke-linecap="round" stroke-linejoin="round"/>
<path d="M30.6279 32.7501C30.5221 32.7826 30.3377 32.8884 30.3404 32.9834C30.3431 33.0756 30.5601 33.0892 30.6252 33.1082C30.5086 33.157 30.1369 33.2275 29.9714 33.1434C29.8521 33.2139 29.0003 33.0186 28.8267 33.0132C28.7182 33.0105 28.5635 32.9183 28.5825 32.7094C28.5852 32.6633 28.6151 32.5575 28.7182 32.5222C28.6585 32.4191 28.9216 32.2455 29.182 32.0882C28.7914 32.1397 28.3004 31.9878 28.1756 31.8386C27.8772 31.7355 27.747 31.8359 27.6222 32.0963C27.6331 32.5439 27.3835 32.7555 27.0851 32.7202C26.8816 32.6958 26.8382 32.7908 26.784 32.8125L27.3916 32.9996C27.7877 33.3821 27.5544 33.6615 27.4676 33.7321C27.3835 33.7999 27.1583 33.7673 27.0254 33.7673C26.8925 33.7673 26.8898 33.808 26.8328 33.8379C26.7378 33.8867 26.6429 33.9138 26.6022 33.8704C26.6266 33.808 26.6646 33.5639 26.8274 33.5259C26.925 33.5178 27.1014 33.4717 27.1068 33.3794C27.1095 33.2899 26.7813 33.3035 26.5235 33.2058C26.3065 33.1244 26.2333 33.0132 26.3119 32.6741C26.3743 32.2971 26.8165 32.2537 27.0308 32.2509C27.001 32.0909 27.02 31.8142 27.2207 31.6325C27.5137 31.3639 27.9667 31.4616 28.3519 31.486C28.5717 31.3639 28.9786 31.1822 29.3774 31.1659C29.7354 31.1523 31.3224 30.7427 32.044 30.8214C31.8812 30.5799 31.9192 30.0103 32.2149 29.8421C32.592 29.6305 32.9989 30.2029 33.0965 30.1025C33.1942 29.9994 32.9745 29.8502 32.6978 29.5627C32.6299 29.4352 32.6435 29.4515 32.6408 29.4108C32.6354 29.3185 32.6571 29.2073 32.6923 29.1829C32.7249 29.1612 32.95 29.2453 33.0043 29.3267C33.0775 29.4379 33.1698 29.4894 33.243 29.4298C33.338 29.3565 33.2159 29.3837 33.1616 29.2236C33.1345 29.1449 33.0721 29.0825 33.0748 29.0039C33.1291 28.9415 33.3407 28.7679 33.5062 28.7136C33.574 28.7787 33.6174 28.8655 33.6716 28.9523C33.8046 29.1531 33.9266 29.0988 34.0162 29.2345C34.0487 29.2887 34.0487 29.4325 34.1138 29.5546C34.2305 29.7797 34.4611 30.0347 34.7649 30.2164C34.811 30.2463 34.8761 30.3032 34.8815 30.3494C34.8897 30.4199 34.8327 30.4904 34.8056 30.523C34.7676 30.5718 34.632 30.5745 34.5017 30.5121C34.3037 30.4172 34.2332 30.3684 34.1165 30.3846C33.8615 30.4226 33.6933 30.8295 33.3325 30.8349C32.9907 30.7861 32.7602 30.2951 32.5594 30.4389C32.3614 30.5827 33.026 31.0031 32.9446 31.1794C33.0016 31.2228 33.0938 31.3693 33.0721 31.4914C33.4112 31.4182 33.6825 31.1876 33.7829 31.0004C33.9565 30.759 34.0948 30.6233 34.1979 30.5799C34.2983 30.5365 34.4285 30.5989 34.4285 30.6776C34.4665 30.6695 34.5234 30.7156 34.594 30.7264C34.6971 30.7753 34.6564 30.8756 34.6265 30.9109C34.6238 30.8946 34.5696 30.8756 34.518 30.8512C34.4638 30.8295 34.3797 30.8973 34.301 30.9624C34.2223 31.0248 34.1654 31.1767 34.0867 31.2744C34.008 31.3693 33.8046 31.5646 33.7178 31.6704C33.7666 31.7437 33.7422 31.8793 33.7503 31.9444C33.7693 31.9444 33.8344 31.9607 33.8724 31.9878C33.9077 32.0149 33.9022 32.0448 33.8859 32.118C33.8615 32.2075 33.5252 32.609 33.4275 32.6063C33.2783 32.6063 33.1833 32.43 33.1969 32.3567C33.0341 32.4327 32.9609 32.2537 32.9555 32.1886C32.8931 32.2727 32.6462 32.4083 32.5567 32.4408C32.4699 32.4734 32.4346 32.4842 32.4075 32.3676C32.3804 32.4463 32.1606 32.5276 32.1091 32.5385C31.8243 32.5955 31.534 32.7202 31.2519 32.7175L30.5601 32.704L30.6279 32.7501Z" fill="white" stroke="black" stroke-width="0.07" stroke-linecap="round" stroke-linejoin="round"/>
<path d="M31.6049 30.1216C31.6076 30.2301 31.4503 30.5095 31.6809 30.7075C31.8219 30.8269 32.0688 30.9273 32.1502 31.0819C32.218 31.2121 32.123 31.3287 32.0932 31.3206C31.9413 31.2881 31.7405 31.5512 31.6673 31.7302C31.5832 31.4779 31.4177 31.5403 31.2061 31.5756C31.2631 31.3125 31.0515 31.147 30.726 31.1036C30.7802 31.0493 30.6907 30.9652 30.612 30.8947C30.5307 30.8242 30.2757 30.8812 30.2512 30.8242C30.2268 30.7672 30.3733 30.6587 30.3001 30.5421C30.2295 30.4227 29.923 30.4932 29.8253 30.4526C29.847 30.3061 29.8633 30.2247 29.7901 30.0945C29.7141 29.9616 29.3696 30.0022 29.2014 29.9643C29.3398 29.8666 29.4022 29.7228 29.3262 29.5655C29.2475 29.4027 28.884 29.5953 28.8867 29.3783C28.8976 29.3024 29.3126 29.24 29.4808 29.2291C29.6355 29.221 30.178 29.3458 30.6826 29.4679C30.8019 29.5682 31.5941 29.8124 31.6049 30.1216Z" fill="white" stroke="black" stroke-width="0.07" stroke-linecap="round" stroke-linejoin="round"/>
<path d="M32.9551 32.1885C33.2074 32.0637 33.4542 31.901 33.7174 31.6704M28.9863 31.4778C29.2142 31.4886 29.7052 31.5619 29.8463 31.7491C29.9873 31.9389 30.0769 32.24 29.0976 32.495C29.3905 32.4977 29.83 32.4245 29.9846 32.4625C30.123 32.4381 30.4377 32.335 30.5706 32.3784C30.519 32.4028 30.3536 32.4489 30.3481 32.5466C30.3427 32.6442 30.4187 32.6605 30.5597 32.7039M31.5038 32.0474C31.8429 32.1125 32.3366 32.0122 32.4071 32.3675" stroke="black" stroke-width="0.07" stroke-linecap="round" stroke-linejoin="round"/>
<path d="M32.6543 29.2778C32.7601 29.3809 33.0151 29.56 33.1534 29.6576C33.3352 29.7851 33.4193 29.6251 33.2782 29.3945" stroke="black" stroke-width="0.07" stroke-linecap="round" stroke-linejoin="round"/>
<path d="M30.251 30.8241C30.5955 30.7536 31.0865 30.683 31.3768 30.6966M29.8251 30.4524C30.3649 30.306 30.9563 30.3684 31.328 30.3738M31.2303 31.5538C31.3307 31.4263 31.5558 31.2445 31.7267 31.0899M30.7285 31.1008C30.8939 31.033 31.2059 30.9163 31.4663 30.8702M30.6823 29.4677C30.9726 29.1829 31.3144 29.2236 31.6399 29.05C31.8353 28.9496 32.0034 28.6702 32.2015 28.4776C32.291 28.4017 32.3561 28.342 32.5813 28.361C32.8173 28.38 32.8471 28.4532 32.5433 28.4885C32.3263 28.5156 32.3181 28.6214 32.2313 28.7869C32.1581 28.9279 32.2286 29.0934 32.272 29.2073C32.2178 29.3213 32.1499 29.484 32.1309 29.6088C32.1201 29.6712 32.1472 29.72 32.2232 29.8123M29.2012 29.9642C29.9635 29.7987 31.0567 30.0835 31.2629 30.0971" stroke="black" stroke-width="0.07" stroke-linecap="round" stroke-linejoin="round"/>
<path d="M33.8501 31.1713C34.0969 31.0384 34.0996 30.7861 34.4279 30.6776M33.1963 32.3568C33.511 32.2076 33.5788 32.0801 33.7497 31.9444M33.9748 29.9886C33.8256 30.0103 33.8012 29.8882 33.6547 29.8638C33.4974 29.834 33.3916 29.9371 33.3916 30.032C33.3916 30.1297 33.4893 30.2138 33.5869 30.2192C33.6846 30.2246 33.766 30.1541 33.9694 30.1758M33.2587 28.8574C33.378 28.8683 33.5001 28.89 33.5896 28.8086M33.9043 29.4162C33.8799 29.4406 33.8012 29.4081 33.7633 29.362C33.728 29.3132 33.709 29.248 33.7388 29.2182C33.766 29.1911 33.8094 29.1965 33.8745 29.2508C33.9396 29.305 33.9287 29.3891 33.9043 29.4162Z" stroke="black" stroke-width="0.07" stroke-linecap="round" stroke-linejoin="round"/>
<path d="M29.2552 26.3021C29.2475 26.3063 29.238 26.3039 29.2288 26.2954C29.2195 26.2869 29.2113 26.273 29.2059 26.2568C29.2005 26.2406 29.1984 26.2235 29.2 26.2091C29.2016 26.1947 29.2068 26.1842 29.2145 26.18C29.2063 26.183 29.1964 26.1792 29.1873 26.1693C29.1781 26.1595 29.1703 26.1445 29.1656 26.1276C29.161 26.1107 29.1598 26.0933 29.1623 26.0792C29.1649 26.0651 29.171 26.0555 29.1793 26.0525C29.1752 26.0542 29.1707 26.0543 29.1661 26.0527C29.1615 26.051 29.1568 26.0478 29.1523 26.043C29.1477 26.0383 29.1435 26.0323 29.1398 26.0252C29.1361 26.0181 29.133 26.0101 29.1307 26.0018C29.1284 25.9934 29.1269 25.9848 29.1263 25.9764C29.1257 25.968 29.1261 25.96 29.1273 25.9529C29.1286 25.9458 29.1307 25.9396 29.1335 25.9349C29.1364 25.9301 29.14 25.9268 29.144 25.9251C29.1399 25.9268 29.1354 25.9269 29.1307 25.9252C29.1261 25.9236 29.1214 25.9202 29.1169 25.9154C29.1125 25.9106 29.1084 25.9044 29.1048 25.8972C29.1013 25.89 29.0983 25.8819 29.0962 25.8733C29.0941 25.8648 29.0928 25.856 29.0924 25.8474C29.092 25.8388 29.0925 25.8307 29.0939 25.8234C29.0968 25.8086 29.1031 25.7984 29.1115 25.7948C29.1029 25.7981 29.093 25.7941 29.0842 25.7839C29.0753 25.7738 29.0681 25.7581 29.0641 25.7405C29.0602 25.7229 29.0598 25.7047 29.0631 25.69C29.0664 25.6752 29.073 25.6651 29.0816 25.6619C29.073 25.6647 29.0634 25.6603 29.055 25.6498C29.0466 25.6392 29.04 25.6234 29.0368 25.6058C29.0335 25.5882 29.0339 25.5702 29.0377 25.5558C29.0415 25.5414 29.0485 25.5317 29.0572 25.529C29.0528 25.5302 29.0482 25.5296 29.0436 25.5273C29.039 25.525 29.0345 25.5211 29.0304 25.5156C29.0263 25.5102 29.0226 25.5034 29.0196 25.4956C29.0166 25.4878 29.0143 25.4792 29.0129 25.4703C29.0115 25.4614 29.0109 25.4524 29.0113 25.4437C29.0117 25.435 29.0129 25.4269 29.015 25.4197C29.0193 25.4053 29.0266 25.3958 29.0355 25.3934C29.0264 25.396 29.0168 25.3912 29.0086 25.3801C29.0004 25.369 28.9944 25.3524 28.9919 25.3341C28.9894 25.3157 28.9905 25.2971 28.9952 25.2823C28.9998 25.2674 29.0075 25.2576 29.0165 25.255C29.0076 25.2572 28.9983 25.2521 28.9907 25.241C28.9831 25.2298 28.9779 25.2134 28.9761 25.1954C28.9743 25.1774 28.9761 25.1593 28.9811 25.1451C28.9862 25.1308 28.994 25.1216 29.003 25.1194C28.9938 25.1211 28.9846 25.1154 28.9774 25.1036C28.9701 25.0918 28.9654 25.0749 28.9644 25.0565C28.9633 25.0382 28.9659 25.0199 28.9716 25.0058C28.9773 24.9916 28.9857 24.9827 28.9948 24.981C28.9856 24.983 28.9765 24.9775 28.9695 24.9659C28.9625 24.9543 28.9581 24.9374 28.9574 24.9191C28.9567 24.9008 28.9597 24.8824 28.9657 24.8681C28.9716 24.8537 28.9802 24.8446 28.9894 24.8427C28.9799 24.8439 28.971 24.8377 28.9646 24.8253C28.9582 24.813 28.9547 24.7955 28.9551 24.7768C28.9555 24.7581 28.9596 24.7397 28.9665 24.7256C28.9734 24.7115 28.9826 24.7029 28.9921 24.7016C28.9828 24.7024 28.9743 24.6958 28.9685 24.6833C28.9627 24.6708 28.96 24.6535 28.9611 24.6352C28.9622 24.6168 28.9669 24.5989 28.9742 24.5855C28.9816 24.572 28.9909 24.564 29.0002 24.5633C28.9908 24.564 28.9825 24.5574 28.9771 24.5449C28.9717 24.5325 28.9697 24.5152 28.9715 24.4968C28.9733 24.4785 28.9787 24.4606 28.9867 24.4471C28.9946 24.4336 29.0044 24.4257 29.0138 24.4249C29.0041 24.4251 28.996 24.4178 28.9911 24.4046C28.9863 24.3915 28.9852 24.3736 28.9881 24.3549C28.991 24.3362 28.9976 24.3182 29.0065 24.3049C29.0154 24.2916 29.0258 24.284 29.0355 24.2839C29.026 24.2832 29.0184 24.2753 29.0145 24.2619C29.0105 24.2485 29.0105 24.2307 29.0145 24.2123C29.0184 24.194 29.026 24.1766 29.0356 24.1641C29.0451 24.1516 29.0558 24.1449 29.0653 24.1455C29.0606 24.1451 29.0564 24.1428 29.053 24.139C29.0496 24.1351 29.0471 24.1297 29.0455 24.1231C29.0423 24.1097 29.0434 24.0921 29.0484 24.0741C29.0509 24.0652 29.0543 24.0564 29.0584 24.0484C29.0625 24.0404 29.0673 24.0331 29.0724 24.0272C29.0827 24.0152 29.0938 24.0089 29.1033 24.0099C29.0985 24.0093 29.0942 24.007 29.0909 24.0031C29.0876 23.9992 29.0852 23.9937 29.0839 23.987C29.0826 23.9803 29.0824 23.9726 29.0834 23.9641C29.0843 23.9557 29.0864 23.9467 29.0894 23.9378C29.0924 23.9289 29.0964 23.9202 29.101 23.9122C29.1057 23.9042 29.1109 23.897 29.1165 23.8911C29.1221 23.8852 29.1279 23.8807 29.1335 23.8778C29.1392 23.8749 29.1446 23.8737 29.1494 23.8743C29.1395 23.8724 29.1329 23.8635 29.1312 23.8494C29.1295 23.8354 29.1328 23.8174 29.1403 23.7994C29.1479 23.7815 29.1591 23.7649 29.1715 23.7535C29.1839 23.7421 29.1964 23.7368 29.2064 23.7386C29.1965 23.7359 29.1906 23.7263 29.19 23.7119C29.1894 23.6975 29.1941 23.6795 29.2031 23.6619C29.2121 23.6442 29.2246 23.6284 29.238 23.6179C29.2513 23.6074 29.2644 23.603 29.2742 23.6057C29.2648 23.6019 29.2599 23.5916 29.2606 23.5769C29.2613 23.5623 29.2675 23.5445 29.2779 23.5276C29.2884 23.5107 29.3021 23.496 29.3162 23.4868C29.3302 23.4775 29.3435 23.4744 29.3529 23.4782C29.3481 23.4762 29.3444 23.4725 29.3422 23.4675C29.34 23.4624 29.3392 23.4561 29.34 23.4488C29.3415 23.4342 29.349 23.4167 29.3609 23.4001C29.3727 23.3836 29.388 23.3694 29.4033 23.3606C29.4186 23.3519 29.4327 23.3493 29.4424 23.3534C29.4333 23.3479 29.4301 23.3365 29.4333 23.3217C29.4365 23.3069 29.446 23.2899 29.4597 23.2744C29.4734 23.259 29.4901 23.2463 29.5062 23.2392C29.5223 23.2322 29.5364 23.2313 29.5455 23.2368C29.5363 23.2307 29.5334 23.2189 29.5375 23.2039C29.5417 23.1889 29.5525 23.172 29.5676 23.1569C29.5827 23.1418 29.6009 23.1297 29.6181 23.1233C29.6353 23.1169 29.6502 23.1168 29.6594 23.1229" fill="white"/>
<path d="M29.2552 26.3021C29.2475 26.3063 29.238 26.3039 29.2288 26.2954C29.2195 26.2869 29.2113 26.273 29.2059 26.2568C29.2005 26.2406 29.1984 26.2235 29.2 26.2091C29.2016 26.1947 29.2068 26.1842 29.2145 26.18C29.2063 26.183 29.1964 26.1792 29.1873 26.1693C29.1781 26.1595 29.1703 26.1445 29.1656 26.1276C29.161 26.1107 29.1598 26.0933 29.1623 26.0792C29.1649 26.0651 29.171 26.0555 29.1793 26.0525C29.1752 26.0542 29.1707 26.0543 29.1661 26.0527C29.1615 26.051 29.1568 26.0478 29.1523 26.043C29.1477 26.0383 29.1435 26.0323 29.1398 26.0252C29.1361 26.0181 29.133 26.0101 29.1307 26.0018C29.1284 25.9934 29.1269 25.9848 29.1263 25.9764C29.1257 25.968 29.1261 25.96 29.1273 25.9529C29.1286 25.9458 29.1307 25.9396 29.1335 25.9349C29.1364 25.9301 29.14 25.9268 29.144 25.9251C29.1399 25.9268 29.1354 25.9269 29.1307 25.9252C29.1261 25.9236 29.1214 25.9202 29.1169 25.9154C29.1125 25.9106 29.1084 25.9044 29.1048 25.8972C29.1013 25.89 29.0983 25.8819 29.0962 25.8733C29.0941 25.8648 29.0928 25.856 29.0924 25.8474C29.092 25.8388 29.0925 25.8307 29.0939 25.8234C29.0968 25.8086 29.1031 25.7984 29.1115 25.7948C29.1029 25.7981 29.093 25.7941 29.0842 25.7839C29.0753 25.7738 29.0681 25.7581 29.0641 25.7405C29.0602 25.7229 29.0598 25.7047 29.0631 25.69C29.0664 25.6752 29.073 25.6651 29.0816 25.6619C29.073 25.6647 29.0634 25.6603 29.055 25.6498C29.0466 25.6392 29.04 25.6234 29.0368 25.6058C29.0335 25.5882 29.0339 25.5702 29.0377 25.5558C29.0415 25.5414 29.0485 25.5317 29.0572 25.529C29.0528 25.5302 29.0482 25.5296 29.0436 25.5273C29.039 25.525 29.0345 25.5211 29.0304 25.5156C29.0263 25.5102 29.0226 25.5034 29.0196 25.4956C29.0166 25.4878 29.0143 25.4792 29.0129 25.4703C29.0115 25.4614 29.0109 25.4524 29.0113 25.4437C29.0117 25.435 29.0129 25.4269 29.015 25.4197C29.0193 25.4053 29.0266 25.3958 29.0355 25.3934C29.0264 25.396 29.0168 25.3912 29.0086 25.3801C29.0004 25.369 28.9944 25.3524 28.9919 25.3341C28.9894 25.3157 28.9905 25.2971 28.9952 25.2823C28.9998 25.2674 29.0075 25.2576 29.0165 25.255C29.0076 25.2572 28.9983 25.2521 28.9907 25.241C28.9831 25.2298 28.9779 25.2134 28.9761 25.1954C28.9743 25.1774 28.9761 25.1593 28.9811 25.1451C28.9862 25.1308 28.994 25.1216 29.003 25.1194C28.9938 25.1211 28.9846 25.1154 28.9774 25.1036C28.9701 25.0918 28.9654 25.0749 28.9644 25.0565C28.9633 25.0382 28.9659 25.0199 28.9716 25.0058C28.9773 24.9916 28.9857 24.9827 28.9948 24.981C28.9856 24.983 28.9765 24.9775 28.9695 24.9659C28.9625 24.9543 28.9581 24.9374 28.9574 24.9191C28.9567 24.9008 28.9597 24.8824 28.9657 24.8681C28.9716 24.8537 28.9802 24.8446 28.9894 24.8427C28.9799 24.8439 28.971 24.8377 28.9646 24.8253C28.9582 24.813 28.9547 24.7955 28.9551 24.7768C28.9555 24.7581 28.9596 24.7397 28.9665 24.7256C28.9734 24.7115 28.9826 24.7029 28.9921 24.7016C28.9828 24.7024 28.9743 24.6958 28.9685 24.6833C28.9627 24.6708 28.96 24.6535 28.9611 24.6352C28.9622 24.6168 28.9669 24.5989 28.9742 24.5855C28.9816 24.572 28.9909 24.564 29.0002 24.5633C28.9908 24.564 28.9825 24.5574 28.9771 24.5449C28.9717 24.5325 28.9697 24.5152 28.9715 24.4968C28.9733 24.4785 28.9787 24.4606 28.9867 24.4471C28.9946 24.4336 29.0044 24.4257 29.0138 24.4249C29.0041 24.4251 28.996 24.4178 28.9911 24.4046C28.9863 24.3915 28.9852 24.3736 28.9881 24.3549C28.991 24.3362 28.9976 24.3182 29.0065 24.3049C29.0154 24.2916 29.0258 24.284 29.0355 24.2839C29.026 24.2832 29.0184 24.2753 29.0145 24.2619C29.0105 24.2485 29.0105 24.2307 29.0145 24.2123C29.0184 24.194 29.026 24.1766 29.0356 24.1641C29.0451 24.1516 29.0558 24.1449 29.0653 24.1455C29.0606 24.1451 29.0564 24.1428 29.053 24.139C29.0496 24.1351 29.0471 24.1297 29.0455 24.1231C29.0423 24.1097 29.0434 24.0921 29.0484 24.0741C29.0509 24.0652 29.0543 24.0564 29.0584 24.0484C29.0625 24.0404 29.0673 24.0331 29.0724 24.0272C29.0827 24.0152 29.0938 24.0089 29.1033 24.0099C29.0985 24.0093 29.0942 24.007 29.0909 24.0031C29.0876 23.9992 29.0852 23.9937 29.0839 23.987C29.0826 23.9803 29.0824 23.9726 29.0834 23.9641C29.0843 23.9557 29.0864 23.9467 29.0894 23.9378C29.0924 23.9289 29.0964 23.9202 29.101 23.9122C29.1057 23.9042 29.1109 23.897 29.1165 23.8911C29.1221 23.8852 29.1279 23.8807 29.1335 23.8778C29.1392 23.8749 29.1446 23.8737 29.1494 23.8743C29.1395 23.8724 29.1329 23.8635 29.1312 23.8494C29.1295 23.8354 29.1328 23.8174 29.1403 23.7994C29.1479 23.7815 29.1591 23.7649 29.1715 23.7535C29.1839 23.7421 29.1964 23.7368 29.2064 23.7386C29.1965 23.7359 29.1906 23.7263 29.19 23.7119C29.1894 23.6975 29.1941 23.6795 29.2031 23.6619C29.2121 23.6442 29.2246 23.6284 29.238 23.6179C29.2513 23.6074 29.2644 23.603 29.2742 23.6057C29.2648 23.6019 29.2599 23.5916 29.2606 23.5769C29.2613 23.5623 29.2675 23.5445 29.2779 23.5276C29.2884 23.5107 29.3021 23.496 29.3162 23.4868C29.3302 23.4775 29.3435 23.4744 29.3529 23.4782C29.3481 23.4762 29.3444 23.4725 29.3422 23.4675C29.34 23.4624 29.3392 23.4561 29.34 23.4488C29.3415 23.4342 29.349 23.4167 29.3609 23.4001C29.3727 23.3836 29.388 23.3694 29.4033 23.3606C29.4186 23.3519 29.4327 23.3493 29.4424 23.3534C29.4333 23.3479 29.4301 23.3365 29.4333 23.3217C29.4365 23.3069 29.446 23.2899 29.4597 23.2744C29.4734 23.259 29.4901 23.2463 29.5062 23.2392C29.5223 23.2322 29.5364 23.2313 29.5455 23.2368C29.5363 23.2307 29.5334 23.2189 29.5375 23.2039C29.5417 23.1889 29.5525 23.172 29.5676 23.1569C29.5827 23.1418 29.6009 23.1297 29.6181 23.1233C29.6353 23.1169 29.6502 23.1168 29.6594 23.1229" stroke="black" stroke-width="0.07" stroke-linecap="round" stroke-linejoin="round"/>
<path d="M29.4097 26.2559L29.2551 26.3021M29.3826 26.1339L29.2144 26.18M29.3582 26.0091L29.1792 26.0525M29.3338 25.8816L29.1439 25.925M29.3148 25.7541L29.1113 25.7948M29.2958 25.6239L29.0815 25.6619M29.2822 25.4937L29.0571 25.5289M29.2714 25.3635L29.0354 25.3933M29.266 25.2333L29.0164 25.255M29.2632 25.1058L29.0028 25.1193M29.266 24.9756L28.9947 24.981M29.2714 24.8481L28.9893 24.8426M29.2822 24.7206L28.992 24.7016M29.3012 24.5958L29.0001 24.5632M29.3229 24.4737L29.0137 24.4249M29.3528 24.3544L29.0354 24.2838M29.388 24.235L29.0652 24.1455M29.4314 24.1211L29.1032 24.0098M29.4803 24.0126L29.1493 23.8742M29.5345 23.9041L29.2063 23.7386M29.5996 23.8037L29.2741 23.6057M29.6702 23.706L29.3528 23.4782M29.7515 23.6111L29.4423 23.3534M29.8383 23.5243L29.5454 23.2367M29.936 23.4429L29.6593 23.1228" stroke="black" stroke-width="0.07" stroke-linecap="round" stroke-linejoin="round"/>
<path d="M31.1326 24.4684C30.9726 24.5037 30.8912 24.5091 30.685 24.5172C30.6443 24.6122 30.6416 24.8699 30.6443 24.9621C31.0811 25.3771 31.5043 25.9115 31.5314 26.4161C31.667 26.5246 31.7538 26.6358 31.8298 26.8366C32.1418 26.6819 32.4564 26.4161 32.7223 26.3483C32.8959 26.3049 33.2025 26.2913 33.3544 26.3808C33.4385 26.4297 34.1818 26.8827 34.3988 27.0156C34.6131 27.1512 34.7623 27.3276 34.8681 27.4822C34.9739 27.6368 34.9847 27.9162 34.9495 27.9867L34.3255 27.8077C34.2821 27.7046 34.3174 27.5853 34.3662 27.4822C34.4123 27.3845 34.4123 27.3791 34.3228 27.3086C34.2631 27.2597 34.179 27.2733 34.1194 27.2869C34.0597 27.2977 33.9647 27.2733 33.9105 27.1865C33.8508 27.097 33.197 26.8094 33.0858 26.7932C32.9773 26.7769 32.8118 26.7742 32.6762 26.9017C32.6111 27.0075 32.3913 27.3493 32.2177 27.5039C32.1716 27.55 32.1635 27.6015 32.1906 27.6558C32.1906 27.6558 32.6057 27.6395 32.8579 27.6748C33.1129 27.7128 33.4303 27.9759 33.5687 28.1414C34.2035 28.7246 34.4449 29.042 34.6511 29.2427C34.7433 29.3322 34.8437 29.4326 34.822 29.5709L34.2035 29.5601C34.2116 29.3376 34.1682 29.1776 34.1302 29.0555C34.057 28.9552 33.9268 29.004 33.8752 29.0067C33.8237 29.0121 33.745 28.9009 33.6826 28.8005C33.6039 28.6242 33.2676 28.3882 33.1184 28.296C32.9692 28.2037 32.9176 28.2444 32.7603 28.2309C32.6653 28.201 32.4483 28.1631 32.291 28.2255C32.1336 28.2878 31.6725 28.4343 31.2466 28.4832C31.0892 28.5537 30.6253 28.6405 30.1343 28.7463C29.7654 28.825 28.938 28.9579 28.7617 28.9606C28.7074 29.3593 28.2897 29.9182 28.1703 29.9805C28.0482 30.1433 28.0537 30.2871 28.1377 30.3603C28.2246 30.4363 28.8566 30.4363 29.014 30.4417C29.174 30.4444 29.4887 30.4553 29.5348 30.4634C29.6433 30.4797 29.779 30.6099 29.9417 30.6994C30.0584 30.7618 30.0828 30.8269 30.156 30.9435C30.2022 31.0195 30.2727 31.0927 30.2971 31.1579L29.5511 31.1416C29.5592 30.9842 29.467 30.8513 29.3612 30.8513C29.2581 30.9246 29.1306 31.0114 28.9896 30.9544C28.4117 30.9191 28.0428 30.9435 27.5057 30.9083C27.3538 30.9001 27.2181 30.6804 27.2751 30.4797C27.3321 30.2762 27.3076 30.1379 27.2697 29.9914C27.2154 30.0511 27.0038 30.26 26.8845 30.3983C26.7 30.6072 26.8058 30.8323 26.8736 30.9463C26.9848 31.0412 27.5979 31.6326 27.6793 31.8116C27.7417 31.9065 27.9858 32.0991 28.23 32.3026C28.3087 32.4843 28.4551 32.5739 28.5718 32.6932L27.625 32.6959C27.6549 32.6363 27.6684 32.5793 27.682 32.4464C27.6874 32.3975 27.625 32.289 27.503 32.3026C27.3782 32.3189 27.2697 32.1751 27.2317 32.0585C27.1937 31.9391 26.7759 31.4047 26.6512 31.2853C26.5264 31.1687 26.1493 30.7835 26.0842 30.7591C26.0164 30.7347 26.0001 30.5963 26.0788 30.5149C26.1602 30.4336 26.3935 30.0619 26.4667 29.8205C26.5155 29.655 26.4558 29.6415 26.4179 29.5899C26.0055 29.2834 25.6447 28.8765 25.4304 28.4886C25.3518 28.5374 24.9014 28.5347 24.6763 28.4235C24.5054 28.3421 24.2775 28.3177 24.1554 28.5103C24.0849 28.6242 24.0876 28.8385 24.2124 28.9335C24.3914 29.0691 24.6057 29.2915 24.8119 29.5465C25.0181 29.8015 24.839 29.9697 24.5786 30.1921C24.6166 30.2898 24.5732 30.2735 24.622 30.4363C24.7088 30.5611 24.7088 30.8757 24.5976 30.9408C24.4891 31.0114 24.348 31.0819 24.2178 31.2338C24.0876 31.3911 24.0306 31.2392 24.0876 30.9788C24.1202 30.8161 23.9872 30.6804 23.8733 30.5556C23.7621 30.4309 23.819 30.0674 23.8923 29.9588C23.9628 29.8558 24.0361 29.6442 23.8787 29.4868C23.7214 29.3295 23.4094 28.9986 23.4583 28.5591C23.5179 27.9786 24.0795 27.7941 24.4131 27.946C24.9557 28.1902 25.2785 28.1359 25.4413 28.1007C25.604 27.8375 25.8075 27.588 26.1412 27.3981C26.4531 27.219 27.0689 26.9722 27.6739 26.8773L29.1767 26.3401C29.3802 26.2805 29.3721 26.1014 29.3531 25.9983C29.1577 24.9838 29.2174 23.9123 30.0421 23.3671C30.1289 23.2884 30.1018 23.0659 30.232 22.8923C30.2564 22.9683 30.4246 23.1745 30.4626 23.3074C30.8179 23.424 31.4609 23.6492 31.7132 23.7767C31.8352 23.8363 31.9627 23.8445 32.0387 23.8743C32.1065 23.9014 32.1689 23.9693 32.2123 24.0534C32.2801 24.1754 32.2042 24.2948 32.1391 24.3301C32.0902 24.3545 31.7918 24.2541 31.7186 24.3219C31.7321 24.3897 31.8081 24.463 31.9682 24.5281C32.0414 24.5606 31.9302 24.6963 31.8434 24.7044C31.7945 24.7098 31.7267 24.6881 31.6833 24.6556C31.507 24.604 31.3171 24.5308 31.1326 24.4684Z" fill="white" stroke="black" stroke-width="0.07" stroke-linecap="round" stroke-linejoin="round"/>
<path d="M30.1016 23.8064C30.0935 24.4303 30.3051 24.745 30.6442 24.962M31.8297 26.8365C31.8893 27.0996 31.8812 27.36 31.8324 27.5879M27.2695 29.9913C27.7415 29.7689 28.1512 29.2345 28.1376 28.9144M28.1376 28.9144C28.1295 28.7272 27.983 28.4396 27.5625 28.4261M28.1376 28.9144C28.2678 28.9659 28.5554 28.9333 28.7615 28.9605M31.0918 27.4414C31.458 27.4577 31.949 27.6665 32.1905 27.6557M30.9209 28.1711C31.2301 28.2389 31.2356 28.3881 31.8785 28.3555M30.7663 26.1013C31.1271 26.1122 31.3332 26.2885 31.5313 26.416" stroke="black" stroke-width="0.07" stroke-linecap="round" stroke-linejoin="round"/>
<path d="M28.0703 29.2073C28.3226 29.2046 28.5125 29.1721 28.6156 28.9496M30.1022 23.8064C30.0886 24.3164 30.2948 24.4439 30.6854 24.5171" stroke="black" stroke-width="0.07" stroke-linecap="round" stroke-linejoin="round"/>
<path d="M32.0685 23.8932C32.0441 24.0234 32.0414 24.1265 32.253 24.1075M31.1272 23.5378C30.9644 23.9556 31.7864 24.0098 31.8189 24.273M27.21 26.9856C27.6114 27.162 27.5653 27.9595 27.5626 28.4261" stroke="black" stroke-width="0.07" stroke-linecap="round" stroke-linejoin="round"/>
<path d="M31.6266 24.2732C31.4963 24.5282 31.2115 24.9242 30.9185 25.1358C30.4845 25.445 30.0152 25.6756 29.4265 25.814C29.3478 25.833 29.2475 25.8574 29.1335 25.833C29.0223 25.8113 28.9002 25.738 28.8216 25.578C28.7782 25.4939 28.7999 25.0924 28.9491 25.0354C29.1064 24.9785 29.2502 24.9595 29.3994 24.9676C29.4808 24.973 29.5947 24.9975 29.5866 25.1087C29.5811 25.2036 29.4916 25.2606 29.3967 25.2335C29.2827 25.2009 29.1091 25.1358 29.0115 25.2009C28.9436 25.2443 28.903 25.4261 28.9491 25.5074C29.0196 25.6376 29.0901 25.6783 29.1634 25.6919C29.2366 25.7082 29.3153 25.6919 29.394 25.6729C29.9582 25.54 30.4058 25.3203 30.8317 25.0164C31.1111 24.8157 31.4014 24.398 31.4991 24.2054L31.6266 24.2732ZM29.4157 25.068C29.2475 25.0327 28.9762 25.0734 28.9518 25.1439C29.0766 25.0653 29.2312 25.0897 29.4075 25.1439C29.4618 25.1602 29.4943 25.0816 29.4157 25.068ZM30.5143 23.6927L30.5794 23.5679C30.593 23.5408 30.5306 23.2424 30.8399 23.4024C31.1491 23.5625 30.8995 23.7008 30.886 23.7306C30.8724 23.7578 30.8209 23.8527 30.8209 23.8527" fill="white"/>
<path d="M30.5143 23.6927L30.5794 23.5679C30.593 23.5408 30.5306 23.2424 30.8399 23.4024C31.1491 23.5625 30.8995 23.7008 30.886 23.7306C30.8724 23.7578 30.8209 23.8527 30.8209 23.8527M31.6266 24.2732C31.4963 24.5282 31.2115 24.9242 30.9185 25.1358C30.4845 25.445 30.0152 25.6756 29.4265 25.814C29.3478 25.833 29.2475 25.8574 29.1335 25.833C29.0223 25.8113 28.9002 25.738 28.8216 25.578C28.7782 25.4939 28.7999 25.0924 28.9491 25.0354C29.1064 24.9785 29.2502 24.9595 29.3994 24.9676C29.4808 24.973 29.5947 24.9975 29.5866 25.1087C29.5811 25.2036 29.4916 25.2606 29.3967 25.2335C29.2827 25.2009 29.1091 25.1358 29.0115 25.2009C28.9436 25.2443 28.903 25.4261 28.9491 25.5074C29.0196 25.6376 29.0901 25.6783 29.1634 25.6919C29.2366 25.7082 29.3153 25.6919 29.394 25.6729C29.9582 25.54 30.4058 25.3203 30.8317 25.0164C31.1111 24.8157 31.4014 24.398 31.4991 24.2054L31.6266 24.2732ZM29.4157 25.068C29.2475 25.0327 28.9762 25.0734 28.9518 25.1439C29.0766 25.0653 29.2312 25.0897 29.4075 25.1439C29.4618 25.1602 29.4943 25.0815 29.4157 25.068Z" stroke="black" stroke-width="0.07" stroke-linecap="round" stroke-linejoin="round"/>
<path d="M29.9932 23.4187L31.7402 24.3329" stroke="black" stroke-width="0.07" stroke-linecap="round" stroke-linejoin="round"/>
<path d="M27.7764 23.4864C27.4672 23.5162 26.8975 23.4538 26.5882 23.3996C26.439 23.3724 26.0186 23.9828 25.7961 24.0262C25.5737 24.0696 25.3621 23.5786 25.0338 23.6952C24.8819 23.8119 25.042 24.4141 24.9497 24.4901C24.8548 24.566 24.5645 24.1862 24.3855 24.3137C24.2064 24.4412 24.5374 25.2415 24.4506 25.3337C24.3692 25.4205 23.9623 24.9838 23.8402 25.0651C23.7181 25.1465 23.9731 26.3916 23.8538 26.4567C23.7317 26.5218 23.1675 26.1285 23.0942 26.2967C23.021 26.4649 23.8891 26.8609 24.1332 26.8718L24.3773 26.7796C24.4587 26.823 25.1532 26.8799 25.221 26.8853L25.6198 26.4812C26.2302 25.6863 26.9002 24.9404 27.7764 24.9865V23.4864Z" fill="white" stroke="black" stroke-width="0.07" stroke-linecap="round" stroke-linejoin="round"/>
<path d="M25.0935 23.6816L26.2573 23.6382M24.3963 24.3055L24.966 24.1102M23.8565 25.0488L24.3746 24.8209M23.0996 26.283L23.8239 25.6266M24.3827 26.7632C24.6893 26.2234 25.3159 25.6266 25.8286 25.3119M23.8592 26.4539C24.2959 25.9277 25.5465 25.0461 25.9453 24.9972M24.947 24.49C25.4651 24.2512 26.2057 24.2241 26.7944 24.1753M25.7825 24.0288C25.8558 24.0207 26.7455 23.9095 27.1253 23.9284M24.4424 25.3445C25.1342 24.9403 25.8096 24.612 26.5719 24.3733" stroke="black" stroke-width="0.07" stroke-linecap="round" stroke-linejoin="round"/>
<path d="M30.2698 33.7863C30.3241 33.8025 30.3811 33.9192 30.3811 33.9192C30.3811 33.9192 30.2644 33.9761 30.2156 33.9653L24.7901 32.3431C24.63 32.2943 24.6978 32.0474 24.866 32.099L30.2698 33.7863ZM25.0858 26.2043C25.0532 26.0931 24.9556 25.9927 24.8823 25.9792C24.8362 25.9738 24.7168 26.0958 24.7223 26.1338C24.7358 26.2125 24.8932 26.3128 24.9556 26.3345L25.0858 26.2043ZM25.5985 26.4051L25.1427 26.8608C25.0858 26.9205 25.1916 27.0154 25.2458 26.9612L25.7016 26.5054C25.7585 26.4485 25.65 26.3535 25.5985 26.4051ZM25.3733 26.8337L26.7867 28.2985L27.0796 28.3419L27.0362 28.0489L25.5714 26.6356L25.3733 26.8337Z" fill="white" stroke="black" stroke-width="0.07" stroke-linecap="round" stroke-linejoin="round"/>
<path d="M26.8734 28.1359L25.4736 26.7334" stroke="black" stroke-width="0.07" stroke-linecap="round" stroke-linejoin="round"/>
<path d="M28.7484 24.0668C28.7375 23.9909 28.7782 23.9448 28.8352 23.9041C28.9328 23.8363 28.9057 23.8688 28.96 23.8959C29.0115 23.9231 29.0658 23.9665 29.0956 23.9909C29.1336 24.018 29.1553 24.0044 29.1689 23.9827C29.1933 23.9448 29.2014 23.8688 29.2258 23.8444C29.2448 23.8471 29.2747 23.8335 29.2719 23.7983C29.3018 23.7929 29.3099 23.7739 29.3072 23.744C29.3018 23.7223 29.3208 23.6626 29.356 23.6735C29.394 23.6843 29.4727 23.7196 29.4754 23.6681C29.4808 23.6301 29.5052 23.489 29.5188 23.3805C29.63 23.3995 29.592 23.272 29.6327 23.2557C29.7521 23.2991 29.7955 23.1093 29.7277 23.0414C29.7385 22.8895 29.8498 22.8624 30.0342 22.8651C30.0207 22.762 29.8796 22.7322 29.7819 22.602C29.6924 22.4691 29.3967 22.2982 29.0793 22.3036C28.7619 22.3117 28.5015 22.6074 28.3849 22.7376C28.2682 22.8678 28.0268 22.9248 27.9535 22.9112C27.883 22.895 27.8505 22.8434 27.7691 22.8353C27.7691 22.8353 27.5629 22.8407 27.4544 22.8434C27.3459 22.8434 27.3052 22.9194 27.1831 22.9031C27.1099 22.8977 26.8115 22.9004 26.7247 22.9302C26.6379 22.9601 26.722 23.1554 26.8142 23.1635C26.8576 23.1689 27.0855 23.1825 27.1696 23.2313C27.2645 23.2829 27.5439 23.2964 27.6687 23.2503C27.902 23.1662 28.0566 23.3236 28.3143 23.3859L28.3957 23.4158C28.3903 23.5514 28.3984 23.622 28.3306 23.622C28.2682 23.622 28.1651 23.6165 28.1082 23.6111C28.0756 23.6111 27.9427 23.5216 27.8667 23.5053C27.7501 23.4809 27.6796 23.5297 27.6334 23.5487C27.3323 23.6735 26.2174 24.5415 26.1089 24.7396C25.9868 24.9593 25.805 25.0895 25.6314 25.4177C25.5338 25.5995 25.3493 25.8219 25.2381 26.1285C25.0509 26.2126 24.8583 26.3889 24.8285 26.4296C24.7959 26.473 24.8583 26.5435 24.8936 26.5408C24.88 26.5679 24.9451 26.6412 24.9966 26.6357C24.9668 26.6683 25.0482 26.728 25.0862 26.7171C25.0645 26.7497 25.1214 26.8392 25.1675 26.8365L25.6179 26.3862C25.6179 26.1936 25.7318 25.9793 25.7915 25.8735C26.0329 25.5805 26.3476 25.0949 26.4344 24.9647C26.4805 24.8915 27.0095 24.6826 27.1479 24.547C27.1126 24.9267 27.1234 25.1872 27.1723 25.4123C27.2482 25.7812 27.3703 26.0172 27.4435 26.3292C27.5195 26.6384 27.4435 26.8283 27.4571 26.9748C27.4625 27.0887 27.5032 27.0996 27.6117 27.162C27.723 27.2298 28.1516 27.1728 28.2872 27.2135C28.5395 27.2922 28.7701 27.2976 28.8623 27.3139C29.177 27.2705 29.413 27.3573 29.5134 27.436C29.6165 27.5174 29.8172 27.9839 29.8932 28.1575C29.9664 28.3284 30.3733 28.5672 30.4574 28.6648C30.5442 28.7598 30.6066 29.0364 30.5903 29.1585C30.5768 29.2779 30.5931 29.3321 30.7178 29.3186C30.8155 29.305 31.1763 29.3728 31.2441 29.4081C31.3092 29.4406 31.4666 29.5654 31.5208 29.5708C31.5751 29.5763 31.8328 29.6034 31.9521 29.5925C32.0715 29.5817 32.0661 29.3864 32.0145 29.3782C31.9657 29.3728 31.7595 29.3294 31.6375 29.2996C31.5181 29.2725 31.2495 29.0337 31.1437 28.9035C31.0352 28.7706 30.981 28.5861 30.9132 28.4532C30.8426 28.3203 30.4384 27.7534 30.3326 27.6259C30.3001 27.5635 30.0858 27.0508 30.0369 26.9233C29.9908 26.7958 29.885 26.7822 29.8036 26.7578C29.4673 26.6601 29.337 26.6167 28.9925 26.5516C28.743 26.5055 28.686 26.492 28.6643 26.3075C28.648 26.1692 28.5422 25.906 28.5965 25.7243C28.6155 25.6646 28.6507 25.472 28.667 25.3852C28.686 25.2984 28.7402 25.1546 28.7538 25.0678C28.7701 24.9512 28.7918 24.5958 28.7918 24.5036C28.7918 24.3354 28.7674 24.2052 28.7484 24.0668ZM29.0088 25.5941C28.9763 25.6022 28.8189 25.6239 28.7375 25.5914C28.7104 25.5778 28.7158 25.5235 28.743 25.5235C28.7267 25.5127 28.6996 25.4557 28.7375 25.4476C28.7158 25.4422 28.6887 25.3608 28.7267 25.3581C28.6887 25.3336 28.6887 25.2875 28.7267 25.2713C28.7538 25.2496 28.922 25.2441 28.9925 25.255C29.0359 25.3418 29.0251 25.5018 29.0088 25.5941Z" fill="white" stroke="black" stroke-width="0.07" stroke-linecap="round" stroke-linejoin="round"/>
<path d="M28.398 23.4321C28.4767 23.481 28.4659 23.4267 28.6069 23.386C28.7453 23.3453 28.8375 23.4674 28.7941 23.5813C28.7534 23.6953 28.748 23.7902 28.8972 23.7983C29.0464 23.8065 29.0817 23.679 29.1142 23.6166C29.1495 23.5569 29.2146 23.5596 29.2526 23.4864C29.2824 23.3345 29.437 23.3697 29.532 23.386M29.7246 23.0469C29.6486 23.0876 29.4859 22.9574 29.4587 22.8326C29.4126 22.6861 29.3068 22.5803 29.1196 22.5776C28.9325 22.5776 28.5771 22.6834 28.5011 22.9032C28.4767 23.0686 28.4631 23.1771 28.4604 23.207C28.3926 23.2314 28.3275 23.2097 28.3221 23.2395C28.3275 23.3046 28.3411 23.3616 28.3031 23.3887M27.1475 24.547L27.5245 24.3843" stroke="black" stroke-width="0.07" stroke-linecap="round" stroke-linejoin="round"/>
<path d="M27.5252 24.3843C27.631 24.623 27.7042 24.8671 27.8507 24.9512M28.0569 25.0435C28.2142 25.1221 28.32 25.095 28.5072 25.0652M27.5659 26.8175C27.9565 26.8365 28.1166 27.0129 28.4394 27.1132C28.7595 27.2109 29.2152 27.1566 29.6303 27.3519M27.4492 25.567C27.5469 25.6402 27.6879 25.6891 27.8046 25.6891M27.9755 25.6972C28.1817 25.7298 28.3716 25.8111 28.4014 25.9305M27.8914 26.1475C28.0786 26.3293 28.4204 26.4676 28.6645 26.4812" stroke="black" stroke-width="0.07" stroke-linecap="round" stroke-linejoin="round"/>
<path d="M28.1782 23.6139C28.3545 24.1835 28.3789 24.4168 28.7913 24.5036M28.7913 24.5036C28.3979 24.4575 28.2053 24.151 28.029 23.5786M28.7913 24.5036C28.3111 24.4792 28.0425 24.0777 27.8662 23.5054" stroke="black" stroke-width="0.07" stroke-linecap="round" stroke-linejoin="round"/>
<path d="M30.9244 29.0689C30.8376 29.0038 30.8159 28.9631 30.7535 28.8383L30.607 28.5481L30.5148 28.5969C30.4741 28.6159 30.4307 28.5426 30.4768 28.5209L30.5555 28.4829L30.4497 28.2714C30.39 28.2605 30.4469 28.2252 30.4876 28.2063C30.531 28.1846 30.5934 28.1574 30.5663 28.2117L30.6721 28.4233L30.7481 28.3853C30.7942 28.3609 30.8294 28.4395 30.786 28.4585L30.6938 28.5046L30.8403 28.7949C30.9027 28.9197 30.9244 28.9604 30.9244 29.0689Z" stroke="black" stroke-width="0.07" stroke-linecap="round" stroke-linejoin="round"/>
<path d="M30.9135 28.4533L30.4687 28.6784M30.059 28.3502L30.645 28.0545M29.9668 28.258L30.5772 27.9487" stroke="black" stroke-width="0.07" stroke-linecap="round" stroke-linejoin="round"/>
<path d="M25.0862 26.7172L25.2842 26.5381M24.9966 26.6358L25.1865 26.4649M24.8936 26.5409L25.0997 26.3672M28.7429 25.5236L28.9356 25.5155M28.7267 25.3581L28.9084 25.3527M28.7375 25.4476L28.9166 25.4314M29.1499 23.7495C29.1906 23.7739 29.2285 23.7929 29.2665 23.7983" stroke="black" stroke-width="0.07" stroke-linecap="round" stroke-linejoin="round"/>
</g>
<defs>
<clipPath id="clip0_1284_64330">
<rect width="250" height="150" fill="white"/>
</clipPath>
</defs>
</svg>
