<svg width="250" height="150" viewBox="0 0 250 150" fill="none" xmlns="http://www.w3.org/2000/svg">
<g clip-path="url(#clip0_1284_64607)">
<path d="M0 0H250V150H0V0Z" fill="#CD2A3E"/>
<path d="M0 22.5H250V127.5H0V22.5Z" fill="#006233"/>
<path d="M172.308 54C172.308 66.432 167.369 78.3549 158.579 87.1456C149.789 95.9364 137.866 100.875 125.435 100.875C113.004 100.875 101.081 95.9364 92.2911 87.1456C83.5008 78.3549 78.5624 66.432 78.5624 54C77.5208 57.9999 76.9957 62.1167 77 66.25C77 79.0964 82.103 91.4167 91.1863 100.5C100.27 109.584 112.589 114.687 125.435 114.687C138.281 114.687 150.6 109.584 159.684 100.5C168.767 91.4167 173.87 79.0964 173.87 66.25C173.876 62.1166 173.351 57.9996 172.308 54Z" fill="#FFC400"/>
<path d="M125.435 35L121.216 47.9688H107.623L118.654 55.9687L114.435 68.9062L125.466 60.9062L136.497 68.9062L132.278 55.9687L143.309 47.9688H129.684L125.435 35Z" fill="#FFC400"/>
</g>
<defs>
<clipPath id="clip0_1284_64607">
<rect width="250" height="150" fill="white"/>
</clipPath>
</defs>
</svg>
