<svg width="250" height="150" viewBox="0 0 250 150" fill="none" xmlns="http://www.w3.org/2000/svg">
<g clip-path="url(#clip0_1284_64739)">
<path d="M0 0H250V150H0V0Z" fill="#CC092F"/>
<path d="M0 0H166.667V150H0V0Z" fill="#FFD200"/>
<path d="M0 0H83.3333V150H0V0Z" fill="#0046AE"/>
<path d="M116.287 30.54C115.834 30.5195 115.386 30.642 115.007 30.89C115.456 31.0226 115.762 31.4371 115.758 31.9053V33.1425H114.521C114.055 33.1473 113.642 32.8451 113.505 32.4001C113.039 33.1896 113.039 34.1703 113.505 34.9598C113.638 34.5106 114.052 34.204 114.521 34.2088H115.758V40.1556C115.759 40.3741 115.693 40.5877 115.568 40.7667C115.442 40.9456 115.264 41.0809 115.058 41.1538C115.648 41.2341 116.156 42.0261 116.295 42.4593C116.435 42.0271 116.943 41.2341 117.533 41.1538C117.325 41.0828 117.144 40.9482 117.017 40.7691C116.89 40.5899 116.822 40.3753 116.824 40.1556V34.2085H118.061C118.527 34.2036 118.94 34.5058 119.077 34.9511C119.543 34.1615 119.543 33.181 119.077 32.3913C118.944 32.8403 118.53 33.1468 118.061 33.142H116.824V31.905C116.819 31.4393 117.121 31.026 117.567 30.8895C117.187 30.6416 116.739 30.5193 116.287 30.5398V30.54Z" fill="black"/>
<path d="M116.287 30.7968C116.037 30.7978 115.79 30.8381 115.553 30.9161C115.696 31.0382 115.812 31.1898 115.891 31.3607C115.971 31.5315 116.013 31.7175 116.014 31.906V33.1431C116.013 33.1605 116.01 33.1776 116.005 33.1945V33.3906H115.809C115.792 33.3951 115.775 33.3981 115.758 33.3993H114.52C114.143 33.3968 113.786 33.232 113.539 32.9471C113.457 33.1831 113.413 33.431 113.411 33.681C113.412 33.9303 113.452 34.1778 113.53 34.4146C113.777 34.1243 114.139 33.956 114.52 33.9541H116.013C116.012 33.9798 116.005 34.0046 116.005 34.0306V34.1586C116.009 34.1754 116.012 34.1925 116.013 34.2098V40.1566C116.001 40.5186 115.833 40.8576 115.553 41.0866C115.737 41.2015 115.901 41.3456 116.039 41.5135C116.139 41.652 116.225 41.8006 116.295 41.957C116.365 41.8007 116.451 41.6521 116.551 41.5135C116.687 41.3496 116.848 41.2085 117.029 41.0953C116.889 40.9809 116.776 40.8379 116.696 40.676C116.617 40.5141 116.573 40.3371 116.568 40.1568V33.9621H116.773C116.789 33.9577 116.807 33.9549 116.824 33.9538H118.061C118.247 33.9551 118.431 33.996 118.6 34.074C118.769 34.1519 118.92 34.265 119.042 34.4058C119.125 34.1698 119.168 33.922 119.17 33.6721C119.169 33.4228 119.129 33.1753 119.051 32.9385C118.804 33.2288 118.442 33.3971 118.061 33.399H116.824C116.807 33.3978 116.789 33.395 116.773 33.3903H116.576V33.1941C116.572 33.1774 116.569 33.1602 116.568 33.1428V31.9058C116.569 31.7195 116.61 31.5356 116.688 31.3664C116.766 31.1972 116.879 31.0466 117.02 30.9246C116.784 30.8423 116.536 30.7991 116.286 30.7966" fill="#FFD200"/>
<path d="M131.773 52.3312C131.05 51.8409 130.432 51.2114 129.956 50.4795C128.894 48.7757 128.446 46.684 128.446 44.5584C128.446 43.6599 129.452 42.6484 129.452 41.9217C129.459 41.3342 129.425 40.747 129.35 40.1644C129.707 40.213 130.331 40.8469 130.331 40.8469C130.331 40.8469 130.31 39.0239 129.734 38.7054C129.734 38.7054 129.967 38.4657 130.809 38.4409C130.572 37.8415 129.401 37.1099 129.401 37.1099C129.477 36.9925 129.583 36.898 129.708 36.8369C130.032 36.6781 130.377 36.566 130.732 36.504C130.342 36.4197 129.958 36.3142 129.58 36.1882C128.49 35.8239 127.424 35.3909 126.389 34.8915C125.065 34.2277 123.604 33.8857 122.123 33.8932C121.527 33.8934 120.65 33.9095 120.135 34.2519C119.664 34.5644 119.703 34.9709 119.538 35.1135C119.149 35.4495 118.484 35.4377 118.164 35.4377C116.091 35.4377 116.014 37.6562 116.014 37.6562C116.014 37.6562 116.544 36.854 117.481 36.854C119.04 36.854 120.22 37.703 120.22 38.0229C120.22 38.1524 120.059 38.1764 120.05 38.1764C119.032 38.1764 117.495 37.5904 116.679 37.562V37.963C118.501 38.5969 120.348 39.4942 120.348 43.4492C120.348 45.9397 120.05 48.4809 118.804 50.4797C118.323 51.2115 117.703 51.8408 116.978 52.3314L124.376 53.6647L131.773 52.3314V52.3312Z" fill="black"/>
<path d="M124.375 50.6647L116.977 52.3314C116.641 52.2297 115.059 51.7381 113.948 51.1199C111.994 50.0312 110.981 48.9481 108.658 48.8417V47.0754C108.658 46.1317 109 45.2816 109 44.3792C108.021 44.1167 105.303 40.7942 102.797 39.3196C99.1083 41.7086 96.2524 45.6304 96.2524 47.4339V99.6856C96.2524 100.464 95.7832 101.563 95.7832 101.563C97.1297 100.993 99.5979 97.6161 100.118 96.3324V96.9469C102.151 96.0196 103.64 93.5829 104.307 92.3224L104.35 92.9621C106.167 91.3696 108.479 81.9557 108.479 81.9557L112.333 85.7432C112.333 85.7432 110.939 88.5726 110.396 89.0792C110.654 89.1089 110.914 89.1233 111.173 89.1219C110.919 89.4866 108.982 92.2761 108.374 93.3282C107.806 94.3126 107.405 93.8744 106.531 93.8744C105.807 93.8744 104.165 95.0286 103.895 95.4956C103.603 95.9733 103.433 96.5154 103.4 97.0741C103.4 97.6141 103.972 98.3539 103.972 98.3539C103.993 98.223 104.052 98.1013 104.142 98.0041L105.866 100.12C106.038 100.31 106.807 100.434 107.078 100.188C107.755 99.5723 108.411 99.1414 109.014 98.2516C109.325 97.7931 109.349 97.2676 109.705 96.7752L113.818 91.2551L113.92 91.8268C114.536 90.5839 117.495 88.2091 117.495 88.2091L120.592 89.6341C120.592 89.6341 114.81 102.923 109.679 104.967C109.679 104.967 111.911 105.915 114.653 107.339L115.882 107.996C116.227 107.58 116.59 107.118 116.948 106.639C118.588 104.446 120.191 101.904 120.191 101.904C120.303 102.564 119.437 104.603 117.972 107.117L117.051 108.653L118.16 109.301C120.876 110.935 123.427 112.814 124.371 114.54L125.038 112.872L124.371 111.204V52.8776L124.705 52.0442L124.375 50.6647Z" fill="black"/>
<path d="M124.373 111.204C123.415 110.164 121.411 108.894 119.16 107.723C121.882 102.837 123.231 95.1134 122.598 93.5759C122.598 93.5759 121.481 97.5814 120.115 99.864C118.851 101.978 117.294 104.356 115.789 106.118C114.659 105.63 113.502 105.202 112.325 104.838C116.835 101.365 121.446 89.8814 121.446 89.8814L116.678 87.6714C116.678 87.6714 114.894 89.7512 114.314 90.1374C114.314 90.1374 114.067 89.103 113.922 88.738C113.922 88.738 113.238 89.255 112.864 89.2674L112.668 88.1067C112.197 88.4205 111.414 88.3542 111.414 88.3542C112.101 88.0285 112.915 86.0334 112.915 86.0334L108.361 79.9762C108.361 79.9762 106.762 87.6622 104.94 89.2422V56.1455L106.382 57.4849L108.566 55.4457V53.8929L106.629 55.7015V51.0174C106.853 50.6815 107.064 50.3371 107.261 49.985C107.574 50.5315 108.587 52.2065 109.778 53.2359C109.973 52.4395 111.262 51.6828 111.262 51.6828C111.262 51.6828 111.724 52.9342 112.431 53.2442C112.68 52.8062 114.163 51.8365 114.163 51.8365C114.163 51.8365 112.894 52.0294 112.38 52.5107C111.939 52.4119 111.825 50.6677 111.825 50.6677C111.825 50.6677 109.957 51.5775 109.633 52.229C109.276 52.1327 108.722 50.731 108.506 50.1557C108.968 50.1042 109.432 50.0786 109.897 50.079C110.43 50.079 111.111 50.3314 111.825 50.6677C112.61 51.037 113.43 51.5047 114.163 51.8367C115.102 52.2617 116.522 52.348 116.936 52.3657C116.439 52.7108 115.917 53.0188 115.375 53.2872C115.375 53.2872 117.61 53.2665 119.18 52.485C119.751 52.1407 120.298 51.7587 120.819 51.3417C120.579 52.0389 120.215 52.6866 119.743 53.2529C122.049 53.0577 123.198 51.7409 123.523 51.299C123.73 51.8633 124.018 52.3948 124.376 52.8774H125.21V109.544L124.373 111.204ZM107.38 44.5497L107.423 45.6077V48.7222C106.586 48.4344 105.535 47.06 105.025 46.3332V45.9065C105.031 45.7437 105.07 45.5839 105.141 45.437C105.211 45.2902 105.311 45.1595 105.435 45.0534L104.931 44.8744C104.684 45.1356 104.541 45.4787 104.53 45.8384V46.0859L103.029 47.6985L101.553 45.463V44.917C101.553 44.549 101.836 44.1387 102.073 43.859L101.578 43.6799C101.328 44.0035 101.066 44.4397 101.066 44.8487V45.2922L99.3684 47.0415L98.5068 45.19C99.5409 43.7575 101.218 42.1535 102.798 41.0027C102.798 41.0027 106.226 44.1495 107.38 44.5497ZM98.6933 47.5702V50.1387L97.4987 51.2477V47.4339C97.5328 46.9783 97.673 46.537 97.9081 46.1454L98.6933 47.5702ZM102.413 48.5599V50.1469L101.04 51.4354V46.4697L102.413 48.5599ZM100.553 51.4269L99.1793 50.147V48.2872L100.553 46.8452V51.4269ZM106.824 49.4985C106.505 49.9494 105.67 51.052 104.768 51.5378V47.1778C104.975 47.522 105.924 49.057 106.824 49.4985ZM104.282 47.3995V51.4267L102.908 50.1469V48.722L104.282 47.3995ZM98.6931 51.6912V55.71L97.4986 54.5922V52.8089L98.6931 51.6912ZM100.552 52.9797V54.4215L99.1781 55.7012V51.6997L100.552 52.9797ZM102.412 51.7V55.7017L101.038 54.4132V52.9883L102.412 51.7ZM104.281 52.9883V54.4132L102.907 55.7015V51.7L104.281 52.9883ZM106.141 55.71L104.767 54.4215V53.0822C105.24 52.793 105.717 52.2615 106.14 51.7L106.141 55.71ZM102.66 57.4847L104.11 56.1365V89.2415L104.281 91.9547L101.209 95.0604V56.1277L102.66 57.4847ZM100.381 93.8234C100.381 94.8875 98.4378 97.3689 97.4971 97.9359V56.1459L98.9304 57.4852L100.381 56.1369V93.8234Z" fill="#B07E5B"/>
<path d="M112.428 90.2315L113.486 89.5062L113.648 90.334L109.305 96.2381C108.985 96.6688 108.716 97.7653 108.716 97.7653C108.716 97.7653 108.247 97.5435 108.247 97.1426C108.247 96.749 108.298 96.2808 108.298 96.2808C108.173 96.4078 108.025 96.5086 107.861 96.5775C107.696 96.6463 107.52 96.6818 107.342 96.6818C107.342 96.198 108.278 95.6732 108.315 94.9842C107.601 95.5132 106.982 95.2417 106.156 95.4962C105.258 95.773 105.007 96.1506 104.732 96.1361C104.569 96.1273 104.422 95.8473 104.484 95.6753C104.592 95.3775 105.703 94.5532 106.48 94.4042C106.667 94.3685 108.131 94.7228 108.426 94.2676L111.805 89.0547C111.921 89.0327 112.033 88.9923 112.137 88.9348C112.137 88.9348 112.126 89.8933 112.428 90.2315H112.428ZM105.625 96.0755C105.684 96.1393 105.68 96.2383 105.616 96.2971L105.139 96.7151C105.07 96.7686 104.971 96.7572 104.917 96.6895C104.858 96.6258 104.862 96.5267 104.926 96.4677L105.403 96.0497C105.418 96.0365 105.436 96.0266 105.455 96.0208C105.474 96.0149 105.494 96.0132 105.514 96.0157C105.557 96.0213 105.597 96.0427 105.625 96.0755ZM106.35 96.5788C106.492 96.728 106.485 96.9635 106.336 97.105L106.333 97.108L105.173 98.1231C104.997 98.254 104.748 98.2172 104.617 98.041C104.501 97.884 104.516 97.6657 104.652 97.5262L105.813 96.5193C105.87 96.4705 105.942 96.4407 106.017 96.4338C106.145 96.4268 106.268 96.4805 106.35 96.5788ZM107.015 97.3638C107.049 97.3992 107.075 97.4409 107.093 97.4865C107.11 97.532 107.119 97.5806 107.117 97.6294C107.116 97.6783 107.105 97.7264 107.085 97.771C107.066 97.8156 107.037 97.8559 107.002 97.8895L106.998 97.8928L105.829 98.9082C105.668 99.0378 105.431 99.0118 105.301 98.85L105.3 98.8485C105.232 98.7748 105.195 98.6769 105.198 98.5763C105.201 98.4756 105.244 98.3803 105.318 98.3112L106.478 97.3043C106.532 97.2557 106.601 97.2258 106.674 97.2188C106.804 97.2115 106.93 97.265 107.015 97.3638ZM107.416 97.9867C107.478 97.9814 107.541 97.9911 107.599 98.0148C107.657 98.0385 107.708 98.0757 107.749 98.1231C107.891 98.2766 107.884 98.5165 107.732 98.6607L106.571 99.6677C106.492 99.7248 106.394 99.7504 106.296 99.7395C106.199 99.7286 106.109 99.6819 106.045 99.6085C105.98 99.5352 105.944 99.4403 105.946 99.3424C105.947 99.2445 105.984 99.1505 106.051 99.0787L107.22 98.0635C107.275 98.0171 107.344 97.9901 107.416 97.9867Z" fill="#CC092F"/>
<path d="M124.368 50.6647L131.766 52.3314C132.102 52.2297 133.685 51.7381 134.795 51.1199C136.749 50.0312 137.763 48.9481 140.085 48.8417V47.0754C140.085 46.1317 139.743 45.2816 139.743 44.3792C140.722 44.1167 143.44 40.7942 145.947 39.3196C149.635 41.7086 152.491 45.6304 152.491 47.4339V99.6856C152.491 100.464 152.96 101.563 152.96 101.563C151.613 100.993 149.145 97.6161 148.626 96.3324V96.9469C146.592 96.0196 145.103 93.5829 144.436 92.3224L144.393 92.9621C142.577 91.3696 140.264 81.9557 140.264 81.9557L136.41 85.7432C136.41 85.7432 137.804 88.5726 138.347 89.0792C138.089 89.1089 137.83 89.1233 137.57 89.1219C137.824 89.4866 139.762 92.2761 140.369 93.3282C140.937 94.3126 141.338 93.8744 142.212 93.8744C142.936 93.8744 144.579 95.0286 144.848 95.4956C145.14 95.9733 145.31 96.5154 145.343 97.0741C145.343 97.6141 144.771 98.3539 144.771 98.3539C144.75 98.223 144.691 98.1013 144.601 98.0041L142.877 100.12C142.705 100.31 141.936 100.434 141.666 100.188C140.988 99.5723 140.332 99.1414 139.729 98.2516C139.418 97.7931 139.395 97.2676 139.038 96.7752L134.925 91.2551L134.823 91.8268C134.207 90.5839 131.248 88.2091 131.248 88.2091L128.152 89.6341C128.152 89.6341 133.933 102.923 139.064 104.967C139.064 104.967 136.832 105.915 134.09 107.339L132.861 107.996C132.516 107.58 132.153 107.118 131.795 106.639C130.156 104.446 128.552 101.904 128.552 101.904C128.441 102.564 129.306 104.603 130.771 107.117L131.692 108.653L130.583 109.301C127.867 110.935 125.317 112.814 124.372 114.54L123.705 112.872L124.372 111.204V52.8776L124.038 52.0442L124.368 50.6647Z" fill="black"/>
<path d="M124.372 111.204C125.33 110.164 127.333 108.894 129.585 107.723C126.863 102.837 125.514 95.1134 126.147 93.5759C126.147 93.5759 127.264 97.5814 128.63 99.864C129.894 101.978 131.45 104.356 132.955 106.118C134.086 105.63 135.243 105.202 136.42 104.838C131.91 101.365 127.298 89.8814 127.298 89.8814L132.067 87.6714C132.067 87.6714 133.851 89.7512 134.431 90.1374C134.431 90.1374 134.678 89.103 134.823 88.738C134.823 88.738 135.507 89.255 135.881 89.2674L136.077 88.1067C136.548 88.4205 137.331 88.3542 137.331 88.3542C136.643 88.0285 135.83 86.0334 135.83 86.0334L140.383 79.9762C140.383 79.9762 141.983 87.6622 143.805 89.2422V56.1455L142.363 57.4849L140.178 55.4457V53.8929L142.115 55.7015V51.0174C141.892 50.6815 141.681 50.3371 141.484 49.985C141.171 50.5315 140.157 52.2065 138.967 53.2359C138.771 52.4395 137.482 51.6828 137.482 51.6828C137.482 51.6828 137.021 52.9342 136.314 53.2442C136.065 52.8062 134.581 51.8365 134.581 51.8365C134.581 51.8365 135.851 52.0294 136.365 52.5107C136.806 52.4119 136.919 50.6677 136.919 50.6677C136.919 50.6677 138.787 51.5775 139.112 52.229C139.468 52.1327 140.023 50.731 140.239 50.1557C139.777 50.1042 139.312 50.0786 138.848 50.079C138.315 50.079 137.634 50.3314 136.92 50.6677C136.135 51.037 135.314 51.5047 134.582 51.8367C133.643 52.2617 132.223 52.348 131.809 52.3657C132.306 52.7108 132.827 53.0188 133.37 53.2872C133.37 53.2872 131.135 53.2665 129.564 52.485C128.994 52.1407 128.446 51.7587 127.926 51.3417C128.165 52.0389 128.53 52.6866 129.002 53.2529C126.696 53.0577 125.547 51.7409 125.222 51.299C125.014 51.8633 124.727 52.3948 124.369 52.8774H123.535V109.544L124.372 111.204ZM141.365 44.5497L141.322 45.6077V48.7222C142.159 48.4344 143.21 47.06 143.72 46.3332V45.9065C143.714 45.7437 143.675 45.5839 143.604 45.437C143.534 45.2902 143.434 45.1595 143.31 45.0534L143.813 44.8744C144.061 45.1356 144.204 45.4787 144.214 45.8384V46.0859L145.716 47.6985L147.192 45.463V44.917C147.192 44.549 146.909 44.1387 146.671 43.859L147.166 43.6799C147.416 44.0035 147.678 44.4397 147.678 44.8487V45.2922L149.376 47.0415L150.238 45.19C149.204 43.7575 147.527 42.1535 145.946 41.0027C145.946 41.0027 142.519 44.1495 141.365 44.5497ZM150.052 47.5702V50.1387L151.246 51.2477V47.4339C151.212 46.9783 151.072 46.537 150.837 46.1454L150.052 47.5702ZM146.331 48.5599V50.1469L147.705 51.4354V46.4697L146.331 48.5599ZM148.192 51.4269L149.565 50.147V48.2872L148.192 46.8452V51.4269ZM141.92 49.4985C142.239 49.9494 143.075 51.052 143.977 51.5378V47.1778C143.77 47.522 142.821 49.057 141.92 49.4985ZM144.463 47.3995V51.4267L145.837 50.1469V48.722L144.463 47.3995ZM150.052 51.6912V55.71L151.246 54.5922V52.8089L150.052 51.6912ZM148.193 52.9797V54.4215L149.567 55.7012V51.6997L148.193 52.9797ZM146.333 51.7V55.7017L147.706 54.4132V52.9883L146.333 51.7ZM144.464 52.9883V54.4132L145.838 55.7015V51.7L144.464 52.9883ZM142.604 55.71L143.978 54.4215V53.0822C143.504 52.793 143.028 52.2615 142.604 51.7L142.604 55.71ZM146.085 57.4847L144.635 56.1365V89.2415L144.464 91.9547L147.535 95.0604V56.1277L146.085 57.4847ZM148.364 93.8234C148.364 94.8875 150.307 97.3689 151.248 97.9359V56.1459L149.814 57.4852L148.364 56.1369V93.8234Z" fill="#B07E5B"/>
<path d="M136.316 90.2315L135.258 89.5062L135.096 90.334L139.439 96.2381C139.759 96.6688 140.028 97.7653 140.028 97.7653C140.028 97.7653 140.497 97.5435 140.497 97.1426C140.497 96.749 140.445 96.2808 140.445 96.2808C140.57 96.4078 140.719 96.5086 140.883 96.5775C141.047 96.6463 141.223 96.6818 141.401 96.6818C141.401 96.198 140.465 95.6732 140.428 94.9842C141.142 95.5132 141.762 95.2417 142.587 95.4962C143.486 95.773 143.736 96.1506 144.012 96.1361C144.174 96.1273 144.321 95.8473 144.259 95.6753C144.152 95.3775 143.04 94.5532 142.263 94.4042C142.077 94.3685 140.612 94.7228 140.317 94.2676L136.939 89.0547C136.822 89.0327 136.71 88.9923 136.606 88.9348C136.606 88.9348 136.618 89.8933 136.316 90.2315H136.316ZM143.118 96.0755C143.06 96.1393 143.064 96.2383 143.127 96.2971L143.605 96.7151C143.673 96.7686 143.772 96.7572 143.827 96.6895C143.885 96.6258 143.881 96.5267 143.818 96.4677L143.34 96.0497C143.325 96.0365 143.307 96.0266 143.288 96.0208C143.269 96.0149 143.249 96.0132 143.229 96.0157C143.186 96.0213 143.147 96.0427 143.118 96.0755ZM142.393 96.5788C142.252 96.728 142.258 96.9635 142.407 97.105L142.41 97.108L143.571 98.1231C143.747 98.254 143.996 98.2172 144.126 98.041C144.243 97.884 144.228 97.6657 144.091 97.5262L142.931 96.5193C142.873 96.4705 142.802 96.4407 142.726 96.4338C142.598 96.4268 142.475 96.4805 142.393 96.5788ZM141.728 97.3638C141.695 97.3992 141.668 97.4409 141.651 97.4865C141.633 97.532 141.625 97.5806 141.626 97.6294C141.627 97.6783 141.638 97.7264 141.658 97.771C141.678 97.8156 141.706 97.8559 141.742 97.8895L141.745 97.8928L142.914 98.9082C143.076 99.0378 143.312 99.0118 143.442 98.85L143.443 98.8485C143.512 98.7748 143.548 98.6769 143.545 98.5763C143.542 98.4756 143.499 98.3803 143.426 98.3112L142.266 97.3043C142.211 97.2557 142.142 97.2258 142.069 97.2188C141.939 97.2115 141.813 97.265 141.728 97.3638ZM141.328 97.9867C141.265 97.9814 141.203 97.9911 141.145 98.0148C141.087 98.0385 141.036 98.0757 140.995 98.1231C140.852 98.2766 140.86 98.5165 141.012 98.6607L142.172 99.6677C142.252 99.7248 142.35 99.7504 142.447 99.7395C142.544 99.7286 142.634 99.6819 142.699 99.6085C142.764 99.5352 142.799 99.4403 142.798 99.3424C142.797 99.2445 142.759 99.1505 142.693 99.0787L141.524 98.0635C141.469 98.0171 141.4 97.9901 141.328 97.9867Z" fill="#CC092F"/>
<path d="M122.661 34.4394C124.571 34.4394 125.914 35.31 127.721 36.1115C128.194 36.3215 128.629 36.4917 129.017 36.6234C128.807 36.7845 128.64 36.9959 128.531 37.2379C128.531 37.2379 129.341 37.3879 129.708 38.0657C129.708 38.0657 128.938 38.153 128.813 38.603C129.244 38.6355 129.672 39.1792 129.674 39.7039L128.582 39.3624C128.75 40.2054 128.839 41.0624 128.847 41.922C128.847 42.603 127.866 43.4044 127.866 44.5585C127.866 48.1809 128.778 49.5732 129.427 50.693C129.681 51.1312 129.888 51.6354 130.315 52.0155C128.445 51.02 127.055 49.7757 127.055 48.6199V44.2429H126.569V48.6199C126.569 49.458 126.774 49.8485 126.774 49.8485C127.067 50.7759 127.66 52.2072 128.028 52.7835C126.308 51.8539 125.434 50.6897 125.434 50.258V44.2427H124.948V50.3432L125.041 50.7612C124.833 51.0745 124.562 51.4455 124.376 51.5717C124.19 51.4457 123.928 51.074 123.719 50.7612L123.813 50.3432V44.2427H123.326V50.258C123.326 50.6895 122.453 51.8539 120.732 52.7835C121.1 52.207 121.693 50.7759 121.987 49.8485C121.987 49.8485 122.191 49.4582 122.191 48.6199V44.2429H121.705V48.6199C121.705 49.7744 120.32 51.0207 118.454 52.0155C118.877 51.635 119.08 51.1287 119.333 50.693C120.042 49.4684 120.92 47.9125 120.92 43.4834C120.92 41.821 120.674 40.6909 120.246 39.8999C120.116 39.6389 119.94 38.9442 120.937 38.9442C121.453 38.9442 122.635 39.8572 122.635 39.8572C122.588 39.4024 122.353 38.9879 121.986 38.7139C121.912 38.6549 121.85 38.5814 121.804 38.4978C121.759 38.4141 121.731 38.3221 121.722 38.2274C121.791 37.9709 121.956 37.7508 122.183 37.613C122.321 37.55 120.152 37.172 120.152 36.1882C120.152 35.9834 120.281 35.8469 120.732 35.8469C121.323 35.8469 122.284 36.555 123.138 36.555C123.77 36.555 124.019 36.4014 124.665 36.4014C125.456 36.4014 127.105 37.8979 127.669 37.8432C127.038 37.4474 126.02 35.949 124.478 35.949C123.943 35.949 123.458 36.0685 122.959 36.0685C122.319 36.0685 121.688 35.4797 120.996 35.4797C120.533 35.4797 120.015 35.5055 119.938 35.3857C119.804 35.1765 119.925 35.0552 120.049 34.8824C120.284 34.5562 120.943 34.4615 121.594 34.4389C121.789 34.432 121.983 34.4287 122.166 34.4304L122.661 34.4392L122.661 34.4394Z" fill="#B07E5B"/>
<path d="M116.459 36.7815C116.763 36.2912 117.305 36.0002 117.882 36.018C118.308 36.018 119.714 35.9885 119.714 35.9885C119.901 36.4754 120.755 37.2889 120.755 38.1349C120.755 38.1349 119.888 36.572 117.468 36.572C117.12 36.5667 116.776 36.6382 116.459 36.7814L116.459 36.7815ZM120.394 38.4332C120.394 38.4332 119.879 38.9762 119.767 39.266C119.257 39.0727 118.367 38.1559 118.367 38.1559C118.367 38.1559 119.121 38.5962 120.394 38.4332H120.394Z" fill="#CC092F"/>
<path d="M119.578 36.995C119.578 36.995 118.983 36.8043 118.983 36.6047C118.983 36.3503 119.272 36.3503 119.445 36.5485C119.527 36.6833 119.573 36.8373 119.578 36.9952L119.578 36.995Z" fill="black"/>
<path d="M122.352 38.2538C123.031 38.2538 123.581 37.8362 123.581 37.3211C123.581 36.806 123.031 36.3884 122.352 36.3884C121.673 36.3884 121.123 36.806 121.123 37.3211C121.123 37.8362 121.673 38.2538 122.352 38.2538Z" fill="black"/>
<path d="M122.351 38.1745C122.822 38.1745 123.204 37.7924 123.204 37.321C123.204 36.8497 122.822 36.4675 122.351 36.4675C121.879 36.4675 121.497 36.8497 121.497 37.321C121.497 37.7924 121.879 38.1745 122.351 38.1745Z" fill="#FFD200"/>
<path d="M122.351 37.7124C122.567 37.7124 122.742 37.5374 122.742 37.3214C122.742 37.1055 122.567 36.9304 122.351 36.9304C122.135 36.9304 121.96 37.1055 121.96 37.3214C121.96 37.5374 122.135 37.7124 122.351 37.7124Z" fill="black"/>
<path d="M108.564 98.6587L111.265 100.132L110.609 103.137L107.909 101.663L108.564 98.6587Z" fill="black"/>
<path d="M95.9834 69.7883L95.0107 70.2322L106 94.3022H107.169L95.9834 69.7883ZM108.944 98.175L108.151 98.9942L108.646 100.086L109.61 99.6427L108.944 98.175Z" fill="black"/>
<path d="M99.3995 88.7665C99.3995 88.7665 100.325 90.6785 101.029 90.9407C100.665 90.8415 99.4835 91.275 99.4835 91.275C99.4835 91.275 101.567 93.1359 103.334 93.258C104.832 93.3612 105.559 92.6134 105.559 92.6134L105.259 91.026C104.609 90.2995 103.791 89.7439 102.876 89.4082C101.393 88.8919 99.3993 88.7669 99.3993 88.7669L99.3995 88.7665ZM106.378 85.3415C106.378 85.3415 105.1 86.4357 104.75 87.703C104.4 88.9704 104.978 90.4109 104.978 90.4109L106.052 92.4144C106.052 92.4144 107.54 91.6222 108.174 90.4377C108.807 89.2532 108.575 87.6547 108.575 87.6547C108.575 87.6547 107.395 88.0937 107.245 88.288C107.494 86.974 106.378 85.3415 106.378 85.3415ZM102.27 84.8299C102.27 84.8299 100.816 85.3212 99.4042 85.2362C98.0595 85.155 96.9413 84.0259 96.9413 84.0259C96.9413 84.0259 98.056 83.2715 98.6061 83.372C98.001 83.1509 97.1235 81.6349 97.1235 81.6349C97.1235 81.6349 98.3705 81.258 99.4762 81.6749C100.582 82.0917 101.546 83.3032 101.546 83.3032L102.27 84.8299ZM102.77 77.7299C102.77 77.7299 103.497 79.2352 103.324 79.7584C103.55 79.41 104.403 78.8675 104.403 78.8675C104.403 78.8675 104.919 81.3049 104.426 82.8102C103.932 84.3155 102.43 84.8885 102.43 84.8885L100.773 81.6657C100.773 81.6657 100.526 80.4717 101.043 79.5262C101.56 78.5807 102.77 77.7297 102.77 77.7297V77.7299ZM93.311 73.7449C93.311 73.7449 94.8822 73.5799 96.3196 74.1754C97.5213 74.6742 97.8896 75.5809 97.8896 75.5809L98.4815 77.1675C98.4815 77.1675 96.7713 77.8089 95.4201 77.3185C94.0689 76.8282 93.0759 75.2052 93.0759 75.2052C93.0759 75.2052 94.0202 74.847 94.3797 74.9814C93.8561 74.7497 93.3114 73.7449 93.3114 73.7449V73.745L93.311 73.7449ZM98.2528 70.7999C98.2528 70.7999 98.9423 71.6854 98.963 72.7039C99.1468 72.1624 100.008 71.5639 100.008 71.5639C100.008 71.5639 100.893 73.7064 100.699 75.2275C100.504 76.7487 99.2305 77.6487 99.2305 77.6487L97.642 74.6334C97.642 74.6334 97.1243 73.3975 97.2768 72.4389C97.4293 71.4802 98.2528 70.7995 98.2528 70.7995V70.7999ZM92.811 65.0332C92.811 65.0332 92.5262 66.6755 93.0109 67.6215C93.4439 68.4657 93.7196 68.6509 93.7196 68.6509C92.8939 68.106 91.6455 68.059 91.6455 68.059C91.6455 68.059 92.0899 69.8459 93.1517 70.661C94.2136 71.4762 95.8509 71.2857 95.8509 71.2857C95.8509 71.2857 96.9276 69.8524 96.8526 68.3082C96.7776 66.764 95.5513 65.1087 95.5513 65.1087C95.5513 65.1087 95.0676 66.112 95.0249 66.861C94.7119 66.0889 92.8107 65.0334 92.8107 65.0334L92.811 65.0332ZM105.645 92.5449L105.689 93.1344C106.668 93.1435 106.814 93.046 107.065 93.3547C107.307 93.6267 107.698 93.7089 108.029 93.5572C108.222 93.4679 108.372 93.3063 108.446 93.1074C108.52 92.9084 108.513 92.6882 108.426 92.4945C108.244 92.0947 107.872 92.0079 107.513 92.0785C107.294 92.1219 107.149 92.2974 106.962 92.3937C106.608 92.5774 105.644 92.545 105.644 92.545L105.645 92.5449Z" fill="black"/>
<path d="M105.559 92.0951L106.036 92.4442C105.525 93.2799 105.365 93.3519 105.494 93.7284C105.544 93.8987 105.538 94.0804 105.477 94.2469C105.416 94.4135 105.303 94.5561 105.155 94.6539C104.977 94.7701 104.761 94.8115 104.552 94.7691C104.344 94.7267 104.161 94.604 104.043 94.4276C103.801 94.0609 103.924 93.6999 104.174 93.4334C104.327 93.2697 104.552 93.2401 104.733 93.1329C105.076 92.9291 105.559 92.0949 105.559 92.0949L105.559 92.0951ZM102.243 85.0951L102.287 85.6846C103.266 85.6936 103.412 85.5962 103.663 85.9047C103.905 86.1766 104.296 86.2587 104.627 86.1072C105.028 85.9217 105.205 85.4477 105.024 85.0447C104.841 84.6447 104.469 84.5581 104.111 84.6287C103.891 84.6722 103.747 84.8476 103.56 84.9439C103.206 85.1274 102.242 85.0952 102.242 85.0952L102.243 85.0951Z" fill="black"/>
<path d="M102.441 85.3032L102.857 85.7227C102.222 86.4684 102.053 86.5149 102.122 86.9067C102.169 87.2681 101.975 87.6176 101.643 87.7684C101.449 87.8555 101.229 87.8627 101.03 87.7884C100.831 87.7142 100.67 87.5645 100.58 87.3719C100.398 86.9721 100.576 86.6344 100.864 86.4101C101.041 86.2726 101.268 86.2779 101.463 86.2004C101.834 86.0526 102.441 85.3034 102.441 85.3034V85.3032ZM98.9455 78.1199L98.9896 78.7094C99.969 78.7184 100.115 78.6211 100.366 78.9299C100.484 79.0622 100.641 79.1533 100.815 79.1897C100.989 79.226 101.169 79.2059 101.331 79.1321C101.523 79.0428 101.673 78.8811 101.747 78.6821C101.821 78.4831 101.814 78.2629 101.727 78.0692C101.544 77.6694 101.173 77.5827 100.814 77.6534C100.594 77.6969 100.45 77.8722 100.263 77.9686C99.9087 78.1522 98.9453 78.1197 98.9453 78.1197L98.9455 78.1199Z" fill="black"/>
<path d="M99.2183 77.9969L99.6348 78.4162C99 79.1621 98.8311 79.2086 98.8996 79.6004C98.9465 79.9616 98.7523 80.3111 98.4208 80.4619C98.2271 80.549 98.0069 80.5562 97.808 80.482C97.6091 80.4077 97.4474 80.2581 97.3581 80.0654C97.1758 79.6654 97.3536 79.3277 97.6416 79.1036C97.8185 78.9657 98.0456 78.9714 98.2406 78.8936C98.6118 78.7457 99.2183 77.9969 99.2183 77.9969ZM95.4349 70.7569L95.4789 71.3462C96.4583 71.3554 96.6041 71.2579 96.8549 71.5664C96.9729 71.6989 97.1303 71.79 97.3039 71.8265C97.4775 71.8631 97.6583 71.843 97.8196 71.7692C98.0123 71.68 98.1621 71.5183 98.2364 71.3193C98.3106 71.1204 98.3034 70.9001 98.2163 70.7064C98.0338 70.3064 97.6619 70.2196 97.3036 70.2904C97.0839 70.3339 96.9393 70.5094 96.7528 70.6056C96.3981 70.7891 95.4346 70.7569 95.4346 70.7569H95.4349Z" fill="black"/>
<path d="M95.7056 70.6333L96.122 71.0528C95.4873 71.7986 95.3181 71.845 95.387 72.237C95.4338 72.5981 95.2396 72.9476 94.9081 73.0985C94.7145 73.1855 94.4943 73.1927 94.2954 73.1184C94.0965 73.0442 93.9349 72.8946 93.8456 72.702C93.6629 72.3021 93.8409 71.9641 94.1288 71.7401C94.3058 71.6026 94.533 71.608 94.7278 71.5301C95.0988 71.3825 95.7055 70.6335 95.7055 70.6335L95.7056 70.6333Z" fill="black"/>
<path d="M108.953 99.5103L110.628 100.424L110.222 102.288L108.547 101.374L108.953 99.5103ZM101.622 83.3483C101.271 83.494 100.75 81.9658 100.368 81.1286C99.9753 80.2695 99.179 78.9453 99.4052 78.842C99.6533 78.7286 99.9803 79.424 100.382 80.3031C100.783 81.1823 101.95 83.2113 101.622 83.348V83.3483ZM98.0165 75.3C97.6656 75.4461 97.2815 74.4455 96.8993 73.6081C96.5071 72.7491 96.1251 72.1423 96.3513 72.039C96.5996 71.9256 96.9663 72.6785 97.2873 73.3815C97.5983 74.0628 98.3453 75.1631 98.0163 75.3001L98.0165 75.3ZM106.357 93.5483C106.081 93.622 104.878 91.1047 103.906 88.9747C102.934 86.8447 102.21 85.1215 102.436 85.0186C102.684 84.9051 103.472 86.9171 104.444 89.0473C105.417 91.1775 106.563 93.4928 106.357 93.5483H106.357Z" fill="#FFD200"/>
<path d="M107.699 93.2649C107.939 93.2649 108.134 93.0705 108.134 92.8306C108.134 92.5907 107.939 92.3962 107.699 92.3962C107.46 92.3962 107.265 92.5907 107.265 92.8306C107.265 93.0705 107.46 93.2649 107.699 93.2649Z" fill="#FFD200"/>
<path d="M104.713 94.4231C104.953 94.4231 105.147 94.2286 105.147 93.9888C105.147 93.7489 104.953 93.5544 104.713 93.5544C104.473 93.5544 104.279 93.7489 104.279 93.9888C104.279 94.2286 104.473 94.4231 104.713 94.4231Z" fill="#FFD200"/>
<path d="M104.298 85.8093C104.538 85.8093 104.732 85.6149 104.732 85.375C104.732 85.1351 104.538 84.9407 104.298 84.9407C104.058 84.9407 103.864 85.1351 103.864 85.375C103.864 85.6149 104.058 85.8093 104.298 85.8093Z" fill="#FFD200"/>
<path d="M101.309 87.4744C101.549 87.4744 101.743 87.2799 101.743 87.04C101.743 86.8002 101.549 86.6057 101.309 86.6057C101.069 86.6057 100.875 86.8002 100.875 87.04C100.875 87.2799 101.069 87.4744 101.309 87.4744Z" fill="#FFD200"/>
<path d="M101.001 78.8367C101.241 78.8367 101.436 78.6422 101.436 78.4023C101.436 78.1625 101.241 77.968 101.001 77.968C100.761 77.968 100.567 78.1625 100.567 78.4023C100.567 78.6422 100.761 78.8367 101.001 78.8367Z" fill="#FFD200"/>
<path d="M98.0842 80.168C98.3241 80.168 98.5186 79.9735 98.5186 79.7337C98.5186 79.4938 98.3241 79.2993 98.0842 79.2993C97.8444 79.2993 97.6499 79.4938 97.6499 79.7337C97.6499 79.9735 97.8444 80.168 98.0842 80.168Z" fill="#FFD200"/>
<path d="M97.4895 71.4741C97.7294 71.4741 97.9239 71.2797 97.9239 71.0398C97.9239 70.7999 97.7294 70.6055 97.4895 70.6055C97.2496 70.6055 97.0552 70.7999 97.0552 71.0398C97.0552 71.2797 97.2496 71.4741 97.4895 71.4741Z" fill="#FFD200"/>
<path d="M94.5735 72.8047C94.8134 72.8047 95.0078 72.6102 95.0078 72.3704C95.0078 72.1305 94.8134 71.936 94.5735 71.936C94.3336 71.936 94.1392 72.1305 94.1392 72.3704C94.1392 72.6102 94.3336 72.8047 94.5735 72.8047Z" fill="#FFD200"/>
<path d="M93.2949 66.0317C93.2949 66.0317 93.2524 67.2319 93.6494 67.9126C94.0464 68.5932 94.9334 68.8651 94.9334 68.8651C94.9334 68.8651 94.9757 67.6652 94.5787 66.9846C94.1817 66.3039 93.2949 66.0317 93.2949 66.0317ZM92.4648 68.7467C92.4648 68.7467 93.5074 68.8081 94.1095 69.2694C94.7117 69.7307 94.9444 70.6919 94.9444 70.6919C94.4811 70.7162 94.0239 70.5779 93.6517 70.3007C93.0499 69.8392 92.4648 68.7467 92.4648 68.7467ZM95.7366 66.3234C95.5237 66.8477 95.4194 67.4097 95.4299 67.9754C95.4697 68.8326 95.9699 69.7982 95.9699 69.7982C95.9699 69.7982 96.4221 68.7692 96.3822 67.9119C96.3424 67.0546 95.8577 66.5661 95.7366 66.3234ZM93.9815 74.0501C94.3295 74.5082 94.7731 74.8851 95.2814 75.1544C96.0694 75.5439 97.2436 75.5584 97.2436 75.5584C96.8661 75.0879 96.3991 74.697 95.8694 74.4084C95.0814 74.0189 93.9815 74.0497 93.9815 74.0497V74.0501ZM94.2349 75.7101C94.2349 75.7101 94.611 76.4469 95.2989 76.7627C95.9867 77.0786 97.3946 77.0527 97.3946 77.0527C97.0582 76.6375 96.6402 76.2957 96.1666 76.0482C95.4786 75.7321 94.2349 75.7101 94.2349 75.7101ZM98.1966 71.7801C97.946 72.2199 97.8166 72.7183 97.8214 73.2244C97.8623 73.9819 98.3593 74.8096 98.3593 74.8096C98.3593 74.8096 98.7088 73.8607 98.668 73.1034C98.6331 72.6278 98.4702 72.1705 98.1965 71.7801H98.1966ZM99.7283 72.7517C99.7283 72.7517 99.0168 73.7067 98.9146 74.6886C98.8125 75.6704 99.3193 76.6789 99.3193 76.6789C99.3193 76.6789 100.179 75.8159 100.281 74.8342C100.383 73.8526 99.7283 72.7521 99.7283 72.7521V72.7517ZM97.7666 81.8184C97.845 82.0839 97.9751 82.3313 98.1495 82.5462C98.3923 82.8292 98.6623 83.0877 98.9555 83.3182C99.3156 83.2217 99.6937 83.2129 100.058 83.2924C100.669 83.4249 101.481 83.9691 101.481 83.9691C101.481 83.9691 100.607 82.6639 99.6988 82.1564C99.1041 81.8502 98.4303 81.7323 97.767 81.8182L97.7666 81.8184ZM97.6766 84.0617C97.6766 84.0617 98.8088 83.5781 99.7412 83.7029C100.674 83.8277 101.514 84.5647 101.514 84.5647C101.514 84.5647 100.254 85.0007 99.3218 84.8761C98.7075 84.7656 98.137 84.4832 97.6764 84.0617H97.6766ZM102.462 78.7984C102.462 78.7984 101.461 79.8591 101.377 80.7796C101.293 81.7001 102.188 82.5577 102.188 82.5577C102.165 82.2274 102.202 81.8955 102.299 81.5787C102.426 81.2923 102.588 81.0225 102.781 80.7751C102.86 80.4979 102.889 80.2087 102.866 79.9212C102.79 79.5284 102.653 79.1497 102.462 78.7984ZM103.898 80.0267C103.898 80.0267 102.955 80.9816 102.705 82.0041C102.456 83.0266 102.9 84.1167 102.9 84.1167C102.9 84.1167 103.759 83.4397 104.008 82.4174C104.258 81.3951 103.898 80.0267 103.898 80.0267ZM106.262 86.1901C106.508 86.7118 106.688 87.2624 106.798 87.8289C106.906 88.5751 106.806 88.8334 106.806 88.8334C106.806 88.8334 106.364 89.2679 106.165 89.5234C105.911 89.8517 105.873 90.4527 105.873 90.4527C105.873 90.4527 104.986 89.1334 105.123 88.1689C105.26 87.2044 106.262 86.1899 106.262 86.1899V86.1901ZM108.132 88.2551C108.132 88.2551 106.995 89.0056 106.545 89.7756C106.276 90.2483 106.199 90.8056 106.327 91.3337C106.587 91.2968 106.835 91.2021 107.053 91.0565C107.272 90.911 107.454 90.7183 107.588 90.4927C108.039 89.7231 108.132 88.2549 108.132 88.2549L108.132 88.2551ZM100.665 91.4251C100.665 91.4251 102.303 91.3804 103.304 91.6266C104.305 91.8727 104.669 92.4091 104.669 92.4091C104.669 92.4091 103.544 92.9361 102.543 92.6901C101.542 92.4441 100.665 91.4249 100.665 91.4249L100.665 91.4251ZM100.388 89.4817C100.388 89.4817 101.127 90.6272 102.082 91.0429C103.399 91.6154 104.923 91.3379 104.923 91.3379C104.923 91.3379 104.095 90.3231 102.956 89.8751C101.816 89.4271 100.388 89.4817 100.388 89.4817Z" fill="#007A50"/>
<path d="M156.459 66.9907L156.672 67.4427C156.46 67.5224 156.282 67.6731 156.169 67.8692C156.012 68.1771 156.271 68.6117 156.271 68.6117C156.271 68.6117 154.471 68.4546 154.189 68.6374C153.935 68.8024 154.297 70.0497 154.13 71.1032C153.896 72.5716 153.317 72.4482 153.293 72.7327C153.27 73.0092 153.515 73.4409 153.515 73.4409C153.515 73.4409 153.178 73.5472 153.106 73.6884C152.99 73.9154 153.186 74.3342 153.046 74.6097L150.341 79.9169C150.234 80.1264 149.947 80.2064 149.803 80.4886C149.728 80.6938 149.719 80.9178 149.778 81.1284C149.778 81.1284 149.271 81.1587 149.095 81.5039C148.985 81.7771 148.958 82.0771 149.018 82.3656C148.917 82.3836 148.822 82.4245 148.739 82.4851C148.656 82.5457 148.588 82.6245 148.54 82.7154C148.372 83.0456 148.657 83.2187 148.584 83.3639L145.606 89.2086C145.334 89.7417 144.383 89.8486 143.831 90.9321C143.677 91.2231 143.616 91.5546 143.657 91.8814C143.698 92.2082 143.839 92.5143 144.061 92.7579C144.061 92.7579 143.266 92.8299 143.054 93.2444C142.839 93.6669 143.009 94.3084 143.583 94.6009C144.157 94.8934 144.785 94.6566 145 94.2341C145.211 93.8196 144.787 93.1334 144.787 93.1334C145.115 93.1665 145.445 93.0985 145.733 92.9383C146.022 92.7781 146.254 92.5335 146.399 92.2374C146.951 91.1539 146.486 90.3306 146.757 89.7972L149.735 83.9526C149.81 83.8074 150.113 83.9331 150.281 83.6029C150.327 83.5115 150.351 83.4107 150.351 83.3086C150.351 83.2064 150.327 83.1057 150.281 83.0142C150.552 82.8928 150.781 82.6938 150.939 82.4424C151.115 82.0972 150.845 81.6661 150.845 81.6661C151.05 81.5926 151.227 81.4551 151.348 81.2737C151.492 80.9916 151.386 80.7154 151.493 80.5056L154.198 75.1987C154.338 74.9229 154.79 74.8286 154.906 74.6012C154.978 74.4602 154.863 74.1236 154.863 74.1236C154.863 74.1236 155.361 74.0742 155.571 73.8931C155.788 73.7067 155.349 73.3071 156.399 72.2549C157.153 71.5002 158.369 71.0562 158.353 70.7532C158.336 70.4182 157.15 69.0554 157.15 69.0554C157.15 69.0554 157.65 69.0132 157.807 68.7057C157.899 68.4961 157.917 68.2613 157.858 68.0401L158.353 67.9547V65.6084L156.459 66.9907ZM140.103 99.6697C140.062 99.7505 140.041 99.8396 140.041 99.9298C140.041 100.02 140.062 100.109 140.103 100.19C140.103 100.19 139.505 100.003 139.301 100.105C139.108 100.2 139.301 103.014 139.301 103.014C139.301 103.014 141.683 101.511 141.647 101.299C141.609 101.074 141.109 100.693 141.109 100.693C141.198 100.68 141.281 100.646 141.354 100.594C141.427 100.542 141.486 100.474 141.528 100.395C141.606 100.241 141.616 99.8002 141.075 99.5244C140.914 99.4348 140.73 99.3934 140.546 99.4051C140.364 99.4167 140.199 99.5152 140.103 99.6697Z" fill="black"/>
<path d="M156.892 67.0851L158.018 67.6569L158.002 66.3001L156.892 67.0851ZM156.457 67.9042C156.259 68.2041 156.341 68.6079 156.641 68.8064C156.94 69.0049 157.344 68.9229 157.543 68.6231C157.741 68.3232 157.659 67.9194 157.359 67.7209C157.338 67.7069 157.316 67.6941 157.293 67.6826C157.18 67.6241 157.053 67.5975 156.926 67.6057C156.728 67.6149 156.549 67.7286 156.457 67.9044L156.457 67.9042ZM154.521 68.9367C154.402 69.0134 154.563 70.0276 154.529 70.8904C154.497 71.7041 154.236 71.9332 154.094 72.2129C153.962 72.4711 153.488 72.7761 153.488 72.7761L153.881 73.1686C153.881 73.1686 154.136 72.7709 154.538 71.9822C155.011 71.0524 154.996 69.3676 155.135 69.2777C155.499 69.1498 155.869 69.0416 156.244 68.9534C156.244 68.9534 155.337 68.9044 154.836 68.9111C154.73 68.9046 154.624 68.9133 154.521 68.9369V68.9367ZM154.624 73.6209C154.797 73.1897 154.994 72.7682 155.213 72.3581C155.765 71.2749 156.943 70.4892 156.97 70.2932C156.999 70.0912 156.561 69.1416 156.561 69.1416C156.561 69.1416 155.521 69.3407 155.374 69.4829C155.232 69.6201 155.295 71.0274 154.743 72.1107C154.538 72.5323 154.31 72.9425 154.06 73.3394L154.624 73.6209ZM157.277 70.3701C157.286 70.5349 155.917 71.5136 155.443 72.4432C155.041 73.2317 154.871 73.6721 154.871 73.6721L155.417 73.7574C155.417 73.7574 155.38 73.1962 155.511 72.9382C155.653 72.6587 155.691 72.3164 156.33 71.8121C157.008 71.2772 157.925 70.8097 157.917 70.6686C157.91 70.5382 156.893 69.2779 156.893 69.2779C157.04 69.6351 157.169 69.9996 157.277 70.3701ZM153.267 76.4534C154.09 74.8387 154.341 74.7287 154.445 74.5252C154.556 74.3066 154.53 74.0122 154.163 73.8254C154.054 73.7649 153.929 73.7382 153.805 73.7489C153.726 73.7582 153.651 73.7874 153.587 73.8336C153.523 73.8799 153.472 73.9417 153.438 74.0132C153.334 74.2169 153.39 74.4891 152.567 76.1039L150.699 79.7641C150.673 79.8082 150.656 79.857 150.65 79.9076C150.643 79.9582 150.646 80.0096 150.66 80.0589C150.673 80.1082 150.695 80.1544 150.726 80.1949C150.758 80.2354 150.796 80.2694 150.84 80.2949C150.85 80.3004 150.859 80.3054 150.869 80.3101C150.956 80.3583 151.058 80.3704 151.153 80.3435C151.248 80.3166 151.329 80.253 151.377 80.1667C151.385 80.1524 151.392 80.1375 151.398 80.1222L153.267 76.4534ZM149.965 80.6514C149.864 80.8516 150.038 81.1454 150.358 81.3086C150.678 81.4717 151.024 81.4404 151.126 81.2402C151.228 81.0401 151.045 80.7462 150.725 80.5831C150.584 80.507 150.424 80.4717 150.264 80.4809C150.141 80.4817 150.028 80.5464 149.965 80.6514ZM149.274 81.6922C149.142 81.9511 149.348 82.3227 149.735 82.5202C150.122 82.7177 150.541 82.6679 150.673 82.4091C150.805 82.1502 150.599 81.7787 150.212 81.5812C150.08 81.5117 149.935 81.471 149.786 81.4619C149.585 81.4322 149.385 81.5222 149.274 81.6922ZM148.839 82.8529C148.737 83.0527 148.912 83.3467 149.231 83.5097C149.551 83.6727 149.897 83.6416 149.999 83.4416C150.101 83.2416 149.926 82.9476 149.607 82.7846C149.463 82.7084 149.3 82.6729 149.137 82.6821C149.077 82.6826 149.018 82.6986 148.966 82.7285C148.913 82.7584 148.87 82.8012 148.839 82.8529ZM148.557 83.9621L145.75 89.4822C145.516 89.9412 144.532 90.2272 144.146 90.9841C143.758 91.7454 144.032 92.4581 144.538 92.7161C145.045 92.9741 145.789 92.7866 146.177 92.0251C146.562 91.2684 146.216 90.2996 146.45 89.8407L149.257 84.3204C149.31 84.2337 149.326 84.1296 149.303 84.0308C149.279 83.932 149.217 83.8467 149.13 83.7936C149.119 83.7866 149.107 83.7801 149.095 83.7744C149.022 83.7355 148.938 83.7207 148.856 83.7319C148.726 83.7584 148.616 83.8434 148.557 83.9622V83.9621ZM143.309 93.4411C143.153 93.7461 143.331 94.1526 143.709 94.3454C144.088 94.5382 144.527 94.4456 144.682 94.1407C144.838 93.8359 144.651 93.4291 144.273 93.2362C144.141 93.1667 143.995 93.1316 143.846 93.1339C143.624 93.1297 143.418 93.2476 143.309 93.4411ZM140.545 99.6782C140.495 99.6739 140.446 99.6826 140.401 99.7036C140.356 99.7246 140.317 99.7571 140.289 99.7977C140.209 99.9536 140.374 100.2 140.656 100.344C140.938 100.488 141.233 100.474 141.313 100.318C141.392 100.162 141.228 99.9157 140.946 99.7721C140.822 99.7076 140.684 99.6754 140.545 99.6782ZM139.572 100.446V102.46L141.21 101.282C141.035 101.01 140.792 100.79 140.504 100.643C140.216 100.496 139.895 100.428 139.572 100.446ZM140.609 55.5996C140.609 54.4952 142.06 53.4067 142.06 53.4067H106.685C106.685 53.4067 108.135 54.4951 108.135 55.5996V81.9306C108.122 82.5091 108.319 83.0727 108.69 83.5174C109.03 83.9929 109.755 84.6499 110.507 85.1386C112.83 86.6474 116.715 88.2384 119.654 89.5754C122.103 90.6894 123.099 91.1389 124.372 92.7152C125.645 91.1389 126.65 90.6896 129.099 89.5754C132.038 88.2386 135.922 86.6474 138.246 85.1386C138.998 84.6499 139.723 83.9931 140.063 83.5174C140.431 83.0717 140.625 82.5081 140.609 81.9306V55.5996Z" fill="#FFD200"/>
<path d="M108.971 70.4969V55.5994C108.979 55.1131 108.829 54.6371 108.544 54.2429H140.199C139.914 54.6372 139.765 55.1131 139.773 55.5994L139.782 70.4969L124.376 75.1636L108.971 70.4969H108.971Z" fill="#CC092F"/>
<path d="M139.781 70.497L130.242 70.3179H118.51L108.971 70.497V81.9305C108.971 82.5052 109.567 83.8514 113.007 85.565C118.692 88.398 123.062 89.7207 124.372 91.3329C125.681 89.7207 130.051 88.3979 135.737 85.565C139.176 83.8514 139.772 82.5052 139.772 81.9305L139.781 70.497Z" fill="#0046AE"/>
<path d="M130.012 69.9001C130.012 69.9001 135.516 68.5125 135.516 62.6306C135.516 58.0368 129.998 55.7578 129.841 54.6616C129.302 56.5585 131.684 59.1783 131.684 62.2808C131.684 66.2951 128.724 66.4873 128.724 66.4873C128.031 66.4873 127.75 66.982 127.478 66.982C126.895 66.9211 126.621 66.1798 126.044 66.1798C125.503 66.1798 125.088 67.016 124.372 67.016C123.657 67.016 123.25 66.1798 122.708 66.1798C122.132 66.1798 121.858 66.9211 121.275 66.982C121.003 66.982 120.722 66.4873 120.029 66.4873C120.029 66.4873 117.068 66.2951 117.068 62.2808C117.068 59.1783 119.451 56.5581 118.911 54.6616C118.755 55.7578 113.238 58.0366 113.238 62.6306C113.238 68.5125 118.741 69.9001 118.741 69.9001L117.171 72.7583C117.171 72.7583 119.445 72.8721 120.652 73.9018C122.108 75.1431 121.966 77.7733 121.966 79.6866C121.966 81.1941 121.776 82.785 121.002 83.4406C119.963 84.3213 119.261 84.3864 119.261 85.4203C119.261 86.2826 119.924 86.4555 121.002 87.0245C122.383 87.7533 122.319 88.7308 124.372 88.7308C126.425 88.7308 126.37 87.7535 127.751 87.0245C128.829 86.4555 129.492 86.2826 129.492 85.4203C129.492 84.3864 128.789 84.3213 127.751 83.4406C126.978 82.7846 126.787 81.194 126.787 79.6866C126.787 77.7733 126.646 75.1431 128.101 73.9018C129.308 72.8723 131.582 72.7583 131.582 72.7583L130.012 69.9001ZM124.372 55.07L123.416 57.7835L120.813 56.5461L122.051 59.1486L119.337 60.1126L122.051 61.0768L120.813 63.6706L123.416 62.4335L124.372 65.1466L125.336 62.4335L127.938 63.6706L126.701 61.0768L129.414 60.1126L126.701 59.1486L127.938 56.5461L125.336 57.7835L124.372 55.07ZM118.51 70.3183C118.51 70.3183 115.112 69.4876 113.843 67.8098C112.43 69.0443 110.769 69.961 108.971 70.4975C108.971 70.4975 111.739 71.7471 113.843 73.3388C114.812 71.9495 118.51 70.3183 118.51 70.3183Z" fill="black"/>
<path d="M130.242 70.3186C130.242 70.3186 133.94 71.9496 134.909 73.3391C137.013 71.7474 139.781 70.4977 139.781 70.4977C137.984 69.9611 136.322 69.0446 134.909 67.8101C133.64 69.4877 130.242 70.3186 130.242 70.3186ZM119.902 73.9352L118.579 75.2576L119.902 76.5801L121.224 75.2576L119.902 73.9352ZM128.852 73.9352L127.53 75.2576L128.852 76.5801L130.175 75.2576L128.852 73.9352ZM119.569 81.6569C119.584 82.5102 119.53 83.3636 119.407 84.2081C119.407 84.2081 121.271 83.6592 121.643 81.7679C121.817 80.8812 122.011 77.6149 121.114 77.0581L118.682 76.5802C119.27 78.2081 119.57 79.926 119.569 81.6569H119.569ZM127.64 77.0582C126.743 77.6149 126.937 80.8812 127.111 81.7681C127.482 83.6594 129.347 84.2082 129.347 84.2082C129.223 83.3637 129.169 82.5104 129.185 81.6571C129.183 79.9261 129.484 78.2082 130.072 76.5802L127.64 77.0582ZM113.836 77.1527C113.004 77.3527 112.492 78.1887 112.692 79.0202C112.725 79.1578 112.777 79.2902 112.846 79.4137C112.722 79.3719 112.593 79.3461 112.462 79.3369C112.408 79.3341 112.354 79.3341 112.3 79.3369C112.086 79.3445 111.875 79.3962 111.682 79.4886C111.488 79.5811 111.316 79.7123 111.175 79.8742C111.034 80.0361 110.928 80.2252 110.864 80.4298C110.799 80.6343 110.777 80.85 110.799 81.0634C110.822 81.2767 110.888 81.4832 110.993 81.67C111.098 81.8569 111.241 82.02 111.412 82.1494C111.583 82.2787 111.779 82.3715 111.988 82.422C112.196 82.4724 112.413 82.4795 112.624 82.4427C112.548 82.5454 112.485 82.6571 112.437 82.7754C112.28 83.1604 112.282 83.592 112.444 83.9752C112.605 84.3584 112.912 84.6619 113.297 84.8191C113.682 84.9759 114.113 84.9735 114.496 84.8123C114.88 84.6511 115.183 84.3443 115.34 83.9594L115.346 83.9446C115.393 83.8267 115.424 83.7034 115.44 83.5776C115.516 83.682 115.605 83.7766 115.705 83.8591C116.36 84.4234 117.348 84.3499 117.913 83.6949C118.477 83.0399 118.403 82.0514 117.748 81.4869C117.641 81.3945 117.522 81.3171 117.394 81.2567C117.517 81.2174 117.634 81.163 117.744 81.0947C118.096 80.8721 118.345 80.5192 118.438 80.1131C118.531 79.707 118.459 79.2808 118.238 78.9274C117.934 78.4412 117.386 78.1624 116.814 78.2022C116.553 78.2199 116.301 78.3021 116.08 78.4412C115.971 78.5082 115.871 78.5884 115.781 78.6801C115.779 78.2616 115.611 77.861 115.314 77.5664C115.017 77.2719 114.615 77.1074 114.196 77.1092C114.075 77.1097 113.954 77.1244 113.836 77.1526V77.1527ZM130.473 81.7086C130.642 83.3064 131.941 84.6451 133.544 85.0276C133.266 84.5797 133.091 84.0755 133.032 83.5516C132.832 81.6566 134.297 80.1214 136.3 80.1214C136.611 80.1219 136.92 80.1591 137.222 80.2326C136.475 79.0242 135.161 78.2834 133.74 78.2701C131.737 78.2701 130.272 79.8137 130.473 81.7084V81.7086Z" fill="black"/>
<path d="M116.266 62.2806C116.266 65.3019 117.877 67.0841 120.029 67.0841C120.439 67.0841 120.888 67.6388 121.275 67.6388C121.905 67.6388 122.325 66.9391 122.708 66.9391C123.196 66.9391 123.525 67.707 124.372 67.707C125.219 67.707 125.557 66.9391 126.044 66.9391C126.428 66.9391 126.847 67.6388 127.478 67.6388C127.865 67.6388 128.313 67.0841 128.724 67.0841C130.875 67.0841 132.487 65.3019 132.487 62.2806C132.487 59.8166 130.417 56.8123 130.644 56.325C130.644 56.325 134.679 59.2198 134.679 62.6303C134.679 68.1241 129.108 69.4818 129.108 69.4818L130.362 72.3058C130.362 72.3058 128.635 72.5648 127.58 73.4151C126.174 74.5493 126.155 77.6136 126.155 79.6861C126.155 82.1275 126.246 83.162 127.128 83.8243C128.058 84.5231 128.758 84.6736 128.758 85.3858C128.758 86.0063 128.034 86.2601 127.094 86.6741C126.025 87.1453 125.918 87.9626 124.372 87.9626C122.826 87.9626 122.728 87.1453 121.659 86.6741C120.719 86.2601 119.995 86.0065 119.995 85.3858C119.995 84.6736 120.694 84.5231 121.624 83.8243C122.506 83.162 122.597 82.1275 122.597 79.6861C122.597 77.6136 122.579 74.5493 121.172 73.4151C120.118 72.5644 118.391 72.3058 118.391 72.3058L119.645 69.4818C119.645 69.4818 114.073 68.1243 114.073 62.6303C114.073 59.2198 118.109 56.325 118.109 56.325C118.335 56.8123 116.266 59.8166 116.266 62.2806ZM122.264 84.9683C121.17 84.9683 120.473 85.1993 120.473 85.5315C120.473 85.8636 121.17 86.0861 122.264 86.0861C122.556 86.0861 122.887 85.9163 122.887 85.5315C122.884 85.3781 122.819 85.2325 122.708 85.1266C122.597 85.0207 122.449 84.9632 122.296 84.9668C122.285 84.967 122.275 84.9675 122.264 84.9683ZM126.488 84.9683C126.412 84.9624 126.336 84.9715 126.264 84.9951C126.192 85.0186 126.125 85.0562 126.067 85.1056C126.009 85.155 125.962 85.2153 125.927 85.283C125.893 85.3507 125.872 85.4246 125.866 85.5003C125.866 85.5107 125.865 85.5211 125.865 85.5315C125.865 85.9163 126.196 86.0861 126.488 86.0861C127.583 86.0861 128.28 85.864 128.28 85.5315C128.28 85.199 127.582 84.9683 126.488 84.9683ZM124.381 56.8966L124.995 58.6289L126.651 57.8354L125.866 59.4991L127.589 60.1136L125.866 60.728L126.651 62.3831L124.995 61.5981L124.373 63.3216L123.758 61.5981L122.103 62.3831L122.888 60.728L121.165 60.1136L122.888 59.4991L122.103 57.8354L123.758 58.6289L124.381 56.8966ZM110.59 70.5464C110.59 70.5464 112.692 71.5931 113.748 72.526L113.807 72.5771L113.841 72.5346C114.839 71.3895 116.691 70.4186 116.691 70.4186C116.691 70.4186 114.911 69.9278 113.79 68.644C112.605 69.852 110.59 70.5464 110.59 70.5464ZM138.159 70.5491C138.159 70.5491 136.058 71.5958 135.002 72.5286L134.943 72.5798L134.909 72.5373C133.911 71.3921 132.059 70.4213 132.059 70.4213C132.059 70.4213 133.838 69.9305 134.96 68.6466C136.145 69.8546 138.159 70.5491 138.159 70.5491ZM119.901 74.5666L120.592 75.2575L119.901 75.9573L119.201 75.2575L119.901 74.5666ZM128.851 74.5666L129.551 75.2575L128.851 75.9573L128.16 75.2575L128.851 74.5666ZM120.84 77.5865C121.323 78.2528 121.241 79.3301 121.241 80.8289C121.255 81.2469 121.158 81.661 120.958 82.0285C120.758 82.3961 120.464 82.7035 120.106 82.9191C120.106 79.2868 119.732 78.4135 119.534 77.3135L120.84 77.5865ZM129.218 77.3133C129.02 78.4136 128.646 79.2868 128.646 82.919C128.288 82.7034 127.994 82.3959 127.794 82.0284C127.595 81.6609 127.497 81.2467 127.511 80.8288C127.511 79.3299 127.429 78.253 127.913 77.5865L129.218 77.3133ZM115.473 78.6879C115.504 78.8192 115.513 78.9549 115.498 79.0891C115.487 79.1945 115.461 79.2978 115.422 79.3961C114.738 79.1538 113.976 79.3494 113.493 79.8911C113.408 79.8165 113.333 79.7303 113.272 79.6351C113.198 79.5255 113.143 79.4044 113.11 79.2768C113.032 78.9633 113.082 78.6319 113.248 78.3552C113.415 78.0786 113.685 77.8794 113.998 77.8014C114.311 77.7239 114.642 77.7736 114.919 77.9398C115.195 78.106 115.395 78.375 115.473 78.6879ZM117.292 80.9643C117.177 81.0346 117.05 81.0847 116.918 81.1124C116.815 81.1343 116.708 81.1418 116.603 81.1345C116.622 80.4095 116.2 79.7448 115.536 79.4535C115.58 79.3491 115.639 79.2515 115.711 79.1634C115.793 79.0596 115.891 78.9701 116.002 78.8984C116.276 78.7275 116.606 78.6723 116.921 78.745C117.236 78.8177 117.508 79.0123 117.68 79.2861C117.851 79.5601 117.906 79.8907 117.833 80.2054C117.76 80.52 117.566 80.7929 117.292 80.9641V80.9643ZM115.689 83.3976C115.587 83.3098 115.5 83.2051 115.433 83.0881C115.38 82.9963 115.34 82.8975 115.314 82.7946C116.01 82.5888 116.511 81.9825 116.583 81.2608C116.696 81.2709 116.807 81.2968 116.913 81.3376C117.037 81.3831 117.153 81.4489 117.255 81.5321C117.502 81.7405 117.656 82.0383 117.683 82.36C117.71 82.6818 117.609 83.0012 117.4 83.2481C117.193 83.494 116.896 83.6477 116.576 83.6757C116.255 83.7037 115.936 83.6038 115.689 83.3976ZM112.88 82.6253C112.931 82.5007 113.004 82.3859 113.095 82.2858C113.166 82.2071 113.247 82.1387 113.337 82.0824C113.748 82.6803 114.48 82.9701 115.188 82.8155C115.214 82.926 115.223 83.0395 115.217 83.1528C115.212 83.2847 115.185 83.4149 115.138 83.5379C115.016 83.8372 114.781 84.0761 114.484 84.202C114.186 84.328 113.851 84.3307 113.552 84.2096C113.253 84.0884 113.014 83.8534 112.888 83.5564C112.762 83.2593 112.759 82.9244 112.88 82.6251V82.6253ZM112.746 79.7146C112.88 79.7254 113.012 79.7591 113.135 79.8143C113.232 79.8576 113.322 79.9139 113.404 79.9821C112.962 80.5575 112.912 81.343 113.278 81.9691C113.181 82.0273 113.076 82.0716 112.966 82.1008C112.839 82.1368 112.707 82.1515 112.576 82.1443C112.253 82.1213 111.954 81.9713 111.742 81.7274C111.53 81.4835 111.424 81.1656 111.447 80.8435C111.47 80.5217 111.62 80.2222 111.863 80.0106C112.107 79.799 112.424 79.6926 112.746 79.7148V79.7146Z" fill="#FFD200"/>
<path d="M114.816 82.2554C115.466 82.2554 115.993 81.7282 115.993 81.0779C115.993 80.4276 115.466 79.9004 114.816 79.9004C114.165 79.9004 113.638 80.4276 113.638 81.0779C113.638 81.7282 114.165 82.2554 114.816 82.2554Z" fill="#FFD200"/>
<path d="M135.489 79.4903C133.534 79.8683 132.127 81.5949 132.331 83.6114C131.708 83.0954 131.253 82.4004 131.171 81.6319C131.013 80.1354 132.1 78.9783 133.739 78.9783C134.358 78.9838 134.964 79.1611 135.489 79.4903Z" fill="#FFD200"/>
<path d="M141.368 53.6695H107.376C107.827 54.1234 108.399 54.8474 108.399 55.5977V78.4645H108.398V81.9289H108.399C108.394 82.2002 108.437 82.4702 108.528 82.726C108.615 82.9529 108.737 83.1649 108.889 83.3547L108.895 83.3629C109.227 83.7852 109.612 84.1626 110.04 84.4855C110.138 84.5617 110.236 84.6357 110.336 84.7077C110.436 84.779 110.537 84.8479 110.639 84.9145L110.642 84.9162C112.451 86.0905 115.238 87.3254 117.77 88.4469L119.752 89.3322L119.753 89.3332V89.333L119.81 89.3585H119.81C122.128 90.4127 123.162 90.8832 124.372 92.3004C125.585 90.8779 126.615 90.4092 128.954 89.3454L128.954 89.345L128.981 89.3329L130.964 88.4477C133.496 87.3262 136.283 86.0914 138.092 84.9167L138.094 84.9157C138.601 84.5855 139.071 84.2009 139.495 83.7685C139.561 83.6997 139.626 83.6288 139.688 83.556C139.743 83.491 139.794 83.4262 139.839 83.363L139.843 83.359L139.844 83.3579L139.846 83.3547C139.999 83.164 140.123 82.9513 140.213 82.7239C140.305 82.4692 140.35 82.1997 140.345 81.9289H140.346V78.4645H140.345V55.5977C140.345 54.8474 140.917 54.1235 141.368 53.6695ZM140.874 55.5977V78.4645H140.873V81.9289H140.874C140.879 82.2634 140.822 82.5959 140.707 82.9099C140.599 83.184 140.452 83.4404 140.268 83.6707L140.269 83.6712C140.213 83.7489 140.153 83.8243 140.091 83.8972C140.021 83.9785 139.95 84.0577 139.876 84.1347C139.424 84.5959 138.922 85.0062 138.381 85.3584L138.38 85.3594C136.531 86.5595 133.725 87.8025 131.177 88.9314L129.2 89.8147L129.173 89.8269H129.173C126.783 90.9137 125.806 91.3581 124.578 92.8792L124.372 93.134L124.166 92.8795C122.943 91.3654 121.96 90.9182 119.591 89.8406L119.592 89.8402L119.536 89.815L119.534 89.814L119.533 89.8137L119.533 89.8142L117.556 88.9307C115.008 87.8017 112.202 86.5589 110.354 85.3587L110.348 85.3545L110.346 85.3532C110.241 85.2855 110.135 85.2129 110.028 85.136C109.921 85.0592 109.817 84.981 109.716 84.9015C109.247 84.5472 108.826 84.1329 108.465 83.6694H108.465C108.282 83.4394 108.136 83.1827 108.031 82.9082C107.919 82.5942 107.864 82.2627 107.869 81.9292H107.87V78.4649H107.869V55.5977C107.869 54.6242 106.529 53.6187 106.525 53.6159V53.1404H142.218V53.6159C142.214 53.6187 140.874 54.6242 140.874 55.5977H140.874ZM140.074 53.9775L140.074 53.9765H140.2L140.748 53.9764L140.406 54.4057C140.157 54.7527 140.028 55.1711 140.038 55.5979V78.4647H140.037V81.929H140.038C140.038 82.3975 139.71 83.3022 138.166 84.4297L138.166 84.4302C137.878 84.641 137.544 84.8617 137.16 85.0907C136.774 85.321 136.342 85.5577 135.861 85.7979L135.86 85.797L135.855 85.7995V85.8005C133.792 86.8285 131.887 87.6642 130.242 88.3855C127.417 89.6244 125.37 90.5219 124.577 91.497L124.573 91.5022L124.572 91.5032L124.366 91.7432L124.167 91.4979C123.374 90.522 121.328 89.6242 118.501 88.3849C116.857 87.6641 114.954 86.829 112.892 85.8022V85.8012L112.889 85.7994L112.888 85.8002C111.426 85.0717 110.464 84.4034 109.839 83.8294C109.724 83.7237 109.613 83.6137 109.506 83.4997C108.871 82.8175 108.707 82.2664 108.707 81.9295H108.706V81.9287H108.707V78.4644H108.706V55.5977C108.716 55.171 108.587 54.7526 108.338 54.4055L107.996 53.9775H109.132V53.9765H139.611V53.9775H140.073H140.074ZM139.611 54.5047V54.5057H109.133V54.5047H109.001C109.156 54.8483 109.236 55.2209 109.235 55.5977V78.4645H109.234V81.9289H109.235V81.9297H109.234C109.234 82.1675 109.37 82.5777 109.893 83.14C109.983 83.2367 110.084 83.3374 110.197 83.4409C110.788 83.9842 111.709 84.6219 113.125 85.3267V85.3277L113.128 85.3295L113.129 85.3287C115.202 86.3617 117.086 87.1879 118.712 87.901C121.402 89.0802 123.401 89.9574 124.372 90.9379C125.343 89.9574 127.343 89.0805 130.031 87.9015C131.659 87.1877 133.545 86.3607 135.62 85.3267L135.62 85.3275L135.625 85.3251V85.324C136.105 85.0849 136.525 84.8555 136.89 84.6377C137.258 84.4182 137.578 84.2064 137.854 84.0042H137.855C139.219 83.0085 139.509 82.2872 139.509 81.9287H139.51V78.4644H139.509V55.5977C139.508 55.2209 139.588 54.8483 139.743 54.5047H139.611Z" fill="black"/>
</g>
<defs>
<clipPath id="clip0_1284_64739">
<rect width="250" height="150" fill="white"/>
</clipPath>
</defs>
</svg>
