<svg width="250" height="150" viewBox="0 0 250 150" fill="none" xmlns="http://www.w3.org/2000/svg">
<g clip-path="url(#clip0_1284_64280)">
<path d="M0 0H250V150H0V0Z" fill="#C4272F"/>
<path d="M83.3203 0H166.68V150H83.3203V0Z" fill="#015197"/>
<path d="M41.6602 70.0312C47.7008 70.0312 52.5977 65.1344 52.5977 59.0938C52.5977 53.0531 47.7008 48.1562 41.6602 48.1562C35.6195 48.1562 30.7227 53.0531 30.7227 59.0938C30.7227 65.1344 35.6195 70.0312 41.6602 70.0312Z" fill="#F9CF02"/>
<path d="M41.6602 66.0625C48.2531 66.0625 53.5977 60.7179 53.5977 54.125C53.5977 47.5321 48.2531 42.1875 41.6602 42.1875C35.0673 42.1875 29.7227 47.5321 29.7227 54.125C29.7227 60.7179 35.0673 66.0625 41.6602 66.0625Z" fill="#C4272F"/>
<path fill-rule="evenodd" clip-rule="evenodd" d="M36.6914 41.1875C36.6914 42.5053 37.2149 43.7691 38.1467 44.7009C39.0785 45.6328 40.3424 46.1562 41.6602 46.1562C42.978 46.1562 44.2418 45.6328 45.1736 44.7009C46.1054 43.7691 46.6289 42.5053 46.6289 41.1875C46.6289 39.2188 45.3789 38.9375 45.3789 38.2188C45.3789 37.4688 46.1289 36.4687 44.6289 35.2187C45.3789 36.4687 44.1289 36.7187 44.1289 37.9687C44.1289 39.2187 44.6289 39.2188 44.6289 40.1875C44.5876 40.4185 44.4663 40.6276 44.2864 40.7783C44.1064 40.9289 43.8792 41.0114 43.6445 41.0114C43.4099 41.0114 43.1827 40.9289 43.0027 40.7783C42.8227 40.6276 42.7015 40.4185 42.6602 40.1875C42.6602 39.2188 43.6289 38.2187 43.6289 36.75C43.6289 35.2187 43.4102 34.7187 42.6602 33.5C41.9102 32.25 40.6602 31.25 41.6602 30.25C40.1602 30.75 40.9102 32.75 40.9102 34C40.9102 35.25 39.9102 35.9688 39.9102 37.4375C39.9102 38.9062 40.6602 39.2188 40.6602 40.1875C40.6188 40.4185 40.4976 40.6276 40.3176 40.7783C40.1377 40.9289 39.9105 41.0114 39.6758 41.0114C39.4411 41.0114 39.2139 40.9289 39.0339 40.7783C38.854 40.6276 38.7327 40.4185 38.6914 40.1875C38.6914 39.2188 39.1914 39.2187 39.1914 37.9687C39.1914 36.7187 37.9414 36.4687 38.6914 35.2187C37.1914 36.4687 37.9414 37.4688 37.9414 38.2188C37.9414 38.9688 36.6914 39.1875 36.6914 41.1875Z" fill="#F9CF02"/>
<path d="M41.6602 64.0312C46.0439 64.0312 49.5977 60.4775 49.5977 56.0937C49.5977 51.71 46.0439 48.1562 41.6602 48.1562C37.2764 48.1562 33.7227 51.71 33.7227 56.0937C33.7227 60.4775 37.2764 64.0312 41.6602 64.0312Z" fill="#F9CF02"/>
<path d="M19.7852 72V119.719H29.7227V72H19.7852ZM53.5977 72V119.719H63.5352V72H53.5977ZM31.7227 79.9688V83.9375H51.5977V79.9688H31.7227ZM31.7227 107.781V111.781H51.5977V107.812L31.7227 107.781ZM31.7227 72H51.5977L41.6602 77.9688L31.7227 72ZM31.7227 113.781H51.5977L41.6602 119.688L31.7227 113.781Z" fill="#F9CF02"/>
<path d="M41.6602 106.406C47.4764 106.406 52.1914 101.691 52.1914 95.875C52.1914 90.0587 47.4764 85.3438 41.6602 85.3438C35.8439 85.3438 31.1289 90.0587 31.1289 95.875C31.1289 101.691 35.8439 106.406 41.6602 106.406Z" fill="#F9CF02" stroke="#C4272F" stroke-width="1.2"/>
<path d="M41.6599 85.3125C43.0605 85.3125 44.4038 85.8689 45.3943 86.8593C46.3847 87.8498 46.9411 89.1931 46.9411 90.5937C46.9411 91.9944 46.3847 93.3377 45.3943 94.3282C44.4038 95.3186 43.0605 95.875 41.6599 95.875C40.9343 95.8191 40.2049 95.9137 39.5176 96.1529C38.8303 96.3922 38.1999 96.7709 37.6659 97.2653C37.1319 97.7598 36.7058 98.3592 36.4144 99.0261C36.1231 99.693 35.9727 100.413 35.9727 101.141C35.9727 101.868 36.1231 102.588 36.4144 103.255C36.7058 103.922 37.1319 104.521 37.6659 105.016C38.1999 105.51 38.8303 105.889 39.5176 106.128C40.2049 106.368 40.9343 106.462 41.6599 106.406" stroke="#C4272F" stroke-width="1.2"/>
<path d="M41.6602 92.5937C42.7647 92.5937 43.6602 91.6983 43.6602 90.5937C43.6602 89.4892 42.7647 88.5938 41.6602 88.5938C40.5556 88.5938 39.6602 89.4892 39.6602 90.5937C39.6602 91.6983 40.5556 92.5937 41.6602 92.5937Z" fill="#C4272F"/>
<path d="M41.6602 103.125C42.7647 103.125 43.6602 102.23 43.6602 101.125C43.6602 100.02 42.7647 99.125 41.6602 99.125C40.5556 99.125 39.6602 100.02 39.6602 101.125C39.6602 102.23 40.5556 103.125 41.6602 103.125Z" fill="#C4272F"/>
</g>
<defs>
<clipPath id="clip0_1284_64280">
<rect width="250" height="150" fill="white"/>
</clipPath>
</defs>
</svg>
