<svg width="250" height="150" viewBox="0 0 250 150" fill="none" xmlns="http://www.w3.org/2000/svg">
<g clip-path="url(#clip0_1284_64520)">
<mask id="mask0_1284_64520" style="mask-type:luminance" maskUnits="userSpaceOnUse" x="0" y="0" width="251" height="150">
<path d="M0 0H250.012V150H0V0Z" fill="white"/>
</mask>
<g mask="url(#mask0_1284_64520)">
<path fill-rule="evenodd" clip-rule="evenodd" d="M0 0H281.25V46.875H0V0Z" fill="#009A00"/>
<path fill-rule="evenodd" clip-rule="evenodd" d="M0 46.875H281.25V51.5625H0V46.875Z" fill="white"/>
<path fill-rule="evenodd" clip-rule="evenodd" d="M0 51.5625H281.25V98.4375H0V51.5625Z" fill="black"/>
<path fill-rule="evenodd" clip-rule="evenodd" d="M0 98.4375H281.25V103.125H0V98.4375Z" fill="white"/>
<path fill-rule="evenodd" clip-rule="evenodd" d="M0 103.125H281.25V150H0V103.125Z" fill="#FFCA00"/>
<path fill-rule="evenodd" clip-rule="evenodd" d="M0 0V150L98.4 75L0 0Z" fill="#FF0000"/>
<path fill-rule="evenodd" clip-rule="evenodd" d="M62.8825 97.5586L47.881 86.5723L32.8794 97.5586L38.7101 79.8926L23.6206 69.0234L42.2261 69.082L47.881 51.3867L53.5651 69.1113L72.1706 69.0234L57.0811 79.8926L62.8825 97.5586Z" fill="#FFCA00"/>
<path fill-rule="evenodd" clip-rule="evenodd" d="M34.8423 85.2246H45.6833C46.5623 86.1914 48.4668 86.6016 50.3127 85.2246C53.7114 83.3496 60.2746 85.2246 60.2746 85.2246L61.5638 83.8477L58.4287 73.5352L57.286 72.3047C57.286 72.3047 54.8541 70.8398 50.2541 71.3379C45.654 71.8359 44.0425 71.1914 44.0425 71.1914C44.0425 71.1914 40.0284 71.6602 38.8857 72.2461L37.5965 73.5352L34.8423 85.2246Z" fill="white" stroke="black" stroke-width="0.3" stroke-linecap="round" stroke-linejoin="round"/>
<path d="M37.04 82.5586C37.04 82.5586 47.3536 81.2695 50.3422 85.2246C48.6721 86.3965 47.1778 86.4844 45.5956 85.3125C45.83 84.873 49.2874 81.2695 58.1067 82.4707" stroke="black" stroke-width="0.3" stroke-linecap="round" stroke-linejoin="round"/>
<path d="M48.0859 72.2461L47.998 83.6133M57.2861 72.3926L59.2199 81.4453" stroke="black" stroke-width="0.3"/>
<path d="M39.003 72.2461L37.9189 76.9336" stroke="black" stroke-width="0.3" stroke-linecap="round" stroke-linejoin="round"/>
<path fill-rule="evenodd" clip-rule="evenodd" d="M27.8398 86.4551L30.3596 89.4434C30.6526 89.6191 30.9456 89.6191 31.2093 89.4434L34.9597 84.9316L36.5419 82.9688C36.8056 82.6758 36.8642 82.3535 36.8349 82.0898L39.8821 79.3652L40.5267 79.4238C40.2337 79.3652 40.0286 79.2187 40.2337 78.8965L40.9369 78.3691L41.4643 79.043C41.4643 79.043 40.7025 80.0391 40.6146 80.0391H39.7942L38.212 81.4746L38.9152 82.0605L39.9407 84.9316L41.2299 84.0234L40.4095 81.0937L42.1968 79.1309L41.5229 78.0762L41.9917 77.4902C41.9917 77.4902 48.2326 81.416 50.6645 80.3613C50.7231 80.3613 50.811 77.5488 50.811 77.5488C50.811 77.5488 44.3064 76.875 44.1599 75.5859C44.0134 74.2969 45.6249 74.1211 45.6249 74.1211L44.9217 73.1836L45.0682 72.6562L46.2109 74.0625L48.76 71.8945L63.8495 89.0625C64.6699 88.7402 64.8457 88.5352 64.9043 87.7148L50.1371 70.752L51.2505 69.5508C51.4849 69.2871 51.5435 69.1992 51.5435 68.7891L53.3015 67.2949C53.7618 67.4527 54.1546 67.7627 54.4149 68.1738L59.2201 64.1602C59.3373 64.2773 59.7182 64.3945 59.9819 64.2773L67.8636 56.6895L59.2787 62.7539L58.9857 62.5488C58.9857 62.2852 59.2787 62.2559 58.9857 61.7871C58.6341 61.377 58.136 62.168 58.0774 62.168C57.9895 62.168 56.8175 61.7578 56.5538 61.2305L56.4952 62.6074L54.2977 64.6582L52.6276 64.5703L50.225 66.9141L49.932 67.793L50.3129 68.584C50.3129 68.584 49.0237 69.6973 49.0237 69.6387C49.0237 69.5508 48.76 69.2871 48.7307 69.2578L49.8441 68.2617L49.9906 67.5879L49.639 67.002C49.5218 67.0898 48.1154 68.584 48.0275 68.4082L43.9255 63.8672L44.1599 63.0176L41.6108 60.2344C40.6732 59.9121 39.1789 59.8535 38.8859 61.9043C38.6515 62.373 36.7177 61.9629 36.7177 61.9629L35.6629 62.1973L29.6857 70.6055L32.9966 74.5898L39.7942 66.0059L39.9993 63.5742L41.4057 65.1562C41.9038 65.2148 42.3433 65.2441 42.7828 65.0098L46.7969 69.4922L46.123 70.166L46.709 70.8105L47.4122 70.3418L47.6759 70.7227C47.3536 70.8984 47.0899 71.1621 46.7676 71.3379C46.2402 70.9863 45.7128 70.5469 45.7421 69.873L43.486 71.748L43.3981 72.0996L36.6884 77.666L36.1024 77.7539L35.9559 79.5117L40.3216 75.8789V75.3516L40.7611 75.7324L44.1599 73.0078C44.1599 73.0078 44.3943 73.3008 44.3064 73.3008C44.2185 73.3008 41.2885 76.0254 41.2885 76.0254L41.2299 76.3184L40.7025 76.7871L40.4095 76.5527L36.3075 80.1855H35.7215L33.4654 82.4414C32.8794 82.5 32.3813 82.5586 31.8832 82.8809L27.8398 86.4551Z" fill="black" stroke="black" stroke-width="0.3" stroke-linecap="round" stroke-linejoin="round"/>
</g>
</g>
<defs>
<clipPath id="clip0_1284_64520">
<rect width="250" height="150" fill="white"/>
</clipPath>
</defs>
</svg>
