<svg width="250" height="150" viewBox="0 0 250 150" fill="none" xmlns="http://www.w3.org/2000/svg">
<g clip-path="url(#clip0_1284_64700)">
<mask id="mask0_1284_64700" style="mask-type:luminance" maskUnits="userSpaceOnUse" x="0" y="0" width="250" height="150">
<path d="M0 0H250V150H0V0Z" fill="white"/>
</mask>
<g mask="url(#mask0_1284_64700)">
<path fill-rule="evenodd" clip-rule="evenodd" d="M0 0H250V150H0V0Z" fill="white"/>
<path fill-rule="evenodd" clip-rule="evenodd" d="M-10.3125 0.0625L-10 108.062L200.195 0L-10.3125 0.0625Z" fill="#3662A2"/>
<path fill-rule="evenodd" clip-rule="evenodd" d="M260.313 149.875L259.766 37.5938L47.7734 149.938L260.273 149.875H260.313Z" fill="#38A100"/>
<path fill-rule="evenodd" clip-rule="evenodd" d="M-10.1562 116.188L-10 150L35.8984 149.969L259.922 29.8125L259.648 0.40625L214.336 0.09375L-10.1562 116.156V116.188Z" fill="#C70000"/>
<path fill-rule="evenodd" clip-rule="evenodd" d="M66.9678 57L60.1555 52.875L56.2181 59.7812L52.4057 52.8438L45.5309 56.875L45.7184 48.9375L37.7812 49L41.906 42.1875L35 38.2812L41.9373 34.4375L37.9374 27.5625L45.8747 27.75L45.8434 19.7813L52.6245 23.9062L56.5619 17L60.3743 23.9375L67.2491 19.9062L67.0616 27.8437L74.9988 27.7812L70.874 34.5938L77.78 38.5L70.8427 42.3438L74.8426 49.2188L66.9053 49.0312L66.9678 57Z" fill="#FFE700"/>
<path fill-rule="evenodd" clip-rule="evenodd" d="M70.9679 38.375C70.9679 46.375 64.4368 52.8438 56.4058 52.8438C48.3748 52.8438 41.8438 46.375 41.8438 38.375C41.8438 30.375 48.3436 23.9375 56.4058 23.9375C64.4681 23.9375 70.9679 30.4063 70.9679 38.375Z" fill="#3662A2"/>
<path fill-rule="evenodd" clip-rule="evenodd" d="M67.8118 38.375C67.8118 41.4001 66.6101 44.3013 64.4711 46.4404C62.3321 48.5795 59.431 49.7812 56.4059 49.7812C53.3809 49.7812 50.4797 48.5795 48.3407 46.4404C46.2017 44.3013 45 41.4001 45 38.375C45 35.3499 46.2017 32.4486 48.3407 30.3096C50.4797 28.1705 53.3809 26.9688 56.4059 26.9688C59.431 26.9688 62.3321 28.1705 64.4711 30.3096C66.6101 32.4486 67.8118 35.3499 67.8118 38.375Z" fill="#FFE700"/>
</g>
</g>
<defs>
<clipPath id="clip0_1284_64700">
<rect width="250" height="150" fill="white"/>
</clipPath>
</defs>
</svg>
