<svg width="250" height="150" viewBox="0 0 250 150" fill="none" xmlns="http://www.w3.org/2000/svg">
<g clip-path="url(#clip0_1284_64828)">
<path d="M0 0H250V150H0V0Z" fill="white"/>
<path fill-rule="evenodd" clip-rule="evenodd" d="M2.38086 148.096H113.357L40.7303 74.4434L116.111 74.5312L2.41016 1.9043V148.096H2.38086Z" fill="#CE0000" stroke="#000063" stroke-width="2.5"/>
<path fill-rule="evenodd" clip-rule="evenodd" d="M53.4158 108.926L45.5057 111.562L51.7166 117.363L43.367 116.836L46.7948 124.512L39.3241 120.908L39.4706 129.287L33.9628 123.164L30.828 130.957L28.1327 123.252L22.1855 129.287L22.7128 121.172L14.832 124.512L18.5234 117.188L9.93945 117.363L16.2382 112.002L8.24023 108.926L16.1504 106.289L9.91015 100.488L18.2304 101.016L14.832 93.3398L22.332 96.9434L22.1855 88.5644L27.6933 94.6875L30.828 86.8945L33.494 94.5996L39.4706 88.5644L38.9139 96.6797L46.8241 93.3398L43.1034 100.664L51.7166 100.488L45.4178 105.85L53.4158 108.926ZM43.9237 54.8145L40.6131 57.2754L42.2538 58.623C46.1038 55.9337 49.2003 52.3026 51.2479 48.0762C51.7752 54.3164 46.0623 68.291 31.121 68.4375C28.3901 68.4723 25.6793 67.966 23.1451 66.9476C20.6109 65.9293 18.3035 64.4191 16.356 62.5043C14.4085 60.5895 12.8595 58.308 11.7984 55.7914C10.7374 53.2748 10.1852 50.5729 10.1738 47.8418C13.1035 53.1738 14.9199 55.752 19.5488 58.5352L20.9257 57.2461L17.8203 54.6387L21.8339 53.584L19.666 49.9512L23.8847 50.2441L23.3574 46.0254L27.0487 48.1934L28.2206 44.2383L30.8573 47.4023L33.3476 44.3848L34.6952 48.4863L38.1522 46.084L37.7128 50.2734L41.8729 49.7754L39.91 53.6426L43.9237 54.8145Z" fill="white"/>
</g>
<defs>
<clipPath id="clip0_1284_64828">
<rect width="250" height="150" fill="white"/>
</clipPath>
</defs>
</svg>
