<svg width="250" height="150" viewBox="0 0 250 150" fill="none" xmlns="http://www.w3.org/2000/svg">
<g clip-path="url(#clip0_1284_65313)">
<path fill-rule="evenodd" clip-rule="evenodd" d="M0 0H250V150H0V0Z" fill="#00247D"/>
<path d="M182.482 103.868L182.068 102.35L181.53 103.829L179.65 109H174H172.195L173.743 109.929L178.36 112.699L176.045 117.793L175.288 119.459L176.787 118.41L181.484 115.121L185.693 118.395L187.063 119.46L186.47 117.829L184.611 112.717L189.257 109.929L190.805 109H189H183.882L182.482 103.868Z" fill="#CC142B" stroke="white"/>
<path d="M153.415 57.8671L153.001 56.366L152.464 57.8275L150.851 62.2143H146H144.178L145.745 63.1443L149.691 65.486L147.712 69.7912L146.95 71.4507L148.451 70.4111L152.484 67.6189L156.095 70.3963L157.466 71.451L156.869 69.8275L155.279 65.5035L159.255 63.1443L160.822 62.2143H159H154.614L153.415 57.8671Z" fill="#CC142B" stroke="white"/>
<path d="M182.415 29.8671L182.001 28.366L181.464 29.8275L179.851 34.2143H175H173.178L174.745 35.1443L178.691 37.486L176.712 41.7912L175.95 43.4507L177.451 42.4111L181.484 39.6189L185.095 42.3963L186.466 43.451L185.869 41.8275L184.279 37.5035L188.255 35.1443L189.822 34.2143H188H183.614L182.415 29.8671Z" fill="#CC142B" stroke="white"/>
<path d="M208.415 51.8671L208.001 50.366L207.464 51.8275L205.851 56.2143H201H199.178L200.745 57.1443L204.691 59.486L202.712 63.7912L201.95 65.4507L203.451 64.4111L207.484 61.6189L211.095 64.3963L212.466 65.451L211.869 63.8275L210.279 59.5035L214.255 57.1443L215.822 56.2143H214H209.614L208.415 51.8671Z" fill="#CC142B" stroke="white"/>
<path d="M11.7188 0L49.8438 28.2812L87.8125 0H100V9.6875L62.5 37.6562L100 65.4688V75H87.5L50 47.0312L12.6562 75H0V65.625L37.3438 37.8125L0 10V0H11.7188Z" fill="white"/>
<path d="M66.25 43.9062L100 68.75V75L57.6562 43.9062H66.25ZM37.5 47.0312L38.4375 52.5L8.4375 75H0L37.5 47.0312ZM100 0V0.46875L61.0938 29.8438L61.4062 22.9688L92.1875 0H100ZM0 0L37.3438 27.5H27.9688L0 6.5625V0Z" fill="#C8102E"/>
<path d="M37.6562 0V75H62.6562V0H37.6562ZM0 25V50H100V25H0Z" fill="white"/>
<path d="M0 30.1562V45.1562H100V30.1562H0ZM42.6562 0V75H57.6562V0H42.6562Z" fill="#C8102E"/>
</g>
<defs>
<clipPath id="clip0_1284_65313">
<rect width="250" height="150" fill="white"/>
</clipPath>
</defs>
</svg>
