<svg width="250" height="150" viewBox="0 0 250 150" fill="none" xmlns="http://www.w3.org/2000/svg">
<g clip-path="url(#clip0_1284_65460)">
<path d="M0 0H250V150H0V0Z" fill="#0067C6"/>
<path d="M0 50H250V100H0V50Z" fill="white"/>
<path d="M103 74.8438L105.5 75V74.625L104.562 74.5625L104.625 73.375L105.656 72.625L105.688 72.1562L104.594 72.9375C104.563 72.6875 104.406 72.4062 104.156 72.3125C103.906 72.25 103.656 72.25 103.437 72.4062C103.187 72.5938 103.125 72.9062 103.125 73.1875L103 74.8438ZM103.375 74.5L103.469 73.25C103.5 73.0625 103.531 72.8125 103.719 72.6875C103.758 72.661 103.804 72.6439 103.851 72.6375C103.898 72.6311 103.946 72.6356 103.991 72.6507C104.037 72.6658 104.078 72.691 104.112 72.7245C104.146 72.758 104.172 72.7987 104.188 72.8438C104.313 73.1563 104.25 73.5 104.219 73.8438L104.188 74.5312L103.375 74.5ZM103.312 71L105.75 71.5625L106.313 69.1875C106.198 69.167 106.083 69.1462 105.969 69.125L105.5 71.125L104.75 70.9688L105.188 69.1562L104.844 69.0625L104.406 70.875L103.781 70.7188L104.219 68.7813L103.844 68.7187L103.312 71ZM104.188 67.7187L106.562 68.5625L106.687 68.2188L105.75 67.9063L106.125 66.8125C106.188 66.5 106.25 66.1875 106.094 65.875C106.021 65.778 105.927 65.6992 105.818 65.645C105.71 65.5907 105.59 65.5625 105.469 65.5625C105.156 65.5625 104.969 65.7813 104.844 66.0313C104.656 66.3438 104.531 66.7187 104.438 67.0937L104.188 67.7187ZM104.656 67.5L105.031 66.4375C105.125 66.25 105.219 66.0313 105.438 65.9688C105.481 65.9597 105.526 65.9601 105.569 65.9697C105.612 65.9794 105.653 65.9981 105.688 66.0247C105.724 66.0513 105.753 66.0852 105.775 66.124C105.796 66.1629 105.809 66.2058 105.812 66.25C105.875 66.5625 105.719 66.875 105.625 67.1875L105.406 67.7812L104.656 67.5ZM105.5 64.6875L106.844 65.5C107.094 65.625 107.406 65.6875 107.688 65.5625C108.026 65.3327 108.288 65.0059 108.437 64.625C108.562 64.3125 108.688 63.9375 108.5 63.625C108.313 63.3125 107.969 63.1875 107.656 63L106.813 62.5L106.625 62.8125L107.875 63.5625C108.094 63.6875 108.25 63.875 108.219 64.1563C108.156 64.4424 108.028 64.7099 107.844 64.9375C107.719 65.125 107.469 65.2813 107.219 65.25C106.969 65.1875 106.75 65 106.531 64.875L105.688 64.4063L105.5 64.7188V64.6875ZM107.312 61.7812L109.281 63.2812L110.219 62.0937C110.406 61.8125 110.531 61.4687 110.437 61.1562C110.379 61.036 110.291 60.9326 110.182 60.856C110.073 60.7794 109.945 60.7322 109.812 60.7188C109.656 60.7188 109.5 60.8125 109.438 60.8437C109.5 60.5625 109.281 60.3125 109.062 60.25C108.75 60.1563 108.437 60.3438 108.25 60.5625L107.625 61.3438L107.312 61.7812ZM107.812 61.6875C108.031 61.375 108.25 61.0625 108.5 60.8125C108.625 60.6875 108.813 60.5 108.969 60.625C109.125 60.6875 109.188 60.9063 109.094 61.0313C108.969 61.3125 108.781 61.5 108.594 61.75L108.344 62.0937L107.812 61.6875ZM108.625 62.3125L109.344 61.375C109.469 61.25 109.656 61.0625 109.844 61.125C110.031 61.1563 110.156 61.3437 110.094 61.5312C110 61.8437 109.75 62.0938 109.531 62.375L109.219 62.7812L108.594 62.3125H108.625ZM109.562 59.125L111.281 60.9375L112.75 59.5312L112.5 59.2812L111.313 60.4063H111.281L109.812 58.8438L109.562 59.125ZM111.75 57.1875L113.281 59.1563L113.594 58.9375L112.031 56.9688L111.75 57.1875ZM114 55.6563C113.756 55.7996 113.543 55.9909 113.375 56.2187C113.233 56.4067 113.154 56.6345 113.148 56.87C113.142 57.1054 113.211 57.3367 113.344 57.5313C113.465 57.73 113.638 57.8921 113.844 58C114.036 58.101 114.253 58.1445 114.469 58.125C114.77 58.0852 115.058 57.9784 115.312 57.8125C115.573 57.6634 115.788 57.4477 115.937 57.1875C116.062 56.9375 116.094 56.6875 116.031 56.4375L115.719 56.5625C115.781 57.0625 115.469 57.3125 115.094 57.5C114.531 57.875 114 57.8438 113.656 57.3438C113.313 56.75 113.656 56.2813 114.156 55.9688C114.5 55.75 114.844 55.5938 115.156 55.8125L115.437 55.5625C115.256 55.4319 115.036 55.3659 114.812 55.375C114.531 55.375 114.281 55.5 114 55.6875V55.6563ZM116.969 54.1875L116.687 57L117.094 56.8437L117.156 55.9688L118.406 55.4688L119.094 56.0313L119.469 55.875L117.344 54.0312L116.969 54.1875ZM117.281 54.5L118.125 55.1875L117.187 55.5625L117.281 54.4688V54.5ZM122.438 52.625L122.594 55.125L123.938 55.0625C124.312 55 124.688 54.9375 124.906 54.625C125.219 54.3125 125.281 53.7812 125.125 53.3437C125.066 53.1538 124.956 52.9836 124.807 52.8515C124.659 52.7193 124.477 52.6302 124.281 52.5938C123.906 52.5313 123.531 52.5938 123.156 52.5938L122.438 52.6562V52.625ZM122.812 52.9688L123.906 52.9375C124.106 52.9284 124.303 52.9831 124.469 53.0937C124.719 53.2812 124.875 53.5625 124.844 53.875C124.83 54.0494 124.763 54.2152 124.651 54.3496C124.539 54.4839 124.388 54.5802 124.219 54.625C124.031 54.6875 123.812 54.6875 123.625 54.7188L122.937 54.75L122.812 52.9688ZM125.937 52.5L125.781 55L128.219 55.125V54.7813L126.156 54.6562L126.188 53.9062L128.063 54V53.6562L126.219 53.5625L126.25 52.875L128.25 53V52.625L125.906 52.5H125.937ZM132.438 53.5313L131.531 55.875L131.844 56L132.594 54.125V54.0625L132.656 54.1563L133.531 56.6563L133.938 56.8125L134.844 54.4688L134.531 54.3437L133.813 56.2187L133.781 56.2813L133.719 56.1875L132.875 53.6875L132.438 53.5313ZM135.812 55L134.656 57.1875L134.344 57.0312L135.469 54.8125L135.812 55ZM137.688 56.0938C137.46 55.9416 137.206 55.8354 136.938 55.7812C136.706 55.7157 136.46 55.7258 136.235 55.8102C136.011 55.8945 135.819 56.0486 135.688 56.25C135.567 56.4478 135.502 56.6746 135.5 56.9063C135.5 57.125 135.531 57.3437 135.688 57.5625C135.813 57.7812 136 57.9687 136.312 58.1875C136.564 58.3586 136.854 58.4659 137.156 58.5C137.404 58.5069 137.646 58.4298 137.844 58.2812L137.594 58C137.156 58.3125 136.813 58.0937 136.469 57.875C135.906 57.5 135.688 57 136.031 56.4687C136.406 55.9062 137 56.0625 137.5 56.375C137.812 56.5937 138.125 56.8438 138.063 57.2188L138.375 57.3438C138.412 57.1308 138.379 56.9115 138.281 56.7188C138.156 56.4688 137.969 56.2812 137.688 56.0938ZM140.062 57.875L137.469 58.9375L137.781 59.2188L138.594 58.9062L139.625 59.7813L139.406 60.625L139.719 60.9062L140.375 58.1563L140.062 57.875ZM139.969 58.3125L139.719 59.375L138.938 58.75L139.969 58.3125ZM141.969 59.625L140.031 61.1875L140.25 61.5L141.031 60.875L141.781 61.8125L141.562 63.0625L141.844 63.4062L142.094 62.0937C142.312 62.25 142.625 62.3438 142.875 62.2188C143.094 62.0938 143.312 61.9063 143.312 61.6563C143.312 61.3125 143.094 61.0312 142.906 60.7812L141.969 59.625ZM141.906 60.125L142.719 61.125C142.844 61.3125 143 61.5625 142.844 61.75C142.75 61.9375 142.5 61.9375 142.344 61.8125C142.031 61.5938 141.844 61.2812 141.594 61L141.281 60.6563L141.906 60.125ZM144.875 63.5938L142.062 63.7187L142.281 64.0938L143.156 64.0625L143.844 65.25L143.344 65.9688L143.562 66.3438L145.094 63.9687L144.875 63.5938ZM144.656 63.9687L144.031 64.9062L143.562 64.0312L144.656 63.9687ZM146.5 66.9063C146.344 66.5 146.094 66.0625 145.656 65.8437C145.42 65.7345 145.154 65.706 144.9 65.7624C144.646 65.8189 144.418 65.9572 144.25 66.1562C143.938 66.4687 143.937 66.9375 144.031 67.375C144.125 67.8438 144.344 68.3125 144.656 68.6562L144.469 68.7187L144.594 69.0625L145.781 68.6562L145.312 67.375L145.062 67.4687L145.375 68.4062L145 68.5625C144.661 68.2462 144.431 67.8304 144.344 67.375C144.25 67.0313 144.25 66.625 144.5 66.375C144.812 66.0625 145.312 65.9687 145.656 66.2187C146 66.4687 146.188 66.875 146.281 67.2813C146.375 67.5625 146.344 67.875 146.156 68.0937C146.094 68.0937 146.156 68.1875 146.188 68.2188L146.281 68.375C146.387 68.2941 146.473 68.1902 146.533 68.071C146.592 67.9519 146.624 67.8207 146.625 67.6875C146.631 67.4217 146.589 67.1569 146.5 66.9063ZM147.219 68.875L145.812 69.125C145.597 69.1564 145.392 69.2425 145.219 69.375C145.083 69.4972 144.995 69.6631 144.969 69.8438V70.5937C145.062 70.9062 145.156 71.125 145.281 71.3125C145.375 71.5 145.5 71.625 145.656 71.625C145.861 71.6779 146.076 71.6779 146.281 71.625L147.688 71.375L147.625 71.0312L146.25 71.2813C145.625 71.4063 145.438 71.0937 145.312 70.5312C145.219 69.9688 145.312 69.5937 145.906 69.5L147.281 69.2188L147.219 68.875ZM147.969 73.125L145.375 72L145.406 72.4375L146.219 72.75L146.312 74.125L145.563 74.5938L145.594 75L148 73.5312L147.969 73.125ZM147.594 73.3438L146.656 73.9375L146.594 72.9375L147.594 73.3438ZM104.937 79.5938L104.562 79.6875L104.969 81.2187L105.344 81.125L104.937 79.5938ZM146.062 79.5938L146.438 79.6875L146.031 81.2187L145.656 81.125L146.062 79.5938ZM108.813 86L106 86.3125L106.25 86.6562L107.125 86.5625L107.875 87.6875L107.438 88.4688L107.688 88.7812L109.031 86.3437L108.813 86ZM108.594 86.4062L108.063 87.3438L107.5 86.5312L108.594 86.4062ZM109.875 87.5312L108.094 89.1875L108.344 89.4375L109.844 88.0313L109.031 90.2188L109.344 90.5L111.469 89.875L110 91.2188L110.25 91.4688L112.031 89.8125L111.656 89.4375L109.469 90.0625L110.281 87.9688L109.875 87.5312ZM112.469 90.1562L110.969 92.1875L112.906 93.625L113.125 93.3438L111.469 92.0938L111.938 91.4688L113.406 92.625L113.625 92.3125L112.156 91.2188L112.563 90.6875L114.125 91.875L114.344 91.5625L112.469 90.1562ZM114.906 91.9687L113.75 94.1562L114.062 94.3438L114.531 93.4688L115.594 94.0312L115.844 95.2812L116.25 95.5L115.969 94.1875C116.25 94.2812 116.594 94.2187 116.75 94C116.906 93.8125 117.031 93.5938 116.938 93.3438C116.875 93.0313 116.531 92.8438 116.281 92.6875L114.906 91.9687ZM115.063 92.4375L116.188 93.0625C116.375 93.1875 116.594 93.3438 116.562 93.5625C116.562 93.7812 116.344 93.875 116.156 93.8437C115.781 93.7812 115.469 93.5625 115.156 93.4062L114.687 93.1562L115.063 92.4375ZM117.75 93.4375L116.813 95.75L117.125 95.9062L118.063 93.5938L117.75 93.4375ZM120 94.2188C119.74 94.1238 119.464 94.0813 119.187 94.0938C118.947 94.0977 118.714 94.1787 118.522 94.325C118.331 94.4712 118.192 94.675 118.125 94.9063C118.068 95.1213 118.068 95.3475 118.125 95.5625C118.125 95.8125 118.25 96 118.437 96.1875C118.653 96.3787 118.91 96.5178 119.187 96.5938C119.478 96.697 119.792 96.7186 120.094 96.6562C120.34 96.6088 120.561 96.476 120.719 96.2812L120.406 96.0938C120.094 96.5 119.688 96.4062 119.281 96.25C118.656 96.0312 118.313 95.625 118.5 95C118.719 94.375 119.344 94.375 119.875 94.5312C120.25 94.6562 120.594 94.8438 120.625 95.1875L121 95.25C120.983 95.015 120.883 94.7937 120.719 94.625C120.517 94.4322 120.27 94.2926 120 94.2188ZM122.5 94.7812L120.875 97.0625L121.281 97.125L121.781 96.4062L123.156 96.625L123.437 97.4375L123.844 97.5L122.906 94.8438L122.5 94.7812ZM122.656 95.1875L123.031 96.25L122.031 96.0938L122.656 95.1875ZM128.375 94.8125C128.063 94.8438 127.844 94.9375 127.625 95.0937C127.418 95.2141 127.256 95.3971 127.16 95.6163C127.065 95.8354 127.041 96.0793 127.094 96.3125C127.125 96.5313 127.219 96.7188 127.406 96.9375C127.531 97.0938 127.719 97.1875 127.969 97.25C128.187 97.3125 128.5 97.3125 128.844 97.25C129.156 97.1875 129.469 97.0625 129.656 96.875C129.839 96.7125 129.961 96.4917 130 96.25H129.625C129.531 96.75 129.156 96.875 128.75 96.9375C128.094 97.0625 127.594 96.8438 127.469 96.2188C127.344 95.5625 127.875 95.25 128.406 95.125C128.812 95.0625 129.188 95.0312 129.406 95.3438L129.719 95.2188C129.601 95.0319 129.426 94.889 129.219 94.8125C128.942 94.7411 128.652 94.7411 128.375 94.8125ZM130.031 94.5L130.75 96.9062L133.094 96.2188L132.969 95.875L131 96.4688L130.781 95.7187L132.563 95.1875L132.469 94.875L130.688 95.375L130.5 94.75L132.375 94.1875L132.281 93.8437L130.031 94.5ZM132.75 93.6563L133.781 95.9375L134.094 95.7812L133.219 93.9062L135.656 95H135.812L136.125 94.8438L135.062 92.5625L134.75 92.7188L135.625 94.5938L133.125 93.4688L132.75 93.6563ZM135.5 92.375L135.688 92.6875L136.562 92.0625H136.625L137.781 93.8437L138.094 93.625L136.938 91.875V91.8438L137.844 91.2188L137.656 90.9375L135.5 92.375ZM138 90.625L139.688 92.5L139.969 92.2188L139.313 91.5L140.188 90.6875L141.438 90.875L141.813 90.5625L140.469 90.375C140.625 90.1563 140.688 89.8125 140.531 89.5625C140.406 89.3438 140.219 89.1562 139.938 89.1875C139.625 89.1875 139.312 89.4375 139.094 89.625L138 90.6562V90.625ZM138.5 90.6562L139.438 89.7812C139.625 89.6562 139.875 89.5 140.062 89.625C140.281 89.7187 140.281 89.9688 140.156 90.125C139.969 90.4375 139.688 90.6562 139.406 90.9375L139.062 91.25L138.5 90.625V90.6562ZM140.906 87.7188L142.031 90.3125L142.281 90L141.969 89.1875L142.812 88.125L143.656 88.3125L143.938 88L141.188 87.375L140.906 87.7188ZM141.344 87.8125L142.438 88.0313L141.813 88.8125L141.344 87.8125ZM142 86.3125L144.094 87.6562L145.188 85.9688L144.875 85.7812L144.031 87.125L144 87.1875H143.969L142.188 86L142 86.3125Z" fill="#C8A400"/>
<mask id="mask0_1284_65460" style="mask-type:luminance" maskUnits="userSpaceOnUse" x="109" y="56" width="33" height="29">
<path d="M125.5 56.6001L109.575 84.1751H141.425L125.5 56.6001Z" fill="white"/>
</mask>
<g mask="url(#mask0_1284_65460)">
<path d="M125.5 56.6001L117.625 70.2251L113.775 76.9001H137.225L133.55 70.5501L125.5 56.6001Z" fill="white"/>
<path opacity="0.6" d="M125.499 56.6001L124.899 57.6001L125.499 71.3501L126.099 57.6001L125.499 56.6001Z" fill="#17C0EB" stroke="#17C0EB" stroke-width="0.03"/>
<path d="M125.5 69.375H125.475L125.5 70.125L125.525 69.375H125.5Z" fill="white"/>
<path opacity="0.6" d="M139.516 66.8957L138.349 66.5361L125.558 71.2811L138.79 67.85L139.516 66.8957Z" fill="#17C0EB" stroke="#17C0EB" stroke-width="0.03"/>
<path d="M127.401 70.7609L127.392 70.7334L126.69 70.9852L127.41 70.7885L127.401 70.7609Z" fill="white"/>
<path opacity="0.6" d="M134.212 83.3503L134.077 82.2075L125.485 71.3733L133.164 82.869L134.212 83.3503Z" fill="#17C0EB" stroke="#17C0EB" stroke-width="0.03"/>
<path d="M126.675 72.994L126.694 72.9802L126.232 72.3854L126.656 73.0078L126.675 72.994Z" fill="white"/>
<path opacity="0.6" d="M116.787 83.3502L117.835 82.8689L125.514 71.3733L116.922 82.2075L116.787 83.3502Z" fill="#17C0EB" stroke="#17C0EB" stroke-width="0.03"/>
<path d="M124.323 72.994L124.342 73.0078L124.766 72.3854L124.304 72.9803L124.323 72.994Z" fill="white"/>
<path opacity="0.6" d="M111.483 66.8958L112.209 67.85L125.441 71.2811L112.65 66.5361L111.483 66.8958Z" fill="#17C0EB" stroke="#17C0EB" stroke-width="0.03"/>
<path d="M123.599 70.7608L123.59 70.7883L124.309 70.9851L123.608 70.7333L123.599 70.7608Z" fill="white"/>
<path opacity="0.6" d="M127.657 56.7235L127.012 57.6534L125.401 71.3707L127.997 57.7797L127.657 56.7235Z" fill="#17C0EB" stroke="#17C0EB" stroke-width="0.03"/>
<path d="M125.782 69.3937L125.762 69.3911L125.669 70.1381L125.802 69.3964L125.782 69.3937Z" fill="white"/>
<path opacity="0.6" d="M140.041 68.8663L138.946 68.3844L125.531 71.3138L139.17 69.68L140.041 68.8663Z" fill="#17C0EB" stroke="#17C0EB" stroke-width="0.03"/>
<path d="M127.469 71.0303L127.464 71.0032L126.731 71.1555L127.473 71.0575L127.469 71.0303Z" fill="white"/>
<path opacity="0.6" d="M132.461 84.4404L132.492 83.2928L125.484 71.3773L131.485 83.8166L132.461 84.4404Z" fill="#17C0EB" stroke="#17C0EB" stroke-width="0.03"/>
<path d="M126.438 73.1418L126.459 73.1309L126.084 72.4779L126.417 73.1527L126.438 73.1418Z" fill="white"/>
<path opacity="0.6" d="M115.209 82.0255L116.312 81.6981L125.509 71.3715L115.503 80.9082L115.209 82.0255Z" fill="#17C0EB" stroke="#17C0EB" stroke-width="0.03"/>
<path d="M124.109 72.8149L124.126 72.8313L124.632 72.2735L124.092 72.7984L124.109 72.8149Z" fill="white"/>
<path opacity="0.6" d="M112.27 64.9834L112.848 66.0347L125.425 71.2789L113.476 64.7857L112.27 64.9834Z" fill="#17C0EB" stroke="#17C0EB" stroke-width="0.03"/>
<path d="M123.704 70.5019L123.69 70.5281L124.373 70.8234L123.717 70.4758L123.704 70.5019Z" fill="white"/>
<path opacity="0.6" d="M129.665 57.1404L128.892 57.9724L125.415 71.3826L129.861 58.2396L129.665 57.1404Z" fill="#17C0EB" stroke="#17C0EB" stroke-width="0.03"/>
<path d="M126.055 69.4511L126.035 69.4456L125.841 70.1747L126.075 69.4567L126.055 69.4511Z" fill="white"/>
<path opacity="0.6" d="M140.267 70.7926L139.286 70.3037L125.522 71.441L139.249 71.3693L140.267 70.7926Z" fill="#17C0EB" stroke="#17C0EB" stroke-width="0.03"/>
<path d="M127.498 71.3021L127.499 71.2803L126.749 71.3346L127.497 71.324L127.498 71.3021Z" fill="white"/>
<path opacity="0.6" d="M130.567 85.2733L130.773 84.1409L125.494 71.3839L129.674 84.5224L130.567 85.2733Z" fill="#17C0EB" stroke="#17C0EB" stroke-width="0.03"/>
<path d="M126.185 73.2548L126.208 73.2468L125.927 72.5488L126.162 73.2627L126.185 73.2548Z" fill="white"/>
<path opacity="0.6" d="M113.833 80.492L114.971 80.3256L125.503 71.3695L114.278 79.4215L113.833 80.492Z" fill="#17C0EB" stroke="#17C0EB" stroke-width="0.03"/>
<path d="M123.923 72.6072L123.938 72.626L124.516 72.1437L123.909 72.5883L123.923 72.6072Z" fill="white"/>
<path opacity="0.6" d="M113.306 63.1828L113.737 64.2999L125.424 71.291L114.518 63.1652L113.306 63.1828Z" fill="#17C0EB" stroke="#17C0EB" stroke-width="0.03"/>
<path d="M123.843 70.2595L123.827 70.2832L124.461 70.6729L123.86 70.2358L123.843 70.2595Z" fill="white"/>
<path opacity="0.6" d="M131.579 57.8425L130.684 58.5516L125.44 71.387L131.641 58.97L131.579 57.8425Z" fill="#17C0EB" stroke="#17C0EB" stroke-width="0.03"/>
<path d="M126.317 69.5466L126.297 69.5378L126.006 70.2346L126.337 69.5553L126.317 69.5466Z" fill="white"/>
<path opacity="0.6" d="M140.178 72.7589L139.263 71.9189L125.539 71.538L139.107 73.4333L140.178 72.7589Z" fill="#17C0EB" stroke="#17C0EB" stroke-width="0.03"/>
<path d="M127.487 71.5767L127.49 71.5444L126.742 71.5132L127.484 71.609L127.487 71.5767Z" fill="white"/>
<path opacity="0.6" d="M128.552 85.8334L128.953 84.7359L125.524 71.3933L127.74 84.9729L128.552 85.8334Z" fill="#17C0EB" stroke="#17C0EB" stroke-width="0.03"/>
<path d="M125.914 73.3316L125.939 73.3267L125.76 72.5975L125.889 73.3365L125.914 73.3316Z" fill="white"/>
<path opacity="0.6" d="M112.688 78.782L113.838 78.7796L125.497 71.3683L113.274 77.7791L112.688 78.782Z" fill="#17C0EB" stroke="#17C0EB" stroke-width="0.03"/>
<path d="M123.768 72.3759L123.779 72.3967L124.419 71.9993L123.756 72.3551L123.768 72.3759Z" fill="white"/>
<path opacity="0.6" d="M114.569 61.5377L114.855 62.6952L125.432 71.3091L115.756 61.7051L114.569 61.5377Z" fill="#17C0EB" stroke="#17C0EB" stroke-width="0.03"/>
<path d="M124.015 70.0387L123.996 70.0593L124.568 70.5363L124.034 70.018L124.015 70.0387Z" fill="white"/>
<path opacity="0.6" d="M133.372 58.8163L132.37 59.379L125.47 71.3824L133.302 59.9575L133.372 58.8163Z" fill="#17C0EB" stroke="#17C0EB" stroke-width="0.03"/>
<path d="M126.561 69.6776L126.542 69.6655L126.16 70.316L126.581 69.6896L126.561 69.6776Z" fill="white"/>
<path opacity="0.6" d="M139.82 74.8942L139.012 74.0224L125.538 71.4362L138.692 75.2971L139.82 74.8942Z" fill="#17C0EB" stroke="#17C0EB" stroke-width="0.03"/>
<path d="M127.44 71.8565L127.446 71.8298L126.713 71.6799L127.433 71.8832L127.44 71.8565Z" fill="white"/>
<path opacity="0.6" d="M126.368 86.1098L127.081 85.0669L125.664 71.4038L125.559 85.1587L126.368 86.1098Z" fill="#17C0EB" stroke="#17C0EB" stroke-width="0.03"/>
<path d="M125.631 73.3698L125.664 73.3679L125.595 72.622L125.599 73.3717L125.631 73.3698Z" fill="white"/>
<path opacity="0.6" d="M111.79 76.927L112.932 77.0891L125.489 71.3671L112.505 76.0109L111.79 76.927Z" fill="#17C0EB" stroke="#17C0EB" stroke-width="0.03"/>
<path d="M123.646 72.1248L123.655 72.1472L124.343 71.8423L123.638 72.1023L123.646 72.1248Z" fill="white"/>
<path opacity="0.6" d="M116.037 60.0848L116.181 61.2608L125.449 71.3278L117.17 60.4332L116.037 60.0848Z" fill="#17C0EB" stroke="#17C0EB" stroke-width="0.03"/>
<path d="M124.216 69.8441L124.195 69.8613L124.695 70.4162L124.237 69.8268L124.216 69.8441Z" fill="white"/>
<path opacity="0.6" d="M135.013 60.043L133.924 60.4388L125.5 71.3693L134.812 61.1829L135.013 60.043Z" fill="#17C0EB" stroke="#17C0EB" stroke-width="0.03"/>
<path d="M126.786 69.8422L126.768 69.8267L126.303 70.4178L126.805 69.8577L126.786 69.8422Z" fill="white"/>
<path opacity="0.6" d="M139.191 76.8923L138.498 75.9466L125.531 71.4012L138.033 77.0935L139.191 76.8923Z" fill="#17C0EB" stroke="#17C0EB" stroke-width="0.03"/>
<path d="M127.354 72.1233L127.363 72.0994L126.659 71.8438L127.344 72.1472L127.354 72.1233Z" fill="white"/>
<path opacity="0.6" d="M124.433 86.1214L125.07 85.1569L125.533 71.3919L123.945 85.0886L124.433 86.1214Z" fill="#17C0EB" stroke="#17C0EB" stroke-width="0.03"/>
<path d="M125.359 73.3702L125.382 73.3716L125.414 72.6213L125.335 73.3687L125.359 73.3702Z" fill="white"/>
<path opacity="0.6" d="M111.158 74.9608L112.27 75.288L125.479 71.3695L111.989 74.1465L111.158 74.9608Z" fill="#17C0EB" stroke="#17C0EB" stroke-width="0.03"/>
<path d="M123.559 71.8593L123.564 71.8831L124.287 71.6769L123.553 71.8355L123.559 71.8593Z" fill="white"/>
<path opacity="0.6" d="M117.685 58.8546L117.689 60.0289L125.471 71.3441L118.736 59.3737L117.685 58.8546Z" fill="#17C0EB" stroke="#17C0EB" stroke-width="0.03"/>
<path d="M124.44 69.6792L124.418 69.6929L124.836 70.3144L124.462 69.6656L124.44 69.6792Z" fill="white"/>
<path opacity="0.6" d="M136.47 61.4981L135.318 61.7106L125.526 71.3488L136.138 62.6213L136.47 61.4981Z" fill="#17C0EB" stroke="#17C0EB" stroke-width="0.03"/>
<path d="M126.985 70.037L126.968 70.0181L126.428 70.5381L127.002 70.056L126.985 70.037Z" fill="white"/>
<path opacity="0.6" d="M138.3 78.7713L137.728 77.7593L125.515 71.3788L137.139 78.7809L138.3 78.7713Z" fill="#17C0EB" stroke="#17C0EB" stroke-width="0.03"/>
<path d="M127.232 72.3753L127.244 72.354L126.582 71.9995L127.22 72.3966L127.232 72.3753Z" fill="white"/>
<path opacity="0.6" d="M122.436 85.8247L123.239 84.9738L125.485 71.4015L122.047 84.7198L122.436 85.8247Z" fill="#17C0EB" stroke="#17C0EB" stroke-width="0.03"/>
<path d="M125.084 73.3311L125.108 73.3364L125.239 72.5977L125.059 73.3258L125.084 73.3311Z" fill="white"/>
<path opacity="0.6" d="M110.808 72.9L111.868 73.4142L125.472 71.397L111.737 72.182L110.808 72.9Z" fill="#17C0EB" stroke="#17C0EB" stroke-width="0.03"/>
<path d="M123.51 71.5831L123.513 71.6089L124.256 71.5065L123.507 71.5574L123.51 71.5831Z" fill="white"/>
<path opacity="0.6" d="M119.481 57.8725L119.35 59.0258L125.499 71.3573L120.427 58.5477L119.481 57.8725Z" fill="#17C0EB" stroke="#17C0EB" stroke-width="0.03"/>
<path d="M124.686 69.5477L124.664 69.5576L124.992 70.2332L124.709 69.5377L124.686 69.5477Z" fill="white"/>
<path opacity="0.6" d="M137.72 63.1518L136.531 63.1697L125.547 71.3226L137.258 64.2418L137.72 63.1518Z" fill="#17C0EB" stroke="#17C0EB" stroke-width="0.03"/>
<path d="M127.157 70.2585L127.142 70.2361L126.537 70.6746L127.172 70.2808L127.157 70.2585Z" fill="white"/>
<path opacity="0.6" d="M137.166 80.4989L136.721 79.4341L125.496 71.3633L136.029 80.325L137.166 80.4989Z" fill="#17C0EB" stroke="#17C0EB" stroke-width="0.03"/>
<path d="M127.076 72.6077L127.091 72.5891L126.483 72.1436L127.062 72.6262L127.076 72.6077Z" fill="white"/>
<path opacity="0.6" d="M120.467 85.2534L121.39 84.5254L125.472 71.4044L120.222 84.1036L120.467 85.2534Z" fill="#17C0EB" stroke="#17C0EB" stroke-width="0.03"/>
<path d="M124.816 73.2541L124.841 73.2629L125.071 72.5499L124.792 73.2454L124.816 73.2541Z" fill="white"/>
<path opacity="0.6" d="M110.717 70.7781L111.722 71.3425L125.493 71.459L111.715 70.3059L110.717 70.7781Z" fill="#17C0EB" stroke="#17C0EB" stroke-width="0.03"/>
<path d="M123.501 71.3016L123.501 71.3228L124.252 71.3354L123.501 71.2804L123.501 71.3016Z" fill="white"/>
<path opacity="0.6" d="M121.388 57.1568L121.13 58.27L125.53 71.3664L122.207 57.9702L121.388 57.1568Z" fill="#17C0EB" stroke="#17C0EB" stroke-width="0.03"/>
<path d="M124.946 69.4518L124.924 69.458L125.156 70.174L124.969 69.4455L124.946 69.4518Z" fill="white"/>
<path opacity="0.6" d="M138.74 64.9691L137.544 64.7879L125.561 71.2937L138.149 66.0078L138.74 64.9691Z" fill="#17C0EB" stroke="#17C0EB" stroke-width="0.03"/>
<path d="M127.296 70.5016L127.283 70.4761L126.625 70.8243L127.308 70.5271L127.296 70.5016Z" fill="white"/>
<path opacity="0.6" d="M135.807 82.0423L135.495 80.9397L125.474 71.3544L134.718 81.6956L135.807 82.0423Z" fill="#17C0EB" stroke="#17C0EB" stroke-width="0.03"/>
<path d="M126.892 72.8155L126.908 72.7998L126.367 72.2728L126.876 72.8313L126.892 72.8155Z" fill="white"/>
<path opacity="0.6" d="M118.589 84.4117L119.61 83.8207L125.464 71.4063L118.5 83.2392L118.589 84.4117Z" fill="#17C0EB" stroke="#17C0EB" stroke-width="0.03"/>
<path d="M124.562 73.1407L124.585 73.1528L124.912 72.4793L124.539 73.1286L124.562 73.1407Z" fill="white"/>
<path opacity="0.6" d="M110.935 68.8015L111.831 69.559L125.489 71.379L112.012 68.3934L110.935 68.8015Z" fill="#17C0EB" stroke="#17C0EB" stroke-width="0.03"/>
<path d="M123.529 71.0275L123.525 71.0518L124.269 71.1584L123.533 71.0032L123.529 71.0275Z" fill="white"/>
<path opacity="0.6" d="M123.367 56.7206L122.999 57.7742L125.574 71.3737L124.033 57.6538L123.367 56.7206Z" fill="#17C0EB" stroke="#17C0EB" stroke-width="0.03"/>
<path d="M125.219 69.3937L125.197 69.3962L125.33 70.1384L125.24 69.3912L125.219 69.3937Z" fill="white"/>
<path d="M125.5 66.45C122.837 66.4469 120.263 67.4057 118.25 69.15L114.6 75.5C114.47 76.1839 114.403 76.8786 114.4 77.575H115.65C115.778 75.0517 116.87 72.6737 118.701 70.9328C120.531 69.1919 122.961 68.221 125.488 68.221C128.014 68.221 130.444 69.1919 132.275 70.9328C134.106 72.6737 135.198 75.0517 135.325 77.575H136.575C136.581 76.8794 136.523 76.1847 136.4 75.5L132.75 69.15C130.737 67.4077 128.163 66.4492 125.5 66.45Z" fill="#FF0000"/>
<path d="M125.501 66.6751C122.675 66.6691 119.959 67.763 117.926 69.7251L114.926 74.9501C114.713 75.8005 114.604 76.6735 114.601 77.5501H115.676C115.853 75.0654 116.965 72.7402 118.788 71.0427C120.611 69.3452 123.01 68.4014 125.501 68.4014C127.992 68.4014 130.39 69.3452 132.213 71.0427C134.036 72.7402 135.148 75.0654 135.326 77.5501H136.401C136.398 76.6652 136.289 75.7838 136.076 74.9251L133.076 69.7251C131.043 67.763 128.326 66.6691 125.501 66.6751Z" fill="#FF6600"/>
<path d="M125.499 66.875C123.989 66.871 122.495 67.1876 121.115 67.8039C119.736 68.4201 118.504 69.3221 117.499 70.45L115.324 74.2C114.978 75.291 114.809 76.4305 114.824 77.575H115.649C115.776 75.0517 116.868 72.6738 118.699 70.9329C120.53 69.1919 122.96 68.2211 125.487 68.2211C128.013 68.2211 130.443 69.1919 132.274 70.9329C134.105 72.6738 135.197 75.0517 135.324 77.575H136.199C136.199 76.4 135.999 75.275 135.674 74.225L133.474 70.45C132.473 69.324 131.245 68.4231 129.87 67.8068C128.496 67.1905 127.006 66.873 125.499 66.875Z" fill="#FFFF00"/>
<path d="M125.5 67.075C123.776 67.0741 122.078 67.4979 120.556 68.3089C119.034 69.1199 117.736 70.2931 116.775 71.725L116.075 72.95C115.367 74.3888 114.999 75.9713 115 77.575H115.675C115.852 75.0904 116.965 72.7652 118.788 71.0677C120.611 69.3702 123.009 68.4264 125.5 68.4264C127.991 68.4264 130.389 69.3702 132.212 71.0677C134.035 72.7652 135.148 75.0904 135.325 77.575H136C136.001 75.9713 135.633 74.3888 134.925 72.95L134.225 71.7C133.264 70.2681 131.966 69.0949 130.444 68.2839C128.922 67.4729 127.224 67.0491 125.5 67.0501V67.075Z" fill="#00FF00"/>
<path d="M125.499 67.25C124.145 67.25 122.803 67.5172 121.552 68.0364C120.301 68.5556 119.164 69.3165 118.207 70.2756C117.25 71.2347 116.492 72.3731 115.976 73.6257C115.46 74.8782 115.196 76.2203 115.199 77.575H115.674C115.852 75.0903 116.964 72.7652 118.787 71.0676C120.61 69.3701 123.008 68.4263 125.499 68.4263C127.99 68.4263 130.389 69.3701 132.212 71.0676C134.035 72.7652 135.147 75.0903 135.324 77.575H135.799C135.803 76.2203 135.539 74.8782 135.022 73.6257C134.506 72.3731 133.748 71.2347 132.791 70.2756C131.835 69.3165 130.698 68.5556 129.447 68.0364C128.195 67.5172 126.854 67.25 125.499 67.25Z" fill="#00CCFF"/>
<path d="M125.5 67.45C122.822 67.45 120.253 68.5141 118.359 70.4082C116.464 72.3023 115.4 74.8713 115.4 77.55H115.75C115.75 74.9641 116.778 72.4841 118.606 70.6557C120.435 68.8272 122.915 67.8 125.5 67.8C128.086 67.8 130.566 68.8272 132.395 70.6557C134.223 72.4841 135.25 74.9641 135.25 77.55H135.6C135.587 74.8799 134.517 72.3238 132.625 70.4405C130.732 68.5572 128.17 67.4999 125.5 67.5V67.45Z" fill="#0000FF"/>
<path d="M125.5 67.6749C124.185 67.6747 122.883 67.9364 121.671 68.4449C120.458 68.9533 119.359 69.6982 118.437 70.6361C117.516 71.5741 116.79 72.6862 116.303 73.9076C115.816 75.129 115.577 76.4352 115.6 77.7499H115.8V77.5499C115.827 74.9773 116.874 72.5206 118.712 70.7203C120.55 68.9199 123.028 67.9234 125.6 67.9499C128.173 67.9764 130.629 69.0238 132.43 70.8617C134.23 72.6995 135.227 75.1773 135.2 77.7499H135.4V77.5499C135.4 76.2498 135.144 74.9625 134.647 73.7613C134.149 72.5602 133.42 71.4688 132.501 70.5495C131.581 69.6302 130.49 68.901 129.289 68.4035C128.088 67.906 126.8 67.6499 125.5 67.6499V67.6749Z" fill="#800080"/>
<path d="M125.6 72.025C125.425 72.025 125.3 71.9 125.15 71.875C125.077 71.9392 125.023 72.0217 124.992 72.1139C124.961 72.2061 124.956 72.3048 124.975 72.4C125.05 72.425 125.05 72.5 125.2 72.625C125.35 72.75 125.325 72.8 125.3 73.125C125.3 73.225 125.325 73.5 125.45 73.525C125.575 73.55 125.7 73.45 125.725 73.225C125.75 73.05 125.825 72.925 125.9 72.825C125.975 72.35 125.85 72.175 125.6 72.025Z" fill="#510000"/>
<path d="M124.8 70.8749C124.65 70.8749 124.4 71.1249 124.3 70.9999C124.25 70.9249 124.225 70.7749 124.3 70.6499C124.413 70.4012 124.607 70.1984 124.85 70.0749C125.425 69.7249 125.825 69.8249 126.1 70.3249C126.375 70.7749 126.65 71.2749 126.675 71.6749C126.675 71.7999 126.75 72.0249 126.625 72.1499C126.3 72.4999 125.475 71.7749 125 71.8999C124.85 71.9249 124.65 72.0499 124.5 71.9499C124.4 71.8749 124.5 71.6999 124.575 71.6249C124.725 71.4999 124.95 71.0249 124.925 70.8249C124.925 70.7249 124.925 70.8749 124.8 70.8749Z" fill="#FF0000"/>
<path d="M124.75 70.65C124.45 70.75 124.5 70.9 124.35 71.025C124.4 71.05 124.55 71.1 124.7 70.95C124.75 70.9 124.825 70.875 124.875 70.875L124.7 71.05C124.551 71.1723 124.432 71.326 124.35 71.5C124.275 71.7 124.25 71.925 124.275 71.95C124.275 71.95 124.375 72.15 124.65 72.25C125.15 72.45 125.25 72.875 125.775 72.875C126.175 72.875 126.125 72.6 126.45 72.65C126.7 72.7 126.875 72.475 126.6 72.35C126.154 72.2624 125.696 72.2624 125.25 72.35C125.15 71.35 125.25 71.7 125.225 71.25C125.2 70.825 125.05 70.8 125.225 70.425C125.1 70.675 124.925 70.625 124.725 70.625L124.75 70.65Z" fill="url(#paint0_linear_1284_65460)"/>
<path d="M125.751 69.95L125.726 70.1L125.801 70.35L125.851 70.6C125.851 70.675 125.951 70.7 126.026 70.75C126.126 70.825 126.026 71 126.101 71.025C126.151 71.025 126.226 70.775 126.226 70.725V70.55C126.186 70.4736 126.145 70.3985 126.101 70.325C126.085 70.2991 126.068 70.2741 126.051 70.25C125.995 70.1657 125.928 70.09 125.851 70.025C125.826 70.0072 125.801 69.9905 125.776 69.975L125.726 69.95H125.751Z" fill="#FF2A2A"/>
<path d="M125.824 71.85L125.324 71.675C124.999 71.575 124.674 71.375 124.449 71.475C124.374 71.5 124.375 71.575 124.35 71.7C124.35 71.825 124.225 72.025 124.35 71.95C124.5 71.85 124.95 72.15 125.1 72.225C125.175 72.275 125.35 72.375 125.375 72.475C125.425 72.625 125.375 72.925 125.375 73.075C125.375 73.2 125.425 73.525 125.55 73.575C125.7 73.6 125.825 73.475 125.875 73.25C125.95 73.025 125.974 72.9 126.074 72.775C126.174 72.65 126.275 72.575 126.4 72.55C126.55 72.55 126.75 72.675 126.75 72.5C126.75 72.4 126.649 72.3 126.699 72.15C126.724 72.025 126.6 72.05 126.475 72L125.8 71.85H125.824Z" fill="url(#paint1_linear_1284_65460)"/>
<path d="M125.1 72.2249C125 72.1749 124.525 71.8499 124.35 71.9749C124.275 71.9749 124.25 71.9749 124.25 71.8999L124.3 71.6749C124.3 71.5999 124.35 71.4749 124.425 71.4249C124.6 71.2749 125 71.5499 125.2 71.6249L125.1 72.2249Z" fill="#910000"/>
<path d="M125.95 72.85C126.175 72.45 126.325 72.5 126.6 72.5C126.7 72.5 126.725 72.425 126.7 72.325C126.625 72.475 126.275 72.325 126.075 72.4C125.7 72.575 125.775 73.325 125.575 73.4C125.775 73.575 125.85 72.975 125.95 72.85Z" fill="#FF3A3A"/>
<path d="M113.774 76.8999L111.274 81.2249H139.749L137.249 76.9249H113.799L113.774 76.8999Z" fill="white"/>
<path d="M112.924 80.3501C112.531 80.3494 112.139 80.3745 111.749 80.4251L111.624 80.6501C112.224 80.5751 112.799 80.4751 113.424 80.4751C114.224 80.4751 114.974 80.6751 115.849 80.6751H116.999C117.874 80.6751 118.599 80.4751 119.424 80.4751C120.249 80.4751 120.999 80.6751 121.874 80.6751H123.024C123.899 80.6751 124.624 80.4751 125.449 80.4751C126.274 80.4751 127.024 80.6751 127.899 80.6751H129.024C129.899 80.6751 130.649 80.4751 131.474 80.4751C132.299 80.4751 133.049 80.6751 133.924 80.6751H135.049C135.924 80.6751 136.674 80.4751 137.499 80.4751C138.149 80.4751 138.749 80.6001 139.374 80.6501L139.249 80.4001C138.884 80.3622 138.516 80.3455 138.149 80.3501H137.024C136.149 80.3501 135.399 80.5251 134.574 80.5501C133.749 80.5501 132.999 80.3501 132.124 80.3501H130.999C130.124 80.3501 129.374 80.5251 128.549 80.5501C127.724 80.5501 126.974 80.3501 126.099 80.3501H124.999C124.124 80.3501 123.374 80.5251 122.549 80.5501C121.724 80.5501 120.974 80.3501 120.099 80.3501H118.974C118.099 80.3501 117.349 80.5251 116.524 80.5501C115.699 80.5501 114.974 80.3501 114.099 80.3501H112.949H112.924Z" fill="url(#paint2_linear_1284_65460)"/>
<path d="M112.924 80.3501C112.531 80.3494 112.139 80.3745 111.749 80.4251L111.624 80.6501C112.224 80.5751 112.799 80.4751 113.424 80.4751C114.224 80.4751 114.974 80.6751 115.849 80.6751H116.999C117.874 80.6751 118.599 80.4751 119.424 80.4751C120.249 80.4751 120.999 80.6751 121.874 80.6751H123.024C123.899 80.6751 124.624 80.4751 125.449 80.4751C126.274 80.4751 127.024 80.6751 127.899 80.6751H129.024C129.899 80.6751 130.649 80.4751 131.474 80.4751C132.299 80.4751 133.049 80.6751 133.924 80.6751H135.049C135.924 80.6751 136.674 80.4751 137.499 80.4751C138.149 80.4751 138.749 80.6001 139.374 80.6501L139.249 80.4001C138.884 80.3622 138.516 80.3455 138.149 80.3501H137.024C136.149 80.3501 135.399 80.5251 134.574 80.5501C133.749 80.5501 132.999 80.3501 132.124 80.3501H130.999C130.124 80.3501 129.374 80.5251 128.549 80.5501C127.724 80.5501 126.974 80.3501 126.099 80.3501H124.999C124.124 80.3501 123.374 80.5251 122.549 80.5501C121.724 80.5501 120.974 80.3501 120.099 80.3501H118.974C118.099 80.3501 117.349 80.5251 116.524 80.5501C115.699 80.5501 114.974 80.3501 114.099 80.3501H112.949H112.924Z" fill="url(#paint3_linear_1284_65460)"/>
<path d="M112.924 80.3501C112.531 80.3494 112.139 80.3745 111.749 80.4251L111.624 80.6501C112.224 80.5751 112.799 80.4751 113.424 80.4751C114.224 80.4751 114.974 80.6751 115.849 80.6751H116.999C117.874 80.6751 118.599 80.4751 119.424 80.4751C120.249 80.4751 120.999 80.6751 121.874 80.6751H123.024C123.899 80.6751 124.624 80.4751 125.449 80.4751C126.274 80.4751 127.024 80.6751 127.899 80.6751H129.024C129.899 80.6751 130.649 80.4751 131.474 80.4751C132.299 80.4751 133.049 80.6751 133.924 80.6751H135.049C135.924 80.6751 136.674 80.4751 137.499 80.4751C138.149 80.4751 138.749 80.6001 139.374 80.6501L139.249 80.4001C138.884 80.3622 138.516 80.3455 138.149 80.3501H137.024C136.149 80.3501 135.399 80.5251 134.574 80.5501C133.749 80.5501 132.999 80.3501 132.124 80.3501H130.999C130.124 80.3501 129.374 80.5251 128.549 80.5501C127.724 80.5501 126.974 80.3501 126.099 80.3501H124.999C124.124 80.3501 123.374 80.5251 122.549 80.5501C121.724 80.5501 120.974 80.3501 120.099 80.3501H118.974C118.099 80.3501 117.349 80.5251 116.524 80.5501C115.699 80.5501 114.974 80.3501 114.099 80.3501H112.949H112.924Z" fill="url(#paint4_linear_1284_65460)"/>
<path d="M112.924 80.3501C112.531 80.3494 112.139 80.3745 111.749 80.4251L111.624 80.6501C112.224 80.5751 112.799 80.4751 113.424 80.4751C114.224 80.4751 114.974 80.6751 115.849 80.6751H116.999C117.874 80.6751 118.599 80.4751 119.424 80.4751C120.249 80.4751 120.999 80.6751 121.874 80.6751H123.024C123.899 80.6751 124.624 80.4751 125.449 80.4751C126.274 80.4751 127.024 80.6751 127.899 80.6751H129.024C129.899 80.6751 130.649 80.4751 131.474 80.4751C132.299 80.4751 133.049 80.6751 133.924 80.6751H135.049C135.924 80.6751 136.674 80.4751 137.499 80.4751C138.149 80.4751 138.749 80.6001 139.374 80.6501L139.249 80.4001C138.884 80.3622 138.516 80.3455 138.149 80.3501H137.024C136.149 80.3501 135.399 80.5251 134.574 80.5501C133.749 80.5501 132.999 80.3501 132.124 80.3501H130.999C130.124 80.3501 129.374 80.5251 128.549 80.5501C127.724 80.5501 126.974 80.3501 126.099 80.3501H124.999C124.124 80.3501 123.374 80.5251 122.549 80.5501C121.724 80.5501 120.974 80.3501 120.099 80.3501H118.974C118.099 80.3501 117.349 80.5251 116.524 80.5501C115.699 80.5501 114.974 80.3501 114.099 80.3501H112.949H112.924Z" fill="url(#paint5_linear_1284_65460)"/>
<path d="M112.924 80.3501C112.531 80.3494 112.139 80.3745 111.749 80.4251L111.624 80.6501C112.224 80.5751 112.799 80.4751 113.424 80.4751C114.224 80.4751 114.974 80.6751 115.849 80.6751H116.999C117.874 80.6751 118.599 80.4751 119.424 80.4751C120.249 80.4751 120.999 80.6751 121.874 80.6751H123.024C123.899 80.6751 124.624 80.4751 125.449 80.4751C126.274 80.4751 127.024 80.6751 127.899 80.6751H129.024C129.899 80.6751 130.649 80.4751 131.474 80.4751C132.299 80.4751 133.049 80.6751 133.924 80.6751H135.049C135.924 80.6751 136.674 80.4751 137.499 80.4751C138.149 80.4751 138.749 80.6001 139.374 80.6501L139.249 80.4001C138.884 80.3622 138.516 80.3455 138.149 80.3501H137.024C136.149 80.3501 135.399 80.5251 134.574 80.5501C133.749 80.5501 132.999 80.3501 132.124 80.3501H130.999C130.124 80.3501 129.374 80.5251 128.549 80.5501C127.724 80.5501 126.974 80.3501 126.099 80.3501H124.999C124.124 80.3501 123.374 80.5251 122.549 80.5501C121.724 80.5501 120.974 80.3501 120.099 80.3501H118.974C118.099 80.3501 117.349 80.5251 116.524 80.5501C115.699 80.5501 114.974 80.3501 114.099 80.3501H112.949H112.924Z" fill="url(#paint6_linear_1284_65460)"/>
<path d="M112.924 80.3501C112.531 80.3494 112.139 80.3745 111.749 80.4251L111.624 80.6501C112.224 80.5751 112.799 80.4751 113.424 80.4751C114.224 80.4751 114.974 80.6751 115.849 80.6751H116.999C117.874 80.6751 118.599 80.4751 119.424 80.4751C120.249 80.4751 120.999 80.6751 121.874 80.6751H123.024C123.899 80.6751 124.624 80.4751 125.449 80.4751C126.274 80.4751 127.024 80.6751 127.899 80.6751H129.024C129.899 80.6751 130.649 80.4751 131.474 80.4751C132.299 80.4751 133.049 80.6751 133.924 80.6751H135.049C135.924 80.6751 136.674 80.4751 137.499 80.4751C138.149 80.4751 138.749 80.6001 139.374 80.6501L139.249 80.4001C138.884 80.3622 138.516 80.3455 138.149 80.3501H137.024C136.149 80.3501 135.399 80.5251 134.574 80.5501C133.749 80.5501 132.999 80.3501 132.124 80.3501H130.999C130.124 80.3501 129.374 80.5251 128.549 80.5501C127.724 80.5501 126.974 80.3501 126.099 80.3501H124.999C124.124 80.3501 123.374 80.5251 122.549 80.5501C121.724 80.5501 120.974 80.3501 120.099 80.3501H118.974C118.099 80.3501 117.349 80.5251 116.524 80.5501C115.699 80.5501 114.974 80.3501 114.099 80.3501H112.949H112.924Z" fill="url(#paint7_linear_1284_65460)"/>
<path d="M112.924 80.3501C112.531 80.3494 112.139 80.3745 111.749 80.4251L111.624 80.6501C112.224 80.5751 112.799 80.4751 113.424 80.4751C114.224 80.4751 114.974 80.6751 115.849 80.6751H116.999C117.874 80.6751 118.599 80.4751 119.424 80.4751C120.249 80.4751 120.999 80.6751 121.874 80.6751H123.024C123.899 80.6751 124.624 80.4751 125.449 80.4751C126.274 80.4751 127.024 80.6751 127.899 80.6751H129.024C129.899 80.6751 130.649 80.4751 131.474 80.4751C132.299 80.4751 133.049 80.6751 133.924 80.6751H135.049C135.924 80.6751 136.674 80.4751 137.499 80.4751C138.149 80.4751 138.749 80.6001 139.374 80.6501L139.249 80.4001C138.884 80.3622 138.516 80.3455 138.149 80.3501H137.024C136.149 80.3501 135.399 80.5251 134.574 80.5501C133.749 80.5501 132.999 80.3501 132.124 80.3501H130.999C130.124 80.3501 129.374 80.5251 128.549 80.5501C127.724 80.5501 126.974 80.3501 126.099 80.3501H124.999C124.124 80.3501 123.374 80.5251 122.549 80.5501C121.724 80.5501 120.974 80.3501 120.099 80.3501H118.974C118.099 80.3501 117.349 80.5251 116.524 80.5501C115.699 80.5501 114.974 80.3501 114.099 80.3501H112.949H112.924Z" fill="url(#paint8_linear_1284_65460)"/>
<path d="M112.924 80.3501C112.531 80.3494 112.139 80.3745 111.749 80.4251L111.624 80.6501C112.224 80.5751 112.799 80.4751 113.424 80.4751C114.224 80.4751 114.974 80.6751 115.849 80.6751H116.999C117.874 80.6751 118.599 80.4751 119.424 80.4751C120.249 80.4751 120.999 80.6751 121.874 80.6751H123.024C123.899 80.6751 124.624 80.4751 125.449 80.4751C126.274 80.4751 127.024 80.6751 127.899 80.6751H129.024C129.899 80.6751 130.649 80.4751 131.474 80.4751C132.299 80.4751 133.049 80.6751 133.924 80.6751H135.049C135.924 80.6751 136.674 80.4751 137.499 80.4751C138.149 80.4751 138.749 80.6001 139.374 80.6501L139.249 80.4001C138.884 80.3622 138.516 80.3455 138.149 80.3501H137.024C136.149 80.3501 135.399 80.5251 134.574 80.5501C133.749 80.5501 132.999 80.3501 132.124 80.3501H130.999C130.124 80.3501 129.374 80.5251 128.549 80.5501C127.724 80.5501 126.974 80.3501 126.099 80.3501H124.999C124.124 80.3501 123.374 80.5251 122.549 80.5501C121.724 80.5501 120.974 80.3501 120.099 80.3501H118.974C118.099 80.3501 117.349 80.5251 116.524 80.5501C115.699 80.5501 114.974 80.3501 114.099 80.3501H112.949H112.924Z" fill="url(#paint9_linear_1284_65460)"/>
<path d="M112.924 80.3501C112.531 80.3494 112.139 80.3745 111.749 80.4251L111.624 80.6501C112.224 80.5751 112.799 80.4751 113.424 80.4751C114.224 80.4751 114.974 80.6751 115.849 80.6751H116.999C117.874 80.6751 118.599 80.4751 119.424 80.4751C120.249 80.4751 120.999 80.6751 121.874 80.6751H123.024C123.899 80.6751 124.624 80.4751 125.449 80.4751C126.274 80.4751 127.024 80.6751 127.899 80.6751H129.024C129.899 80.6751 130.649 80.4751 131.474 80.4751C132.299 80.4751 133.049 80.6751 133.924 80.6751H135.049C135.924 80.6751 136.674 80.4751 137.499 80.4751C138.149 80.4751 138.749 80.6001 139.374 80.6501L139.249 80.4001C138.884 80.3622 138.516 80.3455 138.149 80.3501H137.024C136.149 80.3501 135.399 80.5251 134.574 80.5501C133.749 80.5501 132.999 80.3501 132.124 80.3501H130.999C130.124 80.3501 129.374 80.5251 128.549 80.5501C127.724 80.5501 126.974 80.3501 126.099 80.3501H124.999C124.124 80.3501 123.374 80.5251 122.549 80.5501C121.724 80.5501 120.974 80.3501 120.099 80.3501H118.974C118.099 80.3501 117.349 80.5251 116.524 80.5501C115.699 80.5501 114.974 80.3501 114.099 80.3501H112.949H112.924Z" fill="url(#paint10_linear_1284_65460)"/>
<path d="M113.799 76.875V76.925H137.224L137.199 76.875H113.799ZM113.749 76.95L113.724 77.025H137.249L137.224 76.95H113.724H113.749ZM113.699 77.05L113.649 77.125H137.349L137.299 77.05H113.699ZM113.624 77.175L113.549 77.3H137.449L137.374 77.175H113.624ZM113.524 77.35L113.449 77.475H137.549L137.474 77.35H113.524ZM113.424 77.525L113.374 77.625H137.624L137.574 77.525H113.424ZM113.324 77.7L113.274 77.8H137.749L137.674 77.7H113.324ZM113.224 77.875L113.149 78.025H137.849L137.774 77.875H113.249H113.224Z" fill="url(#paint11_linear_1284_65460)"/>
<path d="M114.85 78.075C115.7 78.25 115.775 78.075 115.775 78.075H114.85ZM135.225 78.075C135.225 78.075 135.3 78.25 136.15 78.075H135.225Z" fill="url(#paint12_linear_1284_65460)"/>
<path d="M133.15 74.25C132.725 74.25 132.6 74.475 132.6 74.475C131.925 77.125 129.65 79.8 126.95 79.8H124.95V82.5H140.3L138.75 79.75C136.325 79.4 134.35 76.925 133.725 74.475C133.725 74.475 133.575 74.25 133.15 74.25Z" fill="url(#paint13_linear_1284_65460)"/>
<path d="M133.15 74.3751C132.95 74.3751 132.85 74.4 132.775 74.45L132.7 74.5251C132.326 75.9092 131.603 77.1744 130.6 78.2C129.6 79.225 128.35 79.9251 126.95 79.9251H125.025V82.4001H140.25L138.825 79.9001C137.65 79.7251 136.575 79.1 135.725 78.2C134.723 77.1744 134 75.9092 133.625 74.5251L133.55 74.45C133.427 74.386 133.288 74.3599 133.15 74.3751Z" fill="#97C924"/>
<path d="M133.15 74.375H133.25V77.075C133.226 77.6429 133.054 78.1946 132.75 78.675C132.625 79.075 132.5 78.925 132.175 79.4C131.754 79.5454 131.318 79.6459 130.875 79.7C130.25 79.8 128.875 79.9 128.15 79.725C129.081 79.4403 129.924 78.9242 130.6 78.225C130.786 78.0262 130.962 77.8175 131.125 77.6C131.404 77.2537 131.655 76.8859 131.875 76.5L132.125 76C132.245 75.7635 132.353 75.5216 132.45 75.275C132.547 75.0296 132.63 74.7792 132.7 74.525L132.775 74.45L132.925 74.4L133.175 74.375H133.15Z" fill="#EDE71F"/>
<path d="M133 74.7251C132.875 76.2251 132.425 78.0251 131.325 79.1751C130.925 79.5001 130.4 79.8251 129.925 79.7501C131.6 78.3751 132.625 76.2501 132.975 74.7251H133Z" fill="#C6CB24"/>
<path d="M131.625 77.325C131.375 78 130.425 79 129.425 79.825H128.7C129.325 79.775 130.775 78.575 131.625 77.325Z" fill="#9ECB34"/>
<path d="M133.15 74.25C132.725 74.25 132.6 74.475 132.6 74.475C131.925 77.125 129.65 79.8 126.95 79.8H124.95V82.5H140.3L138.75 79.75C136.325 79.4 134.35 76.925 133.725 74.475C133.725 74.475 133.575 74.25 133.15 74.25Z" fill="url(#paint14_linear_1284_65460)"/>
<path d="M133.15 74.3751C132.95 74.3751 132.85 74.4 132.775 74.45L132.7 74.5251C132.326 75.9092 131.603 77.1744 130.6 78.2C129.6 79.225 128.35 79.9251 126.95 79.9251H125.025V82.4001H140.25L138.825 79.9001C137.65 79.7251 136.575 79.1 135.725 78.2C134.723 77.1744 134 75.9092 133.625 74.5251L133.55 74.45C133.427 74.386 133.288 74.3599 133.15 74.3751Z" fill="#97C924"/>
<path d="M133.15 74.375H133.25V77.075C133.226 77.6429 133.054 78.1946 132.75 78.675C132.625 79.075 132.5 78.925 132.175 79.4C131.754 79.5454 131.318 79.6459 130.875 79.7C130.25 79.8 128.875 79.9 128.15 79.725C129.081 79.4403 129.924 78.9242 130.6 78.225C130.786 78.0262 130.962 77.8175 131.125 77.6C131.404 77.2537 131.655 76.8859 131.875 76.5L132.125 76C132.245 75.7635 132.353 75.5216 132.45 75.275C132.547 75.0296 132.63 74.7792 132.7 74.525L132.775 74.45L132.925 74.4L133.175 74.375H133.15Z" fill="#EDE71F"/>
<path d="M133 74.7251C132.875 76.2251 132.425 78.0251 131.325 79.1751C130.925 79.5001 130.4 79.8251 129.925 79.7501C131.6 78.3751 132.625 76.2501 132.975 74.7251H133Z" fill="#C6CB24"/>
<path d="M131.625 77.325C131.375 78 130.425 79 129.425 79.825H128.7C129.325 79.775 130.775 78.575 131.625 77.325Z" fill="#9ECB34"/>
<path d="M126.049 74.4999C126.749 77.1249 128.999 79.7999 131.699 79.7999H133.724V82.4999H117.274V79.7999H119.274C121.974 79.7999 124.249 77.1249 124.924 74.4749C124.924 74.4749 125.074 74.2749 125.499 74.2749C125.924 74.2749 126.049 74.4749 126.049 74.4749V74.4999Z" fill="url(#paint15_linear_1284_65460)"/>
<path d="M125.499 74.3748C125.699 74.3748 125.799 74.4248 125.874 74.4498L125.949 74.5248C126.324 75.909 127.047 77.1742 128.049 78.1998C129.049 79.2248 130.299 79.9248 131.699 79.9248H133.624V82.3998H117.374V79.8998H119.299C120.674 79.8998 121.949 79.2248 122.949 78.1998C123.942 77.1714 124.656 75.9064 125.024 74.5248L125.099 74.4498C125.223 74.3884 125.361 74.3625 125.499 74.3748Z" fill="#97C924"/>
<path d="M125.324 74.3749C125.299 74.3737 125.274 74.3737 125.249 74.3749L125.099 74.4498L125.024 74.5249C124.954 74.7792 124.871 75.0296 124.774 75.2749C124.686 75.5294 124.586 75.7797 124.474 76.0249C124.396 76.1858 124.312 76.3442 124.224 76.4999C124.004 76.8858 123.753 77.2536 123.474 77.5998C123.31 77.8088 123.134 78.0091 122.949 78.1998C122.275 78.9082 121.432 79.4331 120.499 79.7249C121.199 79.8999 121.499 79.7249 122.124 79.6249C122.624 79.5499 123.174 79.4748 123.624 79.3248C123.999 78.8248 123.874 78.9999 123.999 78.5999C124.299 78.0499 124.749 77.5499 124.849 76.9249C125.249 76.1749 125.324 74.7749 125.324 74.3749Z" fill="#EDE71F"/>
<path d="M125.324 74.7249C125.224 76.2249 124.749 78.0249 123.649 79.1749C123.249 79.4999 122.749 79.8249 122.249 79.7499C123.949 78.3749 124.974 76.2499 125.324 74.7249Z" fill="#C6CB24"/>
<path d="M123.95 77.325C123.406 78.3079 122.656 79.1609 121.75 79.825H121.05C121.675 79.775 123.1 78.575 123.95 77.325Z" fill="#9ECB34"/>
<path d="M125.749 74.3999L125.874 74.4499L125.974 74.5249C126.045 74.7788 126.128 75.0291 126.224 75.2749C126.312 75.5296 126.412 75.7799 126.524 76.0249L126.774 76.4999C126.994 76.8858 127.245 77.2537 127.524 77.5999C127.688 77.8089 127.864 78.0091 128.049 78.1999C128.718 78.9364 129.56 79.4948 130.499 79.8249C128.674 79.8249 127.899 79.6749 127.249 78.8249C126.776 78.3245 126.418 77.7274 126.199 77.0749C126.074 76.5749 125.699 75.4499 125.724 74.3999H125.749Z" fill="#EDE71F"/>
<path d="M125.874 74.7249C125.974 76.2249 126.424 77.7249 127.524 78.8749C127.924 79.2249 128.424 79.5249 128.924 79.4499C127.353 78.3106 126.265 76.6253 125.874 74.7249Z" fill="#C6CB24"/>
<path d="M121.7 74.25C121.25 74.25 121.125 74.475 121.125 74.475C120.5 76.925 118.175 80.05 115.75 80.425L114.55 82.5H126.8V79.675C124.6 79.075 122.825 76.75 122.25 74.475C122.25 74.475 122.125 74.275 121.675 74.275L121.7 74.25Z" fill="url(#paint16_linear_1284_65460)"/>
<path d="M121.7 74.375C121.5 74.375 121.375 74.425 121.3 74.45L121.225 74.525C120.805 75.8966 120.116 77.1712 119.2 78.275C118.35 79.35 116.775 80.425 115.7 80.525L114.625 82.4H126.625V79.725C125.722 79.4272 124.907 78.9121 124.25 78.225C123.244 77.1923 122.521 75.9181 122.15 74.525L122.075 74.45C121.959 74.3919 121.829 74.366 121.7 74.375Z" fill="#97C924"/>
<path d="M121.35 74.7251C121.2 76.9751 119.95 79.8501 118.525 80.3251C118.05 80.5001 117.25 80.5501 116.975 80.5751C118.077 79.9627 119.038 79.1254 119.796 78.1176C120.554 77.1099 121.092 75.954 121.375 74.7251H121.35Z" fill="#93BC30"/>
<path d="M121.7 74.375H121.575V77.075C121.575 77.65 121.8 78.125 122.075 78.675L122.125 78.8C122.25 79.075 122.325 79.175 122.7 79.475C123.774 80.2412 125.087 80.5961 126.4 80.475C126.125 80.25 125.825 80.05 125.55 79.875L126.675 79.75C125.749 79.4473 124.914 78.9139 124.25 78.2C124.129 78.079 124.013 77.9539 123.9 77.825L123.75 77.625C123.454 77.2717 123.187 76.8955 122.95 76.5C122.861 76.3361 122.778 76.1693 122.7 76C122.547 75.6836 122.413 75.358 122.3 75.025C122.245 74.86 122.195 74.6933 122.15 74.525L122.075 74.45C122.028 74.4262 121.977 74.4094 121.925 74.4C121.843 74.38 121.759 74.3716 121.675 74.375H121.7Z" fill="#EDE71F"/>
<path d="M121.85 74.7251C121.975 76.2251 122.425 78.0251 123.525 79.1751C123.925 79.5001 124.425 79.8251 124.925 79.7501C123.4 78.4377 122.324 76.6803 121.85 74.7251Z" fill="#CCD11E"/>
<path d="M122.9 76.825C123.71 78.4089 124.983 79.7083 126.55 80.55H127.175C126.075 79.95 124.3 79.1 122.925 76.8L122.9 76.825Z" fill="#9ECB34"/>
<path d="M121.7 74.25C121.25 74.25 121.125 74.475 121.125 74.475C120.5 76.925 118.175 80.05 115.75 80.425L114.55 82.5H126.8V79.675C124.6 79.075 122.825 76.75 122.25 74.475C122.25 74.475 122.125 74.275 121.675 74.275L121.7 74.25Z" fill="url(#paint17_linear_1284_65460)"/>
<path d="M121.7 74.375C121.5 74.375 121.375 74.425 121.3 74.45L121.225 74.525C120.805 75.8966 120.116 77.1712 119.2 78.275C118.35 79.35 116.775 80.425 115.7 80.525L114.625 82.4H126.625V79.725C125.722 79.4272 124.907 78.9121 124.25 78.225C123.244 77.1923 122.521 75.9181 122.15 74.525L122.075 74.45C121.959 74.3919 121.829 74.366 121.7 74.375Z" fill="#97C924"/>
<path d="M121.35 74.7251C121.2 76.9751 119.95 79.8501 118.525 80.3251C118.05 80.5001 117.25 80.5501 116.975 80.5751C118.077 79.9627 119.038 79.1254 119.796 78.1176C120.554 77.1099 121.092 75.954 121.375 74.7251H121.35Z" fill="#93BC30"/>
<path d="M121.7 74.375H121.575V77.075C121.575 77.65 121.8 78.125 122.075 78.675L122.125 78.8C122.25 79.075 122.325 79.175 122.7 79.475C123.774 80.2412 125.087 80.5961 126.4 80.475C126.125 80.25 125.825 80.05 125.55 79.875L126.675 79.75C125.749 79.4473 124.914 78.9139 124.25 78.2C124.129 78.079 124.013 77.9539 123.9 77.825L123.75 77.625C123.454 77.2717 123.187 76.8955 122.95 76.5C122.861 76.3361 122.778 76.1693 122.7 76C122.547 75.6836 122.413 75.358 122.3 75.025C122.245 74.86 122.195 74.6933 122.15 74.525L122.075 74.45C122.028 74.4262 121.977 74.4094 121.925 74.4C121.843 74.38 121.759 74.3716 121.675 74.375H121.7Z" fill="#EDE71F"/>
<path d="M121.85 74.7251C121.975 76.2251 122.425 78.0251 123.525 79.1751C123.925 79.5001 124.425 79.8251 124.925 79.7501C123.4 78.4377 122.324 76.6803 121.85 74.7251Z" fill="#C6CB24"/>
<path d="M122.9 76.825C123.71 78.4089 124.983 79.7083 126.55 80.55H127.175C126.075 79.95 124.3 79.1 122.925 76.8L122.9 76.825Z" fill="#9ECB34"/>
<path d="M139.625 81.1751C139.475 81.2251 138.525 81.1251 138.025 81.1751L137.7 81.2501H136.875C135.975 81.2501 135.2 81.5001 134.35 81.5001C133.5 81.5001 132.725 81.2501 131.85 81.2501H131C130.1 81.2501 129.325 81.5001 128.475 81.5001C127.625 81.5001 126.85 81.2501 125.975 81.2501H125.125C124.225 81.2501 123.45 81.5001 122.625 81.5001C121.75 81.5001 121 81.2501 120.1 81.2501H119.25C118.35 81.2501 117.6 81.5001 116.75 81.5001C115.875 81.5001 115.125 81.2501 114.225 81.2501H113.375C112.675 81.2501 111.825 81.4001 111.15 81.4501L109.575 84.1751H141.425L139.625 81.1751Z" fill="white"/>
<path d="M137.5 80.7749H137.35C136.55 80.7999 135.95 81.0499 134.55 81.0499C133.15 81.0499 133 80.7999 131.4 80.8499C129.9 80.8499 129.3 81.1499 128.475 81.1499C127.675 81.1499 126.375 80.9749 125.35 81.0749C124.35 81.1749 123.15 81.3999 122.35 81.3999C121.375 81.3999 120.4 81.2249 119.4 81.3249C118.375 81.4249 117.9 81.6999 116.625 81.6999C115.525 81.6999 114.375 81.5249 113.425 81.5249C112.575 81.5249 111.625 81.7749 110.925 81.8749L110.7 82.2499C111.275 82.1749 112.85 81.9249 113.4 81.9249C114 81.9249 116.075 82.0499 117.225 81.9999C118.4 81.9749 118.525 81.6999 119.9 81.6999C120.85 81.6999 121.55 81.7999 122.525 81.7999C123.15 81.7999 123.7 81.4999 124.625 81.4999L125.325 81.4749C126.1 81.3499 127.425 81.4749 128.325 81.5249C129.15 81.5749 129.7 81.3749 130.575 81.3499L131.675 81.3249C132.55 81.2749 133.275 81.4749 134.1 81.4749C134.9 81.4249 135.7 81.2249 136.55 81.2249L137.675 81.1749C138.25 81.1749 139.15 81.1749 139.75 81.2999L139.55 80.9499C138.95 80.9249 138.225 80.7749 137.5 80.7749Z" fill="url(#paint18_linear_1284_65460)"/>
<path d="M113.074 83.7C112.224 83.7 111.474 83.9 110.674 83.925C110.373 83.9171 110.073 83.8921 109.774 83.85L109.649 84.05H111.149C112.024 84.05 112.749 83.85 113.549 83.825C114.374 83.85 115.099 84.075 115.974 84.075H117.099C117.949 84.075 118.699 83.85 119.499 83.825C120.324 83.85 121.074 84.075 121.924 84.075H123.049C123.924 84.075 124.649 83.85 125.474 83.825C126.274 83.85 126.999 84.075 127.874 84.075H128.999C129.849 84.075 130.599 83.85 131.424 83.825C132.224 83.85 132.974 84.075 133.824 84.075H134.949C135.824 84.075 136.549 83.85 137.349 83.825C138.174 83.85 138.899 84.075 139.774 84.075H140.899L141.349 84.05L141.224 83.85C140.974 83.875 140.699 83.925 140.424 83.925C139.599 83.925 138.874 83.675 137.999 83.675H136.874C136.024 83.675 135.274 83.925 134.474 83.925C133.649 83.9 132.924 83.675 132.049 83.675H130.924C130.074 83.675 129.324 83.925 128.524 83.925C127.699 83.9 126.974 83.675 126.099 83.675H124.974C124.099 83.675 123.374 83.925 122.574 83.925C121.749 83.9 121.024 83.675 120.149 83.675H119.024C118.174 83.675 117.424 83.925 116.624 83.925C115.799 83.9 115.074 83.675 114.199 83.675H113.074V83.7Z" fill="url(#paint19_linear_1284_65460)"/>
<path d="M113.074 83.7C112.224 83.7 111.474 83.9 110.674 83.925C110.373 83.9171 110.073 83.8921 109.774 83.85L109.649 84.05H111.149C112.024 84.05 112.749 83.85 113.549 83.825C114.374 83.85 115.099 84.075 115.974 84.075H117.099C117.949 84.075 118.699 83.85 119.499 83.825C120.324 83.85 121.074 84.075 121.924 84.075H123.049C123.924 84.075 124.649 83.85 125.474 83.825C126.274 83.85 126.999 84.075 127.874 84.075H128.999C129.849 84.075 130.599 83.85 131.424 83.825C132.224 83.85 132.974 84.075 133.824 84.075H134.949C135.824 84.075 136.549 83.85 137.349 83.825C138.174 83.85 138.899 84.075 139.774 84.075H140.899L141.349 84.05L141.224 83.85C140.974 83.875 140.699 83.925 140.424 83.925C139.599 83.925 138.874 83.675 137.999 83.675H136.874C136.024 83.675 135.274 83.925 134.474 83.925C133.649 83.9 132.924 83.675 132.049 83.675H130.924C130.074 83.675 129.324 83.925 128.524 83.925C127.699 83.9 126.974 83.675 126.099 83.675H124.974C124.099 83.675 123.374 83.925 122.574 83.925C121.749 83.9 121.024 83.675 120.149 83.675H119.024C118.174 83.675 117.424 83.925 116.624 83.925C115.799 83.9 115.074 83.675 114.199 83.675H113.074V83.7Z" fill="url(#paint20_linear_1284_65460)"/>
<path d="M113.074 83.7C112.224 83.7 111.474 83.9 110.674 83.925C110.373 83.9171 110.073 83.8921 109.774 83.85L109.649 84.05H111.149C112.024 84.05 112.749 83.85 113.549 83.825C114.374 83.85 115.099 84.075 115.974 84.075H117.099C117.949 84.075 118.699 83.85 119.499 83.825C120.324 83.85 121.074 84.075 121.924 84.075H123.049C123.924 84.075 124.649 83.85 125.474 83.825C126.274 83.85 126.999 84.075 127.874 84.075H128.999C129.849 84.075 130.599 83.85 131.424 83.825C132.224 83.85 132.974 84.075 133.824 84.075H134.949C135.824 84.075 136.549 83.85 137.349 83.825C138.174 83.85 138.899 84.075 139.774 84.075H140.899L141.349 84.05L141.224 83.85C140.974 83.875 140.699 83.925 140.424 83.925C139.599 83.925 138.874 83.675 137.999 83.675H136.874C136.024 83.675 135.274 83.925 134.474 83.925C133.649 83.9 132.924 83.675 132.049 83.675H130.924C130.074 83.675 129.324 83.925 128.524 83.925C127.699 83.9 126.974 83.675 126.099 83.675H124.974C124.099 83.675 123.374 83.925 122.574 83.925C121.749 83.9 121.024 83.675 120.149 83.675H119.024C118.174 83.675 117.424 83.925 116.624 83.925C115.799 83.9 115.074 83.675 114.199 83.675H113.074V83.7Z" fill="url(#paint21_linear_1284_65460)"/>
<path d="M113.074 83.7C112.224 83.7 111.474 83.9 110.674 83.925C110.373 83.9171 110.073 83.8921 109.774 83.85L109.649 84.05H111.149C112.024 84.05 112.749 83.85 113.549 83.825C114.374 83.85 115.099 84.075 115.974 84.075H117.099C117.949 84.075 118.699 83.85 119.499 83.825C120.324 83.85 121.074 84.075 121.924 84.075H123.049C123.924 84.075 124.649 83.85 125.474 83.825C126.274 83.85 126.999 84.075 127.874 84.075H128.999C129.849 84.075 130.599 83.85 131.424 83.825C132.224 83.85 132.974 84.075 133.824 84.075H134.949C135.824 84.075 136.549 83.85 137.349 83.825C138.174 83.85 138.899 84.075 139.774 84.075H140.899L141.349 84.05L141.224 83.85C140.974 83.875 140.699 83.925 140.424 83.925C139.599 83.925 138.874 83.675 137.999 83.675H136.874C136.024 83.675 135.274 83.925 134.474 83.925C133.649 83.9 132.924 83.675 132.049 83.675H130.924C130.074 83.675 129.324 83.925 128.524 83.925C127.699 83.9 126.974 83.675 126.099 83.675H124.974C124.099 83.675 123.374 83.925 122.574 83.925C121.749 83.9 121.024 83.675 120.149 83.675H119.024C118.174 83.675 117.424 83.925 116.624 83.925C115.799 83.9 115.074 83.675 114.199 83.675H113.074V83.7Z" fill="url(#paint22_linear_1284_65460)"/>
<path d="M113.074 83.7C112.224 83.7 111.474 83.9 110.674 83.925C110.373 83.9171 110.073 83.8921 109.774 83.85L109.649 84.05H111.149C112.024 84.05 112.749 83.85 113.549 83.825C114.374 83.85 115.099 84.075 115.974 84.075H117.099C117.949 84.075 118.699 83.85 119.499 83.825C120.324 83.85 121.074 84.075 121.924 84.075H123.049C123.924 84.075 124.649 83.85 125.474 83.825C126.274 83.85 126.999 84.075 127.874 84.075H128.999C129.849 84.075 130.599 83.85 131.424 83.825C132.224 83.85 132.974 84.075 133.824 84.075H134.949C135.824 84.075 136.549 83.85 137.349 83.825C138.174 83.85 138.899 84.075 139.774 84.075H140.899L141.349 84.05L141.224 83.85C140.974 83.875 140.699 83.925 140.424 83.925C139.599 83.925 138.874 83.675 137.999 83.675H136.874C136.024 83.675 135.274 83.925 134.474 83.925C133.649 83.9 132.924 83.675 132.049 83.675H130.924C130.074 83.675 129.324 83.925 128.524 83.925C127.699 83.9 126.974 83.675 126.099 83.675H124.974C124.099 83.675 123.374 83.925 122.574 83.925C121.749 83.9 121.024 83.675 120.149 83.675H119.024C118.174 83.675 117.424 83.925 116.624 83.925C115.799 83.9 115.074 83.675 114.199 83.675H113.074V83.7Z" fill="url(#paint23_linear_1284_65460)"/>
<path d="M113.074 83.7C112.224 83.7 111.474 83.9 110.674 83.925C110.373 83.9171 110.073 83.8921 109.774 83.85L109.649 84.05H111.149C112.024 84.05 112.749 83.85 113.549 83.825C114.374 83.85 115.099 84.075 115.974 84.075H117.099C117.949 84.075 118.699 83.85 119.499 83.825C120.324 83.85 121.074 84.075 121.924 84.075H123.049C123.924 84.075 124.649 83.85 125.474 83.825C126.274 83.85 126.999 84.075 127.874 84.075H128.999C129.849 84.075 130.599 83.85 131.424 83.825C132.224 83.85 132.974 84.075 133.824 84.075H134.949C135.824 84.075 136.549 83.85 137.349 83.825C138.174 83.85 138.899 84.075 139.774 84.075H140.899L141.349 84.05L141.224 83.85C140.974 83.875 140.699 83.925 140.424 83.925C139.599 83.925 138.874 83.675 137.999 83.675H136.874C136.024 83.675 135.274 83.925 134.474 83.925C133.649 83.9 132.924 83.675 132.049 83.675H130.924C130.074 83.675 129.324 83.925 128.524 83.925C127.699 83.9 126.974 83.675 126.099 83.675H124.974C124.099 83.675 123.374 83.925 122.574 83.925C121.749 83.9 121.024 83.675 120.149 83.675H119.024C118.174 83.675 117.424 83.925 116.624 83.925C115.799 83.9 115.074 83.675 114.199 83.675H113.074V83.7Z" fill="url(#paint24_linear_1284_65460)"/>
<path d="M113.074 83.7C112.224 83.7 111.474 83.9 110.674 83.925C110.373 83.9171 110.073 83.8921 109.774 83.85L109.649 84.05H111.149C112.024 84.05 112.749 83.85 113.549 83.825C114.374 83.85 115.099 84.075 115.974 84.075H117.099C117.949 84.075 118.699 83.85 119.499 83.825C120.324 83.85 121.074 84.075 121.924 84.075H123.049C123.924 84.075 124.649 83.85 125.474 83.825C126.274 83.85 126.999 84.075 127.874 84.075H128.999C129.849 84.075 130.599 83.85 131.424 83.825C132.224 83.85 132.974 84.075 133.824 84.075H134.949C135.824 84.075 136.549 83.85 137.349 83.825C138.174 83.85 138.899 84.075 139.774 84.075H140.899L141.349 84.05L141.224 83.85C140.974 83.875 140.699 83.925 140.424 83.925C139.599 83.925 138.874 83.675 137.999 83.675H136.874C136.024 83.675 135.274 83.925 134.474 83.925C133.649 83.9 132.924 83.675 132.049 83.675H130.924C130.074 83.675 129.324 83.925 128.524 83.925C127.699 83.9 126.974 83.675 126.099 83.675H124.974C124.099 83.675 123.374 83.925 122.574 83.925C121.749 83.9 121.024 83.675 120.149 83.675H119.024C118.174 83.675 117.424 83.925 116.624 83.925C115.799 83.9 115.074 83.675 114.199 83.675H113.074V83.7Z" fill="url(#paint25_linear_1284_65460)"/>
<path d="M113.074 83.7C112.224 83.7 111.474 83.9 110.674 83.925C110.373 83.9171 110.073 83.8921 109.774 83.85L109.649 84.05H111.149C112.024 84.05 112.749 83.85 113.549 83.825C114.374 83.85 115.099 84.075 115.974 84.075H117.099C117.949 84.075 118.699 83.85 119.499 83.825C120.324 83.85 121.074 84.075 121.924 84.075H123.049C123.924 84.075 124.649 83.85 125.474 83.825C126.274 83.85 126.999 84.075 127.874 84.075H128.999C129.849 84.075 130.599 83.85 131.424 83.825C132.224 83.85 132.974 84.075 133.824 84.075H134.949C135.824 84.075 136.549 83.85 137.349 83.825C138.174 83.85 138.899 84.075 139.774 84.075H140.899L141.349 84.05L141.224 83.85C140.974 83.875 140.699 83.925 140.424 83.925C139.599 83.925 138.874 83.675 137.999 83.675H136.874C136.024 83.675 135.274 83.925 134.474 83.925C133.649 83.9 132.924 83.675 132.049 83.675H130.924C130.074 83.675 129.324 83.925 128.524 83.925C127.699 83.9 126.974 83.675 126.099 83.675H124.974C124.099 83.675 123.374 83.925 122.574 83.925C121.749 83.9 121.024 83.675 120.149 83.675H119.024C118.174 83.675 117.424 83.925 116.624 83.925C115.799 83.9 115.074 83.675 114.199 83.675H113.074V83.7Z" fill="url(#paint26_linear_1284_65460)"/>
<path d="M113.074 83.7C112.224 83.7 111.474 83.9 110.674 83.925C110.373 83.9171 110.073 83.8921 109.774 83.85L109.649 84.05H111.149C112.024 84.05 112.749 83.85 113.549 83.825C114.374 83.85 115.099 84.075 115.974 84.075H117.099C117.949 84.075 118.699 83.85 119.499 83.825C120.324 83.85 121.074 84.075 121.924 84.075H123.049C123.924 84.075 124.649 83.85 125.474 83.825C126.274 83.85 126.999 84.075 127.874 84.075H128.999C129.849 84.075 130.599 83.85 131.424 83.825C132.224 83.85 132.974 84.075 133.824 84.075H134.949C135.824 84.075 136.549 83.85 137.349 83.825C138.174 83.85 138.899 84.075 139.774 84.075H140.899L141.349 84.05L141.224 83.85C140.974 83.875 140.699 83.925 140.424 83.925C139.599 83.925 138.874 83.675 137.999 83.675H136.874C136.024 83.675 135.274 83.925 134.474 83.925C133.649 83.9 132.924 83.675 132.049 83.675H130.924C130.074 83.675 129.324 83.925 128.524 83.925C127.699 83.9 126.974 83.675 126.099 83.675H124.974C124.099 83.675 123.374 83.925 122.574 83.925C121.749 83.9 121.024 83.675 120.149 83.675H119.024C118.174 83.675 117.424 83.925 116.624 83.925C115.799 83.9 115.074 83.675 114.199 83.675H113.074V83.7Z" fill="url(#paint27_linear_1284_65460)"/>
<path d="M111.476 81.175L110.851 82.225C111.576 82.1 112.626 81.8 113.526 81.8C114.426 81.8 115.526 82.025 116.626 82.05C117.876 82.05 118.376 81.75 119.376 81.65C120.401 81.55 121.376 81.775 122.376 81.8C123.151 81.8 124.351 81.525 125.376 81.425C126.376 81.3 127.301 81.5 128.501 81.5C129.726 81.525 129.926 81.2 131.401 81.175C133.001 81.15 133.151 81.4 134.551 81.4C135.601 81.45 136.526 81.175 137.476 81.125C138.426 81.05 138.851 81.125 139.551 81.125L139.076 80.325L113.751 80.9L111.476 81.175Z" fill="#97C924"/>
<path d="M138 81.1499L139 81.2249C139.241 81.2538 139.483 81.2788 139.725 81.2999L139.625 81.1749C139.475 81.2249 138.525 81.1249 138.025 81.1749L138 81.1499Z" fill="white"/>
</g>
<path d="M125.5 56.2188L117.469 70.125L109.25 84.375H141.75L133.719 70.4375L125.5 56.25V56.2188ZM125.5 56.9688L133.375 70.625L141.094 84H109.906L117.781 70.3125L125.5 56.9688Z" fill="#C8A400"/>
</g>
<defs>
<linearGradient id="paint0_linear_1284_65460" x1="125.175" y1="72.275" x2="125.65" y2="70.85" gradientUnits="userSpaceOnUse">
<stop stop-color="#510000"/>
<stop offset="0.3" stop-color="#8A0000"/>
<stop offset="1" stop-color="#AA0000"/>
</linearGradient>
<linearGradient id="paint1_linear_1284_65460" x1="125.85" y1="72.85" x2="126.225" y2="71.85" gradientUnits="userSpaceOnUse">
<stop stop-color="#FF2A2A"/>
<stop offset="1" stop-color="#FF0000"/>
</linearGradient>
<linearGradient id="paint2_linear_1284_65460" x1="111.624" y1="79.3751" x2="159.099" y2="79.3751" gradientUnits="userSpaceOnUse">
<stop stop-color="#002255"/>
<stop offset="0.5" stop-color="#0044AA"/>
<stop offset="1" stop-color="#002255"/>
</linearGradient>
<linearGradient id="paint3_linear_1284_65460" x1="111.624" y1="79.3751" x2="159.099" y2="79.3751" gradientUnits="userSpaceOnUse">
<stop stop-color="#002255"/>
<stop offset="0.5" stop-color="#0044AA"/>
<stop offset="1" stop-color="#002255"/>
</linearGradient>
<linearGradient id="paint4_linear_1284_65460" x1="111.624" y1="79.3751" x2="159.099" y2="79.3751" gradientUnits="userSpaceOnUse">
<stop stop-color="#002255"/>
<stop offset="0.5" stop-color="#0044AA"/>
<stop offset="1" stop-color="#002255"/>
</linearGradient>
<linearGradient id="paint5_linear_1284_65460" x1="111.624" y1="79.3751" x2="159.099" y2="79.3751" gradientUnits="userSpaceOnUse">
<stop stop-color="#002255"/>
<stop offset="0.5" stop-color="#0044AA"/>
<stop offset="1" stop-color="#002255"/>
</linearGradient>
<linearGradient id="paint6_linear_1284_65460" x1="111.624" y1="79.3751" x2="159.099" y2="79.3751" gradientUnits="userSpaceOnUse">
<stop stop-color="#002255"/>
<stop offset="0.5" stop-color="#0044AA"/>
<stop offset="1" stop-color="#002255"/>
</linearGradient>
<linearGradient id="paint7_linear_1284_65460" x1="111.624" y1="79.3751" x2="159.099" y2="79.3751" gradientUnits="userSpaceOnUse">
<stop stop-color="#002255"/>
<stop offset="0.5" stop-color="#0044AA"/>
<stop offset="1" stop-color="#002255"/>
</linearGradient>
<linearGradient id="paint8_linear_1284_65460" x1="111.624" y1="79.3751" x2="159.099" y2="79.3751" gradientUnits="userSpaceOnUse">
<stop stop-color="#002255"/>
<stop offset="0.5" stop-color="#0044AA"/>
<stop offset="1" stop-color="#002255"/>
</linearGradient>
<linearGradient id="paint9_linear_1284_65460" x1="111.624" y1="79.3751" x2="159.099" y2="79.3751" gradientUnits="userSpaceOnUse">
<stop stop-color="#002255"/>
<stop offset="0.5" stop-color="#0044AA"/>
<stop offset="1" stop-color="#002255"/>
</linearGradient>
<linearGradient id="paint10_linear_1284_65460" x1="111.624" y1="79.3751" x2="159.099" y2="79.3751" gradientUnits="userSpaceOnUse">
<stop stop-color="#002255"/>
<stop offset="0.5" stop-color="#0044AA"/>
<stop offset="1" stop-color="#002255"/>
</linearGradient>
<linearGradient id="paint11_linear_1284_65460" x1="111.624" y1="79.375" x2="159.099" y2="79.375" gradientUnits="userSpaceOnUse">
<stop stop-color="#002255"/>
<stop offset="0.5" stop-color="#0044AA"/>
<stop offset="1" stop-color="#002255"/>
</linearGradient>
<linearGradient id="paint12_linear_1284_65460" x1="111.625" y1="79.375" x2="159.1" y2="79.375" gradientUnits="userSpaceOnUse">
<stop stop-color="#002255"/>
<stop offset="0.5" stop-color="#0044AA"/>
<stop offset="1" stop-color="#002255"/>
</linearGradient>
<linearGradient id="paint13_linear_1284_65460" x1="121.7" y1="77.925" x2="121.7" y2="79.4" gradientUnits="userSpaceOnUse">
<stop stop-color="#F5F549"/>
<stop offset="1" stop-color="#97C924"/>
</linearGradient>
<linearGradient id="paint14_linear_1284_65460" x1="121.7" y1="77.925" x2="121.7" y2="79.4" gradientUnits="userSpaceOnUse">
<stop stop-color="#F5F549"/>
<stop offset="1" stop-color="#97C924"/>
</linearGradient>
<linearGradient id="paint15_linear_1284_65460" x1="121.699" y1="77.9249" x2="121.699" y2="79.3999" gradientUnits="userSpaceOnUse">
<stop stop-color="#F5F549"/>
<stop offset="1" stop-color="#97C924"/>
</linearGradient>
<linearGradient id="paint16_linear_1284_65460" x1="121.7" y1="77.925" x2="121.7" y2="79.4" gradientUnits="userSpaceOnUse">
<stop stop-color="#F5F549"/>
<stop offset="1" stop-color="#97C924"/>
</linearGradient>
<linearGradient id="paint17_linear_1284_65460" x1="121.7" y1="77.925" x2="121.7" y2="79.4" gradientUnits="userSpaceOnUse">
<stop stop-color="#F5F549"/>
<stop offset="1" stop-color="#97C924"/>
</linearGradient>
<linearGradient id="paint18_linear_1284_65460" x1="110.703" y1="80.7807" x2="139.786" y2="80.7807" gradientUnits="userSpaceOnUse">
<stop stop-color="#002255"/>
<stop offset="0.5" stop-color="#0044AA"/>
<stop offset="1" stop-color="#002255"/>
</linearGradient>
<linearGradient id="paint19_linear_1284_65460" x1="109.76" y1="83.6851" x2="141.238" y2="83.6851" gradientUnits="userSpaceOnUse">
<stop stop-color="#002255"/>
<stop offset="0.5" stop-color="#0044AA"/>
<stop offset="1" stop-color="#002255"/>
</linearGradient>
<linearGradient id="paint20_linear_1284_65460" x1="109.76" y1="83.6851" x2="141.238" y2="83.6851" gradientUnits="userSpaceOnUse">
<stop stop-color="#002255"/>
<stop offset="0.5" stop-color="#0044AA"/>
<stop offset="1" stop-color="#002255"/>
</linearGradient>
<linearGradient id="paint21_linear_1284_65460" x1="109.76" y1="83.6851" x2="141.238" y2="83.6851" gradientUnits="userSpaceOnUse">
<stop stop-color="#002255"/>
<stop offset="0.5" stop-color="#0044AA"/>
<stop offset="1" stop-color="#002255"/>
</linearGradient>
<linearGradient id="paint22_linear_1284_65460" x1="109.76" y1="83.6851" x2="141.238" y2="83.6851" gradientUnits="userSpaceOnUse">
<stop stop-color="#002255"/>
<stop offset="0.5" stop-color="#0044AA"/>
<stop offset="1" stop-color="#002255"/>
</linearGradient>
<linearGradient id="paint23_linear_1284_65460" x1="109.76" y1="83.6851" x2="141.238" y2="83.6851" gradientUnits="userSpaceOnUse">
<stop stop-color="#002255"/>
<stop offset="0.5" stop-color="#0044AA"/>
<stop offset="1" stop-color="#002255"/>
</linearGradient>
<linearGradient id="paint24_linear_1284_65460" x1="109.76" y1="83.6851" x2="141.238" y2="83.6851" gradientUnits="userSpaceOnUse">
<stop stop-color="#002255"/>
<stop offset="0.5" stop-color="#0044AA"/>
<stop offset="1" stop-color="#002255"/>
</linearGradient>
<linearGradient id="paint25_linear_1284_65460" x1="109.76" y1="83.6851" x2="141.238" y2="83.6851" gradientUnits="userSpaceOnUse">
<stop stop-color="#002255"/>
<stop offset="0.5" stop-color="#0044AA"/>
<stop offset="1" stop-color="#002255"/>
</linearGradient>
<linearGradient id="paint26_linear_1284_65460" x1="109.76" y1="83.6851" x2="141.238" y2="83.6851" gradientUnits="userSpaceOnUse">
<stop stop-color="#002255"/>
<stop offset="0.5" stop-color="#0044AA"/>
<stop offset="1" stop-color="#002255"/>
</linearGradient>
<linearGradient id="paint27_linear_1284_65460" x1="109.76" y1="83.6851" x2="141.238" y2="83.6851" gradientUnits="userSpaceOnUse">
<stop stop-color="#002255"/>
<stop offset="0.5" stop-color="#0044AA"/>
<stop offset="1" stop-color="#002255"/>
</linearGradient>
<clipPath id="clip0_1284_65460">
<rect width="250" height="150" fill="white"/>
</clipPath>
</defs>
</svg>
