<svg width="250" height="150" viewBox="0 0 250 150" fill="none" xmlns="http://www.w3.org/2000/svg">
<g clip-path="url(#clip0_1284_64298)">
<path d="M0 0H250V150H0V0Z" fill="#D20000"/>
<path d="M0 0H37.5L125 72.3125L212.5 0H250L0 150H37.5L125 77.6875L212.5 150H250L0 0ZM250 60V90L0 60V90L250 60ZM109.375 0L125 64.2812L140.625 0H109.375ZM109.375 150L125 85.7188L140.625 150H109.375Z" fill="#FFE600"/>
<path d="M125.095 99.0938C138.402 99.0938 149.19 88.3066 149.19 75C149.19 61.6934 138.402 50.9062 125.095 50.9062C111.788 50.9062 101 61.6934 101 75C101 88.3066 111.788 99.0938 125.095 99.0938Z" fill="#FFE600" stroke="#D20000" stroke-width="2.2"/>
</g>
<defs>
<clipPath id="clip0_1284_64298">
<rect width="250" height="150" fill="white"/>
</clipPath>
</defs>
</svg>
