<svg width="250" height="150" viewBox="0 0 250 150" fill="none" xmlns="http://www.w3.org/2000/svg">
<g clip-path="url(#clip0_1284_65706)">
<mask id="mask0_1284_65706" style="mask-type:luminance" maskUnits="userSpaceOnUse" x="0" y="0" width="250" height="150">
<path d="M0 0H250V150H0V0Z" fill="white"/>
</mask>
<g mask="url(#mask0_1284_65706)">
<rect width="51.2" height="150.4" fill="#EF2D29"/>
<path fill-rule="evenodd" clip-rule="evenodd" d="M51 99H277V164H51.219L51 99Z" fill="#009025"/>
<path fill-rule="evenodd" clip-rule="evenodd" d="M51.2187 -11H289V48H50.9999L51.2187 -11Z" fill="white"/>
<rect x="51" y="48" width="199" height="51" fill="#EF2D29"/>
<path d="M43.6533 22.2197H36.484C36.097 22.2197 35.7832 22.5127 35.7832 22.874V26.2787C35.7832 26.64 36.097 26.933 36.484 26.933H43.6533C44.0404 26.933 44.3541 26.64 44.3541 26.2787V22.874C44.3541 22.5127 44.0404 22.2197 43.6533 22.2197Z" fill="white" stroke="#EF2D28" stroke-width="0.2"/>
<path d="M43.4738 22.4194H36.6704C36.3039 22.4194 36.0068 22.69 36.0068 23.0238V26.1401C36.0068 26.4739 36.3039 26.7445 36.6704 26.7445H43.4738C43.8403 26.7445 44.1374 26.4739 44.1374 26.1401V23.0238C44.1374 22.69 43.8403 22.4194 43.4738 22.4194Z" fill="white" stroke="#EF2D28" stroke-width="0.2"/>
<path fill-rule="evenodd" clip-rule="evenodd" d="M39.7873 23.5916L40.197 23.6078L40.2139 23.796L40.5518 23.968L40.8137 23.7506L41.1305 23.9225L40.8348 24.1107L40.9066 24.3703L41.2783 24.3541V24.6948L40.9826 24.6819L40.8306 24.896L41.1685 25.1394L40.9066 25.3406L40.6236 25.1264L40.2139 25.2108L40.235 25.5255L39.7873 25.558L39.7281 25.253L39.3564 25.0972L39.1494 25.3114L38.8326 25.1524L39.0185 24.909L38.7946 24.7532H38.4778L38.4609 24.3087L38.7777 24.3379L39.0016 24.0783L38.7397 23.8771L39.0776 23.65L39.3184 23.8349L39.7281 23.7765L39.7873 23.5916Z" fill="white" stroke="#EF2D28" stroke-width="0.2"/>
<path d="M39.9043 24.9128C40.1545 24.9128 40.3574 24.7402 40.3574 24.5273C40.3574 24.3144 40.1545 24.1418 39.9043 24.1418C39.654 24.1418 39.4512 24.3144 39.4512 24.5273C39.4512 24.7402 39.654 24.9128 39.9043 24.9128Z" fill="white" stroke="#EF2D28" stroke-width="0.2"/>
<path fill-rule="evenodd" clip-rule="evenodd" d="M37.1044 22.6135L36.4408 23.2013L37.1044 22.6135ZM37.5447 22.6135L36.8811 23.2013L37.5447 22.6135ZM37.9788 22.6135L37.3214 23.2013L37.9788 22.6135ZM38.4192 22.6135L37.7618 23.2013L38.4192 22.6135ZM38.8595 22.6135L38.2021 23.2013L38.8595 22.6135ZM39.2998 22.6135L38.6424 23.2013L39.2998 22.6135ZM39.7401 22.6135L39.0827 23.2013L39.7401 22.6135ZM40.1805 22.6135L39.5231 23.2013L40.1805 22.6135ZM40.6208 22.6135L39.9572 23.2013L40.6208 22.6135ZM41.0611 22.6135L40.3913 23.2013L41.0611 22.6135ZM41.4891 22.6135L40.8317 23.2013L41.4891 22.6135ZM41.9294 22.6135L41.272 23.2013L41.9294 22.6135ZM40.1743 22.6135L39.5231 23.2013L40.1743 22.6135ZM42.3759 22.6135L41.7185 23.2013L42.3759 22.6135ZM42.8162 22.6135L42.1589 23.2013L42.8162 22.6135ZM43.2566 22.6135L42.5992 23.2013L43.2566 22.6135ZM43.6969 22.6135L43.0395 23.2013L43.6969 22.6135ZM43.0395 22.6135L43.6969 23.2013L43.0395 22.6135ZM42.5992 22.6135L43.2566 23.2013L42.5992 22.6135ZM42.1589 22.6135L42.8162 23.2013L42.1589 22.6135ZM41.7185 22.6135L42.3759 23.2013L41.7185 22.6135ZM41.2782 22.6135L41.9356 23.2013L41.2782 22.6135ZM40.8379 22.6135L41.4953 23.2013L40.8379 22.6135ZM40.3975 22.6135L41.0611 23.2013L40.3975 22.6135ZM39.9572 22.6135L40.6146 23.2013L39.9572 22.6135ZM39.5107 22.6135L40.1743 23.2013L39.5107 22.6135ZM39.0765 22.6135L39.7339 23.2013L39.0765 22.6135ZM38.6362 22.6135L39.2936 23.2013L38.6362 22.6135ZM38.1959 22.6135L38.8533 23.2013L38.1959 22.6135ZM39.9572 22.6135L40.6146 23.2013L39.9572 22.6135ZM37.7618 22.6135L38.413 23.2013L37.7618 22.6135ZM37.3152 22.6135L37.9788 23.2013L37.3152 22.6135ZM36.8749 22.6135L37.5385 23.2013L36.8749 22.6135ZM36.4346 22.6135L37.1044 23.2013L36.4346 22.6135ZM37.1044 25.9516L36.447 26.5449L37.1044 25.9516ZM37.5385 25.9516L36.8749 26.5449L37.5385 25.9516ZM37.985 25.9516L37.3214 26.5449L37.985 25.9516ZM38.4192 25.9516L37.7618 26.5449L38.4192 25.9516ZM38.8595 25.9516L38.2021 26.5449L38.8595 25.9516ZM39.2998 25.9516L38.6424 26.5449L39.2998 25.9516ZM39.7401 25.9516L39.089 26.5449L39.7401 25.9516ZM40.1805 25.9516L39.5231 26.5449L40.1805 25.9516ZM40.6208 25.9516L39.9572 26.5449L40.6208 25.9516ZM41.0549 25.9516L40.3913 26.5449L41.0549 25.9516ZM41.5077 25.9516L40.8441 26.5449L41.5077 25.9516ZM41.9418 25.9516L41.2844 26.5449L41.9418 25.9516ZM40.1805 25.9516L39.5231 26.5449L40.1805 25.9516ZM42.3759 25.9516L41.7185 26.5449L42.3759 25.9516ZM42.8162 25.9516L42.1589 26.5449L42.8162 25.9516ZM43.2566 25.9516L42.5992 26.5449L43.2566 25.9516ZM43.6969 25.9516L43.0395 26.5449L43.6969 25.9516ZM43.0395 25.9516L43.6969 26.5449L43.0395 25.9516ZM42.5992 25.9516L43.2566 26.5449L42.5992 25.9516ZM42.1589 25.9516L42.8162 26.5449L42.1589 25.9516ZM41.7185 25.9516L42.3759 26.5449L41.7185 25.9516ZM41.2782 25.9516L41.9356 26.5449L41.2782 25.9516ZM40.8379 25.9516L41.5015 26.5449L40.8379 25.9516ZM40.3913 25.9516L41.0549 26.5449L40.3913 25.9516ZM39.9572 25.9516L40.6146 26.5449L39.9572 25.9516ZM39.5231 25.9516L40.1805 26.5449L39.5231 25.9516ZM39.0827 25.9516L39.7401 26.5449L39.0827 25.9516ZM38.6424 25.9516L39.2998 26.5449L38.6424 25.9516ZM38.2021 25.9516L38.8595 26.5449L38.2021 25.9516ZM39.9634 25.9516L40.6208 26.5449L39.9634 25.9516ZM37.768 25.9516L38.4192 26.5449L37.768 25.9516ZM37.3214 25.9516L37.985 26.5449L37.3214 25.9516ZM36.8811 25.9516L37.5447 26.5449L36.8811 25.9516ZM36.447 25.9516L37.1044 26.5449L36.447 25.9516Z" fill="white"/>
<path d="M37.1044 22.6135L36.4408 23.2013M37.5447 22.6135L36.8811 23.2013M37.9788 22.6135L37.3214 23.2013M38.4192 22.6135L37.7618 23.2013M38.8595 22.6135L38.2021 23.2013M39.2998 22.6135L38.6424 23.2013M39.7401 22.6135L39.0827 23.2013M40.1805 22.6135L39.5231 23.2013L40.1743 22.6135M40.6208 22.6135L39.9572 23.2013M41.0611 22.6135L40.3913 23.2013M41.4891 22.6135L40.8317 23.2013M41.9294 22.6135L41.272 23.2013M42.3759 22.6135L41.7185 23.2013M42.8162 22.6135L42.1589 23.2013M43.2566 22.6135L42.5992 23.2013M43.6969 22.6135L43.0395 23.2013M43.0395 22.6135L43.6969 23.2013M42.5992 22.6135L43.2566 23.2013M42.1589 22.6135L42.8162 23.2013M41.7185 22.6135L42.3759 23.2013M41.2782 22.6135L41.9356 23.2013M40.8379 22.6135L41.4953 23.2013M40.3975 22.6135L41.0611 23.2013M39.9572 22.6135L40.6146 23.2013M39.5107 22.6135L40.1743 23.2013M39.0765 22.6135L39.7339 23.2013M38.6362 22.6135L39.2936 23.2013M38.1959 22.6135L38.8533 23.2013M37.7618 22.6135L38.413 23.2013M37.3152 22.6135L37.9788 23.2013M36.8749 22.6135L37.5385 23.2013M36.4346 22.6135L37.1044 23.2013M37.1044 25.9516L36.447 26.5449M37.5385 25.9516L36.8749 26.5449M37.985 25.9516L37.3214 26.5449M38.4192 25.9516L37.7618 26.5449M38.8595 25.9516L38.2021 26.5449M39.2998 25.9516L38.6424 26.5449M39.7401 25.9516L39.089 26.5449M40.1805 25.9516L39.5231 26.5449M40.6208 25.9516L39.9572 26.5449M41.0549 25.9516L40.3913 26.5449M41.5077 25.9516L40.8441 26.5449M41.9418 25.9516L41.2844 26.5449M42.3759 25.9516L41.7185 26.5449M42.8162 25.9516L42.1589 26.5449M43.2566 25.9516L42.5992 26.5449M43.6969 25.9516L43.0395 26.5449M43.0395 25.9516L43.6969 26.5449M42.5992 25.9516L43.2566 26.5449M42.1589 25.9516L42.8162 26.5449M41.7185 25.9516L42.3759 26.5449M41.2782 25.9516L41.9356 26.5449M40.8379 25.9516L41.5015 26.5449M40.3913 25.9516L41.0549 26.5449M39.9572 25.9516L40.6146 26.5449M39.5231 25.9516L40.1805 26.5449M39.0827 25.9516L39.7401 26.5449M38.6424 25.9516L39.2998 26.5449M38.2021 25.9516L38.8595 26.5449M39.9634 25.9516L40.6208 26.5449M37.768 25.9516L38.4192 26.5449M37.3214 25.9516L37.985 26.5449M36.8811 25.9516L37.5447 26.5449M36.447 25.9516L37.1044 26.5449" stroke="#EF2D28" stroke-width="0.2"/>
<path d="M14.8447 22.0322H7.67542C7.28837 22.0322 6.97461 22.3252 6.97461 22.6865V26.0912C6.97461 26.4525 7.28837 26.7455 7.67542 26.7455H14.8447C15.2318 26.7455 15.5455 26.4525 15.5455 26.0912V22.6865C15.5455 22.3252 15.2318 22.0322 14.8447 22.0322Z" fill="white" stroke="#EF2D28" stroke-width="0.2"/>
<path d="M14.6652 22.2319H7.86184C7.49534 22.2319 7.19824 22.5025 7.19824 22.8363V25.9526C7.19824 26.2864 7.49534 26.557 7.86184 26.557H14.6652C15.0317 26.557 15.3288 26.2864 15.3288 25.9526V22.8363C15.3288 22.5025 15.0317 22.2319 14.6652 22.2319Z" fill="white" stroke="#EF2D28" stroke-width="0.2"/>
<path fill-rule="evenodd" clip-rule="evenodd" d="M10.9787 23.4041L11.3884 23.4203L11.4053 23.6085L11.7432 23.7805L12.0051 23.5631L12.3219 23.735L12.0262 23.9232L12.098 24.1828L12.4697 24.1666V24.5073L12.174 24.4944L12.022 24.7085L12.3599 24.9519L12.098 25.1531L11.815 24.9389L11.4053 25.0233L11.4264 25.338L10.9787 25.3705L10.9195 25.0655L10.5478 24.9097L10.3408 25.1239L10.0241 24.9649L10.2099 24.7215L9.98603 24.5657H9.66924L9.65234 24.1212L9.96914 24.1504L10.193 23.8908L9.93112 23.6896L10.269 23.4625L10.5098 23.6474L10.9195 23.589L10.9787 23.4041Z" fill="white" stroke="#EF2D28" stroke-width="0.2"/>
<path d="M11.0957 24.7253C11.3459 24.7253 11.5488 24.5527 11.5488 24.3398C11.5488 24.1269 11.3459 23.9543 11.0957 23.9543C10.8454 23.9543 10.6426 24.1269 10.6426 24.3398C10.6426 24.5527 10.8454 24.7253 11.0957 24.7253Z" fill="white" stroke="#EF2D28" stroke-width="0.2"/>
<path fill-rule="evenodd" clip-rule="evenodd" d="M8.29577 22.426L7.63218 23.0138L8.29577 22.426ZM8.7361 22.426L8.07251 23.0138L8.7361 22.426ZM9.17023 22.426L8.51284 23.0138L9.17023 22.426ZM9.61056 22.426L8.95317 23.0138L9.61056 22.426ZM10.0509 22.426L9.3935 23.0138L10.0509 22.426ZM10.4912 22.426L9.83383 23.0138L10.4912 22.426ZM10.9315 22.426L10.2742 23.0138L10.9315 22.426ZM11.3719 22.426L10.7145 23.0138L11.3719 22.426ZM11.8122 22.426L11.1486 23.0138L11.8122 22.426ZM12.2525 22.426L11.5827 23.0138L12.2525 22.426ZM12.6805 22.426L12.0231 23.0138L12.6805 22.426ZM13.1208 22.426L12.4634 23.0138L13.1208 22.426ZM11.3657 22.426L10.7145 23.0138L11.3657 22.426ZM13.5673 22.426L12.9099 23.0138L13.5673 22.426ZM14.0077 22.426L13.3503 23.0138L14.0077 22.426ZM14.448 22.426L13.7906 23.0138L14.448 22.426ZM14.8883 22.426L14.2309 23.0138L14.8883 22.426ZM14.2309 22.426L14.8883 23.0138L14.2309 22.426ZM13.7906 22.426L14.448 23.0138L13.7906 22.426ZM13.3503 22.426L14.0077 23.0138L13.3503 22.426ZM12.9099 22.426L13.5673 23.0138L12.9099 22.426ZM12.4696 22.426L13.127 23.0138L12.4696 22.426ZM12.0293 22.426L12.6867 23.0138L12.0293 22.426ZM11.5889 22.426L12.2525 23.0138L11.5889 22.426ZM11.1486 22.426L11.806 23.0138L11.1486 22.426ZM10.7021 22.426L11.3657 23.0138L10.7021 22.426ZM10.268 22.426L10.9253 23.0138L10.268 22.426ZM9.82762 22.426L10.485 23.0138L9.82762 22.426ZM9.38729 22.426L10.0447 23.0138L9.38729 22.426ZM11.1486 22.426L11.806 23.0138L11.1486 22.426ZM8.95317 22.426L9.60436 23.0138L8.95317 22.426ZM8.50664 22.426L9.17023 23.0138L8.50664 22.426ZM8.06631 22.426L8.7299 23.0138L8.06631 22.426ZM7.62598 22.426L8.29577 23.0138L7.62598 22.426ZM8.29577 25.7641L7.63838 26.3574L8.29577 25.7641ZM8.7299 25.7641L8.06631 26.3574L8.7299 25.7641ZM9.17643 25.7641L8.51284 26.3574L9.17643 25.7641ZM9.61056 25.7641L8.95317 26.3574L9.61056 25.7641ZM10.0509 25.7641L9.3935 26.3574L10.0509 25.7641ZM10.4912 25.7641L9.83383 26.3574L10.4912 25.7641ZM10.9315 25.7641L10.2804 26.3574L10.9315 25.7641ZM11.3719 25.7641L10.7145 26.3574L11.3719 25.7641ZM11.8122 25.7641L11.1486 26.3574L11.8122 25.7641ZM12.2463 25.7641L11.5827 26.3574L12.2463 25.7641ZM12.6991 25.7641L12.0355 26.3574L12.6991 25.7641ZM13.1332 25.7641L12.4758 26.3574L13.1332 25.7641ZM11.3719 25.7641L10.7145 26.3574L11.3719 25.7641ZM13.5673 25.7641L12.9099 26.3574L13.5673 25.7641ZM14.0077 25.7641L13.3503 26.3574L14.0077 25.7641ZM14.448 25.7641L13.7906 26.3574L14.448 25.7641ZM14.8883 25.7641L14.2309 26.3574L14.8883 25.7641ZM14.2309 25.7641L14.8883 26.3574L14.2309 25.7641ZM13.7906 25.7641L14.448 26.3574L13.7906 25.7641ZM13.3503 25.7641L14.0077 26.3574L13.3503 25.7641ZM12.9099 25.7641L13.5673 26.3574L12.9099 25.7641ZM12.4696 25.7641L13.127 26.3574L12.4696 25.7641ZM12.0293 25.7641L12.6929 26.3574L12.0293 25.7641ZM11.5827 25.7641L12.2463 26.3574L11.5827 25.7641ZM11.1486 25.7641L11.806 26.3574L11.1486 25.7641ZM10.7145 25.7641L11.3719 26.3574L10.7145 25.7641ZM10.2742 25.7641L10.9315 26.3574L10.2742 25.7641ZM9.83383 25.7641L10.4912 26.3574L9.83383 25.7641ZM9.3935 25.7641L10.0509 26.3574L9.3935 25.7641ZM11.1548 25.7641L11.8122 26.3574L11.1548 25.7641ZM8.95937 25.7641L9.61056 26.3574L8.95937 25.7641ZM8.51284 25.7641L9.17643 26.3574L8.51284 25.7641ZM8.07251 25.7641L8.7361 26.3574L8.07251 25.7641ZM7.63838 25.7641L8.29577 26.3574L7.63838 25.7641Z" fill="white"/>
<path d="M8.29577 22.426L7.63218 23.0138M8.7361 22.426L8.07251 23.0138M9.17023 22.426L8.51284 23.0138M9.61056 22.426L8.95317 23.0138M10.0509 22.426L9.3935 23.0138M10.4912 22.426L9.83383 23.0138M10.9315 22.426L10.2742 23.0138M11.3719 22.426L10.7145 23.0138L11.3657 22.426M11.8122 22.426L11.1486 23.0138M12.2525 22.426L11.5827 23.0138M12.6805 22.426L12.0231 23.0138M13.1208 22.426L12.4634 23.0138M13.5673 22.426L12.9099 23.0138M14.0077 22.426L13.3503 23.0138M14.448 22.426L13.7906 23.0138M14.8883 22.426L14.2309 23.0138M14.2309 22.426L14.8883 23.0138M13.7906 22.426L14.448 23.0138M13.3503 22.426L14.0077 23.0138M12.9099 22.426L13.5673 23.0138M12.4696 22.426L13.127 23.0138M12.0293 22.426L12.6867 23.0138M11.5889 22.426L12.2525 23.0138M11.1486 22.426L11.806 23.0138M10.7021 22.426L11.3657 23.0138M10.268 22.426L10.9253 23.0138M9.82762 22.426L10.485 23.0138M9.38729 22.426L10.0447 23.0138M8.95317 22.426L9.60436 23.0138M8.50664 22.426L9.17023 23.0138M8.06631 22.426L8.7299 23.0138M7.62598 22.426L8.29577 23.0138M8.29577 25.7641L7.63838 26.3574M8.7299 25.7641L8.06631 26.3574M9.17643 25.7641L8.51284 26.3574M9.61056 25.7641L8.95317 26.3574M10.0509 25.7641L9.3935 26.3574M10.4912 25.7641L9.83383 26.3574M10.9315 25.7641L10.2804 26.3574M11.3719 25.7641L10.7145 26.3574M11.8122 25.7641L11.1486 26.3574M12.2463 25.7641L11.5827 26.3574M12.6991 25.7641L12.0355 26.3574M13.1332 25.7641L12.4758 26.3574M13.5673 25.7641L12.9099 26.3574M14.0077 25.7641L13.3503 26.3574M14.448 25.7641L13.7906 26.3574M14.8883 25.7641L14.2309 26.3574M14.2309 25.7641L14.8883 26.3574M13.7906 25.7641L14.448 26.3574M13.3503 25.7641L14.0077 26.3574M12.9099 25.7641L13.5673 26.3574M12.4696 25.7641L13.127 26.3574M12.0293 25.7641L12.6929 26.3574M11.5827 25.7641L12.2463 26.3574M11.1486 25.7641L11.806 26.3574M10.7145 25.7641L11.3719 26.3574M10.2742 25.7641L10.9315 26.3574M9.83383 25.7641L10.4912 26.3574M9.3935 25.7641L10.0509 26.3574M11.1548 25.7641L11.8122 26.3574M8.95937 25.7641L9.61056 26.3574M8.51284 25.7641L9.17643 26.3574M8.07251 25.7641L8.7361 26.3574M7.63838 25.7641L8.29577 26.3574" stroke="#EF2D28" stroke-width="0.2"/>
<path fill-rule="evenodd" clip-rule="evenodd" d="M20.4313 31.898C9.76693 42.3582 5.21764 43.6795 7.35646 44.5238C9.49527 45.3681 16.3608 39.9684 23.5035 32.8026C30.6462 25.6368 35.0214 19.254 32.8826 18.4098C30.7437 17.5655 31.777 20.7823 20.4313 31.898Z" fill="white" stroke="#EF2D28" stroke-width="0.2"/>
<path fill-rule="evenodd" clip-rule="evenodd" d="M11.4673 39.509L15.207 40.4905C11.6906 43.8341 7.73384 45.2037 6.63611 44.616C5.53839 44.0282 8.61449 42.653 11.4735 39.5146L11.4673 39.509Z" fill="white" stroke="#EF2D28" stroke-width="0.2"/>
<path fill-rule="evenodd" clip-rule="evenodd" d="M11.4659 39.8987L14.5469 40.6825C11.1215 43.8976 7.73238 44.8093 6.85641 44.4148C5.97439 44.0255 8.6869 42.9219 11.4659 39.8987Z" fill="white" stroke="#EF2D28" stroke-width="0.2"/>
<path d="M22.9209 31.4514C22.9122 31.5018 22.886 31.7269 22.8641 31.8161C22.8641 31.9402 22.851 32.0333 22.8379 32.1303C22.803 32.2157 22.8073 32.2932 22.7025 32.3243C22.6541 32.4019 22.5769 32.4622 22.4841 32.495C22.4002 32.5548 22.3077 32.6043 22.209 32.6424C22.1057 32.6823 21.9905 32.6904 21.8814 32.6657C21.7853 32.6075 21.7154 32.5454 21.6368 32.495C21.6193 32.4174 21.6019 32.3049 21.58 32.2273C21.6141 32.3307 21.6332 32.4376 21.6368 32.5454C21.6281 32.6618 21.58 32.7161 21.5276 32.8092" stroke="#EF2D28" stroke-width="0.2"/>
<path d="M21.9299 33.0753L21.9037 33.052C21.9692 33.1102 21.943 33.083 21.7945 33.0016C21.6897 32.955 21.5761 32.9317 21.4407 32.9084H21.0564C20.9079 32.9084 20.8074 32.9278 20.7026 32.955C20.624 33.0248 20.5104 33.0636 20.4274 33.1257C20.3537 33.1752 20.2976 33.2425 20.2658 33.3197C20.1916 33.3856 20.1435 33.4865 20.0736 33.5369C20.0431 33.6494 19.9819 33.6455 19.9382 33.7309C20.0693 33.7386 20.1697 33.7541 20.2396 33.8279C20.3532 33.8783 20.1435 33.7774 20.0998 33.7309C20.0125 33.7076 19.9907 33.6843 19.8553 33.6843C19.733 33.6455 19.6543 33.7115 19.5277 33.7309C19.4534 33.7697 19.4316 33.7813 19.3355 33.7813" stroke="#EF2D28" stroke-width="0.2"/>
<path d="M20.458 34.2825C20.4012 34.2825 20.1479 34.3251 20.0474 34.2825C19.9339 34.2553 19.8727 34.2049 19.8029 34.1118C19.7679 34.0458 19.8029 34.2281 19.8029 34.3057C19.7898 34.4493 19.7417 34.4493 19.6631 34.5463C19.5845 34.5928 19.5015 34.6549 19.4185 34.6937C19.3457 34.7464 19.2629 34.7871 19.1739 34.8139C19.0866 34.8527 18.9948 34.8838 18.9293 34.9342C18.8376 34.9924 18.842 35.0622 18.7896 35.1553C18.8027 35.2717 18.8245 35.3415 18.8988 35.3958C18.9337 35.4773 19.0036 35.5588 19.0647 35.6131C19.1302 35.7295 19.2089 35.7799 19.0385 35.8071C18.9424 35.8458 18.89 35.8148 18.7896 35.8071" stroke="#EF2D28" stroke-width="0.2"/>
<path d="M18.7275 35.973C18.6577 35.9575 18.4218 35.8877 18.317 35.8528H17.9326C17.7885 35.8644 17.7579 35.9032 17.6356 35.9498C17.5526 36.0235 17.5002 36.0739 17.3867 36.1205C17.3299 36.1864 17.212 36.3028 17.1683 36.3881C17.1323 36.4885 17.1146 36.5932 17.1159 36.6985C17.1159 36.842 17.1596 36.8692 17.1683 36.9933C17.1989 37.1 17.2555 37.1993 17.3343 37.2843C17.3474 37.3153 17.3561 37.3231 17.3867 37.3308" stroke="#EF2D28" stroke-width="0.2"/>
<path d="M17.4385 37.6469C17.4261 37.6469 17.4013 37.7082 17.361 37.7602C17.271 37.8521 17.2617 37.8582 17.1284 37.8582C17.0043 37.8521 17.0199 37.8092 16.933 37.7817C16.8927 37.7204 16.8431 37.6714 16.7966 37.5888C16.7656 37.5398 16.7377 37.4632 16.7036 37.4173C16.6663 37.3591 16.6229 37.3162 16.5857 37.2642C16.5485 37.2489 16.5361 37.2336 16.4865 37.2244C16.5981 37.2427 16.6105 37.2825 16.6819 37.3407C16.717 37.3961 16.7491 37.4534 16.778 37.5122C16.7904 37.5949 16.8152 37.6592 16.8183 37.7602C16.8183 37.8674 16.8183 37.9409 16.778 38.0297C16.7315 38.0757 16.7005 38.1246 16.6415 38.1645C16.5925 38.2114 16.5479 38.2627 16.5082 38.3176L16.3315 38.4309C16.2756 38.4646 16.2105 38.4982 16.1206 38.5074C16.0059 38.4982 15.9717 38.4676 15.888 38.4309C15.8136 38.3788 15.7578 38.3451 15.6927 38.2961C15.6392 38.2526 15.5932 38.2009 15.5562 38.143C15.4539 38.1185 15.3857 38.1277 15.3237 38.1828C15.271 38.2191 15.2258 38.2648 15.1903 38.3176C15.1593 38.3329 15.1035 38.3788 15.0725 38.3941" stroke="#EF2D28" stroke-width="0.2"/>
<path d="M15.2962 38.4568C15.327 38.4683 15.4427 38.5485 15.4889 38.5753C15.5198 38.6784 15.5699 38.7319 15.5853 38.8428C15.6123 38.9421 15.6123 39.0568 15.6123 39.1752C15.5853 39.2975 15.5352 39.3854 15.4889 39.481C15.4118 39.5345 15.3733 39.5727 15.273 39.6262C15.1767 39.6415 15.0803 39.6529 14.9608 39.6529C14.8837 39.6759 14.7449 39.6873 14.6716 39.6529C14.5637 39.6377 14.4827 39.5956 14.4056 39.5574C14.317 39.5077 14.263 39.458 14.1666 39.4122C14.1165 39.3434 14.0432 39.2784 13.9738 39.1982C13.9122 39.1179 13.8698 39.0721 13.8273 38.9842C13.8659 39.0835 13.916 39.1752 13.9469 39.2708C14.0047 39.3701 14.0355 39.4084 14.0432 39.5306C14.0818 39.63 14.0702 39.7523 14.0702 39.8669C14.0587 39.9434 14.0548 40.0886 14.0201 40.1536V40.2262" stroke="#EF2D28" stroke-width="0.2"/>
<path d="M11.7411 40.6016V40.6404C11.7411 40.5461 11.7411 40.5905 11.7845 40.779C11.8528 40.8566 12.0326 40.8788 12.1691 40.8456C12.2931 40.7513 12.2931 40.6792 12.5164 40.6404C12.7396 40.6515 12.8264 40.7069 12.9505 40.779C13.0824 40.8228 13.1924 40.9074 13.2606 41.0174C13.304 41.1339 13.3288 41.2171 13.18 41.2614C13.0503 41.339 12.9011 41.3867 12.7458 41.4001C12.5722 41.4001 12.4419 41.3834 12.3613 41.4721C12.2373 41.583 12.2497 41.6496 12.2497 41.8492C12.2063 41.9102 12.2001 42.0932 12.1691 42.1653C12.0623 42.2155 11.9422 42.2385 11.8218 42.2318C11.7783 42.1209 11.7349 41.9324 11.7039 41.8159C11.6729 41.6939 11.6667 41.5165 11.5861 41.4333C11.515 41.3379 11.4245 41.2551 11.3194 41.1893C11.2567 41.1258 11.1749 41.0796 11.0837 41.0563C11.2388 41.1228 11.2574 41.2004 11.276 41.3668C11.1458 41.4222 11.1085 41.4666 10.8915 41.4721C10.6744 41.4555 10.6248 41.4056 10.5442 41.2947C10.5256 41.4721 10.4636 41.5276 10.4201 41.6828C10.3457 41.7827 10.3147 41.888 10.2341 42.0266C10.2651 42.193 10.3395 42.1985 10.3457 42.4037C10.3953 42.5423 10.3953 42.6699 10.5008 42.753C10.5504 42.8085 10.5876 42.814 10.6992 42.8196C10.476 42.8196 10.3395 42.7974 10.1907 42.7198C10.079 42.6532 9.99221 42.5756 9.88058 42.5091C9.74068 42.4148 9.5832 42.3435 9.41545 42.2983C9.23559 42.2983 9.10535 42.2817 9.03093 42.3704C8.9193 42.4425 8.84488 42.5645 8.79526 42.7198C8.76425 42.8972 8.74565 43.0192 8.83868 43.1356C8.90069 43.2687 8.9193 43.3186 8.83868 43.4794C8.74565 43.5903 8.61541 43.607 8.40455 43.6513C8.26191 43.6458 8.11926 43.6181 8.02003 43.5848" stroke="#EF2D28" stroke-width="0.2"/>
<path fill-rule="evenodd" clip-rule="evenodd" d="M32.6103 22.4665C37.3397 14.2794 40.4763 7.30296 39.6211 6.90804C38.7571 6.50905 34.2187 12.8382 29.4893 21.0252L32.6103 22.4665Z" fill="white" stroke="#EF2D28" stroke-width="0.2"/>
<path fill-rule="evenodd" clip-rule="evenodd" d="M32.2986 22.3281C36.8611 14.43 40.0031 7.75335 39.3189 7.43741C38.6277 7.11822 34.3642 13.2769 29.8017 21.1751" fill="white"/>
<path d="M32.2986 22.3281C36.8611 14.43 40.0031 7.75335 39.3189 7.43741C38.6277 7.11822 34.3642 13.2769 29.8017 21.1751" stroke="#EF2D28" stroke-width="0.2"/>
<path fill-rule="evenodd" clip-rule="evenodd" d="M31.5146 18.2078C30.9591 19.1308 30.3706 20.1883 29.8014 21.1737L32.3053 22.3299C32.8745 21.3446 33.4983 20.3033 34.0185 19.3641L31.5146 18.2078Z" fill="white" stroke="#EF2D28" stroke-width="0.2"/>
<path fill-rule="evenodd" clip-rule="evenodd" d="M31.7324 18.5268C31.1741 19.4547 30.7904 20.1575 30.2184 21.1478L32.0875 22.0109C32.6567 21.0256 33.0813 20.3292 33.6015 19.3899L31.7324 18.5268Z" fill="white" stroke="#EF2D28" stroke-width="0.2"/>
<path fill-rule="evenodd" clip-rule="evenodd" d="M33.0909 19.5973L31.839 19.0192L30.7291 20.9406L31.981 21.5187L33.0909 19.5973ZM33.0909 19.5973L30.7291 20.9406L33.0909 19.5973ZM31.981 21.5187L31.839 19.0192L31.981 21.5187ZM38.7373 9.82275L37.4854 9.24463L38.7373 9.82275Z" fill="white"/>
<path d="M33.0909 19.5973L31.839 19.0192M33.0909 19.5973L31.981 21.5187M33.0909 19.5973L30.7291 20.9406M31.839 19.0192L30.7291 20.9406M31.839 19.0192L31.981 21.5187M30.7291 20.9406L31.981 21.5187M38.7373 9.82275L37.4854 9.24463" stroke="#EF2D28" stroke-width="0.2"/>
<path d="M38.7298 8.91372C38.5375 8.96236 38.3463 8.86461 38.3029 8.6954C38.2595 8.52619 38.3802 8.34959 38.5726 8.30095C38.765 8.25232 38.9561 8.35006 38.9995 8.51928C39.0429 8.68849 38.9222 8.86509 38.7298 8.91372Z" fill="#EF0000" stroke="#EF2D28" stroke-width="0.2"/>
<path fill-rule="evenodd" clip-rule="evenodd" d="M30.7582 31.7105C41.4225 42.1707 45.9718 43.492 43.833 44.3363C41.6942 45.1806 34.8287 39.7809 27.686 32.6151C20.5433 25.4493 16.1681 19.0665 18.3069 18.2223C20.4457 17.378 19.4124 20.5948 30.7582 31.7105Z" fill="white" stroke="#EF2D28" stroke-width="0.2"/>
<path fill-rule="evenodd" clip-rule="evenodd" d="M39.7211 39.3215L35.9814 40.303C39.4979 43.6466 43.4546 45.0162 44.5524 44.4285C45.6501 43.8407 42.574 42.4655 39.7149 39.3271L39.7211 39.3215Z" fill="white" stroke="#EF2D28" stroke-width="0.2"/>
<path fill-rule="evenodd" clip-rule="evenodd" d="M39.7226 39.6799L36.6416 40.4637C40.067 43.6788 43.4561 44.5906 44.3321 44.196C45.2141 43.8068 42.5016 42.7031 39.7226 39.6799Z" fill="white" stroke="#EF2D28" stroke-width="0.2"/>
<path d="M28.2676 31.2327C28.2763 31.2831 28.3025 31.5081 28.3244 31.5973C28.3244 31.7215 28.3375 31.8146 28.3506 31.9116C28.3855 31.9969 28.3811 32.0745 28.486 32.1055C28.5344 32.1831 28.6115 32.2434 28.7043 32.2762C28.7883 32.336 28.8808 32.3856 28.9795 32.4236C29.0828 32.4635 29.198 32.4717 29.3071 32.4469C29.4032 32.3887 29.473 32.3266 29.5517 32.2762C29.5691 32.1986 29.5866 32.0861 29.6084 32.0085C29.5743 32.112 29.5553 32.2189 29.5517 32.3267C29.5604 32.443 29.6084 32.4973 29.6609 32.5904" stroke="#EF2D28" stroke-width="0.2"/>
<path d="M29.2596 32.8565L29.2858 32.8332C29.2203 32.8914 29.2465 32.8643 29.395 32.7828C29.4998 32.7362 29.6133 32.713 29.7487 32.6897H30.1331C30.2816 32.6897 30.382 32.7091 30.4869 32.7362C30.5655 32.8061 30.679 32.8449 30.762 32.9069C30.8358 32.9564 30.8919 33.0238 30.9236 33.1009C30.9979 33.1669 31.0459 33.2677 31.1158 33.3182C31.1464 33.4307 31.2075 33.4268 31.2512 33.5121C31.1202 33.5199 31.0197 33.5354 30.9498 33.6091C30.8363 33.6595 31.0459 33.5587 31.0896 33.5121C31.177 33.4888 31.1988 33.4656 31.3342 33.4656C31.4565 33.4268 31.5351 33.4927 31.6618 33.5121C31.736 33.5509 31.7579 33.5626 31.8539 33.5626" stroke="#EF2D28" stroke-width="0.2"/>
<path d="M30.7305 34.095C30.7872 34.095 31.0406 34.1376 31.141 34.095C31.2546 34.0678 31.3157 34.0174 31.3856 33.9243C31.4206 33.8583 31.3856 34.0406 31.3856 34.1182C31.3987 34.2618 31.4468 34.2618 31.5254 34.3588C31.604 34.4053 31.687 34.4674 31.77 34.5062C31.8428 34.5589 31.9256 34.5996 32.0146 34.6264C32.1019 34.6652 32.1936 34.6963 32.2591 34.7467C32.3509 34.8049 32.3465 34.8747 32.3989 34.9678C32.3858 35.0842 32.364 35.154 32.2897 35.2083C32.2548 35.2898 32.1849 35.3713 32.1237 35.4256C32.0582 35.542 31.9796 35.5924 32.15 35.6196C32.246 35.6583 32.2985 35.6273 32.3989 35.6196" stroke="#EF2D28" stroke-width="0.2"/>
<path d="M32.4619 35.7855C32.5318 35.77 32.7676 35.7002 32.8725 35.6653H33.2568C33.401 35.6769 33.4315 35.7157 33.5538 35.7623C33.6368 35.836 33.6892 35.8864 33.8028 35.933C33.8596 35.9989 33.9775 36.1153 34.0212 36.2006C34.0571 36.301 34.0748 36.4057 34.0736 36.511C34.0736 36.6545 34.0299 36.6817 34.0212 36.8058C33.9906 36.9125 33.9339 37.0118 33.8552 37.0968C33.8421 37.1278 33.8334 37.1356 33.8028 37.1433" stroke="#EF2D28" stroke-width="0.2"/>
<path d="M33.7812 37.4594C33.7937 37.4594 33.8185 37.5207 33.8588 37.5727C33.9487 37.6646 33.958 37.6707 34.0913 37.6707C34.2154 37.6646 34.1999 37.6217 34.2867 37.5942C34.327 37.5329 34.3766 37.4839 34.4231 37.4013C34.4541 37.3523 34.4821 37.2757 34.5162 37.2298C34.5534 37.1716 34.5968 37.1287 34.634 37.0767C34.6712 37.0614 34.6836 37.0461 34.7332 37.0369C34.6216 37.0552 34.6092 37.095 34.5379 37.1532C34.5027 37.2086 34.4706 37.2659 34.4417 37.3247C34.4293 37.4074 34.4045 37.4717 34.4014 37.5727C34.4014 37.6799 34.4014 37.7534 34.4417 37.8422C34.4883 37.8882 34.5193 37.9371 34.5782 37.977C34.6272 38.0239 34.6718 38.0752 34.7115 38.1301L34.8883 38.2434C34.9441 38.2771 35.0092 38.3107 35.0991 38.3199C35.2139 38.3107 35.248 38.2801 35.3317 38.2434C35.4061 38.1913 35.4619 38.1576 35.5271 38.1086C35.5805 38.0651 35.6266 38.0134 35.6635 37.9555C35.7658 37.931 35.8341 37.9402 35.8961 37.9953C35.9487 38.0316 35.9939 38.0773 36.0294 38.1301C36.0604 38.1454 36.1162 38.1913 36.1472 38.2066" stroke="#EF2D28" stroke-width="0.2"/>
<path d="M35.8933 38.238C35.8624 38.2495 35.7468 38.3298 35.7005 38.3565C35.6697 38.4597 35.6196 38.5132 35.6041 38.624C35.5771 38.7234 35.5771 38.838 35.5771 38.9565C35.6041 39.0788 35.6543 39.1667 35.7005 39.2622C35.7776 39.3157 35.8162 39.3539 35.9164 39.4074C36.0128 39.4227 36.1092 39.4342 36.2287 39.4342C36.3058 39.4571 36.4446 39.4686 36.5178 39.4342C36.6258 39.4189 36.7067 39.3769 36.7838 39.3386C36.8725 39.289 36.9265 39.2393 37.0228 39.1934C37.073 39.1246 37.1462 39.0597 37.2156 38.9794C37.2773 38.8992 37.3197 38.8533 37.3621 38.7654C37.3236 38.8648 37.2734 38.9565 37.2426 39.052C37.1848 39.1514 37.1539 39.1896 37.1462 39.3119C37.1077 39.4113 37.1192 39.5335 37.1192 39.6482C37.1308 39.7246 37.1347 39.8698 37.1693 39.9348V40.0074" stroke="#EF2D28" stroke-width="0.2"/>
<path d="M39.4483 40.4141V40.4529C39.4483 40.3586 39.4483 40.403 39.4049 40.5915C39.3367 40.6691 39.1568 40.6913 39.0204 40.6581C38.8964 40.5638 38.8964 40.4917 38.6731 40.4529C38.4498 40.464 38.363 40.5194 38.239 40.5915C38.1071 40.6353 37.9971 40.7199 37.9289 40.8299C37.8855 40.9464 37.8607 41.0296 38.0095 41.0739C38.1391 41.1515 38.2883 41.1992 38.4436 41.2126C38.6173 41.2126 38.7475 41.1959 38.8281 41.2846C38.9522 41.3955 38.9398 41.4621 38.9398 41.6617C38.9832 41.7227 38.9894 41.9057 39.0204 41.9778C39.1271 42.028 39.2473 42.051 39.3677 42.0443C39.4111 41.9334 39.4545 41.7449 39.4855 41.6284C39.5165 41.5064 39.5227 41.329 39.6034 41.2458C39.6745 41.1504 39.7649 41.0676 39.87 41.0018C39.9328 40.9383 40.0146 40.8921 40.1057 40.8688C39.9507 40.9353 39.9321 41.0129 39.9135 41.1793C40.0437 41.2347 40.0809 41.2791 40.298 41.2846C40.515 41.268 40.5647 41.2181 40.6453 41.1072C40.6639 41.2846 40.7259 41.3401 40.7693 41.4953C40.8437 41.5952 40.8747 41.7005 40.9554 41.8391C40.9244 42.0055 40.8499 42.011 40.8437 42.2162C40.7941 42.3548 40.7941 42.4824 40.6887 42.5655C40.6391 42.621 40.6019 42.6265 40.4902 42.6321C40.7135 42.6321 40.8499 42.6099 40.9988 42.5323C41.1104 42.4657 41.1972 42.3881 41.3089 42.3216C41.4488 42.2273 41.6063 42.156 41.774 42.1108C41.9539 42.1108 42.0841 42.0942 42.1585 42.1829C42.2702 42.255 42.3446 42.377 42.3942 42.5323C42.4252 42.7097 42.4438 42.8317 42.3508 42.9481C42.2888 43.0812 42.2702 43.1311 42.3508 43.2919C42.4438 43.4028 42.574 43.4195 42.7849 43.4638C42.9275 43.4583 43.0702 43.4306 43.1694 43.3973" stroke="#EF2D28" stroke-width="0.2"/>
<path fill-rule="evenodd" clip-rule="evenodd" d="M18.5762 22.279C13.8468 14.0919 10.7102 7.11546 11.5654 6.72054C12.4294 6.32155 16.9678 12.6507 21.6972 20.8377L18.5762 22.279Z" fill="white" stroke="#EF2D28" stroke-width="0.2"/>
<path fill-rule="evenodd" clip-rule="evenodd" d="M18.8889 22.1406C14.3264 14.2425 11.1844 7.56585 11.8686 7.24991C12.5598 6.93072 16.8233 13.0894 21.3858 20.9876" fill="white"/>
<path d="M18.8889 22.1406C14.3264 14.2425 11.1844 7.56585 11.8686 7.24991C12.5598 6.93072 16.8233 13.0894 21.3858 20.9876" stroke="#EF2D28" stroke-width="0.2"/>
<path fill-rule="evenodd" clip-rule="evenodd" d="M19.6719 18.0203C20.2274 18.9433 20.816 20.0008 21.3851 20.9862L18.8813 22.1424C18.3121 21.1571 17.6882 20.1158 17.168 19.1766L19.6719 18.0203Z" fill="white" stroke="#EF2D28" stroke-width="0.2"/>
<path fill-rule="evenodd" clip-rule="evenodd" d="M19.4541 18.3393C20.0125 19.2672 20.3961 19.97 20.9681 20.9603L19.099 21.8234C18.5298 20.8381 18.1052 20.1417 17.585 19.2024L19.4541 18.3393Z" fill="white" stroke="#EF2D28" stroke-width="0.2"/>
<path fill-rule="evenodd" clip-rule="evenodd" d="M18.0956 19.4098L19.3475 18.8317L20.4575 20.7531L19.2055 21.3312L18.0956 19.4098ZM18.0956 19.4098L20.4575 20.7531L18.0956 19.4098ZM19.2055 21.3312L19.3475 18.8317L19.2055 21.3312ZM12.4492 9.63525L13.7012 9.05713L12.4492 9.63525Z" fill="white"/>
<path d="M18.0956 19.4098L19.3475 18.8317M18.0956 19.4098L19.2055 21.3312M18.0956 19.4098L20.4575 20.7531M19.3475 18.8317L20.4575 20.7531M19.3475 18.8317L19.2055 21.3312M20.4575 20.7531L19.2055 21.3312M12.4492 9.63525L13.7012 9.05713" stroke="#EF2D28" stroke-width="0.2"/>
<path d="M12.4567 8.72622C12.6491 8.77486 12.8402 8.67711 12.8836 8.5079C12.927 8.33869 12.8063 8.16209 12.6139 8.11345C12.4216 8.06482 12.2304 8.16256 12.187 8.33178C12.1436 8.50099 12.2643 8.67759 12.4567 8.72622Z" fill="#EF0000" stroke="#EF2D28" stroke-width="0.2"/>
<path fill-rule="evenodd" clip-rule="evenodd" d="M22.3585 18.1064C22.3585 24.9822 22.3998 27.5718 21.8954 27.9266C21.4158 28.3092 8.07812 27.9266 8.07812 29.8896C8.07812 31.8525 19.0592 33.8265 22.3585 33.8265C26.7576 33.8265 28.9488 31.858 28.9488 27.9266V18.112H22.3585V18.1064Z" fill="white" stroke="#EF2D28" stroke-width="0.2"/>
<path fill-rule="evenodd" clip-rule="evenodd" d="M22.3613 20.0691V21.0505C24.5416 21.3774 26.7674 21.3774 28.9477 21.0505V20.0691C26.7674 20.3959 24.5416 20.3959 22.3613 20.0691Z" fill="white" stroke="#EF2D28" stroke-width="0.2"/>
<path fill-rule="evenodd" clip-rule="evenodd" d="M22.3613 18.1062V19.0877C24.5416 19.4145 26.7674 19.4145 28.9477 19.0877V18.1062C26.7674 18.4331 24.5416 18.4331 22.3613 18.1062Z" fill="white" stroke="#EF2D28" stroke-width="0.2"/>
<path fill-rule="evenodd" clip-rule="evenodd" d="M22.3613 19.0876V20.0691C24.5416 20.396 26.7674 20.396 28.9477 20.0691V19.0876C26.7674 19.4145 24.5416 19.4145 22.3613 19.0876Z" fill="white" stroke="#EF2D28" stroke-width="0.2"/>
<path fill-rule="evenodd" clip-rule="evenodd" d="M22.3613 21.0505V22.032C24.5416 22.3588 26.7674 22.3588 28.9477 22.032V21.0505C26.7674 21.3774 24.5416 21.3774 22.3613 21.0505Z" fill="white" stroke="#EF2D28" stroke-width="0.2"/>
<path d="M22.6604 19.8557C22.8267 19.8557 22.9615 19.7607 22.9615 19.6435C22.9615 19.5264 22.8267 19.4314 22.6604 19.4314C22.4942 19.4314 22.3594 19.5264 22.3594 19.6435C22.3594 19.7607 22.4942 19.8557 22.6604 19.8557Z" fill="white" stroke="#EF2D28" stroke-width="0.2"/>
<path d="M23.8577 19.9614C24.024 19.9614 24.1588 19.8664 24.1588 19.7493C24.1588 19.6321 24.024 19.5371 23.8577 19.5371C23.6914 19.5371 23.5566 19.6321 23.5566 19.7493C23.5566 19.8664 23.6914 19.9614 23.8577 19.9614Z" fill="white" stroke="#EF2D28" stroke-width="0.2"/>
<path d="M25.0589 20.0693C25.2252 20.0693 25.3599 19.9743 25.3599 19.8572C25.3599 19.74 25.2252 19.645 25.0589 19.645C24.8926 19.645 24.7578 19.74 24.7578 19.8572C24.7578 19.9743 24.8926 20.0693 25.0589 20.0693Z" fill="white" stroke="#EF2D28" stroke-width="0.2"/>
<path d="M26.2561 20.0693C26.4224 20.0693 26.5572 19.9743 26.5572 19.8572C26.5572 19.74 26.4224 19.645 26.2561 19.645C26.0899 19.645 25.9551 19.74 25.9551 19.8572C25.9551 19.9743 26.0899 20.0693 26.2561 20.0693Z" fill="white" stroke="#EF2D28" stroke-width="0.2"/>
<path d="M27.4534 19.9614C27.6197 19.9614 27.7545 19.8664 27.7545 19.7493C27.7545 19.6321 27.6197 19.5371 27.4534 19.5371C27.2871 19.5371 27.1523 19.6321 27.1523 19.7493C27.1523 19.8664 27.2871 19.9614 27.4534 19.9614Z" fill="white" stroke="#EF2D28" stroke-width="0.2"/>
<path d="M28.6556 19.8557C28.8218 19.8557 28.9566 19.7607 28.9566 19.6435C28.9566 19.5264 28.8218 19.4314 28.6556 19.4314C28.4893 19.4314 28.3545 19.5264 28.3545 19.6435C28.3545 19.7607 28.4893 19.8557 28.6556 19.8557Z" fill="white" stroke="#EF2D28" stroke-width="0.2"/>
<path fill-rule="evenodd" clip-rule="evenodd" d="M22.3612 23.0137L28.9475 28.3202L22.3612 23.0137ZM23.0186 23.0137L28.9537 27.7269L23.0186 23.0137ZM23.8931 23.2133L28.9537 27.1447L23.8931 23.2133ZM24.5504 23.2077L28.9537 26.5514L24.5504 23.2077ZM25.214 23.2133L28.9475 25.9636L25.214 23.2133ZM25.8714 23.2133L28.9475 25.3758L25.8714 23.2133ZM26.5288 23.2133L28.9475 24.7825L26.5288 23.2133ZM27.1986 23.2133L28.9599 24.3888L27.1986 23.2133ZM27.8498 23.2133L28.9537 24.0007L27.8498 23.2133ZM28.5134 23.2133L28.9475 23.6014L28.5134 23.2133ZM22.3612 23.6014L28.9475 28.9136L22.3612 23.6014ZM28.9475 23.0192L21.6914 28.908L28.9475 23.0192ZM28.2839 23.0137L21.9147 28.1262L28.2839 23.0137ZM27.4095 23.2133L22.355 27.1392L27.4095 23.2133ZM26.7459 23.2133L22.355 26.5514L26.7459 23.2133ZM26.0947 23.2133L22.3612 25.9636L26.0947 23.2133ZM25.4373 23.2133L22.3612 25.3758L25.4373 23.2133ZM24.7799 23.2133L22.3612 24.7825L24.7799 23.2133ZM24.1101 23.2133L22.355 24.3888L24.1101 23.2133ZM23.4527 23.2133L22.355 24.0007L23.4527 23.2133ZM22.7891 23.2133L22.355 23.6014L22.7891 23.2133ZM28.9475 23.6014L21.6914 29.5069L28.9475 23.6014ZM28.9475 24.2003L21.6914 30.0891L28.9475 24.2003ZM28.9475 24.7825L21.6914 30.6769L28.9475 24.7825ZM28.9475 25.3703L21.6914 31.2757L28.9475 25.3703ZM28.9475 25.9692L21.6914 31.8579L28.9475 25.9692ZM28.9475 26.5514L21.6914 32.4457L28.9475 26.5514ZM28.9475 27.1392L21.6914 33.0335L28.9475 27.1392ZM28.9475 27.7325L21.6914 33.6268L28.9475 27.7325ZM28.9475 28.3202L22.1317 33.8209L28.9475 28.3202ZM28.9475 28.908L22.7953 33.8209L28.9475 28.908ZM28.7243 29.6954L23.8869 33.6268L28.7243 29.6954ZM28.5134 30.4772L24.5566 33.6213L28.5134 30.4772ZM28.0731 31.4587L26.0885 33.0279L28.0731 31.4587ZM22.3612 24.1892L28.7305 29.2962L22.3612 24.1892ZM22.3612 24.777L28.7305 29.8895L22.3612 24.777ZM22.3612 25.3758L28.5134 30.2832L22.3612 25.3758ZM22.3612 25.9581L28.5134 30.8765L22.3612 25.9581ZM22.3612 26.5514L28.2901 31.2646L22.3612 26.5514ZM22.1379 26.9451L28.0731 31.6583L22.1379 26.9451ZM22.1379 27.5384L27.6328 31.8635L22.1379 27.5384ZM21.9209 27.9265L27.4157 32.2516L21.9209 27.9265ZM21.6914 28.3147L26.963 32.4402L21.6914 28.3147ZM21.6914 28.9025L26.7459 32.8339L21.6914 28.9025ZM21.6914 29.4958L26.0947 33.0279L21.6914 29.4958Z" fill="white"/>
<path d="M22.3612 23.0137L28.9475 28.3202L22.1317 33.8209M23.0186 23.0137L28.9537 27.7269M23.8931 23.2133L28.9537 27.1447M24.5504 23.2077L28.9537 26.5514M25.214 23.2133L28.9475 25.9636M25.8714 23.2133L28.9475 25.3758M26.5288 23.2133L28.9475 24.7825L21.6914 30.6769M27.1986 23.2133L28.9599 24.3888M27.8498 23.2133L28.9537 24.0007M28.5134 23.2133L28.9475 23.6014L21.6914 29.5069M22.3612 23.6014L28.9475 28.9136M28.9475 23.0192L21.6914 28.908M28.2839 23.0137L21.9147 28.1262M27.4095 23.2133L22.355 27.1392M26.7459 23.2133L22.355 26.5514M26.0947 23.2133L22.3612 25.9636M25.4373 23.2133L22.3612 25.3758L28.5134 30.2832M24.7799 23.2133L22.3612 24.7825M24.1101 23.2133L22.355 24.3888M23.4527 23.2133L22.355 24.0007M22.7891 23.2133L22.355 23.6014M28.9475 24.2003L21.6914 30.0891M28.9475 25.3703L21.6914 31.2757M28.9475 25.9692L21.6914 31.8579M28.9475 26.5514L21.6914 32.4457M28.9475 27.1392L21.6914 33.0335M28.9475 27.7325L21.6914 33.6268M28.9475 28.908L22.7953 33.8209M28.7243 29.6954L23.8869 33.6268M28.5134 30.4772L24.5566 33.6213M28.0731 31.4587L26.0885 33.0279M22.3612 24.1892L28.7305 29.2962M22.3612 24.777L28.7305 29.8895M22.3612 25.9581L28.5134 30.8765M22.3612 26.5514L28.2901 31.2646M22.1379 26.9451L28.0731 31.6583M22.1379 27.5384L27.6328 31.8635M21.9209 27.9265L27.4157 32.2516M21.6914 28.3147L26.963 32.4402M21.6914 28.9025L26.7459 32.8339M21.6914 29.4958L26.0947 33.0279" stroke="#EF2D28" stroke-width="0.2"/>
<path fill-rule="evenodd" clip-rule="evenodd" d="M22.3613 22.0376V23.0191C24.5416 23.3459 26.7674 23.3459 28.9477 23.0191V22.0376C26.7674 22.3645 24.5416 22.3645 22.3613 22.0376Z" fill="white" stroke="#EF2D28" stroke-width="0.2"/>
<path fill-rule="evenodd" clip-rule="evenodd" d="M21.6976 30.0891L25.6544 33.2331L21.6976 30.0891ZM21.6976 30.6824L25.214 33.4272L21.6976 30.6824ZM21.6976 31.2647L24.7737 33.6268L21.6976 31.2647ZM21.6976 31.8524L23.8993 33.6268L21.6976 31.8524ZM21.6914 32.4457L23.4527 33.8209L21.6914 32.4457ZM21.6914 33.0335L22.7891 33.8209L21.6914 33.0335Z" fill="white"/>
<path d="M21.6976 30.0891L25.6544 33.2331M21.6976 30.6824L25.214 33.4272M21.6976 31.2647L24.7737 33.6268M21.6976 31.8524L23.8993 33.6268M21.6914 32.4457L23.4527 33.8209M21.6914 33.0335L22.7891 33.8209" stroke="#EF2D28" stroke-width="0.2"/>
<path d="M22.6604 22.8056C22.8267 22.8056 22.9615 22.7107 22.9615 22.5935C22.9615 22.4763 22.8267 22.3813 22.6604 22.3813C22.4942 22.3813 22.3594 22.4763 22.3594 22.5935C22.3594 22.7107 22.4942 22.8056 22.6604 22.8056Z" fill="white" stroke="#EF2D28" stroke-width="0.2"/>
<path d="M23.8577 22.9114C24.024 22.9114 24.1588 22.8164 24.1588 22.6992C24.1588 22.582 24.024 22.4871 23.8577 22.4871C23.6914 22.4871 23.5566 22.582 23.5566 22.6992C23.5566 22.8164 23.6914 22.9114 23.8577 22.9114Z" fill="white" stroke="#EF2D28" stroke-width="0.2"/>
<path d="M25.0589 23.0136C25.2252 23.0136 25.3599 22.9187 25.3599 22.8015C25.3599 22.6843 25.2252 22.5894 25.0589 22.5894C24.8926 22.5894 24.7578 22.6843 24.7578 22.8015C24.7578 22.9187 24.8926 23.0136 25.0589 23.0136Z" fill="white" stroke="#EF2D28" stroke-width="0.2"/>
<path d="M26.2561 23.0136C26.4224 23.0136 26.5572 22.9187 26.5572 22.8015C26.5572 22.6843 26.4224 22.5894 26.2561 22.5894C26.0899 22.5894 25.9551 22.6843 25.9551 22.8015C25.9551 22.9187 26.0899 23.0136 26.2561 23.0136Z" fill="white" stroke="#EF2D28" stroke-width="0.2"/>
<path d="M27.4534 22.9114C27.6197 22.9114 27.7545 22.8164 27.7545 22.6992C27.7545 22.582 27.6197 22.4871 27.4534 22.4871C27.2871 22.4871 27.1523 22.582 27.1523 22.6992C27.1523 22.8164 27.2871 22.9114 27.4534 22.9114Z" fill="white" stroke="#EF2D28" stroke-width="0.2"/>
<path d="M28.6556 22.8056C28.8218 22.8056 28.9566 22.7107 28.9566 22.5935C28.9566 22.4763 28.8218 22.3813 28.6556 22.3813C28.4893 22.3813 28.3545 22.4763 28.3545 22.5935C28.3545 22.7107 28.4893 22.8056 28.6556 22.8056Z" fill="white" stroke="#EF2D28" stroke-width="0.2"/>
<path fill-rule="evenodd" clip-rule="evenodd" d="M12.9102 32.2517L20.8175 28.1262L12.9102 32.2517ZM12.4699 32.0521L19.9431 28.1262L12.4699 32.0521ZM12.2528 31.6584L19.0624 28.1262L12.2528 31.6584ZM12.0295 31.2702L17.9647 28.1262L12.0295 31.2702ZM11.583 30.8765L17.0778 28.1262L11.583 30.8765ZM11.8063 30.2888L15.5398 28.3203L11.8063 30.2888ZM11.583 29.8895L14.4358 28.3203L11.583 29.8895ZM11.583 29.3018L13.5676 28.3203L11.583 29.3018ZM13.5676 32.4458L21.0346 28.5144L13.5676 32.4458ZM14.2312 32.6399L21.2579 28.9081L14.2312 32.6399ZM14.8886 32.8395L21.4811 29.3018L14.8886 32.8395ZM15.546 33.0335L21.0408 30.0892L15.546 33.0335ZM16.4204 33.0335L21.2579 30.4828L16.4204 33.0335ZM17.0778 33.2332L21.2517 31.0706L17.0778 33.2332ZM17.7352 33.4272L21.0346 31.6584L17.7352 33.4272ZM18.6159 33.4328L21.2517 32.0521L18.6159 33.4328ZM19.4965 33.6269L21.2579 32.6399L19.4965 33.6269ZM20.3896 33.6269L21.4873 33.0391L20.3896 33.6269Z" fill="white"/>
<path d="M12.9102 32.2517L20.8175 28.1262M12.4699 32.0521L19.9431 28.1262M12.2528 31.6584L19.0624 28.1262M12.0295 31.2702L17.9647 28.1262M11.583 30.8765L17.0778 28.1262M11.8063 30.2888L15.5398 28.3203M11.583 29.8895L14.4358 28.3203M11.583 29.3018L13.5676 28.3203M13.5676 32.4458L21.0346 28.5144M14.2312 32.6399L21.2579 28.9081M14.8886 32.8395L21.4811 29.3018M15.546 33.0335L21.0408 30.0892M16.4204 33.0335L21.2579 30.4828M17.0778 33.2332L21.2517 31.0706M17.7352 33.4272L21.0346 31.6584M18.6159 33.4328L21.2517 32.0521M19.4965 33.6269L21.2579 32.6399M20.3896 33.6269L21.4873 33.0391" stroke="#EF2D28" stroke-width="0.2"/>
<path fill-rule="evenodd" clip-rule="evenodd" d="M21.915 27.9321H20.8173C20.4518 29.8815 20.4518 31.8716 20.8173 33.8209H21.915C21.5495 31.8716 21.5495 29.8815 21.915 27.9321Z" fill="white" stroke="#EF2D28" stroke-width="0.2"/>
<path fill-rule="evenodd" clip-rule="evenodd" d="M8.95312 30.677L11.5889 28.7141L8.95312 30.677ZM8.95312 29.3019L11.5889 31.6585L8.95312 29.3019Z" fill="white"/>
<path d="M8.95312 30.677L11.5889 28.7141M8.95312 29.3019L11.5889 31.6585" stroke="#EF2D28" stroke-width="0.2"/>
<path fill-rule="evenodd" clip-rule="evenodd" d="M12.9102 28.3164L11.5904 28.5131C11.2977 29.7598 11.2977 30.8063 11.5904 32.053L12.9102 32.4428C12.6174 31.1996 12.6174 29.5631 12.9102 28.3164Z" fill="white" stroke="#EF2D28" stroke-width="0.2"/>
<path fill-rule="evenodd" clip-rule="evenodd" d="M28.9485 18.4945V17.502C27.9543 17.513 27.2945 16.9197 27.2945 16.3264L24.0051 16.332C24.0051 16.9197 23.3546 17.513 22.3604 17.513V18.4945H28.9485Z" fill="white" stroke="#EF2D28" stroke-width="0.2"/>
<path fill-rule="evenodd" clip-rule="evenodd" d="M24.2344 15.1564H27.0624V16.3375H24.2344V15.1564ZM24.4762 13.9753H26.8267V15.1564H24.47L24.4762 13.9753ZM24.4762 12.7998H26.8267V13.9753H24.47L24.4762 12.7998ZM24.7119 11.225H26.5911V12.7998H24.7119V11.225ZM24.6313 9.84985H26.6779V11.225H24.6313V9.84985Z" fill="white"/>
<path d="M26.8267 13.9753H24.4762L24.47 15.1564H26.8267V13.9753ZM26.8267 13.9753V12.7998H24.4762L24.47 13.9753H26.8267ZM24.2344 15.1564H27.0624V16.3375H24.2344V15.1564ZM24.7119 11.225H26.5911V12.7998H24.7119V11.225ZM24.6313 9.84985H26.6779V11.225H24.6313V9.84985Z" stroke="#EF2D28" stroke-width="0.2"/>
<path d="M25.7607 10.4434C27.2648 10.4434 28.4842 9.60675 28.4842 8.57472C28.4842 7.54268 27.2648 6.70605 25.7607 6.70605C24.2565 6.70605 23.0371 7.54268 23.0371 8.57472C23.0371 9.60675 24.2565 10.4434 25.7607 10.4434Z" fill="white" stroke="#EF2D28" stroke-width="0.2"/>
<path fill-rule="evenodd" clip-rule="evenodd" d="M27.126 8.47474C27.126 8.99042 27.8053 9.8499 27.8053 9.8499C27.3119 10.1937 26.5108 10.4432 25.7611 10.4432C25.0113 10.4432 24.0757 10.299 23.7168 9.8499C23.7168 9.8499 24.3961 8.99597 24.3961 8.48028C24.3961 7.9646 23.7168 7.2992 23.7168 7.2992C24.3116 6.92102 25.0294 6.71529 25.7675 6.71143C26.5108 6.71143 27.3055 6.96095 27.8053 7.2992C27.8053 7.2992 27.126 7.9646 27.126 8.48028V8.47474Z" fill="white" stroke="#EF2D28" stroke-width="0.2"/>
<path fill-rule="evenodd" clip-rule="evenodd" d="M26.6702 8.47474C26.6702 8.99042 27.3494 10.0495 27.3494 10.0495C26.856 10.3822 26.5164 10.4377 25.7602 10.4377C25.004 10.4377 24.5298 10.4987 24.1709 10.0495C24.1709 10.0495 24.8502 8.99597 24.8502 8.47474C24.8502 7.95351 24.1709 7.09958 24.1709 7.09958C24.6643 6.76688 25.004 6.71143 25.7602 6.71143C26.5099 6.71143 26.856 6.76688 27.3494 7.09958C27.3494 7.09958 26.6702 7.95905 26.6702 8.47474Z" fill="white" stroke="#EF2D28" stroke-width="0.2"/>
<path d="M23.0367 9.2566C23.4119 9.2566 23.716 8.99344 23.716 8.66883C23.716 8.34421 23.4119 8.08105 23.0367 8.08105C22.6615 8.08105 22.3574 8.34421 22.3574 8.66883C22.3574 8.99344 22.6615 9.2566 23.0367 9.2566Z" fill="white" stroke="#EF2D28" stroke-width="0.2"/>
<path d="M28.4879 9.2566C28.863 9.2566 29.1672 8.99344 29.1672 8.66883C29.1672 8.34421 28.863 8.08105 28.4879 8.08105C28.1127 8.08105 27.8086 8.34421 27.8086 8.66883C27.8086 8.99344 28.1127 9.2566 28.4879 9.2566Z" fill="white" stroke="#EF2D28" stroke-width="0.2"/>
<path d="M25.7662 9.2566C26.1414 9.2566 26.4455 8.99344 26.4455 8.66883C26.4455 8.34421 26.1414 8.08105 25.7662 8.08105C25.391 8.08105 25.0869 8.34421 25.0869 8.66883C25.0869 8.99344 25.391 9.2566 25.7662 9.2566Z" fill="white" stroke="#EF2D28" stroke-width="0.2"/>
<path d="M25.7662 7.2937C26.1414 7.2937 26.4455 7.03055 26.4455 6.70593C26.4455 6.38132 26.1414 6.11816 25.7662 6.11816C25.391 6.11816 25.0869 6.38132 25.0869 6.70593C25.0869 7.03055 25.391 7.2937 25.7662 7.2937Z" fill="white" stroke="#EF2D28" stroke-width="0.2"/>
<path d="M23.7739 18.4946C24.1624 18.4946 24.4774 18.2315 24.4774 17.9069C24.4774 17.5822 24.1624 17.3191 23.7739 17.3191C23.3853 17.3191 23.0703 17.5822 23.0703 17.9069C23.0703 18.2315 23.3853 18.4946 23.7739 18.4946Z" fill="white" stroke="#EF2D28" stroke-width="0.2"/>
<path d="M27.5326 18.4946C27.9212 18.4946 28.2362 18.2315 28.2362 17.9069C28.2362 17.5822 27.9212 17.3191 27.5326 17.3191C27.1441 17.3191 26.8291 17.5822 26.8291 17.9069C26.8291 18.2315 27.1441 18.4946 27.5326 18.4946Z" fill="white" stroke="#EF2D28" stroke-width="0.2"/>
<path fill-rule="evenodd" clip-rule="evenodd" d="M24.0059 16.332H27.2979L25.6519 18.1009L24.0059 16.332Z" fill="white" stroke="#EF2D28" stroke-width="0.2"/>
<path d="M25.65 18.4907C26.1681 18.4907 26.5881 18.1398 26.5881 17.707C26.5881 17.2742 26.1681 16.9233 25.65 16.9233C25.1319 16.9233 24.7119 17.2742 24.7119 17.707C24.7119 18.1398 25.1319 18.4907 25.65 18.4907Z" fill="white" stroke="#EF2D28" stroke-width="0.2"/>
<path d="M26.8327 23.5825H22.3116C22.1643 23.5825 22.0449 23.6744 22.0449 23.7877V24.5584C22.0449 24.6717 22.1643 24.7636 22.3116 24.7636H26.8327C26.98 24.7636 27.0994 24.6717 27.0994 24.5584V23.7877C27.0994 23.6744 26.98 23.5825 26.8327 23.5825Z" fill="white" stroke="#EF2D28" stroke-width="0.2"/>
<path fill-rule="evenodd" clip-rule="evenodd" d="M28.6372 22.6012C28.0294 22.6012 27.5395 23.0615 27.5395 23.6271V24.5198C27.5353 24.6518 27.5606 24.7832 27.6136 24.9064C27.6667 25.0297 27.7466 25.1422 27.8487 25.2377C27.9508 25.3331 28.0731 25.4094 28.2084 25.4623C28.3438 25.5151 28.4895 25.5435 28.6372 25.5456C28.7849 25.5435 28.9306 25.5151 29.0659 25.4623C29.2013 25.4094 29.3235 25.3331 29.4256 25.2377C29.5277 25.1422 29.6076 25.0297 29.6607 24.9064C29.7138 24.7832 29.739 24.6518 29.7349 24.5198V23.6326C29.7399 23.5001 29.7153 23.3681 29.6626 23.2443C29.6098 23.1204 29.5301 23.0072 29.4279 22.9111C29.3257 22.8151 29.2032 22.7383 29.0674 22.6851C28.9316 22.6319 28.7854 22.6034 28.6372 22.6012ZM28.6372 22.9894C28.2713 22.9894 27.9798 23.3609 27.9798 23.8156V24.3313C27.9798 24.786 28.2713 25.1519 28.6372 25.1519C29.0031 25.1519 29.2946 24.786 29.2946 24.3313V23.8156C29.2946 23.3609 29.0031 22.9949 28.6372 22.9949V22.9894ZM22.9253 22.7953C22.5532 22.7953 22.2679 23.1613 22.2679 23.6215V24.5309C22.2679 24.9856 22.5594 25.3516 22.9253 25.3516C23.2912 25.3516 23.5827 24.9856 23.5827 24.5309V23.616C23.5827 23.1557 23.2912 22.7898 22.9253 22.7898V22.7953ZM22.9253 22.4072C22.7776 22.4093 22.6319 22.4376 22.4966 22.4905C22.3612 22.5434 22.239 22.6197 22.1369 22.7151C22.0348 22.8105 21.9549 22.9231 21.9018 23.0463C21.8487 23.1696 21.8235 23.301 21.8276 23.433V24.7194C21.8235 24.8514 21.8487 24.9828 21.9018 25.1061C21.9549 25.2293 22.0348 25.3419 22.1369 25.4373C22.239 25.5327 22.3612 25.609 22.4966 25.6619C22.6319 25.7148 22.7776 25.7431 22.9253 25.7452C23.5331 25.7452 24.023 25.285 24.023 24.7194V23.433C24.028 23.3005 24.0034 23.1685 23.9507 23.0446C23.898 22.9208 23.8182 22.8075 23.716 22.7115C23.6138 22.6155 23.4913 22.5387 23.3555 22.4855C23.2198 22.4322 23.0735 22.4037 22.9253 22.4016V22.4072Z" fill="white" stroke="#EF2D28" stroke-width="0.2"/>
<path fill-rule="evenodd" clip-rule="evenodd" d="M21.1646 23.1889C20.7987 23.1889 20.5072 23.5548 20.5072 24.0095V24.2258C20.5072 24.6805 20.7987 25.0464 21.1646 25.0464C21.5367 25.0464 21.8282 24.6805 21.8282 24.2258V24.0095C21.8282 23.5548 21.5305 23.1889 21.1646 23.1889ZM21.1646 22.8007C21.0169 22.8029 20.8712 22.8312 20.7358 22.8841C20.6005 22.9369 20.4782 23.0133 20.3761 23.1087C20.274 23.2041 20.1941 23.3167 20.141 23.4399C20.0879 23.5631 20.0627 23.6945 20.0668 23.8265V24.4143C20.0627 24.5463 20.0879 24.6777 20.141 24.8009C20.1941 24.9242 20.274 25.0367 20.3761 25.1322C20.4782 25.2276 20.6005 25.3039 20.7358 25.3568C20.8712 25.4097 21.0169 25.438 21.1646 25.4401C21.7723 25.4401 22.2685 24.9799 22.2685 24.4143V23.8265C22.2735 23.6936 22.2487 23.5612 22.1956 23.4369C22.1425 23.3127 22.0621 23.1992 21.9593 23.1031C21.8565 23.007 21.7332 22.9303 21.5967 22.8774C21.4602 22.8245 21.3133 22.7966 21.1646 22.7952V22.8007Z" fill="white" stroke="#EF2D28" stroke-width="0.2"/>
<path fill-rule="evenodd" clip-rule="evenodd" d="M18.536 22.6465C17.8662 22.6465 17.3416 23.0555 17.3416 23.5637V24.5862C17.3416 25.0882 17.8774 25.5034 18.536 25.5034C19.1835 25.5034 19.7193 25.0944 19.7193 24.58V23.5637C19.7193 23.0555 19.1835 22.6465 18.536 22.6465ZM18.536 22.2127C18.2702 22.2143 18.0077 22.2452 17.7635 22.3035C17.5194 22.3619 17.2985 22.4465 17.1137 22.5526C16.9288 22.6586 16.7838 22.784 16.6868 22.9214C16.5899 23.0588 16.5431 23.2055 16.549 23.353V24.7907C16.54 24.9388 16.5843 25.0863 16.6792 25.2247C16.7741 25.3632 16.9177 25.4897 17.1016 25.597C17.2855 25.7043 17.5061 25.7902 17.7505 25.8497C17.9948 25.9091 18.2581 25.941 18.5249 25.9434C19.63 25.9434 20.5119 25.429 20.5119 24.7907V23.353C20.5194 23.2055 20.474 23.0586 20.3784 22.9209C20.2829 22.7832 20.139 22.6574 19.9552 22.5507C19.7715 22.4441 19.5514 22.3588 19.3078 22.2997C19.0642 22.2406 18.8018 22.2089 18.536 22.2065V22.2127Z" fill="white" stroke="#EF2D28" stroke-width="0.2"/>
<path fill-rule="evenodd" clip-rule="evenodd" d="M32.8183 22.8406C32.1485 22.8406 31.6238 23.2496 31.6238 23.7578V24.7803C31.6238 25.2823 32.1596 25.6975 32.8183 25.6975C33.4657 25.6975 34.0016 25.2885 34.0016 24.7741V23.7578C34.0016 23.2496 33.4657 22.8406 32.8183 22.8406ZM32.8183 22.4068C32.5525 22.4084 32.2899 22.4393 32.0457 22.4976C31.8016 22.556 31.5807 22.6406 31.3959 22.7467C31.2111 22.8527 31.066 22.9781 30.9691 23.1155C30.8721 23.2529 30.8253 23.3996 30.8312 23.5471V24.9848C30.8223 25.1329 30.8665 25.2804 30.9614 25.4188C31.0563 25.5573 31.1999 25.6838 31.3838 25.7911C31.5678 25.8984 31.7883 25.9843 32.0327 26.0438C32.2771 26.1032 32.5403 26.1351 32.8071 26.1375C33.9123 26.1375 34.7942 25.6231 34.7942 24.9848V23.5471C34.8016 23.3996 34.7562 23.2527 34.6606 23.115C34.5651 22.9773 34.4212 22.8515 34.2375 22.7448C34.0537 22.6382 33.8336 22.5529 33.59 22.4938C33.3464 22.4347 33.0841 22.403 32.8183 22.4006V22.4068Z" fill="white" stroke="#EF2D28" stroke-width="0.2"/>
<path d="M31.5703 23.5825H29.2198C29.141 23.5825 29.0771 23.6744 29.0771 23.7877V24.5584C29.0771 24.6717 29.141 24.7636 29.2198 24.7636H31.5703C31.6491 24.7636 31.7129 24.6717 31.7129 24.5584V23.7877C31.7129 23.6744 31.6491 23.5825 31.5703 23.5825Z" fill="white" stroke="#EF2D28" stroke-width="0.2"/>
<path d="M28.1166 23.3887H26.7398C26.6953 23.3887 26.6592 23.5103 26.6592 23.6604V24.6917C26.6592 24.8418 26.6953 24.9634 26.7398 24.9634H28.1166C28.1611 24.9634 28.1972 24.8418 28.1972 24.6917V23.6604C28.1972 23.5103 28.1611 23.3887 28.1166 23.3887Z" fill="white" stroke="#EF2D28" stroke-width="0.2"/>
<path d="M20.8666 23.3887H19.4898C19.4453 23.3887 19.4092 23.5103 19.4092 23.6604V24.6917C19.4092 24.8418 19.4453 24.9634 19.4898 24.9634H20.8666C20.9111 24.9634 20.9472 24.8418 20.9472 24.6917V23.6604C20.9472 23.5103 20.9111 23.3887 20.8666 23.3887Z" fill="white" stroke="#EF2D28" stroke-width="0.2"/>
<path d="M17.4861 23.189H14.7325C14.6435 23.189 14.5713 23.3404 14.5713 23.5272V24.8136C14.5713 25.0005 14.6435 25.1519 14.7325 25.1519H17.4861C17.5752 25.1519 17.6474 25.0005 17.6474 24.8136V23.5272C17.6474 23.3404 17.5752 23.189 17.4861 23.189Z" fill="white" stroke="#EF2D28" stroke-width="0.2"/>
<path d="M36.3964 23.3887H33.8474C33.7618 23.3887 33.6924 23.5401 33.6924 23.7269V25.0134C33.6924 25.2002 33.7618 25.3516 33.8474 25.3516H36.3964C36.482 25.3516 36.5514 25.2002 36.5514 25.0134V23.7269C36.5514 23.5401 36.482 23.3887 36.3964 23.3887Z" fill="white" stroke="#EF2D28" stroke-width="0.2"/>
</g>
</g>
<defs>
<clipPath id="clip0_1284_65706">
<rect width="250" height="150" fill="white"/>
</clipPath>
</defs>
</svg>
