<svg width="250" height="150" viewBox="0 0 250 150" fill="none" xmlns="http://www.w3.org/2000/svg">
<g clip-path="url(#clip0_1284_65817)">
<mask id="mask0_1284_65817" style="mask-type:luminance" maskUnits="userSpaceOnUse" x="-1" y="0" width="251" height="150">
<path d="M-0.0117188 0H249.964V150H-0.0117188V0Z" fill="white"/>
</mask>
<g mask="url(#mask0_1284_65817)">
<path fill-rule="evenodd" clip-rule="evenodd" d="M-15.6484 0H265.602V150H-15.6484V0Z" fill="#0C590B"/>
<path fill-rule="evenodd" clip-rule="evenodd" d="M-15.6484 0H54.8472V150H-15.6484V0Z" fill="white"/>
<path fill-rule="evenodd" clip-rule="evenodd" d="M182.982 65.3125L173.842 63.3789L169.038 71.377L168.042 62.1191L158.96 60.0098L167.456 56.2012L166.665 46.9141L172.934 53.8281L181.517 50.1953L176.859 58.2812L183.012 65.3125H182.982Z" fill="white"/>
<path fill-rule="evenodd" clip-rule="evenodd" d="M186.41 88.9258C184.46 93.1803 181.689 97.0074 178.255 100.187C174.821 103.367 170.793 105.836 166.401 107.453C162.01 109.071 157.342 109.804 152.666 109.611C147.991 109.418 143.399 108.302 139.156 106.328C130.547 102.342 123.875 95.0993 120.606 86.1932C117.337 77.2871 117.74 67.4471 121.725 58.8379C123.705 54.4123 126.588 50.45 130.191 47.2057C133.793 43.9614 138.035 41.5069 142.642 40C141.436 41.0045 140.282 42.0703 139.185 43.1934C133.47 49.5235 130.436 57.8259 130.723 66.3499C131.01 74.8739 134.596 82.9533 140.724 88.8845C146.853 94.8157 155.045 98.1351 163.573 98.1428C172.102 98.1505 180.3 94.8459 186.439 88.9258H186.41Z" fill="white"/>
</g>
</g>
<defs>
<clipPath id="clip0_1284_65817">
<rect width="250" height="150" fill="white"/>
</clipPath>
</defs>
</svg>
