<svg width="250" height="150" viewBox="0 0 250 150" fill="none" xmlns="http://www.w3.org/2000/svg">
<g clip-path="url(#clip0_1284_66519)">
<mask id="mask0_1284_66519" style="mask-type:luminance" maskUnits="userSpaceOnUse" x="0" y="0" width="250" height="150">
<path d="M0 0H250V150H0V0Z" fill="white"/>
</mask>
<g mask="url(#mask0_1284_66519)">
<path fill-rule="evenodd" clip-rule="evenodd" d="M-40.2734 0H290.313V150H-40.2734V0Z" fill="#4AADD6"/>
<path fill-rule="evenodd" clip-rule="evenodd" d="M135.907 72.5312C136.058 77.9611 135.09 83.3654 133.061 88.4251C131.031 93.4847 127.98 98.0971 124.089 101.99C120.198 105.882 115.545 108.976 110.404 111.089C105.264 113.202 99.7417 114.29 94.1623 114.29C88.583 114.29 83.0602 113.202 77.9202 111.089C72.7802 108.976 68.1271 105.882 64.2358 101.99C60.3445 98.0971 57.2938 93.4847 55.264 88.4251C53.2342 83.3654 52.2664 77.9611 52.4177 72.5312C52.2664 67.1014 53.2342 61.697 55.264 56.6374C57.2938 51.5777 60.3445 46.9654 64.2358 43.0727C68.1271 39.1801 72.7802 36.086 77.9202 33.9734C83.0602 31.8607 88.583 30.7722 94.1623 30.7722C99.7417 30.7722 105.264 31.8607 110.404 33.9734C115.545 36.086 120.198 39.1801 124.089 43.0727C127.98 46.9654 131.031 51.5777 133.061 56.6374C135.09 61.697 136.058 67.1014 135.907 72.5312Z" fill="#FFDE00"/>
</g>
</g>
<defs>
<clipPath id="clip0_1284_66519">
<rect width="250" height="150" fill="white"/>
</clipPath>
</defs>
</svg>
