<svg width="250" height="150" viewBox="0 0 250 150" fill="none" xmlns="http://www.w3.org/2000/svg">
<g clip-path="url(#clip0_1284_66533)">
<path fill-rule="evenodd" clip-rule="evenodd" d="M0.625 0L0.429688 150H250.43L0.625 0Z" fill="black"/>
<path fill-rule="evenodd" clip-rule="evenodd" d="M250.234 150L250.43 0H0.429688L250.234 150Z" fill="#FF0000"/>
<path d="M148.711 37.3264L146.075 37.1882C145.243 35.2527 142.953 34.5615 141.497 35.3909C138.814 35.3914 136.131 35.3453 133.45 35.2527L138.375 37.3955C139.693 40.7826 143.855 41.4738 143.855 41.4738C143.439 47.5566 137.681 40.7134 132.825 44.1696C129.357 46.2433 129.357 48.6626 127.484 52.6717C126.86 53.7777 124.432 56.6809 124.432 56.6809L128.524 56.3353L127.206 58.0633L132.062 57.3721L131.022 58.3398C131.715 58.4781 136.571 57.1647 136.571 57.1647L136.225 58.7546L141.774 56.75C141.774 56.75 142.884 57.6486 143.855 58.0633L144.549 55.2984L147.324 55.9896L148.017 53.2247C152.18 58.7546 153.567 64.2844 161.198 65.6669L160.504 62.902C162.532 63.7869 164.545 64.7087 166.539 65.6669L167.164 64.4918C170.493 66.842 173.199 66.7729 175.072 67.0493L173.684 63.5932L175.072 64.2844L172.991 58.7546L175.072 59.4458L172.297 55.2984L173.337 54.6072L172.991 52.5335C177.153 53.9159 182.702 55.9896 183.396 60.8283C184.09 68.4318 175.765 70.5055 170.216 69.8143C174.378 73.2704 182.009 71.888 185.477 68.4318C186.865 67.0493 187.558 64.9757 188.252 62.902C188.946 64.9757 190.333 67.7406 190.333 70.5055C189.639 76.7266 181.315 78.8003 175.765 79.4915C182.009 82.9477 193.108 78.8003 193.802 69.8143C193.802 62.2107 188.946 58.7546 186.865 55.2984L186.171 51.5658L188.252 52.5335C188.252 52.5335 187.003 50.2524 186.865 49.7686C186.865 49.7686 184.714 43.8931 183.951 42.5798L185.477 42.8562L179.789 35.7366L181.384 35.5983C181.384 35.5983 174.794 30.4141 172.991 29.7229L175.072 29.0316C170.91 26.9579 166.054 28.3404 161.891 31.1053L162.585 29.0316L161.336 29.1699V26.7506L162.585 24.8842L160.504 24.193L161.891 20.7368L159.81 21.4281L160.504 17.9719C160.504 17.9719 158.978 18.6632 158.007 18.594C158.405 17.8243 158.775 17.0404 159.117 16.2438C158.423 15.207 159.117 13.1333 159.117 13.1333C154.261 13.8245 153.567 14.5158 150.792 18.6632C146.63 26.2667 148.017 29.7229 148.711 37.3264Z" fill="#FFCC00" stroke="#FFCC00" stroke-width="0.1"/>
<path fill-rule="evenodd" clip-rule="evenodd" d="M174.933 48.6626C175.279 49.2847 179.234 51.151 182.147 52.81C181.384 49.6303 175.626 48.9391 174.933 48.6626Z" fill="#FF0000" stroke="#FF0000" stroke-width="0.387784"/>
<path fill-rule="evenodd" clip-rule="evenodd" d="M67.25 121.438L62.0312 118.625L56.875 121.469L58.5 114.969L53.6875 111.687L60 111.375L62.0312 105.625L63.9375 111.375L70.4062 111.656L65.5 115L67.25 121.438ZM78.5625 96.75L76.5 95.8125L74.5312 96.9375L74.8438 94.6875L73.1562 93.1562L75.375 92.75L76.3125 90.6875L77.4062 92.6875L79.6562 92.9375L78.0938 94.5625L78.5625 96.75ZM88.5625 82.625L84.0312 80.4375L79.6875 82.875L80.4062 77.9687L76.7188 74.5938L81.625 73.7188L83.6875 69.2187L86.0625 73.5937L91 74.1562L87.5625 77.75L88.5625 82.625ZM68 62.9375L62.6875 60.2812L57.5312 63.125L58.4062 57.3125L54.0937 53.25L59.9375 52.3125L62.4375 47L65.1562 52.2187L71.0312 52.9375L66.875 57.125L68 62.9375ZM49 83.375L43.6875 80.25L38.375 83.4688L39.7187 77.4375L35 73.375L41.1562 72.8125L43.5625 67.0938L46.0312 72.7812L52.2188 73.2812L47.5625 77.3437L49 83.375Z" fill="white"/>
</g>
<defs>
<clipPath id="clip0_1284_66533">
<rect width="250" height="150" fill="white"/>
</clipPath>
</defs>
</svg>
