<svg width="250" height="150" viewBox="0 0 250 150" fill="none" xmlns="http://www.w3.org/2000/svg">
<g clip-path="url(#clip0_1284_66502)">
<path d="M0 0H250V75H0V0Z" fill="#0038A8"/>
<path d="M0 75H250V150H0V75Z" fill="#CE1126"/>
<path d="M129.9 75L0 150V0" fill="white"/>
<path d="M9.43728 13.25L13.9058 17.1875L19.093 14.3125L16.7806 19.7812L21.1554 23.8438L15.2182 23.3437L12.6871 28.7188L11.3434 22.9375L5.46875 22.1875L10.5622 19.0625L9.43728 13.25ZM110.619 67.0937L110.744 73.0312L116.369 75L110.744 76.9375L110.619 82.875L107.026 78.1562L101.338 79.875L104.713 75L101.338 70.125L107.026 71.8438L110.619 67.0937ZM12.7183 121.281L15.2182 126.656L21.1554 126.156L16.8119 130.219L19.1242 135.688L13.937 132.844L9.43728 136.719L10.5622 130.875L5.46875 127.812L11.3747 127.062L12.7183 121.281ZM48.4038 43.4688L46.4664 45.4062L47.4351 60.0938L46.4977 60.1875L44.7165 46.7812L43.1229 48.3438L45.4977 60.3438C43.5774 60.7217 41.7508 61.4758 40.123 62.5625L33.3422 52.4375H31.0923L39.3418 63.1563C39.0851 63.3564 38.835 63.5648 38.5919 63.7813L28.8737 52.6875H26.1238V55.4375L37.1857 65.125L36.5607 65.9062L25.8426 57.6875V59.9062L35.9983 66.6875C34.9358 68.3125 34.1546 70.125 33.7797 72.0625L21.8116 69.6875L20.2179 71.25L33.6234 73.0312C33.5609 73.3437 33.5297 73.6875 33.5297 74L18.843 73.0625L16.9056 75L18.843 76.9375L33.5297 75.9688L33.6234 76.9375L20.2179 78.7188L21.7803 80.2812L33.7797 77.9062C34.1576 79.8267 34.9116 81.6534 35.9983 83.2812L25.8426 90.0625V92.3125L36.5607 84.0938C36.7609 84.3505 36.9693 84.6006 37.1857 84.8438L26.1238 94.5312V97.2812H28.9049L38.5919 86.2188L39.3731 86.8438L31.0923 97.5625H33.3422L40.123 87.4063C41.7167 88.4688 43.5604 89.25 45.4977 89.625L43.1229 101.625L44.6853 103.188L46.4664 89.7812C46.7789 89.8438 47.0914 89.875 47.4351 89.875L46.4977 104.562L48.4038 106.5L50.3725 104.562L49.4038 89.875L50.3412 89.7812L52.1224 103.219L53.716 101.625L51.3412 89.625C53.2615 89.247 55.0881 88.493 56.7159 87.4063L63.4967 97.5625H65.7466L57.4971 86.8438C57.7538 86.6436 58.0039 86.4352 58.247 86.2188L67.9652 97.2812H70.7151V94.5312L59.6532 84.8438L60.2782 84.0938L70.9963 92.3125V90.0625L60.8406 83.2812C61.9031 81.6875 62.6843 79.8438 63.0593 77.9062L75.0273 80.2812L76.621 78.7188L63.2155 76.9375C63.278 76.625 63.3092 76.3125 63.3092 75.9688L77.9959 76.9063L79.9333 75L77.9959 73.0625L63.3092 74L63.2155 73.0625L76.621 71.2813L75.0586 69.7188L63.0593 72.0625C62.6813 70.1421 61.9273 68.3154 60.8406 66.6875L70.9963 59.9062V57.6875L60.2782 65.9062C60.078 65.6495 59.8696 65.3994 59.6532 65.1562L70.7151 55.4688V52.6875H67.9652L58.2783 63.7813C58.0249 63.5643 57.7643 63.3558 57.4971 63.1563L65.7466 52.4375H63.4967L56.7159 62.5625C55.1222 61.5 53.2786 60.7188 51.3412 60.3438L53.716 48.375L52.1536 46.8125L50.3725 60.1875L49.4038 60.0938L50.3412 45.4062L48.4038 43.4688Z" fill="#FCD116"/>
</g>
<defs>
<clipPath id="clip0_1284_66502">
<rect width="250" height="150" fill="white"/>
</clipPath>
</defs>
</svg>
