<svg width="250" height="150" viewBox="0 0 250 150" fill="none" xmlns="http://www.w3.org/2000/svg">
<g clip-path="url(#clip0_1284_66560)">
<path d="M250 0H0V150H250V0Z" fill="#FF0000"/>
<path d="M100 0H0V150H100V0Z" fill="#006600"/>
<path fill-rule="evenodd" clip-rule="evenodd" d="M129.228 98.2649C117.855 97.9237 65.7024 65.4974 65.3447 60.3337L68.2246 55.5498C73.3977 63.0371 126.713 94.5723 131.95 93.4548L129.228 98.2634" fill="#FFFF00"/>
<path d="M129.228 98.2649C117.855 97.9237 65.7024 65.4974 65.3447 60.3337L68.2246 55.5498C73.3977 63.0371 126.713 94.5723 131.95 93.4548L129.228 98.2634" stroke="black" stroke-width="0.4" stroke-linecap="round" stroke-linejoin="round"/>
<path fill-rule="evenodd" clip-rule="evenodd" d="M67.6197 54.9002C66.5994 57.6353 81.2287 66.6445 98.8302 77.308C116.431 87.9707 131.608 94.5602 132.733 93.6152C132.801 93.4932 133.286 92.6624 133.242 92.669C133.031 92.9855 132.518 93.0854 131.717 92.8555C126.961 91.4893 114.559 85.8187 99.1993 76.5408C83.8401 67.2622 70.4769 58.7118 68.3999 55.0788C68.2554 54.8271 68.1525 54.3677 68.1734 54.0105L68.123 54.0098L67.6807 54.7797L67.62 54.9004L67.6197 54.9002ZM129.496 98.4152C129.304 98.7638 128.944 98.7754 128.261 98.7006C124.007 98.2316 111.098 91.9787 95.8235 82.8707C78.0503 72.2732 63.3717 62.617 64.9642 60.0932L65.3975 59.3303L65.4828 59.3567C64.0508 63.6336 94.4515 80.9485 96.2412 82.0525C113.831 92.9076 128.661 99.2466 129.973 97.5992L129.496 98.4171V98.4164L129.496 98.4152Z" fill="#FFFF00" stroke="black" stroke-width="0.4" stroke-linecap="round" stroke-linejoin="round"/>
<path fill-rule="evenodd" clip-rule="evenodd" d="M99.8378 63.4613C111.221 63.3717 125.268 61.9119 133.352 58.7026L131.611 55.8838C126.832 58.5181 112.708 60.2503 99.7416 60.5094C84.4057 60.3689 73.5806 58.9464 68.1568 55.3213L66.5127 58.323C76.4832 62.5256 86.7001 63.4178 99.8378 63.4613Z" fill="#FFFF00" stroke="black" stroke-width="0.4" stroke-linecap="round" stroke-linejoin="round"/>
<path fill-rule="evenodd" clip-rule="evenodd" d="M133.821 58.7663C133.543 59.2095 128.271 61.0205 120.505 62.357C115.238 63.1567 108.369 63.8403 99.7971 63.8486C91.6529 63.8562 84.9999 63.2788 79.9631 62.5988C71.8103 61.3255 67.6025 59.5537 66.0469 58.9277C66.1956 58.633 66.2912 58.4263 66.4347 58.1511C70.9128 59.9271 75.1402 60.998 80.0927 61.757C85.0964 62.432 91.6692 63.0178 99.7731 63.0102C108.305 63.0016 115.099 62.266 120.334 61.4902C128.299 60.2106 132.649 58.5639 133.26 57.7992L133.823 58.7663H133.822H133.821ZM132.293 55.9078C131.43 56.5984 127.128 58.1177 119.561 59.3216C114.511 60.0425 108.089 60.6878 99.8847 60.6958C92.0903 60.7034 85.7223 60.1801 80.8786 59.4773C73.1933 58.4776 69.103 56.6741 67.6283 56.1483C67.7751 55.8956 67.9245 55.6449 68.0779 55.3932C69.2253 55.9687 73.1726 57.5648 80.963 58.6641C85.7517 59.3404 92.1295 59.8445 99.8852 59.8365C108.051 59.8282 114.399 59.1704 119.418 58.4534C127.024 57.4109 131.117 55.4732 131.739 54.988L132.293 55.9071L132.293 55.9078Z" fill="#FFFF00" stroke="black" stroke-width="0.4" stroke-linecap="round" stroke-linejoin="round"/>
<path fill-rule="evenodd" clip-rule="evenodd" d="M62.4575 77.1225C69.4591 80.8736 85.01 82.764 99.7259 82.8941C113.125 82.9153 130.581 80.831 137.108 77.3854L136.929 73.6309C134.887 76.8098 116.18 79.8592 99.5805 79.7344C82.9808 79.6097 67.5662 77.0558 62.4277 73.7497L62.4576 77.1215" fill="#FFFF00"/>
<path d="M62.4575 77.1225C69.4591 80.8736 85.01 82.764 99.7259 82.8941C113.125 82.9153 130.581 80.831 137.108 77.3854L136.929 73.6309C134.887 76.8098 116.18 79.8592 99.5805 79.7344C82.9808 79.6097 67.5662 77.0558 62.4277 73.7497L62.4576 77.1215" stroke="black" stroke-width="0.4" stroke-linecap="round" stroke-linejoin="round"/>
<path fill-rule="evenodd" clip-rule="evenodd" d="M137.466 76.5826L137.466 77.4778C136.485 78.6463 130.334 80.4124 122.62 81.6561C116.748 82.5527 109.094 83.229 99.5562 83.229C90.4949 83.229 83.2689 82.5854 77.6651 81.7285C68.8071 80.4436 63.1412 78.1937 62.0039 77.5221L62.0089 76.4777C65.4253 78.7402 74.6813 80.3953 77.7894 80.9019C83.3567 81.7532 90.5397 82.3919 99.5559 82.3919C109.049 82.3919 116.66 81.7202 122.495 80.8295C128.029 80.0331 135.914 77.9621 137.466 76.583L137.466 76.5826ZM137.47 73.398L137.47 74.2933C136.489 75.4611 130.338 77.2272 122.623 78.4708C116.752 79.3674 109.098 80.0437 99.5599 80.0437C90.4986 80.0437 83.2726 79.4008 77.6689 78.5432C68.8109 77.259 63.145 75.009 62.0077 74.3372L62.0126 73.2927C65.429 75.5549 74.685 77.2104 77.7932 77.7162C83.3604 78.5682 90.5435 79.2072 99.5596 79.2072C109.053 79.2072 116.664 78.5351 122.498 77.6438C128.033 76.8474 135.917 74.7763 137.47 73.3973L137.47 73.398Z" fill="#FFFF00" stroke="black" stroke-width="0.4" stroke-linecap="round" stroke-linejoin="round"/>
<path fill-rule="evenodd" clip-rule="evenodd" d="M99.6941 97.6201C83.5917 97.5245 69.7944 93.248 66.8809 92.5411L69.0054 95.854C74.1518 98.0104 87.6121 101.224 99.8486 100.868C112.085 100.513 122.779 99.5684 130.316 95.914L132.494 92.4807C127.358 94.8901 109.88 97.5954 99.6941 97.6201Z" fill="#FFFF00" stroke="black" stroke-width="0.4" stroke-linecap="round" stroke-linejoin="round"/>
<path fill-rule="evenodd" clip-rule="evenodd" d="M131.133 95.1451C130.813 95.6323 130.487 96.1135 130.156 96.5812C126.601 97.8297 121.001 99.1404 118.637 99.5227C113.809 100.514 106.34 101.245 99.7104 101.249C85.4459 101.041 73.7696 98.2593 68.2765 95.8866L67.8333 95.1276L67.9057 95.0135L68.6574 95.3039C78.426 98.7851 89.3975 100.174 99.7908 100.423C106.393 100.447 113.003 99.6696 118.348 98.7175C126.544 97.0817 129.858 95.8487 130.875 95.2898L131.133 95.1451ZM133.022 92.0419C133.031 92.0515 133.039 92.0608 133.047 92.071C132.807 92.4735 132.561 92.883 132.308 93.2944C130.412 93.9694 125.267 95.4689 117.754 96.5154C112.804 97.1871 109.727 97.8376 99.8796 98.0281C81.4269 97.5604 69.4796 93.9665 66.6414 93.08L66.2207 92.2763C76.9147 95.0571 87.8384 96.9983 99.8802 97.1967C108.89 97.0055 112.722 96.3447 117.632 95.678C126.392 94.321 130.807 92.8843 132.131 92.4696C132.115 92.4457 132.095 92.4206 132.073 92.3948L133.023 92.0413L133.022 92.0419Z" fill="#FFFF00" stroke="black" stroke-width="0.4" stroke-linecap="round" stroke-linejoin="round"/>
<path fill-rule="evenodd" clip-rule="evenodd" d="M133.215 74.16C133.268 84.7114 127.847 94.1797 123.481 98.3569C117.304 104.266 109.113 108.068 99.5488 108.243C88.8683 108.438 78.7977 101.503 76.0965 98.4559C70.8154 92.499 66.5157 84.9345 66.3779 74.7397C67.032 63.2239 71.5706 55.2022 78.1494 49.7014C84.7282 44.2005 93.488 41.5215 100.783 41.7131C109.2 41.9344 119.033 46.0474 125.826 54.2126C130.277 59.5624 132.205 65.3681 133.215 74.16ZM99.6395 38.0317C120.152 38.0317 137.022 54.6585 137.022 75.0454C137.022 95.4319 120.152 112.059 99.6395 112.059C79.1275 112.059 62.3975 95.4322 62.3975 75.0454C62.3975 54.6585 79.1275 38.0317 99.6395 38.0317Z" fill="#FFFF00" stroke="black" stroke-width="0.4" stroke-linecap="round" stroke-linejoin="round"/>
<path fill-rule="evenodd" clip-rule="evenodd" d="M99.7396 37.905C120.27 37.905 137.014 54.5862 137.014 75.0383C137.014 95.49 120.27 112.171 99.7396 112.171C79.2092 112.171 62.4648 95.4904 62.4648 75.0383C62.4648 54.5862 79.2095 37.905 99.7396 37.905ZM63.2852 75.0384C63.2852 95.0109 79.7505 111.354 99.7396 111.354C119.729 111.354 136.194 95.0109 136.194 75.0384C136.194 55.0652 119.729 38.7219 99.7396 38.7219C79.7505 38.7219 63.2852 55.0659 63.2852 75.0384Z" fill="#FFFF00" stroke="black" stroke-width="0.4" stroke-linecap="round" stroke-linejoin="round"/>
<path fill-rule="evenodd" clip-rule="evenodd" d="M99.7703 40.9912C118.493 40.9912 133.914 56.2991 133.914 75.0052C133.914 93.7117 118.492 109.019 99.7703 109.019C81.0483 109.019 65.627 93.7117 65.627 75.0052C65.627 56.2991 81.0487 40.9912 99.7703 40.9912ZM66.4469 75.005C66.4469 93.2619 81.4979 108.201 99.7703 108.201C118.043 108.201 133.094 93.2619 133.094 75.005C133.094 56.7477 118.043 41.8081 99.7703 41.8081C81.4979 41.8081 66.4469 56.7477 66.4469 75.005Z" fill="#FFFF00" stroke="black" stroke-width="0.4" stroke-linecap="round" stroke-linejoin="round"/>
<path fill-rule="evenodd" clip-rule="evenodd" d="M101.273 37.7551H98.0781L98.0819 112.365H101.287L101.273 37.7551Z" fill="#FFFF00" stroke="black" stroke-width="0.4" stroke-linecap="round" stroke-linejoin="round"/>
<path fill-rule="evenodd" clip-rule="evenodd" d="M100.952 37.3298H101.765L101.772 112.799H100.958L100.952 37.3298ZM97.7812 37.3305H98.6007L98.6018 112.799H97.7817V37.3305H97.7812Z" fill="#FFFF00" stroke="black" stroke-width="0.4" stroke-linecap="round" stroke-linejoin="round"/>
<path fill-rule="evenodd" clip-rule="evenodd" d="M137.04 76.4758V73.7175L134.785 71.625L121.985 68.25L103.538 66.375L81.3265 67.5L65.5147 71.25L62.3223 73.605V76.3639L70.4089 72.7501L89.6089 69.7501H108.056L121.609 71.2501L131.021 73.5001L137.04 76.4758Z" fill="#FFFF00" stroke="black" stroke-width="0.4" stroke-linecap="round" stroke-linejoin="round"/>
<path fill-rule="evenodd" clip-rule="evenodd" d="M99.7548 69.2888C108.558 69.2726 117.099 70.1196 123.873 71.4336C130.864 72.8256 135.784 74.5669 137.466 76.5227L137.464 77.4911C135.435 75.0572 128.815 73.2731 123.716 72.2531C116.993 70.9503 108.509 70.1093 99.7548 70.1255C90.5169 70.1427 81.9149 71.0141 75.2902 72.3017C69.9744 73.3524 62.8851 75.4396 62 77.4984V76.49C62.4861 75.0649 67.7649 72.9353 75.1705 71.4587C81.8449 70.1622 90.4627 69.3056 99.7548 69.2888ZM99.7586 66.1042C108.562 66.0884 117.103 66.9357 123.877 68.249C130.868 69.6417 135.788 71.3823 137.47 73.3381L137.468 74.3065C135.439 71.8733 128.819 70.0889 123.72 69.0692C116.997 67.7658 108.513 66.9248 99.7586 66.9416C90.5207 66.9582 81.9605 67.8303 75.335 69.1172C70.2052 70.0859 62.8264 72.2558 62.0034 74.3147V73.3056C62.4895 71.8961 67.8752 69.6901 75.1742 68.2742C81.8487 66.9778 90.4665 66.1217 99.7586 66.1042Z" fill="#FFFF00" stroke="black" stroke-width="0.4" stroke-linecap="round" stroke-linejoin="round"/>
<path fill-rule="evenodd" clip-rule="evenodd" d="M99.5778 49.8601C113.45 49.791 125.551 51.7922 131.087 54.617L133.106 58.0966C128.294 55.5136 115.24 52.8279 99.5981 53.2295C86.853 53.3076 73.2349 54.6272 66.4023 58.2583L68.8131 54.2424C74.4206 51.3458 87.6449 49.8763 99.5783 49.8609" fill="#FFFF00"/>
<path d="M99.5778 49.8601C113.45 49.791 125.551 51.7922 131.087 54.617L133.106 58.0966C128.294 55.5136 115.24 52.8279 99.5981 53.2295C86.853 53.3076 73.2349 54.6272 66.4023 58.2583L68.8131 54.2424C74.4206 51.3458 87.6449 49.8763 99.5783 49.8609" stroke="black" stroke-width="0.4" stroke-linecap="round" stroke-linejoin="round"/>
<path fill-rule="evenodd" clip-rule="evenodd" d="M99.762 52.7326C107.674 52.7117 115.32 53.1562 121.4 54.249C127.063 55.2987 132.463 56.8743 133.235 57.7216L133.833 58.7753C131.956 57.5539 127.282 56.194 121.282 55.0606C115.256 53.9325 107.616 53.5587 99.7481 53.5793C90.8175 53.5488 83.8791 54.0185 77.9245 55.0527C71.6268 56.2264 67.2575 57.9032 66.1797 58.7L66.7663 57.5861C68.8607 56.5218 72.1838 55.2389 77.768 54.2374C83.9259 53.1169 90.938 52.7809 99.7625 52.7326L99.762 52.7326ZM99.7586 49.551C107.331 49.5311 114.807 49.9515 120.635 50.9949C125.231 51.8862 129.777 53.2776 131.441 54.5159L132.316 55.9017C130.828 54.2537 125.225 52.6919 120.279 51.8172C114.496 50.8236 107.33 50.4304 99.7585 50.3676C91.8119 50.3897 84.4681 50.8746 78.7694 51.9081C73.3328 52.9386 69.8245 54.1587 68.3401 55.1115L69.11 53.954C71.1585 52.8798 74.4679 51.8932 78.6358 51.0866C84.3766 50.0454 91.7654 49.5731 99.7586 49.551Z" fill="#FFFF00" stroke="black" stroke-width="0.4" stroke-linecap="round" stroke-linejoin="round"/>
<path fill-rule="evenodd" clip-rule="evenodd" d="M118.276 90.4724C111.418 89.1971 104.547 89.0119 99.7477 89.0682C76.6297 89.338 69.1617 93.7965 68.2502 95.1465L66.5225 92.341C72.4082 88.0915 84.997 85.7083 99.8729 85.9521C107.597 86.0781 114.263 86.5891 119.871 87.6709L118.276 90.4732" fill="#FFFF00"/>
<path d="M118.276 90.4724C111.418 89.1971 104.547 89.0119 99.7477 89.0682C76.6297 89.338 69.1617 93.7965 68.2502 95.1465L66.5225 92.341C72.4082 88.0915 84.997 85.7083 99.8729 85.9521C107.597 86.0781 114.263 86.5891 119.871 87.6709L118.276 90.4732" stroke="black" stroke-width="0.4" stroke-linecap="round" stroke-linejoin="round"/>
<path fill-rule="evenodd" clip-rule="evenodd" d="M99.615 88.6726C106.046 88.7682 112.358 89.0328 118.451 90.1645L118.01 90.9404C112.351 89.8999 106.318 89.5017 99.6368 89.5341C91.1049 89.4677 82.4754 90.2614 74.9625 92.4092C72.592 93.0663 68.6676 94.5844 68.2674 95.8389L67.8284 95.1179C67.9549 94.3764 70.3268 92.8375 74.7608 91.5966C83.3662 89.1419 91.4155 88.7282 99.615 88.672L99.615 88.6726ZM99.9068 85.449C106.57 85.573 113.45 85.88 120.138 87.1995L119.679 88.0072C113.64 86.8129 107.869 86.4147 99.9461 86.2934C91.3871 86.3089 82.3081 86.9168 74.0532 89.3073C71.3881 90.0806 66.7884 91.7524 66.6352 93.0761L66.1963 92.3015C66.2962 91.0993 70.278 89.531 73.8605 88.493C82.179 86.084 91.2815 85.4645 99.9068 85.449Z" fill="#FFFF00" stroke="black" stroke-width="0.4" stroke-linecap="round" stroke-linejoin="round"/>
<path fill-rule="evenodd" clip-rule="evenodd" d="M132.745 92.7675L129.967 97.0609L121.985 90L101.279 76.125L77.9379 63.375L65.8193 59.2463L68.4019 54.4763L69.2791 54L76.8085 55.875L101.656 68.625L115.962 77.625L128.009 86.25L132.903 91.875L132.745 92.7675Z" fill="#FFFF00" stroke="black" stroke-width="0.4" stroke-linecap="round" stroke-linejoin="round"/>
<path fill-rule="evenodd" clip-rule="evenodd" d="M65.3825 59.359C67.5081 57.923 83.129 64.8546 99.4739 74.6717C115.775 84.517 131.352 95.6421 129.946 97.7241L129.484 98.4487L129.272 98.6154C129.317 98.583 129.551 98.2976 129.249 97.5257C128.554 95.2493 117.505 86.4665 99.1708 75.44C81.2979 64.8242 66.4024 58.4259 64.9131 60.2548L65.3825 59.359ZM133.313 92.7066C134.657 90.0621 120.168 79.1901 102.204 68.6046C83.8277 58.2299 70.5831 52.123 68.1639 53.944L67.6264 54.9187C67.6217 54.9722 67.6459 54.8522 67.7595 54.7649C68.1994 54.3826 68.9285 54.4083 69.2576 54.4024C73.4232 54.4646 85.3204 59.9183 102.013 69.4504C109.327 73.6935 132.91 88.7595 132.82 92.9963C132.827 93.3604 132.85 93.4355 132.713 93.6157L133.313 92.7066Z" fill="#FFFF00"/>
<path d="M133.313 92.7066C134.657 90.0621 120.168 79.1901 102.204 68.6046C83.8277 58.2299 70.5831 52.123 68.1639 53.944L67.6264 54.9187C67.6217 54.9722 67.6459 54.8522 67.7595 54.7649C68.1994 54.3826 68.9285 54.4083 69.2576 54.4024C73.4232 54.4646 85.3204 59.9183 102.013 69.4504C109.327 73.6935 132.91 88.7595 132.82 92.9963C132.827 93.3604 132.85 93.4355 132.713 93.6157L133.313 92.7066ZM133.313 92.7066L133.313 92.7061M65.3825 59.359C67.5081 57.923 83.129 64.8546 99.4739 74.6717C115.775 84.517 131.352 95.6421 129.946 97.7241L129.484 98.4487L129.272 98.6154C129.317 98.583 129.551 98.2976 129.249 97.5257C128.554 95.2493 117.505 86.4665 99.1708 75.44C81.2979 64.8242 66.4024 58.4259 64.9131 60.2548L65.3825 59.359Z" stroke="black" stroke-width="0.4" stroke-linecap="round" stroke-linejoin="round"/>
<path d="M77.4105 79.1287C77.4105 85.2303 79.9189 90.7488 83.9826 94.782C88.0541 98.8237 93.5871 101.374 99.7225 101.374C105.889 101.374 111.486 98.8794 115.54 94.8532C119.595 90.8276 122.107 85.2712 122.108 79.1482H122.107V49.4523L77.4053 49.3994L77.4099 79.1287L77.4105 79.1287Z" fill="white" stroke="black" stroke-width="0.25"/>
<path d="M78.2458 79.1698V79.1867C78.2458 85.0206 80.6708 90.3332 84.5611 94.1901C88.459 98.0545 93.8275 100.457 99.7005 100.457C105.604 100.457 110.961 98.0719 114.843 94.2223C118.724 90.373 121.129 85.06 121.13 79.2058H121.129V50.3961L78.2714 50.3892L78.2451 79.1697M112.512 59.0145L112.514 77.3487L112.498 79.288C112.498 79.7983 112.468 80.3801 112.408 80.8755C112.06 83.7741 110.721 86.3007 108.739 88.266C106.419 90.5669 103.216 91.994 99.6861 91.994C96.1748 91.994 93.0456 90.5173 90.7152 88.2065C88.3247 85.8365 86.9392 82.5868 86.9392 79.2264L86.9342 58.9678L112.512 59.0137L112.512 59.0145Z" fill="#FF0000"/>
<path d="M78.2458 79.1698V79.1867C78.2458 85.0206 80.6708 90.3332 84.5611 94.1901C88.459 98.0545 93.8275 100.457 99.7005 100.457C105.604 100.457 110.961 98.0719 114.843 94.2223C118.724 90.373 121.129 85.06 121.13 79.2058H121.129V50.3961L78.2714 50.3892L78.2451 79.1697M112.512 59.0145L112.514 77.3487L112.498 79.288C112.498 79.7983 112.468 80.3801 112.408 80.8755C112.06 83.7741 110.721 86.3007 108.739 88.266C106.419 90.5669 103.216 91.994 99.6861 91.994C96.1748 91.994 93.0456 90.5173 90.7152 88.2065C88.3247 85.8365 86.9392 82.5868 86.9392 79.2264L86.9342 58.9678L112.512 59.0137L112.512 59.0145Z" stroke="black" stroke-width="0.25"/>
<path d="M81.0205 57.9111C81.0713 55.8407 82.5461 55.3506 82.5567 55.3433C82.5674 55.3364 84.1497 55.8712 84.1444 57.9303L81.0205 57.9111Z" fill="#FFFF00"/>
<path d="M79.7479 55.3837L79.4912 57.763L81.05 57.7663C81.065 55.7979 82.5461 55.4704 82.5819 55.4777C82.6155 55.4758 84.0836 55.9129 84.1228 57.7663H85.6856L85.4033 55.3689L79.748 55.3831L79.7479 55.3837Z" fill="#FFFF00" stroke="black" stroke-width="0.25"/>
<path d="M79.386 57.7725H85.7656C85.9001 57.7725 86.01 57.9048 86.01 58.0665C86.01 58.2279 85.9001 58.3595 85.7656 58.3595H79.386C79.2515 58.3595 79.1416 58.2279 79.1416 58.0665C79.1416 57.9048 79.2515 57.7725 79.386 57.7725Z" fill="#FFFF00" stroke="black" stroke-width="0.25"/>
<path d="M81.7051 57.7611C81.712 56.5189 82.5567 56.1673 82.561 56.168C82.5614 56.168 83.4428 56.5305 83.4498 57.7611H81.7051Z" fill="#FFFF00" stroke="black" stroke-width="0.25"/>
<path d="M79.5215 54.3938H85.6373C85.7661 54.3938 85.8717 54.5132 85.8717 54.6581C85.8717 54.8032 85.7661 54.9223 85.6373 54.9223H79.5215C79.3927 54.9223 79.2871 54.8039 79.2871 54.6581C79.2871 54.5132 79.3927 54.3938 79.5215 54.3938Z" fill="#FFFF00" stroke="black" stroke-width="0.25"/>
<path d="M79.6499 54.9263H85.4995C85.6227 54.9263 85.7236 55.045 85.7236 55.1902C85.7236 55.3357 85.6227 55.4544 85.4995 55.4544H79.6499C79.5267 55.4544 79.4258 55.3357 79.4258 55.1902C79.4258 55.045 79.5267 54.9263 79.6499 54.9263Z" fill="#FFFF00" stroke="black" stroke-width="0.25"/>
<path d="M81.5396 50.955L82.0015 50.9558V51.2825H82.3384V50.9485L82.8116 50.95V51.2827H83.1495V50.9487H83.623L83.6222 51.7031C83.6222 51.8215 83.5266 51.8982 83.4157 51.8982H81.755C81.6434 51.8982 81.5405 51.8092 81.5402 51.7007L81.5391 50.9553L81.5396 50.955Z" fill="#FFFF00" stroke="black" stroke-width="0.25"/>
<path d="M83.2783 51.9638L83.3826 54.3831L81.7627 54.3771L81.8699 51.9575L83.2783 51.9638Z" fill="#FFFF00" stroke="black" stroke-width="0.25"/>
<path d="M81.3015 53.085L81.351 54.389L79.7979 54.3898L79.8417 53.085L81.3015 53.085Z" fill="#FFFF00" stroke="black" stroke-width="0.25"/>
<path d="M85.2967 53.085L85.3461 54.389L83.793 54.3898L83.8368 53.085L85.2967 53.085Z" fill="#FFFF00" stroke="black" stroke-width="0.25"/>
<path d="M79.5552 52.14L80.0068 52.1412V52.4682H80.3371V52.1335L80.8 52.135V52.4684H81.131V52.1337L81.5941 52.1345L81.5934 52.8889C81.5934 53.0066 81.4997 53.0833 81.3915 53.0833H79.7663C79.6574 53.0833 79.5562 52.995 79.5558 52.8862L79.5547 52.1404L79.5552 52.14Z" fill="#FFFF00" stroke="black" stroke-width="0.25"/>
<path d="M83.5494 52.14L84.0009 52.1412V52.4682H84.3313V52.1335L84.7941 52.135V52.4684H85.1251V52.1337L85.5883 52.1345L85.5875 52.8889C85.5875 53.0066 85.4939 53.0833 85.3856 53.0833H83.7605C83.6516 53.0833 83.5503 52.995 83.55 52.8862L83.5488 52.1404L83.5494 52.14Z" fill="#FFFF00" stroke="black" stroke-width="0.25"/>
<path d="M82.4162 52.7286C82.4063 52.4935 82.7463 52.4908 82.7423 52.7286V53.3048H82.4162L82.4162 52.7286Z" fill="black"/>
<path d="M80.4092 53.565C80.4081 53.3378 80.7243 53.3331 80.7203 53.565V54.0101H80.4093L80.4092 53.565Z" fill="black"/>
<path d="M84.416 53.565C84.4149 53.3378 84.7311 53.3331 84.7271 53.565V54.0101H84.4161L84.416 53.565Z" fill="black"/>
<path d="M81.0205 75.2812C81.0713 73.2108 82.5461 72.7207 82.5567 72.7134C82.5674 72.7065 84.1497 73.2413 84.1444 75.3004L81.0205 75.2812Z" fill="#FFFF00"/>
<path d="M79.7479 72.7536L79.4912 75.1328L81.05 75.1362C81.065 73.1677 82.5461 72.8403 82.5819 72.8476C82.6155 72.8457 84.0836 73.2828 84.1228 75.1362H85.6856L85.4033 72.7388L79.748 72.753L79.7479 72.7536Z" fill="#FFFF00" stroke="black" stroke-width="0.25"/>
<path d="M79.386 75.1423H85.7656C85.9001 75.1423 86.01 75.2746 86.01 75.4363C86.01 75.5977 85.9001 75.7294 85.7656 75.7294H79.386C79.2515 75.7294 79.1416 75.5977 79.1416 75.4363C79.1416 75.2746 79.2515 75.1423 79.386 75.1423Z" fill="#FFFF00" stroke="black" stroke-width="0.25"/>
<path d="M81.7051 75.1312C81.712 73.889 82.5567 73.5374 82.561 73.5381C82.5614 73.5381 83.4428 73.9006 83.4498 75.1312H81.7051Z" fill="#FFFF00" stroke="black" stroke-width="0.25"/>
<path d="M79.5215 71.7637H85.6373C85.7661 71.7637 85.8717 71.8831 85.8717 72.0279C85.8717 72.1731 85.7661 72.2922 85.6373 72.2922H79.5215C79.3927 72.2922 79.2871 72.1738 79.2871 72.0279C79.2871 71.8831 79.3927 71.7637 79.5215 71.7637Z" fill="#FFFF00" stroke="black" stroke-width="0.25"/>
<path d="M79.6499 72.2961H85.4995C85.6227 72.2961 85.7236 72.4149 85.7236 72.5601C85.7236 72.7056 85.6227 72.8243 85.4995 72.8243H79.6499C79.5267 72.8243 79.4258 72.7056 79.4258 72.5601C79.4258 72.4149 79.5267 72.2961 79.6499 72.2961Z" fill="#FFFF00" stroke="black" stroke-width="0.25"/>
<path d="M81.5396 68.3249L82.0015 68.3256V68.6524H82.3384V68.3184L82.8116 68.3199V68.6526H83.1495V68.3185H83.623L83.6222 69.0729C83.6222 69.1913 83.5266 69.2681 83.4157 69.2681H81.755C81.6434 69.2681 81.5405 69.1791 81.5402 69.0706L81.5391 68.3252L81.5396 68.3249Z" fill="#FFFF00" stroke="black" stroke-width="0.25"/>
<path d="M83.2783 69.3337L83.3826 71.753L81.7627 71.747L81.8699 69.3274L83.2783 69.3337Z" fill="#FFFF00" stroke="black" stroke-width="0.25"/>
<path d="M81.3015 70.4548L81.351 71.7589L79.7979 71.7596L79.8417 70.4549L81.3015 70.4548Z" fill="#FFFF00" stroke="black" stroke-width="0.25"/>
<path d="M85.2967 70.4548L85.3461 71.7589L83.793 71.7596L83.8368 70.4549L85.2967 70.4548Z" fill="#FFFF00" stroke="black" stroke-width="0.25"/>
<path d="M79.5552 69.5099L80.0068 69.511V69.8381H80.3371V69.5034L80.8 69.5049V69.8383H81.131V69.5036L81.5941 69.5043L81.5934 70.2587C81.5934 70.3765 81.4997 70.4532 81.3915 70.4532H79.7663C79.6574 70.4532 79.5562 70.3649 79.5558 70.2561L79.5547 69.5103L79.5552 69.5099Z" fill="#FFFF00" stroke="black" stroke-width="0.25"/>
<path d="M83.5494 69.5099L84.0009 69.511V69.8381H84.3313V69.5034L84.7941 69.5049V69.8383H85.1251V69.5036L85.5883 69.5043L85.5875 70.2587C85.5875 70.3765 85.4939 70.4532 85.3856 70.4532H83.7605C83.6516 70.4532 83.5503 70.3649 83.55 70.2561L83.5488 69.5103L83.5494 69.5099Z" fill="#FFFF00" stroke="black" stroke-width="0.25"/>
<path d="M82.4162 70.0987C82.4063 69.8636 82.7463 69.8609 82.7423 70.0987V70.6749H82.4162L82.4162 70.0987Z" fill="black"/>
<path d="M80.4092 70.9348C80.4081 70.7076 80.7243 70.703 80.7203 70.9348V71.38H80.4093L80.4092 70.9348Z" fill="black"/>
<path d="M84.416 70.9348C84.4149 70.7076 84.7311 70.703 84.7271 70.9348V71.38H84.4161L84.416 70.9348Z" fill="black"/>
<path d="M87.8178 93.3616C86.3793 91.8674 87.0698 90.4795 87.0721 90.4668C87.0747 90.4544 88.5708 89.7123 90.0334 91.1663L87.8178 93.3616Z" fill="#FFFF00"/>
<path d="M85.1221 92.4808L86.6352 94.3378L87.7362 93.2382C86.3452 91.8413 87.1559 90.5636 87.1863 90.5434C87.2086 90.5184 88.5545 89.7883 89.9018 91.0658L91.0032 89.961L89.0973 88.4722L85.1218 92.4803L85.1221 92.4808Z" fill="#FFFF00" stroke="black" stroke-width="0.25"/>
<path d="M86.5687 94.4188L91.0641 89.9093C91.1589 89.8142 91.3305 89.8297 91.4456 89.9435C91.5605 90.0572 91.5768 90.2276 91.482 90.3226L86.9866 94.8322C86.8918 94.9272 86.7207 94.9122 86.6058 94.7986C86.4907 94.6847 86.4739 94.5139 86.5687 94.4188Z" fill="#FFFF00" stroke="black" stroke-width="0.25"/>
<path d="M88.194 92.7715C87.3144 91.8916 87.6594 91.0468 87.6629 91.0442C87.6631 91.044 88.5426 90.676 89.4238 91.5378L88.194 92.7715Z" fill="#FFFF00" stroke="black" stroke-width="0.25"/>
<path d="M84.2579 91.9425L88.5674 87.6195C88.6582 87.5284 88.8176 87.5378 88.9207 87.6398C89.0241 87.7421 89.0344 87.9005 88.9437 87.9916L84.6342 92.3146C84.5434 92.4057 84.3847 92.3969 84.2809 92.2942C84.1778 92.1922 84.1672 92.0335 84.2579 91.9425Z" fill="#FFFF00" stroke="black" stroke-width="0.25"/>
<path d="M84.7273 92.2271L88.8492 88.0922C88.936 88.0051 89.0916 88.0174 89.195 88.1196C89.2986 88.2221 89.312 88.377 89.2252 88.4641L85.1033 92.599C85.0165 92.6861 84.8608 92.6738 84.7572 92.5713C84.6539 92.4691 84.6405 92.3142 84.7273 92.2271Z" fill="#FFFF00" stroke="black" stroke-width="0.25"/>
<path d="M83.2297 88.0933L83.5557 87.7673L83.7883 87.9974L84.0258 87.7592L83.788 87.524L84.1225 87.1905L84.3594 87.4248L84.5976 87.1859L84.3598 86.9506L84.6934 86.6159L85.23 87.1477C85.3144 87.2311 85.3016 87.3528 85.2234 87.4312L84.053 88.6053C83.9744 88.6841 83.8385 88.6942 83.761 88.6181L83.2294 88.0939L83.2297 88.0933Z" fill="#FFFF00" stroke="black" stroke-width="0.25"/>
<path d="M85.1745 87.5743L86.9709 89.2047L85.8247 90.346L84.1772 88.5658L85.1745 87.5743Z" fill="#FFFF00" stroke="black" stroke-width="0.25"/>
<path d="M84.5794 89.7613L85.5429 90.6448L84.4487 91.7435L83.5505 90.7935L84.5794 89.7613Z" fill="#FFFF00" stroke="black" stroke-width="0.25"/>
<path d="M87.3948 86.9383L88.3583 87.8218L87.2641 88.9205L86.3659 87.9705L87.3948 86.9383Z" fill="#FFFF00" stroke="black" stroke-width="0.25"/>
<path d="M82.6759 90.3306L82.9949 90.0121L83.2278 90.2425L83.4607 90.0089L83.2224 89.7732L83.5496 89.4471L83.787 89.6819L84.0203 89.4478L83.782 89.2121L84.1089 88.8852L84.6455 89.417C84.7293 89.4999 84.718 89.6202 84.6417 89.6967L83.4963 90.8457C83.4196 90.9227 83.2853 90.9321 83.2076 90.8557L82.6758 90.3313L82.6759 90.3306Z" fill="#FFFF00" stroke="black" stroke-width="0.25"/>
<path d="M85.4894 87.5073L85.8084 87.1889L86.0413 87.4193L86.2741 87.1857L86.0358 86.95L86.3631 86.6238L86.6005 86.8586L86.8338 86.6246L86.5954 86.3889L86.9224 86.062L87.459 86.5938C87.5428 86.6767 87.5315 86.7969 87.4552 86.8735L86.3098 88.0224C86.233 88.0994 86.0988 88.1088 86.0211 88.0324L85.4893 87.508L85.4894 87.5073Z" fill="#FFFF00" stroke="black" stroke-width="0.25"/>
<path d="M85.1108 88.7227C84.9363 88.5641 85.1741 88.3218 85.3407 88.4921L85.751 88.898L85.5212 89.1285L85.1108 88.7227Z" fill="black"/>
<path d="M84.2925 90.7302C84.1299 90.5709 84.3495 90.344 84.5118 90.5102L84.8289 90.8237L84.6097 91.0437L84.2925 90.7302Z" fill="black"/>
<path d="M87.1158 87.8986C86.9532 87.7394 87.1728 87.5125 87.3351 87.6786L87.6521 87.9922L87.4329 88.2121L87.1158 87.8986Z" fill="black"/>
<path d="M98.2314 57.9111C98.2822 55.8407 99.7571 55.3506 99.7677 55.3433C99.7783 55.3364 101.361 55.8712 101.355 57.9303L98.2314 57.9111Z" fill="#FFFF00"/>
<path d="M96.9588 55.3837L96.7021 57.763L98.261 57.7663C98.2759 55.7979 99.757 55.4704 99.7929 55.4777C99.8264 55.4758 101.295 55.9129 101.334 57.7663H102.896L102.614 55.3689L96.9589 55.3831L96.9588 55.3837Z" fill="#FFFF00" stroke="black" stroke-width="0.25"/>
<path d="M96.5969 57.7725H102.977C103.111 57.7725 103.221 57.9048 103.221 58.0665C103.221 58.2279 103.111 58.3595 102.977 58.3595H96.5969C96.4624 58.3595 96.3525 58.2279 96.3525 58.0665C96.3525 57.9048 96.4624 57.7725 96.5969 57.7725Z" fill="#FFFF00" stroke="black" stroke-width="0.25"/>
<path d="M98.916 57.7611C98.923 56.5189 99.7676 56.1673 99.772 56.168C99.7723 56.168 100.654 56.5305 100.661 57.7611H98.916Z" fill="#FFFF00" stroke="black" stroke-width="0.25"/>
<path d="M96.7325 54.3938H102.848C102.977 54.3938 103.083 54.5132 103.083 54.6581C103.083 54.8032 102.977 54.9223 102.848 54.9223H96.7325C96.6036 54.9223 96.498 54.8039 96.498 54.6581C96.498 54.5132 96.6036 54.3938 96.7325 54.3938Z" fill="#FFFF00" stroke="black" stroke-width="0.25"/>
<path d="M96.8608 54.9263H102.71C102.834 54.9263 102.935 55.045 102.935 55.1902C102.935 55.3357 102.834 55.4544 102.71 55.4544H96.8608C96.7377 55.4544 96.6367 55.3357 96.6367 55.1902C96.6367 55.045 96.7377 54.9263 96.8608 54.9263Z" fill="#FFFF00" stroke="black" stroke-width="0.25"/>
<path d="M98.7506 50.955L99.2124 50.9558V51.2825H99.5494V50.9485L100.022 50.95V51.2827H100.36V50.9487H100.834L100.833 51.7031C100.833 51.8215 100.738 51.8982 100.627 51.8982H98.9659C98.8544 51.8982 98.7515 51.8092 98.7511 51.7007L98.75 50.9553L98.7506 50.955Z" fill="#FFFF00" stroke="black" stroke-width="0.25"/>
<path d="M100.489 51.9638L100.594 54.3831L98.9736 54.3771L99.0809 51.9575L100.489 51.9638Z" fill="#FFFF00" stroke="black" stroke-width="0.25"/>
<path d="M98.5125 53.085L98.562 54.389L97.0088 54.3898L97.0526 53.085L98.5125 53.085Z" fill="#FFFF00" stroke="black" stroke-width="0.25"/>
<path d="M102.508 53.085L102.557 54.389L101.004 54.3898L101.048 53.085L102.508 53.085Z" fill="#FFFF00" stroke="black" stroke-width="0.25"/>
<path d="M96.7662 52.14L97.2177 52.1412V52.4682H97.5481V52.1335L98.0109 52.135V52.4684H98.3419V52.1337L98.8051 52.1345L98.8043 52.8889C98.8043 53.0066 98.7107 53.0833 98.6024 53.0833H96.9773C96.8684 53.0833 96.7671 52.995 96.7668 52.8862L96.7656 52.1404L96.7662 52.14Z" fill="#FFFF00" stroke="black" stroke-width="0.25"/>
<path d="M100.76 52.14L101.212 52.1412V52.4682H101.542V52.1335L102.005 52.135V52.4684H102.336V52.1337L102.799 52.1345L102.798 52.8889C102.798 53.0066 102.705 53.0833 102.597 53.0833H100.971C100.862 53.0833 100.761 52.995 100.761 52.8862L100.76 52.1404L100.76 52.14Z" fill="#FFFF00" stroke="black" stroke-width="0.25"/>
<path d="M99.6272 52.7286C99.6172 52.4935 99.9572 52.4908 99.9532 52.7286V53.3048H99.6272L99.6272 52.7286Z" fill="black"/>
<path d="M97.6201 53.565C97.619 53.3378 97.9352 53.3331 97.9312 53.565V54.0101H97.6202L97.6201 53.565Z" fill="black"/>
<path d="M101.627 53.565C101.626 53.3378 101.942 53.3331 101.938 53.565V54.0101H101.627L101.627 53.565Z" fill="black"/>
<path d="M118.447 57.9111C118.396 55.8407 116.922 55.3506 116.911 55.3433C116.9 55.3364 115.318 55.8712 115.323 57.9303L118.447 57.9111Z" fill="#FFFF00"/>
<path d="M119.719 55.3837L119.976 57.763L118.417 57.7663C118.402 55.7979 116.921 55.4704 116.885 55.4777C116.851 55.4758 115.383 55.9129 115.344 57.7663H113.781L114.063 55.3689L119.719 55.3831L119.719 55.3837Z" fill="#FFFF00" stroke="black" stroke-width="0.25"/>
<path d="M120.081 57.7725H113.701C113.567 57.7725 113.457 57.9048 113.457 58.0665C113.457 58.2279 113.567 58.3595 113.701 58.3595H120.081C120.215 58.3595 120.325 58.2279 120.325 58.0665C120.325 57.9048 120.215 57.7725 120.081 57.7725Z" fill="#FFFF00" stroke="black" stroke-width="0.25"/>
<path d="M117.762 57.7611C117.755 56.5189 116.91 56.1673 116.906 56.168C116.905 56.168 116.024 56.5305 116.017 57.7611H117.762Z" fill="#FFFF00" stroke="black" stroke-width="0.25"/>
<path d="M119.945 54.3938H113.83C113.701 54.3938 113.595 54.5132 113.595 54.6581C113.595 54.8032 113.701 54.9223 113.83 54.9223H119.945C120.074 54.9223 120.18 54.8039 120.18 54.6581C120.18 54.5132 120.074 54.3938 119.945 54.3938Z" fill="#FFFF00" stroke="black" stroke-width="0.25"/>
<path d="M119.817 54.9263H113.967C113.844 54.9263 113.743 55.045 113.743 55.1902C113.743 55.3357 113.844 55.4544 113.967 55.4544H119.817C119.94 55.4544 120.041 55.3357 120.041 55.1902C120.041 55.045 119.94 54.9263 119.817 54.9263Z" fill="#FFFF00" stroke="black" stroke-width="0.25"/>
<path d="M117.927 50.955L117.465 50.9558V51.2825H117.128V50.9485L116.655 50.95V51.2827H116.317V50.9487H115.844L115.845 51.7031C115.845 51.8215 115.94 51.8982 116.051 51.8982H117.712C117.823 51.8982 117.926 51.8092 117.927 51.7007L117.928 50.9553L117.927 50.955Z" fill="#FFFF00" stroke="black" stroke-width="0.25"/>
<path d="M116.188 51.9638L116.084 54.3831L117.704 54.3771L117.597 51.9575L116.188 51.9638Z" fill="#FFFF00" stroke="black" stroke-width="0.25"/>
<path d="M118.165 53.085L118.116 54.389L119.669 54.3898L119.625 53.085L118.165 53.085Z" fill="#FFFF00" stroke="black" stroke-width="0.25"/>
<path d="M114.171 53.085L114.122 54.389L115.675 54.3898L115.631 53.085L114.171 53.085Z" fill="#FFFF00" stroke="black" stroke-width="0.25"/>
<path d="M119.912 52.14L119.46 52.1412V52.4682H119.13V52.1335L118.667 52.135V52.4684H118.336V52.1337L117.873 52.1345L117.873 52.8889C117.873 53.0066 117.967 53.0833 118.075 53.0833H119.7C119.809 53.0833 119.911 52.995 119.911 52.8862L119.912 52.1404L119.912 52.14Z" fill="#FFFF00" stroke="black" stroke-width="0.25"/>
<path d="M115.917 52.14L115.466 52.1412V52.4682H115.136V52.1335L114.673 52.135V52.4684H114.342V52.1337L113.879 52.1345L113.879 52.8889C113.879 53.0066 113.973 53.0833 114.081 53.0833H115.706C115.815 53.0833 115.917 52.995 115.917 52.8862L115.918 52.1404L115.917 52.14Z" fill="#FFFF00" stroke="black" stroke-width="0.25"/>
<path d="M117.051 52.7286C117.061 52.4935 116.721 52.4908 116.725 52.7286V53.3048H117.051L117.051 52.7286Z" fill="black"/>
<path d="M119.058 53.565C119.059 53.3378 118.743 53.3331 118.747 53.565V54.0101H119.057L119.058 53.565Z" fill="black"/>
<path d="M115.051 53.565C115.052 53.3378 114.736 53.3331 114.74 53.565V54.0101H115.051L115.051 53.565Z" fill="black"/>
<path d="M118.447 75.2812C118.396 73.2108 116.922 72.7207 116.911 72.7134C116.9 72.7065 115.318 73.2413 115.323 75.3004L118.447 75.2812Z" fill="#FFFF00"/>
<path d="M119.719 72.7536L119.976 75.1328L118.417 75.1362C118.402 73.1677 116.921 72.8403 116.885 72.8476C116.851 72.8457 115.383 73.2828 115.344 75.1362H113.781L114.063 72.7388L119.719 72.753L119.719 72.7536Z" fill="#FFFF00" stroke="black" stroke-width="0.25"/>
<path d="M120.081 75.1423H113.701C113.567 75.1423 113.457 75.2746 113.457 75.4363C113.457 75.5977 113.567 75.7294 113.701 75.7294H120.081C120.215 75.7294 120.325 75.5977 120.325 75.4363C120.325 75.2746 120.215 75.1423 120.081 75.1423Z" fill="#FFFF00" stroke="black" stroke-width="0.25"/>
<path d="M117.762 75.1312C117.755 73.889 116.91 73.5374 116.906 73.5381C116.905 73.5381 116.024 73.9006 116.017 75.1312H117.762Z" fill="#FFFF00" stroke="black" stroke-width="0.25"/>
<path d="M119.945 71.7637H113.83C113.701 71.7637 113.595 71.8831 113.595 72.0279C113.595 72.1731 113.701 72.2922 113.83 72.2922H119.945C120.074 72.2922 120.18 72.1738 120.18 72.0279C120.18 71.8831 120.074 71.7637 119.945 71.7637Z" fill="#FFFF00" stroke="black" stroke-width="0.25"/>
<path d="M119.817 72.2961H113.967C113.844 72.2961 113.743 72.4149 113.743 72.5601C113.743 72.7056 113.844 72.8243 113.967 72.8243H119.817C119.94 72.8243 120.041 72.7056 120.041 72.5601C120.041 72.4149 119.94 72.2961 119.817 72.2961Z" fill="#FFFF00" stroke="black" stroke-width="0.25"/>
<path d="M117.927 68.3249L117.465 68.3256V68.6524H117.128V68.3184L116.655 68.3199V68.6526H116.317V68.3185H115.844L115.845 69.0729C115.845 69.1913 115.94 69.2681 116.051 69.2681H117.712C117.823 69.2681 117.926 69.1791 117.927 69.0706L117.928 68.3252L117.927 68.3249Z" fill="#FFFF00" stroke="black" stroke-width="0.25"/>
<path d="M116.188 69.3337L116.084 71.753L117.704 71.747L117.597 69.3274L116.188 69.3337Z" fill="#FFFF00" stroke="black" stroke-width="0.25"/>
<path d="M118.165 70.4548L118.116 71.7589L119.669 71.7596L119.625 70.4549L118.165 70.4548Z" fill="#FFFF00" stroke="black" stroke-width="0.25"/>
<path d="M114.171 70.4548L114.122 71.7589L115.675 71.7596L115.631 70.4549L114.171 70.4548Z" fill="#FFFF00" stroke="black" stroke-width="0.25"/>
<path d="M119.912 69.5099L119.46 69.511V69.8381H119.13V69.5034L118.667 69.5049V69.8383H118.336V69.5036L117.873 69.5043L117.873 70.2587C117.873 70.3765 117.967 70.4532 118.075 70.4532H119.7C119.809 70.4532 119.911 70.3649 119.911 70.2561L119.912 69.5103L119.912 69.5099Z" fill="#FFFF00" stroke="black" stroke-width="0.25"/>
<path d="M115.917 69.5099L115.466 69.511V69.8381H115.136V69.5034L114.673 69.5049V69.8383H114.342V69.5036L113.879 69.5043L113.879 70.2587C113.879 70.3765 113.973 70.4532 114.081 70.4532H115.706C115.815 70.4532 115.917 70.3649 115.917 70.2561L115.918 69.5103L115.917 69.5099Z" fill="#FFFF00" stroke="black" stroke-width="0.25"/>
<path d="M117.051 70.0987C117.061 69.8636 116.721 69.8609 116.725 70.0987V70.6749H117.051L117.051 70.0987Z" fill="black"/>
<path d="M119.058 70.9348C119.059 70.7076 118.743 70.703 118.747 70.9348V71.38H119.057L119.058 70.9348Z" fill="black"/>
<path d="M115.051 70.9348C115.052 70.7076 114.736 70.703 114.74 70.9348V71.38H115.051L115.051 70.9348Z" fill="black"/>
<path d="M111.649 93.3613C113.087 91.8672 112.397 90.4792 112.395 90.4666C112.392 90.4542 110.896 89.712 109.433 91.1661L111.649 93.3613Z" fill="#FFFF00"/>
<path d="M114.345 92.4808L112.832 94.3378L111.731 93.2382C113.122 91.8413 112.311 90.5636 112.28 90.5434C112.258 90.5184 110.912 89.7883 109.565 91.0658L108.464 89.961L110.37 88.4722L114.345 92.4803L114.345 92.4808Z" fill="#FFFF00" stroke="black" stroke-width="0.25"/>
<path d="M112.898 94.4188L108.403 89.9093C108.308 89.8142 108.136 89.8297 108.021 89.9435C107.906 90.0572 107.89 90.2276 107.985 90.3226L112.48 94.8322C112.575 94.9272 112.746 94.9122 112.861 94.7986C112.976 94.6847 112.993 94.5139 112.898 94.4188Z" fill="#FFFF00" stroke="black" stroke-width="0.25"/>
<path d="M111.273 92.7713C112.152 91.8914 111.807 91.0465 111.804 91.044C111.804 91.0437 110.924 90.6758 110.043 91.5376L111.273 92.7713Z" fill="#FFFF00" stroke="black" stroke-width="0.25"/>
<path d="M115.209 91.9422L110.899 87.6192C110.809 87.5282 110.649 87.5376 110.546 87.6396C110.443 87.7418 110.432 87.9003 110.523 87.9913L114.833 92.3144C114.923 92.4054 115.082 92.3967 115.186 92.294C115.289 92.192 115.3 92.0333 115.209 91.9422Z" fill="#FFFF00" stroke="black" stroke-width="0.25"/>
<path d="M114.741 92.2271L110.619 88.0922C110.532 88.0051 110.376 88.0174 110.273 88.1196C110.169 88.2221 110.156 88.377 110.243 88.4641L114.365 92.599C114.451 92.6861 114.607 92.6738 114.711 92.5713C114.814 92.4691 114.827 92.3142 114.741 92.2271Z" fill="#FFFF00" stroke="black" stroke-width="0.25"/>
<path d="M116.238 88.0931L115.912 87.7671L115.679 87.9972L115.442 87.759L115.68 87.5237L115.345 87.1903L115.108 87.4246L114.87 87.1856L115.108 86.9504L114.774 86.6157L114.238 87.1475C114.153 87.2309 114.166 87.3525 114.244 87.4309L115.415 88.605C115.493 88.6839 115.629 88.694 115.707 88.6178L116.238 88.0937L116.238 88.0931Z" fill="#FFFF00" stroke="black" stroke-width="0.25"/>
<path d="M114.292 87.5743L112.496 89.2047L113.642 90.346L115.29 88.5658L114.292 87.5743Z" fill="#FFFF00" stroke="black" stroke-width="0.25"/>
<path d="M114.887 89.761L113.924 90.6445L115.018 91.7432L115.916 90.7933L114.887 89.761Z" fill="#FFFF00" stroke="black" stroke-width="0.25"/>
<path d="M112.073 86.938L111.109 87.8215L112.204 88.9202L113.102 87.9703L112.073 86.938Z" fill="#FFFF00" stroke="black" stroke-width="0.25"/>
<path d="M116.791 90.3303L116.472 90.0119L116.239 90.2423L116.006 90.0087L116.244 89.773L115.917 89.4468L115.68 89.6816L115.447 89.4476L115.685 89.2119L115.358 88.885L114.821 89.4168C114.737 89.4997 114.749 89.6199 114.825 89.6965L115.97 90.8454C116.047 90.9224 116.181 90.9318 116.259 90.8554L116.791 90.331L116.791 90.3303Z" fill="#FFFF00" stroke="black" stroke-width="0.25"/>
<path d="M113.977 87.5073L113.658 87.1889L113.425 87.4193L113.193 87.1857L113.431 86.95L113.104 86.6238L112.866 86.8586L112.633 86.6246L112.871 86.3889L112.544 86.062L112.008 86.5938C111.924 86.6767 111.935 86.7969 112.012 86.8735L113.157 88.0224C113.234 88.0994 113.368 88.1088 113.446 88.0324L113.978 87.508L113.977 87.5073Z" fill="#FFFF00" stroke="black" stroke-width="0.25"/>
<path d="M114.356 88.7227C114.53 88.5641 114.293 88.3218 114.126 88.4921L113.716 88.898L113.946 89.1285L114.356 88.7227Z" fill="black"/>
<path d="M115.174 90.7299C115.337 90.5707 115.117 90.3438 114.955 90.5099L114.638 90.8235L114.857 91.0434L115.174 90.7299Z" fill="black"/>
<path d="M112.352 87.8984C112.515 87.7391 112.295 87.5122 112.133 87.6784L111.816 87.992L112.035 88.2119L112.352 87.8984Z" fill="black"/>
<path d="M97.0012 75.9022V75.9041C97.0012 76.7336 97.3209 77.4893 97.8338 78.0376C98.3478 78.5876 99.0556 78.9293 99.8299 78.9293C100.608 78.9293 101.315 78.5899 101.826 78.0422C102.338 77.4952 102.655 76.7402 102.655 75.9074V71.8694L97.0113 71.8647L97.0012 75.9022Z" fill="#003399"/>
<path d="M98.2958 73.9578C98.6047 73.9578 98.8552 73.7083 98.8552 73.4005C98.8552 73.0928 98.6047 72.8433 98.2958 72.8433C97.9868 72.8433 97.7363 73.0928 97.7363 73.4005C97.7363 73.7083 97.9868 73.9578 98.2958 73.9578Z" fill="white"/>
<path d="M101.427 73.9604C101.736 73.9604 101.986 73.711 101.986 73.4032C101.986 73.0954 101.736 72.8459 101.427 72.8459C101.118 72.8459 100.867 73.0954 100.867 73.4032C100.867 73.711 101.118 73.9604 101.427 73.9604Z" fill="white"/>
<path d="M99.8583 75.4578C100.167 75.4578 100.418 75.2083 100.418 74.9005C100.418 74.5928 100.167 74.3433 99.8583 74.3433C99.5493 74.3433 99.2988 74.5928 99.2988 74.9005C99.2988 75.2083 99.5493 75.4578 99.8583 75.4578Z" fill="white"/>
<path d="M98.2958 77.0256C98.6047 77.0256 98.8552 76.7761 98.8552 76.4684C98.8552 76.1606 98.6047 75.9111 98.2958 75.9111C97.9868 75.9111 97.7363 76.1606 97.7363 76.4684C97.7363 76.7761 97.9868 77.0256 98.2958 77.0256Z" fill="white"/>
<path d="M101.424 77.0217C101.733 77.0217 101.983 76.7722 101.983 76.4645C101.983 76.1567 101.733 75.9072 101.424 75.9072C101.115 75.9072 100.864 76.1567 100.864 76.4645C100.864 76.7722 101.115 77.0217 101.424 77.0217Z" fill="white"/>
<path d="M97.0012 66.1464V66.1482C97.0012 66.9777 97.3209 67.7334 97.8338 68.2818C98.3478 68.8318 99.0556 69.1734 99.8299 69.1734C100.608 69.1734 101.315 68.8341 101.826 68.2864C102.338 67.7394 102.655 66.9843 102.655 66.1515V62.1135L97.0113 62.1089L97.0012 66.1464Z" fill="#003399"/>
<path d="M98.2958 64.2019C98.6047 64.2019 98.8552 63.9524 98.8552 63.6447C98.8552 63.3369 98.6047 63.0874 98.2958 63.0874C97.9868 63.0874 97.7363 63.3369 97.7363 63.6447C97.7363 63.9524 97.9868 64.2019 98.2958 64.2019Z" fill="white"/>
<path d="M101.427 64.2046C101.736 64.2046 101.986 63.9551 101.986 63.6473C101.986 63.3396 101.736 63.0901 101.427 63.0901C101.118 63.0901 100.867 63.3396 100.867 63.6473C100.867 63.9551 101.118 64.2046 101.427 64.2046Z" fill="white"/>
<path d="M99.8583 65.7019C100.167 65.7019 100.418 65.4524 100.418 65.1447C100.418 64.8369 100.167 64.5874 99.8583 64.5874C99.5493 64.5874 99.2988 64.8369 99.2988 65.1447C99.2988 65.4524 99.5493 65.7019 99.8583 65.7019Z" fill="white"/>
<path d="M98.2958 67.2698C98.6047 67.2698 98.8552 67.0203 98.8552 66.7125C98.8552 66.4048 98.6047 66.1553 98.2958 66.1553C97.9868 66.1553 97.7363 66.4048 97.7363 66.7125C97.7363 67.0203 97.9868 67.2698 98.2958 67.2698Z" fill="white"/>
<path d="M101.424 67.2659C101.733 67.2659 101.983 67.0164 101.983 66.7086C101.983 66.4009 101.733 66.1514 101.424 66.1514C101.115 66.1514 100.864 66.4009 100.864 66.7086C100.864 67.0164 101.115 67.2659 101.424 67.2659Z" fill="white"/>
<path d="M89.1711 75.9022V75.9041C89.1711 76.7336 89.4908 77.4893 90.0038 78.0376C90.5177 78.5876 91.2256 78.9293 91.9998 78.9293C92.7781 78.9293 93.4846 78.5899 93.9962 78.0422C94.5075 77.4952 94.8252 76.7402 94.8252 75.9074V71.8694L89.1812 71.8647L89.1711 75.9022Z" fill="#003399"/>
<path d="M90.4657 73.9578C90.7747 73.9578 91.0251 73.7083 91.0251 73.4005C91.0251 73.0928 90.7747 72.8433 90.4657 72.8433C90.1567 72.8433 89.9062 73.0928 89.9062 73.4005C89.9062 73.7083 90.1567 73.9578 90.4657 73.9578Z" fill="white"/>
<path d="M93.5965 73.9604C93.9055 73.9604 94.156 73.711 94.156 73.4032C94.156 73.0954 93.9055 72.8459 93.5965 72.8459C93.2876 72.8459 93.0371 73.0954 93.0371 73.4032C93.0371 73.711 93.2876 73.9604 93.5965 73.9604Z" fill="white"/>
<path d="M92.0282 75.4578C92.3372 75.4578 92.5876 75.2083 92.5876 74.9005C92.5876 74.5928 92.3372 74.3433 92.0282 74.3433C91.7192 74.3433 91.4688 74.5928 91.4688 74.9005C91.4688 75.2083 91.7192 75.4578 92.0282 75.4578Z" fill="white"/>
<path d="M90.4657 77.0256C90.7747 77.0256 91.0251 76.7761 91.0251 76.4684C91.0251 76.1606 90.7747 75.9111 90.4657 75.9111C90.1567 75.9111 89.9062 76.1606 89.9062 76.4684C89.9062 76.7761 90.1567 77.0256 90.4657 77.0256Z" fill="white"/>
<path d="M93.5936 77.0217C93.9026 77.0217 94.1531 76.7722 94.1531 76.4645C94.1531 76.1567 93.9026 75.9072 93.5936 75.9072C93.2846 75.9072 93.0342 76.1567 93.0342 76.4645C93.0342 76.7722 93.2846 77.0217 93.5936 77.0217Z" fill="white"/>
<path d="M104.811 75.9022V75.9041C104.811 76.7336 105.13 77.4893 105.643 78.0376C106.157 78.5876 106.865 78.9293 107.639 78.9293C108.418 78.9293 109.124 78.5899 109.636 78.0422C110.147 77.4952 110.465 76.7402 110.465 75.9074V71.8694L104.821 71.8647L104.811 75.9022Z" fill="#003399"/>
<path d="M106.105 73.9578C106.414 73.9578 106.665 73.7083 106.665 73.4005C106.665 73.0928 106.414 72.8433 106.105 72.8433C105.796 72.8433 105.546 73.0928 105.546 73.4005C105.546 73.7083 105.796 73.9578 106.105 73.9578Z" fill="white"/>
<path d="M109.236 73.9604C109.545 73.9604 109.796 73.711 109.796 73.4032C109.796 73.0954 109.545 72.8459 109.236 72.8459C108.927 72.8459 108.677 73.0954 108.677 73.4032C108.677 73.711 108.927 73.9604 109.236 73.9604Z" fill="white"/>
<path d="M107.668 75.4578C107.977 75.4578 108.227 75.2083 108.227 74.9005C108.227 74.5928 107.977 74.3433 107.668 74.3433C107.359 74.3433 107.108 74.5928 107.108 74.9005C107.108 75.2083 107.359 75.4578 107.668 75.4578Z" fill="white"/>
<path d="M106.105 77.0256C106.414 77.0256 106.665 76.7761 106.665 76.4684C106.665 76.1606 106.414 75.9111 106.105 75.9111C105.796 75.9111 105.546 76.1606 105.546 76.4684C105.546 76.7761 105.796 77.0256 106.105 77.0256Z" fill="white"/>
<path d="M109.233 77.0217C109.542 77.0217 109.793 76.7722 109.793 76.4645C109.793 76.1567 109.542 75.9072 109.233 75.9072C108.924 75.9072 108.674 76.1567 108.674 76.4645C108.674 76.7722 108.924 77.0217 109.233 77.0217Z" fill="white"/>
<path d="M97.0012 85.5712V85.573C97.0012 86.4025 97.3209 87.1582 97.8338 87.7066C98.3478 88.2566 99.0556 88.5982 99.8299 88.5982C100.608 88.5982 101.315 88.2589 101.826 87.7112C102.338 87.1642 102.655 86.4091 102.655 85.5763V81.5383L97.0113 81.5337L97.0012 85.5712Z" fill="#003399"/>
<path d="M98.2958 83.6267C98.6047 83.6267 98.8552 83.3772 98.8552 83.0695C98.8552 82.7617 98.6047 82.5122 98.2958 82.5122C97.9868 82.5122 97.7363 82.7617 97.7363 83.0695C97.7363 83.3772 97.9868 83.6267 98.2958 83.6267Z" fill="white"/>
<path d="M101.427 83.6294C101.736 83.6294 101.986 83.3799 101.986 83.0721C101.986 82.7644 101.736 82.5149 101.427 82.5149C101.118 82.5149 100.867 82.7644 100.867 83.0721C100.867 83.3799 101.118 83.6294 101.427 83.6294Z" fill="white"/>
<path d="M99.8583 85.1267C100.167 85.1267 100.418 84.8772 100.418 84.5695C100.418 84.2617 100.167 84.0122 99.8583 84.0122C99.5493 84.0122 99.2988 84.2617 99.2988 84.5695C99.2988 84.8772 99.5493 85.1267 99.8583 85.1267Z" fill="white"/>
<path d="M98.2958 86.6946C98.6047 86.6946 98.8552 86.4451 98.8552 86.1373C98.8552 85.8296 98.6047 85.5801 98.2958 85.5801C97.9868 85.5801 97.7363 85.8296 97.7363 86.1373C97.7363 86.4451 97.9868 86.6946 98.2958 86.6946Z" fill="white"/>
<path d="M101.424 86.6907C101.733 86.6907 101.983 86.4412 101.983 86.1334C101.983 85.8257 101.733 85.5762 101.424 85.5762C101.115 85.5762 100.864 85.8257 100.864 86.1334C100.864 86.4412 101.115 86.6907 101.424 86.6907Z" fill="white"/>
</g>
<defs>
<clipPath id="clip0_1284_66560">
<rect width="250" height="150" fill="white"/>
</clipPath>
</defs>
</svg>
