<svg width="250" height="150" viewBox="0 0 250 150" fill="none" xmlns="http://www.w3.org/2000/svg">
<g clip-path="url(#clip0_1284_64815)">
<path d="M0 0H250V150H0V0Z" fill="#20603D"/>
<path d="M0 0H250V112.5H0V0Z" fill="#FAD201"/>
<path d="M0 0H250V75H0V0Z" fill="#00A1DE"/>
<path d="M230.38 38.1876L213.628 39.1668L229.546 44.4584L213.128 41.0626L227.15 50.271L212.149 42.7293L223.275 55.2918L210.753 44.1459L218.295 59.146L209.065 45.1251L212.44 61.521L207.169 45.6251L206.19 62.3752L205.981 37.9792L230.38 38.1876Z" fill="#E5BE01"/>
<path d="M230.38 38.1877L213.628 37.2085L229.546 31.9168L213.128 35.3126L227.15 26.1043L212.149 33.646L223.275 21.0834L210.753 32.2293L218.295 17.2292L209.065 31.2501L212.44 14.8542L207.169 30.7501L206.19 14L205.981 38.396L230.38 38.1877Z" fill="#E5BE01"/>
<path d="M182 38.1876L198.752 39.1668L182.833 44.4584L199.252 41.0626L185.23 50.271L200.231 42.7293L189.105 55.2918L201.627 44.1459L194.085 59.146L203.315 45.1251L199.939 61.521L205.211 45.6251L206.19 62.3752L206.398 37.9792L182 38.1876Z" fill="#E5BE01"/>
<path d="M182 38.1877L198.752 37.2085L182.833 31.9168L199.252 35.3126L185.23 26.1043L200.231 33.646L189.105 21.0834L201.627 32.2293L194.085 17.2292L203.315 31.2501L199.939 14.8542L205.211 30.7501L206.19 14L206.398 38.396L182 38.1877Z" fill="#E5BE01"/>
<path d="M206.19 45.3335C210.136 45.3335 213.336 42.1342 213.336 38.1876C213.336 34.2411 210.136 31.0417 206.19 31.0417C202.243 31.0417 199.043 34.2411 199.043 38.1876C199.043 42.1342 202.243 45.3335 206.19 45.3335Z" fill="#E5BE01" stroke="#00A1DE" stroke-width="0.09"/>
</g>
<defs>
<clipPath id="clip0_1284_64815">
<rect width="250" height="150" fill="white"/>
</clipPath>
</defs>
</svg>
