<svg width="250" height="150" viewBox="0 0 250 150" fill="none" xmlns="http://www.w3.org/2000/svg">
<g clip-path="url(#clip0_1284_67061)">
<path fill-rule="evenodd" clip-rule="evenodd" d="M0 0H250V150H0V0Z" fill="#CE1126"/>
<path fill-rule="evenodd" clip-rule="evenodd" d="M0 0H100V75H0V0Z" fill="#002B7F"/>
<path fill-rule="evenodd" clip-rule="evenodd" d="M56.25 71.6562L49.7812 67.2812L43.5625 71.6875L45.5937 63.9062L39.6563 59.1562L47.3125 58.6875L49.8438 51.3125L52.5938 58.8125L60.0938 59.0312L54.1562 64.125L56.25 71.6562ZM55.125 19.9062L49.9375 16.5625L44.9375 19.8125L46.3125 13.5625L41.75 9.59375L47.8125 9.09375L50.0625 3.28125L52.375 9.125L58.3438 9.65625L53.75 13.8438L55.125 19.9062ZM32.3125 38.5L27.3125 35.0625L22.0937 38.5L23.7188 32.4375L19 28.4375L25 28.125L27.1875 22.1875L29.3125 28.0938L35.4375 28.4375L30.75 32.3438L32.3125 38.5ZM78.125 34.375L73.3125 31.25L68.625 34.375L70 28.6562L65.625 24.9688L71.3438 24.5L73.3125 19.125L75.5 24.5625L81.0312 24.875L76.75 28.7188L78.125 34.375ZM64.6562 47.9375L61.4375 45.9375L58.2188 48L59.0625 44.1562L56.1875 41.5625L59.9375 41.25L61.375 37.625L62.9062 41.25L66.625 41.5625L63.7812 44.1562L64.6562 47.9375Z" fill="white"/>
</g>
<defs>
<clipPath id="clip0_1284_67061">
<rect width="250" height="150" fill="white"/>
</clipPath>
</defs>
</svg>
