<svg width="250" height="150" viewBox="0 0 250 150" fill="none" xmlns="http://www.w3.org/2000/svg">
<g clip-path="url(#clip0_1284_66449)">
<path d="M0 0H250V150H0V0Z" fill="#12AD2B"/>
<path d="M0 42.8438H250V107.188H0V42.8438Z" fill="#FFCE00"/>
<path d="M0 0V150L75 75" fill="#D21034"/>
<path d="M132.528 70.058H144.498C144.505 70.0582 144.512 70.0606 144.518 70.0649C144.524 70.0691 144.528 70.0751 144.53 70.0819C144.532 70.0887 144.532 70.096 144.53 70.1028C144.527 70.1095 144.523 70.1154 144.517 70.1195L134.834 77.1548C134.828 77.159 134.823 77.165 134.821 77.1718C134.819 77.1787 134.819 77.1861 134.821 77.193L138.52 88.5767C138.522 88.5836 138.523 88.5912 138.52 88.5983C138.518 88.6054 138.514 88.6115 138.508 88.6159C138.502 88.6202 138.495 88.6224 138.487 88.6222C138.48 88.6221 138.473 88.6195 138.467 88.6149L128.785 81.5796C128.78 81.5753 128.772 81.573 128.765 81.573C128.758 81.573 128.751 81.5753 128.745 81.5796L119.065 88.6149C119.059 88.6195 119.052 88.6221 119.044 88.6222C119.037 88.6224 119.03 88.6202 119.024 88.6159C119.018 88.6115 119.013 88.6054 119.011 88.5983C119.009 88.5912 119.009 88.5836 119.012 88.5767L122.711 77.1941C122.713 77.1872 122.713 77.1798 122.71 77.1729C122.708 77.166 122.704 77.1601 122.698 77.1559L113.014 70.1195C113.008 70.1154 113.004 70.1095 113.002 70.1028C112.999 70.096 112.999 70.0887 113.002 70.0819C113.004 70.0751 113.008 70.0691 113.014 70.0649C113.019 70.0606 113.026 70.0582 113.033 70.058H125.004C125.011 70.058 125.018 70.0557 125.023 70.0515C125.029 70.0473 125.033 70.0414 125.036 70.0347L128.733 58.6542C128.736 58.6477 128.74 58.6421 128.746 58.6382C128.752 58.6342 128.758 58.6321 128.765 58.6321C128.772 58.6321 128.779 58.6342 128.785 58.6382C128.79 58.6421 128.795 58.6477 128.797 58.6542L132.496 70.0347C132.498 70.0414 132.502 70.0473 132.508 70.0515C132.514 70.0557 132.521 70.058 132.528 70.058Z" fill="black"/>
<path d="M186.296 70.058H198.267C198.274 70.0582 198.281 70.0606 198.287 70.0649C198.292 70.0691 198.296 70.0751 198.299 70.0819C198.301 70.0887 198.301 70.096 198.298 70.1028C198.296 70.1095 198.292 70.1154 198.286 70.1195L188.602 77.1548C188.596 77.159 188.592 77.165 188.59 77.1718C188.587 77.1787 188.587 77.1861 188.59 77.193L192.288 88.5767C192.291 88.5836 192.291 88.5912 192.289 88.5983C192.287 88.6054 192.282 88.6115 192.276 88.6159C192.27 88.6202 192.263 88.6224 192.256 88.6222C192.248 88.6221 192.241 88.6195 192.235 88.6149L182.554 81.5796C182.548 81.5753 182.541 81.573 182.534 81.573C182.527 81.573 182.519 81.5753 182.514 81.5796L172.833 88.6149C172.827 88.6195 172.82 88.6221 172.813 88.6222C172.805 88.6224 172.798 88.6202 172.792 88.6159C172.786 88.6115 172.782 88.6054 172.78 88.5983C172.777 88.5912 172.778 88.5836 172.78 88.5767L176.479 77.1941C176.481 77.1872 176.481 77.1798 176.479 77.1729C176.477 77.166 176.472 77.1601 176.466 77.1559L166.783 70.1195C166.777 70.1154 166.773 70.1095 166.77 70.1028C166.768 70.096 166.768 70.0887 166.77 70.0819C166.772 70.0751 166.776 70.0691 166.782 70.0649C166.788 70.0606 166.795 70.0582 166.802 70.058H178.772C178.779 70.058 178.786 70.0557 178.792 70.0515C178.798 70.0473 178.802 70.0414 178.804 70.0347L182.502 58.6542C182.504 58.6477 182.509 58.6421 182.514 58.6382C182.52 58.6342 182.527 58.6321 182.534 58.6321C182.541 58.6321 182.547 58.6342 182.553 58.6382C182.559 58.6421 182.563 58.6477 182.566 58.6542L186.265 70.0347C186.267 70.0414 186.271 70.0473 186.277 70.0515C186.282 70.0557 186.289 70.058 186.296 70.058Z" fill="black"/>
</g>
<defs>
<clipPath id="clip0_1284_66449">
<rect width="250" height="150" fill="white"/>
</clipPath>
</defs>
</svg>
