<svg width="250" height="150" viewBox="0 0 250 150" fill="none" xmlns="http://www.w3.org/2000/svg">
<g clip-path="url(#clip0_1284_63334)">
<path d="M0 150H250V0H0V150Z" fill="#005430"/>
<path d="M181.497 60.081C181.482 57.4461 180.459 50.3484 180.2 47.9673C179.941 45.5861 179.68 43.426 179.743 42.9202C179.805 42.432 180.556 43.5988 180.953 43.6932C181.158 43.652 181.067 42.9151 180.693 42.2858C180.441 41.8584 179.579 40.2605 179.057 39.3241C178.811 38.881 178.756 38.6239 178.638 38.5695C178.52 38.515 177.569 40.434 177.673 40.6467C177.933 41.0367 178.111 41.2228 178.151 41.9116C178.192 42.6004 178.548 47.5184 179.002 51.2461C179.344 54.0583 180.094 60.1171 180.12 63.8841C180.128 65.1129 179.992 66.2842 179.828 66.7736C179.408 67.5422 178.752 68.2354 176.309 69.665C173.562 71.2724 169.898 72.6102 168.323 73.5054C167.344 74.0638 167.669 74.1385 168.521 73.8941C169.372 73.6497 173.769 72.8666 175.906 71.9638C177.911 71.1141 179.213 69.6928 180.201 67.6194C181.421 65.056 181.514 62.8806 181.497 60.081Z" fill="white"/>
<path d="M172.995 40.0654C173.208 39.9831 174.965 39.8925 175.439 39.99C175.128 40.4345 173.02 41.4183 173.011 41.5988C173.069 41.7203 174.467 41.374 174.908 41.1815C175.196 41.0081 175.389 40.7396 175.602 40.5168C176.106 39.9369 176.704 38.8612 176.553 38.7264C176.309 38.5086 173.913 38.6441 173.597 38.689C173.386 38.7194 172.849 39.6817 172.75 39.9286C172.654 40.1755 172.783 40.1477 172.995 40.0654Z" fill="white"/>
<path d="M176.586 55.6832C176.953 54.4423 177.043 52.9368 176.544 51.3521C176.032 49.7206 174.76 48.726 173.842 48.2164L173.679 49.7871C173.679 49.7871 174.965 50.4265 175.845 52.0365C176.403 53.0577 176.635 54.5018 176.195 56.1118C176.121 56.5113 176.407 56.291 176.586 55.6832Z" fill="white"/>
<path d="M162.974 63.5601C163.304 62.4427 163.385 61.0872 162.937 59.6602C162.475 58.1908 161.33 57.2949 160.503 56.8378L160.355 58.2516C160.355 58.2516 161.514 58.8277 162.306 60.2762C162.809 61.1949 163.017 62.4972 162.622 63.9463C162.556 64.3047 162.813 64.1071 162.974 63.5601Z" fill="white"/>
<path d="M115.715 42.1729C116.245 43.1422 116.465 44.5147 116.048 46.0437C115.978 46.4229 116.248 46.2146 116.42 45.6372C116.766 44.4596 116.852 43.0288 116.378 41.5227C115.892 39.9722 114.683 39.0283 113.811 38.5452L113.657 40.0368C113.657 40.0368 114.88 40.6439 115.715 42.1729Z" fill="white"/>
<path d="M83.8118 42.6747C84.2569 43.718 84.287 45.1267 83.568 46.6107C83.4283 46.9836 83.7686 46.8069 84.0542 46.2492C84.6376 45.109 84.9649 43.682 84.6691 42.1055C84.3657 40.4848 83.1482 39.38 82.2368 38.7817L81.8232 40.2626C81.8232 40.2626 83.1099 41.0299 83.8118 42.6747Z" fill="white"/>
<path d="M92.6314 65.9958C93.1971 64.9461 93.4326 64.2395 93.6839 62.9961C93.9037 61.9021 93.9181 60.6384 93.8387 59.352C95.5314 58.6619 97.5487 57.5166 98.2266 57.4324C97.763 59.024 98.8696 60.7416 101.105 60.5175C101.276 62.3174 101.422 63.8983 101.511 64.8359C101.694 66.758 101.666 69.1803 101.661 69.6013C101.653 70.0242 101.959 69.9444 102.274 69.0024C102.693 67.7412 102.822 64.4478 102.67 62.2699C102.634 61.7255 102.572 60.9904 102.497 60.1529C103.946 59.4824 104.187 58.1883 104.729 57.6369C105.218 59.3494 107.909 59.5818 108.74 59.2152C109.77 58.76 110.107 57.9414 110.372 56.0415C110.638 54.1422 109.864 53.3774 109.587 53.1704C109.56 53.4002 108.886 55.6325 108.886 55.6325C108.886 55.6325 109.525 56.3074 109.557 56.6391C109.037 57.1102 107.939 57.1393 107.018 56.8392C106.095 56.5391 105.812 55.987 105.867 55.6167C105.921 55.245 106.268 54.907 106.279 54.4543C106.29 54.0016 106.073 54.1327 105.703 54.5334C105.334 54.9348 105.096 55.2957 104.585 56.1573C104.168 56.862 103.49 57.7217 102.294 57.9674C102.097 55.8984 101.872 53.6971 101.721 52.3144C101.642 51.5844 100.855 45.2762 100.799 44.5703C100.751 43.9555 100.66 43.2306 100.675 42.89C100.69 42.6191 100.859 42.7267 101.122 43.0103C101.386 43.2933 101.847 43.7871 101.926 43.7485C102.195 43.6168 101.92 42.797 101.569 42.0626C101.218 41.3263 100.021 38.4216 99.77 38.3019C99.6406 38.2412 98.8326 40.029 98.7847 40.381C98.91 40.6014 99.2373 40.9477 99.2489 41.9328C99.253 42.2075 99.4297 44.7982 99.6749 47.2477C99.8892 49.411 100.173 51.4635 100.201 51.7022C100.396 53.3533 100.633 55.6806 100.858 57.9686C99.5605 57.7217 99.2154 56.8658 99.2441 56.3777C99.277 55.8269 99.5256 55.2052 99.4064 55.0646C99.1565 54.9146 97.6692 55.7458 95.5951 56.6391C95.0117 56.8898 94.3543 57.1589 93.6606 57.414C93.4799 55.8547 93.2416 54.372 93.1457 53.2381L93.1341 53.1121C94.4981 53.0241 95.6149 52.3353 96.123 51.6794C96.7578 50.8595 97.2015 49.1723 97.2447 47.8795C97.2878 46.5855 96.2435 44.2195 95.995 43.4674C95.7444 42.7147 95.6149 42.193 95.593 41.9328C95.5704 41.6726 96.1573 42.2341 96.5263 42.3443C96.7763 42.3943 96.69 41.853 96.3846 41.4814C96.0813 41.111 94.4406 38.621 94.3255 38.7957C94.255 38.8983 93.5976 40.7299 93.5545 41.0103C93.8133 41.1813 94.116 41.6523 94.1372 42.1037C94.1591 42.5551 94.5207 44.5399 94.9213 45.6428C95.3232 46.7456 96.1792 48.8615 96.2333 49.4433C95.6218 49.8744 94.2297 50.6044 92.8526 50.5607C92.6171 48.631 92.3185 46.3898 92.159 44.8026C92.0973 44.1892 92.0932 43.5345 92.1028 43.1927C92.1103 42.9217 92.3055 42.959 92.5739 43.2376C92.8437 43.5162 93.2573 43.9214 93.3422 43.8922C93.5271 43.8308 93.3669 43.2161 93.0005 42.4861C92.6342 41.7561 91.1784 38.6685 90.923 38.5533C90.7936 38.4944 90.1417 40.2285 90.1006 40.5824C90.2307 40.8014 90.5642 41.1401 90.597 42.1252C90.6231 42.9097 91.0052 46.7539 91.3325 50.1397C89.9698 49.435 89.5049 48.4278 89.3364 46.7368C89.2186 45.5579 89.207 43.3864 88.7865 41.57C88.5496 40.5431 88.0504 39.4998 87.4588 38.9458C87.3177 39.287 86.6878 41.382 86.6878 41.382C86.8932 41.9834 87.5321 44.0087 87.5102 45.7637C87.4889 47.5186 87.3506 49.2344 85.384 50.4164C83.4187 51.599 80.4709 51.1286 79.743 49.2837C79.0151 47.4376 80.6331 42.809 80.6119 41.7163C80.59 40.6235 80.3948 40.4728 79.9381 40.6533C79.4821 40.8337 78.5487 41.8872 77.7448 43.601C76.9409 45.3161 76.5835 47.4401 76.1268 48.8843C75.6714 50.3284 74.9421 51.7915 73.8136 51.7104C72.6852 51.6307 72.0778 50.5981 71.7306 49.1046C71.3828 47.6098 71.5957 45.6415 71.6902 45.1369C71.9258 43.8732 71.38 44.1322 71.0459 46.1163C70.8391 47.3401 70.6336 49.2945 71.3615 51.3401C72.0881 53.3856 73.3268 54.1485 74.4121 53.887C75.4981 53.6268 76.4527 51.0799 76.7896 49.9358C77.1258 48.7937 78.6302 43.7207 79.4821 43.4712C79.6012 44.0429 78.8199 45.8859 78.57 48.0416C78.3207 50.1973 78.9021 53.0931 81.6384 53.5939C84.3747 54.0953 86.231 52.3207 86.9041 51.0887C87.5779 49.8548 87.8922 48.5614 87.9683 47.9099C88.0559 49.5636 89.1844 52.146 91.3763 52.8823L91.6023 52.9475C91.7372 54.3011 91.957 56.0681 92.159 57.9237C91.7324 58.0554 91.3017 58.1744 90.873 58.277C90.8182 58.0991 90.758 57.925 90.6847 57.7648C90.0157 56.3257 88.9084 54.9994 87.3739 55.0912C85.8065 55.1843 84.0973 57.276 84.172 58.8037C84.2213 59.8312 84.7869 60.6745 86.8439 60.8904C87.7834 60.9898 88.7811 60.8854 89.8116 60.6606C89.9568 61.0854 90.0485 61.5077 90.0588 61.8926C89.4069 62.6549 84.0131 66.7232 79.9744 67.1145C75.9357 67.5051 74.7038 65.388 74.6634 63.2627C74.6333 61.6457 75.6057 60.0319 76.289 58.9151C77.2669 58.1997 78.0694 57.3052 78.5761 56.6151C78.7138 56.6999 78.8446 56.7784 78.9692 56.8512C79.4519 57.1317 79.6444 57.5508 79.6444 57.5508C79.7334 57.414 80.1483 56.667 79.986 56.3017C79.9114 56.2118 79.5464 55.987 79.1075 55.7205C79.5683 54.5721 79.5622 53.4255 78.9651 53.1704C78.2974 52.8861 77.4257 53.6762 77.0498 54.158C76.8547 54.4087 76.78 54.693 76.7786 54.9317C76.7759 55.2387 76.9204 55.516 77.2778 55.7629C77.6339 56.006 77.9646 56.2263 78.2755 56.4251C77.3929 57.352 75.3071 58.71 74.0307 59.5077C73.9835 59.3906 73.7965 59.5141 73.5452 59.8103L73.1994 60.0237C72.1812 60.6467 69.7393 62.0148 69.2593 62.3497C68.7786 62.6853 69.0799 62.6245 69.2593 62.5498C69.5983 62.3668 70.0434 62.1452 70.5433 61.9009C71.2513 61.5545 72.0751 61.1627 72.8803 60.7695C72.642 61.1734 72.3955 61.6457 72.1771 62.1611C71.2164 64.4295 69.6633 69.1309 73.0228 71.9596C76.237 74.6674 81.7616 73.6373 86.3433 70.8232C90.9257 68.0084 91.9152 67.0189 92.6314 65.9958ZM77.6928 54.8126C77.5339 54.6955 77.512 54.5391 77.6414 54.4302C77.8065 54.2897 78.0174 54.1567 78.257 54.1118C78.7651 54.0175 78.9678 54.6012 78.7638 55.5103C78.3776 55.2742 77.9804 55.026 77.6928 54.8126ZM88.2024 58.6473C85.8695 58.6581 85.762 58.2346 85.8058 57.9636C85.8489 57.6939 86.5755 56.9538 87.4971 57.4419C87.8868 57.6489 88.3257 58.082 88.7318 58.6258C88.5524 58.6391 88.3757 58.6461 88.2024 58.6473ZM81.057 70.9162C76.6492 72.1191 72.3496 70.2553 72.0894 66.5649C71.8902 63.747 72.918 61.6236 73.5808 60.427C74.2129 60.1142 74.81 59.8103 75.3037 59.5381C74.1499 61.3963 73.4747 63.885 73.9259 65.9932C74.4368 68.3813 76.5143 69.8292 80.0319 69.362C83.5146 68.9004 88.2237 65.588 89.5589 64.3389C89.9657 63.8882 90.2341 63.4817 90.5998 62.6536C90.7504 62.3136 90.962 61.8648 91.0408 61.3576C91.0921 61.0272 91.1195 60.6739 91.1257 60.3143C91.5345 60.1921 91.9453 60.0554 92.3589 59.9085C92.4993 61.4203 92.6027 62.9107 92.6089 64.1996C90.4389 66.7447 85.4648 69.7127 81.057 70.9162Z" fill="white"/>
<path d="M158.155 61.2388C158.006 58.7697 157.646 54.3007 157.444 52.0335C157.266 50.0158 156.917 47.2504 156.66 44.8161C156.596 44.2033 156.589 43.6164 156.596 43.2752C156.604 43.0055 156.873 43.1093 157.143 43.3866C157.413 43.6639 157.835 44.0121 157.914 43.9697C158.178 43.8329 157.862 43.1568 157.492 42.4293C157.121 41.7006 155.652 38.6864 155.397 38.5718C155.267 38.5136 154.579 40.3192 154.539 40.6731C154.671 40.8909 155.007 41.2283 155.043 42.2134C155.08 43.1992 155.578 47.7309 155.937 51.396C156.187 53.9436 156.508 58.1005 156.743 61.235C156.731 61.2401 156.964 64.2151 156.989 64.5493C157.133 66.474 157.058 68.8956 157.044 69.316C157.028 69.7382 157.337 69.6648 157.668 68.7278C158.006 67.7712 158.198 65.6351 158.224 63.7067L158.155 61.2388Z" fill="white"/>
<path d="M145.639 52.5952C145.187 52.7332 144.478 52.2552 144.532 51.253C144.581 50.3477 144.968 49.4999 145.118 48.965C145.323 48.2268 145.325 47.5152 145.151 47.9185C144.759 48.82 144.03 50.5629 143.879 51.7456C143.728 52.9282 144.111 53.6905 144.632 53.9507C145.281 54.2767 145.749 53.7595 146.065 52.9972C146.37 52.2672 146.312 51.4151 146.101 51.6158C145.924 51.8253 145.859 52.5274 145.639 52.5952Z" fill="white"/>
<path d="M139.143 56.2383C139.383 55.6014 139.439 54.9771 139.255 55.3196C138.839 56.087 138.06 57.5697 137.832 58.5997C137.605 59.6298 137.881 60.3268 138.319 60.5909C138.866 60.9213 139.316 60.4978 139.656 59.8489C139.981 59.2278 139.998 58.4738 139.798 58.6371C139.625 58.8093 139.511 59.4215 139.314 59.4665C138.903 59.557 138.319 59.0885 138.445 58.2098C138.56 57.4184 138.969 56.6985 139.143 56.2383Z" fill="white"/>
<path d="M120.224 69.6746C120.625 69.0244 120.824 68.3501 120.546 68.6907C119.925 69.4517 118.751 70.9288 118.277 72.012C117.805 73.0952 117.955 73.9088 118.377 74.2791C118.902 74.7413 119.487 74.3614 119.999 73.7163C120.49 73.0978 120.673 72.2773 120.416 72.4172C120.191 72.5748 119.934 73.2225 119.707 73.2345C119.241 73.2573 118.702 72.6362 119.033 71.7005C119.331 70.8559 119.934 70.1456 120.224 69.6746Z" fill="white"/>
<path d="M153.393 50.6996C152.933 50.8148 152.254 50.3001 152.368 49.3017C152.471 48.4008 152.91 47.5746 153.09 47.0491C153.341 46.3217 153.384 45.612 153.186 46.0045C152.742 46.8858 151.91 48.5876 151.687 49.7613C151.465 50.9345 151.801 51.7151 152.306 52.0019C152.936 52.3589 153.432 51.8677 153.795 51.1219C154.142 50.409 154.136 49.5556 153.913 49.7455C153.724 49.9468 153.617 50.6439 153.393 50.6996Z" fill="white"/>
<path d="M153.251 62.9479C153.88 63.305 154.379 62.8137 154.74 62.0679C155.087 61.355 155.082 60.5016 154.859 60.6915C154.67 60.8916 154.562 61.5899 154.338 61.6456C153.879 61.7602 153.198 61.2461 153.313 60.2477C153.416 59.3468 153.855 58.52 154.035 57.9952C154.285 57.2677 154.329 56.5567 154.131 56.9505C153.686 57.8318 152.855 59.5336 152.632 60.7061C152.41 61.8805 152.746 62.6611 153.251 62.9479Z" fill="white"/>
<path d="M161.287 47.3019C161.589 46.4219 161.641 45.5628 161.402 46.0382C160.863 47.1044 159.857 49.1632 159.587 50.5845C159.319 52.0046 159.726 52.9486 160.338 53.2961C161.098 53.7279 161.7 53.1334 162.139 52.2319C162.558 51.369 162.551 50.3351 162.282 50.5662C162.054 50.8087 161.923 51.652 161.652 51.7197C161.097 51.859 160.273 51.2366 160.412 50.0287C160.537 48.9385 161.068 47.9388 161.287 47.3019Z" fill="white"/>
<path d="M97.0797 62.5235C97.5747 61.451 97.7542 60.3772 97.3899 60.9489C96.5743 62.2284 95.0384 64.7058 94.5139 66.4607C93.9887 68.2163 94.3776 69.4496 95.1 69.9555C96.0012 70.5835 96.8359 69.9023 97.5049 68.819C98.1452 67.7801 98.2725 66.4791 97.9034 66.7393C97.585 67.0179 97.3097 68.065 96.9605 68.1201C96.2429 68.2328 95.2897 67.3578 95.6225 65.8542C95.9238 64.4975 96.7222 63.2996 97.0797 62.5235Z" fill="white"/>
<path d="M166.405 73.1565C166.784 72.8456 170.083 71.0685 170.691 70.7077C170.691 70.7077 171.312 69.6947 171.126 69.5871C170.939 69.4794 169.734 70.5747 168.985 70.6051C168.235 70.6355 167.209 70.0847 167.176 69.6333C167.273 69.2927 168.175 68.7811 168.501 68.7602C168.827 68.7412 168.774 69.4832 168.883 69.5738C168.992 69.663 169.425 69.0616 169.48 68.8109C169.534 68.5608 169.489 67.5136 168.893 67.6637C167.948 67.9024 166.524 69.6535 166.362 70.2043C166.198 70.7564 167.078 71.2369 167.72 71.4984C167.665 71.5187 167.186 71.7491 166.883 72.0492C166.883 72.0492 166.557 72.4145 166.405 73.1565Z" fill="white"/>
<path d="M155.155 75.3577C155.534 75.0468 158.833 73.271 159.441 72.9088C159.441 72.9088 160.063 71.8959 159.876 71.7882C159.689 71.6806 158.484 72.7759 157.735 72.8063C156.985 72.8366 155.959 72.2858 155.926 71.8344C156.023 71.4938 156.925 70.9823 157.251 70.9627C157.577 70.9424 157.524 71.6838 157.633 71.7737C157.742 71.8642 158.175 71.2628 158.23 71.012C158.284 70.762 158.238 69.7148 157.643 69.8649C156.698 70.1048 155.274 71.8547 155.112 72.4068C154.948 72.9576 155.828 73.4381 156.469 73.6996C156.415 73.7198 155.936 73.9496 155.633 74.2504C155.633 74.2504 155.307 74.6157 155.155 75.3577Z" fill="white"/>
<path d="M129.815 43.5051C130.111 43.8489 132.049 46.311 133.567 47.8589C135.084 49.4081 137.686 51.9152 139.597 53.6335C139.967 53.9665 140.359 54.3273 140.758 54.7028C141.24 58.4039 141.798 63.1136 142.032 65.061C142.263 66.9786 142.297 69.4003 142.302 69.8219C142.306 70.2442 142.61 70.1581 142.899 69.2103C143.286 67.9384 143.331 64.645 143.126 62.4697C142.998 61.1262 142.698 58.6097 142.407 56.2893C143.535 57.4042 144.601 58.5103 145.32 59.3384C146.64 60.8584 147.752 62.005 148.429 63.639C148.908 64.7951 148.86 65.715 149.056 65.8967C149.226 66.0537 149.414 64.6704 149.204 63.3288C148.865 61.1503 148.399 60.2266 145.602 57.1162C144.535 55.9272 143.28 54.6844 142.052 53.5227C142.005 53.1643 141.961 52.8326 141.922 52.5382C141.825 51.8108 140.878 45.5215 140.803 44.8169C140.739 44.2034 140.628 43.481 140.636 43.1398C140.643 42.8682 140.816 42.9739 141.087 43.2512C141.357 43.5279 141.829 44.0122 141.909 43.9698C142.174 43.833 141.879 43.0208 141.509 42.2921C141.14 41.5646 139.868 38.6865 139.613 38.5726C139.483 38.5143 138.721 40.3193 138.682 40.6726C138.814 40.8904 139.15 41.2297 139.186 42.2136C139.196 42.4883 139.44 45.0752 139.746 47.5177C140.017 49.6759 140.353 51.7228 140.388 51.9595L140.389 51.9779C139.123 50.8231 138.008 49.8424 137.331 49.2264C135.749 47.7887 132.256 44.3769 132.115 43.866C132.084 43.7045 132.355 43.8039 132.854 43.8837C133.354 43.9641 133.799 44.1344 133.719 43.8887C133.683 43.7729 133.491 43.4867 133.014 43.1917C132.536 42.896 131.311 42.13 130.401 41.588C129.488 41.0467 129.036 40.5928 128.848 40.7226C128.755 40.7865 128.837 42.6409 128.892 42.872C129.12 42.8916 129.521 43.16 129.815 43.5051Z" fill="white"/>
<path d="M132.308 40.1706C132.683 40.0883 134.458 40.1333 135.102 40.2688C134.832 40.4562 133.016 41.3735 132.658 41.5919C132.301 41.811 132.21 41.9376 132.39 41.9161C132.91 41.7717 134.083 41.5919 134.645 41.2988C135.175 41.0506 136.079 39.8401 136.43 39.3887C136.779 38.9373 136.779 38.712 136.69 38.591C136.331 38.396 134.018 38.2004 132.903 38.4771C132.594 38.6866 131.99 39.8028 131.901 40.0351C131.812 40.2688 131.934 40.2529 132.308 40.1706Z" fill="white"/>
<path d="M142.18 40.0253C142.483 39.9589 143.914 39.995 144.432 40.1039C144.215 40.2552 142.752 40.9946 142.463 41.1719C142.174 41.3473 142.102 41.4498 142.246 41.4321C142.666 41.3169 143.612 41.1719 144.064 40.9345C144.491 40.7344 145.219 39.7588 145.502 39.396C145.783 39.0314 145.783 38.8503 145.711 38.7534C145.423 38.5945 143.559 38.4375 142.66 38.661C142.411 38.8294 141.925 39.7291 141.853 39.9165C141.78 40.1039 141.879 40.0918 142.18 40.0253Z" fill="white"/>
<path d="M150.205 39.9221C150.506 39.8556 151.936 39.8917 152.455 40.0006C152.239 40.1519 150.776 40.8914 150.486 41.0674C150.198 41.244 150.126 41.3466 150.27 41.3288C150.69 41.2136 151.709 41.0674 152.162 40.8312C152.589 40.6312 153.095 39.6555 153.378 39.2915C153.661 38.9281 153.661 38.7458 153.587 38.6502C153.3 38.4913 151.582 38.3343 150.684 38.5565C150.435 38.7261 149.948 39.6258 149.876 39.8132C149.804 40.0006 149.902 39.9886 150.205 39.9221Z" fill="white"/>
<path d="M145.199 43.8303C144.724 44.5787 145.32 45.1826 145.537 45.7873C145.244 46.0551 144.793 45.8107 144.642 45.5758C144.322 45.094 144.429 44.1121 144.052 43.9608C143.956 44.226 143.893 44.5204 143.893 44.5204C143.893 44.5204 144.179 45.1921 144.108 45.6366C144.062 45.905 143.825 46.2184 143.512 46.2247C142.678 46.245 143.089 45.0104 142.767 44.3109C142.701 44.4818 142.654 44.6654 142.577 44.8256C142.636 45.0079 142.668 45.2637 142.678 45.4112C142.697 45.7043 142.674 46.0202 142.724 46.2703C142.793 46.6242 142.989 46.8591 143.289 46.8819C143.912 46.9313 144.197 46.4267 144.29 46.0126C144.398 46.4349 145.222 46.9003 145.627 46.3817C146.164 45.698 145.735 45.1124 145.459 44.4691C145.261 43.9937 145.318 43.6816 145.199 43.8303Z" fill="white"/>
<path d="M121.79 41.8459C121.833 42.1535 121.992 42.3637 122.25 42.3954C122.783 42.4631 123.052 42.0396 123.153 41.6876C123.224 42.0554 123.912 42.4885 124.287 42.0592C124.782 41.4913 124.439 40.9696 124.232 40.4043C124.084 39.9852 124.148 39.7193 124.038 39.8427C123.593 40.467 124.079 41.0133 124.237 41.5432C123.971 41.761 123.595 41.5325 123.476 41.3254C123.223 40.8968 123.361 40.0554 123.045 39.9092C122.949 40.1346 122.881 40.3847 122.881 40.3847C122.881 40.3847 123.095 40.9753 123.012 41.3546C122.961 41.5844 122.742 41.8446 122.471 41.8376C121.753 41.8218 122.165 40.7746 121.92 40.1599C121.856 40.3036 121.806 40.4613 121.731 40.5942C121.775 40.755 121.79 40.9753 121.79 41.1039C121.796 41.3571 121.76 41.6268 121.79 41.8459Z" fill="white"/>
<path d="M138.787 70.8407C138.867 70.7135 139.043 70.364 138.999 70.1253C138.954 69.8866 138.662 68.8908 138.094 68.6413C137.53 68.3919 137.103 68.9148 136.832 69.6423L136.645 69.6378C136.6 69.7455 136.544 69.9063 136.499 70.1969C136.436 70.6166 136.317 70.8869 135.598 71.5403C134.992 72.0873 133.031 73.401 131.76 74.0183C130.488 74.6368 129.572 75.1705 129.235 75.3326C128.899 75.4921 128.997 75.5517 129.333 75.451C129.668 75.351 131.357 74.8071 132.03 74.5298C132.702 74.2506 133.523 73.7916 134.514 73.149C135.615 72.4349 136.273 71.7207 136.494 71.0876C136.651 70.6362 136.692 70.4558 136.692 70.4558C136.692 70.4558 137.105 70.7002 137.807 70.8604C138.506 71.0212 138.705 70.9693 138.787 70.8407ZM137.837 69.4257C138.149 69.5441 138.339 69.8835 138.395 70.0892C138.037 70.0975 137.379 69.9158 137.099 69.7891C137.268 69.4631 137.561 69.3219 137.837 69.4257Z" fill="white"/>
<path d="M131.332 71.541C130.356 71.4055 127.896 71.0313 127.294 69.603C127.799 68.8661 130.127 67.9329 133.042 67.0599C135.958 66.1887 139.004 65.058 139.823 64.5123C140.003 64.4515 140.35 64.4698 140.35 64.4698C140.497 64.0476 141.229 62.5648 141.274 62.2546C140.46 62.3008 135.437 62.6699 133.206 62.7896C130.974 62.9099 126.675 62.8808 125.242 62.8649C126.121 62.2331 128.206 60.9998 131.186 59.9476C131.572 59.8108 131.93 59.6874 132.263 59.576C132.511 60.0179 132.695 60.4547 132.733 60.8352C132.923 60.6402 133.066 59.9938 133.018 59.3303C134.755 58.7757 135.65 58.5921 136.036 58.4877C136.28 58.1717 136.712 56.8941 136.776 55.9654C136.517 55.4924 135.704 54.9037 134.981 54.3978C133.985 53.702 132.91 53.0955 131.838 53.3608C130.372 53.7204 130.078 56.4136 130.42 56.9847C130.529 57.1651 130.787 57.4848 131.091 57.8792C130.02 58.3003 128.9 58.7953 127.913 59.3158C125.713 60.4743 123.258 61.7418 122.542 62.9605L122.336 63.0606C122.279 63.1758 121.825 65.0618 121.76 65.265C122.217 65.2492 125.633 65.2555 128.011 65.1814C130.389 65.1055 132.468 65.0301 133.282 65.0301C132.076 65.3157 128.916 66.4901 128.007 67.1808C127.099 67.8734 126.528 68.9263 126.512 70.7312C125.665 70.3995 124.091 69.6417 122.75 67.8272C121.254 65.8051 121.564 63.7253 120.965 60.996C120.096 57.0353 118.239 53.6913 117.082 52.6682C116.692 54.0661 116.642 55.1195 116.642 55.1195C116.642 55.1195 118.091 58.323 118.825 60.368C119.558 62.4135 120.185 64.4287 120.154 64.8801C119.55 66.2045 115.975 68.9788 112.995 70.6027C110.17 72.1424 107.681 72.3083 106.799 71.2118C106.626 70.9978 106.508 70.7445 106.442 70.4577C106.825 70.2786 107.21 70.0981 107.604 69.9177C110.145 68.7604 114.657 66.3242 115.714 65.046C116.855 63.4968 116.839 61.3157 116.17 60.0672C115.504 58.8194 114.459 57.3747 114.377 56.8637C114.314 56.6225 115.056 56.9619 115.494 56.9847C115.706 56.9688 115.6 56.6833 115.145 56.2319C114.781 55.8723 113.372 54.7055 112.834 54.2503C112.699 54.1344 112.598 54.1813 112.571 54.3035C112.466 54.7694 112.252 55.7672 112.169 56.2598L112.226 56.5079C112.381 56.5997 112.559 56.7029 112.645 56.9606C112.767 57.3259 113.194 58.3452 113.893 59.6317C114.594 60.9175 115.606 62.3369 115.705 63.0536C114.882 64.1033 110.732 66.3388 106.689 68.1811C106.939 67.4062 107.333 66.53 107.856 65.5569C108.005 65.3923 108.14 65.189 108.266 64.9599C108.67 64.2229 108.709 63.322 108.464 63.5126C108.255 63.7146 108.104 64.4458 107.864 64.4952C107.373 64.5958 106.685 64.0229 106.858 62.9751C107.015 62.0299 107.52 61.1764 107.738 60.6301C108.041 59.8741 108.124 59.1271 107.895 59.5335C107.379 60.4414 106.411 62.2002 106.114 63.429C105.818 64.656 106.133 65.4948 106.651 65.8196C106.845 65.9431 107.03 65.9817 107.207 65.9576C106.852 66.6325 106.414 67.4606 106.094 68.4483C104.469 69.1757 102.887 69.8259 101.578 70.2944C96.8714 71.9791 93.5174 72.9718 91.1715 73.7087L91.0797 73.7499C91.2523 73.1921 91.229 72.716 91.0441 72.8591C90.8346 73.0623 90.6846 73.7936 90.4449 73.8417C89.954 73.9423 89.2651 73.37 89.4377 72.3216C89.5952 71.3764 90.1005 70.5242 90.3189 69.9772C90.6202 69.2219 90.7038 68.4736 90.4751 68.8807C89.9588 69.7885 88.9919 71.5473 88.6947 72.7755C88.3982 74.0031 88.7125 74.842 89.2302 75.1674C89.8752 75.5726 90.4251 75.0756 90.8469 74.307L90.9948 73.9911C91.1413 73.9911 91.3885 73.9569 91.7576 73.8746C92.8327 73.6327 95.5204 73.2428 99.216 72.761C101.952 72.4052 103.842 71.6537 105.668 70.8173C105.66 71.0193 105.657 71.2251 105.666 71.4371C105.766 73.9449 107.409 74.6527 109.656 74.1835C111.824 73.7283 114.848 71.7404 116.659 70.3995C118.549 69.0016 119.639 67.7525 119.917 67.3169C120.421 66.2489 120.559 65.0688 120.593 64.5123C120.758 66.0456 120.892 68.1678 122.342 69.988C123.678 71.6632 126.414 74.0006 131.56 74.0645C131.578 73.4523 131.332 71.541 131.332 71.541ZM130.992 56.0021C131.729 55.1753 133.301 55.7159 134.481 56.7643C133.876 56.9062 133.055 57.1588 132.149 57.4823C131.611 56.8334 131.011 56.2078 130.992 56.0021Z" fill="white"/>
<path d="M102.059 44.6659C102.393 44.5133 103.415 44.0536 104.517 43.4117C105.617 42.7741 106.65 42.0018 107.156 41.4883C107.349 41.2914 107.522 41.1376 107.632 40.9546C107.962 41.0914 108.19 41.2332 108.331 41.2889C108.544 41.3712 108.828 41.4896 109.013 40.8831C109.198 40.2772 108.953 39.8859 108.593 39.4187C108.288 39.0268 107.805 38.438 107.412 38.2918C107.08 38.167 106.921 38.9103 106.972 38.892H107.195L107.238 38.9128C106.78 39.1439 106.425 39.8631 106.389 40.1157C106.353 40.3905 106.405 40.5931 107.062 40.7621L107.327 40.84C106.778 41.4896 105.756 42.1613 105.06 42.6374C104.071 43.3148 102.669 44.1613 102.27 44.4056C101.871 44.6488 101.904 44.7254 102.059 44.6659ZM107.997 39.8935L108.033 39.5687C108.495 40.0955 108.838 40.7223 108.804 40.8109C108.592 40.828 108.327 40.6317 107.865 40.4342C107.916 40.2772 107.96 40.1037 107.997 39.8935ZM106.67 39.8942C106.667 39.7954 106.845 39.5206 107.222 39.3706C107.598 39.2193 107.764 39.6415 107.797 40.1556L107.686 40.3614L107.347 40.2443C106.988 40.1392 106.745 40.0797 106.67 39.8942Z" fill="white"/>
<path d="M126.702 54.5819C127.245 54.2236 128.735 53.1473 129.581 52.442C130.169 51.952 130.86 51.2303 131.329 50.62C131.624 50.8105 131.898 50.9796 132.148 51.1264C132.63 51.4082 132.824 51.826 132.824 51.826C132.913 51.6893 133.328 50.9409 133.166 50.5769C133.069 50.4579 132.476 50.1116 131.87 49.7406C132.177 49.0505 132.6 47.8571 131.994 47.4393C131.476 47.0847 130.601 47.6716 130.197 48.4332C129.863 49.0638 129.819 49.5988 130.457 50.0369C130.636 50.1603 130.808 50.2768 130.977 50.3876C130.334 51.091 129.149 52.1318 128.306 52.8403C127.259 53.7165 126.269 54.5756 126.096 54.7807L126.046 54.8605C125.818 54.2236 125.88 53.8304 125.71 54.0419C124.977 55.1922 125.896 56.1242 126.23 57.0548C125.778 57.4651 125.086 57.0884 124.854 56.7294C124.359 55.9861 124.524 54.4768 123.946 54.2432C123.796 54.6509 123.699 55.1049 123.699 55.1049C123.699 55.1049 124.139 56.1387 124.028 56.8212C123.959 57.234 123.593 57.717 123.113 57.7253C121.828 57.7582 122.462 55.8576 121.966 54.7814C121.865 55.0454 121.793 55.3277 121.673 55.5721C121.764 55.8551 121.814 56.2476 121.827 56.4749C121.86 56.9263 121.823 57.4106 121.899 57.7981C122.005 58.3426 122.308 58.7047 122.77 58.7382C123.728 58.8161 124.165 58.0374 124.311 57.4024C124.476 58.052 125.744 58.7661 126.368 57.9697C127.195 56.9168 126.533 56.0153 126.111 55.0251L126.061 54.8966C126.12 54.9175 126.341 54.8206 126.702 54.5819ZM130.449 48.6535C130.767 48.0641 131.436 48.0141 131.637 48.3231C131.796 48.5687 131.809 49.048 131.57 49.5538C130.979 49.1835 130.453 48.8207 130.449 48.6535Z" fill="white"/>
<path d="M105.79 50.8337C104.662 50.7539 104.054 49.7201 103.707 48.2266C103.359 46.7331 103.572 44.7635 103.667 44.2589C103.761 43.755 103.229 44.0152 103.022 45.239C102.817 46.4615 102.61 48.4165 103.338 50.4634C104.065 52.5076 105.303 53.2705 106.389 53.0091C107.474 52.7489 108.429 50.2019 108.766 49.0591C109.102 47.9157 110.607 43.2529 111.459 43.0022C111.578 43.5739 110.797 45.0079 110.547 47.1636C110.298 49.3193 110.731 52.1468 113.467 52.6482C116.203 53.1502 118.06 51.375 118.733 50.1411C119.407 48.9091 119.721 47.6138 119.797 46.9629C119.885 48.6172 121.013 51.2003 123.205 51.9366C125.323 52.6482 126.941 51.9967 127.656 51.0743C128.291 50.2551 128.808 48.5678 128.852 47.2738C128.895 45.981 127.778 43.6151 127.528 42.8617C127.277 42.1102 127.148 41.5885 127.126 41.3283C127.105 41.0681 127.692 41.6297 128.061 41.7398C128.311 41.7898 128.223 41.2485 127.919 40.8769C127.616 40.5065 125.973 38.0165 125.858 38.19C125.788 38.2938 125.131 40.1254 125.087 40.4059C125.348 40.5768 125.649 41.0478 125.671 41.4992C125.692 41.9506 126.127 43.9354 126.529 45.0383C126.931 46.1412 127.712 48.257 127.767 48.8388C126.986 49.3896 125.226 50.0905 123.554 49.3801C121.883 48.6672 121.349 47.6346 121.165 45.7898C121.047 44.6109 121.036 42.4394 120.615 40.6237C120.378 39.5974 119.879 38.554 119.286 38.0001C119.146 38.3401 118.516 40.4363 118.516 40.4363C118.722 41.0377 119.361 43.063 119.34 44.818C119.318 46.5717 119.179 48.288 117.213 49.4706C115.247 50.6533 112.447 50.1823 111.72 48.3368C110.992 46.4919 112.61 42.3413 112.589 41.2485C112.567 40.1558 112.37 40.0045 111.915 40.1856C111.459 40.366 110.524 41.4195 109.721 43.1333C108.918 44.8484 108.561 46.5622 108.103 48.0063C107.648 49.4504 106.919 50.9135 105.79 50.8337Z" fill="white"/>
<path d="M73.0237 44.437C74.4124 44.3364 75.5861 43.2835 75.8894 43.0037C76.1935 42.722 76.3571 42.3022 76.1394 42.4617C74.5329 43.8957 72.3835 43.9362 72.263 43.695C72.3177 43.4545 72.8833 43.0632 73.7085 42.5124C74.2097 42.1775 74.6562 41.8635 74.9903 41.4184L75.0814 41.4342C75.6929 41.5684 76.3989 41.8356 76.6146 41.6216C76.9659 41.2753 77.0124 40.7081 76.6317 40.0965C76.3099 39.5773 75.5594 39.0943 74.9075 38.7454C74.257 38.3985 74.131 38.9525 74.0474 39.15C73.9673 39.3342 74.0002 39.4912 74.1378 39.495C73.9283 39.7806 73.779 40.1484 73.7242 40.4523C73.6886 40.6485 73.7174 40.8094 73.7975 40.9417C73.8208 40.979 73.9413 41.1265 74.1693 41.2139L74.4521 41.3019C73.9653 41.7514 73.4044 42.1034 73.11 42.2813C72.5786 42.6023 71.9486 43.1639 71.7535 43.7444C71.5577 44.3269 71.6337 44.5377 73.0237 44.437ZM75.4786 40.3409L75.532 40.0446V39.8546C75.9723 40.175 76.6762 40.7815 76.6331 41.1449C76.3544 41.0816 75.823 40.9695 75.3183 40.8397C75.3827 40.6884 75.4354 40.5226 75.4786 40.3409ZM74.1734 40.4333C73.8495 40.175 74.1652 39.9173 74.4521 39.7514C74.8226 39.5374 75.0396 39.7141 75.2293 40.2756C75.1629 40.4365 75.0698 40.5928 74.9602 40.7429C74.6719 40.6536 74.2659 40.5105 74.1734 40.4333Z" fill="white"/>
<path d="M77.1898 60.1206C76.7906 60.467 76.6358 61.5939 76.7173 61.6616C76.7981 61.7294 78.0458 62.1504 78.2409 62.2415L78.3299 61.9022C78.9243 62.4359 79.583 65.0987 79.7296 65.1063C79.8761 65.1133 80.0884 64.805 80.2274 64.0978C80.3554 63.4419 80.4835 62.4606 80.617 61.6616C80.7416 60.9304 80.9354 60.5119 81.375 60.4283C81.8153 60.346 82.1413 60.9101 82.255 61.2938C82.255 61.2938 82.5638 60.5562 82.6295 60.0979C82.5562 59.8566 81.8715 58.9475 81.31 59.2482C80.7478 59.5496 80.3958 60.8253 80.2822 61.623C80.1678 62.4194 80.0802 63.4071 79.9418 63.5654C79.7967 62.8854 79.3317 61.6686 78.7702 60.9848C78.1389 60.2188 77.4007 59.9377 77.1898 60.1206Z" fill="white"/>
<path d="M71.8691 58.7591C72.3902 58.616 73.5632 58.4362 74.1247 58.1431C74.654 57.8949 75.5572 56.6844 75.9078 56.233C76.2577 55.7816 76.2584 55.555 76.1694 55.4353C75.8113 55.2391 73.4975 55.0447 72.3813 55.3214C72.0732 55.5296 71.4699 56.6458 71.3809 56.8794C71.2905 57.1118 71.4137 57.0972 71.7876 57.0149C72.1622 56.9313 73.9378 56.9763 74.5801 57.1118C74.3123 57.3004 72.4963 58.2178 72.1375 58.4362C71.7801 58.654 71.6897 58.7819 71.8691 58.7591Z" fill="white"/>
<path d="M179.446 65.2213C179.392 63.8684 178.729 61.7912 176.21 58.6041C175.34 57.5038 174.116 56.0717 172.826 54.6048C172.79 54.1047 172.754 53.6476 172.722 53.255C172.553 51.2361 171.98 47.1171 171.733 44.6822C171.673 44.0681 171.668 43.4147 171.677 43.0735C171.686 42.8025 171.881 42.8386 172.15 43.1172C172.418 43.3951 172.832 43.8009 172.918 43.7731C173.101 43.7097 172.942 43.095 172.576 42.3663C172.21 41.6363 170.827 38.6842 170.573 38.5696C170.443 38.5113 169.791 40.2448 169.75 40.5993C169.88 40.8171 170.214 41.1558 170.246 42.1415C170.28 43.1267 170.875 48.9449 171.216 52.6112L171.235 52.8157C169.305 50.6612 167.488 48.6967 166.74 47.9003C166.611 47.7622 166.468 47.6052 166.315 47.4368C166.193 46.4562 166.081 45.5217 166.003 44.7499C165.94 44.1371 165.936 43.4825 165.947 43.1412C165.953 42.8709 166.15 42.9076 166.418 43.1862C166.688 43.4641 167.1 43.8699 167.187 43.8408C167.37 43.7788 167.211 43.164 166.843 42.434C166.478 41.7041 165.037 38.6842 164.782 38.5696C164.652 38.5113 163.97 40.3828 163.93 40.7348C164.061 40.9538 164.394 41.2926 164.427 42.2783C164.44 42.6968 164.549 43.9655 164.694 45.5666C163.415 44.0466 162.162 42.4549 162.073 42.1314C162.042 41.9719 162.312 42.07 162.813 42.151C163.311 42.2308 163.779 42.3809 163.699 42.134C163.661 42.0194 163.471 41.7332 162.994 41.4369C162.516 41.1412 161.291 40.3752 160.381 39.8345C159.468 39.2932 159.016 38.838 158.828 38.9678C158.735 39.0317 158.817 40.8874 158.871 41.1172C159.1 41.1381 159.524 41.3084 159.794 41.6693C160.066 42.0301 161.811 44.4764 163.191 46.1307C163.588 46.6068 164.21 47.345 164.938 48.1972C165.08 49.7211 165.23 51.2956 165.353 52.6112C165.633 55.6121 166.639 63.5265 166.649 66.0988C165.906 66.7959 164.387 67.7683 162.823 67.7886C161.26 67.8082 160.403 67.3967 159.773 66.2343C159.578 65.8741 159.397 65.5119 159.218 65.184C158.792 64.4046 157.842 63.9672 156.925 64.1818L156.786 64.2191L156.537 64.3388C155.916 64.6636 155.275 65.208 154.647 66.0526C153.563 67.5176 152.87 69.1067 152.067 70.483C151.231 71.9164 150.589 72.8781 149.123 72.6483C148.09 72.4862 147.306 71.6005 146.823 70.5109C148.18 69.5714 149.166 68.3457 149.888 66.6471C150.826 64.4394 151.161 61.9507 151.078 59.1524C150.998 56.5187 149.797 50.3225 149.48 47.9477C149.164 45.5717 148.709 43.6217 148.762 43.1146C148.811 42.6252 149.59 43.7775 149.99 43.8636C150.194 43.818 150.084 43.083 149.696 42.4619C149.434 42.0396 148.601 40.1188 148.056 39.1926C147.8 38.7544 147.738 38.5006 147.619 38.4487C147.501 38.3948 146.594 40.3328 146.703 40.5436C146.972 40.9273 147.155 41.1102 147.211 41.7978C147.269 42.4853 147.891 47.5324 148.434 51.2494C148.844 54.054 149.749 59.1486 149.865 62.9143C149.903 64.1432 149.728 65.0251 149.576 65.5176C149.186 66.2723 148.55 67.1105 146.314 68.7015C145.969 66.4533 146.345 64.6268 146.017 64.4578C145.648 64.4977 145.589 65.5455 145.548 66.8383C145.527 67.4353 145.553 68.2621 145.665 69.1504C142.92 70.9851 139.294 72.6559 137.591 73.5479C136.592 74.0721 136.952 74.1943 137.797 73.9328C138.643 73.6701 143.291 72.4514 145.771 71.1465L146.039 70.9984C146.165 71.4359 146.317 71.8594 146.505 72.25C147.34 73.9847 148.532 75.0148 149.825 74.9141C150.911 74.8306 151.699 73.6676 152.387 72.2804C153.082 70.8762 154.256 68.2096 155.408 67.2175C155.85 66.8351 156.308 66.5325 156.753 66.3508C156.753 66.3508 157.54 66.088 158.263 66.561C158.523 66.7319 158.717 66.975 158.839 67.2473C159.125 67.8721 159.462 68.6673 160.153 69.3333C161.369 70.5046 163.325 70.2627 164.791 69.5815C166.256 68.8997 167.004 67.836 167.33 66.5724C167.886 64.4103 167.797 62.1951 167.691 60.2274C167.568 57.9818 167.209 55.6868 167.005 53.255C166.939 52.4732 166.811 51.3855 166.664 50.206C168.092 51.8546 169.576 53.5279 170.475 54.4427C170.786 54.7587 171.113 55.1094 171.449 55.4798C171.718 59.1606 171.976 63.7665 172.112 65.6993C172.247 67.6252 172.16 70.0462 172.144 70.4672C172.128 70.8882 172.362 70.8161 172.698 69.8816C173.149 68.6274 173.432 65.3385 173.333 63.1574C173.274 61.8615 173.145 59.4987 173.005 57.2639C174.114 58.5813 175.166 59.9115 175.851 60.8092C177.068 62.4034 178.186 64.2989 178.577 65.4815C178.968 66.6654 179.011 67.0162 179.087 67.227C179.163 67.4378 179.499 66.5743 179.446 65.2213Z" fill="white"/>
<path d="M158.886 110.253C158.776 109.939 158.439 109.708 158.036 109.708C157.634 109.708 157.297 109.939 157.187 110.253H153.373C153.335 109.83 153.372 109.405 153.492 108.991L161.365 108.986L161.585 109.356C161.782 109.689 162.033 109.99 162.323 110.253L158.886 110.253ZM164.098 106.595H154.637C155.364 106.07 155.745 105.304 155.643 104.529C155.577 104.041 155.094 103.676 154.504 103.627H154.208C153.49 103.697 152.97 104.214 153.046 104.782L153.075 105.001L153.11 105.336C153.148 105.758 153.111 106.182 152.992 106.595H83.0586C84.097 108.106 85.9904 109.032 88.0349 109.031L151.85 108.992C151.121 109.517 150.738 110.284 150.841 111.06C150.916 111.628 151.558 112.033 152.276 111.963C152.993 111.893 153.513 111.375 153.438 110.807L153.409 110.589H157.159C157.225 110.955 157.591 111.236 158.036 111.236C158.482 111.236 158.847 110.955 158.914 110.589H162.729V110.58C163.525 111.145 164.538 111.47 165.608 111.47C166.616 111.47 167.432 110.77 167.432 109.906V109.454C167.432 107.876 165.94 106.595 164.098 106.595" fill="white"/>
</g>
<defs>
<clipPath id="clip0_1284_63334">
<rect width="250" height="150" fill="white"/>
</clipPath>
</defs>
</svg>
