<svg width="250" height="150" viewBox="0 0 250 150" fill="none" xmlns="http://www.w3.org/2000/svg">
<g clip-path="url(#clip0_1284_65696)">
<mask id="mask0_1284_65696" style="mask-type:luminance" maskUnits="userSpaceOnUse" x="0" y="0" width="250" height="150">
<path d="M0 0H250V150H0V0Z" fill="white"/>
</mask>
<g mask="url(#mask0_1284_65696)">
<path fill-rule="evenodd" clip-rule="evenodd" d="M-7.8125 0H273.438V150H-7.8125V0Z" fill="white"/>
<path fill-rule="evenodd" clip-rule="evenodd" d="M-7.8125 0H273.438V75H-7.8125V0Z" fill="#DF0000"/>
<path fill-rule="evenodd" clip-rule="evenodd" d="M48.5152 12.5625C42.5956 13.8346 37.2938 17.1045 33.5001 21.8232C29.7064 26.5419 27.6517 32.4221 27.681 38.4765C27.7104 44.531 29.8219 50.391 33.6611 55.0727C37.5004 59.7544 42.8335 62.9728 48.7652 64.1875C45.3671 65.1708 41.8084 65.4735 38.293 65.0785C34.7777 64.6834 31.3749 63.5983 28.2798 61.8854C25.1848 60.1724 22.4583 57.8654 20.2569 55.0965C18.0554 52.3276 16.4223 49.1514 15.4511 45.75C13.5221 38.9128 14.3789 31.59 17.8341 25.3827C21.2893 19.1754 27.0618 14.5885 33.8895 12.625C38.8897 11.1875 43.515 11.1563 48.5465 12.5625H48.5152Z" fill="white"/>
<path fill-rule="evenodd" clip-rule="evenodd" d="M44.4526 34.375L45.9839 39.0625L41.9212 36.1875L37.921 39.125L39.3898 34.375L35.3896 31.4687L40.3586 31.4062L41.9212 26.7188L43.4838 31.4062H48.4215L44.4526 34.375ZM49.9216 50.625L51.4842 55.3438L47.4215 52.4688L43.39 55.375L44.8901 50.6563L40.8899 47.7188L45.8589 47.6875L47.3902 42.9688L48.9528 47.6562H53.9531L49.9216 50.625ZM68.2038 50.5L69.7351 55.25L65.6724 52.3438L61.6722 55.25L63.141 50.5312L59.1408 47.625L64.1098 47.5625L65.6724 42.875L67.235 47.5625H72.1727L68.2038 50.5ZM73.6415 34.375L75.1729 39.0937L71.1102 36.2188L67.11 39.125L68.61 34.4062L64.5786 31.4687L69.5788 31.4375L71.0789 26.7188L72.6415 31.4062H77.6417L73.6415 34.375ZM59.1721 23.6562L60.7347 28.4062L56.672 25.5L52.6405 28.4375L54.1406 23.6875L50.1404 20.75L55.0781 20.7188L56.6407 16L58.2033 20.6875H63.2035L59.1721 23.6562Z" fill="white"/>
</g>
</g>
<defs>
<clipPath id="clip0_1284_65696">
<rect width="250" height="150" fill="white"/>
</clipPath>
</defs>
</svg>
