<svg width="250" height="150" viewBox="0 0 250 150" fill="none" xmlns="http://www.w3.org/2000/svg">
<g clip-path="url(#clip0_1284_66541)">
<path d="M0 0H250V150H0V0Z" fill="#EE1C25"/>
<path d="M0 0H250V100H0V0Z" fill="#0B4EA2"/>
<path d="M0 0H250V50H0V0Z" fill="white"/>
<path d="M82.8413 115.875C69.4048 109.406 50.1562 96.5313 50.1562 71.125C50.1562 45.6875 51.4062 34.125 51.4062 34.125H114.308C114.308 34.125 115.526 45.6875 115.526 71.125C115.526 96.5625 96.2777 109.375 82.8413 115.875Z" fill="white"/>
<path d="M82.8413 112.5C70.4984 106.562 52.8435 94.75 52.8435 71.4375C52.8435 48.125 53.9685 37.5 53.9685 37.5H111.714C111.714 37.5 112.808 48.125 112.808 71.4375C112.839 94.7813 95.1841 106.562 82.8413 112.5Z" fill="#EE1C25"/>
<path d="M85.466 65.3125C88.8095 65.375 95.3403 65.5 101.121 63.5625C101.121 63.5625 100.996 65.6563 100.996 68.0625C100.996 70.4688 101.152 72.5625 101.152 72.5625C95.8403 70.7812 89.247 70.75 85.466 70.7812V83.6563H80.2165V70.7812C76.4667 70.75 69.8735 70.7812 64.5614 72.5625C64.5614 72.5625 64.7176 70.4688 64.7176 68.0625C64.7176 65.625 64.5614 63.5625 64.5614 63.5625C70.3422 65.5 76.873 65.375 80.1852 65.3125V57.2188C77.1542 57.2188 72.7795 57.3438 67.8112 59C67.8112 59 67.9674 56.9375 67.9674 54.5C67.9674 52.0937 67.8112 50 67.8112 50C72.7795 51.6563 77.1542 51.8125 80.1852 51.7812C80.029 46.6562 78.5291 40.2188 78.5291 40.2188C78.5291 40.2188 81.6226 40.4375 82.8413 40.4375C84.0912 40.4375 87.1534 40.2188 87.1534 40.2188C87.1534 40.2188 85.6535 46.6562 85.4973 51.7812C88.5283 51.8125 92.903 51.6563 97.8714 50C97.8714 50 97.7151 52.0937 97.7151 54.5C97.7151 56.9375 97.8714 59 97.8714 59C93.8668 57.7086 89.6721 57.1063 85.466 57.2188V65.3438V65.3125Z" fill="white"/>
<path d="M82.8413 82.2812C76.623 82.2812 73.3107 90.875 73.3107 90.875C73.3107 90.875 71.4359 86.8125 66.3738 86.8125C62.9365 86.8125 60.4367 89.8438 58.8118 92.6875C65.0614 102.594 75.0294 108.719 82.8413 112.5C90.6532 108.75 100.652 102.594 106.871 92.6875C105.246 89.875 102.746 86.8125 99.3088 86.8125C94.2466 86.8125 92.3718 90.875 92.3718 90.875C92.3718 90.875 89.0908 82.2812 82.8413 82.2812Z" fill="#0B4EA2"/>
</g>
<defs>
<clipPath id="clip0_1284_66541">
<rect width="250" height="150" fill="white"/>
</clipPath>
</defs>
</svg>
