<svg width="250" height="150" viewBox="0 0 250 150" fill="none" xmlns="http://www.w3.org/2000/svg">
<g clip-path="url(#clip0_1284_65828)">
<mask id="mask0_1284_65828" style="mask-type:luminance" maskUnits="userSpaceOnUse" x="-1" y="0" width="251" height="150">
<path d="M0.0141603 0H249.99V150H-0.0224609L0.0141603 0Z" fill="white"/>
</mask>
<g mask="url(#mask0_1284_65828)">
<path fill-rule="evenodd" clip-rule="evenodd" d="M-17.1973 0H357.803V150H-17.1973V0Z" fill="white"/>
<path fill-rule="evenodd" clip-rule="evenodd" d="M-17.1973 99.9902H357.803V150H-17.1973V99.9902Z" fill="#D50000"/>
<path fill-rule="evenodd" clip-rule="evenodd" d="M-17.1973 50.0098H357.803V99.9902H-17.1973V50.0098Z" fill="#0000BF"/>
<path fill-rule="evenodd" clip-rule="evenodd" d="M78.1189 27.2461C76.9469 45.293 76.2437 55.1953 73.5187 59.7656C70.53 64.6875 67.6586 68.291 56.0262 72.6562C44.4232 68.291 41.5517 64.6875 38.5631 59.7656C35.8088 55.1953 35.1349 45.293 33.9629 27.2461L35.6623 26.6602C39.1198 25.6055 41.6982 24.7559 43.6028 24.375C46.3277 23.7891 48.6718 23.1445 55.9969 22.998C63.3221 23.1152 65.6661 23.8184 68.3911 24.4043C70.2663 24.8145 72.962 25.5762 76.3902 26.6602L78.1189 27.2461Z" fill="#D50000"/>
<path fill-rule="evenodd" clip-rule="evenodd" d="M76.4183 26.6602C75.3048 44.6777 74.3672 52.9395 72.9022 56.8945C70.0893 63.6914 65.6356 67.4121 56.025 70.957C46.4145 67.4121 41.9608 63.6914 39.1186 56.8945C37.6536 52.9102 36.7746 44.6777 35.6611 26.6309C39.06 25.5762 41.6971 24.7559 43.6016 24.375C46.3265 23.7891 48.6706 23.1152 55.9957 22.998C63.3209 23.1152 65.6649 23.7891 68.3899 24.375C71.102 24.9923 73.7815 25.7452 76.4183 26.6309V26.6602Z" fill="#0000BF"/>
<path fill-rule="evenodd" clip-rule="evenodd" d="M56.0257 32.168L56.4652 33.252L58.5162 33.5449L57.1977 34.3359L58.4576 35.1855L56.6117 35.4785L56.0257 36.4746L55.4397 35.4492L53.6816 35.2148L54.8537 34.3359L53.623 33.5449L55.5862 33.252L56.0257 32.168Z" fill="#FFDF00"/>
<path fill-rule="evenodd" clip-rule="evenodd" d="M72.2297 52.6172L71.087 51.7383L70.2959 50.3906L68.7136 49.0137L67.8639 47.6367L66.2817 46.2012L65.5199 44.8242L64.6408 44.1504L64.1134 43.5938L62.6484 44.8535L61.8866 46.2305L60.9197 47.1094L59.8356 46.2598L59.0444 44.8535L56.0265 39.4922L53.0085 44.8535L52.2174 46.2598L51.1333 47.1094L50.1664 46.2305L49.3752 44.8535L47.9395 43.5938L47.3828 44.1211L46.5331 44.8242L45.7713 46.2012L44.189 47.6367L43.3393 49.0137L41.7571 50.3906L40.966 51.7383L39.8232 52.6172C40.4674 56.6498 42.3758 60.3737 45.2732 63.252C48.4165 65.9418 52.0612 67.983 55.9972 69.2578C59.9632 68.0115 63.6325 65.9677 66.7798 63.252C68.4792 61.4941 71.6437 57.5977 72.2297 52.6172Z" fill="white"/>
<path fill-rule="evenodd" clip-rule="evenodd" d="M60.8306 24.5801L61.2994 25.6641L63.3505 25.957L62.0027 26.748L63.2919 27.5977L61.4459 27.8906L60.8599 28.8867L60.2739 27.8613L58.5159 27.627L59.6879 26.748L58.4573 25.957L60.3911 25.6641L60.8599 24.5801H60.8306ZM51.1614 24.5801L51.6302 25.6641L53.6813 25.9277L52.3628 26.7187L53.6227 27.5684L51.7767 27.8613L51.1907 28.8574L50.6047 27.8613L48.8467 27.5977L50.0187 26.7187L48.7881 25.9277L50.7512 25.6348L51.1907 24.5508L51.1614 24.5801Z" fill="#FFDF00"/>
<path fill-rule="evenodd" clip-rule="evenodd" d="M69.7097 59.4727H67.5414L65.4904 59.3262L63.0584 58.1543H60.3042L57.9308 59.3262L56.0263 59.502L54.1511 59.3262L51.7777 58.1543H48.9942L46.5329 59.3262L44.5112 59.502L42.2843 59.4727L41.2295 57.6563L41.2588 57.5977L44.5405 58.1543L46.5622 58.0078L48.9942 56.8066H51.7484L54.1511 57.9785L56.0263 58.1543L57.9308 57.9785L60.3042 56.8066H63.0584L65.5197 57.9785L67.5414 58.1543L70.7059 57.5684L70.7645 57.6855L69.6804 59.4727H69.7097ZM44.394 62.2559L46.5622 62.1094L48.9942 60.9375H51.7484L54.1511 62.1094L56.0263 62.2559L57.9015 62.1094L60.3042 60.9375H63.0584L65.4904 62.1094L67.6879 62.2559L69.0944 60.498H69.0651L67.5414 60.9082L65.5197 60.7617L63.0877 59.5898H60.3335L57.9308 60.7617L56.0556 60.9375L54.1511 60.7617L51.7777 59.5898H48.9942L46.5329 60.7617L44.5112 60.9375L43.0461 60.5566V60.6152L44.3647 62.2559H44.394Z" fill="#0000BF"/>
</g>
</g>
<defs>
<clipPath id="clip0_1284_65828">
<rect width="250" height="150" fill="white"/>
</clipPath>
</defs>
</svg>
