<svg width="250" height="150" viewBox="0 0 250 150" fill="none" xmlns="http://www.w3.org/2000/svg">
<g clip-path="url(#clip0_1284_66715)">
<mask id="mask0_1284_66715" style="mask-type:luminance" maskUnits="userSpaceOnUse" x="0" y="0" width="251" height="150">
<path d="M0 0H250.012V150H0V0Z" fill="white"/>
</mask>
<g mask="url(#mask0_1284_66715)">
<path fill-rule="evenodd" clip-rule="evenodd" d="M0 150L250 0H0V150Z" fill="#0000D6"/>
<path fill-rule="evenodd" clip-rule="evenodd" d="M250.001 0L0 150H250.001V0Z" fill="#006000"/>
<path fill-rule="evenodd" clip-rule="evenodd" d="M250.105 0H230L0 142.207V150H20.105L250.105 8.08594V0Z" fill="#FFCC00"/>
<path fill-rule="evenodd" clip-rule="evenodd" d="M19.5396 3L23.1778 13.5882H35.0483L25.4594 20.0639L29.1285 30.6215L19.5396 24.1458L9.95067 30.6522L13.6197 20.0946L4.03083 13.5575H15.8705L19.5396 3ZM78.4604 3L82.1295 13.5882H94L84.3803 20.0946L88.0802 30.6522L78.4296 24.1458L68.8715 30.6829L72.5406 20.1253L62.9209 13.5882H74.7914L78.4604 3ZM78.4604 47.3478L82.1295 57.9361H94L84.3803 64.4425L88.0802 75L78.4604 68.4629L68.9024 75L72.5714 64.4425L62.9517 57.9054H74.8222L78.4604 47.3478ZM49.1696 25.4348L52.8386 35.9923H64.6783L55.1203 42.5294L58.7585 53.087L49.2004 46.5499L39.5807 53.087L43.2806 42.5294L33.6608 35.9923H45.5313L49.1696 25.4348ZM19.5396 47.3478L23.1778 57.9361H35.0483L25.4594 64.4425L29.1285 75L19.5396 68.4629L9.95067 75L13.6506 64.4425L4 57.9054H15.8397L19.5396 47.3478Z" fill="white"/>
</g>
</g>
<defs>
<clipPath id="clip0_1284_66715">
<rect width="250" height="150" fill="white"/>
</clipPath>
</defs>
</svg>
