<svg width="250" height="150" viewBox="0 0 250 150" fill="none" xmlns="http://www.w3.org/2000/svg">
<g clip-path="url(#clip0_1284_63250)">
<path d="M0 0H250V150H0V0Z" fill="white"/>
<path d="M45.6611 45.4058L66.9726 13.8007L72.0795 17.1668L50.7681 48.7718L45.6611 45.4058ZM53.3216 50.4549L74.633 18.8498L79.74 22.2159L58.4286 53.821L53.3216 50.4549ZM60.982 55.504L82.2935 23.899L87.4005 27.265L66.089 58.8701L60.982 55.504Z" fill="black"/>
<path d="M160.444 121.677L181.756 90.0722L186.863 93.4383L165.551 125.043L160.444 121.677ZM168.105 126.726L189.416 95.1213L194.523 98.4874L173.212 130.092L168.105 126.726ZM175.765 131.775L197.077 100.17L202.184 103.537L180.872 135.142L175.765 131.775Z" fill="black"/>
<path d="M168.27 103.94L194.357 121.274L168.27 103.94Z" fill="black"/>
<path d="M168.27 103.94L194.357 121.274" stroke="white" stroke-width="5"/>
<path d="M92.6172 54.3923C98.3215 45.9255 107.057 39.959 116.901 37.8054C126.746 35.6517 136.893 37.4873 145.111 42.9084C153.328 48.3294 158.944 56.8919 160.721 66.7121C162.498 76.5323 160.292 86.8058 154.588 95.2726L92.6172 54.3923Z" fill="#CD2E3A"/>
<path d="M93.1835 53.9663C87.4984 62.3986 85.2997 72.6304 87.0709 82.4106C88.8422 92.1909 94.4383 100.718 102.628 106.117C110.818 111.516 120.931 113.345 130.742 111.2C140.553 109.055 149.259 103.113 154.944 94.6802C157.786 90.4641 158.886 85.3482 158 80.4581C157.114 75.5679 154.316 71.3041 150.221 68.6046C146.126 65.9051 141.07 64.991 136.164 66.0635C131.259 67.1359 126.906 70.1071 124.064 74.3232L93.1835 53.9663Z" fill="#0047A0"/>
<path d="M123.667 74.2202C129.57 65.4653 127.462 53.824 118.957 48.2186C110.453 42.6131 98.7736 45.1662 92.8704 53.921C86.9671 62.6758 89.0757 74.3171 97.58 79.9225C106.084 85.528 117.764 82.975 123.667 74.2202Z" fill="#CD2E3A"/>
<path d="M66.9727 135.142L45.6612 103.537L50.7682 100.17L72.0796 131.776L66.9727 135.142ZM74.6331 130.092L53.3217 98.4874L58.4287 95.1213L79.7401 126.726L74.6331 130.092ZM82.2936 125.043L60.9821 93.4383L66.0891 90.0722L87.4005 121.677L82.2936 125.043Z" fill="black"/>
<path d="M181.756 58.8704L160.444 27.2653L165.551 23.8992L186.863 55.5043L181.756 58.8704ZM189.416 53.8212L168.105 22.2162L173.212 18.8501L194.523 50.4552L189.416 53.8212ZM197.077 48.7721L175.765 17.1671L180.872 13.801L202.184 45.406L197.077 48.7721Z" fill="black"/>
<path d="M62.6182 115.207L70.4443 110.007L62.6182 115.207ZM168.271 45.0028L177.401 38.9358L168.271 45.0028ZM185.227 33.7355L193.054 28.5351L185.227 33.7355Z" fill="black"/>
<path d="M62.6182 115.207L70.4443 110.007M168.271 45.0028L177.401 38.9358M185.227 33.7354L193.054 28.5351" stroke="white" stroke-width="5"/>
</g>
<defs>
<clipPath id="clip0_1284_63250">
<rect width="250" height="150" fill="white"/>
</clipPath>
</defs>
</svg>
