<svg width="250" height="150" viewBox="0 0 250 150" fill="none" xmlns="http://www.w3.org/2000/svg">
<g clip-path="url(#clip0_1284_64624)">
<path d="M0 0H250V150H0V0Z" fill="#FFB700"/>
<path d="M10.4297 75L44.8047 8.34375H79.1797V141.656H44.8047L10.4297 75Z" fill="#FF5B00"/>
<path d="M10.4297 8.34375H44.8047V141.656H10.4297V8.34375Z" fill="#005641"/>
<path d="M89.5703 8.34375H240.625V141.656H89.5703V8.34375Z" fill="#8D2029"/>
<path d="M229 127.688C229 127.688 230.126 129.969 231.376 130.937C233.252 132.312 237.004 132.187 238.661 133.844C240.568 135.75 238.505 138.281 238.505 138.531L238.63 139.844C238.63 139.844 237.317 139.844 236.754 139.937C235.941 140.062 235.628 140.75 234.065 140.656C230.219 140.406 230.376 136.906 230.157 133.938C229.969 132.812 229.532 131.312 229.25 130.188C229.031 129.25 229 127.688 229 127.688Z" fill="#FFB700" stroke="black" stroke-width="0.4"/>
<path d="M101.19 127.688C101.19 127.688 100.065 129.969 98.8142 130.937C96.9383 132.312 93.1864 132.187 91.5294 133.844C89.6222 135.75 91.6857 138.281 91.6857 138.531L91.5606 139.844C91.5606 139.844 92.8738 139.844 93.4366 139.937C94.2495 140.062 94.5621 140.75 96.1254 140.656C99.9711 140.406 99.8147 136.906 100.034 133.938C100.221 132.812 100.659 131.312 100.94 130.188C101.159 129.25 101.19 127.688 101.19 127.688Z" fill="#FFB700" stroke="black" stroke-width="0.4"/>
<path d="M229 22.3125C229 22.3125 230.126 20.0313 231.376 19.0625C233.252 17.6875 237.004 17.8125 238.661 16.1563C240.568 14.25 238.505 11.7188 238.505 11.4688L238.63 10.1563C238.63 10.1563 237.317 10.1563 236.754 10.0625C235.941 9.93751 235.628 9.25 234.065 9.34375C230.219 9.59375 230.376 13.0938 230.157 16.0625C229.969 17.1875 229.532 18.6875 229.25 19.8125C229.031 20.75 229 22.3125 229 22.3125Z" fill="#FFB700" stroke="black" stroke-width="0.4"/>
<path d="M101.19 22.3125C101.19 22.3125 100.065 20.0313 98.8149 19.0625C96.9395 17.6875 93.1887 17.8125 91.5321 16.1563C89.6255 14.25 91.6884 11.7188 91.6884 11.4688L91.5634 10.1563C91.5634 10.1563 92.8762 10.1563 93.4388 10.0625C94.2515 9.93751 94.564 9.25 96.1269 9.34375C99.9714 9.59375 99.8151 13.0938 100.034 16.0625C100.221 17.1875 100.659 18.6875 100.94 19.8125C101.159 20.75 101.19 22.3125 101.19 22.3125Z" fill="#FFB700" stroke="black" stroke-width="0.4"/>
<path d="M146.378 106.187L147.097 105.75L147.41 106.187C147.816 106.75 148.972 106.719 149.722 106.187L150.316 105.719L150.816 106.156C151.441 106.75 152.628 106.75 153.409 106.156C153.94 105.781 154.034 105.75 154.347 106.062C154.565 106.25 155.19 106.437 155.722 106.531C156.721 106.656 156.721 106.656 157.284 105.781C157.784 105.062 157.846 104.781 157.753 104.062C157.665 103.513 157.603 102.961 157.565 102.406C157.503 101.594 157.534 101.594 158.69 101.156C159.264 100.98 159.827 100.771 160.377 100.531C160.846 100.25 162.159 98.7187 162.159 98.4062C162.159 98.3437 161.659 98.2187 161.034 98.1562C158.534 97.8437 158.128 96.5312 159.752 94.0937C162.346 90.0312 163.94 86.125 163.94 83.6562C163.94 82.5312 164.033 82.1562 164.158 82.4062C164.752 83.375 163.69 87.5312 162.127 90.5312L161.502 91.7187L162.096 91.5937C162.409 91.5 164.408 90.6562 166.471 89.7187C172.158 87.1562 174.095 86.6562 177.782 86.8125C180.876 86.9375 182.157 87.5312 184.344 89.8125C185.501 91.0625 186.626 91.9062 188.657 93.1875C192.969 95.875 193.156 96.1249 193.375 99.3124C193.594 102.531 193.469 102.719 191.031 103.25C188.938 103.719 187.625 104.687 187.282 106.062C187.094 106.75 187.5 106.781 188.532 106.094L189.313 105.594L189.657 106.094C190.125 106.75 191.063 106.75 191.844 106.094L192.469 105.625L193.094 106.094C194.031 106.875 195.281 106.687 195.656 105.719C195.719 105.562 195.906 105.594 196.281 105.937C197 106.562 198.781 106.812 198.968 106.312C199.031 106.125 198.906 105.687 198.656 105.312C197.625 103.75 197.281 103.031 197.281 102.187C197.281 101 197.594 100.406 198.968 99.4687C200.593 98.2812 201.093 96.7812 199.843 96.7812C199.093 96.7812 198.312 96.0937 197.812 95C196.812 92.75 197.031 90.25 198.531 86.0625C199.681 83.5986 200.258 80.9062 200.218 78.1875C200.218 75.875 200.156 75.5 199.656 74.2187C199.265 73.3279 198.783 72.4797 198.218 71.6875L197.344 70.5312L198.437 69.5937C201.812 66.8125 201.125 62.25 197.062 60.5C195.812 59.9375 195.5 59.9062 193.313 59.9062C192.063 59.9062 190.032 60.0937 188.938 60.3125C187.47 60.5448 185.987 60.6701 184.501 60.6875C182.376 60.6875 182.001 60.625 181.188 60.1875C180.345 59.75 180.189 59.5312 180.032 58.4687C180.017 58.3686 179.978 58.2736 179.918 58.1919C179.858 58.1103 179.78 58.0444 179.689 58C179.376 57.9062 178.064 59.0625 177.876 59.5625C177.751 59.8437 177.689 59.8124 177.407 59.4687C177.142 59.1281 176.932 58.7487 176.783 58.3437C176.47 57.3125 176.876 56.5625 178.095 55.9687L179.032 55.5312L178.47 55.1875C177.345 54.4687 175.408 54.9687 174.72 56.125C174.501 56.4375 174.283 56.75 174.22 56.75C174.158 56.75 173.783 56.4375 173.408 56.0312C171.939 54.5937 172.439 52.4687 174.408 51.8437C175.439 51.5 176.376 51.75 176.564 52.4687C176.876 53.5 177.751 52.125 177.595 50.8437C177.501 50 177.501 49.9687 178.095 49.9687C178.907 49.9687 180.595 51.0312 181.157 51.8437C181.782 52.8125 181.72 54.3437 181.032 55.4687L180.501 56.3437L181.22 56.2187C182.22 56 183.22 55.375 183.72 54.5937C183.983 54.0961 184.131 53.5456 184.153 52.983C184.174 52.4203 184.069 51.8601 183.844 51.3437C183.376 50.5 183.438 50.375 184.126 50.6562C185.251 51.125 185.876 51.6562 186.313 52.5625C186.751 53.375 186.782 53.5625 186.563 54.4375C186.413 54.9702 186.181 55.4763 185.876 55.9375C185.501 56.4375 185.469 56.5312 185.782 56.5312C186.344 56.5312 187.469 56 187.875 55.5937C188.094 55.3437 188.407 54.8125 188.563 54.3437L188.875 53.5625L189.188 54.1875C189.657 55.0312 190.594 55.8125 191.719 56.3125C192.938 56.8125 193.438 56.8437 192.813 56.375C192.375 56.0625 191.563 53.7187 191.844 53.5C193.193 54.2552 194.424 55.2026 195.5 56.3125C197.281 57.9062 198.406 58.4375 200.031 58.4375C202.124 58.4375 203.343 56.625 202.406 54.9062C201.874 53.9062 200.656 53.75 199.906 54.5937C199.593 55 199.5 55.3125 199.593 55.75C199.718 56.25 199.687 56.3125 199.218 56.3125C198.593 56.3125 197.406 55.5312 195.281 53.75C192.324 51.2044 188.924 49.2236 185.251 47.9062C182.762 47.331 180.193 47.1935 177.657 47.5C175.658 47.875 173.283 49.0312 171.97 50.25C169.689 52.4375 169.658 55.3437 171.877 58L172.502 58.75L172.095 59.4375C171.79 59.9299 171.638 60.5024 171.661 61.0816C171.683 61.6607 171.878 62.2199 172.22 62.6875C172.533 63.125 172.845 63.4687 172.939 63.4687C173.002 63.4687 173.064 63.1875 173.095 62.8437C173.158 62 173.533 61.4375 174.158 61.2187C174.72 61 175.095 61.125 177.657 62.1562C180.376 63.2187 184.844 63.2812 189.594 62.3437C191.653 61.8682 193.795 61.8897 195.844 62.4062C198.093 63.3437 198.593 65.75 196.969 67.5625C196.25 68.375 195.594 68.6875 193.313 69.3125C191.327 69.8362 189.262 69.9951 187.219 69.7812C183.845 69.75 182.626 69.8125 181.282 70.0937C179.751 70.4062 178.845 70.4375 174.47 70.3437L169.377 70.2187L169.939 70.6562C170.24 70.9237 170.565 71.1642 170.908 71.375C171.314 71.5937 171.283 71.625 170.72 71.8437C170.408 71.9687 169.658 72.0625 169.064 72.0625H168.033L167.908 72.9375C167.824 73.3499 167.824 73.775 167.908 74.1875C168.033 74.5 167.971 74.5625 167.658 74.4375C167.439 74.3437 166.846 74.1875 166.315 74.0937C165.779 73.9788 165.255 73.8113 164.752 73.5937C164.158 73.2812 164.096 73.2812 163.877 73.6875C163.69 74 161.94 75.3125 161.69 75.3125C161.577 74.5017 161.345 73.712 161.002 72.9687C160.69 72.3125 160.409 71.5625 160.315 71.3437C160.221 71 160.159 70.9687 160.002 71.25C159.909 71.4062 159.784 71.875 159.69 72.25C159.581 72.7561 159.391 73.2414 159.128 73.6875L158.659 74.375L158.346 73.7812C158.034 73.1562 157.534 72.4687 157.346 72.4687C157.284 72.4687 157.19 72.6562 157.128 72.9375C156.971 73.4375 155.753 74.9062 155.44 74.9062C155.347 74.9062 155.253 74.5 155.253 73.9687C155.253 73.5 155.159 73.0625 155.034 73.0625C154.909 73.0625 154.815 73.2187 154.815 73.375C154.815 73.75 153.784 74.9375 153.409 74.9375C153.284 74.9375 153.034 75.0625 152.878 75.25C152.503 75.6562 152.191 75.5937 152.347 75.125C152.391 74.7247 152.348 74.3198 152.222 73.9375L151.909 72.9375C151.847 72.7812 151.472 72.8437 150.659 73.0937C149.409 73.5 148.972 73.4062 149.628 72.9062C149.878 72.7187 150.253 72.0625 150.441 71.4687C150.659 70.8437 150.972 70.3125 151.128 70.25C151.347 70.1875 151.347 70.25 151.066 70.625C150.885 70.8627 150.767 71.1421 150.722 71.4375C150.722 71.5937 150.566 72 150.409 72.3437C150.222 72.6562 150.097 72.9687 150.128 73C150.159 73.0312 150.659 72.8437 151.222 72.5937L152.222 72.0937V72.5312C152.222 72.7812 152.347 73.4062 152.503 73.9375L152.784 74.875L153.472 74.5625C154.159 74.25 154.815 73.125 154.815 72.2187C154.815 71.7812 155.065 71.8437 155.19 72.3125C155.19 72.4375 155.378 72.9687 155.503 73.4687L155.815 74.3437L156.284 73.7812C156.565 73.4687 156.878 72.8437 157.003 72.4375C157.253 71.6875 157.628 71.3437 157.628 71.9062C157.628 72.2812 158.69 73.7187 158.878 73.5937C159.003 73.5312 159.19 73 159.346 72.4062C159.659 71.1562 160.127 70.3437 160.44 70.5312C160.565 70.5937 160.596 70.7187 160.534 70.8437C160.471 70.9062 160.721 71.7187 161.096 72.5937C161.368 73.2496 161.639 73.9058 161.909 74.5625C162.034 74.875 162.159 74.875 162.94 74.1562C163.408 73.7187 163.877 73.25 163.908 73.0937C164.002 72.8437 164.096 72.875 164.533 73.1562C165.455 73.6429 166.464 73.9404 167.502 74.0312C167.564 73.9687 167.627 73.4062 167.627 72.7812L167.658 71.625L168.283 71.75C168.596 71.8437 169.314 71.8437 169.846 71.75L170.783 71.625L169.939 71C169.471 70.6875 169.002 70.2812 168.877 70.0937C168.783 69.9062 168.346 69.7187 167.877 69.6875C166.596 69.5625 164.315 68.3125 164.315 67.6875C164.315 67.5625 164.627 67.7812 165.002 68.125C165.877 68.9062 167.064 69.375 168.127 69.375H168.877L168.408 68.75C168.074 68.2654 167.86 67.7084 167.783 67.1249C167.721 66.1874 167.627 66.0624 166.658 65.4062C166.097 65.0082 165.573 64.5583 165.096 64.0625L164.565 63.4687L164.283 64.1875C164.127 64.5937 163.971 64.9062 163.877 64.9062C163.815 64.9062 163.502 64.6562 163.252 64.375C163.076 64.1713 162.865 64.0018 162.627 63.875C162.534 63.875 162.315 64.25 162.065 64.7187L161.627 65.5624L161.315 65.0937C161.037 64.7105 160.723 64.3547 160.377 64.0312C160.002 63.7187 159.846 63.4687 159.971 63.4687C160.096 63.4687 160.502 63.7812 160.909 64.1875L161.596 64.9062L161.909 64.375C162.089 64.0068 162.144 63.5897 162.065 63.1875C161.94 62.625 161.971 62.5937 162.159 62.9687C162.428 63.3214 162.743 63.6367 163.096 63.9062L163.783 64.4687L164.252 63.625C164.721 62.75 164.721 62.75 164.908 63.2812C165.221 63.9375 167.252 65.625 168.971 66.5937C169.283 66.75 169.158 66.25 168.658 65.0312C168.508 64.6307 168.424 64.2086 168.408 63.7812C168.408 63.2187 168.252 62.9687 167.533 62.4062C167.086 62.1205 166.712 61.7344 166.441 61.2787C166.17 60.823 166.009 60.3102 165.971 59.7812C165.877 59.2499 165.69 58.6875 165.533 58.5C165.346 58.1875 165.283 58.3749 165.346 59.3124C165.408 59.9687 165.315 60.7812 165.158 61.125L164.908 61.75L164.721 61.2187C164.596 60.9375 164.096 60.4375 163.627 60.125C163.158 59.8125 162.815 59.5 162.877 59.4375C162.94 59.375 163.44 59.6562 163.971 60.0625C164.815 60.7187 164.971 60.7812 165.096 60.5C165.221 60.1875 165.096 58.7499 164.846 57.7499C164.721 57.2499 164.721 57.25 165.346 57.875C165.783 58.3125 166.033 58.875 166.252 59.8125C166.502 61 166.627 61.2187 167.721 62.1875C168.377 62.7812 168.971 63.2187 169.002 63.1875C169.064 63.125 169.127 61.625 169.189 59.8125C169.314 56.3437 169.189 55.5 168.346 54.4375L167.908 53.875L168.596 53.1562C169.366 52.4195 169.88 51.456 170.064 50.4062L170.189 49.5625L169.439 50.2812C168.814 50.875 168.502 51 167.783 51C167.064 51 166.783 50.875 166.315 50.375C165.584 49.672 164.694 49.1572 163.721 48.875C163.346 48.75 163.221 48.8125 163.221 49.0625C163.221 49.25 163.034 49.75 162.784 50.2187L162.346 51.0312L161.409 50.0937C160.815 49.5625 160.159 49.0937 159.627 48.9687C158.346 48.6562 158.284 48.6562 158.284 49.625C158.284 51.0937 157.659 51.375 156.534 50.4062C155.659 49.6562 154.972 49.4687 153.315 49.6875L152.066 49.8125L152.284 50.375C152.472 50.8437 152.441 51.0625 152.034 51.5937C151.378 52.4687 150.534 52.8437 149.222 52.8437C148.597 52.8437 147.847 52.9687 147.535 53.125C147.222 53.2812 146.41 53.4375 145.754 53.5C145.129 53.5625 144.41 53.6875 144.191 53.75C143.879 53.875 143.879 53.75 143.972 53.0625C144.129 52 143.347 51.1875 142.191 51.1875C140.66 51.1875 139.973 52.5625 140.566 54.375C140.688 54.766 140.792 55.1622 140.879 55.5625C141.289 56.3439 141.84 57.0431 142.504 57.625C143.316 58.4375 144.066 59.2812 144.191 59.5C144.443 59.8258 144.763 60.0925 145.129 60.2812L145.816 60.6562L145.722 59.9062C145.629 59.0937 145.785 58.9687 146.222 59.5625C146.378 59.75 146.785 60.0937 147.097 60.2812C147.628 60.5937 147.722 60.5937 147.722 60.3437C147.722 60.1562 147.816 59.75 147.941 59.4375L148.16 58.875L148.566 59.6562C148.785 60.0937 149.503 61.0625 150.159 61.8437C151.441 63.3125 152.253 64.9687 151.847 65.3437C151.659 65.5 151.222 65.5 150.284 65.3125C149.597 65.1875 148.722 65.0937 148.347 65.1562C147.628 65.25 147.566 65.1562 148.035 64.5937C148.503 63.9687 148.41 63.875 147.472 63.875C146.378 63.875 143.66 63.3437 142.597 62.9375C141.598 62.5312 141.348 62.625 141.035 63.5937L140.504 65.3437L140.191 66.2812L141.316 66.1874C141.896 66.1268 142.471 66.0223 143.035 65.8749C143.256 65.8012 143.489 65.7694 143.722 65.7812C143.785 65.8125 143.629 66.1875 143.41 66.625L142.972 67.375L143.66 67.25C144.035 67.1562 144.597 66.9687 144.91 66.8124C145.472 66.5624 145.535 66.5624 145.972 67.2812C146.503 68.1249 146.91 68.0937 147.003 67.1875C147.097 66.25 147.41 66.375 148.003 67.625C148.566 68.8125 149.128 69.25 149.253 68.5625C149.285 68.3125 149.566 67.9375 149.909 67.6875C150.597 67.2187 151.097 67.375 151.378 68.0937C151.691 68.875 151.003 69.6562 149.066 70.8437C147.272 71.8344 145.728 73.2223 144.553 74.9014C143.377 76.5805 142.602 78.5062 142.285 80.5312C141.691 84.2187 143.535 88.0312 147.16 90.8125C148.91 92.125 151.691 93.5 151.503 93C150.753 90.7187 150.784 86.4375 151.534 85.7187C151.659 85.5937 151.628 86.0312 151.441 86.6875C150.816 89.1562 151.128 91.0937 152.691 95.6562C154.065 99.7812 153.878 101.562 151.878 102.719C151.253 103.094 150.847 103.156 149.128 103.125C147.253 103.125 147.035 103.125 146.441 103.625C145.723 104.358 145.253 105.298 145.097 106.312C145.097 106.719 145.535 106.656 146.347 106.187H146.378Z" fill="#FFB700" stroke="black" stroke-width="1.2"/>
<path d="M176.688 106.094L177.469 105.594L178.001 106.094C178.688 106.75 179.532 106.719 180.188 106.063C180.501 105.75 180.751 105.563 180.782 105.594L181.063 106.094C181.219 106.375 181.563 106.5 182.188 106.563C182.907 106.594 183.125 106.563 183.438 106.125L183.75 105.594L184.531 106.094C186.656 107.469 187.781 106.031 186.813 103.188C186.344 101.75 186.625 100.938 188.156 99.125C188.812 98.3438 189.344 97.5 189.344 97.25C189.344 96.9063 189.219 96.8438 188.344 96.875C187.531 96.875 187.281 96.7813 186.844 96.3125C186.125 95.5313 186.188 94.625 186.969 93.625L187.594 92.8438L186.469 92.0938C185.571 91.4305 184.734 90.6879 183.969 89.875C183.287 89.0699 182.453 88.4072 181.515 87.9246C180.576 87.442 179.552 87.1491 178.501 87.0625L177.032 86.9063V88.0313C177.032 89.4375 177.719 90.8125 179.532 93.125C181.594 95.75 181.719 96.1563 181.813 99.5938L181.907 102.5L181.282 103.063C180.751 103.563 180.532 103.656 178.782 103.75C177.126 103.844 176.751 103.938 176.282 104.375C175.734 104.775 175.355 105.366 175.22 106.031C175.126 106.5 175.157 106.594 175.501 106.594C175.72 106.594 176.251 106.375 176.688 106.094ZM132.254 98.5938C132.443 98.3162 132.551 97.9917 132.566 97.6563C132.566 97.3438 132.754 97.2188 133.566 97.0938L134.535 96.9688L133.91 96.4375C133.129 95.8125 133.035 95.3438 133.723 95.3438C134.41 95.3438 135.535 94.6563 135.723 94.125C135.816 93.875 135.723 93.5625 135.598 93.4063C135.223 92.9688 134.504 93.0313 134.379 93.5313C134.223 94.0313 134.004 94.0313 133.441 93.5313C132.66 92.75 132.629 91.1563 133.441 90.2188C133.785 89.7813 133.785 89.7813 133.316 89.3125C132.816 88.8125 132.442 87.875 132.691 87.625C132.754 87.5625 133.16 87.625 133.566 87.7813C134.191 87.9688 134.41 87.9688 134.66 87.7813C135.379 87.1875 134.598 86.4375 133.41 86.625C132.91 86.6875 132.723 86.625 132.66 86.375C132.598 86.1875 132.192 85.9375 131.723 85.8125C130.879 85.5938 130.879 85.5938 130.879 86.1875C130.879 86.8125 130.504 86.9375 129.817 86.5313C129.254 86.2188 128.723 86.4688 128.723 87.0625C128.723 87.625 129.254 87.875 130.285 87.8125C131.035 87.7813 131.067 88.3438 130.348 89.1563L129.817 89.7813L130.223 90.375C130.848 91.25 130.785 92.7188 130.129 93.4688L129.598 94.0313L129.254 93.5625C128.754 92.9375 128.098 92.9688 127.911 93.6563C127.817 94.0938 127.911 94.2813 128.473 94.7813C128.848 95.0938 129.41 95.3438 129.692 95.3438C130.41 95.3438 130.379 95.9375 129.629 96.5L129.004 96.9688L129.942 97.0938C130.442 97.1875 130.879 97.3125 130.879 97.4063C130.879 97.8125 131.504 99.0313 131.692 99.0313C131.817 99.0313 132.067 98.8125 132.254 98.5625V98.5938Z" fill="#FFB700" stroke="black" stroke-width="1.2"/>
<path d="M144.191 93.4062C145.035 93.0937 146.847 91.5312 146.847 91.1875C146.847 91.0625 146.347 90.5 145.723 89.9375C144.473 88.8125 143.066 86.8437 142.691 85.7187C142.504 85.0937 141.598 84.0938 139.036 81.5938L135.629 78.3125L134.661 78.5625C134.098 78.6875 133.442 78.8125 133.192 78.8125C132.723 78.8125 132.723 78.8125 133.348 79.3125L133.973 79.8125L134.911 79.3125C135.754 78.8125 135.786 78.8125 135.879 79.2187C135.942 79.4375 135.817 79.8437 135.567 80.125C135.348 80.4062 135.223 80.75 135.255 80.8438C135.348 80.9375 135.13 81.1562 134.786 81.3437C134.161 81.6562 133.692 82.6875 134.192 82.6875C134.661 82.6875 135.661 81.4375 135.536 81.0312C135.473 80.8125 135.536 80.5938 135.598 80.5313C136.004 80.3125 135.973 81.2813 135.598 81.7813C135.348 82.0313 135.223 82.3437 135.286 82.4687C135.348 82.5625 135.13 82.7812 134.786 82.9687C134.161 83.2812 133.692 84.3125 134.192 84.3125C134.692 84.3125 135.661 83.125 135.567 82.6875C135.505 82.4688 135.505 82.2187 135.598 82.1562C135.879 82.0312 136.004 82.7812 135.786 83.1562C135.728 83.2617 135.698 83.3799 135.698 83.5C135.698 83.6201 135.728 83.7383 135.786 83.8437C136.004 84.25 135.786 85 135.38 85.25C135.223 85.3437 135.317 85.5625 135.754 85.875C136.379 86.3125 136.379 86.375 136.379 88.375C136.379 90.0625 136.442 90.5 136.754 90.7812C137.067 91.0937 137.129 91.0937 137.129 90.7812C137.129 90.4687 137.754 90.0312 138.223 90.0312C138.379 90.0312 139.285 90.8125 140.254 91.75C141.223 92.6875 142.254 93.5312 142.535 93.5625L143.223 93.6875C143.316 93.6875 143.754 93.5937 144.191 93.375V93.4062ZM133.786 85.25C133.786 84.7187 132.661 84.125 131.317 84C130.224 83.8437 130.224 83.875 130.224 84.4062C130.224 84.8438 130.38 85.0312 131.161 85.3438C132.348 85.875 133.786 85.8125 133.786 85.25Z" fill="#FFB700" stroke="black" stroke-width="1.2"/>
<path d="M135.004 85.1876C135.566 84.6876 135.816 84.1251 135.473 84.1251C135.098 84.1251 134.098 85.0001 134.098 85.3751C134.098 85.8751 134.285 85.8439 135.035 85.1876H135.004ZM133.848 83.5939C133.879 83.2814 133.692 83.0939 133.129 82.8126C131.879 82.2814 130.442 82.0001 130.098 82.2813C129.442 82.8126 129.879 83.5001 130.91 83.6251C131.348 83.6564 131.91 83.7814 132.192 83.9064C133.004 84.2189 133.754 84.0626 133.848 83.5939ZM133.848 81.9376C133.91 81.5314 133.629 81.3751 131.348 80.5626C129.629 79.9376 128.879 80.2501 129.442 81.2814C129.629 81.6251 129.942 81.7814 130.66 81.9064C131.192 81.9689 131.91 82.1251 132.254 82.2501C133.192 82.5626 133.754 82.4376 133.816 81.9376H133.848ZM134.973 80.4063C135.316 80.0626 135.598 79.6563 135.598 79.4688C135.598 79.0001 134.254 79.8751 134.066 80.5001C133.879 81.2189 134.223 81.1876 135.004 80.4063H134.973ZM133.848 80.3126C133.91 79.8126 133.098 79.3751 131.473 79.0313C130.254 78.7501 129.723 78.9063 129.817 79.4688C129.879 79.7813 130.285 80.0001 131.379 80.3439C133.223 80.9064 133.754 80.9063 133.848 80.3126ZM135.41 78.0001C137.535 77.0626 137.691 74.7189 135.723 74.0939C134.91 73.8439 134.41 74.0001 134.098 74.5313C133.848 74.9688 134.004 75.7188 134.316 75.7188C134.441 75.7188 134.535 75.8751 134.535 76.0313C134.535 76.8751 131.348 77.2188 130.036 76.5626C129.567 76.3438 129.411 75.7188 129.754 75.7188C130.067 75.7188 130.254 75.0938 130.098 74.6876C129.911 74.0626 129.286 73.8751 128.442 74.1251C126.473 74.6251 126.536 76.9376 128.536 77.8751C130.748 78.6872 133.17 78.7313 135.41 78.0001Z" fill="#FFB700" stroke="black" stroke-width="1.2"/>
<path d="M134.13 76.1875C134.255 76.0625 134.192 75.875 134.005 75.75C133.567 75.4062 133.598 74.875 134.067 74.2812C134.442 73.8437 134.473 73.1562 134.598 66.4375C134.817 54.8437 135.692 46.125 136.817 44C137.286 43.1875 137.223 43.1875 136.036 44C134.478 45.0854 133.22 46.5475 132.38 48.25C130.442 51.8437 129.786 56.6875 129.786 67.0625C129.786 72.9375 129.817 73.7187 130.161 74.25C130.474 74.8125 130.474 75 130.286 75.5625C130.13 75.9062 130.067 76.2812 130.13 76.3437C130.567 76.75 133.692 76.6562 134.13 76.1875ZM151.66 65.125C151.753 65.0312 151.597 64.5 151.347 64C150.972 63.1875 150.816 63.0625 150.285 63.0625C147.786 62.8453 145.349 62.1672 143.098 61.0625C141.504 60.3437 140.91 60.1875 140.754 60.375C140.254 60.8438 141.067 61.9375 142.316 62.5312C144.156 63.1941 146.082 63.5837 148.035 63.6875C148.879 63.6875 148.91 63.6875 148.41 64.4062L148.097 64.9062H149.035L150.597 65.0937C151.535 65.3125 151.535 65.3125 151.66 65.125Z" fill="#FFB700" stroke="black" stroke-width="1.2"/>
<path d="M161.534 70.3437C161.534 70.0312 160.628 69.25 159.753 68.7187C159.034 68.3125 158.909 68.2812 158.909 68.625C158.909 69.125 158.472 70.4062 158.284 70.4062C158.19 70.4062 158.034 70.1562 157.972 69.875C157.878 69.5625 157.534 68.9375 157.19 68.5312L156.565 67.75L156.128 68.4687C155.69 69.1562 154.909 69.8125 154.566 69.8125C154.503 69.8125 154.472 69.4375 154.566 69.0312C154.597 68.5312 154.566 68.1562 154.409 68.0937C154.284 68 154.159 68.0312 154.159 68.1562C154.159 68.4062 153.097 69.5937 152.909 69.5937C152.784 69.5937 152.659 69.2812 152.597 68.8437L152.347 67.3437C152.284 66.9687 152.441 67.2187 152.659 67.9687L153.159 69.25L153.659 68.4687C153.886 68.1459 154.055 67.7865 154.159 67.4062C154.159 67.25 154.253 67.1875 154.378 67.25C154.503 67.3125 154.659 67.8437 154.722 68.4062L154.878 69.4687L155.441 68.8437C155.735 68.5302 156.006 68.1961 156.253 67.8437C156.472 67.4687 156.503 67.4687 156.972 67.8437C157.222 68.0937 157.628 68.625 157.878 69.0625C158.128 69.5 158.347 69.8125 158.378 69.7812L158.565 68.7812L158.69 67.8437C158.722 67.6875 160.378 68.7812 161.003 69.3125C161.378 69.6562 161.753 69.9062 161.815 69.8437C161.878 69.7812 161.94 69.2812 161.94 68.6875C161.94 67.8125 161.846 67.5625 161.315 67.0937C160.69 66.5312 160.69 66.5312 160.44 66.9375C160.128 67.4687 159.784 67.4687 159.784 66.9375C159.784 66.5625 158.597 65.0937 158.315 65.0937C158.222 65.0937 157.972 65.4062 157.753 65.8125C157.534 66.2187 157.284 66.5312 157.222 66.5312C156.909 66.5312 155.253 64.6562 155.253 64.3437C155.253 64.0937 155.378 64.1562 155.659 64.5937C155.939 65.0042 156.264 65.3816 156.628 65.7187C157.253 66.2812 157.503 66.1562 157.753 65.0625C157.847 64.75 157.972 64.5 158.065 64.5C158.315 64.5 159.753 66.0312 159.94 66.5312L160.159 67.0312L160.315 66.4687C160.503 65.7812 160.721 65.7812 161.034 66.4062C161.159 66.6562 161.784 67.2187 162.409 67.5937L163.565 68.3437L163.784 67.5937C163.909 67.1875 164.096 66.9687 164.159 67.0937C164.284 67.25 163.971 68.5 163.752 68.75C163.752 68.7812 163.346 68.5625 162.94 68.2812L162.159 67.7187V68.7187C162.159 69.25 162.096 69.9062 162.034 70.1562C161.878 70.6562 161.503 70.7812 161.503 70.3437H161.534ZM155.753 62.4062C154.378 61.2812 154.191 61.0312 154.191 60.4687L154.222 59.9062L154.316 60.4375C154.378 60.75 154.753 61.25 155.191 61.625L156.003 62.25L156.472 61.6875C156.753 61.375 156.972 61 156.972 60.875C156.972 60.5 157.034 60.5312 157.972 61.3437C158.784 62.0625 158.815 62.0625 158.909 61.5937C159.003 61.3437 158.972 60.8437 158.909 60.5C158.597 59.5625 158.659 59.4375 159.065 60L159.815 60.875C160.128 61.2187 160.159 61.2187 160.284 60.7812C160.378 60.5 160.44 60.0312 160.44 59.7187V59.125L161.159 59.9687C161.878 60.7812 161.94 60.8125 162.128 60.4062C162.284 60.1875 162.378 59.6562 162.378 59.25C162.378 58.6875 162.44 58.5625 162.565 58.75C162.815 59.125 162.659 60.0625 162.221 60.875L161.909 61.5L161.503 60.8437C160.971 60.0312 160.784 60.0312 160.471 60.9062C160.159 61.75 159.94 61.8125 159.628 61.1562C159.44 60.75 159.378 60.8125 159.253 61.6875L159.096 62.625L158.159 61.9062L157.222 61.1875L156.753 61.6562C156.534 61.9375 156.347 62.2812 156.347 62.4062C156.347 62.7187 156.097 62.7187 155.753 62.4062ZM167.94 58.1562C167.471 57.7187 167.127 57.2812 167.19 57.2187C167.283 57.125 167.346 57.0937 167.377 57.1562C167.68 57.4786 167.992 57.7912 168.315 58.0937C169.377 59.2187 169.158 59.25 167.971 58.1562H167.94ZM151.691 56.4687C151.253 55.8437 151.285 55.4687 151.847 54.7812C152.222 54.3125 152.409 54.25 153.097 54.3437C153.566 54.375 154.534 54.7812 155.253 55.2187C156.292 55.8393 157.48 56.1635 158.69 56.1562L158.159 55.2812C157.472 54.25 157.472 54.125 158.284 54.75C159.096 55.4062 160.065 55.5937 162.253 55.5312L163.315 55.5L162.69 54.875C161.846 54.0312 162.096 53.9375 163.065 54.7812C163.94 55.5625 163.909 55.625 162.003 55.8125C161.208 55.8928 160.405 55.84 159.628 55.6562C158.565 55.3437 158.503 55.375 158.722 55.7187C158.847 55.9375 159.034 56.0937 159.128 56.0937C159.253 56.0937 159.346 56.2187 159.346 56.3437C159.346 56.75 157.034 56.375 155.909 55.8437C153.409 54.5625 153.097 54.4375 152.472 54.625C152.306 54.689 152.153 54.7856 152.025 54.909C151.896 55.0324 151.793 55.1802 151.722 55.3437C151.316 56.375 152.784 57.1875 153.378 56.2812C153.566 56 153.534 55.8437 153.222 55.5C152.784 55.0625 152.847 55 153.409 55.1875C153.816 55.3437 153.847 56.3125 153.472 56.6875C153.066 57.0937 152.066 57 151.691 56.4687Z" fill="black" stroke="black" stroke-width="1.2"/>
<path d="M161.659 53.9374C161.346 53.6249 161.596 53.5624 163.002 53.5311C164.752 53.4999 165.815 53.2186 167.065 52.4061C168.065 51.7811 168.346 51.9061 167.377 52.5624C166.533 53.1874 165.19 53.6249 163.846 53.7499L162.252 53.9686C162.002 54.0311 161.721 53.9999 161.627 53.9374H161.659Z" fill="black" stroke="black" stroke-width="1.2"/>
<path d="M146.378 106.187L147.097 105.75L147.41 106.187C147.816 106.75 148.972 106.719 149.722 106.187L150.316 105.719L150.816 106.156C151.441 106.75 152.628 106.75 153.409 106.156C153.94 105.781 154.034 105.75 154.347 106.062C154.565 106.25 155.19 106.437 155.722 106.531C156.721 106.656 156.721 106.656 157.284 105.781C157.784 105.062 157.846 104.781 157.753 104.062C157.665 103.513 157.603 102.961 157.565 102.406C157.503 101.594 157.534 101.594 158.69 101.156C159.264 100.98 159.827 100.771 160.377 100.531C160.846 100.25 162.159 98.7187 162.159 98.4062C162.159 98.3437 161.659 98.2187 161.034 98.1562C158.534 97.8437 158.128 96.5312 159.752 94.0937C162.346 90.0312 163.94 86.125 163.94 83.6562C163.94 82.5312 164.033 82.1562 164.158 82.4062C164.752 83.375 163.69 87.5312 162.127 90.5312L161.502 91.7187L162.096 91.5937C162.409 91.5 164.408 90.6562 166.471 89.7187C172.158 87.1562 174.095 86.6562 177.782 86.8125C180.876 86.9375 182.157 87.5312 184.344 89.8125C185.501 91.0625 186.626 91.9062 188.657 93.1875C192.969 95.875 193.156 96.1249 193.375 99.3124C193.594 102.531 193.469 102.719 191.031 103.25C188.938 103.719 187.625 104.687 187.282 106.062C187.094 106.75 187.5 106.781 188.532 106.094L189.313 105.594L189.657 106.094C190.125 106.75 191.063 106.75 191.844 106.094L192.469 105.625L193.094 106.094C194.031 106.875 195.281 106.687 195.656 105.719C195.719 105.562 195.906 105.594 196.281 105.937C197 106.562 198.781 106.812 198.968 106.312C199.031 106.125 198.906 105.687 198.656 105.312C197.625 103.75 197.281 103.031 197.281 102.187C197.281 101 197.594 100.406 198.968 99.4687C200.593 98.2812 201.093 96.7812 199.843 96.7812C199.093 96.7812 198.312 96.0937 197.812 95C196.812 92.75 197.031 90.25 198.531 86.0625C199.681 83.5986 200.258 80.9062 200.218 78.1875C200.218 75.875 200.156 75.5 199.656 74.2187C199.265 73.3279 198.783 72.4797 198.218 71.6875L197.344 70.5312L198.437 69.5937C201.812 66.8125 201.125 62.25 197.062 60.5C195.812 59.9375 195.5 59.9062 193.313 59.9062C192.063 59.9062 190.032 60.0937 188.938 60.3125C187.47 60.5448 185.987 60.6701 184.501 60.6875C182.376 60.6875 182.001 60.625 181.188 60.1875C180.345 59.75 180.189 59.5312 180.032 58.4687C180.017 58.3686 179.978 58.2736 179.918 58.1919C179.858 58.1103 179.78 58.0444 179.689 58C179.376 57.9062 178.064 59.0625 177.876 59.5625C177.751 59.8437 177.689 59.8124 177.407 59.4687C177.142 59.1281 176.932 58.7487 176.783 58.3437C176.47 57.3125 176.876 56.5625 178.095 55.9687L179.032 55.5312L178.47 55.1875C177.345 54.4687 175.408 54.9687 174.72 56.125C174.501 56.4375 174.283 56.75 174.22 56.75C174.158 56.75 173.783 56.4375 173.408 56.0312C171.939 54.5937 172.439 52.4687 174.408 51.8437C175.439 51.5 176.376 51.75 176.564 52.4687C176.876 53.5 177.751 52.125 177.595 50.8437C177.501 50 177.501 49.9687 178.095 49.9687C178.907 49.9687 180.595 51.0312 181.157 51.8437C181.782 52.8125 181.72 54.3437 181.032 55.4687L180.501 56.3437L181.22 56.2187C182.22 56 183.22 55.375 183.72 54.5937C183.983 54.0961 184.131 53.5456 184.153 52.983C184.174 52.4203 184.069 51.8601 183.844 51.3437C183.376 50.5 183.438 50.375 184.126 50.6562C185.251 51.125 185.876 51.6562 186.313 52.5625C186.751 53.375 186.782 53.5625 186.563 54.4375C186.413 54.9702 186.181 55.4763 185.876 55.9375C185.501 56.4375 185.469 56.5312 185.782 56.5312C186.344 56.5312 187.469 56 187.875 55.5937C188.094 55.3437 188.407 54.8125 188.563 54.3437L188.875 53.5625L189.188 54.1875C189.657 55.0312 190.594 55.8125 191.719 56.3125C192.938 56.8125 193.438 56.8437 192.813 56.375C192.375 56.0625 191.563 53.7187 191.844 53.5C193.193 54.2552 194.424 55.2026 195.5 56.3125C197.281 57.9062 198.406 58.4375 200.031 58.4375C202.124 58.4375 203.343 56.625 202.406 54.9062C201.874 53.9062 200.656 53.75 199.906 54.5937C199.593 55 199.5 55.3125 199.593 55.75C199.718 56.25 199.687 56.3125 199.218 56.3125C198.593 56.3125 197.406 55.5312 195.281 53.75C192.324 51.2044 188.924 49.2236 185.251 47.9062C182.762 47.331 180.193 47.1935 177.657 47.5C175.658 47.875 173.283 49.0312 171.97 50.25C169.689 52.4375 169.658 55.3437 171.877 58L172.502 58.75L172.095 59.4375C171.79 59.9299 171.638 60.5024 171.661 61.0816C171.683 61.6607 171.878 62.2199 172.22 62.6875C172.533 63.125 172.845 63.4687 172.939 63.4687C173.002 63.4687 173.064 63.1875 173.095 62.8437C173.158 62 173.533 61.4375 174.158 61.2187C174.72 61 175.095 61.125 177.657 62.1562C180.376 63.2187 184.844 63.2812 189.594 62.3437C191.653 61.8682 193.795 61.8897 195.844 62.4062C198.093 63.3437 198.593 65.75 196.969 67.5625C196.25 68.375 195.594 68.6875 193.313 69.3125C191.327 69.8362 189.262 69.9951 187.219 69.7812C183.845 69.75 182.626 69.8125 181.282 70.0937C179.751 70.4062 178.845 70.4375 174.47 70.3437L169.377 70.2187L169.939 70.6562C170.24 70.9237 170.565 71.1642 170.908 71.375C171.314 71.5937 171.283 71.625 170.72 71.8437C170.408 71.9687 169.658 72.0625 169.064 72.0625H168.033L167.908 72.9375C167.824 73.3499 167.824 73.775 167.908 74.1875C168.033 74.5 167.971 74.5625 167.658 74.4375C167.439 74.3437 166.846 74.1875 166.315 74.0937C165.779 73.9788 165.255 73.8113 164.752 73.5937C164.158 73.2812 164.096 73.2812 163.877 73.6875C163.69 74 161.94 75.3125 161.69 75.3125C161.577 74.5017 161.345 73.712 161.002 72.9687C160.69 72.3125 160.409 71.5625 160.315 71.3437C160.221 71 160.159 70.9687 160.002 71.25C159.909 71.4062 159.784 71.875 159.69 72.25C159.581 72.7561 159.391 73.2414 159.128 73.6875L158.659 74.375L158.346 73.7812C158.034 73.1562 157.534 72.4687 157.346 72.4687C157.284 72.4687 157.19 72.6562 157.128 72.9375C156.971 73.4375 155.753 74.9062 155.44 74.9062C155.347 74.9062 155.253 74.5 155.253 73.9687C155.253 73.5 155.159 73.0625 155.034 73.0625C154.909 73.0625 154.815 73.2187 154.815 73.375C154.815 73.75 153.784 74.9375 153.409 74.9375C153.284 74.9375 153.034 75.0625 152.878 75.25C152.503 75.6562 152.191 75.5937 152.347 75.125C152.391 74.7247 152.348 74.3198 152.222 73.9375L151.909 72.9375C151.847 72.7812 151.472 72.8437 150.659 73.0937C149.409 73.5 148.972 73.4062 149.628 72.9062C149.878 72.7187 150.253 72.0625 150.441 71.4687C150.659 70.8437 150.972 70.3125 151.128 70.25C151.347 70.1875 151.347 70.25 151.066 70.625C150.885 70.8627 150.767 71.1421 150.722 71.4375C150.722 71.5937 150.566 72 150.409 72.3437C150.222 72.6562 150.097 72.9687 150.128 73C150.159 73.0312 150.659 72.8437 151.222 72.5937L152.222 72.0937V72.5312C152.222 72.7812 152.347 73.4062 152.503 73.9375L152.784 74.875L153.472 74.5625C154.159 74.25 154.815 73.125 154.815 72.2187C154.815 71.7812 155.065 71.8437 155.19 72.3125C155.19 72.4375 155.378 72.9687 155.503 73.4687L155.815 74.3437L156.284 73.7812C156.565 73.4687 156.878 72.8437 157.003 72.4375C157.253 71.6875 157.628 71.3437 157.628 71.9062C157.628 72.2812 158.69 73.7187 158.878 73.5937C159.003 73.5312 159.19 73 159.346 72.4062C159.659 71.1562 160.127 70.3437 160.44 70.5312C160.565 70.5937 160.596 70.7187 160.534 70.8437C160.471 70.9062 160.721 71.7187 161.096 72.5937C161.368 73.2496 161.639 73.9058 161.909 74.5625C162.034 74.875 162.159 74.875 162.94 74.1562C163.408 73.7187 163.877 73.25 163.908 73.0937C164.002 72.8437 164.096 72.875 164.533 73.1562C165.455 73.6429 166.464 73.9404 167.502 74.0312C167.564 73.9687 167.627 73.4062 167.627 72.7812L167.658 71.625L168.283 71.75C168.596 71.8437 169.314 71.8437 169.846 71.75L170.783 71.625L169.939 71C169.471 70.6875 169.002 70.2812 168.877 70.0937C168.783 69.9062 168.346 69.7187 167.877 69.6875C166.596 69.5625 164.315 68.3125 164.315 67.6875C164.315 67.5625 164.627 67.7812 165.002 68.125C165.877 68.9062 167.064 69.375 168.127 69.375H168.877L168.408 68.75C168.074 68.2654 167.86 67.7084 167.783 67.1249C167.721 66.1874 167.627 66.0624 166.658 65.4062C166.097 65.0082 165.573 64.5583 165.096 64.0625L164.565 63.4687L164.283 64.1875C164.127 64.5937 163.971 64.9062 163.877 64.9062C163.815 64.9062 163.502 64.6562 163.252 64.375C163.076 64.1713 162.865 64.0018 162.627 63.875C162.534 63.875 162.315 64.25 162.065 64.7187L161.627 65.5624L161.315 65.0937C161.037 64.7105 160.723 64.3547 160.377 64.0312C160.002 63.7187 159.846 63.4687 159.971 63.4687C160.096 63.4687 160.502 63.7812 160.909 64.1875L161.596 64.9062L161.909 64.375C162.089 64.0068 162.144 63.5897 162.065 63.1875C161.94 62.625 161.971 62.5937 162.159 62.9687C162.428 63.3214 162.743 63.6367 163.096 63.9062L163.783 64.4687L164.252 63.625C164.721 62.75 164.721 62.75 164.908 63.2812C165.221 63.9375 167.252 65.625 168.971 66.5937C169.283 66.75 169.158 66.25 168.658 65.0312C168.508 64.6307 168.424 64.2086 168.408 63.7812C168.408 63.2187 168.252 62.9687 167.533 62.4062C167.086 62.1205 166.712 61.7344 166.441 61.2787C166.17 60.823 166.009 60.3102 165.971 59.7812C165.877 59.2499 165.69 58.6875 165.533 58.5C165.346 58.1875 165.283 58.3749 165.346 59.3124C165.408 59.9687 165.315 60.7812 165.158 61.125L164.908 61.75L164.721 61.2187C164.596 60.9375 164.096 60.4375 163.627 60.125C163.158 59.8125 162.815 59.5 162.877 59.4375C162.94 59.375 163.44 59.6562 163.971 60.0625C164.815 60.7187 164.971 60.7812 165.096 60.5C165.221 60.1875 165.096 58.7499 164.846 57.7499C164.721 57.2499 164.721 57.25 165.346 57.875C165.783 58.3125 166.033 58.875 166.252 59.8125C166.502 61 166.627 61.2187 167.721 62.1875C168.377 62.7812 168.971 63.2187 169.002 63.1875C169.064 63.125 169.127 61.625 169.189 59.8125C169.314 56.3437 169.189 55.5 168.346 54.4375L167.908 53.875L168.596 53.1562C169.366 52.4195 169.88 51.456 170.064 50.4062L170.189 49.5625L169.439 50.2812C168.814 50.875 168.502 51 167.783 51C167.064 51 166.783 50.875 166.315 50.375C165.584 49.672 164.694 49.1572 163.721 48.875C163.346 48.75 163.221 48.8125 163.221 49.0625C163.221 49.25 163.034 49.75 162.784 50.2187L162.346 51.0312L161.409 50.0937C160.815 49.5625 160.159 49.0937 159.627 48.9687C158.346 48.6562 158.284 48.6562 158.284 49.625C158.284 51.0937 157.659 51.375 156.534 50.4062C155.659 49.6562 154.972 49.4687 153.315 49.6875L152.066 49.8125L152.284 50.375C152.472 50.8437 152.441 51.0625 152.034 51.5937C151.378 52.4687 150.534 52.8437 149.222 52.8437C148.597 52.8437 147.847 52.9687 147.535 53.125C147.222 53.2812 146.41 53.4375 145.754 53.5C145.129 53.5625 144.41 53.6875 144.191 53.75C143.879 53.875 143.879 53.75 143.972 53.0625C144.129 52 143.347 51.1875 142.191 51.1875C140.66 51.1875 139.973 52.5625 140.566 54.375C140.688 54.766 140.792 55.1622 140.879 55.5625C141.289 56.3439 141.84 57.0431 142.504 57.625C143.316 58.4375 144.066 59.2812 144.191 59.5C144.443 59.8258 144.763 60.0925 145.129 60.2812L145.816 60.6562L145.722 59.9062C145.629 59.0937 145.785 58.9687 146.222 59.5625C146.378 59.75 146.785 60.0937 147.097 60.2812C147.628 60.5937 147.722 60.5937 147.722 60.3437C147.722 60.1562 147.816 59.75 147.941 59.4375L148.16 58.875L148.566 59.6562C148.785 60.0937 149.503 61.0625 150.159 61.8437C151.441 63.3125 152.253 64.9687 151.847 65.3437C151.659 65.5 151.222 65.5 150.284 65.3125C149.597 65.1875 148.722 65.0937 148.347 65.1562C147.628 65.25 147.566 65.1562 148.035 64.5937C148.503 63.9687 148.41 63.875 147.472 63.875C146.378 63.875 143.66 63.3437 142.597 62.9375C141.598 62.5312 141.348 62.625 141.035 63.5937L140.504 65.3437L140.191 66.2812L141.316 66.1874C141.896 66.1268 142.471 66.0223 143.035 65.8749C143.256 65.8012 143.489 65.7694 143.722 65.7812C143.785 65.8125 143.629 66.1875 143.41 66.625L142.972 67.375L143.66 67.25C144.035 67.1562 144.597 66.9687 144.91 66.8124C145.472 66.5624 145.535 66.5624 145.972 67.2812C146.503 68.1249 146.91 68.0937 147.003 67.1875C147.097 66.25 147.41 66.375 148.003 67.625C148.566 68.8125 149.128 69.25 149.253 68.5625C149.285 68.3125 149.566 67.9375 149.909 67.6875C150.597 67.2187 151.097 67.375 151.378 68.0937C151.691 68.875 151.003 69.6562 149.066 70.8437C147.272 71.8344 145.728 73.2223 144.553 74.9014C143.377 76.5805 142.602 78.5062 142.285 80.5312C141.691 84.2187 143.535 88.0312 147.16 90.8125C148.91 92.125 151.691 93.5 151.503 93C150.753 90.7187 150.784 86.4375 151.534 85.7187C151.659 85.5937 151.628 86.0312 151.441 86.6875C150.816 89.1562 151.128 91.0937 152.691 95.6562C154.065 99.7812 153.878 101.562 151.878 102.719C151.253 103.094 150.847 103.156 149.128 103.125C147.253 103.125 147.035 103.125 146.441 103.625C145.723 104.358 145.253 105.298 145.097 106.312C145.097 106.719 145.535 106.656 146.347 106.187H146.378Z" fill="#FFB700"/>
<path d="M176.688 106.094L177.469 105.594L178.001 106.094C178.688 106.75 179.532 106.719 180.188 106.063C180.501 105.75 180.751 105.563 180.782 105.594L181.063 106.094C181.219 106.375 181.563 106.5 182.188 106.563C182.907 106.594 183.125 106.563 183.438 106.125L183.75 105.594L184.531 106.094C186.656 107.469 187.781 106.031 186.813 103.188C186.344 101.75 186.625 100.938 188.156 99.125C188.812 98.3438 189.344 97.5 189.344 97.25C189.344 96.9063 189.219 96.8438 188.344 96.875C187.531 96.875 187.281 96.7813 186.844 96.3125C186.125 95.5313 186.188 94.625 186.969 93.625L187.594 92.8438L186.469 92.0938C185.571 91.4305 184.734 90.6879 183.969 89.875C183.287 89.0699 182.453 88.4072 181.515 87.9246C180.576 87.442 179.552 87.1491 178.501 87.0625L177.032 86.9063V88.0313C177.032 89.4375 177.719 90.8125 179.532 93.125C181.594 95.75 181.719 96.1563 181.813 99.5938L181.907 102.5L181.282 103.063C180.751 103.563 180.532 103.656 178.782 103.75C177.126 103.844 176.751 103.938 176.282 104.375C175.734 104.775 175.355 105.366 175.22 106.031C175.126 106.5 175.157 106.594 175.501 106.594C175.72 106.594 176.251 106.375 176.688 106.094ZM132.254 98.5938C132.443 98.3162 132.551 97.9917 132.566 97.6563C132.566 97.3438 132.754 97.2188 133.566 97.0938L134.535 96.9688L133.91 96.4375C133.129 95.8125 133.035 95.3438 133.723 95.3438C134.41 95.3438 135.535 94.6563 135.723 94.125C135.816 93.875 135.723 93.5625 135.598 93.4063C135.223 92.9688 134.504 93.0313 134.379 93.5313C134.223 94.0313 134.004 94.0313 133.441 93.5313C132.66 92.75 132.629 91.1563 133.441 90.2188C133.785 89.7813 133.785 89.7813 133.316 89.3125C132.816 88.8125 132.442 87.875 132.691 87.625C132.754 87.5625 133.16 87.625 133.566 87.7813C134.191 87.9688 134.41 87.9688 134.66 87.7813C135.379 87.1875 134.598 86.4375 133.41 86.625C132.91 86.6875 132.723 86.625 132.66 86.375C132.598 86.1875 132.192 85.9375 131.723 85.8125C130.879 85.5938 130.879 85.5938 130.879 86.1875C130.879 86.8125 130.504 86.9375 129.817 86.5313C129.254 86.2188 128.723 86.4688 128.723 87.0625C128.723 87.625 129.254 87.875 130.285 87.8125C131.035 87.7813 131.067 88.3438 130.348 89.1563L129.817 89.7813L130.223 90.375C130.848 91.25 130.785 92.7188 130.129 93.4688L129.598 94.0313L129.254 93.5625C128.754 92.9375 128.098 92.9688 127.911 93.6563C127.817 94.0938 127.911 94.2813 128.473 94.7813C128.848 95.0938 129.41 95.3438 129.692 95.3438C130.41 95.3438 130.379 95.9375 129.629 96.5L129.004 96.9688L129.942 97.0938C130.442 97.1875 130.879 97.3125 130.879 97.4063C130.879 97.8125 131.504 99.0313 131.692 99.0313C131.817 99.0313 132.067 98.8125 132.254 98.5625V98.5938Z" fill="#FFB700"/>
<path d="M144.191 93.4062C145.035 93.0937 146.847 91.5312 146.847 91.1875C146.847 91.0625 146.347 90.5 145.723 89.9375C144.473 88.8125 143.066 86.8437 142.691 85.7187C142.504 85.0937 141.598 84.0938 139.036 81.5938L135.629 78.3125L134.661 78.5625C134.098 78.6875 133.442 78.8125 133.192 78.8125C132.723 78.8125 132.723 78.8125 133.348 79.3125L133.973 79.8125L134.911 79.3125C135.754 78.8125 135.786 78.8125 135.879 79.2187C135.942 79.4375 135.817 79.8437 135.567 80.125C135.348 80.4062 135.223 80.75 135.255 80.8438C135.348 80.9375 135.13 81.1562 134.786 81.3437C134.161 81.6562 133.692 82.6875 134.192 82.6875C134.661 82.6875 135.661 81.4375 135.536 81.0312C135.473 80.8125 135.536 80.5938 135.598 80.5313C136.004 80.3125 135.973 81.2813 135.598 81.7813C135.348 82.0313 135.223 82.3437 135.286 82.4687C135.348 82.5625 135.13 82.7812 134.786 82.9687C134.161 83.2812 133.692 84.3125 134.192 84.3125C134.692 84.3125 135.661 83.125 135.567 82.6875C135.505 82.4688 135.505 82.2187 135.598 82.1562C135.879 82.0312 136.004 82.7812 135.786 83.1562C135.728 83.2617 135.698 83.3799 135.698 83.5C135.698 83.6201 135.728 83.7383 135.786 83.8437C136.004 84.25 135.786 85 135.38 85.25C135.223 85.3437 135.317 85.5625 135.754 85.875C136.379 86.3125 136.379 86.375 136.379 88.375C136.379 90.0625 136.442 90.5 136.754 90.7812C137.067 91.0937 137.129 91.0937 137.129 90.7812C137.129 90.4687 137.754 90.0312 138.223 90.0312C138.379 90.0312 139.285 90.8125 140.254 91.75C141.223 92.6875 142.254 93.5312 142.535 93.5625L143.223 93.6875C143.316 93.6875 143.754 93.5937 144.191 93.375V93.4062ZM133.786 85.25C133.786 84.7187 132.661 84.125 131.317 84C130.224 83.8437 130.224 83.875 130.224 84.4062C130.224 84.8438 130.38 85.0312 131.161 85.3438C132.348 85.875 133.786 85.8125 133.786 85.25Z" fill="#FFB700"/>
<path d="M135.004 85.1876C135.566 84.6876 135.816 84.1251 135.473 84.1251C135.098 84.1251 134.098 85.0001 134.098 85.3751C134.098 85.8751 134.285 85.8439 135.035 85.1876H135.004ZM133.848 83.5939C133.879 83.2814 133.692 83.0939 133.129 82.8126C131.879 82.2814 130.442 82.0001 130.098 82.2813C129.442 82.8126 129.879 83.5001 130.91 83.6251C131.348 83.6564 131.91 83.7814 132.192 83.9064C133.004 84.2189 133.754 84.0626 133.848 83.5939ZM133.848 81.9376C133.91 81.5314 133.629 81.3751 131.348 80.5626C129.629 79.9376 128.879 80.2501 129.442 81.2814C129.629 81.6251 129.942 81.7814 130.66 81.9064C131.192 81.9689 131.91 82.1251 132.254 82.2501C133.192 82.5626 133.754 82.4376 133.816 81.9376H133.848ZM134.973 80.4063C135.316 80.0626 135.598 79.6563 135.598 79.4688C135.598 79.0001 134.254 79.8751 134.066 80.5001C133.879 81.2189 134.223 81.1876 135.004 80.4063H134.973ZM133.848 80.3126C133.91 79.8126 133.098 79.3751 131.473 79.0313C130.254 78.7501 129.723 78.9063 129.817 79.4688C129.879 79.7813 130.285 80.0001 131.379 80.3439C133.223 80.9064 133.754 80.9063 133.848 80.3126ZM135.41 78.0001C137.535 77.0626 137.691 74.7189 135.723 74.0939C134.91 73.8439 134.41 74.0001 134.098 74.5313C133.848 74.9688 134.004 75.7188 134.316 75.7188C134.441 75.7188 134.535 75.8751 134.535 76.0313C134.535 76.8751 131.348 77.2188 130.036 76.5626C129.567 76.3438 129.411 75.7188 129.754 75.7188C130.067 75.7188 130.254 75.0938 130.098 74.6876C129.911 74.0626 129.286 73.8751 128.442 74.1251C126.473 74.6251 126.536 76.9376 128.536 77.8751C130.748 78.6872 133.17 78.7313 135.41 78.0001Z" fill="#FFB700"/>
<path d="M134.13 76.1875C134.255 76.0625 134.192 75.875 134.005 75.75C133.567 75.4062 133.598 74.875 134.067 74.2812C134.442 73.8437 134.473 73.1562 134.598 66.4375C134.817 54.8437 135.692 46.125 136.817 44C137.286 43.1875 137.223 43.1875 136.036 44C134.478 45.0854 133.22 46.5475 132.38 48.25C130.442 51.8437 129.786 56.6875 129.786 67.0625C129.786 72.9375 129.817 73.7187 130.161 74.25C130.474 74.8125 130.474 75 130.286 75.5625C130.13 75.9062 130.067 76.2812 130.13 76.3437C130.567 76.75 133.692 76.6562 134.13 76.1875ZM151.66 65.125C151.753 65.0312 151.597 64.5 151.347 64C150.972 63.1875 150.816 63.0625 150.285 63.0625C147.786 62.8453 145.349 62.1672 143.098 61.0625C141.504 60.3437 140.91 60.1875 140.754 60.375C140.254 60.8438 141.067 61.9375 142.316 62.5312C144.156 63.1941 146.082 63.5837 148.035 63.6875C148.879 63.6875 148.91 63.6875 148.41 64.4062L148.097 64.9062H149.035L150.597 65.0937C151.535 65.3125 151.535 65.3125 151.66 65.125Z" fill="#FFB700"/>
<path d="M161.534 70.3437C161.534 70.0312 160.628 69.25 159.753 68.7187C159.034 68.3125 158.909 68.2812 158.909 68.625C158.909 69.125 158.472 70.4062 158.284 70.4062C158.19 70.4062 158.034 70.1562 157.972 69.875C157.878 69.5625 157.534 68.9375 157.19 68.5312L156.565 67.75L156.128 68.4687C155.69 69.1562 154.909 69.8125 154.566 69.8125C154.503 69.8125 154.472 69.4375 154.566 69.0312C154.597 68.5312 154.566 68.1562 154.409 68.0937C154.284 68 154.159 68.0312 154.159 68.1562C154.159 68.4062 153.097 69.5937 152.909 69.5937C152.784 69.5937 152.659 69.2812 152.597 68.8437L152.347 67.3437C152.284 66.9687 152.441 67.2187 152.659 67.9687L153.159 69.25L153.659 68.4687C153.886 68.1459 154.055 67.7865 154.159 67.4062C154.159 67.25 154.253 67.1875 154.378 67.25C154.503 67.3125 154.659 67.8437 154.722 68.4062L154.878 69.4687L155.441 68.8437C155.735 68.5302 156.006 68.1961 156.253 67.8437C156.472 67.4687 156.503 67.4687 156.972 67.8437C157.222 68.0937 157.628 68.625 157.878 69.0625C158.128 69.5 158.347 69.8125 158.378 69.7812L158.565 68.7812L158.69 67.8437C158.722 67.6875 160.378 68.7812 161.003 69.3125C161.378 69.6562 161.753 69.9062 161.815 69.8437C161.878 69.7812 161.94 69.2812 161.94 68.6875C161.94 67.8125 161.846 67.5625 161.315 67.0937C160.69 66.5312 160.69 66.5312 160.44 66.9375C160.128 67.4687 159.784 67.4687 159.784 66.9375C159.784 66.5625 158.597 65.0937 158.315 65.0937C158.222 65.0937 157.972 65.4062 157.753 65.8125C157.534 66.2187 157.284 66.5312 157.222 66.5312C156.909 66.5312 155.253 64.6562 155.253 64.3437C155.253 64.0937 155.378 64.1562 155.659 64.5937C155.939 65.0042 156.264 65.3816 156.628 65.7187C157.253 66.2812 157.503 66.1562 157.753 65.0625C157.847 64.75 157.972 64.5 158.065 64.5C158.315 64.5 159.753 66.0312 159.94 66.5312L160.159 67.0312L160.315 66.4687C160.503 65.7812 160.721 65.7812 161.034 66.4062C161.159 66.6562 161.784 67.2187 162.409 67.5937L163.565 68.3437L163.784 67.5937C163.909 67.1875 164.096 66.9687 164.159 67.0937C164.284 67.25 163.971 68.5 163.752 68.75C163.752 68.7812 163.346 68.5625 162.94 68.2812L162.159 67.7187V68.7187C162.159 69.25 162.096 69.9062 162.034 70.1562C161.878 70.6562 161.503 70.7812 161.503 70.3437H161.534ZM155.753 62.4062C154.378 61.2812 154.191 61.0312 154.191 60.4687L154.222 59.9062L154.316 60.4375C154.378 60.75 154.753 61.25 155.191 61.625L156.003 62.25L156.472 61.6875C156.753 61.375 156.972 61 156.972 60.875C156.972 60.5 157.034 60.5312 157.972 61.3437C158.784 62.0625 158.815 62.0625 158.909 61.5937C159.003 61.3437 158.972 60.8437 158.909 60.5C158.597 59.5625 158.659 59.4375 159.065 60L159.815 60.875C160.128 61.2187 160.159 61.2187 160.284 60.7812C160.378 60.5 160.44 60.0312 160.44 59.7187V59.125L161.159 59.9687C161.878 60.7812 161.94 60.8125 162.128 60.4062C162.284 60.1875 162.378 59.6562 162.378 59.25C162.378 58.6875 162.44 58.5625 162.565 58.75C162.815 59.125 162.659 60.0625 162.221 60.875L161.909 61.5L161.503 60.8437C160.971 60.0312 160.784 60.0312 160.471 60.9062C160.159 61.75 159.94 61.8125 159.628 61.1562C159.44 60.75 159.378 60.8125 159.253 61.6875L159.096 62.625L158.159 61.9062L157.222 61.1875L156.753 61.6562C156.534 61.9375 156.347 62.2812 156.347 62.4062C156.347 62.7187 156.097 62.7187 155.753 62.4062ZM167.94 58.1562C167.471 57.7187 167.127 57.2812 167.19 57.2187C167.283 57.125 167.346 57.0937 167.377 57.1562C167.68 57.4786 167.992 57.7912 168.315 58.0937C169.377 59.2187 169.158 59.25 167.971 58.1562H167.94ZM151.691 56.4687C151.253 55.8437 151.285 55.4687 151.847 54.7812C152.222 54.3125 152.409 54.25 153.097 54.3437C153.566 54.375 154.534 54.7812 155.253 55.2187C156.292 55.8393 157.48 56.1635 158.69 56.1562L158.159 55.2812C157.472 54.25 157.472 54.125 158.284 54.75C159.096 55.4062 160.065 55.5937 162.253 55.5312L163.315 55.5L162.69 54.875C161.846 54.0312 162.096 53.9375 163.065 54.7812C163.94 55.5625 163.909 55.625 162.003 55.8125C161.208 55.8928 160.405 55.84 159.628 55.6562C158.565 55.3437 158.503 55.375 158.722 55.7187C158.847 55.9375 159.034 56.0937 159.128 56.0937C159.253 56.0937 159.346 56.2187 159.346 56.3437C159.346 56.75 157.034 56.375 155.909 55.8437C153.409 54.5625 153.097 54.4375 152.472 54.625C152.306 54.689 152.153 54.7856 152.025 54.909C151.896 55.0324 151.793 55.1802 151.722 55.3437C151.316 56.375 152.784 57.1875 153.378 56.2812C153.566 56 153.534 55.8437 153.222 55.5C152.784 55.0625 152.847 55 153.409 55.1875C153.816 55.3437 153.847 56.3125 153.472 56.6875C153.066 57.0937 152.066 57 151.691 56.4687Z" fill="black"/>
<path d="M161.659 53.9374C161.346 53.6249 161.596 53.5624 163.002 53.5311C164.752 53.4999 165.815 53.2186 167.065 52.4061C168.065 51.7811 168.346 51.9061 167.377 52.5624C166.533 53.1874 165.19 53.6249 163.846 53.7499L162.252 53.9686C162.002 54.0311 161.721 53.9999 161.627 53.9374H161.659Z" fill="black"/>
</g>
<defs>
<clipPath id="clip0_1284_64624">
<rect width="250" height="150" fill="white"/>
</clipPath>
</defs>
</svg>
