<svg width="250" height="150" viewBox="0 0 250 150" fill="none" xmlns="http://www.w3.org/2000/svg">
<g clip-path="url(#clip0_1284_66756)">
<mask id="mask0_1284_66756" style="mask-type:luminance" maskUnits="userSpaceOnUse" x="0" y="0" width="250" height="150">
<path d="M0.0117188 0H249.987V150H0.0117188V0Z" fill="white"/>
</mask>
<g mask="url(#mask0_1284_66756)">
<path fill-rule="evenodd" clip-rule="evenodd" d="M-15.625 0H265.625V150H-15.625V0Z" fill="#3E5EB9"/>
<path fill-rule="evenodd" clip-rule="evenodd" d="M-15.625 26.7773H265.625V123.223H-15.625V26.7773Z" fill="#FFD900"/>
<path fill-rule="evenodd" clip-rule="evenodd" d="M-15.625 37.5H265.625V112.5H-15.625V37.5Z" fill="#B10C0C"/>
<path d="M214.441 73.3887H35.6992C34.7608 73.3887 34 74.1101 34 75C34 75.8899 34.7608 76.6113 35.6992 76.6113H214.441C215.379 76.6113 216.14 75.8899 216.14 75C216.14 74.1101 215.379 73.3887 214.441 73.3887Z" fill="#FFD900" stroke="black" stroke-width="0.5"/>
<path fill-rule="evenodd" clip-rule="evenodd" d="M196.376 57.855L187.268 61.0662L196.376 64.2774L205.485 61.0662L196.376 57.855Z" fill="white" stroke="black" stroke-width="0.5"/>
<path d="M190.311 59.9897H58.8687C58.184 59.9897 57.6289 60.4703 57.6289 61.0632C57.6289 61.656 58.184 62.1366 58.8687 62.1366H190.311C190.996 62.1366 191.551 61.656 191.551 61.0632C191.551 60.4703 190.996 59.9897 190.311 59.9897Z" fill="#FFD900" stroke="black" stroke-width="0.5"/>
<path d="M188.342 62.1366C188.871 62.1366 189.4 61.5923 189.4 61.0481C189.4 60.5038 188.871 59.9897 188.342 59.9897" stroke="black" stroke-width="0.5"/>
<path d="M187.284 62.1366C187.814 62.1366 188.343 61.5923 188.343 61.0481C188.343 60.5038 187.814 59.9897 187.284 59.9897" stroke="black" stroke-width="0.5"/>
<path d="M186.196 62.1669C186.725 62.1669 187.254 61.6226 187.254 61.0783C187.254 60.5341 186.725 60.02 186.196 60.02" stroke="black" stroke-width="0.5"/>
<path fill-rule="evenodd" clip-rule="evenodd" d="M187.792 64.271L178.684 67.4822L187.792 70.6934L196.901 67.4822L187.792 64.271Z" fill="white" stroke="black" stroke-width="0.5"/>
<path d="M181.727 66.4058H50.2847C49.6 66.4058 49.0449 66.8864 49.0449 67.4792C49.0449 68.072 49.6 68.5526 50.2847 68.5526H181.727C182.412 68.5526 182.967 68.072 182.967 67.4792C182.967 66.8864 182.412 66.4058 181.727 66.4058Z" fill="#FFD900" stroke="black" stroke-width="0.5"/>
<path d="M179.758 68.5526C180.287 68.5526 180.816 68.0083 180.816 67.4641C180.816 66.9198 180.287 66.4058 179.758 66.4058" stroke="black" stroke-width="0.5"/>
<path d="M178.7 68.5526C179.23 68.5526 179.759 68.0083 179.759 67.4641C179.759 66.9198 179.23 66.4058 178.7 66.4058" stroke="black" stroke-width="0.5"/>
<path d="M177.611 68.5829C178.14 68.5829 178.669 68.0386 178.669 67.4943C178.669 66.9501 178.14 66.436 177.611 66.436" stroke="black" stroke-width="0.5"/>
<path fill-rule="evenodd" clip-rule="evenodd" d="M203.309 73.7378C201.707 76.5393 204.562 72.8115 211.583 77.5109C212.865 78.3694 214.001 80.6739 214.001 82.278C213.681 82.0521 213.419 81.6002 213.069 81.2613C212.545 81.781 213.564 84.1081 213.71 85.2151C212.603 84.6051 212.719 84.3114 212.341 83.5432C212.428 84.447 212.166 86.9774 212.603 87.9263C211.729 87.7004 211.787 87 211.35 86.8418C211.641 87.9489 211.059 89.1237 211.234 90.3664C210.709 89.8693 210.185 89.4626 209.952 89.2593C209.923 89.8467 208.99 91.3831 208.961 91.9479C208.524 91.6768 208.408 91.2701 208.349 90.999C207.825 91.6768 205.931 94.162 205.815 94.885C204.358 93.5972 200.629 90.4793 200.134 88.8074C199.697 89.7563 199.085 90.0727 197.862 90.773C197.366 88.1296 195.531 85.1699 196.521 82.9106C195.851 83.3286 195.209 83.7735 194.599 84.2436C195.019 82.1166 196.012 80.082 197.513 78.2721C199.014 76.4621 200.989 74.9172 203.309 73.7378Z" fill="#3D5DA7" stroke="black" stroke-width="0.5"/>
<path fill-rule="evenodd" clip-rule="evenodd" d="M197.272 87.6562C197.946 86.3085 198.562 85.8984 199.001 85.0195C199.763 83.496 199.88 82.2655 200.554 82.4413C201.228 82.6171 201.228 83.2616 200.349 84.7558C199.47 86.2206 199.06 86.5722 197.272 87.6562ZM201.814 90.8788C201.726 89.8241 202.048 89.414 201.989 88.7402C201.901 87.5683 201.403 86.7773 202.019 86.7187C202.634 86.6601 202.927 87.0702 202.927 88.2421C202.927 89.414 202.751 89.707 201.814 90.8788ZM205.271 92.871C205.007 91.4062 205.212 90.8202 205.036 89.8827C204.743 88.2421 204.157 87.1874 204.743 87.0409C205.3 86.8945 205.622 87.4218 205.857 89.0624C206.062 90.703 205.944 91.1718 205.271 92.871ZM208.874 82.8222C208.024 82.207 207.526 82.1484 206.999 81.7382C206.032 81.0058 205.534 80.2441 205.241 80.6249C204.948 81.0058 205.153 81.4159 206.149 82.0898C207.175 82.7636 207.497 82.8222 208.874 82.8222ZM208.288 87.5976C207.849 86.6601 207.38 86.4257 207.087 85.8398C206.56 84.7851 206.56 83.8769 206.032 84.1112C205.446 84.3456 205.446 84.8144 206.032 85.8398C206.618 86.8359 206.911 87.0116 208.288 87.5976Z" fill="#A70000"/>
<path fill-rule="evenodd" clip-rule="evenodd" d="M41.8583 76.4429C41.7583 75.6127 41.9582 75.5205 41.4251 74.9055C42.1581 75.213 42.1914 76.0432 43.091 75.459C43.4241 75.2745 43.5574 75.2745 43.1576 74.3828C44.0905 74.3828 47.1556 75.459 47.622 75.4897C48.9214 75.5512 51.2536 74.1368 52.8528 75.8587C54.4186 77.4268 53.8856 79.0564 53.8856 81.2394C53.2859 80.9319 53.5524 80.8089 52.8861 80.0095C53.4191 81.9158 52.8861 85.3595 52.8861 87.3888C52.6195 86.8969 52.6529 87.0814 52.4196 86.5894C51.7533 88.4342 50.9537 88.8339 50.9537 90.9862C50.7205 90.1561 50.9537 90.3098 50.6872 89.8793C50.0208 91.263 45.6897 92.4621 47.3555 93.8765C45.8896 93.0155 45.2232 93.1078 44.5236 92.3084C44.2237 92.4928 43.9905 92.8618 43.724 93.3538C41.0587 92.1239 42.0582 89.5104 39.9592 87.7578C39.626 88.4957 39.7593 88.3727 39.3595 89.5719C38.9597 87.9115 38.8264 86.8354 38.36 85.6362C37.9602 86.3127 38.0268 86.036 37.2606 87.0814C36.9274 85.052 36.461 84.5601 36.6609 83.238C35.8613 83.7914 36.3943 83.5454 35.5947 84.2526C36.3277 79.0256 39.5594 75.213 41.8583 76.4429Z" fill="#3D5DA7" stroke="black" stroke-width="0.5"/>
<path fill-rule="evenodd" clip-rule="evenodd" d="M38.5996 84.9026C39.2734 83.2326 39.8887 82.7053 40.3574 81.6213C41.1192 79.7463 41.2363 78.2229 41.8809 78.4572C42.5547 78.6916 42.5254 79.4533 41.6465 81.3283C41.0508 82.8219 39.9801 84.0779 38.5996 84.9026ZM41.1778 89.092C41.4707 87.5979 41.8809 87.0412 42.0567 86.0744C42.3496 84.3752 42.2032 83.1154 42.8184 83.174C43.4043 83.2619 43.5508 83.8772 43.1407 85.5764C42.7305 87.2756 42.4668 87.6565 41.1778 89.092ZM44.2539 91.9924C44.3418 90.5276 44.6934 89.9709 44.7227 89.0627C44.8106 87.3928 44.5176 86.2209 45.0743 86.2209C45.6602 86.2209 45.8653 86.8069 45.6895 88.4475C45.5137 90.0881 45.3086 90.4983 44.2539 91.9631V91.9924ZM50.9044 82.5002C49.6153 81.2404 48.8536 81.0061 48.0333 80.1565C46.5977 78.7502 45.8946 77.4026 45.3965 77.9006C44.8692 78.3694 45.1915 79.0725 46.7149 80.4494C48.2384 81.7971 48.7657 81.9729 50.9044 82.5002ZM50.1134 87.3635C49.293 86.133 48.7071 85.7815 48.1798 84.9612C47.2423 83.5256 46.92 82.2951 46.4219 82.6174C45.836 82.9104 45.9825 83.5549 47.0079 84.9612C48.004 86.3381 48.4141 86.5725 50.1427 87.3635H50.1134Z" fill="#A70000"/>
<path fill-rule="evenodd" clip-rule="evenodd" d="M177.629 75.0047C166.925 85.7087 152.633 107.153 124.048 107.153C99.0518 107.153 81.1914 85.7268 70.4873 75.0047C81.1914 64.3007 99.0518 42.8745 124.048 42.8745C152.633 42.8745 166.905 64.2825 177.629 75.0047Z" fill="white" stroke="black" stroke-width="0.5"/>
<path fill-rule="evenodd" clip-rule="evenodd" d="M120.309 54.0234C123.18 57.2461 120.778 58.5352 123.825 58.7402C126.989 58.9746 125.172 62.1387 127.868 62.2559C129.743 62.3145 127.663 69.7852 129.479 72.2754C131.325 74.8242 132.848 73.0078 132.877 74.8828C132.907 76.7871 127.897 76.6113 127.809 82.5C127.663 85.9277 123.561 86.1621 123.356 88.3594C123.121 90.4102 131.413 91.582 131.325 93.4277C131.207 95.2734 122.33 94.9805 121.95 97.0605C121.774 98.9648 134.137 100.518 135.133 105.967C133.288 106.553 128.014 107.139 124.059 107.139C99.0686 107.139 81.1973 85.7227 70.4746 75C81.1973 64.2773 99.0686 42.8613 124.059 42.8613C124.059 42.8613 116.647 49.6289 120.309 54.0527V54.0234Z" fill="black"/>
<path fill-rule="evenodd" clip-rule="evenodd" d="M90.4844 63.5742H93.0918V72.1289H90.4844V63.5742ZM90.4844 77.8711H93.0918V86.4258H90.4844V77.8711ZM95.67 63.5742H98.2774V72.1289H95.67V63.5742ZM95.67 77.8711H98.2774V86.4258H95.67V77.8711ZM100.914 63.5742H103.492V72.1289H100.914V63.5742ZM100.914 77.8711H103.492V86.4258H100.914V77.8711ZM106.1 63.5742H108.707V72.1289H106.1V63.5742ZM106.1 77.8711H108.707V86.4258H106.1V77.8711ZM111.285 63.5742H113.893V72.1289H111.285V63.5742ZM111.285 77.8711H113.893V86.4258H111.285V77.8711ZM116.5 63.5742H119.078V72.1289H116.5V63.5742ZM116.5 77.8711H119.078V86.4258H116.5V77.8711Z" fill="white"/>
<path fill-rule="evenodd" clip-rule="evenodd" d="M129.771 63.5742H132.379V72.1289H129.771V63.5742ZM129.771 77.8711H132.379V86.4258H129.771V77.8711ZM134.957 63.5742H137.565V72.1289H134.957V63.5742ZM134.957 77.8711H137.565V86.4258H134.957V77.8711ZM140.172 63.5742H142.75V72.1289H140.172V63.5742ZM140.172 77.8711H142.75V86.4258H140.172V77.8711ZM145.358 63.5742H147.965V72.1289H145.328L145.358 63.5742ZM145.358 77.8711H147.965V86.4258H145.328L145.358 77.8711ZM150.543 63.5742H153.151V72.1289H150.543V63.5742ZM150.543 77.8711H153.151V86.4258H150.543V77.8711ZM155.758 63.5742H158.336V72.1289H155.758V63.5742ZM155.758 77.8711H158.336V86.4258H155.758V77.8711Z" fill="black"/>
<path fill-rule="evenodd" clip-rule="evenodd" d="M106.709 48.5698C105.244 51.4306 109.32 47.6239 115.715 52.4227C117.321 54.1604 118.328 56.2557 118.619 58.4673C117.26 58.1904 114.835 56.8523 114.835 56.8523C114.835 56.8523 117.66 59.667 117.66 62.9431C116.674 62.3201 116.168 62.4124 115.848 61.6511C115.848 62.6893 116.727 63.3814 116.727 65.0194C116.127 64.5297 115.476 64.0895 114.782 63.7044C115.715 65.3424 113.05 68.5262 114.382 69.5875C112.065 69.2414 109.667 67.7418 108.734 66.1269C108.228 66.4498 108.201 66.9805 108.148 67.5573C108.228 67.6034 104.605 64.8579 104.951 63.7967C104.445 64.4888 104.391 64.8579 104.285 65.6424C102.875 64.4398 101.839 62.9477 101.274 61.305L100.049 62.8508C99.6224 60.1515 99.6224 60.2437 100.502 57.9366C99.8884 58.3634 99.3014 58.8178 98.7432 59.2978C99.1262 57.1254 100.034 55.0473 101.406 53.1988C102.779 51.3504 104.586 49.7731 106.709 48.5698Z" fill="#3D5DA7" stroke="black" stroke-width="0.5"/>
<path fill-rule="evenodd" clip-rule="evenodd" d="M103.083 62.5782C103.317 60.6154 103.815 59.8536 103.962 58.5939C104.255 56.338 103.933 54.7267 104.724 54.756C105.515 54.7853 105.749 55.6349 105.368 57.8614C104.958 60.088 104.636 60.6447 103.083 62.5782ZM107.214 66.2111C107.067 64.5411 107.36 63.838 107.272 62.754C107.097 60.879 106.511 59.59 107.185 59.4728C107.888 59.3556 108.239 59.9708 108.298 61.9044C108.386 63.8087 108.21 64.3068 107.214 66.2111ZM113.689 69.1407C112.985 67.7345 112.37 67.295 111.931 66.3575C111.11 64.7169 110.964 63.3986 110.349 63.6329C109.704 63.8673 109.763 64.5704 110.642 66.1818C111.521 67.7638 111.96 68.0861 113.689 69.17V69.1407ZM115.915 56.2501C114.157 55.2833 113.22 55.2833 112.048 54.6681C110.026 53.6134 108.825 52.4122 108.415 53.0568C108.005 53.7306 108.562 54.3751 110.671 55.3419C112.751 56.3087 113.396 56.3673 115.944 56.2208L115.915 56.2501ZM116.589 61.6407C115.271 60.5568 114.509 60.381 113.659 59.6779C112.194 58.4767 111.433 57.2755 110.935 57.7443C110.466 58.2423 110.788 58.8868 112.341 60.0294C113.894 61.2013 114.421 61.3478 116.589 61.6407Z" fill="#A70000"/>
</g>
</g>
<defs>
<clipPath id="clip0_1284_66756">
<rect width="250" height="150" fill="white"/>
</clipPath>
</defs>
</svg>
