<svg width="250" height="150" viewBox="0 0 250 150" fill="none" xmlns="http://www.w3.org/2000/svg">
<g clip-path="url(#clip0_1284_67291)">
<mask id="mask0_1284_67291" style="mask-type:luminance" maskUnits="userSpaceOnUse" x="0" y="0" width="250" height="150">
<path d="M0 0H250V150H0V0Z" fill="white"/>
</mask>
<g mask="url(#mask0_1284_67291)">
<path d="M0 0H281.25V150H0V0Z" fill="#FF0000"/>
<path d="M0 0H112.496V75H0V0Z" fill="#000095"/>
<path d="M48.1299 39.6563L47.3486 42.6562L50.2861 43.4688L49.7236 41.25L48.1299 39.6563ZM62.7861 41.25L62.2236 43.4688L65.1611 42.6562L64.3799 39.6563L62.7861 41.25ZM49.7236 33.75L48.1299 35.3437L48.7236 37.5L49.7236 33.75Z" fill="white"/>
<path d="M48.7236 37.5L48.1299 39.6563L49.7236 41.25L48.7236 37.5Z" fill="white"/>
<path d="M48.1299 35.3438L45.9736 37.5L48.1299 39.6563L48.7236 37.5L48.1299 35.3438ZM52.5049 44.0312L54.0986 45.625L56.2549 45.0313L52.5049 44.0312ZM58.4111 45.625L61.4111 46.4062L62.2236 43.4688L60.0049 44.0312L58.4111 45.625Z" fill="white"/>
<path d="M60.0049 44.0312L62.2236 43.4688L62.7861 41.25L60.0049 44.0312ZM50.2861 43.4688L51.0986 46.4062L54.0986 45.625L52.5049 44.0312L50.2861 43.4688ZM56.2549 45.0313L58.4111 45.625L60.0049 44.0312L56.2549 45.0313Z" fill="white"/>
<path d="M54.0986 45.625L56.2549 47.7812L58.4111 45.625L56.2549 45.0312L54.0986 45.625ZM50.2861 31.5312L47.3486 32.3437L48.1299 35.3437L49.7236 33.75L50.2861 31.5312ZM49.7236 41.25L50.2861 43.4688L52.5049 44.0312L49.7236 41.25ZM63.7861 37.5L64.3799 35.3437L62.7861 33.75L63.7861 37.5Z" fill="white"/>
<path d="M52.5049 30.9688L50.2861 31.5313L49.7236 33.75L52.5049 30.9688ZM62.7861 33.75L62.2236 31.5313L60.0049 30.9688L62.7861 33.75ZM64.3799 39.6563L66.5361 37.5L64.3799 35.3438L63.7861 37.5L64.3799 39.6563Z" fill="white"/>
<path d="M62.7861 33.75L60.0049 30.9687L56.2549 29.9688L52.5049 30.9687L49.7236 33.75L48.7236 37.5L49.7236 41.25L52.5049 44.0312L56.2549 45.0313L60.0049 44.0312L62.7861 41.25L63.7861 37.5L62.7861 33.75Z" fill="white"/>
<path d="M62.7861 41.25L64.3799 39.6562L63.7861 37.5L62.7861 41.25ZM64.3799 35.3437L65.1611 32.3438L62.2236 31.5313L62.7861 33.75L64.3799 35.3437ZM62.2236 31.5313L61.4111 28.5938L58.4111 29.375L60.0049 30.9687L62.2236 31.5313ZM54.0986 29.375L51.0986 28.5938L50.2861 31.5313L52.5049 30.9687L54.0986 29.375ZM56.2549 29.9688L54.0986 29.375L52.5049 30.9687L56.2549 29.9688Z" fill="white"/>
<path d="M58.4111 29.375L56.2549 27.2188L54.0986 29.375L56.2549 29.9688L58.4111 29.375Z" fill="white"/>
<path d="M60.0049 30.9687L58.4111 29.375L56.2549 29.9688L60.0049 30.9687ZM54.0986 45.625L51.0986 46.4062L52.5049 51.5938L56.2549 47.7812L54.0986 45.625ZM52.5049 51.5938L56.2549 65.625L60.0049 51.5938L56.2549 47.7812L52.5049 51.5938ZM50.2861 43.4688L47.3486 42.6562L45.9736 47.7812L51.0986 46.4062L50.2861 43.4688Z" fill="white"/>
<path d="M45.9736 47.7812L42.2236 61.875L52.5049 51.5938L51.0986 46.4062L45.9736 47.7812ZM42.2236 41.25L31.8799 51.5938L45.9736 47.7812L47.3486 42.6562L42.2236 41.25Z" fill="white"/>
<path d="M48.1299 39.6563L45.9736 37.5L42.2236 41.25L47.3486 42.6562L48.1299 39.6563ZM48.1299 35.3437L47.3486 32.3438L42.2236 33.75L45.9736 37.5L48.1299 35.3437Z" fill="white"/>
<path d="M42.2236 33.75L28.1299 37.5L42.2236 41.25L45.9736 37.5L42.2236 33.75ZM70.3486 41.25L65.1611 42.6562L66.5361 47.7812L80.6299 51.5938L70.3486 41.25Z" fill="white"/>
<path d="M62.2236 43.4688L61.4111 46.4062L66.5361 47.7812L65.1611 42.6562L62.2236 43.4688ZM58.4111 45.625L56.2549 47.7812L60.0049 51.5938L61.4111 46.4062L58.4111 45.625ZM64.3799 39.6563L65.1611 42.6562L70.3486 41.25L66.5361 37.5L64.3799 39.6563Z" fill="white"/>
<path d="M60.0049 51.5938L70.3486 61.875L66.5361 47.7812L61.4111 46.4062L60.0049 51.5938ZM62.2236 31.5313L65.1611 32.3438L66.5361 27.2188L61.4111 28.5938L62.2236 31.5313Z" fill="white"/>
<path d="M70.3486 33.75L80.6299 23.4688L66.5361 27.2188L65.1611 32.3438L70.3486 33.75ZM66.5361 27.2188L70.3486 13.125L60.0049 23.4688L61.4111 28.5938L66.5361 27.2188ZM70.3486 41.25L84.3799 37.5L70.3486 33.75L66.5361 37.5L70.3486 41.25Z" fill="white"/>
<path d="M64.3799 35.3438L66.5361 37.5L70.3486 33.75L65.1611 32.3438L64.3799 35.3438ZM52.5049 23.4688L42.2236 13.125L45.9736 27.2188L51.0986 28.5938L52.5049 23.4688Z" fill="white"/>
<path d="M50.2861 31.5313L51.0986 28.5938L45.9736 27.2188L47.3486 32.3438L50.2861 31.5313Z" fill="white"/>
<path d="M45.9736 27.2188L31.8799 23.4688L42.2236 33.75L47.3486 32.3438L45.9736 27.2188ZM58.4111 29.375L61.4111 28.5938L60.0049 23.4688L56.2549 27.2188L58.4111 29.375Z" fill="white"/>
<path d="M60.0049 23.4688L56.2549 9.375L52.5049 23.4688L56.2549 27.2188L60.0049 23.4688Z" fill="white"/>
<path d="M54.0986 29.375L56.2549 27.2188L52.5049 23.4688L51.0986 28.5938L54.0986 29.375Z" fill="white"/>
<path d="M56.2549 53.4688C65.0742 53.4688 72.2236 46.3193 72.2236 37.5C72.2236 28.6807 65.0742 21.5312 56.2549 21.5312C47.4356 21.5312 40.2861 28.6807 40.2861 37.5C40.2861 46.3193 47.4356 53.4688 56.2549 53.4688Z" fill="#000095"/>
<path d="M56.2549 51.5937C64.0386 51.5937 70.3486 45.2838 70.3486 37.5C70.3486 29.7162 64.0386 23.4062 56.2549 23.4062C48.4711 23.4062 42.1611 29.7162 42.1611 37.5C42.1611 45.2838 48.4711 51.5937 56.2549 51.5937Z" fill="white"/>
</g>
</g>
<defs>
<clipPath id="clip0_1284_67291">
<rect width="250" height="150" fill="white"/>
</clipPath>
</defs>
</svg>
