<svg width="250" height="150" viewBox="0 0 250 150" fill="none" xmlns="http://www.w3.org/2000/svg">
<g clip-path="url(#clip0_1284_67067)">
<path d="M0 0H250V150H0V0Z" fill="#006600"/>
<path d="M0 0H250V107.156H0V0Z" fill="white"/>
<path d="M0 0H250V42.8438H0V0Z" fill="#CC0000"/>
<path d="M119.235 74.066C119.53 73.5667 119.978 73.176 120.512 72.9522C121.047 72.7283 121.64 72.6833 122.202 72.8239C122.765 72.9645 123.266 73.2831 123.633 73.7322C123.999 74.1814 124.211 74.7369 124.235 75.316V86.066H126.235V75.3473C126.26 74.7682 126.472 74.2126 126.838 73.7635C127.205 73.3144 127.706 72.9957 128.269 72.8552C128.831 72.7146 129.424 72.7596 129.958 72.9834C130.493 73.2073 130.941 73.598 131.236 74.0973C131.545 73.1495 131.626 72.1418 131.472 71.1567C131.317 70.1716 130.931 69.2372 130.346 68.43C129.76 67.6227 128.992 66.9657 128.104 66.5126C127.216 66.0595 126.233 65.8232 125.235 65.8232C124.238 65.8232 123.255 66.0595 122.367 66.5126C121.479 66.9657 120.71 67.6227 120.125 68.43C119.54 69.2372 119.154 70.1716 118.999 71.1567C118.845 72.1418 118.925 73.1495 119.235 74.0973" fill="#F8C300"/>
<path d="M120.673 71.2844C121.55 71.103 122.463 71.2014 123.281 71.5658C124.1 71.9302 124.783 72.5423 125.235 73.3157C125.688 72.5423 126.371 71.9302 127.19 71.5658C128.008 71.2014 128.921 71.103 129.798 71.2844C129.667 70.1664 129.13 69.1354 128.289 68.3871C127.448 67.6389 126.361 67.2256 125.235 67.2256C124.11 67.2256 123.023 67.6389 122.182 68.3871C121.341 69.1354 120.804 70.1664 120.673 71.2844Z" fill="white"/>
<path d="M124.235 81.7847C124.102 83.3077 123.542 84.7623 122.62 85.9814C121.697 87.2006 120.45 88.1347 119.02 88.6765C117.59 89.2183 116.037 89.3458 114.538 89.0443C113.039 88.7428 111.656 88.0246 110.547 86.9722C110.077 88.1723 109.338 89.2487 108.387 90.1189C107.436 90.989 106.298 91.6297 105.061 91.9918C103.824 92.3538 102.52 92.4277 101.25 92.2076C99.9803 91.9875 98.7775 91.4794 97.7344 90.7222C98.5156 98.5347 110.235 96.9409 111.11 89.3472C114.766 95.8159 122.86 93.9409 125.235 86.0347L124.235 81.7847Z" fill="#F8C300"/>
<path d="M126.235 81.7847C126.368 83.3077 126.928 84.7623 127.85 85.9814C128.772 87.2006 130.02 88.1347 131.45 88.6765C132.879 89.2183 134.433 89.3458 135.932 89.0443C137.43 88.7428 138.814 88.0246 139.923 86.9722C140.393 88.1723 141.132 89.2487 142.083 90.1189C143.034 90.989 144.172 91.6297 145.409 91.9918C146.646 92.3538 147.949 92.4277 149.219 92.2076C150.489 91.9875 151.692 91.4794 152.735 90.7222C151.954 98.5347 140.235 96.9409 139.36 89.3472C135.704 95.8159 127.61 93.9409 125.235 86.0347L126.235 81.7847Z" fill="#F8C300"/>
<path d="M116.422 95.6284C114.766 99.1597 111.516 99.7534 108.672 96.9097C108.672 96.9097 109.797 96.0972 111.047 95.8784C110.797 94.9097 111.266 93.5347 111.953 92.8159C112.863 93.4128 113.537 94.3077 113.859 95.3472C115.578 95.1284 116.422 95.6597 116.422 95.6597V95.6284Z" fill="#F8C300"/>
<path d="M129.235 95.2329C127.024 98.4462 123.72 98.5012 121.379 95.2312C121.379 95.2312 122.622 94.6133 123.891 94.6017C123.802 93.6051 124.489 92.3251 125.285 91.7283C126.085 92.4658 126.604 93.4588 126.752 94.5369C128.484 94.6018 129.229 95.2637 129.229 95.2637L129.235 95.2329Z" fill="#F8C300"/>
<path d="M141.805 96.9056C139.104 99.7194 135.836 99.2399 134.054 95.6345C134.054 95.6345 135.38 95.2256 136.634 95.4191C136.708 94.4214 137.593 93.2692 138.474 92.8088C139.145 93.666 139.496 94.7297 139.468 95.8176C141.167 96.1615 141.795 96.9352 141.795 96.9352L141.805 96.9056Z" fill="#F8C300"/>
<path d="M104.453 103.503C118.014 99.467 132.456 99.467 146.016 103.503" stroke="#F8C300" stroke-width="1.8"/>
<path d="M128.469 56.9561L120 50.8029H130.469L121.999 56.9561L125.234 47L128.469 56.9561Z" fill="#F8C300"/>
<path d="M113.469 60.9845L105 54.8312H115.469L106.999 60.9845L110.234 51.0283L113.469 60.9845Z" fill="#F8C300"/>
<path d="M102.499 71.9556L94.0293 65.8024H104.498L96.0286 71.9556L99.2636 61.9995L102.499 71.9556Z" fill="#F8C300"/>
<path d="M98.4693 86.9556L90 80.8024H100.469L91.9993 86.9556L95.2343 76.9995L98.4693 86.9556Z" fill="#F8C300"/>
<path d="M137.001 60.9845L145.471 54.8312H135.002L143.471 60.9845L140.236 51.0283L137.001 60.9845Z" fill="#F8C300"/>
<path d="M147.972 71.9556L156.441 65.8024H145.973L154.442 71.9556L151.207 61.9995L147.972 71.9556Z" fill="#F8C300"/>
<path d="M152.001 86.9556L160.471 80.8024H150.002L158.471 86.9556L155.236 76.9995L152.001 86.9556Z" fill="#F8C300"/>
</g>
<defs>
<clipPath id="clip0_1284_67067">
<rect width="250" height="150" fill="white"/>
</clipPath>
</defs>
</svg>
