<svg width="250" height="150" viewBox="0 0 250 150" fill="none" xmlns="http://www.w3.org/2000/svg">
<g clip-path="url(#clip0_1284_67243)">
<mask id="mask0_1284_67243" style="mask-type:luminance" maskUnits="userSpaceOnUse" x="0" y="0" width="250" height="150">
<path d="M0.0117188 0H249.987V150H0.0117188V0Z" fill="white"/>
</mask>
<g mask="url(#mask0_1284_67243)">
<path fill-rule="evenodd" clip-rule="evenodd" d="M-15.625 0H265.625V150H-15.625V0Z" fill="#E70013"/>
<path fill-rule="evenodd" clip-rule="evenodd" d="M162.821 74.9414C162.821 84.9725 158.836 94.5927 151.743 101.686C144.651 108.779 135.031 112.764 125.001 112.764C114.97 112.764 105.351 108.779 98.2579 101.686C91.1653 94.5927 87.1807 84.9725 87.1807 74.9414C87.1807 64.9103 91.1653 55.2901 98.2579 48.197C105.351 41.104 114.97 37.1191 125.001 37.1191C135.031 37.1191 144.651 41.104 151.743 48.197C158.836 55.2901 162.821 64.9103 162.821 74.9414Z" fill="white"/>
<path fill-rule="evenodd" clip-rule="evenodd" d="M125.001 100.02C118.495 99.7972 112.33 97.0561 107.806 92.3746C103.282 87.693 100.753 81.4372 100.753 74.9268C100.753 68.4163 103.282 62.1605 107.806 57.4789C112.33 52.7974 118.495 50.0563 125.001 49.834C128.458 49.834 132.413 50.6543 135.079 52.6172C116.74 53.291 112.082 68.8769 112.082 75.1465C112.082 81.416 115.041 95.3906 135.079 97.4707C132.794 98.9355 128.458 100.02 125.001 100.02Z" fill="#E70013"/>
<path fill-rule="evenodd" clip-rule="evenodd" d="M147.089 85.4883L135.693 81.3281L128.164 90.8203L128.604 78.7207L117.237 74.4727L128.897 71.1328L129.395 59.0332L136.191 69.082L147.851 65.8594L140.38 75.3809L147.089 85.4883Z" fill="#E70013"/>
</g>
</g>
<defs>
<clipPath id="clip0_1284_67243">
<rect width="250" height="150" fill="white"/>
</clipPath>
</defs>
</svg>
