<svg width="250" height="150" viewBox="0 0 250 150" fill="none" xmlns="http://www.w3.org/2000/svg">
<g clip-path="url(#clip0_1284_67352)">
<path d="M250 0H0V150H250V0Z" fill="#00843D"/>
<path d="M120.693 16.6357C127.341 19.4908 131.998 26.0985 131.998 33.7927C131.998 44.0987 123.644 52.4565 113.342 52.4565C108.729 52.4565 104.509 50.7804 101.252 48.0052C103.267 48.8695 105.468 49.3917 107.787 49.4929C118.079 49.9425 126.79 41.9574 127.24 31.6612C127.5 25.6834 124.919 20.2393 120.693 16.6357Z" fill="white"/>
<path d="M102.899 30.3549L105.013 23.8467L99.4785 27.8689H106.319L100.785 23.8467L102.899 30.3549Z" fill="white"/>
<path d="M102.899 20.7548L105.013 14.2466L99.4785 18.2688H106.319L100.785 14.2466L102.899 20.7548Z" fill="white"/>
<path d="M112.379 25.6742L114.493 19.166L108.959 23.1883H115.8L110.265 19.166L112.379 25.6742Z" fill="white"/>
<path d="M93.4184 35.0351L95.5321 28.5269L89.998 32.5491H96.8386L91.3045 28.5269L93.4184 35.0351Z" fill="white"/>
<path d="M102.899 39.9545L105.013 33.4463L99.4785 37.4685H106.319L100.785 33.4463L102.899 39.9545Z" fill="white"/>
<path d="M70.4981 0H29.999V150H70.4981V0Z" fill="#D22630"/>
<path d="M29.999 -9.90479V-8.43495L32.2765 -6.30309L31.5085 -5.58805L33.1372 -4.07851L32.4221 -3.42968V-4.36982H31.0318V-3.2443L34.17 -0.30467H35.7589L35.9311 -1.33751H35.0174L36.0105 -2.26442L38.4998 -0.000117302L36.0105 2.27742L35.0174 1.35052H35.9311L35.7589 0.304438H34.17L31.0318 3.24409V4.36962H32.4221V3.42947L33.1372 4.0783L31.5085 5.58784L32.2765 6.3161L29.999 8.43475V9.90458L33.8522 6.3161L33.0842 5.58784L34.6996 4.0783L33.3093 2.78063L34.2362 1.93318L36.0105 3.57513L39.9035 -7.24792e-05L36.0105 -3.57527L34.2362 -1.92008L33.3093 -2.78078L34.6996 -4.07845L33.0842 -5.58799L33.8522 -6.30303L29.999 -9.90479ZM29.999 -2.76758V2.76736L30.8994 1.8537V0.781153H31.8528L32.6207 -9.72748e-05L31.8528 -0.768106H30.8994V-1.85391L29.999 -2.76758ZM36.5667 -0.80784L36.4342 -0.0530729L36.5667 0.714935L37.3876 -0.0530729L36.5667 -0.80784Z" fill="#383739"/>
<path d="M29.9994 -9.74608V-8.58083L32.4358 -6.30328L31.6677 -5.58824L33.2964 -4.07871L32.3166 -3.16504V-4.26409H31.1381V-3.28422L34.2233 -0.410816H35.6534L35.799 -1.23179H34.7397L36.0109 -2.42353L38.6591 -0.000329018L36.0109 2.42287L34.7397 1.24438H35.799L35.653 0.410161H34.223L31.1377 3.28356V4.26343H32.3162V3.16439L33.2961 4.07805L31.6674 5.58759L32.4354 6.31585L29.999 8.58017V9.74543L33.6933 6.31585L32.9253 5.58759L34.5407 4.07805L33.1504 2.78038L34.2362 1.77403L36.0105 3.42922L39.7313 -0.000331879L36.0105 -3.42988L34.2362 -1.77469L33.1504 -2.78105L34.5407 -4.07872L32.9253 -5.58825L33.6933 -6.30329L29.999 -9.74609L29.9994 -9.74608ZM29.9994 -2.60888V2.60827L30.7939 1.81378V0.661781H31.8134L32.4755 -0.000296593L31.8134 -0.662374H30.7939V-1.81439L29.9994 -2.60888ZM36.6464 -0.596169L36.5538 -0.0532665L36.6464 0.489636L37.2291 -0.0532665L36.6464 -0.596169Z" fill="#FFC72C"/>
<path d="M29.999 17.397V18.8668L32.2765 20.9987L31.5085 21.7137L33.1372 23.2232L32.4221 23.8721V22.9319H31.0318V24.0575L34.17 26.9971H35.7589L35.9311 25.9642H35.0174L36.0105 25.0373L38.4998 27.3016L36.0105 29.5792L35.0174 28.6523H35.9311L35.7589 27.6062H34.17L31.0318 30.5458V31.6714H32.4221V30.7312L33.1372 31.3801L31.5085 32.8896L32.2765 33.6179L29.999 35.7365V37.2063L33.8522 33.6179L33.0842 32.8896L34.6996 31.3801L33.3093 30.0824L34.2362 29.2349L36.0105 30.8769L39.9035 27.3017L36.0105 23.7265L34.2362 25.3817L33.3093 24.521L34.6996 23.2233L33.0842 21.7138L33.8522 20.9987L29.999 17.397ZM29.999 24.5342V30.0691L30.8994 29.1555V28.0829H31.8528L32.6207 27.3017L31.8528 26.5337H30.8994V25.4478L29.999 24.5342ZM36.5667 26.4939L36.4342 27.2487L36.5667 28.0167L37.3876 27.2487L36.5667 26.4939Z" fill="#383739"/>
<path d="M29.9994 17.5557V18.7209L32.4358 20.9985L31.6677 21.7135L33.2964 23.2231L32.3166 24.1367V23.0377H31.1381V24.0175L34.2233 26.8909H35.6534L35.799 26.07H34.7397L36.0109 24.8782L38.6591 27.3014L36.0109 29.7246L34.7397 28.5461H35.799L35.653 27.7119H34.223L31.1377 30.5853V31.5652H32.3162V30.4661L33.2961 31.3798L31.6674 32.8893L32.4354 33.6176L29.999 35.8819V37.0472L33.6933 33.6176L32.9253 32.8893L34.5407 31.3798L33.1504 30.0821L34.2362 29.0758L36.0105 30.731L39.7313 27.3014L36.0105 23.8719L34.2362 25.5271L33.1504 24.5207L34.5407 23.223L32.9253 21.7135L33.6933 20.9985L29.999 17.5557L29.9994 17.5557ZM29.9994 24.6929V29.91L30.7939 29.1155V27.9635H31.8134L32.4755 27.3015L31.8134 26.6394H30.7939V25.4874L29.9994 24.6929ZM36.6464 26.7056L36.5538 27.2485L36.6464 27.7914L37.2291 27.2485L36.6464 26.7056Z" fill="#FFC72C"/>
<path d="M29.999 45.5967V47.0665L32.2765 49.1984L31.5085 49.9134L33.1372 51.423L32.4221 52.0718V51.1316H31.0318V52.2572L34.17 55.1968H35.7589L35.9311 54.164H35.0174L36.0105 53.237L38.4998 55.5013L36.0105 57.7789L35.0174 56.852H35.9311L35.7589 55.8059H34.17L31.0318 58.7456V59.8711H32.4221V58.9309L33.1372 59.5798L31.5085 61.0893L32.2765 61.8176L29.999 63.9362V65.406L33.8522 61.8176L33.0842 61.0893L34.6996 59.5798L33.3093 58.2821L34.2362 57.4346L36.0105 59.0766L39.9035 55.5014L36.0105 51.9262L34.2362 53.5814L33.3093 52.7207L34.6996 51.423L33.0842 49.9135L33.8522 49.1984L29.999 45.5967ZM29.999 52.7339V58.2688L30.8994 57.3552V56.2826H31.8528L32.6207 55.5014L31.8528 54.7334H30.8994V53.6476L29.999 52.7339ZM36.5667 54.6936L36.4342 55.4484L36.5667 56.2164L37.3876 55.4484L36.5667 54.6936Z" fill="#383739"/>
<path d="M29.9994 45.7554V46.9206L32.4358 49.1982L31.6677 49.9132L33.2964 51.4228L32.3166 52.3364V51.2374H31.1381V52.2172L34.2233 55.0906H35.6534L35.799 54.2697H34.7397L36.0109 53.0779L38.6591 55.5011L36.0109 57.9243L34.7397 56.7458H35.799L35.653 55.9116H34.223L31.1377 58.785V59.7649H32.3162V58.6659L33.2961 59.5795L31.6674 61.0891L32.4354 61.8173L29.999 64.0816V65.2469L33.6933 61.8173L32.9253 61.0891L34.5407 59.5795L33.1504 58.2818L34.2362 57.2755L36.0105 58.9307L39.7313 55.5011L36.0105 52.0716L34.2362 53.7268L33.1504 52.7204L34.5407 51.4227L32.9253 49.9132L33.6933 49.1982L29.999 45.7554L29.9994 45.7554ZM29.9994 52.8926V58.1097L30.7939 57.3152V56.1632H31.8134L32.4755 55.5012L31.8134 54.8391H30.7939V53.6871L29.9994 52.8926ZM36.6464 54.9053L36.5538 55.4482L36.6464 55.9911L37.2291 55.4482L36.6464 54.9053Z" fill="#FFC72C"/>
<path d="M29.999 73.7954V75.2652L32.2765 77.3971L31.5085 78.1121L33.1372 79.6217L32.4221 80.2705V79.3304H31.0318V80.4559L34.17 83.3955H35.7589L35.9311 82.3627H35.0174L36.0105 81.4358L38.4998 83.7001L36.0105 85.9776L35.0174 85.0507H35.9311L35.7589 84.0046H34.17L31.0318 86.9443V88.0698H32.4221V87.1297L33.1372 87.7785L31.5085 89.288L32.2765 90.0163L29.999 92.1349V93.6048L33.8522 90.0163L33.0842 89.288L34.6996 87.7785L33.3093 86.4808L34.2362 85.6334L36.0105 87.2753L39.9035 83.7001L36.0105 80.1249L34.2362 81.7801L33.3093 80.9194L34.6996 79.6217L33.0842 78.1122L33.8522 77.3972L29.999 73.7954ZM29.999 80.9326V86.4676L30.8994 85.5539V84.4813H31.8528L32.6207 83.7001L31.8528 82.9321H30.8994V81.8463L29.999 80.9326ZM36.5667 82.8924L36.4342 83.6471L36.5667 84.4151L37.3876 83.6471L36.5667 82.8924Z" fill="#383739"/>
<path d="M29.9994 73.9541V75.1194L32.4358 77.3969L31.6677 78.112L33.2964 79.6215L32.3166 80.5352V79.4361H31.1381V80.416L34.2233 83.2894H35.6534L35.799 82.4684H34.7397L36.0109 81.2767L38.6591 83.6999L36.0109 86.1231L34.7397 84.9446H35.799L35.653 84.1104H34.223L31.1377 86.9838V87.9636H32.3162V86.8646L33.2961 87.7782L31.6674 89.2878L32.4354 90.016L29.999 92.2804V93.4456L33.6933 90.016L32.9253 89.2878L34.5407 87.7782L33.1504 86.4806L34.2362 85.4742L36.0105 87.1294L39.7313 83.6999L36.0105 80.2703L34.2362 81.9255L33.1504 80.9191L34.5407 79.6215L32.9253 78.1119L33.6933 77.3969L29.999 73.9541L29.9994 73.9541ZM29.9994 81.0913V86.3085L30.7939 85.514V84.362H31.8134L32.4755 83.6999L31.8134 83.0378H30.7939V81.8858L29.9994 81.0913ZM36.6464 83.104L36.5538 83.6469L36.6464 84.1898L37.2291 83.6469L36.6464 83.104Z" fill="#FFC72C"/>
<path d="M29.999 101.995V103.465L32.2765 105.597L31.5085 106.312L33.1372 107.821L32.4221 108.47V107.53H31.0318V108.656L34.17 111.595H35.7589L35.9311 110.562H35.0174L36.0105 109.635L38.4998 111.9L36.0105 114.177L35.0174 113.25H35.9311L35.7589 112.204H34.17L31.0318 115.144V116.27H32.4221V115.329L33.1372 115.978L31.5085 117.488L32.2765 118.216L29.999 120.335V121.804L33.8522 118.216L33.0842 117.488L34.6996 115.978L33.3093 114.681L34.2362 113.833L36.0105 115.475L39.9035 111.9L36.0105 108.325L34.2362 109.98L33.3093 109.119L34.6996 107.821L33.0842 106.312L33.8522 105.597L29.999 101.995ZM29.999 109.132V114.667L30.8994 113.754V112.681H31.8528L32.6207 111.9L31.8528 111.132H30.8994V110.046L29.999 109.132ZM36.5667 111.092L36.4342 111.847L36.5667 112.615L37.3876 111.847L36.5667 111.092Z" fill="#383739"/>
<path d="M29.9994 102.154V103.319L32.4358 105.597L31.6677 106.312L33.2964 107.821L32.3166 108.735V107.636H31.1381V108.616L34.2233 111.489H35.6534L35.799 110.668H34.7397L36.0109 109.476L38.6591 111.9L36.0109 114.323L34.7397 113.144H35.799L35.653 112.31H34.223L31.1377 115.183V116.163H32.3162V115.064L33.2961 115.978L31.6674 117.487L32.4354 118.216L29.999 120.48V121.645L33.6933 118.216L32.9253 117.487L34.5407 115.978L33.1504 114.68L34.2362 113.674L36.0105 115.329L39.7313 111.9L36.0105 108.47L34.2362 110.125L33.1504 109.119L34.5407 107.821L32.9253 106.312L33.6933 105.597L29.999 102.154L29.9994 102.154ZM29.9994 109.291V114.508L30.7939 113.714V112.562H31.8134L32.4755 111.9L31.8134 111.238H30.7939V110.086L29.9994 109.291ZM36.6464 111.304L36.5538 111.847L36.6464 112.39L37.2291 111.847L36.6464 111.304Z" fill="#FFC72C"/>
<path d="M70.499 -9.90479V-8.43495L68.2215 -6.30309L68.9896 -5.58805L67.3609 -4.07851L68.0759 -3.42968V-4.36982H69.4663V-3.2443L66.3281 -0.30467H64.7391L64.567 -1.33751H65.4806L64.4876 -2.26442L61.9982 -0.000117302L64.4876 2.27742L65.4806 1.35052H64.567L64.7391 0.304438H66.3281L69.4663 3.24409V4.36962H68.0759V3.42947L67.3609 4.0783L68.9896 5.58784L68.2215 6.3161L70.499 8.43475V9.90458L66.6459 6.3161L67.4139 5.58784L65.7984 4.0783L67.1888 2.78063L66.2618 1.93318L64.4876 3.57513L60.5946 -7.24792e-05L64.4876 -3.57527L66.2618 -1.92008L67.1888 -2.78078L65.7984 -4.07845L67.4139 -5.58799L66.6459 -6.30303L70.499 -9.90479ZM70.499 -2.76758V2.76736L69.5986 1.8537V0.781153H68.6453L67.8773 -9.72748e-05L68.6453 -0.768106H69.5986V-1.85391L70.499 -2.76758ZM63.9314 -0.80784L64.0638 -0.0530729L63.9314 0.714935L63.1105 -0.0530729L63.9314 -0.80784Z" fill="#383739"/>
<path d="M70.4987 -9.74608V-8.58083L68.0623 -6.30328L68.8303 -5.58824L67.2016 -4.07871L68.1815 -3.16504V-4.26409H69.36V-3.28422L66.2747 -0.410816H64.8447L64.699 -1.23179H65.7583L64.4872 -2.42353L61.8389 -0.000329018L64.4872 2.42287L65.7583 1.24438H64.699L64.845 0.410161H66.2751L69.3603 3.28356V4.26343H68.1818V3.16439L67.202 4.07805L68.8307 5.58759L68.0626 6.31585L70.499 8.58017V9.74543L66.8048 6.31585L67.5727 5.58759L65.9573 4.07805L67.3477 2.78038L66.2618 1.77403L64.4876 3.42922L60.7667 -0.000331879L64.4876 -3.42988L66.2618 -1.77469L67.3477 -2.78105L65.9573 -4.07872L67.5727 -5.58825L66.8048 -6.30329L70.499 -9.74609L70.4987 -9.74608ZM70.4987 -2.60888V2.60827L69.7042 1.81378V0.661781H68.6846L68.0226 -0.000296593L68.6846 -0.662374H69.7042V-1.81439L70.4987 -2.60888ZM63.8516 -0.596169L63.9443 -0.0532665L63.8516 0.489636L63.269 -0.0532665L63.8516 -0.596169Z" fill="#FFC72C"/>
<path d="M70.499 17.397V18.8668L68.2215 20.9987L68.9896 21.7137L67.3609 23.2232L68.0759 23.8721V22.9319H69.4663V24.0575L66.3281 26.9971H64.7391L64.567 25.9642H65.4806L64.4876 25.0373L61.9982 27.3016L64.4876 29.5792L65.4806 28.6523H64.567L64.7391 27.6062H66.3281L69.4663 30.5458V31.6714H68.0759V30.7312L67.3609 31.3801L68.9896 32.8896L68.2215 33.6179L70.499 35.7365V37.2063L66.6459 33.6179L67.4139 32.8896L65.7984 31.3801L67.1888 30.0824L66.2618 29.2349L64.4876 30.8769L60.5946 27.3017L64.4876 23.7265L66.2618 25.3817L67.1888 24.521L65.7984 23.2233L67.4139 21.7138L66.6459 20.9987L70.499 17.397ZM70.499 24.5342V30.0691L69.5986 29.1555V28.0829H68.6453L67.8773 27.3017L68.6453 26.5337H69.5986V25.4478L70.499 24.5342ZM63.9314 26.4939L64.0638 27.2487L63.9314 28.0167L63.1105 27.2487L63.9314 26.4939Z" fill="#383739"/>
<path d="M70.4987 17.5557V18.7209L68.0623 20.9985L68.8303 21.7135L67.2016 23.2231L68.1815 24.1367V23.0377H69.36V24.0175L66.2747 26.8909H64.8447L64.699 26.07H65.7583L64.4872 24.8782L61.8389 27.3014L64.4872 29.7246L65.7583 28.5461H64.699L64.845 27.7119H66.2751L69.3603 30.5853V31.5652H68.1818V30.4661L67.202 31.3798L68.8307 32.8893L68.0626 33.6176L70.499 35.8819V37.0472L66.8048 33.6176L67.5727 32.8893L65.9573 31.3798L67.3477 30.0821L66.2618 29.0758L64.4876 30.731L60.7667 27.3014L64.4876 23.8719L66.2618 25.5271L67.3477 24.5207L65.9573 23.223L67.5727 21.7135L66.8048 20.9985L70.499 17.5557L70.4987 17.5557ZM70.4987 24.6929V29.91L69.7042 29.1155V27.9635H68.6846L68.0226 27.3015L68.6846 26.6394H69.7042V25.4874L70.4987 24.6929ZM63.8516 26.7056L63.9443 27.2485L63.8516 27.7914L63.269 27.2485L63.8516 26.7056Z" fill="#FFC72C"/>
<path d="M70.499 45.5967V47.0665L68.2215 49.1984L68.9896 49.9134L67.3609 51.423L68.0759 52.0718V51.1316H69.4663V52.2572L66.3281 55.1968H64.7391L64.567 54.164H65.4806L64.4876 53.237L61.9982 55.5013L64.4876 57.7789L65.4806 56.852H64.567L64.7391 55.8059H66.3281L69.4663 58.7456V59.8711H68.0759V58.9309L67.3609 59.5798L68.9896 61.0893L68.2215 61.8176L70.499 63.9362V65.406L66.6459 61.8176L67.4139 61.0893L65.7984 59.5798L67.1888 58.2821L66.2618 57.4346L64.4876 59.0766L60.5946 55.5014L64.4876 51.9262L66.2618 53.5814L67.1888 52.7207L65.7984 51.423L67.4139 49.9135L66.6459 49.1984L70.499 45.5967ZM70.499 52.7339V58.2688L69.5986 57.3552V56.2826H68.6453L67.8773 55.5014L68.6453 54.7334H69.5986V53.6476L70.499 52.7339ZM63.9314 54.6936L64.0638 55.4484L63.9314 56.2164L63.1105 55.4484L63.9314 54.6936Z" fill="#383739"/>
<path d="M70.4987 45.7554V46.9206L68.0623 49.1982L68.8303 49.9132L67.2016 51.4228L68.1815 52.3364V51.2374H69.36V52.2172L66.2747 55.0906H64.8447L64.699 54.2697H65.7583L64.4872 53.0779L61.8389 55.5011L64.4872 57.9243L65.7583 56.7458H64.699L64.845 55.9116H66.2751L69.3603 58.785V59.7649H68.1818V58.6659L67.202 59.5795L68.8307 61.0891L68.0626 61.8173L70.499 64.0816V65.2469L66.8048 61.8173L67.5727 61.0891L65.9573 59.5795L67.3477 58.2818L66.2618 57.2755L64.4876 58.9307L60.7667 55.5011L64.4876 52.0716L66.2618 53.7268L67.3477 52.7204L65.9573 51.4227L67.5727 49.9132L66.8048 49.1982L70.499 45.7554L70.4987 45.7554ZM70.4987 52.8926V58.1097L69.7042 57.3152V56.1632H68.6846L68.0226 55.5012L68.6846 54.8391H69.7042V53.6871L70.4987 52.8926ZM63.8516 54.9053L63.9443 55.4482L63.8516 55.9911L63.269 55.4482L63.8516 54.9053Z" fill="#FFC72C"/>
<path d="M70.499 73.7954V75.2652L68.2215 77.3971L68.9896 78.1121L67.3609 79.6217L68.0759 80.2705V79.3304H69.4663V80.4559L66.3281 83.3955H64.7391L64.567 82.3627H65.4806L64.4876 81.4358L61.9982 83.7001L64.4876 85.9776L65.4806 85.0507H64.567L64.7391 84.0046H66.3281L69.4663 86.9443V88.0698H68.0759V87.1297L67.3609 87.7785L68.9896 89.288L68.2215 90.0163L70.499 92.1349V93.6048L66.6459 90.0163L67.4139 89.288L65.7984 87.7785L67.1888 86.4808L66.2618 85.6334L64.4876 87.2753L60.5946 83.7001L64.4876 80.1249L66.2618 81.7801L67.1888 80.9194L65.7984 79.6217L67.4139 78.1122L66.6459 77.3972L70.499 73.7954ZM70.499 80.9326V86.4676L69.5986 85.5539V84.4813H68.6453L67.8773 83.7001L68.6453 82.9321H69.5986V81.8463L70.499 80.9326ZM63.9314 82.8924L64.0638 83.6471L63.9314 84.4151L63.1105 83.6471L63.9314 82.8924Z" fill="#383739"/>
<path d="M70.4987 73.9541V75.1194L68.0623 77.3969L68.8303 78.112L67.2016 79.6215L68.1815 80.5352V79.4361H69.36V80.416L66.2747 83.2894H64.8447L64.699 82.4684H65.7583L64.4872 81.2767L61.8389 83.6999L64.4872 86.1231L65.7583 84.9446H64.699L64.845 84.1104H66.2751L69.3603 86.9838V87.9636H68.1818V86.8646L67.202 87.7782L68.8307 89.2878L68.0626 90.016L70.499 92.2804V93.4456L66.8048 90.016L67.5727 89.2878L65.9573 87.7782L67.3477 86.4806L66.2618 85.4742L64.4876 87.1294L60.7667 83.6999L64.4876 80.2703L66.2618 81.9255L67.3477 80.9191L65.9573 79.6215L67.5727 78.1119L66.8048 77.3969L70.499 73.9541L70.4987 73.9541ZM70.4987 81.0913V86.3085L69.7042 85.514V84.362H68.6846L68.0226 83.6999L68.6846 83.0378H69.7042V81.8858L70.4987 81.0913ZM63.8516 83.104L63.9443 83.6469L63.8516 84.1898L63.269 83.6469L63.8516 83.104Z" fill="#FFC72C"/>
<path d="M70.499 101.995V103.464L68.2215 105.596L68.9896 106.311L67.3609 107.821L68.0759 108.47V107.53H69.4663V108.655L66.3281 111.595H64.7391L64.567 110.562H65.4806L64.4876 109.635L61.9982 111.899L64.4876 114.177L65.4806 113.25H64.567L64.7391 112.204H66.3281L69.4663 115.144V116.269H68.0759V115.329L67.3609 115.978L68.9896 117.487L68.2215 118.216L70.499 120.334V121.804L66.6459 118.216L67.4139 117.487L65.7984 115.978L67.1888 114.68L66.2618 113.833L64.4876 115.475L60.5946 111.899L64.4876 108.324L66.2618 109.979L67.1888 109.119L65.7984 107.821L67.4139 106.311L66.6459 105.596L70.499 101.995ZM70.499 109.132V114.667L69.5986 113.753V112.681H68.6453L67.8773 111.899L68.6453 111.131H69.5986V110.046L70.499 109.132ZM63.9314 111.092L64.0638 111.846L63.9314 112.614L63.1105 111.846L63.9314 111.092Z" fill="#383739"/>
<path d="M70.4987 102.153V103.319L68.0623 105.596L68.8303 106.311L67.2016 107.821L68.1815 108.734V107.635H69.36V108.615L66.2747 111.489H64.8447L64.699 110.668H65.7583L64.4872 109.476L61.8389 111.899L64.4872 114.322L65.7583 113.144H64.699L64.845 112.31H66.2751L69.3603 115.183V116.163H68.1818V115.064L67.202 115.977L68.8307 117.487L68.0626 118.215L70.499 120.48V121.645L66.8048 118.215L67.5727 117.487L65.9573 115.977L67.3477 114.68L66.2618 113.673L64.4876 115.329L60.7667 111.899L64.4876 108.47L66.2618 110.125L67.3477 109.118L65.9573 107.821L67.5727 106.311L66.8048 105.596L70.499 102.153L70.4987 102.153ZM70.4987 109.291V114.508L69.7042 113.713V112.561H68.6846L68.0226 111.899L68.6846 111.237H69.7042V110.085L70.4987 109.291ZM63.8516 111.303L63.9443 111.846L63.8516 112.389L63.269 111.846L63.8516 111.303Z" fill="#FFC72C"/>
<path d="M33.285 132.706C33.4848 133.558 34.162 134.201 34.3234 135.084C34.6465 134.163 34.9444 133.391 34.7219 132.383C34.5628 131.662 33.9565 131.148 33.8863 130.408C33.2253 131.002 33.0829 131.845 33.285 132.706ZM33.1174 136.275C33.6781 137.044 34.4575 137.634 35.3182 138.027C35.1487 137.353 35.4667 136.846 35.8196 136.312C36.2449 135.668 36.4522 135.036 36.1055 134.295C35.944 134.68 35.7269 135 35.4722 135.33C35.0956 135.844 34.8479 136.3 34.7899 136.96C34.3543 136.637 34.1629 136.155 33.93 135.688C33.5749 135.02 33.0019 134.461 32.3438 134.096C32.5186 134.846 32.6533 135.638 33.1174 136.275ZM36.262 138.567C36.1421 138.993 36.0388 139.417 36.0619 139.863C35.6914 139.464 35.1994 139.163 34.7605 138.842C34.1628 138.358 33.466 138.017 32.9773 137.402C33.0502 138.308 33.438 139.046 34.1742 139.598C34.9523 140.18 35.8909 140.493 36.6574 141.105C36.5426 140.281 36.8453 139.621 37.1034 138.863C37.3185 138.14 37.1103 137.405 36.6196 136.853C36.6269 137.465 36.434 137.99 36.262 138.567ZM38.0084 141.35C38.1696 141.975 38.6175 142.483 38.9234 143.041C38.0987 142.785 37.371 142.338 36.6255 141.917C35.7376 141.433 34.7734 141.126 33.9696 140.487C34.3696 141.968 35.3611 142.827 36.8115 143.265C37.8033 143.564 38.6391 143.415 39.8425 143.901C39.7045 143.087 39.4614 142.207 39.0762 141.473C38.7773 140.941 38.4458 140.418 38.2611 139.832C37.9937 140.313 37.8671 140.802 38.0084 141.35ZM41.043 143.616C41.3269 144.103 41.7017 144.512 42.1666 144.835C40.9959 144.909 40.0537 144.168 38.9124 144.135C38.2074 144.115 37.5381 144.334 36.8192 144.269C37.6724 144.844 38.5656 145.347 39.6043 145.481C40.9546 145.656 42.1999 145.316 43.6895 145.449C42.9934 144.958 42.6451 144.3 42.2111 143.593C41.6461 142.71 41.1128 142.081 40.0138 141.939C40.455 142.435 40.7118 143.049 41.043 143.616ZM45.2007 145.559C43.1383 145.91 41.1619 146.364 39.0555 146.385C41.4133 147.207 43.6349 147.355 45.9733 146.506C47.2371 146.048 48.206 145.802 49.1605 145.871C50.5553 145.971 52.2504 146.521 54.1264 148.5L54.8638 147.91C52.175 145.514 48.657 144.971 45.2008 145.559L45.2007 145.559Z" fill="#FFC72C"/>
<path d="M35.0665 17.5849L31.8213 15.5948V10.811L35.0665 8.821V6.28975L38.1332 4.44295H40.5832L45.245 1.8208H55.253L59.9149 4.44295H62.365L65.4317 6.28975V8.821L68.6768 10.811L68.6767 15.5948L65.4317 17.5849V20.1161L62.365 21.9629H59.9149L55.253 24.5851H45.245L40.5832 21.9629H38.1332L35.0665 20.1161V17.5849Z" fill="#383739"/>
<path d="M45.2665 1.93311L40.6056 4.55493H38.1693L35.1767 6.35577V8.8849L31.9326 10.8711V15.5321L35.1767 17.5184V20.0607L38.156 21.8616H40.6056L45.2665 24.4834H55.224L59.8848 21.8616H62.3345L65.327 20.0607V17.5184L68.5711 15.5321V10.8711L65.327 8.8849V6.35577L62.3345 4.55493H59.8848L55.224 1.93311H45.2665ZM45.5446 2.89974H54.9591L59.62 5.52156H62.0564L64.3207 6.88544V9.41457L67.578 11.4008V15.0025L64.3207 16.9887V19.5179L62.0564 20.8817H59.62L54.9591 23.5036H45.5446L40.8837 20.8817H38.4473L36.1698 19.5179V16.9887L32.9257 15.0025V11.4008L36.1698 9.41457V6.88544L38.4473 5.52156H40.8837L45.5446 2.89974Z" fill="#00843D"/>
<path d="M50.1957 13.256V3.00391H45.5693L40.9073 5.62606H38.4769L36.2782 6.95011V9.47521L33.0332 11.4651V13.149L50.303 13.1488V23.4012H54.9294L59.5913 20.7791H62.0218L64.2203 19.455V16.9301L67.4655 14.94V13.2561L50.1957 13.256Z" fill="#FFC72C"/>
<path d="M33.0324 13.2561L33.0322 14.94L36.2774 16.9301V19.455L38.4759 20.7791H40.9065L45.5684 23.4012H50.1949V13.1488L67.4647 13.149V11.4651L64.2195 9.47521V6.95011L62.021 5.62606H59.5904L54.9285 3.00391H50.3022V13.256L33.0324 13.2561Z" fill="white"/>
<path d="M40.1106 6.57028L39.3117 5.82568L38.5202 6.31378L39.3204 7.05988L38.293 7.69648H40.5351L42.4674 9.51914L43.0855 8.86634L41.2068 7.09408V5.89108L40.1106 6.57028Z" fill="#383739"/>
<path d="M43.8929 6.24314L43.094 5.49854L42.3024 5.98664L43.1027 6.73274L42.0752 7.36934H44.3173L46.2496 9.19199L46.8677 8.53919L44.989 6.76694V5.56394L43.8929 6.24314Z" fill="#383739"/>
<path d="M39.8341 8.70944L39.0352 7.96484L38.2438 8.45294L39.0439 9.19904L38.0166 9.83564H40.2587L42.1909 11.6583L42.809 11.0055L40.9303 9.23324V8.03024L39.8341 8.70944Z" fill="#383739"/>
<path d="M50.2479 2.89746H48.2247L47.166 3.91776H45.1022L43.5771 4.70931L43.9328 5.57586L45.2928 4.86156H45.8885L47.9737 7.27326L50.2479 5.88831L50.2479 2.89746Z" fill="#383739"/>
<path d="M39.2995 5.95996L40.0173 6.62911L39.4159 7.00171L38.6969 6.33151L39.2995 5.95996ZM41.1008 6.08371V7.14046L42.9351 8.87086L42.4641 9.36826L40.5788 7.58971H38.6699L41.1008 6.08371Z" fill="#D22630"/>
<path d="M43.0797 5.63281L43.7976 6.30196L43.1961 6.67456L42.4773 6.00436L43.0797 5.63281ZM44.881 5.75656V6.81331L46.7154 8.54371L46.2444 9.04111L44.3591 7.26271H42.4502L44.881 5.75656Z" fill="#D22630"/>
<path d="M39.0223 8.09863L39.74 8.76778L39.1385 9.14038L38.4197 8.47018L39.0223 8.09863ZM40.8234 8.22238V9.27913L42.6577 11.0095L42.1869 11.5069L40.3016 9.72853H38.3926L40.8234 8.22238Z" fill="#D22630"/>
<path d="M50.195 3.00439H48.2685L47.2098 4.02469H45.1289L43.7139 4.75909L43.9876 5.42629L45.2668 4.75459H45.938L47.996 7.1348L50.195 5.79575L50.195 3.00439Z" fill="#D22630"/>
<path d="M40.1106 19.836L39.3117 20.5806L38.5202 20.0925L39.3204 19.3464L38.293 18.7098H40.5351L42.4674 16.8871L43.0855 17.5399L41.2068 19.3122V20.5152L40.1106 19.836Z" fill="#383739"/>
<path d="M43.8929 20.1631L43.094 20.9077L42.3024 20.4196L43.1027 19.6735L42.0752 19.0369H44.3173L46.2496 17.2143L46.8677 17.8671L44.989 19.6393V20.8423L43.8929 20.1631Z" fill="#383739"/>
<path d="M39.8341 17.6968L39.0352 18.4414L38.2438 17.9533L39.0439 17.2072L38.0166 16.5706H40.2587L42.1909 14.748L42.809 15.4008L40.9303 17.173V18.376L39.8341 17.6968Z" fill="#383739"/>
<path d="M50.2479 23.5088H48.2247L47.166 22.4885H45.1022L43.5771 21.6969L43.9328 20.8304L45.2928 21.5447H45.8885L47.9737 19.133L50.2479 20.5179L50.2479 23.5088Z" fill="#383739"/>
<path d="M39.2995 20.4463L40.0173 19.7771L39.4159 19.4045L38.6969 20.0747L39.2995 20.4463ZM41.1008 20.3225V19.2658L42.9351 17.5354L42.4641 17.038L40.5788 18.8165H38.6699L41.1008 20.3225Z" fill="#D22630"/>
<path d="M43.0797 20.7734L43.7976 20.1043L43.1961 19.7317L42.4773 20.4019L43.0797 20.7734ZM44.881 20.6497V19.5929L46.7154 17.8625L46.2444 17.3651L44.3591 19.1435H42.4502L44.881 20.6497Z" fill="#D22630"/>
<path d="M39.0223 18.3076L39.74 17.6385L39.1385 17.2659L38.4197 17.9361L39.0223 18.3076ZM40.8234 18.1839V17.1271L42.6577 15.3967L42.1869 14.8993L40.3016 16.6777H38.3926L40.8234 18.1839Z" fill="#D22630"/>
<path d="M50.195 23.4019H48.2685L47.2098 22.3816H45.1289L43.7139 21.6472L43.9876 20.98L45.2668 21.6517H45.938L47.996 19.2715L50.195 20.6105L50.195 23.4019Z" fill="#D22630"/>
<path d="M38.7634 9.92783L37.7988 9.56738L37.7757 9.58343L36.5301 10.4477V10.6801L34.5352 13.2029L36.5301 15.7258V15.9583L37.7988 16.8385L38.7634 16.478L38.1747 16.0882V15.3464L38.4087 15.0665H39.454V11.3393H38.4087L38.1747 11.0594V10.3177L38.7634 9.92783Z" fill="#383739"/>
<path d="M36.6365 10.5038L37.813 9.6875L38.5285 9.9548L38.0668 10.2605V11.0985L38.3578 11.4465H39.346V14.9598H38.3578L38.0668 15.3078V16.1459L38.5285 16.4516L37.813 16.7189L36.6365 15.9026L36.6366 15.6888L34.6709 13.2032L36.6366 10.7174L36.6365 10.5038Z" fill="#D22630"/>
<path d="M60.3864 6.57028L61.1853 5.82568L61.9769 6.31378L61.1766 7.05988L62.2041 7.69648H59.962L58.0297 9.51914L57.4116 8.86634L59.2903 7.09408V5.89108L60.3864 6.57028Z" fill="#383739"/>
<path d="M56.6042 6.24314L57.4031 5.49854L58.1946 5.98664L57.3944 6.73274L58.4219 7.36934H56.1797L54.2475 9.19199L53.6293 8.53919L55.508 6.76694V5.56394L56.6042 6.24314Z" fill="#383739"/>
<path d="M60.663 8.70944L61.4618 7.96484L62.2532 8.45294L61.4531 9.19904L62.4805 9.83564H60.2383L58.3062 11.6583L57.6881 11.0055L59.5668 9.23324V8.03024L60.663 8.70944Z" fill="#383739"/>
<path d="M50.2492 2.89746H52.2724L53.3311 3.91776H55.3949L56.9199 4.70931L56.5643 5.57586L55.2043 4.86156H54.6086L52.5234 7.27326L50.2491 5.88831L50.2492 2.89746Z" fill="#383739"/>
<path d="M61.1976 5.95996L60.4797 6.62911L61.0812 7.00171L61.8002 6.33151L61.1976 5.95996ZM59.3963 6.08371V7.14046L57.562 8.87086L58.033 9.36826L59.9183 7.58971H61.8271L59.3963 6.08371Z" fill="#D22630"/>
<path d="M57.4173 5.63281L56.6995 6.30196L57.3009 6.67456L58.0197 6.00436L57.4173 5.63281ZM55.616 5.75656V6.81331L53.7817 8.54371L54.2527 9.04111L56.138 7.26271H58.0469L55.616 5.75656Z" fill="#D22630"/>
<path d="M61.4748 8.09863L60.7571 8.76778L61.3586 9.14038L62.0773 8.47018L61.4748 8.09863ZM59.6736 8.22238V9.27913L57.8393 11.0095L58.3102 11.5069L60.1955 9.72853H62.1045L59.6736 8.22238Z" fill="#D22630"/>
<path d="M50.3021 3.00439H52.2286L53.2872 4.02469H55.3681L56.7832 4.75909L56.5095 5.42629L55.2303 4.75459H54.559L52.5011 7.1348L50.3021 5.79575L50.3021 3.00439Z" fill="#D22630"/>
<path d="M60.3864 19.836L61.1853 20.5806L61.9769 20.0925L61.1766 19.3464L62.2041 18.7098H59.962L58.0297 16.8871L57.4116 17.5399L59.2903 19.3122V20.5152L60.3864 19.836Z" fill="#383739"/>
<path d="M56.6042 20.1631L57.4031 20.9077L58.1946 20.4196L57.3944 19.6735L58.4219 19.0369H56.1797L54.2475 17.2143L53.6293 17.8671L55.508 19.6393V20.8423L56.6042 20.1631Z" fill="#383739"/>
<path d="M60.663 17.6968L61.4618 18.4414L62.2532 17.9533L61.4531 17.2072L62.4805 16.5706H60.2383L58.3062 14.748L57.6881 15.4008L59.5668 17.173V18.376L60.663 17.6968Z" fill="#383739"/>
<path d="M50.2492 23.5088H52.2724L53.3311 22.4885H55.3949L56.9199 21.6969L56.5643 20.8304L55.2043 21.5447H54.6086L52.5234 19.133L50.2491 20.5179L50.2492 23.5088Z" fill="#383739"/>
<path d="M61.1976 20.4463L60.4797 19.7771L61.0812 19.4045L61.8002 20.0747L61.1976 20.4463ZM59.3963 20.3225V19.2658L57.562 17.5354L58.033 17.038L59.9183 18.8165H61.8271L59.3963 20.3225Z" fill="#D22630"/>
<path d="M57.4173 20.7734L56.6995 20.1043L57.3009 19.7317L58.0197 20.4019L57.4173 20.7734ZM55.616 20.6497V19.5929L53.7817 17.8625L54.2527 17.3651L56.138 19.1435H58.0469L55.616 20.6497Z" fill="#D22630"/>
<path d="M61.4748 18.3076L60.7571 17.6385L61.3586 17.2659L62.0773 17.9361L61.4748 18.3076ZM59.6736 18.1839V17.1271L57.8393 15.3967L58.3102 14.8993L60.1955 16.6777H62.1045L59.6736 18.1839Z" fill="#D22630"/>
<path d="M50.3021 23.4019H52.2286L53.2872 22.3816H55.3681L56.7832 21.6472L56.5095 20.98L55.2303 21.6517H54.559L52.5011 19.2715L50.3021 20.6105L50.3021 23.4019Z" fill="#D22630"/>
<path d="M61.7346 9.92783L62.6993 9.56738L62.7224 9.58343L63.9679 10.4477V10.6801L65.9629 13.2029L63.9679 15.7258V15.9583L62.6993 16.8385L61.7346 16.478L62.3234 16.0882V15.3464L62.0894 15.0665H61.044V11.3393H62.0894L62.3234 11.0594V10.3177L61.7346 9.92783Z" fill="#383739"/>
<path d="M63.8616 10.5038L62.685 9.6875L61.9695 9.9548L62.4312 10.2605V11.0985L62.1402 11.4465H61.152V14.9598H62.1402L62.4312 15.3078V16.1459L61.9695 16.4516L62.685 16.7189L63.8616 15.9026L63.8614 15.6888L65.8271 13.2032L63.8614 10.7174L63.8616 10.5038Z" fill="#D22630"/>
<path d="M37.0501 15.3208L36.507 14.8508V14.6243L35.3418 13.2031L36.5071 11.7817V11.5553L37.0503 11.0854L38.0258 11.8787L37.4628 11.8744L38.2948 12.7189H40.196L41.6912 11.5496V8.46606H45.4307L49.7737 5.80086V5.10186L49.1096 4.65921H48.8991L48.1758 5.14326L48.0638 5.50431L47.498 4.73181L48.5976 3.80796H48.7734L50.0143 2.89746H50.4822L51.7229 3.80796H51.8989L52.9985 4.73181L52.4327 5.50431L52.3207 5.14326L51.5974 4.65921H51.387L50.7228 5.10186V5.80086L55.0658 8.46606H58.8053V11.5496L60.3005 12.7189H62.2017L63.0338 11.8744L62.4707 11.8787L63.4463 11.0854L63.9894 11.5553V11.7817L65.1547 13.2031L63.9894 14.6243V14.8508L63.4463 15.3208L62.4707 14.5274L63.0338 14.5318L62.2017 13.6871H60.3005L58.8053 14.8565V17.9401H55.0658L50.7228 20.6053V21.3043L51.387 21.7469H51.5974L52.3207 21.2629L52.4327 20.9018L52.9985 21.6742L51.8989 22.5982H51.7229L50.4822 23.5087H50.0143L48.7734 22.5982H48.5976L47.4978 21.6742L48.0638 20.9018L48.1758 21.2629L48.899 21.7469H49.1094L49.7737 21.3043V20.6053L45.4307 17.9401H41.6912V14.8565L40.1958 13.6871H38.2948L37.4628 14.5318L38.0258 14.5274L37.0501 15.3208Z" fill="#383739"/>
<path d="M50.3023 21.8295L50.7776 22.193L50.3023 22.5564V21.8295ZM48.7913 22.4906H48.8089L50.0498 23.4012H50.1947V22.6908L49.5437 22.193L50.1949 21.6951V20.3607L45.5477 17.5088H42.1123V14.6432L40.3386 13.256H37.6632L36.9908 14.0163L36.3183 13.256L35.5244 13.2561L36.6143 14.5854V14.8013L37.046 15.1763L37.7396 14.6363L37.3325 14.6394V14.5044L38.2397 13.5797H40.2331L41.7986 14.804V17.8326H45.4614L49.8811 20.5449V21.3609L49.1422 21.8534H48.8666L48.085 21.3302L48.0249 21.1361L47.6437 21.6563L48.637 22.4906L48.7913 22.4906ZM36.9914 12.5505L37.5209 13.149H36.4618L36.9914 12.5505ZM50.195 3.84871L49.72 4.21216L50.195 4.57546V3.84871ZM62.9765 13.2561L63.506 13.8546L64.0355 13.2561H62.9765ZM51.6882 3.91441L50.4473 3.00391H50.3024V3.71401L50.9537 4.21216L50.3023 4.71031V6.04441L54.9495 8.89636H58.3848V11.762L60.1585 13.1492H62.8334L63.506 12.389L64.1786 13.149H64.9727L63.8828 11.8197V11.6039L63.4511 11.2289L62.7575 11.7689L63.1646 11.7656V11.9007L62.2574 12.8253H60.264L58.6986 11.601V8.57251H55.0357L50.616 5.86021V5.04406L51.3549 4.55176H51.6305L52.4121 5.07496L52.4723 5.26906L52.8534 4.74886L51.8601 3.91441L51.6882 3.91441Z" fill="#FFC72C"/>
<path d="M50.1947 22.5563L49.7197 22.193L50.1947 21.8297V22.5563ZM37.5206 13.2561L36.9911 13.8546L36.4616 13.2561H37.5206ZM51.7055 22.4906H51.6879L50.447 23.4012H50.3021V23.2152V22.6911L50.9534 22.193L50.3019 21.6948V20.3607L54.9491 17.5088H58.3845V14.6432L60.1582 13.256H62.8333L63.5057 14.0163L64.1782 13.256L64.9724 13.2561L63.8825 14.5854V14.8013L63.4508 15.1763L62.7572 14.6363L63.1643 14.6394V14.5044L62.2571 13.5797H60.2637L58.6983 14.804V17.8326H55.0354L50.6157 20.5449V21.3609L51.3546 21.8534H51.6302L52.4118 21.3302L52.4719 21.1361L52.8531 21.6563L51.8598 22.4906L51.7055 22.4906ZM63.5057 12.5505L62.9762 13.149H64.0354L63.5057 12.5505ZM48.8089 3.91441L50.0498 3.00391H50.1948V3.71401L49.5434 4.21216L50.1948 4.71031L50.195 6.04441L45.5476 8.89636H42.1124V11.762L40.3386 13.1492H37.6629L36.9905 12.389L36.3179 13.149H35.5244L36.6144 11.8197V11.6039L37.0461 11.2289L37.7396 11.7689L37.3325 11.7656V11.9007L38.2398 12.8253H40.2331L41.7986 11.601V8.57251H45.4614L49.8812 5.86021V5.04406L49.1423 4.55176H48.8666L48.085 5.07496L48.0248 5.26906L47.6439 4.74886L48.6371 3.91441L48.8089 3.91441ZM50.3019 4.57561L50.7773 4.21216L50.3019 3.84871V4.57561Z" fill="white"/>
<path d="M50.1953 13.2561V6.16992L45.5782 9.00342H42.2197V11.8141L40.5127 13.1491L50.3025 13.149V20.2353L54.9193 17.4019H58.2779V14.5912L59.9848 13.2562L50.1953 13.2561Z" fill="#00843D"/>
<path d="M40.5127 13.2561L42.2198 14.5911V17.4018H45.5782L50.1954 20.2353V13.1488L59.985 13.149L58.278 11.814V9.00327H54.9194L50.3027 6.16992V13.256L40.5127 13.2561Z" fill="#D22630"/>
<path d="M45.2794 9.76608L44.4807 9.02148L43.6892 9.50943L44.4894 10.2555L43.4619 10.8921H45.7041L47.6363 12.7149L48.2545 12.062L46.3757 10.2897V9.08688L45.2794 9.76608Z" fill="#383739"/>
<path d="M55.218 16.6398L56.0169 17.3844L56.8083 16.8963L56.0082 16.1502L57.0357 15.5137H54.7934L52.8613 13.6909L52.2432 14.3437L54.1219 16.1161V17.319L55.218 16.6398Z" fill="#383739"/>
<path d="M45.2794 16.6398L44.4805 17.3844L43.6892 16.8963L44.4892 16.1502L43.4619 15.5137H45.7041L47.6362 13.6909L48.2543 14.3437L46.3756 16.1161V17.319L45.2794 16.6398Z" fill="#383739"/>
<path d="M55.218 9.76608L56.0169 9.02148L56.8083 9.50943L56.0082 10.2555L57.0357 10.8921H54.7934L52.8613 12.7149L52.2432 12.062L54.1219 10.2897V9.08688L55.218 9.76608Z" fill="#383739"/>
<path d="M56.0301 17.2506L55.3123 16.5815L55.9138 16.2089L56.6326 16.8791L56.0301 17.2506ZM54.2289 17.1269V16.0703L52.3946 14.3399L52.8656 13.8424L54.7509 15.6209H56.6598L54.2289 17.1269ZM44.4674 9.15527L45.1853 9.82442L44.5837 10.1972L43.8649 9.52697L44.4674 9.15527ZM46.2687 9.27917V10.3358L48.1031 12.0662L47.6321 12.5637L45.7467 10.7852H43.8379L46.2687 9.27917Z" fill="#D22630"/>
<path d="M56.0292 9.15527L55.3115 9.82442L55.913 10.1972L56.6318 9.52697L56.0292 9.15527ZM54.2281 9.27917V10.3358L52.3938 12.0662L52.8648 12.5637L54.7501 10.7852H56.6589L54.2281 9.27917ZM44.4666 17.2506L45.1843 16.5815L44.5828 16.2089L43.8641 16.8791L44.4666 17.2506ZM46.2678 17.1269V16.0703L48.1021 14.3399L47.6312 13.8424L45.7459 15.6209H43.8369L46.2678 17.1269Z" fill="#00843D"/>
<path d="M55.2135 13.203L50.2488 16.5118L45.2842 13.203L50.2488 9.89404L55.2135 13.203Z" fill="#383739"/>
<path d="M50.1945 10.0586L45.5568 13.1496H54.9395L50.3018 10.0586V16.3478L54.9397 13.2567H45.5566L50.1945 16.3478V10.0586Z" fill="white"/>
<path d="M51.5766 14.3408V15.2506H48.9215V14.3408H47.2031V12.065H48.9215V11.1553H51.5766V12.065H53.2948V14.3408H51.5766Z" fill="#383739"/>
<path d="M49.0288 11.2622V12.172H47.3106V13.1494H50.1956V11.2622L49.0288 11.2622ZM50.3028 13.1494H53.1879V12.172H51.4697V11.2622H50.3028L50.3028 13.1494ZM47.3105 13.2565V14.2339H49.0288V15.1436H50.1956V13.2565L47.3105 13.2565ZM50.3028 15.1436H51.4697V14.2339H53.1879V13.2565H50.3028V15.1436Z" fill="#D22630"/>
<path d="M58.7185 50.9024V49.4448H62.7155V47.9873H66.7124V34.817H62.7155V33.3594H58.7185V31.9019H54.7215V30.4443H45.7762V31.9019H41.7792V33.3594H37.7821V34.817H33.7852V47.9873H37.7821V49.4448H41.7792V50.9024H45.7762V52.3599H54.7215V50.9024H58.7185Z" fill="#383739"/>
<path d="M45.8893 30.5479V32.0044H41.8903V33.461H37.8915V34.9175H33.8926V47.881H37.8915V49.3378H41.8903V50.7941H45.8893V52.2505H54.6149V50.7941H58.614V49.3378H62.6131V47.881H66.6117V34.9175H62.6131V33.461H58.614V32.0044H54.6149V30.5479H45.8893ZM46.9486 31.6072H53.5556V33.0637H57.5547V34.5203H61.5537V35.9768H65.5524V46.8217H61.5537V48.2784H57.5547V49.7348H53.5556V51.1911H46.9486V49.7348H42.9496V48.2784H38.9508V46.8217H34.9519V35.9768H38.9508V34.5203H42.9496V33.0637H46.9486V31.6072Z" fill="#FFC72C"/>
<path d="M43.0517 49.6295V48.1718H39.0547V46.7144H35.0576V36.0893H39.0547V34.6317H43.0517V33.1742H47.0487V31.7168H53.4487V33.1742H57.4458V34.6317H61.4426V36.0893H65.4398V46.7144H61.4426V48.1718H57.4458V49.6295H53.4487V51.0869H47.0487V49.6295H43.0517Z" fill="#D22630"/>
<path d="M43.9799 34.2534L42.9446 33.4708V34.9735L41.9533 35.6035L41.9507 34.6629L40.9999 35.517L40.0491 34.6629L40.0465 35.6035L38.9479 34.9054V36.2986L38.0601 36.9414L38.0576 36.0871L37.0028 36.8511L35.9481 36.0871L35.9456 36.9414L34.9506 36.2211V40.4415H33.7852V42.3625H34.9506V46.5829L35.9456 45.8625L35.9481 46.7169L37.0028 45.9529L38.0575 46.7169L38.06 45.8625L38.9478 46.5052V47.8986L40.0464 47.2005L40.049 48.1411L40.9998 47.287L41.9506 48.1411L41.9532 47.2005L42.9445 47.8303V49.3332L43.9798 48.5506L43.982 49.6002L44.9966 48.6928L46.0113 49.6002L46.0136 48.5506L46.9418 49.2522V50.8549L48.3295 49.59V51.0765L50.2489 49.8424L52.1684 51.0765V49.59L53.5562 50.8549V49.2522L54.4842 48.5506L54.4865 49.6002L55.5012 48.6928L56.5159 49.6002L56.5182 48.5506L57.5531 49.3332V47.8303L58.5448 47.2005L58.5473 48.1411L59.4983 47.287L60.4491 48.1411L60.4516 47.2005L61.5503 47.8986V46.5052L62.4381 45.8625L62.4406 46.7169L63.4953 45.9529L64.55 46.7169L64.5525 45.8625L65.5475 46.5828V42.3625H66.7129V40.4415H65.5475V36.2211L64.5525 36.9414L64.55 36.0871L63.4953 36.8511L62.4405 36.0871L62.4382 36.9414L61.5504 36.2986V34.9054L60.4517 35.6035L60.4492 34.6629L59.4984 35.517L58.5474 34.6629L58.5449 35.6035L57.5532 34.9734V33.4708L56.5183 34.2532L56.516 33.2037L55.5013 34.1112L54.4866 33.2037L54.4843 34.2534L53.5563 33.5515V31.9491L52.1685 33.214V31.7275L50.249 32.9616L48.3296 31.7275V33.214L46.9419 31.9491V33.5517L46.0137 34.2534L46.0114 33.2037L44.9967 34.1112L43.9821 33.2037L43.9799 34.2534Z" fill="#383739"/>
<path d="M36.0525 37.1513L36.055 36.2969L37.0032 36.9837L37.0351 36.9605L37.9513 36.2969L37.9538 37.1513L38.9483 36.4314V46.3734L37.9538 45.6536L37.9513 46.508L37.0032 45.8211L36.055 46.508L36.0525 45.6536L35.0581 46.3734V42.2558H33.8926V40.5491H35.0581V36.4314L36.0525 37.1513Z" fill="#00843D"/>
<path d="M44.0894 33.4434L44.9975 34.2555L45.9056 33.4434L45.9078 34.4689L46.9425 33.6867V49.1185L45.9078 48.3363L45.9056 49.3618L44.9975 48.5497L44.0894 49.3618L44.0874 48.3363L43.0527 49.1185V33.6867L44.0874 34.4689L44.0894 33.4434Z" fill="#00843D"/>
<path d="M56.4096 33.4434L55.5015 34.2555L54.5934 33.4434L54.5912 34.4689L53.5566 33.6867V49.1185L54.5912 48.3363L54.5934 49.3618L55.5015 48.5497L56.4096 49.3618L56.4118 48.3363L57.4465 49.1185V33.6867L56.4118 34.4689L56.4096 33.4434Z" fill="#00843D"/>
<path d="M64.4455 37.1513L64.443 36.2969L63.4949 36.9837L63.4628 36.9605L62.5466 36.2969L62.5441 37.1513L61.5498 36.4314V46.3734L62.5441 45.6536L62.5466 46.508L63.4949 45.8211L64.443 46.508L64.4455 45.6536L65.4399 46.3734V42.2558H66.6053V40.5491H65.4399V36.4314L64.4455 37.1513Z" fill="#00843D"/>
<path d="M40.1563 34.9023L41.0006 35.6609L41.845 34.9023L41.8475 35.7981L42.9456 35.1002V47.7033L41.8475 47.0055L41.845 47.9012L41.0006 47.1428L40.1563 47.9012L40.1538 47.0055L39.0557 47.7033V35.1002L40.1538 35.7981L40.1563 34.9023Z" fill="#FFC72C"/>
<path d="M48.4376 33.4567L47.0498 32.1917V50.6123L48.4376 49.3474V50.8802L50.2497 49.7152H50.25L52.0621 50.8802V49.3474L53.4499 50.6123V32.1917L52.0621 33.4567V31.9238L50.25 33.0889H50.2497L48.4376 31.9238V33.4567Z" fill="#FFC72C"/>
<path d="M60.3431 34.9023L59.4987 35.6609L58.6542 34.9023L58.652 35.7981L57.5537 35.1002V47.7033L58.652 47.0055L58.6542 47.9012L59.4987 47.1428L60.3431 47.9012L60.3456 47.0055L61.4437 47.7033V35.1002L60.3456 35.7981L60.3431 34.9023Z" fill="#FFC72C"/>
<path d="M36.5728 39.5917C36.6942 39.7141 36.8392 39.776 37.0039 39.776C37.1684 39.776 37.3135 39.7141 37.435 39.5917C37.8146 39.2092 37.8274 38.5174 37.8236 38.0195C37.8236 38.0195 37.3847 38.4833 37.3055 38.567C37.2503 38.4716 37.0039 38.0461 37.0039 38.0461C37.0039 38.0461 36.7575 38.4716 36.7021 38.567C36.6229 38.4833 36.184 38.0195 36.184 38.0195C36.1803 38.5174 36.1932 39.2092 36.5728 39.5917Z" fill="#383739"/>
<path d="M40.7417 38.5197L40.4219 38.2002V37.5636L39.6875 38.2443L41.0003 39.5571L42.313 38.2443L41.5787 37.5636V38.2002L41.259 38.5197V37.3919L41.8253 36.9057L41.0003 36.1973L40.1753 36.9057L40.7417 37.3919V38.5197Z" fill="#383739"/>
<path d="M44.7386 37.2551L44.419 36.9354V36.2988L43.6846 36.9795L44.9973 38.2923L46.3101 36.9795L45.5757 36.2988V36.9354L45.2559 37.2551V36.1271L45.8223 35.6409L44.9973 34.9326L44.1724 35.6409L44.7386 36.1271V37.2551Z" fill="#383739"/>
<path d="M37.0039 38.2598C37.0694 38.3729 37.2847 38.7447 37.2847 38.7447C37.2847 38.7447 37.588 38.424 37.7119 38.2934C37.697 38.8556 37.5736 39.2997 37.3589 39.5159C37.2583 39.6173 37.1389 39.6687 37.0039 39.6687C36.8687 39.6687 36.7493 39.6173 36.6488 39.516C36.4342 39.2997 36.3107 38.8556 36.2959 38.2934C36.4196 38.4242 36.7229 38.7447 36.7229 38.7447C36.8165 38.583 36.9103 38.4213 37.0039 38.2598Z" fill="white"/>
<path d="M45.1498 36.0783V37.5141L45.6838 36.9803V36.5447L46.1565 36.983L44.9983 38.1413L43.8398 36.983L44.3126 36.5447V36.9803L44.8466 37.5141V36.0783L44.3377 35.6414L44.9983 35.0742L45.6587 35.6414L45.1498 36.0783Z" fill="white"/>
<path d="M41.1527 37.343V38.7788L41.6867 38.2448V37.8093L42.1595 38.2475L41.0011 39.4059L39.8428 38.2475L40.3156 37.8093V38.2448L40.8496 38.7788V37.343L40.3406 36.906L41.0011 36.3389L41.6616 36.906L41.1527 37.343Z" fill="#D22630"/>
<path d="M63.9272 39.5917C63.8058 39.7141 63.6608 39.776 63.4961 39.776C63.3316 39.776 63.1865 39.7141 63.065 39.5917C62.6854 39.2092 62.6726 38.5174 62.6764 38.0195C62.6764 38.0195 63.1153 38.4833 63.1945 38.567C63.2497 38.4716 63.4961 38.0461 63.4961 38.0461C63.4961 38.0461 63.7425 38.4716 63.7979 38.567C63.8771 38.4833 64.316 38.0195 64.316 38.0195C64.3197 38.5174 64.3068 39.2092 63.9272 39.5917Z" fill="#383739"/>
<path d="M59.7583 38.5197L60.0781 38.2002V37.5636L60.8125 38.2443L59.4997 39.5571L58.187 38.2443L58.9213 37.5636V38.2002L59.241 38.5197V37.3919L58.6747 36.9057L59.4997 36.1973L60.3247 36.9057L59.7583 37.3919V38.5197Z" fill="#383739"/>
<path d="M55.7614 37.2551L56.081 36.9354V36.2988L56.8154 36.9795L55.5027 38.2923L54.1899 36.9795L54.9243 36.2988V36.9354L55.2441 37.2551V36.1271L54.6777 35.6409L55.5027 34.9326L56.3276 35.6409L55.7614 36.1271V37.2551Z" fill="#383739"/>
<path d="M63.4961 38.2598C63.4306 38.3729 63.2153 38.7447 63.2153 38.7447C63.2153 38.7447 62.912 38.424 62.7881 38.2934C62.803 38.8556 62.9264 39.2997 63.1411 39.5159C63.2417 39.6173 63.3611 39.6687 63.4961 39.6687C63.6313 39.6687 63.7507 39.6173 63.8512 39.516C64.0658 39.2997 64.1893 38.8556 64.2041 38.2934C64.0804 38.4242 63.7771 38.7447 63.7771 38.7447C63.6835 38.583 63.5897 38.4213 63.4961 38.2598Z" fill="white"/>
<path d="M55.3502 36.0783V37.5141L54.8162 36.9803V36.5447L54.3435 36.983L55.5017 38.1413L56.6602 36.983L56.1874 36.5447V36.9803L55.6534 37.5141V36.0783L56.1623 35.6414L55.5017 35.0742L54.8413 35.6414L55.3502 36.0783Z" fill="white"/>
<path d="M59.3473 37.343V38.7788L58.8133 38.2448V37.8093L58.3405 38.2475L59.4989 39.4059L60.6572 38.2475L60.1844 37.8093V38.2448L59.6504 38.7788V37.343L60.1594 36.906L59.4989 36.3389L58.8384 36.906L59.3473 37.343Z" fill="#D22630"/>
<path d="M51.8204 37.7344L51.3903 37.1401L52.4931 36.1221L51.4649 35.2773V35.8758L51.0348 36.2437V35.1582L52.0062 34.4422L50.249 33.147L48.4918 34.4422L49.4633 35.1582V36.2437L49.0333 35.8758V35.2773L48.0049 36.1221L49.1078 37.1401L48.6778 37.7344H51.8204Z" fill="#383739"/>
<path d="M48.8885 37.6274L49.2512 37.126L48.1689 36.127L48.9269 35.5042V35.9252L49.5713 36.4766V35.1041L48.6732 34.4423L50.2499 33.2803L51.8265 34.4423L50.9286 35.1041V36.4766L51.5728 35.9252V35.5042L52.3309 36.127L51.2487 37.126L51.6115 37.6274H48.8885Z" fill="#D22630"/>
<path d="M49.4463 34.4425L50.2492 35.0342L51.0523 34.4425L50.2492 33.8506L50.2174 33.8741L49.4463 34.4425Z" fill="#383739"/>
<path d="M50.2493 33.9834C50.3024 34.0224 50.7779 34.3729 50.8718 34.4421C50.7779 34.5112 50.3024 34.8618 50.2493 34.9008C50.1963 34.8618 49.7207 34.5112 49.627 34.4421C49.7207 34.3729 50.1963 34.0224 50.2493 33.9834Z" fill="#00843D"/>
<path d="M36.5728 43.2125C36.6942 43.0901 36.8392 43.0282 37.0039 43.0282C37.1684 43.0282 37.3135 43.0901 37.435 43.2125C37.8146 43.595 37.8274 44.2868 37.8236 44.7847C37.8236 44.7847 37.3847 44.3209 37.3055 44.2372C37.2503 44.3326 37.0039 44.7581 37.0039 44.7581C37.0039 44.7581 36.7575 44.3326 36.7021 44.2372C36.6229 44.3209 36.184 44.7847 36.184 44.7847C36.1803 44.2868 36.1932 43.595 36.5728 43.2125Z" fill="#383739"/>
<path d="M40.7417 44.284L40.4219 44.6035V45.2401L39.6875 44.5594L41.0003 43.2466L42.313 44.5594L41.5787 45.2401V44.6035L41.259 44.284V45.4118L41.8253 45.898L41.0003 46.6064L40.1753 45.898L40.7417 45.4118V44.284Z" fill="#383739"/>
<path d="M44.7386 45.5491L44.419 45.8688V46.5054L43.6846 45.8247L44.9973 44.5119L46.3101 45.8247L45.5757 46.5054V45.8688L45.2559 45.5491V46.6771L45.8223 47.1633L44.9973 47.8716L44.1724 47.1633L44.7386 46.6771V45.5491Z" fill="#383739"/>
<path d="M37.0039 44.5444C37.0694 44.4313 37.2847 44.0595 37.2847 44.0595C37.2847 44.0595 37.588 44.3802 37.7119 44.5108C37.697 43.9486 37.5736 43.5045 37.3589 43.2883C37.2583 43.1869 37.1389 43.1355 37.0039 43.1355C36.8687 43.1355 36.7493 43.1869 36.6488 43.2882C36.4342 43.5045 36.3107 43.9486 36.2959 44.5108C36.4196 44.38 36.7229 44.0595 36.7229 44.0595C36.8165 44.2212 36.9103 44.3829 37.0039 44.5444Z" fill="white"/>
<path d="M45.1498 46.7264V45.2906L45.6838 45.8244V46.26L46.1565 45.8217L44.9983 44.6634L43.8398 45.8217L44.3126 46.26V45.8244L44.8466 45.2906V46.7264L44.3377 47.1633L44.9983 47.7305L45.6587 47.1633L45.1498 46.7264Z" fill="white"/>
<path d="M41.1527 45.4612V44.0254L41.6867 44.5594V44.9949L42.1595 44.5567L41.0011 43.3983L39.8428 44.5567L40.3156 44.9949V44.5594L40.8496 44.0254V45.4612L40.3406 45.8982L41.0011 46.4653L41.6616 45.8982L41.1527 45.4612Z" fill="#D22630"/>
<path d="M63.9272 43.2125C63.8058 43.0901 63.6608 43.0282 63.4961 43.0282C63.3316 43.0282 63.1865 43.0901 63.065 43.2125C62.6854 43.595 62.6726 44.2868 62.6764 44.7847C62.6764 44.7847 63.1153 44.3209 63.1945 44.2372C63.2497 44.3326 63.4961 44.7581 63.4961 44.7581C63.4961 44.7581 63.7425 44.3326 63.7979 44.2372C63.8771 44.3209 64.316 44.7847 64.316 44.7847C64.3197 44.2868 64.3068 43.595 63.9272 43.2125Z" fill="#383739"/>
<path d="M59.7583 44.284L60.0781 44.6035V45.2401L60.8125 44.5594L59.4997 43.2466L58.187 44.5594L58.9213 45.2401V44.6035L59.241 44.284V45.4118L58.6747 45.898L59.4997 46.6064L60.3247 45.898L59.7583 45.4118V44.284Z" fill="#383739"/>
<path d="M55.7614 45.5491L56.081 45.8688V46.5054L56.8154 45.8247L55.5027 44.5119L54.1899 45.8247L54.9243 46.5054V45.8688L55.2441 45.5491V46.6771L54.6777 47.1633L55.5027 47.8716L56.3276 47.1633L55.7614 46.6771V45.5491Z" fill="#383739"/>
<path d="M63.4961 44.5444C63.4306 44.4313 63.2153 44.0595 63.2153 44.0595C63.2153 44.0595 62.912 44.3802 62.7881 44.5108C62.803 43.9486 62.9264 43.5045 63.1411 43.2883C63.2417 43.1869 63.3611 43.1355 63.4961 43.1355C63.6313 43.1355 63.7507 43.1869 63.8512 43.2882C64.0658 43.5045 64.1893 43.9486 64.2041 44.5108C64.0804 44.38 63.7771 44.0595 63.7771 44.0595C63.6835 44.2212 63.5897 44.3829 63.4961 44.5444Z" fill="white"/>
<path d="M55.3502 46.7264V45.2906L54.8162 45.8244V46.26L54.3435 45.8217L55.5017 44.6634L56.6602 45.8217L56.1874 46.26V45.8244L55.6534 45.2906V46.7264L56.1623 47.1633L55.5017 47.7305L54.8413 47.1633L55.3502 46.7264Z" fill="white"/>
<path d="M59.3473 45.4612V44.0254L58.8133 44.5594V44.9949L58.3405 44.5567L59.4989 43.3983L60.6572 44.5567L60.1844 44.9949V44.5594L59.6504 44.0254V45.4612L60.1594 45.8982L59.4989 46.4653L58.8384 45.8982L59.3473 45.4612Z" fill="#D22630"/>
<path d="M51.8204 45.0698L51.3903 45.6641L52.4931 46.6821L51.4649 47.5269V46.9284L51.0348 46.5605V47.646L52.0062 48.362L50.249 49.6572L48.4918 48.362L49.4633 47.646V46.5605L49.0333 46.9284V47.5269L48.0049 46.6821L49.1078 45.6641L48.6778 45.0698H51.8204Z" fill="#383739"/>
<path d="M48.8885 45.1768L49.2512 45.6782L48.1689 46.6772L48.9269 47.3V46.879L49.5713 46.3276V47.7001L48.6732 48.3619L50.2499 49.5239L51.8265 48.3619L50.9286 47.7001V46.3276L51.5728 46.879V47.3L52.3309 46.6772L51.2487 45.6782L51.6115 45.1768H48.8885Z" fill="#D22630"/>
<path d="M49.4463 48.3617L50.2492 47.77L51.0523 48.3617L50.2492 48.9536L50.2174 48.9301L49.4463 48.3617Z" fill="#383739"/>
<path d="M50.2493 48.8203C50.3024 48.7813 50.7779 48.4308 50.8718 48.3616C50.7779 48.2925 50.3024 47.9419 50.2493 47.9029C50.1963 47.9419 49.7207 48.2925 49.627 48.3616C49.7207 48.4308 50.1963 48.7813 50.2493 48.8203Z" fill="#00843D"/>
<path d="M64.4741 40.7876H62.7148V40.0864H57.3373L53.5938 37.6274H53.5779H46.9028L43.1595 40.0864H37.7818V40.7876H36.0225V42.017H37.7818V42.7183H43.1595L46.9028 45.1774H53.5938L57.3373 42.7183H62.7148V42.017H64.4741V40.7876Z" fill="#383739"/>
<path d="M46.9347 37.7383L43.1874 40.188H37.891V40.8898H36.1299V41.9094H37.891V42.6112H43.1874L46.9347 45.0741H53.5686L57.3026 42.6112H62.6123V41.9094H64.3734V40.8898H62.6123V40.188H57.3026L53.5686 37.7383H46.9347ZM47.0142 38.0958H53.4759L56.9054 40.3469V40.6911H60.7321V42.1212H56.9054V42.4655L53.4759 44.7033H47.0142L43.5979 42.4655V42.1212H39.758V40.6911H43.5979V40.3469L47.0142 38.0958Z" fill="#D22630"/>
<path d="M53.4495 38.2065L56.7942 40.4024V40.7921H60.627V42.0122H56.7942V42.402L53.4495 44.5979H47.0486L43.704 42.402V42.0122H39.8711V40.7921H43.704V40.4024L47.0486 38.2065H53.4495Z" fill="#D22630"/>
<path d="M45.3867 42.6494L46.8349 43.7366L47.7876 43.0212L47.2338 42.6054L46.8349 42.905L46.4944 42.6494L51.9482 38.5547H50.8406L45.3867 42.6494ZM48.5479 44.2496H49.6555L55.1094 40.1549L53.6613 39.0678L52.7085 39.783L53.2623 40.1987L53.6613 39.8991L54.0018 40.1549L48.5479 44.2496ZM50.8406 44.2496H51.948L46.4944 40.1549L46.8349 39.8991L47.2338 40.1987L47.7876 39.783L46.8349 39.0678L45.3867 40.1549L50.8406 44.2496ZM54.0018 42.6494L53.6613 42.905L53.2623 42.6054L52.7085 43.0212L53.6613 43.7366L55.1094 42.6494L49.6555 38.5547H48.5479L54.0018 42.6494Z" fill="#383739"/>
<path d="M44.29 41.4024L45.2634 42.0489L46.2367 41.4024L45.2634 40.7559L44.29 41.4024Z" fill="#383739"/>
<path d="M49.2754 41.4024L50.2487 42.0489L51.222 41.4024L50.2487 40.7559L49.2754 41.4024Z" fill="#383739"/>
<path d="M56.2064 41.4024L55.2331 42.0489L54.2598 41.4024L55.2331 40.7559L56.2064 41.4024Z" fill="#383739"/>
<path d="M54.9311 42.6496L53.6615 43.6028L52.8871 43.0214L53.2625 42.7396L53.6615 43.0391L54.1803 42.6496L48.8693 38.6621H49.62L54.9311 42.6496ZM51.6271 44.1425H50.8765L45.5654 40.1551L46.8352 39.2018L47.6093 39.7832L47.234 40.0649L46.8352 39.7654L46.3162 40.1551L51.6271 44.1425ZM49.62 44.1425H48.8693L54.1803 40.1551L53.6615 39.7654L53.2625 40.0649L52.8871 39.7832L53.6615 39.2018L54.9311 40.1551L49.62 44.1425ZM50.8765 38.6621H51.6271L46.3162 42.6496L46.8352 43.0391L47.234 42.7396L47.6093 43.0214L46.8352 43.6028L45.5654 42.6496L50.8765 38.6621Z" fill="#FFC72C"/>
<path d="M45.2631 40.8843L46.0428 41.4021L45.2631 41.9199L44.4834 41.4021L45.2631 40.8843Z" fill="#00843D"/>
<path d="M50.2483 40.8843L51.028 41.4021L50.2483 41.9199L49.4688 41.4021L50.2483 40.8843Z" fill="#00843D"/>
<path d="M55.2328 40.8843L54.4531 41.4021L55.2328 41.9199L56.0123 41.4021L55.2328 40.8843Z" fill="#00843D"/>
<path d="M33.1291 68.5375L32.7472 69.0776L33.4318 69.6011L32.7471 70.1248L33.129 70.6649L33.9244 70.7573L34.6946 70.1621L36.615 71.3821V70.369L35.4064 69.6011L36.615 68.8334V67.8203L34.6946 69.0403L33.9244 68.4452L33.1291 68.5375Z" fill="#383739"/>
<path d="M33.1291 65.0179L32.7472 65.5582L33.4318 66.0817L32.7471 66.6052L33.129 67.1455L33.9244 67.2378L34.6946 66.6426L36.615 67.8627V66.8494L35.4064 66.0817L36.615 65.3139V64.3008L34.6946 65.5207L33.9244 64.9257L33.1291 65.0179Z" fill="#383739"/>
<path d="M33.1291 74.1844L32.7472 73.6443L33.4318 73.1208L32.7471 72.5971L33.129 72.057L33.9244 71.9647L34.6946 72.5598L36.615 71.3398V72.3529L35.4064 73.1208L36.615 73.8885V74.9016L34.6946 73.6816L33.9244 74.2768L33.1291 74.1844Z" fill="#383739"/>
<path d="M67.3708 68.5375L67.7527 69.0776L67.0681 69.6011L67.7527 70.1248L67.3708 70.6649L66.5756 70.7573L65.8053 70.1621L63.8848 71.3821V70.369L65.0936 69.6011L63.8848 68.8334V67.8203L65.8053 69.0403L66.5756 68.4452L67.3708 68.5375Z" fill="#383739"/>
<path d="M67.3708 65.0179L67.7527 65.5582L67.0681 66.0817L67.7527 66.6052L67.3708 67.1455L66.5756 67.2378L65.8053 66.6426L63.8848 67.8627V66.8494L65.0936 66.0817L63.8848 65.3139V64.3008L65.8053 65.5207L66.5756 64.9257L67.3708 65.0179Z" fill="#383739"/>
<path d="M67.3708 74.1844L67.7527 73.6443L67.0681 73.1208L67.7527 72.5971L67.3708 72.057L66.5756 71.9647L65.8053 72.5598L63.8848 71.3398V72.3529L65.0936 73.1208L63.8848 73.8885V74.9016L65.8053 73.6816L66.5756 74.2768L67.3708 74.1844Z" fill="#383739"/>
<path d="M59.6816 58.9326V60.3966H60.7465V61.0436H61.7925V59.8655H60.8596V58.9326H59.6816Z" fill="#383739"/>
<path d="M62.8213 61.2412V62.7051H63.8851V63.3522H64.9322V62.1741H63.9994V61.2412H62.8213Z" fill="#383739"/>
<path d="M40.8179 58.9326V60.3966H39.7528V61.0436H38.707V59.8655H39.6399V58.9326H40.8179Z" fill="#383739"/>
<path d="M59.6816 80.2706V78.8066H60.7465V78.1597H61.7925V79.3376H60.8596V80.2706H59.6816Z" fill="#383739"/>
<path d="M40.8179 80.2706V78.8066H39.7528V78.1597H38.707V79.3376H39.6399V80.2706H40.8179Z" fill="#383739"/>
<path d="M62.8213 77.9615V76.4977H63.8851V75.8506H64.9322V77.0285H63.9994V77.9615H62.8213Z" fill="#383739"/>
<path d="M37.6793 61.2412V62.7051H36.6152V63.3522H35.5684V62.1741H36.5012V61.2412H37.6793Z" fill="#383739"/>
<path d="M37.6793 77.9615V76.4977H36.6152V75.8506H35.5684V77.0285H36.5012V77.9615H37.6793Z" fill="#383739"/>
<path d="M54.1883 58.8984C54.1204 58.8324 53.3756 58.1094 53.3756 58.1094L52.5773 58.849C52.5773 58.849 53.2028 59.4561 53.2732 59.5245L52.375 60.3964H53.7085L54.1883 59.9305L54.6682 60.3964H56.0015L55.1033 59.5245C55.1736 59.4561 55.799 58.849 55.799 58.849L55.0008 58.1094C54.7297 58.372 54.4591 58.6353 54.1883 58.8984Z" fill="#383739"/>
<path d="M50.2497 58.8984C50.1819 58.8324 49.4372 58.1094 49.4372 58.1094L48.6389 58.849C48.6389 58.849 49.2642 59.4561 49.3347 59.5245L48.4365 60.3964H49.7698L50.2497 59.9305L50.7295 60.3964H52.0628L51.1648 59.5245C51.2352 59.4561 51.8605 58.849 51.8605 58.849L51.0624 58.1094C50.7912 58.372 50.5206 58.6353 50.2497 58.8984Z" fill="#383739"/>
<path d="M46.3112 58.8984C46.3792 58.8324 47.1239 58.1094 47.1239 58.1094L47.9222 58.849C47.9222 58.849 47.2967 59.4561 47.2263 59.5245L48.1245 60.3964H46.791L46.3112 59.9305L45.8314 60.3964H44.498L45.3962 59.5245C45.3259 59.4561 44.7004 58.849 44.7004 58.849L45.4987 58.1094C45.7699 58.372 46.0405 58.6353 46.3112 58.8984Z" fill="#383739"/>
<path d="M54.1883 80.3047C54.1204 80.3705 53.3756 81.0935 53.3756 81.0935L52.5773 80.3539C52.5773 80.3539 53.2028 79.747 53.2732 79.6786L52.375 78.8066H53.7085L54.1883 79.2725L54.6682 78.8066H56.0015L55.1033 79.6786C55.1736 79.747 55.799 80.3539 55.799 80.3539L55.0008 81.0935C54.7297 80.8309 54.4591 80.5676 54.1883 80.3047Z" fill="#383739"/>
<path d="M50.2497 80.3047C50.1819 80.3705 49.4372 81.0935 49.4372 81.0935L48.6389 80.3539C48.6389 80.3539 49.2642 79.747 49.3347 79.6786L48.4365 78.8066H49.7698L50.2497 79.2725L50.7295 78.8066H52.0628L51.1648 79.6786C51.2352 79.747 51.8605 80.3539 51.8605 80.3539L51.0624 81.0935C50.7912 80.8309 50.5206 80.5676 50.2497 80.3047Z" fill="#383739"/>
<path d="M46.3112 80.3047C46.3792 80.3705 47.1239 81.0935 47.1239 81.0935L47.9222 80.3539C47.9222 80.3539 47.2967 79.747 47.2263 79.6786L48.1245 78.8066H46.791L46.3112 79.2725L45.8314 78.8066H44.498L45.3962 79.6786C45.3259 79.747 44.7004 80.3539 44.7004 80.3539L45.4987 81.0935C45.7699 80.8309 46.0405 80.5676 46.3112 80.3047Z" fill="#383739"/>
<path d="M36.5063 70.4282V71.1874L34.6868 70.0316L33.8917 70.6462L33.1872 70.5644L32.8926 70.1476L33.6066 69.6016L32.8926 69.0556L33.1873 68.6387L33.8917 68.557L34.6868 69.1714L36.5063 68.0156V68.7748L35.2048 69.6016L36.5063 70.4282Z" fill="#00843D"/>
<path d="M36.5063 66.9085V67.6678L34.6868 66.5121L33.8917 67.1265L33.1872 67.0447L32.8926 66.6279L33.6066 66.0819L32.8926 65.536L33.1873 65.1192L33.8917 65.0373L34.6868 65.6517L36.5063 64.4961V65.2552L35.2048 66.0819L36.5063 66.9085Z" fill="#00843D"/>
<path d="M36.5063 72.2943V71.5352L34.6868 72.6909L33.8917 72.0764L33.1872 72.1581L32.8926 72.575L33.6066 73.121L32.8926 73.667L33.1873 74.0838L33.8917 74.1656L34.6868 73.5512L36.5063 74.7069V73.9478L35.2048 73.121L36.5063 72.2943Z" fill="#00843D"/>
<path d="M63.9902 70.4282V71.1874L65.8097 70.0316L66.6047 70.6462L67.3092 70.5644L67.6038 70.1476L66.8898 69.6016L67.6038 69.0556L67.3092 68.6387L66.6047 68.557L65.8097 69.1714L63.9902 68.0156V68.7748L65.2916 69.6016L63.9902 70.4282Z" fill="#00843D"/>
<path d="M63.9902 66.9085V67.6678L65.8097 66.5121L66.6047 67.1265L67.3092 67.0447L67.6038 66.6279L66.8898 66.0819L67.6038 65.536L67.3092 65.1192L66.6047 65.0373L65.8097 65.6517L63.9902 64.4961V65.2552L65.2916 66.0819L63.9902 66.9085Z" fill="#00843D"/>
<path d="M63.9902 72.2943V71.5352L65.8097 72.6909L66.6047 72.0764L67.3092 72.1581L67.6038 72.575L66.8898 73.121L67.6038 73.667L67.3092 74.0838L66.6047 74.1656L65.8097 73.5512L63.9902 74.7069V73.9478L65.2916 73.121L63.9902 72.2943Z" fill="#00843D"/>
<path d="M60.7508 59.04V59.973H61.6837V60.9368H60.8521V60.2898H59.7871V59.04H60.7508Z" fill="#00843D"/>
<path d="M63.8895 61.3486V62.2815H64.8223V63.2454H63.9906V62.5984H62.9258V61.3486H63.8895Z" fill="#00843D"/>
<path d="M39.7453 59.04V59.973H38.8125V60.9368H39.6442V60.2898H40.7091V59.04H39.7453Z" fill="#00843D"/>
<path d="M60.7508 80.1632V79.2304H61.6837V78.2666H60.8521V78.9136H59.7871V80.1632H60.7508Z" fill="#00843D"/>
<path d="M39.7445 80.1632V79.2304H38.8115V78.2666H39.6433V78.9136H40.7082V80.1632H39.7445Z" fill="#00843D"/>
<path d="M63.8895 77.8546V76.9218H64.8223V75.958H63.9906V76.605H62.9258V77.8546H63.8895Z" fill="#00843D"/>
<path d="M36.6067 61.3486V62.2815H35.6738V63.2454H36.5056V62.5984H37.5704V61.3486H36.6067Z" fill="#00843D"/>
<path d="M36.6068 77.8546V76.9218H35.6738V75.958H36.5056V76.605H37.5705V77.8546H36.6068Z" fill="#00843D"/>
<path d="M53.3724 58.2573C53.4388 58.3218 54.1867 59.0478 54.1867 59.0478C54.1867 59.0478 54.9344 58.3218 55.0009 58.2573C55.0639 58.3155 55.5722 58.7865 55.6418 58.851C55.5698 58.9208 54.9478 59.5247 54.9478 59.5247L55.7356 60.2895H54.71L54.1867 59.7813L53.6632 60.2895H52.6377L53.4255 59.5247C53.4255 59.5247 52.8034 58.9208 52.7314 58.851C52.801 58.7865 53.3094 58.3155 53.3724 58.2573Z" fill="#00843D"/>
<path d="M49.4341 58.2573C49.5005 58.3218 50.2482 59.0478 50.2482 59.0478C50.2482 59.0478 50.996 58.3218 51.0626 58.2573C51.1256 58.3155 51.6338 58.7865 51.7034 58.851C51.6315 58.9208 51.0095 59.5247 51.0095 59.5247L51.7973 60.2895H50.7716L50.2482 59.7813L49.7249 60.2895H48.6992L49.487 59.5247C49.487 59.5247 48.865 58.9208 48.7931 58.851C48.8627 58.7865 49.3711 58.3155 49.4341 58.2573Z" fill="#00843D"/>
<path d="M47.1239 58.2573C47.0573 58.3218 46.3096 59.0478 46.3096 59.0478C46.3096 59.0478 45.5619 58.3218 45.4954 58.2573C45.4324 58.3155 44.9241 58.7865 44.8545 58.851C44.9265 58.9208 45.5485 59.5247 45.5485 59.5247L44.7607 60.2895H45.7863L46.3096 59.7813L46.8331 60.2895H47.8586L47.0708 59.5247C47.0708 59.5247 47.6929 58.9208 47.7649 58.851C47.6953 58.7865 47.1869 58.3155 47.1239 58.2573Z" fill="#00843D"/>
<path d="M53.3724 80.9463C53.4388 80.8816 54.1867 80.1556 54.1867 80.1556C54.1867 80.1556 54.9344 80.8816 55.0009 80.9463C55.0639 80.8879 55.5722 80.4169 55.6418 80.3526C55.5698 80.2827 54.9478 79.6789 54.9478 79.6789L55.7356 78.9141H54.71L54.1867 79.4221L53.6632 78.9141H52.6377L53.4255 79.6789C53.4255 79.6789 52.8034 80.2827 52.7314 80.3526C52.801 80.4169 53.3094 80.8879 53.3724 80.9463Z" fill="#00843D"/>
<path d="M49.4341 80.9463C49.5005 80.8816 50.2482 80.1556 50.2482 80.1556C50.2482 80.1556 50.996 80.8816 51.0626 80.9463C51.1256 80.8879 51.6338 80.4169 51.7034 80.3526C51.6315 80.2827 51.0095 79.6789 51.0095 79.6789L51.7973 78.9141H50.7716L50.2482 79.4221L49.7249 78.9141H48.6992L49.487 79.6789C49.487 79.6789 48.865 80.2827 48.7931 80.3526C48.8627 80.4169 49.3711 80.8879 49.4341 80.9463Z" fill="#00843D"/>
<path d="M47.1239 80.9463C47.0573 80.8816 46.3096 80.1556 46.3096 80.1556C46.3096 80.1556 45.5619 80.8816 45.4954 80.9463C45.4324 80.8879 44.9241 80.4169 44.8545 80.3526C44.9265 80.2827 45.5485 79.6789 45.5485 79.6789L44.7607 78.9141H45.7863L46.3096 79.4221L46.8331 78.9141H47.8586L47.0708 79.6789C47.0708 79.6789 47.6929 80.2827 47.7649 80.3526C47.6953 80.4169 47.1869 80.8879 47.1239 80.9463Z" fill="#00843D"/>
<path d="M39.6445 76.6053V78.9138H60.853V76.6053H63.9906V62.598H60.853V60.2896H39.6445V62.598H36.5068V76.6053H39.6445Z" fill="#383739"/>
<path d="M39.7583 60.3947V62.6989H36.6201V76.4963H39.7583V78.8006H60.7455V76.4963H63.884V62.6988H60.7455V60.3945L39.7583 60.3947ZM41.1089 61.2819H59.3952V63.5065L60.1498 64.0629H62.9968V75.1459H60.1367L59.3951 75.6887V77.9264H41.1089V75.7019L40.3541 75.1459H37.494V64.0629H40.3409L41.1089 63.5065L41.1089 61.2819Z" fill="#FFC72C"/>
<path d="M41.215 61.3877V63.4271L43.9692 61.3877H41.215ZM56.5216 61.3877L59.2758 63.4271V61.3877H56.5216ZM37.6134 64.1686V66.0754L40.2086 64.1686H37.6134ZM60.2826 64.1686L62.891 66.0885V64.1686H60.2826ZM62.891 73.1063L60.2826 75.0398H62.891V73.1063ZM37.6133 73.1194V75.0398H40.2086L37.6133 73.1194ZM41.2149 75.7813V77.8071H43.9558L41.2149 75.7813ZM59.2757 75.7813L56.5351 77.8071H59.2757V75.7813Z" fill="#D22630"/>
<path d="M56.3437 61.3896C56.3719 61.4103 62.8474 66.1932 62.8904 66.225V72.9776C62.8474 73.0095 56.3719 77.7923 56.3437 77.8131H44.154C44.126 77.7923 37.6505 73.0095 37.6074 72.9776V66.225C37.6505 66.1932 44.126 61.4103 44.154 61.3896H56.3437Z" fill="#00843D"/>
<path d="M39.1658 73.7552L38.4131 72.8816L39.1197 72.0615L38.4131 71.2415L39.1197 70.4216L38.4131 69.6015L39.1197 68.7815L38.4131 67.9614L39.1196 67.1414L38.4131 66.3213L39.1658 65.4479H61.3306L62.0833 66.3213L61.3767 67.1414L62.0833 67.9614L61.3767 68.7815L62.0833 69.6015L61.3767 70.4216L62.0833 71.2415L61.3767 72.0615L62.0833 72.8816L61.3306 73.7552H39.1658ZM54.4018 62.4461L53.5283 61.6934L52.7081 62.4L51.8882 61.6934L51.0682 62.4L50.2481 61.6934L49.4281 62.4L48.6081 61.6934L47.7882 62.4L46.9681 61.6934L46.0946 62.4461V76.7568L46.9681 77.5097L47.7882 76.803L48.6081 77.5095L49.4281 76.8029L50.2481 77.5095L51.0682 76.8029L51.8882 77.5095L52.7081 76.803L53.5283 77.5097L54.4018 76.7568V62.4461Z" fill="#383739"/>
<path d="M52.6549 62.4954L51.8886 61.835L51.1221 62.4954V76.7079L51.8886 77.3682L52.6549 76.7079V62.4954Z" fill="#FFC72C"/>
<path d="M49.3746 62.4954L48.6081 61.835L47.8418 62.4954V76.7079L48.6081 77.3682L49.3746 76.7079V62.4954Z" fill="#FFC72C"/>
<path d="M39.215 73.6482L38.5547 72.8817L39.215 72.1152H61.2817L61.942 72.8817L61.2817 73.6482H39.215Z" fill="#FFC72C"/>
<path d="M61.2816 68.835L61.942 69.6015L61.2816 70.3678H39.2151L38.5547 69.6015L39.2151 68.835H61.2816Z" fill="#FFC72C"/>
<path d="M61.2817 67.0885L61.942 66.322L61.2817 65.5557H39.215L38.5547 66.322L39.215 67.0885H61.2817Z" fill="#FFC72C"/>
<path d="M54.2955 62.4954L53.5292 61.835L52.7627 62.4954V76.7079L53.5292 77.3682L54.2953 76.7081L54.2955 62.4954Z" fill="#D22630"/>
<path d="M47.7361 62.4954L46.9696 61.835L46.2031 62.4954V76.7079L46.9696 77.3682L47.7361 76.7079V62.4954Z" fill="#D22630"/>
<path d="M39.2161 72.0081L38.5557 71.2416L39.2161 70.4751H61.2826L61.943 71.2416L61.2826 72.0081H39.2161Z" fill="#D22630"/>
<path d="M39.2161 68.7283L38.5557 67.9618L39.2161 67.1953H61.2826L61.943 67.9618L61.2826 68.7283H39.2161Z" fill="#D22630"/>
<path d="M51.0154 76.7079L50.2489 77.3682L49.4824 76.7079V62.4954L50.2489 61.835L51.0154 62.4954V76.7079Z" fill="#D22630"/>
<path d="M57.6568 62.7725H42.787V63.9534H40.8867V75.2496H42.787V76.4304H57.7104V75.2496H59.6107V63.9534H57.7104V62.7725H57.6568Z" fill="#383739"/>
<path d="M42.896 62.8838V64.0626H40.9893V75.1457H42.896V76.324H44.4585L41.3468 73.7156V65.4923L44.4585 62.8838H42.896ZM56.0448 62.8838L59.143 65.4923V73.7156L56.0448 76.324H57.607V75.1456H59.5006V64.0626H57.607V62.8838L56.0448 62.8838Z" fill="#D22630"/>
<path d="M44.6301 62.8838C44.6007 62.9085 41.4898 65.5138 41.4521 65.5453V73.6624C41.4898 73.694 44.6007 76.2992 44.6301 76.3239H55.8718C55.9014 76.2992 58.9988 73.6939 59.0365 73.6624V65.5453C58.9988 65.5139 55.9014 62.9085 55.8718 62.8838H44.6301ZM44.7889 63.334H55.6997L58.5863 65.7572V73.4505L55.6997 75.8605H44.7889L41.9156 73.4505V65.7572L44.7889 63.334Z" fill="#00843D"/>
<path d="M47.678 73.5723L48.1664 73.7833L48.2563 74.3538L47.6414 74.8947L48.5345 75.7582H47.6752L47.0608 75.1668L46.4462 75.7582H45.5869L46.4801 74.8947L45.8652 74.3538L45.9552 73.7833L46.4434 73.5723L47.0608 74.0659L47.0942 74.0392L47.678 73.5723Z" fill="#00843D"/>
<path d="M50.8657 73.5723L51.3539 73.7833L51.4439 74.3538L50.8291 74.8947L51.7221 75.7582H50.8628L50.2483 75.1668L49.6339 75.7582H48.7744L49.6676 74.8947L49.0528 74.3538L49.1428 73.7833L49.631 73.5723L50.2483 74.0659L50.2817 74.0392L50.8657 73.5723Z" fill="#00843D"/>
<path d="M52.8174 73.5723L52.3292 73.7833L52.2392 74.3538L52.854 74.8947L51.9609 75.7582H52.8203L53.4348 75.1668L54.0492 75.7582H54.9085L54.0154 74.8947L54.6303 74.3538L54.5403 73.7833L54.052 73.5723L53.4348 74.0659L53.4012 74.0392L52.8174 73.5723Z" fill="#00843D"/>
<path d="M47.678 65.6311L48.1664 65.4201L48.2563 64.8498L47.6414 64.3089L48.5345 63.4453H47.6752L47.0608 64.0366L46.4462 63.4453H45.5869L46.4801 64.3089L45.8652 64.8496L45.9552 65.4201L46.4434 65.6311L47.0608 65.1376L47.0942 65.1643L47.678 65.6311Z" fill="#00843D"/>
<path d="M50.8657 65.6311L51.3539 65.4201L51.4439 64.8498L50.8291 64.3089L51.7221 63.4453H50.8628L50.2483 64.0366L49.6339 63.4453H48.7744L49.6676 64.3089L49.0528 64.8496L49.1428 65.4201L49.631 65.6311L50.2483 65.1376L50.2817 65.1643L50.8657 65.6311Z" fill="#00843D"/>
<path d="M52.8174 65.6311L52.3292 65.4201L52.2392 64.8498L52.854 64.3089L51.9609 63.4453H52.8203L53.4348 64.0366L54.0492 63.4453H54.9085L54.0154 64.3089L54.6303 64.8496L54.5403 65.4201L54.052 65.6311L53.4348 65.1376L53.4012 65.1643L52.8174 65.6311Z" fill="#00843D"/>
<path d="M58.4731 66.542L57.9856 66.9457L58.4731 67.3492V68.0183L57.7234 67.4005C57.7234 67.4005 57.2193 67.8573 57.1854 67.888C57.1422 67.8826 56.6565 67.8215 56.6085 67.8155C56.5871 67.7761 56.4354 67.4965 56.4053 67.4405C56.4555 67.3904 56.9018 66.9457 56.9018 66.9457C56.9018 66.9457 56.4555 66.5008 56.4053 66.4507C56.4354 66.3947 56.5871 66.115 56.6085 66.0757C56.6565 66.0697 57.1422 66.0085 57.1854 66.0031C57.2193 66.0338 57.7234 66.4907 57.7234 66.4907L58.4731 65.873V66.542Z" fill="#00843D"/>
<path d="M58.4731 69.1983L57.9856 69.6019L58.4731 70.0053V70.6746L57.7234 70.0567C57.7234 70.0567 57.2193 70.5135 57.1854 70.5442C57.1422 70.5388 56.6565 70.4776 56.6085 70.4718C56.5871 70.4323 56.4354 70.1526 56.4053 70.0968C56.4555 70.0467 56.9018 69.6019 56.9018 69.6019C56.9018 69.6019 56.4555 69.1569 56.4053 69.1068C56.4354 69.051 56.5871 68.7712 56.6085 68.7318C56.6565 68.7259 57.1422 68.6647 57.1854 68.6593C57.2193 68.6901 57.7234 69.1469 57.7234 69.1469L58.4731 68.5293V69.1983Z" fill="#00843D"/>
<path d="M58.4731 72.6618L57.9856 72.2582L58.4731 71.8547V71.1855L57.7234 71.8034C57.7234 71.8034 57.2193 71.3465 57.1854 71.3158C57.1422 71.3212 56.6565 71.3823 56.6085 71.3882C56.5871 71.4277 56.4354 71.7074 56.4053 71.7632C56.4555 71.8135 56.9018 72.2582 56.9018 72.2582C56.9018 72.2582 56.4555 72.7031 56.4053 72.7532C56.4354 72.809 56.5871 73.0887 56.6085 73.1282C56.6565 73.1342 57.1422 73.1952 57.1854 73.2006C57.2193 73.1699 57.7234 72.7132 57.7234 72.7132L58.4731 73.3308V72.6618Z" fill="#00843D"/>
<path d="M42.0234 66.542L42.5108 66.9457L42.0234 67.3492V68.0183L42.7731 67.4005C42.7731 67.4005 43.2773 67.8573 43.3112 67.888C43.3542 67.8826 43.84 67.8215 43.888 67.8155C43.9095 67.7761 44.061 67.4965 44.0913 67.4405C44.041 67.3904 43.5948 66.9457 43.5948 66.9457C43.5948 66.9457 44.041 66.5008 44.0913 66.4507C44.061 66.3947 43.9095 66.115 43.888 66.0757C43.84 66.0697 43.3542 66.0085 43.3112 66.0031C43.2773 66.0338 42.7731 66.4907 42.7731 66.4907L42.0234 65.873V66.542Z" fill="#00843D"/>
<path d="M42.0234 69.1983L42.5108 69.6019L42.0234 70.0053V70.6746L42.7731 70.0567C42.7731 70.0567 43.2773 70.5135 43.3112 70.5442C43.3542 70.5388 43.84 70.4776 43.888 70.4718C43.9095 70.4323 44.061 70.1526 44.0913 70.0968C44.041 70.0467 43.5948 69.6019 43.5948 69.6019C43.5948 69.6019 44.041 69.1569 44.0913 69.1068C44.061 69.051 43.9095 68.7712 43.888 68.7318C43.84 68.7259 43.3542 68.6647 43.3112 68.6593C43.2773 68.6901 42.7731 69.1469 42.7731 69.1469L42.0234 68.5293V69.1983Z" fill="#00843D"/>
<path d="M42.0234 72.6618L42.5108 72.2582L42.0234 71.8547V71.1855L42.7731 71.8034C42.7731 71.8034 43.2773 71.3465 43.3112 71.3158C43.3542 71.3212 43.84 71.3823 43.888 71.3882C43.9095 71.4277 44.061 71.7074 44.0913 71.7632C44.041 71.8135 43.5948 72.2582 43.5948 72.2582C43.5948 72.2582 44.041 72.7031 44.0913 72.7532C44.061 72.809 43.9095 73.0887 43.888 73.1282C43.84 73.1342 43.3542 73.1952 43.3112 73.2006C43.2773 73.1699 42.7731 72.7132 42.7731 72.7132L42.0234 73.3308V72.6618Z" fill="#00843D"/>
<path d="M44.8296 63.4405C44.8007 63.4648 42.1792 65.6596 42.0622 65.7578C42.2985 65.9537 42.5271 66.1585 42.764 66.3537C42.8239 66.2994 43.2804 65.8901 43.2804 65.8901L43.9557 65.9828L44.2205 66.4727C44.2205 66.4727 43.8086 66.8849 43.7438 66.9494C43.8086 67.0138 44.2205 67.4261 44.2205 67.4261L43.9557 67.9161L43.2804 67.9955C43.2804 67.9955 42.824 67.5996 42.764 67.5453L42.0225 68.1677V68.3795C42.2719 68.586 42.5136 68.7956 42.764 69.0019C42.824 68.9477 43.2804 68.5517 43.2804 68.5517L43.9557 68.6311L44.2205 69.121C44.2205 69.121 43.8086 69.5332 43.7438 69.5977C43.8086 69.6621 44.2205 70.0744 44.2205 70.0744L43.9557 70.5776L43.2804 70.6571C43.2804 70.6571 42.824 70.2479 42.764 70.1936L42.0225 70.816V71.0411L42.764 71.6634C42.824 71.6093 43.2804 71.2 43.2804 71.2L43.9557 71.2927L44.2205 71.7826C44.2205 71.7826 43.8086 72.1948 43.7438 72.2593C43.8086 72.3238 44.2205 72.736 44.2205 72.736L43.9557 73.2259L43.2804 73.3186C43.2804 73.3186 42.824 72.9095 42.764 72.8552C42.528 73.0495 42.2976 73.2436 42.0622 73.4378C42.1791 73.536 44.8006 75.7307 44.8296 75.7551H45.4387L46.3259 74.8944L45.7565 74.3912L45.8624 73.7026L46.4583 73.451L47.0674 73.9277L47.6632 73.451L48.2591 73.7026L48.3782 74.3912L47.7956 74.8944L48.6563 75.7153L49.517 74.8944L48.9344 74.3912L49.0403 73.7026L49.6494 73.451L50.2453 73.9277L50.8544 73.451L51.4502 73.7026L51.5561 74.3912L50.9868 74.8944L51.8342 75.7286L52.6949 74.8944L52.1255 74.3912L52.2314 73.7026L52.8405 73.451L53.4364 73.9277L54.0323 73.451L54.6414 73.7026L54.7473 74.3912L54.1779 74.8944L55.0651 75.7551H55.6609C55.6899 75.7307 58.3112 73.536 58.4283 73.4378C58.1925 73.2435 57.9628 73.0499 57.7266 72.8552C57.6666 72.9095 57.2234 73.3186 57.2234 73.3186L56.5481 73.2259L56.27 72.736C56.27 72.736 56.6821 72.3238 56.7467 72.2593C56.6821 72.1948 56.27 71.7826 56.27 71.7826L56.5481 71.2927L57.2234 71.2C57.2234 71.2 57.6666 71.6093 57.7266 71.6634L58.4681 71.0411V70.816L57.7266 70.1936C57.6666 70.2479 57.2234 70.6571 57.2234 70.6571L56.5481 70.5776L56.27 70.0744C56.27 70.0744 56.6821 69.6621 56.7467 69.5977C56.6821 69.5332 56.27 69.121 56.27 69.121L56.5481 68.6311L57.2234 68.5517C57.2234 68.5517 57.6666 68.9477 57.7266 69.0019C57.9752 68.7971 58.22 68.5968 58.4681 68.3928V68.1544L57.7266 67.5453C57.6666 67.5996 57.2234 67.9955 57.2234 67.9955L56.5481 67.9161L56.27 67.4261C56.27 67.4261 56.6821 67.0138 56.7467 66.9494C56.6821 66.8849 56.27 66.4727 56.27 66.4727L56.5481 65.9828L57.2234 65.8901C57.2234 65.8901 57.6666 66.2994 57.7266 66.3536C57.9639 66.1581 58.2043 65.9665 58.4416 65.7709C58.3504 65.6945 55.69 63.4648 55.6609 63.4404H55.0651L54.1779 64.3011L54.7473 64.8043L54.6413 65.4929L54.0322 65.7577L53.4364 65.281L52.8405 65.7577L52.2314 65.4929L52.1255 64.8043L52.6949 64.3011L51.8474 63.4802L50.9868 64.3011L51.5561 64.8043L51.4502 65.4929L50.8544 65.7577L50.2453 65.281L49.6494 65.7577L49.0403 65.4929L48.9344 64.8043L49.517 64.3011L48.6563 63.4802L47.7956 64.3011L48.3782 64.8043L48.2591 65.4929L47.6632 65.7577L47.0674 65.281L46.4583 65.7577L45.8624 65.4929L45.7565 64.8043L46.3258 64.3011L45.4254 63.4404L44.8296 63.4405ZM42.0225 69.333V69.8759L42.3403 69.5978L42.0225 69.333Z" fill="#D22630"/>
<path d="M47.0671 75.3179L46.6035 75.7547H47.5171L47.0671 75.3179Z" fill="white"/>
<path d="M50.2439 75.3179L49.7939 75.7547H50.7075L50.2439 75.3179Z" fill="white"/>
<path d="M53.4358 75.3179L52.9727 75.7547H53.8993L53.4358 75.3179Z" fill="white"/>
<path d="M46.5898 63.4404L47.0665 63.8904L47.5301 63.4404H46.5898Z" fill="white"/>
<path d="M49.7812 63.4404L50.2448 63.8904L50.7215 63.4404H49.7812Z" fill="white"/>
<path d="M52.9727 63.4404L53.4358 63.8904L53.8993 63.4404H52.9727Z" fill="white"/>
<path d="M58.4672 66.6846L58.1494 66.9494L58.4672 67.2011V66.6846Z" fill="white"/>
<path d="M58.4672 69.333L58.1494 69.5978L58.4672 69.8627V69.333Z" fill="white"/>
<path d="M58.4672 71.9941L58.1494 72.259L58.4672 72.5238V71.9941Z" fill="white"/>
<path d="M42.0215 66.6714V67.2142L42.3393 66.9494L42.0215 66.6714Z" fill="white"/>
<path d="M42.0215 69.333V69.8758L42.3393 69.5978L42.0215 69.333Z" fill="white"/>
<path d="M42.0215 71.9814V72.5242L42.3393 72.2594L42.0215 71.9814Z" fill="white"/>
<path d="M52.9753 68.7144V67.7666H52.0161V66.7275H48.4832V67.7666H47.524V68.7144H46.1992V70.4889H47.524V71.4366H48.4832V72.4758H52.0161V71.4366H52.9753V70.4889H54.2999V68.7144H52.9753Z" fill="#383739"/>
<path d="M50.1962 66.835V67.9061L48.6776 68.7694V69.5485H46.3066V68.8219H47.6313V67.8742H48.5905V66.835H50.1962Z" fill="#FFC72C"/>
<path d="M50.3027 72.3688V71.2976L51.8211 70.4342V69.6553H54.1923V70.3817H52.8677V71.3296H51.9084V72.3688H50.3027Z" fill="#FFC72C"/>
<path d="M51.8211 69.5485V68.7694L50.3027 67.9061V66.835H51.9084V67.8742H52.8677V68.8219H54.1923V69.5485H51.8211Z" fill="white"/>
<path d="M46.3066 69.6553H48.6776V70.4342L50.1962 71.2976V72.3688H48.5905V71.3296H47.6313V70.3817H46.3066V69.6553Z" fill="white"/>
<path d="M48.7852 69.6553V70.3774L50.1965 71.1799V69.6553H48.7852Z" fill="#D22630"/>
<path d="M50.1965 68.0234L48.7852 68.8258V69.5479H50.1965V68.0234Z" fill="#00843D"/>
<path d="M51.715 69.5479V68.8258L50.3037 68.0234V69.5479H51.715Z" fill="#D22630"/>
<path d="M50.3027 71.1799L51.7141 70.3774V69.6553H50.3027V71.1799Z" fill="#00843D"/>
<path d="M37.4114 88.4328V91.362H34.6201V94.0188H31.791V101.583H34.6201V104.24H37.4114V107.169H47.5606L49.3454 108.242L48.4878 108.757H44.8688L44.5566 108.405H47.8363L46.9123 107.475H42.2209L44.3465 109.688H48.7459L50.2487 108.785L51.7515 109.688H56.1512L58.2767 107.475H53.5854L52.6613 108.405H55.9411L55.6288 108.757H52.0097L51.152 108.242L52.937 107.169H63.0862V104.24H65.8775V101.583H68.7064V94.0188H65.8775V91.362H63.0862V88.4328H52.937L51.152 87.3604L52.0097 86.845H55.6288L55.9411 87.1971H52.6613L53.5854 88.1275H58.2767L56.1512 85.9146H51.7515L50.2487 86.8176L48.7459 85.9146H44.3465L42.2209 88.1275H46.9123L47.8363 87.1971H44.5566L44.8688 86.845H48.4878L49.3454 87.3604L47.5606 88.4328H37.4114Z" fill="#D22630"/>
<path d="M52.9064 107.057H62.983V104.131H65.7636V101.469H68.5972V94.1204H65.7636V91.4721H62.983V88.5457H52.9064L48.7222 86.0166H44.3923L42.4723 88.0161H46.8684L47.5834 87.301H44.3128L44.816 86.7316H48.5235L53.2639 89.5918H61.9237V92.5182H64.7176V95.1797H67.5512V100.423H64.7176V103.085H61.9237V106.011H53.2639L48.5235 108.858H44.816L44.3128 108.302H47.5834L46.8684 107.587H42.4723L44.3923 109.587H48.7222L52.9064 107.057ZM47.2259 106.011H38.5662V103.085H35.7855V100.423H32.9519V95.1797H35.7855V92.5182H38.5662V89.5918H47.2259L51.9795 86.7316H55.6739L56.177 87.301H52.9197L53.6347 88.0161H58.0308L56.1108 86.0166H51.7809L47.5967 88.5457H37.5201V91.4721H34.7262V94.1204H31.8926V101.469H34.7262V104.131H37.5201V107.057H47.5967L51.7809 109.587H56.1108L58.0308 107.587H53.6347L52.9197 108.302H56.177L55.6739 108.858H51.9795L47.2259 106.011Z" fill="#FFC72C"/>
<path d="M61.084 102.238V105.167H53.0342L50.2481 106.841L47.4621 105.167H39.4124V102.238H36.6209V99.5812H33.792V96.0198H36.6209V93.3628H39.4124V90.4338H47.4472H47.4621L50.2481 88.7598L53.0342 90.4338H61.084V93.3628H63.8753V96.0198H66.7043V99.5812H63.8753V102.238H61.084Z" fill="#00843D"/>
<path d="M40.4668 101.213V104.048H44.8917L40.4668 101.113V101.213Z" fill="#383739"/>
<path d="M40.4668 94.3898V91.5547H44.8917L40.4668 94.4896V94.3898Z" fill="#383739"/>
<path d="M60.0304 101.213V104.048H55.6055L60.0304 101.113V101.213Z" fill="#383739"/>
<path d="M60.0304 94.3898V91.5547H55.6055L60.0304 94.4896V94.3898Z" fill="#383739"/>
<path d="M40.5742 101.312L44.5365 103.941H40.5742V101.312Z" fill="#D22630"/>
<path d="M40.5742 94.2903C40.7283 94.188 44.2665 91.8411 44.5365 91.6621H40.5742V94.2903Z" fill="#D22630"/>
<path d="M59.9233 101.312C59.7691 101.415 56.2308 103.762 55.9609 103.941H59.9233V101.312Z" fill="#D22630"/>
<path d="M59.9233 94.2903C59.7691 94.1881 56.2308 91.8412 55.9609 91.6621H59.9233V94.2903Z" fill="#D22630"/>
<path d="M46.1107 97.0238V95.576H45.6169L43.2479 94.0947L43.2195 94.1126L40.879 95.576H40.3852V97.0238H39.2715V98.5787H40.3852V100.026H40.879L43.2479 101.508L45.6169 100.026H46.1107V98.5787H47.8062V97.0238H46.1107Z" fill="#383739"/>
<path d="M43.2478 94.2212L45.4148 95.576H41.0811L43.2478 94.2212ZM45.4145 100.026L43.2478 101.381L41.0812 100.026H45.4145Z" fill="#D22630"/>
<path d="M44.8897 97.1309V98.4716H42.1875V97.1309H44.8897Z" fill="#D22630"/>
<path d="M46.003 98.5791V99.9198H43.3008V98.5791H46.003Z" fill="#FFC72C"/>
<path d="M43.1934 98.5791V99.9198H40.4912V98.5791H43.1934Z" fill="#FFC72C"/>
<path d="M47.6993 97.1313V98.472H44.9971V97.1313H47.6993Z" fill="#FFC72C"/>
<path d="M42.0801 97.1313V98.472H39.3779V97.1313H42.0801Z" fill="#FFC72C"/>
<path d="M46.003 95.6836V97.0241H43.3008V95.6836H46.003Z" fill="#FFC72C"/>
<path d="M43.1934 95.6836V97.0241H40.4912V95.6836H43.1934Z" fill="#FFC72C"/>
<path d="M41.3368 97.4287V98.1736H40.123V97.4287H41.3368Z" fill="#383739"/>
<path d="M42.4501 95.981V96.7259H41.2363V95.981H42.4501Z" fill="#383739"/>
<path d="M45.2587 95.981V96.7259H44.0449V95.981H45.2587Z" fill="#383739"/>
<path d="M44.1454 97.4287V98.1736H42.9316V97.4287H44.1454Z" fill="#383739"/>
<path d="M46.955 97.4287V98.1736H45.7412V97.4287H46.955Z" fill="#383739"/>
<path d="M45.2587 98.8765V99.6214H44.0449V98.8765H45.2587Z" fill="#383739"/>
<path d="M42.4501 98.8765V99.6214H41.2363V98.8765H42.4501Z" fill="#383739"/>
<path d="M41.2225 97.543H40.2373V98.0593H41.2225V97.543Z" fill="white"/>
<path d="M42.3358 96.0952H41.3506V96.6115H42.3358V96.0952Z" fill="white"/>
<path d="M45.1453 96.0952H44.1602V96.6115H45.1453V96.0952Z" fill="white"/>
<path d="M44.0311 97.543H43.0459V98.0593H44.0311V97.543Z" fill="white"/>
<path d="M46.8407 97.543H45.8555V98.0593H46.8407V97.543Z" fill="white"/>
<path d="M45.1453 98.9907H44.1602V99.507H45.1453V98.9907Z" fill="white"/>
<path d="M42.3358 98.9907H41.3506V99.507H42.3358V98.9907Z" fill="white"/>
<path d="M54.3873 97.0238V95.576H54.8811L57.2502 94.0947L57.2785 94.1126L59.619 95.576H60.1128V97.0238H61.2266V98.5787H60.1128V100.026H59.619L57.2502 101.508L54.8811 100.026H54.3873V98.5787H52.6919V97.0238H54.3873Z" fill="#383739"/>
<path d="M57.2503 94.2212L55.0833 95.576H59.417L57.2503 94.2212ZM55.0836 100.026L57.2503 101.381L59.4168 100.026H55.0836Z" fill="#D22630"/>
<path d="M55.6084 97.1309V98.4716H58.3105V97.1309H55.6084Z" fill="#D22630"/>
<path d="M54.4941 98.5791V99.9198H57.1963V98.5791H54.4941Z" fill="#FFC72C"/>
<path d="M57.3037 98.5791V99.9198H60.0059V98.5791H57.3037Z" fill="#FFC72C"/>
<path d="M52.7978 97.1313V98.472H55.5V97.1313H52.7978Z" fill="#FFC72C"/>
<path d="M58.417 97.1313V98.472H61.1191V97.1313H58.417Z" fill="#FFC72C"/>
<path d="M54.4941 95.6836V97.0241H57.1963V95.6836H54.4941Z" fill="#FFC72C"/>
<path d="M57.3037 95.6836V97.0241H60.0059V95.6836H57.3037Z" fill="#FFC72C"/>
<path d="M59.1612 97.4287V98.1736H60.375V97.4287H59.1612Z" fill="#383739"/>
<path d="M58.0479 95.981V96.7259H59.2617V95.981H58.0479Z" fill="#383739"/>
<path d="M55.2394 95.981V96.7259H56.4531V95.981H55.2394Z" fill="#383739"/>
<path d="M56.3526 97.4287V98.1736H57.5664V97.4287H56.3526Z" fill="#383739"/>
<path d="M53.544 97.4287V98.1736H54.7578V97.4287H53.544Z" fill="#383739"/>
<path d="M55.2394 98.8765V99.6214H56.4531V98.8765H55.2394Z" fill="#383739"/>
<path d="M58.0479 98.8765V99.6214H59.2617V98.8765H58.0479Z" fill="#383739"/>
<path d="M59.2756 97.543H60.2607V98.0593H59.2756V97.543Z" fill="white"/>
<path d="M58.1623 96.0952H59.1475V96.6115H58.1623V96.0952Z" fill="white"/>
<path d="M55.3527 96.0952H56.3379V96.6115H55.3527V96.0952Z" fill="white"/>
<path d="M56.467 97.543H57.4521V98.0593H56.467V97.543Z" fill="white"/>
<path d="M53.6574 97.543H54.6426V98.0593H53.6574V97.543Z" fill="white"/>
<path d="M55.3527 98.9907H56.3379V99.507H55.3527V98.9907Z" fill="white"/>
<path d="M58.1623 98.9907H59.1475V99.507H58.1623V98.9907Z" fill="white"/>
<path d="M53.1115 94.605V96.0527H52.6178L50.2487 97.5339L50.2204 97.5162L47.8798 96.0527H47.386V94.605H45.9814V93.0501H47.386V91.6025H47.8798L50.2487 90.1211L52.6178 91.6025H53.1115V93.0501H54.5161V94.605H53.1115Z" fill="#383739"/>
<path d="M50.2487 97.4077L52.4156 96.0527H48.082L50.2487 97.4077ZM52.4154 91.6025L50.2487 90.2476L48.0822 91.6025H52.4154Z" fill="#FFC72C"/>
<path d="M53.0039 93.05V91.7095H50.3018V93.05H53.0039Z" fill="#D22630"/>
<path d="M50.1954 93.05V91.7095H47.4932V93.05H50.1954Z" fill="#D22630"/>
<path d="M54.4092 94.4979V93.1572H51.707V94.4979H54.4092Z" fill="#D22630"/>
<path d="M51.5996 94.4979V93.1572H48.8975V94.4979H51.5996Z" fill="#D22630"/>
<path d="M48.7909 94.4979V93.1572H46.0889V94.4979H48.7909Z" fill="#D22630"/>
<path d="M53.0039 95.9452V94.6045H50.3018V95.9452H53.0039Z" fill="#D22630"/>
<path d="M50.1954 95.9452V94.6045H47.4932V95.9452H50.1954Z" fill="#D22630"/>
<path d="M49.4511 92.0073V92.7522H48.2373V92.0073H49.4511Z" fill="#383739"/>
<path d="M52.2607 92.0073V92.7522H51.0469V92.0073H52.2607Z" fill="#383739"/>
<path d="M48.0468 93.4551V94.2H46.833V93.4551H48.0468Z" fill="#383739"/>
<path d="M50.8564 93.4551V94.2H49.6426V93.4551H50.8564Z" fill="#383739"/>
<path d="M53.6659 93.4551V94.2H52.4521V93.4551H53.6659Z" fill="#383739"/>
<path d="M49.4511 94.9028V95.6477H48.2373V94.9028H49.4511Z" fill="#383739"/>
<path d="M52.2607 94.9028V95.6477H51.0469V94.9028H52.2607Z" fill="#383739"/>
<path d="M49.3367 92.1216H48.3516V92.6379H49.3367V92.1216Z" fill="white"/>
<path d="M52.1473 92.1216H51.1621V92.6379H52.1473V92.1216Z" fill="white"/>
<path d="M47.9324 93.5693H46.9473V94.0856H47.9324V93.5693Z" fill="white"/>
<path d="M50.742 93.5693H49.7568V94.0856H50.742V93.5693Z" fill="white"/>
<path d="M53.5516 93.5693H52.5664V94.0856H53.5516V93.5693Z" fill="white"/>
<path d="M49.3367 95.0171H48.3516V95.5334H49.3367V95.0171Z" fill="white"/>
<path d="M52.1473 95.0171H51.1621V95.5334H52.1473V95.0171Z" fill="white"/>
<path d="M53.1115 102.552V104H52.6178L50.2487 105.481L50.2204 105.464L47.8798 104H47.386V102.552H45.9814V100.997H47.386V99.5498H47.8798L50.2487 98.0684L52.6178 99.5498H53.1115V100.997H54.5161V102.552H53.1115Z" fill="#383739"/>
<path d="M50.2487 105.355L52.4156 104H48.082L50.2487 105.355ZM52.4154 99.5498L50.2487 98.1948L48.0822 99.5498H52.4154Z" fill="#FFC72C"/>
<path d="M53.0039 100.997V99.6567H50.3018V100.997H53.0039Z" fill="#D22630"/>
<path d="M50.1954 100.997V99.6567H47.4932V100.997H50.1954Z" fill="#D22630"/>
<path d="M54.4092 102.445V101.104H51.707V102.445H54.4092Z" fill="#D22630"/>
<path d="M51.5996 102.445V101.104H48.8975V102.445H51.5996Z" fill="#D22630"/>
<path d="M48.7909 102.445V101.104H46.0889V102.445H48.7909Z" fill="#D22630"/>
<path d="M53.0039 103.892V102.552H50.3018V103.892H53.0039Z" fill="#D22630"/>
<path d="M50.1954 103.892V102.552H47.4932V103.892H50.1954Z" fill="#D22630"/>
<path d="M49.4511 99.9546V100.699H48.2373V99.9546H49.4511Z" fill="#383739"/>
<path d="M52.2607 99.9546V100.699H51.0469V99.9546H52.2607Z" fill="#383739"/>
<path d="M48.0468 101.402V102.147H46.833V101.402H48.0468Z" fill="#383739"/>
<path d="M50.8564 101.402V102.147H49.6426V101.402H50.8564Z" fill="#383739"/>
<path d="M53.6659 101.402V102.147H52.4521V101.402H53.6659Z" fill="#383739"/>
<path d="M49.4511 102.85V103.595H48.2373V102.85H49.4511Z" fill="#383739"/>
<path d="M52.2607 102.85V103.595H51.0469V102.85H52.2607Z" fill="#383739"/>
<path d="M49.3367 100.069H48.3516V100.585H49.3367V100.069Z" fill="white"/>
<path d="M52.1473 100.069H51.1621V100.585H52.1473V100.069Z" fill="white"/>
<path d="M47.9324 101.517H46.9473V102.033H47.9324V101.517Z" fill="white"/>
<path d="M50.742 101.517H49.7568V102.033H50.742V101.517Z" fill="white"/>
<path d="M53.5516 101.517H52.5664V102.033H53.5516V101.517Z" fill="white"/>
<path d="M49.3367 102.964H48.3516V103.481H49.3367V102.964Z" fill="white"/>
<path d="M52.1473 102.964H51.1621V103.481H52.1473V102.964Z" fill="white"/>
<path d="M34.9189 119.839L45.4316 114.181H45.4451H55.0662L65.5789 119.839V129.161L55.0662 134.819H45.4316L34.9189 129.161V119.839Z" fill="#383739"/>
<path d="M45.4654 114.288L35.0312 119.902V129.092L45.4654 134.706H55.0385L65.473 129.092V119.902L55.0385 114.288H45.4654ZM45.6506 115.043H54.8533L64.7315 120.353V128.655L54.8533 133.965H45.645L35.7672 128.655V120.353L45.6506 115.043Z" fill="#00843D"/>
<path d="M50.3024 124.446V133.856H54.8261L64.6217 128.585V124.554L50.1953 124.554V115.144H45.6717L35.876 120.415V124.446L50.3024 124.446Z" fill="#FFC72C"/>
<path d="M50.1953 124.446V133.856H45.6717L35.876 128.585V124.554L50.3024 124.554V115.144H54.8261L64.6217 120.415V124.446L50.1953 124.446Z" fill="white"/>
<path d="M51.1283 133.329V130.609L50.249 131.167L49.3696 130.609V133.329H46.6343L48.48 131.976V130.045L45.6651 128.259H43.6982V120.741H45.6651L48.48 118.955V117.024L46.6343 115.67H46.7979H49.3696V118.39L50.249 117.832L51.1283 118.39V115.67H53.8638L52.018 117.024V118.955L54.8328 120.741H56.7997V128.259H54.8328L52.018 130.045V131.976L53.8638 133.329H51.1283Z" fill="#383739"/>
<path d="M51.238 115.784V118.591L50.2978 117.996V118.79L54.6011 121.531H56.018V124.444H56.6934V120.843H54.7998L51.9134 119.015V116.976L53.5418 115.784H51.238ZM43.8096 124.55V128.152H45.6898L48.5898 129.992V132.032L46.961 133.223H49.2652V130.416L50.1919 131.012V130.191L45.8886 127.477H44.4849V124.55L43.8096 124.55Z" fill="#FFC72C"/>
<path d="M46.961 115.784L48.5898 116.976V119.015L45.6898 120.843H43.8096V124.444H44.4849V121.531H45.8886L50.1919 118.803V117.996L49.2652 118.591V115.784L46.961 115.784ZM56.018 124.55V127.477H54.6011L50.2978 130.191V131.012L51.238 130.416V133.223H53.5418L51.9134 132.032V129.992L54.7998 128.152H56.6934V124.55L56.018 124.55Z" fill="white"/>
<path d="M44.5879 127.365H45.9223L50.2491 130.11L54.5757 127.365H55.9102V121.636H54.5913H54.5757L50.2491 118.891L45.9223 121.636H44.5879V127.365Z" fill="#D22630"/>
<path d="M53.2433 125.861H54.1672V125.424H53.4722V124.63H54.9575V126.656H53.5336L53.5337 128.038H50.6027V126.052H51.8926V126.847H51.393V127.244H52.7434V126.484L47.2532 123.139H46.3294V123.575H47.0245V124.37H45.5391V122.344H46.963V120.961H47.0165H49.8939V122.948H48.6039V122.153H49.1036V121.756H47.7533V122.515L53.2433 125.861ZM52.7434 122.515V121.756H51.393V122.153H51.8926V122.948H50.6027V120.961H53.5337V122.344H54.9575V124.37H53.4722V123.575H54.1673V123.139H53.2433L47.7533 126.484V127.244H49.1036V126.846H48.6039V126.052H49.8939V128.038H46.963V126.656H45.5391V124.63H47.0245V125.424H46.3294V125.861H47.2532L52.7434 122.515Z" fill="#383739"/>
<path d="M52.8507 126.424V127.351H51.2859V126.74H51.7857V126.159H50.7099V127.931H53.4267V126.549H54.8506V124.737H53.5795V125.317H54.2744V125.969H53.2135L47.6462 122.576V121.649H49.211V122.261H48.7114V122.841H49.787V121.069H47.0703V122.451H45.6465V124.263H46.9174V123.683H46.2225V123.032H47.2834L52.8507 126.424ZM53.2135 123.032H54.2746V123.683H53.5795V124.263H54.8506V122.451H53.4268V121.069H50.7101V122.841H51.7857V122.261H51.2861V121.649H52.8507V122.576L47.2834 125.969H46.2225V125.317H46.9174V124.737H45.6465V126.549H47.0703V127.931H49.787V126.159H48.7114V126.74H49.211V127.351H47.6462V126.424L53.2135 123.032Z" fill="white"/>
<path d="M62.51 124.971V127.912H61.2587V126.873H59.9974V127.912H58.7461V124.971H59.9974V126.01H61.2587V124.971H62.51Z" fill="#383739"/>
<path d="M58.0334 128.875V131.815H56.7821V130.777H55.5208V131.815H54.2695V128.875H55.5208V129.914H56.7821V128.875H58.0334Z" fill="#383739"/>
<path d="M62.51 124.028V121.088H61.2587V122.126H59.9974V121.088H58.7461V124.028H59.9974V122.99H61.2587V124.028H62.51Z" fill="#383739"/>
<path d="M37.9883 124.971V127.912H39.2396V126.873H40.5009V127.912H41.7521V124.971H40.5009V126.01H39.2396V124.971H37.9883Z" fill="#383739"/>
<path d="M37.9883 124.028V121.088H39.2396V122.126H40.5009V121.088H41.7521V124.028H40.5009V122.99H39.2396V124.028H37.9883Z" fill="#383739"/>
<path d="M58.0334 120.125V117.185H56.7821V118.223H55.5208V117.185H54.2695V120.125H55.5208V119.087H56.7821V120.125H58.0334Z" fill="#383739"/>
<path d="M42.4668 128.875V131.815H43.7181V130.777H44.9794V131.815H46.2307V128.875H44.9794V129.914H43.7181V128.875H42.4668Z" fill="#383739"/>
<path d="M42.4668 120.125V117.185H43.7181V118.223H44.9794V117.185H46.2307V120.125H44.9794V119.087H43.7181V120.125H42.4668Z" fill="#383739"/>
<path d="M58.7793 118.064V120.298H62.9285L58.7793 118.064Z" fill="#383739"/>
<path d="M41.7195 130.936V128.703H37.5703L41.7195 130.936Z" fill="#383739"/>
<path d="M41.7195 118.064V120.298H37.5703L41.7195 118.064Z" fill="#383739"/>
<path d="M58.7793 130.936V128.703H62.9285L58.7793 130.936Z" fill="#383739"/>
<path d="M61.3651 126.766V127.804H62.4022V125.078H61.3651V126.117H59.8895V125.078H58.8525V127.804H59.8895V126.766H61.3651Z" fill="#D22630"/>
<path d="M56.8876 130.67V131.708H57.9245V128.982H56.8876V130.02H55.4119V128.982H54.375V131.708H55.4119V130.67H56.8876Z" fill="#D22630"/>
<path d="M61.3651 122.234V121.195H62.4022V123.921H61.3651V122.883H59.8895V123.921H58.8525V121.195H59.8895V122.234H61.3651Z" fill="#D22630"/>
<path d="M39.1317 126.766V127.804H38.0947V125.078H39.1317V126.117H40.6073V125.078H41.6442V127.804H40.6073V126.766H39.1317Z" fill="#D22630"/>
<path d="M39.1317 122.234V121.195H38.0947V123.921H39.1317V122.883H40.6073V123.921H41.6442V121.195H40.6073V122.234H39.1317Z" fill="#D22630"/>
<path d="M56.8876 118.33V117.292H57.9245V120.018H56.8876V118.979H55.4119V120.018H54.375V117.292H55.4119V118.33H56.8876Z" fill="#D22630"/>
<path d="M43.6092 130.67V131.708H42.5723V128.982H43.6092V130.02H45.0849V128.982H46.1219V131.708H45.0849V130.67H43.6092Z" fill="#D22630"/>
<path d="M43.6092 118.33V117.292H42.5723V120.018H43.6092V118.979H45.0849V120.018H46.1219V117.292H45.0849V118.33H43.6092Z" fill="#D22630"/>
<path d="M58.8918 118.247V120.193H62.507L58.8918 118.247ZM37.9973 128.814L41.6121 130.76V128.814H37.9973Z" fill="#FFC72C"/>
<path d="M41.6119 118.247L37.9971 120.193H41.6119V118.247ZM58.8916 128.814V130.76L62.5068 128.814H58.8916Z" fill="white"/>
<path d="M67.2234 132.706C67.0236 133.558 66.3463 134.201 66.1849 135.084C65.8618 134.163 65.5639 133.391 65.7864 132.383C65.9455 131.662 66.5518 131.148 66.622 130.408C67.2831 131.002 67.4254 131.845 67.2234 132.706ZM67.3909 136.275C66.8302 137.044 66.0508 137.634 65.1901 138.027C65.3596 137.353 65.0417 136.846 64.6887 136.312C64.2635 135.668 64.0562 135.036 64.4028 134.295C64.5644 134.68 64.7814 135 65.0361 135.33C65.4127 135.844 65.6604 136.3 65.7184 136.96C66.154 136.637 66.3454 136.155 66.5784 135.688C66.9334 135.02 67.5064 134.461 68.1646 134.096C67.9897 134.846 67.855 135.638 67.3909 136.275ZM64.2464 138.567C64.3662 138.993 64.4696 139.417 64.4465 139.863C64.817 139.464 65.3089 139.163 65.7478 138.842C66.3456 138.358 67.0423 138.017 67.531 137.402C67.4581 138.308 67.0704 139.046 66.3342 139.598C65.556 140.18 64.6175 140.493 63.851 141.105C63.9657 140.281 63.663 139.621 63.4049 138.863C63.1898 138.14 63.398 137.405 63.8888 136.853C63.8814 137.465 64.0743 137.99 64.2464 138.567ZM62.5 141.35C62.3387 141.975 61.8908 142.483 61.585 143.041C62.4097 142.785 63.1373 142.338 63.8828 141.917C64.7708 141.433 65.7349 141.126 66.5388 140.487C66.1387 141.968 65.1473 142.827 63.6968 143.265C62.705 143.564 61.8692 143.415 60.6658 143.901C60.8038 143.087 61.0469 142.207 61.4321 141.473C61.7311 140.941 62.0626 140.418 62.2472 139.832C62.5147 140.313 62.6413 140.802 62.5 141.35ZM59.4654 143.616C59.1814 144.103 58.8066 144.512 58.3418 144.835C59.5125 144.909 60.4546 144.168 61.5959 144.135C62.3009 144.115 62.9702 144.334 63.6891 144.269C62.836 144.844 61.9427 145.347 60.904 145.481C59.5537 145.656 58.3085 145.316 56.8188 145.449C57.515 144.958 57.8633 144.3 58.2972 143.593C58.8622 142.71 59.3955 142.081 60.4945 141.939C60.0534 142.435 59.7966 143.049 59.4654 143.616ZM55.3076 145.559C57.3701 145.91 59.3464 146.364 61.4528 146.385C59.095 147.207 56.8734 147.355 54.535 146.506C53.2713 146.048 52.3023 145.802 51.3479 145.871C49.953 145.971 48.2579 146.521 46.3819 148.5L45.6445 147.91C48.3333 145.514 51.8513 144.971 55.3075 145.559L55.3076 145.559Z" fill="#FFC72C"/>
</g>
<defs>
<clipPath id="clip0_1284_67352">
<rect width="250" height="150" fill="white"/>
</clipPath>
</defs>
</svg>
