<svg width="250" height="150" viewBox="0 0 250 150" fill="none" xmlns="http://www.w3.org/2000/svg">
<g clip-path="url(#clip0_1284_67595)">
<mask id="mask0_1284_67595" style="mask-type:luminance" maskUnits="userSpaceOnUse" x="0" y="0" width="250" height="150">
<path d="M0.0117188 0H249.987V150H0.0117188V0Z" fill="white"/>
</mask>
<g mask="url(#mask0_1284_67595)">
<path fill-rule="evenodd" clip-rule="evenodd" d="M-15.625 100.02H265.625V125.01H-15.625V100.02Z" fill="#FFE700"/>
<path fill-rule="evenodd" clip-rule="evenodd" d="M-15.625 75H265.625V99.9902H-15.625V75Z" fill="black"/>
<path fill-rule="evenodd" clip-rule="evenodd" d="M-15.625 50.0098H265.625V75H-15.625V50.0098Z" fill="#DE3908"/>
<path fill-rule="evenodd" clip-rule="evenodd" d="M-15.625 25.0195H265.625V50.0098H-15.625V25.0195Z" fill="#FFE700"/>
<path fill-rule="evenodd" clip-rule="evenodd" d="M-15.625 0H265.625V24.9902H-15.625V0Z" fill="black"/>
<path fill-rule="evenodd" clip-rule="evenodd" d="M-15.625 125.01H265.625V150H-15.625V125.01Z" fill="#DE3908"/>
<path fill-rule="evenodd" clip-rule="evenodd" d="M148.7 75C148.7 81.1927 146.24 87.1318 141.861 91.5107C137.482 95.8896 131.543 98.3496 125.35 98.3496C119.157 98.3496 113.218 95.8896 108.839 91.5107C104.46 87.1318 102 81.1927 102 75C102 68.8073 104.46 62.8682 108.839 58.4893C113.218 54.1104 119.157 51.6504 125.35 51.6504C131.543 51.6504 137.482 54.1104 141.861 58.4893C146.24 62.8682 148.7 68.8073 148.7 75Z" fill="#FFFDFF" stroke="black" stroke-width="0.24"/>
<path fill-rule="evenodd" clip-rule="evenodd" d="M121.249 57.0996L119.726 54.3164C120.312 53.7305 121.278 53.2617 122.86 53.2617L122.685 56.3379L121.22 57.0996H121.249Z" fill="#DE3108" stroke="black" stroke-width="0.24"/>
<path fill-rule="evenodd" clip-rule="evenodd" d="M122.714 56.3377L122.919 53.2616C122.919 53.2616 126.054 53.0858 127.753 55.1366L126.083 57.5389L122.685 56.367L122.714 56.3377Z" fill="#FFE700" stroke="black" stroke-width="0.24"/>
<path fill-rule="evenodd" clip-rule="evenodd" d="M126.112 57.5098L127.665 55.1074C128.69 56.1914 129.13 56.9531 129.276 58.125C129.306 58.1543 126.845 58.7402 126.845 58.7109L126.112 57.5098Z" fill="#DE3108" stroke="black" stroke-width="0.24"/>
<path fill-rule="evenodd" clip-rule="evenodd" d="M122.01 97.0021C122.01 97.0021 124.91 93.6915 130.535 94.3947C129.686 93.0177 126.932 93.1935 126.932 93.1935C126.932 93.1935 126.111 86.7482 126.756 86.3966C127.401 86.045 130.272 86.4259 130.272 86.4259C130.623 86.4259 131.268 85.4298 130.74 84.7853C130.242 84.1408 128.748 81.7091 129.364 81.2111C129.979 80.7423 133.289 81.504 133.289 81.504L123.914 69.4923C123.914 69.4923 122.947 64.9513 124.881 62.754C127.195 60.8497 126.932 58.7697 126.873 58.799C126.551 56.6896 123.358 55.1954 121.19 57.129C119.93 58.6525 120.779 59.8244 120.779 59.8244C120.779 59.8244 117.41 60.7326 117.293 61.3185C117.147 61.9044 121.072 61.2306 121.072 61.2306L120.691 63.8966C120.691 63.8966 113.074 70.8107 118.934 76.7872L119.109 76.5529C119.109 76.5529 121.16 79.0724 123.299 79.629C125.35 81.6798 125.145 81.3868 125.145 81.3868C125.145 81.3868 125.526 84.6388 125.145 85.2833C124.647 85.1369 119.49 84.9318 118.729 85.2247C118.025 85.4591 115.389 85.3126 116.033 89.6486L117 87.4513C117 87.4513 116.912 89.004 117.557 89.5607C117.439 87.9201 118.172 86.8068 118.172 86.8068C118.172 86.8068 118.289 88.6232 118.699 88.8575C119.109 89.1505 119.109 85.9279 121.336 86.2208C123.504 86.4845 125.115 86.3966 125.115 86.3966C125.115 86.3966 125.848 92.6661 125.613 93.2521C124.031 92.8712 120.223 93.3986 119.988 94.3654C122.215 94.2189 123.24 94.4825 123.24 94.4825C123.24 94.4825 121.453 96.0939 122.01 97.0021Z" fill="black" stroke="black" stroke-width="0.24" stroke-linecap="round" stroke-linejoin="round"/>
<path fill-rule="evenodd" clip-rule="evenodd" d="M122.889 62.9297C122.889 62.9297 117.352 69.0234 119.755 73.6816C119.872 73.0371 119.813 72.627 119.901 72.6563C119.755 72.5684 120.575 73.2129 120.516 73.0957C120.516 72.7441 120.282 72.0117 120.282 72.0117L121.014 72.2168L120.575 71.3965L121.659 71.5137C121.659 71.5137 121.278 70.5176 121.395 70.5176L122.274 70.5762C120.692 67.7637 122.186 65.4199 122.889 62.9004V62.9297Z" fill="#9CA69C" stroke="#9CA69C" stroke-width="0.24" stroke-linecap="round" stroke-linejoin="round"/>
<path fill-rule="evenodd" clip-rule="evenodd" d="M124.823 57.6855C124.823 57.6855 125.116 59.7949 123.944 60.3809C123.798 60.5273 123.065 60.7617 123.183 61.2012C123.3 61.7871 123.622 61.6699 124.061 61.5527C125.263 61.3477 126.669 58.7988 124.823 57.6855Z" fill="#9CA69C" stroke="#9CA69C" stroke-width="0.24"/>
<path fill-rule="evenodd" clip-rule="evenodd" d="M122.772 59.4727C122.772 59.5892 122.726 59.701 122.644 59.7834C122.561 59.8658 122.45 59.9121 122.333 59.9121C122.216 59.9121 122.105 59.8658 122.022 59.7834C121.94 59.701 121.894 59.5892 121.894 59.4727C121.894 59.3561 121.94 59.2443 122.022 59.1619C122.105 59.0795 122.216 59.0332 122.333 59.0332C122.45 59.0332 122.561 59.0795 122.644 59.1619C122.726 59.2443 122.772 59.3561 122.772 59.4727Z" fill="white"/>
<path fill-rule="evenodd" clip-rule="evenodd" d="M120.985 61.2305C120.692 61.4941 119.169 63.0762 120.692 63.6621C122.245 63.252 121.805 62.959 122.157 62.6074C122.157 61.875 121.395 61.6992 120.985 61.2598V61.2305Z" fill="#DE3108" stroke="black" stroke-width="0.24"/>
<path fill-rule="evenodd" clip-rule="evenodd" d="M124.354 76.3184C124.266 76.6699 123.914 77.959 124.383 78.9551C125.731 78.3691 126.346 78.5449 126.785 78.8379C125.701 77.959 125.262 77.5781 124.354 76.3184Z" fill="#9CA69C" stroke="#9CA69C" stroke-width="0.24" stroke-linecap="round" stroke-linejoin="round"/>
<path fill-rule="evenodd" clip-rule="evenodd" d="M126.64 82.3535L126.698 85.3418C126.698 85.3418 127.753 85.5176 128.222 85.3418C128.69 85.166 128.222 83.291 126.64 82.3535Z" fill="white" stroke="white" stroke-width="0.24" stroke-linecap="round" stroke-linejoin="round"/>
<path fill-rule="evenodd" clip-rule="evenodd" d="M134.14 82.7345C134.14 82.7345 132.235 78.1056 127.343 76.9338C122.45 75.7619 123.094 70.547 123.475 70.2248C123.71 69.7853 123.856 69.0822 125.262 69.756C126.669 70.4299 133.173 73.6818 134.11 73.8576C135.048 74.0334 134.227 82.8517 134.169 82.7345H134.14Z" fill="#9CA69C" stroke="black" stroke-width="0.24"/>
<path fill-rule="evenodd" clip-rule="evenodd" d="M129.511 76.9043C129.423 76.9629 136.044 80.8301 134.052 84.1406C135.927 82.8809 135.341 80.7129 135.341 80.7129C135.341 80.7129 136.864 84.7266 133.114 86.6895C133.524 87.041 133.788 86.9824 133.788 86.9824L133.144 87.5977C133.144 87.5977 132.851 88.0957 135.37 86.8652C134.696 87.4219 134.638 87.832 134.638 87.832C134.638 87.832 134.814 88.3594 136.454 86.9238C135.136 88.3594 134.843 89.0918 134.843 89.0625C138.446 88.7695 146.269 77.0508 132.382 73.623L132.997 74.2676L129.481 76.9043H129.511Z" fill="#DE3108" stroke="black" stroke-width="0.24" stroke-linejoin="round"/>
<path fill-rule="evenodd" clip-rule="evenodd" d="M129.803 75.7614C130.682 76.4059 131.004 76.6403 131.121 76.9333C130.301 76.7575 129.568 76.8161 129.568 76.8161C129.568 76.8161 127.781 75.1169 127.459 74.9704C127.225 74.9704 125.818 74.0915 125.818 74.0915C125.145 73.7399 124.5 71.3669 127.049 72.0407C128.027 72.5505 129.034 73.0006 130.067 73.3883L133.201 74.3844L135.018 76.4059C135.018 76.4059 131.795 74.8239 131.385 74.7946C132.264 75.4977 132.762 76.4938 132.762 76.4938C131.736 76.2008 130.858 75.9079 129.803 75.7614Z" fill="white" stroke="black" stroke-width="0.24" stroke-linecap="round" stroke-linejoin="round"/>
<path d="M117.265 61.4942C117.265 61.4942 120.341 60.7325 120.722 60.8497" stroke="white" stroke-width="0.24" stroke-linecap="round"/>
</g>
</g>
<defs>
<clipPath id="clip0_1284_67595">
<rect width="250" height="150" fill="white"/>
</clipPath>
</defs>
</svg>
