<svg width="250" height="150" viewBox="0 0 250 150" fill="none" xmlns="http://www.w3.org/2000/svg">
<g clip-path="url(#clip0_1284_67681)">
<path fill-rule="evenodd" clip-rule="evenodd" d="M0 0H356.25V11.5431H0V0ZM0 23.0859H356.25V34.6291H0V23.0859ZM0 46.1425H356.25V57.7147H0V46.1425ZM0 69.2284H356.25V80.7716H0V69.2284ZM0 92.3144H356.25V103.857H0V92.3144ZM0 115.371H356.25V126.914H0V115.371ZM0 138.457H356.25V150H0V138.457Z" fill="#BD3D44"/>
<path fill-rule="evenodd" clip-rule="evenodd" d="M0 11.543H356.25V23.0858H0V11.543ZM0 34.6286H356.25V46.1423H0V34.6286ZM0 57.6855H356.25V69.2283H0V57.6855ZM0 80.7714H356.25V92.3142H0V80.7714ZM0 103.857H356.25V115.4H0V103.857ZM0 126.914H356.25V138.457H0V126.914Z" fill="white"/>
<path fill-rule="evenodd" clip-rule="evenodd" d="M0 0H114V80.7716H0V0Z" fill="#192F5D"/>
<path fill-rule="evenodd" clip-rule="evenodd" d="M9.49226 3.45703L10.547 6.64984H13.8872L11.1914 8.61297L12.2171 11.8355L9.49226 9.84328L6.79681 11.8061L7.82217 8.61297L5.09766 6.64984H8.49627L9.49226 3.45703ZM28.507 3.45703L29.5324 6.64984H32.9016L30.1768 8.61297L31.2025 11.8355L28.507 9.84328L25.7822 11.8061L26.8075 8.61297L24.1121 6.64984H27.4523L28.507 3.45703ZM47.4924 3.45703L48.5471 6.65016H51.8579L49.1624 8.61328L50.1875 11.8358L47.463 9.84359L44.7675 11.8064L45.7929 8.61328L43.0681 6.65016H46.4376L47.4924 3.45703ZM66.5071 3.45703L67.5322 6.65016H70.9017L68.1769 8.61328L69.2316 11.8358L66.5068 9.84359L63.7823 11.8064L64.837 8.61328L62.1122 6.65016H65.4524L66.5071 3.45703ZM85.4925 3.45703L86.5472 6.65016H89.8871L87.1916 8.61328L88.217 11.8358L85.4922 9.84359L82.7967 11.8064L83.8224 8.61328L81.1269 6.65016H84.4668L85.4925 3.45703ZM104.507 3.45703L105.532 6.65016H108.902L106.177 8.61328L107.232 11.8358L104.507 9.84359L101.782 11.8064L102.837 8.61328L100.112 6.65016H103.482L104.507 3.45703ZM19.0143 11.5423L20.0397 14.7361H23.4089L20.6841 16.6986L21.6804 19.8923L19.0434 17.9292L16.3189 19.892L17.2855 16.6989L14.6488 14.7358H17.989L19.0143 11.5423ZM37.9997 11.5423L39.0544 14.7361H42.3943L39.6695 16.6986L40.7245 19.8923L37.9994 17.9292L35.2749 19.892L36.3296 16.6989L33.6048 14.7358H36.974L37.9997 11.5423ZM57.0144 11.5423L58.0395 14.7361H61.409L58.6842 16.6986L59.7096 19.8923L57.0141 17.9292L54.2896 19.892L55.315 16.6992L52.6195 14.7361H55.9597L57.0144 11.5423ZM75.9998 11.5423L77.0545 14.7361H80.3944L77.6696 16.6986L78.7243 19.8923L75.9995 17.9292L73.304 19.892L74.3297 16.6989L71.6049 14.7358H75.0035L75.9998 11.5423ZM95.0142 11.5423L96.0396 14.7361H99.4091L96.6843 16.6986L97.7097 19.8923L95.0142 17.9292L92.2894 19.892L93.3151 16.6989L90.6196 14.7358H93.9595L95.0142 11.5423ZM9.49226 19.5998L10.547 22.8517H13.8872L11.1914 24.8145L12.2171 28.008L9.49226 26.0158L6.79681 28.008L7.82217 24.7852L5.09766 22.8227H8.49627L9.49226 19.5998ZM28.507 19.5998L29.5324 22.8217H32.9016L30.1768 24.7845L31.2025 27.9783L28.507 25.9858L25.7822 27.978L26.8075 24.7555L24.1121 22.7927H27.4523L28.507 19.5998ZM47.4924 19.5998L48.5471 22.8223H51.8579L49.1624 24.7852L50.1875 27.9789L47.463 25.9864L44.7675 27.9786L45.7929 24.7561L43.0681 22.7933H46.4376L47.4924 19.5998ZM66.5071 19.5998L67.5322 22.8223H70.9017L68.1769 24.7852L69.2316 27.9789L66.5068 25.9864L63.7823 27.9786L64.837 24.7561L62.1122 22.7933H65.4524L66.5071 19.5998ZM85.4925 19.5998L86.5472 22.8223H89.8871L87.1916 24.7848L88.217 27.9786L85.4922 25.9861L82.7967 27.9783L83.8224 24.7558L81.1269 22.793H84.4668L85.4925 19.5998ZM104.507 19.5998L105.532 22.8223H108.902L106.177 24.7852L107.232 27.9789L104.507 25.9864L101.782 27.9786L102.837 24.7561L100.112 22.7933H103.482L104.507 19.5998ZM19.0143 27.6855L20.0397 30.8789H23.4089L20.6841 32.8414L21.7098 36.0642L19.0143 34.072L16.2895 36.0348L17.3149 32.8417L14.6194 30.8789H17.9599L19.0143 27.6855ZM37.9997 27.6855L39.0544 30.8789H42.3943L39.6695 32.8414L40.7245 36.0642L37.9994 34.072L35.2749 36.0348L36.3296 32.8417L33.6048 30.8789H36.974L37.9997 27.6855ZM57.0144 27.6855L58.0395 30.8789H61.409L58.6842 32.8414L59.7096 36.0642L57.0141 34.072L54.2896 36.0348L55.315 32.8417L52.6195 30.8789H55.9597L57.0144 27.6855ZM75.9998 27.6855L77.0545 30.8789H80.3944L77.6989 32.8414L78.7243 36.0642L75.9995 34.072L73.304 36.0348L74.3297 32.8417L71.6049 30.8789H75.0035L75.9998 27.6855ZM95.0142 27.6855L96.0396 30.8789H99.4091L96.6843 32.8414L97.7097 36.0642L95.0142 34.072L92.2894 36.0348L93.3151 32.8417L90.6196 30.8789H93.9595L95.0142 27.6855ZM9.49226 35.7714L10.547 38.9648H13.8872L11.1914 40.9273L12.2171 44.1502L9.49226 42.158L6.79681 44.1208L7.82217 40.9277L5.09766 38.9648H8.49627L9.49226 35.7714ZM28.507 35.7714L29.5324 38.9648H32.9016L30.1768 40.9273L31.2025 44.1211L28.507 42.158L25.7822 44.1208L26.8075 40.9277L24.1121 38.9648H27.4523L28.507 35.7714ZM47.4924 35.7714L48.5471 38.9648H51.8579L49.1624 40.9273L50.1875 44.1502L47.463 42.158L44.7675 44.1208L45.7929 40.9277L43.0681 38.9648H46.4376L47.4924 35.7714ZM66.5071 35.7714L67.5322 38.9648H70.9017L68.1769 40.9273L69.2316 44.1502L66.5068 42.158L63.7823 44.1208L64.837 40.9277L62.1122 38.9648H65.4524L66.5071 35.7714ZM85.4925 35.7714L86.5472 38.9648H89.8871L87.1916 40.9273L88.217 44.1502L85.4922 42.158L82.7967 44.1208L83.8224 40.9277L81.1269 38.9648H84.4668L85.4925 35.7714ZM104.507 35.7714L105.532 38.9648H108.902L106.177 40.9273L107.232 44.1502L104.507 42.158L101.782 44.1208L102.837 40.9277L100.112 38.9648H103.482L104.507 35.7714ZM19.0143 43.8573L20.0397 47.0508H23.4089L20.6841 49.0133L21.7098 52.207L19.0143 50.2148L16.2895 52.207L17.3149 48.9842L14.6194 47.0214H17.9599L19.0143 43.8573ZM37.9997 43.8573L39.0544 47.0508H42.3943L39.6695 49.0133L40.7245 52.207L37.9994 50.2148L35.2749 52.207L36.3296 48.9842L33.6048 47.0214H36.974L37.9997 43.8573ZM57.0144 43.8573L58.0395 47.0508H61.409L58.6842 49.0133L59.7096 52.207L57.0141 50.2148L54.2896 52.207L55.315 48.9842L52.6195 47.0214H55.9597L57.0144 43.8573ZM75.9998 43.8573L77.0545 47.0508H80.3944L77.6989 49.0133L78.7243 52.207L75.9995 50.2148L73.304 52.207L74.3297 48.9842L71.6049 47.0214H75.0035L75.9998 43.8573ZM95.0142 43.8573L96.0396 47.0508H99.4091L96.6843 49.0133L97.7097 52.207L95.0142 50.2148L92.2894 52.207L93.3151 48.9842L90.6196 47.0214H93.9595L95.0142 43.8573ZM9.49226 51.9139L10.547 55.1367H13.8872L11.1914 57.0992L12.2171 60.2636L9.49226 58.3008L6.79681 60.2633L7.82217 57.0702L5.09766 55.1073H8.49627L9.49226 51.9139ZM28.507 51.9139L29.5324 55.1367H32.9016L30.1768 57.0992L31.2318 60.2636L28.5067 58.3008L25.7822 60.2633L26.8369 57.0702L24.1121 55.1073H27.4523L28.507 51.9139ZM47.4924 51.9139L48.5471 55.1367H51.8579L49.1624 57.0992L50.1875 60.2636L47.463 58.3008L44.7675 60.2633L45.7929 57.0702L43.0681 55.1073H46.4376L47.4924 51.9139ZM66.5071 51.9139L67.5322 55.1367H70.9017L68.1769 57.0992L69.2316 60.2636L66.5068 58.3008L63.7823 60.2633L64.837 57.0702L62.1122 55.1073H65.4524L66.5071 51.9139ZM85.4925 51.9139L86.5472 55.1367H89.8871L87.1916 57.0992L88.217 60.2636L85.4922 58.3008L82.7967 60.2633L83.8224 57.0702L81.1269 55.1073H84.4668L85.4925 51.9139ZM104.507 51.9139L105.532 55.1367H108.902L106.177 57.0992L107.232 60.2636L104.507 58.3008L101.782 60.2633L102.837 57.0702L100.112 55.1073H103.482L104.507 51.9139ZM19.0143 59.9998L20.0397 63.1933H23.4089L20.6841 65.1561L21.7098 68.3789L19.0143 66.3867L16.2895 68.3492L17.3149 65.1561L14.6194 63.1933H17.9599L19.0143 59.9998ZM37.9997 59.9998L39.0544 63.1933H42.3943L39.6695 65.1561L40.7245 68.3789L37.9994 66.3867L35.2749 68.3492L36.3296 65.1561L33.6048 63.1933H36.974L37.9997 59.9998ZM57.0144 59.9998L58.0395 63.1933H61.409L58.6842 65.1561L59.7096 68.3789L57.0141 66.3867L54.2896 68.3492L55.315 65.1561L52.6195 63.1933H55.9597L57.0144 59.9998ZM75.9998 59.9998L77.0545 63.1933H80.3944L77.6989 65.1561L78.7243 68.3789L75.9995 66.3867L73.304 68.3492L74.3297 65.1561L71.6049 63.1933H75.0035L75.9998 59.9998ZM95.0142 59.9998L96.0396 63.1933H99.4091L96.6843 65.1561L97.7097 68.3789L95.0142 66.3867L92.2894 68.3492L93.3151 65.1561L90.6196 63.1933H93.9595L95.0142 59.9998ZM9.49226 68.0858L10.547 71.2792H13.8872L11.1914 73.242L12.2171 76.4355L9.49226 74.4727L6.79681 76.4352L7.82217 73.2127L5.09766 71.2498H8.49627L9.49226 68.0858ZM28.507 68.0858L29.5324 71.2792H32.9016L30.1768 73.242L31.2318 76.4355L28.5067 74.4727L25.7822 76.4352L26.8369 73.2127L24.1121 71.2498H27.4523L28.507 68.0858ZM47.4924 68.0858L48.5471 71.2792H51.8579L49.2209 73.242L50.2463 76.4355L47.5214 74.4727L44.826 76.4352L45.8517 73.2127L43.1268 71.2498H46.4961L47.4924 68.0858ZM66.5071 68.0858L67.5322 71.2792H70.9017L68.1769 73.242L69.2316 76.4355L66.5068 74.4727L63.7823 76.4352L64.837 73.2127L62.1122 71.2498H65.4524L66.5071 68.0858ZM85.4925 68.0858L86.5472 71.2792H89.8871L87.1916 73.242L88.217 76.4355L85.4922 74.4727L82.7967 76.4352L83.8224 73.2127L81.1269 71.2498H84.4668L85.4925 68.0858ZM104.507 68.0858L105.532 71.2792H108.902L106.177 73.242L107.232 76.4355L104.507 74.4727L101.782 76.4352L102.837 73.2127L100.112 71.2498H103.482L104.507 68.0858Z" fill="white"/>
</g>
<defs>
<clipPath id="clip0_1284_67681">
<rect width="250" height="150" fill="white"/>
</clipPath>
</defs>
</svg>
