<svg width="250" height="150" viewBox="0 0 250 150" fill="none" xmlns="http://www.w3.org/2000/svg">
<g clip-path="url(#clip0_1284_67627)">
<path d="M0 0H250V150H0V0Z" fill="white"/>
<path d="M92.5928 16.6665H250V33.3332H92.5928V16.6665Z" fill="#0038A8"/>
<path d="M92.5928 50H250V66.6667H92.5928V50Z" fill="#0038A8"/>
<path d="M0 83.333H250V99.9997H0V83.333Z" fill="#0038A8"/>
<path d="M0 116.667H250V133.333H0V116.667Z" fill="#0038A8"/>
<path d="M43.8663 49.8149L46.6252 53.9342C35.2885 62.1374 42.2097 66.9883 34.1758 69.6141C39.1726 64.7383 33.5153 63.9862 37.7253 53.8236" fill="#FCD116"/>
<path d="M43.8663 49.8149L46.6252 53.9342C35.2885 62.1374 42.2097 66.9883 34.1758 69.6141C39.1726 64.7383 33.5153 63.9862 37.7253 53.8236" stroke="#7B3F00" stroke-width="0.2" stroke-miterlimit="20" stroke-linecap="square"/>
<path d="M38.5517 46.2435L37.72 51.2185C23.8302 48.5776 25.5199 57.174 17.872 53.0445C24.8621 53.3158 21.4242 48.5058 31.4835 44.4454" fill="#FCD116"/>
<path d="M38.5517 46.2435L37.72 51.2185C23.8302 48.5776 25.5199 57.174 17.872 53.0445C24.8621 53.3158 21.4242 48.5058 31.4835 44.4454" stroke="#7B3F00" stroke-width="0.2" stroke-miterlimit="20" stroke-linecap="square"/>
<path d="M38.5462 46.1563L36.3508 45.6929L36.3757 45.7865C30.5856 47.1051 27.4859 49.5122 25.0566 51.3397C23.8413 52.2532 22.7926 53.0297 21.6437 53.435C20.8829 53.7083 20.0608 53.789 19.2441 53.6705C25.3189 56.0325 24.7284 48.6862 37.7126 51.1634L38.5462 46.1563Z" fill="#7B3F00" stroke="#7B3F00" stroke-width="0.2" stroke-miterlimit="20" stroke-linecap="square"/>
<path d="M36.3935 45.5461C24.6599 48.2441 23.7311 55.4759 17.8122 53.1571" stroke="#7B3F00" stroke-width="0.2" stroke-miterlimit="20"/>
<path d="M45.7528 41.6669L41.8633 37.7778L24.3604 63.0569L49.6424 45.556L45.7528 41.6669L24.3604 63.0569L45.7528 41.6669Z" fill="#FCD116"/>
<path d="M45.7528 41.6669L41.8633 37.7778L24.3604 63.0569M45.7528 41.6669L49.6424 45.556L24.3604 63.0569M45.7528 41.6669L24.3604 63.0569" stroke="#7B3F00" stroke-width="0.2" stroke-miterlimit="20"/>
<path d="M37.5008 39.6318L33.3029 42.5765C25.3976 31.1382 20.3549 38.381 17.9435 30.1912C22.6892 35.1996 23.6413 29.3724 33.7005 33.4327" fill="#FCD116"/>
<path d="M37.5008 39.6318L33.3029 42.5765C25.3976 31.1382 20.3549 38.381 17.9435 30.1912C22.6892 35.1996 23.6413 29.3724 33.7005 33.4327" stroke="#7B3F00" stroke-width="0.2" stroke-miterlimit="20" stroke-linecap="square"/>
<path d="M37.5661 39.6075L36.3489 37.7617L36.2988 37.8451C31.2512 34.7733 27.319 34.3319 24.2798 33.9442C22.76 33.7497 21.457 33.5736 20.3516 33.0656C19.6161 32.7328 18.9764 32.2213 18.4846 31.5727C21.0723 37.4439 25.9663 31.8409 33.3565 42.5716L37.5661 39.6075Z" fill="#7B3F00" stroke="#7B3F00" stroke-width="0.2" stroke-miterlimit="20" stroke-linecap="square"/>
<path d="M36.4268 37.7229C26.2007 31.4261 20.3727 35.8902 17.8456 30.1119" stroke="#7B3F00" stroke-width="0.2" stroke-miterlimit="20"/>
<path d="M45.7539 41.667V36.167L15.5004 41.667L45.7539 47.167V41.667H15.5004H45.7539Z" fill="#FCD116"/>
<path d="M45.7539 41.667V36.167L15.5004 41.667M45.7539 41.667V47.167L15.5004 41.667M45.7539 41.667H15.5004" stroke="#7B3F00" stroke-width="0.2" stroke-miterlimit="20"/>
<path d="M45.7539 41.667H15.5004L45.7539 47.167" fill="#7B3F00"/>
<path d="M41.3262 34.5715L36.4623 33.6094C38.6774 19.7935 30.3528 21.2569 34.1767 13.72C34.0916 20.7006 38.9213 17.9485 43.1314 28.1111" fill="#FCD116"/>
<path d="M41.3262 34.5715L36.4623 33.6094C38.6774 19.7935 30.3528 21.2569 34.1767 13.72C34.0916 20.7006 38.9213 17.9485 43.1314 28.1111" stroke="#7B3F00" stroke-width="0.2" stroke-miterlimit="20" stroke-linecap="square"/>
<path d="M41.3254 34.572L41.7177 32.3953L41.6277 32.4177C40.2044 26.6105 37.7967 23.4574 35.9669 20.9876C35.0522 19.7522 34.2742 18.6863 33.8529 17.5303C33.5691 16.7647 33.47 15.9429 33.5638 15.1318C31.434 21.1267 38.5254 20.7297 36.4606 33.6102L41.3254 34.572Z" fill="#7B3F00" stroke="#7B3F00" stroke-width="0.2" stroke-miterlimit="20" stroke-linecap="square"/>
<path d="M41.895 32.3515C39.0282 20.6403 32.1194 19.5329 34.1767 13.7199" stroke="#7B3F00" stroke-width="0.2" stroke-miterlimit="20"/>
<path d="M45.753 41.6669L49.6426 37.7778L24.3606 20.2769L41.8635 45.556L45.753 41.6669L24.3606 20.2769L45.753 41.6669Z" fill="#FCD116"/>
<path d="M45.753 41.6669L49.6426 37.7778L24.3606 20.2769M45.753 41.6669L41.8635 45.556L24.3606 20.2769M45.753 41.6669L24.3606 20.2769" stroke="#7B3F00" stroke-width="0.2" stroke-miterlimit="20"/>
<path d="M45.7539 41.667L24.3614 20.277L41.8644 45.5561" fill="#7B3F00"/>
<path d="M47.4918 33.6183L44.9183 29.5732C56.1522 21.0871 49.5524 16.4174 57.4298 13.5883C52.4453 18.5878 57.8946 19.2472 53.5362 29.5088" fill="#FCD116"/>
<path d="M47.4918 33.6183L44.9183 29.5732C56.1522 21.0871 49.5524 16.4174 57.4298 13.5883C52.4453 18.5878 57.8946 19.2472 53.5362 29.5088" stroke="#7B3F00" stroke-width="0.2" stroke-miterlimit="20" stroke-linecap="square"/>
<path d="M47.469 33.5552L49.2567 32.2514L49.1812 32.2058C52.3093 27.0314 52.9213 23.0993 53.4378 20.0579C53.6966 18.5369 53.9274 17.2324 54.4584 16.1076C54.8068 15.3594 55.3175 14.6975 55.9489 14.1756C50.3277 17.0462 55.3191 21.6281 44.9105 29.52L47.469 33.5552Z" fill="#7B3F00" stroke="#7B3F00" stroke-width="0.2" stroke-miterlimit="20" stroke-linecap="square"/>
<path d="M49.5311 32.3607C55.7452 21.9752 51.9889 16.4564 57.351 13.6802" stroke="#7B3F00" stroke-width="0.2" stroke-miterlimit="20"/>
<path d="M45.7542 41.667H51.2549L45.7542 11.417L40.2536 41.667H45.7542V11.417V41.667Z" fill="#FCD116"/>
<path d="M45.7542 41.667H51.2549L45.7542 11.417M45.7542 41.667H40.2536L45.7542 11.417M45.7542 41.667V11.417" stroke="#7B3F00" stroke-width="0.2" stroke-miterlimit="20"/>
<path d="M45.7539 41.667V11.417L40.2533 41.667" fill="#7B3F00"/>
<path d="M52.8486 37.2397L53.8108 32.3763C67.6283 34.5911 66.1648 26.2675 73.7025 30.091C66.7211 30.0059 69.8314 34.6223 59.6675 38.8319" fill="#FCD116"/>
<path d="M52.8486 37.2397L53.8108 32.3763C67.6283 34.5911 66.1648 26.2675 73.7025 30.091C66.7211 30.0059 69.8314 34.6223 59.6675 38.8318" stroke="#7B3F00" stroke-width="0.2" stroke-miterlimit="20" stroke-linecap="square"/>
<path d="M52.8479 37.2387L55.0248 37.6309L55.0024 37.541C60.8102 36.1178 63.9638 33.7104 66.4338 31.8807C67.6694 30.9662 68.7354 30.1883 69.8916 29.767C70.6573 29.4832 71.4791 29.3842 72.2903 29.478C66.2948 27.3484 66.6918 34.4389 53.8098 32.3744L52.8479 37.2387Z" fill="#7B3F00" stroke="#7B3F00" stroke-width="0.2" stroke-miterlimit="20" stroke-linecap="square"/>
<path d="M55.0689 37.8082C66.7814 34.9416 67.889 28.0337 73.7026 30.0907" stroke="#7B3F00" stroke-width="0.2" stroke-miterlimit="20"/>
<path d="M45.7521 41.6671L49.6416 45.5562L67.1445 20.2771L41.8625 37.778L45.7521 41.6671L67.1445 20.2771L45.7521 41.6671Z" fill="#FCD116"/>
<path d="M45.7521 41.6671L49.6416 45.5562L67.1445 20.2771M45.7521 41.6671L41.8625 37.778L67.1445 20.2771M45.7521 41.6671L67.1445 20.2771" stroke="#7B3F00" stroke-width="0.2" stroke-miterlimit="20"/>
<path d="M45.752 41.667L67.1444 20.277L41.8624 37.7779" fill="#7B3F00"/>
<path d="M54.0078 43.7027L58.2057 40.758C66.111 52.1964 71.1539 44.9535 73.5653 53.1435C68.8195 48.135 67.7522 53.9071 57.693 49.8467" fill="#FCD116"/>
<path d="M54.0078 43.7027L58.2057 40.758C66.111 52.1964 71.1539 44.9535 73.5653 53.1435C68.8195 48.135 67.7522 53.9071 57.693 49.8467" stroke="#7B3F00" stroke-width="0.2" stroke-miterlimit="20" stroke-linecap="square"/>
<path d="M53.9417 43.727L55.1589 45.5728L55.209 45.4894C60.2566 48.5611 64.1888 49.0025 67.228 49.3903C68.7478 49.5847 70.0508 49.7609 71.1562 50.2689C71.8917 50.6017 72.5314 51.1132 73.0232 51.7617C70.4355 45.8906 65.5415 51.4935 58.1513 40.7629L53.9417 43.727Z" fill="#7B3F00" stroke="#7B3F00" stroke-width="0.2" stroke-miterlimit="20" stroke-linecap="square"/>
<path d="M55.081 45.6111C65.3071 51.9079 71.1351 47.4438 73.6623 53.2221" stroke="#7B3F00" stroke-width="0.2" stroke-miterlimit="20"/>
<path d="M45.7539 41.667V47.167L76.0074 41.667L45.7539 36.167V41.667H76.0074H45.7539Z" fill="#FCD116"/>
<path d="M45.7539 41.667V47.167L76.0074 41.667M45.7539 41.667V36.167L76.0074 41.667M45.7539 41.667H76.0074" stroke="#7B3F00" stroke-width="0.2" stroke-miterlimit="20"/>
<path d="M45.7539 41.667H76.0074L45.7539 36.167" fill="#7B3F00"/>
<path d="M50.1819 48.7627L55.0458 49.7248C52.8307 63.5407 61.1553 62.0774 57.3314 69.6143C57.4165 62.6337 52.8199 65.8667 48.6099 55.704" fill="#FCD116"/>
<path d="M50.1819 48.7627L55.0458 49.7248C52.8307 63.5407 61.1553 62.0774 57.3314 69.6143C57.4165 62.6337 52.8199 65.8667 48.6099 55.704" stroke="#7B3F00" stroke-width="0.2" stroke-miterlimit="20" stroke-linecap="square"/>
<path d="M50.1824 48.7625L49.7901 50.9391L49.8801 50.9168C51.3034 56.7239 53.7111 59.8771 55.5409 62.3468C56.4556 63.5823 57.2336 64.6482 57.6549 65.8042C57.9387 66.5698 58.0378 67.3916 57.944 68.2027C60.0738 62.2078 52.9825 62.6048 55.0472 49.7243L50.1824 48.7625Z" fill="#7B3F00" stroke="#7B3F00" stroke-width="0.2" stroke-miterlimit="20" stroke-linecap="square"/>
<path d="M49.6128 50.983C52.4796 62.6941 59.3884 63.8015 57.3311 69.6146" stroke="#7B3F00" stroke-width="0.2" stroke-miterlimit="20"/>
<path d="M45.7538 41.6671L41.8643 45.5562L67.1463 63.057L49.6433 37.778L45.7538 41.6671L67.1463 63.057L45.7538 41.6671Z" fill="#FCD116"/>
<path d="M45.7538 41.6671L41.8643 45.5562L67.1463 63.057M45.7538 41.6671L49.6433 37.778L67.1463 63.057M45.7538 41.6671L67.1463 63.057" stroke="#7B3F00" stroke-width="0.2" stroke-miterlimit="20"/>
<path d="M45.7539 41.667L67.1464 63.057L49.6434 37.7779" fill="#7B3F00"/>
<path d="M43.867 49.8154L42.0504 51.0772L42.1298 51.125C39.0295 56.2376 38.5021 60.1695 38.0494 63.2096C37.8225 64.7299 37.6188 66.0336 37.0992 67.149C36.7585 67.891 36.2474 68.5421 35.6074 69.0493C41.3529 66.3161 36.0579 61.5831 46.6268 53.935L43.867 49.8154Z" fill="#7B3F00" stroke="#7B3F00" stroke-width="0.2" stroke-miterlimit="20" stroke-linecap="square"/>
<path d="M41.8932 50.9829C35.6383 61.2909 39.7404 66.9586 34.1748 69.6145" stroke="#7B3F00" stroke-width="0.2" stroke-miterlimit="20"/>
<path d="M45.7516 41.667H40.251L45.7516 71.917L51.2523 41.667H45.7516V71.917V41.667Z" fill="#FCD116"/>
<path d="M45.7516 41.667H40.251L45.7516 71.917M45.7516 41.667H51.2523L45.7516 71.917M45.7516 41.667V71.917" stroke="#7B3F00" stroke-width="0.2" stroke-miterlimit="20"/>
<path d="M45.7539 41.667V71.917L51.2545 41.667" fill="#7B3F00"/>
<path d="M45.7528 41.667L24.3604 63.057L49.6424 45.5561" fill="#7B3F00"/>
<path d="M45.7534 51.75C51.3228 51.75 55.8378 47.2355 55.8378 41.6667C55.8378 36.0979 51.3228 31.5835 45.7534 31.5835C40.1839 31.5835 35.6689 36.0979 35.6689 41.6667C35.6689 47.2355 40.1839 51.75 45.7534 51.75Z" fill="#FCD116" stroke="#7B3F00" stroke-width="0.2" stroke-miterlimit="20"/>
<path d="M53.1796 37.6336C52.5379 38.367 52.1712 37.0836 49.8793 37.0836C47.5873 37.0836 47.2206 38.4586 46.8539 38.1836C46.4872 37.9086 48.7791 36.2586 49.5125 36.1669C50.246 36.0753 52.3545 36.8086 53.1796 37.6336ZM50.521 38.4586C51.1627 39.0086 50.6127 40.2003 49.9709 40.2003C49.3292 40.2003 48.1374 39.1003 48.6874 38.3669" fill="#7B3F00"/>
<path d="M47.4961 39.2833C47.5878 38.1833 48.5045 38 49.9714 38C51.4382 38 52.08 39.1 52.63 39.375C51.9883 39.375 51.4382 38.4583 49.9714 38.4583C48.5045 38.4583 48.5045 38.4583 47.4961 39.375M47.7711 39.5583C48.1378 39.0083 48.5962 40.1083 49.6047 40.1083C50.6131 40.1083 51.1632 39.8333 51.8049 39.375C52.4467 38.9167 50.8882 40.475 49.8797 40.475C48.8713 40.475 47.4961 39.925 47.7711 39.5583Z" fill="#7B3F00"/>
<path d="M40.6195 38.3672C40.1612 38.5505 39.4277 39.467 40.6195 40.1087C39.7028 39.467 40.4362 38.5505 40.6195 38.3672Z" fill="#7B3F00"/>
<path d="M50.8877 38.3672C51.071 38.5505 51.8045 39.467 50.8877 40.1087C52.0795 39.467 51.3461 38.5505 50.8877 38.3672Z" fill="#7B3F00"/>
<path d="M44.2872 42.3086C43.4621 42.4919 43.737 43.6836 43.0036 43.7753C42.2702 43.867 41.9036 44.6919 41.9953 44.6003C42.4537 44.2336 43.4622 43.9585 44.1956 43.9585C44.929 43.9585 45.1124 44.417 45.7541 44.417C46.3958 44.417 46.5792 43.9585 47.3126 43.9585C48.046 43.9585 49.0545 44.2336 49.5129 44.6003C49.6046 44.6919 49.238 43.867 48.5046 43.7753C47.7712 43.6836 48.0461 42.4919 47.221 42.3086C47.221 42.6753 47.4958 42.5836 47.5875 43.1336C47.5875 43.5919 46.7625 43.5919 46.5792 43.1336C46.7625 43.8669 46.2125 43.8669 45.7541 43.8669C45.2957 43.8669 44.7457 43.8669 44.929 43.1336C44.7457 43.5919 43.9207 43.5919 43.9207 43.1336C44.0124 42.5836 44.2872 42.6753 44.2872 42.3086Z" fill="#7B3F00"/>
<path d="M41.4448 45.4253C40.7114 45.9753 40.5282 46.2503 40.4365 46.892C40.6564 46.5072 40.7644 46.3491 40.9314 46.1228C40.8872 46.1038 40.8492 46.0864 40.8035 46.067C40.8568 46.0733 40.9047 46.0817 40.956 46.0889C41.0669 45.9392 41.1654 45.8095 41.4448 45.4253Z" fill="#7B3F00"/>
<path d="M40.956 46.0889C40.9533 46.0925 40.9469 46.1012 40.9443 46.1047C41.0589 46.1313 41.1805 46.1438 41.308 46.1442C41.196 46.1244 41.0783 46.106 40.956 46.0889Z" fill="#7B3F00"/>
<path d="M41.3076 46.1442C41.8793 46.2451 42.3282 46.3767 42.7396 46.5097C43.2528 46.4718 43.9605 46.3419 45.7534 46.3419C47.5462 46.3419 48.254 46.4718 48.7671 46.5097C49.1785 46.3767 49.6274 46.2451 50.1991 46.1442C49.1889 46.1478 47.8424 45.4253 47.2202 45.4253C46.4868 45.4253 46.3034 45.6085 45.7534 45.6085C45.2033 45.6085 45.0199 45.4253 44.2865 45.4253C43.6643 45.4253 42.3178 46.1479 41.3076 46.1442Z" fill="#7B3F00"/>
<path d="M50.2002 46.1442C50.3277 46.1437 50.4493 46.1313 50.5639 46.1047C50.5613 46.1011 50.5549 46.0925 50.5523 46.0889C50.4299 46.106 50.3122 46.1244 50.2002 46.1442Z" fill="#7B3F00"/>
<path d="M50.5513 46.0889C50.6027 46.0817 50.6505 46.0737 50.7039 46.067C50.6581 46.0864 50.6201 46.1038 50.576 46.1228C50.7429 46.3491 50.8509 46.5072 51.0708 46.892C50.9791 46.2503 50.7959 45.9753 50.0625 45.4253C50.3419 45.8095 50.4404 45.9392 50.5513 46.0889Z" fill="#7B3F00"/>
<path d="M50.5766 46.123C50.5756 46.1212 50.573 46.1176 50.5719 46.1167C49.6151 46.4853 49.2783 46.5479 48.7679 46.5101C47.8986 46.7912 47.1821 47.0756 45.7541 47.0756C44.3261 47.0756 43.6096 46.7912 42.7404 46.5101C42.23 46.5479 41.8931 46.4853 40.9363 46.1167C40.9353 46.1185 40.9327 46.1221 40.9316 46.123C43.8117 47.3624 43.4968 47.8087 45.7541 47.8087C48.0114 47.8087 47.6966 47.3624 50.5766 46.123Z" fill="#7B3F00"/>
<path d="M40.9353 46.1162C40.9372 46.1135 40.9418 46.1071 40.9437 46.1046C40.8959 46.0935 40.8478 46.0834 40.8027 46.0669C40.8551 46.0874 40.8865 46.0974 40.9353 46.1162Z" fill="#7B3F00"/>
<path d="M50.5709 46.1162C50.6197 46.0974 50.6511 46.0874 50.7034 46.0669C50.6584 46.0833 50.6103 46.0934 50.5625 46.1045C50.5644 46.1072 50.569 46.1137 50.5709 46.1162Z" fill="#7B3F00"/>
<path d="M38.3282 37.6336C38.9699 38.3669 39.3366 37.0836 41.6286 37.0836C43.9205 37.0836 44.2872 38.4586 44.6539 38.1836C45.0206 37.9086 42.7287 36.2586 41.9953 36.1669C41.2619 36.0753 39.1533 36.8086 38.3282 37.6336ZM40.9868 38.4586C40.3451 39.0086 40.8951 40.2003 41.5369 40.2003C42.1786 40.2003 43.3704 39.1003 42.8204 38.3669" fill="#7B3F00"/>
<path d="M44.0117 39.2833C43.92 38.1833 43.0033 38 41.5364 38C40.0696 38 39.4279 39.1 38.8778 39.375C39.5195 39.375 40.0696 38.4583 41.5364 38.4583C43.0033 38.4583 43.0033 38.4583 44.0117 39.375M43.7367 39.5583C43.37 39.0083 42.9116 40.1083 41.9031 40.1083C40.8947 40.1083 40.3446 39.8333 39.7029 39.375C39.0611 38.9167 40.6197 40.475 41.6281 40.475C42.6366 40.475 44.0117 39.925 43.7367 39.5583Z" fill="#7B3F00"/>
<path d="M45.7535 48.6338C45.2951 48.6338 44.1033 48.9088 45.7535 48.9088C47.4037 48.9088 46.2119 48.6338 45.7535 48.6338Z" fill="#7B3F00"/>
</g>
<defs>
<clipPath id="clip0_1284_67627">
<rect width="250" height="150" fill="white"/>
</clipPath>
</defs>
</svg>
