<svg width="250" height="150" viewBox="0 0 250 150" fill="none" xmlns="http://www.w3.org/2000/svg">
<g clip-path="url(#clip0_1284_67689)">
<path d="M0 0H250V150H0V0Z" fill="#1EB53A"/>
<path d="M0 0H250V75H0V0Z" fill="#0099B5"/>
<path d="M0 48H250V102H0V48Z" fill="#CE1126"/>
<path d="M0 51H250V99H0V51Z" fill="white"/>
<path d="M38.0088 42C47.9548 42 56.0176 33.9411 56.0176 24C56.0176 14.0589 47.9548 6 38.0088 6C28.0628 6 20 14.0589 20 24C20 33.9411 28.0628 42 38.0088 42Z" fill="white"/>
<path d="M44.0117 42C53.9577 42 62.0205 33.9411 62.0205 24C62.0205 14.0589 53.9577 6 44.0117 6C34.0657 6 26.0029 14.0589 26.0029 24C26.0029 33.9411 34.0657 42 44.0117 42Z" fill="#0099B5"/>
<path d="M77.6289 34.7998L76.5159 38.2236L78.2286 38.7798" fill="white"/>
<path d="M77.6289 34.7998L78.7419 38.2236L77.0292 38.7798" fill="white"/>
<path d="M81.0547 37.2876L77.5247 37.4387L77.4529 39.0876" fill="white"/>
<path d="M81.0547 37.2061L78.0748 39.4033L77.0823 38.0282" fill="white"/>
<path d="M74.2026 37.2061L77.1825 39.4033L78.1751 38.0282" fill="white"/>
<path d="M74.2026 37.2876L77.7326 37.4387L77.8044 39.0876" fill="white"/>
<path d="M79.7456 41.2666L78.6977 37.8883L76.9199 38.49" fill="white"/>
<path d="M79.6997 41.312L76.831 39.2476L77.9348 37.7398" fill="white"/>
<path d="M75.4756 41.312L78.426 39.1547L77.404 37.7398" fill="white"/>
<path d="M75.5117 41.3496L76.6751 37.8882L78.3375 38.4068" fill="white"/>
<path d="M77.6289 20.3999L76.5159 23.8237L78.2286 24.3799" fill="white"/>
<path d="M77.6289 20.3999L78.7419 23.8237L77.0292 24.3799" fill="white"/>
<path d="M81.0547 22.8877L77.5247 23.0388L77.4529 24.6877" fill="white"/>
<path d="M81.0547 22.8062L78.0748 25.0034L77.0823 23.6283" fill="white"/>
<path d="M74.2026 22.8062L77.1825 25.0034L78.1751 23.6283" fill="white"/>
<path d="M74.2026 22.8877L77.7326 23.0388L77.8044 24.6877" fill="white"/>
<path d="M79.7456 26.8667L78.6977 23.4884L76.9199 24.0901" fill="white"/>
<path d="M79.6997 26.9121L76.831 24.8477L77.9348 23.3399" fill="white"/>
<path d="M75.4756 26.9121L78.426 24.7548L77.404 23.3399" fill="white"/>
<path d="M75.5117 26.9497L76.6751 23.4883L78.3375 24.0069" fill="white"/>
<path d="M77.6289 6L76.5159 9.4238L78.2286 9.98003" fill="white"/>
<path d="M77.6289 6L78.7419 9.4238L77.0292 9.98003" fill="white"/>
<path d="M81.0547 8.48779L77.5247 8.63891L77.4529 10.2878" fill="white"/>
<path d="M81.0547 8.40625L78.0748 10.6035L77.0823 9.22843" fill="white"/>
<path d="M74.2026 8.40625L77.1825 10.6035L78.1751 9.22843" fill="white"/>
<path d="M74.2026 8.48779L77.7326 8.63891L77.8044 10.2878" fill="white"/>
<path d="M79.7456 12.4668L78.6977 9.08849L76.9199 9.69022" fill="white"/>
<path d="M79.6997 12.5122L76.831 10.4478L77.9348 8.93995" fill="white"/>
<path d="M75.4756 12.5122L78.426 10.3549L77.404 8.93995" fill="white"/>
<path d="M75.5117 12.5498L76.6751 9.08838L78.3375 9.60698" fill="white"/>
<path d="M92.0356 34.7998L90.9226 38.2236L92.6354 38.7798" fill="white"/>
<path d="M92.0356 34.7998L93.1486 38.2236L91.4359 38.7798" fill="white"/>
<path d="M95.4609 37.2876L91.931 37.4387L91.8592 39.0876" fill="white"/>
<path d="M95.4609 37.2061L92.4811 39.4033L91.4885 38.0282" fill="white"/>
<path d="M88.6099 37.2061L91.5897 39.4033L92.5823 38.0282" fill="white"/>
<path d="M88.6099 37.2876L92.1398 37.4387L92.2116 39.0876" fill="white"/>
<path d="M94.1523 41.2666L93.1044 37.8883L91.3266 38.49" fill="white"/>
<path d="M94.1064 41.312L91.2378 39.2476L92.3415 37.7398" fill="white"/>
<path d="M89.8813 41.312L92.8318 39.1547L91.8097 37.7398" fill="white"/>
<path d="M89.918 41.3496L91.0814 37.8882L92.7437 38.4068" fill="white"/>
<path d="M92.0356 20.3999L90.9226 23.8237L92.6354 24.3799" fill="white"/>
<path d="M92.0356 20.3999L93.1486 23.8237L91.4359 24.3799" fill="white"/>
<path d="M95.4609 22.8877L91.931 23.0388L91.8592 24.6877" fill="white"/>
<path d="M95.4609 22.8062L92.4811 25.0034L91.4885 23.6283" fill="white"/>
<path d="M88.6099 22.8062L91.5897 25.0034L92.5823 23.6283" fill="white"/>
<path d="M88.6099 22.8877L92.1398 23.0388L92.2116 24.6877" fill="white"/>
<path d="M94.1523 26.8667L93.1044 23.4884L91.3266 24.0901" fill="white"/>
<path d="M94.1064 26.9121L91.2378 24.8477L92.3415 23.3399" fill="white"/>
<path d="M89.8813 26.9121L92.8318 24.7548L91.8097 23.3399" fill="white"/>
<path d="M89.918 26.9497L91.0814 23.4883L92.7437 24.0069" fill="white"/>
<path d="M92.0356 6L90.9226 9.4238L92.6354 9.98003" fill="white"/>
<path d="M92.0356 6L93.1486 9.4238L91.4359 9.98003" fill="white"/>
<path d="M95.4609 8.48779L91.931 8.63891L91.8592 10.2878" fill="white"/>
<path d="M95.4609 8.40625L92.4811 10.6035L91.4885 9.22843" fill="white"/>
<path d="M88.6099 8.40625L91.5897 10.6035L92.5823 9.22843" fill="white"/>
<path d="M88.6099 8.48779L92.1398 8.63891L92.2116 10.2878" fill="white"/>
<path d="M94.1523 12.4668L93.1044 9.08849L91.3266 9.69022" fill="white"/>
<path d="M94.1064 12.5122L91.2378 10.4478L92.3415 8.93995" fill="white"/>
<path d="M89.8813 12.5122L92.8318 10.3549L91.8097 8.93995" fill="white"/>
<path d="M89.918 12.5498L91.0814 9.08838L92.7437 9.60698" fill="white"/>
<path d="M106.442 34.7998L105.329 38.2236L107.042 38.7798" fill="white"/>
<path d="M106.442 34.7998L107.555 38.2236L105.842 38.7798" fill="white"/>
<path d="M109.868 37.2876L106.338 37.4387L106.266 39.0876" fill="white"/>
<path d="M109.868 37.2061L106.888 39.4033L105.896 38.0282" fill="white"/>
<path d="M103.016 37.2061L105.996 39.4033L106.988 38.0282" fill="white"/>
<path d="M103.016 37.2876L106.546 37.4387L106.617 39.0876" fill="white"/>
<path d="M108.56 41.2666L107.512 37.8883L105.734 38.49" fill="white"/>
<path d="M108.514 41.312L105.645 39.2476L106.749 37.7398" fill="white"/>
<path d="M104.29 41.312L107.24 39.1547L106.218 37.7398" fill="white"/>
<path d="M104.326 41.3496L105.49 37.8882L107.152 38.4068" fill="white"/>
<path d="M106.442 20.3999L105.329 23.8237L107.042 24.3799" fill="white"/>
<path d="M106.442 20.3999L107.555 23.8237L105.842 24.3799" fill="white"/>
<path d="M109.868 22.8877L106.338 23.0388L106.266 24.6877" fill="white"/>
<path d="M109.868 22.8062L106.888 25.0034L105.896 23.6283" fill="white"/>
<path d="M103.016 22.8062L105.996 25.0034L106.988 23.6283" fill="white"/>
<path d="M103.016 22.8877L106.546 23.0388L106.617 24.6877" fill="white"/>
<path d="M108.56 26.8667L107.512 23.4884L105.734 24.0901" fill="white"/>
<path d="M108.514 26.9121L105.645 24.8477L106.749 23.3399" fill="white"/>
<path d="M104.29 26.9121L107.24 24.7548L106.218 23.3399" fill="white"/>
<path d="M104.326 26.9497L105.49 23.4883L107.152 24.0069" fill="white"/>
<path d="M106.442 6L105.329 9.4238L107.042 9.98003" fill="white"/>
<path d="M106.442 6L107.555 9.4238L105.842 9.98003" fill="white"/>
<path d="M109.868 8.48779L106.338 8.63891L106.266 10.2878" fill="white"/>
<path d="M109.868 8.40625L106.888 10.6035L105.896 9.22843" fill="white"/>
<path d="M103.016 8.40625L105.996 10.6035L106.988 9.22843" fill="white"/>
<path d="M103.016 8.48779L106.546 8.63891L106.617 10.2878" fill="white"/>
<path d="M108.56 12.4668L107.512 9.08849L105.734 9.69022" fill="white"/>
<path d="M108.514 12.5122L105.645 10.4478L106.749 8.93995" fill="white"/>
<path d="M104.29 12.5122L107.24 10.3549L106.218 8.93995" fill="white"/>
<path d="M104.326 12.5498L105.49 9.08838L107.152 9.60698" fill="white"/>
<path d="M48.814 34.7998L47.701 38.2236L49.4137 38.7798" fill="white"/>
<path d="M48.814 34.7998L49.927 38.2236L48.2142 38.7798" fill="white"/>
<path d="M52.2407 37.2876L48.7108 37.4387L48.639 39.0876" fill="white"/>
<path d="M52.2407 37.2061L49.2608 39.4033L48.2683 38.0282" fill="white"/>
<path d="M45.3887 37.2061L48.3686 39.4033L49.3611 38.0282" fill="white"/>
<path d="M45.3887 37.2876L48.9186 37.4387L48.9904 39.0876" fill="white"/>
<path d="M50.9331 41.2666L49.8852 37.8883L48.1074 38.49" fill="white"/>
<path d="M50.8872 41.312L48.0185 39.2476L49.1223 37.7398" fill="white"/>
<path d="M46.6631 41.312L49.6135 39.1547L48.5915 37.7398" fill="white"/>
<path d="M46.6992 41.3496L47.8626 37.8882L49.525 38.4068" fill="white"/>
<path d="M63.2222 34.7998L62.1092 38.2236L63.8219 38.7798" fill="white"/>
<path d="M63.2222 34.7998L64.3352 38.2236L62.6224 38.7798" fill="white"/>
<path d="M66.6475 37.2876L63.1175 37.4387L63.0457 39.0876" fill="white"/>
<path d="M66.6475 37.2061L63.6676 39.4033L62.675 38.0282" fill="white"/>
<path d="M59.7964 37.2061L62.7763 39.4033L63.7688 38.0282" fill="white"/>
<path d="M59.7964 37.2876L63.3263 37.4387L63.3981 39.0876" fill="white"/>
<path d="M65.3389 41.2666L64.2909 37.8883L62.5131 38.49" fill="white"/>
<path d="M65.2935 41.312L62.4248 39.2476L63.5285 37.7398" fill="white"/>
<path d="M61.0688 41.312L64.0193 39.1547L62.9972 37.7398" fill="white"/>
<path d="M61.1055 41.3496L62.2689 37.8882L63.9312 38.4068" fill="white"/>
<path d="M63.2222 20.3999L62.1092 23.8237L63.8219 24.3799" fill="white"/>
<path d="M63.2222 20.3999L64.3352 23.8237L62.6224 24.3799" fill="white"/>
<path d="M66.6475 22.8877L63.1175 23.0388L63.0457 24.6877" fill="white"/>
<path d="M66.6475 22.8062L63.6676 25.0034L62.675 23.6283" fill="white"/>
<path d="M59.7964 22.8062L62.7763 25.0034L63.7688 23.6283" fill="white"/>
<path d="M59.7964 22.8877L63.3263 23.0388L63.3981 24.6877" fill="white"/>
<path d="M65.3389 26.8667L64.2909 23.4884L62.5131 24.0901" fill="white"/>
<path d="M65.2935 26.9121L62.4248 24.8477L63.5285 23.3399" fill="white"/>
<path d="M61.0688 26.9121L64.0193 24.7548L62.9972 23.3399" fill="white"/>
<path d="M61.1055 26.9497L62.2689 23.4883L63.9312 24.0069" fill="white"/>
</g>
<defs>
<clipPath id="clip0_1284_67689">
<rect width="250" height="150" fill="white"/>
</clipPath>
</defs>
</svg>
