<svg width="250" height="150" viewBox="0 0 250 150" fill="none" xmlns="http://www.w3.org/2000/svg">
<g clip-path="url(#clip0_1284_67218)">
<path d="M250 0H0V75H250V0Z" fill="#D21034"/>
<path d="M250 75H0V150H250V75Z" fill="#009543"/>
<path d="M0 0L145.477 75L0 150V0Z" fill="black"/>
<path d="M250 61.5791H0V88.4212H250V61.5791Z" fill="black"/>
<path d="M0 10.6582L124.803 74.9997L0 139.341V10.6582Z" fill="#FDCE12"/>
<path d="M250 71.0527H0V78.9475H250V71.0527Z" fill="#FDCE12"/>
<path d="M0 19.5405L107.574 74.9998L0 130.459V19.5405Z" fill="black"/>
<path d="M30.39 89.3486C30.39 89.3486 30.39 94.7684 30.39 97.8949C37.825 97.8949 52.4164 92.1976 52.4164 73.8539C52.4164 55.5102 36.8521 52.1055 32.1966 52.1055C27.5414 52.1055 13.1582 55.4407 13.1582 70.4492C13.1582 85.4576 27.2635 86.8473 30.0427 86.8473C32.8219 86.8473 43.2445 84.3457 42.0635 73.0894C42.0635 76.2857 38.4503 83.0257 30.8764 83.0257C23.3027 83.0257 18.5779 77.3973 18.5779 71.8389C18.5779 66.2799 23.1637 58.8452 31.1543 58.8452C39.1448 58.8452 44.9814 65.9323 44.9814 73.0894C44.9814 80.2463 39.3535 89.3486 30.39 89.3486Z" fill="#FDCE12"/>
<path d="M23.876 78.2228L24.3189 78.5094C24.3189 78.5094 27.8365 70.4841 37.2949 64.7778C36.0962 65.4291 29.7647 68.582 23.876 78.2228Z" fill="#FDCE12" stroke="#FDCE12" stroke-width="0.3"/>
<path d="M24.7881 76.8416C24.7881 76.8416 23.6939 74.6008 24.6578 73.6108C25.622 72.6205 25.1791 76.2424 25.1791 76.2424L25.596 75.6432C25.596 75.6432 24.9444 72.9071 25.6741 72.334C26.4036 71.7608 26.0389 74.9655 26.0389 74.9655L26.4818 74.3924C26.4818 74.3924 26.0128 71.7347 26.7162 71.2395C27.4199 70.7445 26.977 73.7411 26.977 73.7411L27.4981 73.1416C27.4981 73.1416 27.1073 70.6142 27.967 70.015C28.827 69.4155 28.0712 72.4121 28.0712 72.4121L28.6444 71.7868C28.6444 71.7868 28.3839 69.4676 29.1136 68.9466C29.8431 68.4255 29.2178 71.1353 29.2178 71.1353L29.7389 70.5882C29.7389 70.5882 29.5826 68.4255 30.286 67.9305C30.9897 67.4353 30.3381 69.989 30.3381 69.989L30.8854 69.4676C30.8854 69.4676 30.7552 67.305 31.641 66.8882C32.5268 66.4713 31.4847 68.9205 31.4847 68.9205L32.0839 68.3995C32.0839 68.3995 32.2662 65.8721 33.022 65.6374C33.7776 65.4029 32.6833 67.8784 32.6833 67.8784L33.2304 67.4353C33.2304 67.4353 33.517 65.2726 34.3507 65.0121C35.1847 64.7516 33.8297 66.9924 33.8297 66.9924L34.3768 66.5755C34.3768 66.5755 34.9762 64.4129 35.7578 64.1784C36.5397 63.944 34.9502 66.2108 34.9502 66.2108L35.4712 65.8461C35.4712 65.8461 36.331 63.8916 37.0347 63.7613C37.7381 63.6311 36.2528 65.3768 36.2528 65.3768L36.9044 64.9861C36.9044 64.9861 38.0247 62.9537 38.4157 63.579C38.8065 64.2045 36.8523 65.1163 36.8523 65.1163L36.2007 65.4811C36.2007 65.4811 38.572 64.3608 38.8586 64.934C39.1452 65.5071 35.6015 65.8721 35.6015 65.8721L35.0283 66.2629C35.0283 66.2629 37.3994 65.6113 37.1128 66.2108C36.8262 66.81 34.4812 66.6797 34.4812 66.6797L33.9339 67.0705C33.9339 67.0705 36.3049 66.4974 35.9923 67.0445C35.6797 67.5916 33.3607 67.5395 33.3607 67.5395L32.7876 68.0087C32.7876 68.0087 35.1065 67.4092 34.7678 68.1129C34.4289 68.8163 31.7973 68.7903 31.7973 68.7903L31.146 69.3895C31.146 69.3895 33.5952 68.5558 33.3868 69.2071C33.1783 69.8587 30.3902 70.1974 30.3902 70.1974L29.7649 70.8226C29.7649 70.8226 32.3965 69.9368 31.6149 70.7445C30.8333 71.5524 28.9312 71.7608 28.9312 71.7608L28.1754 72.6726C28.1754 72.6726 30.7812 71.1092 30.4162 71.9953C30.0515 72.8811 27.4981 73.4805 27.4981 73.4805L26.977 74.1058C26.977 74.1058 29.322 72.7508 29.0876 73.5066C28.8531 74.2621 26.3515 75.0697 26.3515 75.0697L25.9347 75.6432C25.9347 75.6432 28.6965 74.0016 28.462 74.8353C28.2276 75.6692 25.596 76.2684 25.596 76.2684L25.2573 76.7895C25.2573 76.7895 27.8107 75.3305 27.8368 76.034C27.8628 76.7374 24.8402 77.4411 24.8402 77.4411L24.7881 76.8416Z" fill="#FDCE12"/>
<path d="M38.8877 78.2228L38.4448 78.5094C38.4448 78.5094 34.9272 70.4841 25.4687 64.7778C26.6674 65.4291 32.999 68.582 38.8877 78.2228Z" fill="#FDCE12" stroke="#FDCE12" stroke-width="0.3"/>
<path d="M37.9756 76.8416C37.9756 76.8416 39.0698 74.6008 38.1059 73.6108C37.1416 72.6205 37.5845 76.2424 37.5845 76.2424L37.1677 75.6432C37.1677 75.6432 37.8193 72.9071 37.0895 72.334C36.3601 71.7608 36.7248 74.9655 36.7248 74.9655L36.2819 74.3924C36.2819 74.3924 36.7509 71.7347 36.0474 71.2395C35.3438 70.7445 35.7866 73.7411 35.7866 73.7411L35.2656 73.1416C35.2656 73.1416 35.6564 70.6142 34.7966 70.015C33.9366 69.4155 34.6924 72.4121 34.6924 72.4121L34.1193 71.7868C34.1193 71.7868 34.3798 69.4676 33.6501 68.9466C32.9206 68.4255 33.5459 71.1353 33.5459 71.1353L33.0248 70.5882C33.0248 70.5882 33.1811 68.4255 32.4777 67.9305C31.774 67.4353 32.4256 69.989 32.4256 69.989L31.8782 69.4676C31.8782 69.4676 32.0085 67.305 31.1227 66.8882C30.2369 66.4713 31.279 68.9205 31.279 68.9205L30.6798 68.3995C30.6798 68.3995 30.4974 65.8721 29.7416 65.6374C28.9861 65.4029 30.0803 67.8784 30.0803 67.8784L29.5332 67.4353C29.5332 67.4353 29.2466 65.2726 28.413 65.0121C27.579 64.7516 28.934 66.9924 28.934 66.9924L28.3869 66.5755C28.3869 66.5755 27.7874 64.4129 27.0059 64.1784C26.224 63.944 27.8135 66.2108 27.8135 66.2108L27.2924 65.8461C27.2924 65.8461 26.4327 63.8916 25.729 63.7613C25.0256 63.6311 26.5109 65.3768 26.5109 65.3768L25.8593 64.9861C25.8593 64.9861 24.739 62.9537 24.348 63.579C23.9572 64.2045 25.9114 65.1163 25.9114 65.1163L26.563 65.4811C26.563 65.4811 24.1916 64.3608 23.9051 64.934C23.6185 65.5071 27.1622 65.8721 27.1622 65.8721L27.7353 66.2629C27.7353 66.2629 25.3643 65.6113 25.6509 66.2108C25.9374 66.81 28.2824 66.6797 28.2824 66.6797L28.8298 67.0705C28.8298 67.0705 26.4588 66.4974 26.7714 67.0445C27.084 67.5916 29.403 67.5395 29.403 67.5395L29.9761 68.0087C29.9761 68.0087 27.6572 67.4092 27.9959 68.1129C28.3348 68.8163 30.9664 68.7903 30.9664 68.7903L31.6177 69.3895C31.6177 69.3895 29.1685 68.5558 29.3769 69.2071C29.5853 69.8587 32.3735 70.1974 32.3735 70.1974L32.9987 70.8226C32.9987 70.8226 30.3672 69.9368 31.1487 70.7445C31.9303 71.5524 33.8324 71.7608 33.8324 71.7608L34.5882 72.6726C34.5882 72.6726 31.9824 71.1092 32.3474 71.9953C32.7122 72.8811 35.2656 73.4805 35.2656 73.4805L35.7866 74.1058C35.7866 74.1058 33.4416 72.7508 33.6761 73.5066C33.9106 74.2621 36.4122 75.0697 36.4122 75.0697L36.829 75.6432C36.829 75.6432 34.0672 74.0016 34.3016 74.8353C34.5361 75.6692 37.1677 76.2684 37.1677 76.2684L37.5064 76.7895C37.5064 76.7895 34.953 75.3305 34.9269 76.034C34.9009 76.7374 37.9235 77.4411 37.9235 77.4411L37.9756 76.8416Z" fill="#FDCE12"/>
</g>
<defs>
<clipPath id="clip0_1284_67218">
<rect width="250" height="150" fill="white"/>
</clipPath>
</defs>
</svg>
