<svg width="250" height="150" viewBox="0 0 250 150" fill="none" xmlns="http://www.w3.org/2000/svg">
<g clip-path="url(#clip0_1284_66884)">
<path d="M0 0H250V150H0V0Z" fill="#CF142B"/>
<path d="M0 0H250V100H0V0Z" fill="#00247D"/>
<path d="M0 0H250V50H0V0Z" fill="#FFCC00"/>
<path d="M134.382 51.3303L131.344 57.184L134.136 58.7344L134.382 51.3303Z" fill="white"/>
<path d="M134.412 51.344L134.646 57.6386L131.329 58.3661L134.412 51.344Z" fill="white"/>
<path d="M139.407 56.7011L133.107 55.7318L132.285 59.3223L139.407 56.7011Z" fill="white"/>
<path d="M139.419 56.7037L133.469 59.4071L131.994 56.1418L139.419 56.7037Z" fill="white"/>
<path d="M127.675 54.7868L131.766 59.1728L134.642 56.2843L127.675 54.7868Z" fill="white"/>
<path d="M127.656 54.807L133.801 55.58L132.844 59.4358L127.656 54.807Z" fill="white"/>
<path d="M135.911 63.2575L134.817 57.0102L131.238 57.41L135.911 63.2575Z" fill="white"/>
<path d="M135.903 63.2649L131.524 58.5473L134.077 56.0916L135.903 63.2649Z" fill="white"/>
<path d="M128.589 61.8897L134.234 59.1793L132.543 55.8136L128.589 61.8897Z" fill="white"/>
<path d="M128.593 61.8954L131.561 56.4029L134.867 58.2305L128.593 61.8954Z" fill="white"/>
<path d="M151.135 57.4348L146.414 61.9202L148.664 64.5059L151.135 57.4348Z" fill="white"/>
<path d="M151.15 57.4466L149.481 63.6307L146.033 63.0455L151.15 57.4466Z" fill="white"/>
<path d="M153.973 64.1212L148.652 61.1148L146.689 64.5884L153.973 64.1212Z" fill="white"/>
<path d="M153.984 64.1039L147.723 65.0284L147.515 61.1644L153.984 64.1039Z" fill="white"/>
<path d="M143.763 58.3568L146.186 64.0268L149.698 62.3564L143.763 58.3568Z" fill="white"/>
<path d="M143.752 58.3669L149.152 61.3753L147.107 64.673L143.752 58.3669Z" fill="white"/>
<path d="M148.439 69.1311L149.971 62.9812L146.171 62.2779L148.439 69.1311Z" fill="white"/>
<path d="M148.453 69.1282L146.006 63.4162L149.634 61.8954L148.453 69.1282Z" fill="white"/>
<path d="M142.104 65.4957L148.418 64.7202L148.105 61.0945L142.104 65.4957Z" fill="white"/>
<path d="M142.099 65.4936L146.955 61.3296L149.362 64.0292L142.099 65.4936Z" fill="white"/>
<path d="M164.8 68.9316L158.937 71.4357L160.268 74.7888L164.8 68.9316Z" fill="white"/>
<path d="M164.804 68.9356L161.307 74.2472L158.222 72.3595L164.804 68.9356Z" fill="white"/>
<path d="M165.263 76.2665L161.206 71.5146L158.335 73.9535L165.263 76.2665Z" fill="white"/>
<path d="M165.267 76.2623L159.154 74.7524L160.119 71.1395L165.267 76.2623Z" fill="white"/>
<path d="M157.625 67.2073L158.052 73.4591L161.798 73.1393L157.625 67.2073Z" fill="white"/>
<path d="M157.62 67.2107L161.617 72.0098L158.699 74.4017L157.62 67.2107Z" fill="white"/>
<path d="M158.407 79.0634L161.717 73.6503L158.622 71.7394L158.407 79.0634Z" fill="white"/>
<path d="M158.404 79.0611L158.097 72.7758L161.754 72.4931L158.404 79.0611Z" fill="white"/>
<path d="M153.653 73.453L159.827 74.814L160.755 71.2996L153.653 73.453Z" fill="white"/>
<path d="M153.651 73.4484L159.601 71.1392L160.946 74.4759L153.651 73.4484Z" fill="white"/>
<path d="M173.757 84.3565L167.42 84.7023L167.524 88.342L173.757 84.3565Z" fill="white"/>
<path d="M173.76 84.3593L168.681 88.1857L166.437 85.3283L173.76 84.3593Z" fill="white"/>
<path d="M171.68 91.4244L169.503 85.5527L165.992 86.8612L171.68 91.4244Z" fill="white"/>
<path d="M171.683 91.4222L166.485 87.8964L168.613 84.8258L171.683 91.4222Z" fill="white"/>
<path d="M167.652 80.2878L165.856 86.3377L169.492 87.295L167.652 80.2878Z" fill="white"/>
<path d="M167.645 80.2908L169.718 86.1683L166.133 87.4474L167.645 80.2908Z" fill="white"/>
<path d="M164.284 91.7156L169.243 87.7423L167.002 84.8815L164.284 91.7156Z" fill="white"/>
<path d="M164.281 91.7131L166.152 85.6799L169.675 86.6645L164.281 91.7131Z" fill="white"/>
<path d="M161.788 84.8124L167.037 88.2558L169.123 85.1529L161.788 84.8124Z" fill="white"/>
<path d="M161.786 84.8155L168.108 84.6093L168.191 88.3191L161.786 84.8155Z" fill="white"/>
<path d="M116.389 51.3303L119.427 57.184L116.636 58.7344L116.389 51.3303Z" fill="white"/>
<path d="M116.36 51.344L116.126 57.6386L119.443 58.3661L116.36 51.344Z" fill="white"/>
<path d="M111.365 56.7006L117.665 55.7313L118.488 59.3218L111.365 56.7006Z" fill="white"/>
<path d="M111.353 56.7032L117.304 59.4066L118.778 56.1413L111.353 56.7032Z" fill="white"/>
<path d="M123.098 54.7868L119.006 59.1728L116.13 56.2843L123.098 54.7868Z" fill="white"/>
<path d="M123.116 54.807L116.972 55.58L117.928 59.4358L123.116 54.807Z" fill="white"/>
<path d="M114.861 63.2575L115.955 57.0102L119.535 57.41L114.861 63.2575Z" fill="white"/>
<path d="M114.869 63.2649L119.248 58.5473L116.695 56.0916L114.869 63.2649Z" fill="white"/>
<path d="M122.184 61.8897L116.538 59.1793L118.23 55.8136L122.184 61.8897Z" fill="white"/>
<path d="M122.18 61.8954L119.212 56.4029L115.905 58.2305L122.18 61.8954Z" fill="white"/>
<path d="M99.637 57.4348L104.358 61.9202L102.109 64.5059L99.637 57.4348Z" fill="white"/>
<path d="M99.6228 57.4466L101.292 63.6307L104.74 63.0455L99.6228 57.4466Z" fill="white"/>
<path d="M96.7994 64.1212L102.12 61.1148L104.084 64.5884L96.7994 64.1212Z" fill="white"/>
<path d="M96.7885 64.1039L103.05 65.0284L103.258 61.1644L96.7885 64.1039Z" fill="white"/>
<path d="M107.009 58.3568L104.587 64.0268L101.074 62.3564L107.009 58.3568Z" fill="white"/>
<path d="M107.02 58.3669L101.62 61.3753L103.666 64.673L107.02 58.3669Z" fill="white"/>
<path d="M102.333 69.1311L100.801 62.9812L104.601 62.2779L102.333 69.1311Z" fill="white"/>
<path d="M102.319 69.1282L104.766 63.4162L101.138 61.8954L102.319 69.1282Z" fill="white"/>
<path d="M108.668 65.4957L102.355 64.7202L102.667 61.0945L108.668 65.4957Z" fill="white"/>
<path d="M108.674 65.4936L103.817 61.3296L101.41 64.0292L108.674 65.4936Z" fill="white"/>
<path d="M85.9693 68.9316L91.8322 71.4357L90.5013 74.7888L85.9693 68.9316Z" fill="white"/>
<path d="M85.9653 68.9361L89.462 74.2477L92.5478 72.36L85.9653 68.9361Z" fill="white"/>
<path d="M85.5061 76.2665L89.5633 71.5146L92.4348 73.9535L85.5061 76.2665Z" fill="white"/>
<path d="M85.5027 76.2623L91.615 74.7524L90.6503 71.1395L85.5027 76.2623Z" fill="white"/>
<path d="M93.1465 67.2068L92.72 73.4586L88.9731 73.1388L93.1465 67.2068Z" fill="white"/>
<path d="M93.1513 67.2102L89.1546 72.0094L92.0721 74.4012L93.1513 67.2102Z" fill="white"/>
<path d="M92.3641 79.0629L89.0548 73.6498L92.1492 71.7389L92.3641 79.0629Z" fill="white"/>
<path d="M92.3673 79.0606L92.6749 72.7753L89.0177 72.4927L92.3673 79.0606Z" fill="white"/>
<path d="M97.1185 73.4525L90.9449 74.8135L90.0167 71.2991L97.1185 73.4525Z" fill="white"/>
<path d="M97.1208 73.4479L91.1705 71.1387L89.8255 74.4754L97.1208 73.4479Z" fill="white"/>
<path d="M77.0147 84.3565L83.3511 84.7023L83.2473 88.342L77.0147 84.3565Z" fill="white"/>
<path d="M77.0117 84.3593L82.0903 88.1857L84.3344 85.3283L77.0117 84.3593Z" fill="white"/>
<path d="M79.0914 91.4244L81.2686 85.5527L84.7793 86.8612L79.0914 91.4244Z" fill="white"/>
<path d="M79.0883 91.4222L84.2861 87.8964L82.1581 84.8258L79.0883 91.4222Z" fill="white"/>
<path d="M83.1197 80.2878L84.9152 86.3377L81.2791 87.295L83.1197 80.2878Z" fill="white"/>
<path d="M83.1264 80.2908L81.0539 86.1683L84.638 87.4474L83.1264 80.2908Z" fill="white"/>
<path d="M86.4873 91.7156L81.5282 87.7423L83.7698 84.8815L86.4873 91.7156Z" fill="white"/>
<path d="M86.4903 91.7131L84.619 85.6799L81.0967 86.6645L86.4903 91.7131Z" fill="white"/>
<path d="M88.9839 84.8124L83.7347 88.2558L81.6482 85.1529L88.9839 84.8124Z" fill="white"/>
<path d="M88.9858 84.8155L82.6634 84.6093L82.5803 88.3191L88.9858 84.8155Z" fill="white"/>
</g>
<defs>
<clipPath id="clip0_1284_66884">
<rect width="250" height="150" fill="white"/>
</clipPath>
</defs>
</svg>
