<svg width="250" height="150" viewBox="0 0 250 150" fill="none" xmlns="http://www.w3.org/2000/svg">
<g clip-path="url(#clip0_1284_67323)">
<mask id="mask0_1284_67323" style="mask-type:luminance" maskUnits="userSpaceOnUse" x="-1" y="0" width="251" height="150">
<path d="M-0.0117188 0H250V150H-0.0117188V0Z" fill="white"/>
</mask>
<g mask="url(#mask0_1284_67323)">
<path fill-rule="evenodd" clip-rule="evenodd" d="M-31.25 0H250V150H-31.25V0Z" fill="#198A00"/>
<path fill-rule="evenodd" clip-rule="evenodd" d="M217.004 53.9062H250V150H217.004V53.9062Z" fill="#EF7D00"/>
<path fill-rule="evenodd" clip-rule="evenodd" d="M184.045 53.8477H217.004V149.941H184.045V53.8477Z" fill="black"/>
<path fill-rule="evenodd" clip-rule="evenodd" d="M150.39 53.9062H184.045V150H150.354L150.39 53.9062Z" fill="#DE2010"/>
<path fill-rule="evenodd" clip-rule="evenodd" d="M222.252 19.1016C222.252 19.1016 232.212 14.8535 233.15 13.9746C233.589 14.502 229.166 19.834 220.583 21.7969C228.375 19.9805 235.025 14.1797 236.402 14.3555C236.782 14.4434 236.695 20.0098 218.825 24.8438C231.187 21.6211 238.364 15.6445 238.276 16.2891C238.364 16.4355 237.046 20.9766 226.236 24.5215C229.254 23.8184 237.456 18.8379 237.368 19.8047C237.632 20.1855 229.459 30.7031 214.636 27.2754C226.471 30.3516 234.117 22.9395 235.201 23.0859C235.435 23.1152 233.033 29.5312 218.151 29.9414C225.27 29.209 223.219 29.9121 223.219 29.9121C223.219 29.9121 219.03 33.1934 213.933 30.9668C217.917 32.0508 218.356 32.1094 218.444 32.4316C218.18 32.9004 214.929 33.5449 211.736 31.8457C214.284 32.9004 216.569 33.0762 216.598 33.457C216.569 33.5742 214.958 34.5117 213.493 33.8379C212.058 33.1934 198.758 25.0195 198.758 25.0195L221.432 18.7793L222.252 19.0723V19.1016ZM195.594 41.25C193.602 41.25 193.544 43.0078 193.544 43.0078C193.544 43.0078 193.397 43.1543 193.485 44.0039L193.983 43.2422C194.217 43.2715 195.126 43.5352 196.561 42.4219C195.243 43.7988 196.034 44.2969 196.034 44.2969C196.034 44.2969 195.741 45.3809 196.737 45.5859C196.444 45.1465 196.62 44.7656 196.62 44.7656C196.62 44.7656 198.026 44.6191 197.938 42.9199C197.967 44.4727 198.817 44.8535 198.817 44.8535C198.817 44.8535 198.817 45.7031 199.725 45.791C199.256 45.3516 199.344 44.6777 199.344 44.6777C199.344 44.6777 200.516 43.7988 199.549 42.334C200.135 41.9824 200.633 41.0156 200.633 41.0156C200.633 41.0156 199.813 40.6641 199.432 40.3711C199.256 39.9902 199.432 37.8809 199.432 37.8809L198.905 35.1562L197.498 39.4043C197.557 38.8184 197.586 41.25 195.594 41.25Z" fill="#EF7D00" stroke="black" stroke-width="0.05" stroke-linejoin="round"/>
<path fill-rule="evenodd" clip-rule="evenodd" d="M205.437 35.127C205.496 35.1563 206.931 36.7676 208.337 36.6797C208.865 36.2402 207.253 35.3027 207.253 35.0684C207.839 35.5957 210.212 37.6465 211.765 36.9141C212.351 36.0352 210.652 36.1816 208.777 33.8086C210.095 34.6875 213.376 36.5918 214.929 35.8594C215.544 35.1563 211.501 32.959 210.124 31.2598L206.609 29.4727L201.863 33.3691L205.467 35.127H205.437Z" fill="#EF7D00" stroke="black" stroke-width="0.05" stroke-linejoin="round"/>
<path fill-rule="evenodd" clip-rule="evenodd" d="M200.076 21.7969C200.076 21.7969 201.687 20.8594 208.161 21.3282C208.865 21.4161 212.556 20.0684 213.757 19.6583C215.632 19.3067 221.666 18.0176 223.248 16.7872C224.42 16.6407 222.955 18.8673 221.49 19.4239C219.967 20.0977 214.43 22.0313 212.438 21.7676C214.811 21.7969 213.493 23.7305 209.568 22.8223C211.442 23.877 210.739 24.0528 210.739 24.0528C210.739 24.0528 207.429 24.2286 206.55 23.4669C208.777 24.3165 207.839 24.6387 207.839 24.6387C207.839 24.6387 205.584 24.8438 204.529 24.3458C206.14 24.8438 205.32 25.1368 205.32 25.1368C205.32 25.1368 204.002 25.3712 202.918 24.961C201.805 24.5801 200.164 21.8262 200.076 21.8262V21.7969Z" fill="#EF7D00" stroke="black" stroke-width="0.05" stroke-linecap="round" stroke-linejoin="round"/>
<path fill-rule="evenodd" clip-rule="evenodd" d="M202.654 36.0352L202.888 40.3125L202.654 40.6641C202.566 40.7812 199.637 40.1953 200.018 42.4219C200.018 43.3594 200.018 43.5937 200.662 44.0918C200.516 43.5059 200.545 43.0664 200.545 43.0664C200.545 43.0664 201.394 43.5645 202.185 42.1875C201.629 43.5352 202.01 44.0332 202.156 44.0625C202.273 44.2969 201.922 45.3809 203.035 45.3516C202.595 44.9414 202.801 44.3555 202.801 44.3555C202.801 44.3555 203.972 44.1797 203.562 42.0996C203.972 41.6895 204.148 42.0996 204.148 42.0996C204.148 42.0996 204.265 43.3301 205.291 43.0664C205.73 43.3301 205.203 44.0039 205.203 44.0039C205.203 44.0039 205.935 44.0039 206.169 43.418C206.374 42.7734 206.638 41.6602 205.437 41.1914C205.291 40.752 205.906 40.7227 205.906 40.7227C205.906 40.7227 206.667 40.9863 206.902 41.3672C207.136 41.748 207.048 40.3711 206.081 40.1953C204.91 40.1953 204.851 39.9316 204.851 39.9023L204.558 35.8887L202.654 36.0352Z" fill="#EF7D00" stroke="black" stroke-width="0.05" stroke-linejoin="round"/>
<path fill-rule="evenodd" clip-rule="evenodd" d="M206.726 39.6679C206.726 39.4628 204.734 36.7675 205.261 36.4452C205.759 36.5331 206.579 37.7636 207.282 37.3534C207.077 36.8847 206.462 37.1483 205.788 35.9179C205.085 34.5116 204.998 32.4315 202.566 30.1757C204.148 32.578 207.663 33.9843 207.839 33.2811C208.015 32.578 204.705 29.9413 204.88 29.2968C205.525 30.5858 208.806 33.5155 211.208 33.2811C211.384 32.6952 209.245 31.5819 208.689 30.5272C207.136 29.4725 203.006 25.9276 202.947 25.1073C202.22 23.8716 201.23 22.8113 200.047 22.0018C199.938 21.8521 199.858 21.6831 199.812 21.5038C198.875 19.3065 200.105 18.5741 200.838 18.4862C201.424 18.3983 201.599 18.4862 202.009 18.2811L200.515 17.6952C201.189 18.1932 202.859 17.7538 202.507 19.16C203.24 18.8671 204.822 16.9921 200.721 16.5819C199.373 15.0585 193.895 14.1796 192.518 20.8593C192.635 20.9472 192.694 21.035 193.045 21.2694C191.288 20.4491 186.63 19.8046 184.96 19.5116C180.39 18.2225 175.674 15.0585 175.234 15.4393C174.648 15.7323 177.988 18.8378 177.812 18.8964C175.207 17.4126 172.517 16.0822 169.756 14.912C167.999 14.2675 166.27 12.744 166.094 13.037C165.45 14.3554 168.877 17.6952 169.522 18.0761C170.166 18.4569 175.176 20.8007 175.088 20.83C167.53 17.4022 166.299 16.7577 165.889 16.3768C165.216 16.2304 163.604 14.0331 163.165 14.1796C162.901 14.414 163.399 17.871 167.003 19.453C167.588 19.8632 174.736 22.412 174.678 22.6171C174.678 22.6757 166.475 19.2479 166.182 19.1015C164.6 18.5155 162.667 16.3475 162.315 16.5819C161.964 16.8163 163.194 19.16 164.776 19.8925C165.626 20.244 168.819 21.8261 171.69 22.8222C171.865 22.91 166.505 20.8007 163.927 19.746C162.755 19.1015 162.228 18.2811 162.052 18.4569C161.759 18.6327 162.462 22.0897 170.752 24.0233C170.957 24.1405 173.682 23.4081 173.535 23.496C172.014 23.8785 170.467 24.1526 168.907 24.3163C168.819 24.5507 169.434 25.7811 173.711 25.5468C174.238 25.5175 177.226 24.4628 176.963 24.6679C175.54 25.2109 174.093 25.6899 172.627 26.1034C172.363 26.1034 170.987 26.2792 170.928 26.3964C170.869 26.6307 171.953 27.5097 174.238 27.6268C176.289 27.744 180.156 26.3964 180.097 26.4843C179.98 26.5722 176.347 27.8319 176.26 27.8905C176.113 27.9784 174.795 28.037 174.736 28.1542C174.619 28.4179 176.67 30.3222 182.675 28.2714C182.089 29.0917 179.16 29.6483 179.16 29.7948C179.16 29.912 179.804 30.5272 180.83 30.7616C181.328 30.8788 182.031 30.8495 182.675 30.7616C183.847 30.5272 185.019 30.0878 186.571 28.6522C186.747 29.0917 182.734 31.1425 182.909 31.3182C183.788 32.1386 186.688 31.2304 186.864 31.1132C187.069 31.0253 192.43 27.9784 192.43 27.5975C192.518 28.0663 185.487 31.9042 185.575 32.0507C186.015 32.7538 188.417 32.0214 188.505 31.9335L191.669 30.2343C191.756 30.205 188.212 32.285 188.505 32.6366C188.358 34.0136 194.071 31.6991 194.51 31.4061C194.715 31.2597 191.756 32.6952 191.756 33.369C192.723 34.9804 195.77 34.4823 196.238 34.1307C196.473 33.955 195.946 35.3026 196.121 35.1854C196.482 34.8167 196.778 34.3911 197 33.9257C196.942 34.3944 196.59 35.0975 196.414 35.9179C196.209 36.7089 196.151 37.6464 195.887 38.6132C195.828 39.0233 197.762 37.7636 197.469 34.746C197.645 36.328 196.883 39.2577 197.088 39.4335C197.469 39.7265 198.611 37.9686 198.728 36.7675C199.051 37.3534 199.754 38.6132 200.369 38.9061C200.31 37.9979 200.369 38.0272 200.076 37.1483C200.252 35.9472 200.281 34.3065 200.31 32.4315C201.951 35.5663 202.625 36.914 202.156 39.3163C202.654 39.5214 203.416 37.6171 203.357 36.6796C203.54 37.4651 203.963 38.1745 204.566 38.7097C205.169 39.245 205.924 39.5798 206.726 39.6679Z" fill="#EF7D00" stroke="black" stroke-width="0.05" stroke-linecap="round" stroke-linejoin="round"/>
<path fill-rule="evenodd" clip-rule="evenodd" d="M179.424 19.7168C179.424 19.7168 178.281 20.5664 176.904 20.5078C177.256 21.9141 180.127 20.8301 180.127 20.8301C180.127 20.8301 178.75 22.3828 177.754 22.6172C178.34 23.1152 180.859 22.9395 181.269 22.7051C181.679 22.4414 182.441 21.4746 182.441 21.4746C182.441 21.4746 179.863 24.4629 179.512 24.4336C179.424 24.7852 182.177 24.668 182.734 24.1406C183.32 23.6133 184.785 22.8516 184.785 22.8516C184.785 22.8516 180.976 25.4883 180.83 25.4883C182.236 25.8398 185.077 25.0195 186.894 23.9063C184.199 25.6934 183.964 26.0156 182.587 26.6309C183.818 26.8945 184.433 27.7148 188.534 25.9277C190.878 24.8145 192.225 22.7637 192.225 22.7637C190.437 24.874 188.296 26.6582 185.898 28.0371C185.751 28.3301 188.651 29.5605 192.313 25.7227" fill="#EF7D00"/>
<path d="M179.424 19.7168C179.424 19.7168 178.281 20.5664 176.904 20.5078C177.256 21.9141 180.127 20.8301 180.127 20.8301C180.127 20.8301 178.75 22.3828 177.754 22.6172C178.34 23.1152 180.859 22.9395 181.269 22.7051C181.679 22.4414 182.441 21.4746 182.441 21.4746C182.441 21.4746 179.863 24.4629 179.512 24.4336C179.424 24.7852 182.177 24.668 182.734 24.1406C183.32 23.6133 184.785 22.8516 184.785 22.8516C184.785 22.8516 180.976 25.4883 180.83 25.4883C182.236 25.8398 185.077 25.0195 186.894 23.9063C184.199 25.6934 183.964 26.0156 182.587 26.6309C183.818 26.8945 184.433 27.7148 188.534 25.9277C190.878 24.8145 192.225 22.7637 192.225 22.7637C190.437 24.874 188.296 26.6582 185.898 28.0371C185.751 28.3301 188.651 29.5605 192.313 25.7227" stroke="black" stroke-width="0.05" stroke-linecap="round" stroke-linejoin="round"/>
<path fill-rule="evenodd" clip-rule="evenodd" d="M199.344 28.0078C199.344 28.0078 199.608 29.1797 200.604 30.0586C201.6 30.9375 201.658 31.8164 201.658 31.8164M198.875 20.3906C198.875 20.3906 199.198 21.4746 200.223 22.1484C201.278 22.793 202.859 24.9023 202.947 25.2832C203.064 25.7227 203.68 28.9746 203.621 29.3262M192.548 22.002C192.606 22.4414 191.083 24.4336 193.192 26.8066C191.259 29.1504 191.259 29.4434 191.259 29.4434C191.259 29.4434 192.343 30.0293 194.247 28.3887C197.411 32.2559 196.356 34.0137 196.356 34.0137" fill="#EF7D00"/>
<path d="M199.344 28.0078C199.344 28.0078 199.608 29.1797 200.604 30.0586C201.6 30.9375 201.658 31.8164 201.658 31.8164M198.875 20.3906C198.875 20.3906 199.198 21.4746 200.223 22.1484C201.278 22.793 202.859 24.9023 202.947 25.2832C203.064 25.7227 203.68 28.9746 203.621 29.3262M192.548 22.002C192.606 22.4414 191.083 24.4336 193.192 26.8066C191.259 29.1504 191.259 29.4434 191.259 29.4434C191.259 29.4434 192.343 30.0293 194.247 28.3887C197.411 32.2559 196.356 34.0137 196.356 34.0137" stroke="black" stroke-width="0.05" stroke-linecap="round"/>
<path fill-rule="evenodd" clip-rule="evenodd" d="M196.092 31.2891C196.092 31.2891 195.799 30.8789 196.326 29.3262C196.795 29.9121 197.322 30 197.527 30.2051C197.762 30.4688 200.164 30.791 200.281 32.4023" fill="#EF7D00"/>
<path d="M196.092 31.2891C196.092 31.2891 195.799 30.8789 196.326 29.3262C196.795 29.9121 197.322 30 197.527 30.2051C197.762 30.4687 200.164 30.791 200.281 32.4023" stroke="black" stroke-width="0.05" stroke-linecap="round" stroke-linejoin="round"/>
<path fill-rule="evenodd" clip-rule="evenodd" d="M198.904 16.7282C198.904 16.6111 198.406 15.5564 196.619 16.8454C197.586 16.904 198.523 17.4607 198.904 16.7282Z" fill="#EF7D00" stroke="black" stroke-width="0.05"/>
<path fill-rule="evenodd" clip-rule="evenodd" d="M215.954 21.416C216.042 21.4746 221.286 22.5879 223.044 22.0312C220.817 25.0195 216.335 22.998 216.335 22.998C218.532 23.6426 218.62 23.584 219.323 24.2285C219.557 24.8145 215.28 24.5215 213.904 23.7305C217.8 24.9609 217.888 24.9023 218.005 25.3418C218.181 26.0156 211.619 25.166 211.062 24.3164C212.82 25.6641 213.757 25.9277 214.724 26.543C213.552 27.0703 211.355 27.5977 207.342 24.7559C212.615 29.5605 217.39 29.2676 218.151 30.1172C216.306 32.8418 209.158 28.5059 205.877 26.3086C202.596 24.1113 213.054 31.6113 214.021 31.4941C213.552 32.2266 210.095 31.582 209.861 31.2012" fill="#EF7D00"/>
<path d="M215.954 21.416C216.042 21.4746 221.286 22.5879 223.044 22.0312C220.817 25.0195 216.335 22.998 216.335 22.998C218.532 23.6426 218.62 23.584 219.323 24.2285C219.557 24.8145 215.28 24.5215 213.904 23.7305C217.8 24.9609 217.888 24.9023 218.005 25.3418C218.181 26.0156 211.619 25.166 211.062 24.3164C212.82 25.6641 213.757 25.9277 214.724 26.543C213.552 27.0703 211.355 27.5977 207.342 24.7559C212.615 29.5605 217.39 29.2676 218.151 30.1172C216.306 32.8418 209.158 28.5059 205.877 26.3086C202.596 24.1113 213.054 31.6113 214.021 31.4941C213.552 32.2266 210.095 31.582 209.861 31.2012" stroke="black" stroke-width="0.05" stroke-linejoin="round"/>
<path fill-rule="evenodd" clip-rule="evenodd" d="M217.301 26.4551C216.715 26.543 214.869 26.543 214.605 26.4844L217.301 26.4551Z" fill="#EF7D00"/>
<path d="M217.301 26.4551C216.715 26.543 214.869 26.543 214.605 26.4844" stroke="black" stroke-width="0.05" stroke-linecap="round"/>
<path fill-rule="evenodd" clip-rule="evenodd" d="M177.87 18.9258C177.87 18.9258 181.854 21.0352 183.553 20.8887C183.229 21.1623 182.849 21.3622 182.44 21.4746C182.85 21.6504 184.022 22.2656 185.78 21.8848L184.813 22.7637C184.813 22.7637 186.336 23.3496 188.035 22.4707C187.744 22.8181 187.47 23.1799 187.215 23.5547L188.416 23.6426" fill="#EF7D00"/>
<path d="M177.87 18.9258C177.87 18.9258 181.854 21.0352 183.553 20.8887C183.229 21.1623 182.849 21.3622 182.44 21.4746C182.85 21.6504 184.022 22.2656 185.78 21.8848L184.813 22.7637C184.813 22.7637 186.336 23.3496 188.035 22.4707C187.744 22.8181 187.47 23.1799 187.215 23.5547L188.416 23.6426" stroke="black" stroke-width="0.05" stroke-linecap="round" stroke-linejoin="round"/>
</g>
</g>
<defs>
<clipPath id="clip0_1284_67323">
<rect width="250" height="150" fill="white"/>
</clipPath>
</defs>
</svg>
