<svg width="250" height="150" viewBox="0 0 250 150" fill="none" xmlns="http://www.w3.org/2000/svg">
<g clip-path="url(#clip0_1284_67273)">
<path d="M0 0H250V150H0V0Z" fill="#006400"/>
<path d="M1.98389 21.4287H250V128.572H1.98389V21.4287Z" fill="#FFD200"/>
<path d="M1.98389 42.8569H250V107.143H1.98389V42.8569Z" fill="#D40000"/>
<path d="M1.98389 64.2856H250V85.7142H1.98389V64.2856Z" fill="black"/>
<mask id="mask0_1284_67273" style="mask-type:luminance" maskUnits="userSpaceOnUse" x="0" y="0" width="150" height="150">
<path d="M0 0H150V150H0V0Z" fill="white"/>
</mask>
<g mask="url(#mask0_1284_67273)">
<path d="M100 75L0 150V0L100 75Z" fill="black" stroke="black" stroke-width="28.5714"/>
</g>
<path d="M99.99 75L0 150V0L99.99 75Z" fill="white"/>
<path d="M37.0271 37.7324L56.6185 98.0336L5.32715 60.7658H68.7271L17.4358 98.0336L37.0271 37.7324Z" fill="#D40000"/>
<path d="M26.1947 54.5241C25.9804 53.9884 26.0161 53.3931 26.2899 52.8812C26.5637 52.3812 27.0637 52.0241 27.635 51.9288C28.2421 51.8217 28.8492 51.786 29.4682 51.7979C30.0515 50.8931 31.0276 50.3098 32.099 50.2264C33.1703 50.155 34.2179 50.5836 34.9321 51.3931C35.7773 52.3574 36.2772 53.5717 36.3844 54.8455L36.8248 60.3693L53.6331 73.5241C53.815 73.6714 53.9409 73.8767 53.9899 74.1057C54.0388 74.3347 54.0077 74.5735 53.9019 74.7823C53.7961 74.9912 53.6219 75.1575 53.4084 75.2535C53.1948 75.3494 52.9548 75.3693 52.7284 75.3098L52.0261 75.1074C49.3239 76.786 47.324 79.7145 46.9312 82.8574L45.9194 90.8574H28.1469L25.7899 81.7026C24.9448 80.6788 24.8257 79.2384 25.4923 78.0955C26.3613 76.6074 27.4089 75.2264 28.6112 73.9884C29.3968 73.2026 29.7539 72.0836 29.5992 70.9764C29.4325 69.8812 29.3492 68.7741 29.3373 67.6669C29.3254 66.7503 29.5278 65.8336 29.9206 65.0122L29.6944 56.7503C29.6587 55.7741 29.123 54.8812 28.2778 54.405L26.1947 54.5241Z" fill="#FFD200" stroke="black" stroke-width="0.6" stroke-linecap="round" stroke-linejoin="round"/>
<path d="M28.2779 54.4052L30.2659 54.2861M29.9207 65.0123L36.8249 60.3695M39.5866 74.2623C42.3126 75.0242 44.0149 74.798 44.8124 73.0599M34.6703 66.3218C33.9323 68.4528 35.2655 70.3457 37.0511 70.8576L52.0262 75.1076M27.7423 82.6195C27.1828 80.429 27.9923 76.5123 31.4563 74.8814C33.0633 74.1314 33.5871 72.4885 33.599 71.0957C33.599 70.5718 33.6109 69.9647 34.3608 69.6671M27.7423 82.6195C27.0757 82.0599 26.5638 81.3695 26.3138 80.429L25.79 81.7028M27.7423 82.6195C28.1113 81.8457 28.4327 81.0599 28.7065 80.2623C29.016 80.8814 29.266 81.7266 29.4802 82.5718C29.4326 80.6552 30.4445 79.2504 31.7777 78.6552L36.944 76.3576C38.6224 75.6076 40.2294 74.1195 40.5985 71.8576M49.4311 77.3338H34.7417M26.0876 82.8576H46.9313M30.9087 87.3933H46.348M30.9087 87.3933L29.3493 82.8576M30.9087 87.3933V90.8576M30.1588 84.798L31.6825 83.2742L33.2061 84.798L34.7298 83.2742L36.2535 84.798L37.7772 83.2742L39.3009 84.798L40.8246 83.2742L42.3483 84.798L43.872 83.2742L45.3957 84.798L46.8718 83.3218M30.6111 86.5242L31.6825 85.4528L33.2061 86.9766L34.7298 85.4528L36.2535 86.9766L37.7772 85.4528L39.3009 86.9766L40.8246 85.4528L42.3483 86.9766L43.872 85.4528L45.3957 86.9766L46.5504 85.8218" stroke="black" stroke-width="0.6" stroke-linecap="round" stroke-linejoin="round"/>
<path d="M32.2538 53.9882C32.7535 53.9882 33.1585 53.5832 33.1585 53.0835C33.1585 52.5838 32.7535 52.1787 32.2538 52.1787C31.7542 52.1787 31.3491 52.5838 31.3491 53.0835C31.3491 53.5832 31.7542 53.9882 32.2538 53.9882Z" stroke="black" stroke-width="0.6" stroke-linecap="round" stroke-linejoin="round"/>
<path d="M36.3013 81.8454C37.2545 81.8454 38.0273 81.0726 38.0273 80.1193C38.0273 79.1659 37.2545 78.3931 36.3013 78.3931C35.348 78.3931 34.5752 79.1659 34.5752 80.1193C34.5752 81.0726 35.348 81.8454 36.3013 81.8454Z" stroke="black" stroke-width="0.6" stroke-linecap="round" stroke-linejoin="round"/>
<path d="M43.1455 81.8454C44.0988 81.8454 44.8716 81.0726 44.8716 80.1193C44.8716 79.1659 44.0988 78.3931 43.1455 78.3931C42.1922 78.3931 41.4194 79.1659 41.4194 80.1193C41.4194 81.0726 42.1922 81.8454 43.1455 81.8454Z" stroke="black" stroke-width="0.6" stroke-linecap="round" stroke-linejoin="round"/>
</g>
<defs>
<clipPath id="clip0_1284_67273">
<rect width="250" height="150" fill="white"/>
</clipPath>
</defs>
</svg>
