<svg width="19" height="14" viewBox="0 0 19 14" fill="none" xmlns="http://www.w3.org/2000/svg">
<path fill-rule="evenodd" clip-rule="evenodd" d="M6.33678 5.46093C6.1119 5.92643 5.98584 6.44862 5.98584 7.00024C5.98584 8.9571 7.57219 10.5435 9.52905 10.5435C10.0807 10.5435 10.6029 10.4174 11.0684 10.1925L10.131 9.25515C9.93902 9.30624 9.73732 9.33348 9.52926 9.33348C8.24059 9.33348 7.19592 8.28881 7.19592 7.00014C7.19592 6.79208 7.22316 6.59038 7.27425 6.3984L6.33678 5.46093ZM11.7843 7.60191C11.8354 7.40993 11.8626 7.20822 11.8626 7.00014C11.8626 5.71148 10.8179 4.66681 9.52926 4.66681C9.32118 4.66681 9.11947 4.69404 8.92749 4.74515L7.99012 3.80778C8.45553 3.58302 8.97758 3.45703 9.52905 3.45703C11.4859 3.45703 13.0723 5.04338 13.0723 7.00024C13.0723 7.55171 12.9463 8.07376 12.7215 8.53917L11.7843 7.60191Z" fill="white"/>
<path fill-rule="evenodd" clip-rule="evenodd" d="M4.52014 3.64454C2.78843 4.5804 1.6175 5.76182 1.1537 6.28122C0.981207 6.47186 0.886963 6.71061 0.886963 6.95695C0.886963 7.2033 0.981207 7.44205 1.1537 7.63269C1.97943 8.55738 5.04642 11.5804 9.52894 11.5804C10.4536 11.5804 11.3181 11.4518 12.115 11.2394L10.9152 10.0396C10.4718 10.1154 10.0091 10.1578 9.52894 10.1578C6.06875 10.1578 3.51292 7.95277 2.56923 6.95695C3.10385 6.3928 4.15587 5.44056 5.59661 4.72101L4.52014 3.64454ZM13.4036 9.22148C14.8739 8.49874 15.9469 7.52861 16.4886 6.95695C15.545 5.96113 12.9891 3.7561 9.52894 3.7561C9.02227 3.7561 8.53498 3.80338 8.06931 3.88722L6.87491 2.69281C7.69061 2.46957 8.57792 2.3335 9.52894 2.3335C14.0115 2.3335 17.0784 5.35653 17.9042 6.28122C18.0767 6.47186 18.1709 6.71061 18.1709 6.95695C18.1709 7.2033 18.0767 7.44205 17.9042 7.63269C17.4354 8.15767 16.2442 9.35902 14.4816 10.2995L13.4036 9.22148Z" fill="white"/>
<path d="M16.2732 13.7443C16.614 13.4035 16.614 12.8678 16.2732 12.527L4.00185 0.255652C3.66098 -0.0852174 3.12533 -0.0852174 2.78446 0.255652C2.44359 0.596522 2.44359 1.13217 2.78446 1.47304L15.0558 13.7443C15.3966 14.0852 15.9323 14.0852 16.2732 13.7443Z" fill="white"/>
</svg>
