<svg width="15" height="15" viewBox="0 0 15 15" fill="none" xmlns="http://www.w3.org/2000/svg">
<path d="M8.23454 6.67539L7.8866 7.3822L6.99742 7.0288L7.22938 7.9712L5.95361 7.93194L7.15206 8.48168L6.88144 8.91361L7.61598 8.83508L7.65464 9.62042L8.19588 8.95288L8.96907 9.46335L8.77577 8.63874H9.43299L8.73711 7.9712L9.20103 7.30366L8.42783 7.3822L8.23454 6.67539Z" fill="white"/>
<path fill-rule="evenodd" clip-rule="evenodd" d="M7.07474 4.43717L9.43299 0L9.81959 4.79058L14.1495 3.5733L11.5593 7.6178L15 9.58115L11.134 10.6021L11.9072 14.7251L8.58247 12.055L5.91495 15L5.72165 10.9162L1.89433 12.7225L3.86598 9.22775L0 6.08639L4.75515 5.92932L3.32474 0.903141L7.07474 4.43717ZM7.42268 5.96859L8.65979 3.8089L9.12371 6.20419L11.5979 5.53665L10.0515 8.04974L12.2165 9.26702L10.0515 9.81675L10.3608 12.0942L8.58247 10.5236L6.80412 12.5654L6.49484 9.62042L4.05928 10.7199L5.14175 8.95288L2.51289 7.0288L5.95361 6.83246L5.33505 4.1623L7.42268 5.96859Z" fill="white"/>
</svg>
