<svg width="15" height="14" viewBox="0 0 15 14" fill="none" xmlns="http://www.w3.org/2000/svg">
<path fill-rule="evenodd" clip-rule="evenodd" d="M10.9831 5.96744L13.4825 7.60525L10.6737 8.13383L11.7784 10.8238L9.08161 9.60364L8.16101 12.6782L7.54308 11.2615L9.65066 7.47629L9.51591 4.78125L8.03941 3.95914L7.74853 3.84994C7.64806 3.84089 7.56544 3.89453 7.50067 4.01086C7.40102 4.18983 7.45111 4.35253 7.65092 4.49895L7.35198 5.03586L6.75498 5.16065L6.56706 5.05601C6.44178 4.98626 6.34426 5.01402 6.27451 5.1393L5.79619 5.99836L5.9405 6.46556L5.58923 7.09643L5.73688 7.17864L5.37815 7.82293L5.2305 7.74072L5.0885 7.99575L4.99454 7.94344L4.77033 8.34612L1.95905 8.31064L4.51418 6.21651L2.44384 3.74495L5.66651 4.27325L5.11001 1.00927L7.74028 3.10681L9.83049 0.331788L10.0107 3.86102L13.4789 3.50616L10.9831 5.96744ZM9.27757 7.51474L7.38673 10.9107L6.97427 9.97769L7.37037 9.26628L7.22272 9.18407L7.36472 8.92904L7.23049 8.8543L7.58923 8.21001L7.72346 8.28474L8.07472 7.65387L8.56129 7.53794L8.91255 6.90707L9.27757 7.51474Z" fill="white" fill-opacity="0.301961"/>
<path fill-rule="evenodd" clip-rule="evenodd" d="M7.35205 5.03609L7.651 4.49918C7.45118 4.35275 7.4011 4.19006 7.50075 4.01109C7.56552 3.89476 7.64814 3.84111 7.74861 3.85016L8.03948 3.95937L9.51599 4.78147L9.65073 7.47652L7.29652 11.7047L6.49376 11.6622L6.31484 11.5098C6.31493 11.4043 6.37518 11.3382 6.49558 11.3115C6.60204 11.2887 6.74929 11.2769 6.93731 11.2761L7.17754 11.2868L9.27764 7.51497L8.91263 6.90729L8.56136 7.53817L8.0748 7.6541L7.72353 8.28497L7.58931 8.21023L7.23057 8.85453L7.3648 8.92926L6.99111 9.6004L6.85688 9.52567L6.49815 10.17L6.63238 10.2447L6.25869 10.9158L6.12446 10.8411L5.76573 11.4854L5.89995 11.5601L5.55617 12.1776L5.57189 12.9073L5.31779 13.3637C5.24803 13.4889 5.15052 13.5167 5.02524 13.4469L2.63598 12.1166C2.5107 12.0469 2.48294 11.9494 2.55269 11.8241L2.8068 11.3677L3.42194 10.9893L3.76573 10.3718L3.91338 10.454L4.27212 9.80973L4.12447 9.72752L4.49815 9.05638L4.6458 9.13859L5.00454 8.4943L4.85689 8.41209L5.23057 7.74095L5.37822 7.82316L5.73696 7.17887L5.58931 7.09665L5.94057 6.46578L5.79627 5.99859L6.27458 5.13953C6.34434 5.01425 6.44186 4.98649 6.56714 5.05624L6.75505 5.16087L7.35205 5.03609Z" fill="white"/>
</svg>
