<svg width="17" height="14" viewBox="0 0 17 14" fill="none" xmlns="http://www.w3.org/2000/svg">
<path fill-rule="evenodd" clip-rule="evenodd" d="M14.4346 2.63311H16.2657V2.05827H14.4346V2.63311ZM15.4888 1.00132L15.0819 0.55629L13.9907 1.53907L14.3421 1.9841L15.4888 1.00132ZM13.8242 0.445032L13.3433 1.24238L13.8797 1.53907L14.2866 0.704634L13.8242 0.445032ZM13.9352 3.20794C13.7626 3.30683 13.5838 3.39955 13.3988 3.48608L13.8797 4.30198L14.3421 3.98674L13.9352 3.20794ZM15.5258 3.72714L14.3976 2.74436L14.0462 3.20794L15.1374 4.17217L15.5258 3.72714ZM9.40369 3.09668H12.548L14.0832 2.28079L12.548 1.65033H8.31243L7.961 1.31655L7.77605 1.13112L7.49861 0.890064L6.94373 0.537747L6.22239 0.222516L5.50105 0.037086L4.61325 0L3.65146 0.129801L2.78215 0.407946C2.51088 0.519204 2.30742 0.649005 2.17179 0.797349L1.6539 1.39072C1.46894 1.63796 1.30864 1.92229 1.17301 2.2437C1.03737 2.56511 0.932561 2.91125 0.858577 3.28211C0.784594 3.65297 0.772263 4.02383 0.821586 4.39469L1.02504 5.48873C1.07436 5.87195 1.14218 6.23663 1.2285 6.58276L1.43195 7.60263L1.52443 8.21455L1.35797 9.0119L1.15451 10.2357C1.10519 10.5077 1.09286 10.6808 1.11752 10.7549H1.17301L1.63541 11.2927L2.78215 12.3496L4.33581 13.4437C4.89068 13.7898 5.44556 13.9752 6.00044 14L6.25938 13.9629L6.75877 13.8145L7.42462 13.4622L8.12747 12.8688V12.702L7.961 12.2198L7.88702 11.6635V11.4967H7.961L8.34942 11.1814L8.57137 10.9218L8.71934 10.6251L8.8673 10.1245L9.01527 9.54964L9.10775 9.06753L9.31121 8.51124L9.45917 8.15892L9.53316 7.95495L9.62564 7.63972L9.69962 7.2874L9.71812 6.99071V6.898L9.60714 6.61985L9.51466 6.19336V6.13773C9.42835 6.00175 9.42835 5.79778 9.51466 5.52581L9.71812 4.93244H9.7921V4.87681C9.85375 4.4565 9.72428 3.86312 9.40369 3.09668ZM8.8673 8.47415L8.92279 8.64104L8.97828 8.91918L8.92279 9.17878L8.83031 9.4013L8.51588 9.6609L8.18296 9.69799L7.55409 9.56819L7.35064 9.49402L7.0732 9.30859L6.81426 9.10461L6.68479 8.95627C6.72178 8.89446 6.84509 8.79556 7.05471 8.65958C7.252 8.53596 7.3938 8.46179 7.48011 8.43707H8.01649L8.25694 8.47415L8.47889 8.43707H8.66385L8.8673 8.47415ZM4.50227 1.27947L5.03865 1.13112H5.09414V1.26092L5.11264 1.40927L5.14963 1.5947L5.18662 1.70596L5.2606 1.8543L5.59353 2.05827L6.01893 2.28079L6.1854 2.46622H6.12991C6.05593 2.49094 5.97578 2.54039 5.88946 2.61456L5.64902 2.85562C5.61202 2.85562 5.59353 2.87416 5.59353 2.91125L5.50105 2.98542H5.59353L5.66751 3.02251L5.77849 3.09668L6.12991 3.449L5.66751 3.41191C5.51955 3.42427 5.42707 3.45518 5.39007 3.50463C5.29143 3.55407 5.29143 3.64679 5.39007 3.78277C5.46406 3.91875 5.46406 4.03619 5.39007 4.13509L5.09414 4.06092L4.90918 4.00529C4.81054 4.00529 4.73655 4.04855 4.68723 4.13509C4.60092 4.18454 4.5331 4.27107 4.48378 4.39469L4.3543 4.65429L4.29882 4.59866L4.05837 4.32052L3.81792 4.13509C3.7686 4.07328 3.67612 4.09182 3.54048 4.19072L3.39252 4.30198L3.26305 4.48741V4.33906L3.13357 3.89403L3.0041 3.56026L2.93012 3.50463H2.91162C2.83764 3.50463 2.80065 3.5788 2.80065 3.72714L2.74516 3.37483L2.72666 3.09668V2.98542L2.61569 3.04105H2.31975L1.94984 2.98542L1.82036 2.85562L2.02382 2.76291L2.39374 2.67019L2.91162 2.5033L2.85614 2.46622L2.68967 2.20662L2.39374 1.89139C2.33208 1.89139 2.28276 1.87284 2.24577 1.83576L2.20878 1.70596L2.5602 1.89139C2.70817 1.94083 2.83764 1.94083 2.94862 1.89139H3.0041L3.09658 1.81721L3.13357 1.70596V1.4649L3.20756 1.20529C3.20756 1.14348 3.22605 1.07549 3.26305 1.00132L3.30004 1.09404L3.41101 1.18675C3.49733 1.18675 3.54048 1.23002 3.54048 1.31655L3.61447 1.3351L3.70695 1.35364L3.79943 1.31655L3.94739 1.05695L4.15085 0.649005L4.13235 0.852978V1.09404L4.09536 1.35364L4.15085 1.31655L4.50227 1.27947ZM5.75999 4.78409C5.96961 4.64811 6.22856 4.58012 6.53682 4.58012C6.80809 4.58012 7.04854 4.64811 7.25816 4.78409C7.45545 4.93244 7.55409 5.09314 7.55409 5.26621C7.55409 5.45164 7.45545 5.61235 7.25816 5.74833C7.04854 5.89667 6.80809 5.97085 6.53682 5.97085C6.22856 5.97085 5.96961 5.89667 5.75999 5.74833C5.55037 5.61235 5.44556 5.45164 5.44556 5.26621C5.44556 5.09314 5.55037 4.93244 5.75999 4.78409ZM9.64929 4.91162L9.42824 5.46976C9.42824 5.46976 9.339 5.66848 9.31771 5.80464C9.29751 5.93382 9.31771 6.13952 9.31771 6.13952C9.31771 6.13952 9.10129 6.10191 8.98613 6.0279L8.98349 6.0262C8.88194 5.96094 8.81282 5.91652 8.76508 5.80464C8.71375 5.68436 8.73101 5.59593 8.76508 5.46976C8.80603 5.31812 8.87183 5.24155 8.98613 5.13488C9.18663 4.94776 9.64929 4.91162 9.64929 4.91162Z" fill="white"/>
</svg>
