<svg width="15" height="14" viewBox="0 0 15 14" fill="none" xmlns="http://www.w3.org/2000/svg">
<path d="M8.00873 0.012207V5.20907C7.86302 5.1605 7.71732 5.1605 7.52304 5.1605C7.32877 5.1605 7.18306 5.1605 7.03735 5.20907V0.012207H8.00873Z" fill="white"/>
<path d="M7.52304 8.90013C7.66875 8.90013 7.86302 8.90013 8.00873 8.85156V13.9999H7.03735V8.85156C7.18306 8.90013 7.37734 8.90013 7.52304 8.90013Z" fill="white"/>
<path d="M5.72591 6.52026C5.67735 6.66597 5.62878 6.86024 5.62878 7.05452C5.62878 7.20023 5.62877 7.34593 5.67734 7.49164H0.529053V6.52026H5.72591Z" fill="white"/>
<path d="M14.5169 6.52026V7.49164H9.36865C9.41722 7.34593 9.41722 7.20023 9.41722 7.05452C9.41722 6.86024 9.41722 6.71454 9.36865 6.52026H14.5169Z" fill="white"/>
<path fill-rule="evenodd" clip-rule="evenodd" d="M12.4753 10.2134C13.0615 9.30183 13.3997 8.21649 13.3997 7.05457C13.4482 3.84903 10.8255 1.22632 7.57142 1.22632C6.41265 1.22632 5.33004 1.56904 4.41995 2.15813L4.83395 2.57213C5.63965 2.05845 6.59569 1.76058 7.61999 1.76058C10.4855 1.76058 12.8168 4.09188 12.8168 6.95743C12.8168 7.98174 12.519 8.93777 12.0053 9.74347L12.4753 10.2134ZM10.2946 11.4118L10.7984 11.9156C9.87842 12.5263 8.77113 12.8828 7.57142 12.8828C4.36588 12.8828 1.74316 10.2601 1.74316 7.05457C1.74316 5.86726 2.10298 4.75991 2.71895 3.83618L3.1656 4.28282C2.69439 5.06464 2.42313 5.97996 2.42313 6.95743C2.42313 9.82299 4.75443 12.1543 7.61999 12.1543C8.59746 12.1543 9.51278 11.883 10.2946 11.4118Z" fill="white"/>
<path d="M14.274 13.7085C14.6139 13.3686 14.6139 12.8343 14.274 12.4943L2.03464 0.254986C1.69465 -0.0849954 1.1604 -0.0849954 0.820416 0.254986C0.480434 0.594968 0.480434 1.12922 0.820416 1.46921L13.0597 13.7085C13.3997 14.0485 13.934 14.0485 14.274 13.7085Z" fill="white"/>
</svg>
