<svg width="13" height="14" viewBox="0 0 13 14" fill="none" xmlns="http://www.w3.org/2000/svg">
<path fill-rule="evenodd" clip-rule="evenodd" d="M0.326416 1.41772L5.64287 0V14L0.326416 12.5823V1.41772ZM2.80752 6.73437C3.39476 6.73437 3.87081 5.86161 3.87081 4.785C3.87081 3.70839 3.39476 2.83563 2.80752 2.83563C2.22028 2.83563 1.74423 3.70839 1.74423 4.785C1.74423 5.86161 2.22028 6.73437 2.80752 6.73437Z" fill="white"/>
<path d="M11.4399 4.97576H12.7316V4.55317H11.4399V4.97576Z" fill="white"/>
<path d="M12.1836 3.77615L11.8965 3.44898L11.1267 4.17147L11.3746 4.49864L12.1836 3.77615Z" fill="white"/>
<path d="M11.0093 3.36719L10.67 3.95336L11.0484 4.17147L11.3355 3.55803L11.0093 3.36719Z" fill="white"/>
<path d="M11.0876 5.39835C10.9658 5.47105 10.8396 5.53921 10.7092 5.60283L11.0484 6.20263L11.3746 5.97089L11.0876 5.39835Z" fill="white"/>
<path d="M12.2097 5.78004L11.4138 5.05755L11.1658 5.39835L11.9357 6.10721L12.2097 5.78004Z" fill="white"/>
<path d="M11.1919 4.71675L10.1089 4.25326H6.7063V5.31655H10.1089L11.1919 4.71675Z" fill="white"/>
</svg>
