<svg width="28" height="14" viewBox="0 0 28 14" fill="none" xmlns="http://www.w3.org/2000/svg">
<path d="M9.64349 12.4459C9.30945 12.5004 8.99272 12.6321 8.71844 12.8304C8.10113 13.2614 7.40894 13.4568 6.66562 13.5308C5.75244 13.6221 4.84565 13.7025 3.9343 13.5025C2.70151 13.2285 1.63126 12.6961 0.769221 11.7455C0.470543 11.4322 0.249007 11.0536 0.122196 10.6397C-0.00461544 10.2258 -0.0332113 9.78807 0.0386778 9.36121C0.0513023 9.25751 0.0742455 9.15534 0.107166 9.05621C0.44139 8.10011 1.78742 7.37504 2.78643 7.60699C2.98551 7.65356 3.18549 7.69283 3.34713 7.72753C3.45454 7.65901 3.54644 7.56877 3.61689 7.46262C3.68735 7.35646 3.73481 7.23673 3.75623 7.11113C3.78454 6.9842 3.79915 6.85362 3.82928 6.7276C4.09228 5.62174 4.72055 5.11401 5.95425 4.99987C6.28847 4.96882 6.63183 5.03274 6.96971 5.05739C7.43269 5.09118 7.64728 4.92133 7.70025 4.45287C7.74317 4.0876 7.7596 3.72233 7.808 3.35706C7.87093 2.93991 8.05475 2.55036 8.33673 2.23659C9.22301 1.19182 10.4221 0.460186 11.7566 0.149971C12.6983 -0.0900725 13.6904 -0.0410698 14.6039 0.290601C15.676 0.67231 16.4302 1.38642 16.9635 2.35439C17.0832 2.57264 17.1106 2.85024 17.1462 3.10411C17.1845 3.39541 17.3115 3.58992 17.621 3.68671C17.8603 3.57439 18.1059 3.41733 18.3735 3.34701C18.6191 3.28309 18.8922 3.32966 19.1488 3.29587C19.4273 3.25935 19.6565 3.35066 19.8884 3.48581C20.6656 3.93784 21.1185 4.59807 21.2098 5.49481C21.2281 5.67744 21.24 5.86008 21.0893 6.00619C20.9386 6.1523 20.9532 6.33311 21.0893 6.49291C21.2253 6.65272 21.3806 6.71025 21.5778 6.62532C22.2034 6.35137 22.8563 6.3815 23.5083 6.46917C23.7676 6.50137 24.0224 6.56263 24.2681 6.65181C24.8461 6.87097 25.3346 7.19971 25.5675 7.81428C25.6367 8.01192 25.7228 8.20319 25.825 8.38593C26.2013 9.01785 26.1492 9.69908 26.0296 10.3694C25.9337 10.9054 25.573 11.2953 25.1374 11.614C24.5895 12.0085 23.9585 12.1902 23.3302 12.3446C21.9541 12.6852 20.5587 12.9071 19.1396 12.5811C19.013 12.549 18.8812 12.5425 18.752 12.562C18.6228 12.5814 18.4988 12.6264 18.3872 12.6943C18.0941 12.8651 17.7872 13.0139 17.4941 13.1847C16.6604 13.6714 15.7353 13.8513 14.7966 13.9445C13.7007 14.054 12.5967 14.0239 11.5402 13.6486C10.8288 13.4048 10.164 13.0477 9.64349 12.4459Z" fill="#808080"/>
<path d="M24.5204 3.91052H27.0577V3.09644H24.5204V3.91052Z" fill="white"/>
<path d="M25.9813 1.59959L25.4174 0.969331L23.9053 2.36114L24.3923 2.9914L25.9813 1.59959Z" fill="white"/>
<path d="M23.6747 0.811768L23.0083 1.94097L23.7516 2.36114L24.3154 1.17942L23.6747 0.811768Z" fill="white"/>
<path d="M23.8285 4.7246C23.5893 4.86466 23.3415 4.99596 23.0852 5.11851L23.7516 6.27398L24.3923 5.82755L23.8285 4.7246Z" fill="white"/>
<path d="M26.0325 5.4599L24.4692 4.06808L23.9822 4.7246L25.4943 6.09015L26.0325 5.4599Z" fill="white"/>
<path d="M24.0335 3.41157L21.9063 2.51871H15.2229V4.56704H21.9063L24.0335 3.41157Z" fill="white"/>
<path d="M7.80269 8.78646C7.13294 9.10581 6.93964 10.0893 6.89195 10.5664C6.84426 11.0435 6.64105 10.9791 6.61186 10.9792C6.58266 10.9794 6.44367 10.8681 6.38859 10.7586C6.33551 10.653 6.3425 10.4596 6.3425 10.4596C6.26455 9.56476 6.75054 8.69984 7.5738 8.3073C8.00014 8.10402 8.47085 8.04575 8.92609 8.13542C9.10031 7.35412 9.61726 6.69935 10.3523 6.34887C11.5739 5.76641 13.0263 6.21902 13.7132 7.35342C13.7132 7.35342 13.8066 7.49604 13.8079 7.71804C13.8092 7.94003 13.541 7.98398 13.541 7.98398C13.4636 7.96254 13.4004 7.90749 13.3688 7.83404C13.3657 7.8267 13.3624 7.81986 13.359 7.81268C12.8642 6.77506 11.618 6.33326 10.5807 6.82785C9.91984 7.14295 9.48022 7.76631 9.40421 8.49575C9.39609 8.57641 9.35086 8.64875 9.28262 8.6922C9.21404 8.73581 9.12966 8.74541 9.05307 8.71856C8.64104 8.5743 8.19689 8.59851 7.80269 8.78646Z" fill="black"/>
</svg>
