<svg width="139" height="32" viewBox="0 0 139 32" fill="none" xmlns="http://www.w3.org/2000/svg">
<path fill-rule="evenodd" clip-rule="evenodd" d="M15.9982 8.60645C23.9108 8.60645 30.3252 15.1857 30.3252 23.3016H27.8073C27.8073 16.6121 22.5202 11.1891 15.9982 11.1891C9.47625 11.1891 4.18913 16.6121 4.18913 23.3016H1.6712C1.6712 15.1857 8.08562 8.60645 15.9982 8.60645ZM15.9981 13.1901C21.4426 13.1901 25.8562 17.7172 25.8562 23.3016H23.3383C23.3383 19.1435 20.052 15.7728 15.9981 15.7728C11.9442 15.7728 8.65789 19.1435 8.65789 23.3016H6.13995C6.13995 17.7172 10.5536 13.1901 15.9981 13.1901ZM21.5904 23.3016C21.5904 20.1337 19.0866 17.5655 15.998 17.5655C12.9094 17.5655 10.4056 20.1337 10.4056 23.3016H12.9235C12.9235 21.56 14.3 20.1481 15.998 20.1481C17.696 20.1481 19.0725 21.56 19.0725 23.3016H21.5904Z" fill="#00FF90"/>
<path d="M40.672 10.596V13.348H48.496L40.544 20.308V22.5H54.064V19.684H45.792L53.952 12.772V10.596H40.672ZM65.3774 17.636H60.8654L63.0734 13.172L65.3774 17.636ZM67.8734 22.5H71.8894L65.5214 10.596H60.6894L54.6734 22.5H58.4654L59.5374 20.324H66.7534L67.8734 22.5ZM79.883 22.708C85.867 22.708 86.859 20.692 86.859 18.724V18.5C86.859 16.132 85.051 15.044 80.571 14.964L78.571 14.932C76.139 14.884 75.819 14.42 75.819 13.908C75.819 13.396 76.027 12.884 78.907 12.884H79.163C82.283 12.884 82.523 13.86 82.603 14.308H86.475V14.148C86.475 12.356 85.195 10.388 79.563 10.388H78.459C73.035 10.388 71.979 12.244 71.979 14.02V14.164C71.979 16.02 73.339 17.524 77.787 17.652L79.835 17.7C82.587 17.78 82.955 18.212 82.955 18.9C82.955 19.54 82.603 20.164 79.467 20.164H79.243C76.171 20.164 75.755 18.996 75.707 18.276H71.819V18.452C71.819 20.02 72.539 22.708 78.779 22.708H79.883ZM97.6111 17.636H93.0991L95.3071 13.172L97.6111 17.636ZM100.107 22.5H104.123L97.7551 10.596H92.9231L86.9071 22.5H90.6991L91.7711 20.324H98.9871L100.107 22.5ZM105.098 22.5H113.002C119.962 22.5 121.386 19.268 121.386 16.708V16.228C121.386 13.556 119.882 10.596 112.986 10.596H105.098V22.5ZM108.826 13.412H112.698C116.986 13.412 117.482 15.252 117.482 16.468V16.564C117.482 17.78 116.922 19.636 112.698 19.636H108.826V13.412ZM131.642 17.636H127.13L129.338 13.172L131.642 17.636ZM134.138 22.5H138.154L131.786 10.596H126.954L120.938 22.5H124.73L125.802 20.324H133.018L134.138 22.5Z" fill="white"/>
</svg>
