<svg width="34" height="12" viewBox="0 0 34 12" fill="none" xmlns="http://www.w3.org/2000/svg">
<path fill-rule="evenodd" clip-rule="evenodd" d="M32.5674 1.11621V2.62319L33.0976 2.679L33.1953 2.90226L33.2651 3.0697L33.1953 3.20923L32.9581 3.29296L32.8046 3.25109H32.6372L32.3999 3.6697L31.9534 3.4883H28.1999L28.0046 3.72551L27.7813 3.55807H25.1023L25.0604 3.79528H20.8465L20.3441 4.0604L19.9813 4.25575L19.7162 4.31156L19.4511 4.2697C19.3953 4.2604 19.3581 4.23714 19.3395 4.19993L19.1441 4.07435H17.2325C17.2325 4.54877 17.3395 5.03714 17.5534 5.53947C17.7395 5.97668 18.0325 6.4604 18.4325 6.99063C18.8418 7.53016 19.4279 8.0697 20.1906 8.60923L19.9395 8.93016L19.479 9.65575L18.8511 10.6744C18.293 10.293 17.7627 9.83714 17.2604 9.30691C16.8232 8.8511 16.372 8.279 15.9069 7.59063C15.4418 6.92086 15.0558 6.12086 14.7488 5.19063L14.5953 5.20458L14.4837 5.30226L14.0651 5.23249C13.8511 5.35342 13.6279 5.43714 13.3953 5.48365L12.7395 5.52551C12.479 5.49761 12.2279 5.38598 11.986 5.19063L11.7209 5.39993L11.2046 5.94412C11.0092 6.17668 10.8279 6.43714 10.6604 6.72551C10.4837 6.99528 10.3627 7.2697 10.2976 7.54877L10.0465 7.6604L9.48832 7.78598C9.28367 7.79528 9.08832 7.74877 8.90227 7.64644C8.72553 7.53482 8.6139 7.31156 8.56739 6.97668L8.77669 6.53016L9.18134 5.76272L9.59995 4.99528L9.85111 4.6604L9.6139 4.49296C9.50227 4.38133 9.38134 4.33947 9.25111 4.36737L8.97204 4.46505L8.34413 4.67435L7.50692 4.98133L6.55809 5.31621L4.06041 6.23714L0.753435 7.32551L0.474365 3.37668C0.623202 3.26505 0.795296 3.18133 0.990644 3.12551L1.6046 2.97203L2.31623 2.98598L2.93018 2.97203L4.29762 2.8604L6.32088 2.73482L6.71158 2.8604L7.29762 2.98598L7.64646 2.90226L8.24646 2.74877L9.02785 2.51156L10.2976 1.42319L10.4092 1.53482H18.1674L18.2511 1.46505C18.279 1.43714 18.3302 1.41389 18.4046 1.39528L18.7395 1.36737L24.7116 1.42319L25.0465 1.53482L25.3255 1.61854L25.5767 1.70226H28.0744L28.4511 2.16272L28.786 2.51156L29.0511 2.679H31.2418L31.4093 2.62319L31.6465 2.09296L31.8279 1.6883C31.8744 1.54877 31.9162 1.4604 31.9534 1.42319L31.9953 1.21389V1.11621H32.5674ZM13.493 4.24179L12.7395 4.25575C12.5906 4.24644 12.4604 4.2883 12.3488 4.38133C12.2558 4.48365 12.2092 4.60923 12.2092 4.75807C12.2092 4.879 12.2558 4.98598 12.3488 5.079C12.4604 5.17203 12.5906 5.21854 12.7395 5.21854H13.493C13.6325 5.21854 13.7441 5.17203 13.8279 5.079L13.9534 4.75807C13.9534 4.60923 13.9116 4.48365 13.8279 4.38133C13.7441 4.2883 13.6325 4.24179 13.493 4.24179Z" fill="white"/>
</svg>
