<svg width="29" height="12" viewBox="0 0 29 12" fill="none" xmlns="http://www.w3.org/2000/svg">
<path fill-rule="evenodd" clip-rule="evenodd" d="M14.3932 5.34417L14.3095 5.41394C14.2443 5.48836 14.2118 5.58138 14.2118 5.69301L14.2397 5.97208L14.1839 6.0558L13.9048 6.06975L13.7234 6.0558L13.6536 6.22324H13.3188L13.2211 6.25115L13.1374 6.33487L12.4536 7.59068C12.3606 7.76743 12.3513 7.92091 12.4257 8.05115C12.4816 8.15347 12.556 8.21859 12.649 8.24649H13.5978C13.942 8.20929 14.2071 8.12091 14.3932 7.98138C14.5234 7.86975 14.9792 7.17208 15.7606 5.88836C15.8071 5.80463 15.7467 5.62324 15.5792 5.34417H14.3932ZM27.4955 3.11161L27.6629 3.12556L27.8583 3.04184H28.542L28.6118 3.16743L28.6676 3.48836L28.6118 3.80929L28.5141 3.93487H27.9002L27.7746 3.89301L27.649 3.87905L27.4816 3.90696L27.3978 3.93487H27.0071L26.9513 3.89301H26.3374L26.2816 3.83719H25.9885C25.9699 3.90231 25.9281 3.93487 25.8629 3.93487H25.2909L25.1792 3.89301L25.1374 3.8651L21.1048 3.96277L20.8816 4.19998H20.7839L20.7141 4.11626H20.6164L20.5606 4.19998H19.7234L19.6118 5.05115C19.6025 5.14417 19.542 5.20929 19.4304 5.24649L19.5281 5.34417L19.7513 5.37208C19.9002 5.39998 19.9699 5.46045 19.9606 5.55347C19.9048 5.86045 19.8909 6.08836 19.9188 6.23719L19.9327 6.87905V7.60463C19.9513 7.89301 20.0583 8.19998 20.2536 8.52556C20.2909 8.59068 20.2257 8.6558 20.0583 8.72091L19.5281 8.81859L18.9141 8.70696L18.5653 8.60929C18.556 8.19998 18.5792 7.82324 18.635 7.47905L18.8304 6.79533C18.9048 6.57208 18.9281 6.40929 18.9002 6.30696L18.8025 5.95812L18.6909 5.70696C18.6629 5.63254 18.7327 5.54882 18.9002 5.4558L19.1513 5.33022L18.1048 5.2744L16.8909 5.33022C16.6211 5.50696 16.2676 5.90231 15.8304 6.51626L14.9374 7.8558C14.7327 8.15347 14.5374 8.34882 14.3513 8.44184L13.556 8.58138L12.1746 8.65115L11.1978 8.6651C11.1048 8.6651 11.0443 8.63719 11.0164 8.58138L10.9885 8.28836C11.0071 7.88836 11.0583 7.59998 11.142 7.42324L11.4071 6.93487C11.5467 6.6837 11.6443 6.53487 11.7002 6.48836L11.9792 6.23719C12.1188 6.06975 12.1885 5.8651 12.1885 5.62324C12.1885 5.35347 12.0722 5.19533 11.8397 5.14882L11.0583 5.17673L10.2071 5.23254C9.92806 5.25115 9.76992 5.29766 9.73272 5.37208C9.6583 5.4837 9.52806 5.57208 9.34202 5.63719L9.31411 6.13952C9.36062 6.65115 9.50481 7.32556 9.74667 8.16277C10.1188 9.4837 10.4583 10.3442 10.7653 10.7442C10.8955 10.9116 10.8816 11.0372 10.7234 11.1209L9.70481 11.4837L8.67225 11.8465C8.56062 11.8744 8.51411 11.707 8.53271 11.3442L8.21178 10.6604C7.97923 10.0465 7.77458 9.38138 7.59783 8.6651C7.43039 7.94882 7.30946 7.26045 7.23504 6.59998L7.17923 5.83254L6.76062 5.81859L6.13272 6.32091C6.10481 6.34882 6.0583 6.32091 5.99318 6.23719C5.92806 6.16277 5.8862 6.13022 5.8676 6.13952C5.64434 6.22324 5.30946 6.41394 4.86295 6.71161C4.35132 7.0744 4.0676 7.35347 4.01179 7.54882L3.91411 7.8837L4.0676 8.05115L4.22109 8.28836C4.22109 8.40929 4.18388 8.50231 4.10946 8.56743C4.04434 8.63254 3.95132 8.6651 3.83039 8.6651H2.19783C2.09551 8.6651 1.99318 8.62324 1.89085 8.53952C1.76992 8.42789 1.6769 8.27905 1.61179 8.09301L1.17923 6.29301C0.965274 5.28836 0.853646 4.6744 0.844343 4.45115C0.835041 4.21859 0.848995 4.05115 0.886204 3.94882L1.0676 3.6837L1.51411 3.32091C1.73737 3.17208 1.90946 3.09766 2.03039 3.09766L10.8071 2.91626V2.81859L11.0304 2.65115L11.3653 2.42789L11.756 2.35812L12.2862 2.37208V1.66045H12.0769C12.0862 1.76277 12.0164 1.81394 11.8676 1.81394L11.7002 1.74417L11.6722 1.66045H11.1839L11.1141 1.73022H10.9467C10.8629 1.60929 10.8211 1.40463 10.8211 1.11626C10.8211 0.837192 10.8583 0.683704 10.9327 0.655797H11.0583L11.142 0.711611L11.6164 0.697657L11.6443 0.599983C11.6722 0.544169 11.7374 0.516262 11.8397 0.516262C11.9606 0.516262 12.0211 0.572076 12.0211 0.683704L12.1606 0.66975V0.432541L12.4257 0.390681L12.7188 0.418588V0.586029L13.8211 0.432541L15.1467 0.279053H15.5792L15.7746 0.432541H15.9699V0.34882H16.1234V0.404634H16.4025V1.77208L16.1234 1.78603V1.84184H15.9839V1.75812H15.2862L15.3978 1.92556H15.5792C15.7095 1.94417 15.7792 1.97673 15.7885 2.02324L15.8443 2.28836H16.3048V2.23254H16.5141V2.28836H16.9885V2.23254H17.1978V2.28836H17.6722V2.23254H17.8676V2.28836H18.356V2.23254H18.5513V2.28836H19.0397V2.23254H19.235V2.28836H19.6118L20.6025 2.77673V3.09766L20.8536 3.23719H25.1792L25.249 3.19533L25.3606 3.12556H25.8769L26.0025 3.23719H26.2536L26.3792 3.16743L26.9234 3.19533L26.9374 3.13952C26.9653 3.10231 27.0025 3.0837 27.049 3.0837H27.3978L27.4955 3.11161Z" fill="white"/>
</svg>
