<svg width="40" height="12" viewBox="0 0 40 12" fill="none" xmlns="http://www.w3.org/2000/svg">
<path fill-rule="evenodd" clip-rule="evenodd" d="M39.4631 4.42336L39.5329 4.57685L39.5887 4.71639L39.6306 4.89778C39.6306 4.99081 39.5747 5.12104 39.4631 5.28848L39.4213 5.35825H24.6026V5.60941H25.691V6.55825L25.8445 6.71174C25.9282 6.77685 25.9701 6.88848 25.9701 7.04662L25.9422 7.15825L25.9143 7.20011V7.24197L25.8445 7.40941H25.7189H25.0631H23.3887H20.1236L20.0538 7.54894L20.1236 7.59081L20.2213 7.68848L20.1515 7.89778H19.5933L19.5236 7.82801L19.3422 7.40941C19.2492 7.19546 19.2399 7.01871 19.3143 6.87918C19.3143 6.76755 19.3701 6.71174 19.4817 6.71174H19.5236C19.7561 6.71174 19.9003 6.74429 19.9561 6.80941C20.0864 6.80941 20.2399 6.7722 20.4166 6.69778L17.7096 6.66987L17.3608 6.76755L16.7189 6.94894L16.0492 7.13034C15.8538 7.17685 15.7468 7.21406 15.7282 7.24197V8.21871L12.5329 8.5536V7.54894C12.3654 7.54894 12.2631 7.5722 12.2259 7.61871L12.0026 7.80011L11.584 8.02336L10.9422 8.07918C10.7003 8.06057 10.4259 7.95825 10.1189 7.7722L10.0631 7.80011H9.95149L9.93753 8.23267L9.83986 8.79081L9.67242 9.32104L9.47707 9.60011L8.82125 9.66987L7.84451 9.54429L6.89567 9.39081L6.36544 9.20941L5.97474 8.79081L5.55614 8.41406L5.29102 8.21871H3.46311L3.32358 9.11174C3.31428 9.18615 3.28637 9.22336 3.23986 9.22336L3.07242 9.32104L2.598 9.22336H2.03986H1.67707L1.398 9.26522L0.965439 9.33499L0.518927 9.43267L0.184043 9.50243H0.086369L0.0445085 9.46057L0.0166016 9.22336V8.69313V7.61871L0.086369 6.37685V5.45592C0.086369 5.3815 0.179392 5.30243 0.365439 5.21871L1.6073 5.13499H1.97009L1.998 5.10708L2.03986 5.07918L2.10962 5.03732L2.22125 4.9536H5.54218C5.6166 4.9629 5.69102 5.00476 5.76544 5.07918L6.14218 5.45592H9.90963L10.0213 5.10708L10.091 4.75825V4.67453H10.1189L10.6631 4.57685L11.1096 4.49313L11.2492 4.46522C11.2585 4.43732 11.2864 4.41406 11.3329 4.39546H12.505V4.04662H12.0724L11.7236 4.10243L11.0538 4.18615L10.2724 4.25592L9.58869 4.21406L9.56079 4.14429V4.10243L9.51893 3.50243V3.12569C9.51893 3.05127 9.53288 3.00011 9.56079 2.9722L9.58869 2.94429H9.65846L9.95149 2.91639L10.6213 2.87453L11.4026 2.83267L11.9608 2.87453H12.505H13.1747L13.7747 2.86057L14.1654 2.83267V2.59546L14.1375 2.52569V2.30243L15.2957 2.23267H15.3096L15.4492 2.62336L15.4073 2.66522C15.3887 2.70243 15.3561 2.72104 15.3096 2.72104V2.79081H17.3329L18.0026 2.69313L18.9096 2.59546L19.7608 2.52569L20.2213 2.5815L20.2771 2.62336L20.305 4.21406H20.2213L17.5003 4.04662V4.10243L17.1096 4.03267L16.4399 4.04662V4.36755H39.4631V4.42336ZM11.8631 7.1722C11.8631 6.97685 11.7561 6.87918 11.5422 6.87918H10.7608C10.5468 6.87918 10.4399 6.97685 10.4399 7.1722C10.4399 7.40476 10.5468 7.52104 10.7608 7.52104H11.5422C11.7561 7.52104 11.8631 7.40476 11.8631 7.1722ZM7.59335 8.67918C7.8259 8.74429 8.10032 8.70708 8.4166 8.56755L8.93288 8.12104L9.07242 7.70243C9.10032 7.51639 9.08172 7.3722 9.0166 7.26987C8.97009 7.09313 8.798 6.97685 8.50032 6.92104L7.57939 6.9629C7.42125 7.04662 7.30963 7.11639 7.24451 7.1722L7.03521 7.45127C6.88637 7.69313 6.86776 7.9536 6.97939 8.23267C7.10963 8.50243 7.31428 8.65127 7.59335 8.67918Z" fill="white"/>
</svg>
