<svg width="40" height="12" viewBox="0 0 40 12" fill="none" xmlns="http://www.w3.org/2000/svg">
<path fill-rule="evenodd" clip-rule="evenodd" d="M33.6441 5.84664L33.6022 5.81873L32.8069 5.83268L32.6953 5.95826C32.6208 6.04199 32.5883 6.13036 32.5976 6.22338C32.5976 6.3164 32.6395 6.40943 32.7232 6.50245L32.8348 6.60012H33.7139L33.7976 6.50245L33.8674 6.18152C33.8674 6.06989 33.8208 5.97687 33.7278 5.90245L33.6441 5.84664ZM39.2953 5.98617L38.6255 6.60012C38.0022 7.07454 37.286 7.45594 36.4767 7.74431C35.686 8.03268 34.6162 8.23268 33.2674 8.34431L32.0115 8.42803L15.8674 8.45594L15.8534 10.1722H15.2953V8.09315H13.4953L13.4115 8.02338L13.1883 7.95361C13.1046 7.96292 13.0301 7.99082 12.965 8.03733L12.9092 8.1071H11.6115L11.5418 8.03733C11.4767 7.98152 11.3976 7.95361 11.3046 7.95361C11.2208 7.95361 11.1511 7.98152 11.0953 8.03733L11.0395 8.1071H9.75573L9.69992 8.03733C9.6534 7.98152 9.59294 7.95361 9.51852 7.95361C9.4348 7.95361 9.36503 7.98152 9.30922 8.03733L9.2534 8.1071H7.96968L7.89992 8.02338C7.8534 7.96757 7.79294 7.93966 7.71852 7.93966C7.6441 7.93966 7.58364 7.96757 7.53712 8.02338L7.46736 8.1071H6.11387L6.05805 8.03733C6.01154 7.98152 5.95108 7.95361 5.87666 7.95361L5.69526 8.00943L5.6534 8.05129H4.94178L4.39759 8.27454H1.2441L1.09061 8.00943L0.895264 7.59082V6.43268L0.923171 5.42803L0.937124 5.3164L1.02085 5.09315L1.2441 4.93966L1.36968 4.88385L4.28596 4.8978L4.89991 5.12106L5.58364 5.1071L5.66736 5.19082L5.8348 5.26059L6.0441 5.16292L6.15573 5.07919H7.41154L7.49526 5.16292L7.73247 5.24664L7.94178 5.17687L7.98364 5.1071L8.01154 5.07919L9.21154 5.09315L9.28131 5.17687C9.34643 5.24199 9.42085 5.26989 9.50457 5.26059C9.56968 5.26059 9.63945 5.23268 9.71387 5.17687L9.78364 5.09315H11.0674L11.1371 5.17687L11.3185 5.26059C11.3929 5.26989 11.4674 5.24199 11.5418 5.17687L11.6255 5.09315H12.9092L12.979 5.19082C13.0534 5.25594 13.1232 5.2885 13.1883 5.2885C13.2906 5.2885 13.3697 5.25594 13.4255 5.19082L13.4674 5.12106L13.4813 5.09315H15.2813V1.95361H15.8674V4.91175H17.3604L17.5278 4.86989L17.7511 4.73036L31.5232 4.78617L39.2953 5.98617Z" fill="white"/>
</svg>
