<svg width="31" height="12" viewBox="0 0 31 12" fill="none" xmlns="http://www.w3.org/2000/svg">
<path fill-rule="evenodd" clip-rule="evenodd" d="M27.6885 1.74408L27.7722 1.73013L27.828 1.71618L28.1489 1.70222L28.1629 1.67432H28.2048H28.4141L28.4559 1.68827L28.4699 1.70222L28.4838 1.71618H28.5257L28.5675 1.73013L28.5955 1.75804L28.6094 1.78594L28.6234 1.81385V1.84176V1.86967V1.88362V1.91153L28.6373 1.93943L28.6513 1.96734L28.6652 1.99525V2.02315V2.05106V2.07897V2.09292V2.12083V2.14873V2.17664V2.20455V2.23246V2.26036V2.28827L28.6792 2.30222L28.6931 2.33013V2.35804L28.6792 2.38594V2.41385L28.6513 2.4278V2.45571L28.6373 2.46967V2.48362V2.51153V2.53943V2.56734V2.59525V2.62315V2.63711V2.66501V2.69292V2.72083V2.74873V2.77664V2.80455L28.6513 2.8185L28.6652 2.83246L28.6931 2.86036V2.88827V2.91618V2.94408V2.97199L28.6792 2.9999L28.6652 3.0278V3.04176V3.06967V3.09757V3.12548V3.15339V3.18129V3.2092V3.23711V3.25106V3.27897V3.30687V3.33478V3.36269V3.3906V3.4185V3.44641V3.46036V3.48827V3.51618V3.54408V3.57199V3.5999V3.6278V3.65571V3.66966V3.69757V3.72548V3.75339V3.78129V3.8092V3.83711V3.86501V3.87897H30.242L30.2978 3.90687L30.3117 3.92083H30.3396V3.90687L30.3955 3.93478L30.4094 3.94873L30.4373 3.97664V4.00455V4.03246V4.06036V4.08827V4.11618V4.14408V4.15804V4.18594V4.21385V4.24176V4.26967V4.29757V4.32548V4.35339V4.36734V4.39525V4.42315V4.45106V4.47897V4.50687V4.53478V4.56269V4.57664V4.60455V4.63246V4.66036V4.68827V4.71618V4.74408V4.77199V4.78594V4.81385V4.84176V4.86966V4.89757V4.92548V4.95339L30.4234 4.98129L30.4094 4.99525V5.02315V5.05106L30.3955 5.07897V5.10687L30.3675 5.12083L30.3536 5.13478H30.3117H28.9443L28.9024 5.14873H28.8466L28.8187 5.16269L28.8466 5.17664V5.16269L28.9024 5.1906L28.9303 5.20455L28.9443 5.23246V5.26036L28.9582 5.28827L28.9722 5.31618V5.34408V5.37199V5.3999V5.41385V5.44176V5.46966V5.49757L28.9582 5.52548L28.9443 5.55339L28.9303 5.56734V5.58129L28.9443 5.6092L28.9303 5.63711L28.9722 5.65106L29.0001 5.67897L29.0141 5.69292V5.72083V5.74873V5.77664L29.042 5.7906L29.0699 5.8185L29.0838 5.83246V5.86036V5.88827V5.91618V5.94408V5.97199L29.0699 5.9999L29.0559 6.0278L29.042 6.04176V6.06966V6.09757V6.12548V6.15339V6.18129V6.2092V6.23711V6.25106V6.27897V6.30687V6.33478V6.36269V6.3906V6.4185V6.44641V6.46036V6.48827V6.51618V6.54408V6.57199V6.5999V6.6278V6.65571V6.66967V6.69757V6.72548V6.75339V6.78129V6.8092V6.83711V6.86501V6.87897V6.90687V6.93478V6.96269V6.9906V7.0185V7.04641V7.07432V7.08827V7.11618V7.14408V7.17199V7.1999V7.2278V7.25571V7.28362V7.29757V7.32548V7.35339V7.38129V7.4092V7.43711V7.46501V7.49292V7.50687V7.53478V7.56269V7.5906L29.028 7.6185L29.0141 7.64641L28.9862 7.67432H28.9443H28.9303V7.68827L28.9024 7.70222L28.8885 7.71618H28.8466H28.2187H28.1768H28.1071L28.0373 7.70222L28.0234 7.67432L27.9955 7.64641V7.63246V7.60455L27.9675 7.57664V7.56269V7.53478V7.50687V7.47897V7.45106V7.43711H18.9257L18.8978 7.46501V7.49292V7.52083V7.54874L18.9117 7.57664L18.9257 7.60455V7.63246V7.64641L18.8978 7.67432L18.8838 7.70222V7.71618L18.8559 7.73013L18.842 7.74408H18.8001H18.4792L18.4094 7.73013L18.3955 7.70222L18.3675 7.67432V7.64641V7.63246L18.3536 7.64641H18.3117L18.2559 7.63246L18.228 7.60455L18.2001 7.57664L18.1722 7.56269L18.1582 7.53478V7.50687V7.47897V7.45106V7.42315V7.39525V7.36734V7.35339V7.32548V7.29757V7.26967V7.24176V7.21385V7.18594V7.15804V7.14408V7.11618V7.08827V7.06036V7.04641L18.1443 7.0185L18.1303 6.9906L18.1164 6.96269L18.0885 6.94874V6.92083L18.0745 6.89292L18.0606 6.86501L18.0466 6.83711L18.0327 6.8092L18.0187 6.78129L18.0048 6.75339L17.9908 6.73943V6.71153V6.69757L17.9489 6.66967L17.9071 6.64176L17.8652 6.6278L17.8513 6.65571L17.8373 6.66967H17.8234L17.8094 6.69757V6.72548V6.75339V6.78129V6.8092V6.83711V6.86501V6.87897V6.90687V6.93478V6.96269V6.9906V7.0185V7.04641V7.07432V7.08827V7.11618V7.14408V7.17199V7.1999V7.2278V7.25571L17.7955 7.28362L17.7815 7.29757L17.7675 7.32548L17.7536 7.33943V7.36734V7.38129V7.4092V7.43711V7.46501V7.49292V7.52083L17.7396 7.54874L17.7257 7.57664L17.7117 7.5906L17.6838 7.6185V7.63246V7.66036V7.68827V7.71618L17.6699 7.74408L17.6559 7.77199L17.642 7.78594V7.81385L17.628 7.84176V7.86967L17.6001 7.89757L17.5582 7.92548L17.5443 7.95339L17.5024 7.96734H17.3629L17.321 7.95339H17.2931L17.2234 7.93943L17.2094 7.91153L17.1815 7.88362L17.1536 7.86967L17.1396 7.84176L17.1117 7.81385V7.78594V7.77199V7.74408V7.71618V7.68827V7.66036V7.63246V7.60455V7.57664L17.1396 7.56269L17.1536 7.53478V7.50687V7.47897V7.46501L17.1257 7.45106H17.0699L17.0141 7.43711H16.9862H16.9582L16.9024 7.46501L16.8745 7.49292L16.8466 7.50687L16.7908 7.53478L16.7629 7.56269L16.721 7.5906L16.6513 7.6185L16.6234 7.63246L16.6094 7.64641H16.5675L16.4838 7.66036L16.4699 7.67432H16.428L16.3164 7.70222L16.2885 7.71618H16.2466H16.2187L16.1629 7.70222L16.135 7.68827L15.9396 7.67432H15.8978L15.8838 7.66036L14.4048 7.64641L14.3489 7.63246L14.321 7.60455L14.2931 7.57664V7.56269V7.53478L14.2792 7.50687L14.2513 7.47897L14.2373 7.45106L14.2234 7.42315L14.2094 7.39525L14.1815 7.36734L14.1675 7.35339V7.33943H14.1396L14.1257 7.35339H14.0838L13.9722 7.38129V7.39525L13.9582 7.42315L13.9303 7.45106L13.9024 7.47897V7.50687V7.53478L13.8885 7.56269L13.8745 7.5906L13.8606 7.60455V7.63246L13.8327 7.66036V7.68827V7.71618V7.74408L13.8187 7.77199L13.8048 7.7999L13.7908 7.81385V7.84176L13.7629 7.86967V7.89757L13.7489 7.92548V7.95339L13.721 7.98129L13.7071 8.0092L13.6931 8.02315V8.05106V8.07897V8.10687L13.6792 8.13478V8.16269L13.6513 8.1906L13.6373 8.2185L13.6234 8.23246V8.26036V8.28827L13.6094 8.31618V8.34408L13.5815 8.37199V8.3999L13.5675 8.4278L13.5536 8.44176V8.46967V8.49757V8.52548L13.5396 8.55339V8.58129L13.5117 8.6092L13.4978 8.63711L13.4838 8.65106V8.67897V8.70687V8.73478L13.4699 8.76269V8.7906L13.442 8.8185L13.428 8.84641L13.4141 8.86036V8.88827V8.91618L13.4001 8.94408V8.97199L13.3722 8.9999V9.0278L13.3582 9.05571L13.3443 9.06966V9.09757V9.12548L13.3303 9.15339V9.18129L13.3024 9.2092V9.23711V9.26501V9.27897L13.2745 9.30687V9.33478L13.2606 9.36269V9.3906L13.2327 9.4185V9.44641V9.47432V9.48827L13.2048 9.51618V9.54408V9.57199L13.1908 9.5999V9.6278L13.1629 9.65571V9.68362V9.69757V9.72548L13.135 9.75339V9.78129L13.121 9.8092V9.83711L13.0931 9.86501L13.0792 9.89292L13.0652 9.90687V9.93478V9.96269L13.0513 9.99059V10.0185L13.0234 10.0464L13.0094 10.0743L12.9955 10.0883L13.0234 10.1022L13.0513 10.1162L13.0652 10.1441V10.172L13.0792 10.1999L13.121 10.2278V10.2557L13.135 10.2836V10.3115L13.1629 10.3255V10.3534V10.3813V10.4092V10.4371V10.465V10.4929V10.5208V10.5348V10.5627L13.135 10.5906L13.121 10.6185V10.6464L13.0792 10.6743L13.0652 10.7022L13.0513 10.7301L13.0373 10.7441L13.0094 10.772H12.9675H12.9536L12.9257 10.7999L12.8978 10.8139H12.8559L12.6327 10.8278L12.6187 10.8418H12.5768H12.2001H12.1582L12.1443 10.8278L11.9489 10.8139L11.8792 10.7999L11.8652 10.7859L11.7815 10.772H11.7396L11.7257 10.758L11.6699 10.7441L11.6001 10.7301L11.5722 10.7022L11.5164 10.6883L11.4466 10.6604L11.4048 10.6325L11.3489 10.6045L11.321 10.5906L11.2931 10.5627L11.2792 10.5348L11.2373 10.5069L11.1815 10.479L11.1675 10.4511L11.1396 10.4232L11.1117 10.3952L11.0838 10.3813L11.0699 10.3534L11.0559 10.3255L11.028 10.2976L11.0141 10.2697L11.0001 10.2418V10.2139L10.9861 10.1999L10.9722 10.1859L10.9443 10.172L10.9303 10.1441V10.1162V10.0883V10.0604V10.0325L10.9024 10.0045V9.97664V9.96269V9.93478V9.90687V9.87897V9.85106V9.82315V9.79525V9.76734V9.75339L10.9164 9.72548L10.9303 9.69757V9.66967V9.64176V9.61385V9.58594V9.55804V9.54408V9.51618L10.9443 9.48827L10.9582 9.46036L10.9722 9.43246L10.9861 9.40455L11.0001 9.37664V9.34873V9.33478L11.0141 9.30687L11.028 9.27897L11.042 9.25106L11.0559 9.22315L11.0699 9.19525V9.16734V9.13943L11.0978 9.12548L11.1117 9.09757L11.1257 9.06966L11.1396 9.04176V9.01385L11.1536 8.98594L11.1815 8.95804V8.93013L11.1955 8.91618L11.2094 8.88827L11.2234 8.86036L11.2373 8.83246L11.2513 8.80455L11.2652 8.77664L11.2792 8.74873L11.3071 8.72083L11.321 8.70687L11.335 8.67897L11.3489 8.65106V8.62315L11.3629 8.59525L11.3908 8.56734V8.53943L11.4187 8.51153V8.49757V8.46967L11.4327 8.44176L11.4466 8.41385L11.4606 8.38594L11.4745 8.35804L11.4885 8.33013V8.30222L11.5164 8.28827L11.5303 8.26036V8.23246V8.20455V8.17664L11.5443 8.14874L11.5582 8.12083V8.09292V8.07897L11.5722 8.05106L11.5862 8.02315L11.6001 7.99525V7.96734L11.6141 7.93943L11.628 7.91153V7.88362V7.86967L11.642 7.84176L11.6559 7.81385L11.6699 7.78594V7.75804V7.73013V7.70222L11.6978 7.67432V7.66036L11.7117 7.63246L11.7257 7.60455L11.7396 7.57664V7.54874L11.7536 7.52083L11.7675 7.49292V7.46501V7.45106V7.42315L11.7815 7.39525L11.7955 7.36734L11.8094 7.33943V7.31153V7.28362V7.25571V7.24176L11.8234 7.21385L11.8373 7.18594V7.15804V7.13013V7.10222V7.07432L11.8652 7.04641L11.8792 7.03246V7.00455L11.8931 6.97664L11.9071 6.94874V6.92083V6.89292V6.86501V6.83711L11.8931 6.82315V6.72548L11.8792 6.71153V6.69757L11.8652 6.68362V6.66967H11.8513V6.6278H11.8373V6.5999L11.8234 6.58594L11.8094 6.57199V6.55804L11.7955 6.54408L11.7815 6.53013L11.7675 6.51618V6.50222H11.7536V6.48827L11.7396 6.47432V6.46036H11.7257L11.7117 6.44641L11.6978 6.43246L11.6838 6.4185H11.6699L11.6559 6.40455L11.628 6.3906H11.6141L11.6001 6.37664L11.5862 6.36269H11.5582L11.5443 6.34873L11.5164 6.33478H11.5024L11.4745 6.32083L11.4606 6.30687H11.4466L11.4327 6.29292L11.4048 6.27897H11.3908L11.3768 6.26501H11.3489H11.321L11.3071 6.25106H11.2792H11.2652L11.2513 6.23711H11.2234H11.1955H11.1815L11.1675 6.22315H11.1396H11.1117L11.0978 6.2092H11.0699H11.042L11.0141 6.19525H11.0001L10.9861 6.18129H10.9582L10.9443 6.16734H10.9164H10.7629H10.735H10.6094H10.5675H10.5536L10.5257 6.18129H10.5117H10.4141H10.4001L10.3722 6.19525H10.3582L10.3443 6.2092H10.3164L10.3024 6.22315H10.2745L10.2466 6.23711H10.2327H10.2048H10.1908L10.1629 6.25106H10.121L10.0931 6.26501H10.0513L10.0234 6.27897H10.0094L9.99545 6.29292H9.9815L9.95359 6.30687L9.92568 6.32083H9.89778L9.86987 6.33478H9.84196L9.81406 6.34873H9.8001L9.7722 6.36269H9.75824L9.73034 6.37664H9.70243L9.67452 6.3906L9.64662 6.40455L9.63266 6.4185H9.60476L9.57685 6.43246H9.56289L9.53499 6.44641H9.50708L9.49313 6.46036L9.46522 6.47432H9.43731L9.42336 6.48827L9.39545 6.50222H9.3815L9.35359 6.51618H9.33964L9.31173 6.53013H9.29778L9.26987 6.54408H9.24196L9.22801 6.55804L9.2001 6.57199H9.1722L9.15824 6.58594L9.13034 6.5999H9.11638L9.08848 6.61385H9.07452L9.06057 6.6278H9.03266H9.01871L8.9908 6.64176H8.97685L8.94894 6.65571H8.93499L8.90708 6.66967H8.89313L8.86522 6.68362H8.83731L8.82336 6.69757L8.79545 6.71153L8.7815 6.72548H8.75359L8.72569 6.73943H8.71173L8.68382 6.75339H8.65592L8.62801 6.76734L8.6001 6.78129H8.58615L8.5722 6.79525H8.55824L8.53034 6.8092L8.51638 6.82315H8.48848L8.46057 6.83711L8.43266 6.85106H8.41871L8.3908 6.86501H8.37685L8.34894 6.87897H8.33499L8.30708 6.89292H8.29313L8.26522 6.90687H8.25127L8.23731 6.92083H8.22336L8.20941 6.93478L8.19545 6.94874H8.1815L8.15359 6.96269H8.13964L8.11173 6.97664H8.09778L8.06987 6.9906H8.05592L8.02801 7.00455H8.0001L7.9722 7.0185H7.95824L7.93034 7.03246H7.91638L7.88848 7.04641H7.87452L7.84662 7.06036H7.81871L7.7908 7.07432H7.76289L7.73499 7.08827H7.72103L7.70708 7.10222H7.69313L7.66522 7.11618H7.63731L7.60941 7.13013H7.5815L7.55359 7.14408H7.53964L7.49778 7.15804H7.48382L7.45592 7.17199H7.42801L7.4001 7.18594H7.38615L7.3722 7.1999H7.34429H7.33034L7.30243 7.21385H7.27452L7.24662 7.2278H7.21871L7.1908 7.24176H7.17685L7.14894 7.25571H7.10708L7.07917 7.26967H7.03731L7.00941 7.28362H6.96755L6.93964 7.29757H6.89778L6.86987 7.31153H6.85592L6.84196 7.32548H6.82801L6.8001 7.33943H6.7722H6.75824L6.73034 7.35339H6.68848L6.66057 7.36734H6.61871L6.5908 7.38129H6.57685L6.56289 7.39525H6.54894L6.53499 7.4092L6.50708 7.42315H6.49313L6.47917 7.43711H6.45127H6.43731L6.40941 7.45106H6.39545L6.36755 7.46501L6.35359 7.47897H6.33964L6.32569 7.49292L6.29778 7.50687H6.28382L6.25592 7.52083H6.22801L6.2001 7.53478H6.1722L6.15824 7.54874L6.13034 7.56269H6.11638L6.08848 7.57664H6.04662L6.01871 7.5906H5.9908L5.96289 7.60455H5.94894L5.92103 7.6185H5.90708L5.87917 7.63246H5.83731L5.80941 7.64641H5.7815L5.76755 7.66036L5.73964 7.67432H5.72569L5.69778 7.68827L5.68383 7.71618H5.65592H5.64196L5.61406 7.73013H5.58615L5.5722 7.74408L5.54429 7.75804H5.51638L5.48848 7.77199H5.47452L5.44662 7.78594H5.41871L5.3908 7.7999H5.37685L5.34894 7.81385H5.30708L5.27917 7.8278H5.26522L5.23731 7.84176L5.22336 7.85571H5.19545H5.1815L5.15359 7.86967H5.11173L5.08383 7.88362H5.06987L5.02801 7.89757H5.01406L4.98615 7.91153H4.9722L4.94429 7.92548L4.93034 7.93943H4.90243H4.88848L4.86057 7.95339H4.81871L4.7908 7.96734H4.77685L4.74894 7.98129H4.73499H4.70708H4.69313L4.66522 7.99525H4.65127L4.62336 8.0092H4.60941L4.5815 8.02315H4.55359L4.53964 8.03711L4.51173 8.05106H4.49778H4.45592H4.44196L4.41406 8.06501H4.38615L4.35824 8.07897H4.31638L4.28848 8.09292H4.27452H4.24661H4.23266L4.20475 8.10687H4.16289L4.13499 8.12083H4.09313L4.06522 8.13478H4.02336L3.99545 8.14874H3.9815L3.95359 8.16269L3.93964 8.17664H3.92568L3.89778 8.1906L3.88382 8.20455H3.85592L3.84196 8.2185L3.81406 8.23246H3.8001L3.7722 8.24641H3.75824L3.74429 8.26036H3.73034L3.70243 8.27432L3.66057 8.28827H3.64662L3.61871 8.30222H3.60475L3.57685 8.31618L3.56289 8.33013L3.53499 8.34408L3.50708 8.35804L3.49313 8.37199H3.45127H3.43731L3.40941 8.38594H3.39545L3.3815 8.3999H3.35359L3.33964 8.41385L3.31173 8.4278L3.29778 8.44176H3.28382L3.25592 8.45571H3.22801L3.2001 8.46967H3.15824L3.13034 8.48362H3.10243L3.08848 8.49757L3.06057 8.51153H3.03266L3.00475 8.52548H2.97685L2.94894 8.53943H2.92103L2.89313 8.55339H2.85127L2.82336 8.56734H2.7815L2.75359 8.58129H2.73964L2.72568 8.59525H2.69778L2.68382 8.6092L2.65592 8.62315H2.64196H2.61406H2.6001L2.5722 8.63711H2.55824L2.53034 8.65106H2.50243L2.47452 8.66501L2.44661 8.67897H2.43266L2.41871 8.69292H2.40475L2.37685 8.70687L2.34894 8.72083H2.33499L2.30708 8.73478H2.29313L2.27917 8.74873H2.25127H2.23731L2.20941 8.76269H2.1815L2.16755 8.77664L2.13964 8.7906H2.11173L2.08382 8.80455H2.06987L2.04196 8.8185H2.02801L2.0001 8.83246H1.9722L1.95824 8.84641L1.93034 8.86036H1.91638L1.88848 8.87432H1.84661L1.81871 8.88827H1.80475H1.77685H1.76289L1.73499 8.90222H1.72103H1.69313H1.67917L1.65127 8.91618H1.62336L1.59545 8.93013H1.56755L1.53964 8.94408H1.52568H1.49778H1.48382L1.45592 8.95804H1.44196H1.41406H1.4001L1.3722 8.97199H1.35824L1.34429 8.98594H1.33034L1.31638 8.9999L1.28848 9.01385H1.27452L1.24662 9.0278H1.20475L1.17685 9.04176H1.16289L1.13499 9.05571L1.10708 9.06966H1.07917L1.06522 9.08362L1.03731 9.09757H1.02336L1.00941 9.11153H0.981499L0.967545 9.12548L0.939638 9.13943H0.911731L0.897778 9.15339L0.869871 9.16734H0.841964L0.814057 9.18129H0.800103L0.772196 9.19525H0.758243L0.730336 9.2092L0.702429 9.19525L0.674522 9.16734L0.646615 9.13943V9.12548V9.09757L0.576848 9.08362L0.562894 9.05571L0.548941 9.04176V7.67432L0.562894 7.66036L0.576848 7.64641L0.618708 7.63246H0.674522V7.6185V7.5906V7.56269V7.53478V7.52083V7.49292V7.46501V7.43711V7.4092V7.38129V7.35339V7.32548V7.31153V7.28362V7.25571V7.2278V7.1999V7.17199V7.14408V7.11618V7.10222V7.07432V7.04641V7.0185V6.9906V6.96269V6.93478V6.90687V6.89292V6.86501V6.83711V6.8092V6.78129V6.75339V6.72548V6.69757V6.68362V6.65571V6.6278V6.5999V6.57199V6.54408V6.51618V6.48827V6.47432V6.44641V6.4185V6.3906V6.36269V6.33478V6.30687V6.27897V6.26501V6.23711V6.2092L0.660568 6.16734L0.646615 6.12548V6.08362V6.04176V5.9999V5.95804V5.91618V5.88827H0.618708L0.562894 5.87432L0.534987 5.84641L0.50708 5.8185V5.7906V5.77664V5.74873V5.72083V5.69292V5.66501V5.63711V5.6092V5.58129V5.56734V5.53943V5.51153V5.48362V5.45571V5.4278V5.3999V5.37199V5.35804V5.33013V5.30222V5.27432V5.24641V5.2185V5.1906V5.16269V5.14873V5.12083V5.09292V5.06501V5.03711V5.0092V4.98129V4.95339V4.93943V4.91153V4.88362V4.85571V4.8278L0.521034 4.7999L0.534987 4.77199L0.562894 4.74408L0.576848 4.73013V4.70222L0.590801 4.67432L0.604754 4.64641L0.646615 4.6185L0.688475 4.5906L0.716382 4.57664L0.744289 4.56269L0.772196 4.53478L0.814057 4.50687L0.841964 4.49292L0.855917 4.47897H0.897778V4.46501L0.939638 4.47897L0.953592 4.49292H0.995452L1.05127 4.52083L1.06522 4.53478H1.59545L1.60941 4.54873L1.62336 4.53478H3.64662H3.71638H3.92568L3.96755 4.54873L3.9815 4.56269L5.08383 4.54873V4.53478L5.11173 4.52083V4.50687L5.16755 4.49292L5.22336 4.47897L5.26522 4.46501L5.30708 4.43711L5.33499 4.4092L5.36289 4.38129L5.41871 4.35339L5.43266 4.32548L5.46057 4.31153V4.29757L5.51638 4.28362H5.5722V4.26967H5.61406L5.65592 4.28362L5.66987 4.31153L5.68383 4.33943L5.66987 4.36734L5.65592 4.39525L5.58615 4.42315V4.43711L5.62801 4.45106L5.65592 4.46501V4.45106V4.43711L5.66987 4.42315L5.69778 4.4092L5.73964 4.39525H5.76755L5.80941 4.38129H5.89313V4.36734H6.04662L6.08848 4.35339H6.22801L6.25592 4.36734H6.39545L6.43731 4.35339H7.38615L7.41406 4.36734H7.51173L7.55359 4.35339H8.5722L8.6001 4.36734H8.94894L8.9908 4.35339H9.64662L9.67452 4.33943L9.71638 4.32548L10.1071 4.31153L10.135 4.29757H10.1768V4.28362H10.3862L10.4001 4.25571L10.442 4.2278L10.4838 4.1999L10.5257 4.17199L10.5536 4.14408L10.5815 4.11618L10.6094 4.10222L10.6652 4.07432L10.6792 4.04641L10.721 4.0185L10.7629 3.9906L10.7908 3.96269V3.93478L10.8187 3.90687L10.8327 3.89292L10.8885 3.86501L10.9303 3.83711L10.9582 3.82315L10.9722 3.8092L11.0141 3.79525L11.2513 3.78129L11.2931 3.75339L11.321 3.72548L11.3489 3.69757L11.3768 3.68362L11.3908 3.65571L11.4187 3.6278L11.4466 3.5999L11.4745 3.57199L11.5024 3.54408L11.5303 3.53013L11.5582 3.51618L11.5722 3.48827L11.5862 3.46036L11.628 3.43246L11.6699 3.40455L11.6978 3.37664L11.7257 3.34873L11.7396 3.33478L11.7536 3.30687L11.7675 3.27897L11.7955 3.26501L11.8094 3.25106L11.8513 3.23711L11.8652 3.2092L11.8931 3.18129L11.921 3.15339L11.9489 3.12548L11.9768 3.09757L12.0048 3.06967L12.0187 3.05571L12.0466 3.0278L12.0745 2.9999L12.1024 2.97199L12.1303 2.94408L12.1582 2.91618L12.1862 2.88827L12.2141 2.86036L12.228 2.84641L12.2838 2.8185L12.3396 2.80455V2.7906H12.3536L12.3675 2.77664L12.3955 2.76269H12.4373V2.74873H17.8792V2.73478L17.8931 2.70687L17.9071 2.67897L17.935 2.65106L17.9489 2.63711L17.9629 2.6092L17.9768 2.58129L18.0048 2.55339L18.0187 2.53943L18.0466 2.52548H18.0745V2.51153L18.0885 2.49757L18.1164 2.48362L18.1582 2.46967H18.2978V2.45571V2.4278L18.3257 2.3999L18.3675 2.37199L18.3955 2.35804L18.4234 2.33013L18.4373 2.31618V2.30222H18.4652L18.4792 2.27432L18.5071 2.26036L18.535 2.23246H18.5629L18.5768 2.2185L18.6048 2.1906L18.6327 2.16269L18.6466 2.14873V2.12083L18.6745 2.09292L18.7024 2.06501L18.7303 2.03711L18.7443 2.0092V1.98129V1.95339V1.93943L18.7861 1.92548V1.91153L18.8001 1.92548V1.89757H18.828L18.8559 1.88362L18.8838 1.91153H18.9396H18.9815L18.9955 1.88362H19.0373H19.135L19.1768 1.89757L19.2048 1.92548L19.2327 1.95339L19.2606 1.98129L19.2745 2.0092L19.3024 2.02315L19.3303 2.05106L19.3582 2.07897L19.3861 2.10687L19.4141 2.13478L19.442 2.16269L19.4699 2.1906L19.4838 2.20455L19.5257 2.2185L19.5675 2.24641L19.5815 2.27432L19.5955 2.28827L19.6094 2.30222L19.6513 2.33013V2.35804L19.6931 2.37199L19.721 2.3999L19.735 2.4278L19.7489 2.45571L19.7629 2.46967H20.2513V2.45571V2.4278V2.3999L20.2792 2.38594V2.37199L20.335 2.35804L20.3908 2.34408L20.4466 2.33013L20.4606 2.30222L20.5164 2.28827L20.5303 2.26036L20.5582 2.24641V2.23246L20.6141 2.2185L20.6699 2.1906L20.6978 2.16269L20.7257 2.14873H20.7396L20.7955 2.12083L20.8094 2.10687V2.09292L20.8652 2.07897L20.8792 2.05106L20.9071 2.03711V2.02315H20.9489L20.9908 2.03711L21.0048 2.06501L21.0187 2.09292V2.12083V2.14873V2.16269V2.1906V2.2185L21.0327 2.24641L21.0466 2.27432L21.0606 2.30222L21.0745 2.33013V2.35804L21.0885 2.37199L21.1164 2.3999L21.1303 2.4278L21.1443 2.45571L21.1582 2.46967H21.7722L21.7861 2.45571H21.828V2.44176H21.8978L21.9536 2.46967L21.9815 2.49757L21.9955 2.51153V2.53943V2.55339L22.0234 2.56734L22.0513 2.58129L22.0652 2.6092V2.63711L22.0792 2.65106L22.1071 2.67897L22.135 2.70687L22.1489 2.73478L22.1629 2.76269H22.2048V2.74873H27.4373L27.4652 2.72083L27.4931 2.70687L27.521 2.67897L27.535 2.65106L27.5489 2.62315L27.5629 2.59525L27.5768 2.56734V2.53943L27.6048 2.51153L27.6187 2.49757L27.6327 2.46967L27.6466 2.44176V2.41385V2.38594V2.35804V2.33013L27.6327 2.30222L27.6187 2.28827V2.26036V2.23246V2.20455V2.17664V2.14873V2.12083V2.09292V2.07897V2.05106V2.02315V1.99525V1.96734V1.93943V1.91153V1.88362V1.86967V1.84176V1.81385V1.78594L27.6466 1.75804L27.6885 1.74408ZM28.1768 1.86967L28.1908 1.88362V1.86967L28.2187 1.85571H28.2048H28.1629L28.1768 1.86967ZM27.3396 4.68827H27.3257L27.2699 4.71618H27.3536L27.3675 4.70222L27.3396 4.68827ZM19.0931 2.03711V2.05106L19.121 2.06501V2.05106L19.0931 2.03711ZM14.5024 6.37664L14.4885 6.40455L14.4606 6.43246L14.4745 6.46036V6.48827V6.51618V6.54408V6.57199V6.5999V6.61385V6.64176V6.66967V6.69757V6.72548L14.4606 6.75339L14.4466 6.78129L14.4327 6.8092L14.4187 6.82315L14.4048 6.85106V6.94874V6.97664V7.00455V7.0185V7.04641V7.07432V7.10222V7.13013V7.15804V7.18594V7.1999L14.4187 7.2278V7.25571V7.28362L14.4327 7.31153L14.4466 7.33943L14.4885 7.36734V7.39525L14.5024 7.42315V7.43711H15.8978L15.9396 7.45106L15.9536 7.46501H16.2187H16.2885H16.3862L16.4141 7.45106L16.4559 7.43711L16.4978 7.42315L16.5257 7.4092L16.5675 7.39525L16.6234 7.38129L16.6652 7.35339L16.6931 7.32548L16.7489 7.29757H16.7768V7.26967V7.24176V7.21385V7.18594V7.15804V7.14408V7.11618V7.08827V7.06036V7.03246V7.00455V6.97664V6.94874V6.93478V6.90687V6.87897V6.85106V6.82315V6.79525V6.76734V6.73943V6.72548V6.69757V6.66967V6.64176V6.61385V6.58594V6.55804V6.53013V6.51618V6.48827V6.46036V6.43246V6.40455V6.30687V6.27897V6.26501H15.2699L15.2559 6.27897L15.242 6.30687V6.33478V6.36269V6.3906V6.4185V6.44641V6.46036L15.2559 6.48827L15.2699 6.51618V6.54408V6.57199V6.5999L15.2978 6.6278V6.65571L15.3117 6.66967L15.3257 6.69757L15.3536 6.72548L15.3675 6.75339L15.3815 6.78129L15.3955 6.8092L15.4373 6.83711V6.86501L15.4513 6.87897L15.4652 6.90687L15.4931 6.93478L15.521 6.96269L15.535 6.9906L15.5629 7.00455L15.5908 7.0185L15.6327 7.03246L15.6466 7.06036L15.6606 7.08827V7.11618V7.14408L15.6466 7.15804L15.6327 7.18594H15.6187V7.21385L15.6048 7.2278L15.5908 7.25571H15.5768L15.5489 7.26967H15.4513L15.4094 7.25571L15.3955 7.2278H15.3815L15.3257 7.21385L15.2699 7.18594L15.2559 7.15804H15.242L15.2001 7.14408L15.1582 7.11618L15.1303 7.08827L15.0885 7.07432L15.0606 7.04641L15.0327 7.0185L15.0048 6.9906L14.9768 6.96269L14.9489 6.93478L14.921 6.90687L14.9071 6.87897L14.8931 6.86501L14.8792 6.83711L14.8513 6.8092V6.78129V6.75339L14.8373 6.72548V6.69757L14.8234 6.66967V6.65571V6.6278L14.8094 6.5999L14.7955 6.57199L14.7815 6.54408V6.51618V6.48827V6.46036V6.44641L14.7675 6.4185L14.7536 6.3906V6.36269V6.33478V6.30687V6.27897V6.26501H14.6978L14.6699 6.27897L14.6141 6.30687L14.5582 6.32083L14.5303 6.34873L14.5024 6.37664ZM15.3955 7.06036H15.3815L15.3955 7.07432V7.06036ZM8.20941 5.9999H8.22336L8.29313 5.98594L8.34894 5.97199L8.37685 5.95804L8.43266 5.94408L8.55824 5.91618L8.65592 5.87432L8.71173 5.84641L8.76755 5.83246L8.86522 5.80455L8.89313 5.7906L8.90708 5.76269L8.96289 5.72083L9.01871 5.69292H1.49778L1.48382 5.72083V5.73478H1.46987H1.45592L1.42801 5.74873L1.4001 5.77664V5.7906L1.38615 5.80455V5.8185L1.3722 5.83246V6.05571L1.38615 6.06966V7.08827L1.3722 7.10222V7.29757L1.35824 7.31153V7.77199L1.3722 7.78594V7.81385H1.38615V7.85571L1.4001 7.86967V7.89757H1.41406V7.91153L1.42801 7.92548V7.93943H1.44196L1.46987 7.95339L1.48382 7.96734H1.51173H1.53964V7.98129L1.52568 8.02315V8.05106H1.53964L1.55359 8.07897L1.56755 8.09292V8.10687L1.55359 8.13478L1.53964 8.16269L1.49778 8.17664H1.45592L1.44196 8.1906V8.2185L1.48382 8.20455L1.51173 8.1906L1.56755 8.17664L1.65127 8.16269L1.70708 8.14874L1.73499 8.13478L1.7908 8.12083L1.87452 8.09292L1.95824 8.05106L2.01406 8.02315L2.06987 8.0092L2.15359 7.99525L2.20941 7.98129L2.23731 7.96734L2.29313 7.95339L2.37685 7.92548L2.48848 7.88362L2.5722 7.85571L2.62801 7.84176L2.71173 7.81385L2.79545 7.78594L2.87917 7.75804L2.96289 7.73013L3.04661 7.70222L3.13034 7.67432L3.21406 7.64641L3.29778 7.6185L3.3815 7.5906L3.46522 7.56269L3.54894 7.54874L3.66057 7.53478L3.68848 7.52083L3.74429 7.50687L3.82801 7.49292L3.91173 7.46501L3.99545 7.42315L4.07917 7.39525L4.16289 7.36734L4.24661 7.32548L4.30243 7.29757L4.3722 7.26967L4.44196 7.2278L4.49778 7.1999L4.52568 7.18594L4.5815 7.17199L4.66522 7.15804L4.86057 7.13013L4.94429 7.08827L5.02801 7.06036L5.11173 7.03246L5.19545 7.00455L5.27917 6.9906L5.33499 6.97664L5.36289 6.96269L5.41871 6.94874L5.50243 6.92083L5.58615 6.89292L5.66987 6.86501L5.75359 6.83711L5.83731 6.82315L5.92103 6.79525L6.00476 6.75339L6.08848 6.72548L6.1722 6.71153L6.29778 6.68362L6.39545 6.64176L6.47917 6.61385L6.56289 6.58594L6.64662 6.55804L6.73034 6.53013L6.81406 6.50222L6.89778 6.47432L6.95359 6.43246L7.00941 6.3906L7.03731 6.37664L7.06522 6.36269L7.09313 6.34873L7.14894 6.33478H7.17685L7.23266 6.32083L7.34429 6.30687L7.3722 6.29292L7.42801 6.27897L7.51173 6.25106L7.62336 6.2092L7.73499 6.16734L7.7908 6.13943H7.81871V6.12548H7.84662L8.12569 6.0278L8.20941 5.9999ZM11.0699 6.01385L11.0559 5.9999L10.9303 6.01385L10.8606 6.05571L10.7768 6.08362H10.8187H11.0141H11.0559H11.0838L11.0978 6.09757H11.1396L11.0838 6.04176L11.0699 6.01385Z" fill="white"/>
</svg>
