<svg width="19" height="12" viewBox="0 0 19 12" fill="none" xmlns="http://www.w3.org/2000/svg">
<path fill-rule="evenodd" clip-rule="evenodd" d="M3.9699 0.558105V0.627873L4.10943 0.641826V0.795315L13.9885 0.767408V0.683687L14.0722 0.627873L14.3652 0.641826L14.5327 0.739501V0.795315H14.6025V0.948803L14.728 1.04648H14.9234L14.9513 1.07438L15.0071 1.1302L15.0211 1.19997V1.22787H18.1187L18.1466 1.25578L18.1745 1.3395L18.2443 1.67438L18.2025 2.05113L18.1466 2.19066L14.9932 2.20462L14.9373 2.3302H14.6583V2.87438L14.6025 2.98601L14.5466 3.04183L14.5187 3.05578H12.4257L12.3559 3.20927H12.5513L12.9699 3.3209L13.2908 3.50229L13.3885 3.58601L13.3327 3.65578H12.1466L14.128 10.5069L14.0164 10.5628L14.0443 10.5767L14.128 10.6046L14.2397 10.6883V10.8558L14.1978 10.8976L14.0164 10.9814L13.8211 11.0651L13.7513 11.079H13.5559L13.528 11.1628H13.0536V11.3162H12.0071V11.1767L9.88618 3.68369L9.76059 3.59997L9.56525 3.96276L9.55129 4.28369H9.59315L9.60711 4.3395L9.66292 4.35345V5.24648L9.60711 5.26043V5.31625L9.07687 5.49764L8.51873 5.66508L7.48618 5.79066L6.74664 5.62322L6.52338 5.55345L6.45362 5.51159L6.30013 5.63718L6.06292 5.70694L6.00711 5.80462L5.50478 7.00462L4.79315 8.77671L4.76524 8.90229V9.09764L4.83501 9.57206L5.10013 9.58601L5.1978 9.61392L5.28152 9.66973L5.30943 9.7116L5.29548 9.7395L5.14199 9.87904L4.76524 10.1023L4.24897 10.2279L3.9699 10.2697L1.54199 10.2976L1.45827 10.2L1.43036 9.9209L1.23501 9.87904L1.12338 9.85113L1.08152 9.82322L1.06757 9.79532L1.05362 9.62787L1.01176 9.50229L0.997803 9.20927L1.03966 8.83252L2.28152 5.49764L2.47687 5.21857L2.71408 4.82787L2.7699 4.60462L2.75594 4.35345L2.61641 4.03252L2.40711 3.7395L2.08617 3.47438L1.89083 3.3209V3.08369L2.05827 3.02787L2.43501 2.73485L2.67222 2.28834L2.70013 2.1488V2.09299L2.67222 2.05113L2.57455 1.95345L2.43501 1.89764L2.36524 1.86973L2.25362 1.88369L2.04431 1.81392L1.91873 1.66043C1.88152 1.57671 1.88152 1.48369 1.91873 1.38136C1.95594 1.26973 2.02571 1.19997 2.12804 1.17206H2.33734C2.36524 1.17206 2.42106 1.21857 2.50478 1.31159L2.63036 1.45113V1.60462L2.70013 1.68834L2.71408 1.5209L2.74199 1.38136L2.86757 1.1302L3.10478 0.948803L3.25827 0.892989V0.795315H3.70478V0.558105H3.9699ZM7.52804 3.71159L7.27687 3.78136C7.08152 3.86508 6.91873 3.98601 6.7885 4.14415C6.65827 4.30229 6.57455 4.47904 6.53734 4.67438L6.49548 4.92555L6.50943 4.98136L6.5792 5.1209C6.66292 5.26973 6.80245 5.39531 6.9978 5.49764L7.50013 5.62322L8.11408 5.60927C8.50478 5.51625 8.83501 5.37206 9.10478 5.17671L9.27222 4.98136L9.34199 4.81392L9.35594 4.45113L9.32804 4.01857L9.16059 3.72555L8.90943 3.47438L8.67222 3.41857L8.46292 3.46043L8.32338 3.57206L8.28152 3.64183L8.35129 3.65578L8.33734 3.79531L8.30943 3.83718L8.23966 3.96276C8.17455 4.10229 8.14199 4.23252 8.14199 4.35345C8.14199 4.48369 8.15594 4.59531 8.18385 4.68834L8.30943 4.9395L8.56059 5.1488L8.75594 5.23252V5.30229L8.46292 5.26043C8.24897 5.19531 8.08152 5.07904 7.96059 4.91159C7.89548 4.80927 7.84897 4.65578 7.82106 4.45113L7.79315 4.24183V4.15811L7.76524 4.01857L7.70943 3.86508L7.5978 3.76741L7.52804 3.71159Z" fill="white"/>
</svg>
