<svg width="18" height="12" viewBox="0 0 18 12" fill="none" xmlns="http://www.w3.org/2000/svg">
<path fill-rule="evenodd" clip-rule="evenodd" d="M16.7745 1.85573H16.8303L16.9141 1.86968L16.9001 2.20457L16.9559 2.66503L16.8722 2.95805L16.7885 3.22317L16.7047 3.53015L16.5373 4.06038L16.4396 4.3255L16.3699 4.40922L16.328 4.43712H9.89545L9.7001 4.47898L9.26754 4.78596C9.12801 4.9255 8.99777 5.13015 8.87684 5.39991C8.73731 5.66038 8.66754 6.02317 8.66754 6.48829V6.64177H8.63963L8.36056 6.71154L7.74661 6.79526L6.97917 6.83712L6.25359 6.71154L6.00242 6.89294C5.8908 7.01387 5.83033 7.1441 5.82103 7.28364L5.73731 7.79991L5.56987 8.65108L5.43033 9.47433L5.33266 9.89294L5.55591 10.5208H5.51405L4.17452 10.6743L2.90475 10.7441L1.57917 10.6743L1.48149 10.6604L1.31405 10.5208C1.25824 10.4278 1.23033 10.2604 1.23033 10.0185L1.27219 9.44643C1.3094 9.22317 1.37917 8.96271 1.48149 8.66503L1.84428 7.59061L2.44428 6.18131V6.1255L2.45824 6.02782L2.47219 5.84643C2.47219 5.66038 2.43033 5.46968 2.34661 5.27433C2.27219 5.08829 2.08149 4.96736 1.77452 4.91154L1.53731 4.89759L1.04894 4.86968L0.560564 4.85573H0.323355L0.281494 4.81387V4.77201C0.281494 4.7255 0.295448 4.69294 0.323355 4.67433C0.351262 4.57201 0.448936 4.46968 0.616378 4.36736C0.774517 4.26503 1.06289 4.16271 1.48149 4.06038L1.57917 3.89294L1.66289 3.53015L1.64894 3.39061L1.57917 3.20922L1.48149 3.09759L1.27219 2.69294V2.42782L1.53731 2.35805L1.60708 2.39991L1.6908 2.45573H2.16522L2.22103 2.3441L2.27684 2.24643L2.69545 1.86968L2.77917 1.84178L2.87684 1.78596V1.57666L2.8908 1.39526H3.40708L3.76987 1.75805L4.38382 1.7441L4.59312 1.63247L7.1187 1.61852L7.18847 1.71619L7.28615 1.78596L10.5652 1.84178L10.6071 1.86968L10.6629 1.89759H10.8443L10.8582 1.85573L10.8722 1.81387L10.928 1.75805L14.6117 1.78596L14.6257 1.85573L14.6396 1.9255V1.96736H14.835L14.8629 1.86968L14.9187 1.81387H15.6443L15.7699 1.7441L15.9652 1.61852C16.0303 1.57201 16.1001 1.53945 16.1745 1.52085L16.328 1.47898L16.4396 1.59061L16.4815 1.75805L16.635 1.81387L16.7466 1.84178L16.7745 1.85573ZM7.92801 4.64643H6.83963C6.74661 4.64643 6.66754 4.67433 6.60242 4.73015C6.54661 4.79526 6.5187 4.87433 6.5187 4.96736V5.98596L6.60242 6.22317L6.83963 6.30689H7.92801C8.02103 6.30689 8.1001 6.27898 8.16521 6.22317L8.27684 5.98596V4.96736C8.27684 4.87433 8.23963 4.79526 8.16521 4.73015C8.1001 4.67433 8.02103 4.64643 7.92801 4.64643Z" fill="white"/>
</svg>
