<svg width="13" height="14" viewBox="0 0 13 14" fill="none" xmlns="http://www.w3.org/2000/svg">
<path fill-rule="evenodd" clip-rule="evenodd" d="M5.95894 3.51416V2.75433C5.65501 2.71633 5.50304 2.5707 5.50304 2.31742C5.50304 2.15279 5.56003 2.04514 5.674 1.99449L6.05392 1.9375H8.14347L9.9101 4.76789V10.7516L9.01729 11.1885L8.73235 11.1315C8.66903 11.0176 8.69436 10.9099 8.80833 10.8086C8.90964 10.72 9.06161 10.6186 9.26423 10.5047L9.53018 10.3717V5.03384L8.77034 4.59693V5.48974L8.31444 5.90765V6.80046H8.12448V7.71226H8.31444V8.66206H8.12448V9.57386H8.31444V10.5237H8.12448V11.4355H8.31444V12.3093L8.77034 13.0881V13.734C8.77034 13.9113 8.68169 13.9999 8.5044 13.9999H5.12312C4.94583 13.9999 4.85718 13.9113 4.85718 13.734V13.0881L5.29408 12.3093V11.4355H5.50304V10.5237H5.29408V9.57386H5.50304V8.66206H5.29408V7.71226H5.50304V6.80046H5.29408V5.90765L4.85718 5.48974V4.274C4.85718 4.0967 4.94583 4.00806 5.12312 4.00806H5.38906L5.95894 3.51416Z" fill="white"/>
<path fill-rule="evenodd" clip-rule="evenodd" d="M3.52747 0V1.17775L4.53426 0.588874L4.95217 1.31072L3.90739 1.91859L4.95217 2.52646L4.53426 3.2483L3.52747 2.67843V3.85617H2.67265V2.64043L1.60888 3.2483L1.19097 2.52646L2.25474 1.91859L1.19097 1.31072L1.60888 0.588874L2.67265 1.21574V0H3.52747ZM12.4176 2.58345L11.6577 3.03935L12.4366 3.47626L12.1136 4.02714L11.3538 3.59023V4.46404H10.7269V3.57124L9.9291 4.02714L9.62516 3.47626L10.385 3.03935L9.62516 2.58345L9.9481 2.03256L10.7269 2.48847V1.57666H11.3538V2.46947L12.1136 2.03256L12.4176 2.58345ZM3.43249 7.73134L3.10956 8.28223L2.34972 7.84532V8.71913H1.72286V7.82632L0.925029 8.28223L0.621094 7.73134L1.39993 7.29444L0.621094 6.83853L0.944025 6.28765L1.72286 6.74356V5.83175H2.34972V6.72456L3.10956 6.28765L3.4135 6.83853L2.65366 7.29444L3.43249 7.73134Z" fill="white" fill-opacity="0.85098"/>
</svg>
