<svg width="25" height="12" viewBox="0 0 25 12" fill="none" xmlns="http://www.w3.org/2000/svg">
<path fill-rule="evenodd" clip-rule="evenodd" d="M24.1745 2.26035L24.2861 2.41383L24.328 2.59523L24.3978 2.91616V3.09756L24.3838 3.25104L24.3699 3.27895L24.3419 3.30686L24.328 3.50221L24.314 3.85104L24.3001 4.21383L24.2861 4.43709V4.53476H23.421L23.3792 4.63244L23.3373 4.64639L23.1699 4.66035L22.7792 4.6743H22.0396L21.5652 4.66035L21.1605 4.64639H20.7978L20.5885 4.6743C20.4582 4.6929 20.328 4.74872 20.1978 4.84174L19.821 5.17662C19.728 5.29755 19.6768 5.39058 19.6675 5.45569L19.6396 5.74872V5.91616C19.7047 6.01849 19.714 6.08825 19.6675 6.12546L19.5699 6.23709V6.27895L19.3605 6.36267L18.9978 6.46035L18.4954 6.59988L17.9931 6.62779L17.1001 6.51616C16.9047 6.48825 16.7605 6.48825 16.6675 6.51616C16.5559 6.54407 16.4675 6.58128 16.4024 6.62779L16.2768 6.78128L15.7187 8.70686L15.7047 8.73476V8.79058L15.7187 9.02779L15.7885 9.50221V9.72546C15.7885 9.95802 15.7419 10.1394 15.6489 10.2696L15.5094 10.3394L15.4257 10.3534H13.4722L13.4582 10.3255L13.3885 10.3115L13.3326 10.2976L13.235 10.2696C13.1233 10.2045 13.0675 10.065 13.0675 9.85104L13.0954 9.75337L13.1094 9.66965L12.5512 9.59988L12.3699 9.50221V9.44639L12.3419 9.39058V9.33476L12.328 9.265L12.3001 9.0836V8.94407C12.3001 8.75802 12.3233 8.56732 12.3699 8.37197L12.4536 8.065H12.4675V8.05104L12.6489 7.61848L13.0117 6.78128L13.3885 5.93011L13.5978 5.46965L13.6257 5.2743L13.5001 4.89756C13.4443 4.78593 13.3419 4.71616 13.1931 4.68825L12.8303 4.60453L12.5931 4.57662C12.528 4.53011 12.4954 4.46035 12.4954 4.36732V4.33942C12.4954 4.25569 12.5187 4.19058 12.5652 4.14407C12.621 4.09755 12.6861 4.0743 12.7605 4.0743C12.7885 4.03709 12.8164 4.01849 12.8443 4.01849L12.914 4.00453L13.1512 3.78128L13.2071 3.72546L13.3885 3.40453L13.4582 3.09756L13.4164 2.8743L13.3745 2.59523V2.55337C13.4024 2.46035 13.4443 2.40918 13.5001 2.39988L13.6954 2.37197L13.8768 2.42779L14.0303 2.45569L14.128 2.42779L14.2396 2.37197L14.3931 2.33011L14.5047 2.28825L14.6164 2.26035H14.6582V1.99523H14.7419L15.1466 2.03709L15.2164 2.12081L15.2443 2.20453L15.2582 2.34407H15.928L16.4861 2.33011H17.2675H17.6861L17.8536 2.34407H17.8815L17.9792 2.45569H23.3792V2.44174L23.4071 2.38593L23.4629 2.34407L23.5047 2.31616L23.5606 2.23244C23.635 2.16732 23.7373 2.14407 23.8675 2.16267L24.0768 2.19058L24.1326 2.21849L24.1745 2.26035ZM17.3652 4.84174L17.1978 4.85569L17.1699 4.86965H17.128L16.8768 4.99523C16.7838 5.05104 16.7233 5.12546 16.6954 5.21849L16.6536 5.45569C16.6536 5.59523 16.6722 5.6836 16.7094 5.72081V5.73476H16.7373L16.9466 5.94407L16.9885 5.95802C17.0815 6.02314 17.2396 6.0836 17.4629 6.13942L18.1885 6.16732C18.8303 6.0836 19.1699 5.92081 19.2071 5.67895L19.2489 5.4836L19.1512 5.14872C19.0861 5.02779 18.9652 4.92546 18.7885 4.84174H18.2443H17.7559H17.3652ZM11.9652 2.23244C12.0396 2.24174 12.0861 2.2836 12.1047 2.35802L12.1326 2.55337L12.2303 2.88825L12.2024 3.05569L12.1745 3.20918V3.265L12.1606 3.44639L12.1326 3.80918L12.1047 4.17197L12.0908 4.38128V4.47895H11.2536L11.2257 4.53476L11.1838 4.59058L11.1559 4.60453L10.9885 4.61849L10.5978 4.63244H9.85822L9.39776 4.61849L8.99311 4.60453H8.58846L8.40706 4.63244C8.25822 4.66035 8.11869 4.71616 7.98846 4.79988L7.62567 5.13476L7.47218 5.41383L7.44427 5.70686L7.47218 5.8743L7.48613 6.09756L7.38846 6.19523V6.22314L7.17915 6.30686L6.81636 6.41849L6.45357 6.51616L6.30009 6.55802L5.79776 6.58593L4.87683 6.46035C4.69078 6.43244 4.5466 6.43244 4.44427 6.46035L4.20706 6.58593L4.09543 6.73942L3.52334 8.665V8.74872V8.98593L3.5652 9.46035L3.60706 9.69755C3.60706 9.93941 3.5559 10.1115 3.45357 10.2138L3.31404 10.2976L3.24427 10.3115H1.27683L1.05357 10.2138L0.927992 10.0603L0.900085 9.80918V9.62779L0.39776 9.57197L0.369853 9.55802L0.188457 9.46035L0.174504 9.40453L0.146597 9.34872V9.23709L0.132643 9.04174L0.11869 8.97197L0.104736 8.88825L0.174504 8.33011L0.244271 8.00918V7.98128L0.39776 7.6743L0.43962 7.57662L0.816364 6.72546L1.19311 5.86035L1.40241 5.42779L1.43032 5.23244C1.43032 5.11151 1.39311 4.98593 1.31869 4.85569C1.26288 4.74407 1.1652 4.6743 1.02567 4.64639L0.634969 4.57662L0.411713 4.53476L0.39776 4.52081C0.341946 4.45569 0.314039 4.39058 0.314039 4.32546V4.31151L0.369853 4.11616L0.39776 4.08825C0.453573 4.04174 0.51869 4.01849 0.593108 4.01849L0.662876 3.99058L0.732643 3.97662L0.969853 3.75337L1.01171 3.6836L1.19311 3.36267L1.27683 3.06965L1.23497 2.84639L1.20706 2.56732V2.51151C1.22567 2.42779 1.25822 2.37662 1.30474 2.35802L1.50009 2.34407L1.69543 2.39988L1.86288 2.42779L2.05822 2.34407L2.19776 2.28825L2.32334 2.24639L2.44892 2.23244H2.46288V1.95337H2.56055L2.95125 1.99523C2.99776 2.00453 3.02102 2.02314 3.02102 2.05104L3.06288 2.30221H3.32799L3.7466 2.28825L4.30474 2.26035L5.08613 2.2743L5.49078 2.28825H5.64427L5.70008 2.30221L5.78381 2.42779H11.2117V2.39988L11.2675 2.30221L11.3094 2.26035L11.3792 2.19058C11.4443 2.11616 11.5419 2.08825 11.6722 2.10686L11.9094 2.16267L11.9373 2.17662L11.9652 2.23244ZM6.59311 4.78593H6.04892H5.56055L5.16985 4.79988H5.00241L4.93264 4.82779L4.68148 4.93942C4.58846 5.00453 4.52799 5.07895 4.50008 5.16267C4.47218 5.21849 4.45822 5.29756 4.45822 5.39988L4.51404 5.665L4.54195 5.6929L4.61171 5.76267L4.75125 5.90221L4.80706 5.91616C4.89078 5.97197 5.04427 6.02779 5.26753 6.0836L5.97915 6.11151C6.62101 6.00918 6.96985 5.85104 7.02567 5.63709L7.05357 5.42779C7.05357 5.32546 7.02101 5.21849 6.9559 5.10686C6.89078 4.98593 6.76985 4.87895 6.59311 4.78593Z" fill="white"/>
</svg>
