<svg width="28" height="12" viewBox="0 0 28 12" fill="none" xmlns="http://www.w3.org/2000/svg">
<path fill-rule="evenodd" clip-rule="evenodd" d="M27.4294 4.24179L27.5131 4.49295C27.5317 4.63249 27.5038 4.79063 27.4294 4.96737V5.00923H27.3875L27.1224 5.03714L26.5503 5.06505L25.9782 5.079L25.6154 5.00923L25.5596 4.98133L25.5178 4.96737H23.2433L23.034 5.03714C22.941 5.04644 22.8759 5.0697 22.8387 5.10691L22.6154 5.19063L22.3782 5.20458L22.2526 5.10691H22.1968L22.1829 5.17668L22.155 5.31621V5.33016L22.1131 5.53947L21.9875 5.80458L21.8201 6.04179L21.5271 6.13947H15.9457L15.7224 6.20923V6.58598L15.7085 6.96272C15.6992 7.08365 15.6526 7.20458 15.5689 7.32551C15.4666 7.39063 15.3271 7.42319 15.1503 7.42319L14.6759 7.39528L14.1457 7.33947L13.6992 7.2697L13.4619 7.19993L13.2108 7.36737C13.0992 7.45109 13.0433 7.59528 13.0433 7.79993V8.09295L12.9875 8.12086L12.834 8.30226L12.7224 8.53947L12.7364 8.69295L12.7503 8.77668L12.834 8.8883H12.7503L12.5968 9.08365C12.5038 9.20458 12.4573 9.37202 12.4573 9.58598V9.72551L12.5131 9.80923H12.3596L12.0526 9.72551L11.5503 9.62784L11.048 9.44644C10.9085 9.38133 10.8294 9.30226 10.8108 9.20923L10.755 9.16737C10.7922 8.66505 10.8573 8.17668 10.9503 7.70226C11.0619 7.22784 11.3131 6.81388 11.7038 6.4604L11.7457 6.32086L11.7596 6.16737C11.7596 6.08365 11.6852 5.99993 11.5364 5.91621L11.1317 5.84644C10.9271 5.84644 10.6899 5.89761 10.4201 5.99993C9.82474 6.21388 9.41543 6.65575 9.19218 7.32551L9.16427 7.33947C8.97822 7.4697 8.83869 7.53482 8.74567 7.53482V7.56272L8.75962 8.00923L8.80148 8.69295L8.82939 9.44644L8.8852 10.186V10.2557L8.73171 10.3674L8.31311 10.5906L7.62939 10.8278L6.70846 10.8837H6.6666L6.55497 8.80458L6.4852 7.33947L6.47125 6.58598L5.4945 6.75342L4.95032 6.89295L4.93636 6.96272L4.90846 7.0604C4.90846 7.23714 4.8666 7.32551 4.78288 7.32551L4.48985 7.39528C4.32241 7.41389 4.20148 7.44644 4.12706 7.49295H4.0852L4.00148 7.36737L3.90381 7.2697L3.8759 7.14412L3.49916 7.33947L2.84334 7.53482L2.04799 7.6604L1.18288 7.70226L1.14102 7.6604L1.0852 7.63249C0.871248 6.96272 0.722411 6.38598 0.63869 5.90226C0.573574 5.41854 0.541016 5.01389 0.541016 4.6883C0.541016 4.07435 0.615434 3.6697 0.764271 3.47435C0.903806 3.2697 1.00613 3.14877 1.07125 3.11156L1.21078 2.8883L1.48985 2.48365V2.41389H4.12706V2.48365L4.39218 2.8604L4.64334 3.11156L5.00613 2.94412L5.52241 2.52551H5.57822L6.91776 2.59528L8.15962 2.63714H9.10846L9.61078 2.58133L9.6945 2.34412L9.79218 1.99528L9.86195 1.67435L9.93171 1.479V1.43714L10.0015 1.36737C10.0294 1.32086 10.0945 1.2883 10.1968 1.2697L10.6015 1.18598L11.341 1.11621L17.8852 1.32551L20.034 1.38133L21.248 1.39528L21.7922 1.43714H21.9457H22.0852C22.1596 1.41854 22.2294 1.4697 22.2945 1.59063C22.4712 1.78598 22.5596 2.12086 22.5596 2.59528V3.09761L22.4899 3.69761L22.448 3.83714L22.4201 4.07435H22.5457L22.6433 4.0883L22.7829 4.10226L23.1596 4.18598L23.1736 4.21389L23.1875 4.2697V4.29761H25.1689L25.3085 4.2697L25.4619 4.21389L25.5736 4.18598L25.9085 4.13016L26.4387 4.11621H27.0108L27.3317 4.13016L27.4294 4.18598V4.24179ZM20.6899 2.30226H11.7178C11.4108 2.30226 11.2573 2.46505 11.2573 2.79063V3.23714C11.2573 3.55342 11.4108 3.71156 11.7178 3.71156H20.6899C20.8387 3.71156 20.9503 3.66505 21.0247 3.57202C21.1178 3.49761 21.1643 3.38598 21.1643 3.23714V2.79063C21.1643 2.64179 21.1178 2.52551 21.0247 2.44179C20.9503 2.34877 20.8387 2.30226 20.6899 2.30226Z" fill="white"/>
</svg>
