<svg width="14" height="12" viewBox="0 0 14 12" fill="none" xmlns="http://www.w3.org/2000/svg">
<path fill-rule="evenodd" clip-rule="evenodd" d="M13.9091 1.88364L13.9649 2.17666L13.9789 2.5255L13.9649 3.18131L13.937 3.61387L13.9091 3.66968L13.8254 3.73945L13.8114 3.90689V3.97666L13.7696 4.08829L13.6579 4.04643H13.5184H12.9882L12.8905 4.38131L12.7928 4.5348L12.7789 4.59061H9.63933L9.48584 4.64643L9.23468 4.77201L8.94165 4.9255L8.77421 5.02317L8.81607 5.41387V5.7348L8.77421 6.16736C8.737 6.39061 8.64398 6.5534 8.49514 6.65573C8.36491 6.75805 8.19747 6.82782 7.99282 6.86503L7.36491 6.89294L6.7091 6.86503L6.26258 6.83712L5.91375 6.85108H5.88584C5.57886 6.81387 5.38351 6.81387 5.29979 6.85108L5.1184 6.99061L5.06258 7.01852C4.98817 7.09294 4.95096 7.26968 4.95096 7.54875V7.66038L4.9091 8.03712L4.76956 8.37201L4.75561 8.45573L4.64398 8.86038L4.49049 9.46038L4.36491 10.0046L4.28119 10.2697L4.337 10.3255L4.42072 10.4232L4.46258 10.5488L4.43468 10.5906C4.42537 10.6743 4.37886 10.7394 4.29514 10.786L4.08584 10.8976H4.04398L3.62537 10.9115L2.78817 10.9534L1.29514 11.0232C1.1184 11.0232 0.932351 10.8371 0.737003 10.465H0.723049V10.2418C0.723049 9.9348 0.76491 9.56271 0.848631 9.1255L1.14165 7.84177L1.5184 6.61387L1.85328 5.65108V5.58131L1.88119 5.38596V5.31619L1.86724 5.28829L1.85328 5.24643H1.82537V5.21852L1.71375 5.09294L1.64398 5.06503L1.46258 5.00922C1.32305 4.96271 1.13235 4.86038 0.890491 4.70224C0.732351 4.60922 0.630026 4.50689 0.583514 4.39526C0.518398 4.26503 0.48584 4.1441 0.48584 4.03247L0.499793 3.79526L0.639328 3.30689L0.848631 2.39991C0.913747 2.14875 1.00677 1.97666 1.1277 1.88364L1.42072 1.66038V1.43712L1.47654 1.40922L2.28584 1.47898C2.5463 1.59991 2.69979 1.68364 2.74631 1.73015H9.45793L9.51375 1.75805L9.56956 1.81387H13.0998L13.1417 1.77201L13.337 1.46503V1.40922H13.3789L13.4486 1.39526L13.6021 1.40922C13.7137 1.42782 13.8161 1.58596 13.9091 1.88364ZM8.07654 4.91154H5.62072C5.49049 4.91154 5.42537 4.98131 5.42537 5.12084V5.99991C5.42537 6.13015 5.49049 6.19526 5.62072 6.19526H8.07654C8.19747 6.19526 8.25793 6.13015 8.25793 5.99991V5.12084C8.25793 4.98131 8.19747 4.91154 8.07654 4.91154Z" fill="white"/>
</svg>
