<svg width="13" height="14" viewBox="0 0 13 14" fill="none" xmlns="http://www.w3.org/2000/svg">
<path fill-rule="evenodd" clip-rule="evenodd" d="M9.31171 4.42762L12.3362 4.64588L10.1068 6.50111L12.4142 8.34076L9.42084 8.5902L10.1224 11.7706L8.87518 10.8196V6.42316L7.42529 4.10022H5.71037L5.39857 4.14699C5.30502 4.18857 5.25825 4.27691 5.25825 4.41203C5.25825 4.6199 5.38298 4.73942 5.63242 4.7706V5.39421L5.16471 5.79955H4.94645C4.80094 5.79955 4.72819 5.87231 4.72819 6.01782V7.01559L5.08676 7.35857V8.09131H5.25825V8.83964H5.08676V9.13586H4.97763V9.60356L2.46761 10.9599L3.69923 7.84187L0.643555 6.67261L3.76159 5.55011L1.65692 2.93096L5.0244 3.4922L5.5077 0L7.4097 3.04009L10.3095 1.01336L9.31171 4.42762ZM8.56338 6.64142V10.5857L7.7371 9.96214V9.13586H7.5656V8.83964H7.4097V8.09131H7.5656V7.35857L7.93977 7.01559V6.28285L8.56338 6.64142Z" fill="white" fill-opacity="0.301961"/>
<path fill-rule="evenodd" clip-rule="evenodd" d="M5.6325 5.39433V4.77072C5.38306 4.73954 5.25834 4.62002 5.25834 4.41215C5.25834 4.27703 5.30511 4.18869 5.39865 4.14711L5.71045 4.10034H7.42538L8.87527 6.42328V11.3342L8.14253 11.6928L7.90867 11.646C7.85671 11.5525 7.87749 11.4641 7.97103 11.381C8.05418 11.3082 8.1789 11.2251 8.3452 11.1315L8.56346 11.0224V6.64154L7.93985 6.28297V7.01571L7.56569 7.35869V8.09143H7.40979V8.83976H7.56569V9.61927H7.40979V10.3676H7.56569V11.1471H7.40979V11.8954H7.56569V12.6126L7.93985 13.2518V13.7819C7.93985 13.9274 7.8671 14.0001 7.72159 14.0001H4.94653C4.80103 14.0001 4.72827 13.9274 4.72827 13.7819V13.2518L5.08685 12.6126V11.8954H5.25834V11.1471H5.08685V10.3676H5.25834V9.61927H5.08685V8.83976H5.25834V8.09143H5.08685V7.35869L4.72827 7.01571V6.01794C4.72827 5.87243 4.80103 5.79967 4.94653 5.79967H5.1648L5.6325 5.39433Z" fill="white"/>
</svg>
