<svg width="35" height="12" viewBox="0 0 35 12" fill="none" xmlns="http://www.w3.org/2000/svg">
<path fill-rule="evenodd" clip-rule="evenodd" d="M34.7418 5.56038L34.4209 5.60224L33.9046 5.61619L33.3464 5.60224L32.886 5.56038L32.7604 5.50457H30.8069L30.7232 5.57433L30.6953 5.61619L30.4302 5.68596L30.2906 5.61619H30.0116L29.9557 5.68596L29.8999 5.78364V5.83945L29.7883 6.04875H29.5371V6.52317L29.4116 6.57898L29.272 6.60689L29.0488 6.57898L28.686 6.52317H27.6116V6.70457H27.4999L27.0534 6.67666L26.9418 6.6348V6.56503L26.9139 6.52317H26.9418V6.46736H22.2953L21.8348 6.52317L21.3464 6.56503L20.9278 6.60689L20.7464 6.6348C20.6627 6.68131 20.5836 6.68131 20.5092 6.6348L20.4395 6.57898L20.3697 6.52317V6.41154H18.5278L18.6116 7.47201L18.7092 8.56038L18.7929 9.43945L18.8348 9.87201L18.765 9.99759L18.3185 10.1092L17.4953 10.2767L16.7976 10.3743L16.4209 10.4441H16.2534L16.1976 10.3883L16.1836 10.3046L16.1418 9.94178L16.0441 9.0348L15.9046 7.29061H15.6674L15.5278 7.52782H15.4162L15.5278 7.29061H15.2348V7.36038L15.0116 8.00224C14.9278 8.17898 14.8302 8.30457 14.7185 8.37898L14.0069 8.51852L13.3371 8.4348L13.1418 8.30922L12.9325 8.21154L12.779 8.12782L12.7092 8.19759L12.5976 8.42085L12.4302 8.76968L12.0813 9.55108L11.8441 9.98364L11.6906 10.179L11.579 10.2208C11.5046 10.2208 11.3139 10.1278 11.0069 9.94178L10.1557 9.32782L10.0441 9.25805L10.086 9.20224L10.1836 9.00689L10.3511 8.67201L10.5464 8.32317C10.6116 8.21154 10.686 8.12782 10.7697 8.07201L10.8255 8.00224L11.0906 7.72317C11.1929 7.62085 11.2627 7.49992 11.2999 7.36038C11.3371 7.17433 11.3185 7.02085 11.2441 6.89992L10.9929 6.70457H8.83016L8.74644 6.71852L8.59295 6.74643L8.35574 6.81619L7.78365 7.01154L6.62551 7.43015L5.24411 7.96038L3.89062 8.44875L2.87202 8.81154L2.42551 8.97898L2.07667 9.0348L1.63016 9.09061L1.21155 9.11852L0.932484 9.09061C0.820856 9.0348 0.751089 8.95108 0.723182 8.83945L0.709229 8.49061V8.28131C0.718531 8.19759 0.741787 8.12782 0.778996 8.07201L0.820856 7.80689V7.48596L0.890624 7.29061L0.904577 7.06736L0.87667 6.35573L0.820856 5.90922H0.778996L0.709229 5.68596V5.50457V5.32317L0.778996 5.23945L0.904577 5.21154L1.12783 5.15573L1.56039 5.11387H2.06272L2.42551 5.09992L2.55109 4.79294C2.579 4.69991 2.65807 4.6348 2.7883 4.59759L3.54179 4.55573L4.89527 4.52782L6.29062 4.49991L7.11388 4.48596H7.18365L7.32318 4.66736L7.42086 4.86271L7.53248 4.97433L7.75574 4.96038L7.92318 4.90457L8.42551 4.6534L8.89993 4.36038L9.2069 4.19294C9.29062 4.13712 9.4069 4.10922 9.55574 4.10922H10.1557L10.7697 4.08131L10.8116 4.0255L10.8813 3.94178L10.9511 3.81619L11.2441 3.64875L11.4674 3.59294L11.5929 3.67666L11.7883 3.70457L12.0116 3.76038L12.2069 3.99759V4.0534L12.1232 4.10922H12.2488V3.88596L12.1371 3.80224L12.0813 3.70457L11.9697 3.48131L11.8999 3.21619V3.16038L11.3557 3.2441L10.8255 3.32782L10.3371 3.31387H9.55574L8.81621 3.29991L8.42551 3.27201L8.34179 3.29991L8.24411 3.31387L8.10458 3.32782L7.29527 3.27201V3.16038L7.26737 3.00689L7.22551 2.6441L7.1976 2.28131L7.22551 1.96038L7.26737 1.79294L7.32318 1.69526L7.33714 1.61154L7.42086 1.56968H8.10458H8.42551L9.01155 1.61154L9.82086 1.6255L10.6302 1.6534L11.2999 1.66736L11.7325 1.68131L12.0813 1.72317L12.3883 1.77898L12.5976 1.79294L13.0302 1.76503L13.7557 1.73712L14.4395 1.72317H14.7604L14.9418 1.69526L15.0534 1.68131L15.1092 1.61154C15.1092 1.54643 15.1743 1.49526 15.3046 1.45805C15.4813 1.37433 15.6627 1.37433 15.8488 1.45805H15.9046L16.086 1.48596L16.1976 1.61154C16.2348 1.65805 16.2906 1.68131 16.365 1.68131L16.4767 1.72317L17.2162 1.76503L18.0534 1.72317L18.6674 1.6534L19.4488 1.58364L20.2441 1.56968L20.7464 1.61154H20.8022C20.9232 1.63945 21.0023 1.68131 21.0395 1.73712C21.0953 1.78364 21.1325 1.91852 21.1511 2.14178C21.1883 2.37433 21.1697 2.58364 21.0953 2.76968L20.8581 3.16038L20.4674 3.20224H19.7278L18.9464 3.16038L18.3883 3.09061L18.0813 3.04875L17.8581 3.09061H17.3557L17.1604 3.41154H17.0906L16.4767 3.74643L16.3232 3.88596L16.2534 3.94178L16.1976 4.10922H23.9697L24.1371 4.09526L24.4581 4.0534L24.7929 4.0255L25.0302 3.99759L25.3511 3.98364L25.5743 3.94178L25.686 3.83015L25.7697 3.77433H26.2999L26.3836 3.88596L26.5232 4.08131H29.3557L29.272 3.77433L29.2441 3.52317L29.2581 3.39759L29.2999 3.35573L29.5092 3.16038C29.5743 3.11387 29.6302 3.09061 29.6767 3.09061L29.9557 3.16038L30.0674 3.48131L30.179 4.10922V4.48596C30.2162 4.48596 30.2534 4.50922 30.2906 4.55573V4.66736L30.2488 4.72317H30.2906L30.4023 4.70922L30.4302 4.66736H30.7232L30.765 4.70922L30.8348 4.72317H34.7976L34.8534 4.77898L34.9092 5.23945C34.9185 5.4255 34.8627 5.53247 34.7418 5.56038ZM12.9883 7.31852L12.9185 7.41619L13.0999 7.59759L13.2674 7.69526L13.379 7.72317L13.672 7.75108H13.8674H14.1185L14.3418 7.72317L14.4534 7.63945L14.5371 7.48596L14.6488 7.13712V7.09526L14.5929 7.06736L14.4395 7.09526L14.2302 7.17899H13.8674L13.4906 7.20689L13.0999 7.29061L12.9883 7.31852Z" fill="white"/>
</svg>
