<svg width="34" height="12" viewBox="0 0 34 12" fill="none" xmlns="http://www.w3.org/2000/svg">
<path fill-rule="evenodd" clip-rule="evenodd" d="M33.4564 2.93039C33.5494 2.93039 33.5959 2.97225 33.5959 3.05597V3.9769H32.1169H31.3913L29.9541 4.01876L28.3913 4.03272L27.4145 4.04667C27.4145 4.1676 27.3773 4.26528 27.3029 4.33969C27.1076 4.53504 26.9262 4.63272 26.7587 4.63272C26.6843 4.63272 26.5866 4.58155 26.4657 4.47923L26.1866 4.22807L26.0331 4.20016L25.8517 4.13039L25.5866 4.04667L25.3355 4.01876L24.8192 3.99086L24.1215 4.01876L23.382 4.04667L23.3541 4.18621L23.3122 4.33969L23.2145 4.38155L23.075 4.39551L23.061 4.53504L23.0471 4.70248L23.0192 4.98155H22.9076L21.6517 4.99551L20.368 5.00946L19.3494 5.03737L18.8471 5.05132L18.6517 5.07923L18.3587 5.10714L17.9959 5.16295L17.7308 5.21876H17.6889L17.6192 5.05132L17.5913 4.73039L17.5634 4.47923V4.28388L17.2564 4.35365L16.7541 4.43737L16.2657 4.53504L15.9727 4.56295L15.9587 4.73039L15.9169 4.85597C15.9169 5.33039 15.9913 5.86528 16.1401 6.46062C16.2889 7.02807 16.4517 7.5676 16.6285 8.07923L17.1169 9.32109L17.3401 9.82342L17.3959 9.92109L17.2843 9.96295L16.9773 10.1025L16.4052 10.3816C16.1541 10.4839 15.8145 10.6513 15.3866 10.8839H15.2889C15.1308 10.6792 14.9634 10.3257 14.7866 9.82342L14.2843 8.24667L13.8936 6.71179L13.6424 5.749L13.2796 5.91644L13.2099 5.9583L13.168 5.97225C13.1215 6.05597 13.0424 6.09783 12.9308 6.09783C12.475 6.20946 12.1122 6.21411 11.8424 6.11179C11.582 6.00946 11.4099 5.92574 11.3262 5.86062L11.2564 5.91644L11.0052 6.04202C10.7169 6.69318 10.5448 7.22807 10.4889 7.64667L10.4192 8.5676V8.79086L10.3913 8.86062L10.3634 8.90248C10.2052 8.90248 9.67964 8.66528 8.78662 8.19086L8.7029 8.149V8.10714L9.05174 7.31179L9.35871 6.51644L9.58197 5.86062L9.67964 5.55365L9.63778 5.44202L9.60988 5.33039L9.5122 5.21876L9.40057 5.10714L9.3029 4.98155L8.9122 4.93969L8.13081 4.95365L7.14011 4.99551L6.17732 5.05132L5.00523 5.09318C4.27034 5.09318 3.15406 5.7583 1.65639 7.08853L1.54476 7.20016L1.26569 7.43737L1.01453 7.73039L0.9029 7.78621C0.828481 7.78621 0.758714 7.73039 0.693597 7.61876L0.609876 7.26993L0.595923 6.83737L0.526155 6.01411L0.442434 5.06528L0.330807 4.28388C0.228481 4.07923 0.247086 3.87458 0.38662 3.66993C0.479644 3.5676 0.600574 3.51644 0.749411 3.51644H1.04243H7.53081H7.69825C7.75406 3.51644 7.79592 3.49783 7.82383 3.46062V3.40481L7.8936 3.32109L7.94941 3.20946C8.01453 3.16295 8.1122 3.13969 8.24243 3.13969L8.53546 3.08388L8.7029 3.05597L8.87034 3.00016L9.21918 2.87458L9.45639 2.67923C9.53081 2.63272 9.57267 2.5583 9.58197 2.45597L9.63778 2.03737V1.91179C9.63778 1.74435 9.67964 1.62807 9.76336 1.56295L10.0703 1.50714H10.182L10.2238 1.56295L10.5308 1.85597L10.8796 1.81411H11.061L11.2006 2.03737L11.2843 2.41411L12.1913 2.3583L12.7494 2.41411L12.8471 2.42807L13.0006 2.45597H16.5587L16.5169 2.21876L16.475 2.10714H17.1029V2.21876L17.1308 2.30248L17.1587 2.31644H25.768L25.7541 2.21876V2.03737C25.7262 1.98155 25.7122 1.90714 25.7122 1.81411L25.9076 1.45132L26.4936 1.39551H26.5494V2.41411L26.5076 2.42807L26.4657 2.45597L26.4378 2.49783L26.8703 2.81876C27.0936 2.93969 27.3401 3.00016 27.6099 3.00016L28.168 3.02807L29.061 3.05597L30.0517 3.02807L31.0145 3.01411L31.768 3.00016H32.1169L32.382 2.9583L32.7448 2.88853L33.1773 2.86062C33.3169 2.84202 33.4099 2.86528 33.4564 2.93039ZM11.8564 4.81411C11.782 4.81411 11.7076 4.84667 11.6331 4.91179C11.568 4.99551 11.5355 5.09783 11.5355 5.21876C11.5355 5.33969 11.568 5.44202 11.6331 5.52574C11.7076 5.60016 11.782 5.63737 11.8564 5.63737H12.875C12.9587 5.63737 13.0424 5.60016 13.1262 5.52574L13.2238 5.21876L13.1262 4.91179C13.0424 4.84667 12.9587 4.81411 12.875 4.81411H11.8564ZM1.05639 4.78621L1.14011 5.3583L1.19592 6.00016L1.26569 6.47458L1.61453 6.1676L2.11685 5.749L3.19127 4.93969L4.14011 4.25597H0.98662L1.05639 4.78621Z" fill="white"/>
</svg>
