<svg width="16" height="12" viewBox="0 0 16 12" fill="none" xmlns="http://www.w3.org/2000/svg">
<path fill-rule="evenodd" clip-rule="evenodd" d="M15.4442 3.1534C15.4442 3.79526 15.3373 4.18131 15.1233 4.31154L14.9838 4.33945L14.3559 4.39526L13.3931 4.42317L12.3745 4.46503L11.5512 4.47898L10.9652 4.52084L10.6163 4.59061L10.4768 4.73015L10.4489 4.91154V5.02317L10.4628 5.33015L10.5047 5.65108L10.5884 6.02782V6.06968L10.3931 6.29294V6.3348L9.89075 6.39061L8.52331 6.41852L7.61633 6.39061L7.0861 6.30689L6.84889 6.20922L6.62564 6.25108L6.36052 6.53015L5.94192 7.17201C5.79308 7.47898 5.62099 7.88829 5.42564 8.39991C5.22099 8.90224 4.99308 9.5348 4.74192 10.2976L4.71401 10.3255C4.71401 10.5488 4.65354 10.6883 4.53261 10.7441C4.4675 10.8092 4.41634 10.8232 4.37913 10.786H1.25354L1.2675 10.6604L1.32331 10.4371H1.10006L0.988428 10.4232C0.774474 10.4046 0.607032 10.3069 0.486102 10.1301C0.420986 10.0278 0.388428 9.89759 0.388428 9.73945C0.388428 9.5441 0.416335 9.37666 0.472149 9.23712L0.541916 8.97201V8.99991L0.723311 8.7627L1.0861 8.20457L1.57447 7.46503L2.11866 6.69759L2.55122 5.74875L2.69075 5.00922L2.62099 4.59061C2.53727 4.41387 2.42099 4.27433 2.27215 4.17201L1.83959 3.9348C1.70936 3.90689 1.62099 3.84643 1.57447 3.7534L1.51866 3.41852L1.53261 3.27898V3.18131L1.51866 3.1534V2.41387V2.10689L1.4768 1.93945H1.46285L1.44889 1.89759L1.46285 1.85573L1.4768 1.82782C1.4861 1.80922 1.52796 1.78131 1.60238 1.7441L2.20238 1.67433L2.23029 1.59061L2.27215 1.5348L2.32796 1.43712L2.36982 1.39526L2.77447 1.40922L2.81633 1.50689L2.84424 1.59061L2.8582 1.67433H14.3838L14.4117 1.61852C14.4303 1.59991 14.4442 1.59061 14.4535 1.59061L14.7187 1.50689L14.7745 1.56271L14.8442 1.63247H15.3466L15.4442 3.1534ZM9.61168 4.59061H7.63029L7.53261 4.66038C7.4861 4.70689 7.46285 4.77201 7.46285 4.85573V5.5255C7.46285 5.62782 7.4861 5.69759 7.53261 5.7348L7.63029 5.80457H9.61168L9.72331 5.7348L9.79308 5.5255V4.85573L9.72331 4.66038C9.69541 4.61387 9.6582 4.59061 9.61168 4.59061Z" fill="white"/>
</svg>
