<svg width="11" height="14" viewBox="0 0 11 14" fill="none" xmlns="http://www.w3.org/2000/svg">
<path fill-rule="evenodd" clip-rule="evenodd" d="M8.4698 2.8V2.84029L8.48994 2.88058L8.51009 2.92086V2.94101L8.53023 2.98129L8.57052 3.02158V3.04173L8.59066 3.06187V3.10216L8.61081 3.14245L8.63095 3.18273L8.6511 3.20288V3.24317L8.67124 3.28345L8.69138 3.3036V3.32374V3.36403L8.73167 3.40432L8.75181 3.4446L8.77196 3.46475V3.50504L8.7921 3.54532V3.56547L8.81225 3.58561V3.6259L8.83239 3.66619L8.85253 3.70647L8.87268 3.72662L8.89282 3.76691L8.91297 3.80719H8.95325L8.99354 3.82734L9.03383 3.86763L9.05397 3.90791L9.07412 3.9482V3.98849L9.09426 4.02878L9.1144 4.06906V4.08921L9.13455 4.1295V4.16978L9.15469 4.21007L9.17484 4.23022V4.25036L9.19498 4.29065V4.33094L9.21512 4.35108L9.23527 4.39137L9.25541 4.43165V4.47194L9.27556 4.49209L9.2957 4.51223L9.31584 4.55252L9.33599 4.59281V4.61295L9.35613 4.65324L9.37628 4.69352L9.39642 4.71367L9.41656 4.75396L9.43671 4.7741V4.81439L9.45685 4.85468L9.477 4.87482L9.49714 4.91511L9.51728 4.9554V4.97554L9.53743 5.01583L9.55757 5.03597L9.57771 5.07626L9.59786 5.0964V5.13669L9.618 5.17698L9.63815 5.21727L9.65829 5.23741L9.67843 5.2777L9.69858 5.29784V5.33813L9.71872 5.35827V5.39856L9.73887 5.43885V5.47914L9.75901 5.49928L9.77915 5.53957V5.55971L9.81944 5.6L9.83959 5.62014V5.66043L9.85973 5.70072V5.74101L9.87987 5.76115V5.80144L9.90002 5.82158V5.86187L9.92016 5.88201L9.9403 5.9223L9.96045 5.96259V5.98273V6.02302L9.98059 6.06331L10.0007 6.08345L10.041 6.12374V6.14388L10.0612 6.18417V6.22446L10.0813 6.2446L10.1015 6.28489V6.32518L10.1216 6.34532V6.36547L10.1619 6.40576L10.182 6.44604L10.2022 6.48633L10.2223 6.50647V6.54676V6.58705L10.2626 6.62734L10.3029 6.66763V6.70791L10.3432 6.7482V6.76834L10.3633 6.80863L10.3835 6.84892V6.86906L10.4238 6.88921L10.4439 6.9295L10.464 6.96978L10.4842 7.01007V7.03022V7.0705L10.5043 7.11079L10.5245 7.13094L10.5648 7.15108V7.19137L10.5849 7.23165L10.6051 7.2518V7.27194V7.31223V7.33237L10.6453 7.35252L10.6655 7.39281L10.6856 7.41295L10.7058 7.45324V7.47338V7.51367V7.53381V7.5741V7.61439V7.65468L10.6856 7.67482V7.71511L10.6655 7.73525V7.97698V8.25899V8.54101V8.84317V9.14532V9.42734V9.60863V9.64892V9.7295V9.76978V9.83022V9.8705V9.91079V9.93093V9.97122V9.99137V10.0317V10.0719L10.6856 10.0921V10.1324L10.7058 10.1727V10.1928V10.2331V10.2532V10.2935V10.3137V10.354V10.3942V10.4345V10.4547V10.495V10.5151V10.5554V10.5755V10.6158V10.6561V10.6964V10.7165V10.7568L10.7259 10.777V10.8173L10.7461 10.8374V10.8777V10.918V10.9583V10.9784V11.0187V11.0388V11.0791V11.0993V11.1396V11.1799V11.2V11.2403V11.2806V11.3007V11.341V11.3612V11.4014V11.4417V11.4619V11.5022V11.5424V11.5827V11.623V11.6633V11.7036L10.7662 11.7237L10.7863 11.764V11.8043V11.8446V11.8849V11.9252V11.9655V11.9856V12.0259V12.0662V12.1065V12.1468V12.187V12.2273V12.2475V12.2878V12.3281V12.3683V12.4086V12.4489V12.4892L10.7662 12.5094V12.5496L10.7461 12.5899V12.6302V12.6705V12.7108V12.7309V12.7712V12.8115V12.8518V12.8921V12.9324V12.9727V12.9928V13.0331V13.0734V13.1137V13.154V13.1942V13.2345V13.2547V13.295V13.3353V13.3755L10.7259 13.4158V13.4561L10.7058 13.4964L10.6856 13.5165L10.6655 13.5568L10.6453 13.5971L10.6252 13.6374H10.6051L10.5849 13.6777H10.5648L10.4842 13.718L10.4036 13.7381H10.2626L10.182 13.718L10.1216 13.6777L10.1015 13.6374V13.6173V13.577V13.5367V13.4964V13.4763L10.1216 13.4561L10.1619 13.4158L10.2022 13.3755H10.2828L10.323 13.3353V13.2345V12.9324V12.6302V12.3482V12.0662V11.764V11.4619V11.1799V10.8777V10.5755V10.2935V10.1928V10.1122V10.0719V10.0518V10.0115V9.97122V9.93093V9.85036V9.81007V9.74964L10.3029 9.70935L10.2626 9.68921V9.64892V9.62878V9.58849V9.5482V9.52806V9.48777V9.44748V9.42734V9.38705V9.36691V9.32662V9.30647V9.26619V9.2259V9.18561V9.16547L10.2425 9.12518V9.10504L10.2223 9.06475V9.0446V9.00432V8.96403V8.92374V8.9036V8.86331V8.84317V8.80288V8.78273V8.74245V8.70216V8.66187V8.64173V8.60144V8.58129V8.54101V8.52086V8.48057V8.44029L10.182 8.4V8.37986V8.33957V8.31942V8.27914V8.25899V8.2187V8.17842V8.15827L10.1619 8.11799L10.1417 8.0777V8.03741V7.99712V7.95683V7.91655L10.1216 7.8964L10.1015 7.85611V7.81583V7.77554V7.73525L10.0813 7.69496V7.65468L10.0612 7.63453L10.041 7.59424V7.55396L10.0007 7.53381V7.51367V7.47338V7.43309V7.39281V7.37266V7.33237V7.29209L9.98059 7.27194L9.96045 7.2518L9.9403 7.21151L9.92016 7.17122V7.13094L9.90002 7.11079L9.87987 7.0705L9.85973 7.03022L9.83959 7.01007V6.98993L9.81944 6.94964L9.77915 6.90935L9.75901 6.88921L9.73887 6.84892V6.80863L9.71872 6.76834V6.7482L9.69858 6.72806L9.67843 6.68777L9.65829 6.64748L9.63815 6.62734V6.58705L9.618 6.54676L9.59786 6.50647H9.57771V6.46619L9.55757 6.4259V6.38561L9.51728 6.36547L9.49714 6.32518H9.45685L9.39642 6.28489L9.37628 6.2446L9.33599 6.22446V6.18417L9.31584 6.14388L9.2957 6.12374V6.08345L9.25541 6.06331L9.21512 6.02302L9.19498 5.98273V5.96259L9.17484 5.9223L9.15469 5.88201L9.13455 5.86187V5.82158L9.1144 5.80144L9.07412 5.76115V5.74101L9.05397 5.70072V5.66043L9.01369 5.62014L8.99354 5.6L8.95325 5.55971V5.53957V5.49928V5.47914L8.91297 5.43885L8.87268 5.39856L8.85253 5.35827L8.83239 5.33813L8.81225 5.29784L8.7921 5.2777V5.23741L8.77196 5.21727L8.73167 5.17698L8.71153 5.13669L8.69138 5.0964L8.67124 5.07626L8.6511 5.03597L8.61081 5.01583V4.97554L8.59066 4.9554L8.57052 4.91511L8.53023 4.87482L8.51009 4.85468L8.48994 4.81439L8.44966 4.7741L8.42951 4.75396L8.38923 4.71367L8.36908 4.69352L8.34894 4.65324V4.61295L8.30865 4.59281L8.28851 4.55252L8.26836 4.51223L8.24822 4.49209L8.20793 4.47194L8.18779 4.43165L8.16764 4.39137L6.61656 4.41151L6.59642 4.43165L6.57628 4.47194V4.49209V4.53237V4.57266V4.59281V4.63309V4.67338V4.71367V4.75396V4.79424V4.83453V4.85468V4.89496V4.93525V4.97554V5.01583V5.05612V5.0964V5.11655V5.15683V5.19712V5.23741V5.2777V5.31799V5.35827V5.37842V5.4187V5.45899V5.49928V5.53957V5.57986V5.6V5.64029H6.61656H6.65685L6.77771 5.66043L6.79786 5.68058L6.91872 5.70072L6.9993 5.72086H7.03959L7.30146 5.74101H7.40217L7.44246 5.76115L7.48275 5.78129L7.54318 5.80144H7.56333L7.70433 5.82158L7.80505 5.84173L7.84534 5.86187H7.88563L7.94606 5.88201H7.98635L8.06692 5.90216L8.16764 5.9223L8.20793 5.96259L8.26836 5.98273H8.30865L8.42951 6.00288L8.4698 6.04317L8.53023 6.08345L8.61081 6.12374L8.67124 6.14388L8.73167 6.16403L8.81225 6.20432L8.85253 6.2446L8.87268 6.26475L8.91297 6.30504L8.95325 6.34532V6.36547L9.01369 6.40576L9.07412 6.4259L9.1144 6.46619L9.13455 6.50647L9.17484 6.52662L9.19498 6.56691L9.23527 6.60719L9.27556 6.62734L9.31584 6.66763L9.33599 6.68777L9.37628 6.72806L9.39642 6.7482L9.41656 6.78849L9.43671 6.82878L9.45685 6.86906L9.477 6.88921L9.49714 6.9295L9.51728 6.94964V6.98993L9.53743 7.01007V7.05036L9.55757 7.09065L9.57771 7.13094V7.15108L9.59786 7.19137V7.21151L9.63815 7.2518V7.27194L9.65829 7.31223V7.35252V7.39281L9.67843 7.41295L9.69858 7.45324V7.47338L9.71872 7.51367V7.53381V7.5741L9.73887 7.61439V7.65468V7.67482L9.75901 7.71511L9.77915 7.73525V7.77554L9.7993 7.79568V7.83597L9.81944 7.87626V7.8964L9.83959 7.93669V7.97698V7.99712L9.85973 8.03741V8.05755L9.87987 8.09784L9.90002 8.13813L9.92016 8.15827L9.9403 8.19856L9.96045 8.23885V8.27914L9.98059 8.31942V8.35971L10.0007 8.4V8.42014L10.0209 8.46043L10.041 8.50072V8.52086L10.0612 8.54101V8.58129V8.62158V8.66187V8.68201V8.7223L10.0813 8.76259V8.78273L10.1015 8.80288V8.84317V8.88345V8.92374V8.94388V8.98417V9.02446V9.06475V9.10504V9.14532V9.16547V9.20576V9.24604V9.28633V9.32662V9.36691V9.40719V9.42734V9.46763V9.50791V9.5482V9.58849V9.62878V9.66906V9.68921V9.7295V9.76978L10.0813 9.81007L10.0612 9.85036V9.89065V9.93093V9.95108V9.99137V10.0317V10.0719L10.041 10.1122V10.1525L10.0209 10.1928L10.0007 10.2129V10.2532V10.2935L9.98059 10.3137V10.3338L9.96045 10.3741V10.4144V10.4547V10.4748L9.9403 10.5151L9.92016 10.5554L9.90002 10.5755V10.5957L9.87987 10.636V10.6763L9.85973 10.6964V10.7367L9.83959 10.777V10.8173L9.7993 10.8576L9.77915 10.8978V10.9381L9.75901 10.9583L9.73887 10.9986L9.71872 11.0388V11.0791L9.69858 11.0993V11.1194L9.65829 11.1597V11.2L9.63815 11.2201V11.2604L9.618 11.3007L9.59786 11.341V11.3612L9.57771 11.3813L9.55757 11.4216V11.4619L9.53743 11.482L9.51728 11.5223V11.5626L9.49714 11.5827L9.477 11.623L9.45685 11.6432L9.43671 11.6835V11.7237L9.41656 11.7439L9.39642 11.7842L9.37628 11.8245L9.35613 11.8446L9.33599 11.8849L9.31584 11.905L9.2957 11.9453L9.27556 11.9655L9.25541 12.0058L9.23527 12.046L9.19498 12.0863V12.1065L9.17484 12.1468L9.13455 12.1669L9.1144 12.2072L9.09426 12.2273L9.07412 12.2676V12.3079L9.03383 12.3482L8.99354 12.3683L8.95325 12.4086V12.4288L8.91297 12.4691L8.89282 12.4892L8.87268 12.5295L8.85253 12.5698L8.81225 12.6101L8.7921 12.6302L8.77196 12.6705L8.71153 12.6906L8.69138 12.7309L8.67124 12.7511L8.61081 12.7914L8.55038 12.8317L8.51009 12.8719L8.4698 12.8921L8.44966 12.9324L8.40937 12.9525L8.32879 12.9928L8.26836 13.0129L8.20793 13.0532L8.16764 13.0935L8.12736 13.1137L8.06692 13.154L7.98635 13.1942L7.92592 13.2144L7.90577 13.2547L7.88563 13.2748L7.8252 13.3151L7.78491 13.3353L7.70433 13.3554L7.66405 13.3755L7.60361 13.3957L7.52304 13.436L7.46261 13.4561L7.40217 13.4763L7.30146 13.4964H7.26117L7.18059 13.5165L7.10002 13.5367L7.03959 13.577L6.95901 13.6173L6.91872 13.6374H6.79786L6.77771 13.6777H6.73743L6.65685 13.6978L6.59642 13.718H6.55613L6.4957 13.7381L6.35469 13.7583H6.29426L6.23383 13.7784L6.15325 13.7986H6.13311L6.05254 13.8187L5.95182 13.8388L5.89138 13.859L5.83095 13.8791H5.64966L5.56908 13.9194L5.50865 13.9396L5.44822 13.9597L5.30721 13.9799H5.28707L5.22664 14H4.32016L4.23959 13.9799H4.21944L4.17915 13.9597L4.07843 13.9396L3.99786 13.8993L3.97771 13.8791H3.95757L3.85685 13.859L3.79642 13.8187L3.77628 13.7986L3.71584 13.7784L3.59498 13.7583L3.55469 13.7381H3.53455L3.43383 13.718L3.35325 13.6777L3.27268 13.6374H3.21225L3.09138 13.5971L3.0511 13.5568H3.03095L2.95038 13.5367L2.82951 13.4964L2.78923 13.4763H2.76908L2.68851 13.4561L2.58779 13.4158L2.52736 13.3755L2.44678 13.3554L2.34606 13.3151L2.32592 13.2748L2.24534 13.2547L2.20505 13.2144L2.16477 13.1942L2.12448 13.154L2.08419 13.1137L2.0439 13.0935L2.00361 13.0532L1.96333 13.0129L1.90289 12.9928L1.84246 12.9525L1.82232 12.9324L1.78203 12.8921L1.74174 12.8719L1.7216 12.8317L1.70146 12.7914L1.66117 12.7511L1.62088 12.7309L1.58059 12.6906L1.56045 12.6705L1.47987 12.6302L1.45973 12.6101L1.43959 12.5698L1.3993 12.5295L1.35901 12.4892L1.31872 12.4691L1.29858 12.4288L1.25829 12.4086L1.23815 12.3683L1.218 12.3482L1.19786 12.3079L1.17772 12.2676L1.13743 12.2273L1.09714 12.2072L1.077 12.1669L1.05685 12.1468V12.1065L1.03671 12.0863V12.046L0.99642 12.0058L0.976276 11.9655L0.956132 11.9453L0.935988 11.905L0.915845 11.8849L0.895701 11.8446L0.855413 11.8043L0.815125 11.764L0.794981 11.7237V11.7036V11.6633L0.774837 11.623L0.754693 11.5827L0.73455 11.5626L0.694262 11.5424V11.5022L0.674118 11.4619V11.4417L0.653974 11.4014L0.63383 11.3612L0.613686 11.341V11.3007V11.2806L0.593542 11.2403V11.2L0.573399 11.1799L0.553255 11.1396V11.0993L0.533111 11.0791V11.0388L0.512967 11.0187V10.9784L0.492823 10.9583V10.918L0.472679 10.8777L0.452535 10.8374L0.432391 10.8173V10.777V10.7568L0.412247 10.7165V10.6964V10.6561V10.6158V10.5755L0.392104 10.5554L0.351816 10.5151V10.495V10.4547V10.4345V10.3942V10.354V10.3137V10.2935L0.331672 10.2532V10.2331L0.311528 10.1928V10.1727V10.1324L0.291384 10.0921V10.0719L0.27124 10.0317V9.99137V9.97122V9.93093V9.91079V9.8705V9.83022V9.81007V9.76978V9.7295V9.68921V9.64892V9.60863V9.56835V9.5482V9.50791V9.46763V9.42734V9.38705V9.34676V9.30647V9.28633V9.24604V9.20576V9.16547V9.12518V9.08489V9.0446V9.02446V8.98417V8.94388V8.9036V8.86331V8.82302V8.78273V8.76259L0.291384 8.7223L0.311528 8.68201V8.64173V8.60144V8.56115V8.54101V8.50072V8.46043L0.331672 8.42014V8.4L0.351816 8.37986V8.33957V8.29928V8.27914V8.23885V8.19856L0.392104 8.15827H0.412247V8.11799V8.0777V8.03741V8.01727V7.97698L0.432391 7.93669V7.8964V7.85611V7.81583L0.452535 7.77554L0.472679 7.7554L0.512967 7.71511V7.67482L0.533111 7.65468V7.63453V7.59424V7.55396L0.553255 7.51367V7.49353L0.593542 7.45324L0.613686 7.41295V7.39281L0.63383 7.37266L0.653974 7.33237L0.674118 7.29209V7.27194V7.23165L0.694262 7.19137V7.15108V7.13094L0.714406 7.11079L0.73455 7.0705L0.774837 7.03022L0.794981 7.01007V6.96978L0.815125 6.9295L0.855413 6.88921L0.895701 6.84892L0.915845 6.80863L0.935988 6.76834L0.956132 6.7482L0.976276 6.70791L0.99642 6.66763L1.03671 6.62734L1.05685 6.60719L1.09714 6.58705L1.13743 6.54676L1.17772 6.50647L1.19786 6.48633L1.218 6.44604L1.25829 6.40576L1.29858 6.36547L1.31872 6.34532L1.35901 6.32518L1.3993 6.28489L1.43959 6.2446L1.45973 6.22446L1.47987 6.18417L1.52016 6.14388L1.56045 6.12374L1.58059 6.08345L1.66117 6.06331L1.70146 6.02302L1.76189 5.98273H1.82232H1.88275L1.92304 5.94245L2.00361 5.90216L2.08419 5.86187L2.16477 5.84173L2.26548 5.82158L2.30577 5.80144H2.32592L2.40649 5.78129L2.46692 5.76115L2.5475 5.74101H2.60793L2.68851 5.72086H2.70865L2.78923 5.70072L2.97052 5.68058L3.03095 5.64029L3.11153 5.62014L3.15182 5.6L3.21225 5.57986L3.23239 5.55971H3.31297L3.6957 5.53957H3.73599H3.79642V5.51942H3.99786V5.45899V5.4187V5.37842V5.35827V5.31799V5.2777V5.23741V5.19712V5.15683V5.11655V5.0964V5.05612V5.01583V4.97554V4.93525V4.89496V4.85468V4.83453V4.79424V4.75396L3.97771 4.71367V4.67338V4.63309V4.59281V4.57266V4.53237V4.49209V4.47194V4.43165V4.41151H3.81656L3.79642 4.37122V4.33094V4.29065H3.73599V4.25036V4.21007V4.16978V4.1295V4.06906V4.02878V3.98849V3.80719V3.76691V3.72662V3.70647V3.66619V3.6259V3.58561V3.54532V3.50504V3.46475V3.4446V3.40432V3.36403V3.32374V3.28345V3.24317V3.20288V3.18273V3.14245V3.10216V3.06187V3.02158V2.98129V2.94101V2.92086V2.88058V2.84029V2.8V2.75971V2.71942V2.67914V2.65899V2.61871V2.57842V2.55827V2.51799V2.49784V2.45755V2.43741V2.39712V2.35683V2.31655V2.2964V2.25611V2.23597V2.19568V2.17554V2.13525V2.09496V2.05468V2.03453V1.99424V1.9741V1.93381V1.91367V1.87338V1.83309V1.79281V1.77266V1.73237V1.71223V1.67194V1.6518L3.35325 1.67194H3.29282L3.21225 1.69209H3.1921H3.13167L3.03095 1.67194L2.97052 1.6518L2.8698 1.61151L2.84966 1.57122L2.80937 1.53094L2.78923 1.51079L2.76908 1.4705V1.45036L2.74894 1.41007V1.38993V1.34964V1.30935L2.76908 1.28921V1.24892L2.78923 1.20863L2.80937 1.18849L2.84966 1.1482L2.8698 1.12806L2.95038 1.10791H2.97052V1.08777V1.04748V1.02734V0.98705V0.946763V0.926619L2.99066 0.906475L3.03095 0.866187L3.0511 0.825899L3.09138 0.785612L3.11153 0.765468L3.15182 0.72518L3.21225 0.705036L3.23239 0.684892H3.31297H3.59498V0.664748L3.63527 0.644604L3.67556 0.604317L3.73599 0.584173V0.564029V0.523741H6.69714V0.503597V0.463309V0.423022V0.382734V0.36259V0.322302V0.282014V0.241727V0.201439V0.161151V0.141007V0.100719V0.0604316V0.0402878L6.75757 0.0201439V0H7.28131V0.0201439V0.0604316V0.100719V0.141007L7.30146 0.161151V0.201439L7.3216 0.241727L7.34174 0.26187V0.282014L7.36189 0.322302V0.36259L7.34174 0.382734V0.423022L7.3216 0.463309L7.30146 0.503597V0.543885V0.584173H7.38203L7.42232 0.62446L7.46261 0.644604L7.48275 0.684892L7.52304 0.705036L7.54318 0.745324L7.56333 0.765468L7.58347 0.805755L7.60361 0.846043V0.866187L7.62376 0.906475V0.926619V0.966906L7.60361 1.00719V1.02734H7.62376L7.6439 1.06763V1.10791L7.66405 1.1482L7.68419 1.16835V1.20863V1.24892L7.70433 1.28921H7.72448L7.74462 1.3295L7.78491 1.34964L7.80505 1.38993L7.8252 1.41007L7.84534 1.45036L7.86548 1.4705V1.51079L7.88563 1.53094V1.57122L7.90577 1.61151V1.6518L7.92592 1.67194V1.71223L7.94606 1.73237V1.77266L7.9662 1.79281L7.98635 1.83309V1.87338L8.02664 1.91367L8.04678 1.93381L8.06692 1.9741V1.99424V2.03453L8.08707 2.05468L8.12736 2.09496L8.1475 2.13525L8.16764 2.17554V2.19568L8.18779 2.23597V2.25611L8.20793 2.2964L8.24822 2.31655V2.35683L8.26836 2.39712V2.43741L8.28851 2.45755L8.30865 2.49784V2.51799L8.32879 2.55827L8.34894 2.57842L8.36908 2.61871L8.38923 2.65899V2.67914L8.40937 2.71942L8.42951 2.75971L8.44966 2.77986L8.4698 2.8ZM0.875557 8.64173V8.60144V8.56115V8.54101L0.855413 8.56115V8.60144L0.835269 8.64173V8.68201V8.7223V8.76259L0.855413 8.7223V8.68201L0.875557 8.66187V8.64173Z" fill="white"/>
</svg>
