<svg width="13" height="12" viewBox="0 0 13 12" fill="none" xmlns="http://www.w3.org/2000/svg">
<path fill-rule="evenodd" clip-rule="evenodd" d="M12.0325 1.85571L12.1581 1.92548C12.2325 1.97199 12.2698 2.0278 12.2698 2.09292L12.3256 3.11153L12.3116 4.14408L12.2419 4.38129L12.0605 4.50687L9.21395 4.54874L9.03255 4.5906C8.92092 4.6278 8.8465 4.69292 8.80929 4.78594C8.78139 4.86036 8.77674 5.0092 8.79534 5.23246L8.85115 5.73478L8.90697 6.08362C8.90697 6.14874 8.85581 6.18594 8.75348 6.19525L8.16743 6.29292L7.14883 6.37664L5.25115 6.32083C4.6465 7.93013 4.34418 8.78594 4.34418 8.88827L4.41395 9.96269L4.74883 10.172C4.81395 10.1999 4.84185 10.2371 4.83255 10.2836L4.80464 10.3394L4.70697 10.3952L4.37208 10.4092L0.813946 9.69757C0.702318 9.67897 0.702318 9.37199 0.813946 8.77664L1.13488 7.68827C1.31162 7.20455 1.47441 6.82315 1.62325 6.54408L1.99999 5.6092C2.11162 5.27432 2.15813 5.03711 2.13953 4.89757C2.12092 4.79525 1.99069 4.67432 1.74883 4.53478L1.2186 4.32548L0.995341 4.18594L0.869759 4.03246C0.841853 3.99525 0.827899 3.89757 0.827899 3.73943V3.3906C0.827899 3.14873 0.846504 2.9999 0.883713 2.94408L1.28836 2.26036L1.52557 1.98129C1.60929 1.89757 1.68371 1.86036 1.74883 1.86967H1.97208L2.11162 1.85571L2.2372 1.67432L2.65581 1.71618L2.71162 1.86967H6.54883V1.99525H8.20929V1.86967L12.0325 1.85571ZM6.88371 4.71618C6.8372 4.89292 6.85581 5.04176 6.93953 5.16269L7.2186 5.53943C7.29302 5.60455 7.38139 5.64641 7.48371 5.66501C7.57674 5.67432 7.6186 5.69757 7.60929 5.73478C7.59999 5.78129 7.56278 5.80455 7.49767 5.80455H7.31627L6.98139 5.6092C6.78604 5.44176 6.66046 5.30222 6.60464 5.1906L6.54883 4.71618L6.29767 4.70222C6.14883 4.70222 6.0186 4.76269 5.90697 4.88362C5.81394 4.99525 5.76743 5.12548 5.76743 5.27432V5.65106C5.78604 5.76269 5.87906 5.85106 6.0465 5.91618C6.28836 6.0092 6.52092 6.04641 6.74418 6.0278L7.35813 5.95804L7.76278 5.97199L8.16743 5.9999L8.40464 5.97199L8.51627 5.86036L8.54418 5.41385C8.53488 5.18129 8.49767 5.0092 8.43255 4.89757L8.2372 4.73013L8.12557 4.70222V4.73013L6.88371 4.71618Z" fill="white"/>
</svg>
