<svg width="9" height="14" viewBox="0 0 9 14" fill="none" xmlns="http://www.w3.org/2000/svg">
<path fill-rule="evenodd" clip-rule="evenodd" d="M6.08352 0.390029L6.10405 0.410557V0.451613L6.12458 0.472141V0.513197H6.14511V0.533724L6.16563 0.554252V0.615836H6.18616V0.656892H6.20669V0.697947L6.22722 0.718475V0.780059L6.24774 0.800587V0.841642L6.26827 0.86217V0.882698H6.2888V0.923754L6.30933 0.944282V0.964809L6.32986 0.985337V1.00587L6.35038 1.02639V1.08798L6.37091 1.1085V1.12903H6.39144V1.19062H6.41197V1.21114L6.4325 1.23167V1.2522L6.45302 1.27273V1.31378L6.47355 1.33431V1.39589L6.49408 1.41642V1.43695L6.51461 1.45748V1.47801L6.55566 1.51906V1.53959L6.57619 1.56012L6.59672 1.58065V1.68328L6.61725 1.70381V1.74487L6.63777 1.7654V1.78592L6.6583 1.80645V1.82698L6.67883 1.84751V1.88856H6.69936V1.92962L6.71989 1.95015V2.01173L6.74041 2.03226V2.07331L6.76094 2.09384V2.1349H6.78147V2.15543L6.802 2.17595V2.19648L6.82253 2.21701V2.23754L6.84305 2.25806V2.34018L6.86358 2.3607V2.40176H6.88411V2.46334H6.90464V2.5044L6.92516 2.52493V2.54545L6.94569 2.56598V2.60704L6.96622 2.62757V2.66862L6.98675 2.68915V2.73021L7.00728 2.75073V2.77126H7.0278V2.79179L7.04833 2.81232V2.83284L7.06886 2.85337V2.89443H7.08939V2.95601L7.10991 2.97654V2.99707L7.13044 3.0176V3.03812L7.15097 3.05865V3.12023L7.19203 3.16129V3.20235L7.21255 3.22287V3.2434H7.23308V3.28446H7.25361L7.27414 3.30499V3.32551L7.35625 3.40762V3.67449L7.37678 3.69501V3.73607L7.39731 3.7566L7.41783 3.77713V3.79765L7.43836 3.81818V3.83871H7.45889V3.87977L7.47942 3.90029L7.49994 3.92082V3.94135H7.52047V3.96188L7.56153 4.00293L7.58206 4.02346V4.04399H7.60258V4.06452L7.66417 4.14663V4.29032L7.70522 4.31085V4.57771V4.70088V4.82405V4.92669V5.04985V5.15249V5.29619V5.41935V5.54252V5.64516V5.66569V5.76833V5.8915V6.01466V6.1173V6.24047V6.36364V6.4868V6.58944V6.71261V6.83578V6.95894V7.06158V7.18475V7.30792V7.43109V7.55425V7.67742V7.80059V7.92375V8.02639V8.14956V8.27273V8.3959V8.49853V8.6217V8.74487V8.86804V8.97068V9.09384V9.21701V9.34018V9.44282V9.56598V9.68915V9.81232V9.93548V10.0587V10.1818V10.305V10.4076V10.5308V10.654V10.7771V10.8798V11.0029V11.1261V11.2493V11.3519V11.4751V11.5982V11.7214V11.824V11.9472V12.0704V12.2141V12.2551H7.64364V12.2757L7.62311 12.2962L7.60258 12.3372H7.56153V12.3578L7.541 12.3783V12.3988H7.52047V12.4399H7.23308V12.1114L7.27414 12.0704L7.29467 12.0499H7.31519V12.0293H7.33572V12.0088H7.35625V11.9062V11.824V11.7009V11.5777V11.4545V11.3314V11.2082V11.1056V10.9824V10.8592V10.7361V10.6334V10.5103V10.3871V10.2639V10.1613V10.0381V9.91496V9.79179V9.68915V9.56598V9.44282V9.31965V9.19648V9.07331V8.95015V8.82698V8.72434V8.60117V8.47801V8.35484V8.2522V8.12903V8.00587V7.8827V7.78006V7.65689V7.53372V7.41056V7.30792V7.16422V7.04106V6.91789V6.81525V6.69208V6.56892V6.44575V6.34311V6.21994V6.09677V5.97361V5.87097V5.7478V5.62463V5.50147V5.39883V5.27566V5.15249V5.02933V4.90616V4.78299V4.65982V4.53666V4.43402V4.41349H7.31519L7.29467 4.39296V4.37243L7.27414 4.35191V4.33138H7.25361V4.31085L7.23308 4.29032V4.26979L7.21255 4.24927V4.20821L7.19203 4.18768V4.16716H7.1715V4.1261H7.15097V4.10557L7.13044 4.08504H7.10991L7.08939 4.06452V4.02346L7.06886 4.00293V3.9824H7.04833V3.94135L7.0278 3.92082L7.00728 3.90029V3.87977H6.98675V3.85924L6.96622 3.81818L6.94569 3.79765V3.77713L6.88411 3.73607V3.71554H6.86358V3.67449L6.84305 3.65396L6.82253 3.63343V3.6129H6.802V3.59238L6.76094 3.57185V3.55132H6.74041V3.53079L6.71989 3.51026V3.46921L6.69936 3.44868L6.67883 3.42815V3.40762H6.6583L6.59672 3.32551V3.30499L6.57619 3.28446H6.55566V13.3021L6.47355 13.3226L6.39144 13.3842H6.37091C6.04247 13.5621 5.73455 13.6852 5.44716 13.7537L4.46182 13.9589L3.62018 14L2.92223 13.8974C2.47062 13.8016 2.12164 13.6852 1.87531 13.5484L1.58792 13.4047L1.44423 13.3226L1.38264 13.3021V3.26393C1.3279 3.15445 1.34843 3.03812 1.44423 2.91496L1.46475 2.8739L1.58792 2.85337V2.83284L1.85478 2.77126L2.32692 2.73021L2.6759 2.66862L2.88118 2.64809V2.3607L2.94276 2.25806L3.00434 2.17595V1.27273H2.98381L2.75801 1.2522H2.47062V0.964809H2.49115V0.944282H2.5322V0.759531L2.61431 0.554252L2.81959 0.390029H5.24188L5.34452 0.431085V0.513197C5.42663 0.348974 5.52927 0.205279 5.65244 0.0821114V0.0615836V0.0205279H5.71402L5.73455 0V0.0205279H5.93983V0.246334L5.96035 0.266862V0.28739H6.06299V0.307918L6.08352 0.328446V0.390029ZM3.39437 4.53666C3.06593 4.82405 2.80591 5.17986 2.61431 5.60411C2.34061 6.19257 2.20376 6.78788 2.20376 7.39003C2.20376 7.84164 2.2585 8.25904 2.36798 8.64223C2.50483 9.12121 2.77169 9.46334 3.16857 9.66862C3.36016 9.7781 3.57228 9.83969 3.80493 9.85337C3.40806 9.60704 3.19594 9.20332 3.16857 8.64223C3.1412 8.21799 3.29173 7.82796 3.62018 7.47214L3.7844 7.34897C3.63386 7.77322 3.79809 8.21114 4.27707 8.66276C4.50972 8.89541 4.68078 9.16227 4.79027 9.46334C4.84501 9.61388 4.83132 9.71652 4.74921 9.77126C4.92712 9.83969 5.11187 9.76442 5.30346 9.54545L5.32399 9.52493C5.5977 9.34702 5.7756 9.03226 5.85772 8.58065C5.93983 8.04692 5.85087 7.52688 5.59085 7.02053L4.95449 6.09677C4.65341 5.75464 4.44814 5.35093 4.33865 4.88563C4.2018 4.37928 4.27707 3.94819 4.56446 3.59238L3.39437 4.53666ZM6.35038 10.5103V10.4487L4.03074 10.695L1.60845 10.4487V10.4897V10.5308V10.8182V10.8592V10.9003V10.9413V10.9824V11.0235V11.0645V11.1056V11.1466V11.1877V11.2082L4.07179 11.5161L6.35038 11.2287V11.0029V10.9619V10.9413V10.8798V10.8387V10.8182V10.7771V10.7155V10.695V10.654V10.6129V10.5718V10.5103ZM4.87238 9.85337V9.8739L4.97502 9.85337H4.87238ZM4.46182 9.89443V9.8739L4.44129 9.89443H4.46182ZM3.5586 9.95601L3.45596 9.93548L3.43543 9.95601H3.5586Z" fill="white"/>
</svg>
