<svg width="13" height="14" viewBox="0 0 13 14" fill="none" xmlns="http://www.w3.org/2000/svg">
<path d="M11.6182 7.80601C11.0601 6.99195 10.7755 6.38113 10.6996 5.36477C10.6428 4.60522 10.9607 3.72812 10.9607 3.72812C10.5667 3.99169 10.5623 3.96346 10.3022 4.17934C8.94844 5.30317 8.59473 6.42789 8.55333 6.5733C8.55049 6.58362 8.54887 6.58954 8.54887 6.58954L8.55333 6.5733C8.55333 6.5733 9.61141 2.41566 6.66599 0.479595C6.42155 0.318968 5.85773 0 5.85773 0C5.85773 0 7.32013 3.601 4.7018 5.73727C4.18644 3.62461 1.46571 3.59862 1.46571 3.59862C1.46571 3.59862 1.67479 4.33469 1.70838 4.50881C2.14931 6.80477 0.797861 7.53133 0.523362 9.70175C0.554678 9.45265 0.542226 9.55181 0.523176 9.70311C0.523083 9.70362 0.52299 9.70418 0.52299 9.70474C0.523037 9.70446 0.523037 9.70427 0.523083 9.70399C0.52299 9.70465 0.522944 9.70525 0.522898 9.70581C0.30866 11.4097 1.11701 12.7293 2.35922 13.6197C2.41721 13.0183 2.66267 12.4217 3.00379 11.9239C3.38985 11.3608 3.58685 10.9382 3.63912 10.2352C3.67814 9.70973 3.45852 9.10288 3.45852 9.10288C3.73069 9.28539 3.73413 9.26588 3.91399 9.41517C4.6748 10.0468 4.97899 10.6788 5.08172 10.9476C5.08516 10.9455 5.08869 10.9435 5.09241 10.9414C4.96264 10.3531 4.59684 8.06043 6.42945 6.85582C6.59843 6.7449 6.98853 6.52421 6.98853 6.52421C6.98853 6.52421 5.95075 8.80342 8.23548 10.6547C8.18446 9.89705 8.47225 9.19747 9.01079 8.65842C9.30337 8.36582 9.83062 8.22521 9.83062 8.22521C9.83062 8.22521 9.6858 8.73472 9.66266 8.85503C9.35759 10.4437 10.6855 11.679 10.4018 13.1838C10.3486 13.4659 10.2724 13.7396 10.1661 14H10.293C10.9665 13.6388 11.5915 13.169 12.0196 12.5243C12.9936 11.0577 12.5559 9.1739 11.6182 7.80601Z" fill="white"/>
</svg>
