<svg width="38" height="12" viewBox="0 0 38 12" fill="none" xmlns="http://www.w3.org/2000/svg">
<path fill-rule="evenodd" clip-rule="evenodd" d="M0.921025 6.05564C0.986141 6.12076 1.06986 6.15332 1.17219 6.15332C1.27451 6.15332 1.35823 6.12076 1.42335 6.05564C1.49777 5.98122 1.53498 5.8975 1.53498 5.80448C1.53498 5.70216 1.49777 5.61378 1.42335 5.53936C1.35823 5.47425 1.27451 5.44169 1.17219 5.44169C1.06986 5.44169 0.986141 5.47425 0.921025 5.53936C0.846606 5.61378 0.809397 5.70216 0.809397 5.80448C0.809397 5.8975 0.846606 5.98122 0.921025 6.05564ZM35.5954 4.78588L37.6606 5.17657L33.5582 8.31611L26.9164 8.26029C26.8327 8.05564 26.6885 7.99983 26.4838 8.09285L26.3722 8.00913L26.2466 7.96727C26.2001 7.96727 26.1582 7.98123 26.121 8.00913L26.0792 8.06495L25.9675 8.00913L25.6606 7.96727L25.3675 8.00913L25.2559 8.06495L25.2141 8.00913L25.0885 7.96727C25.042 7.96727 25.0001 7.98123 24.9629 8.00913L24.921 8.06495L24.8792 8.00913L24.7536 7.96727C24.7071 7.96727 24.6652 7.98123 24.628 8.00913L24.5861 8.06495L24.4745 8.00913L24.1675 7.96727L23.8606 8.00913C23.8141 8.02774 23.7815 8.04634 23.7629 8.06495L23.7071 8.00913L23.5954 7.96727C23.5396 7.96727 23.4978 7.98123 23.4699 8.00913L23.414 8.06495L23.3722 8.00913L23.2466 7.96727C23.2001 7.96727 23.1582 7.98123 23.121 8.00913L23.0792 8.06495L22.9675 8.00913L22.6745 7.96727L22.3675 8.00913L22.2559 8.06495L22.214 8.00913L22.0885 7.96727L21.9629 8.00913L21.921 8.06495L21.8792 8.00913L21.7536 7.96727L21.628 8.00913L21.5861 8.06495L21.4745 8.00913L21.1675 7.96727L20.8606 8.00913L20.7629 8.06495L20.7071 8.00913L20.5954 7.96727C20.5396 7.96727 20.4978 7.98123 20.4699 8.00913L20.428 8.06495C20.242 7.95332 20.0885 8.03704 19.9675 8.31611H18.3629L18.335 8.48355L18.2373 8.87425C18.1071 9.23704 17.9257 9.42774 17.6931 9.44634C17.5629 9.45564 17.4559 9.43239 17.3722 9.37657L17.1629 9.15332L16.9396 8.83239L16.5908 8.4696C16.2652 8.21843 15.8559 8.0696 15.3629 8.02309C14.9536 7.97657 14.1908 7.99518 13.0745 8.0789L9.8094 8.16262L6.76754 8.12076L6.72568 8.02309C6.69777 7.99518 6.66056 7.98123 6.61405 7.98123L6.51637 8.02309L6.47451 8.12076H6.30707L6.13963 8.13471L6.09777 8.03704L6.00009 7.99518C5.96288 7.99518 5.93033 8.00913 5.90242 8.03704L5.84661 8.13471V8.14867L5.56754 8.16262L5.52568 8.0789C5.49777 8.05099 5.46521 8.03704 5.428 8.03704L5.31637 8.0789L5.27451 8.17657L5.28847 8.20448L5.02335 8.23239L4.98149 8.16262C4.95358 8.13471 4.92102 8.12076 4.88382 8.12076C4.84661 8.12076 4.8094 8.13471 4.77219 8.16262C4.74428 8.19053 4.73033 8.22774 4.73033 8.27425L4.74428 8.30216L4.50707 8.37192L4.47916 8.33006L4.36754 8.2882C4.33033 8.2882 4.29777 8.30216 4.26986 8.33006C4.24195 8.35797 4.228 8.39053 4.228 8.42774L4.24195 8.48355L4.11637 8.55332L4.0187 8.62309L3.93498 8.59518C3.88847 8.59518 3.85126 8.60913 3.82335 8.63704C3.79544 8.66495 3.78149 8.70216 3.78149 8.74867L3.82335 8.84634L3.86521 8.87425L3.85126 8.8882C3.75823 9.05564 3.6373 9.15797 3.48847 9.19518L2.94428 9.16727L2.48382 8.81843L1.74428 7.93936L1.07451 7.06029C1.0187 6.97657 0.995443 6.89285 1.00475 6.80913L1.04661 6.72541L0.78149 6.73936L0.0559082 5.90215L0.78149 4.95332L0.948932 4.93936L0.976838 4.78588C1.02335 4.67425 1.09312 4.59053 1.18614 4.53471L1.91172 4.39518L1.96754 4.50681L2.12102 4.57657L2.26056 4.50681L2.31637 4.36727V4.33936L2.58149 4.31146L2.6373 4.43704C2.67451 4.48355 2.72102 4.50681 2.77684 4.50681L2.93033 4.43704L2.98614 4.2975V4.28355L3.2373 4.25564L3.29312 4.38122C3.33033 4.41843 3.37684 4.43704 3.43265 4.43704L3.58614 4.38122L3.64195 4.24169V4.21378L3.94893 4.18588L4.00475 4.31146C4.04195 4.35797 4.08847 4.38122 4.14428 4.38122L4.28382 4.31146L4.35358 4.17192V4.15797L4.60475 4.14402L4.66056 4.2696L4.81405 4.32541L4.95358 4.2696L5.0094 4.13006V4.11611L5.27451 4.10216L5.33033 4.22774C5.36754 4.26495 5.4187 4.28355 5.48382 4.28355L5.62335 4.22774L5.67916 4.0882V4.07425L8.26056 3.97657L12.7117 4.10216L14.0513 4.18588V4.19983L14.1071 4.35332C14.1443 4.39053 14.1908 4.40913 14.2466 4.40913L14.4001 4.35332L14.4559 4.21378L14.7768 4.22774L14.8327 4.36727L14.9861 4.42309C15.042 4.42309 15.0885 4.40448 15.1257 4.36727L15.1815 4.21378V4.19983L15.5303 4.15797L15.5861 4.28355C15.6234 4.32076 15.6699 4.33936 15.7257 4.33936L15.8652 4.28355L15.935 4.13006V4.10216L16.228 4.03239L16.2838 4.0882C16.321 4.13471 16.3675 4.15797 16.4234 4.15797L16.5629 4.0882L16.6327 3.94867L16.6047 3.85099L16.8978 3.59983L17.0094 3.62774L17.1489 3.57192L17.2047 3.43239L17.1489 3.2789L17.1071 3.25099C17.2373 3.03704 17.3722 2.8975 17.5117 2.83239L17.8047 2.79053C18.0001 2.82774 18.1536 3.04169 18.2652 3.43239L18.3768 3.99053L23.1908 4.03239C26.6978 4.0789 29.2187 4.14402 30.7536 4.22774L35.5954 4.78588Z" fill="white"/>
</svg>
