<svg width="40" height="12" viewBox="0 0 40 12" fill="none" xmlns="http://www.w3.org/2000/svg">
<path fill-rule="evenodd" clip-rule="evenodd" d="M28.3814 5.41398L28.5628 5.33026L28.6465 5.13491L28.5628 4.93956C28.5163 4.89305 28.4558 4.86979 28.3814 4.86979H28.3535H18.4047C18.3395 4.86979 18.2837 4.89305 18.2372 4.93956C18.1814 4.99537 18.1535 5.06049 18.1535 5.13491C18.1535 5.20933 18.1814 5.27444 18.2372 5.33026C18.2837 5.37677 18.3395 5.40467 18.4047 5.41398H28.3535H28.3814ZM39.7256 5.09305L33.4047 8.13491H15.7256L15.4744 7.42328H14.5395V8.33026L14.4837 8.40002H14.107L13.9674 8.17677V7.80002L13.8837 7.66049L13.814 7.84188L13.6186 7.9256C13.5442 7.9256 13.4791 7.8977 13.4233 7.84188L13.3535 7.66049L13.2698 7.84188L13.0744 7.9256C13 7.9256 12.9349 7.8977 12.8791 7.84188L12.8093 7.66049L12.7256 7.84188L12.5302 7.9256C12.4558 7.9256 12.3907 7.8977 12.3349 7.84188L12.2651 7.66049L12.1814 7.84188L11.986 7.9256C11.9116 7.9256 11.8465 7.8977 11.7907 7.84188L11.7209 7.66049L11.6372 7.84188L11.4419 7.9256L11.2605 7.84188C11.2047 7.78607 11.1767 7.7256 11.1767 7.66049L11.093 7.84188L10.9116 7.9256L10.7163 7.84188L10.6326 7.66049L10.5488 7.84188L10.3674 7.9256L10.1721 7.84188C10.1163 7.78607 10.0884 7.7256 10.0884 7.66049L10.0047 7.84188L9.82326 7.9256C9.74884 7.9256 9.68372 7.8977 9.62791 7.84188L9.54419 7.66049L9.47442 7.84188L9.27907 7.9256C9.20465 7.9256 9.13953 7.8977 9.08372 7.84188L9 7.66049L8.93023 7.84188L8.73488 7.9256L8.53954 7.84188L8.46977 7.66049L8.38605 7.84188L8.1907 7.9256C8.11628 7.9256 8.05116 7.8977 7.99535 7.84188L7.92558 7.66049L7.84186 7.84188L7.64651 7.9256C7.57209 7.9256 7.50698 7.8977 7.45116 7.84188L7.3814 7.66049L7.29767 7.84188L7.10233 7.9256L6.90698 7.84188L6.83721 7.66049L6.75349 7.84188C6.69767 7.8977 6.63256 7.9256 6.55814 7.9256C6.48372 7.9256 6.42326 7.8977 6.37674 7.84188C6.32093 7.78607 6.29302 7.7256 6.29302 7.66049L6.2093 7.84188C6.16279 7.8977 6.10233 7.9256 6.02791 7.9256L5.83256 7.84188C5.77674 7.78607 5.74884 7.7256 5.74884 7.66049L5.66512 7.84188L5.48372 7.9256L5.28837 7.84188C5.23256 7.78607 5.20465 7.7256 5.20465 7.66049L5.12093 7.84188C5.07442 7.8977 5.01395 7.9256 4.93954 7.9256C4.86512 7.9256 4.8 7.8977 4.74419 7.84188L4.66047 7.66049L4.5907 7.84188L4.39535 7.9256L4.2 7.84188L4.11628 7.66049L4.04651 7.84188C3.9907 7.8977 3.92558 7.9256 3.85116 7.9256L3.65581 7.84188L3.58605 7.66049L3.50233 7.84188L3.30698 7.9256C3.23256 7.9256 3.16744 7.8977 3.11163 7.84188L3.04186 7.66049L2.95814 7.84188L2.76279 7.9256L2.56744 7.84188L2.49767 7.66049L2.41395 7.84188C2.35814 7.8977 2.29302 7.9256 2.2186 7.9256L2.02326 7.84188L1.95349 7.66049L1.86977 7.84188C1.81395 7.8977 1.74884 7.9256 1.67442 7.9256C1.6 7.9256 1.53953 7.8977 1.49302 7.84188L1.4093 7.66049L1.25581 7.26979L0 6.33491V5.26049L1.45116 4.35351L1.56279 4.15816C1.56279 4.08374 1.58605 4.02328 1.63256 3.97677C1.68837 3.92095 1.75349 3.89305 1.82791 3.89305C1.90233 3.89305 1.96744 3.92095 2.02326 3.97677L2.10698 4.15816C2.10698 4.08374 2.13023 4.02328 2.17674 3.97677C2.23256 3.92095 2.29767 3.89305 2.37209 3.89305C2.44651 3.89305 2.51163 3.92095 2.56744 3.97677L2.63721 4.15816C2.64651 4.08374 2.67442 4.02328 2.72093 3.97677C2.77674 3.92095 2.84186 3.89305 2.91628 3.89305C2.9907 3.89305 3.05581 3.92095 3.11163 3.97677L3.1814 4.15816L3.26512 3.97677C3.32093 3.92095 3.38605 3.89305 3.46047 3.89305C3.53488 3.89305 3.59535 3.92095 3.64186 3.97677L3.72558 4.15816C3.72558 4.08374 3.75349 4.02328 3.8093 3.97677C3.86512 3.92095 3.93023 3.89305 4.00465 3.89305C4.07907 3.89305 4.13953 3.92095 4.18605 3.97677C4.24186 4.02328 4.26977 4.08374 4.26977 4.15816C4.26977 4.08374 4.29767 4.02328 4.35349 3.97677C4.4 3.92095 4.46512 3.89305 4.54884 3.89305C4.62326 3.89305 4.68372 3.92095 4.73023 3.97677L4.81395 4.15816C4.81395 4.08374 4.84186 4.02328 4.89767 3.97677C4.94419 3.92095 5.00465 3.89305 5.07907 3.89305C5.15349 3.89305 5.2186 3.92095 5.27442 3.97677C5.33023 4.02328 5.35814 4.08374 5.35814 4.15816C5.35814 4.08374 5.3814 4.02328 5.42791 3.97677C5.48372 3.92095 5.54884 3.89305 5.62326 3.89305L5.8186 3.97677L5.90233 4.15816C5.90233 4.08374 5.92558 4.02328 5.97209 3.97677C6.02791 3.92095 6.09302 3.89305 6.16744 3.89305C6.24186 3.89305 6.30698 3.92095 6.36279 3.97677C6.4093 4.02328 6.43721 4.08374 6.44651 4.15816C6.44651 4.08374 6.46977 4.02328 6.51628 3.97677C6.57209 3.92095 6.63721 3.89305 6.71163 3.89305C6.78605 3.89305 6.85116 3.92095 6.90698 3.97677L6.9907 4.15816C6.9907 4.08374 7.01395 4.02328 7.06047 3.97677C7.11628 3.92095 7.1814 3.89305 7.25581 3.89305C7.33023 3.89305 7.39535 3.92095 7.45116 3.97677L7.52093 4.15816C7.53023 4.08374 7.55814 4.02328 7.60465 3.97677C7.66047 3.92095 7.72558 3.89305 7.8 3.89305L7.99535 3.97677L8.06512 4.15816L8.14884 3.97677C8.20465 3.92095 8.26977 3.89305 8.34419 3.89305C8.4186 3.89305 8.47907 3.92095 8.52558 3.97677L8.6093 4.15816C8.6093 4.08374 8.63721 4.02328 8.69302 3.97677C8.74884 3.92095 8.81395 3.89305 8.88837 3.89305C8.96279 3.89305 9.02326 3.92095 9.06977 3.97677L9.15349 4.15816C9.15349 4.08374 9.1814 4.02328 9.23721 3.97677C9.28372 3.92095 9.34884 3.89305 9.43256 3.89305C9.50698 3.89305 9.56744 3.92095 9.61395 3.97677L9.69767 4.15816C9.69767 4.08374 9.72558 4.02328 9.7814 3.97677C9.82791 3.92095 9.88837 3.89305 9.96279 3.89305C10.0465 3.89305 10.1116 3.92095 10.1581 3.97677L10.2419 4.15816C10.2419 4.08374 10.2651 4.02328 10.3116 3.97677C10.3674 3.92095 10.4326 3.89305 10.507 3.89305C10.5814 3.89305 10.6465 3.92095 10.7023 3.97677L10.786 4.15816C10.786 4.08374 10.8093 4.02328 10.8558 3.97677C10.9116 3.92095 10.9767 3.89305 11.0512 3.89305C11.1256 3.89305 11.1907 3.92095 11.2465 3.97677L11.3302 4.15816C11.3302 4.08374 11.3535 4.02328 11.4 3.97677C11.4558 3.92095 11.5209 3.89305 11.5953 3.89305C11.6698 3.89305 11.7349 3.92095 11.7907 3.97677L11.8744 4.15816C11.8744 4.08374 11.8977 4.02328 11.9442 3.97677C12 3.92095 12.0651 3.89305 12.1395 3.89305C12.214 3.89305 12.2791 3.92095 12.3349 3.97677L12.4047 4.15816L12.4884 3.97677C12.5442 3.92095 12.6093 3.89305 12.6837 3.89305C12.7581 3.89305 12.8233 3.92095 12.8791 3.97677L12.9488 4.15816L13.0326 3.97677C13.0884 3.92095 13.1535 3.89305 13.2279 3.89305C13.3023 3.89305 13.3628 3.92095 13.4093 3.97677C13.4651 4.02328 13.493 4.08374 13.493 4.15816C13.493 4.08374 13.5209 4.02328 13.5767 3.97677C13.6326 3.92095 13.6977 3.89305 13.7721 3.89305C13.8465 3.89305 13.907 3.92095 13.9535 3.97677L14.0372 4.15816L14.1488 4.26979L15.4326 3.62793H21.0698L22.3395 4.22793H30.1116L39.7256 5.09305ZM15.8093 3.89305C15.7349 3.89305 15.6698 3.92095 15.614 3.97677C15.5674 4.03258 15.5442 4.0977 15.5442 4.17212L15.614 4.35351C15.6698 4.40933 15.7349 4.43723 15.8093 4.43723H15.8233L16.0047 4.35351L16.0884 4.17212L16.0047 3.97677C15.9488 3.92095 15.8884 3.89305 15.8233 3.89305H15.8093ZM19.9953 3.97677C19.9488 3.92095 19.8884 3.89305 19.814 3.89305H16.9535L16.786 3.97677C16.7302 4.03258 16.7023 4.0977 16.7023 4.17212C16.7023 4.24653 16.7302 4.307 16.786 4.35351C16.8326 4.40933 16.8884 4.43723 16.9535 4.43723H19.814C19.8884 4.43723 19.9488 4.40933 19.9953 4.35351L20.0791 4.17212L19.9953 3.97677ZM20.8047 4.35351L20.8884 4.17212L20.8047 3.97677C20.7581 3.92095 20.6977 3.89305 20.6233 3.89305C20.5488 3.89305 20.4837 3.92095 20.4279 3.97677C20.3721 4.03258 20.3442 4.0977 20.3442 4.17212C20.3442 4.24653 20.3721 4.307 20.4279 4.35351L20.6233 4.43723L20.8047 4.35351Z" fill="white"/>
</svg>
