<svg width="39" height="12" viewBox="0 0 39 12" fill="none" xmlns="http://www.w3.org/2000/svg">
<path fill-rule="evenodd" clip-rule="evenodd" d="M36.5582 5.49757L35.2326 6.25106C34.5907 6.58594 34.0233 6.80455 33.5303 6.90687L31.7163 7.26966L29.7349 7.45106L28.2 7.49292H28.0326L26.6233 7.45106L24.3209 7.07432L22.6465 6.68362L22.5628 6.65571L20.5256 6.6278L20.3861 6.43246C20.321 6.46966 20.2279 6.52083 20.107 6.58594L18.9349 7.0185C18.2465 7.26966 17.8744 7.36734 17.8186 7.31153L17.6651 7.08827L17.5535 6.8092L17.2605 6.05571C17.0651 5.63711 16.907 5.35339 16.7861 5.20455C16.6465 5.03711 16.4884 4.89757 16.3116 4.78594C16.1163 4.67432 15.9349 4.6185 15.7675 4.6185L15.1256 4.67432C14.8465 4.74873 14.6465 4.87432 14.5256 5.05106L14.2326 5.52548L14.107 5.77664L13.9116 5.8185L13.6186 5.7906L12.5303 5.59525L11.1209 5.46967L10.3535 5.48362L9.66979 5.59525L8.97211 5.74873L8.59537 5.8185L8.41397 5.80455L8.1349 5.69292L7.67444 5.53943C7.49769 5.51153 7.34421 5.53478 7.21397 5.6092L6.76746 5.91618C6.60932 6.05571 6.48839 6.22315 6.40467 6.4185L6.15351 7.0185L5.94421 7.38129L5.63723 7.45106C5.5163 7.46967 5.42328 7.45106 5.35816 7.39525L4.99537 7.00455C4.80932 6.7999 4.66514 6.68827 4.56281 6.66966L4.18607 6.6278C4.00002 6.63711 3.79072 6.72083 3.55816 6.87897C3.3349 7.0278 2.97676 7.38129 2.48374 7.93943L1.61862 8.95804L0.96281 9.71152L0.376764 10.2139C0.246531 10.2139 0.148857 9.99525 0.0837402 9.55804L0.0976937 8.8185C0.144205 8.38129 0.209322 8.02315 0.293043 7.74408C0.451182 7.25106 0.609322 6.85571 0.767461 6.55804C1.03723 6.0185 1.38607 5.53478 1.81397 5.10687C2.28839 4.65106 2.85118 4.2092 3.50235 3.78129C4.08839 3.3906 4.59537 3.11618 5.02328 2.95804C5.65583 2.72548 6.44188 2.51153 7.38142 2.31618L9.00002 2.02315L12.2651 1.67432L12.4884 1.71618L12.5721 1.77199L13.8698 1.81385L15.1396 1.86967L15.2512 1.78594H16.1442L20.6791 2.13478L20.8047 2.20455C20.8884 2.26036 20.9396 2.32548 20.9582 2.3999C20.9582 2.46501 20.9675 2.47897 20.9861 2.44176L21 2.3999L20.9582 2.17664L22.4791 2.1906V2.4278H22.0326L22.1303 2.63711C22.2233 2.77664 22.3163 2.86036 22.4093 2.88827L24.1814 2.84641L25.7582 2.74873L26.3721 2.66501L27.6698 3.08362L28.2 3.23711C28.9814 3.46036 29.6651 3.61385 30.2512 3.69757L34.6465 4.10222L36.5163 4.0185L38.3023 3.83711L38.2605 3.93478L37.6465 4.57664C37.1721 5.04176 36.8093 5.34873 36.5582 5.49757ZM22.5628 6.65571H22.6047L22.5489 6.6278L22.5628 6.65571Z" fill="white"/>
</svg>
