<svg width="41" height="12" viewBox="0 0 41 12" fill="none" xmlns="http://www.w3.org/2000/svg">
<path fill-rule="evenodd" clip-rule="evenodd" d="M31.8441 6.13948L31.6767 6.26507C31.5743 6.37669 31.5232 6.50227 31.5232 6.64181C31.5232 6.78134 31.5836 6.89297 31.7046 6.97669L31.886 7.07437H32.8208L32.8627 7.04646L32.9743 6.96274C33.0767 6.86041 33.1278 6.73018 33.1278 6.57204C33.1185 6.4139 33.072 6.29297 32.9883 6.20925L32.9046 6.15344L32.8627 6.13948H31.8441ZM39.365 7.42321C38.565 7.89762 37.8953 8.22786 37.3557 8.4139C36.3883 8.75809 35.4488 8.99065 34.5371 9.11158L33.7557 9.16739L19.7325 9.23716L19.6767 9.16739L19.4813 9.04181L19.1883 8.95809L19.0208 8.93018L16.3557 8.94413L16.3418 11.079L16.2441 11.1348L16.0208 11.1906L15.8115 11.1348L15.6999 11.093L15.672 8.88832L15.5464 8.86041L15.5185 8.48367L15.4348 8.65111L13.565 8.60925L13.4953 8.42786L13.3139 8.4139L13.2441 8.62321L11.7371 8.67902L11.6395 8.49762L11.4301 8.48367L11.3325 8.67902H9.76968L9.65806 8.46972H9.53247L9.42085 8.65111L7.95573 8.67902L7.83015 8.49762H7.69061L7.59294 8.69297L6.0441 8.63716L5.90457 8.42786H5.69526L5.59759 8.51158L5.26271 8.67902L4.31387 8.73483L2.8348 8.77669L2.10922 8.74879L1.85805 8.70693L1.77433 8.63716L1.74643 8.5953L1.11852 8.65111L1.04875 8.55344L1.02085 8.49762L1.00689 7.8139L0.923171 7.54879L0.895264 7.22786V6.62786L0.951078 6.15344L1.00689 5.95809V5.21855V5.16274L1.04875 5.03716C1.07666 5.00925 1.10457 4.9953 1.13247 4.9953H1.16038H1.8441L1.99759 4.96739L2.34643 4.92553L3.8534 4.95344L5.17898 4.98134L5.61154 5.16274L5.66736 5.21855L5.90457 5.2046L6.0441 5.00925L7.56503 4.95344L7.69061 5.13483H7.81619L7.96968 4.95344H9.37899L9.50457 5.14879L9.6441 5.16274L9.75573 4.95344L11.3185 4.93948L11.4162 5.13483L11.6255 5.12088L11.7371 4.92553L13.2022 4.98134L13.272 5.16274L13.4674 5.17669L13.5511 4.98134L15.4208 4.92553L15.4906 5.10693L15.5185 4.71623L15.6441 4.70227V0.948786L15.7139 0.892972L15.9092 0.837158L16.1743 0.892972L16.2999 0.948786L16.3418 4.53483H18.6022L18.8674 4.786L19.1325 5.35809L19.2301 5.37204L19.4255 5.31623C19.5278 5.23251 19.5325 5.10227 19.4394 4.92553L19.3278 4.75809L19.272 4.68832L20.6255 4.74414L20.8906 5.26041L20.9325 5.28832L21.0301 5.34414C21.1325 5.39065 21.2208 5.37204 21.2953 5.28832C21.3604 5.2139 21.3557 5.10227 21.2813 4.95344L21.1976 4.79995L21.1557 4.74414L22.0208 4.82786L22.286 5.33018L22.3139 5.35809L22.4115 5.386C22.5139 5.4046 22.5929 5.36739 22.6488 5.27437C22.7046 5.19065 22.6999 5.08832 22.6348 4.96739L22.565 4.85576L22.5371 4.8139H23.3743L23.6115 5.30227L23.6395 5.33018L23.7371 5.37204C23.8301 5.39995 23.9232 5.36274 24.0162 5.26041C24.072 5.1953 24.0627 5.09762 23.9883 4.96739L23.9185 4.85576L23.8767 4.79995H24.7418L24.965 5.26041L25.0069 5.30227L25.1185 5.35809C25.2301 5.4046 25.3232 5.36274 25.3976 5.23251C25.4348 5.16739 25.4255 5.07437 25.3697 4.95344L25.2999 4.85576L25.2581 4.8139L25.9976 4.786L26.1929 5.26041L26.2348 5.28832L26.3604 5.34414C26.4999 5.38134 26.6022 5.35809 26.6674 5.27437C26.7232 5.20925 26.7139 5.10693 26.6395 4.96739L26.5557 4.82786L26.5139 4.77204L27.2813 4.79995L27.5464 5.27437L27.5743 5.31623L27.672 5.35809C27.7743 5.386 27.8581 5.35344 27.9232 5.26041C27.9883 5.16739 27.9836 5.06507 27.9092 4.95344L27.8115 4.85576L27.7697 4.82786L28.6208 4.84181L28.8301 5.24646L28.872 5.26041L28.9557 5.28832C29.0488 5.28832 29.1139 5.25111 29.1511 5.17669C29.1976 5.09297 29.1976 5.0046 29.1511 4.91158L29.0813 4.8139L29.0534 4.786L29.9743 4.77204L37.7604 6.16739L40.4115 6.78134L39.365 7.42321Z" fill="white"/>
</svg>
