<svg width="39" height="12" viewBox="0 0 39 12" fill="none" xmlns="http://www.w3.org/2000/svg">
<path fill-rule="evenodd" clip-rule="evenodd" d="M15.2202 4.19126C14.8283 4.36368 13.3549 4.66147 12.6809 4.66147C12.0069 4.66147 10.8157 4.57526 10.0633 4.47338C9.31096 4.3715 7.53976 4.0972 7.53976 4.0972C7.53976 4.0972 5.26699 4.05018 4.73407 4.0972C4.20114 4.14422 3.4958 4.28529 3.4958 4.28529C3.4958 4.28529 2.69641 4.44203 1.31707 5.069C-0.0622607 5.69598 0.000435378 6.38564 0.000435378 6.38564C0.000435378 6.38564 -0.0309124 6.84021 0.502013 7.20072C0.738242 7.36052 0.857405 7.45502 0.946919 7.526C1.05935 7.61515 1.125 7.66721 1.31707 7.765C2.17915 8.20388 3.4958 8.47034 3.4958 8.47034C3.4958 8.47034 3.40176 8.51736 4.73407 8.70545C6.06637 8.89354 7.53976 8.76815 7.53976 8.76815L10.0633 8.42332C10.0633 8.42332 11.5994 8.23522 12.6809 8.28225C13.7624 8.32927 14.3111 8.47034 15.2202 8.83085C15.8465 9.07924 16.339 9.55831 16.6206 9.83225C16.7477 9.9559 16.8318 10.0378 16.866 10.0378C16.907 10.0378 16.997 9.96035 17.1179 9.85628L17.1179 9.85627C17.3202 9.68227 17.609 9.43377 17.9005 9.3481C18.1063 9.2876 18.3522 9.28087 18.5133 9.27646C18.5741 9.2748 18.6228 9.27347 18.6528 9.26971C18.7209 9.26119 18.8227 9.1787 18.8984 9.11735C18.9447 9.07987 18.9812 9.05027 18.9944 9.05027H23.073C23.073 9.05027 27.2737 8.92489 30.675 8.59573C34.0763 8.26657 38.23 6.63643 38.23 6.63643C38.23 6.63643 34.4525 5.10037 30.675 4.66149C26.8975 4.22261 23.0573 4.05019 23.0573 4.05019C23.0573 4.05019 18.9663 3.97182 18.9506 3.97182C18.9452 3.97182 18.936 3.95293 18.923 3.92629C18.8985 3.87621 18.8607 3.79875 18.8096 3.76804C18.7728 3.74596 18.6116 3.74116 18.4315 3.73579C18.228 3.72973 18.0003 3.72295 17.9005 3.68968C17.8146 3.66106 17.6339 3.5148 17.4481 3.36429L17.4481 3.36428L17.448 3.36427C17.2268 3.18514 16.9982 3 16.913 3C16.8363 3 16.523 3.24407 16.1772 3.5135L16.1772 3.51351C15.8164 3.79457 15.4202 4.10323 15.2202 4.19126ZM2.11632 6.38579C2.11632 6.71474 1.84965 6.98141 1.5207 6.98141C1.19175 6.98141 0.925077 6.71474 0.925077 6.38579C0.925077 6.05683 1.19175 5.79016 1.5207 5.79016C1.84965 5.79016 2.11632 6.05683 2.11632 6.38579ZM16.4112 8.54875C17.5365 8.54875 18.4488 7.63646 18.4488 6.5111C18.4488 5.38573 17.5365 4.47344 16.4112 4.47344C15.2858 4.47344 14.3735 5.38573 14.3735 6.5111C14.3735 7.63646 15.2858 8.54875 16.4112 8.54875ZM20.8925 6.51121C20.8925 6.77091 20.6819 6.98144 20.4222 6.98144C20.1625 6.98144 19.952 6.77091 19.952 6.51121C19.952 6.25151 20.1625 6.04098 20.4222 6.04098C20.6819 6.04098 20.8925 6.25151 20.8925 6.51121ZM22.0025 6.88709C22.2102 6.88709 22.3787 6.71866 22.3787 6.5109C22.3787 6.30314 22.2102 6.13472 22.0025 6.13472C21.7947 6.13472 21.6263 6.30314 21.6263 6.5109C21.6263 6.71866 21.7947 6.88709 22.0025 6.88709ZM23.7112 6.51105C23.7112 6.70149 23.5568 6.85588 23.3664 6.85588C23.1759 6.85588 23.0216 6.70149 23.0216 6.51105C23.0216 6.3206 23.1759 6.16621 23.3664 6.16621C23.5568 6.16621 23.7112 6.3206 23.7112 6.51105ZM24.6835 6.79324C24.8307 6.79324 24.95 6.67394 24.95 6.52678C24.95 6.37962 24.8307 6.26032 24.6835 6.26032C24.5363 6.26032 24.417 6.37962 24.417 6.52678C24.417 6.67394 24.5363 6.79324 24.6835 6.79324Z" fill="white"/>
</svg>
