<svg width="40" height="12" viewBox="0 0 40 12" fill="none" xmlns="http://www.w3.org/2000/svg">
<path fill-rule="evenodd" clip-rule="evenodd" d="M2.63722 7.10216C2.75815 7.21378 2.90233 7.2696 3.06978 7.2696C3.23722 7.2696 3.37675 7.21378 3.48838 7.10216C3.60931 6.98123 3.66978 6.83704 3.66978 6.6696C3.66978 6.50216 3.60931 6.36262 3.48838 6.25099C3.37675 6.13006 3.23722 6.0696 3.06978 6.0696C2.90233 6.0696 2.75815 6.13006 2.63722 6.25099C2.52559 6.36262 2.46978 6.50216 2.46978 6.6696C2.46978 6.83704 2.52559 6.98123 2.63722 7.10216ZM1.39536 5.30216C1.33024 5.30216 1.27443 5.32541 1.22791 5.37192C1.1814 5.41843 1.15815 5.47425 1.15815 5.53936L1.22791 5.70681L1.39536 5.77657L1.54884 5.70681L1.61861 5.53936L1.54884 5.37192L1.39536 5.30216ZM15.9349 5.30216C15.7675 5.30216 15.6279 5.36262 15.5163 5.48355C15.3954 5.59518 15.3349 5.73471 15.3349 5.90216C15.3349 6.0696 15.3954 6.21378 15.5163 6.33471C15.6279 6.44634 15.7675 6.50216 15.9349 6.50216C16.1023 6.50216 16.2465 6.44634 16.3675 6.33471C16.4791 6.21378 16.5349 6.0696 16.5349 5.90216C16.5349 5.73471 16.4791 5.59518 16.3675 5.48355C16.2465 5.36262 16.1023 5.30216 15.9349 5.30216ZM30.1395 5.34402L30.2093 5.16262L30.1395 4.96727L29.9581 4.88355L22.7721 4.66029C22.6512 4.6696 22.5442 4.72076 22.4512 4.81378C22.3395 4.91611 22.2837 5.04169 22.2837 5.19053C22.2837 5.33006 22.3395 5.45099 22.4512 5.55332C22.5442 5.64634 22.6512 5.6975 22.7721 5.70681L29.9581 5.42774L30.1395 5.34402ZM39.7954 4.06029L36.1814 7.6603C33.0372 8.83239 29.7116 9.15797 26.2047 8.63704L26.107 8.55332C26.0326 8.4882 25.9628 8.45099 25.8977 8.44169L25.6884 8.4975L25.5907 8.55332L25.5349 8.48355C25.4791 8.42774 25.4233 8.39983 25.3675 8.39983L25.2558 8.45564L25.2279 8.51146L25.1861 8.44169C25.1488 8.38588 25.1023 8.35797 25.0465 8.35797C25 8.35797 24.9628 8.37657 24.9349 8.41378L24.907 8.4696L24.7954 8.38588L24.5442 8.2882C24.4698 8.2882 24.414 8.31146 24.3768 8.35797C24.3488 8.37657 24.3349 8.39983 24.3349 8.42774L24.2651 8.35797L24.1116 8.2882L24.014 8.35797L24 8.42774L23.9581 8.35797C23.9209 8.31146 23.8791 8.2882 23.8326 8.2882L23.7349 8.35797L23.707 8.42774L23.6372 8.37192L23.4 8.30216C23.3163 8.31146 23.2512 8.34402 23.2047 8.39983L23.1488 8.48355L23.107 8.42774L22.9675 8.38588L22.8837 8.48355L22.8698 8.56727L22.814 8.51146L22.6744 8.4975C22.6372 8.51611 22.614 8.55332 22.6047 8.60913V8.69285L22.493 8.65099L22.2419 8.6789C22.1674 8.71611 22.1209 8.77192 22.1023 8.84634L22.0884 8.95797L21.9628 9.02774L21.6419 8.6789C21.3907 8.44634 21.1814 8.36727 21.014 8.44169C20.8372 8.50681 20.7116 8.6789 20.6372 8.95797L20.5814 9.36262H20.0233C19.9768 9.05564 19.8512 8.99518 19.6465 9.18123L19.4372 9.0975C19.4186 8.79053 19.2837 8.72541 19.0326 8.90216L18.8512 8.81843C18.814 8.53006 18.6791 8.4696 18.4465 8.63704L18.2372 8.58123C18.2186 8.30216 18.0837 8.24169 17.8326 8.39983L16.9954 8.09285C16.3349 7.8975 15.7768 7.81378 15.3209 7.84169C14.8465 7.8696 14.2744 7.99983 13.6047 8.23239L12.6279 8.58123L11.9861 8.45564L10.9675 8.14867C9.90699 7.8603 8.82791 7.76727 7.73024 7.8696C7.03257 7.92541 5.94884 8.14867 4.47908 8.53936L2.30233 9.12541L1.91164 9.15332L1.71629 9.13936L1.3814 8.63704L1.29768 7.21378L1.07443 6.71146C0.925589 6.32076 0.860473 5.98588 0.879077 5.70681C0.88838 5.38123 1.09303 5.14402 1.49303 4.99518L2.07908 4.85564L2.17675 4.70216C2.26978 4.58123 2.7628 4.41843 3.65582 4.21378C4.67908 3.97192 5.81861 3.78123 7.07443 3.64169L10.7163 3.41843C11.3581 3.40913 11.8884 3.41378 12.307 3.43239C12.9116 3.46029 13.4651 3.53471 13.9675 3.65564L14.5256 3.82309L15.307 3.8789L15.3488 3.99053C15.3954 4.06495 15.4605 4.10681 15.5442 4.11611L15.7256 4.00448L15.7535 3.90681L16.0186 3.93471L16.0744 4.03239C16.1116 4.0975 16.1674 4.13006 16.2419 4.13006C16.3163 4.13006 16.3721 4.10216 16.4093 4.04634L16.4372 3.94867H16.7023L16.7721 4.04634C16.8372 4.11146 16.907 4.13936 16.9814 4.13006L17.1349 4.01843L17.1628 3.90681L17.414 3.86495L17.5116 3.93471L17.707 3.97657C17.7628 3.95797 17.8 3.90216 17.8186 3.80913V3.6975L18.014 3.62774L18.1256 3.68355L18.3349 3.6975L18.4186 3.53006L18.4047 3.41843L18.6 3.30681L18.7256 3.33471L18.9349 3.32076L18.9907 3.15332L18.9628 3.02774C19.1209 2.95332 19.2744 2.87425 19.4233 2.79053L19.493 2.94402L19.7861 3.23704C19.907 3.31146 20.0512 3.36727 20.2186 3.40448L20.4419 3.43239L28.6884 3.25099L29.3861 3.64169L30.8093 4.32541C31.6093 4.64169 32.107 4.61378 32.3023 4.24169C32.3675 4.13006 32.2837 3.93936 32.0512 3.6696L31.6744 3.29285C34.3814 3.36727 37.0884 3.62309 39.7954 4.06029Z" fill="white"/>
</svg>
