<svg width="39" height="12" viewBox="0 0 39 12" fill="none" xmlns="http://www.w3.org/2000/svg">
<path fill-rule="evenodd" clip-rule="evenodd" d="M16.3629 5.44195L16.321 5.30242L16.335 5.16288H15.1629V5.4559L16.3629 5.44195ZM37.014 3.0559L38.9675 2.51172L37.4605 3.69777C36.3722 4.54428 35.628 5.08846 35.228 5.33032C34.6326 5.69311 33.9954 6.04195 33.3164 6.37683C32.4233 6.80474 31.5861 7.13497 30.8047 7.36753C30.0326 7.59079 29.0652 7.80474 27.9024 8.00939L26.814 8.17683L26.3815 8.2466L26.228 8.12102C26.107 8.0373 25.9908 8.00009 25.8791 8.00939C25.7675 8.028 25.6419 8.08846 25.5024 8.19079L25.307 8.34428L25.1396 8.2466L24.7768 8.17683C24.6652 8.19544 24.5396 8.2466 24.4001 8.33032L24.2187 8.4559L24.0652 8.35823L23.7303 8.28846C23.6373 8.28846 23.5257 8.33032 23.3954 8.41404L23.228 8.53963L23.0466 8.428L22.6698 8.34428L22.3768 8.46986L22.2373 8.58149L22.0698 8.48381L21.721 8.37218C21.6094 8.37218 21.4884 8.41404 21.3582 8.49777L21.2466 8.56753L21.2047 8.59544L20.9815 8.48381L20.5768 8.35823C20.4931 8.35823 20.3861 8.40474 20.2559 8.49777L20.0884 8.6373H18.6931L18.5536 8.07916L17.7861 8.8466L17.7024 8.86056H17.4373L17.1861 8.80474L17.1303 8.77683L16.7396 8.16288C16.414 7.75358 16.0745 7.51637 15.721 7.45125C15.2931 7.39544 14.8652 7.46521 14.4373 7.66056C14.3071 7.72567 14.1908 7.79544 14.0884 7.86986L13.9489 7.98149L13.7536 7.99544C13.614 7.90242 13.4373 7.8187 13.2233 7.74428C12.7768 7.58614 12.3536 7.53497 11.9536 7.59079C11.5536 7.6466 11.1582 7.78614 10.7675 8.00939L10.3071 8.33032L10.1117 8.35823C9.84194 8.2466 9.50705 8.13963 9.10705 8.0373C8.28845 7.83265 7.521 7.75358 6.80473 7.80009L6.07914 7.88381C5.80938 7.93032 5.53031 8.0187 5.24194 8.14893C4.94426 8.27916 4.57217 8.51637 4.12566 8.86056C3.9024 9.028 3.70705 9.18149 3.53961 9.32102L2.73031 9.60009L2.56287 9.58614L2.21403 9.54428L1.8931 9.41869L1.75356 9.34893L1.65589 8.91637L1.18147 8.67916L1.0838 8.59544L0.972168 8.35823L0.986121 8.16288L1.00007 8.09311L1.40473 7.49311C1.73031 7.028 2.06054 6.64195 2.39542 6.33497C2.76752 6.00009 3.08845 5.75358 3.35821 5.59544C3.56287 5.4559 3.80938 5.33963 4.09775 5.2466C5.00938 4.90242 5.81403 4.6466 6.5117 4.47916L8.26984 4.20009L10.7396 4.0466H10.7815L12.8326 3.99079H13.1954L15.135 3.97683H16.7117H16.7815C17.1536 3.98614 17.4791 4.05125 17.7582 4.17218L18.0931 4.35358L18.2047 4.21404L18.3164 4.32567L18.414 4.21404L18.5536 4.31172L18.6233 4.24195L18.735 4.28381L18.7768 4.17218L18.9024 4.24195L18.9722 4.14428L19.0977 4.228L19.1536 4.10242L19.321 4.15823L19.3489 4.03265L19.5024 4.10242V3.93497L19.6698 3.99079V3.86521L19.8512 3.87916L20.1164 3.68381L20.3675 3.75358L21.1071 3.92102L23.8559 4.31172L26.4931 4.42335L27.4698 4.39544L28.4466 4.35358L30.9722 4.17218L33.5954 3.8373C34.4047 3.71637 35.5443 3.4559 37.014 3.0559Z" fill="white"/>
</svg>
