<svg width="27" height="12" viewBox="0 0 27 12" fill="none" xmlns="http://www.w3.org/2000/svg">
<path fill-rule="evenodd" clip-rule="evenodd" d="M2.23265 7.2697C2.08382 7.36272 1.93498 7.48365 1.78614 7.63249C1.65591 7.76272 1.56288 7.89761 1.50707 8.03714C1.46986 8.13947 1.428 8.32086 1.38149 8.58133C1.34428 8.79528 1.34428 8.98133 1.38149 9.13947L1.54893 9.61388C1.62335 9.80923 1.77684 9.99063 2.0094 10.1581C2.25126 10.3348 2.50242 10.4511 2.76288 10.5069L3.53033 10.4371C3.77219 10.3441 3.97684 10.2139 4.14428 10.0464C4.33033 9.8604 4.46056 9.67435 4.53498 9.4883C4.60009 9.29295 4.63265 9.05109 4.63265 8.76272C4.63265 8.47435 4.55358 8.20458 4.39544 7.95342C4.25591 7.71156 4.05591 7.49761 3.79544 7.31156C3.6094 7.18133 3.39544 7.10691 3.15358 7.0883L2.65126 7.10226C2.53033 7.11156 2.39079 7.16737 2.23265 7.2697ZM26.4978 9.47435C26.2559 9.09296 25.9071 8.6697 25.4513 8.20458C24.521 7.28365 23.5071 6.60923 22.4094 6.18133C21.4047 5.79993 20.5861 5.55807 19.9536 5.45575L19.1722 5.38598H18.4606C17.614 5.40458 16.7582 5.53016 15.8931 5.76272L15.1117 5.99993L14.8327 6.11156L14.8606 6.20923L14.8187 6.36272L14.414 6.55807L14.0094 6.68365C13.9536 6.67435 13.9071 6.62784 13.8699 6.54412L13.7722 6.30691C13.6978 6.08365 13.5582 5.85109 13.3536 5.60923C13.028 5.21854 12.6652 4.99993 12.2652 4.95342C11.7071 4.879 11.2187 5.0604 10.8001 5.49761C10.6699 5.62784 10.5536 5.77668 10.4513 5.94412L10.3396 6.16737L9.85126 6.01389C9.44195 5.94877 9.04195 6.00458 8.65126 6.18133C8.32568 6.33016 8.04195 6.56737 7.80009 6.89295L7.59079 7.19993L7.52102 7.32551L7.0187 7.28365C6.64661 7.27435 6.36754 7.32551 6.18149 7.43714C5.99544 7.54877 5.82335 7.73016 5.66521 7.98133L5.51172 8.24644L5.44195 8.41388L5.34428 8.48365L5.30242 8.45575V8.679L5.26056 9.15342C5.22335 9.32086 5.11637 9.54877 4.93963 9.83714L4.53498 10.3953C4.38614 10.5441 4.18614 10.6744 3.93498 10.786C3.59079 10.9534 3.25126 11.0325 2.91637 11.0232C2.6094 11.0139 2.19079 10.8697 1.66056 10.5906L1.17219 10.2976L0.976838 10.1581L0.111722 9.96272L0.0559082 9.82319L0.334978 9.37668C0.539629 9.02319 0.669862 8.72551 0.725676 8.48365L0.990792 7.56272L1.13033 7.07435L1.42335 6.92086L1.26986 6.75342L1.36754 6.41854C1.46056 6.20458 1.53498 6.0883 1.59079 6.0697H1.77219L1.92568 6.02784L2.06521 5.87435L2.05126 5.76272C2.07916 5.69761 2.13033 5.66505 2.20475 5.66505L2.35823 5.70691L2.49777 5.69295L2.56754 5.48365C2.59544 5.38133 2.63265 5.31621 2.67916 5.2883C2.75358 5.23249 2.84195 5.23249 2.94428 5.2883C2.99079 5.32551 3.028 5.34412 3.05591 5.34412L3.16754 5.31621L3.25126 5.10691C3.24195 5.03249 3.27916 4.96737 3.36288 4.91156L3.60009 4.88365L3.68382 4.91156L3.72568 4.92551L3.78149 4.79993L3.8094 4.63249C3.90242 4.53947 3.99079 4.49761 4.07451 4.50691H4.17219L4.28381 4.46505L4.38149 4.33947L4.4373 4.25575L4.63265 4.14412L4.80009 4.0604L4.828 3.96272L5.48382 3.59993C6.00475 3.31156 6.50242 3.0697 6.97684 2.87435C7.44195 2.679 8.08381 2.47435 8.90242 2.2604L10.0047 1.99528L10.4234 2.19063L10.6187 2.13482L10.814 2.14877L11.2885 2.19063L12.5861 2.10691C13.135 1.98598 13.5861 1.80458 13.9396 1.56272L14.3164 1.22784L15.1815 1.11621L15.335 1.31156L15.3489 1.46505L17.3303 1.61854L19.1024 1.96737C19.6327 2.12551 20.2001 2.33947 20.8047 2.60923L22.1303 3.33482C22.4838 3.57668 22.8466 3.85109 23.2187 4.15807C23.6466 4.53016 24.0047 4.88365 24.2931 5.21854C25.1117 6.18598 25.7257 7.18598 26.135 8.21854C26.3396 8.73016 26.4606 9.14877 26.4978 9.47435Z" fill="white"/>
</svg>
