<svg width="36" height="12" viewBox="0 0 36 12" fill="none" xmlns="http://www.w3.org/2000/svg">
<path fill-rule="evenodd" clip-rule="evenodd" d="M23.7932 4.32546H28.7467L31.5234 4.59058C33.5048 4.88825 34.8304 5.32546 35.5001 5.90221C34.7467 6.56267 33.4862 7.01849 31.7187 7.26965L28.8583 7.465H23.7932C23.7653 7.26965 23.7141 7.17197 23.6397 7.17197C23.5653 7.17197 23.5141 7.26965 23.4862 7.465H23.4583C23.4304 7.26965 23.3792 7.17197 23.3048 7.17197C23.2304 7.17197 23.1792 7.26965 23.1513 7.465H23.0118C22.9374 7.26965 22.8304 7.17197 22.6908 7.17197C22.5513 7.17197 22.4443 7.26965 22.3699 7.465H22.2304C22.2025 7.26965 22.1513 7.17197 22.0769 7.17197C22.0025 7.17197 21.9513 7.26965 21.9234 7.465H21.8955C21.8676 7.26965 21.8164 7.17197 21.742 7.17197C21.6676 7.17197 21.6164 7.26965 21.5885 7.465H21.449C21.3932 7.26965 21.2862 7.17197 21.128 7.17197C20.9885 7.17197 20.8815 7.26965 20.8071 7.465H20.6815C20.635 7.26965 20.5792 7.17197 20.5141 7.17197C20.4397 7.17197 20.3885 7.26965 20.3606 7.465H20.3467C20.3187 7.26965 20.2676 7.17197 20.1932 7.17197C20.128 7.17197 20.0722 7.26965 20.0257 7.465H19.8862C19.8304 7.26965 19.7281 7.17197 19.5792 7.17197C19.4211 7.17197 19.3141 7.26965 19.2583 7.465H19.1187C19.0908 7.26965 19.0397 7.17197 18.9653 7.17197C18.8908 7.17197 18.8397 7.26965 18.8118 7.465H18.7839C18.756 7.26965 18.7048 7.17197 18.6304 7.17197C18.556 7.17197 18.5048 7.26965 18.4769 7.465H17.2908C17.1513 7.38128 17.0397 7.34872 16.956 7.36732C16.7792 7.44174 16.6536 7.4929 16.5792 7.52081L16.328 7.54872V7.74407L15.5885 9.87895L14.7513 9.64174C14.8908 9.44639 14.9746 9.21383 15.0025 8.94407C15.0583 8.42314 14.8118 8.00918 14.2629 7.70221C13.2304 7.57197 12.4304 7.58593 11.8629 7.74407C11.6304 7.81849 10.3699 7.84174 8.08154 7.81383C5.69084 7.78593 4.39316 7.68825 4.18851 7.52081L3.82572 7.53476L3.71409 7.61849C3.12805 8.13942 2.76991 8.39988 2.63968 8.39988C2.04433 8.39988 1.64898 8.13942 1.45363 7.61849C1.31409 7.265 1.23037 6.82779 1.20247 6.30686H1.17456C1.05363 6.30686 0.993164 6.19988 0.993164 5.98593C0.993164 5.77197 1.05363 5.665 1.17456 5.665H1.20247C1.23037 5.08825 1.342 4.69756 1.53735 4.4929C1.76991 4.24174 1.96061 4.0836 2.10944 4.01849L2.66758 3.94872C2.86293 3.95802 3.04433 3.99988 3.21177 4.0743L3.67223 4.35337L5.73735 4.15802L9.00247 4.01849L13.8583 4.18593C14.5374 4.04639 15.0164 3.82314 15.2955 3.51616C15.5653 3.21849 15.7746 2.69756 15.9234 1.95337L16.6908 2.12081L16.7327 2.58128L16.3839 3.59988L16.342 4.29756L16.5932 4.40918L16.942 4.50686L17.3606 4.32546H18.4769C18.5141 4.52081 18.5653 4.61849 18.6304 4.61849C18.7048 4.61849 18.756 4.52081 18.7839 4.32546H18.8118C18.849 4.52081 18.9001 4.61849 18.9653 4.61849L19.1187 4.32546H19.2583C19.342 4.52081 19.449 4.61849 19.5792 4.61849C19.7001 4.61849 19.8025 4.52081 19.8862 4.32546H20.0397C20.0769 4.52081 20.128 4.61849 20.1932 4.61849L20.3467 4.32546H20.3606C20.4071 4.52081 20.4583 4.61849 20.5141 4.61849C20.5885 4.61849 20.6397 4.52081 20.6676 4.32546H20.8211C20.9048 4.52081 21.0071 4.61849 21.128 4.61849C21.2583 4.61849 21.3653 4.52081 21.449 4.32546H21.5885C21.635 4.52081 21.6862 4.61849 21.742 4.61849C21.8164 4.61849 21.8676 4.52081 21.8955 4.32546H21.9234C21.9606 4.52081 22.0118 4.61849 22.0769 4.61849C22.1513 4.61849 22.2025 4.52081 22.2304 4.32546H22.3839C22.449 4.52081 22.5513 4.61849 22.6908 4.61849C22.8304 4.61849 22.9327 4.52081 22.9978 4.32546H23.1513C23.1885 4.52081 23.2397 4.61849 23.3048 4.61849C23.3792 4.61849 23.4304 4.52081 23.4583 4.32546H23.4862C23.5234 4.52081 23.5746 4.61849 23.6397 4.61849C23.6955 4.61849 23.7467 4.52081 23.7932 4.32546Z" fill="white"/>
</svg>
