<svg width="39" height="12" viewBox="0 0 39 12" fill="none" xmlns="http://www.w3.org/2000/svg">
<path fill-rule="evenodd" clip-rule="evenodd" d="M35.6675 6.58593L34.2164 7.03244C33.1001 7.34872 32.1745 7.56732 31.4396 7.68825L28.6489 7.93942L27.5745 7.98128H27.1559L27.0861 7.78593C27.0024 7.62779 26.8722 7.4836 26.6955 7.35337C26.5373 7.22314 26.3373 7.13011 26.0955 7.0743L25.8862 7.04639L18.0443 7.00453L17.9187 7.06035L17.8629 7.13011L17.8489 7.17197L17.6675 8.03709L17.3745 9.2929L17.3327 9.40453L17.2629 9.50221L16.9978 9.58593L16.8024 9.61383L16.4117 9.59988L15.8536 9.55802L15.7559 9.50221L15.6861 9.40453C15.6861 9.33011 15.7373 9.22314 15.8396 9.0836L16.0489 8.84639L16.3141 8.49756L16.5652 8.00918V7.63244L16.5513 7.38128H16.4675L16.2722 7.14407L15.9234 6.76732L15.4908 6.48825C15.2396 6.37663 14.9652 6.32546 14.6675 6.33476C14.3792 6.35337 14.1187 6.45104 13.8861 6.62779C13.635 6.80453 13.4489 7.04639 13.328 7.35337L13.0908 7.95337L13.021 8.07895L12.9652 8.12081L12.8396 8.16267C12.7931 8.16267 12.7327 8.12546 12.6582 8.05104L12.3931 7.66035L12.2536 7.40918L12.1001 7.14407C11.9606 6.95802 11.7792 6.80453 11.5559 6.6836C11.3048 6.55337 11.0722 6.4743 10.8582 6.44639C10.5885 6.41849 10.3466 6.47895 10.1327 6.62779L9.57452 7.01849L9.26754 7.22779L9.05824 7.24174L8.82103 7.14407L8.37452 7.00453L7.67685 6.94872L7.10475 7.08825C6.95592 7.15337 6.80708 7.24639 6.65824 7.36732L6.33731 7.64639C6.25359 7.71151 6.17452 7.75802 6.1001 7.78593L5.6815 7.91151L5.36057 7.96732L4.84429 8.13476C4.68615 8.21849 4.51871 8.35337 4.34196 8.53942L3.96522 9.01383L3.47685 9.6557L3.04429 9.82314L2.79313 9.76732L1.46754 7.64639L1.0908 7.17197L0.825684 6.76732L0.867544 6.48825L1.00708 6.20918L1.2722 5.90221L1.62103 5.51151L1.8722 5.12081L2.09545 4.78593L2.31871 4.63244L2.48615 4.60453L2.79313 4.57662L3.43499 4.465L4.07685 4.29756L4.88615 3.96267C5.34196 3.75802 5.70475 3.59988 5.97452 3.48825L6.99313 3.12546L7.83034 2.8743L8.72336 2.76267C9.06754 2.73476 9.40243 2.73011 9.72801 2.74872L10.5652 2.86035L11.3885 2.94407L12.3234 2.95802L13.1745 2.91616L13.5094 2.88825L13.5234 2.80453L13.6071 2.79058L13.6489 2.8743L13.7885 2.86035V2.77663L13.9001 2.74872L13.928 2.84639L14.0675 2.83244V2.73476L14.1792 2.72081L14.1931 2.81849L14.3327 2.80453V2.6929H14.4303L14.4443 2.76267L14.5699 2.74872V2.63709L14.6815 2.62314L14.6955 2.72081L14.8071 2.70686V2.56732L14.9048 2.55337L14.9327 2.665L15.0443 2.63709V2.49756H15.142L15.1699 2.59523H15.2536L15.2675 2.46965L15.3792 2.45569L15.3931 2.56732L15.4768 2.53942V2.44174L15.5745 2.42779L15.6024 2.49756L15.742 2.45569L15.9513 2.35802L16.0768 2.2743L16.1745 2.19058L16.3141 2.16267L16.4117 2.17662L16.6071 2.065L16.8024 1.96732L17.0117 1.95337L17.1792 1.99523L17.3745 2.0929L17.6536 2.19058H17.8629L17.9885 2.16267C18.0443 2.16267 18.1466 2.21383 18.2955 2.31616L18.5187 2.4836L19.621 2.6929L21.3094 3.01383L22.7885 3.15337L24.0443 3.16732C24.7234 3.14872 25.2861 3.04174 25.7327 2.84639L26.3466 2.53942L26.8489 2.28825L27.1001 2.24639L27.3094 2.28825L27.3792 2.39988L27.4768 2.59523C27.5606 2.77197 27.6396 2.8743 27.7141 2.90221L27.9513 2.88825L28.0768 2.70686V2.4836L28.0489 2.39988H28.1885L28.2443 2.51151L28.3699 2.73476L28.4955 2.95802L28.6768 3.06965L28.928 3.05569C29.0303 3.02779 29.0815 2.96267 29.0815 2.86035L29.0536 2.56732L29.0117 2.46965L29.1792 2.49756L29.2489 2.60918L29.3885 2.81849L29.5001 3.02779L29.6815 3.15337L29.8908 3.13942L30.0164 2.99988L29.9885 2.74872L29.9187 2.60918L30.0582 2.62314L30.128 2.72081L30.2257 2.88825L30.3094 3.06965L30.4768 3.20918L30.9094 3.18128L30.9792 3.04174L30.9652 2.8743L30.8955 2.72081L30.8396 2.665L31.035 2.67895L31.1048 2.80453L31.2164 3.04174L31.328 3.20918L31.4675 3.2929L31.635 3.34872L31.7885 3.30686C31.8629 3.25104 31.8955 3.16732 31.8862 3.05569L31.8164 2.88825L31.7606 2.79058L31.9141 2.80453L31.9838 2.91616L32.0815 3.0836L32.1652 3.23709L32.2908 3.37662L32.5001 3.44639L32.7234 3.41849C32.8164 3.35337 32.8489 3.23709 32.821 3.06965L32.7792 2.93011L32.7373 2.86035L32.9327 2.90221L32.9745 2.95802L33.0862 3.18128L33.1699 3.30686L33.3513 3.48825C33.4071 3.53476 33.4722 3.55802 33.5466 3.55802L33.7141 3.48825L33.7838 3.33476L33.7699 3.18128L33.6861 3.04174L33.6303 2.97197L33.7978 3.01383L33.8675 3.09756L33.9513 3.25104L34.035 3.40453L34.1745 3.54407L34.342 3.62779L34.5373 3.55802L34.6071 3.40453L34.5792 3.23709L34.5094 3.12546L34.4536 3.0836L38.528 3.59988L35.6675 6.58593ZM16.6908 8.70686C16.5885 8.70686 16.5048 8.73942 16.4396 8.80453C16.3745 8.87895 16.342 8.96267 16.342 9.0557C16.342 9.14872 16.3745 9.22779 16.4396 9.2929C16.5048 9.35802 16.5885 9.39058 16.6908 9.39058C16.7838 9.39058 16.8675 9.35802 16.942 9.2929L17.0396 9.0557C17.0396 8.96267 17.0071 8.87895 16.942 8.80453C16.8675 8.73942 16.7838 8.70686 16.6908 8.70686Z" fill="white"/>
</svg>
