<svg width="40" height="12" viewBox="0 0 40 12" fill="none" xmlns="http://www.w3.org/2000/svg">
<path fill-rule="evenodd" clip-rule="evenodd" d="M1.34574 5.56569C1.36051 5.52076 1.37749 5.46914 1.42122 5.41082C1.51652 5.28375 3.32675 4.48428 4.62977 4.14011C5.63184 3.87543 6.10476 3.82433 7.2321 3.70251L7.29827 3.69536C8.47369 3.56829 10.0938 3.63182 10.0938 3.63182C10.0938 3.63182 11.8411 3.79066 13.3977 3.72713C14.2354 3.69294 14.8798 3.57596 15.4895 3.46529C16.0128 3.3703 16.5105 3.27996 17.0828 3.25061C18.3217 3.18707 18.417 3.18707 18.4806 3.21884C18.5032 3.23016 18.5221 3.2789 18.5456 3.33943C18.5879 3.44876 18.6452 3.59658 18.7665 3.63182C18.8499 3.65607 18.9065 3.65929 18.9888 3.63182C19.0461 3.61273 19.0721 3.5662 19.0979 3.52012C19.1245 3.47249 19.1509 3.42534 19.2112 3.40945C19.2712 3.39366 19.3096 3.39558 19.3701 3.40945C19.419 3.42066 19.4474 3.45691 19.475 3.49195C19.506 3.53147 19.5359 3.56946 19.5924 3.56829C19.6611 3.56687 19.6844 3.50851 19.7088 3.44741C19.7312 3.39127 19.7545 3.33283 19.8148 3.31415C19.8859 3.29213 19.9327 3.29822 20.0054 3.31415C20.0576 3.32557 20.0909 3.36317 20.1228 3.39907C20.1608 3.44186 20.1966 3.48224 20.2596 3.47299C20.3276 3.46299 20.3427 3.39986 20.3583 3.33467C20.3732 3.27269 20.3885 3.20884 20.4502 3.18707C20.5204 3.1623 20.5681 3.17078 20.6408 3.18707C20.6855 3.19711 20.7149 3.22562 20.7433 3.25312C20.7769 3.28564 20.809 3.31672 20.8632 3.31415C20.9595 3.30956 21.013 3.20791 21.0575 3.12352C21.0783 3.08411 21.0971 3.04846 21.1173 3.02824C21.1808 2.96471 21.4032 3.02824 21.4032 3.02824C21.4032 3.02824 22.4515 3.37134 22.801 3.44121C22.9098 3.46298 22.9848 3.48968 23.0671 3.51901C23.2491 3.58384 23.4671 3.66151 24.167 3.72713C24.9691 3.80232 25.3163 3.82265 26.1449 3.87117C26.3665 3.88415 26.6225 3.89914 26.9308 3.91773C26.9976 3.92176 27.0643 3.92575 27.1311 3.92975C28.5242 4.01317 29.9468 4.09836 33.2208 4.55309C36.6518 5.02961 39.2885 5.79204 39.2885 5.79204C39.2885 5.79204 37.986 6.89635 36.3976 7.53927C34.8092 8.1822 34.0468 8.44499 32.649 8.68291C31.2512 8.92084 29.2499 8.81744 27.6297 8.71468C27.4259 8.70175 27.2065 8.68761 26.9771 8.67283C25.3828 8.5701 23.3047 8.43618 22.6104 8.46054C22.1177 8.47783 21.7961 8.52257 21.5699 8.55405C21.4315 8.57331 21.3288 8.58761 21.2444 8.58761C21.124 8.58761 21.0683 8.5498 21.0175 8.51543C20.9745 8.48628 20.9352 8.4596 20.8632 8.46054C20.5298 8.46487 20.2596 9.06413 20.2596 9.06413C20.2596 9.06413 19.8148 10.9702 19.2748 10.8749C18.9687 10.8209 18.8769 10.4303 18.797 10.0903C18.7359 9.83031 18.6818 9.59994 18.5441 9.57241C18.2446 9.51251 18.1207 9.30288 18.0484 9.18068C18.044 9.17325 18.0398 9.16615 18.0358 9.15943C18.004 9.10648 17.9758 9.05707 17.9476 9.00765C17.8911 8.90882 17.8346 8.80998 17.7499 8.68291C17.5013 8.31002 17.2737 8.15565 16.8922 7.92048C16.5274 7.69563 16.2891 7.61974 15.8756 7.5075C15.4286 7.38618 15.1631 7.36515 14.7002 7.34866C14.2655 7.33318 14.0045 7.38127 13.5883 7.5075C13.0948 7.65716 12.6267 8.1314 12.3734 8.388C12.2802 8.48237 12.2162 8.5473 12.1905 8.55584C12.154 8.56802 12.0363 8.4702 11.8717 8.33339C11.607 8.11343 11.2211 7.7927 10.8563 7.66634C10.3488 7.49056 10.0271 7.49349 9.49026 7.5075C8.92342 7.5223 8.58384 7.54289 8.0607 7.76164C7.77587 7.88074 7.51749 8.10015 7.30664 8.27919C7.14614 8.41548 7.01318 8.52838 6.91706 8.55584C6.8108 8.5862 6.57203 8.49132 6.28673 8.37794C5.97495 8.25404 5.6076 8.10807 5.2969 8.07932C4.70188 8.02427 3.95724 8.11109 3.58143 8.17462C3.07044 8.26102 2.80379 8.31107 2.37426 8.55584C2.11785 8.70196 1.8878 8.95173 1.70958 9.14522C1.58543 9.28001 1.48644 9.38749 1.42122 9.41358C1.26238 9.47711 1.0161 9.07459 0.881167 8.77821C0.799652 8.59917 0.814277 8.4399 0.82901 8.27946C0.843213 8.12478 0.857515 7.96902 0.785863 7.79341C0.734308 7.66706 0.664219 7.58503 0.593741 7.50254C0.525609 7.4228 0.457114 7.34263 0.404649 7.22159C0.385624 7.1777 0.366309 7.13608 0.347681 7.09594C0.252602 6.89107 0.175398 6.72472 0.24581 6.49093C0.315502 6.25953 0.431984 6.17636 0.646477 6.02321C0.650547 6.0203 0.654652 6.01737 0.658792 6.01441C0.798484 5.91463 0.963252 5.83992 1.09009 5.78241C1.16516 5.74837 1.22695 5.72036 1.26238 5.69674C1.31395 5.66236 1.32831 5.61867 1.34574 5.56569ZM1.10356 6.26853C1.10356 6.26853 0.689363 6.41973 0.627047 6.64975C0.564394 6.88101 0.849422 7.22157 0.849422 7.22157C0.849422 7.22157 0.864437 6.92852 0.912958 6.74505C0.96311 6.55541 1.10356 6.26853 1.10356 6.26853Z" fill="white"/>
</svg>
