<svg width="36" height="12" viewBox="0 0 36 12" fill="none" xmlns="http://www.w3.org/2000/svg">
<path fill-rule="evenodd" clip-rule="evenodd" d="M20.1437 6.37285C20.0786 6.43797 20.046 6.51704 20.046 6.61006C20.046 6.68448 20.0786 6.75425 20.1437 6.81937C20.2088 6.88448 20.2879 6.91704 20.3809 6.91704L20.5902 6.81937L20.6879 6.61006C20.6879 6.51704 20.6553 6.43797 20.5902 6.37285C20.5344 6.31704 20.4646 6.28913 20.3809 6.28913C20.2693 6.28913 20.1902 6.31704 20.1437 6.37285ZM20.8414 7.12634H18.8879L18.7204 7.22402H17.7437C17.5204 7.41006 17.5809 7.69378 17.9251 8.07518C17.3204 8.41937 16.8693 8.1589 16.5716 7.29378C12.3576 7.44262 7.99484 7.44262 3.48322 7.29378C2.49717 7.24727 1.53903 7.39611 0.608798 7.7403C-0.0981785 6.64262 -0.0935273 5.58681 0.622752 4.57285C1.57159 4.85192 2.54833 4.96355 3.55298 4.90774C7.9995 4.7403 12.353 4.72169 16.6135 4.85192C16.846 4.59146 16.8367 4.29378 16.5855 3.9589C17.1995 3.77285 17.6041 4.08448 17.7995 4.89378H18.7204L18.8879 5.10309C26.1437 5.09378 31.6507 5.48913 35.4088 6.28913C33.2786 6.78216 28.4553 7.02867 20.939 7.02867L20.8414 7.12634Z" fill="white"/>
</svg>
