<svg width="32" height="12" viewBox="0 0 32 12" fill="none" xmlns="http://www.w3.org/2000/svg">
<path fill-rule="evenodd" clip-rule="evenodd" d="M14.9534 6.13989L13.6697 6.7957C12.6464 7.27012 11.6604 7.5864 10.7115 7.74454L8.15803 8.06547L6.94407 8.1771L6.65105 8.21896L6.53942 8.23291C6.37198 8.27012 6.27431 8.30733 6.2464 8.34454L6.16268 8.5957L6.02314 8.83291L5.91151 8.90268L5.82779 8.80501L5.74407 8.40036L5.68826 7.89803C5.64175 7.73989 5.50221 7.53989 5.26965 7.29803C5.00919 7.00966 4.75338 6.84687 4.50221 6.80966C4.21384 6.77245 3.94872 6.81896 3.70686 6.94919C3.465 7.07012 3.32547 7.23756 3.28826 7.45152C3.23244 7.71198 3.21384 7.93524 3.23244 8.12129C3.26965 8.41896 3.39524 8.76315 3.60919 9.15384C3.6557 9.26547 3.61384 9.44222 3.48361 9.68408L3.065 10.1864C2.78593 10.4469 2.56733 10.5399 2.40919 10.4655C2.25105 10.3818 2.00919 10.0236 1.68361 9.39105L1.13942 8.31663C1.0371 8.11198 0.958026 7.69803 0.902212 7.07477L0.860352 6.1957V5.55384C0.878956 5.06082 0.925468 4.66082 0.999886 4.35384C1.07431 4.00036 1.28826 3.48873 1.64175 2.81896C1.96733 2.1864 2.19058 1.81896 2.31151 1.71663C2.40454 1.63291 2.58593 1.69338 2.8557 1.89803C3.12547 2.09338 3.34407 2.33059 3.51151 2.60966L3.62314 2.81896C3.64175 2.87477 3.62314 2.97245 3.56733 3.11198L3.31617 3.65617C3.20454 3.90733 3.14872 4.11663 3.14872 4.28408L3.17663 4.81431C3.21384 4.97245 3.26965 5.09803 3.34407 5.19105C3.51151 5.3585 3.70221 5.47943 3.91617 5.55384L4.34872 5.60966C4.51617 5.59105 4.70686 5.51663 4.92082 5.3864C5.22779 5.20036 5.45105 4.9585 5.59058 4.66082L5.74407 4.04687L5.8557 3.48873L5.91151 3.36315L5.98128 3.34919L6.14872 3.60036L6.33012 3.92129L6.51151 3.99105H6.6371C6.71151 3.99105 6.74872 4.00966 6.74872 4.04687L8.32547 4.14454L10.5301 4.3678L11.2697 4.52129L12.1627 4.71663C12.7208 4.86547 13.2231 5.06547 13.6697 5.31663L14.172 5.60966L14.6604 5.90268L14.9534 6.13989ZM2.84175 8.33059C2.82314 8.30268 2.78593 8.28873 2.73012 8.28873C2.6557 8.27012 2.50686 8.33059 2.28361 8.47012L1.89291 8.73524C1.8557 8.76315 1.84175 8.80966 1.85105 8.87477L1.87896 8.95849L2.11617 9.3771C2.30221 9.65617 2.42314 9.80501 2.47896 9.82361C2.54407 9.84222 2.66035 9.78175 2.82779 9.64222L3.07896 9.40501L3.00919 8.94454L2.88361 8.42826L2.84175 8.33059ZM1.66965 4.49338C1.59524 4.50268 1.52082 4.53989 1.4464 4.60501C1.33477 4.70733 1.265 5.00036 1.2371 5.48408L1.22314 6.1678L1.265 6.75384C1.30221 7.15384 1.36268 7.42361 1.4464 7.56315C1.51151 7.66547 1.59524 7.73059 1.69756 7.75849L1.97663 7.74454L2.8557 6.9771C3.34872 6.49338 3.59058 6.21896 3.58128 6.15384C3.58128 6.08873 3.31617 5.81431 2.78593 5.33059L1.87896 4.54919L1.66965 4.49338ZM2.67431 2.45617C2.55337 2.39105 2.45105 2.3585 2.36733 2.3585C2.30221 2.3585 2.17663 2.53524 1.99058 2.88873C1.80454 3.24222 1.71617 3.44222 1.72547 3.48873L1.78128 3.5864C1.81849 3.63291 1.8557 3.66082 1.89291 3.67012L2.54872 4.00501L2.6464 4.04687C2.73942 4.07477 2.79524 4.03756 2.81384 3.93524L2.95337 3.27943C2.99989 2.96315 2.99989 2.7678 2.95337 2.69338L2.67431 2.45617Z" fill="white"/>
<path d="M14.9534 6.13989L13.6697 6.7957C12.6464 7.27012 11.6604 7.5864 10.7115 7.74454L8.15803 8.06547L6.94407 8.1771L6.65105 8.21896L6.53942 8.23291C6.37198 8.27012 6.27431 8.30733 6.2464 8.34454L6.16268 8.5957L6.02314 8.83291L5.91151 8.90268L5.82779 8.80501L5.74407 8.40036L5.68826 7.89803C5.64175 7.73989 5.50221 7.53989 5.26965 7.29803C5.00919 7.00966 4.75338 6.84687 4.50221 6.80966C4.21384 6.77245 3.94872 6.81896 3.70686 6.94919C3.465 7.07012 3.32547 7.23756 3.28826 7.45152C3.23244 7.71198 3.21384 7.93524 3.23244 8.12129C3.26965 8.41896 3.39524 8.76315 3.60919 9.15384C3.6557 9.26547 3.61384 9.44222 3.48361 9.68408L3.065 10.1864C2.78593 10.4469 2.56733 10.5399 2.40919 10.4655C2.25105 10.3818 2.00919 10.0236 1.68361 9.39105L1.13942 8.31663C1.0371 8.11198 0.958026 7.69803 0.902212 7.07477L0.860352 6.1957V5.55384C0.878956 5.06082 0.925468 4.66082 0.999886 4.35384C1.07431 4.00036 1.28826 3.48873 1.64175 2.81896C1.96733 2.1864 2.19058 1.81896 2.31151 1.71663C2.40454 1.63291 2.58593 1.69338 2.8557 1.89803C3.12547 2.09338 3.34407 2.33059 3.51151 2.60966L3.62314 2.81896C3.64175 2.87477 3.62314 2.97245 3.56733 3.11198L3.31617 3.65617C3.20454 3.90733 3.14872 4.11663 3.14872 4.28408L3.17663 4.81431C3.21384 4.97245 3.26965 5.09803 3.34407 5.19105C3.51151 5.3585 3.70221 5.47943 3.91617 5.55384L4.34872 5.60966C4.51617 5.59105 4.70686 5.51663 4.92082 5.3864C5.22779 5.20036 5.45105 4.9585 5.59058 4.66082L5.74407 4.04687L5.8557 3.48873L5.91151 3.36315L5.98128 3.34919L6.14872 3.60036L6.33012 3.92129L6.51151 3.99105H6.6371C6.71151 3.99105 6.74872 4.00966 6.74872 4.04687L8.32547 4.14454L10.5301 4.3678L11.2697 4.52129L12.1627 4.71663C12.7208 4.86547 13.2231 5.06547 13.6697 5.31663L14.172 5.60966L14.6604 5.90268L14.9534 6.13989ZM2.67431 2.45617L2.95337 2.69338C2.99989 2.7678 2.99989 2.96315 2.95337 3.27943L2.81384 3.93524C2.79524 4.03757 2.73942 4.07477 2.6464 4.04687L2.54872 4.00501L1.89291 3.67012C1.8557 3.66082 1.81849 3.63291 1.78128 3.5864L1.72547 3.48873C1.71617 3.44222 1.80454 3.24222 1.99058 2.88873C2.17663 2.53524 2.30221 2.3585 2.36733 2.3585C2.45105 2.3585 2.55337 2.39105 2.67431 2.45617ZM1.66965 4.49338L1.87896 4.54919L2.78593 5.33059C3.31617 5.81431 3.58128 6.08873 3.58128 6.15384C3.59058 6.21896 3.34872 6.49338 2.8557 6.9771L1.97663 7.74454L1.69756 7.75849C1.59524 7.73059 1.51151 7.66547 1.4464 7.56315C1.36268 7.42361 1.30221 7.15384 1.265 6.75384L1.22314 6.1678L1.2371 5.48408C1.265 5.00036 1.33477 4.70733 1.4464 4.60501C1.52082 4.53989 1.59524 4.50268 1.66965 4.49338ZM2.84175 8.33059L2.88361 8.42826L3.00919 8.94454L3.07896 9.40501L2.82779 9.64222C2.66035 9.78175 2.54407 9.84222 2.47896 9.82361C2.42314 9.80501 2.30221 9.65617 2.11617 9.3771L1.87896 8.95849L1.85105 8.87477C1.84175 8.80966 1.8557 8.76315 1.89291 8.73524L2.28361 8.47012C2.50686 8.33059 2.6557 8.27012 2.73012 8.28873C2.78593 8.28873 2.82314 8.30268 2.84175 8.33059Z" stroke="white" stroke-width="0.5" stroke-linecap="round" stroke-linejoin="round"/>
<path fill-rule="evenodd" clip-rule="evenodd" d="M26.5628 7.74454L24.0233 8.06547L22.8093 8.1771L22.5163 8.21896L22.4047 8.23291C22.2279 8.27012 22.1302 8.30733 22.1116 8.34454L22.0279 8.5957L21.8744 8.83291L21.7767 8.90268L21.693 8.80501L21.6093 8.40036L21.5395 7.89803C21.493 7.73989 21.3581 7.53989 21.1349 7.29803C20.8744 7.00966 20.614 6.84687 20.3535 6.80966C20.0744 6.77245 19.814 6.81896 19.5721 6.94919C19.3209 7.07012 19.1767 7.23756 19.1395 7.45152C19.093 7.71198 19.0791 7.93524 19.0977 8.12129C19.1349 8.41896 19.2558 8.76315 19.4605 9.15384C19.5163 9.26547 19.4791 9.44222 19.3488 9.68408L18.9163 10.1864C18.6465 10.4469 18.4326 10.5399 18.2744 10.4655C18.1163 10.3818 17.8744 10.0236 17.5488 9.39105L17.0047 8.31663C16.893 8.11198 16.814 7.69803 16.7674 7.07477L16.7256 6.1957V5.55384C16.7442 5.06082 16.7861 4.66082 16.8512 4.35384C16.9349 4.00036 17.1535 3.48873 17.507 2.81896C17.8326 2.1864 18.0558 1.81896 18.1767 1.71663C18.2698 1.63291 18.4512 1.69338 18.7209 1.89803C18.9907 2.09338 19.2093 2.33059 19.3767 2.60966L19.4884 2.81896L19.4326 3.11198L19.1814 3.65617C19.0698 3.90733 19.014 4.11663 19.014 4.28408L19.0419 4.81431C19.0698 4.97245 19.1256 5.09803 19.2093 5.19105C19.3767 5.3585 19.5674 5.47943 19.7814 5.55384L20.2 5.60966C20.3768 5.59105 20.5721 5.51663 20.7861 5.3864C21.093 5.20036 21.3163 4.9585 21.4558 4.66082L21.6093 4.04687L21.7209 3.48873L21.7767 3.36315L21.8465 3.34919L22.014 3.60036L22.1954 3.92129L22.3628 3.99105H22.5023L22.614 4.04687L24.1907 4.14454L26.3814 4.3678L27.1209 4.52129L28.014 4.71663C28.7861 4.93059 29.4605 5.22826 30.0372 5.60966L30.5116 5.90268C30.7163 6.04222 30.8186 6.12129 30.8186 6.13989C29.3209 6.9864 27.9023 7.52129 26.5628 7.74454ZM17.8419 7.74454L18.7209 6.9771C19.214 6.49338 19.4558 6.21896 19.4465 6.15384C19.4465 6.08873 19.1814 5.81431 18.6512 5.33059L17.7302 4.54919L17.5349 4.49338C17.4605 4.50268 17.3814 4.53989 17.2977 4.60501C17.1861 4.70733 17.1209 5.00036 17.1023 5.48408L17.0884 6.1678L17.1163 6.75384C17.1535 7.15384 17.214 7.42361 17.2977 7.56315C17.3628 7.66547 17.4512 7.73059 17.5628 7.75849L17.8419 7.74454ZM18.693 8.33059C18.6837 8.30268 18.6465 8.28873 18.5814 8.28873C18.5163 8.27012 18.3674 8.33059 18.1349 8.47012L17.7442 8.73524C17.707 8.76315 17.6977 8.80966 17.7163 8.87477L17.7302 8.95849L17.9814 9.3771C18.1581 9.65617 18.2791 9.80501 18.3442 9.82361C18.4093 9.84222 18.5209 9.78175 18.6791 9.64222L18.9442 9.40501L18.8744 8.94454L18.7349 8.42826L18.693 8.33059ZM18.8047 2.69338C18.7488 2.60966 18.6558 2.53059 18.5256 2.45617C18.4047 2.39105 18.307 2.3585 18.2326 2.3585C18.1581 2.3585 18.0279 2.53524 17.8419 2.88873C17.6558 3.24222 17.5674 3.44222 17.5767 3.48873L17.6326 3.5864L17.7442 3.67012L18.4 4.00501L18.5116 4.04687C18.6047 4.07477 18.6605 4.03756 18.6791 3.93524L18.8047 3.27943C18.8605 2.96315 18.8605 2.7678 18.8047 2.69338Z" fill="white"/>
<path d="M26.5628 7.74454L24.0233 8.06547L22.8093 8.1771L22.5163 8.21896L22.4047 8.23291C22.2279 8.27012 22.1302 8.30733 22.1116 8.34454L22.0279 8.5957L21.8744 8.83291L21.7767 8.90268L21.693 8.80501L21.6093 8.40036L21.5395 7.89803C21.493 7.73989 21.3581 7.53989 21.1349 7.29803C20.8744 7.00966 20.614 6.84687 20.3535 6.80966C20.0744 6.77245 19.814 6.81896 19.5721 6.94919C19.3209 7.07012 19.1767 7.23756 19.1395 7.45152C19.093 7.71198 19.0791 7.93524 19.0977 8.12129C19.1349 8.41896 19.2558 8.76315 19.4605 9.15384C19.5163 9.26547 19.4791 9.44222 19.3488 9.68408L18.9163 10.1864C18.6465 10.4469 18.4326 10.5399 18.2744 10.4655C18.1163 10.3818 17.8744 10.0236 17.5488 9.39105L17.0047 8.31663C16.893 8.11198 16.814 7.69803 16.7674 7.07477L16.7256 6.1957V5.55384C16.7442 5.06082 16.7861 4.66082 16.8512 4.35384C16.9349 4.00036 17.1535 3.48873 17.507 2.81896C17.8326 2.1864 18.0558 1.81896 18.1767 1.71663C18.2698 1.63291 18.4512 1.69338 18.7209 1.89803C18.9907 2.09338 19.2093 2.33059 19.3767 2.60966L19.4884 2.81896L19.4326 3.11198L19.1814 3.65617C19.0698 3.90733 19.014 4.11663 19.014 4.28408L19.0419 4.81431C19.0698 4.97245 19.1256 5.09803 19.2093 5.19105C19.3767 5.3585 19.5674 5.47943 19.7814 5.55384L20.2 5.60966C20.3768 5.59105 20.5721 5.51663 20.7861 5.3864C21.093 5.20036 21.3163 4.9585 21.4558 4.66082L21.6093 4.04687L21.7209 3.48873L21.7767 3.36315L21.8465 3.34919L22.014 3.60036L22.1954 3.92129L22.3628 3.99105H22.5023L22.614 4.04687L24.1907 4.14454L26.3814 4.3678L27.1209 4.52129L28.014 4.71663C28.7861 4.93059 29.4605 5.22826 30.0372 5.60966L30.5116 5.90268C30.7163 6.04222 30.8186 6.12129 30.8186 6.13989C29.3209 6.9864 27.9023 7.52129 26.5628 7.74454ZM18.8047 2.69338C18.8605 2.7678 18.8605 2.96315 18.8047 3.27943L18.6791 3.93524C18.6605 4.03757 18.6047 4.07477 18.5116 4.04687L18.4 4.00501L17.7442 3.67012L17.6326 3.5864L17.5767 3.48873C17.5674 3.44222 17.6558 3.24222 17.8419 2.88873C18.0279 2.53524 18.1581 2.3585 18.2326 2.3585C18.307 2.3585 18.4047 2.39105 18.5256 2.45617C18.6558 2.53059 18.7488 2.60966 18.8047 2.69338ZM18.693 8.33059L18.7349 8.42826L18.8744 8.94454L18.9442 9.40501L18.6791 9.64222C18.5209 9.78175 18.4093 9.84222 18.3442 9.82361C18.2791 9.80501 18.1581 9.65617 17.9814 9.3771L17.7302 8.95849L17.7163 8.87477C17.6977 8.80966 17.707 8.76315 17.7442 8.73524L18.1349 8.47012C18.3674 8.33059 18.5163 8.27012 18.5814 8.28873C18.6465 8.28873 18.6837 8.30268 18.693 8.33059ZM17.8419 7.74454L17.5628 7.75849C17.4512 7.73059 17.3628 7.66547 17.2977 7.56315C17.214 7.42361 17.1535 7.15384 17.1163 6.75384L17.0884 6.1678L17.1023 5.48408C17.1209 5.00036 17.1861 4.70733 17.2977 4.60501C17.3814 4.53989 17.4605 4.50268 17.5349 4.49338L17.7302 4.54919L18.6512 5.33059C19.1814 5.81431 19.4465 6.08873 19.4465 6.15384C19.4558 6.21896 19.214 6.49338 18.7209 6.9771L17.8419 7.74454Z" stroke="white" stroke-width="0.5" stroke-linecap="round" stroke-linejoin="round"/>
</svg>
