<svg width="37" height="12" viewBox="0 0 37 12" fill="none" xmlns="http://www.w3.org/2000/svg">
<path fill-rule="evenodd" clip-rule="evenodd" d="M2.39124 7.92566L2.2238 7.68845C2.11217 7.60473 1.98659 7.56286 1.84705 7.56286C1.71682 7.57217 1.60984 7.60473 1.52612 7.66054L1.35868 7.88379C1.31217 7.96752 1.29356 8.06054 1.30287 8.16286L1.35868 8.40007L1.54008 8.60938L1.80519 8.70705L2.09822 8.62333L2.32147 8.45589L2.4331 8.19077L2.39124 7.92566ZM35.3215 4.96752L36.2424 5.35821L35.1819 6.33496C34.2982 7.06054 33.4377 7.59542 32.6005 7.93961C31.6331 8.34891 30.6889 8.66054 29.768 8.87449C28.9494 9.06984 28.0238 9.20938 26.9912 9.2931L22.6238 9.41868H19.7354V9.15356L19.5401 8.9024L19.3029 8.88845L19.1633 9.06984L18.9122 9.00007L18.7726 8.3024C18.6145 7.80007 18.4005 7.46054 18.1308 7.28379C17.7773 7.06054 17.4564 6.9024 17.168 6.80938L16.1354 6.68379C15.7726 6.7117 15.4564 6.78147 15.1866 6.8931C14.9447 6.98612 14.6889 7.14426 14.4191 7.36752L13.9587 7.67449L13.8471 7.7024L13.6796 7.71635C13.568 7.72566 13.4331 7.66519 13.275 7.53496L13.0936 7.38147L12.954 7.28379C12.8889 7.25589 12.5029 7.25589 11.7959 7.28379L10.3447 7.36752L7.31682 7.63263L5.8517 7.84193L4.86101 8.02333L3.87031 8.46984L2.76798 8.95821L2.30752 9.1117C2.13077 9.15821 1.97263 9.15821 1.8331 9.1117L1.42845 8.93031C1.31682 8.86519 1.24705 8.80007 1.21915 8.73496L1.06566 8.45589C1.00984 8.31635 0.986588 8.17217 0.99589 8.02333L1.00984 7.7024L1.10752 7.38147C1.17263 7.20473 1.41449 6.721 1.8331 5.93031C2.26101 5.13031 2.51217 4.6931 2.58659 4.61868L2.75403 4.46519L2.89356 4.42333L3.11682 4.45124L3.35403 4.43728L3.46566 4.29775V4.20007L3.73077 4.28379L3.96798 4.11635L4.70752 3.99077L5.79589 3.73961C7.07031 3.47914 8.41449 3.26519 9.82845 3.09775L15.2424 2.79077H18.1029L18.3401 3.01403L18.661 2.84659L18.9819 3.04193L19.2191 2.84659L19.4843 3.06984L19.8191 2.9024L20.0982 3.13961L20.3912 2.97217L20.6982 3.15356L20.9633 3.01403L21.2843 3.20938L21.5773 3.06984L21.8005 3.27914L22.0936 3.13961L22.3447 3.37682L22.7075 3.23728L22.9866 3.44659L23.3494 3.30705L23.5866 3.53031L23.8936 3.39077L24.6889 3.53031L26.3773 3.86519C26.8889 3.97682 27.754 4.23263 28.9726 4.63263L30.675 5.20473L30.7726 5.23263L30.9959 5.3024L31.568 5.21868C31.7075 5.11635 31.7773 5.00007 31.7773 4.86984L31.7215 4.56286L31.3168 4.22798L30.5912 3.8931L30.1447 3.73961C30.0703 3.73031 30.0238 3.70705 30.0052 3.66984V3.54426L30.1447 3.41868L30.2982 3.37682L30.5075 3.40473L31.7494 3.73961L33.6191 4.32566C34.0564 4.45589 34.6238 4.66984 35.3215 4.96752Z" fill="white"/>
</svg>
