<svg width="39" height="12" viewBox="0 0 39 12" fill="none" xmlns="http://www.w3.org/2000/svg">
<path fill-rule="evenodd" clip-rule="evenodd" d="M6.74189 3.43263L8.41631 3.12566L10.1465 2.88845L11.9047 2.79077H13.8163L14.9744 2.91635L15.4907 3.01403C15.9837 3.28379 16.514 3.43263 17.0814 3.46054H17.5837L17.821 3.47449L18.3093 3.41868L19.0489 3.16752L19.5093 3.02798L19.9 3.08379L20.2768 3.321L20.4024 3.48845L20.514 3.65589C20.5791 3.74891 20.7465 3.77217 21.0163 3.72566L21.407 3.64193C21.5465 3.64193 21.7 3.56286 21.8675 3.40473L22.0628 3.18147L22.4256 3.26519L23.3186 3.43263L23.6396 3.48845L26.2628 3.76752L29.4721 3.55821L30.9233 3.26519L31.0349 3.33496L31.607 3.68379C32.1931 4.02798 32.7838 4.27449 33.3791 4.42333L34.4954 4.59077L35.0675 4.61868L36.9931 4.45124L38.0535 4.26984L37.6907 4.74426L36.8954 5.66519C36.6442 5.94426 36.2396 6.21403 35.6814 6.47449L34.4954 6.921L34.3558 6.94891L32.821 7.01868L31.2024 6.86519L27.3512 6.39077L24.1 6.00007L24.0442 6.18147L23.1651 6.25124L23.0256 6.09775L22.8163 6.00007H22.5791L22.4117 6.0838L22.3419 6.13961L22.3558 6.05589C22.3744 5.98147 22.3047 5.92566 22.1465 5.88845C22.1 5.87914 22.021 5.9024 21.9093 5.95821L21.7279 6.09775L21.714 6.25124L21.5744 6.51635L21.1977 6.79542L20.7651 6.921L20.5 6.86519L20.4442 6.83728L20.4303 6.82333L20.4861 6.94891L20.5419 7.20007L20.5279 7.57682L20.3605 8.03728L20.1233 8.35821L19.914 8.5117L19.7326 8.53961L19.7047 8.45589L19.8303 8.28845L19.9977 7.82798L20.0535 7.26984C20.0442 7.13961 19.9837 6.97217 19.8721 6.76752L19.7465 6.54426L19.6628 6.46054H19.3698L18.8814 6.43263L17.3884 6.26519L15.7698 6.05589L13.007 6.18147L10.0907 6.43263C9.79305 6.48845 9.24421 6.63263 8.44421 6.86519L6.86747 7.35356L5.3884 7.93961C4.70933 8.23728 4.28607 8.43728 4.11863 8.53961L3.75584 8.77682L3.5884 8.95821L3.53259 9.09775L3.47677 9.19542L3.28142 9.22333L2.9884 9.12566C2.89538 9.08845 2.69538 8.88845 2.3884 8.52566L2.08142 8.121L1.95584 7.9117L2.12328 7.71635L2.84886 7.24193C3.13724 7.04659 3.56979 6.81868 4.14654 6.55821L4.74654 6.30705L5.12328 6.12566C5.33724 6.02333 5.58375 5.91635 5.86282 5.80473L7.45352 5.28845C8.06747 5.121 8.91398 4.95821 9.99305 4.80007L11.0675 4.67449L11.6117 4.61868L12.6861 4.59077H13.9L15.3233 4.7024L16.5372 4.82798L16.8861 4.99542L17.4024 5.20473L17.7791 5.3024L17.9047 5.31635L17.7931 5.16286L17.6814 4.86984L17.6535 4.64659L17.6396 4.57682H17.6117L16.8861 4.521L15.5605 4.43728L14.0675 4.36752L13.1744 4.39542L11.7093 4.4931L9.50468 4.80007L7.32793 5.26054C6.82561 5.39077 6.13259 5.63728 5.24886 6.00007L3.68607 6.68379L2.79305 7.20007L2.207 7.60473L2.02561 7.59077L1.95584 7.54891L1.92793 7.53496L1.52328 7.15821L1.09072 6.68379L0.881423 6.43263C0.844213 6.36752 0.844213 6.31635 0.881423 6.27914L1.06282 6.06984L1.31398 5.76286L2.13724 5.21868C2.36979 5.07914 2.5977 4.94891 2.82096 4.82798C3.11863 4.65124 3.78375 4.39077 4.81631 4.04659L6.74189 3.43263ZM4.3977 7.28379C4.3977 7.37682 4.43026 7.45589 4.49538 7.521C4.56049 7.58612 4.63956 7.61868 4.73259 7.61868C4.82561 7.61868 4.90468 7.58612 4.96979 7.521L5.06747 7.28379C5.06747 7.20007 5.03491 7.12566 4.96979 7.06054C4.90468 6.99542 4.82561 6.96286 4.73259 6.96286C4.63956 6.96286 4.56049 6.99542 4.49538 7.06054C4.43026 7.12566 4.3977 7.20007 4.3977 7.28379ZM6.12793 6.83728C6.12793 6.75356 6.09073 6.67914 6.01631 6.61403C5.95119 6.54891 5.87212 6.51635 5.7791 6.51635C5.68607 6.51635 5.607 6.54891 5.54189 6.61403C5.46747 6.67914 5.43026 6.75356 5.43026 6.83728C5.43026 6.93031 5.46747 7.00938 5.54189 7.07449C5.607 7.13961 5.68607 7.17217 5.7791 7.17217C5.87212 7.17217 5.95119 7.13961 6.01631 7.07449C6.09073 7.00938 6.12793 6.93031 6.12793 6.83728ZM3.33724 5.49775C3.27212 5.56286 3.23956 5.63728 3.23956 5.721C3.23956 5.81403 3.27212 5.8931 3.33724 5.95821C3.40235 6.02333 3.47677 6.05589 3.56049 6.05589C3.65352 6.05589 3.73259 6.02333 3.7977 5.95821C3.86282 5.8931 3.89538 5.81403 3.89538 5.721C3.89538 5.63728 3.86282 5.56286 3.7977 5.49775C3.73259 5.43263 3.65352 5.40007 3.56049 5.40007C3.47677 5.40007 3.40235 5.43263 3.33724 5.49775ZM2.27677 6.51635C2.36049 6.51635 2.43491 6.48379 2.50003 6.41868L2.5977 6.19542L2.50003 5.97217C2.43491 5.90705 2.36049 5.87449 2.27677 5.87449C2.18375 5.87449 2.10468 5.90705 2.03956 5.97217C1.98375 6.02798 1.95584 6.1024 1.95584 6.19542C1.95584 6.27914 1.98375 6.35356 2.03956 6.41868C2.10468 6.48379 2.18375 6.51635 2.27677 6.51635ZM13.1465 3.23728C13.0814 3.17217 13.0024 3.13961 12.9093 3.13961C12.8163 3.13961 12.7372 3.17217 12.6721 3.23728C12.607 3.3024 12.5744 3.38147 12.5744 3.47449C12.5744 3.56752 12.607 3.64659 12.6721 3.7117C12.7372 3.77682 12.8163 3.80938 12.9093 3.80938C13.0024 3.80938 13.0814 3.77682 13.1465 3.7117C13.2117 3.64659 13.2442 3.56752 13.2442 3.47449C13.2442 3.38147 13.2117 3.3024 13.1465 3.23728ZM13.9698 3.33496C13.9047 3.39077 13.8721 3.46519 13.8721 3.55821C13.8721 3.65124 13.9047 3.73031 13.9698 3.79542C14.0349 3.86054 14.114 3.8931 14.207 3.8931C14.3 3.8931 14.3791 3.86054 14.4442 3.79542L14.5419 3.55821L14.4442 3.33496C14.3791 3.26984 14.3 3.23728 14.207 3.23728C14.114 3.23728 14.0349 3.26984 13.9698 3.33496ZM16.7605 5.24659C16.6954 5.18147 16.621 5.14891 16.5372 5.14891C16.4442 5.14891 16.3651 5.18147 16.3 5.24659C16.2349 5.3024 16.2024 5.37682 16.2024 5.46984C16.2024 5.56286 16.2349 5.63728 16.3 5.6931C16.3651 5.75821 16.4442 5.79077 16.5372 5.79077C16.621 5.79077 16.6954 5.75821 16.7605 5.6931C16.8256 5.63728 16.8582 5.56286 16.8582 5.46984C16.8582 5.37682 16.8256 5.3024 16.7605 5.24659ZM15.7 5.34426C15.7 5.26054 15.6675 5.18612 15.6024 5.121C15.5372 5.06519 15.4628 5.03728 15.3791 5.03728C15.2861 5.03728 15.207 5.06519 15.1419 5.121C15.0768 5.18612 15.0442 5.26054 15.0442 5.34426C15.0442 5.42798 15.0768 5.5024 15.1419 5.56752C15.207 5.63263 15.2861 5.66519 15.3791 5.66519L15.6024 5.56752L15.7 5.34426ZM25.2303 4.54891L32.0256 4.73031L31.8303 4.57682L24.9651 4.40938L25.2303 4.54891Z" fill="white"/>
</svg>
