<svg width="39" height="12" viewBox="0 0 39 12" fill="none" xmlns="http://www.w3.org/2000/svg">
<path fill-rule="evenodd" clip-rule="evenodd" d="M38.121 5.81843C37.7954 6.16262 37.2792 6.52076 36.5722 6.89285C35.1582 7.64634 33.4978 8.08355 31.5908 8.20448C30.214 8.2975 28.5489 8.2882 26.5954 8.17657L24.3071 8.0789L21.9768 8.06495C21.028 8.09285 19.9536 8.2882 18.7536 8.65099L17.6652 9.02774L17.2466 9.20913C17.2466 8.96727 17.1954 8.71146 17.0931 8.44169C16.8885 7.91146 16.5071 7.59518 15.9489 7.49285C15.4373 7.39053 14.9861 7.43239 14.5954 7.61843L14.2745 7.84169L14.1768 7.93936L13.9396 8.60913L13.6047 9.2789L13.1443 8.99983L13.2978 8.48355C13.3722 8.10216 13.335 7.79983 13.1861 7.57657C13.0094 7.32541 12.814 7.14867 12.6001 7.04634L12.4047 6.99053H12.335L12.321 6.90681L12.2094 6.82309C12.1629 6.82309 12.1257 6.85099 12.0978 6.90681L12.0001 7.01843L11.5675 7.04634L11.0652 7.07425L2.88847 8.12076L0.809397 8.4696L0.530327 8.44169L0.0559082 7.31146V7.14402L0.111722 7.00448L0.18149 6.96262L0.265211 6.97657L0.404745 6.96262L0.418699 6.80913L0.404745 6.6975L0.54428 6.55797L0.628001 6.58588L0.767536 6.55797L0.795443 6.40448L0.767536 6.30681L0.948932 6.13936L1.03265 6.16727L1.15823 6.13936L1.18614 5.99983L1.15823 5.90216L1.32568 5.72076L1.42335 5.74867L1.54893 5.72076L1.57684 5.56727L1.54893 5.4696L1.67451 5.31611L1.93963 5.30216C1.98614 5.26495 2.00009 5.19983 1.98149 5.10681L1.93963 4.98123L1.98149 4.92541L2.07916 4.84169L2.33033 4.78588L12.3489 4.39518L12.5303 4.45099L12.5582 4.54867L12.614 4.60448L12.7815 4.4789L12.8792 4.32541L13.6745 4.2975L13.8838 4.22774L14.3164 3.94867C14.4559 3.82774 14.5815 3.59983 14.6931 3.26495L14.8187 2.79053L14.9303 2.80448L15.1257 2.83239L15.3629 2.98588L15.042 4.2975L17.2885 4.21378L17.3303 4.31146C17.3768 4.36727 17.428 4.39053 17.4838 4.38122L17.6234 4.28355L17.6513 4.19983L17.8885 4.18588L17.9303 4.28355L18.0559 4.36727L18.1675 4.2696L18.1954 4.18588L18.4466 4.17192L18.4606 4.25564C18.4978 4.31146 18.5443 4.33936 18.6001 4.33936L18.7257 4.24169L18.7536 4.15797L19.0187 4.14402L19.0466 4.22774L19.1582 4.32541C19.2234 4.31611 19.2699 4.28355 19.2978 4.22774L19.3257 4.14402H19.5908L19.6187 4.21378L19.7164 4.2975L19.842 4.19983L19.8838 4.11611L20.121 4.10216L20.1489 4.18588L20.2606 4.28355L20.3861 4.18588L20.442 4.0882L23.8327 4.01843C26.2792 3.99053 27.9582 4.00913 28.8699 4.07425C31.8466 4.2975 34.2838 4.65564 36.1815 5.14867C37.121 5.39053 37.7675 5.61378 38.121 5.81843Z" fill="white"/>
</svg>
