<svg width="38" height="11" viewBox="0 0 38 11" fill="none" xmlns="http://www.w3.org/2000/svg">
<path fill-rule="evenodd" clip-rule="evenodd" d="M0.0929746 4.91689C0.0929746 4.91689 2.0325 3.66697 3.07769 3.12821C3.07769 3.12821 3.76467 3.09754 4.28451 2.96658C5.00275 2.78565 5.513 2.61564 6.01493 2.44839C6.49944 2.28695 6.9762 2.12809 7.62481 1.96449C7.68945 1.94819 7.75203 1.93237 7.81285 1.917C8.5895 1.72067 9.08009 1.59666 9.91992 1.45806C10.3931 1.37997 10.8692 1.3423 11.29 1.30901C11.6789 1.27824 12.0205 1.25121 12.2689 1.19946C12.3892 1.17439 12.5167 1.0055 12.5167 1.0055H13.7343C13.7343 1.0055 14.0097 1.28481 14.2408 1.33953C14.4347 1.38546 14.6842 1.38948 14.8765 1.33953C15.7062 1.12403 16.7083 0.671473 16.7083 0.671473C16.7083 0.671473 17.3225 0.574496 17.538 0.617597C17.5726 0.624522 17.5933 0.664252 17.6161 0.708079C17.643 0.759724 17.6728 0.817058 17.7319 0.8331C17.8161 0.855958 17.8642 0.798949 17.9166 0.73681C17.9574 0.688414 18.0008 0.636907 18.0659 0.617597C18.3569 0.531388 19.3596 0.506226 19.4021 0.552946C19.4297 0.583419 19.4487 0.610873 19.4676 0.638192C19.4777 0.652767 19.4877 0.667304 19.499 0.682241C19.5347 0.729193 19.5357 0.767132 19.5367 0.806047C19.5375 0.834748 19.5382 0.863981 19.5529 0.897751C19.5636 0.922363 19.5728 0.950463 19.582 0.978592C19.6121 1.07044 19.6422 1.16261 19.7253 1.1348C19.7308 1.13298 19.7361 1.13129 19.7411 1.12967C19.7833 1.1162 19.8115 1.10719 19.8115 1.05939C19.8115 1.00583 20.027 0.628382 20.027 0.628382C20.0698 0.599881 20.2617 0.746899 20.2617 0.746899C20.2617 0.746899 20.4688 0.843894 20.4688 0.886985C20.4688 0.915712 20.4582 0.933574 20.4487 0.949556C20.4386 0.966682 20.4297 0.981649 20.4365 1.00551C20.458 1.08094 20.6089 1.23178 20.6628 1.23178C20.7163 1.23178 20.7597 1.18836 20.7597 1.1348C20.7597 1.1348 20.9106 0.800457 20.9106 0.746899C20.9116 0.744965 20.9125 0.742974 20.9135 0.740975C20.9204 0.726463 20.9275 0.711493 20.9429 0.714573C20.9968 0.725358 21.1895 0.800784 21.1895 0.800784C21.1895 0.800784 21.3524 0.8331 21.4062 0.8331C21.4062 0.8331 21.4173 0.846241 21.4278 0.886985C21.4344 0.912703 21.4309 0.934511 21.4274 0.95622C21.4239 0.978556 21.4203 1.00079 21.4278 1.02706C21.4494 1.10249 21.526 1.26981 21.6325 1.23178C21.683 1.21377 21.7338 1.18819 21.7295 1.1348C21.7295 1.1348 21.8265 0.836982 21.8265 0.800784C21.8358 0.759745 21.862 0.722753 21.9019 0.736133C22.0059 0.770996 22.1543 0.789551 22.1543 0.789551C22.1543 0.789551 22.3545 0.81155 22.4299 0.8331C22.4703 0.84466 22.4791 0.877489 22.4838 0.919311C22.4882 0.959156 22.476 0.997566 22.4639 1.03556C22.4466 1.09005 22.4295 1.14368 22.4622 1.19946C22.5035 1.26995 22.5548 1.30072 22.6346 1.31798C22.815 1.35698 22.9239 1.1546 22.9579 0.973177C22.9695 0.911135 22.9579 0.81155 22.9579 0.81155C22.9579 0.81155 24.9628 0.988509 26.2335 1.19946C28.3066 1.54358 29.4798 1.77686 31.4595 2.4817C32.4902 2.84867 33.0678 3.06818 34.0455 3.55922C34.7325 3.90428 35.1056 4.12346 35.7588 4.52898C36.6673 5.09303 38 6.10216 38 6.10216C38 6.10216 37.6155 6.25495 37.3643 6.33921C37.0146 6.4565 36.7602 6.51487 36.4703 6.58137C36.3263 6.61442 36.1734 6.64948 35.9958 6.69479C35.7548 6.75626 35.5502 6.81549 35.3573 6.87132C34.9685 6.98388 34.6274 7.08264 34.1317 7.15812C33.3444 7.278 32.8162 7.30209 32.0198 7.29821C31.3997 7.29518 31.0441 7.25337 30.5235 7.19213C30.4319 7.18136 30.3352 7.16999 30.2311 7.15812C29.5973 7.08589 29.243 7.03231 28.6148 6.92107C28.1118 6.83199 27.3326 6.66246 27.3326 6.66246C27.3326 6.66246 26.9373 6.26193 26.6645 6.02673C26.6466 6.01123 26.629 5.99605 26.6117 5.98118C26.2843 5.69855 26.0825 5.5243 25.6948 5.29402C25.4239 5.13316 25.2355 5.05308 24.9851 4.94671C24.9243 4.92087 24.8598 4.89348 24.7896 4.86301C24.7259 4.83533 24.6678 4.80958 24.613 4.7853C24.3892 4.68621 24.2206 4.61153 23.9492 4.52898C23.7894 4.48039 23.6691 4.45574 23.5397 4.42924C23.4548 4.41184 23.366 4.39364 23.2596 4.36735C23.1618 4.3432 23.0818 4.32048 23.0053 4.29873C22.8903 4.26606 22.783 4.23558 22.6346 4.20573C22.5757 4.19388 22.5225 4.18202 22.4723 4.17085C22.2953 4.13146 22.1567 4.10062 21.945 4.10875C21.7295 4.11703 21.3631 4.15186 21.3631 4.15186C21.3631 4.15186 20.9589 4.21495 20.8567 4.43201C20.807 4.53764 20.8318 4.86225 20.8518 5.12412C20.8665 5.31639 20.8786 5.47485 20.8567 5.48797C20.8028 5.52031 20.662 5.53734 20.555 5.48797C20.4149 5.42333 20.183 5.23184 20.0163 5.00309C19.9352 4.89188 19.9022 4.78776 19.8691 4.68336C19.8366 4.58063 19.8039 4.47763 19.7253 4.36735C19.707 4.34164 19.6907 4.31737 19.6752 4.29435C19.6131 4.20224 19.5646 4.13016 19.4559 4.06565C19.3116 3.97994 19.1908 3.98691 19.0414 3.99552C19.0023 3.99778 18.9612 4.00015 18.9172 4.001C18.7345 4.00451 18.6268 4.00683 18.4539 4.06565C18.2898 4.12144 18.2026 4.17453 18.0659 4.28115C17.958 4.36536 17.9048 4.42306 17.8181 4.52898C17.7198 4.64911 17.6679 4.72218 17.6026 4.86301C17.543 4.99164 17.5252 5.08893 17.5041 5.20416C17.4954 5.2515 17.4862 5.30186 17.4733 5.35867C17.3856 5.74523 17.3117 6.36076 17.3117 6.36076C17.3117 6.36076 16.8047 6.58704 16.7083 6.58704C16.6119 6.58704 16.3527 6.31767 16.2449 6.16682C16.1846 6.08233 16.1735 5.96254 16.161 5.8289C16.1513 5.72393 16.1407 5.61041 16.1049 5.49875C16.0905 5.45389 16.0791 5.41281 16.0684 5.37409C16.0357 5.25608 16.0092 5.16003 15.9217 5.04619C15.8196 4.9133 15.7374 4.85205 15.5877 4.77681C15.4381 4.70168 15.3364 4.68989 15.1748 4.67116C15.1688 4.67047 15.1628 4.66977 15.1567 4.66906C15.002 4.65106 14.9126 4.65106 14.758 4.66906C14.6307 4.68386 14.5474 4.70967 14.4453 4.74127C14.4091 4.75247 14.3706 4.76439 14.327 4.77681C14.2925 4.78662 14.2621 4.7936 14.2335 4.80016C14.1708 4.81455 14.1167 4.82697 14.0468 4.86301C13.9605 4.90754 13.914 4.95039 13.851 5.00848C13.8381 5.02037 13.8245 5.03289 13.8098 5.04619C13.7388 5.11014 13.6938 5.1654 13.6463 5.22384C13.6122 5.2657 13.5768 5.30919 13.5296 5.35867C13.357 5.53956 13.0663 5.80045 13.0663 5.80045H12.8723H12.6784C12.6784 5.80045 12.2797 5.43411 11.9888 5.18628C11.8954 5.10672 11.8208 5.07426 11.6978 5.04619C11.5996 5.02376 11.5324 5.03061 11.4453 5.0395C11.4233 5.04175 11.4 5.04412 11.3746 5.04619C11.2799 5.0539 11.2135 5.06827 11.1389 5.08442C11.0995 5.09297 11.0577 5.10202 11.0082 5.11084C10.8063 5.14683 10.669 5.17201 10.5025 5.20253C10.4398 5.21403 10.373 5.22627 10.2971 5.24014C10.2014 5.25762 10.1217 5.27246 10.0458 5.28658C9.9215 5.30973 9.80753 5.33095 9.65054 5.35867C9.54656 5.37703 9.45939 5.38941 9.37641 5.40119C9.24138 5.42037 9.11744 5.43797 8.95016 5.4772C8.74994 5.52415 8.61816 5.56781 8.45555 5.62169C8.39922 5.64035 8.33918 5.66024 8.27132 5.68192C8.06851 5.74671 7.95497 5.7837 7.75412 5.85433C7.55944 5.92278 7.45023 5.96129 7.25846 6.0375C6.97655 6.14954 6.82035 6.21782 6.5473 6.34998C6.50537 6.37028 6.46689 6.38859 6.43061 6.40585C6.2822 6.47647 6.17045 6.52965 6.00854 6.63014C5.81402 6.75087 5.53443 6.97494 5.53443 6.97494C5.53443 6.97494 5.31949 7.11353 5.21118 7.23355C5.19788 7.24828 5.18527 7.26159 5.17333 7.2742C5.1255 7.32468 5.08834 7.36391 5.06033 7.43827C4.99399 7.61438 5.14653 7.91238 5.14653 7.91238L4.55389 8.54812C4.55389 8.54812 4.10123 8.4426 3.82118 8.34339C3.49094 8.2264 3.3106 8.1434 3.00227 7.97703C2.81867 7.87797 2.69207 7.79153 2.55572 7.69843C2.467 7.63785 2.37415 7.57445 2.25878 7.50293C2.19297 7.46212 2.13709 7.42996 2.08385 7.39933C1.99817 7.35003 1.91935 7.30467 1.817 7.23355C1.6023 7.08435 1.48214 6.97414 1.30879 6.81515C1.28209 6.79066 1.25413 6.76501 1.22437 6.73789C0.94066 6.47934 0.789153 6.32494 0.534756 6.0375C0.354428 5.83375 0.0929746 5.46643 0.0929746 5.46643C0.0807128 5.43483 0.068422 5.40652 0.0569783 5.38016C0.0107372 5.27364 -0.0216732 5.19898 0.0175485 5.06774C0.0364081 5.00463 0.0929746 4.91689 0.0929746 4.91689ZM18.6694 2.32002C18.9789 2.32002 19.2297 2.06916 19.2297 1.75971C19.2297 1.45026 18.9789 1.1994 18.6694 1.1994C18.36 1.1994 18.1091 1.45026 18.1091 1.75971C18.1091 2.06916 18.36 2.32002 18.6694 2.32002Z" fill="white"/>
</svg>
