<svg width="35" height="12" viewBox="0 0 35 12" fill="none" xmlns="http://www.w3.org/2000/svg">
<path fill-rule="evenodd" clip-rule="evenodd" d="M25.3271 1.14552C30.8591 3.26892 33.9278 6.5844 34.5332 11.092C30.1094 7.16182 25.5506 5.1362 20.8568 5.01513L20.7171 5.1688L19.851 5.26659C18.9383 6.24447 18.007 6.74272 17.057 6.76135L16.7497 6.21653C16.6566 6.06752 16.5262 5.92317 16.3586 5.78347C16.0047 5.46682 15.4831 5.3085 14.7939 5.3085C13.9278 5.3085 12.9173 5.6298 11.7625 6.27241C11.2503 6.53318 10.7613 6.84051 10.2957 7.19441C9.84866 7.14785 9.35041 7.15716 8.80093 7.22235C7.65541 7.34342 6.73341 7.66938 6.03492 8.20023C5.8766 8.31199 5.76019 8.48894 5.68568 8.73108L5.3085 10.2538C5.19674 10.5611 5.03376 10.8172 4.81956 11.0221L4.65192 11.1898C4.1397 11.7299 3.5064 12 2.75204 12C1.99767 12 1.35041 11.7299 0.810244 11.1898C0.270082 10.6775 0 10.0303 0 9.24796C0 8.96857 0.0745052 8.61932 0.223516 8.20023C0.428405 7.76251 0.670547 7.3993 0.949942 7.11059C1.96508 6.03958 3.17579 5.12223 4.58207 4.35856C5.98836 3.6135 7.7858 2.96624 9.97439 2.41676L11.4831 2.19325L12.9779 2.09546L14.4447 1.9837L15.9115 1.74622C16.7497 1.54133 17.4948 1.27125 18.1467 0.935972L19.8091 0L20.9965 0.880093C21.1176 0.805588 21.1548 0.698487 21.1083 0.558789L20.6892 0.0139697L21.9464 0.181607L22.3516 0.768335C22.4074 0.861467 22.482 0.894063 22.5751 0.866123L22.6729 0.279395L23.539 1.08964L23.6088 0.53085L24.447 1.35506V0.796275L25.3271 1.64843V1.14552ZM23.1898 2.47264C23.1898 2.61234 23.2363 2.72875 23.3295 2.82189C23.4226 2.91502 23.539 2.96158 23.6787 2.96158C23.7998 2.96158 23.9069 2.91502 24 2.82189C24.1118 2.72875 24.1676 2.61234 24.1676 2.47264C24.1676 2.34226 24.1118 2.22584 24 2.1234C23.9069 2.03027 23.7998 1.9837 23.6787 1.9837C23.539 1.9837 23.4226 2.03027 23.3295 2.1234C23.2363 2.24447 23.1898 2.36088 23.1898 2.47264ZM22.8126 2.1234C22.8126 1.94645 22.7567 1.80675 22.6449 1.70431C22.5239 1.57392 22.3795 1.50873 22.2119 1.50873C22.0535 1.50873 21.9139 1.57392 21.7928 1.70431C21.6624 1.82538 21.5972 1.96508 21.5972 2.1234C21.5972 2.29104 21.6624 2.43539 21.7928 2.55646C21.8952 2.66822 22.0349 2.7241 22.2119 2.7241C22.3981 2.7241 22.5425 2.66822 22.6449 2.55646C22.7567 2.45402 22.8126 2.30966 22.8126 2.1234ZM25.2573 2.61234C25.2014 2.52852 25.1083 2.48661 24.9779 2.48661C24.8568 2.48661 24.759 2.52852 24.6845 2.61234C24.6007 2.68685 24.5588 2.77998 24.5588 2.89173C24.5588 2.98487 24.6007 3.08265 24.6845 3.1851L24.9779 3.31083L25.2573 3.1851L25.397 2.89173C25.397 2.77998 25.3504 2.68685 25.2573 2.61234ZM4.07916 7.92084C3.70664 7.54831 3.24563 7.36205 2.69616 7.36205C2.156 7.36205 1.69965 7.54831 1.32712 7.92084C0.954598 8.29336 0.768335 8.75436 0.768335 9.30384C0.768335 9.844 0.954598 10.3003 1.32712 10.6729C1.69965 11.064 2.156 11.2596 2.69616 11.2596C3.24563 11.2596 3.70664 11.064 4.07916 10.6729C4.461 10.3003 4.65192 9.844 4.65192 9.30384C4.65192 8.75436 4.461 8.29336 4.07916 7.92084Z" fill="white"/>
</svg>
