<svg width="47" height="12" viewBox="0 0 47 12" fill="none" xmlns="http://www.w3.org/2000/svg">
<path fill-rule="evenodd" clip-rule="evenodd" d="M45.7953 5.76271L44.7767 6.51619L44.6512 6.59992C43.386 7.42782 42.2558 7.96736 41.2605 8.21852C40.0419 8.5348 38.8139 8.71154 37.5767 8.74875C36.293 8.79526 35.0512 8.69294 33.8512 8.44178L32.3581 8.09294L31.2837 7.84178L28.8419 7.5348C27.8837 7.47898 26.5023 7.47433 24.6977 7.52085L22.2837 7.59061L22.1302 7.9255L20.6791 7.89759L20.5674 7.73015C20.4558 7.60922 20.3116 7.50224 20.1349 7.40922L19.5628 7.21387L19.3116 7.17201L19.2279 8.37201L18.893 8.69294C18.6419 8.9441 18.4605 9.17201 18.3488 9.37666C18.2372 9.57201 18.1256 9.86038 18.014 10.2418L17.8605 10.7301H17.0791L17.107 10.3394C17.1442 10.0325 17.2047 9.77201 17.2884 9.55805L17.5953 8.93015L17.7488 8.67899L17.4977 8.27433C17.3023 7.98596 17.1256 7.77666 16.9674 7.64643L16.4791 7.15805L16.2977 6.89294L15.7116 6.64178C15.2465 6.51154 14.8372 6.51619 14.4837 6.65573L13.3535 7.18596C12.907 7.39992 12.4651 7.5534 12.0279 7.64643C11.5349 7.75805 10.8326 7.77201 9.92093 7.68829L7.5907 7.3255L5.84651 6.92085L4.50698 6.71154L3.3907 6.76736L2.87442 6.83712L2.35814 7.25573L2.24651 7.75805C2.16279 8.10224 2.07907 8.29759 1.99535 8.3441L1.49302 8.65108L1.13023 8.62317L0.851163 8.41387C0.655814 8.23712 0.516279 8.04178 0.432558 7.82782C0.339535 7.61387 0.306977 7.27433 0.334884 6.80922L0.404651 6.16736L0 5.90224V5.26038L0.306977 5.10689L0.334884 4.57666C0.372093 4.18596 0.432558 3.91154 0.516279 3.7534C0.618605 3.56736 0.730232 3.44178 0.851163 3.37666L1.31163 3.23712C1.46046 3.20922 1.57674 3.24178 1.66047 3.3348L1.73023 3.47433L4.64651 3.30689L9.43256 3.1534L13.507 3.36271L16.2698 3.5441L17.093 3.40457L17.6512 3.20922L18 3.22317L18.0837 3.3348L18.4186 3.02782L18.9488 2.39991L19.2419 1.73015L19.3116 1.39526H19.9814V1.7441L19.8279 2.45573L19.493 3.06968L19.2837 3.3348L23.2186 3.39061L22.9674 2.99991L23.8884 3.39061L24.5442 3.41852L24.2372 2.97201L25.2698 3.41852H25.9116L25.6047 2.97201L26.6372 3.44643H27.2372L26.9302 3.05573L27.9349 3.47433L28.5628 3.51619L28.2977 3.05573L29.2605 3.51619L29.9302 3.5441L29.6512 3.08364L30.614 3.5441L31.3116 3.57201L30.9767 3.1255L31.8558 3.57201L32.5814 3.51619L32.3442 3.1534L33.307 3.57201L33.8233 3.58596L35.3581 3.51619L37.9395 3.23712L38.2186 3.44643L38.9581 3.90689C39.786 4.39061 40.5721 4.72085 41.3163 4.89759C42.0605 5.07433 43.107 5.21387 44.4558 5.31619L44.7767 5.3441L46.2419 5.41387L45.7953 5.76271Z" fill="white"/>
</svg>
