<svg width="39" height="12" viewBox="0 0 39 12" fill="none" xmlns="http://www.w3.org/2000/svg">
<path fill-rule="evenodd" clip-rule="evenodd" d="M36.3142 7.43112C35.3467 7.93344 34.2677 8.22181 33.077 8.29623C31.877 8.35205 30.8863 8.26833 30.1049 8.04507L26.6863 7.15205C25.2351 6.77995 23.9653 6.59391 22.877 6.59391L22.8211 6.45437L22.6397 6.24507L22.3607 6.1753H22.2909C22.2258 6.75205 22.0676 7.19391 21.8165 7.50088C19.649 7.03577 17.37 6.77995 14.9793 6.73344V6.63577H14.8397V6.73344C10.1886 6.68693 7.12811 6.90553 5.65835 7.38926C4.02114 7.90088 2.36067 8.75205 0.676951 9.94274C-0.123049 10.0079 -0.211421 9.29623 0.411835 7.80786C1.19323 6.72879 2.45835 5.79391 4.20718 5.00321C6.00253 4.20321 9.52346 3.67763 14.77 3.42646V3.52414H14.8816V3.42646L19.5421 3.28693L20.0165 3.00786L20.156 3.13344L20.6723 2.82646L20.8397 2.92414L21.3421 2.63112L21.5095 2.72879C21.9932 2.3567 22.3746 2.19391 22.6537 2.24042C22.7653 2.26832 22.8211 2.30553 22.8211 2.35205C22.8211 2.44507 22.7839 2.51019 22.7095 2.54739C22.57 2.60321 22.4676 2.70553 22.4025 2.85437C22.3374 2.94739 22.3281 3.04507 22.3746 3.14739L22.57 3.3846L22.877 3.45437V3.83112H22.9886V3.55205L24.4118 3.73344V3.99856H24.5374V3.69158C27.0956 3.92414 29.4351 3.83112 31.556 3.41251L38.4351 6.18926L36.3142 7.43112Z" fill="white"/>
</svg>
