<svg width="33" height="12" viewBox="0 0 33 12" fill="none" xmlns="http://www.w3.org/2000/svg">
<path fill-rule="evenodd" clip-rule="evenodd" d="M31.5349 4.77685L32.5396 4.65127L31.8419 5.51639C31.293 6.14895 30.8093 6.60476 30.3907 6.88383C29.6465 7.35825 28.7163 7.70708 27.6 7.93034L24.1116 8.22336H18L17.8744 8.20941L17.8047 7.98615L17.6651 7.65127C17.5721 7.46522 17.4372 7.31174 17.2605 7.19081C17.0744 7.06057 16.8372 6.99081 16.5489 6.9815C16.2512 6.9722 15.9814 7.03267 15.7396 7.1629C15.4047 7.33964 15.1396 7.59546 14.9442 7.93034L14.7489 8.37685C14.7023 8.65592 14.7535 8.82802 14.9023 8.89313L15.0977 8.94895L15.2512 9.03267C15.3349 9.1722 15.3442 9.28848 15.2791 9.3815C15.214 9.47453 15.093 9.51174 14.9163 9.49313C14.7023 9.46522 14.4977 9.3722 14.3023 9.21406C14.0605 9.01871 13.9396 8.7722 13.9396 8.47453V7.45592L13.9116 7.21871L13.7582 7.12104L11.9442 7.38615L7.93955 7.65127L3.92095 7.45592L1.85583 7.26057C1.65118 7.26057 1.46979 7.35825 1.31165 7.5536L1.03258 8.00011C0.976763 8.09313 0.897694 8.14429 0.795368 8.1536C0.702345 8.1536 0.618624 8.10243 0.544205 8.00011C0.469787 7.88848 0.427926 7.39546 0.418624 6.52104L0.181415 6.22801C0.116298 6.09778 0.0837402 5.95825 0.0837402 5.80941C0.0837402 5.66988 0.116298 5.53499 0.181415 5.40476C0.237229 5.28383 0.316298 5.18615 0.418624 5.11174C0.437229 4.29313 0.479089 3.83267 0.544205 3.73034C0.618624 3.61871 0.702345 3.56755 0.795368 3.57685C0.897694 3.57685 0.976763 3.62801 1.03258 3.73034L1.31165 4.1629C1.46979 4.36755 1.65118 4.46988 1.85583 4.46988L3.92095 4.27453L7.93955 4.06522L11.9442 4.33034L13.7582 4.59546L13.9116 4.49778L13.9396 4.27453V3.25592C13.9396 2.95825 14.0605 2.71174 14.3023 2.51639C14.4977 2.35825 14.7023 2.26522 14.9163 2.23732C15.093 2.21871 15.214 2.25592 15.2791 2.34895C15.3442 2.43267 15.3349 2.54429 15.2512 2.68383L15.0977 2.7815L14.9023 2.83732C14.7535 2.90243 14.7023 3.06988 14.7489 3.33964C14.7861 3.60011 14.8605 3.80476 14.9721 3.9536L15.1256 4.10708V4.46988H18.9489L20.8605 4.56755L23.3582 4.77685L28.4093 5.00011L31.5349 4.77685Z" fill="white"/>
</svg>
