<svg width="38" height="12" viewBox="0 0 38 12" fill="none" xmlns="http://www.w3.org/2000/svg">
<path fill-rule="evenodd" clip-rule="evenodd" d="M21.9488 1.14438H22.2976L22.4651 1.20019C22.493 1.25601 22.5348 1.28857 22.5906 1.29787H22.7162L22.7441 1.35368L22.8418 1.36763L22.9395 1.35368L23.1069 1.36763L23.3023 1.45136L23.4837 1.54903L23.5813 1.60484L23.6651 1.6188L23.7627 1.66066H23.8883L23.986 1.67461L24.1534 1.75833L24.3209 1.81415L24.3906 1.85601H24.4325L24.5023 2.06531L24.572 2.28857L24.6 2.52577L24.586 2.72112L24.5441 2.91647C24.4697 3.15833 24.3953 3.31182 24.3209 3.37694L24.2093 3.55833L24.1534 3.58624L24.0837 3.60019H27.7953L27.8372 3.69787L27.9209 3.82345L28.5069 3.93508L29.1209 4.08856L29.6372 4.18624L29.9302 4.2281C30.0139 4.2281 30.0651 4.14903 30.0837 3.99089L30.1116 3.79554L30.3906 3.2374V3.11182L30.4046 2.88857L30.4465 2.58159H30.893V4.11647L30.879 4.2281V4.25601L30.9906 4.29787L31.493 4.33973L32.6372 4.32577L34.1023 4.31182L35.5534 4.29787L36 4.28391H36.3627L36.6279 4.29787H36.9348L37.2558 4.25601H37.6744C37.7395 4.25601 37.772 4.26996 37.772 4.29787L37.8976 4.95368L37.772 5.06531L37.4232 5.10717L36.7395 5.07926L36.0837 5.05136L35.7209 5.02345H31.0604L30.893 5.06531V5.26066H31.5209L31.7441 5.49787V6.15368H31.4511L31.3395 6.09787L31.2837 6.05601L31.2279 6.04205L31.1302 6.05601H30.9767L30.7534 6.08391L28.6046 6.15368L27.7813 6.22345L27.3906 6.2374L27.2093 6.50252C27.1255 6.62345 27 6.68391 26.8325 6.68391C26.6837 6.68391 26.5116 6.56763 26.3162 6.33508L26.1488 6.29322L26.0232 6.2374L26.0651 6.58624V6.85136L26.0511 7.14438L25.9813 7.28391H25.7581L25.5348 7.20019L25.0465 7.18624H23.972L22.6465 7.20019H21.7116L21.7534 7.35368C21.8651 7.78159 21.9209 8.12112 21.9209 8.37229V10.9955L21.8511 11.3583L21.6558 11.3304H18.6279L18.3627 11.2886C18.3069 11.2607 18.279 11.1862 18.279 11.0653L18.2511 6.57229L18.279 6.46066C18.2604 6.39554 18.1999 6.35833 18.0976 6.34903H18.0558L17.9581 6.46066C17.9209 6.46066 17.9023 6.49322 17.9023 6.55833L17.9162 6.73973L17.9581 6.85136L17.9023 6.94903L17.8046 6.99089L17.8465 7.17229L17.8604 7.38159L17.8046 7.78624L17.4976 8.02345L17.0511 8.14903H16.5767L16.186 8.09322L16.0325 8.02345L15.9209 7.99554L15.7813 7.92577L15.6697 8.26066L15.4186 8.88856L15.1813 9.51647L15.0837 9.80949L15.1674 9.96298L15.1813 10.1025L15.1116 10.2281L14.9581 10.4653C14.8558 10.549 14.6604 10.549 14.372 10.4653L13.8976 10.3258L13.4372 10.1444L12.9348 9.94903H12.8372L12.893 9.86531L13.2837 9.19554L13.7162 8.48391L14.0511 7.91182L14.1906 7.63275L14.1767 7.35368C14.1302 7.22345 14.0604 7.13508 13.9674 7.08857L13.786 6.99089L13.6465 6.92112L10.8837 6.72577H8.52553L6.97669 6.87926C6.38134 6.99089 6.05576 7.12577 5.99995 7.28391C5.96274 7.36763 5.95344 7.49322 5.97204 7.66066C5.99995 7.86531 6.06972 8.04205 6.18134 8.19089C6.29297 8.33042 6.32553 8.4281 6.27902 8.48391L6.18134 8.52577L1.28367 8.74903C1.15344 8.74903 1.04646 8.68391 0.96274 8.55368C0.879019 8.42345 0.837158 8.26531 0.837158 8.07926V4.03275L1.06041 3.87926L1.79995 3.90717L4.52088 4.28391C4.67902 4.29322 4.86041 4.4188 5.06507 4.66066C5.26972 4.89322 5.47437 5.02345 5.67902 5.05136L6.51623 5.02345L7.38134 4.89787L8.94413 4.47926L10.0744 3.99089C10.679 3.73043 11.3348 3.59554 12.0418 3.58624L12.2232 3.55833L13.0046 3.4467L13.5906 3.4188V3.30717L13.7302 2.93043L13.8558 2.67926C13.9209 2.60484 14.0046 2.54903 14.1069 2.51182L14.4976 2.48391L14.9441 2.58159L15.3767 2.67926L15.7813 2.8188L15.8651 2.91647L15.9348 3.0281L15.9627 3.2374V3.4188H18.2093V3.2374H19.3953V3.4188L19.7441 3.43275H20.2186L20.6511 3.4467L20.8604 3.47461L21.2093 3.4467L21.9488 3.40484L22.8418 3.33508L23.7209 3.2374L23.8465 3.12577L23.986 2.98624L24.1116 2.66531L23.8604 2.49787L23.7209 2.4281L23.5534 2.35833L23.2325 2.26066L22.8976 2.19089H22.8418L22.5069 2.12112L22.2418 2.06531L22.0186 1.99554L21.879 1.85601V1.84205H21.586L21.3488 1.85601L21.2093 1.84205C21.1255 1.73973 21.0744 1.6281 21.0558 1.50717C21.0279 1.39554 21.1069 1.18624 21.293 0.879263V0.837402H21.3209L21.7813 0.990891L21.9488 1.14438ZM17.372 7.0467L16.3953 7.06066C16.3395 7.13508 16.3116 7.20949 16.3116 7.28391C16.3116 7.40484 16.3534 7.50252 16.4372 7.57694C16.5116 7.65136 16.6139 7.68856 16.7441 7.68856H17.1069C17.1813 7.68856 17.2558 7.65136 17.3302 7.57694C17.4046 7.50252 17.4418 7.40484 17.4418 7.28391L17.372 7.0467Z" fill="white"/>
</svg>
