<svg width="27" height="12" viewBox="0 0 27 12" fill="none" xmlns="http://www.w3.org/2000/svg">
<path fill-rule="evenodd" clip-rule="evenodd" d="M26.5 4.38179V3.82365L25.6884 3.83718L25.493 3.76741H24.014L24 2.19067L24.014 2.14881L23.9721 2.05114C23.907 1.96741 23.8046 1.91625 23.6651 1.89765C23.6093 1.88834 23.5535 1.90695 23.4977 1.95346L23.414 2.02323L22.5628 3.22323L22.5488 3.76741H22.3674L22.3395 3.43253L22.2977 3.37672L22.2698 3.36276L22.1302 3.34881V3.20928L22.0744 3.09765L16.9116 3.01393L16.8419 3.04183L16.814 3.08369V3.1116L16.7163 3.12555V3.22323L16.4233 3.16741L16.4093 3.57207L16.3116 3.58602L16.3395 2.67904L16.2837 2.55346L16.1442 2.31625L15.907 2.17672L15.7674 2.14881L11.1209 1.64648H11.0372L10.8977 1.7023L10.786 1.78602L10.7442 1.84183L9.8093 3.33486L9.78139 3.30695H9.4186V3.47439L9.05581 3.48834L9.04186 3.39067L8.91628 3.40462V3.5023H8.55349L8.56744 3.62788L5.48372 3.61393L5.45581 3.54416L5.41395 3.51625L1.60465 3.47439L1.56279 3.27904L1.50698 3.22323H0.027907L0 6.93486L0.0139535 6.97672L0.0697674 7.03253L0.139535 6.97672L0.153488 6.93486L0.167442 6.65579L1.82791 5.9023V6.57207L3.13953 5.74881V6.02788H3.53023V5.73486H4.33953L4.32558 5.00927L5.48372 4.99532V4.86974L6.8093 4.84183L7.14419 4.59067H8.55349L8.56744 4.71625L8.91628 4.73021L8.93023 5.49765L9.05581 5.48369V5.42788L9.50233 5.44183L9.66977 5.52555L9.82326 5.693L9.92093 5.94416L9.89302 6.19532L9.85116 6.3209L8.07907 9.39067L10.0465 9.85114L10.1023 9.72555L10.0465 9.68369L9.97674 9.57207L9.9907 9.46044L10.5907 8.28834L10.6186 8.24648L10.7163 8.16276C10.7907 8.12555 10.8558 8.09765 10.9116 8.07904L10.9535 8.05114L10.8 7.86974L11.107 7.28369L11.1907 7.19997C11.2279 7.17207 11.2791 7.15811 11.3442 7.15811H11.414L11.8465 7.11625H13.1581L13.3535 7.14416L13.507 7.11625L13.5349 7.47904L13.6465 8.31625L13.9674 9.55811L14.1907 10.2976V10.3535H14.2465L16.3535 9.76741L16.2977 9.69765L16.1163 9.12555L15.8093 8.03718C15.7442 7.74881 15.7023 7.43718 15.6837 7.1023V6.66974L15.8651 6.59997L15.8512 6.5023L15.7674 6.47439V5.28834L15.7953 5.23253L15.8512 5.14881C15.8698 5.1116 15.8977 5.093 15.9349 5.093L15.9767 5.10695L16.1023 5.06509L16.1442 4.99532L16.1581 4.96741L16.1442 4.74416L16.3953 4.73021L16.4233 5.07904L16.6884 4.98137L16.814 5.00927L16.9116 5.06509L22.0605 5.02323L22.1442 4.84183H22.2419L22.2977 4.79997L22.3535 4.74416L22.3674 4.43718H22.5488L22.5767 4.5209L22.5628 4.71625L22.6186 4.74416L22.6884 4.78602L22.7581 4.75811L22.786 4.71625L22.814 4.50695L22.8419 4.42323L23.7488 4.45114V4.50695H23.693V4.92555H23.9302V4.81393L24.2512 4.82788L24.3209 4.74416V4.493L24.0279 4.43718L25.507 4.45114L25.6744 4.39532L26.5 4.38179ZM23.6372 2.87439L23.707 2.94416H23.8326V3.27904L23.7628 3.36276H22.814L22.7442 3.30695L23.2465 2.52555L23.5674 2.55346L23.5814 2.693L23.6372 2.87439ZM23.7209 3.76741H22.8279V3.62788H23.7628L23.7209 3.76741ZM15.7953 2.37207L15.8372 2.39997L15.9488 2.46974C16.0512 2.55346 16.1023 2.66509 16.1023 2.80462C16.1023 2.97207 16.0465 3.093 15.9349 3.16741L15.8233 3.22323L15.7674 3.23718L11.3163 3.26509L11.2326 3.18137L11.4558 2.63718L11.5116 2.56741L11.6372 2.44183L11.7907 2.37207H15.7953ZM1.28372 4.98137L1.33953 4.99532L1.3814 5.06509L1.33953 5.13486L1.29767 5.17672H0.251163L0.209302 5.14881L0.153488 5.07904L0.195349 4.99532L0.251163 4.98137H1.28372ZM0.153488 3.5023V3.34881L1.36744 3.33486L1.42326 3.34881L1.46512 3.40462L1.47907 3.5023H0.153488ZM12.8651 5.97207L12.9767 6.01393L13.214 6.23718C13.2791 6.39532 13.2884 6.53951 13.2419 6.66974L13.1302 6.83718V7.00462H11.8744L11.707 6.87904C11.5953 6.77672 11.5349 6.66509 11.5256 6.54416C11.507 6.3302 11.5814 6.16741 11.7488 6.05579L11.986 5.97207L11.9302 6.09765C11.8837 6.20928 11.8651 6.30695 11.8744 6.39067C11.8837 6.5209 11.9488 6.64183 12.0698 6.75346L12.2512 6.893L12.307 6.85114L12.1814 6.73951C12.107 6.63718 12.0744 6.53486 12.0837 6.43253C12.093 6.3302 12.1349 6.21858 12.2093 6.09765L12.3349 5.97207H12.8651Z" fill="white"/>
</svg>
