<svg width="29" height="12" viewBox="0 0 29 12" fill="none" xmlns="http://www.w3.org/2000/svg">
<path fill-rule="evenodd" clip-rule="evenodd" d="M14.793 6.5999C14.793 6.47897 14.7604 6.38129 14.6953 6.30687C14.6302 6.23246 14.5511 6.19525 14.4581 6.19525H13.7883L13.7744 6.2092L13.7186 6.37664L13.8023 6.69757L13.8442 6.89292C13.7883 6.93013 13.6814 6.84176 13.5232 6.62781C13.4767 6.57199 13.4442 6.48362 13.4256 6.36269L13.4116 6.19525L13.2442 6.30687C13.1418 6.3999 13.0907 6.49757 13.0907 6.5999C13.1 6.73013 13.1418 6.85106 13.2163 6.96269C13.3 7.07432 13.4023 7.13013 13.5232 7.13013H14.3744C14.5418 7.13013 14.6581 7.06967 14.7232 6.94874L14.793 6.5999ZM25.4116 3.06967L25.4256 3.23711L25.5093 3.4185H26.1372L26.179 2.59525H25.6488L25.4953 2.88827L25.4116 3.06967ZM26.9604 4.50687L26.8907 4.46501L26.8628 4.42315H26.4302L26.2488 4.66036H26.0395L25.9558 4.5906L25.9139 4.53478H25.0488V4.75804C25.0488 4.81385 25.0116 4.86967 24.9372 4.92548L24.7 5.02315H17.9604L17.8209 4.89757L17.7651 4.77199L17.6116 5.02315H17.5139V6.62781L17.6256 6.76734L17.5139 6.87897C17.4674 6.89757 17.4535 6.99525 17.4721 7.17199L17.5139 7.73013L17.5418 8.23246L17.6674 8.70688L18.0442 9.9906L18.1139 10.0325L18.0721 10.1301L15.8674 10.8278C15.8116 10.8278 15.7697 10.8045 15.7418 10.758V10.6325L15.6163 10.1162C15.486 9.68827 15.3883 9.28362 15.3232 8.90222C15.2488 8.48362 15.2069 8.10687 15.1976 7.77199L15.2116 7.39525L15.0302 7.33943V7.18594L14.8488 7.36734H13.2581L13.1046 7.52083L12.993 7.43711L12.9511 7.36734L12.8395 7.33943C12.7651 7.33943 12.7093 7.38129 12.6721 7.46501L12.5465 7.66036L12.4349 7.7999C12.4163 7.84641 12.4302 7.90688 12.4767 7.98129L12.5465 8.14874L12.3511 8.24641C12.2302 8.28362 12.1558 8.33943 12.1279 8.41385L11.8349 8.95804L11.5976 9.46036L11.6953 9.64176C11.7511 9.71618 11.7558 9.78594 11.7093 9.85106L10.4674 9.89292C10.1883 9.85571 9.97439 9.7906 9.82555 9.69757C9.65811 9.60455 9.6023 9.50222 9.65811 9.3906L11.4302 6.33478C11.486 6.23246 11.486 6.08827 11.4302 5.90222C11.3744 5.70687 11.286 5.60455 11.1651 5.59525L10.9279 5.6092L10.7744 5.59525C10.6721 5.54874 10.6209 5.47897 10.6209 5.38594L10.6069 5.06501C10.5976 4.88827 10.6023 4.75804 10.6209 4.67432H10.5511L10.3697 4.60455V4.53478H8.2209L8.19299 4.68827C8.14648 4.8092 8.06276 4.91618 7.94183 5.0092L7.60695 5.28827L7.49532 5.38594L7.24416 5.84641H6.90927L6.68602 6.23711H5.86276V6.02781H5.37439L4.18834 6.92083L4.0209 7.00455C3.97439 7.01385 3.94183 6.98594 3.92323 6.92083L3.90927 6.78129L1.67671 8.2185L1.63485 8.38594L1.48137 8.56734L1.2302 8.55339L0.992994 8.45571L0.853459 8.33013C0.806947 8.28362 0.783691 8.2092 0.783691 8.10687V3.83711C0.783691 3.72548 0.825552 3.6278 0.909273 3.54408C1.0023 3.45106 1.13253 3.40455 1.29997 3.40455H8.24881L8.33253 3.51618L8.36044 3.6278H10.3697V3.54408L10.5511 3.47432H10.9V3.16734L10.9697 3.09757L11.3465 3.0278H12.1837L12.4767 2.6092L12.4488 2.46967L12.2814 2.38594C12.1697 2.30222 12.1139 2.1906 12.1139 2.05106C12.1139 1.95804 12.1511 1.87432 12.2256 1.7999C12.3093 1.71618 12.4023 1.67432 12.5046 1.67432C12.6256 1.67432 12.7279 1.71618 12.8116 1.7999C12.886 1.87432 12.9232 1.96269 12.9232 2.06501V2.90222H13.0907V2.67897H13.6069V2.97199H17.5418C17.5976 2.97199 17.6488 2.9999 17.6953 3.05571L17.779 3.18129C17.7883 3.2278 17.8488 3.1999 17.9604 3.09757H18.379L18.393 3.0278C18.4116 2.98129 18.4488 2.95804 18.5046 2.95804H24.7279C24.7837 2.95804 24.8349 2.98594 24.8814 3.04176L24.9372 3.11153L25.2302 2.70687L25.6349 2.1906L25.7046 2.12083L26.0535 2.05106H26.4023V3.83711H26.8209L26.8767 3.76734L26.9883 3.71153H28.6628C28.7372 3.71153 28.7976 3.73943 28.8442 3.79525C28.9186 3.86036 28.9558 3.95339 28.9558 4.07432V4.21385C28.9558 4.30687 28.9232 4.38129 28.8581 4.43711L28.6767 4.50687H26.9604Z" fill="white"/>
</svg>
