<svg width="36" height="12" viewBox="0 0 36 12" fill="none" xmlns="http://www.w3.org/2000/svg">
<path fill-rule="evenodd" clip-rule="evenodd" d="M35.0604 4.86966L28.6697 4.85571L28.6557 4.60455L28.7813 4.5906L28.7952 4.49292L26.7441 4.46501V4.4092L25.8929 4.42315L25.7255 4.47897L24.2464 4.46501L24.5394 4.52083V4.77199L24.4697 4.85571L24.1487 4.84176V4.95339H23.9115V4.53478H23.9673V4.47897L23.0604 4.45106L23.0325 4.53478L23.0046 4.74408L22.9766 4.78594L22.9069 4.81385L22.8371 4.77199L22.7813 4.74408L22.7952 4.54873L22.7673 4.46501H22.5859L22.572 4.77199L22.5162 4.8278L22.4604 4.86966H22.3627L22.279 5.05106L17.1301 5.09292L17.0325 5.03711L16.9069 5.0092L16.6418 5.10687L16.6139 4.75804L16.3627 4.77199L16.3766 4.99525L16.3627 5.02315L16.3208 5.09292L16.2371 5.12083L16.1952 5.13478L16.1534 5.12083C16.1162 5.12083 16.0883 5.13943 16.0697 5.17664L16.0139 5.26036L15.9859 5.31618V6.50222L16.0697 6.53013L16.0836 6.6278L15.9022 6.69757V7.13013C15.9208 7.46501 15.9627 7.77664 16.0278 8.06501L16.3348 9.15339L16.5162 9.72548L16.572 9.79525L14.465 10.3813H14.4092V10.3255L14.1859 9.58594L13.865 8.34408L13.7534 7.50687L13.7255 7.14408L13.572 7.17199L13.3766 7.14408H12.065L11.6325 7.18594H11.5627C11.4976 7.18594 11.4464 7.1999 11.4092 7.2278L11.3255 7.31153L11.0185 7.89757L11.172 8.07897L11.1301 8.10687C11.0743 8.12548 11.0092 8.15339 10.9348 8.1906L10.8371 8.27432L10.8092 8.31618L10.2092 9.48827L10.1952 9.5999L10.265 9.71152L10.3208 9.75339L10.265 9.87897L8.29757 9.4185L10.0697 6.34873L10.1115 6.22315L10.1394 5.97199L10.0418 5.72083L9.88827 5.55339L9.72083 5.46967L9.27432 5.45571V5.51153L9.14874 5.52548L9.13478 4.75804L8.78595 4.74408L8.77199 4.6185H7.36269L7.02781 4.86966L5.70223 4.89757V5.02315L4.54409 5.03711L4.55804 5.76269H3.74874V6.05571H3.35804V5.77664L2.04641 6.5999V5.93013L0.385948 6.68362L0.371994 6.96269L0.358041 7.00455L0.288273 7.06036L0.232459 7.00455L0.218506 6.96269L0.246413 3.25106H1.72548L1.7813 3.30687L1.82316 3.50222L5.63246 3.54408L5.67432 3.57199L5.70223 3.64176L8.78595 3.65571L8.77199 3.53013H9.13478V3.43246L9.26037 3.4185L9.27432 3.51618L9.63711 3.50222V3.33478H9.9999L10.0278 3.36269L10.9627 1.86967L11.0046 1.81385L11.1162 1.73013L11.2557 1.67432H11.3394L15.9859 2.17664L16.1255 2.20455L16.3627 2.34408L16.5022 2.58129L16.558 2.70687L16.5301 3.61385L16.6278 3.5999L16.6418 3.19525L16.9348 3.25106V3.15339L17.0325 3.13943V3.11153L17.0604 3.06967L17.1301 3.04176L22.2929 3.12548L22.3487 3.23711V3.37664L22.4883 3.3906L22.5162 3.40455L22.558 3.46036L22.5859 3.79525H22.7673L22.7813 3.25106L23.6325 2.05106L23.7162 1.98129C23.772 1.93478 23.8278 1.91618 23.8836 1.92548C24.0232 1.94408 24.1255 1.99525 24.1906 2.07897L24.2325 2.17664L24.2185 2.2185L24.2325 3.79525H25.7115L25.9069 3.86501L26.7441 3.85106V3.79525H28.7952V3.4185H35.0464L35.1022 3.47432V4.7999L35.0604 4.86966ZM23.9255 2.97199L23.8557 2.90222L23.7999 2.72083L23.7859 2.58129L23.465 2.55339L22.9627 3.33478L23.0325 3.3906H23.9813L24.0511 3.30687V2.97199H23.9255ZM23.0464 3.79525H23.9394L23.9813 3.65571H23.0464V3.79525ZM16.0557 2.4278L16.0139 2.3999H12.1069H12.0092L11.8557 2.46967L11.7301 2.59525L11.6743 2.66501L11.4511 3.2092L11.5348 3.29292L15.9859 3.26501L16.0418 3.25106L16.1534 3.19525C16.265 3.12083 16.3208 2.9999 16.3208 2.83246C16.3208 2.69292 16.2697 2.58129 16.1673 2.49757L16.0557 2.4278ZM1.55804 5.02315L1.50223 5.0092H0.469669L0.413855 5.02315L0.371994 5.10687L0.427808 5.17664L0.469669 5.20455H1.51618L1.55804 5.16269L1.5999 5.09292L1.55804 5.02315ZM0.371994 3.37664V3.53013H1.69758L1.68362 3.43246L1.64176 3.37664L1.58595 3.36269L0.371994 3.37664ZM13.1952 6.04176L13.0836 5.9999H12.5534L12.4278 6.12548C12.3534 6.24641 12.3115 6.35804 12.3022 6.46036C12.2929 6.56269 12.3255 6.66501 12.3999 6.76734L12.5255 6.87897L12.4697 6.92083L12.2883 6.78129C12.1673 6.66966 12.1022 6.54873 12.0929 6.4185C12.0836 6.33478 12.1022 6.23711 12.1487 6.12548L12.2046 5.9999L11.9673 6.08362C11.7999 6.19525 11.7255 6.35804 11.7441 6.57199C11.7534 6.69292 11.8139 6.80455 11.9255 6.90687L12.0929 7.03246H13.3487V6.86501L13.4604 6.69757C13.5069 6.56734 13.4976 6.42315 13.4325 6.26501L13.1952 6.04176Z" fill="white"/>
</svg>
