<svg width="14" height="12" viewBox="0 0 14 12" fill="none" xmlns="http://www.w3.org/2000/svg">
<path fill-rule="evenodd" clip-rule="evenodd" d="M13.6769 3.05597V3.48853L13.5094 3.66993H12.8257L12.7699 3.69783L12.7141 3.71179V4.43737H10.9001V4.549L10.928 4.66062L10.942 4.78621L10.8862 4.82807L10.8024 4.89783L10.8443 5.09318L10.8722 5.24667H10.5094L10.0908 5.23272L9.97919 5.44202L9.79779 5.76295L9.53268 6.06993C9.43035 6.15365 9.31407 6.20481 9.18384 6.22341L8.47221 6.23737C8.19314 6.22807 7.97454 6.16295 7.8164 6.04202L7.73268 5.98621V8.49783L7.635 8.52574L7.50942 8.55365V10.7164H5.87686V8.60946L5.84896 8.58155L5.8071 8.5676L5.77919 8.55365H4.84431L4.64896 8.28853L4.96989 6.86527L5.19314 5.87458L5.30477 5.41411L5.03965 4.92574C4.94663 4.7769 4.87221 4.69318 4.8164 4.67458L4.4257 4.63272L3.86756 4.67458L3.8257 4.71644L3.75593 4.77225L3.67221 4.85597L3.46291 4.82807L3.435 4.77225L3.42105 4.74434L3.39314 4.70248H2.06756V5.73504H1.99779L1.80244 5.81876H1.48151L1.31407 5.76295L1.2164 5.73504H1.16058L1.02105 5.72109L0.853608 5.70714L0.755933 5.65132L0.588491 5.44202L0.546631 5.33039V5.23272C0.546631 5.08388 0.579189 4.93039 0.644305 4.77225L0.672212 4.46528V3.96295L0.78384 1.86993L1.11872 1.43737V1.39551L1.83035 1.43737L2.37454 1.49318L2.91872 1.52109L3.35128 1.56295L3.57454 1.59086L3.8257 1.60481L4.31407 1.67458L4.78849 1.74435L5.05361 1.77225H5.09547V1.81411L5.15128 1.86993V2.00946L4.95593 2.13504L4.67686 2.1769H4.31407H3.99314L3.83965 2.16295L2.52803 2.06528H2.50012L2.48617 2.03737V2.16295L2.73733 2.1769L3.10012 2.20481L3.44896 2.24667L3.67221 2.26062H4.24431H5.54198H7.2164H8.87686V2.149L8.90477 1.98155L8.93268 1.7583H8.96058L9.19779 1.73039H9.47686H9.72803L9.88152 1.77225L9.99314 1.92574L10.0908 2.13504H11.5001V2.06528L11.528 1.95365L11.542 1.84202H11.5699L11.7792 1.7583C11.8536 1.72109 11.942 1.68853 12.0443 1.66062L12.2815 1.59086H12.4629L12.6304 1.73039L12.6722 1.84202V2.7769L12.8117 2.90248H13.5792L13.6769 3.05597ZM7.94198 5.70714L8.17919 5.79086H9.23965L9.46291 5.70714L9.56059 5.48388V5.31644L9.46291 5.09318C9.4071 5.03737 9.33268 5.00946 9.23965 5.00946H8.17919C8.08617 5.00946 8.0071 5.03737 7.94198 5.09318C7.86756 5.149 7.83035 5.22341 7.83035 5.31644V5.48388C7.83035 5.5769 7.86756 5.65132 7.94198 5.70714ZM1.31407 2.20481L1.28617 2.33039V2.52574L1.30012 2.90248L1.34198 3.39086L1.50942 2.69318L1.64896 2.24667L1.48151 2.20481H1.31407Z" fill="white"/>
</svg>
