<svg width="25" height="12" viewBox="0 0 25 12" fill="none" xmlns="http://www.w3.org/2000/svg">
<path fill-rule="evenodd" clip-rule="evenodd" d="M1.1302 1.73013H1.17206V1.71618H1.18601H1.21392H6.62787L6.97671 1.70222L7.00462 1.67432H7.04648H7.07438L7.1302 1.68827L7.1581 1.71618H20.0093H20.0511H20.093L20.1488 1.73013L20.1767 1.75804L20.2046 1.78594L20.2186 1.81385L20.2325 1.84176L20.2465 1.85571H20.386V1.88362V1.91153V1.93943V1.96734V1.99525V2.02315V2.05106V2.06501V2.09292V2.12083V2.14873V2.17664V2.1906L20.4 2.20455V2.23246V2.26036L20.386 2.28827V2.30222V2.33013V2.35804V2.38594V2.41385H20.3302V2.44176H20.3721L20.4279 2.45571L20.4418 2.46967L20.4697 2.44176H20.5116H20.693L20.7209 2.45571V2.44176L20.7767 2.45571L20.8046 2.48362L20.8186 2.51153L20.8325 2.53943V2.55339V2.58129V2.6092V2.63711V2.66501V2.69292V2.72083V2.74873V2.76269V2.7906H24.4186L24.4744 2.80455L24.5023 2.83246L24.5442 2.84641L24.5721 2.87432L24.586 2.90222L24.6 2.93013V2.95804V2.97199V2.9999V3.0278V3.05571V3.08362V3.11153V3.13943V3.16734V3.18129V3.2092V3.23711V3.26501V3.29292V3.32083V3.34873V3.37664V3.3906V3.4185V3.44641V3.47432V3.50222V3.53013L24.586 3.55804L24.6 3.58594V3.5999L24.5721 3.6278V3.65571V3.66967L24.5442 3.69757V3.72548L24.5302 3.73943L24.5023 3.75339L24.4604 3.76734H22.7302V3.79525V3.8092V3.83711V3.86501V3.89292V3.92083H22.7162V3.93478L22.6883 3.94873V3.97664L22.6604 4.00455H22.6465L22.6046 4.0185L22.5488 4.00455L22.5069 4.0185H20.9721L20.9442 4.03246L20.9023 4.04641H20.8744L20.8465 4.07432L20.8604 4.08827L20.8744 4.11618V4.14408L20.8465 4.15804V4.18594L20.8325 4.21385H20.8046L20.7628 4.2278H20.7209H20.693H20.6372V4.26966H20.1488V4.28362V4.31153V4.33943V4.36734V4.39525V4.42315V4.43711V4.46501V4.49292V4.52083V4.54873L20.0232 4.56269V4.57664L20.0093 4.60455L19.9953 4.63246L19.9814 4.64641L19.9674 4.67432V4.70222L19.9395 4.73013V4.75804L19.9116 4.78594V4.81385L19.8976 4.84176L19.8837 4.85571L19.8697 4.88362L19.8558 4.91153L19.8418 4.93943L19.8139 4.96734L19.8 4.99525V5.0092L19.786 5.03711L19.7721 5.05106L19.7581 5.06501L19.7442 5.09292L19.7302 5.12083L19.7162 5.13478L19.6883 5.16269L19.6744 5.1906L19.6465 5.2185L19.6186 5.24641L19.5907 5.27432L19.5628 5.28827L19.5488 5.30222L19.5209 5.33013H19.5069L19.493 5.34408H19.479L19.4651 5.37199L19.4511 5.3999L19.4372 5.41385L19.4093 5.44176L19.3255 5.46966L19.2558 5.49757V5.51153L19.2418 5.52548H19.0744L19.0604 5.53943L19.0046 5.55339H18.4465L18.3907 5.53943L18.3767 5.51153H18.3488H18.2372L18.1953 5.49757L18.1814 5.48362H18.1535L18.0837 5.46966L18.0558 5.44176L18.0418 5.41385H18.0279L17.9721 5.3999L17.9442 5.37199L17.9302 5.34408L17.8883 5.31618V5.30222L16.3674 5.31618L16.3535 5.33013H16.3395L16.2837 5.34408H16.1162L16.1023 5.35804L16.0604 5.37199L16.0046 5.38594L15.9907 5.41385L15.9348 5.44176L15.893 5.46966L15.8651 5.48362L15.8511 5.51153L15.8372 5.53943H15.8232L15.7535 5.55339L15.7116 5.58129L15.6837 5.6092L15.6558 5.63711V5.66501L15.6418 5.69292L15.586 5.72083L15.5442 5.74873L15.5162 5.76269L15.5023 5.7906L15.4744 5.8185V5.84641L15.4465 5.87432L15.4325 5.90222L15.4046 5.93013L15.3907 5.95804V5.97199L15.3767 5.9999L15.3628 6.0278L15.3348 6.05571V6.08362L15.3209 6.11153L15.3069 6.13943L15.293 6.16734L15.279 6.18129L15.2651 6.2092L15.2511 6.23711L15.2372 6.26501V6.29292L15.2232 6.32083L15.1814 6.34873L15.1674 6.37664L15.1255 6.39059L15.1116 6.4185L15.0837 6.44641L15.0697 6.46036L15.0558 6.47432L15.0139 6.48827L14.9581 6.50222L14.9442 6.51618L14.8883 6.53013H14.7907L14.7767 6.54408L14.7348 6.55804H14.6093L14.5674 6.54408L14.5535 6.53013H14.5255L14.4558 6.51618L14.4418 6.48827H14.4L14.3442 6.46036L14.3162 6.44641L14.3023 6.43246L14.2046 6.4185L14.1767 6.39059L14.1628 6.37664L14.1488 6.34873L14.1348 6.32083L14.1069 6.29292V6.26501L14.093 6.23711L14.079 6.2092V6.18129V6.16734V6.13943L14.0651 6.11153L14.0372 6.08362V6.05571V6.0278V5.9999V5.97199V5.94408L14.0232 5.91618V5.88827V5.86036V5.83246V5.8185V5.7906V5.76269V5.73478V5.70687V5.67897L14.0093 5.65106V5.62315L13.9953 5.6092V5.58129L11.8604 5.59525L11.8465 5.6092L11.7907 5.62315H11.7488H11.7209V5.65106L11.7069 5.67897V5.70687L11.679 5.73478L11.6651 5.74873L11.6511 5.76269L11.6232 5.7906L11.6093 5.8185L11.5674 5.83246L11.5535 5.86036L11.5395 5.88827V5.91618L11.5116 5.94408L11.4697 5.97199L11.4558 5.9999L11.4279 6.0278L11.4 6.04176L11.386 6.06966L11.3581 6.09757L11.3302 6.12548V6.15339L11.3023 6.18129L11.2744 6.2092L11.2604 6.23711L11.2186 6.25106L11.2046 6.27897L11.1767 6.30687L11.1488 6.33478L11.1209 6.36269L11.093 6.39059L11.0511 6.4185L11.0093 6.44641L10.9814 6.46036L10.9674 6.48827L10.9535 6.51618H10.9395L10.8837 6.53013L10.8697 6.55804L10.8558 6.58594L10.8418 6.5999L10.8139 6.61385L10.7721 6.6278L10.7302 6.61385L10.7162 6.6278L10.7023 6.65571H10.6744L10.6325 6.66966H8.79066H8.7488H8.7209L8.66508 6.65571L8.63717 6.6278L8.62322 6.5999V6.57199V6.54408L8.63717 6.53013H8.58136V6.55804L8.56741 6.57199V6.5999L8.55345 6.61385L8.5395 6.64176V6.65571L8.52555 6.68362L8.49764 6.69757V6.72548V6.73943V6.76734L8.46973 6.78129V6.8092V6.82315V6.85106V6.86501L8.45578 6.89292V6.90687L8.44183 6.93478V6.94873L8.42787 6.97664L8.41392 6.99059L8.39997 7.0185L8.38601 7.03246V7.06036V7.07432V7.10222L8.3581 7.11618L8.34415 7.14408L8.3302 7.15804V7.18594V7.1999L8.31624 7.2278L8.28834 7.24176L8.27438 7.26966V7.28362V7.31152L8.26043 7.32548V7.35339L8.24648 7.36734L8.23252 7.39525V7.4092L8.21857 7.43711L8.19066 7.45106V7.47897L8.17671 7.49292V7.52083L8.16276 7.53478L8.1488 7.56269L8.13485 7.57664V7.60455V7.6185L8.1209 7.64641L8.09299 7.66036L8.07903 7.68827V7.70222L8.06508 7.73013L8.05113 7.74408V7.77199L8.03717 7.78594L8.02322 7.81385L8.00927 7.84176L7.99531 7.85571L7.98136 7.88362L7.96741 7.89757L7.95345 7.92548L7.92555 7.93943L7.91159 7.96734L7.89764 7.98129V8.0092L7.88369 8.02315L7.86973 8.05106L7.85578 8.06501L7.84183 8.09292V8.10687L7.82787 8.13478L7.81392 8.14873V8.16269L7.79997 8.1906L7.78601 8.20455V8.23246L7.77206 8.24641V8.27432L7.7581 8.28827H7.74415V8.31618L7.7302 8.33013L7.71624 8.35804L7.68834 8.37199L7.67438 8.3999L7.64648 8.41385L7.63252 8.44176L7.60462 8.45571V8.48362H7.66043H7.70229V8.51153L7.67438 8.52548V8.55339L7.66043 8.56734L7.64648 8.59525V8.6092V8.63711V8.65106V8.67897L7.61857 8.69292V8.72083L7.60462 8.73478L7.59066 8.76269V8.77664V8.80455V8.8185V8.84641V8.86036V8.88827V8.91618V8.93013L7.56276 8.94408L7.5488 8.97199L7.53485 8.98594V9.01385V9.06966L7.50694 9.08362V9.11153L7.49299 9.12548L7.47903 9.15339V9.16734L7.46508 9.19525L7.45113 9.2092V9.22315L7.40927 9.23711L7.36741 9.25106H7.32555L7.28369 9.26501H7.26973L7.22787 9.27897L7.21392 9.29292L7.19997 9.32083L7.17206 9.33478L7.1581 9.36269V9.37664V9.40455L7.1302 9.4185L7.10229 9.44641V9.46036L7.08834 9.48827L7.07438 9.50222V9.53013V9.54408V9.57199V9.58594V9.61385L7.04648 9.6278V9.65571V9.66966V9.69757V9.71152V9.73943L7.03252 9.75339L7.01857 9.78129V9.79525V9.82315V9.83711L7.00462 9.86501L7.04648 9.89292L7.07438 9.90687V9.93478V9.96269L7.04648 9.99059L7.00462 10.0045H6.9488L6.93485 10.0325L6.90694 10.0464L6.89299 10.0743L6.87903 10.0883L6.86508 10.1162L6.85113 10.1301L6.83717 10.158V10.172L6.82322 10.1999L6.80927 10.2139H6.79531H6.68369V10.2418V10.2697V10.2836V10.3115L6.71159 10.3394L6.72555 10.3534V10.3673L6.7395 10.3952V10.4232L6.72555 10.4511L6.71159 10.465L6.69764 10.4929H6.68369L6.62787 10.5069L3.93485 10.5208H3.90694L3.86508 10.5348L3.80927 10.5208L3.75345 10.5069H3.72555H3.69764L3.64183 10.4929L3.61392 10.465L3.58601 10.4371L3.55811 10.4092L3.5302 10.3813L3.51624 10.3534L3.48834 10.3255L3.46043 10.3115L3.43252 10.2836L3.40462 10.2557L3.39066 10.2278V10.1999V10.172V10.1441V10.1162V10.1022L3.41857 10.0743L3.44648 10.0464H3.48834H3.51624L3.57206 10.0604L3.59997 10.0883L3.61392 10.1162V10.0883V10.0604V10.0325L3.58601 10.0045L3.57206 9.97664L3.55811 9.96269V9.93478L3.57206 9.90687L3.59997 9.87897H3.61392V9.85106V9.83711V9.8092L3.62787 9.79525L3.64183 9.76734H3.65578L3.66973 9.75339L3.69764 9.72548L3.72555 9.71152V9.68362L3.75345 9.66966L3.76741 9.64176L3.78136 9.6278V9.5999L3.80927 9.58594V9.55804L3.82322 9.54408L3.83718 9.51618V9.50222V9.47432V9.46036V9.43246L3.86508 9.4185V9.39059L3.87904 9.37664L3.89299 9.34873L3.9209 9.33478V9.30687V9.29292V9.26501L3.9488 9.25106V9.22315L3.96276 9.2092V9.18129L3.97671 9.16734L3.99066 9.13943V9.12548L4.00462 9.09757V9.08362L4.01857 9.05571L4.04648 9.04176L4.06043 9.01385V8.9999V8.97199L4.07438 8.95804V8.93013L4.10229 8.91618L4.11624 8.88827L4.1302 8.87432L4.14415 8.84641V8.83246V8.80455L4.15811 8.7906L4.17206 8.76269V8.74873L4.18601 8.72083L4.19997 8.70687L4.21392 8.67897L4.22787 8.66501V8.63711L4.24183 8.62315L4.25578 8.59525V8.58129L4.26973 8.55339L4.29764 8.53943L4.31159 8.51153L4.32555 8.49757V8.46967L4.3395 8.45571V8.4278V8.41385L4.35345 8.38594L4.36741 8.37199V8.34408L4.39531 8.33013L4.40927 8.30222V8.28827L4.42322 8.26036V8.24641L4.43718 8.2185L4.45113 8.20455V8.17664L4.49299 8.16269L4.50694 8.13478L4.5209 8.12083L4.53485 8.09292V8.07897V8.05106L4.5488 8.03711L4.56276 8.0092V7.99525L4.57671 7.96734V7.95339L4.59066 7.92548V7.91153L4.60462 7.88362L4.61857 7.86966L4.63252 7.84176L4.64648 7.8278L4.66043 7.7999L4.67438 7.78594V7.75804L4.70229 7.74408V7.73013V7.70222V7.68827L4.71624 7.66036V7.64641H4.7302V7.63246V7.6185L4.74415 7.60455L4.75811 7.57664L4.77206 7.56269L4.78601 7.53478V7.52083L4.79997 7.49292L4.82787 7.47897L4.84183 7.45106V7.43711L4.85578 7.4092L4.86973 7.39525L4.88369 7.36734L4.89764 7.35339V7.32548L4.91159 7.31152V7.28362L4.92555 7.26966V7.24176V7.2278H4.9395L4.96741 7.21385V7.1999L4.98136 7.17199L4.99531 7.15804L5.00927 7.13013L5.02322 7.11618L5.03717 7.08827V7.07432V7.04641V7.03246V7.0185V6.99059V6.96269V6.94873V6.92083V6.90687V6.87897V6.86501V6.83711V6.82315V6.79525V6.78129V6.75339V6.73943V6.71153V6.69757V6.66966L5.06508 6.65571L5.07904 6.6278L5.09299 6.61385V6.58594L5.10694 6.57199L5.1209 6.54408L5.13485 6.53013L5.1488 6.50222L5.16276 6.48827V6.46036V6.44641L5.17671 6.4185V6.40455L5.19066 6.37664V6.36269L5.20462 6.33478L5.21857 6.32083L5.23252 6.29292L5.24648 6.27897L5.26043 6.25106L5.28834 6.23711L5.30229 6.2092V6.19525L5.31624 6.16734L5.3302 6.15339L5.34415 6.12548V6.11153L5.3581 6.08362V6.06966L5.37206 6.04176L5.38601 6.0278L5.39997 5.9999L5.41392 5.98594L5.42787 5.95804L5.44183 5.94408L5.45578 5.91618L5.46973 5.90222L5.48369 5.87432L5.49764 5.86036L5.51159 5.83246L5.48369 5.8185L5.46973 5.7906H5.39997L5.3581 5.77664L5.34415 5.76269H5.23252L5.17671 5.74873L5.16276 5.72083H4.98136L4.9395 5.70687L4.92555 5.69292H4.77206L4.71624 5.67897L4.70229 5.65106H4.56276L4.5209 5.63711L4.50694 5.62315H4.39531L4.3395 5.6092L4.32555 5.58129H4.21392L4.17206 5.56734L4.15811 5.55339H3.97671L3.9209 5.53943L3.90694 5.51153H3.76741L3.72555 5.49757L3.71159 5.48362H3.62787L3.57206 5.46966L3.55811 5.44176H3.48834L3.44648 5.4278L3.43252 5.41385H3.3488L3.29299 5.3999L3.27904 5.37199H3.23718L3.19531 5.35804L3.18136 5.34408H3.1395L3.08369 5.33013L3.06973 5.30222H2.99997L2.95811 5.28827L2.94415 5.27432H2.88834L2.83252 5.26036L2.81857 5.23246H2.79066L2.7488 5.2185L2.73485 5.20455H2.67904L2.62322 5.1906L2.60927 5.16269H2.58136L2.5395 5.14873L2.52555 5.13478H2.46973L2.41392 5.12083L2.37206 5.09292L2.34415 5.06501H2.3302L2.27438 5.05106L2.23252 5.02315L2.20462 4.99525H2.19066L2.13485 4.98129L2.09299 4.95339L2.06508 4.92548H2.02322L1.96741 4.91153L1.9395 4.88362L1.92555 4.85571H1.91159L1.85578 4.84176L1.84183 4.81385H1.81392L1.75811 4.78594L1.71624 4.77199L1.68834 4.74408L1.67438 4.71618L1.63252 4.68827L1.59066 4.66036L1.56276 4.63246L1.53485 4.60455L1.47904 4.57664L1.43718 4.56269L1.40927 4.53478L1.39531 4.50687L1.35345 4.47897L1.32555 4.45106L1.31159 4.42315L1.28369 4.39525L1.22787 4.36734L1.19997 4.35339L1.15811 4.32548L1.11624 4.29757L1.07438 4.26966L1.06043 4.25571H0.962757V4.2278V4.18594L0.93485 4.15804L0.906943 4.13013L0.865082 4.10222L0.823222 4.07432L0.795315 4.04641L0.767408 4.0185L0.753454 4.00455L0.739501 3.97664V3.96269L0.711594 3.94873L0.683687 3.93478L0.669733 3.90687V3.87897L0.65578 3.85106L0.627873 3.82315V3.79525L0.599966 3.76734L0.586012 3.73943L0.572059 3.72548L0.558105 3.69757V3.66967V3.64176V3.61385V3.58594V3.55804V3.53013V3.51618V3.48827V3.46036V3.43246V3.40455V3.37664V3.34873V3.32083V3.30687V3.27897L0.572059 3.25106L0.586012 3.22315L0.599966 3.19525V3.16734V3.13943V3.11153V3.09757V3.06967V3.04176V3.01385V2.98594V2.95804L0.613919 2.93013L0.627873 2.90222V2.88827L0.65578 2.86036L0.683687 2.83246L0.69764 2.80455V2.77664L0.725547 2.74873L0.753454 2.72083L0.767408 2.69292L0.795315 2.67897L0.809268 2.65106L0.823222 2.62315L0.837175 2.59525V2.56734V2.53943L0.865082 2.51153L0.879036 2.48362V2.46967V2.44176V2.41385V2.38594V2.35804L0.892989 2.33013L0.906943 2.30222V2.27432V2.26036V2.23246V2.20455V2.17664V2.14873V2.12083V2.09292V2.06501V2.05106L0.93485 2.02315L0.948803 1.99525V1.96734V1.93943L0.962757 1.91153L0.97671 1.88362V1.85571L1.00462 1.84176L1.04648 1.81385L1.06043 1.78594L1.08834 1.75804L1.1302 1.73013ZM10.8837 5.38594V5.37199L9.58601 5.38594V5.3999V5.4278V5.45571V5.48362V5.51153V5.53943V5.55339V5.58129V5.6092V5.63711L9.59997 5.66501L9.61392 5.69292L9.62787 5.72083V5.74873V5.76269L9.65578 5.7906L9.68369 5.8185L9.71159 5.84641H9.72555L9.7395 5.86036V5.87432L9.75345 5.88827L9.76741 5.90222V5.93013L9.82322 5.95804H10.3255H10.3953H10.4232L10.4372 5.94408L10.479 5.93013L10.493 5.90222H10.5069L10.5348 5.88827L10.6046 5.87432L10.6325 5.84641L10.6604 5.8185L10.6744 5.7906L10.7023 5.76269V5.74873L10.7162 5.72083L10.7442 5.69292L10.7721 5.66501V5.63711L10.8 5.6092L10.8139 5.58129V5.55339V5.53943L10.8279 5.51153L10.8558 5.48362L10.8837 5.45571H10.9116V5.44176L10.8976 5.41385L10.8837 5.38594ZM9.1395 5.62315V5.59525L9.12555 5.62315L9.09764 5.65106L9.06973 5.67897V5.69292H9.05578V5.70687L9.04183 5.72083V5.73478H9.02787V5.74873L9.01392 5.76269V5.77664H8.99997L8.98601 5.80455L8.97206 5.8185L8.9581 5.83246L8.94415 5.86036V5.87432L8.9302 5.88827V5.90222L8.91624 5.93013V5.95804H9.23717V5.93013V5.90222L9.20927 5.88827L9.18136 5.86036L9.16741 5.83246V5.80455V5.77664L9.1395 5.74873V5.72083V5.69292V5.67897V5.65106V5.62315ZM0.948803 3.89292L0.962757 3.90687V3.86501V3.85106H0.948803V3.87897V3.89292Z" fill="white"/>
</svg>
