<svg width="11" height="14" viewBox="0 0 11 14" fill="none" xmlns="http://www.w3.org/2000/svg">
<path fill-rule="evenodd" clip-rule="evenodd" d="M8.95582 1.78112L9.16649 2.0684C9.25587 2.18331 9.32609 2.21523 9.37716 2.16416C9.42823 2.11309 9.37716 1.96626 9.22395 1.72367C9.05796 1.46831 9.0835 1.18741 9.30055 0.880985C9.32609 1.00866 9.4793 1.20018 9.7602 1.45554C10.0411 1.72367 10.2135 1.98541 10.2773 2.24077L10.2964 2.6238L10.1432 3.08345L9.93256 3.40903C9.89426 3.4984 9.92618 3.60693 10.0283 3.73461C10.1177 3.86229 10.0922 4.03466 9.95172 4.25171L9.33886 4.97948C9.16011 5.18377 8.89198 5.29868 8.53448 5.32421L8.8026 4.86457L8.89836 4.84542L9.47292 4.06019L9.37716 3.81122L8.97497 3.44733C8.80899 3.33242 8.65577 3.24943 8.51533 3.19836L8.2472 3.17921L7.67265 3.96443H7.6918V4.07934L7.11724 4.78796L7.05979 4.73051L6.77251 4.15595C6.67037 3.81122 6.65121 3.53032 6.71505 3.31327L6.94488 2.89193C7.03425 2.71318 7.03425 2.47059 6.94488 2.16416L7.15555 2.24077C7.32153 2.33014 7.44282 2.47059 7.51943 2.66211L7.57689 3.17921L7.59604 3.38988L7.88332 2.75787C7.89608 2.63019 7.81309 2.43228 7.63434 2.16416L7.213 1.62791C7.13639 1.513 7.10447 1.24487 7.11724 0.823529C7.13001 0.389421 7.19385 0.114911 7.30876 0C7.3343 0.268126 7.44921 0.504332 7.65349 0.708618C7.75564 0.810762 8.03015 0.925673 8.47702 1.05335C8.65577 1.10442 8.7643 1.21295 8.8026 1.37893L8.95582 1.78112Z" fill="white" fill-opacity="0.6"/>
<path fill-rule="evenodd" clip-rule="evenodd" d="M8.51519 3.19835C8.65564 3.24942 8.80886 3.33241 8.97484 3.44732L9.37703 3.81121L9.47278 4.06018L8.89823 4.84541L8.80247 4.86456L7.5576 6.89466C7.50653 6.9585 7.44907 7.30961 7.38523 7.94801C7.30863 8.57364 7.17456 9.0269 6.98305 9.30779L3.65062 13.9808L2.96116 14C2.57812 13.8978 2.20785 13.7191 1.85035 13.4637C1.49285 13.2084 1.20557 12.9147 0.988517 12.5828C0.796998 12.2763 0.726775 12.0593 0.777847 11.9316L4.11027 7.23939C4.30179 6.9585 4.68482 6.68399 5.25938 6.41586L5.83393 6.14773L6.17867 5.91791L7.69166 4.07934V3.96442H7.67251L8.24707 3.1792L8.51519 3.19835Z" fill="white"/>
</svg>
