<svg width="26" height="12" viewBox="0 0 26 12" fill="none" xmlns="http://www.w3.org/2000/svg">
<path fill-rule="evenodd" clip-rule="evenodd" d="M25.7582 2.73508L25.814 3.26531L25.7442 3.8095L25.6745 4.07461H18.1117V4.29787L18.028 4.4095H11.1489V4.10252H10.8698C10.8233 4.13043 10.8187 4.20484 10.8559 4.32577L11.0512 4.92577H11.1489L11.1768 5.02345L11.0094 5.09322L11.0512 5.24671L11.2047 5.66531C11.3908 6.14903 11.6326 6.67461 11.9303 7.24205C12.2187 7.8095 12.6233 8.47461 13.1442 9.2374L13.828 10.2002L12.7954 10.9955L12.1117 10.0607C11.6001 9.29787 11.1861 8.60484 10.8698 7.98159L10.0466 6.2095L9.78146 5.56764L9.68378 5.59554H9.30704L9.19541 6.18159H9.11169L9.19541 5.62345H8.79076L8.69308 5.72112L8.20471 6.69787C8.17681 6.77229 8.11634 6.81415 8.02332 6.82345H6.48843L6.15355 6.72577L6.09774 6.76764L6.01401 6.90717L5.97215 7.08857L5.91634 7.28391L5.83262 7.4374L5.70704 7.6467L5.65122 7.88391L5.62332 8.07926L5.51169 8.28857L5.38611 8.53973L5.34425 8.79089L5.30239 8.98624L5.16285 9.18159L5.05122 9.26531L3.39076 8.35833L3.47448 8.02345L3.80936 7.17229C3.93029 6.93043 4.07913 6.68857 4.25587 6.4467L4.42332 6.22345L4.52099 6.0281L4.61867 5.59554C4.63727 5.4374 4.61401 5.30717 4.5489 5.20484L4.31169 4.98159L4.18611 4.92577L4.11634 4.88391L4.06053 4.80019H3.00006C2.90704 4.80019 2.83262 4.73043 2.77681 4.59089L2.60936 3.78159L2.5396 3.76764L2.51169 3.86531L2.69308 4.46531L2.60936 4.6188H2.17681L2.07913 4.4374L2.3582 3.87926L2.34425 3.75368L2.23262 3.8095L2.03727 4.06066L1.91169 4.36764L1.88378 4.47926L1.73029 5.4281L1.52099 6.4188L1.40936 6.51647L1.32564 6.54438H1.10239L0.879131 6.4467L0.79541 6.32112L0.809364 6.18159L0.907038 5.55368L1.03262 4.68857L1.04657 3.58624V2.83275L1.07448 2.53973C1.12099 2.49322 1.17681 2.46996 1.24192 2.46996L1.80006 2.52577L2.23262 2.62345H2.60936L2.62332 2.40019L2.70704 2.10717L2.86053 1.74438L2.97215 1.67461H3.01401H4.03262L4.13029 1.71647H4.61867L4.63262 1.32577C4.66053 1.23275 4.70239 1.16763 4.7582 1.13043L4.92564 1.08857H5.06518L5.12099 1.29787L5.23262 1.0188L5.81867 1.26996L5.69308 1.49322L5.81867 1.70252H11.0931L11.2047 1.71647H17.5535V1.57694H17.4698V0.90717L17.5256 0.837402H17.7629L17.9582 1.38159V1.71647H18.0838L18.1815 1.85601V2.33043H18.0977V2.48391H25.7024L25.7582 2.73508ZM8.3582 5.72112L8.26053 5.62345H7.13029L7.07448 5.73508L6.99076 5.95833L7.01867 6.2095L7.07448 6.4188L7.08843 6.55833L6.97681 6.50252C6.89308 6.38159 6.83727 6.26066 6.80936 6.13973L6.7675 5.77694V5.62345H6.48843L6.36285 5.91647L6.23727 6.25136V6.50252C6.31169 6.57694 6.40936 6.6281 6.53029 6.65601H7.9396L8.06518 6.54438L8.3582 5.72112Z" fill="white"/>
</svg>
