<svg width="16" height="12" viewBox="0 0 16 12" fill="none" xmlns="http://www.w3.org/2000/svg">
<path fill-rule="evenodd" clip-rule="evenodd" d="M9.09071 4.3676V4.35365L9.10466 4.32574L9.09071 4.29783V4.26993V4.24202H7.98838V4.26993V4.29783V4.32574L8.00234 4.35365V4.3676L8.01629 4.38155V4.39551L8.0721 4.42341L8.10001 4.45132L8.11396 4.47923V4.49318L8.14187 4.50714L8.15582 4.53504L8.16978 4.56295L8.18373 4.5769L8.19769 4.60481L8.21164 4.63272V4.66062L8.22559 4.67458V4.68853L8.2535 4.71644L8.26745 4.74434L8.29536 4.77225V4.78621H8.30931V4.80016L8.33722 4.82807V4.85597L8.35117 4.86993V4.88388L8.37908 4.89783L8.39303 4.92574H8.76978L8.78373 4.91179L8.81164 4.89783V4.88388H8.83955V4.85597L8.86745 4.82807L8.90931 4.81411L8.92327 4.78621V4.77225V4.74434L8.93722 4.71644V4.68853V4.67458L8.95117 4.66062L8.96513 4.63272L8.99303 4.60481L9.00699 4.5769V4.56295L9.02094 4.53504L9.03489 4.50714L9.0628 4.49318L9.09071 4.47923V4.45132V4.42341V4.39551V4.3676ZM14.5047 3.05597V3.06993H15.7744L15.8442 3.13969V3.89318L15.7605 3.9769H14.5884V4.00481L14.407 4.01876L14.393 4.03272L14.3512 4.07458L14.3233 4.08853L14.3372 4.11644L14.3512 4.14435L14.3651 4.17225V4.18621V4.21411V4.24202V4.26993V4.29783L14.3512 4.32574L14.3233 4.35365V4.3676V4.39551V4.42341V4.45132V4.46528L14.3093 4.47923L14.2954 4.50714L14.2395 4.52109L14.1837 4.50714L14.1698 4.47923L14.1419 4.46528L14.1279 4.45132L14.114 4.42341L14.1 4.39551L14.0861 4.3676L14.0721 4.35365L14.0442 4.32574L14.0163 4.29783L14.0023 4.26993H13.9744L13.9465 4.24202L13.9186 4.21411L13.9047 4.18621L13.8768 4.17225L13.8628 4.14435L13.8349 4.11644L13.807 4.08853L13.7791 4.06062L13.7651 4.03272H13.7512L13.6954 4.01876L13.6814 4.00481H13.6395L13.6116 4.04667L13.5977 4.08853L13.5558 4.13039L13.5 4.17225L13.4302 4.21411L13.3884 4.22807H13.3744V4.24202L13.3605 4.26993H13.3186L13.2768 4.29783L13.2628 4.32574V4.35365L13.2488 4.3676V4.39551L13.2209 4.40946V4.42341V4.45132V4.47923V4.50714V4.53504V4.56295V4.5769V4.60481V4.63272V4.64667V4.67458V4.68853V4.71644V4.74434V4.77225V4.78621V4.81411V4.82807V4.85597V4.88388V4.89783V4.92574V4.95365V4.98155V5.00946V5.03737V5.06528V5.07923V5.10714V5.13504V5.16295V5.19086V5.21876V5.24667V5.27458V5.28853V5.31644V5.34434V5.37225V5.40016V5.42807V5.45597V5.48388V5.49783V5.52574V5.55365V5.5676V5.59551V5.60946V5.63737V5.66528V5.69318V5.70714V5.73504V5.749V5.7769V5.79086V5.81876V5.84667V5.87458V5.90248V5.93039V5.9583V5.98621V6.00016V6.02807V6.05597V6.08388V6.11179V6.13969V6.1676V6.19551V6.20946V6.23737V6.26528V6.29318V6.32109V6.349V6.3769V6.40481V6.41876V6.44667V6.47458V6.50248V6.53039V6.5583V6.58621V6.61411V6.62807V6.65597V6.66993V6.69783V6.71179V6.73969V6.7676V6.79551V6.80946V6.83737V6.85132V6.87923V6.90714V6.92109V6.949V6.9769V7.00481V7.03272V7.06062V7.08853V7.11644V7.13039V7.1583V7.18621V7.21411V7.24202V7.26993V7.29783V7.32574V7.33969V7.3676V7.39551V7.42341V7.45132V7.47923V7.50714V7.52109V7.549V7.5769V7.59086V7.61876V7.63272V7.66062V7.68853V7.71644V7.73039V7.7583V7.77225V7.80016V7.82807V7.84202V7.86993V7.89783V7.92574V7.95365V7.98155V8.00946L13.207 8.03737L13.193 8.05132V8.07923L13.1651 8.09318L13.1512 8.10714H13.1093H13.0814H13.0395L13.0116 8.09318L12.8721 8.07923L12.8163 8.06527L12.7884 8.03737H12.7605L12.7465 8.02341L12.6907 8.00946L12.6768 7.99551L12.6209 7.98155H12.5791V7.9676L12.5233 7.95365L12.4675 7.93969L12.4535 7.92574H12.3977H12.3698L12.3419 7.91179L12.314 7.89783L12.2721 7.88388L12.2302 7.85597L12.1744 7.82807H12.1605L12.1186 7.80016L12.0768 7.77225L12.0628 7.74434L12.0349 7.73039L12.0209 7.70248L11.993 7.67458L11.9791 7.64667L11.9512 7.63272L11.9233 7.61876L11.9093 7.59086L11.8954 7.56295L11.8814 7.53504L11.8675 7.52109V7.49318L11.8535 7.46527V7.45132L11.8256 7.42341L11.8116 7.40946V7.38155L11.7977 7.35365L11.7837 7.32574V7.31179V7.28388V7.26993V7.24202V7.21411V7.1583V7.13039V7.11644V7.08853V7.06062V7.03272V7.00481V6.9769V6.949V6.92109V6.90714V6.87923V6.85132V6.83737V6.80946V6.79551V6.7676V6.73969V6.71179V6.69783V6.66993V6.65597V6.62807V6.61411V6.58621L11.7977 6.5583L11.8116 6.53039V6.50248V6.47458V6.44667V6.41876V6.40481V6.3769V6.349V6.32109V6.29318L11.8256 6.26528L11.8395 6.23737L11.8535 6.20946V6.19551V6.1676V6.13969V6.11179V6.08388V6.05597V6.02807V6.00016V5.98621V5.9583V5.93039V5.90248V5.87458V5.84667V5.81876V5.79086V5.7769V5.749V5.73504V5.70714V5.69318V5.66528V5.63737V5.60946V5.59551V5.5676V5.55365V5.52574V5.49783V5.48388V5.45597V5.42807V5.40016V5.37225V5.34434V5.31644V5.28853V5.27458V5.24667V5.21876V5.19086V5.16295V5.13504V5.10714V5.07923V5.06528V5.03737V5.00946V4.98155V4.95365V4.92574V4.89783V4.88388V4.85597V4.82807V4.81411V4.78621V4.77225V4.74434V4.71644V4.68853V4.67458V4.64667V4.63272V4.60481V4.5769V4.56295V4.53504V4.50714V4.47923V4.45132V4.42341V4.39551V4.3676V4.35365V4.32574V4.29783V4.26993V4.25597L11.8116 4.24202H9.64885L9.63489 4.25597L9.64885 4.26993L9.6628 4.29783V4.32574V4.33969V4.3676V4.38155V4.40946V4.43737V4.46528V4.47923V4.50714V4.52109L9.63489 4.549V4.5769V4.59086V4.61876V4.64667L9.57908 4.67458L9.55117 4.68853L9.52327 4.70248L9.50931 4.73039L9.48141 4.7583L9.43954 4.78621V4.80016L9.42559 4.82807V4.85597V4.88388L9.39769 4.91179V4.93969V4.9676V4.98155V5.00946V5.03737V5.06528V5.07923L9.38373 5.09318L9.35582 5.12109V5.149L9.34187 5.1769L9.32792 5.19086V5.21876V5.24667L9.31396 5.26062L9.2721 5.28853L9.25815 5.30248L9.23024 5.33039L9.18838 5.34434L9.0628 5.37225L9.03489 5.38621H9.00699H8.58838L8.57443 5.40016H8.53257L7.52792 5.42807L7.50001 5.44202H7.4721H7.40234L7.38838 5.45597L7.36048 5.48388L7.34652 5.49783H7.33257V5.52574V5.55365V5.58155V5.59551V5.62341V5.65132V5.67923V5.70714V5.73504V5.76295V5.79086V5.80481V5.83272V5.86062V5.87458V5.90248V5.91644V5.94434V5.97225V6.00016L7.31862 6.01411L7.30466 6.04202V6.05597V6.08388V6.09783V6.12574V6.15365V6.18155V6.20946V6.23737V6.26528V6.29318V6.30714V6.33504V6.36295V6.39086V6.41876V6.44667V6.47458V6.50248V6.51644V6.54434V6.57225V6.60016V6.62807V6.65597L7.31862 6.68388L7.33257 6.71179V6.72574V6.75365V6.78155V6.80946V6.83737V6.86527V6.89318V6.92109V6.93504V6.96295V6.9769L7.34652 7.00481L7.36048 7.01876L7.37443 7.04667V7.07458V7.10248V7.11644V7.14434V7.1583V7.18621L7.38838 7.21411L7.40234 7.22807V7.25597V7.28388V7.31179V7.33969V7.3676V7.39551V7.42341V7.43737L7.41629 7.46527V7.49318L7.43024 7.52109V7.549V7.5769V7.60481V7.63272V7.64667V7.67458V7.70248V7.71644L7.41629 7.73039L7.40234 7.7583L7.37443 7.77225V7.80016V7.82807L7.36048 7.84202V7.86993L7.33257 7.89783V7.92574V7.95365V7.98155V8.00946V8.03737V8.05132V8.07923V8.10714V8.13504H7.36048L7.37443 8.16295V8.19086V8.21876V8.23272V8.26062V8.28853V8.31644V8.34434V8.37225V8.40016V8.42807L7.38838 8.44202L7.40234 8.46993V8.49783V8.51179V8.53969V8.55365V8.58155V8.60946V8.63737V8.65132L7.41629 8.67923L7.43024 8.69318V8.72109V8.749V8.76295V8.79086V8.81876V8.84667V8.86062L7.45815 8.87458V8.90248V8.93039V8.94434V8.97225V9.00016V9.02807L7.48606 9.05597H7.50001V9.08388V9.11179V9.13969V9.15365V9.18155V9.20946V9.23737L7.51396 9.25132V9.26528V9.29318V9.32109V9.349V9.36295V9.39086V9.41876L7.54187 9.43272L7.55582 9.46062V9.47458V9.50248V9.53039V9.5583V9.57225V9.60016V9.61411L7.58373 9.64202V9.65597V9.68388V9.71179V9.73969V9.7676V9.78155L7.59768 9.79551L7.61164 9.82341V9.85132V9.86527V9.89318V9.92109L7.62559 9.949L7.63955 9.96295V9.9769V10.0048L7.6535 10.0327L7.66745 10.0606L7.68141 10.0746V10.1025V10.1304V10.1583L7.70931 10.1723V10.1862L7.72327 10.2141L7.73722 10.242V10.2699V10.2839L7.75117 10.3118L7.76513 10.3397L7.79303 10.3536L7.80699 10.3676V10.3955V10.4234L7.82094 10.4513V10.4792H7.83489L7.89071 10.4932L7.90466 10.5211L7.91862 10.535V10.5629V10.5769V10.6048V10.6327V10.6606V10.6746V10.7025V10.7164V10.7443V10.7723V10.7862V10.8141V10.842L7.93257 10.8699L7.94652 10.8839V10.8978V10.9257L7.91862 10.9536L7.90466 10.9816H7.8628H7.38838L7.34652 10.9955H7.33257L7.2628 11.0095L7.22094 11.0374H7.20699L7.16513 11.0513H6.60699L6.53722 11.0374L6.48141 11.0095V10.9955L6.42559 10.9816H6.20234H6.17443H6.14652H6.07675V10.9676H6.0628L6.00699 10.9536L5.97908 10.9257L5.96513 10.8978V10.8839L5.93722 10.8699L5.92327 10.842V10.8141V10.7862V10.7723L5.89536 10.7443V10.7164V10.7025L5.86745 10.6746V10.6606V10.6327V10.6048V10.5769V10.5629L5.83955 10.535V10.5211V10.4932L5.82559 10.4792L5.81164 10.4513L5.79768 10.4234V10.3955V10.3676V10.3536L5.78373 10.3397L5.76978 10.3118V10.2839V10.2699V10.242V10.2141L5.74187 10.1862V10.1583V10.1304V10.1025L5.72792 10.0746L5.71396 10.0606V10.0327V10.0048V9.9769L5.68606 9.96295L5.6721 9.949V9.92109V9.89318V9.86527V9.85132L5.65815 9.82341V9.79551V9.7676L5.6442 9.73969L5.63024 9.71179L5.61629 9.68388V9.65597V9.64202V9.61411V9.60016V9.57225V9.5583L5.60234 9.53039L5.58838 9.50248V9.47458V9.46062V9.43272V9.41876V9.39086V9.36295V9.349V9.32109L5.57443 9.29318L5.56048 9.26528V9.23737V9.20946V9.18155V9.15365L5.54652 9.13969L5.53257 9.11179V9.08388V9.05597V9.02807V9.00016L5.51861 8.97225L5.50466 8.94434L5.49071 8.93039V8.90248V8.87458L5.47675 8.86062L5.4628 8.84667V8.81876V8.79086V8.76295V8.749V8.72109V8.69318V8.67923V8.65132V8.63737L5.44885 8.60946L5.43489 8.58155V8.55365V8.53969V8.51179V8.49783V8.46993V8.44202V8.42807V8.40016V8.37225V8.34434V8.31644V8.28853V8.26062V8.23272V8.21876V8.19086V8.16295V8.13504V8.10714V8.07923V8.05132V8.03737V8.00946V7.98155V7.95365V7.92574V7.89783V7.86993V7.84202V7.82807H5.37908H5.33722L5.30931 7.81411L5.28141 7.80016H5.26745L5.21164 7.7862L5.18373 7.7583L5.15582 7.73039V7.70248V7.67458V7.64667V7.63272L5.14187 7.60481L5.12792 7.5769V7.549V7.52109V7.49318V7.46527V7.43737V7.42341V7.39551L5.10001 7.3676V7.33969V7.31179V7.28388V7.25597V7.22807V7.21411V7.18621V7.1583V7.14434V7.11644V7.10248V7.07458V7.04667V7.01876V7.00481V6.9769V6.96295V6.93504V6.92109V6.89318V6.86527V6.83737V6.80946V6.78155V6.75365V6.72574V6.71179V6.68388V6.65597V6.62807V6.60016V6.57225V6.54434V6.51644V6.50248V6.47458V6.44667V6.41876V6.39086V6.36295V6.33504V6.30714L5.11396 6.29318L5.12792 6.26528V6.23737V6.20946V6.18155V6.15365V6.12574V6.09783V6.08388V6.05597H5.14187V6.02807L5.15582 6.00016V5.97225V5.94434V5.91644V5.90248V5.87458L5.18373 5.86062V5.83272V5.80481V5.79086L5.19768 5.76295L5.22559 5.73504V5.70714V5.69318L5.2535 5.67923V5.65132V5.62341V5.59551V5.58155L5.26745 5.55365L5.28141 5.52574V5.49783H5.30931V5.46993V5.44202V5.41411L5.32327 5.38621L5.35117 5.37225V5.34434V5.31644V5.30248L5.36513 5.28853V5.26062V5.23272V5.20481V5.19086V5.16295V5.13504V5.12109V5.09318V5.07923V5.05132V5.02341V4.99551V4.98155L5.39303 4.95365L5.40699 4.93969V4.91179V4.88388V4.86993V4.84202V4.81411L5.39303 4.78621L5.36513 4.77225V4.7583V4.73039V4.70248V4.67458V4.66062L5.35117 4.63272L5.32327 4.60481L5.29536 4.59086L5.28141 4.60481V4.63272L5.26745 4.66062V4.67458L5.23955 4.70248L5.21164 4.71644L5.19768 4.73039H5.15582L5.10001 4.71644L5.05815 4.70248H5.01629L4.06745 4.73039L4.0535 4.7583L4.03955 4.77225H3.99768L3.94187 4.7583L3.92792 4.73039L3.90001 4.70248L3.88606 4.68853L3.8721 4.67458L3.85815 4.64667V4.63272L3.8442 4.61876L3.81629 4.60481H3.77443H3.76048H3.73257H3.6628H3.63489H3.60699H3.56513H3.53722H2.01629L1.96048 4.59086L1.93257 4.5769L1.90466 4.549V4.52109V4.50714V4.47923L1.87675 4.46528L1.84885 4.45132L1.82094 4.42341L1.80699 4.39551V4.3676V4.35365L1.79303 4.32574V4.29783V4.26993H1.76513L1.75117 4.28388V4.31179V4.33969L1.73722 4.3676V4.38155L1.72327 4.40946V4.42341V4.45132L1.70931 4.47923V4.49318V4.52109L1.69536 4.549V4.5769L1.68141 4.59086V4.60481V4.63272V4.66062V4.67458V4.70248V4.73039L1.66745 4.7583V4.78621H1.6535L1.63955 4.81411V4.84202V4.86993V4.88388L1.62559 4.91179V4.93969V4.9676V4.99551L1.59768 5.02341L1.54187 5.07923L1.52792 5.10714L1.51396 5.16295L1.50001 5.20481L1.48606 5.26062L1.4721 5.28853L1.43024 5.34434V5.38621L1.41629 5.44202V5.48388L1.37443 5.52574L1.36048 5.58155L1.31861 5.62341V5.66528L1.29071 5.70714L1.2628 5.76295L1.24885 5.80481V5.83272V5.86062L1.23489 5.87458L1.22094 5.90248L1.20699 5.94434L1.17908 6.00016L1.15117 6.01411L1.13722 6.02807V6.04202L1.10931 6.06993V6.09783L1.09536 6.11179V6.13969L1.08141 6.1676L1.06745 6.18155L1.0535 6.20946L1.02559 6.22341V6.25132L1.01164 6.27923V6.30714L0.983731 6.32109L0.969778 6.349L0.941871 6.36295L0.913964 6.3769L0.90001 6.40481H0.872103L0.85815 6.41876H0.816289H0.760475H0.718615L0.676754 6.43272L0.57908 6.44667H0.509313L0.383731 6.41876L0.313964 6.40481L0.230243 6.39086L0.174429 6.3769L0.160475 6.349L0.132568 6.32109V6.29318V6.26528V6.23737V6.20946V6.19551V6.1676V6.13969V6.11179V6.08388V6.05597V6.02807V6.00016V5.98621V5.9583V5.93039V5.90248V5.87458V5.84667V5.81876V5.79086V5.7769V5.749V5.73504V5.70714V5.69318V5.66528V5.63737V5.60946V5.59551V5.5676V5.55365V5.52574V5.49783V5.48388V5.45597V5.42807V5.40016V5.37225V5.34434V5.31644V5.28853V5.27458V5.24667V5.21876V5.19086V5.16295V5.13504V5.10714V5.07923V5.06528V5.03737V5.00946V4.98155V4.95365V4.92574V4.89783V4.88388V4.85597V4.82807V4.81411V4.78621V4.77225V4.74434V4.71644V4.68853V4.67458V4.64667V4.63272V4.60481V4.5769V4.56295V4.53504V4.50714V4.47923V4.45132V4.42341V4.39551V4.3676V4.35365V4.32574V4.29783V4.26993V4.24202V4.21411V4.18621V4.17225V4.14435V4.11644V4.08853V4.06062V4.03272V4.00481V3.9769V3.96295V3.93504V3.90714V3.89318V3.86528V3.85132V3.82341V3.79551V3.7676V3.75365V3.72574V3.71179V3.68388V3.65597V3.64202V3.61411V3.58621V3.5583V3.53039V3.50248V3.47458V3.46062V3.43272V3.40481V3.3769V3.349V3.32109V3.29318V3.26528V3.25132V3.22341V3.19551V3.1676V3.13969V3.11179V3.08388V3.05597V3.04202V3.01411V2.98621V2.97225V2.94434V2.93039V2.90248V2.87458V2.84667V2.83272V2.80481V2.79086V2.76295V2.749V2.72109V2.69318H0.146522L0.132568 2.67923V2.65132V2.63737L0.146522 2.60946L0.174429 2.58155L0.202336 2.55365L0.230243 2.52574L0.244196 2.49783L0.25815 2.46993L0.272103 2.44202L0.30001 2.42807L0.313964 2.41411L0.355824 2.40016L0.411638 2.37225L0.481406 2.3583L0.495359 2.34434H0.53722L0.606987 2.33039V2.31644H0.634894L0.690708 2.34434L0.704661 2.3583L0.718615 2.37225V2.40016H1.4721L1.45815 2.38621L1.4442 2.3583V2.34434L1.41629 2.31644V2.30248V2.27458V2.20481V2.1769V2.149L1.4442 2.13504V2.12109L1.45815 2.09318L1.4721 2.06528L1.48606 2.03737L1.50001 2.02341L1.51396 1.99551L1.54187 1.98155L1.58373 1.9676L1.61164 1.95365V1.93969V1.91179V1.88388V1.86993V1.84202V1.82807L1.62559 1.80016L1.66745 1.77225L1.70931 1.74435L1.72327 1.73039H1.76513H1.89071L1.93257 1.74435L1.96048 1.7583L2.01629 1.78621L2.03024 1.81411L2.0721 1.82807H2.11396V1.84202L2.18373 1.82807L2.21164 1.81411L2.23955 1.80016L2.28141 1.78621H2.32327L2.35117 1.81411L2.36513 1.78621V1.7583L2.39303 1.74435L2.40699 1.73039L2.43489 1.70248L2.44885 1.67458L2.47675 1.64667L2.49071 1.63272V1.60481V1.5769L2.51862 1.56295V1.53504L2.54652 1.52109L2.57443 1.50714L2.58838 1.49318L2.63024 1.47923L2.68606 1.46528V1.45132H2.70001L2.71396 1.43737L2.72792 1.42341H2.76978H2.82559H12.6209H12.6349L12.6488 1.40946H12.6768V1.39551H12.7047L12.7605 1.42341L12.8163 1.43737L12.8442 1.45132L12.8861 1.47923L12.9279 1.50714L12.9419 1.52109L12.9698 1.549L12.9977 1.5769V1.60481L13.0116 1.63272L13.0535 1.66062L13.0675 1.68853L13.0954 1.71644L13.1233 1.73039L13.1372 1.74435V1.7583H13.1791L13.207 1.77225L13.2209 1.78621H13.4302L13.4442 1.77225L13.4861 1.7583H13.5419L13.5837 1.77225L13.5977 1.78621H13.6256L13.6814 1.81411L13.6954 1.82807L13.7372 1.84202H13.7512L13.807 1.86993V1.88388L13.8628 1.91179L13.8768 1.93969H13.9047V1.9676V1.99551V2.02341V2.03737V2.07923L13.9465 2.13504L13.9605 2.16295L13.9744 2.21876V2.26062V2.31644L13.9605 2.34434H14.0023L14.0442 2.3583L14.0581 2.37225L14.0861 2.40016L14.1 2.42807L14.114 2.44202V2.45597V2.48388L14.1 2.51179V2.53969L14.0861 2.55365V2.58155V2.60946V2.62341V2.65132L14.1 2.69318L14.1279 2.749L14.1419 2.7769L14.1558 2.83272V2.87458V2.93039L14.1419 2.94434H14.1558L14.2116 2.97225L14.2256 2.98621L14.2814 3.01411L14.2954 3.04202L14.3093 3.05597H14.5047ZM7.61164 4.73039V4.70248L7.59768 4.67458L7.56978 4.66062L7.55582 4.63272V4.60481L7.54187 4.5769L7.52792 4.60481V4.63272V4.66062V4.67458V4.70248L7.54187 4.73039V4.7583L7.55582 4.77225V4.78621V4.81411V4.84202V4.86993V4.88388L7.58373 4.91179V4.92574H7.79303L7.76513 4.91179L7.73722 4.88388L7.72327 4.86993L7.69536 4.84202L7.68141 4.81411V4.78621L7.66745 4.77225L7.63955 4.7583L7.61164 4.73039ZM0.313964 3.25132V3.27923V3.30714V3.33504V3.36295V3.3769V3.40481V3.41876V3.44667V3.46062V3.48853V3.51644V3.54434V3.5583V3.58621V3.60016V3.62807V3.65597V3.68388L0.327917 3.65597V3.61411V3.5583V3.51644V3.47458V3.43272V3.3769V3.33504V3.29318V3.25132V3.19551V3.15365V3.11179L0.313964 3.08388V3.09783V3.12574V3.15365V3.1676V3.19551V3.22341V3.25132Z" fill="white"/>
</svg>
