<svg width="25" height="12" viewBox="0 0 25 12" fill="none" xmlns="http://www.w3.org/2000/svg">
<path fill-rule="evenodd" clip-rule="evenodd" d="M10.7977 1.25575L10.8395 1.22784V1.19993V1.17202V1.14412V1.11621L11.007 1.13016V1.15807L11.1744 1.17202V1.19993L11.2163 1.21389V1.24179L11.2581 1.25575V1.29761L11.286 1.32551L11.3139 1.35342L11.3558 1.38133L11.3977 1.42319L11.4116 1.43714L11.5232 1.46505V1.49296L11.5651 1.50691V1.53482H21.9046L21.9744 1.56272L22.0023 1.59063L22.0442 1.61854L22.0581 1.64644L22.0721 1.6883L22.086 1.71621V1.73016H22.1L22.1279 1.77202L22.2674 2.2604C22.3604 2.58598 22.4442 2.74877 22.5186 2.74877H22.9511L23.0349 2.72086H23.1186V2.70691H23.5232L23.6209 2.72086L23.7046 2.74877H24.3046L24.3604 2.77668L24.3884 2.81854L24.5418 2.83249L24.5279 4.17202L24.5139 4.19993L24.5 4.24179L24.4442 4.29761H24.3884L24.3186 4.28365V4.29761H23.0907L23.6349 5.52551V5.56737V5.59528L23.6488 5.63714V5.65109V5.69295V5.72086V5.76272V6.02784L23.0907 6.04179L22.5465 5.05109L22.1 5.079L22.0302 5.09295H21.9604H21.9325L21.9186 5.12086L21.9046 5.14877V5.19063V5.21854L21.8907 5.24644L21.8767 5.2883V5.31621V5.35807V5.37202V5.41389V5.44179V5.48365V5.51156V5.53947V5.56737V5.60923V5.63714V5.66505V5.70691V5.73482V5.77668V5.79063V5.83249V5.8604V5.90226V5.91621V5.95807V5.98598V6.02784V6.04179V6.08365V6.09761V6.13947V6.16737L21.9046 6.19528V6.23714V6.26505V6.30691V6.32086V6.36272V6.39063V6.43249V6.44644V6.4883V6.51621V6.55807L21.9186 6.58598L21.9465 6.61389L21.9604 6.65575V6.68365V6.71156V6.73947V6.78133V6.80923V6.85109V6.86505V6.90691V6.93482V6.97668L21.9744 6.99063L21.9884 7.03249L22.0023 7.0604V7.10226V7.13016L22.0163 7.15807L22.0302 7.19993V7.22784V7.25575L22.0442 7.28365L22.0581 7.32551L22.0721 7.35342L22.086 7.38133V7.40923L22.1139 7.45109L22.1279 7.479V7.52086V7.54877L22.1418 7.57668V7.61854L22.1558 7.64644L22.1697 7.67435L22.1837 7.70226L22.1977 7.74412L22.2116 7.77202V7.79993L22.2395 7.82784L22.2535 7.8697V7.89761V7.92551V7.95342V7.99528L22.2814 8.02319V8.06505V8.09295V8.12086L22.3093 8.16272L22.3232 8.19063L22.3372 8.21854V8.24644V8.2883L22.3511 8.31621L22.3651 8.34412L22.393 8.37202V8.41389V8.44179V8.4697L22.4209 8.51156V8.53947V8.58133V8.59528L22.4349 8.63714L22.4628 8.66505V8.70691V8.73482V8.76272L22.4767 8.79063L22.5046 8.83249L22.5186 8.8604V8.8883V8.91621L22.5325 8.95807L22.5465 8.98598V9.01389V9.05575V9.08365V9.12551L22.5604 9.13947L22.5884 9.18133L22.6023 9.20923V9.25109V9.26505V9.30691V9.33482V9.37668V9.40458V9.43249V9.47435V9.50226V9.53016V9.55807V9.59993V9.62784V9.6697V9.68365V9.72551V9.75342V9.79528V9.80923V9.85109V9.879V9.92086V9.94877V9.97668L22.5884 10.0185V10.0325L22.6023 10.0743V10.0883L22.5744 10.1302L22.5604 10.1581L22.5465 10.186L22.5325 10.1999L22.4488 10.2278L22.379 10.2418L22.3372 10.2697L22.2814 10.2837L22.2116 10.2976L22.1837 10.3255L22.1279 10.3395L21.9884 10.3534H21.9604L21.9046 10.3674L21.7232 10.3813L21.6535 10.4092L21.1791 10.4232L21.1511 10.4511L21.0953 10.465L20.8163 10.493L20.7884 10.5069L20.7186 10.5348L20.6488 10.5069L20.607 10.493H20.593L20.5232 10.479L20.4674 10.4371L20.4256 10.4092L20.3977 10.3674V10.3534L20.3837 10.3116V10.2837L20.3697 10.2418L20.3418 10.2278V10.186V10.1581L20.3139 10.1162L20.286 10.0883L20.2721 10.0604V10.0185L20.2581 9.99063V9.94877V9.93482L20.2302 9.89295L20.2023 9.86505V9.82319V9.80923L20.1884 9.76737L20.1604 9.73947L20.1465 9.69761V9.6697V9.64179L20.1325 9.59993V9.57202V9.54412V9.51621V9.47435V9.44644L20.1046 9.40458L20.0767 9.39063L20.0628 9.34877L20.0349 9.32086L20.0209 9.279V9.26505V9.22319V9.19528V9.15342L20.007 9.12551L19.993 9.09761V9.05575V9.02784V8.99993V8.97202V8.93016L19.9651 8.90226L19.9511 8.8604V8.84644V8.80458V8.77668V8.73482V8.70691V8.679V8.63714V8.60923L19.9372 8.58133L19.9232 8.55342L19.9093 8.51156V8.48365V8.45575V8.42784V8.38598V8.35807V8.33016V8.30226V8.2604V8.23249V8.19063V8.16272V8.13482V8.09295V8.06505L19.8953 8.03714L19.8674 8.00923L19.8535 7.96737V7.93947V7.91156V7.88365V7.84179V7.81388V7.78598V7.74412V7.71621V7.67435V7.6604V7.61854V7.59063V7.54877V7.52086V7.49295V7.46505L19.8256 7.42319V7.39528V7.36737V7.33947V7.29761V7.2697V7.24179V7.19993V7.17202V7.13016V7.11621V7.07435V7.04644V7.00458V6.99063V6.94877V6.92086V6.879V6.85109V6.82319L19.8116 6.78133L19.7837 6.75342V6.72551V6.69761V6.65575V6.62784V6.58598V6.57202V6.53016V6.50226V6.4604V6.44644V6.40458V6.37668V6.33482V6.30691V6.279V6.23714V6.20923V6.16737V6.15342L19.7697 6.11156L19.7279 6.09761L19.7139 6.05575V6.04179V5.99993V5.95807L19.6721 5.91621L19.6442 5.90226V5.8604V5.83249V5.79063L19.6302 5.77668L19.6023 5.74877L19.5744 5.73482L19.4907 5.70691L19.4488 5.679V5.66505L19.4209 5.65109L19.3372 5.63714H19.3093H19.2674H19.1837H19.1L19.0302 5.65109L19.0163 5.69295L18.9604 5.72086L18.9046 5.76272L18.8907 5.77668V5.81854L18.8488 5.84644L18.8209 5.8883L18.779 5.91621L18.7511 5.94412L18.7372 5.97202L18.6953 6.01389L18.6535 6.04179L18.6256 6.0697L18.6116 6.09761L18.5418 6.12551L18.5 6.16737L18.4721 6.18133L18.4581 6.22319L18.4163 6.25109L18.3884 6.29295L18.3604 6.30691L18.2907 6.34877L18.2628 6.37668L18.2209 6.41854L18.1791 6.44644L18.1511 6.47435L18.1232 6.51621L18.0953 6.54412L18.0674 6.57202L17.9837 6.58598L17.9279 6.61389L17.9 6.65575C17.8907 6.65575 17.8767 6.66505 17.8581 6.68365L17.7744 6.71156L17.6767 6.73947L17.6209 6.78133L17.5651 6.80923L17.5093 6.83714L17.4116 6.85109H17.3837H17.3279L17.0907 6.879L17.0209 6.90691H16.4349L16.3511 6.879L16.1977 6.85109H16.1279L16.1 6.80923L16.0581 6.78133L16.0442 6.73947L16.0023 6.71156L15.9186 6.68365L15.8907 6.65575L15.8488 6.61389L15.807 6.58598L15.793 6.61389L15.779 6.65575L15.7511 6.68365V6.71156L15.7372 6.73947L15.7232 6.78133L15.6953 6.80923L15.6814 6.85109L15.6535 6.86505V6.90691V6.93482L15.6395 6.97668L15.6256 6.99063L15.6116 7.03249L15.5837 7.0604V7.10226V7.13016V7.15807L15.5697 7.19993L15.5558 7.22784L15.5279 7.25575V7.28365V7.32551V7.35342L15.5139 7.38133L15.5 7.40923L15.486 7.45109L15.4721 7.479L15.4442 7.52086V7.54877V7.57668L15.4302 7.61854L15.4023 7.64644L15.3884 7.67435V7.70226L15.3744 7.74412V7.77202V7.79993V7.82784V7.8697V7.89761V7.92551L15.3604 7.95342L15.3465 7.99528L15.3186 8.02319V8.06505V8.09295V8.12086V8.16272V8.19063V8.21854L15.3046 8.24644L15.2907 8.2883L15.2628 8.31621V8.34412V8.37202V8.41389V8.44179V8.4697V8.51156L15.2488 8.53947L15.2349 8.58133V8.59528V8.63714V8.66505V8.70691V8.73482V8.76272V8.79063V8.83249V8.8604V8.8883V8.91621V8.95807V8.98598V9.01389V9.05575V9.08365V9.12551V9.13947V9.18133V9.20923V9.25109V9.26505V9.30691V9.33482V9.37668V9.40458V9.43249V9.47435V9.50226V9.53016V9.55807V9.59993V9.62784V9.6697V9.68365V9.72551V9.75342V9.79528V9.80923V9.85109V9.879V9.92086V9.94877V9.97668V10.0185V10.0464V10.0883V10.1023V10.1441V10.172V10.2139V10.2278V10.2697V10.2976V10.3395V10.3674V10.3953L15.2209 10.4232L15.193 10.465L15.1651 10.493H15.1093V10.5069V10.5488V10.5767V10.6185V10.6325V10.6743V10.7023V10.7441V10.772H12.6814V10.7581V10.7302V10.7023V10.6604V10.6325V10.6046V10.5627V10.5348V10.493V10.479H12.4023L12.3744 10.493H12.3186H12.2488H12.207H12.1511H12.0814L12.0116 10.479L11.9697 10.4371L11.9418 10.4092V10.3674V10.3534V10.3116L11.9139 10.2837L11.886 10.2418V10.2278V10.186V10.1581V10.1162V10.0883V10.0604V10.0185V9.99063V9.94877V9.93482V9.89295V9.86505L11.8721 9.82319V9.80923V9.76737V9.73947V9.69761V9.6697V9.64179V9.59993V9.57202V9.54412V9.51621V9.47435V9.44644V9.40458V9.39063V9.34877V9.32086V9.279V9.26505V9.22319V9.19528V9.15342L11.886 9.12551V9.09761V9.05575V9.02784V8.99993V8.97202V8.93016V8.90226V8.8604V8.84644V8.80458V8.77668V8.73482V8.70691V8.679V8.63714V8.60923V8.58133V8.55342V8.51156V8.48365V8.45575L11.9 8.42784L11.9418 8.38598V8.35807V8.33016V8.30226V8.2604V8.23249V8.19063L11.9558 8.16272L11.9837 8.13482L11.9977 8.09295V8.06505V8.03714L12.0116 8.00923V7.96737V7.93947V7.91156V7.88365V7.84179V7.81388L12.0256 7.78598L12.0674 7.74412L12.0814 7.71621L12.1093 7.67435L12.1232 7.6604V7.61854L12.1372 7.59063L12.1511 7.54877V7.52086V7.49295L12.1651 7.46505L12.179 7.42319L12.193 7.39528V7.36737L12.207 7.33947L12.2209 7.29761L12.2628 7.2697L12.2907 7.24179V7.19993L12.3046 7.17202L12.3186 7.13016V7.11621V7.07435L12.3465 7.04644L12.3604 7.00458L12.3884 6.99063L12.4163 6.94877V6.92086L12.4302 6.879L12.4442 6.85109V6.82319V6.78133L12.4721 6.75342L12.486 6.72551L12.5 6.69761L12.5279 6.65575L12.5558 6.62784L12.5697 6.58598V6.57202V6.53016L12.5977 6.50226L12.6256 6.4604V6.44644V6.40458V6.37668L12.6395 6.33482L12.6674 6.30691L12.6814 6.279V6.23714V6.20923V6.16737V6.15342L12.6953 6.11156V6.09761V6.05575V6.04179V5.99993V5.97202V5.93016V5.90226L12.6814 5.87435V5.84644V5.80458L12.6674 5.77668L12.6395 5.74877L12.6256 5.70691L12.5977 5.679L12.5697 5.63714V5.62319L12.5558 5.58133L12.5279 5.55342L12.5 5.51156L12.486 5.49761L12.4721 5.45575L12.4302 5.42784L12.4163 5.38598V5.35807L12.3744 5.33016L12.3465 5.2883L10.0581 5.30226L8.46742 5.31621L8.43952 5.35807L8.41161 5.37202H8.36975H8.31393L8.24417 5.35807L8.18835 5.33016L8.16044 5.2883L8.13254 5.2604V5.23249V5.21854L8.10463 5.20458L8.09068 5.16272L8.06277 5.13482V5.10691V5.079V5.03714V5.00923V4.96737V4.93947V4.91156V4.88365V4.84179V4.81389V4.78598V4.74412V4.71621V4.6883V4.6604V4.61854V4.59063V4.56272V4.53482V4.49295V4.46505V4.43714V4.39528V4.36737V4.32551V4.29761V4.2697V4.24179V4.19993V4.17202V4.14412V4.11621V4.07435V4.04644V4.03249H7.88138H7.81161L7.72789 4.00458L7.69998 3.97668L7.67207 3.99063L7.60231 3.96272L7.5744 3.92086L7.54649 3.89295V3.86505V3.85109H1.09998V4.10226L1.08603 4.13016L1.07207 4.14412V4.31156H1.08603L1.09998 4.32551L1.08603 4.35342L0.834863 7.0883L0.82091 7.10226V7.13016L0.806956 7.14412L0.681375 7.56272L0.234863 7.60458V3.01389H0.26277L0.318584 2.99993V2.98598H0.346491L0.388352 3.01389L0.416259 3.04179V3.0697H1.14184L1.1837 3.08365L1.19765 3.09761L1.22556 3.11156H7.63021H7.86742L8.5651 3.09761H8.593H8.64882V3.08365V3.05575V3.02784V2.98598V2.95807V2.93016V2.8883V2.8604V2.81854V2.80458V2.76272V2.73482V2.69295V2.679V2.63714V2.60923V2.56737V2.53947V2.51156V2.4697V2.44179V2.39993V2.38598V2.34412V2.31621V2.27435V2.2604V2.21854V2.19063V2.14877V2.13482V2.09296V2.06505V2.02319V1.99528V1.96737V1.92551V1.89761V1.8697V1.84179V1.79993V1.77202V1.73016V1.71621V1.67435L8.66277 1.64644L8.70463 1.60458H8.76044L8.7744 1.57668L8.78835 1.56272L8.81626 1.54877H8.87207V1.53482H10.6721V1.50691V1.46505V1.43714V1.40923V1.38133V1.36737L10.7418 1.35342V1.32551V1.29761L10.7977 1.25575ZM16.7279 6.16737C16.4953 5.93482 16.3651 5.66505 16.3372 5.35807L16.2395 5.44179C16.1186 5.56272 16.0256 5.69761 15.9604 5.84644L16.0023 5.8883C16.2535 6.13016 16.5418 6.26505 16.8674 6.29295L16.7279 6.16737ZM18.2628 5.49761L18.207 5.44179C17.9372 5.17202 17.6116 5.03714 17.2302 5.03714L16.8116 5.10691L16.7837 5.38598C16.7837 5.73016 16.8953 6.03249 17.1186 6.29295C17.4442 6.26505 17.7279 6.13016 17.9697 5.8883L18.2628 5.49761ZM12.1651 10.1162V10.0883H12.1511L12.1651 10.1302V10.1162Z" fill="white"/>
</svg>
