<svg width="31" height="12" viewBox="0 0 31 12" fill="none" xmlns="http://www.w3.org/2000/svg">
<path fill-rule="evenodd" clip-rule="evenodd" d="M30.4495 2.64317L30.5552 2.67841L30.6433 2.73128L30.6786 2.78414L30.7491 2.837V2.90749L30.8019 2.96035L30.8195 2.97797L30.8548 2.99559L30.8724 3.03084L30.9076 3.04846V3.06608V3.10132V3.13656V3.15419V3.18943V3.22467L30.89 3.24229L30.9076 3.25991V3.29515V3.3304L30.89 3.36564L30.8724 3.40088L30.8372 3.4185H30.8019H30.7843L30.8019 3.43612V3.47137V3.50661L30.7843 3.52423L30.7667 3.54185L30.7491 3.57709H30.7138V3.59471H30.6786L30.661 3.61233H30.6433L29.7094 3.62996L29.6918 3.64758H29.6389H29.6213H29.5861H29.5508L22.1852 3.68282H22.1499V3.70044V3.73568V3.77093V3.80617V3.84141V3.85903L22.1323 3.89427L22.1147 3.92952V4.03524V4.07048V4.08811V4.12335V4.15859V4.19383V4.22908V4.28194H22.1499L22.1852 4.29956H22.2028L22.2557 4.31718L22.2909 4.3348L22.3085 4.37004H22.3262V4.40529V4.42291H22.3614V4.44053V4.47577L22.379 4.51101V4.52863L22.3966 4.54626L22.3614 4.5815V4.61674V4.65198V4.68722V4.72247V4.75771V4.79295V4.82819V4.86344V4.88106V4.9163V4.95154V4.96916V5.00441V5.02203V5.05727V5.09251V5.12775V5.14537V5.18062V5.21586V5.2511V5.28634V5.30397V5.33921V5.37445V5.42731V5.46256V5.48018V5.51542V5.55066V5.56828V5.60352V5.63877V5.67401V5.70925V5.72687L22.3438 5.74449V5.76211L22.2909 5.77974H22.1852L22.1323 5.76211H22.1147V5.77974V5.81498V5.8326V5.86784V5.90308V5.92071V5.95595V5.99119V6.02643V6.06167V6.09692V6.13216V6.14978V6.18502V6.20264V6.23789V6.25551V6.29075V6.32599V6.34361V6.37886V6.4141V6.44934V6.48458V6.51982V6.55507V6.57269V6.60793V6.62555L22.0971 6.66079V6.67841H22.1499L22.1676 6.69604L22.2028 6.71366V6.7489L22.2204 6.76652L22.238 6.80176V6.81938L22.2557 6.837H22.2733L22.2909 6.87225V6.90749V6.92511L22.2733 6.96035L22.2557 6.97797V7.01322V7.03084V7.06608V7.10132V7.13656V7.17181V7.20705V7.24229V7.25991V7.29515V7.3304V7.34802V7.38326V7.40088V7.43612V7.45374V7.48899V7.52423V7.55947V7.59471V7.62996V7.6652V7.70044V7.71806V7.7533V7.78855V7.85903V7.89427V7.92952V7.94714V7.98238V8.01762V8.05286V8.08811V8.12335V8.14097V8.17621V8.22908V8.26432V8.29956V8.31718V8.35242V8.38767V8.40529V8.44053V8.47577V8.51101V8.54626V8.5815V8.61674V8.65198V8.68722V8.72247V8.74009V8.77533V8.81057V8.82819V8.86344V8.88106V8.9163V8.95154V8.96916V9.00441V9.03965V9.07489V9.11013V9.14538V9.163V9.19824V9.23348V9.26872V9.28634V9.32159V9.33921V9.37445V9.40969V9.42731V9.46256V9.4978V9.53304V9.56828V9.60352V9.63877V9.65639V9.69163V9.70925V9.74449V9.76212V9.79736V9.8326V9.85022V9.88546V9.92071V9.93833V9.97357V10.0088V10.0264V10.0617V10.0969V10.1322V10.1674V10.185V10.2203V10.2555V10.2907V10.326V10.3612V10.3965V10.4317V10.4493V10.4846V10.5198V10.5551V10.5903V10.6256V10.6608V10.6784V10.7137V10.7489V10.7841V10.8194V10.8546V10.8722L22.238 10.9075L22.2733 10.9251L22.2909 10.9604V10.9956L22.2733 11.0308H22.2204H22.0795L22.0618 11.0661L22.0266 11.1013V11.1189V11.1542V11.1894V11.207V11.2423V11.2599V11.2952V11.3304V11.3656V11.3833V11.4185V11.4537V11.489V11.5242V11.5419V11.5771V11.6123V11.6476V11.6652V11.7004V11.7181V11.7533V11.7885V11.8062V11.8414V11.859L22.0795 11.8767L22.0971 11.8943L22.1147 11.9295L22.0971 11.9648L22.0795 11.9824L22.0266 12H21.6037L21.5508 11.9824L21.5156 11.9648V11.9295V11.8943L21.5508 11.8767L21.6037 11.859H21.6213V11.8238V11.8062V11.7709V11.7357V11.7004V11.6652V11.63V11.5947V11.5595V11.5242V11.489V11.4537V11.4361V11.4009V11.3656V11.348V11.3128V11.2952V11.2599V11.2247V11.207V11.1718V11.1366V11.1189H21.6037V11.0837L21.5508 11.0661L21.5332 11.0308H21.5156H21.4803L21.4275 10.9956L21.4098 10.9604V10.9251L21.3922 10.9075L21.3746 10.8722L21.357 10.8546V10.8194L21.3394 10.7841V10.7489V10.7137V10.6784V10.6608V10.6256V10.5903V10.5551V10.5198V10.4846V10.4493V10.4317V10.3965V10.3612V10.326V10.2907V10.2555V10.2203V10.185V10.1674V10.1322V10.0969V10.0617V10.0264V10.0088V9.97357V9.93833V9.92071V9.88546V9.85022V9.8326V9.79736V9.76212V9.74449V9.70925V9.69163V9.65639V9.63877V9.60352V9.56828V9.53304V9.4978V9.46256V9.42731V9.40969V9.37445V9.33921V9.32159V9.28634V9.26872V9.23348V9.19824V9.163V9.14538V9.11013V9.07489V9.03965V9.00441V8.96916V8.95154V8.9163V8.88106V8.86344V8.82819V8.81057V8.77533V8.74009V8.72247V8.68722V8.65198V8.61674V8.5815V8.54626V8.51101V8.47577V8.44053V8.40529V8.38767V8.35242V8.31718V8.29956V8.26432V8.22908V8.17621V8.14097V8.12335V8.08811V8.05286V8.01762V7.98238V7.94714V7.92952V7.89427V7.85903V7.78855V7.7533V7.71806V7.70044V7.6652V7.62996V7.59471V7.55947V7.52423V7.48899V7.45374V7.43612V7.40088V7.38326V7.34802V7.3304V7.29515V7.25991V7.24229V7.20705V7.17181V7.13656V7.10132V7.06608V7.03084V7.01322V6.97797V6.96035V6.92511V6.90749V6.87225V6.837V6.80176V6.78414L21.357 6.76652H21.4098V6.7489V6.71366L21.4275 6.67841L21.4627 6.66079L21.4803 6.64317V6.60793V6.57269V6.53745V6.5022V6.48458V6.44934V6.4141V6.37886V6.34361V6.30837V6.27313V6.23789V6.22026V6.18502V6.14978V6.0793V6.04405V6.00881V5.99119V5.95595V5.92071V5.88546V5.85022V5.81498V5.79736V5.76211H21.4451H21.4098H21.3394H21.3041V5.77974L21.2689 5.74449V5.72687V5.69163V5.65639V5.63877V5.60352V5.56828V5.53304L21.2865 5.4978L21.3041 5.48018L21.2689 5.46256V5.42731V5.39207L21.2865 5.37445L21.3041 5.33921V5.30397V5.28634V5.2511V5.21586L21.2865 5.18062L21.2689 5.14537V5.12775V5.09251V5.05727V5.02203H21.3041L21.2689 5.00441L21.2513 4.96916L21.1808 4.95154L21.1632 4.93392L21.1279 4.89868V4.86344V4.82819L21.1103 4.79295L21.0927 4.77533V4.74009V4.70485L21.0574 4.6696L21.0046 4.68722V4.72247V4.75771V4.79295L20.9869 4.82819L20.9693 4.86344L20.9517 4.88106L20.8988 4.89868L20.7755 4.93392L20.7402 4.95154V4.96916V5.00441V5.03965L20.7226 5.05727L20.705 5.07489L20.6874 5.11013L20.6698 5.12775L20.6521 5.14537H20.6169L20.5288 5.163L20.5112 5.18062H20.4759L20.4054 5.163V5.14537H20.335L20.3173 5.163L20.2997 5.18062H20.2645H20.2292H20.1587H20.0002H19.9649L19.8063 5.21586H19.7711H19.7182H19.7006H19.6301L19.6125 5.18062H19.5773L19.5244 5.163L19.5068 5.12775L19.4715 5.11013V5.07489V5.05727V5.02203V4.98678V4.95154V4.93392V4.89868V4.86344V4.82819H19.3834H19.3306H15.5949V4.86344V4.89868V4.93392V4.95154V4.98678V5.02203V5.05727V5.07489V5.11013V5.14537H15.6301H15.6654L15.7182 5.18062L15.7358 5.21586H15.7535V5.2511V5.28634V5.32159V5.35683V5.39207V5.42731V5.46256V5.51542L15.8063 5.56828L15.8239 5.63877L15.8592 5.69163L15.8944 5.70925L15.9297 5.72687H15.9473L16.0002 5.74449L16.0178 5.76211L16.053 5.77974V5.81498V5.8326V5.86784V5.90308V5.92071V5.95595V5.99119V6.02643V6.06167V6.09692V6.13216V6.14978V6.18502V6.20264V6.23789V6.25551V6.29075V6.32599V6.34361V6.37886V6.4141V6.44934V6.48458V6.51982V6.55507V6.57269V6.60793V6.62555V6.66079V6.67841V6.71366V6.7489V6.76652V6.80176V6.85463V6.88987V6.92511V6.94273V6.97797V7.01322V7.04846V7.0837V7.10132V7.13656V7.17181V7.20705V7.24229V7.27753V7.31278V7.34802V7.36564V7.40088V7.43612V7.48899V7.52423V7.54185V7.57709V7.61234V7.62996V7.6652V7.70044V7.73568V7.77093V7.78855V7.82379V7.87665V7.91189V7.94714V7.96476V8V8.03524V8.05286V8.08811V8.12335V8.15859V8.19383V8.22908V8.26432V8.29956V8.3348V8.37004V8.38767V8.42291V8.45815V8.47577V8.51101V8.56388V8.59912V8.63436V8.65198V8.68722V8.72247V8.75771V8.79295V8.81057V8.84582V8.88106V8.9163V8.93392V8.96916V8.98678V9.02203V9.05727V9.07489V9.11013V9.14538V9.18062V9.21586V9.2511V9.28634V9.32159V9.35683V9.39207V9.40969V9.44493V9.48018V9.4978V9.53304V9.56828V9.5859V9.62115V9.65639V9.67401V9.70925V9.74449V9.77974V9.81498V9.8326V9.86784V9.95595V9.99119V10.0088V10.0441V10.0617L16.0178 10.0969V10.1145V10.1498V10.185V10.2026V10.2379V10.2555V10.2907L16.0002 10.326L15.9649 10.3436L15.9121 10.3612H12.7931H12.7402H12.7226H12.6874H12.6345L12.5817 10.3436L12.5112 10.326L12.4936 10.2907L12.4583 10.2555H12.4054H12.3526L12.3173 10.2379L12.2997 10.2026V10.1674V10.1322V10.0969V10.0793V10.0441V10.0088V9.97357V9.93833V9.90308V9.86784V9.8326V9.81498V9.77974V9.74449V9.70925V9.67401V9.65639V9.62115V9.5859V9.56828V9.53304V9.4978V9.48018V9.44493V9.40969V9.39207V9.35683V9.32159V9.28634V9.2511V9.21586V9.18062V9.14538V9.11013V9.07489V9.05727V9.02203V8.98678V8.96916V8.93392V8.9163V8.88106V8.84582V8.81057V8.79295V8.75771V8.72247V8.68722V8.65198V8.63436V8.59912V8.56388V8.51101V8.47577V8.45815V8.42291V8.38767V8.37004V8.3348V8.29956V8.26432V8.22908V8.19383V8.15859V8.12335V8.08811V8.05286V8.03524V8V7.96476V7.94714V7.91189V7.87665V7.82379V7.78855V7.77093V7.73568V7.70044V7.6652V7.62996V7.61234V7.57709V7.54185V7.52423V7.48899V7.43612V7.40088V7.36564V7.34802V7.31278V7.27753V7.24229V7.20705V7.17181V7.13656V7.10132V7.0837V7.04846V7.01322V6.97797V6.94273V6.92511V6.88987V6.85463V6.80176V6.76652V6.7489V6.71366V6.67841V6.66079V6.62555V6.60793V6.57269V6.55507V6.51982V6.48458V6.44934V6.4141V6.37886V6.34361V6.32599V6.29075V6.25551V6.23789V6.20264V6.18502V6.14978V6.13216V6.09692V6.0793L12.2821 6.06167L12.2645 6.02643V5.99119V5.95595V5.92071V5.88546V5.85022V5.81498V5.79736V5.76211V5.70925V5.67401V5.63877V5.62115V5.5859L12.2821 5.55066L12.2997 5.53304H12.3173L12.2997 5.4978V5.46256V5.42731L12.335 5.39207L12.3526 5.35683L12.3878 5.33921L12.4407 5.32159V5.30397L12.4583 5.26872V5.23348L12.4759 5.21586L12.5112 5.19824L11.8768 5.21586H11.8416V5.23348V5.30397V5.35683V5.40969V5.44493V5.4978L11.8239 5.55066L11.8416 5.5859L11.8592 5.62115L11.8768 5.63877L11.9121 5.67401L11.9473 5.70925V5.76211L11.9649 5.79736V5.81498V5.85022L11.9473 5.88546L11.9297 5.92071H11.9121V5.93833L11.8944 5.97357L11.8768 5.99119L11.8416 6.02643H11.8063L11.6301 6.06167L11.5949 6.0793H11.5773H11.5244H11.5068H11.2953L11.2777 6.09692H11.2601V6.13216V6.14978V6.18502V6.20264L11.2424 6.23789L11.2072 6.25551V6.29075L11.1896 6.32599L11.172 6.34361V6.37886V6.4141V6.44934L11.1367 6.46696V6.48458L11.1191 6.51982L11.1015 6.55507V6.57269V6.60793V6.62555V6.66079L11.0839 6.67841L11.0662 6.71366V6.7489V6.76652L11.0486 6.80176L11.031 6.81938V6.85463L11.0134 6.88987L10.9781 6.92511V6.94273V6.97797V7.01322V7.03084L10.9605 7.04846V7.0837V7.10132V7.13656L10.9429 7.15419V7.17181L10.9076 7.20705V7.24229V7.27753V7.31278L10.89 7.34802V7.36564L10.8548 7.40088V7.43612V7.48899L10.8195 7.52423V7.54185V7.57709V7.61234V7.62996V7.6652V7.70044V7.73568V7.77093V7.78855V7.82379L10.7843 7.84141V7.87665V7.91189L10.7491 7.94714V7.96476V8V8.03524L10.7314 8.05286V8.08811L10.6962 8.10573H10.6433L10.6257 8.12335L10.6081 8.15859L10.5728 8.17621H10.5552L10.4847 8.15859L10.4671 8.14097L10.4319 8.15859L10.4143 8.17621H10.379H9.70941L9.6213 8.15859V8.14097L9.5332 8.12335H9.49796H9.48034L9.42747 8.10573L9.35699 8.08811L9.32174 8.05286L9.26888 8.03524L9.23364 8.01762L9.1984 7.98238V7.94714H9.14553L9.12791 7.91189L9.11029 7.87665V7.82379V7.78855L9.07505 7.7533V7.73568V7.70044V7.68282V7.64758L9.09267 7.61234L9.11029 7.59471V7.55947V7.52423V7.48899L9.12791 7.47137L9.14553 7.43612L9.16315 7.4185L9.18078 7.38326V7.34802V7.31278L9.1984 7.27753V7.25991V7.22467L9.21602 7.18943L9.23364 7.17181V7.13656V7.11894L9.26888 7.10132V7.0837V7.04846V7.01322L9.2865 6.9956L9.30412 6.96035V6.92511V6.90749L9.33937 6.88987L9.35699 6.85463V6.837V6.80176V6.78414L9.37461 6.76652V6.73128V6.69604V6.67841L9.39223 6.66079L9.40985 6.62555L9.42747 6.59031V6.57269V6.53745V6.5022L9.46271 6.48458V6.44934L9.48034 6.4141L9.49796 6.39648V6.36123L9.51558 6.32599V6.30837V6.27313V6.23789L9.5332 6.20264V6.1674L9.55082 6.14978V6.11454V6.0793L9.58606 6.06167V6.02643V5.99119V5.97357L9.60368 5.93833L9.6213 5.90308V5.88546V5.85022V5.8326L9.63893 5.81498L9.65655 5.77974V5.76211L9.63893 5.74449L9.6213 5.72687V5.69163L9.60368 5.65639L9.58606 5.63877V5.60352L9.55082 5.56828L9.5332 5.55066L9.51558 5.53304V5.4978L9.48034 5.46256L9.46271 5.44493L9.42747 5.40969L9.39223 5.39207H9.35699V5.37445L9.26888 5.35683L9.25126 5.32159L9.18078 5.30397L9.12791 5.28634L9.11029 5.2511L9.07505 5.23348V5.21586H9.00456L8.96932 5.18062L8.93408 5.14537L8.89884 5.12775L8.88122 5.11013L8.84597 5.07489L8.82835 5.05727V5.03965L8.79311 5.00441L8.77549 4.96916L8.75787 4.95154L8.74025 4.93392L8.72263 4.89868V4.86344V4.84582V4.81057L8.705 4.77533L8.68738 4.75771V4.72247H8.66976L8.65214 4.70485V4.6696V4.63436V4.59912H8.6169H8.58166H8.54641H8.49355L8.44069 4.5815L8.42307 4.54626L8.3702 4.52863L8.33496 4.51101V4.47577V4.44053V4.40529H6.39663L6.34377 4.38767V4.37004H6.27329L6.25567 4.35242L6.22042 4.31718L6.2028 4.29956L6.18518 4.28194L6.14994 4.2467V4.22908V4.19383V4.17621V4.14097V4.10573V4.08811V4.05286V4.01762V4V3.96476H5.32174L5.21602 3.94714L5.14553 3.92952L5.09267 3.98238L5.00456 4.01762H4.93408H4.88122V4.05286L4.82835 4.15859L2.37901 6.06167L2.27329 6.0793H2.23804L2.18518 6.09692L2.1147 6.13216V6.22026L2.06183 6.32599L1.99135 6.37886L1.92086 6.39648L1.90324 6.4141H1.88562L1.85038 6.44934L1.83276 6.46696L1.81514 6.48458L1.76227 6.51982L1.74465 6.53745L1.72703 6.55507L1.69179 6.57269H1.65655L1.6213 6.60793H1.60368L1.56844 6.62555H1.40985L1.33937 6.60793L1.32175 6.59031L1.2865 6.57269H1.21602L1.14553 6.53745L1.12791 6.5022L1.07505 6.48458L1.05743 6.46696L1.02219 6.44934L0.986943 6.4141L0.969322 6.39648L0.951701 6.36123L0.93408 6.32599L0.916459 6.30837L0.881216 6.27313V6.23789V6.20264V6.1674L0.863595 6.14978V6.11454V6.0793L0.845974 6.06167L0.828353 6.02643V5.99119V5.97357L0.810732 5.93833V5.90308V5.88546V5.85022L0.77549 5.8326L0.757868 5.81498V5.77974V5.76211V5.72687V5.70925L0.722626 5.67401V5.63877V5.60352V5.56828V5.55066L0.705005 5.51542L0.687384 5.48018V5.46256V5.42731V5.40969L0.652142 5.37445V5.33921V5.30397V5.28634V5.2511V5.21586L0.63452 5.18062L0.616899 5.14537V5.12775V5.09251V5.05727L0.581657 5.02203V5.00441V4.96916L0.564036 4.95154L0.546415 4.9163V4.88106V4.86344V4.82819V4.79295V4.77533L0.528794 4.75771L0.511172 4.72247V4.68722V4.65198V4.61674V4.59912L0.493551 4.5815L0.47593 4.54626V4.52863V4.49339V4.45815V4.44053V4.40529L0.458309 4.37004V4.35242V4.31718L0.440688 4.28194L0.423067 4.26432L0.405446 4.22908V4.19383V4.15859V4.12335V4.08811V4.07048V4.03524V4.01762L0.387824 4V3.96476V3.92952V3.89427V3.85903V3.84141L0.370203 3.80617L0.334961 3.77093V3.73568V3.70044V3.6652V3.62996V3.59471V3.57709V3.54185V3.50661V3.47137V3.43612V3.4185V3.38326V3.34802V3.3304V3.29515V3.25991V3.24229V3.20705V3.17181V3.15419L0.370203 3.11894L0.387824 3.10132V3.06608L0.405446 3.04846V3.01322L0.423067 2.97797H0.458309V2.94273L0.47593 2.90749H0.511172V2.87225L0.546415 2.837L0.564036 2.81938H0.581657L0.63452 2.80176L0.705005 2.78414V2.76652H0.77549L0.793111 2.78414V2.76652L0.810732 2.7489H0.845974L0.863595 2.73128H0.916459H0.969322L1.02219 2.7489L1.05743 2.76652L1.14553 2.73128H4.66976L4.75787 2.7489L4.82835 2.71366L4.89884 2.67841L4.93408 2.66079L5.00456 2.64317H5.09267H7.18959V2.62555L7.20721 2.59031V2.55507L7.22483 2.51982V2.48458L7.26007 2.46696H7.27769V2.43172V2.39648V2.37885L7.31293 2.34361V2.32599L7.38342 2.29075H7.41866L7.43628 2.25551L7.47152 2.22026H7.52439H7.64774H7.68298L7.7006 2.23789L7.73584 2.22026V2.20264V2.1674V2.13216H7.77108V2.09692V2.06167V2.04405L7.7887 2.00881L7.77108 1.97357V1.95595L7.73584 1.93833L7.71822 1.9207L7.7006 1.88546V1.86784V1.8326V1.79736V1.77974V1.74449V1.70925L7.71822 1.67401L7.73584 1.63877V1.62115L7.77108 1.60352H7.80633H7.82395V1.5859L7.85919 1.56828L7.87681 1.55066L7.91205 1.53304H7.9473H7.98254L8.01778 1.51542L8.07064 1.4978L8.08826 1.46256V1.44493V1.40969L8.10589 1.37445L8.14113 1.35683L8.15875 1.32159L8.17637 1.28634L8.21161 1.26872H8.26448V1.2511H8.47593L8.52879 1.26872L8.56404 1.28634L8.58166 1.32159L8.6169 1.35683L8.63452 1.37445L8.65214 1.40969L8.66976 1.44493H8.72263H8.84597L8.91646 1.46256L8.9517 1.4978L8.98694 1.51542L9.00456 1.53304V1.56828V1.60352H9.02219L9.05743 1.63877L9.11029 1.65639L9.12791 1.67401H9.18078H9.76227H10.0442L10.0795 1.65639H10.1323V1.63877H10.1676L10.2204 1.67401V1.65639H10.2557V1.63877L10.3085 1.67401L10.3262 1.70925H10.3614L10.379 1.74449L10.3966 1.77974V1.81498L10.4319 1.79736H10.4847L10.5376 1.81498L10.5552 1.85022V1.88546V1.9207V1.95595V1.99119V2.02643L10.5728 2.04405L10.5905 2.06167V2.09692V2.13216L10.6081 2.14978V2.1674L10.6257 2.18502V2.22026V2.23789V2.27313V2.29075H10.6786L12.0002 2.27313V2.25551L12.0178 2.23789L12.0354 2.22026H12.0883L12.1587 2.20264V2.1674L12.194 2.13216H12.2116L12.2469 2.09692L12.2645 2.06167L12.2997 2.02643L12.3173 2.00881H12.3526V1.99119H12.4407L12.4936 2.02643L12.5288 2.06167V2.09692L12.6169 2.04405L12.705 2.00881H12.8107V1.99119L12.9341 2.00881L12.9693 2.04405L12.9869 1.99119L13.0927 1.95595H13.9561L14.0442 1.99119L14.0795 2.06167L14.238 2.04405H14.3085L14.3614 2.02643H15.4715L15.5244 2.04405H15.5773L15.6301 2.0793L15.683 2.11454L15.7006 2.13216L15.7182 2.11454L15.7535 2.0793L15.7711 2.04405H15.7887H15.8416V2.02643L15.8944 2.04405L15.9297 2.06167L15.9473 2.09692V2.13216V2.14978H15.9649L16.0178 2.13216H16.0883L16.1235 2.14978V2.1674L16.8107 2.14978V2.13216L16.846 2.09692L16.8812 2.06167L16.8988 2.04405L16.9693 2.02643L17.216 2.00881L17.2336 1.97357L17.2689 1.95595L17.3041 1.93833L17.3217 1.9207L17.3922 1.88546H17.498H17.5156L17.5332 1.86784L17.5684 1.8326L17.6213 1.81498L17.6918 1.79736H17.727H17.7447L17.7623 1.77974H17.7799L17.8151 1.76211L17.8504 1.74449H17.868H17.9032V1.70925V1.67401V1.63877L17.868 1.62115L17.8504 1.60352V1.5859L16.4759 1.11013L16.4054 1.03965L16.3878 0.969163H16.3702L16.335 0.951542L16.2997 0.933921H16.2645H16.2116L16.1059 0.898678H16.053H16.0354L16.0002 0.881057H15.9473L15.8768 0.863436L15.8416 0.845815L15.8063 0.810573L15.7711 0.77533L15.7358 0.757709L15.683 0.740088L15.6301 0.722467L15.6125 0.687225L15.5773 0.669604L15.5596 0.634361L15.542 0.61674H15.5244V0.599119L15.5068 0.581498L15.4715 0.563877L15.4363 0.528634L15.4187 0.493392V0.45815L15.401 0.422908L15.3834 0.405286V0.370044V0.334802V0.317181L15.401 0.299559L15.4187 0.264317V0.246696V0.211454V0.193833L15.4363 0.176211L15.4715 0.140969H15.5068V0.123348L15.5773 0.0352423L15.683 0L15.7887 0.0352423L15.8944 0.105727L15.9121 0.211454H15.9473H15.9825L16.0354 0.229075L16.0706 0.246696H16.1235L16.1411 0.264317H16.1764L16.2292 0.281938L16.2469 0.299559L16.2821 0.246696C16.3056 0.223201 16.3408 0.211454 16.3878 0.211454L16.4583 0.229075L18.2909 0.722467C18.3261 0.722467 18.3555 0.740088 18.379 0.77533L18.3966 0.810573L18.4319 0.828194L18.4847 0.845815L18.5376 0.863436V0.898678L18.5728 0.9163L18.6081 0.933921L18.6257 0.969163L18.661 0.951542V0.933921H18.6786L18.7491 0.9163V0.898678L18.8019 0.933921H18.8195L18.8548 0.969163V1.00441V1.02203V1.05727V1.09251V1.11013V1.14537V1.163V1.19824V1.21586V1.2511V1.28634V1.32159V1.35683V1.39207V1.42731V1.44493V1.48018V1.51542V1.53304V1.56828V1.62115V1.65639V1.69163V1.70925V1.74449V1.77974V1.81498V1.85022V1.88546V1.90308V1.93833V1.99119V2.02643V2.04405V2.0793V2.11454V2.13216V2.1674V2.20264V2.22026L18.8195 2.23789L18.8019 2.27313L18.7491 2.29075H18.7138H18.6962L18.6786 2.30837L18.661 2.32599L18.6433 2.34361H18.6081H18.0442L18.0266 2.36123V2.37885L18.009 2.39648L17.9913 2.4141H17.9385L17.8504 2.44934V2.48458V2.51982V2.55507V2.59031H20.4583V2.57269V2.53744V2.5022V2.44934L20.4759 2.4141L20.4936 2.37885L20.5288 2.36123L20.5817 2.34361L20.6345 2.32599L20.6521 2.29075H20.6874L20.705 2.27313V2.25551V2.22026V2.20264V2.1674V2.13216V2.09692V2.06167V2.04405V2.00881V1.97357L20.6874 1.95595L20.6521 1.93833V1.9207V1.88546L20.6698 1.86784L20.6874 1.8326L20.7226 1.79736L20.7402 1.77974L20.7755 1.76211L20.8284 1.74449V1.70925L20.8636 1.69163L20.8812 1.65639L20.8988 1.62115L20.9165 1.60352V1.5859H20.9517V1.55066L20.9693 1.53304H20.9869L21.0222 1.51542L21.2513 1.4978L21.2689 1.48018H21.3041V1.46256H21.3746L21.4275 1.4978L21.4451 1.51542L21.4627 1.4978L21.5156 1.48018V1.46256L21.5861 1.4978L21.6037 1.51542L21.6213 1.53304V1.56828V1.60352V1.63877V1.67401V1.70925V1.74449V1.77974V1.79736H21.6389L21.6565 1.81498H21.6742L21.7447 1.85022L21.7623 1.86784L21.7799 1.88546V1.9207L21.8151 1.93833L21.8328 1.95595V1.97357V2.00881V2.04405V2.06167V2.09692V2.13216V2.1674V2.20264V2.22026V2.25551V2.29075V2.32599V2.34361V2.37885V2.44934L21.868 2.46696L21.9032 2.48458L21.9561 2.51982L21.9737 2.55507L22.009 2.57269V2.59031V2.62555V2.64317H30.3261H30.4495ZM22.2204 5.63877V5.60352L22.2028 5.63877H22.2204ZM21.6037 2.0793V2.11454V2.13216L21.6213 2.1674V2.13216V2.09692V2.06167V2.04405H21.6037V2.0793ZM20.8636 2.44934L20.846 2.46696H20.8636V2.44934ZM20.7579 2.53744L20.7931 2.51982L20.8284 2.48458L20.7579 2.51982V2.53744ZM18.1147 1.63877V1.67401L18.1323 1.69163V1.67401V1.63877V1.60352H18.1147V1.63877ZM17.1455 2.27313L17.1632 2.25551L17.0398 2.27313H17.1455ZM21.498 5.62115H21.5156L21.498 5.60352V5.62115ZM8.59928 4.35242V4.31718H8.58166V4.35242H8.59928ZM9.72703 5.40969L9.76227 5.42731V5.40969H9.72703ZM11.683 5.77974V5.76211L11.6477 5.81498H11.7006L11.683 5.77974ZM4.38782 3.64758L4.44069 3.61233L4.49355 3.59471H1.55082V3.62996L1.56844 3.68282V3.73568L1.58606 3.78855V3.84141L1.60368 3.89427L1.63893 3.94714L1.65655 4.01762V4.03524V4.08811V4.15859L1.70941 4.21145L1.72703 4.26432V4.28194H1.81514L1.88562 4.37004L2.14994 5.14537L2.60809 4.81057L2.71382 4.77533L2.7843 4.82819L2.81954 4.79295L2.85478 4.75771L2.87241 4.72247L2.89003 4.70485L2.92527 4.68722L2.94289 4.65198L3.031 4.61674L3.04862 4.59912L3.08386 4.5815L3.1191 4.54626L3.15434 4.52863L3.20721 4.51101L3.24245 4.47577L3.27769 4.44053L3.31293 4.40529L3.3658 4.37004H3.40104L3.4539 4.35242L3.47152 4.31718L3.50677 4.29956L3.54201 4.28194L3.55963 4.2467L3.61249 4.21145L3.63012 4.19383L3.68298 4.15859L3.71822 4.12335L3.77108 4.08811H3.78871L3.80633 4.05286L3.84157 4.01762H3.87681L3.92967 3.98238L3.9473 3.94714L3.98254 3.92952L4.00016 3.89427L4.05302 3.87665L4.08826 3.84141L4.12351 3.82379L4.15875 3.78855L4.21161 3.7533L4.24686 3.73568L4.29972 3.70044L4.35258 3.68282H4.3702L4.38782 3.64758Z" fill="white"/>
</svg>
