<svg width="40" height="12" viewBox="0 0 40 12" fill="none" xmlns="http://www.w3.org/2000/svg">
<path fill-rule="evenodd" clip-rule="evenodd" d="M38.4884 2.51175H39.1302L39.2 2.52571L39.2279 2.53966H39.2418V2.52571H39.2698L39.3395 2.55361L39.3674 2.59547L39.3814 2.62338L39.3953 2.65129V2.67919L39.3814 2.72106L39.3674 2.74896H39.3953V2.80478V2.86059V2.9164V2.95826V3.00012L39.4093 3.01408L39.4232 3.05594L39.4372 3.06989V3.11175V3.15361V3.18152L39.4232 3.20943L39.3953 3.23733V3.27919V3.33501V3.37687V3.43268V3.4885V3.54431V3.57222H39.2V3.58617L39.2139 3.61408L39.2418 3.64199V3.68385V3.6978L35.6 3.68385L35.5581 3.71175L35.3907 3.72571V3.75361H35.3767V3.73966V3.72571L34.9163 3.75361H34.8605V3.78152H34.6651L34.6372 3.79547L34.6232 3.85129L34.5814 3.86524V3.9071V3.96292V4.00478V4.06059V4.07454H34.6511V4.13036V4.18617V4.24199V4.28385V4.33966V4.39547V4.45129V4.49315V4.54896V4.60478V4.66059V4.70245V4.75826V4.81408V4.86989V4.8978H34.5116V4.93966V4.96757H34.3721H34.1349V4.98152V5.00943L34.1209 5.03733L34.107 5.07919L34.0791 5.09315L34.0512 5.1071L34.0232 5.12106L34.0093 5.13501L33.9535 5.14896H33.8698H33.8139V5.16292L33.5349 5.21873V5.24664L33.2977 5.2885L33.2558 5.3164L32.5302 5.35826L32.4884 5.38617L31.9163 5.37222L31.8884 5.40013H31.8744L31.8046 5.41408H27.8837L27.7442 5.42803V5.45594L27.1163 5.4978V5.52571L26.4605 5.56757L26.4186 5.59547L25.9023 5.63733L25.8605 5.66524L25.3721 5.7071V5.73501L24.8139 5.77687V5.80478L24.2977 5.84664L24.2558 5.87454L23.6 5.9164L23.5581 5.94431L22.707 5.93036L22.6651 5.8885L22.2186 5.86059L22.1767 5.81873L22.0232 5.79082V5.74896L21.8837 5.72106V5.67919L21.8139 5.65129V5.60943L21.6744 5.58152V5.53966L21.6046 5.51175L21.5907 5.45594L21.5488 5.40013L21.507 5.35826L21.3953 5.30245L21.3814 5.24664L21.3395 5.19082L18.3953 5.21873V5.24664L17.4744 5.23268L17.4325 5.19082L17.2791 5.16292V5.13501H17.2512L17.2372 5.14896L17.1953 5.19082L17.1674 5.20478L17.1535 5.21873L17.1395 5.23268L17.1256 5.24664L17.0977 5.26059H17.0837L17.0419 5.27454L17.0279 5.2885H17.0139V5.30245L16.986 5.3164L16.9721 5.33036L16.9442 5.34431H16.9302L16.8884 5.35826L16.8744 5.37222L16.8605 5.38617L16.8465 5.40013L16.8325 5.41408L16.8186 5.42803L16.7907 5.44199L16.7767 5.45594L16.7488 5.46989H16.7349L16.7209 5.48385L16.693 5.4978L16.6791 5.51175V5.52571L16.5395 5.53966L16.5256 5.55361L16.4977 5.56757L16.4698 5.59547V5.60943L16.4558 5.62338V5.63733L16.4139 5.65129L16.4 5.66524V5.67919H16.386L16.3581 5.69315L16.3163 5.73501V5.76292L16.2744 5.77687L16.2465 5.80478V5.83268L16.2046 5.84664L16.1767 5.86059V5.8885H16.1349V5.90245L16.107 5.9164L16.093 5.93036L16.0791 5.94431L16.0651 5.95826V5.98617H15.9814L15.9674 6.00013V6.02803H15.9256L15.8977 6.04199L15.8 6.05594L15.7023 6.06989V6.0978H15.6186L15.5628 6.11175L15.2279 6.12571H14.907L14.8512 6.11175L14.8093 6.0978L14.7814 6.08385V6.06989L14.7256 6.05594L14.7395 6.06989V6.18152L14.7535 6.19547L14.7674 6.20943V6.22338V6.26524L14.7535 6.2792L14.7395 6.26524H14.5023L14.4605 6.25129L14.4325 6.22338V6.19547L14.3907 6.18152V6.16757L14.3767 6.15361V6.13966L14.3628 6.12571L14.3488 6.11175L14.3209 6.0978L14.307 6.08385V6.05594L14.293 6.04199V6.02803L14.2093 5.94431V5.93036L14.1953 5.9164L14.1674 5.8885V5.87454L14.1535 5.86059V5.83268L14.1256 5.81873L14.1116 5.80478L14.0977 5.79082V5.77687L14.0837 5.76292V5.74896L14.0698 5.73501V5.72106L14.0558 5.7071L14.0419 5.69315V5.67919H14.0279V5.66524L14.0139 5.65129L14 5.63733L13.9721 5.60943V5.59547L13.9581 5.58152V5.56757L13.9442 5.55361V5.46989H13.9302L13.9163 5.45594V5.44199L13.9023 5.42803V5.41408H13.8884L13.8186 5.40013H13.3302L13.0651 5.41408V5.42803H13.0093L12.9256 5.45594L12.6046 5.48385L12.5628 5.4978L12.5209 5.51175L12.4651 5.52571L12.4372 5.53966L12.3814 5.55361L12.3395 5.56757L12.2837 5.58152L12.2279 5.60943L12.1442 5.63733L12.1163 5.66524L12.0744 5.67919L12.0325 5.7071L11.9767 5.72106V5.73501L11.9628 5.74896L11.9488 5.76292L11.9209 5.79082L11.907 5.80478H11.893V5.81873L11.8372 5.87454L11.7814 5.93036L11.6977 5.98617V6.02803V6.06989V6.08385L11.6279 6.12571V6.15361L11.5581 6.19547V6.23733V6.2792V6.29315L11.4884 6.33501V6.37687V6.41873V6.43268L11.4186 6.47454V6.5164V6.57222V6.62803V6.68385V6.72571V6.78152V6.83733V6.89315V6.93501V6.99082V7.04664V7.10245L11.4046 7.14431L11.3628 7.18617L11.3488 7.20012H11.2791L11.2651 7.22803L11.2372 7.26989L11.2093 7.28385L11.1395 7.2978H11.1116L11.0279 7.28385L11 7.24199L10.986 7.20012L10.7907 7.18617V7.20012L10.7209 7.24199V7.26989L10.6512 7.2978V7.32571V7.38152V7.40943L10.5814 7.45129V7.47919H10.2605L9.79999 7.46524V7.49315L9.8279 7.52106L9.86976 7.56292L9.88371 7.59082V7.60478L9.89767 7.61873V7.66059L9.88371 7.6885L9.86976 7.73036L9.84185 7.74431H9.81394L9.77208 7.75826H9.71627L9.63255 7.74431L9.59069 7.7164L9.56278 7.67454L9.53487 7.64664V7.60478V7.59082V7.54896V7.5071L9.50697 7.47919L9.49301 7.45129V7.42338L9.45115 7.38152L9.42325 7.35361L9.40929 7.32571L9.38139 7.28385L9.35348 7.25594L9.33953 7.21408L9.32557 7.18617V7.17222L9.24185 7.14431L9.21394 7.1164L9.18604 7.07454L9.11627 7.04664H9.03255L8.96278 7.06059L8.89301 7.04664L8.86511 7.01873L8.8372 6.97687V6.94896V6.92106V6.89315V6.85129V6.82338L8.73953 6.86524L8.6279 6.92106V6.97687L8.53022 7.03268L8.4186 7.06059L8.27906 7.10245L8.20929 7.13036L8.11162 7.17222L8.06976 7.20012L7.93022 7.24199V7.26989L7.79069 7.31175V7.33966L7.65115 7.38152V7.40943L7.48371 7.45129L7.44185 7.47919L7.37208 7.52106V7.54896L7.20464 7.59082L7.16278 7.61873L7.02325 7.66059V7.6885L6.88371 7.73036V7.75826L6.71627 7.80013L6.67441 7.82803L6.53487 7.86989V7.8978L6.46511 7.93966V7.96757L6.36743 8.00943L6.32557 8.03733L6.18604 8.0792V8.1071L6.0465 8.14896V8.17687L5.94883 8.21873L5.90697 8.24664L5.80929 8.2885L5.76743 8.3164L5.66976 8.35826L5.6279 8.38617L5.55813 8.42803V8.45594L5.4186 8.4978V8.52571L5.27906 8.56757V8.59547L5.13953 8.63733V8.66524L4.93022 8.7071V8.73501L4.83255 8.77687L4.79069 8.80478L4.65115 8.84664V8.87454L4.51162 8.9164V8.94431L4.37208 8.98617V9.01408L4.16278 9.05594V9.08385L4.02325 9.12571V9.15361L3.88371 9.19547V9.22338L3.74418 9.26524V9.29315L3.60464 9.33501V9.36292L3.50697 9.40478L3.46511 9.43268L3.32557 9.47454V9.50245L3.18604 9.54431V9.57222L2.97673 9.61408V9.64199L2.80929 9.68385L2.76743 9.71175L2.59999 9.75361L2.55813 9.78152L2.4186 9.82338V9.85129H2.30697V9.89315V9.93501V9.94896L2.27906 9.99082L2.26511 10.0048L2.25115 10.0187L2.20929 10.0327H2.16743L2.11162 10.0048H2.09767H2.0558L1.99999 10.0327H1.94418L1.87441 10.0048L1.8465 9.97687V9.96292L1.8186 9.93501V9.96292V9.97687L1.79069 10.0048L1.77673 10.0327L1.76278 10.0745L1.70697 10.0885L1.6372 10.1164H1.51162L1.44185 10.0885H1.41394L1.35813 10.0606L1.33022 10.0327L1.26046 10.0048L1.23255 9.99082L1.14883 9.96292L1.09301 9.93501L1.06511 9.9071L1.02325 9.86524L1.00929 9.83733L0.99534 9.79547L0.981386 9.76757L0.967433 9.73966L0.953479 9.6978V9.66989V9.64199V9.61408V9.57222V9.54431V9.5164V9.47454V9.44664V9.40478L0.939526 9.37687L0.925572 9.34896L0.911619 9.3071V9.27919V9.25129V9.22338V9.18152V9.15361V9.11175V9.08385L0.897665 9.05594L0.869758 9.01408L0.855805 8.98617V8.95826V8.9164V8.8885V8.84664V8.83268V8.79082V8.76292V8.72106V8.69315V8.66524V8.62338L0.841851 8.59547V8.56757L0.827898 8.52571V8.4978V8.45594V8.42803V8.40013V8.37222V8.33036V8.2885V8.27454V8.23268V8.20478V8.16292V8.13501V8.1071V8.06524V8.03733L0.813944 8.00943L0.799991 7.98152L0.772084 7.93966V7.8978V7.86989V7.84199V7.81408V7.77222V7.74431V7.7164V7.67454V7.64664V7.60478V7.59082V7.54896V7.5071V7.47919V7.45129V7.42338V7.38152V7.35361V7.32571V7.28385L0.744177 7.25594L0.730223 7.21408V7.18617V7.15827V7.1164V7.0885V7.04664V7.03268V6.99082V6.96292V6.92106V6.89315V6.86524V6.82338V6.79547V6.76757V6.73966V6.6978L0.702316 6.65594L0.688363 6.64199V6.60013V6.57222V6.53036V6.50245V6.47454V6.43268V6.40478V6.36292V6.34896V6.3071V6.26524V6.23733L0.660456 6.20943L0.646503 6.18152V6.13966V6.11175V6.08385V6.04199V6.01408V5.97222V5.95826V5.9164V5.87454V5.84664V5.80478V5.79082L0.618596 5.74896L0.604642 5.72106V5.67919V5.65129V5.62338V5.58152V5.55361V5.52571V5.48385V5.45594L0.590689 5.41408L0.562782 5.40013L0.548828 5.35826V5.33036V5.2885V5.24664V5.23268V5.19082V5.16292V5.12106V5.09315L0.562782 5.06524L0.590689 5.02338L0.618596 5.00943L0.632549 4.99547H0.646503V4.96757V4.93966V4.8978L0.660456 4.85594L0.688363 4.84199L0.730223 4.80012L0.75813 4.77222L0.786037 4.73036L0.813944 4.70245L0.841851 4.6885L0.911619 4.66059L0.939526 4.63268H0.99534L1.07906 4.60478L1.16278 4.56292L1.20464 4.54896H1.2465H1.34418L1.39999 4.56292L1.44185 4.57687H1.46976L1.53953 4.60478L1.56743 4.63268L1.59534 4.67454H1.6372L1.80464 4.64664L1.8186 4.61873H1.83255H1.86046H2.27906L2.29301 4.63268H2.85115L2.87906 4.66059L2.89301 4.67454H3.0465L3.2558 4.6885L3.28371 4.7164H3.56278L3.59069 4.6885H3.60464L4.33022 4.67454H4.37208L4.41394 4.66059H4.48371V4.49315H4.6372H4.66511L4.74883 4.47919L4.76278 4.46524V4.45129H4.86046H4.87441L4.88836 4.43733H5.0558H5.06976L5.08371 4.42338H5.16743H5.19534H5.22325L5.37674 4.40943L5.40464 4.39547L5.43255 4.38152H5.51627H5.54418L5.57208 4.36757H5.58604H5.61394L5.64185 4.35361H5.79534L5.96278 4.33966L5.99069 4.32571L6.00464 4.31175H6.17208H6.19999V4.2978L6.50697 4.31175H6.56278H6.57674L6.78604 4.2978H6.81394H6.8279L6.84185 4.28385H6.86976H6.89767L7.05115 4.26989H7.10697H7.16278L7.20464 4.25594H7.26046H7.31627L7.35813 4.24199H7.41394H7.4558L7.69301 4.22803H7.72092H7.74883L7.76278 4.21408H7.79069H7.8186H7.8465L7.86046 4.20012H7.93022H7.98604L8.04185 4.18617H8.11162H8.18139L8.2372 4.17222H8.29301H8.34883L8.40464 4.15826H8.43255H8.46046L8.48836 4.14431H8.51627H8.54418H8.57208L8.59999 4.13036H8.6558H8.71162L8.76743 4.1164H8.8372H8.89301L8.94883 4.10245H9.00464H9.06046L9.28371 4.0885H9.31162H9.32557L9.35348 4.07454H9.36743H9.39534H9.40929L9.42325 4.06059H9.47906H9.52092L9.56278 4.04664H9.60464H9.6465L9.77208 4.03268V4.04664H9.8279V4.1164L9.84185 4.13036V4.14431L9.85581 4.15826V4.17222L9.89767 4.18617L9.96743 4.20012L9.99534 4.21408V4.22803L10.0791 4.24199L10.1767 4.25594H10.3302L10.4 4.24199L10.4279 4.22803L10.4419 4.21408L10.4977 4.20012L10.5256 4.18617H10.5814L10.6232 4.17222L10.6791 4.15826V4.14431L10.7209 4.13036L10.7349 4.1164H10.7907L10.8325 4.10245H10.8605H10.8744L10.8884 4.0885V4.07454L10.9302 4.06059L10.9442 4.04664H11L11.0419 4.03268L11.0977 4.01873V4.00478L11.1535 3.99082V3.97687H11.1814L11.2512 3.96292L11.293 3.94896V3.93501L11.3209 3.92106V3.9071H11.3907L11.4325 3.89315L11.4744 3.87919L11.4884 3.86524L11.5302 3.85129V3.83733H11.6L11.6419 3.82338L11.6698 3.80943V3.79547L11.7116 3.78152L11.7256 3.76757H11.7674L11.7953 3.75361L11.8232 3.73966L11.8372 3.72571L11.893 3.71175L11.9209 3.6978H11.9349L11.9767 3.68385L12.0046 3.66989L12.0186 3.65594L12.0605 3.64199V3.62803H12.1163L12.1442 3.61408L12.2 3.60013L12.2139 3.58617L12.2419 3.57222L12.2698 3.55826H12.2837L12.3395 3.54431L12.3674 3.53036V3.5164L12.4093 3.50245V3.4885H12.4372H12.4651L12.4791 3.47454H12.493L12.5488 3.46059V3.44664L12.5767 3.43268V3.41873H12.6186L12.6465 3.40478L12.7023 3.39082V3.37687L12.7302 3.36292L12.7581 3.34896H12.786L12.8279 3.33501L12.8558 3.32106V3.3071L12.9116 3.29315V3.27919H12.9674L12.9953 3.26524L13.0512 3.25129V3.23733L13.107 3.22338V3.20943H13.1349L13.1907 3.19547L13.2186 3.18152L13.2325 3.16757L13.2605 3.15361V3.13966H13.3023L13.3302 3.12571L13.386 3.11175V3.0978L13.4139 3.08385V3.06989H13.4558L13.5116 3.05594L13.5395 3.04199V3.02803L13.5674 3.01408L13.5953 3.00012H13.6232L13.6791 2.98617L13.707 2.97222L13.7209 2.95826L13.7628 2.94431V2.93036H13.8046L13.8325 2.9164L13.8884 2.90245V2.8885L13.9023 2.87454V2.86059H13.9442L13.9721 2.84664L14.0139 2.83268V2.81873L14.0419 2.80478V2.79082H14.0977L14.1116 2.77687L14.1674 2.76292V2.74896L14.1953 2.73501L14.2232 2.72106V2.7071H14.2512L14.307 2.69315V2.67919L14.3349 2.66524L14.3628 2.65129H14.3767L14.4186 2.63733L14.4465 2.62338V2.60943L14.5023 2.59547V2.58152H14.5302L14.5721 2.56757L14.586 2.55361V2.53966L14.6139 2.52571L14.6419 2.51175H14.6558L14.6698 2.4978L14.7116 2.48385V2.46989L14.7395 2.45594V2.44199H14.7814L14.7953 2.42803L14.8232 2.41408L14.8372 2.40013L14.8651 2.38617V2.37222H14.907L14.9209 2.35826L14.9349 2.34431V2.33036L14.9488 2.3164V2.30245H14.9907V2.2885H15.0186V2.09315L15.1581 2.1071V1.95361L15.6186 1.96757V1.95361L15.8279 1.96757H15.8558V2.1071H15.9674V2.12106H16.1209V2.13501L16.1349 2.14896V2.2885L18.6744 2.30245V2.3164H18.7581L18.7302 2.30245H18.8977L18.8837 2.3164H19.7349V2.30245H19.9163V2.3164H19.9581V2.30245H20.1256V2.3164H20.2232V2.30245H20.3907V2.3164H20.8791V2.30245H21.0465V2.3164H21.1721V2.30245H21.5209V2.3164H21.6744L21.6884 2.35826L21.7163 2.40013H22.2046L22.2186 2.44199V2.46989H22.2465L22.2884 2.51175V2.52571L22.3023 2.51175H22.3581H36.8977L36.8698 2.48385V2.44199V2.42803L37.2186 2.44199L37.2465 2.46989L37.4418 2.48385V2.45594V2.35826V2.30245V2.24664V2.19082L37.5116 2.14896V2.12106V2.1071L38.4325 2.12106L38.4744 2.17687L38.4884 2.23268V2.2885V2.33036V2.38617V2.51175ZM14.1116 4.8978L14.0698 4.91175H14.1116V4.8978ZM14.7116 5.37222V5.63733H14.7395V5.69315L14.7674 5.7071L14.7814 5.72106V5.73501L14.7953 5.74896V5.76292L14.8093 5.77687L14.8512 5.79082V5.81873H14.8651L14.893 5.83268H14.9209V5.84664H14.9349L14.9907 5.86059V5.87454L15.0186 5.8885L15.0605 5.90245H15.1302L15.4093 5.8885L15.493 5.87454V5.84664H15.5488L15.6884 5.83268L15.7163 5.81873L15.7581 5.80478V5.79082L15.7721 5.77687V5.76292H15.8279V5.23268L14.7256 5.21873V5.34431L14.6977 5.35826L14.7116 5.37222ZM0.925572 5.00943V5.02338L0.953479 5.00943V4.98152L0.925572 5.00943ZM0.869758 5.1071L0.841851 5.12106L0.827898 5.13501L0.813944 5.14896V5.17687V5.19082L0.855805 5.14896L0.883712 5.09315V5.07919L0.869758 5.1071ZM1.02325 4.93966L1.06511 4.92571L1.07906 4.91175H1.06511L0.99534 4.93966L0.967433 4.96757H1.02325V4.93966ZM0.953479 6.16757H0.939526L0.953479 6.18152V6.16757ZM1.77673 9.86524L1.80464 9.9071L1.8186 9.93501V9.92106V9.87919L1.83255 9.85129L1.8465 9.83733H1.76278L1.77673 9.86524Z" fill="white"/>
</svg>
