<svg width="13" height="12" viewBox="0 0 13 12" fill="none" xmlns="http://www.w3.org/2000/svg">
<path fill-rule="evenodd" clip-rule="evenodd" d="M12.6396 1.5769V1.60481V1.63272V1.67458V1.70248H12.7791V1.73039V1.88388V2.02341V2.1769V2.31644V2.46993V2.60946V2.76295V2.90248V3.05597V3.19551V3.349V3.48853V3.64202V3.78155V3.92109V4.03272V4.07458V4.11644V4.21411V4.25597V4.29783V4.32574V4.3676V4.40946V4.43737V4.46528V4.47923V4.50714H9.38841L9.37445 4.52109V4.53504V4.56295L9.34655 4.5769L9.30469 4.60481L9.29073 4.61876V4.63272L9.24887 4.64667L9.23492 4.67458H9.22097L9.19306 4.70248L9.17911 4.71644V4.73039L9.1512 4.74435H9.12329V4.80016V4.92574V5.05132V5.1769V5.30248V5.42807V5.55365V5.69318V5.81876V5.94434V6.06993V6.09783H9.19306V6.12574V6.15365V6.18155V6.20946V6.22341V6.25132V6.27923V6.30714V6.33504H9.17911V6.349V6.3769V6.40481V6.43272V6.44667V6.47458V6.50248H5.03492V6.54435V6.58621L5.02097 6.61411L4.99306 6.65597V6.69783V6.73969V6.7676V6.79551V6.83737V6.87923L4.97911 6.90714L4.93725 6.949V6.99086V7.01876V7.06062V7.08853V7.13039L4.92329 7.17225L4.89539 7.20016V7.24202V7.28388V7.31179V7.33969V7.38155V7.42342L4.83957 7.46528V7.49318V7.53504V7.5769V7.60481V7.63272C4.83027 7.63272 4.81632 7.64202 4.79771 7.66062V7.68853V7.73039V7.77225V7.80016L4.78376 7.82807L4.7419 7.86993V7.91179V7.95365L4.72794 7.98155L4.70004 8.02342V8.05132V8.09318L4.68608 8.12109L4.64422 8.16295V8.20481V8.24667L4.63027 8.27458L4.60236 8.31644V8.34435V8.38621V8.41411L4.54655 8.44202L4.53259 8.46993L4.50469 8.51179V8.53969V8.58155V8.60946V8.65132L4.44887 8.67923V8.70714V8.749V8.79086L4.40701 8.83272V8.86062V8.88853V8.93039L4.3512 8.97225V9.00016V9.04202V9.08388L4.33725 9.12574L4.30934 9.15365V9.18155V9.22341V9.26528V9.27923L4.25352 9.32109V9.349V9.3769V9.41876V9.46062V9.47458L4.21166 9.50248V9.54435V9.57225V9.61411V9.65597V9.68388V9.71179V9.72574L4.15585 9.75365V9.78155V9.82342V9.86528V9.89318V9.92109V9.96295V10.0048V10.0467V10.0746V10.1164V10.1583V10.1862V10.2141V10.256H4.1698L4.18376 10.2699V10.3397L4.19771 10.3536V10.3955L4.21166 10.4095V10.4234L4.22562 10.4374V10.4513L4.23957 10.4653V10.4792L4.25352 10.4932V10.549L4.28143 10.563V10.5769L4.29538 10.5909V10.6048H4.30934V10.6188L4.32329 10.6327H4.33725V10.6467L4.3512 10.6606V10.6746H4.37911V10.6885L4.40701 10.7025H4.43492V10.7164L4.44887 10.7304H4.47678H4.51864V10.7443H4.53259V10.7583H4.57445V10.7723H4.60236L4.61631 10.7862V10.8978H4.43492H4.3512V10.8839H4.32329L4.30934 10.8978H4.15585L4.05818 10.9118H3.70934L3.63957 10.8978V10.856H3.62562H3.52794L3.47213 10.842V10.7862H3.34655L3.20701 10.7723V10.7443L3.08143 10.7304L2.9419 10.7164V10.7025H2.92794H2.88608H2.85818L2.50934 10.6885V10.6606L2.20236 10.6327L2.17445 10.6048L2.00701 10.5909L1.97911 10.563L1.81166 10.535L1.78376 10.5071L1.61632 10.4932L1.58841 10.4653L1.43492 10.4374V10.4095L1.32329 10.3955L1.29539 10.3676L1.22562 10.3397H1.1419V10.3118V10.2699V10.242V10.2002V10.1583V10.1304H0.360501V10.1164V10.0885V10.0606H0.304688V10.0188V9.9769V9.949V9.90714V9.86528V9.82342V9.79551V9.7676V9.72574V9.68388V9.65597V9.61411V9.57225V9.54435V9.50248V9.47458V9.43272V9.39086V9.36295V9.32109V9.27923V9.25132V9.22341V9.18155V9.15365V9.13969L0.360501 9.12574V9.08388V9.04202V9.00016V8.97225V8.93039V8.88853V8.86062L0.388408 8.83272L0.402362 8.79086V8.749V8.70714V8.67923V8.65132L0.458176 8.63737V8.59551V8.55365V8.51179V8.48388V8.44202V8.41411V8.37225C0.476781 8.35365 0.490734 8.34435 0.500036 8.34435V8.30248V8.26062V8.21876V8.19086V8.16295L0.55585 8.149V8.10714V8.06528V8.02342V7.99551V7.9676L0.597711 7.95365V7.91179V7.86993V7.82807L0.653525 7.80016V7.77225V7.73039V7.68853L0.695385 7.66062V7.61876V7.5769L0.737246 7.53504L0.751199 7.50714V7.47923L0.79306 7.46528V7.42342V7.38155L0.83492 7.33969L0.848874 7.31179V7.28388V7.25597V7.24202L0.890734 7.21411V7.18621V7.14435V7.10249L0.946548 7.07458V7.03272V6.99086L0.988408 6.96295V6.92109L1.00236 6.89318L1.03027 6.85132L1.04422 6.80946L1.07213 6.78155L1.08608 6.73969V6.69783V6.66993L1.1419 6.64202V6.60016V6.5583L1.18376 6.51644V6.48853V6.44667V6.40481L1.22562 6.3769L1.23957 6.349V6.32109L1.28143 6.29318V6.25132V6.22341L1.33725 6.19551V6.15365L1.37911 6.12574V6.08388L1.40701 6.05597L1.43492 6.01411V5.97225V5.93039L1.46283 5.90248L1.47678 5.86062V5.83272L1.51864 5.79086L1.53259 5.76295V5.72109L1.57445 5.67923V5.63737V5.60946V5.58155L1.63027 5.5676V5.52574V5.48388V5.44202L1.67213 5.41411V5.37225V5.34435V5.30248V5.27458V5.23272V5.20481V5.19086L1.72794 5.1769V5.13504V5.09318V5.05132L1.67213 5.03737V4.99551V4.98155V4.95365L1.61632 4.93969L1.57445 4.89783V4.85597L1.5605 4.82807L1.47678 4.80016V4.77225L1.42097 4.74435L1.37911 4.70248V4.67458L1.32329 4.64667L1.29539 4.61876L1.23957 4.60481V4.5769L1.18376 4.549V4.52109L1.08608 4.50714V4.47923L1.03027 4.45132L1.00236 4.42341L0.946548 4.40946V4.38155L0.79306 4.35365L0.765153 4.32574L0.695385 4.31179V4.28388L0.500036 4.25597V4.21411V4.18621V4.1583H0.360501V4.11644V4.08853V4.06062V4.01876V3.9769V3.93504V3.90714V3.86528V3.82341V3.79551V3.7676V3.72574V3.68388V3.64202L0.402362 3.61411V3.57225V3.54435V3.50248V3.47458V3.43272V3.39086V3.349V3.32109V3.29318L0.55585 3.27923V3.23737V3.19551V3.15365V3.12574V3.08388V3.05597V3.01411V2.98621V2.94435V2.90248V2.86062L0.597711 2.83272V2.80481V2.76295L0.639571 2.72109L0.653525 2.69318V2.65132V2.62341V2.60946L0.695385 2.59551V2.55365V2.51179V2.46993L0.751199 2.44202V2.41411V2.37225L0.79306 2.34435V2.31644V2.28853V2.27458L0.848874 2.24667V2.21876L0.890734 2.20481V2.16295V2.13504V2.12109L0.946548 2.10714V2.07923L0.988408 2.05132V2.02341V1.99551V1.98155L1.04422 1.95365V1.92574L1.08608 1.91179V1.88388L1.1419 1.85597V1.82807L1.18376 1.81411V1.78621L1.23957 1.77225V1.74435V1.71644V1.67458V1.63272L1.63027 1.64667V1.61876V1.5769V1.53504V1.50714V1.47923V1.43737V1.40946V1.39551L6.40236 1.40946V1.43737V1.47923V1.52109V1.549H6.59771V1.5769L6.63957 1.60481V1.63272V1.67458V1.71644V1.74435V1.78621V1.82807V1.84202H8.39771V1.82807V1.80016V1.77225V1.73039V1.68853V1.64667V1.61876V1.5769V1.53504V1.50714V1.47923V1.43737V1.40946V1.39551L11.9558 1.40946V1.39551L12.2768 1.40946H12.3884H12.5838V1.43737L12.6396 1.45132V1.49318V1.53504V1.5769ZM6.10934 4.63272V4.66062L6.03957 4.68853L5.99771 4.71644L5.95585 4.7583V4.80016L5.91399 4.82807V4.85597V4.89783L5.85818 4.92574V4.95365V4.99551L5.81632 5.02342V5.05132V5.09318V5.13504L5.78841 5.1769L5.7605 5.20481V5.24667V5.28853L5.74655 5.31644L5.71864 5.34435V5.38621V5.42807L5.70469 5.46993L5.71864 5.49783V5.53969V5.5676L5.74655 5.60946L5.7605 5.63737V5.67923L5.80236 5.72109L5.81632 5.76295L5.83027 5.79086L5.85818 5.83272V5.86062V5.90248V5.93039V5.97225V6.01411V6.05597V6.08388V6.12574V6.15365V6.19551V6.22341V6.26528H8.63492V6.22341V6.19551V6.18155V6.15365V6.08388L8.85818 6.09783V6.08388V6.05597V6.04202L8.88608 6.02807V6.01411V5.90248V5.80481V5.69318V5.5676V5.46993V5.3583V5.24667V5.13504V5.02342V4.92574V4.81411V4.77225H8.7605V4.7583V4.73039L8.73259 4.71644V4.70248H8.70469L8.69073 4.67458V4.66062L8.67678 4.64667V4.63272H8.63492V4.60481H8.60701L8.59306 4.5769L8.56515 4.56295L8.53724 4.549L8.49539 4.53504V4.50714H8.48143H6.98841V4.53504V4.549V4.5769V4.60481V4.64667L6.93259 4.67458V4.71644V4.7583V4.80016V4.82807V4.85597V4.89783V4.93969V4.99551V5.00946V5.05132V5.09318V5.12109V5.149V5.19086V5.23272V5.26062V5.28853L6.94655 5.31644L6.9605 5.33039L6.97445 5.34435L6.98841 5.3583L7.00236 5.37225V5.40016L7.03027 5.41411L7.05818 5.44202V5.45597L7.07213 5.46993L7.08608 5.49783L7.10004 5.51179H7.12794V5.53969L7.15585 5.55365L7.1698 5.5676L7.19771 5.58155V5.60946H7.22562L7.25352 5.63737V5.65132L7.28143 5.66528L7.33725 5.67923V5.70714H7.39306L7.43492 5.73504V5.749L7.50469 5.76295L7.57445 5.7769V5.80481H7.7698V5.83272V5.86062V5.88853V5.91644V5.93039V5.9583V5.98621V6.01411V6.04202H7.32329V6.02807L7.26748 6.01411L7.19771 5.98621V5.97225L7.15585 5.9583L7.10004 5.94434V5.93039L7.05818 5.91644L7.00236 5.88853V5.87458L6.98841 5.86062L6.9605 5.84667V5.83272L6.91864 5.80481L6.89073 5.79086V5.76295L6.86283 5.749L6.83492 5.73504L6.82097 5.70714L6.80701 5.69318L6.79306 5.66528L6.76515 5.65132V5.63737L6.73725 5.60946V5.59551L6.70934 5.5676L6.69538 5.55365V5.53969L6.66748 5.52574V5.51179L6.63957 5.48388V5.46993L6.61166 5.45597V5.44202V5.41411H6.5419V5.38621L6.52794 5.37225L6.51399 5.34435V5.28853V5.26062V5.24667V5.21876V5.19086V5.16295V5.12109V5.09318L6.5419 5.07923V5.05132V5.00946V4.95365V4.89783V4.84202V4.78621V4.73039V4.67458V4.61876V4.5769V4.50714H6.30469V4.52109V4.549V4.56295L6.1512 4.59086V4.60481L6.10934 4.63272ZM2.70469 10.6606V10.6467L2.60701 10.6327L2.63492 10.6467L2.70469 10.6606Z" fill="white"/>
</svg>
