<svg width="25" height="12" viewBox="0 0 25 12" fill="none" xmlns="http://www.w3.org/2000/svg">
<path fill-rule="evenodd" clip-rule="evenodd" d="M16.4302 7.21411C16.3743 7.29783 16.3464 7.41876 16.3464 7.5769L16.3604 8.16295H16.9185V8.44202L17.0162 8.46993L17.1418 8.53969C17.1976 8.61411 17.2813 8.66528 17.3929 8.69318C17.579 8.749 17.779 8.69783 17.9929 8.53969C18.2255 8.37225 18.2953 8.149 18.2022 7.86993C18.1185 7.62807 17.965 7.45597 17.7418 7.35365L17.5464 7.13039L17.4488 6.96295L17.2255 6.949L16.7511 7.01876C16.6022 7.07458 16.4953 7.13969 16.4302 7.21411ZM13.179 7.64667C13.179 7.48853 13.1371 7.32574 13.0534 7.1583L12.9418 6.96295H11.0302L10.472 7.49318C10.4069 7.549 10.379 7.62807 10.3883 7.73039L10.4162 8.02342C10.4162 8.33969 10.5046 8.5676 10.6813 8.70714C10.8953 8.88388 11.0953 8.96295 11.2813 8.94434L11.8813 8.72109L12.5371 8.40016L12.9557 8.10714C13.1046 7.9676 13.179 7.81411 13.179 7.64667ZM19.8488 4.17225C19.8674 4.14435 19.8302 4.08853 19.7371 4.00481H17.6441L16.5418 3.949L15.8022 3.90714V4.32574H19.7929L19.8069 4.26993L19.8488 4.17225ZM20.3371 3.949H20.1976H20.1139V4.21411L20.2255 4.22807C20.2999 4.25597 20.3371 4.30714 20.3371 4.38155L20.2674 4.56295L20.1976 4.63272L20.2534 5.31644H20.4208V4.13039L20.4069 4.01876L20.3371 3.949ZM23.965 5.41411L24.0488 5.49783C24.1139 5.58155 24.1464 5.71179 24.1464 5.88853C24.1464 6.12109 24.1185 6.27923 24.0627 6.36295C24.0255 6.43737 23.9604 6.47458 23.8674 6.47458H21.9418L21.872 6.39086L21.8022 6.43272L21.7325 6.48853L21.9139 6.69783C22.0255 6.84667 22.0767 6.96295 22.0674 7.04667L21.9557 7.93969L21.886 8.7769L21.8302 8.88853L21.6906 8.91644H20.8813L20.7836 8.81876L20.7278 8.52574L20.7139 8.06528L20.6441 7.77225L20.2255 7.68853L19.7929 7.71644L19.6534 7.85597C19.5883 7.92109 19.5557 7.98155 19.5557 8.03737L19.486 8.79086C19.3836 9.29318 19.1883 9.68853 18.8999 9.9769C18.6022 10.2839 18.1371 10.4978 17.5046 10.6188L16.3185 10.6885L15.9836 10.5909V10.4653L16.2906 9.19551L16.2348 9.05597C16.1976 9.00946 16.1464 8.98621 16.0813 8.98621L15.6209 8.97225L15.2162 8.9583L15.1325 9.02807L15.0488 9.15365L14.7139 9.43272L13.9604 9.96295C13.1697 10.456 12.4999 10.7025 11.9511 10.7025L10.2488 10.6467L9.50922 10.5769L9.49527 10.1164L7.55574 9.39086L7.24876 9.3769L7.10922 9.36295L6.9976 9.5583L6.76039 9.73969H1.33248C1.24876 9.73969 1.17434 9.67923 1.10922 9.5583L1.03946 9.22341V6.89318L1.01155 5.28853L0.983643 4.56295C1.01155 4.38621 1.05341 4.29783 1.10922 4.29783H8.15574L8.54643 4.22807L8.97899 4.17225H14.0022L14.0162 3.57225L14.2395 3.04202L14.4627 2.45597C14.472 2.40016 14.5325 2.33969 14.6441 2.27458L14.8115 2.20481L14.8395 1.95365C14.8674 1.78621 14.8906 1.68853 14.9092 1.66062C15.0302 1.48388 15.1325 1.39551 15.2162 1.39551C15.3092 1.39551 15.379 1.44667 15.4255 1.549L15.4813 1.78621V2.20481L15.4395 2.21876L15.4115 2.31644V2.62341H19.3743L19.8767 2.33039C19.9697 2.33039 20.0162 2.29783 20.0162 2.23272V2.00946H19.9325V1.66062L20.0022 1.59086L20.1557 1.49318L20.4767 1.46528L20.5325 1.53504L20.5464 1.66062V2.27458L20.6022 2.48388L20.6999 2.69318H21.0767L21.9557 3.64202C22.0208 3.72574 22.0534 3.81411 22.0534 3.90714V5.41411H23.965Z" fill="white"/>
</svg>
