<svg width="17" height="12" viewBox="0 0 17 12" fill="none" xmlns="http://www.w3.org/2000/svg">
<path fill-rule="evenodd" clip-rule="evenodd" d="M16.6475 3.18129L16.4801 3.58594V4.33943H15.6987V4.24176H15.5173V4.35339H14.3312V4.2278L13.1312 4.21385L12.9219 4.29757H11.1219L10.9266 4.32548C10.787 4.35339 10.6801 4.39525 10.6056 4.45106L10.5917 4.46501L10.3963 4.63246C10.3312 4.71618 10.294 4.8092 10.2847 4.91153L10.2708 5.38594V5.67897L9.86611 5.66501H9.85215H9.50332L9.26611 5.69292C9.14518 5.72083 9.0568 5.75804 9.00099 5.80455L8.88936 5.95804L8.8475 6.01385C8.81029 6.08827 8.78238 6.1906 8.76378 6.32083L8.69401 6.5999L8.49866 6.90687C8.34983 7.05571 8.16378 7.17199 7.94052 7.25571L7.88471 7.28362L7.21494 7.43711L6.6568 7.45106L6.53122 7.42315L6.26611 7.26967L6.15448 7.15804L6.09866 7.10222L6.01494 7.18594L5.87541 7.15804L5.69401 7.13013L5.54052 7.11618L5.2475 7.07432L4.87076 7.08827C4.74983 7.14408 4.65215 7.2092 4.57773 7.28362C4.49401 7.36734 4.4475 7.46036 4.4382 7.56269C4.4289 7.70222 4.46611 7.8278 4.54983 7.93943L4.63355 8.06501L4.6475 8.16269L4.59169 8.24641L4.48006 8.33013C4.37773 8.42315 4.32192 8.52548 4.31262 8.63711C4.28471 8.78594 4.31262 8.92083 4.39634 9.04176L4.46611 9.16734L4.48006 9.27897L4.42425 9.36269L4.28471 9.43246L4.01959 9.6278L3.90797 9.87897L3.79634 10.0883L3.14052 10.2836L2.20564 10.3534L1.28471 10.2418C0.92192 10.1487 0.72192 10.0185 0.684711 9.85106C0.666106 9.78594 0.684711 9.69757 0.740525 9.58594L0.782386 9.51618L0.894013 9.29292L1.01959 9.0278L1.15913 8.63711L1.35448 8.10687C1.52192 7.64176 1.66611 7.29292 1.78704 7.06036L2.4289 6.0278L3.0289 5.10687L3.16843 4.7999V4.52083V4.28362L3.22425 4.04641C3.28006 3.95339 3.4289 3.88362 3.67076 3.83711L3.93587 3.79525H4.03355L4.15913 3.68362C4.26146 3.6092 4.35448 3.55804 4.4382 3.53013L4.70332 3.43246L4.84285 3.40455L4.75913 3.19525L4.52192 2.91618L4.17308 2.8185L4.10332 2.80455L3.85215 2.7906L3.8382 2.72083L4.10332 2.70687H4.53587L4.81494 2.86036L4.84285 2.87432C4.92657 2.93943 4.98704 2.97199 5.02425 2.97199C5.07076 2.97199 5.14518 2.90222 5.2475 2.76269L5.38704 2.58129L5.70797 2.59525L5.83355 2.30222L5.80564 2.28827L5.76378 2.24641C5.71727 2.1906 5.70797 2.12548 5.73587 2.05106L5.81959 1.95339L5.8475 1.93943H5.90332L5.93122 1.7999L6.09866 1.8278L6.08471 1.95339H6.57308L6.72657 2.05106H7.48006V1.85571L7.67541 1.67432L7.95448 1.68827V1.8278H8.20564V1.68827H8.49866V1.8278H8.74983V1.67432H9.04285V1.8278H9.30797V1.67432H9.55913V1.8278H9.85215V1.68827H10.1033V1.8278H10.3824V1.67432H10.6475V1.8278H10.9266V1.67432H11.2056V1.8278H11.4708V1.67432H11.7219V1.8278H12.001V1.68827H12.2522V1.81385H12.5312V1.68827H12.7266L12.8661 1.73013L13.1312 1.8278L13.6335 2.07897H15.2661V1.8278H16.0615L16.1173 1.84176L16.2289 1.91153L16.2708 2.03711L16.2568 2.10687L16.6475 2.4278V3.18129ZM7.70332 5.45571H7.46611L7.48006 5.53943L7.56378 5.6092L7.45215 5.83246L7.35448 5.98594L7.32657 5.9999L7.18704 6.19525V6.47432L7.35448 6.72548L7.6475 6.94873L7.80099 7.03246L7.75913 7.11618L7.52192 7.03246L7.08936 6.75339C7.01494 6.66967 6.95448 6.55339 6.90797 6.40455L6.85215 6.18129L6.92192 6.12548L6.93587 5.95804L6.81029 5.94408L6.55913 5.90222L6.40564 5.7906L6.34983 5.72083L6.29401 5.76269L6.19634 5.90222C6.09401 6.04176 6.04285 6.17664 6.04285 6.30687V6.36269C6.05215 6.49292 6.07541 6.61385 6.11262 6.72548L6.25215 7.03246L6.48936 7.1999L6.92192 7.28362L7.49401 7.24176L7.80099 7.17199L7.91262 7.13013L8.05215 7.06036L8.2475 6.93478L8.52657 6.65571L8.61029 6.39059V6.04176V6.0278C8.60099 5.91618 8.54052 5.8185 8.4289 5.73478L8.12192 5.52548L7.70332 5.45571Z" fill="white"/>
</svg>
