<svg width="37" height="12" viewBox="0 0 37 12" fill="none" xmlns="http://www.w3.org/2000/svg">
<path fill-rule="evenodd" clip-rule="evenodd" d="M8.96267 2.24638L8.97662 2.23242H14.865L14.9487 2.26033L15.0045 2.31614L15.0185 2.3301H15.0324L15.0882 2.37196L15.1162 2.42777L15.1301 2.45568V2.49754H15.172V2.46963H15.2976L15.3813 2.51149L15.4371 2.5394L36.3255 2.55335L36.4231 2.59521L36.465 2.62312L36.4929 2.67893L36.5069 2.72079V2.77661L36.4929 2.79056L36.5069 2.81847V2.87428V2.91614V2.97196V2.99986V3.05568V3.09754V3.15335V3.18126V3.23707V3.27893V3.33475V3.39056V3.41847V3.46033V3.51614V3.57196V3.59986V3.64172V3.69754V3.75335L36.465 3.76731L36.4092 3.80917L36.3813 3.86498L36.3255 3.90684L36.3115 3.9487L36.2278 3.90684L36.2138 3.89289H35.4882V3.93475V3.96265V3.99056V4.03242V4.04638V4.07428V4.11614V4.1301L35.5022 4.158L35.5162 4.17196L35.7255 4.18591V4.17196V4.1301H36.3952V4.158V4.22777V4.29754V4.35335V4.40917V4.47893V4.53475V4.60452V4.66033V4.71614V4.78591V4.85568V4.86963V4.89754V4.9394V4.96731V4.99521V5.03707V5.06498V5.10684V5.1487V5.17661V5.21847V5.24638V5.28824V5.31614V5.39986V5.42777V5.49754V5.52544V5.58126L35.7673 5.56731V5.58126H35.5999L35.5859 5.59521L35.5441 5.60917L35.5162 5.65103V5.67893L35.5022 5.70684L35.4882 5.7487L35.4743 5.77661L35.4464 5.80451L35.4185 5.84638L35.4045 5.86033V5.88824L35.3487 5.9301L35.3208 5.958L35.3069 5.98591L35.265 6.02777L35.251 6.05568L35.2371 6.09754V6.11149L35.1813 6.12545V6.15335L35.1115 6.16731L35.0696 6.20917V6.23707H34.8603V6.25103V6.29289V6.32079L25.8603 6.33475V6.37661V6.40452V6.43242L25.1627 6.41847V6.39056V6.3487V6.33475V6.30684V6.27893L25.065 6.25103L24.9534 6.22312V6.19521L24.8696 6.16731L24.7859 6.1394V6.11149L24.6603 6.09754L24.5348 6.05568V6.02777H20.0417L19.9301 5.98591L19.8882 5.958L19.8185 5.9301L19.7766 5.87428L19.7348 5.84638V5.79056V5.7487V5.69289H18.6882V5.72079V5.76265V5.77661V5.80451V5.84638V5.87428V5.90219H18.3952V5.9301V5.958V5.98591V6.02777V6.05568V6.06963L17.7255 6.05568L17.6976 6.02777V6.01382V5.97196V5.94405V5.90219H14.3208H14.3069C14.2976 5.90219 14.2836 5.91149 14.265 5.9301H14.2231L14.1813 5.94405L14.1255 5.97196L14.0557 6.01382H14.0138L13.958 6.02777L13.9022 6.05568L13.8743 6.09754L13.8185 6.12545L13.7906 6.1394L13.7766 6.15335L13.7348 6.16731L13.6929 6.20917V6.23707L13.651 6.25103V6.29289V6.32079H13.6092H13.5813V6.39056L13.3859 6.40452H13.372L13.2464 6.41847H13.2324L13.1906 6.43242H13.1627L13.0371 6.46033H13.0231L12.9115 6.47428H12.8836L12.8417 6.48824H12.8278L12.7859 6.50219H12.772L12.7441 6.51614H12.7301L12.6743 6.5301H12.6603L12.6464 6.558H12.6185L12.5766 6.57196H12.5627L12.5069 6.58591H12.4929L12.4231 6.59986H12.4092L12.3813 6.61382H12.3534L12.3394 6.64172H12.3255L12.2976 6.65568H12.2836L12.2417 6.66963H12.2278L12.2138 6.68358L12.172 6.69754H12.158L12.1301 6.71149H12.1162C12.1069 6.71149 12.0929 6.72079 12.0743 6.7394H12.0603L12.0324 6.75335H12.0185L11.9906 6.76731H11.9766L11.9487 6.78126H11.9348L11.9208 6.79521H11.8929L11.865 6.82312H11.851L11.8371 6.83707L11.7952 6.85103H11.7813L11.7673 6.86498H11.7534L11.7394 6.87893H11.7115L11.6976 6.89289H11.6836L11.6557 6.92079L11.6138 6.93475H11.5999L11.5859 6.9487H11.572L11.558 6.96265L11.5162 6.97661L11.5022 7.00452H11.4882L11.4743 7.01847L11.4185 7.03242H11.4045L11.3766 7.06033V7.07428H11.3487L11.3348 7.10219H11.3208L11.3069 7.11614L11.265 7.1301H11.251L11.2371 7.14405L11.2092 7.158H11.1952L11.1673 7.18591L11.1394 7.19986H11.1255L11.1115 7.21382H11.0836L11.0696 7.22777H11.0557L11.0417 7.24172H11.0278L11.0138 7.25568H10.9859L10.972 7.28359L10.958 7.29754H10.9441L10.9301 7.31149H10.9022L10.8743 7.3394L10.8603 7.36731H10.8464L10.8185 7.38126H10.8045L10.7906 7.39521L10.7766 7.40917H10.7627L10.7487 7.42312L10.7208 7.45103H10.7069L10.6929 7.46498L10.6789 7.47893H10.665L10.6371 7.49289H10.6231L10.6092 7.50684H10.5952V7.52079L10.5813 7.5487H10.5673L10.5394 7.56265H10.5255L10.5115 7.57661H10.4976L10.4557 7.60452L10.4278 7.63242L10.4138 7.64638L10.3999 7.66033H10.3859L10.3301 7.70219L10.3162 7.7301H10.3022L10.2464 7.77196L10.2324 7.78591H10.2185L10.2045 7.81382H10.1766L10.1627 7.82777H10.1487L10.1208 7.84172L10.0789 7.85568L10.051 7.86963H10.0371L9.99522 7.88358L9.96732 7.91149H9.95337L9.9115 7.92545L9.8836 7.9394H9.86965L9.85569 7.95335H9.84174L9.78592 7.96731H9.77197L9.75802 7.99521H9.73011L9.7022 8.00917H9.68825L9.66034 8.02312H9.63243L9.59058 8.03707H9.57662L9.52081 8.05103L9.40918 8.06498H9.39523L9.33941 8.09289H9.32546L9.25569 8.10684H9.24174L9.1022 8.12079H9.08825H8.59988L8.58592 8.10684H8.51616V8.09289H8.46034L8.44639 8.06498H8.37662L8.36267 8.05103H8.26499L8.25104 8.03707H8.22313V8.02312H8.16732L8.15337 8.00917H8.11151L8.09755 7.99521H8.05569L8.04174 7.96731H7.99988V7.95335H7.95802L7.93011 7.9394H7.91616L7.9022 7.92545H7.8743L7.86034 7.91149H7.83244L7.81848 7.88358H7.79058V7.86963H7.74871L7.73476 7.85568H7.70685L7.6929 7.84172H7.65104V7.82777H7.63709L7.60918 7.78591H7.59523V7.77196H7.55337V7.758H7.53941V7.74405H7.52546V7.7301H7.51151V7.70219H7.49755V7.68824H7.46964V7.67428L7.45569 7.66033H7.44174L7.38592 7.60452V7.59056H7.37197V7.57661L7.34406 7.5487V7.52079H7.33011V7.50684H7.31616V7.49289L7.2743 7.46498V7.45103L7.24639 7.40917V7.39521H7.23244V7.38126L7.20453 7.36731V7.3394L7.19057 7.32545H7.17662V7.31149L7.16267 7.29754V7.28359L7.14871 7.25568V7.24172L7.10685 7.22777V7.21382L7.07895 7.18591V7.158L7.06499 7.14405L7.05104 7.1301V7.10219L7.00918 7.06033V7.04638L6.99523 7.03242V7.01847L6.96732 6.97661V6.96265L6.95337 6.9487H6.92546V6.92079L6.9115 6.89289V6.87893L6.89755 6.86498V6.85103L6.86964 6.82312V6.79521L6.79988 6.7394V6.71149L6.78592 6.69754V6.68358L6.75802 6.66963L6.63243 6.5301V6.51614H6.61848V6.48824L6.60453 6.47428H6.57662L6.53476 6.41847L6.52081 6.40452V6.39056L6.43709 6.30684H6.18592L6.15802 6.32079L5.90685 6.37661L5.85104 6.40452L5.80918 6.41847V6.39056V6.33475V6.29289H5.79523V6.30684L5.78127 6.32079L5.7115 6.33475L5.64174 6.37661L5.61383 6.40452L5.57197 6.41847L5.55802 6.43242C5.53941 6.43242 5.52546 6.44172 5.51616 6.46033L5.4743 6.48824L5.44639 6.51614L5.37662 6.5301L5.34871 6.57196L5.33476 6.58591L5.30685 6.59986L5.26499 6.61382L5.22313 6.64172V6.65568L5.15337 6.66963L5.11151 6.69754V6.7394L5.04174 6.75335L4.97197 6.78126L4.93011 6.82312L4.91616 6.83707L4.9022 6.85103L4.84639 6.86498L4.81848 6.89289L4.79057 6.93475L4.72081 6.9487V6.96265L4.70685 6.97661L4.63709 7.00452L4.60918 7.03242L4.58127 7.06033V7.11614L4.55337 7.1301L4.52546 7.158L4.45569 7.22777C4.41848 7.23707 4.38592 7.25568 4.35802 7.28359L4.34406 7.29754V7.32545H4.3022L4.2743 7.3394L4.24639 7.38126L4.21848 7.40917L4.19057 7.45103L4.13476 7.47893L4.10685 7.50684L4.0929 7.5487L4.06499 7.57661L4.02313 7.59056L3.99523 7.63242L3.95337 7.66033L3.93941 7.68824L3.91151 7.7301V7.758L3.85569 7.77196L3.82778 7.81382V7.84172L3.77197 7.85568L3.74406 7.88358L3.71616 7.92545L3.6743 7.95335L3.66034 7.99521L3.64639 8.00917L3.63244 8.03707L3.57662 8.06498L3.56267 8.10684L3.53476 8.13475L3.4929 8.17661L3.47895 8.20451L3.45104 8.23242L3.40918 8.24638V8.28824L3.38127 8.31614L3.36732 8.358L3.32546 8.38591L3.29755 8.41382L3.26964 8.45568L3.25569 8.48358L3.22778 8.49754L3.21383 8.5394L3.17197 8.56731V8.59521L3.14406 8.63707L3.13011 8.66498V8.69289V8.72079L3.08825 8.73475L3.0743 8.76265L3.04639 8.79056L3.03244 8.83242L3.01848 8.86033L3.00453 8.90219L2.99057 8.91614L2.96267 8.94405V8.98591V9.01382V9.04172L2.92081 9.05568L2.90685 9.09754L2.8929 9.12545V9.16731L2.83709 9.18126L2.82313 9.20917L2.80918 9.23707V9.27893L2.78127 9.30684L2.75337 9.32079V9.36265L2.72546 9.39056V9.41847V9.46033V9.48824V9.5301V9.558V9.57196H2.66964V9.59986V9.64172V9.65568L1.97197 9.64172L1.9022 9.59986V9.57196L1.84639 9.558L1.76267 9.5301L1.74871 9.48824L1.73476 9.47428L1.65104 9.44638V9.40451L1.58127 9.39056L1.55337 9.36265L1.51151 9.32079L1.4836 9.30684L1.41383 9.27893L1.39988 9.23707L1.35802 9.22312V9.19521L1.31616 9.16731L1.2743 9.12545L1.24639 9.09754L1.21848 9.05568L1.16267 9.02777L1.14871 8.99986L1.10685 8.98591L1.0929 8.94405L1.06499 8.91614V8.90219L1.00918 8.86033L0.981273 8.83242L0.939412 8.81847V8.77661L0.911505 8.7487L0.855691 8.72079L0.841738 8.67893L0.799877 8.65103L0.77197 8.60917L0.758017 8.58126L0.744063 8.56731L0.688249 8.5394L0.674296 8.49754L0.660342 8.48358L0.604529 8.45568V8.41382L0.590575 8.39986L0.576622 8.37196V8.3301L0.520808 8.31614L0.506854 8.28824L0.492901 8.24638V8.23242L0.437087 8.20451V8.17661V8.1487L0.423133 8.12079L0.40918 8.09289V8.05103V8.02312V7.99521V7.95335V7.92545V7.91149V7.86963V7.84172V7.81382V7.74405V7.70219V7.67428V7.66033V7.63242V7.59056V7.56265V7.52079V7.46498V7.42312L0.437087 7.40917V7.39521V7.21382V7.03242V6.85103V6.66963V6.47428V6.29289V6.11149V5.9301V5.72079V5.5394V5.358V5.3301L0.40918 5.31614V5.28824V5.26033V5.23242V5.20451V5.16265V5.13475V5.10684V5.06498V5.03707V5.02312V4.98126V4.95335V4.92545V4.88358V4.85568V4.81382V4.78591V4.77196V4.74405V4.70219V4.67428V4.61847H1.10685V4.66033L1.14871 4.68824L1.19058 4.70219V4.74405L1.24639 4.77196L1.31616 4.78591L1.33011 4.81382L1.35802 4.85568L1.42778 4.86963V4.89754L1.51151 4.9394L1.59523 4.95335V4.98126L1.67895 5.02312L1.84639 5.03707V5.06498L1.97197 5.10684H2.46034L2.59988 5.06498L2.62778 5.03707H2.64174L2.80918 5.02312L2.93476 4.98126L2.94871 4.95335H2.96267L3.13011 4.9394L3.29755 4.89754V4.86963L3.46499 4.85568L3.56267 4.81382V4.78591H3.57662L3.64639 4.77196L3.75802 4.74405L3.77197 4.70219H3.79988L3.85569 4.68824L4.00918 4.66033L4.02313 4.61847H4.03709L4.12081 4.60452L4.24639 4.57661V4.53475L4.35802 4.52079L4.45569 4.49289V4.45103L4.53941 4.43707L4.62313 4.40917V4.36731L4.73476 4.35335L4.80453 4.32545V4.29754H4.81848L4.86034 4.26963L4.91616 4.24172L4.94406 4.21382L4.98592 4.18591V4.17196L5.0836 4.158L5.11151 4.1301L5.15337 4.08824L5.22313 4.07428V4.04638L5.27895 4.03242L5.33476 3.99056L5.34871 3.96265H5.36267L5.43244 3.9487L5.48825 3.90684L5.53011 3.87893L5.55802 3.86498V3.85103C5.58592 3.83242 5.60918 3.82312 5.62778 3.82312V3.79521H5.64174L5.69755 3.78126L5.79523 3.75335V3.71149H5.80918L5.87895 3.69754L5.90685 3.66963L5.93476 3.62777L5.97662 3.61382V3.59986L6.03243 3.58591V3.54405H6.06034L6.1022 3.5301L6.15802 3.50219L6.17197 3.46033H6.18592L6.26964 3.44638L6.29755 3.41847V3.39056L6.38127 3.36265L6.45104 3.33475V3.30684H6.46499L6.52081 3.27893L6.60453 3.25103V3.22312L6.7022 3.19521L6.78592 3.16731V3.1394H6.79988L6.86964 3.12545L6.92546 3.08358V3.05568L7.02313 3.04172L7.10685 2.99986V2.97196H7.13476L7.20453 2.958L7.28825 2.91614V2.88824L7.44174 2.87428L7.52546 2.83242V2.80451H7.53941L7.60918 2.79056L7.6929 2.76265V2.72079H7.70685L7.74871 2.70684L7.80453 2.67893L7.81848 2.63707H7.83244L7.93011 2.62312H7.95802V2.59521V2.55335L8.06964 2.5394L8.13941 2.52545L8.16732 2.51149L8.19523 2.49754V2.46963H8.22313L8.25104 2.44172L8.46034 2.41382L8.5022 2.358L8.79523 2.3301L8.82313 2.27428L8.96267 2.24638ZM8.61383 6.3487V6.37661L8.59988 6.39056V6.40452L8.58592 6.41847V6.43242H8.55802V6.46033L8.54406 6.47428V6.48824L8.53011 6.50219V6.5301L8.51616 6.558V6.58591H8.5022V6.59986L8.48825 6.61382V6.64172L8.46034 6.65568V6.68358H8.44639V6.7394H8.43244V6.83707H8.41848V6.86498L8.40453 6.87893V6.9487L8.37662 6.96265V7.03242H8.36267V7.18591L8.37662 7.19986V7.47893H8.11151V7.46498H8.09755V7.42312L8.0836 7.40917V7.38126H8.06964V7.36731L8.05569 7.3394V7.31149H8.04174V7.28359L8.01383 7.25568V7.22777L7.99988 7.21382V7.14405L7.98592 7.1301V7.04638L7.97197 7.03242V7.01847V6.96265V6.92079V6.86498V6.82312V6.76731V6.7394V6.69754V6.66963V6.64172V6.58591V6.558V6.51614V6.48824V6.47428H7.95802L7.93011 6.48824L7.91616 6.50219L7.86034 6.57196V6.58591L7.79058 6.65568V6.66963L7.77662 6.68358V6.71149L7.74871 6.7394V6.75335L7.73476 6.76731V6.79521L7.72081 6.82312V6.89289L7.70685 6.92079V7.03242L7.72081 7.04638V7.1301L7.73476 7.14405V7.19986L7.74871 7.21382V7.24172L7.77662 7.25568V7.28359L7.79058 7.29754V7.31149L7.81848 7.3394V7.36731H7.83244L7.88825 7.40917V7.42312H7.9022L7.95802 7.47893H7.97197V7.49289H7.98592L7.99988 7.50684H8.01383L8.04174 7.52079H8.05569V7.5487H8.06964L8.0836 7.56265H8.09755L8.11151 7.57661H8.15337V7.59056H8.18127V7.60452H8.19523L8.22313 7.63242H8.23709H8.32081V7.64638H8.33476V7.66033H8.34871V7.67428H8.36267V7.68824H8.37662V7.70219H8.44639L8.46034 7.7301H8.5022L8.51616 7.74405H8.55802V7.758H8.59988L8.61383 7.77196H8.62778L8.64174 7.78591H8.87895V7.81382H9.04639V7.78591H9.08825V7.77196H9.24174V7.758H9.2836V7.74405H9.33941V7.7301H9.39523V7.70219H9.43709V7.68824H9.45104V7.67428H9.4929L9.50685 7.66033H9.53476V7.64638H9.59058V7.63242H9.63243L9.66034 7.60452H9.68825V7.59056H9.71616L9.73011 7.57661H9.77197V7.56265L9.79988 7.52079H9.84174L9.8836 7.47893H9.89755L9.9115 7.46498L9.93941 7.45103H9.96732V7.42312L9.98127 7.40917H10.0371V7.39521L10.065 7.36731H10.0929L10.1208 7.3394L10.1348 7.32545L10.1487 7.31149H10.1627L10.1766 7.29754H10.2045L10.2185 7.28359V7.25568L10.2324 7.24172V7.22777H10.2464V7.21382L10.2603 7.19986V7.1301H10.2743V7.11614L10.3022 7.10219V7.07428H10.3162V7.06033L10.3301 7.04638V7.03242L10.3441 7.01847V7.00452L10.358 6.97661L10.3859 6.96265V6.93475H10.3999V6.83707L10.3859 6.82312V6.78126L10.358 6.76731V6.7394L10.3441 6.71149V6.68358L10.3301 6.66963V6.65568L10.3162 6.64172V6.61382L10.3022 6.59986V6.58591L10.2743 6.57196V6.558L10.2045 6.47428V6.46033L10.1766 6.43242H10.1627L10.1487 6.41847V6.40452H10.1348L10.0929 6.37661H10.065L10.0371 6.33475L9.99522 6.32079H8.64174L8.62778 6.33475L8.61383 6.3487ZM8.33476 7.56265H8.40453L8.32081 7.59056L8.33476 7.56265ZM1.10685 7.3394L1.12081 7.31149L1.13476 7.28359H1.10685V7.29754V7.3394Z" fill="white"/>
</svg>
