<svg width="37" height="12" viewBox="0 0 37 12" fill="none" xmlns="http://www.w3.org/2000/svg">
<path fill-rule="evenodd" clip-rule="evenodd" d="M36.5651 5.58155V5.62341V5.63737V5.67923V5.70714V5.73504V5.7769V5.79086V5.83272V5.86062V5.88853V5.91644V5.94434V6.00016H36.4814H35.1558V6.04202H34.9884V6.00016H33.1186V6.02807V6.06993V6.11179V6.12574H33.0489V6.09783H32.9931V6.08388V6.05597V6.04202V6.00016H32.7977V6.04202H32.7279V6.00016H32.5326V6.02807V6.06993V6.12574H32.4628H32.407V6.13969H32.3372V6.12574V6.06993V6.02807V5.97225V5.94434H29.0303L29.0163 5.93039L29.0024 5.91644H28.9744H28.9326V6.01411H28.807L23.7838 6.00016V6.15365L23.7558 6.1676V6.39086H23.7977V6.51644H23.7558L23.7419 6.53039H23.7279L23.714 6.54434V6.53039L23.7279 6.51644H23.5605V6.54434H23.421V6.41876H23.1558V6.53039H23.0303V6.41876H22.8489V6.51644H22.7093V6.41876H22.5V6.51644H22.3605V6.41876H22.1791V6.51644H22.0396V6.41876H21.8303V6.51644H21.7047V6.41876H21.6489H21.5372V6.54434H21.4117V6.41876H21.2024V6.51644H21.0768V6.41876H20.8954V6.51644H20.7419V6.41876H20.5465V6.51644H20.3931V6.41876H20.1977V6.50248H20.0721V6.41876H19.8768V6.51644H19.7512V6.41876H19.5698V6.51644H19.4442V6.41876H19.2349V6.50248H19.0814V6.41876H18.9V6.51644H18.7744V6.41876H18.5372V6.51644H18.1047V6.41876H17.9512V6.46062L17.9372 6.47458V6.48853L17.9233 6.50248V6.53039L17.9093 6.54434L17.8954 6.5583H17.8814H17.7698L17.6861 6.57225L17.6442 6.5862L17.6303 6.60016L17.5884 6.61411L17.5744 6.62807H17.5605L17.4768 6.64202L17.421 6.65597L17.407 6.66993V6.68388L17.3791 6.69783L17.3512 6.71179L17.3372 6.72574L17.3093 6.75365H17.2954L17.2814 6.7676V6.79551L17.2675 6.80946H17.2535V6.82341V6.85132V6.86527V6.89318V7.08853V7.11644V7.17225V7.21411V7.26993V7.32574V7.3676V7.42341V7.47923V7.50714V7.52109L17.2954 7.56295H17.3093L17.3372 7.5769L17.3512 7.59086L17.3651 7.60481L17.3791 7.61876V7.88388H17.3651L17.3512 7.89783V7.91179H17.3372H17.2396V7.95365H17.1838H17.1558V7.9676V8.05132V8.13504V8.20481V8.28853V8.37225V8.45597V8.53969V8.62341V8.69318V8.79086V8.86062V8.94434V9.02807V9.11179V9.19551V9.26527V9.349V9.43272V9.51644V9.60016V9.68388V9.75365V9.85132V9.92109V10.0048V10.0885V10.1583V10.256V10.3257V10.4095V10.4932V10.5769V10.6467V10.7025V10.7443V10.8141V10.8699V10.9118V10.9397H17.1838V11.0234H14.7558H14.7H14.6582V10.9955V10.9676V10.9397V10.9118V10.8839V10.8699V10.842V10.8281V10.8002H14.6442V10.7862H14.5326V10.6188L14.5605 10.6048V10.5211V10.4374V10.3536V10.2699V10.1862V10.1164V10.0188V9.949V9.86527V9.78155V9.71179V9.61411V9.54434V9.46062V9.3769V9.29318V9.20946V9.12574V9.05597V8.9583V8.88853V8.80481V8.72109V8.65132V8.55365V8.48388V8.41411H14.5047H14.407H14.3931L14.3651 8.42807L14.3512 8.44202H14.3372L14.2954 8.45597L14.2396 8.46993V8.52574L12.4535 8.53969H12.314V8.60946L12.2861 8.63737V8.65132L12.2721 8.66527V8.67923H12.2582L12.2442 8.69318V8.72109H12.2303L12.2163 8.73504V8.76295L12.2024 8.7769V8.80481H12.1884L12.1605 8.83272V8.84667L12.1465 8.86062V8.87458H12.1326V8.90248H12.1186V8.91644L12.1047 8.93039V8.94434H12.0768V8.97225H12.0907V9.01411L12.1047 9.02807V9.04202L12.1186 9.05597V9.06993H12.1326V9.08388L12.1465 9.09783V9.26527L12.1186 9.27923H11.9093L11.8954 9.29318V9.32109L11.8814 9.33504V9.349L11.8675 9.36295L11.8535 9.3769V9.39086H11.8396V9.40481L11.8256 9.41876V9.43272L11.8117 9.44667V9.46062H11.7977V9.47458H11.7838V9.50248L11.7698 9.51644V9.53039H11.7558V9.54434L11.7419 9.5583V9.57225H11.7279V9.5862L11.714 9.60016L11.7 9.61411V9.64202H11.6861V9.71179L11.6721 9.72574L11.6582 9.73969V9.75365L11.6303 9.7676V9.79551H11.6163V9.82341L11.6024 9.83737V9.85132L11.5884 9.86527V9.87923L11.5744 9.89318V9.90714L11.5605 9.92109L11.5465 9.93504V9.9769L11.5326 9.99086L11.5186 10.0048L11.5047 10.0188V10.0327L11.4907 10.0467V10.0606H11.4768V10.0746L11.4489 10.0885V10.1025L11.4349 10.1164L11.421 10.1304V10.1443L11.407 10.1583V10.1723L11.3931 10.1862V10.2281L11.3791 10.242V10.256H11.3651L11.3791 10.2699V10.2839L11.3931 10.2978V10.3118H11.407V10.4932L11.3931 10.5071L11.3791 10.5211V10.535H11.3651V10.5629L11.3512 10.5769V10.6048L11.3372 10.6188H11.3093V10.6327H11.1L11.0582 10.6188L11.0303 10.6048L11.0024 10.5909L10.9605 10.5769L10.8907 10.5629V10.549L10.807 10.535L10.7372 10.5211H10.6814L10.6396 10.5071L10.5558 10.4932L10.514 10.4792L10.4721 10.4653L10.4303 10.4513L10.3744 10.4374L10.3465 10.4234L10.2768 10.4095L10.221 10.3955H10.1791V10.3816L10.1233 10.3676L10.0814 10.3536L10.0256 10.3397L9.9698 10.3257L9.92794 10.3118L9.87212 10.2978L9.81631 10.2839L9.7884 10.2699L9.74654 10.256H9.69073L9.62096 10.242L9.60701 10.2281V10.0606H9.62096V10.0048L9.63491 9.99086H9.64887L9.66282 9.9769V9.96295L9.67677 9.949V9.93504L9.70468 9.92109V9.87923H9.71864V9.86527H9.74654V9.83737H9.7605V9.82341L9.7884 9.80946V9.78155H9.80236L9.81631 9.7676V9.75365H9.83026V9.72574H9.84422V9.69783L9.85817 9.68388V9.66993H9.87212V9.65597L9.90003 9.64202V9.61411H9.91398L9.92794 9.60016L9.94189 9.5862V9.57225L9.95584 9.5583L9.9698 9.54434V9.48853L9.98375 9.47458V9.46062H10.0117V9.43272L10.0396 9.40481V9.3769L10.0535 9.36295L10.0675 9.349H10.0814L10.0954 9.33504V9.29318L10.1233 9.26527V9.25132L10.1512 9.22341L10.1651 9.20946V9.19551H10.1931V9.1676L10.207 9.15365V9.12574L10.221 9.11179V9.08388H10.2349V9.06993H10.2489L10.2768 9.05597V9.02807L10.2907 9.01411V8.9862H10.3047V8.97225L10.3186 8.9583V8.94434H10.3326L10.3465 8.93039V8.90248H10.3605V8.84667H10.3744L10.3884 8.83272V8.80481H10.4163H10.4303V8.76295H10.4442L10.4582 8.749V8.70714H10.4721V8.69318L10.4861 8.67923H10.5V8.65132L10.514 8.63737V8.59551L10.5279 8.58155L10.5419 8.5676V8.53969H10.5698V8.51179H10.5977L10.6117 8.49783V8.48388L10.6256 8.46993V8.42807L10.6396 8.41411H10.6535L10.6814 8.3862V8.3583H10.7093L10.7233 8.34434V8.31644H10.7372V8.30248L10.7512 8.28853V8.27458H10.7651L10.7791 8.26062V8.24667L10.7931 8.23272L10.807 8.21876V8.19086H10.821V8.1769L10.8349 8.16295L10.8489 8.149H10.8628V8.13504L10.8768 8.12109V8.09318H10.8907V8.03737H10.9047V8.02341L10.9186 8.00946L10.9326 7.99551H10.9465L10.9744 7.9676V7.95365L10.9884 7.93969V7.92574H11.0024V7.89783L11.0163 7.88388L11.0303 7.86993V7.85597L11.0442 7.84202V7.82807H11.0582L11.0721 7.81411L11.0861 7.80016L11.1 7.7862V7.77225L11.1279 7.7583V7.74434H11.1558V7.70248H11.1698V7.66062L11.1838 7.64667V7.61876H11.1977L11.2117 7.60481V7.49318H11.2256V7.43737L11.2117 7.42341V7.3676L11.1838 7.35365V7.33969L11.1698 7.32574V7.31179L11.1558 7.29783L11.1419 7.28388V7.26993L11.1279 7.25597H11.114L11.0721 7.22807V7.21411H11.0582L11.0303 7.20016L11.0163 7.18621V7.1583L10.9744 7.14434L10.9605 7.13039L10.9465 7.11644L10.9186 7.10248L10.9047 7.08853H10.8907V7.07458L10.8768 7.06062L10.8628 7.04667L10.8349 7.03272L9.50933 7.01876V7.00481L9.49538 6.99086V6.9769L9.48143 6.96295L9.42561 6.90714L9.3977 6.89318H9.38375H9.35584L9.34189 6.87923H9.30003V6.89318H9.27212H9.24422H8.88143V6.86527L8.01631 6.87923L7.9884 6.89318H7.7791H7.76515L7.73724 6.92109L7.72329 6.93504L7.70933 6.949H7.69538L7.68143 6.96295H7.66747V6.9769L7.65352 6.99086L7.63957 7.00481L7.62561 7.01876V7.03272L7.61166 7.04667L7.5977 7.06062V7.08853H7.5698L7.55584 7.10248H7.54189V7.11644L7.52794 7.13039L7.51398 7.14434L7.50003 7.1583H7.48608L7.45817 7.17225V7.18621L7.44422 7.20016H7.43026V7.21411L7.40236 7.22807H7.37445L7.3605 7.24202H7.34654V7.26993L7.33259 7.28388V7.29783L7.31863 7.31179V7.32574L7.30468 7.33969L7.29073 7.35365H7.27677L7.26282 7.3676V7.38155L7.24887 7.39551H7.23491V7.42341L7.22096 7.43737L7.19305 7.46527V7.47923L7.1791 7.49318H7.16515L7.15119 7.50714H7.13724L7.12329 7.52109V7.53504L7.10933 7.549L7.09538 7.56295H7.08143V7.5769L7.06747 7.59086V7.60481L7.05352 7.61876H7.02561V7.63272L7.01166 7.64667V7.66062H6.9977V7.67458H6.98375L6.9698 7.68853L6.94189 7.70248H6.92794V7.71644L6.91398 7.73039V7.74434H6.90003V7.7583L6.88608 7.77225V7.7862L6.87212 7.80016L6.88608 7.82807V7.84202L6.87212 7.86993L6.88608 7.88388V7.91179V7.93969V7.9676V7.99551V8.02341V8.05132V8.07923V8.10714V8.13504V8.149V8.1769V8.20481V8.21876L6.85817 8.24667V8.27458H6.83026V8.30248L6.80236 8.33039L6.77445 8.34434L6.7605 8.3583L6.71863 8.37225H6.69073L6.66282 8.3583L6.64887 8.34434H4.16515H3.28608H2.50468V8.33039H2.47677V8.30248H2.46282L2.44887 8.28853V8.23272H2.40701V8.21876V8.149V8.13504L2.32329 8.12109V8.09318V8.07923V8.05132V8.03737V8.00946H1.52794V8.06527V8.149V8.23272V8.30248V8.40016V8.46993V8.55365V8.63737V8.72109V8.80481V8.87458V8.90248V9.05597H1.3884V9.04202L0.997705 9.02807V9.12574L0.969798 9.13969V9.27923H0.955845H0.927938H0.746542L0.760496 9.29318L0.774449 9.30713H0.760496H0.718635L0.704682 9.32109H0.676775H0.593054H0.467473V9.30713V9.26527V9.22341V9.19551V9.13969V9.09783V9.06993V9.02807V8.9862V8.94434V8.90248V8.86062V8.81876V8.7769V8.73504V8.69318V8.66527V8.60946V8.5676H0.53724V8.45597L0.551193 8.44202V8.42807V8.34434V8.27458V8.19086V8.10714V8.02341V7.93969V7.86993V7.77225V7.70248V7.61876V7.53504V7.45132V7.3676V7.29783V7.21411V7.13039V7.04667V6.96295V6.87923V6.80946V6.71179V6.64202V6.5583V6.47458V6.40481V6.30714V6.23737V6.15365V6.06993V5.98621V5.90248H0.53724V5.88853L0.523286 5.87458L0.509333 5.84667V5.81876V5.79086V5.7769V5.749V5.72109V5.69318V5.67923V5.65132V5.63737V5.60946V5.58155V5.55365V5.52574V5.49783V5.46993V5.44202V5.41411V5.38621V5.37225V5.34434V5.31644V5.28853H0.481426L0.467473 5.27458V5.20481V5.1769V5.07923H0.397705V4.95365H0.704682V4.9676H0.997705V5.09318H0.955845L0.969798 5.10714H1.48608V5.20481H1.52794V5.21876V5.28853V5.37225V5.45597V5.53969V5.62341V5.70714V5.7769V5.87458V5.94434V6.02807V6.11179V6.18155V6.27923V6.349H2.40701V6.26527V6.18155V6.09783V6.04202H2.44887H2.53259H3.77445V5.98621V5.93039V5.88853V5.83272V5.7769V5.73504V5.67923V5.66528H2.71398V5.63737H2.57445V5.46993L2.5605 5.45597V5.34434H2.54654V5.33039V5.26062V5.21876V5.149V5.09318V5.02341V4.9676V4.89783V4.85597V4.78621V4.71644V4.66062V4.59086V4.53504V4.47923V4.42341V4.35365V4.29783V4.22807L2.53259 4.21411V4.08853L2.54654 4.07458V4.01876H2.60236V3.96295L2.65817 3.949V3.92109L2.74189 3.90714L2.75584 3.89318H2.89538H6.42561H6.52329L7.02561 3.87923H7.03957V3.86528L7.33259 3.87923L7.5698 3.89318H7.65352H8.07212V3.90714H8.18375L8.1977 3.92109H8.21166L8.22561 3.93504L8.23957 3.949V4.13039L8.22561 4.14435H8.21166V4.17225L8.1977 4.18621V4.21411L8.18375 4.22807L8.1698 4.24202L8.15584 4.25597L8.14189 4.26993L8.11398 4.29783V4.31179L8.08608 4.33969V4.35365L8.03026 4.40946H8.01631V4.43737L7.9884 4.45132V4.46528L7.9605 4.50714H7.94654V4.52109L7.91863 4.549V4.56295L7.87677 4.59086V4.60481L7.86282 4.61876V4.63272L7.84887 4.64667V4.67458H7.82096L7.80701 4.68853L7.79305 4.70248L7.7791 4.71644H7.75119V4.74434L7.73724 4.7583V4.77225H7.72329V4.81411L7.70933 4.82807L7.68143 4.85597H7.66747V4.86993L7.65352 4.88388L7.63957 4.89783L7.62561 4.91179V4.92574L7.61166 4.93969L7.58375 4.98155H7.5698V4.99551L7.54189 5.02341V5.03737H7.52794V5.06528L7.51398 5.07923V5.09318H7.50003L7.48608 5.10714H7.47212L7.45817 5.12109L7.44422 5.13504V5.149H7.43026L7.41631 5.16295V5.1769H7.40236L7.3884 5.19086L7.3605 5.21876H7.34654V5.23272L7.33259 5.24667V5.26062H7.31863V5.27458L7.30468 5.28853V5.30248L7.27677 5.33039H7.26282L7.23491 5.3583L7.22096 5.37225H7.19305L7.15119 5.42807H7.13724V5.44202L7.12329 5.45597V5.46993H7.08143L7.06747 5.48388L7.05352 5.49783L7.03957 5.51179H7.01166L6.9977 5.52574L6.9698 5.53969L6.95584 5.55365V5.5676H6.92794L6.91398 5.58155L6.88608 5.60946H6.87212V5.62341L6.84422 5.63737H6.83026H6.7884V5.65132H6.74654H5.26747V5.69318L5.25352 5.70714V5.749L5.21166 5.7769V5.80481V5.83272V5.84667V5.87458V5.90248V5.93039V5.94434V5.97225V6.00016V6.01411V6.04202H6.24422H6.92794H6.94189L6.95584 6.02807V6.01411L6.9698 6.00016H6.98375L7.01166 5.98621L7.02561 5.97225H7.03957L7.05352 5.9583V5.94434L7.06747 5.93039L7.08143 5.91644H7.09538L7.10933 5.90248H7.12329L7.15119 5.87458H7.16515L7.1791 5.86062V5.83272L7.19305 5.81876V5.80481L7.20701 5.79086V5.7769H7.22096L7.23491 5.76295L7.24887 5.749V5.72109L7.26282 5.70714H7.27677L7.30468 5.69318V5.67923L7.33259 5.66528V5.65132L7.34654 5.63737V5.62341L7.3605 5.60946H7.37445L7.3884 5.59551V5.5676L7.40236 5.55365H7.41631V5.52574L7.43026 5.51179H7.44422L7.45817 5.49783V5.48388L7.47212 5.46993V5.44202H7.48608L7.50003 5.42807L7.52794 5.41411V5.40016L7.54189 5.38621H7.55584L7.5698 5.37225H7.58375L7.5977 5.3583L7.61166 5.34434V5.33039H7.62561L7.63957 5.31644V5.28853L7.65352 5.27458L7.66747 5.26062L7.68143 5.24667H7.70933V5.23272L7.72329 5.21876V5.19086L7.73724 5.1769L7.75119 5.16295V5.12109H7.76515L7.7791 5.10714L7.79305 5.09318V5.07923L7.80701 5.06528H7.82096V5.05132L7.83491 5.03737V5.02341L7.84887 5.00946L7.86282 4.99551H7.87677V4.98155H7.89073L7.90468 4.9676L7.93259 4.93969V4.92574L7.94654 4.91179L7.9605 4.89783H7.97445L7.9884 4.88388V4.85597H8.00236L8.01631 4.84202L8.03026 4.82807L8.04422 4.81411L8.05817 4.80016H8.07212L8.08608 4.78621V4.7583L8.10003 4.74434L8.11398 4.73039V4.71644L8.12794 4.70248L8.14189 4.68853H8.15584L8.18375 4.67458V4.66062L8.1977 4.64667V4.63272H8.21166L8.22561 4.61876L8.23957 4.60481V4.59086H8.25352V4.549L8.26747 4.53504H8.28143H8.35119V4.52109H8.60236H8.61631H8.74189H8.78375H8.83957H8.90933H8.92329H9.23026H9.34189V4.50714H9.35584V4.49318L9.3698 4.47923V4.46528L9.38375 4.45132H9.41166V4.43737L9.42561 4.40946L9.43957 4.38155V4.35365V4.32574V4.29783V4.26993V4.24202V4.21411L9.46747 4.18621H9.49538H9.50933V4.11644L9.52329 4.10248L9.56515 4.08853H10.207V3.92109H9.71864H9.62096H9.59305V3.65597H9.67677H10.4582L10.4721 3.64202L10.4861 3.62807L10.5 3.61411V3.60016H10.514L10.5558 3.58621L10.5698 3.57225H10.5838L10.5977 3.5583H10.6117H10.807L10.8349 3.57225H10.8489L10.8768 3.58621V3.60016H10.8907L10.9047 3.62807L10.9186 3.64202V3.7676H11.8256V3.79551H11.8535V3.82341V3.85132V3.86528V3.89318V3.92109V3.949V3.9769V3.99086V4.01876V4.03272V4.06062V4.07458H13.1512V4.01876V3.93504V3.85132V3.78155V3.68388V3.61411V3.53039V3.44667V3.3769V3.27923V3.20946V3.12574V3.04202H12.8721L12.8582 3.05597L12.8442 3.06993H12.8303L12.7744 3.08388H12.7605L12.7465 3.09783L12.7326 3.11179V3.12574H12.7186V3.13969L12.7047 3.15365L12.6768 3.1676L12.6628 3.18155L12.6489 3.19551H12.607L12.5931 3.20946H12.5372L10.1093 3.19551V3.20946L10.0117 3.19551H9.98375V3.13969V3.05597V3.00016V2.98621V2.90248V2.83272V2.76295V2.69318V2.60946V2.55365V2.46993V2.40016V2.34434V2.26062V2.19086V2.12109V2.05132V1.98155H10.1512L10.1651 1.99551L12.621 2.00946V2.03737H12.6907V2.05132H12.7186L12.7326 2.06528L12.7744 2.07923L12.8024 2.09318H12.8163L12.8721 2.10714V2.13504H12.9L12.914 2.149L12.9279 2.16295L12.9419 2.1769H12.9558H13.1512V2.149V2.06528V1.98155V1.89783H13.2489H13.2768H14.1698V2.03737H14.1558V2.10714V2.16295H14.8814V2.03737H14.9093V1.99551H15.1047V1.98155L15.0768 1.9676V1.78621L15.0907 1.77225V1.7583L15.1047 1.74435V1.68853L15.2163 1.70248V1.68853V1.64667V1.61876V1.5769V1.549V1.52109L15.2303 1.50714V1.39551H15.7884V1.46528H15.8582V1.66062L15.8442 1.67458V1.70248V1.73039V1.74435H15.9279V1.99551H16.1372V2.07923H16.1512V2.09318H16.1651V2.10714L16.1791 2.12109V2.13504L16.1931 2.149V2.16295H16.6954V2.07923V2.03737H16.6814V1.91179H17.5465H17.6861V1.99551V2.05132V2.07923V2.149H18.4675H18.4814L18.4954 2.13504L18.5372 2.12109V2.10714L18.5651 2.09318L18.5791 2.07923H18.621H18.6628L18.7047 2.06528L18.7605 2.05132H18.7884L18.8163 2.03737H18.8303L18.8442 2.02341H18.8721L18.9 2.00946L18.914 1.99551H18.9837L19.0256 1.98155L19.0675 1.9676H19.0814L19.0954 1.95365H19.1651V1.93969H19.1791L19.207 1.92574L19.221 1.91179H19.2628L19.3186 1.89783H19.3326L19.4024 1.88388H19.4163L19.4582 1.86993L19.5 1.85597H19.514L19.5558 1.84202L19.6117 1.82807L19.6256 1.81411H19.6814H19.7512H19.7651L19.807 1.80016H19.821L19.8628 1.78621L19.9465 1.77225V1.7583H19.9605L19.9884 1.74435V1.73039H20.0861L20.1558 1.71644H20.1698L20.2396 1.70248H20.2535L20.3093 1.68853H20.3651L20.4489 1.67458L20.5186 1.66062L20.5326 1.64667H20.5605H20.5744H20.6163L20.6303 1.63272L20.6442 1.61876V1.59086H20.6582V1.5769H20.7838V1.63272L22.9186 1.61876H22.9326H22.9884H23.1279V1.70248V1.74435V1.80016V1.86993V1.95365V2.03737V2.10714V2.20481V2.27458V2.3583V2.44202V2.52574V2.60946V2.69318V2.76295V2.84667V2.93039V3.00016V3.09783V3.1676V3.26528V3.33504V3.41876V3.50248V3.58621H22.9884V3.57225H20.8396H20.8256H20.6163L20.5326 3.5583L20.5186 3.54434L20.4489 3.53039H20.421L20.3512 3.51644V3.50248L20.3093 3.48853L20.2535 3.47458L20.2396 3.46062L20.1558 3.44667L20.1279 3.43272L20.1 3.41876L20.0442 3.40481H19.9884L19.9465 3.39086L19.9047 3.3769L19.8628 3.36295L19.807 3.349L19.7512 3.33504V3.32109L19.7093 3.30714L19.6396 3.29318L19.5837 3.27923L19.5419 3.26528H19.4721L19.4163 3.25132L19.3326 3.23737L19.2907 3.22341L19.2349 3.20946L19.1931 3.19551L19.1512 3.18155H19.1372L19.0814 3.1676V3.15365H19.0535V3.13969H19.0256L18.9837 3.12574L18.9419 3.11179L18.8861 3.09783L18.8303 3.08388L18.7605 3.06993H17.7279V3.08388H17.6721V3.13969V3.22341L17.6861 3.30714V3.39086V3.47458V3.54434V3.64202V3.71179V3.79551V3.87923L17.6721 3.949V4.04667V4.07458H23.1977V4.06062V4.03272V4.00481V3.99086V3.96295V3.949V3.92109V3.89318V3.86528V3.85132V3.82341V3.79551V3.7676L23.1838 3.75365V3.53039H23.2535V3.50248H24.2163V3.51644H24.3279L24.3558 3.53039H24.3698V3.54434L24.3837 3.5583L24.4117 3.57225V3.58621H24.4256L24.4396 3.60016L24.4675 3.61411V3.62807H24.4814L24.4954 3.64202L24.5372 3.65597V3.51644H24.5651V3.50248H24.9H24.914L24.9279 3.51644V3.53039H24.9558V3.58621H24.9698V3.60016L24.9837 3.61411L24.9977 3.62807V3.65597H25.0117V3.68388H25.0256V3.71179L25.0396 3.72574V3.75365H25.0535V3.7676L25.0675 3.78155V3.79551H25.0814V3.83737L25.0954 3.85132V3.90714L25.1093 3.92109V4.07458H26.2396L26.2675 4.06062L26.3093 4.07458H26.3233H28.7931V4.17225L28.9744 4.18621V4.31179H28.821V4.39551L28.8349 4.40946H28.9326V4.45132H28.9465V4.59086H28.9186V4.61876V4.68853V4.73039V4.80016V4.85597V4.91179V4.98155V5.03737V5.10714V5.16295V5.23272V5.27458V5.34434V5.38621H32.3372V5.3583V5.30248V5.24667H32.3651H32.5326V5.31644V5.3583H32.5744H32.5884H32.8117V5.24667H32.8954V5.27458L32.9093 5.30248V5.31644L32.9512 5.3583L32.9651 5.37225H32.9931V5.33039V5.26062V5.23272H33.0628V5.24667H33.1186V5.27458L33.1326 5.28853V5.37225H34.9326V5.28853H35.0861V5.37225H36.5651V5.44202V5.46993V5.49783V5.51179V5.55365V5.58155ZM23.9651 4.07458H24.5372V3.99086H23.9651V4.07458ZM16.6814 2.30248L16.6954 2.31644V2.30248H16.6814ZM15.2163 3.15365H14.8954V3.05597H14.1838V3.06993H14.1558V3.08388V3.1676V3.25132V3.33504L14.1698 3.40481V3.48853L14.1558 3.57225V3.65597H14.1838L16.6954 3.66993V3.64202V3.54434V3.47458V3.39086V3.30714V3.22341V3.13969V3.06993L16.3605 3.05597H16.3186H16.1512V3.15365H15.7744V3.26528L15.2163 3.25132V3.15365ZM12.7326 7.38155V7.43737H12.7186V7.53504L12.6907 7.549L12.6768 7.56295V7.5769V7.61876V7.64667V7.68853V7.74434V7.7862V7.82807V7.86993V7.89783V7.95365V7.99551V8.02341V8.06527V8.09318H12.6907L12.7047 8.10714V8.149L12.7326 8.1769V8.20481L12.7465 8.21876L12.7605 8.23272L12.7744 8.24667L12.7884 8.26062L12.8163 8.27458H12.8303V8.28853L12.8442 8.30248L12.8721 8.31644L12.9 8.33039L12.9279 8.34434L12.9838 8.3583H14.1558L14.1838 8.34434L14.2396 8.33039L14.2814 8.31644V8.28853L14.3093 8.27458H14.3233V8.23272H14.3372V8.21876L14.3651 8.19086V8.1769L14.3931 8.16295V8.149H14.407V8.12109V8.09318V8.05132V8.02341V8.00946V7.9676V7.93969V7.89783V7.88388V7.84202V7.81411V7.7862V7.74434V7.73039V7.68853V7.66062V7.61876L14.3931 7.60481V7.49318L14.3791 7.47923L14.3651 7.46527H14.3512L14.3372 7.45132V7.42341L14.3233 7.40946V7.38155L14.2954 7.35365H14.2814H14.2535H14.2396H13.6675H13.6535V7.3676L13.6396 7.38155H13.6256L13.6117 7.39551L13.5977 7.40946L13.5838 7.42341H13.5698L13.5419 7.43737L13.5279 7.45132L13.5 7.46527L13.4861 7.47923L13.4721 7.49318H13.4582V7.50714L13.4442 7.52109H13.4303V7.53504L13.4024 7.5769L13.3884 7.59086H13.3744L13.3465 7.61876L13.3186 7.63272V7.64667L13.3047 7.66062V7.67458L13.2907 7.68853V7.70248L13.2628 7.73039V7.74434L13.2489 7.7583V7.7862L13.2349 7.80016V7.81411L13.221 7.82807V7.86993L13.1931 7.88388V7.93969L13.207 7.95365L13.221 7.9676V8.05132L13.2349 8.06527V8.149H13.2489V8.1769L13.2628 8.19086V8.20481L13.2768 8.21876L13.2907 8.23272V8.30248H13.2489H13.207H13.1651L13.1512 8.28853V8.27458H13.1093V8.26062H13.0954L13.0675 8.23272V8.20481L13.0535 8.19086V8.16295H13.0396V8.149L13.0256 8.13504V8.10714L13.0117 8.09318V8.03737H12.9977V7.93969L12.9838 7.92574V7.88388H12.9698V7.86993V7.84202V7.82807V7.80016V7.71644V7.68853V7.67458V7.64667V7.61876V7.59086V7.56295V7.53504V7.52109V7.49318V7.46527L12.9838 7.45132V7.35365H12.8721V7.3676H12.7605H12.7465V7.38155H12.7326ZM8.51863 4.67458L8.53259 4.66062V4.64667H8.51863V4.67458ZM1.52794 6.68388V6.7676V6.83737V6.92109V7.00481V7.08853V7.17225V7.24202V7.33969V7.40946V7.49318V7.5769V7.66062V7.74434V7.7862H2.32329V7.7583V7.74434V7.71644V7.70248H2.40701V7.68853H2.39305V7.42341L2.40701 7.40946V7.32574V7.24202V7.18621V7.1583V7.08853V6.99086V6.92109V6.83737V6.75365V6.68388V6.62807H2.05817H1.97445H1.52794V6.68388ZM5.72794 7.68853H5.75584L5.74189 7.67458L5.72794 7.68853Z" fill="white"/>
</svg>
