<svg width="28" height="12" viewBox="0 0 28 12" fill="none" xmlns="http://www.w3.org/2000/svg">
<path fill-rule="evenodd" clip-rule="evenodd" d="M8.18163 1.59063L8.19558 1.57668V1.56272H8.20953L8.22349 1.54877V1.53482H8.25139V1.50691H8.26535L8.2793 1.49296V1.43714L8.29325 1.42319V1.24179V1.21389V1.15807H8.43279V1.11621H8.62814V1.13016V1.19993V1.25575V1.32551V1.38133V1.45109V1.50691V1.57668V1.64644V1.6883H8.76767H8.96302V1.59063H9.15837V1.64644L9.17232 1.6604V1.70226H9.27V1.6883V1.6604V1.63249V1.60458V1.57668V1.54877V1.52086V1.49296H9.2979V1.479H9.56302V1.46505H9.75837V1.50691V1.57668V1.60458V1.63249V1.6604V1.6883V1.70226H11.1956V1.56272H11.2095H12.1444V1.53482V1.50691V1.49296V1.46505V1.43714V1.40923V1.38133V1.36737H12.3398V1.52086L12.3537 1.53482V1.59063H12.4933V1.84179L12.4653 1.85575V1.88365H12.4514V1.93947L12.4374 1.95342V1.96737L12.4235 1.98133V2.00923H12.4095V2.02319L12.3956 2.03714V2.06505L12.3816 2.079V2.09296L12.3677 2.10691V2.13482H12.3537V2.14877L12.3398 2.16272L12.3258 2.19063L12.3119 2.20458L12.2979 2.21854V2.2604L12.284 2.27435V2.2883H12.27V2.33016H12.256V2.35807H12.2421V2.38598L12.2281 2.39993V2.41389H12.2142V2.42784L12.2002 2.44179V2.48365H12.1863V2.49761L12.1723 2.51156V2.55342L12.1584 2.56737V2.58133H12.1444V2.60923H12.1305V2.63714H12.1165V2.65109L12.1026 2.66505V2.70691H12.0886V2.72086H12.0746V2.74877L12.0607 2.76272H12.0467V2.80458H12.0328V2.83249H12.0188V2.8883H12.0049L11.9909 2.90226V2.91621L11.977 2.93016L11.963 2.95807L11.9491 2.97202V2.98598L11.9351 2.99993V3.01389H11.9212V3.05575H12.3956V3.18133H13.4281H14.2933V3.30691H22.47V3.37668H22.5816V3.29296H22.6793V3.23714V3.15342V3.0697V2.98598V2.91621V2.83249V2.74877V2.66505V2.58133V2.49761V2.41389V2.34412V2.2604V2.17668V2.09296V2.00923V1.92551V1.85575V1.81389H22.763H22.8746H22.9584H22.9723V1.82784H23.0142L23.0281 1.84179V1.93947H23.1119H23.1258L23.1537 1.95342V2.10691V2.19063V2.20458V2.2604H23.2514V2.37202H23.2793V2.38598V2.4697V2.53947V2.63714V2.70691V2.79063V2.87435V2.95807V3.04179V3.11156V3.18133H23.3909L23.4886 3.19528H23.5026H23.5305V3.20923V3.26505V3.30691V3.36272V3.43249V3.47435V3.50226H23.6002V3.53016H24.1723V3.58598H24.2002V3.78133H23.9212V3.86505L23.8933 3.879V3.89295H24.1723V4.0883H23.5305V4.13016H26.2235V4.03249H27.5909H27.6188V4.28365V4.32551V4.35342V4.50691V4.53482V4.57668V4.59063V4.61854V4.64644V4.6883H27.6467V4.88365H27.5491H27.4374H25.9723V4.89761H25.777L25.763 4.88365H25.7491V4.75807H23.3491V4.89761H23.3072V4.98133H23.1956V4.99528L23.1677 5.00923V5.03714V5.079V5.10691V5.14877V5.17668V5.21854V5.24644V5.2883V5.31621V5.35807V5.39993V5.42784V5.45575V5.49761V5.53947V5.58133V5.60923V5.65109V5.679H22.9723V5.66505H22.9444L22.763 5.65109H22.7072L22.6793 5.63714V5.41389L22.7072 5.39993V5.35807V5.33016V5.2883V5.24644V5.21854V5.17668V5.14877V5.10691V5.079V5.03714V4.99528H22.6235L22.5816 4.98133V4.89761H22.47H22.456L22.4421 4.91156V4.98133V5.00923V5.02319V5.05109V5.079V5.10691V5.12086V5.14877V5.17668V5.20458V5.24644V5.27435V5.30226V5.33016V5.34412H22.4281V5.38598H22.2467V5.39993H22.2328V5.42784H22.2188V5.45575L22.1909 5.48365V5.49761L22.177 5.51156V5.52551V5.55342V5.58133V5.62319V5.65109V5.69295V5.72086V5.76272H22.0235L22.0095 5.77668H21.9956V5.80458H21.9816V5.87435H21.7444L21.7305 5.8604L15.9677 5.84644V5.90226H15.7444V5.87435H15.7305V5.84644L15.7165 5.83249L15.7026 5.81854V5.80458H15.6886V5.77668L15.6747 5.76272L13.6095 5.74877H13.5956L13.5816 5.76272L13.5677 5.77668H13.5398L13.5258 5.79063L13.4979 5.80458H13.47L13.456 5.81854L13.4421 5.83249H13.4281L13.4002 5.84644L13.3863 5.8604L13.3723 5.87435H13.3444V5.8883L13.3165 5.90226L13.2886 5.91621L13.2746 5.93016L13.2467 5.94412L13.2328 5.95807H13.2188L13.1909 5.97202L13.177 5.98598L13.163 5.99993H13.1491L13.1351 6.01389L13.1212 6.02784H13.1072L13.0933 6.04179L13.0793 6.05575H13.0653L13.0514 6.0697L13.0374 6.08365V6.09761V6.15342V6.20923V6.25109V6.30691V6.37668V6.41854V6.47435V6.50226H13.1491V6.69761L12.9398 6.71156H12.9258V7.10226H12.9398V7.22784H12.9537V7.35342L12.9677 7.36737V7.46505L12.9816 7.479V7.57668H12.9956V7.73016L13.0095 7.74412L13.0235 7.75807V7.89761L13.0374 7.91156V7.92551L13.0514 7.93947V8.00923L13.0653 8.02319V8.06505L13.0793 8.079V8.09295L13.0933 8.10691V8.17668L13.1072 8.19063L13.1212 8.20458V8.27435H13.1351V8.2883L13.1491 8.30226V8.34412L13.163 8.35807V8.37202L13.177 8.38598V8.39993H13.1909V8.49761L13.2188 8.51156V8.56737L13.2328 8.58133V8.62319H13.2467V8.65109L13.2607 8.679V8.69296H13.2746V8.74877H13.2886V8.77668L13.3165 8.80458V8.8604L13.3305 8.87435L13.3444 8.8883V8.93016L13.3584 8.94412V8.97202H13.3723V9.04179H13.3863V9.0697L13.4002 9.09761V9.12551L13.4142 9.13947V9.16737L13.4281 9.18133V9.19528H13.4421V9.23714L13.456 9.25109L13.47 9.26505V9.30691L13.484 9.32086V9.34877L13.4979 9.36272L13.5119 9.39063V9.41854L13.5258 9.43249V9.44644L13.5398 9.4604V9.4883L13.5537 9.50226V9.51621H13.5677V9.57202L13.5816 9.58598V9.61388L13.5956 9.62784V9.64179L13.6095 9.65575V9.6697H13.6235V9.72551L13.6514 9.73947V9.75342L13.6653 9.76737V9.80923L13.6793 9.82319V9.83714L13.6933 9.85109V9.86505H13.7072L13.7212 9.879V9.89295L13.7491 9.90691L13.763 9.92086V10.1162H13.7491V10.1441H13.6793V10.172L13.5956 10.186H13.5816L13.5537 10.1999L13.5119 10.2139H13.4979L13.47 10.2278L13.456 10.2418H13.4142L13.3723 10.2557L13.3444 10.2697H13.3305L13.3026 10.2976H13.2746H13.2607L13.2188 10.3116V10.3255L13.1909 10.3395H13.163L13.1491 10.3534H13.1351L13.1072 10.3674H13.0933L13.0653 10.3813L13.0374 10.3953H13.0235H12.9956L12.9677 10.4092L12.9537 10.4232H12.9258L12.884 10.4371L12.8421 10.4511L12.8002 10.465H12.7863L12.7584 10.479H12.7444L12.7165 10.493H12.7026L12.6747 10.5069L12.6467 10.5209H12.6188L12.5909 10.5348L12.5491 10.5488H12.5212L12.5072 10.5627L12.4793 10.5767H12.4653L12.4514 10.5906H12.4095L12.3258 10.6046V10.6185H12.2979V10.6325L12.2421 10.6464H12.2002V10.6604L12.1723 10.6743L12.1444 10.6883H12.1026L12.0746 10.7023V10.7162H12.0467L12.0188 10.7302L11.977 10.7441H11.8933V10.7581L11.8514 10.772H11.8374H11.8095H11.5723V10.6743H11.5584L11.5444 10.6604V10.6046L11.5305 10.5906L11.5165 10.5767V10.5209L11.5026 10.5069V10.4511H11.4886V10.3953H11.4746V10.2976H11.4467V10.2139H11.4328V10.172H11.4188V10.1441L11.4049 10.1302V10.1162L11.3909 10.1023V10.0743H11.377V10.0185L11.3491 9.99063V9.92086H11.3351V9.89295L11.3212 9.879V9.85109L11.3072 9.83714V9.80923L11.2933 9.79528V9.76737L11.2793 9.75342V9.6697H11.2514V9.57202L11.2374 9.55807V9.53016L11.2235 9.51621V9.4604L11.2095 9.44644V9.41854H11.1956V9.33482L11.1816 9.32086V9.29296H11.1677L11.1537 9.279V9.22319H11.1398V9.18133L11.1258 9.16737V9.11156L11.1119 9.09761V9.08365L11.0979 9.0697V9.01389L11.084 8.99993V8.97202L11.07 8.95807V8.93016L11.056 8.91621V8.8883L11.0421 8.87435V8.83249L11.0281 8.81854V8.79063L11.0142 8.77668V8.74877H11.0002V8.69296L10.9863 8.679V8.63714L10.9723 8.62319V8.59528H10.9584V8.56737L10.9444 8.55342V8.51156L10.9305 8.49761V8.4697L10.9165 8.45575V8.39993H10.9026V8.30226L10.8886 8.2883V8.24644L10.8747 8.23249V8.20458L10.8607 8.19063V8.14877H10.8467V8.03714L10.8328 8.02319H10.8188V7.93947L10.8049 7.92551V7.81388L10.7909 7.79993V7.73016L10.777 7.71621V7.64644H10.763V7.59063L10.7491 7.57668V7.45109L10.7351 7.43714V7.42319H10.7212V7.29761H10.7072V7.19993H10.6933V7.15807L10.6793 7.14412V7.07435L10.6653 7.0604V7.01854L10.6514 7.00458H8.55837H8.47465V7.07435L8.4607 7.0883V7.10226H8.43279V7.13016L8.41884 7.14412V7.17202L8.40488 7.18598L8.39093 7.19993L8.37698 7.21389V7.28365L8.36302 7.29761H8.33512V7.33947L8.32116 7.35342V7.36737L8.29325 7.39528V7.42319L8.2793 7.43714V7.479H8.26535V7.49295L8.25139 7.50691V7.52086L8.23744 7.53482V7.54877L8.22349 7.56272V7.57668H8.20953V7.59063L8.19558 7.60458L8.18163 7.61854V7.6604L8.15372 7.6883V7.70226H8.13977V7.73016L8.12581 7.74412V7.75807L8.08395 7.78598V7.81388L8.05605 7.82784V7.8697H8.04209V7.88365H8.02814V7.89761L8.01418 7.91156L8.00023 7.92551V7.95342L7.98628 7.96737V7.98133L7.97232 7.99528L7.95837 8.00923V8.02319H7.94442L7.93046 8.03714V8.06505L7.91651 8.079L7.90256 8.09295L7.8886 8.12086V8.13482L7.87465 8.14877V8.16272L7.8607 8.17668H7.84674V8.19063L7.83279 8.20458V8.24644H7.80488V8.27435L7.79093 8.2883V8.30226L7.77698 8.31621V8.34412H7.76302V8.35807L7.74907 8.37202H7.73512V8.42784L7.72116 8.44179L7.70721 8.45575V8.48365L7.69325 8.49761V8.51156L7.6793 8.52551V8.55342L7.66535 8.56737V8.59528L7.65139 8.60923V8.65109L7.63744 8.66505V8.72086L7.60953 8.73482V8.83249L7.59558 8.84644V8.87435H7.58163V9.05575L7.56767 9.0697V9.08365H7.35837V9.0697L7.34442 9.05575L7.33046 9.04179H7.30256L7.27465 9.02784V9.01389H7.2607V8.99993H7.21884L7.19093 8.98598L7.16302 8.97202H7.13511V8.95807L7.10721 8.94412H7.0793L7.05139 8.93016V8.91621H7.00953V8.90226H6.98163L6.96767 8.8883L6.93977 8.87435H6.91186L6.88395 8.8604V8.84644H6.84209L6.80023 8.83249L6.77232 8.80458H6.73046L6.71651 8.79063H6.70256L6.6886 8.77668L6.6607 8.76272L6.64674 8.74877H6.63279L6.60488 8.73482L6.56302 8.72086L6.53511 8.70691L6.52116 8.69296H6.49325L6.4793 8.679L6.46535 8.66505H6.45139V8.65109H6.40953L6.38163 8.63714L6.35372 8.62319L6.33977 8.60923H6.29791L6.28395 8.59528H6.25605V8.58133H6.21418V8.56737H6.20023L6.15837 8.55342L6.13046 8.53947V8.52551H6.10256H6.0886L6.07465 8.51156L6.04674 8.49761H6.00488V8.48365L5.97698 8.4697H5.96302L5.90721 8.45575L5.89325 8.44179L5.86535 8.42784V8.41389H5.83744L5.80953 8.39993H5.78163V8.38598H5.76767L5.75372 8.37202V8.35807H5.71186V8.31621H5.69791V8.09295H5.71186V8.05109L5.72581 8.03714V7.99528H5.73977V7.93947L5.75372 7.92551H5.76767L5.78163 7.91156V7.88365L5.79558 7.8697V7.85575L5.80953 7.84179L5.82349 7.82784V7.81388L5.83744 7.79993V7.77202H5.85139V7.75807H5.86535V7.74412L5.8793 7.73016V7.70226H5.89325V7.6883L5.90721 7.67435V7.6604L5.94907 7.61854V7.60458H5.96302V7.57668L5.99093 7.54877H6.00488L6.01884 7.53482V7.52086L6.04674 7.49295L6.0607 7.479V7.46505L6.07465 7.45109L6.0886 7.43714L6.10256 7.42319L6.13046 7.40923V7.39528L6.14442 7.38133L6.15837 7.36737V7.35342L6.17232 7.33947V7.32551H6.18628V7.31156L6.21418 7.29761V7.28365L6.22814 7.2697H6.24209L6.25605 7.24179L6.27 7.22784L6.28395 7.21389L6.29791 7.19993V7.18598L6.31186 7.17202L6.32581 7.15807L6.33977 7.14412L6.35372 7.13016V7.11621L6.38163 7.10226V7.0883L6.39558 7.07435L6.40953 7.0604V7.04644H6.42349V7.01854L6.43744 7.00458H6.45139V6.99063L6.46535 6.97668H6.4793L6.49325 6.96272V6.94877L6.53511 6.90691V6.89295L6.54907 6.879L6.56302 6.86505L6.57698 6.85109H6.59093L6.61884 6.82319L6.63279 6.80923V6.79528L6.64674 6.78133L6.6607 6.76737V6.75342H6.67465V6.73947H6.6886V6.72551L6.70256 6.71156L6.71651 6.69761L6.73046 6.68365V6.6697L6.74442 6.65575L6.75837 6.64179V6.61389L6.77232 6.59993H6.78628V6.57202H6.80023V6.54412L6.81418 6.53016L6.82814 6.51621V6.4883L6.84209 6.47435L6.85604 6.4604V6.40458L6.88395 6.39063V6.32086L6.89791 6.30691V6.18133H6.88395V6.11156L6.85604 6.09761V6.05575H6.84209V6.04179L6.82814 6.02784V6.01389H6.81418L6.75837 5.95807L6.74442 5.94412L6.73046 5.93016V5.91621H6.71651L6.6886 5.90226H6.67465L6.64674 5.8883L6.63279 5.87435H6.61884L6.57698 5.8604L6.54907 5.84644L6.46535 5.83249H6.45139V5.81854H6.42349L6.38163 5.80458H6.35372L6.32581 5.79063V5.77668H6.31186H6.27L6.21418 5.76272L6.17232 5.74877H6.0607V5.69295H5.99093V5.679V5.65109V5.62319V5.58133V5.55342V5.51156V5.4697V5.44179V5.42784V5.38598V5.34412V5.30226V5.27435V5.23249V5.20458V5.16272V5.13482V5.12086H5.83744V5.14877H5.73977V5.17668V5.23249V5.27435V5.31621V5.35807V5.41389V5.45575V5.49761V5.55342V5.58133V5.62319L5.75372 5.63714V5.83249H5.68395V5.87435H4.76302V6.15342H4.73512V6.23714H4.53977V6.22319H4.51186V6.23714L4.44209 6.25109H4.33046H4.14907V6.26505L4.13512 6.279V6.40458H4.10721V6.4883L4.09325 6.50226V6.54412L3.96767 6.55807H3.61884V6.53016V6.50226V6.47435V6.44644V6.43249V6.40458H3.60488L3.59093 6.41854L3.56302 6.44644L3.54907 6.4604L3.53512 6.47435H3.4793L3.46535 6.50226L3.43744 6.51621L3.39558 6.53016L3.38163 6.55807L3.36767 6.57202H3.31186L3.28395 6.59993L3.27 6.61389L3.24209 6.62784V6.65575L3.21418 6.6697L3.17232 6.68365L3.14442 6.69761V6.72551L3.10256 6.73947L3.0886 6.75342L3.0607 6.78133L3.04674 6.79528L3.01884 6.82319H2.97698L2.96302 6.85109L2.94907 6.86505L2.90721 6.879L2.89325 6.90691L2.86535 6.92086L2.85139 6.94877L2.83744 6.96272L2.79558 6.97668V6.99063L2.76767 7.00458L2.73977 7.03249V7.04644L2.71186 7.07435V7.0883L2.67 7.13016V7.15807H2.2793V7.13016V6.85109V6.82319V6.75342V6.72551V6.69761V6.68365V6.64179H2.25139L2.23744 6.65575L2.18163 6.6697V6.69761V6.71156L2.12581 6.72551L2.09791 6.73947L2.08395 6.75342L2.04209 6.76737L2.01418 6.78133V6.80923L1.97232 6.82319L1.94442 6.83714L1.93046 6.85109L1.91651 6.86505V6.879H1.8886V6.90691L1.87465 6.92086L1.83279 6.93482L1.81884 6.94877L1.79093 6.97668L1.77698 6.99063V7.00458H1.74907L1.73512 7.03249V7.04644H1.72116L1.69325 7.0604L1.6793 7.07435L1.66535 7.10226L1.63744 7.13016L1.62349 7.15807L1.59558 7.17202L1.58163 7.18598L1.55372 7.19993L1.53977 7.22784L1.52581 7.24179L1.49791 7.2697V7.28365L1.47 7.31156L1.45605 7.32551L1.44209 7.35342L1.42814 7.36737L1.41419 7.39528L1.38628 7.40923V7.42319L1.37232 7.45109H1.34442V7.479L1.31651 7.49295L1.30256 7.52086L1.2886 7.53482L1.27465 7.54877V7.57668H1.2607L1.21884 7.59063V7.60458L1.20488 7.63249L1.19093 7.64644V7.67435V7.6883L1.14907 7.70226V7.71621L1.12116 7.74412V7.75807L1.10721 7.77202L1.09325 7.79993V7.82784L1.06535 7.84179V7.8697L1.05139 7.88365L1.03744 7.89761L1.02349 7.92551L1.00953 7.93947V7.95342L0.99558 7.98133V8.00923L0.967673 8.02319V8.05109V8.06505L0.95372 8.09295V8.13482L0.925813 8.14877V8.17668V8.20458V8.23249H0.828139L0.535115 8.21854H0.423487L0.395581 8.20458V8.17668L0.381627 8.14877L0.367673 8.13482V8.12086V8.09295V8.079V8.05109V8.00923L0.339767 7.99528V7.96737V7.95342V7.92551V7.89761L0.325813 7.88365V7.8697V7.84179V7.82784V7.79993V7.78598L0.297906 7.77202V7.74412V7.71621V7.70226V7.67435V7.6604L0.283953 7.64644L0.269999 7.61854V7.57668V7.54877H0.242092V7.52086V7.479V7.45109V7.42319V7.39528V7.38133L0.228139 7.35342V7.32551V7.29761V7.2697V7.25575L0.214185 7.22784L0.200232 7.21389V7.17202V7.14412V7.13016V7.10226L0.186278 7.0883V7.07435L0.172325 7.0604V7.04644V7.01854V7.00458V6.97668V6.94877V6.92086V6.89295V6.879V6.85109V6.82319V6.79528V6.78133L0.144418 6.76737V6.75342V6.72551V6.69761V6.6697V6.65575V6.62784V6.59993L0.130464 6.58598V6.57202V6.54412V6.53016V6.50226V6.44644V6.41854V6.40458L0.116511 6.37668V6.36272L0.102557 6.34877V6.33482V6.30691V6.279V6.25109V6.22319V6.19528L0.0886037 6.18133V6.16737L0.0746503 6.15342V6.12551V6.09761V6.0697V6.02784V5.99993V5.98598V5.95807V5.93016V5.90226H0.0467433V5.87435V5.8604V5.83249V5.80458V5.77668V5.73482V5.70691V5.679L0.0327898 5.65109V5.60923V5.58133V5.55342V5.52551V5.51156V5.48365V5.42784V5.39993V5.38598V5.35807V5.30226V5.27435V5.2604V5.21854V5.20458V5.17668L0.0188363 5.14877L0.00488281 5.13482V5.10691V5.079V5.03714V5.00923V4.96737V4.92551V4.88365V4.85575V4.82784V4.78598V4.74412V4.70226V4.6604V4.61854V4.59063V4.54877V4.50691V4.479V4.45109V4.40923V4.36737V4.32551V4.29761V4.25575L0.0188363 4.24179L0.0327898 4.22784V4.19993V4.18598V4.15807V4.13016V4.10226V4.07435V4.0604V4.03249V3.97668V3.94877V3.93482L0.0467433 3.90691V3.86505V3.83714V3.80923V3.78133V3.75342V3.72551V3.68365L0.0746503 3.6697V3.65575L0.493255 3.6697V3.69761H0.521162V3.71156L0.535115 3.72551V3.93482H6.29791L6.31186 3.92086L6.32581 3.90691H6.33977L6.35372 3.89295V3.879H6.38163V3.86505L6.39558 3.83714H6.40953L6.42349 3.80923H6.43744L6.45139 3.79528L6.4793 3.78133V3.76737L6.50721 3.75342L6.52116 3.73947H6.53511V3.72551L6.54907 3.71156H6.56302V3.69761L6.59093 3.6697L6.60488 3.65575L6.61884 3.64179L6.63279 3.62784L6.6607 3.59993L6.67465 3.58598H6.6886L6.70256 3.57202V3.55807L6.73046 3.54412L6.74442 3.53016H6.75837L6.82814 3.4604V3.44644H6.84209L6.85604 3.43249H6.87L6.88395 3.41854V3.40458L6.91186 3.39063L6.93977 3.37668L6.96767 3.36272L6.99558 3.33482H7.03744V3.20923L7.06535 3.19528V3.15342H7.2607V3.18133H9.2979V3.05575L9.28395 3.04179V3.02784L9.27 3.01389V2.80458H9.17232V2.94412L9.15837 2.95807H8.96302V2.90226L8.94907 2.8883V2.80458H8.39093V2.93016H8.37698V2.95807H8.18163V2.8604H8.15372V2.84644V2.77668V2.72086V2.65109V2.58133V2.52551V2.45575V2.39993V2.33016V2.27435V2.20458V2.13482V2.079V2.00923V1.95342V1.88365V1.82784V1.75807V1.70226V1.64644H8.18163V1.59063ZM13.0374 5.74877V5.76272L13.0514 5.74877H13.0374ZM10.3026 6.04179L10.2886 6.02784L10.2746 6.01389H9.39558V6.02784L9.38163 6.05575H9.36767V6.09761L9.35372 6.11156V6.16737L9.33977 6.18133V6.22319H9.32581V6.279L9.31186 6.29295V6.50226H9.32581V6.53016L9.33977 6.54412V6.57202H9.35372V6.62784H9.36767V6.80923H10.163V6.72551H10.177V6.71156L10.1909 6.69761H10.2049L10.2328 6.6697H10.2467V6.65575L10.2746 6.64179L10.2886 6.62784L10.3165 6.59993H10.3584L10.3723 6.58598L10.3863 6.57202L10.4142 6.54412L10.4281 6.53016L10.456 6.51621V6.50226H10.484V6.4883L10.4979 6.47435H10.5258V6.43249V6.39063V6.34877V6.32086V6.279V6.25109V6.22319L10.5119 6.20923L10.4979 6.19528L10.484 6.18133L10.456 6.16737L10.4281 6.15342V6.13947L10.4142 6.12551H10.4002L10.3723 6.11156V6.08365L10.3444 6.0697L10.3305 6.05575L10.3165 6.04179H10.3026ZM8.80953 6.22319L8.79558 6.20923L8.78163 6.19528V6.18133H8.68395V6.22319V6.279V6.32086V6.36272V6.40458V6.4604V6.50226V6.54412V6.59993L8.69791 6.61389L8.71186 6.62784H8.72581V6.65575H8.73977V6.6697L8.75372 6.68365V6.69761H8.78163V6.71156L8.80953 6.72551H8.82349V6.73947L8.85139 6.75342H8.86535V6.76737H8.8793L8.90721 6.78133V6.80923H9.10256V6.78133H9.07465V6.75342L9.0607 6.73947V6.72551H9.04674V6.71156L9.03279 6.69761H9.01884V6.6697L9.00488 6.65575V6.62784L8.97698 6.61389V6.57202H8.96302V6.53016L8.94907 6.51621V6.4883L8.92116 6.4604V6.44644H8.90721V6.43249L8.89325 6.41854L8.8793 6.40458V6.37668L8.86535 6.36272V6.34877H8.85139V6.32086L8.83744 6.30691V6.279H8.82349V6.26505L8.80953 6.25109V6.22319Z" fill="white"/>
</svg>
