<svg width="38" height="12" viewBox="0 0 38 12" fill="none" xmlns="http://www.w3.org/2000/svg">
<path fill-rule="evenodd" clip-rule="evenodd" d="M14.7906 1.39551H15.5023H15.5441H15.6697L15.7116 1.40946L15.7395 1.45132L15.7534 1.46528L15.7674 1.49318V1.52109V1.549L15.7534 1.5769L15.7395 1.60481L15.7255 1.61876V1.63272V1.66062V1.68853V1.71644V1.73039V1.7583V1.78621V1.82807V1.85597V1.86993V1.89783V1.92574V1.95365V1.98155H15.7395L15.7534 1.99551L15.7674 2.03737L15.7534 2.06528L15.7395 2.09318L15.7255 2.10714V2.13504V2.16295V2.19086V2.23272V2.24667V2.27458V2.30248V2.33039V2.3583V2.37225V2.41411V2.44202V2.46993V2.48388L15.7116 2.51179V2.52574H18.586L18.6139 2.53969L18.6279 2.52574L18.7395 2.49783L18.8092 2.48388L18.893 2.45597L18.9627 2.42807L19.0604 2.40016L19.1302 2.37225L19.2139 2.34435L19.2697 2.31644L19.3534 2.30248L19.3674 2.27458L19.3953 2.24667L19.4372 2.23272L19.4651 2.19086L19.5209 2.1769L19.5906 2.16295L19.6465 2.12109L19.6744 2.10714L19.7023 2.09318H19.7162V2.06528L19.7441 2.03737L19.772 2.00946H19.8139V1.99551H20.4279V1.98155H20.6372V1.99551H20.7627L20.7767 1.98155H20.972L20.986 1.99551H21.6837H21.7116L21.7674 2.00946L21.7813 2.03737L21.8372 2.06528L21.8651 2.09318L21.879 2.10714L21.893 2.13504V2.16295L21.879 2.19086L21.8651 2.21876V2.23272L21.8372 2.24667L21.8232 2.28853V2.31644V2.34435V2.3583V2.38621V2.44202V2.46993V2.49783V2.53969V2.58155V2.60946V2.65132V2.69318V2.73504V2.7769V2.81876V2.86062V2.88853V2.93039V2.97225V3.00016V3.04202V3.08388V3.11179V3.1676V3.20946V3.23737V3.27923V3.32109V3.36295V3.39086V3.43272V3.47458V3.51644V3.5583V3.60016V3.62807V3.66993V3.71179V3.73969V3.78155V3.82341V3.86528V3.90714V3.93504H35.7069H37.6744L37.7581 3.96295L37.7999 3.99086V4.00481L37.8418 4.04667L37.8697 4.08853L37.8837 4.11644V4.1583V4.20016V4.24202L37.8697 4.28388L37.8558 4.32574L37.8279 4.3676V4.39551V4.43737V4.47923V4.50714V4.549V4.59086V4.61876V4.64667V4.67458V4.68853V4.73039L37.8139 4.7583L37.7999 4.80016L37.7581 4.84202L37.6744 4.86993H37.5767H37.5069L37.4093 4.84202L28.4511 4.81411V4.84202V4.86993V4.89783V4.93969V4.9676L28.4651 4.98155V5.02342V5.06528V5.10714V5.13504V5.1769V5.21876V5.26062V5.28853V5.33039V5.37225V5.41411V5.45597V5.49783V5.52574V5.5676V5.67923V5.72109V5.76295V5.80481V5.84667V5.88853V5.91644V5.9583V6.00016V6.02807V6.29318L28.4372 6.30714H28.4232V6.349V6.39086V6.41876V6.46062V6.50248V6.54434V6.58621V6.62807V6.65597V6.69783V6.73969V6.7676V6.80946L28.3953 6.85132L28.3813 6.89318L28.3534 6.92109L28.3395 6.93504L28.3534 6.96295L28.3674 7.00481L28.3534 7.03272L28.3395 7.06062V7.1583V7.25597V7.35365V7.43737V7.53504V7.63272V7.73039V7.81411V7.91179V8.00946V8.10714V8.19086V8.20481L28.3813 8.21876L28.4093 8.26062L28.4232 8.28853V8.31644H28.4372L28.4651 8.3583V8.40016V8.44202L28.4372 8.48388V8.49783V8.52574V8.55365V8.58155V8.60946V8.63737V8.66528V8.67923V8.70714V8.72109H28.4232V8.73504H28.4372L28.4511 8.749H28.4651L28.5209 8.7769L28.5488 8.79086L28.5627 8.81876L28.5767 8.84667V8.87458L28.5906 8.91644V8.93039L28.6046 8.9583V8.98621L28.6186 9.01411L28.6325 9.04202L28.6465 9.05597L28.6604 9.09783L28.6744 9.12574L28.7023 9.15365L28.7162 9.1676V9.19551L28.7302 9.22341V9.25132L28.7441 9.29318L28.7581 9.30714L28.772 9.33504V9.36295L28.786 9.39086L28.7999 9.41876L28.8139 9.43272L28.8279 9.47458L28.8418 9.50248V9.53039L28.8558 9.54434V9.57225L28.8697 9.60016L28.8837 9.62807L28.8976 9.66993L28.9116 9.68388L28.9255 9.71179L28.9395 9.73969L28.9534 9.7676L28.9674 9.79551V9.80946V9.83737L28.9813 9.87923L29.0232 9.90714L29.0511 9.92109V9.949L29.079 9.9769V10.0048L29.1209 10.0327L29.1488 10.0467L29.1767 10.0746L29.1906 10.1025L29.2186 10.1304V10.1583V10.1862V10.2141V10.242V10.2699V10.2978L29.2046 10.3118L29.1906 10.3397H29.2186L29.2325 10.3816L29.2465 10.4095L29.2604 10.4234V10.4513L29.2325 10.4792V10.5071L29.2186 10.535L29.2046 10.563L29.1767 10.5909V10.6188L29.1488 10.6467L29.1348 10.6746L29.1069 10.6885V10.7164V10.7583L29.093 10.7862V10.8002L29.079 10.8281L29.0511 10.842L28.9953 10.856H28.9674H28.9255H28.2418L28.186 10.842L28.1581 10.8141L28.1441 10.7862V10.7583V10.7304V10.7025V10.6885V10.6606V10.6327V10.6048V10.5769V10.549V10.535V10.5071V10.4653V10.4374V10.4234V10.3955V10.3676V10.3397V10.3118V10.2839V10.256V10.2281V10.2002V10.1723V10.1583L28.1581 10.1304L28.186 10.0885V10.0606V10.0327L28.1999 10.0048L28.2139 9.99086L28.2418 9.9769L28.2837 9.96295L28.3255 9.949H28.3395L28.3255 9.93504V9.92109V9.89318V9.86528L28.3116 9.83737L28.2976 9.80946V9.78155L28.2837 9.75365L28.2558 9.72574L28.2418 9.69783L28.2279 9.66993L28.1999 9.65597V9.62807V9.60016V9.5583L28.186 9.54434L28.172 9.51644L28.1441 9.48853V9.46062V9.43272L28.1302 9.41876L28.1162 9.3769L28.1023 9.349L28.0883 9.32109L28.0744 9.29318V9.27923L28.0604 9.25132L28.0465 9.22341L28.0325 9.18155L28.0186 9.1676L28.0046 9.13969V9.11179L27.9906 9.08388L27.9767 9.05597L27.9488 9.04202V9.00016V8.97225L27.9627 8.94434L27.9767 8.93039L27.293 8.94434L27.2232 8.97225H27.1255L27.0837 8.9583H27.0697L27.0279 8.97225L26.9441 8.94434L26.9162 8.91644V8.87458V8.83272V8.79086V8.749V8.70714V8.66528V8.63737V8.59551V8.55365V8.52574V8.48388V8.44202L26.9302 8.40016L26.9162 8.3583V8.31644L26.9441 8.28853L26.9581 8.26062L27.0139 8.21876L27.0697 8.19086L27.279 8.1769V8.16295V8.13504V8.09318V8.05132V8.00946V7.9676L27.293 7.92574H27.0697L27.0139 7.91179L26.9581 7.86993L26.9441 7.85597L26.9162 7.81411V7.78621V7.74435V7.70248V7.64667V7.61876V7.5769V7.53504L26.9441 7.50714V7.49318L26.9162 7.45132V7.40946V7.38155V7.33969L26.9441 7.29783L26.9581 7.26993H27.0279V7.25597H27.1255H27.2232L27.2092 7.24202V7.20016V7.1583V7.13039V7.08853V7.04667V7.01876V6.9769V6.93504V6.89318V6.85132V6.80946V6.7676V6.73969V6.69783V6.65597V6.62807V6.58621V6.54434V6.50248V6.46062V6.41876V6.39086V6.36295L27.1813 6.3769L27.0837 6.349L27.0558 6.30714V6.29318H27.0418L26.9999 6.26528L26.9581 6.22341V6.18155V6.13969H26.9441V6.11179V6.08388V6.05597V6.02807V6.00016V5.97225V5.94434V5.91644V5.84667L26.9162 5.80481V5.7769V5.76295L18.1813 5.749L18.1255 5.73504L18.1116 5.749L18.0976 5.79086L18.0697 5.83272L18.0279 5.87458L17.986 5.90248L17.9581 5.94434L17.9302 5.98621L17.9023 6.01411L17.8744 6.05597L17.8465 6.09783L17.8046 6.13969L17.7627 6.18155L17.7488 6.22341L17.7348 6.26528L17.7069 6.29318L17.6651 6.33504L17.6232 6.3769L17.5953 6.40481L17.5674 6.44667L17.5395 6.48853L17.5255 6.51644L17.4837 6.57225L17.4558 6.61411L17.4279 6.64202L17.4139 6.68388L17.372 6.72574L17.3581 6.7676L17.3302 6.79551L17.3162 6.83737L17.2744 6.87923L17.2325 6.92109L17.2046 6.96295L17.1906 7.00481L17.1627 7.03272L17.1488 7.07458L17.1069 7.11644V7.14434L17.0651 7.18621L17.0372 7.22807L17.0093 7.26993L16.9953 7.31179L16.9674 7.35365L16.9395 7.39551L16.9116 7.42341L16.8976 7.45132H16.2976V7.46528H11.5395L11.4279 7.43737V7.46528L11.4139 7.47923V7.52109H11.3999V7.549L11.386 7.56295V7.5769L11.3441 7.59086V7.60481L11.3302 7.61876V7.66062L11.3162 7.67458V7.68853L11.3023 7.70248V7.74435L11.2883 7.7583L11.2744 7.77225V7.78621H11.2604V7.84202L11.2465 7.85597V7.86993L11.2325 7.88388L11.2186 7.89783V7.91179H11.2046V7.92574L11.1906 7.93969V7.95365L11.1767 7.9676V7.99551L11.1627 8.00946L11.1488 8.02342V8.05132L11.1348 8.06528H11.1209L11.1069 8.12109L10.9255 8.51179L11.0232 9.40481L10.9953 9.50248L10.9116 9.54434L10.8279 9.53039L10.7999 9.5583L10.7302 9.61411L10.0883 9.71179H10.0186L9.06972 9.33504L9.0139 9.26528L8.98599 9.23737L8.94413 9.13969L8.98599 8.88853C8.98599 8.85132 8.99995 8.82341 9.02785 8.80481L9.08367 8.7769V8.48388L9.09762 8.46993V8.27458L9.11158 8.26062V8.24667L9.12553 8.23272V8.19086L9.15344 8.1769V8.16295H9.16739V8.13504L9.20925 8.09318V8.06528L9.2232 8.05132L9.23716 8.03737H9.26506V8.02342L9.27902 8.00946V7.98155L9.29297 7.9676V7.93969L9.32088 7.92574L9.33483 7.91179V7.89783L9.34879 7.88388L9.36274 7.86993V7.85597L9.37669 7.84202H9.39065L9.4046 7.82807V7.77225L9.41855 7.7583V7.74435L9.43251 7.73039V7.71644L9.44646 7.70248L9.46041 7.68853V7.67458L9.47437 7.66062L9.50227 7.64667L9.53018 7.61876V7.60481L9.54414 7.59086V7.56295L9.57204 7.549L9.58599 7.53504V7.52109L9.59995 7.50714L9.6139 7.49318V7.46528L9.62786 7.45132L9.65576 7.42341V7.38155L9.66972 7.3676L9.68367 7.35365V7.33969L9.69762 7.32574L9.71158 7.31179V7.29783L9.72553 7.28388V7.26993H9.73948V7.24202L9.75344 7.22807L9.76739 7.21411V7.20016L9.78134 7.18621V7.14434L9.7953 7.13039V7.10248L9.80925 7.08853V7.07458L9.83716 7.06062L9.85111 7.04667V7.03272L9.86506 7.01876V7.00481L9.87902 6.99086V6.96295L9.89297 6.949L9.90693 6.93504V6.83737L9.87902 6.80946V6.75365L9.86506 6.73969V6.69783L9.85111 6.68388V6.66993L9.83716 6.65597V6.61411L9.80925 6.58621V6.43272L9.7953 6.41876H9.73948H9.20925L9.1953 6.40481V6.39086H9.09762L9.02785 6.3769V6.30714H9.0139V6.18155H8.99995V6.23737V6.26528V6.27923V6.32109V6.36295V6.3769H8.77669V6.39086H8.76274V6.40481H8.74879L8.73483 6.41876L8.72088 6.43272H8.70693L8.67902 6.44667V6.46062L8.66506 6.47458L8.65111 6.48853V6.51644H8.63716L8.6232 6.53039V6.54434L8.5953 6.60016L8.58134 6.61411V6.62807H8.55344V6.65597V6.69783V6.73969V6.75365H8.52553V6.7676V6.87923L8.35809 7.10248L8.27437 7.14434H8.17669L8.13483 7.06062L7.67437 7.08853L7.59065 7.06062L7.46507 7.10248L7.4232 7.13039H7.3953V7.17225L7.32553 7.24202L3.83716 8.70714H3.73948L3.69762 8.67923H3.57204H3.47437V8.73504V8.7769V8.81876V8.87458V8.91644V8.9583V9.01411V9.05597V9.11179V9.15365V9.19551V9.25132V9.29318V9.30714L3.54413 9.349L3.58599 9.43272V9.57225L3.54413 9.66993L3.46041 9.69783L3.44646 9.71179L3.34878 9.75365H2.69297L2.6232 9.72574L2.5953 9.73969L2.53948 9.75365H2.48367L2.39995 9.72574L2.34413 9.68388L2.33018 9.65597V9.61411V9.57225V9.54434L1.06041 9.57225L0.976692 9.60016H0.879018L0.781343 9.57225L0.739483 9.53039L0.711576 9.48853V9.46062L0.683669 9.41876L0.655762 9.39086V9.349V9.30714V9.27923V9.23737V9.19551V9.15365V9.11179V9.06993V9.04202V9.00016V8.9583V8.91644V8.88853V8.84667V8.80481V8.76295V8.72109V8.67923V8.65132V8.60946V8.5676V8.53969V8.49783V8.45597V8.41411V8.37225V8.33039V8.28853V8.26062V8.21876V8.1769V8.149V8.10714V8.06528V8.02342V7.98155V7.93969V7.91179V7.86993V7.82807V7.78621V7.7583V7.71644V7.67458V7.63272V7.59086V7.549V7.52109V7.47923V7.43737V7.39551V7.3676V7.32574V7.26993V7.24202V7.20016V7.1583V7.13039V7.08853V7.04667V7.01876V6.9769V6.93504V6.89318V6.85132V6.80946V6.7676V6.73969V6.69783V6.65597V6.62807V6.58621V6.54434V6.50248V6.46062V6.41876V6.39086V6.349V6.30714V6.26528V6.23737V6.19551V6.13969V6.11179V6.06993V6.02807V6.00016V5.9583V5.91644V5.88853V5.84667V5.80481V5.76295V5.72109V5.67923V5.63737V5.60946V5.5676V5.52574V5.49783V5.45597V5.41411V5.37225V5.33039V5.28853V5.26062V5.21876V5.1769L0.683669 5.13504L0.711576 5.10714L0.80925 5.09318V5.07923L0.892971 5.10714L0.920878 5.09318H0.976692V5.07923H2.27437L2.31623 5.09318L2.34413 5.05132L2.44181 5.03737V5.02342L2.51158 5.05132L3.16739 5.07923V5.05132V5.03737L3.12553 5.00946L3.09762 4.9676L3.05576 4.92574L3.0139 4.88388L2.99995 4.85597V4.81411V4.77225V4.74435V4.70248V4.66062L3.02785 4.61876L3.05576 4.5769V4.53504V4.49318V4.46528V4.42341V4.38155V4.35365L3.08367 4.31179L3.11158 4.26993H3.12553L3.15344 4.24202L3.18134 4.21411L3.20925 4.20016H3.26506V4.18621H7.52088L7.6046 4.21411L7.64646 4.24202L7.66041 4.29783L7.68832 4.33969L7.70227 4.35365L7.71623 4.38155L7.74413 4.42341V4.46528L7.73018 4.49318L7.70227 4.53504V4.56295V4.60481V4.61876V4.66062V4.70248V4.74435V4.77225V4.80016V4.84202V4.88388V4.91179V4.95365V4.99551V5.00946V5.05132V5.09318V5.13504H7.68832V5.149L7.64646 5.19086V5.23272L7.6046 5.26062L7.57669 5.28853V5.30248V5.34435L7.59065 5.3583V5.37225L8.27437 5.38621V5.37225H8.30227V5.3583L8.39995 5.33039L8.48367 5.3583H8.60925L8.8046 5.34435L8.93018 5.33039H8.95809L8.99995 5.31644L9.0139 5.30248H9.08367L9.09762 5.28853L9.13948 5.27458L9.15344 5.26062H9.1953L9.20925 5.24667H9.25111L9.26506 5.23272L9.29297 5.21876H9.32088H9.33483L9.34879 5.20481H9.37669L9.39065 5.19086H9.4046V5.1769H9.43251L9.44646 5.16295L9.48832 5.149L9.53018 5.13504H9.54414L9.55809 5.12109L9.57204 5.10714H9.58599L9.62786 5.09318L9.65576 5.07923H9.66972L9.68367 5.06528H9.69762L9.71158 5.05132H9.73948V5.03737L9.76739 5.02342L9.78134 5.00946H9.7953L9.8232 4.99551H9.83716L9.85111 4.98155L9.90693 4.9676L9.92088 4.95365H9.94878L9.99065 4.93969L10.0046 4.92574H10.0186L10.0325 4.91179L10.0604 4.89783L10.1023 4.88388H10.1441L10.1581 4.86993L10.172 4.85597L10.186 4.84202L10.2279 4.82807L10.2558 4.81411L10.2697 4.80016H10.2976V4.78621L10.3255 4.77225L10.3395 4.7583H10.3813L10.3953 4.74435L10.4232 4.71644L10.479 4.70248L10.5069 4.68853L10.5209 4.67458H10.5348L10.5488 4.66062L10.5627 4.64667L10.5906 4.63272L10.6465 4.61876H10.6744V4.60481L10.6883 4.59086L10.7302 4.5769L10.7581 4.56295L10.772 4.549H10.786L10.7999 4.53504V4.52109L10.8139 4.50714L10.8418 4.49318H10.8558L10.8697 4.47923L10.8837 4.46528L10.9116 4.45132H10.9255L10.9395 4.43737L10.9534 4.42341L10.9674 4.40946V4.39551H10.9813L10.9953 4.38155H11.0232L11.0372 4.3676L11.0511 4.35365L11.0651 4.33969L11.093 4.32574L11.1209 4.31179L11.1348 4.29783H11.1627L11.1767 4.28388L11.2046 4.24202H11.2325L11.2744 4.22807L11.3023 4.18621L11.3162 4.1583L11.3441 4.14435H11.372V4.13039H11.386H11.4139V4.11644H11.4279V4.10248H11.4418L11.4697 4.08853L11.4976 4.07458H11.5116H11.5674L11.5953 4.06062L11.7069 4.01876L11.7627 3.99086H11.8186L12.4604 3.96295L12.5441 3.949L12.5581 3.92109V3.86528H10.786V3.85132L10.7581 3.83737H10.7302H10.493H10.0465V3.82341L10.0186 3.80946V3.79551L9.94878 3.78155L9.92088 3.75365V3.73969V3.69783V3.66993V3.64202V3.61411V3.60016V3.57225V3.54435V3.50248V3.48853V3.46062V3.43272V3.40481V3.3769V3.36295V3.32109V3.29318V3.26528V3.23737V3.22341V3.19551V3.1676V3.12574V3.11179V3.08388V3.05597V3.02807L9.90693 3.00016V2.84667L9.92088 2.83272V2.79086V2.73504V2.70714L9.93483 2.66528L9.97669 2.63737H10.0325V2.62341H10.0604V2.60946H10.0744L10.0883 2.58155L10.1162 2.55365L10.1302 2.53969H10.172V2.52574H11.2046V2.51179V2.48388V2.46993V2.44202V2.41411V2.37225V2.3583V2.33039V2.30248V2.27458V2.24667V2.23272V2.19086V2.16295V2.13504L11.1906 2.10714L11.1767 2.09318V2.06528V2.03737V1.99551V1.98155V1.95365V1.92574L11.1906 1.89783L11.2046 1.86993V1.85597L11.2325 1.82807L11.2465 1.81411L11.2744 1.80016H11.3023V1.78621H12.0976L12.1255 1.80016H12.1395V1.78621L12.1813 1.81411L12.2093 1.84202L12.2372 1.85597L12.2511 1.88388V1.91179V1.93969V1.98155V1.99551V2.02341V2.05132V2.07923V2.10714V2.12109V2.16295V2.19086V2.21876V2.23272V2.26062V2.28853V2.31644V2.3583V2.37225V2.40016V2.42807V2.45597V2.48388V2.49783V2.52574H14.6232V2.51179V2.48388V2.46993V2.44202V2.41411V2.37225V2.3583V2.33039V2.30248V2.27458V2.24667V2.23272V2.19086V2.16295V2.13504V2.10714V2.09318V2.06528V2.03737V1.99551V1.98155V1.95365V1.92574V1.89783V1.86993V1.85597V1.82807V1.78621V1.7583V1.73039V1.71644V1.68853V1.66062V1.63272V1.60481V1.5769L14.6372 1.549L14.6651 1.52109L14.679 1.49318L14.693 1.46528L14.7069 1.43737L14.7209 1.40946H14.7488H14.7906V1.39551ZM27.4325 6.71179L27.4465 6.69783V6.66993L27.4325 6.64202V6.66993V6.71179ZM12.2651 6.46062V6.50248V6.54434V6.58621V6.62807V6.65597V6.69783V6.72574V6.73969L12.3209 6.7676L12.3488 6.79551L12.3627 6.83737V6.87923L12.4883 6.86527L12.5581 6.85132V6.83737H12.6279L12.7116 6.80946L12.7953 6.7676L12.8232 6.73969L12.8511 6.71179L12.8651 6.69783L12.9209 6.66993L12.9488 6.64202L12.9906 6.60016L13.0325 6.5583L13.0465 6.51644L13.0604 6.47458L13.0744 6.43272L13.0883 6.39086V6.36295L13.1023 6.32109L12.279 6.33504L12.2651 6.349V6.39086V6.41876V6.46062ZM11.8465 6.87923L11.7906 6.83737L11.7488 6.79551L11.7209 6.7676V6.72574V6.68388V6.64202V6.61411V6.57225V6.51644V6.48853V6.44667V6.40481V6.3769L11.679 6.39086L11.6651 6.41876L11.6511 6.44667L11.6372 6.46062L11.5953 6.47458L11.5813 6.48853L11.5534 6.53039L11.5116 6.57225V6.62807V6.66993V6.72574V6.75365L11.5534 6.7676L11.5953 6.79551L11.6232 6.83737L11.6372 6.87923V6.89318H11.8465V6.87923ZM9.59995 6.25132H9.72553H9.76739V6.23737H9.69762H9.59995V6.25132ZM9.96274 6.41876H10.0046V6.40481H9.96274V6.41876ZM4.07437 7.1583L4.06041 7.17225L4.04646 7.18621V7.21411V7.24202V7.26993V7.29783V7.32574V7.35365V7.38155V7.40946V7.43737V7.46528V7.47923V7.50714V7.52109V7.549V7.56295H4.10227L4.15809 7.59086L4.36739 7.61876L4.4232 7.64667L4.43716 7.61876H4.45111L4.47902 7.60481H4.49297L4.50692 7.59086L4.53483 7.5769L4.54879 7.56295V7.549L4.56274 7.53504L4.61855 7.52109H4.63251L4.64646 7.50714H4.66041H4.68832L4.70227 7.49318H4.71623L4.73018 7.47923L4.74413 7.46528V7.45132H4.75809L4.77204 7.43737H4.78599H4.8139L4.85576 7.42341L4.88367 7.40946L4.93948 7.39551H4.95344L4.98134 7.38155L4.9953 7.3676H5.03716V7.33969L5.06506 7.29783L5.09297 7.25597V7.21411V7.17225V7.14434V7.13039H4.08832V7.14434L4.07437 7.1583ZM2.66506 9.51644L2.69297 9.50248H2.65111L2.66506 9.51644ZM9.20925 9.11179H9.2232L9.20925 9.09783V9.11179Z" fill="white"/>
</svg>
