<svg width="15" height="12" viewBox="0 0 15 12" fill="none" xmlns="http://www.w3.org/2000/svg">
<path fill-rule="evenodd" clip-rule="evenodd" d="M6.60718 4.49296H5.61648C5.48625 4.49296 5.42113 4.55807 5.42113 4.6883V5.24644C5.42113 5.38598 5.48625 5.45575 5.61648 5.45575H6.14672C6.33276 5.45575 6.4909 5.39993 6.62113 5.2883C6.74206 5.17668 6.80253 5.0604 6.80253 4.93947V4.78598L6.74672 4.60458C6.70951 4.53016 6.66299 4.49296 6.60718 4.49296ZM13.9188 2.31621L14.0165 2.35807L14.0025 2.51156L13.7374 4.43714C13.7002 4.59528 13.556 4.71621 13.3049 4.79993L12.3421 5.06505L12.049 5.13482L10.4723 5.16272C10.3328 5.16272 10.263 5.19993 10.263 5.27435V5.8883C10.263 6.07435 10.1979 6.16272 10.0676 6.15342L9.83044 6.11156H7.65369L7.2909 6.18133L7.19323 6.0697L7.17927 5.94412C7.03974 6.16737 6.9002 6.279 6.76067 6.279H5.37927C5.21183 6.279 5.11881 6.39063 5.1002 6.61389L4.93276 6.96272C4.83044 7.16737 4.76067 7.34412 4.72346 7.49296C4.45369 8.53482 4.3002 9.22319 4.263 9.55807C4.24439 9.80923 4.26765 10.186 4.33276 10.6883C4.33276 10.8464 4.22113 10.879 3.99788 10.786L3.59323 10.8418L2.39323 10.5906L1.02579 10.2418C0.80253 10.1581 0.667646 10.0278 0.621135 9.8511C0.565321 9.67435 0.579274 9.39993 0.662995 9.02784L1.13741 7.0604L1.51416 5.56737L1.65369 5.23249L1.76532 4.73016C1.77462 4.59063 1.69555 4.42784 1.52811 4.24179L1.15137 3.90691C1.05834 3.82319 1.01183 3.70691 1.01183 3.55807V2.13482C1.01183 1.93016 1.05369 1.77202 1.13741 1.6604L1.41648 1.38133L1.69555 1.15807L2.36532 1.25575C2.42113 1.26505 2.463 1.2883 2.4909 1.32551L2.54672 1.36737L3.21648 1.479L4.20718 1.50691L4.79323 1.59063L4.863 1.75807C4.9002 1.74877 4.93276 1.73482 4.96067 1.71621L5.15602 1.67435H7.75137L8.08625 1.75807C8.06765 1.72086 8.06299 1.67435 8.0723 1.61854C8.0816 1.55342 8.16067 1.50691 8.30951 1.479L8.54672 1.52086L8.68625 1.38133L8.71416 1.2697C8.71416 1.20458 8.74206 1.16272 8.79788 1.14412L9.24439 1.11621L9.67695 1.28365L10.1095 1.42319L10.2909 1.36737L10.5002 1.35342L11.6583 1.59063C11.7514 1.62784 11.8676 1.69296 12.0072 1.78598L12.2444 1.79993L12.4816 1.81389L12.5514 1.88365L12.5653 1.95342L13.1793 2.12086L13.3328 2.21854L13.4304 2.27435L13.5281 2.24644L13.6397 2.21854L13.9188 2.31621Z" fill="white"/>
</svg>
