<svg width="17" height="12" viewBox="0 0 17 12" fill="none" xmlns="http://www.w3.org/2000/svg">
<path fill-rule="evenodd" clip-rule="evenodd" d="M8.15353 1.66062L8.18144 1.64667L8.1954 1.63272L8.25121 1.61876L8.26516 1.60481L8.29307 1.59086L8.30702 1.5769L8.33493 1.56295L8.34888 1.549H8.36284V1.53504L8.39074 1.52109L8.41865 1.49318L8.4326 1.47923L8.44656 1.46528L8.48842 1.45132L8.51632 1.43737H8.614V1.40946H8.62795V1.39551L8.79539 1.40946V1.42341L8.8233 1.43737V1.45132L8.85121 1.46528L8.86516 1.47923L8.89307 1.49318V1.50714L8.90702 1.52109L8.93493 1.53504L8.96284 1.549L8.97679 1.56295L9.0047 1.5769L9.01865 1.59086H9.04656L9.06051 1.60481L9.08842 1.61876L9.10237 1.64667L9.13028 1.66062L9.17214 1.67458L9.20005 1.70248V1.73039V1.77225V1.81411V1.85597V1.92574V1.9676V1.99551V2.03737V2.07923H15.2V2.06528V2.03737V2.00946V1.98155V1.95365V1.92574H15.214H15.2419L15.2559 1.89783L15.2698 1.88388H15.2838L15.2977 1.85597H15.3117V1.82807L15.3396 1.81411H15.3535L15.3675 1.78621L15.3814 1.77225L15.3954 1.7583V1.74435L15.4093 1.73039L15.4233 1.71644V1.70248H15.828V1.71644L15.8559 1.74435L15.8698 1.7583L15.8838 1.77225V1.78621L15.8977 1.81411H15.9117L15.9256 1.82807L15.9535 1.85597V1.88388H15.9814L15.9954 1.89783L16.0093 1.92574H16.0373V1.9676V1.99551V2.03737V2.06528L16.0652 2.07923V2.12109H16.1489V2.16295V2.19086L16.1768 2.21876L16.2186 2.23272L16.2326 2.26062H16.2466L16.3024 2.27458V2.30248V2.34435V2.41411V2.45597V2.48388V2.51179L16.3303 2.52574V2.5676V2.59551L16.3721 2.60946V2.63737V2.66528V2.69318V2.72109V2.749V2.76295H16.4419V2.79086V2.83272H16.8884V2.87458H16.9721V2.90248V2.93039V2.9583V2.98621V3.01411V3.04202V3.06993V3.09783V3.12574V3.15365V3.18155V3.20946V3.23737V3.26528V3.29318V3.32109V3.349V3.3769V3.40481V3.43272V3.46062V3.48853V3.51644V3.54435V3.57225V3.58621H16.9303L16.414 3.57225V3.58621H16.3721V3.62807V3.65597V3.69783H16.3303V3.73969V3.7676V3.79551V3.80946L16.3024 3.85132L16.2884 3.87923L16.2605 3.90714V3.93504V3.949L16.2047 3.96295V4.00481V4.01876L16.1907 4.03272L16.1768 4.04667V4.07458L16.1628 4.08853L16.1489 4.10248V4.11644L16.1349 4.13039V4.1583L16.121 4.17225H16.0652V4.18621V4.22807V4.25597L16.0512 4.26993V4.28388H15.8419V4.26993L11.8233 4.24202V4.25597H11.5861V4.28388V4.29783V4.33969V4.3676V4.39551V4.42341V4.45132V4.47923V4.50714V4.53504V4.56295V4.59086V4.61876V4.64667V4.67458V4.70248V4.73039V4.7583V4.78621V4.81411V4.84202V4.86993V4.89783V4.92574V4.95365V4.98155V5.00946V5.03737V5.06528V5.09318V5.12109H11.5303V5.149L11.2233 5.1769V5.19086L10.9721 5.1769H10.9303H10.8745V5.20481H10.8466L10.8186 5.21876V5.24667H10.7907V5.27458V5.28853H10.7768L10.7628 5.31644H10.7489V5.34435L10.7349 5.3583H10.721L10.707 5.38621V5.40016H10.6931L10.6791 5.42807L10.6373 5.46993V5.49783L10.6233 5.51179H10.6093L10.5954 5.53969V5.5676L10.5675 5.58155H10.5535V5.60946L10.5396 5.62341L10.5256 5.63737V5.65132L10.4977 5.66528L10.4838 5.67923V5.69318H10.4698V5.72109L10.4419 5.73504V5.749L10.428 5.76295L10.3721 5.7769L10.3582 5.80481V5.81876L10.3303 5.84667V5.90248V5.93039V5.97225V6.00016V6.01411V6.04202V6.05597V6.08388V6.11179V6.1676V6.19551V6.22341V6.30714V6.33504V6.41876V6.44667V6.53039V6.5583V6.64202V6.66993V6.75365V6.78155H10.4419L10.4838 6.80946L10.4977 6.83737L10.5117 6.86528V6.90714V6.949V6.9769V7.01876V7.06062V7.10249L10.5256 7.11644V7.22807L10.5117 7.24202V7.25597L10.4977 7.26993V7.3676L10.4838 7.38155V7.39551L10.4698 7.40946L10.4559 7.42342V7.43737L10.4419 7.45132V7.47923V7.50714H10.4L10.3721 7.52109L10.3582 7.53504L10.3303 7.549V7.56295H10.3163L10.2884 7.5769L10.2605 7.59086H10.2326L10.2187 7.60481V7.61876V7.64667V7.66062L10.1907 7.67458V7.70249V7.71644V7.74435L10.1768 7.77225L10.1628 7.78621V7.80016V7.82807V7.85597V7.88388V7.91179V7.93969V7.9676V7.99551V8.02342V8.05132V8.07923V8.10714V8.13504V8.16295V8.19086V8.21876V8.24667V8.27458V8.30248V8.33039V8.3583V8.38621V8.41411V8.44202V8.46993V8.49783V8.52574V8.5676V8.60946V8.63737V8.67923V8.72109V8.76295V8.83272V8.87458V8.94434V8.98621V9.05597V9.09783V9.12574V9.15365V9.1676V9.20946V9.23737V9.26528V9.27923V9.32109V9.349V9.3769V9.40481V9.43272V9.46062V9.93504V9.96295V10.1304V10.1583V10.1862V10.242V10.2699V10.2978V10.3118V10.3397V10.3816V10.4095V10.4653V10.4932V10.5769V10.6048V10.6327V10.6885V10.7164V10.7443V10.8281V10.856V10.9118H7.91633V10.856V10.8281V10.6327V10.6048V10.5769V10.5211V10.4932V10.4653V10.4095V10.3816V10.3536V10.2978V10.2699V10.242V10.1862V10.1583V10.1304V10.0746V10.0467V10.0188V9.96295V9.93504V9.46062V9.43272V9.40481V9.3769V9.349V9.32109V9.27923V9.26528V9.23737V9.20946V9.1676V9.15365V9.12574V9.09783V9.05597V8.98621V8.94434V8.87458V8.83272V8.76295V8.72109V8.67923V8.63737V8.60946V8.5676V8.52574V8.49783V8.46993V8.44202V8.41411V8.38621V8.3583V8.33039V8.30248V8.27458V8.24667V8.21876V8.19086V8.16295V8.13504V8.10714V8.07923V8.05132V8.02342V7.99551V7.9676V7.93969V7.91179V7.88388V7.85597V7.82807V7.80016V7.77225V7.74435V7.71644V7.68853V7.66062H7.90237L7.88842 7.67458V7.70249L7.86051 7.73039L7.84656 7.7583V7.77225L7.8047 7.80016L7.79074 7.82807L7.77679 7.85597H7.42795V7.82807L7.31633 7.81411L7.30237 7.78621L7.2047 7.77225V7.74435V7.73039H7.17679V7.70249V7.67458V7.64667V7.61876V7.59086V7.56295V7.53504V7.50714V7.47923V7.45132V7.42342V7.39551V7.3676V7.33969V7.31179V7.28388V7.25597V7.22807V7.20016V7.17225V7.13039V7.11644V7.08853V7.06062V7.01876V6.9769V6.949H5.53028V6.9769V7.01876V7.06062V7.10249V7.17225V7.21411V7.25597L4.58144 7.24202V7.25597L4.56749 7.28388L4.55353 7.32574L4.52563 7.35365L4.51167 7.3676L4.49772 7.39551L4.46981 7.43737V7.46528L4.45586 7.49318L4.44191 7.50714V7.549V7.60481L4.40005 7.61876V7.64667L4.38609 7.67458L4.35819 7.70249L4.34423 7.73039L4.33028 7.7583V7.78621V7.81411V7.85597L4.30237 7.86993L4.28842 7.89783L4.27446 7.92574L4.24656 7.9676L4.2326 7.98155V8.00946V8.03737L4.21865 8.07923V8.09318L4.2047 8.12109L4.17679 8.149V8.19086L4.14888 8.20481L4.12098 8.23272V8.26062V8.30248L4.10702 8.31644V8.34435V8.38621V8.42807L4.06516 8.44202V8.46993L4.05121 8.49783L4.00935 8.52574V8.5676V8.58155L3.9954 8.60946V8.63737V8.67923L3.95353 8.69318V8.72109L3.93958 8.76295L3.91167 8.79086L3.89772 8.80481V8.83272V8.86062V8.87458L3.86981 8.88853V8.91644L3.85586 8.94434L3.84191 8.97225V9.00016V9.02807L3.80005 9.04202V9.06993V9.09783V9.13969L3.75819 9.15365V9.18155L3.73028 9.20946V9.25132V9.26528V9.29318L3.71633 9.32109L3.68842 9.36295V9.40481L3.67447 9.43272L3.64656 9.47458V9.51644L3.68842 9.54435V9.57225L3.73028 9.58621V9.62807L3.74423 9.64202L3.75819 9.66993V9.69783L3.78609 9.73969L3.80005 9.75365V9.80946V9.85132V9.92109V9.96295V10.0048V10.0467V10.0746L3.75819 10.0885V10.1164V10.1443V10.1723L3.70237 10.2002L3.68842 10.2281L3.3954 10.2141H3.38144V10.1862L3.0047 10.1723V10.1583L2.46051 10.1304L2.44656 10.1164L1.86051 10.1025V10.0746L1.69307 10.0606L1.67912 10.0467H1.2047L1.16284 10.0327L1.07912 10.0188L1.05121 10.0048L0.702372 9.9769L0.674465 9.96295V9.92109V9.87923L0.520977 9.86528L0.49307 9.85132V9.80946L0.465163 9.78155L0.437256 9.75365V9.73969V9.69783V9.66993V9.64202V9.62807V9.58621V9.5583V9.53039V9.51644V9.47458V9.44667V9.41876V9.39086V9.36295V9.33504V9.30714V9.27923V9.25132L0.465163 9.22341L0.49307 9.19551V9.1676V9.13969L0.520977 9.11179L0.53493 9.08388V9.05597V9.02807V9.00016V8.97225L0.548884 8.94434L0.562837 8.91644V8.88853V8.86062V8.83272V8.80481V8.79086H0.590744V8.76295V8.72109V8.69318L0.618651 8.67923L0.632605 8.63737L0.646558 8.60946V8.58155L0.674465 8.5676V8.52574V8.49783V8.45597L0.702372 8.44202V8.41411V8.38621L0.758186 8.3583V8.33039V8.30248V8.27458L0.786093 8.24667V8.21876V8.19086L0.814 8.16295L0.841907 8.13504L0.869814 8.10714V8.07923H0.911674V8.03737V8.00946L0.939581 7.98155L0.953535 7.9676L0.967488 7.92574L0.981442 7.89783L1.0233 7.86993V7.85597V7.81411L1.03726 7.78621L1.05121 7.7583V7.74435L1.09307 7.73039L1.10702 7.70249L1.12098 7.66062L1.13493 7.63272L1.14888 7.61876L1.16284 7.59086V7.549V7.52109L1.2047 7.49318V7.47923V7.43737L1.2326 7.40946L1.24656 7.38155L1.27447 7.35365V7.32574L1.31633 7.29783V7.26993L1.33028 7.24202L1.34423 7.21411L1.35819 7.18621L1.38609 7.1583V7.13039L1.414 7.10249L1.42795 7.07458L1.46981 7.04667V7.01876H1.49772V6.9769L1.51167 6.949L1.53958 6.92109L1.58144 6.90714V6.86528V6.83737L1.6233 6.82342V6.79551L1.65121 6.7676V6.73969L1.69307 6.71179V6.68388V6.65597L1.73493 6.64202V6.61411L1.76284 6.58621V6.5583L1.8047 6.53039V6.50248L1.84656 6.47458V6.44667L1.87447 6.41876V6.39086V6.36295L1.91633 6.33504V6.30714V6.27923L1.95819 6.26528L1.97214 6.22341L1.98609 6.19551V6.18155L2.00005 6.15365L2.02795 6.11179V6.06993C2.04656 6.05132 2.06051 6.04202 2.06981 6.04202V6.00016L2.08377 5.97225L2.09772 5.9583V5.93039V5.88853L2.12563 5.86062L2.13958 5.83272V5.81876V5.79086L2.18144 5.7769V5.73504V5.66528L2.13958 5.62341V5.58155L2.09772 5.55365V5.52574V5.49783L2.06981 5.46993L2.02795 5.45597V5.42807V5.40016L1.98609 5.3583V5.31644L1.95819 5.28853L1.91633 5.24667L1.87447 5.23272V5.1769L1.84656 5.13504V5.09318V5.05132V4.98155V4.95365H1.16284V4.92574L1.09307 4.91179V4.89783L1.05121 4.88388L1.0233 4.85597L0.995395 4.82807L0.953535 4.80016L0.939581 4.7583L0.911674 4.74435V4.71644L0.869814 4.68853V4.67458L0.827954 4.64667L0.786093 4.63272V4.60481V4.56295L0.758186 4.53504L0.702372 4.52109V4.49318L0.674465 4.46528V4.43737V4.40946H0.646558V4.38155V4.33969V4.26993V4.22807V4.20016V4.17225V4.1583V4.11644V4.08853V4.06062V4.03272V4.00481V3.9769V3.949V3.92109V3.89318V3.86528V3.83737V3.80946V3.78155V3.75365V3.72574V3.69783V3.66993V3.64202V3.61411V3.58621V3.5583V3.53039V3.50248V3.47458V3.44667V3.41876V3.39086V3.36295V3.33504V3.30714V3.27923V3.25132V3.22341V3.19551V3.1676V3.13969V3.09783V3.05597V3.01411V2.97225V2.94435H0.674465V2.93039V2.90248V2.87458V2.84667V2.81876V2.79086V2.76295V2.749H0.702372V2.72109L0.786093 2.69318L0.800047 2.66528L0.814 2.63737H0.827954L0.897721 2.62341L0.911674 2.59551V2.5676L0.939581 2.52574L1.00935 2.51179L1.03726 2.48388L1.05121 2.45597L1.12098 2.42807L1.14888 2.40016V2.38621L1.16284 2.37225L1.2047 2.3583V2.34435L1.26051 2.31644L1.27447 2.30248L1.31633 2.27458L1.37214 2.26062L1.38609 2.23272L1.44191 2.20481L1.48377 2.1769L1.49772 2.149H1.58144V2.12109L1.6233 2.09318V2.07923L1.69307 2.05132L1.73493 2.03737V2.00946V1.99551L1.77679 1.98155H1.79074V1.9676H1.8047V1.95365V1.92574V1.88388L1.91633 1.89783V1.86993V1.84202V1.81411V1.78621V1.77225H1.93028L1.95819 1.7583V1.73039H1.97214L1.98609 1.70248L2.00005 1.68853V1.66062L2.29307 1.67458V1.68853L2.4047 1.70248V1.73039V1.77225V1.80016L2.41865 1.81411L2.4326 1.85597L2.44656 1.88388V1.92574V1.9676V1.99551L8.13958 2.00946V1.99551V1.9676V1.92574V1.85597V1.81411V1.77225V1.73039V1.66062H8.15353ZM7.34423 5.73504L7.31633 5.70714V5.67923V5.65132L7.28842 5.62341V5.59551V5.5676V5.53969L7.24656 5.51179V5.46993L7.2047 5.45597V5.42807L7.17679 5.40016L7.14888 5.37225L6.95353 5.3583H6.20005L6.214 5.37225V5.40016V5.41411V5.44202H6.22795V5.45597L6.24191 5.46993L6.25586 5.48388V5.51179L6.26981 5.52574L6.28377 5.55365H6.29772L6.31167 5.58155H6.32563L6.33958 5.59551L6.36749 5.62341V5.63737L6.38144 5.66528H6.40935V5.69318H6.43726L6.45121 5.70714L6.46516 5.73504H6.47912V5.76295L6.50702 5.7769L6.52098 5.79086L6.53493 5.80481V5.81876H6.54888L6.56284 5.83272L6.59074 5.84667V5.86062L6.6047 5.87458H6.61865L6.64656 5.88853L6.67446 5.90248L6.70237 5.91644V5.94434L6.71633 5.9583H6.74423L6.77214 5.98621L6.78609 6.00016V6.02807L6.77214 6.04202L6.75819 6.06993L6.74423 6.08388V6.11179H6.73028V6.13969L6.71633 6.15365L6.70237 6.1676H6.68842L6.67446 6.18155H6.66051H6.54888L6.50702 6.1676H6.46516L6.43726 6.15365H6.40935L6.38144 6.13969L6.36749 6.12574V6.11179H6.32563H6.29772L6.25586 6.09783L6.24191 6.08388L6.22795 6.06993L6.214 6.05597L6.20005 6.04202H6.15819L6.14423 6.02807V6.01411L6.13028 6.00016L6.11633 5.98621L6.08842 5.97225L6.07447 5.9583L6.06051 5.94434L6.04656 5.93039L6.0326 5.91644V5.90248L6.01865 5.88853L6.0047 5.87458L5.97679 5.86062L5.96284 5.84667L5.94888 5.83272L5.93493 5.81876L5.92098 5.80481V5.79086L5.90702 5.7769L5.89307 5.76295L5.87912 5.749L5.85121 5.73504L5.83726 5.72109L5.8233 5.69318H5.80935V5.66528L5.7954 5.65132V5.63737L5.76749 5.62341V5.60946L5.75353 5.58155L5.73958 5.5676L5.72563 5.55365V5.53969V5.51179L5.71167 5.49783V5.46993V5.44202L5.69772 5.42807L5.68377 5.40016V5.38621V5.3583H5.65586L5.64191 5.37225L5.60005 5.40016V5.41411L5.57214 5.44202L5.55819 5.45597L5.54423 5.48388L5.50237 5.52574V5.5676L5.48842 5.60946L5.46051 5.63737V5.67923V5.72109L5.4326 5.76295L5.4047 5.79086L5.39074 5.83272L5.36284 5.87458L5.34888 5.91644V5.94434V5.98621L5.30702 6.02807V6.06993L5.29307 6.09783L5.25121 6.13969V6.18155V6.22341L5.23726 6.25132L5.1954 6.29318V6.33504L7.24656 6.36295V6.33504V6.30714V6.27923V6.25132L7.28842 6.22341L7.31633 6.19551V6.1676L7.34423 6.15365V6.11179V6.08388L7.40005 6.06993V6.04202V6.01411V5.98621L7.42795 5.9583L7.414 5.93039L7.40005 5.90248V5.87458V5.84667L7.38609 5.81876L7.34423 5.79086V5.76295V5.73504ZM2.36284 6.09783V6.08388H2.34888V6.09783H2.36284Z" fill="white"/>
</svg>
