<svg width="28" height="12" viewBox="0 0 28 12" fill="none" xmlns="http://www.w3.org/2000/svg">
<path fill-rule="evenodd" clip-rule="evenodd" d="M25.7161 1.77204L25.7859 1.88367L25.9115 2.28832L26.0231 2.8046V3.25111L26.0929 3.36274L26.1487 3.53018H26.2324L26.3719 3.51623H26.4557L27.2231 3.53018L27.251 3.586L27.2929 3.72553L27.3626 3.93483V4.15809L27.2231 4.31158L26.9161 4.38135L26.6789 4.40925L26.5394 4.45111L26.3999 4.49297H26.3161L26.1487 4.45111L26.1068 4.67437L25.9254 4.84181L25.8417 4.85576L25.8138 4.88367L25.7859 4.89762V5.13483L25.7161 5.35809H25.6743H25.2557L24.8371 5.26042L24.7394 5.31623L24.6975 5.35809H24.6696L24.4185 5.45576L24.2789 5.62321V5.83251L24.3068 6.20925V6.78134V7.46507V8.07902L24.2789 8.56739L24.2092 9.0139L24.1254 9.26507L24.0836 9.41855L24.0417 9.48832H23.9859L23.6092 9.53018C23.4324 9.53018 23.3068 9.49297 23.2324 9.41855V9.39065L23.1208 9.26507C23.0743 9.22786 23.051 9.15809 23.051 9.05576L23.0231 8.8046V8.74879L22.9673 8.70693L23.065 7.26972L23.1208 6.4046L23.1905 5.91623L23.2324 5.70693L23.1347 5.66507L23.051 5.56739L22.9812 5.48367L22.9254 5.45576L22.8696 5.42786L22.7859 5.33018L22.6603 5.26042L22.5626 5.23251L22.5208 5.21855H22.4929L22.2836 5.26042L22.2278 5.23251L22.1719 5.21855H22.1022H22.0324L21.9487 5.23251L21.8092 5.26042H20.958L20.9719 5.13483L20.9859 4.9953V4.89762L20.6092 5.12088L20.2603 5.26042H19.6882L19.758 5.56739L19.8417 5.986L19.9254 6.54414L19.8417 6.55809L19.6882 6.64181L19.758 6.96274L19.9394 7.71623L20.1487 8.73483L20.4138 9.89297L20.5533 10.493L20.5673 10.5906L20.4975 10.6046L20.3999 10.6186L20.3022 10.6325L20.2324 10.6604L20.0092 10.6744L19.9115 10.6883L19.8138 10.7023L19.744 10.7302L19.3115 10.7441L19.2138 10.7581L19.1161 10.772L19.0464 10.7999H18.8092L18.7394 10.5069V10.493L18.4464 9.22321L18.1673 8.06507L17.9859 7.24181L17.9022 6.92088H17.5254L17.2324 6.93483L17.0231 6.94879L16.8417 7.0046L16.6603 7.14414L16.5487 7.31158L16.465 7.43716L16.3533 7.53483L16.0185 7.6046L15.4045 7.64646H14.7208L14.3161 7.57669L13.9394 7.43716L13.6185 7.25576C13.4324 7.51623 13.3394 7.69297 13.3394 7.786L13.4231 7.96739L13.451 8.06507H13.4929L13.3394 8.21855L13.2975 8.2046L13.2138 8.21855L13.0882 8.42786L12.851 8.8046L12.6696 9.22321L12.5859 9.46041V9.76739C12.6138 9.7953 12.6045 9.84181 12.558 9.90693L12.2371 9.96274L11.9022 9.80925L11.3719 9.50228L10.8696 9.20925L10.6045 8.95809L10.6464 8.8046L10.8278 8.46972L11.2324 7.70228L11.9999 6.37669L11.9022 5.93018C11.8557 5.71623 11.6975 5.56739 11.4278 5.48367L10.8417 5.26042L10.5347 5.2046L10.2696 5.17669L9.96264 5.13483L9.53008 5.09297H9.11148L8.81846 5.13483L1.6045 7.68832H1.5766L1.42311 7.70228L1.08822 7.74414L0.739386 7.73018L0.460316 7.64646C0.404502 7.58135 0.376595 7.52088 0.376595 7.46507V6.48832V5.76274L0.306828 5.21855V4.54879L0.292875 4.26972L0.264968 4.0046L0.237061 3.65576C0.237061 3.54414 0.297526 3.46507 0.418456 3.41855L0.697526 3.37669L1.26962 3.36274L1.98125 3.34879H2.58125H7.66032L7.95334 3.26507L8.33008 3.16739L8.72078 3.05576L8.90218 2.97204L9.1952 2.76274L9.36264 2.66507L9.48822 2.62321L10.0324 2.48367L10.1999 2.45576L10.2975 2.42786L10.6464 2.09297L11.1347 1.57669L11.5533 1.52088L11.9719 1.57669L12.0557 1.56274L12.0975 1.54879L12.1533 1.56274L12.2929 1.63251H12.6278L12.7115 1.79995V2.386H12.7673V2.03716H13.4929V1.85576H13.8836V2.03716H14.1487V1.85576H14.5115V2.03716H14.7626V1.85576H15.1394V2.03716H15.4464V1.85576H15.8092V2.03716H16.1161V1.85576H16.4929V2.03716H16.7999V1.85576H17.1766V2.03716H17.4138V1.85576H17.8324V2.03716H18.0557V1.85576H18.4324V2.03716H18.8231V2.386H23.944L24.2929 2.07902L24.5859 1.77204L24.5999 1.57669L24.6138 1.46507L24.6975 1.22786L24.8929 1.08832H25.0045L25.2557 1.01855L25.465 1.186L25.6743 1.57669L25.7161 1.77204ZM18.6138 2.23251H12.9906V2.386H18.6138V2.23251ZM13.9812 6.6139C13.9812 6.68832 14.0278 6.75809 14.1208 6.82321C14.1952 6.88832 14.2836 6.92088 14.3859 6.92088H15.6836L15.9626 6.82321L16.0603 6.6139C16.0603 6.47437 16.0278 6.36739 15.9626 6.29297L15.6836 6.20925H14.3859C14.2836 6.20925 14.1952 6.23716 14.1208 6.29297C14.0278 6.36739 13.9812 6.47437 13.9812 6.6139ZM6.73939 4.98135L6.82311 4.79995C6.82311 4.56739 6.71148 4.45111 6.48822 4.45111H5.87427C5.79055 4.45111 5.72078 4.47902 5.66497 4.53483C5.59985 4.59995 5.56729 4.68832 5.56729 4.79995C5.56729 4.87437 5.59985 4.93483 5.66497 4.98135C5.72078 5.04646 5.79055 5.07902 5.87427 5.07902H6.48822C6.59055 5.07902 6.67427 5.04646 6.73939 4.98135ZM1.70218 4.14414L1.36729 4.11623L1.38125 4.61855L1.43706 5.27437L1.46497 5.91623L1.47892 6.29297C1.52543 6.33948 1.62311 6.39065 1.77194 6.44646L2.24636 6.53018L2.70683 6.41855L3.26497 6.22321L3.82311 5.97204L4.2138 5.76274L4.31148 5.51158L4.22776 5.07902L4.07427 4.63251L3.68357 4.57669L3.05567 4.40925L2.63706 4.29762L2.14869 4.19995L1.70218 4.14414Z" fill="white"/>
</svg>
