<svg width="23" height="12" viewBox="0 0 23 12" fill="none" xmlns="http://www.w3.org/2000/svg">
<path fill-rule="evenodd" clip-rule="evenodd" d="M22.2993 4.14405H17.9597L17.9039 4.10219L17.8202 4.1301H14.4853L14.4016 4.18591L14.276 4.14405H12.8667V3.89289H12.3923V3.68358H12.0993V4.17196L12.169 4.22777V4.46498L12.0993 4.52079L12.0714 4.99521H8.90392L8.84811 5.02312C8.8016 5.06033 8.76439 5.11149 8.73648 5.17661L8.17834 6.54405L8.03881 6.69754L7.81555 6.7394L6.36439 6.79521L6.15509 6.71149L5.7923 6.59986L5.58299 6.57196L5.37369 6.61382L5.12253 6.64172L5.02486 6.61382L4.31323 9.62777L4.28532 9.96266L4.43881 10.1859L1.43881 10.158L1.46672 9.47428C1.52253 8.91614 1.6109 8.38591 1.73183 7.88358C1.86207 7.37196 2.02951 6.89289 2.23416 6.44638L2.42951 6.04172L2.52718 5.79056C2.55509 5.67893 2.53183 5.59056 2.45741 5.52545C2.4016 5.46963 2.28067 5.40917 2.09462 5.34405L1.73183 5.21847L1.6202 5.10684L1.63416 4.78591L1.66207 4.57661L1.14579 4.52079L1.04811 4.49289C0.982995 4.44638 0.955088 4.38591 0.964391 4.31149C0.982995 4.21847 1.04346 4.17196 1.14579 4.17196L1.29927 4.18591L1.36904 3.82312L1.78765 4.08824L1.96904 3.18126L2.26207 2.62312V2.38591L2.48532 2.51149L3.37834 2.52545L3.46206 2.59521H6.50392V2.65103H8.20625V2.60917H11.1365V2.23242H11.8342L11.9179 2.3301V2.58126L12.0156 2.56731L12.1132 2.69289V2.91614H12.3923V2.72079H12.8109V2.31614H14.2621L14.3597 2.26033L14.4853 2.31614H17.8202L17.9179 2.3301L18.0156 2.28824H22.2993L22.369 2.37196L22.4528 2.66498L22.4807 3.18126L22.4388 3.72545L22.3551 4.01847L22.2993 4.14405ZM8.09462 5.02312L6.50392 5.03707L6.16904 5.38591L6.0016 5.60917C5.93648 5.71149 5.89927 5.82777 5.88997 5.958L5.91788 6.23707L5.97369 6.37661L5.87602 6.44638L5.76439 6.20917C5.68997 6.04172 5.65741 5.90219 5.66672 5.79056C5.68532 5.60452 5.75509 5.43242 5.87602 5.27428L6.02951 5.09289L5.80625 5.1487C5.63881 5.20451 5.51788 5.26963 5.44346 5.34405C5.34113 5.45568 5.27602 5.57661 5.24811 5.70684C5.2109 5.84638 5.2202 5.97661 5.27602 6.09754L5.51323 6.37661L5.87602 6.5301L6.28067 6.54405L6.58765 6.57196L7.27137 6.59986L7.88532 6.558L8.16439 5.9301L8.37369 5.34405V5.26033L8.34579 5.12079L8.1923 5.03707L8.09462 5.02312Z" fill="white"/>
</svg>
