<svg width="12" height="12" viewBox="0 0 12 12" fill="none" xmlns="http://www.w3.org/2000/svg">
<path fill-rule="evenodd" clip-rule="evenodd" d="M11.1665 4.26447L11.1366 4.28837L11.1087 4.76279H7.94128L7.88547 4.7907C7.83895 4.82791 7.80174 4.87907 7.77384 4.94419L7.2157 6.31163L7.07616 6.46512L6.85291 6.50698L5.40174 6.56279L5.19244 6.47907L4.82965 6.36744L4.62035 6.33953L4.41105 6.3814L4.15988 6.4093L4.06221 6.3814L3.35058 9.39535L3.32267 9.73023L3.47616 9.95349L0.476163 9.92558L0.50407 9.24186C0.559884 8.68372 0.648256 8.15349 0.769186 7.65116C0.899419 7.13953 1.06686 6.66047 1.27151 6.21395L1.46686 5.8093L1.56454 5.55814C1.59244 5.44651 1.56919 5.35814 1.49477 5.29302C1.43895 5.23721 1.31802 5.17674 1.13198 5.11163L0.769186 4.98605L0.657558 4.87442L0.671512 4.55349L0.699419 4.34419L0.18314 4.28837L0.0854651 4.26047C0.0203488 4.21395 -0.00755814 4.15349 0.00174419 4.07907C0.0203488 3.98605 0.080814 3.93953 0.18314 3.93953L0.336628 3.95349L0.406395 3.5907L0.825 3.85581L1.0064 2.94884L1.29942 2.3907V2.15349L1.52267 2.27907L2.4157 2.29302L2.49942 2.36279H5.54128V2.4186H7.24361V2.37674H10.1738V2H10.8715L10.9552 2.09767V2.34884L11.0529 2.33488L11.1506 2.46047V2.68372H11.1665V3.45116H11.1366V3.93953L11.1665 3.96344V4.26447ZM5.54128 4.80465L7.13198 4.7907L7.22965 4.80465L7.38314 4.88837L7.41105 5.02791V5.11163L7.20174 5.69767L6.92267 6.32558L6.30872 6.36744L5.625 6.33953L5.31802 6.31163L4.91337 6.29767L4.55058 6.14419L4.31337 5.86512C4.25756 5.74419 4.24826 5.61395 4.28547 5.47442C4.31337 5.34419 4.37849 5.22326 4.48081 5.11163C4.55523 5.03721 4.67616 4.97209 4.8436 4.91628L5.06686 4.86047L4.91337 5.04186C4.79244 5.2 4.72267 5.37209 4.70407 5.55814C4.69477 5.66977 4.72733 5.8093 4.80174 5.97674L4.91337 6.21395L5.01105 6.14419L4.95523 6.00465L4.92733 5.72558C4.93663 5.59535 4.97384 5.47907 5.03895 5.37674L5.2064 5.15349L5.54128 4.80465Z" fill="white"/>
</svg>
