<svg width="40" height="12" viewBox="0 0 40 12" fill="none" xmlns="http://www.w3.org/2000/svg">
<path fill-rule="evenodd" clip-rule="evenodd" d="M39.7116 2.95806L39.6977 3.29294L39.6139 3.62782L39.1674 3.7534L38.4558 3.76736V3.90689H38.4977L38.5535 3.97666L38.9023 3.94875C39.0884 3.93015 39.2326 3.96271 39.3349 4.04643C39.4186 4.07433 39.4837 4.17666 39.5302 4.3534C39.586 4.51154 39.6 4.66968 39.5721 4.82782C39.4977 5.05108 39.3395 5.19992 39.0977 5.27433H29.1628C29.107 5.27433 28.9442 5.3255 28.6744 5.42782L27.4326 5.56736H27.2651H26.0791H24.4326L22.5907 5.59526H20.8605H19.5488L18.9488 5.56736L18.6279 5.46968H18.293H17.7907L17.4558 5.42782L16.9395 5.39992H16.4791L16.214 5.41387L15.9767 5.5534C15.7442 5.71154 15.5767 5.79061 15.4744 5.79061L15.2791 5.70689L14.9023 5.60922L14.4279 5.51154L14.107 5.46968H13.5907C13.3395 5.48829 13.1767 5.5348 13.1023 5.60922C13.0465 5.60922 12.9721 5.68829 12.8791 5.84643L12.5163 6.22317C12.386 6.36271 12.2465 6.45108 12.0977 6.48829H11.8605L11.693 6.55806L11.5953 6.57201L11.1767 6.58596L10.5907 6.61387L10.0047 6.66968C9.82791 6.69759 9.72093 6.7348 9.68372 6.78131L9.54419 7.06038L9.27907 7.67433L8.90232 8.45573L8.52558 9.18131C8.52558 9.37666 8.53953 9.50689 8.56744 9.57201L8.62325 9.7534L8.69302 9.82317L8.8186 9.94875L8.90232 10.1162L8.84651 10.1999L8.65116 10.2557L8.35814 10.2836L7.98139 10.2557L7.4093 10.1162L6.73953 9.99061L6.22326 9.80922C6.04651 9.77201 5.95349 9.73015 5.94419 9.68364L5.90233 9.62782V9.61387H5.88837C5.83256 9.57666 5.80465 9.51154 5.80465 9.41852V9.32085L6.04186 8.90224L6.48837 8.07899L6.94884 7.24178L7.17209 6.78131L7.15814 6.48829L7.04651 6.22317L6.61395 6.1255C6.43721 6.09759 6.30698 6.09759 6.22326 6.1255L5.94419 6.08364H5.88837L5.90233 5.95806L5.91628 5.86038L5.94419 5.80457L5.42791 5.90224L4.45116 6.1255L3.51628 6.36271L3.05581 6.46038L2.91628 6.58596L2.69302 6.86503L2.51163 7.15806L2.35814 7.5348L2.2186 7.84178L2.13488 8.02317L1.92558 8.17666L1.43721 8.41387L0.446512 8.83247H0.376744L0.0837209 8.7348L0 3.47433L2.17674 3.1534L2.35814 3.09759L2.45581 2.99992L2.55349 2.88829L9.68372 2.23247V2.3162L9.8093 2.51154L9.92093 2.59526L9.97674 2.63713L10.0605 2.59526L10.1442 2.51154V2.3162H10.2L10.6465 1.67433V1.64643H10.6744L10.7023 1.60457L10.7163 1.59061H11.1488L11.1907 1.64643H11.2744V1.77201C11.3488 1.83713 11.4279 1.86968 11.5116 1.86968L11.6512 1.93945H12.0977L12.4465 1.96736C12.5395 1.97666 12.586 2.01387 12.586 2.07899C12.6419 2.07899 12.6698 2.15806 12.6698 2.3162V2.45573L12.7256 2.46968L12.7674 2.49759L12.8093 2.51154V2.07899H17.7907V1.79992H18.0837V2.07899H18.8093V2.17666L18.8512 2.45573L18.9488 2.59526H37.2419L37.4372 2.41387L37.5349 2.17666L37.5907 2.00922L37.6465 1.73015C37.693 1.62782 37.7488 1.57666 37.8139 1.57666L38.1209 1.68829L38.5535 1.93945L38.9721 2.23247L39.1953 2.51154L39.2791 2.59526L39.3349 2.63713L39.4046 2.65108H39.4744L39.7116 2.74875V2.95806ZM37.5907 3.90689L37.4512 3.76736H37.0186L36.9488 3.66968H29.1628C29.0605 3.76271 29.0093 3.84178 29.0093 3.90689V3.97666L30.0279 4.00457H32.1349L34.786 3.94875L37.3953 3.90689H37.5907ZM11.4698 1.82782L11.4977 1.84178H11.5256L11.5395 1.85573H11.4698V1.82782ZM11.9023 5.98596L12 5.70689C12 5.54875 11.9674 5.42317 11.9023 5.33015C11.8372 5.24643 11.7349 5.20457 11.5953 5.20457H10.5767C10.4558 5.20457 10.3488 5.24643 10.2558 5.33015C10.1814 5.42317 10.1442 5.54875 10.1442 5.70689C10.1442 5.80922 10.1814 5.90224 10.2558 5.98596C10.3488 6.07899 10.4558 6.1255 10.5767 6.1255H11.5953C11.7349 6.1255 11.8372 6.07899 11.9023 5.98596ZM10.4512 1.85573H10.4093L10.4372 1.84178H10.4512V1.85573Z" fill="white"/>
</svg>
